<svg width="96" height="12" viewBox="0 0 96 12" fill="none" xmlns="http://www.w3.org/2000/svg">
<path d="M0.0568182 9.01025V0.282981H3.10795C3.71591 0.282981 4.21733 0.388095 4.61222 0.598322C5.0071 0.805708 5.30114 1.08554 5.49432 1.43781C5.6875 1.78724 5.78409 2.17503 5.78409 2.60116C5.78409 2.97616 5.71733 3.28582 5.58381 3.53014C5.45313 3.77446 5.27983 3.96764 5.06392 4.10969C4.85085 4.25173 4.61932 4.35684 4.36932 4.42503V4.51025C4.63636 4.5273 4.90483 4.62105 5.17472 4.7915C5.4446 4.96196 5.67045 5.20628 5.85227 5.52446C6.03409 5.84264 6.125 6.23184 6.125 6.69207C6.125 7.12957 6.02557 7.52304 5.8267 7.87247C5.62784 8.2219 5.31392 8.49889 4.88494 8.70344C4.45597 8.90798 3.89773 9.01025 3.21023 9.01025H0.0568182ZM1.11364 8.07275H3.21023C3.90057 8.07275 4.39063 7.93923 4.6804 7.67219C4.97301 7.4023 5.11932 7.07559 5.11932 6.69207C5.11932 6.39662 5.04403 6.12389 4.89347 5.87389C4.7429 5.62105 4.52841 5.41934 4.25 5.26878C3.97159 5.11537 3.64205 5.03866 3.26136 5.03866H1.11364V8.07275ZM1.11364 4.11821H3.07386C3.39205 4.11821 3.67898 4.05571 3.93466 3.93071C4.19318 3.80571 4.39773 3.62957 4.5483 3.4023C4.7017 3.17503 4.77841 2.90798 4.77841 2.60116C4.77841 2.21764 4.64489 1.89236 4.37784 1.62531C4.1108 1.35542 3.6875 1.22048 3.10795 1.22048H1.11364V4.11821ZM9.65128 9.16366C9.23651 9.16366 8.86009 9.08554 8.52202 8.92929C8.18395 8.7702 7.91548 8.5415 7.71662 8.24321C7.51776 7.94207 7.41832 7.57844 7.41832 7.1523C7.41832 6.7773 7.49219 6.47332 7.63991 6.24037C7.78764 6.00457 7.98509 5.81991 8.23224 5.68639C8.4794 5.55287 8.75213 5.45344 9.05043 5.38809C9.35156 5.31991 9.65412 5.26594 9.9581 5.22616C10.3558 5.17503 10.6783 5.13667 10.9254 5.11111C11.1754 5.0827 11.3572 5.03582 11.4709 4.97048C11.5874 4.90514 11.6456 4.7915 11.6456 4.62957V4.59548C11.6456 4.17503 11.5305 3.84832 11.3004 3.61537C11.0732 3.38241 10.728 3.26594 10.2649 3.26594C9.7848 3.26594 9.40838 3.37105 9.13565 3.58128C8.86293 3.7915 8.67116 4.01594 8.56037 4.25457L7.60582 3.91366C7.77628 3.51594 8.00355 3.20628 8.28764 2.98469C8.57457 2.76025 8.88707 2.604 9.22514 2.51594C9.56605 2.42503 9.90128 2.37957 10.2308 2.37957C10.4411 2.37957 10.6825 2.40514 10.9553 2.45628C11.2308 2.50457 11.4964 2.60542 11.7521 2.75883C12.0107 2.91224 12.2251 3.14378 12.3956 3.45344C12.5661 3.76309 12.6513 4.17787 12.6513 4.69775V9.01025H11.6456V8.12389H11.5945C11.5263 8.26594 11.4126 8.41792 11.2536 8.57986C11.0945 8.74179 10.8828 8.87957 10.6186 8.99321C10.3544 9.10684 10.032 9.16366 9.65128 9.16366ZM9.80469 8.26025C10.2024 8.26025 10.5376 8.18213 10.8104 8.02588C11.0859 7.86963 11.2933 7.66792 11.4325 7.42077C11.5746 7.17361 11.6456 6.91366 11.6456 6.64094V5.72048C11.603 5.77162 11.5092 5.81849 11.3643 5.86111C11.2223 5.90088 11.0575 5.93639 10.87 5.96764C10.6854 5.99605 10.505 6.02162 10.3288 6.04434C10.1555 6.06423 10.0149 6.08128 9.90696 6.09548C9.6456 6.12957 9.40128 6.18497 9.17401 6.26167C8.94957 6.33554 8.76776 6.44775 8.62855 6.59832C8.49219 6.74605 8.42401 6.94775 8.42401 7.20344C8.42401 7.55287 8.55327 7.81707 8.81179 7.99605C9.07315 8.17219 9.40412 8.26025 9.80469 8.26025ZM19.1232 3.93071L18.2198 4.18639C18.163 4.03582 18.0792 3.88952 17.9684 3.74747C17.8604 3.60258 17.7127 3.48327 17.5252 3.38952C17.3377 3.29577 17.0977 3.24889 16.805 3.24889C16.4045 3.24889 16.0707 3.34122 15.8036 3.52588C15.5394 3.7077 15.4073 3.93923 15.4073 4.22048C15.4073 4.47048 15.4982 4.66792 15.68 4.81281C15.8619 4.9577 16.146 5.07844 16.5323 5.17503L17.5039 5.41366C18.0891 5.55571 18.5252 5.77304 18.8121 6.06565C19.0991 6.35542 19.2425 6.729 19.2425 7.18639C19.2425 7.56139 19.1346 7.89662 18.9187 8.19207C18.7056 8.48753 18.4073 8.72048 18.0238 8.89094C17.6403 9.06139 17.1942 9.14662 16.6857 9.14662C16.0181 9.14662 15.4656 9.00173 15.0281 8.71196C14.5906 8.42219 14.3136 7.99889 14.1971 7.44207L15.1516 7.20344C15.2425 7.55571 15.4144 7.81991 15.6673 7.99605C15.9229 8.17219 16.2567 8.26025 16.6687 8.26025C17.1374 8.26025 17.5096 8.16082 17.7852 7.96196C18.0636 7.76025 18.2028 7.51878 18.2028 7.23753C18.2028 7.01025 18.1232 6.81991 17.9641 6.6665C17.805 6.51025 17.5607 6.39378 17.2312 6.31707L16.1403 6.06139C15.5408 5.91934 15.1005 5.69917 14.8192 5.40088C14.5408 5.09974 14.4016 4.72332 14.4016 4.27162C14.4016 3.9023 14.5053 3.57559 14.7127 3.2915C14.9229 3.00741 15.2085 2.7844 15.5692 2.62247C15.9329 2.46054 16.3448 2.37957 16.805 2.37957C17.4528 2.37957 17.9613 2.52162 18.3306 2.80571C18.7028 3.0898 18.967 3.4648 19.1232 3.93071ZM20.7564 9.01025V2.4648H21.7621V9.01025H20.7564ZM21.2678 1.37389C21.0717 1.37389 20.9027 1.30713 20.7607 1.17361C20.6214 1.04008 20.5518 0.879572 20.5518 0.692072C20.5518 0.504572 20.6214 0.344061 20.7607 0.210538C20.9027 0.0770152 21.0717 0.0102539 21.2678 0.0102539C21.4638 0.0102539 21.6314 0.0770152 21.7706 0.210538C21.9126 0.344061 21.9837 0.504572 21.9837 0.692072C21.9837 0.879572 21.9126 1.04008 21.7706 1.17361C21.6314 1.30713 21.4638 1.37389 21.2678 1.37389ZM26.2631 9.14662C25.6495 9.14662 25.1211 9.00173 24.6779 8.71196C24.2347 8.42219 23.8938 8.02304 23.6552 7.51452C23.4165 7.00599 23.2972 6.42503 23.2972 5.77162C23.2972 5.10684 23.4194 4.5202 23.6637 4.01167C23.9109 3.50031 24.2546 3.10116 24.695 2.81423C25.1381 2.52446 25.6552 2.37957 26.2461 2.37957C26.7063 2.37957 27.1211 2.4648 27.4904 2.63525C27.8597 2.80571 28.1623 3.04434 28.3981 3.35116C28.6339 3.65798 28.7802 4.01594 28.837 4.42503H27.8313C27.7546 4.12673 27.5842 3.86253 27.32 3.63241C27.0586 3.39946 26.7063 3.28298 26.2631 3.28298C25.8711 3.28298 25.5273 3.38525 25.2319 3.5898C24.9393 3.7915 24.7106 4.07702 24.5458 4.44633C24.3839 4.81281 24.3029 5.24321 24.3029 5.73753C24.3029 6.24321 24.3825 6.68355 24.5415 7.05855C24.7035 7.43355 24.9308 7.72474 25.2234 7.93213C25.5188 8.13952 25.8654 8.24321 26.2631 8.24321C26.5245 8.24321 26.7617 8.19775 26.9748 8.10684C27.1879 8.01594 27.3683 7.88525 27.516 7.7148C27.6637 7.54434 27.7688 7.3398 27.8313 7.10116H28.837C28.7802 7.48753 28.6396 7.83554 28.4151 8.1452C28.1935 8.45202 27.8995 8.69633 27.533 8.87815C27.1694 9.05713 26.7461 9.14662 26.2631 9.14662ZM38.5913 2.4648C38.5401 2.03298 38.3327 1.69775 37.9691 1.45912C37.6055 1.22048 37.1594 1.10116 36.631 1.10116C36.2447 1.10116 35.9066 1.16366 35.6168 1.28866C35.3299 1.41366 35.1055 1.58554 34.9435 1.80429C34.7844 2.02304 34.7049 2.27162 34.7049 2.55003C34.7049 2.78298 34.7603 2.98326 34.8711 3.15088C34.9847 3.31565 35.1296 3.45344 35.3058 3.56423C35.4819 3.67219 35.6665 3.76167 35.8597 3.8327C36.0529 3.90088 36.2305 3.95628 36.3924 3.99889L37.2788 4.23753C37.506 4.29719 37.7589 4.37957 38.0373 4.48469C38.3185 4.5898 38.587 4.73327 38.8427 4.91508C39.1012 5.09406 39.3143 5.32417 39.4819 5.60542C39.6495 5.88667 39.7333 6.23184 39.7333 6.64094C39.7333 7.11253 39.6097 7.53866 39.3626 7.91934C39.1183 8.30003 38.7603 8.60258 38.2887 8.82702C37.82 9.05145 37.2504 9.16366 36.5799 9.16366C35.9549 9.16366 35.4137 9.06281 34.9563 8.86111C34.5018 8.6594 34.1438 8.37815 33.8825 8.01736C33.6239 7.65656 33.4776 7.23753 33.4435 6.76025H34.5344C34.5629 7.0898 34.6737 7.36253 34.8668 7.57844C35.0629 7.7915 35.31 7.95059 35.6083 8.05571C35.9094 8.15798 36.2333 8.20912 36.5799 8.20912C36.9833 8.20912 37.3455 8.14378 37.6665 8.01309C37.9876 7.87957 38.2418 7.69491 38.4293 7.45912C38.6168 7.22048 38.7106 6.94207 38.7106 6.62389C38.7106 6.33412 38.6296 6.09832 38.4677 5.9165C38.3058 5.73469 38.0927 5.58696 37.8285 5.47332C37.5643 5.35969 37.2788 5.26025 36.9719 5.17503L35.8981 4.86821C35.2163 4.67219 34.6765 4.39236 34.2788 4.02872C33.881 3.66508 33.6822 3.18923 33.6822 2.60116C33.6822 2.11253 33.8143 1.68639 34.0785 1.32275C34.3455 0.956276 34.7035 0.672185 35.1523 0.470481C35.604 0.265935 36.1083 0.163663 36.6651 0.163663C37.2276 0.163663 37.7276 0.264515 38.1651 0.466219C38.6026 0.665083 38.9492 0.93781 39.2049 1.2844C39.4634 1.63099 39.5998 2.02446 39.614 2.4648H38.5913ZM43.2607 9.16366C42.8459 9.16366 42.4695 9.08554 42.1314 8.92929C41.7933 8.7702 41.5249 8.5415 41.326 8.24321C41.1271 7.94207 41.0277 7.57844 41.0277 7.1523C41.0277 6.7773 41.1016 6.47332 41.2493 6.24037C41.397 6.00457 41.5945 5.81991 41.8416 5.68639C42.0888 5.55287 42.3615 5.45344 42.6598 5.38809C42.9609 5.31991 43.2635 5.26594 43.5675 5.22616C43.9652 5.17503 44.2876 5.13667 44.5348 5.11111C44.7848 5.0827 44.9666 5.03582 45.0803 4.97048C45.1967 4.90514 45.255 4.7915 45.255 4.62957V4.59548C45.255 4.17503 45.1399 3.84832 44.9098 3.61537C44.6825 3.38241 44.3374 3.26594 43.8743 3.26594C43.3942 3.26594 43.0178 3.37105 42.745 3.58128C42.4723 3.7915 42.2805 4.01594 42.1697 4.25457L41.2152 3.91366C41.3857 3.51594 41.6129 3.20628 41.897 2.98469C42.1839 2.76025 42.4964 2.604 42.8345 2.51594C43.1754 2.42503 43.5107 2.37957 43.8402 2.37957C44.0504 2.37957 44.2919 2.40514 44.5646 2.45628C44.8402 2.50457 45.1058 2.60542 45.3615 2.75883C45.62 2.91224 45.8345 3.14378 46.005 3.45344C46.1754 3.76309 46.2607 4.17787 46.2607 4.69775V9.01025H45.255V8.12389H45.2038C45.1357 8.26594 45.022 8.41792 44.8629 8.57986C44.7038 8.74179 44.4922 8.87957 44.228 8.99321C43.9638 9.10684 43.6413 9.16366 43.2607 9.16366ZM43.4141 8.26025C43.8118 8.26025 44.147 8.18213 44.4197 8.02588C44.6953 7.86963 44.9027 7.66792 45.0419 7.42077C45.1839 7.17361 45.255 6.91366 45.255 6.64094V5.72048C45.2124 5.77162 45.1186 5.81849 44.9737 5.86111C44.8317 5.90088 44.6669 5.93639 44.4794 5.96764C44.2947 5.99605 44.1143 6.02162 43.9382 6.04434C43.7649 6.06423 43.6243 6.08128 43.5163 6.09548C43.255 6.12957 43.0107 6.18497 42.7834 6.26167C42.5589 6.33554 42.3771 6.44775 42.2379 6.59832C42.1016 6.74605 42.0334 6.94775 42.0334 7.20344C42.0334 7.55287 42.1626 7.81707 42.4212 7.99605C42.6825 8.17219 43.0135 8.26025 43.4141 8.26025ZM49.1019 0.282981V9.01025H48.0962V0.282981H49.1019ZM52.87 9.16366C52.4553 9.16366 52.0788 9.08554 51.7408 8.92929C51.4027 8.7702 51.1342 8.5415 50.9354 8.24321C50.7365 7.94207 50.6371 7.57844 50.6371 7.1523C50.6371 6.7773 50.7109 6.47332 50.8587 6.24037C51.0064 6.00457 51.2038 5.81991 51.451 5.68639C51.6982 5.55287 51.9709 5.45344 52.2692 5.38809C52.5703 5.31991 52.8729 5.26594 53.1768 5.22616C53.5746 5.17503 53.897 5.13667 54.1442 5.11111C54.3942 5.0827 54.576 5.03582 54.6896 4.97048C54.8061 4.90514 54.8643 4.7915 54.8643 4.62957V4.59548C54.8643 4.17503 54.7493 3.84832 54.5192 3.61537C54.2919 3.38241 53.9467 3.26594 53.4837 3.26594C53.0036 3.26594 52.6271 3.37105 52.3544 3.58128C52.0817 3.7915 51.8899 4.01594 51.7791 4.25457L50.8246 3.91366C50.995 3.51594 51.2223 3.20628 51.5064 2.98469C51.7933 2.76025 52.1058 2.604 52.4439 2.51594C52.7848 2.42503 53.12 2.37957 53.4496 2.37957C53.6598 2.37957 53.9013 2.40514 54.174 2.45628C54.4496 2.50457 54.7152 2.60542 54.9709 2.75883C55.2294 2.91224 55.4439 3.14378 55.6143 3.45344C55.7848 3.76309 55.87 4.17787 55.87 4.69775V9.01025H54.8643V8.12389H54.8132C54.745 8.26594 54.6314 8.41792 54.4723 8.57986C54.3132 8.74179 54.1016 8.87957 53.8374 8.99321C53.5732 9.10684 53.2507 9.16366 52.87 9.16366ZM53.0234 8.26025C53.4212 8.26025 53.7564 8.18213 54.0291 8.02588C54.3047 7.86963 54.5121 7.66792 54.6513 7.42077C54.7933 7.17361 54.8643 6.91366 54.8643 6.64094V5.72048C54.8217 5.77162 54.728 5.81849 54.5831 5.86111C54.4411 5.90088 54.2763 5.93639 54.0888 5.96764C53.9041 5.99605 53.7237 6.02162 53.5476 6.04434C53.3743 6.06423 53.2337 6.08128 53.1257 6.09548C52.8643 6.12957 52.62 6.18497 52.3928 6.26167C52.1683 6.33554 51.9865 6.44775 51.8473 6.59832C51.7109 6.74605 51.6428 6.94775 51.6428 7.20344C51.6428 7.55287 51.772 7.81707 52.0305 7.99605C52.2919 8.17219 52.6229 8.26025 53.0234 8.26025ZM57.7056 9.01025V2.4648H58.6772V3.45344H58.7454C58.8647 3.12957 59.0806 2.86679 59.3931 2.66508C59.7056 2.46338 60.0579 2.36253 60.4499 2.36253C60.5238 2.36253 60.6161 2.36395 60.7269 2.36679C60.8377 2.36963 60.9215 2.37389 60.9783 2.37957V3.4023C60.9442 3.39378 60.8661 3.38099 60.744 3.36395C60.6246 3.34406 60.4982 3.33412 60.3647 3.33412C60.0465 3.33412 59.7624 3.40088 59.5124 3.5344C59.2653 3.66508 59.0692 3.8469 58.9244 4.07986C58.7823 4.30997 58.7113 4.57275 58.7113 4.86821V9.01025H57.7056ZM63.0174 11.4648C62.8469 11.4648 62.695 11.4506 62.5614 11.4222C62.4279 11.3966 62.3356 11.371 62.2844 11.3455L62.5401 10.4591C62.7844 10.5216 63.0004 10.5443 63.1879 10.5273C63.3754 10.5103 63.5415 10.4264 63.6864 10.2759C63.8342 10.1282 63.9691 9.88809 64.0913 9.55571L64.2788 9.04434L61.8583 2.4648H62.9492L64.756 7.68071H64.8242L66.631 2.4648H67.7219L64.9435 9.9648C64.8185 10.3029 64.6637 10.5827 64.479 10.8043C64.2944 11.0287 64.0799 11.1949 63.8356 11.3029C63.5941 11.4108 63.3214 11.4648 63.0174 11.4648ZM72.5607 9.01025V0.282981H75.5096C76.1914 0.282981 76.7511 0.399458 77.1886 0.632413C77.6261 0.862526 77.9499 1.17929 78.1602 1.5827C78.3704 1.98611 78.4755 2.44491 78.4755 2.95912C78.4755 3.47332 78.3704 3.92929 78.1602 4.32702C77.9499 4.72474 77.6275 5.03724 77.1928 5.26452C76.7582 5.48895 76.2028 5.60116 75.5266 5.60116H73.1403V4.64662H75.4925C75.9585 4.64662 76.3335 4.57844 76.6175 4.44207C76.9045 4.30571 77.1119 4.11253 77.2397 3.86253C77.3704 3.60969 77.4357 3.30855 77.4357 2.95912C77.4357 2.60969 77.3704 2.30429 77.2397 2.04292C77.109 1.78156 76.9002 1.57986 76.6133 1.43781C76.3263 1.29292 75.9471 1.22048 75.4755 1.22048H73.6175V9.01025H72.5607ZM76.6687 5.0898L78.8164 9.01025H77.5891L75.4755 5.0898H76.6687ZM84.2251 6.33412V2.4648H85.2308V9.01025H84.2251V7.9023H84.157C84.0036 8.23469 83.7649 8.51736 83.4411 8.75031C83.1172 8.98042 82.7081 9.09548 82.2138 9.09548C81.8047 9.09548 81.4411 9.00599 81.1229 8.82702C80.8047 8.6452 80.5547 8.37247 80.3729 8.00883C80.1911 7.64236 80.1001 7.18071 80.1001 6.62389V2.4648H81.1058V6.55571C81.1058 7.03298 81.2393 7.41366 81.5064 7.69775C81.7763 7.98184 82.12 8.12389 82.5376 8.12389C82.7876 8.12389 83.0419 8.05997 83.3004 7.93213C83.5618 7.80429 83.7805 7.60827 83.9567 7.34406C84.1357 7.07986 84.2251 6.74321 84.2251 6.33412ZM88.0785 0.282981V9.01025H87.0728V0.282981H88.0785ZM92.6648 9.14662C92.0341 9.14662 91.4901 9.00741 91.0327 8.729C90.5781 8.44775 90.2273 8.05571 89.9801 7.55287C89.7358 7.04719 89.6136 6.45912 89.6136 5.78866C89.6136 5.11821 89.7358 4.5273 89.9801 4.01594C90.2273 3.50173 90.571 3.10116 91.0114 2.81423C91.4545 2.52446 91.9716 2.37957 92.5625 2.37957C92.9034 2.37957 93.2401 2.43639 93.5724 2.55003C93.9048 2.66366 94.2074 2.84832 94.4801 3.104C94.7528 3.35684 94.9702 3.69207 95.1321 4.10969C95.294 4.5273 95.375 5.0415 95.375 5.6523V6.07844H90.3295V5.20912H94.3523C94.3523 4.8398 94.2784 4.51025 94.1307 4.22048C93.9858 3.93071 93.7784 3.70202 93.5085 3.5344C93.2415 3.36679 92.9261 3.28298 92.5625 3.28298C92.1619 3.28298 91.8153 3.38241 91.5227 3.58128C91.233 3.7773 91.0099 4.03298 90.8537 4.34832C90.6974 4.66366 90.6193 5.00173 90.6193 5.36253V5.94207C90.6193 6.43639 90.7045 6.85542 90.875 7.19917C91.0483 7.54008 91.2884 7.80003 91.5952 7.979C91.902 8.15514 92.2585 8.24321 92.6648 8.24321C92.929 8.24321 93.1676 8.20628 93.3807 8.13241C93.5966 8.05571 93.7827 7.94207 93.9389 7.7915C94.0952 7.63809 94.2159 7.44775 94.3011 7.22048L95.2727 7.49321C95.1705 7.82275 94.9986 8.11253 94.7571 8.36253C94.5156 8.60969 94.2173 8.80287 93.8622 8.94207C93.5071 9.07844 93.108 9.14662 92.6648 9.14662Z" fill="black"/>
</svg>
