<svg width="32" height="32" viewBox="0 0 32 32" fill="none" xmlns="http://www.w3.org/2000/svg">
<path d="M14.9311 26H6.01786C5.8893 24.183 6.44638 22.6574 7.96334 21.6118C9.44602 20.5919 11.0573 20.5062 12.6256 21.389C14.3911 22.3831 15.0596 23.9945 14.9311 26Z" fill="#FFB422"/>
<path d="M10.4746 19.538C8.71767 19.538 7.27784 18.0982 7.28642 16.3412C7.28642 14.5843 8.73482 13.1531 10.4917 13.1617C12.2401 13.1617 13.6714 14.6015 13.6714 16.3498C13.6714 18.1068 12.2315 19.5466 10.4746 19.5466V19.538Z" fill="#FFB422"/>
<path d="M15.8572 5.00817H25.588V23.2535C22.3063 23.2535 19.0246 23.2535 15.7429 23.2535C15.5715 23.2535 15.498 23.2045 15.4409 23.0494C14.9347 21.8004 14.0858 20.8616 12.8857 20.233C12.8286 20.2004 12.7796 20.1676 12.7143 20.135C14.2082 19.0166 14.9103 17.5718 14.5429 15.7432C14.1592 13.8329 12.8857 12.7552 11 12.3471V9.86556H15.8572V5V5.00817ZM20.7226 14.641C20.7226 14.641 20.7553 14.6165 20.7634 14.6083C20.7961 14.592 20.8369 14.5758 20.8696 14.5595C21.5226 14.233 21.8981 13.7104 21.9226 12.9757C21.9471 12.241 21.6124 11.6778 20.9675 11.3105C20.6818 11.1472 20.3716 11.1064 20.0532 11.0819C19.7348 11.0574 19.5063 10.7962 19.4981 10.486C19.4981 10.1839 19.7185 9.92272 20.0205 9.8819C20.3144 9.84108 20.592 10.0205 20.69 10.3226C20.7063 10.3715 20.7144 10.4207 20.7308 10.4696H21.939C21.8981 9.73493 21.5716 9.19618 20.9267 8.86964C20.7716 8.78801 20.7144 8.71441 20.7226 8.53482C20.7389 8.17563 20.7226 7.80821 20.7226 7.44902H19.5063C19.5063 7.82454 19.4981 8.20015 19.5063 8.5675C19.5063 8.72261 19.4573 8.78799 19.3267 8.8533C18.6818 9.17167 18.3144 9.7104 18.2981 10.4288C18.2817 11.1472 18.6001 11.7023 19.2287 12.0696C19.5144 12.2411 19.8328 12.2901 20.1593 12.3146C20.4777 12.3391 20.7144 12.5921 20.7226 12.9023C20.7226 13.2044 20.5104 13.4656 20.2083 13.5146C19.9063 13.5636 19.6206 13.3758 19.5308 13.0655C19.5144 13.0166 19.5063 12.9676 19.4899 12.9105C19.1144 12.9105 18.7471 12.9105 18.3879 12.9105C18.3634 12.9105 18.3389 12.9105 18.3144 12.9187C18.2736 13.5554 18.6981 14.2493 19.3348 14.535C19.4736 14.6003 19.5226 14.6737 19.5144 14.8206C19.5063 15.188 19.5144 15.5636 19.5144 15.9309H20.7308V14.6329L20.7226 14.641ZM23.1471 17.1881H15.8654V18.3799H23.1471V17.1881ZM23.1471 20.8126V19.6208H15.8736V20.8126H23.1471Z" fill="#0671B8"/>
<path d="M11.4246 8.64098C12.494 7.57157 13.5634 6.50202 14.6328 5.43262V8.64098H11.4246Z" fill="#0671B8"/>
</svg>
