<svg width="32" height="32" viewBox="0 0 32 32" fill="none" xmlns="http://www.w3.org/2000/svg">
<path d="M7.00794 26.4374V14.998H23.4972V15.2833C23.4972 18.8745 23.4972 22.4737 23.4972 26.0648C23.4972 26.7387 23.2356 27.0002 22.5617 27.0002C17.6942 27.0002 12.8347 27.0002 7.96718 27.0002C7.50739 27.0002 7.18233 26.8576 7 26.4295L7.00794 26.4374ZM15.6251 25.0977C15.7124 25.0739 15.7758 25.058 15.8471 25.0342C17.2741 24.6458 17.9479 23.0048 17.1869 21.7364C16.743 20.9913 16.0612 20.6423 15.205 20.6185C14.444 20.5948 13.8177 19.9923 13.7622 19.2471C13.6988 18.4702 14.222 17.7963 15.0068 17.6457C17.1076 17.9232 18.5346 19.921 16.6875 18.6763C16.5685 18.5971 16.7429 18.9697 16.7588 19.1124C16.7826 19.3502 16.9411 19.5008 17.1472 19.4929C17.3613 19.485 17.504 19.3185 17.504 19.0806C17.504 19.0252 17.504 18.9697 17.504 18.9142C17.4168 17.9867 16.7667 17.2098 15.863 16.9561C15.7916 16.9323 15.7203 16.9164 15.641 16.8926C15.641 16.6469 15.641 16.4091 15.641 16.1792C15.641 15.9097 15.7916 15.3548 15.5617 15.3627C15.3397 15.3627 16.6161 15.4816 16.6161 15.7432C16.6161 15.981 17.3613 16.2346 17.3613 16.4804C17.2741 16.5042 17.2582 17.6616 17.2978 17.7171C21.1268 22.8145 15.5538 18.7793 15.0781 19.1995C15.3556 20.1349 15.8313 20.2857 16.8381 20.3174C17.6784 20.3412 18.8437 22.7115 18.8833 23.5043C18.923 24.3287 17.0997 25.2563 16.2831 25.2959C15.4508 25.3435 12.4066 25.0818 12.3511 24.2415C12.3352 23.9402 11.5345 22.7115 11.3046 22.7274C11.0668 22.7353 13.017 22.6876 13.0328 22.9968C13.0645 23.52 13.2628 23.9798 13.6116 24.3682C13.9604 24.7488 14.5074 23.972 15.0147 24.083C15.0147 24.3366 15.6014 23.7261 15.6014 23.956C15.3715 23.956 15.6014 24.2255 15.6014 23.956C15.9026 23.7023 16.0612 24.067 15.9423 24.2018C15.7837 24.3841 15.649 25.3197 15.649 25.0739L15.6251 25.0977Z" fill="#0671B8"/>
<path d="M7.00787 14.2523V9.00439H23.4813V14.2523H7.00787ZM18.2491 9.74954C17.1789 9.74954 16.1087 9.74954 15.0385 9.74954C14.9671 9.74954 14.8957 9.74954 14.8244 9.74954C14.6262 9.78917 14.4994 9.90806 14.4994 10.1221C14.4994 10.3282 14.6183 10.455 14.8244 10.4947C14.9037 10.5105 14.983 10.4947 15.0543 10.4947C17.1789 10.4947 19.3035 10.4947 21.428 10.4947C21.5073 10.4947 21.5866 10.4947 21.6659 10.4947C21.8878 10.463 22.0305 10.2647 21.983 10.0586C21.9433 9.86044 21.7927 9.75747 21.5232 9.75747C20.4292 9.75747 19.3352 9.75747 18.2412 9.75747L18.2491 9.74954ZM18.2729 11.2478C17.1948 11.2478 16.1166 11.2478 15.0385 11.2478C14.9671 11.2478 14.8957 11.2478 14.8244 11.2478C14.6262 11.2874 14.4994 11.4065 14.4994 11.6205C14.4994 11.8266 14.6183 11.9534 14.8244 11.9931C14.9037 12.0089 14.983 11.9931 15.0543 11.9931C17.1789 11.9931 19.3035 11.9931 21.428 11.9931C21.5073 11.9931 21.5866 11.9931 21.6659 11.9931C21.872 11.9614 22.0147 11.779 21.9909 11.5808C21.9592 11.3668 21.8006 11.2557 21.5232 11.2557C20.4371 11.2557 19.351 11.2557 18.265 11.2557L18.2729 11.2478ZM18.2491 12.7462C17.1789 12.7462 16.1087 12.7462 15.0385 12.7462C14.9671 12.7462 14.8957 12.7462 14.8244 12.7462C14.6262 12.7858 14.4994 12.9047 14.4994 13.1108C14.4994 13.3169 14.6183 13.4437 14.8244 13.4834C14.8957 13.4992 14.9671 13.4834 15.0385 13.4834C17.1789 13.4834 19.3193 13.4834 21.4597 13.4834C21.5311 13.4834 21.6024 13.4834 21.6738 13.4834C21.872 13.4437 21.9988 13.3248 21.9988 13.1187C21.9988 12.9126 21.8799 12.7858 21.6738 12.7462C21.6024 12.7303 21.5311 12.7462 21.4597 12.7462C20.3895 12.7462 19.3193 12.7462 18.2491 12.7462ZM10.7338 10.4947C11.3284 10.4947 11.9229 10.4947 12.5175 10.4947C12.8267 10.4947 13.0011 10.352 13.0011 10.1142C13.0011 9.88427 12.8267 9.74954 12.5254 9.74954C11.3442 9.74954 10.171 9.74954 8.98975 9.74954C8.68058 9.74954 8.50619 9.89222 8.50619 10.13C8.50619 10.3599 8.68057 10.4947 8.98182 10.4947C9.56846 10.4947 10.1551 10.4947 10.7418 10.4947H10.7338ZM10.7734 11.2478C10.171 11.2478 9.56849 11.2478 8.966 11.2478C8.67268 11.2478 8.49825 11.3906 8.49825 11.6205C8.49825 11.8583 8.67268 11.9931 8.966 11.9931C10.1551 11.9931 11.3363 11.9931 12.5254 11.9931C12.8188 11.9931 12.9931 11.8504 12.9931 11.6205C12.9931 11.3827 12.8188 11.2478 12.5254 11.2478C11.9388 11.2478 11.3521 11.2478 10.7655 11.2478H10.7734ZM10.7734 12.7462C10.171 12.7462 9.56849 12.7462 8.966 12.7462C8.67268 12.7462 8.49825 12.8888 8.49825 13.1187C8.49825 13.3566 8.67268 13.4913 8.966 13.4913C10.1551 13.4913 11.3363 13.4913 12.5254 13.4913C12.8188 13.4913 12.9931 13.3486 12.9931 13.1187C12.9931 12.8809 12.8188 12.7462 12.5254 12.7462C11.9388 12.7462 11.3521 12.7462 10.7655 12.7462H10.7734Z" fill="#0671B8"/>
<path d="M7.57081 6H22.9422C23.3703 6.18233 23.5447 6.50734 23.5051 6.96713C23.4893 7.19703 23.5051 7.43477 23.5051 7.6726V8.25149H7.01587V6.56282C7.12685 6.30121 7.31713 6.11099 7.57874 6H7.57081Z" fill="#0671B8"/>
<path d="M15.2254 25.2319C17.559 25.2319 19.4508 23.3401 19.4508 21.0065C19.4508 18.6729 17.559 16.7812 15.2254 16.7812C12.8918 16.7812 11 18.6729 11 21.0065C11 23.3401 12.8918 25.2319 15.2254 25.2319Z" fill="#FFB422" stroke="white" stroke-width="0.570782" stroke-miterlimit="10"/>
<path d="M15.6137 24.0353C15.6137 23.8609 15.6137 23.7022 15.6137 23.5358C15.6137 23.4723 15.6296 23.4407 15.7009 23.4169C15.8119 23.3852 15.9229 23.3457 16.026 23.2902C16.8108 22.8779 17.0565 21.9504 16.5492 21.2607C16.2321 20.8326 15.7961 20.6343 15.2728 20.6185C15.035 20.6106 14.821 20.563 14.6386 20.4044C14.385 20.1825 14.3374 19.8416 14.5515 19.5879C14.7893 19.3104 15.1064 19.2392 15.4473 19.3105C15.7723 19.3819 15.9943 19.5801 16.0418 19.9368H16.8108C16.8108 19.8655 16.8108 19.8021 16.7949 19.7386C16.676 19.1441 16.3114 18.7793 15.7485 18.5969C15.6375 18.5573 15.6137 18.5097 15.6137 18.4067C15.6137 18.2561 15.6137 18.1135 15.6137 17.9629H14.8448C14.8448 18.1056 14.8368 18.2481 14.8448 18.3829C14.8606 18.5176 14.8131 18.5811 14.6862 18.6049C14.6149 18.6207 14.5514 18.6525 14.4801 18.6842C13.6636 19.0727 13.3861 20.032 13.9014 20.7375C14.2106 21.1656 14.6545 21.3637 15.1698 21.3874C15.3917 21.3954 15.5979 21.435 15.7723 21.5698C16.1132 21.8314 16.1132 22.2753 15.7723 22.5369C15.2649 22.9253 14.5911 22.6956 14.3929 22.0693H13.6318C13.6477 22.1724 13.6556 22.2594 13.6715 22.3466C13.8142 22.9095 14.1947 23.2505 14.7338 23.4169C14.813 23.4407 14.8448 23.4724 14.8368 23.5596C14.8368 23.7181 14.8368 23.8768 14.8368 24.0353H15.6058H15.6137Z" fill="white"/>
<path d="M22.4175 8.00003C24.3105 8.00003 25.8422 9.53897 25.835 11.4247C25.835 13.3105 24.296 14.835 22.3958 14.835C20.5173 14.835 18.9928 13.2817 19 11.3815C19 9.52465 20.5534 7.9928 22.4175 8.00003Z" fill="#FFB422" stroke="white" stroke-width="0.722512" stroke-miterlimit="10"/>
<path d="M21.8973 11.7427C21.7456 11.5765 21.6228 11.4247 21.4855 11.2947C21.3049 11.1213 21.0881 11.1213 20.9219 11.2802C20.763 11.4392 20.7557 11.6632 20.9219 11.8438C21.1531 12.0895 21.3916 12.3279 21.6373 12.5518C21.8107 12.7108 22.013 12.718 22.1791 12.5518C22.7644 11.9738 23.3496 11.3959 23.9204 10.8034C24.0793 10.6372 24.0576 10.406 23.9059 10.2615C23.7542 10.1098 23.5446 10.1026 23.364 10.2615C23.2701 10.341 23.1834 10.4349 23.0967 10.5288C22.7065 10.9189 22.3236 11.3164 21.8973 11.7427Z" fill="white"/>
</svg>
