<svg width="77" height="12" viewBox="0 0 77 12" fill="none" xmlns="http://www.w3.org/2000/svg">
<path d="M5.76949 2.35201C5.71835 1.92019 5.51096 1.58496 5.14733 1.34632C4.78369 1.10769 4.33767 0.98837 3.80926 0.98837C3.4229 0.98837 3.08483 1.05087 2.79506 1.17587C2.50812 1.30087 2.28369 1.47274 2.12176 1.69149C1.96267 1.91024 1.88312 2.15882 1.88312 2.43723C1.88312 2.67019 1.93852 2.87047 2.04932 3.03809C2.16295 3.20286 2.30784 3.34064 2.48398 3.45144C2.66011 3.55939 2.84477 3.64888 3.03795 3.7199C3.23113 3.78809 3.40869 3.84348 3.57062 3.8861L4.45699 4.12473C4.68426 4.18439 4.9371 4.26678 5.21551 4.37189C5.49676 4.47701 5.76523 4.62047 6.02091 4.80229C6.27943 4.98127 6.4925 5.21138 6.66011 5.49263C6.82773 5.77388 6.91153 6.11905 6.91153 6.52814C6.91153 6.99973 6.78795 7.42587 6.54079 7.80655C6.29648 8.18723 5.93852 8.48979 5.46693 8.71422C4.99818 8.93865 4.42858 9.05087 3.75812 9.05087C3.13312 9.05087 2.59193 8.95002 2.13454 8.74831C1.68 8.54661 1.32204 8.26536 1.06068 7.90456C0.802157 7.54377 0.655851 7.12473 0.62176 6.64746H1.71267C1.74108 6.97701 1.85187 7.24973 2.04506 7.46564C2.24108 7.67871 2.48824 7.8378 2.78653 7.94292C3.08767 8.04519 3.41153 8.09632 3.75812 8.09632C4.16153 8.09632 4.52375 8.03098 4.84477 7.9003C5.16579 7.76678 5.42006 7.58212 5.60756 7.34632C5.79506 7.10769 5.88881 6.82928 5.88881 6.5111C5.88881 6.22132 5.80784 5.98553 5.64591 5.80371C5.48398 5.62189 5.27091 5.47417 5.0067 5.36053C4.7425 5.24689 4.45699 5.14746 4.15017 5.06223L3.07631 4.75542C2.39449 4.55939 1.85471 4.27956 1.45699 3.91593C1.05926 3.55229 0.860396 3.07644 0.860396 2.48837C0.860396 1.99973 0.992498 1.5736 1.2567 1.20996C1.52375 0.843483 1.8817 0.559392 2.33057 0.357688C2.78227 0.153142 3.28653 0.0508697 3.84335 0.0508697C4.40585 0.0508697 4.90585 0.151722 5.34335 0.353426C5.78085 0.55229 6.12744 0.825017 6.38312 1.17161C6.64165 1.5182 6.77801 1.91167 6.79221 2.35201H5.76949ZM10.4389 9.05087C10.0241 9.05087 9.64768 8.97275 9.30961 8.8165C8.97155 8.6574 8.70308 8.42871 8.50422 8.13042C8.30535 7.82928 8.20592 7.46564 8.20592 7.03951C8.20592 6.66451 8.27979 6.36053 8.42751 6.12757C8.57524 5.89178 8.77268 5.70712 9.01984 5.5736C9.267 5.44007 9.53973 5.34064 9.83802 5.2753C10.1392 5.20712 10.4417 5.15314 10.7457 5.11337C11.1434 5.06223 11.4659 5.02388 11.713 4.99831C11.963 4.9699 12.1448 4.92303 12.2585 4.85769C12.375 4.79235 12.4332 4.67871 12.4332 4.51678V4.48269C12.4332 4.06223 12.3181 3.73553 12.088 3.50257C11.8608 3.26962 11.5156 3.15314 11.0525 3.15314C10.5724 3.15314 10.196 3.25826 9.92325 3.46848C9.65052 3.67871 9.45876 3.90314 9.34797 4.14178L8.39342 3.80087C8.56388 3.40314 8.79115 3.09348 9.07524 2.87189C9.36217 2.64746 9.67467 2.49121 10.0127 2.40314C10.3536 2.31223 10.6889 2.26678 11.0184 2.26678C11.2286 2.26678 11.4701 2.29235 11.7429 2.34348C12.0184 2.39178 12.284 2.49263 12.5397 2.64604C12.7983 2.79945 13.0127 3.03098 13.1832 3.34064C13.3536 3.6503 13.4389 4.06507 13.4389 4.58496V8.89746H12.4332V8.0111H12.3821C12.3139 8.15314 12.2002 8.30513 12.0411 8.46706C11.8821 8.629 11.6704 8.76678 11.4062 8.88042C11.142 8.99405 10.8196 9.05087 10.4389 9.05087ZM10.5923 8.14746C10.99 8.14746 11.3252 8.06934 11.598 7.91309C11.8735 7.75684 12.0809 7.55513 12.2201 7.30797C12.3622 7.06081 12.4332 6.80087 12.4332 6.52814V5.60769C12.3906 5.65882 12.2968 5.7057 12.1519 5.74831C12.0099 5.78809 11.8451 5.8236 11.6576 5.85485C11.473 5.88326 11.2926 5.90882 11.1164 5.93155C10.9431 5.95144 10.8025 5.96848 10.6946 5.98269C10.4332 6.01678 10.1889 6.07218 9.9616 6.14888C9.73717 6.22275 9.55535 6.33496 9.41615 6.48553C9.27979 6.63326 9.2116 6.83496 9.2116 7.09064C9.2116 7.44007 9.34086 7.70428 9.59939 7.88326C9.86075 8.05939 10.1917 8.14746 10.5923 8.14746ZM16.2801 0.170188V8.89746H15.2745V0.170188H16.2801ZM20.0483 9.05087C19.6335 9.05087 19.2571 8.97275 18.919 8.8165C18.5809 8.6574 18.3125 8.42871 18.1136 8.13042C17.9147 7.82928 17.8153 7.46564 17.8153 7.03951C17.8153 6.66451 17.8892 6.36053 18.0369 6.12757C18.1846 5.89178 18.3821 5.70712 18.6292 5.5736C18.8764 5.44007 19.1491 5.34064 19.4474 5.2753C19.7485 5.20712 20.0511 5.15314 20.3551 5.11337C20.7528 5.06223 21.0752 5.02388 21.3224 4.99831C21.5724 4.9699 21.7542 4.92303 21.8679 4.85769C21.9843 4.79235 22.0426 4.67871 22.0426 4.51678V4.48269C22.0426 4.06223 21.9275 3.73553 21.6974 3.50257C21.4701 3.26962 21.125 3.15314 20.6619 3.15314C20.1818 3.15314 19.8054 3.25826 19.5326 3.46848C19.2599 3.67871 19.0681 3.90314 18.9573 4.14178L18.0028 3.80087C18.1733 3.40314 18.4005 3.09348 18.6846 2.87189C18.9715 2.64746 19.284 2.49121 19.6221 2.40314C19.963 2.31223 20.2983 2.26678 20.6278 2.26678C20.838 2.26678 21.0795 2.29235 21.3522 2.34348C21.6278 2.39178 21.8934 2.49263 22.1491 2.64604C22.4076 2.79945 22.6221 3.03098 22.7926 3.34064C22.963 3.6503 23.0483 4.06507 23.0483 4.58496V8.89746H22.0426V8.0111H21.9914C21.9233 8.15314 21.8096 8.30513 21.6505 8.46706C21.4914 8.629 21.2798 8.76678 21.0156 8.88042C20.7514 8.99405 20.4289 9.05087 20.0483 9.05087ZM20.2017 8.14746C20.5994 8.14746 20.9346 8.06934 21.2073 7.91309C21.4829 7.75684 21.6903 7.55513 21.8295 7.30797C21.9715 7.06081 22.0426 6.80087 22.0426 6.52814V5.60769C22 5.65882 21.9062 5.7057 21.7613 5.74831C21.6193 5.78809 21.4545 5.8236 21.267 5.85485C21.0823 5.88326 20.9019 5.90882 20.7258 5.93155C20.5525 5.95144 20.4119 5.96848 20.3039 5.98269C20.0426 6.01678 19.7983 6.07218 19.571 6.14888C19.3465 6.22275 19.1647 6.33496 19.0255 6.48553C18.8892 6.63326 18.821 6.83496 18.821 7.09064C18.821 7.44007 18.9502 7.70428 19.2088 7.88326C19.4701 8.05939 19.8011 8.14746 20.2017 8.14746ZM24.8838 8.89746V2.35201H25.8554V3.34064H25.9236C26.0429 3.01678 26.2588 2.75399 26.5713 2.55229C26.8838 2.35059 27.2361 2.24973 27.6282 2.24973C27.702 2.24973 27.7943 2.25115 27.9051 2.25399C28.0159 2.25684 28.0997 2.2611 28.1566 2.26678V3.28951C28.1225 3.28098 28.0443 3.2682 27.9222 3.25115C27.8029 3.23127 27.6764 3.22132 27.5429 3.22132C27.2247 3.22132 26.9407 3.28809 26.6907 3.42161C26.4435 3.55229 26.2475 3.73411 26.1026 3.96706C25.9605 4.19718 25.8895 4.45996 25.8895 4.75542V8.89746H24.8838ZM30.1956 11.352C30.0252 11.352 29.8732 11.3378 29.7397 11.3094C29.6061 11.2838 29.5138 11.2583 29.4627 11.2327L29.7184 10.3463C29.9627 10.4088 30.1786 10.4316 30.3661 10.4145C30.5536 10.3975 30.7198 10.3137 30.8647 10.1631C31.0124 10.0154 31.1473 9.7753 31.2695 9.44292L31.457 8.93155L29.0365 2.35201H30.1274L31.9343 7.56792H32.0024L33.8093 2.35201H34.9002L32.1218 9.85201C31.9968 10.1901 31.8419 10.4699 31.6573 10.6915C31.4726 10.9159 31.2581 11.0821 31.0138 11.1901C30.7723 11.298 30.4996 11.352 30.1956 11.352ZM39.7389 8.89746V0.170188H42.6878C43.3696 0.170188 43.9293 0.286665 44.3668 0.51962C44.8043 0.749733 45.1282 1.06649 45.3384 1.4699C45.5486 1.87331 45.6537 2.33212 45.6537 2.84632C45.6537 3.36053 45.5486 3.81649 45.3384 4.21422C45.1282 4.61195 44.8057 4.92445 44.371 5.15172C43.9364 5.37615 43.381 5.48837 42.7049 5.48837H40.3185V4.53382H42.6708C43.1367 4.53382 43.5117 4.46564 43.7958 4.32928C44.0827 4.19292 44.2901 3.99973 44.4179 3.74973C44.5486 3.49689 44.6139 3.19576 44.6139 2.84632C44.6139 2.49689 44.5486 2.19149 44.4179 1.93013C44.2872 1.66877 44.0784 1.46706 43.7915 1.32502C43.5046 1.18013 43.1253 1.10769 42.6537 1.10769H40.7958V8.89746H39.7389ZM43.8469 4.97701L45.9946 8.89746H44.7674L42.6537 4.97701H43.8469ZM49.9524 9.03382C49.3217 9.03382 48.7777 8.89462 48.3203 8.61621C47.8657 8.33496 47.5149 7.94292 47.2677 7.44007C47.0234 6.93439 46.9012 6.34632 46.9012 5.67587C46.9012 5.00542 47.0234 4.41451 47.2677 3.90314C47.5149 3.38894 47.8586 2.98837 48.299 2.70144C48.7421 2.41167 49.2592 2.26678 49.8501 2.26678C50.191 2.26678 50.5277 2.3236 50.86 2.43723C51.1924 2.55087 51.495 2.73553 51.7677 2.99121C52.0404 3.24405 52.2578 3.57928 52.4197 3.99689C52.5816 4.41451 52.6626 4.92871 52.6626 5.53951V5.96564H47.6171V5.09632H51.6399C51.6399 4.72701 51.566 4.39746 51.4183 4.10769C51.2734 3.81792 51.066 3.58922 50.7961 3.42161C50.5291 3.25399 50.2137 3.17019 49.8501 3.17019C49.4495 3.17019 49.1029 3.26962 48.8103 3.46848C48.5206 3.66451 48.2975 3.92019 48.1413 4.23553C47.985 4.55087 47.9069 4.88894 47.9069 5.24973V5.82928C47.9069 6.3236 47.9921 6.74263 48.1626 7.08638C48.3359 7.42729 48.576 7.68723 48.8828 7.86621C49.1896 8.04235 49.5461 8.13042 49.9524 8.13042C50.2166 8.13042 50.4552 8.09348 50.6683 8.01962C50.8842 7.94292 51.0703 7.82928 51.2265 7.67871C51.3828 7.5253 51.5035 7.33496 51.5887 7.10769L52.5603 7.38042C52.4581 7.70996 52.2862 7.99973 52.0447 8.24973C51.8032 8.49689 51.5049 8.69007 51.1498 8.82928C50.7947 8.96564 50.3956 9.03382 49.9524 9.03382ZM54.1924 11.352V2.35201H55.164V3.39178H55.2833C55.3572 3.27814 55.4595 3.13326 55.5902 2.95712C55.7237 2.77814 55.914 2.61905 56.1612 2.47985C56.4112 2.3378 56.7492 2.26678 57.1754 2.26678C57.7265 2.26678 58.2123 2.40456 58.6328 2.68013C59.0532 2.9557 59.3813 3.34632 59.6171 3.85201C59.8529 4.35769 59.9708 4.95428 59.9708 5.64178C59.9708 6.33496 59.8529 6.93581 59.6171 7.44434C59.3813 7.95002 59.0546 8.34206 58.637 8.62047C58.2194 8.89604 57.7379 9.03382 57.1924 9.03382C56.772 9.03382 56.4353 8.96422 56.1825 8.82502C55.9296 8.68297 55.735 8.52246 55.5987 8.34348C55.4623 8.16167 55.3572 8.0111 55.2833 7.89178H55.1981V11.352H54.1924ZM55.1811 5.62473C55.1811 6.11905 55.2535 6.55513 55.3984 6.93297C55.5433 7.30797 55.7549 7.60201 56.0333 7.81507C56.3117 8.0253 56.6527 8.13042 57.0561 8.13042C57.4765 8.13042 57.8274 8.01962 58.1086 7.79803C58.3927 7.5736 58.6058 7.27246 58.7478 6.89462C58.8927 6.51394 58.9652 6.09064 58.9652 5.62473C58.9652 5.16451 58.8941 4.74973 58.7521 4.38042C58.6129 4.00826 58.4012 3.71422 58.1171 3.49831C57.8359 3.27956 57.4822 3.17019 57.0561 3.17019C56.647 3.17019 56.3032 3.27388 56.0248 3.48127C55.7464 3.68581 55.5362 3.97274 55.3941 4.34206C55.2521 4.70854 55.1811 5.1361 55.1811 5.62473ZM64.164 9.03382C63.5731 9.03382 63.0546 8.8932 62.6086 8.61195C62.1654 8.3307 61.8188 7.93723 61.5688 7.43155C61.3217 6.92587 61.1981 6.33496 61.1981 5.65882C61.1981 4.97701 61.3217 4.38184 61.5688 3.87331C61.8188 3.36479 62.1654 2.9699 62.6086 2.68865C63.0546 2.4074 63.5731 2.26678 64.164 2.26678C64.7549 2.26678 65.272 2.4074 65.7152 2.68865C66.1612 2.9699 66.5078 3.36479 66.7549 3.87331C67.0049 4.38184 67.1299 4.97701 67.1299 5.65882C67.1299 6.33496 67.0049 6.92587 66.7549 7.43155C66.5078 7.93723 66.1612 8.3307 65.7152 8.61195C65.272 8.8932 64.7549 9.03382 64.164 9.03382ZM64.164 8.13042C64.6129 8.13042 64.9822 8.01536 65.272 7.78524C65.5617 7.55513 65.7762 7.25257 65.9154 6.87757C66.0546 6.50257 66.1242 6.09632 66.1242 5.65882C66.1242 5.22132 66.0546 4.81365 65.9154 4.43581C65.7762 4.05797 65.5617 3.75257 65.272 3.51962C64.9822 3.28667 64.6129 3.17019 64.164 3.17019C63.7152 3.17019 63.3458 3.28667 63.0561 3.51962C62.7663 3.75257 62.5518 4.05797 62.4126 4.43581C62.2734 4.81365 62.2038 5.22132 62.2038 5.65882C62.2038 6.09632 62.2734 6.50257 62.4126 6.87757C62.5518 7.25257 62.7663 7.55513 63.0561 7.78524C63.3458 8.01536 63.7152 8.13042 64.164 8.13042ZM68.6651 8.89746V2.35201H69.6367V3.34064H69.7049C69.8242 3.01678 70.0401 2.75399 70.3526 2.55229C70.6651 2.35059 71.0174 2.24973 71.4094 2.24973C71.4833 2.24973 71.5756 2.25115 71.6864 2.25399C71.7972 2.25684 71.881 2.2611 71.9378 2.26678V3.28951C71.9037 3.28098 71.8256 3.2682 71.7034 3.25115C71.5841 3.23127 71.4577 3.22132 71.3242 3.22132C71.006 3.22132 70.7219 3.28809 70.4719 3.42161C70.2247 3.55229 70.0287 3.73411 69.8838 3.96706C69.7418 4.19718 69.6708 4.45996 69.6708 4.75542V8.89746H68.6651ZM76.3867 2.35201V3.20428H72.9946V2.35201H76.3867ZM73.9833 0.783824H74.9889V7.02246C74.9889 7.30655 75.0301 7.51962 75.1125 7.66167C75.1978 7.80087 75.3057 7.89462 75.4364 7.94292C75.5699 7.98837 75.7105 8.0111 75.8583 8.0111C75.9691 8.0111 76.06 8.00542 76.131 7.99405C76.202 7.97985 76.2588 7.96848 76.3014 7.95996L76.506 8.86337C76.4378 8.88894 76.3426 8.91451 76.2205 8.94007C76.0983 8.96848 75.9435 8.98269 75.756 8.98269C75.4719 8.98269 75.1935 8.92161 74.9208 8.79945C74.6509 8.67729 74.4264 8.49121 74.2475 8.24121C74.0713 7.99121 73.9833 7.67587 73.9833 7.29519V0.783824Z" fill="black"/>
</svg>
