<svg width="32" height="32" viewBox="0 0 32 32" fill="none" xmlns="http://www.w3.org/2000/svg">
<path d="M9.54945 25.9923C9.40156 25.8296 9.21671 25.6892 9.11319 25.5044C8.11495 23.7667 7.1315 22.0216 6.14805 20.2765C5.88925 19.8181 5.96319 19.5518 6.42164 19.293C6.70263 19.1303 6.99102 18.9677 7.27201 18.8125C7.64912 18.6054 7.94487 18.6792 8.15191 19.0489C9.17972 20.8606 10.2075 22.6796 11.2354 24.4913C11.435 24.8536 11.3537 25.1419 10.9914 25.3563C10.6142 25.5708 10.2371 25.7853 9.85262 25.9997H9.54945V25.9923ZM7.48643 19.8846C7.27939 19.8846 7.10194 20.0769 7.10933 20.2839C7.11673 20.4836 7.29419 20.6536 7.50123 20.6462C7.71567 20.6462 7.88572 20.454 7.87832 20.2469C7.86354 20.0399 7.69347 19.8772 7.48643 19.8846Z" fill="#0671B8"/>
<path d="M22.6005 16.2469C22.5561 16.2691 22.5192 16.2986 22.4674 16.3208C22.0164 16.5056 21.5727 16.6905 21.1216 16.8827C21.0403 16.9197 20.9516 16.9937 20.9146 17.0676C20.8037 17.319 20.7076 17.5778 20.6188 17.8366C20.5819 17.9475 20.5227 17.9919 20.397 17.9919C19.9164 17.9845 19.4357 17.9845 18.9551 17.9919C18.8294 17.9919 18.7776 17.9401 18.7407 17.8292C18.6445 17.5704 18.5558 17.3116 18.4375 17.0602C18.4005 16.9789 18.3118 16.9049 18.2304 16.8753C17.7794 16.6757 17.3209 16.4908 16.8699 16.306C16.8033 16.2838 16.7146 16.269 16.6555 16.2986C16.3893 16.4021 16.1305 16.5204 15.8791 16.6387C15.7681 16.6904 15.6868 16.6906 15.5981 16.5944C15.2653 16.2469 14.9252 15.9067 14.5776 15.5739C14.4963 15.4926 14.4889 15.4262 14.5333 15.33C14.6516 15.0712 14.7699 14.8124 14.8734 14.5536C14.903 14.4797 14.8956 14.3761 14.866 14.2947C14.6812 13.8363 14.4963 13.3853 14.3041 12.9269C14.2745 12.8603 14.2153 12.779 14.1488 12.7494C13.8826 12.6311 13.6016 12.5422 13.3428 12.4239C13.2837 12.3944 13.2171 12.3056 13.2171 12.2391C13.2097 11.7437 13.2097 11.2482 13.2171 10.7528C13.2171 10.6863 13.2837 10.5975 13.3428 10.568C13.6386 10.4422 14.0083 10.3979 14.2153 10.1982C14.415 9.99859 14.4446 9.63634 14.5629 9.34796C14.622 9.19268 14.6886 9.02992 14.7773 8.89683C14.9326 8.675 14.94 8.48282 14.8069 8.23881C14.6812 8.01698 14.4963 7.74342 14.5333 7.52898C14.5703 7.32194 14.8587 7.15927 15.0361 6.97441C15.2284 6.78216 15.4206 6.59728 15.6055 6.39763C15.6868 6.3089 15.7533 6.28666 15.8717 6.34582C16.1231 6.47152 16.3819 6.58241 16.6481 6.68593C16.722 6.71551 16.8255 6.7007 16.8995 6.67113C17.3505 6.49366 17.8016 6.3088 18.2453 6.10915C18.3266 6.07218 18.4153 5.99823 18.4523 5.92429C18.5632 5.67288 18.6593 5.41423 18.7555 5.15543C18.7924 5.04452 18.8442 5 18.9699 5C19.4505 5.00739 19.9312 5.00739 20.4118 5C20.5375 5 20.5892 5.04452 20.6336 5.15543C20.7297 5.42163 20.8259 5.68769 20.9442 5.9465C20.9738 6.01304 21.0477 6.07218 21.1216 6.10915C21.5801 6.3088 22.0385 6.50107 22.5044 6.68593C22.5709 6.71551 22.6744 6.71551 22.741 6.68593C23.0072 6.58241 23.2586 6.44935 23.5248 6.35322C23.5913 6.33104 23.7097 6.34586 23.7614 6.39023C24.1163 6.72297 24.4565 7.07043 24.7966 7.42536C24.841 7.47712 24.8632 7.59548 24.8336 7.66203C24.7301 7.92823 24.6044 8.17968 24.5008 8.44587C24.4713 8.51982 24.486 8.62323 24.5156 8.70457C24.6931 9.16301 24.8854 9.62153 25.0776 10.0726C25.1072 10.1391 25.1737 10.2205 25.2403 10.25C25.4991 10.361 25.7653 10.4644 26.0315 10.5605C26.1424 10.5975 26.1941 10.6567 26.1868 10.7824C26.1794 11.263 26.1794 11.7436 26.1868 12.2243C26.1868 12.35 26.135 12.4018 26.0241 12.4461C25.7653 12.5423 25.5065 12.6311 25.2551 12.7494C25.1737 12.7864 25.1072 12.875 25.0702 12.9563C24.8779 13.3926 24.6931 13.8363 24.523 14.2799C24.4861 14.3687 24.4787 14.4871 24.5082 14.5758C24.6044 14.8346 24.7375 15.0786 24.8336 15.3374C24.8558 15.404 24.8336 15.5222 24.7892 15.5739C24.4565 15.9215 24.1089 16.2543 23.7762 16.6018C23.6801 16.7054 23.6061 16.6978 23.4878 16.6461C23.2438 16.5278 22.9998 16.4243 22.7558 16.3134C22.7114 16.2912 22.6597 16.2765 22.6079 16.2543L22.6005 16.2469ZM16.1748 11.5144C16.1748 13.4518 17.7498 15.0267 19.6945 15.0194C21.6318 15.0194 23.2068 13.437 23.2068 11.4996C23.2068 9.55494 21.6245 7.97994 19.6724 7.98734C17.735 7.98734 16.1748 9.56234 16.1748 11.5144Z" fill="#FFB422"/>
<path d="M11.4203 23.3972C10.6809 22.0884 9.94146 20.787 9.20203 19.4708C9.80836 19.1159 10.3999 18.7684 10.9915 18.4357C11.4869 18.1621 11.9823 17.881 12.4925 17.637C13.0471 17.3782 13.6238 17.3708 14.2154 17.5704C15.295 17.9327 16.3819 18.273 17.4689 18.6205C17.6316 18.6723 17.809 18.687 17.9791 18.7314C18.5411 18.8792 18.896 19.4708 18.7629 20.0328C18.6298 20.6095 18.1196 20.9201 17.5132 20.7796C17.1287 20.6983 16.7516 20.5874 16.3745 20.4913C15.9678 20.3804 15.5611 20.2619 15.1545 20.1584C14.9622 20.1067 14.7995 20.2102 14.7404 20.3877C14.6886 20.5578 14.7626 20.7279 14.9252 20.8092C14.9474 20.824 14.977 20.8314 15.0066 20.8388C15.8495 21.0606 16.6851 21.3046 17.5354 21.4968C18.0974 21.6225 18.5854 21.4377 18.9551 20.9867C18.9995 20.9349 19.0513 20.8758 19.1104 20.8462C19.4432 20.6761 19.7907 20.5281 20.1234 20.3359C21.2622 19.6852 22.3861 19.0197 23.5175 18.3616C24.0351 18.0659 24.5748 17.8145 25.196 17.7997C26.3199 17.7849 26.6083 18.8867 26.2238 19.567C26.1424 19.7149 26.0093 19.848 25.8615 19.9367C23.5692 21.3564 21.2696 22.7688 18.9699 24.1811C18.3118 24.5878 17.6168 24.6616 16.8699 24.462C15.3097 24.0405 13.7421 23.6264 12.1745 23.1976C11.9675 23.1384 11.7974 23.1385 11.6274 23.2642C11.5682 23.3085 11.5017 23.3307 11.4203 23.375V23.3972Z" fill="#0671B8"/>
<path d="M19.687 8.68945C21.2398 8.68945 22.5117 9.94653 22.5117 11.4993C22.5117 13.0447 21.2472 14.3166 19.6944 14.324C18.1416 14.324 16.8772 13.0669 16.8772 11.5067C16.8772 9.94653 18.1268 8.68945 19.687 8.68945Z" fill="#FFB422"/>
<path d="M19.9607 13.6072C19.9607 13.4889 19.9607 13.378 19.9607 13.2597C19.9607 13.2154 19.9755 13.1931 20.0198 13.1783C20.0938 13.1561 20.1751 13.1266 20.2416 13.0897C20.7814 12.8087 20.9515 12.1653 20.604 11.6846C20.3895 11.3889 20.0864 11.2559 19.7241 11.2411C19.5614 11.2411 19.4135 11.204 19.2878 11.0931C19.1103 10.9452 19.0807 10.7013 19.2286 10.5313C19.3913 10.339 19.6131 10.2872 19.8497 10.339C20.079 10.3908 20.2268 10.5237 20.2638 10.7677H20.7962C20.7962 10.716 20.7962 10.6717 20.7814 10.6273C20.7001 10.2206 20.4413 9.96176 20.0568 9.83605C19.9828 9.81387 19.9607 9.77695 19.9681 9.703C19.9681 9.59948 19.9681 9.49603 19.9681 9.3999H19.4357C19.4357 9.49603 19.4357 9.59208 19.4357 9.6882C19.4431 9.77693 19.4135 9.82126 19.3248 9.83605C19.273 9.84345 19.2286 9.86568 19.1843 9.88786C18.6223 10.1541 18.43 10.8195 18.785 11.3075C18.9994 11.6033 19.3026 11.7439 19.6649 11.7586C19.8202 11.7586 19.9607 11.7882 20.079 11.8843C20.3156 12.0618 20.3156 12.3724 20.079 12.5499C19.7314 12.8161 19.2582 12.6607 19.1251 12.2244H18.6001C18.6075 12.291 18.6149 12.3575 18.6297 12.4167C18.7258 12.8086 18.992 13.0378 19.3617 13.1561C19.4209 13.1709 19.4357 13.1932 19.4357 13.2523C19.4357 13.3632 19.4357 13.4667 19.4357 13.585H19.9681L19.9607 13.6072Z" fill="white"/>
</svg>
