<svg width="32" height="32" viewBox="0 0 32 32" fill="none" xmlns="http://www.w3.org/2000/svg">
<path d="M6 15.5607C6.00716 14.5439 6.35083 13.6562 7.06682 12.9259C7.75417 12.217 8.45585 11.5226 9.15752 10.828C9.63008 10.3627 10.2172 10.3627 10.6754 10.828C11.9928 12.167 13.3031 13.5129 14.6062 14.859C15.0573 15.3244 15.0501 15.8973 14.5919 16.3626C13.2888 17.6729 11.9857 18.976 10.6826 20.2791C10.2172 20.7445 9.63008 20.7445 9.16469 20.2791C8.47018 19.5917 7.77565 18.8973 7.0883 18.2028C6.36515 17.4725 6.01433 16.5845 6.00717 15.5607H6Z" fill="#0671B8"/>
<path d="M16.3534 26.0001C15.5443 25.993 14.6636 25.6565 13.9405 24.9548C13.2173 24.2531 12.5156 23.5443 11.8068 22.8283C11.3844 22.3987 11.3844 21.8544 11.8068 21.4392C13.1242 20.1217 14.4417 18.8115 15.7591 17.494C16.3319 16.9213 16.876 16.9213 17.4488 17.494C18.7018 18.747 19.9548 20 21.2078 21.253C21.7663 21.8115 21.7663 22.3557 21.2078 22.9141C20.5419 23.58 19.8832 24.2459 19.2173 24.9046C18.487 25.6278 17.5705 26.0001 16.3534 26.0001Z" fill="#0671B8"/>
<path d="M16.6755 5C17.4631 5 18.3438 5.35082 19.0741 6.05965C19.7829 6.747 20.4774 7.44879 21.1719 8.15046C21.6158 8.59438 21.6158 9.13135 21.1934 9.56095C19.8831 10.8712 18.5729 12.1815 17.2626 13.4846C16.6612 14.086 16.1385 14.0788 15.5371 13.4846C14.2912 12.2387 13.0454 10.9929 11.7996 9.74711C11.2411 9.18864 11.2411 8.6516 11.7996 8.09313C12.4655 7.4201 13.1385 6.75419 13.8115 6.08832C14.5347 5.37949 15.4511 5.00717 16.6898 5.00717L16.6755 5Z" fill="#0671B8"/>
<path d="M26.8927 15.5324C26.8855 16.5348 26.5419 17.3869 25.8259 18.0885C25.1457 18.7616 24.4726 19.4418 23.7996 20.1149C23.2483 20.6662 22.7042 20.6662 22.16 20.122C20.8927 18.8547 19.6182 17.5802 18.3509 16.3129C17.8283 15.7902 17.8211 15.2246 18.3438 14.7091C19.6254 13.4275 20.907 12.1459 22.1886 10.8643C22.6898 10.3631 23.2626 10.3559 23.7638 10.85C24.4512 11.5302 25.1457 12.2174 25.8259 12.9119C26.5347 13.6423 26.8927 14.5229 26.8999 15.5324H26.8927Z" fill="#0671B8"/>
<path d="M16.4464 19.5344C18.6885 19.5344 20.5061 17.7169 20.5061 15.4748C20.5061 13.2327 18.6885 11.415 16.4464 11.415C14.2043 11.415 12.3867 13.2327 12.3867 15.4748C12.3867 17.7169 14.2043 19.5344 16.4464 19.5344Z" fill="#FFB422" stroke="white" stroke-width="1.02" stroke-miterlimit="10"/>
<path d="M16.7613 17.9023C16.7613 17.7663 16.7613 17.6302 16.7613 17.5013C16.7613 17.4512 16.7757 17.4226 16.8329 17.4083C16.9189 17.3797 17.0119 17.3511 17.0907 17.3081C17.7208 16.9788 17.9141 16.2341 17.506 15.6828C17.2554 15.3391 16.9045 15.1815 16.4893 15.1672C16.3031 15.1672 16.1313 15.1242 15.9809 14.9953C15.7733 14.8235 15.7446 14.5443 15.9093 14.3438C16.1026 14.1219 16.3532 14.0646 16.6253 14.1218C16.8902 14.1791 17.0621 14.3368 17.105 14.6232H17.7136C17.7136 14.5659 17.7136 14.5156 17.6993 14.4655C17.6062 13.9929 17.3127 13.6995 16.8616 13.5492C16.7757 13.5205 16.7542 13.4846 16.7542 13.3987C16.7542 13.2841 16.7542 13.1624 16.7542 13.0479H16.1384C16.1384 13.1624 16.1313 13.2698 16.1384 13.3843C16.1456 13.4917 16.117 13.5419 16.0096 13.5562C15.9523 13.5633 15.9022 13.592 15.8449 13.6207C15.1933 13.9286 14.9714 14.7019 15.3795 15.2603C15.6301 15.604 15.9809 15.7615 16.3962 15.7758C16.5752 15.7758 16.7399 15.8116 16.8759 15.919C17.148 16.1266 17.148 16.4847 16.8759 16.6923C16.4749 17.0073 15.9308 16.8212 15.7733 16.32H15.1647C15.179 16.3987 15.179 16.4704 15.2005 16.542C15.315 16.9931 15.6158 17.2579 16.0453 17.4011C16.1098 17.4226 16.1313 17.444 16.1313 17.5156C16.1313 17.6445 16.1313 17.7662 16.1313 17.8951H16.747L16.7613 17.9023Z" fill="white"/>
</svg>
