<svg width="32" height="32" viewBox="0 0 32 32" fill="none" xmlns="http://www.w3.org/2000/svg">
<path d="M8.00794 26.4374V14.998H24.4972V15.2835C24.4972 18.8747 24.4972 22.4737 24.4972 26.0648C24.4972 26.7387 24.2356 27.0004 23.5617 27.0004C18.6942 27.0004 13.8347 27.0004 8.96718 27.0004C8.50739 27.0004 8.18233 26.8576 8 26.4295L8.00794 26.4374ZM16.6251 25.0977C16.7124 25.0739 16.7758 25.058 16.8471 25.0342C18.2741 24.6458 18.9479 23.0048 18.1869 21.7364C17.743 20.9913 17.0612 20.6425 16.205 20.6187C15.444 20.5949 14.8177 19.9925 14.7622 19.2473C14.6988 18.4704 15.222 17.7965 16.0068 17.6459C18.1076 17.9234 19.5346 19.9211 17.6875 18.6765C17.5685 18.5973 17.7429 18.9697 17.7588 19.1124C17.7826 19.3502 17.9411 19.5008 18.1472 19.4929C18.3613 19.485 18.504 19.3187 18.504 19.0808C18.504 19.0253 18.504 18.9697 18.504 18.9142C18.4168 17.9867 17.7667 17.2098 16.863 16.9561C16.7916 16.9323 16.7203 16.9166 16.641 16.8928C16.641 16.6471 16.641 16.4091 16.641 16.1792C16.641 15.9097 16.7916 15.3548 16.5617 15.3627C16.3397 15.3627 17.6161 15.4816 17.6161 15.7432C17.6161 15.981 18.3613 16.2348 18.3613 16.4806C18.2741 16.5044 18.2582 17.6616 18.2978 17.7171C22.1268 22.8145 16.5538 18.7795 16.0781 19.1997C16.3556 20.1351 16.8313 20.2857 17.8381 20.3174C18.6784 20.3412 19.8437 22.7115 19.8833 23.5043C19.923 24.3287 18.0997 25.2563 17.2831 25.2959C16.4508 25.3435 13.4066 25.0818 13.3511 24.2415C13.3352 23.9402 12.5345 22.7115 12.3046 22.7274C12.0668 22.7353 14.017 22.6878 14.0328 22.997C14.0645 23.5202 14.2628 23.98 14.6116 24.3684C14.9604 24.749 15.5074 23.972 16.0147 24.083C16.0147 24.3366 16.6014 23.7263 16.6014 23.9562C16.3715 23.9562 16.6014 24.2257 16.6014 23.9562C16.9026 23.7025 17.0612 24.0672 16.9423 24.202C16.7837 24.3843 16.649 25.3197 16.649 25.0739L16.6251 25.0977Z" fill="#0671B8"/>
<path d="M8.00793 14.2525V9.00439H24.4813V14.2525H8.00793ZM19.2492 9.74973C18.1789 9.74973 17.1087 9.74973 16.0385 9.74973C15.9672 9.74973 15.8958 9.74973 15.8245 9.74973C15.6263 9.78937 15.4995 9.90826 15.4995 10.1223C15.4995 10.3284 15.6183 10.4552 15.8245 10.4949C15.9037 10.5107 15.983 10.4949 16.0544 10.4949C18.179 10.4949 20.3035 10.4949 22.4281 10.4949C22.5074 10.4949 22.5866 10.4949 22.6659 10.4949C22.8879 10.4632 23.0306 10.2649 22.983 10.0588C22.9434 9.86063 22.7928 9.75766 22.5232 9.75766C21.4292 9.75766 20.3352 9.75766 19.2412 9.75766L19.2492 9.74973ZM19.273 11.2479C18.1948 11.2479 17.1167 11.2479 16.0385 11.2479C15.9672 11.2479 15.8958 11.2479 15.8245 11.2479C15.6263 11.2876 15.4995 11.4065 15.4995 11.6205C15.4995 11.8266 15.6183 11.9534 15.8245 11.9931C15.9037 12.0089 15.983 11.9931 16.0544 11.9931C18.179 11.9931 20.3035 11.9931 22.4281 11.9931C22.5074 11.9931 22.5866 11.9931 22.6659 11.9931C22.872 11.9614 23.0148 11.779 22.991 11.5808C22.9593 11.3668 22.8007 11.2559 22.5232 11.2559C21.4372 11.2559 20.3511 11.2559 19.265 11.2559L19.273 11.2479ZM19.2492 12.7462C18.1789 12.7462 17.1087 12.7462 16.0385 12.7462C15.9672 12.7462 15.8958 12.7462 15.8245 12.7462C15.6263 12.7858 15.4995 12.9049 15.4995 13.111C15.4995 13.3171 15.6183 13.4439 15.8245 13.4836C15.8958 13.4994 15.9672 13.4836 16.0385 13.4836C18.179 13.4836 20.3194 13.4836 22.4598 13.4836C22.5311 13.4836 22.6025 13.4836 22.6739 13.4836C22.872 13.4439 22.9989 13.325 22.9989 13.1189C22.9989 12.9128 22.88 12.7858 22.6739 12.7462C22.6025 12.7303 22.5311 12.7462 22.4598 12.7462C21.3896 12.7462 20.3194 12.7462 19.2492 12.7462ZM11.7339 10.4949C12.3284 10.4949 12.923 10.4949 13.5176 10.4949C13.8267 10.4949 14.0011 10.3522 14.0011 10.1144C14.0011 9.88447 13.8268 9.74973 13.5255 9.74973C12.3443 9.74973 11.171 9.74973 9.98982 9.74973C9.68064 9.74973 9.50625 9.89241 9.50625 10.1302C9.50625 10.3601 9.68063 10.4949 9.98188 10.4949C10.5685 10.4949 11.1552 10.4949 11.7418 10.4949H11.7339ZM11.7735 11.2479C11.171 11.2479 10.5685 11.2479 9.96606 11.2479C9.67274 11.2479 9.49831 11.3906 9.49831 11.6205C9.49831 11.8583 9.67274 11.9931 9.96606 11.9931C11.1552 11.9931 12.3364 11.9931 13.5255 11.9931C13.8188 11.9931 13.9932 11.8504 13.9932 11.6205C13.9932 11.3827 13.8188 11.2479 13.5255 11.2479C12.9389 11.2479 12.3522 11.2479 11.7656 11.2479H11.7735ZM11.7735 12.7462C11.171 12.7462 10.5685 12.7462 9.96606 12.7462C9.67274 12.7462 9.49831 12.889 9.49831 13.1189C9.49831 13.3568 9.67274 13.4915 9.96606 13.4915C11.1552 13.4915 12.3364 13.4915 13.5255 13.4915C13.8188 13.4915 13.9932 13.3488 13.9932 13.1189C13.9932 12.8811 13.8188 12.7462 13.5255 12.7462C12.9389 12.7462 12.3522 12.7462 11.7656 12.7462H11.7735Z" fill="#0671B8"/>
<path d="M8.57081 6H23.9422C24.3703 6.18233 24.5447 6.50734 24.5051 6.96713C24.4893 7.19703 24.5051 7.43477 24.5051 7.6726V8.25129H8.01587V6.56282C8.12685 6.30121 8.31713 6.11099 8.57874 6H8.57081Z" fill="#0671B8"/>
<path d="M15.983 25.2319C18.3166 25.2319 20.2083 23.3403 20.2083 21.0067C20.2083 18.6731 18.3166 16.7812 15.983 16.7812C13.6493 16.7812 11.7576 18.6731 11.7576 21.0067C11.7576 23.3403 13.6493 25.2319 15.983 25.2319Z" fill="#FFB422" stroke="white" stroke-width="0.570782" stroke-miterlimit="10"/>
<path d="M16.3714 24.035C16.3714 23.8606 16.3714 23.702 16.3714 23.5355C16.3714 23.4721 16.3873 23.4404 16.4586 23.4166C16.5696 23.3849 16.6806 23.3452 16.7837 23.2897C17.5685 22.8774 17.8142 21.9501 17.3068 21.2604C16.9897 20.8323 16.5537 20.6341 16.0305 20.6182C15.7927 20.6103 15.5787 20.5627 15.3963 20.4041C15.1427 20.1822 15.0951 19.8413 15.3091 19.5876C15.547 19.3101 15.8641 19.2387 16.205 19.31C16.53 19.3814 16.752 19.5796 16.7995 19.9363H17.5685C17.5685 19.865 17.5685 19.8016 17.5526 19.7382C17.4337 19.1436 17.0691 18.779 16.5062 18.5966C16.3952 18.557 16.3714 18.5094 16.3714 18.4064C16.3714 18.2558 16.3714 18.113 16.3714 17.9624H15.6025C15.6025 18.1051 15.5945 18.2478 15.6025 18.3826C15.6183 18.5174 15.5707 18.5808 15.4439 18.6046C15.3726 18.6204 15.3091 18.6522 15.2378 18.6839C14.4212 19.0724 14.1438 20.0315 14.6591 20.737C14.9683 21.1651 15.4122 21.3634 15.9275 21.3871C16.1494 21.3951 16.3556 21.4347 16.53 21.5695C16.8709 21.8311 16.8709 22.275 16.53 22.5366C16.0226 22.925 15.3488 22.6951 15.1506 22.0688H14.3895C14.4054 22.1719 14.4133 22.2591 14.4292 22.3463C14.5718 22.9092 14.9524 23.2502 15.4915 23.4166C15.5707 23.4404 15.6025 23.4721 15.5945 23.5593C15.5945 23.7178 15.5945 23.8765 15.5945 24.035H16.3635H16.3714Z" fill="white"/>
</svg>
