<svg width="105" height="12" viewBox="0 0 105 12" fill="none" xmlns="http://www.w3.org/2000/svg">
<path d="M5.82955 2.4648C5.77841 2.03298 5.57102 1.69775 5.20739 1.45912C4.84375 1.22048 4.39773 1.10116 3.86932 1.10116C3.48295 1.10116 3.14489 1.16366 2.85511 1.28866C2.56818 1.41366 2.34375 1.58554 2.18182 1.80429C2.02273 2.02304 1.94318 2.27162 1.94318 2.55003C1.94318 2.78298 1.99858 2.98326 2.10938 3.15088C2.22301 3.31565 2.3679 3.45344 2.54403 3.56423C2.72017 3.67219 2.90483 3.76167 3.09801 3.8327C3.29119 3.90088 3.46875 3.95628 3.63068 3.99889L4.51705 4.23753C4.74432 4.29719 4.99716 4.37957 5.27557 4.48469C5.55682 4.5898 5.82528 4.73327 6.08097 4.91508C6.33949 5.09406 6.55256 5.32417 6.72017 5.60542C6.88778 5.88667 6.97159 6.23184 6.97159 6.64094C6.97159 7.11253 6.84801 7.53866 6.60085 7.91934C6.35653 8.30003 5.99858 8.60258 5.52699 8.82702C5.05824 9.05145 4.48864 9.16366 3.81818 9.16366C3.19318 9.16366 2.65199 9.06281 2.1946 8.86111C1.74006 8.6594 1.3821 8.37815 1.12074 8.01736C0.862216 7.65656 0.715909 7.23753 0.681818 6.76025H1.77273C1.80114 7.0898 1.91193 7.36253 2.10511 7.57844C2.30114 7.7915 2.5483 7.95059 2.84659 8.05571C3.14773 8.15798 3.47159 8.20912 3.81818 8.20912C4.22159 8.20912 4.58381 8.14378 4.90483 8.01309C5.22585 7.87957 5.48011 7.69491 5.66761 7.45912C5.85511 7.22048 5.94886 6.94207 5.94886 6.62389C5.94886 6.33412 5.8679 6.09832 5.70597 5.9165C5.54403 5.73469 5.33097 5.58696 5.06676 5.47332C4.80256 5.35969 4.51705 5.26025 4.21023 5.17503L3.13636 4.86821C2.45455 4.67219 1.91477 4.39236 1.51705 4.02872C1.11932 3.66508 0.920455 3.18923 0.920455 2.60116C0.920455 2.11253 1.05256 1.68639 1.31676 1.32275C1.58381 0.956276 1.94176 0.672185 2.39062 0.470481C2.84233 0.265935 3.34659 0.163663 3.90341 0.163663C4.46591 0.163663 4.96591 0.264515 5.40341 0.466219C5.84091 0.665083 6.1875 0.93781 6.44318 1.2844C6.7017 1.63099 6.83807 2.02446 6.85227 2.4648H5.82955ZM10.4989 9.16366C10.0842 9.16366 9.70774 9.08554 9.36967 8.92929C9.03161 8.7702 8.76314 8.5415 8.56428 8.24321C8.36541 7.94207 8.26598 7.57844 8.26598 7.1523C8.26598 6.7773 8.33984 6.47332 8.48757 6.24037C8.6353 6.00457 8.83274 5.81991 9.0799 5.68639C9.32706 5.55287 9.59979 5.45344 9.89808 5.38809C10.1992 5.31991 10.5018 5.26594 10.8058 5.22616C11.2035 5.17503 11.5259 5.13667 11.7731 5.11111C12.0231 5.0827 12.2049 5.03582 12.3185 4.97048C12.435 4.90514 12.4933 4.7915 12.4933 4.62957V4.59548C12.4933 4.17503 12.3782 3.84832 12.1481 3.61537C11.9208 3.38241 11.5756 3.26594 11.1126 3.26594C10.6325 3.26594 10.256 3.37105 9.98331 3.58128C9.71058 3.7915 9.51882 4.01594 9.40803 4.25457L8.45348 3.91366C8.62393 3.51594 8.85121 3.20628 9.1353 2.98469C9.42223 2.76025 9.73473 2.604 10.0728 2.51594C10.4137 2.42503 10.7489 2.37957 11.0785 2.37957C11.2887 2.37957 11.5302 2.40514 11.8029 2.45628C12.0785 2.50457 12.3441 2.60542 12.5998 2.75883C12.8583 2.91224 13.0728 3.14378 13.2433 3.45344C13.4137 3.76309 13.4989 4.17787 13.4989 4.69775V9.01025H12.4933V8.12389H12.4421C12.3739 8.26594 12.2603 8.41792 12.1012 8.57986C11.9421 8.74179 11.7305 8.87957 11.4663 8.99321C11.2021 9.10684 10.8796 9.16366 10.4989 9.16366ZM10.6523 8.26025C11.0501 8.26025 11.3853 8.18213 11.658 8.02588C11.9336 7.86963 12.141 7.66792 12.2802 7.42077C12.4222 7.17361 12.4933 6.91366 12.4933 6.64094V5.72048C12.4506 5.77162 12.3569 5.81849 12.212 5.86111C12.07 5.90088 11.9052 5.93639 11.7177 5.96764C11.533 5.99605 11.3526 6.02162 11.1765 6.04434C11.0032 6.06423 10.8626 6.08128 10.7546 6.09548C10.4933 6.12957 10.2489 6.18497 10.0217 6.26167C9.79723 6.33554 9.61541 6.44775 9.47621 6.59832C9.33984 6.74605 9.27166 6.94775 9.27166 7.20344C9.27166 7.55287 9.40092 7.81707 9.65945 7.99605C9.92081 8.17219 10.2518 8.26025 10.6523 8.26025ZM16.3402 0.282981V9.01025H15.3345V0.282981H16.3402ZM20.1083 9.16366C19.6935 9.16366 19.3171 9.08554 18.979 8.92929C18.641 8.7702 18.3725 8.5415 18.1737 8.24321C17.9748 7.94207 17.8754 7.57844 17.8754 7.1523C17.8754 6.7773 17.9492 6.47332 18.0969 6.24037C18.2447 6.00457 18.4421 5.81991 18.6893 5.68639C18.9364 5.55287 19.2092 5.45344 19.5075 5.38809C19.8086 5.31991 20.1112 5.26594 20.4151 5.22616C20.8129 5.17503 21.1353 5.13667 21.3825 5.11111C21.6325 5.0827 21.8143 5.03582 21.9279 4.97048C22.0444 4.90514 22.1026 4.7915 22.1026 4.62957V4.59548C22.1026 4.17503 21.9876 3.84832 21.7575 3.61537C21.5302 3.38241 21.185 3.26594 20.7219 3.26594C20.2418 3.26594 19.8654 3.37105 19.5927 3.58128C19.32 3.7915 19.1282 4.01594 19.0174 4.25457L18.0629 3.91366C18.2333 3.51594 18.4606 3.20628 18.7447 2.98469C19.0316 2.76025 19.3441 2.604 19.6822 2.51594C20.0231 2.42503 20.3583 2.37957 20.6879 2.37957C20.8981 2.37957 21.1396 2.40514 21.4123 2.45628C21.6879 2.50457 21.9535 2.60542 22.2092 2.75883C22.4677 2.91224 22.6822 3.14378 22.8526 3.45344C23.0231 3.76309 23.1083 4.17787 23.1083 4.69775V9.01025H22.1026V8.12389H22.0515C21.9833 8.26594 21.8697 8.41792 21.7106 8.57986C21.5515 8.74179 21.3398 8.87957 21.0756 8.99321C20.8114 9.10684 20.489 9.16366 20.1083 9.16366ZM20.2617 8.26025C20.6594 8.26025 20.9947 8.18213 21.2674 8.02588C21.543 7.86963 21.7504 7.66792 21.8896 7.42077C22.0316 7.17361 22.1026 6.91366 22.1026 6.64094V5.72048C22.06 5.77162 21.9663 5.81849 21.8214 5.86111C21.6793 5.90088 21.5146 5.93639 21.3271 5.96764C21.1424 5.99605 20.962 6.02162 20.7859 6.04434C20.6126 6.06423 20.4719 6.08128 20.364 6.09548C20.1026 6.12957 19.8583 6.18497 19.631 6.26167C19.4066 6.33554 19.2248 6.44775 19.0856 6.59832C18.9492 6.74605 18.881 6.94775 18.881 7.20344C18.881 7.55287 19.0103 7.81707 19.2688 7.99605C19.5302 8.17219 19.8612 8.26025 20.2617 8.26025ZM24.9439 9.01025V2.4648H25.9155V3.45344H25.9837C26.103 3.12957 26.3189 2.86679 26.6314 2.66508C26.9439 2.46338 27.2962 2.36253 27.6882 2.36253C27.7621 2.36253 27.8544 2.36395 27.9652 2.36679C28.076 2.36963 28.1598 2.37389 28.2166 2.37957V3.4023C28.1825 3.39378 28.1044 3.38099 27.9822 3.36395C27.8629 3.34406 27.7365 3.33412 27.603 3.33412C27.2848 3.33412 27.0007 3.40088 26.7507 3.5344C26.5036 3.66508 26.3075 3.8469 26.1626 4.07986C26.0206 4.30997 25.9496 4.57275 25.9496 4.86821V9.01025H24.9439ZM30.2557 11.4648C30.0852 11.4648 29.9332 11.4506 29.7997 11.4222C29.6662 11.3966 29.5739 11.371 29.5227 11.3455L29.7784 10.4591C30.0227 10.5216 30.2386 10.5443 30.4261 10.5273C30.6136 10.5103 30.7798 10.4264 30.9247 10.2759C31.0724 10.1282 31.2074 9.88809 31.3295 9.55571L31.517 9.04434L29.0966 2.4648H30.1875L31.9943 7.68071H32.0625L33.8693 2.4648H34.9602L32.1818 9.9648C32.0568 10.3029 31.902 10.5827 31.7173 10.8043C31.5327 11.0287 31.3182 11.1949 31.0739 11.3029C30.8324 11.4108 30.5597 11.4648 30.2557 11.4648ZM46.8217 3.01025H45.7649C45.7024 2.70628 45.593 2.43923 45.4368 2.20912C45.2834 1.979 45.0959 1.78582 44.8743 1.62957C44.6555 1.47048 44.4126 1.35116 44.1456 1.27162C43.8786 1.19207 43.6001 1.1523 43.3104 1.1523C42.782 1.1523 42.3033 1.28582 41.8743 1.55287C41.4482 1.81991 41.1087 2.21338 40.8558 2.73327C40.6058 3.25315 40.4808 3.89094 40.4808 4.64662C40.4808 5.4023 40.6058 6.04008 40.8558 6.55997C41.1087 7.07986 41.4482 7.47332 41.8743 7.74037C42.3033 8.00741 42.782 8.14094 43.3104 8.14094C43.6001 8.14094 43.8786 8.10116 44.1456 8.02162C44.4126 7.94207 44.6555 7.82417 44.8743 7.66792C45.0959 7.50883 45.2834 7.31423 45.4368 7.08412C45.593 6.85116 45.7024 6.58412 45.7649 6.28298H46.8217C46.7422 6.729 46.5973 7.12815 46.3871 7.48042C46.1768 7.8327 45.9155 8.13241 45.603 8.37957C45.2905 8.62389 44.9396 8.80997 44.5504 8.93781C44.1641 9.06565 43.7507 9.12957 43.3104 9.12957C42.5661 9.12957 41.9041 8.94775 41.3246 8.58412C40.745 8.22048 40.2891 7.70344 39.9567 7.03298C39.6243 6.36253 39.4581 5.56707 39.4581 4.64662C39.4581 3.72616 39.6243 2.93071 39.9567 2.26025C40.2891 1.5898 40.745 1.07275 41.3246 0.709117C41.9041 0.345481 42.5661 0.163663 43.3104 0.163663C43.7507 0.163663 44.1641 0.227583 44.5504 0.355424C44.9396 0.483265 45.2905 0.670765 45.603 0.917924C45.9155 1.16224 46.1768 1.46054 46.3871 1.81281C46.5973 2.16224 46.7422 2.56139 46.8217 3.01025ZM51.0522 9.14662C50.4613 9.14662 49.9428 9.00599 49.4968 8.72474C49.0536 8.44349 48.707 8.05003 48.457 7.54434C48.2099 7.03866 48.0863 6.44775 48.0863 5.77162C48.0863 5.0898 48.2099 4.49463 48.457 3.98611C48.707 3.47758 49.0536 3.0827 49.4968 2.80145C49.9428 2.5202 50.4613 2.37957 51.0522 2.37957C51.6431 2.37957 52.1602 2.5202 52.6033 2.80145C53.0494 3.0827 53.396 3.47758 53.6431 3.98611C53.8931 4.49463 54.0181 5.0898 54.0181 5.77162C54.0181 6.44775 53.8931 7.03866 53.6431 7.54434C53.396 8.05003 53.0494 8.44349 52.6033 8.72474C52.1602 9.00599 51.6431 9.14662 51.0522 9.14662ZM51.0522 8.24321C51.5011 8.24321 51.8704 8.12815 52.1602 7.89804C52.4499 7.66792 52.6644 7.36537 52.8036 6.99037C52.9428 6.61537 53.0124 6.20912 53.0124 5.77162C53.0124 5.33412 52.9428 4.92645 52.8036 4.54861C52.6644 4.17077 52.4499 3.86537 52.1602 3.63241C51.8704 3.39946 51.5011 3.28298 51.0522 3.28298C50.6033 3.28298 50.234 3.39946 49.9442 3.63241C49.6545 3.86537 49.44 4.17077 49.3008 4.54861C49.1616 4.92645 49.092 5.33412 49.092 5.77162C49.092 6.20912 49.1616 6.61537 49.3008 6.99037C49.44 7.36537 49.6545 7.66792 49.9442 7.89804C50.234 8.12815 50.6033 8.24321 51.0522 8.24321ZM55.5533 9.01025V2.4648H56.5249V3.48753H56.6101C56.7464 3.13809 56.9666 2.86679 57.2706 2.67361C57.5746 2.47758 57.9396 2.37957 58.3658 2.37957C58.7976 2.37957 59.157 2.47758 59.4439 2.67361C59.7337 2.86679 59.9595 3.13809 60.1214 3.48753H60.1896C60.3572 3.14946 60.6087 2.88099 60.9439 2.68213C61.2791 2.48042 61.6811 2.37957 62.1499 2.37957C62.7351 2.37957 63.2138 2.56281 63.5859 2.92929C63.9581 3.29292 64.1442 3.85969 64.1442 4.62957V9.01025H63.1385V4.62957C63.1385 4.14662 63.0064 3.80145 62.7422 3.59406C62.478 3.38667 62.1669 3.28298 61.8089 3.28298C61.3487 3.28298 60.9922 3.42219 60.7393 3.70059C60.4865 3.97616 60.3601 4.32559 60.3601 4.74889V9.01025H59.3374V4.5273C59.3374 4.15514 59.2166 3.85542 58.9751 3.62815C58.7337 3.39804 58.4226 3.28298 58.0419 3.28298C57.7805 3.28298 57.5362 3.35258 57.3089 3.49179C57.0845 3.63099 56.9027 3.82417 56.7635 4.07133C56.6271 4.31565 56.5589 4.59832 56.5589 4.91934V9.01025H55.5533ZM65.983 11.4648V2.4648H66.9545V3.50457H67.0739C67.1477 3.39094 67.25 3.24605 67.3807 3.06991C67.5142 2.89094 67.7045 2.73184 67.9517 2.59264C68.2017 2.45059 68.5398 2.37957 68.9659 2.37957C69.517 2.37957 70.0028 2.51736 70.4233 2.79292C70.8438 3.06849 71.1719 3.45912 71.4077 3.9648C71.6435 4.47048 71.7614 5.06707 71.7614 5.75457C71.7614 6.44775 71.6435 7.04861 71.4077 7.55713C71.1719 8.06281 70.8452 8.45486 70.4276 8.73327C70.0099 9.00883 69.5284 9.14662 68.983 9.14662C68.5625 9.14662 68.2259 9.07702 67.973 8.93781C67.7202 8.79577 67.5256 8.63525 67.3892 8.45628C67.2528 8.27446 67.1477 8.12389 67.0739 8.00457H66.9886V11.4648H65.983ZM66.9716 5.73753C66.9716 6.23184 67.044 6.66792 67.1889 7.04577C67.3338 7.42077 67.5455 7.7148 67.8239 7.92787C68.1023 8.13809 68.4432 8.24321 68.8466 8.24321C69.267 8.24321 69.6179 8.13241 69.8991 7.91082C70.1832 7.68639 70.3963 7.38525 70.5384 7.00741C70.6832 6.62673 70.7557 6.20344 70.7557 5.73753C70.7557 5.2773 70.6847 4.86253 70.5426 4.49321C70.4034 4.12105 70.1918 3.82702 69.9077 3.61111C69.6264 3.39236 69.2727 3.28298 68.8466 3.28298C68.4375 3.28298 68.0938 3.38667 67.8153 3.59406C67.5369 3.79861 67.3267 4.08554 67.1847 4.45486C67.0426 4.82133 66.9716 5.24889 66.9716 5.73753ZM75.9545 9.14662C75.3636 9.14662 74.8452 9.00599 74.3991 8.72474C73.956 8.44349 73.6094 8.05003 73.3594 7.54434C73.1122 7.03866 72.9886 6.44775 72.9886 5.77162C72.9886 5.0898 73.1122 4.49463 73.3594 3.98611C73.6094 3.47758 73.956 3.0827 74.3991 2.80145C74.8452 2.5202 75.3636 2.37957 75.9545 2.37957C76.5455 2.37957 77.0625 2.5202 77.5057 2.80145C77.9517 3.0827 78.2983 3.47758 78.5455 3.98611C78.7955 4.49463 78.9205 5.0898 78.9205 5.77162C78.9205 6.44775 78.7955 7.03866 78.5455 7.54434C78.2983 8.05003 77.9517 8.44349 77.5057 8.72474C77.0625 9.00599 76.5455 9.14662 75.9545 9.14662ZM75.9545 8.24321C76.4034 8.24321 76.7727 8.12815 77.0625 7.89804C77.3523 7.66792 77.5668 7.36537 77.706 6.99037C77.8452 6.61537 77.9148 6.20912 77.9148 5.77162C77.9148 5.33412 77.8452 4.92645 77.706 4.54861C77.5668 4.17077 77.3523 3.86537 77.0625 3.63241C76.7727 3.39946 76.4034 3.28298 75.9545 3.28298C75.5057 3.28298 75.1364 3.39946 74.8466 3.63241C74.5568 3.86537 74.3423 4.17077 74.2031 4.54861C74.0639 4.92645 73.9943 5.33412 73.9943 5.77162C73.9943 6.20912 74.0639 6.61537 74.2031 6.99037C74.3423 7.36537 74.5568 7.66792 74.8466 7.89804C75.1364 8.12815 75.5057 8.24321 75.9545 8.24321ZM81.4613 5.07275V9.01025H80.4556V2.4648H81.4272V3.48753H81.5124C81.6658 3.15514 81.8988 2.88809 82.2113 2.68639C82.5238 2.48184 82.9272 2.37957 83.4215 2.37957C83.8647 2.37957 84.2525 2.47048 84.5849 2.6523C84.9173 2.83128 85.1758 3.104 85.3604 3.47048C85.5451 3.83412 85.6374 4.29434 85.6374 4.85116V9.01025H84.6317V4.91934C84.6317 4.40514 84.4982 4.00457 84.2312 3.71764C83.9641 3.42787 83.5977 3.28298 83.1317 3.28298C82.8107 3.28298 82.5238 3.35258 82.271 3.49179C82.021 3.63099 81.8235 3.83412 81.6786 4.10116C81.5337 4.36821 81.4613 4.69207 81.4613 5.07275ZM90.2195 9.14662C89.5888 9.14662 89.0447 9.00741 88.5874 8.729C88.1328 8.44775 87.782 8.05571 87.5348 7.55287C87.2905 7.04719 87.1683 6.45912 87.1683 5.78866C87.1683 5.11821 87.2905 4.5273 87.5348 4.01594C87.782 3.50173 88.1257 3.10116 88.5661 2.81423C89.0092 2.52446 89.5263 2.37957 90.1172 2.37957C90.4581 2.37957 90.7947 2.43639 91.1271 2.55003C91.4595 2.66366 91.7621 2.84832 92.0348 3.104C92.3075 3.35684 92.5249 3.69207 92.6868 4.10969C92.8487 4.5273 92.9297 5.0415 92.9297 5.6523V6.07844H87.8842V5.20912H91.907C91.907 4.8398 91.8331 4.51025 91.6854 4.22048C91.5405 3.93071 91.3331 3.70202 91.0632 3.5344C90.7962 3.36679 90.4808 3.28298 90.1172 3.28298C89.7166 3.28298 89.37 3.38241 89.0774 3.58128C88.7876 3.7773 88.5646 4.03298 88.4084 4.34832C88.2521 4.66366 88.174 5.00173 88.174 5.36253V5.94207C88.174 6.43639 88.2592 6.85542 88.4297 7.19917C88.603 7.54008 88.843 7.80003 89.1499 7.979C89.4567 8.15514 89.8132 8.24321 90.2195 8.24321C90.4837 8.24321 90.7223 8.20628 90.9354 8.13241C91.1513 8.05571 91.3374 7.94207 91.4936 7.7915C91.6499 7.63809 91.7706 7.44775 91.8558 7.22048L92.8274 7.49321C92.7251 7.82275 92.5533 8.11253 92.3118 8.36253C92.0703 8.60969 91.772 8.80287 91.4169 8.94207C91.0618 9.07844 90.6626 9.14662 90.2195 9.14662ZM95.4652 5.07275V9.01025H94.4595V2.4648H95.4311V3.48753H95.5163C95.6697 3.15514 95.9027 2.88809 96.2152 2.68639C96.5277 2.48184 96.9311 2.37957 97.4254 2.37957C97.8686 2.37957 98.2564 2.47048 98.5888 2.6523C98.9212 2.83128 99.1797 3.104 99.3643 3.47048C99.549 3.83412 99.6413 4.29434 99.6413 4.85116V9.01025H98.6357V4.91934C98.6357 4.40514 98.5021 4.00457 98.2351 3.71764C97.968 3.42787 97.6016 3.28298 97.1357 3.28298C96.8146 3.28298 96.5277 3.35258 96.2749 3.49179C96.0249 3.63099 95.8274 3.83412 95.6825 4.10116C95.5376 4.36821 95.4652 4.69207 95.4652 5.07275ZM104.326 2.4648V3.31707H100.934V2.4648H104.326ZM101.922 0.896617H102.928V7.13525C102.928 7.41934 102.969 7.63241 103.051 7.77446C103.137 7.91366 103.245 8.00741 103.375 8.05571C103.509 8.10116 103.65 8.12389 103.797 8.12389C103.908 8.12389 103.999 8.11821 104.07 8.10684C104.141 8.09264 104.198 8.08128 104.24 8.07275L104.445 8.97616C104.377 9.00173 104.282 9.0273 104.159 9.05287C104.037 9.08128 103.882 9.09548 103.695 9.09548C103.411 9.09548 103.132 9.0344 102.86 8.91224C102.59 8.79008 102.365 8.604 102.186 8.354C102.01 8.104 101.922 7.78866 101.922 7.40798V0.896617Z" fill="black"/>
</svg>
