<svg width="104" height="12" viewBox="0 0 104 12" fill="none" xmlns="http://www.w3.org/2000/svg">
<path d="M5.82955 2.4648C5.77841 2.03298 5.57102 1.69775 5.20739 1.45912C4.84375 1.22048 4.39773 1.10116 3.86932 1.10116C3.48295 1.10116 3.14489 1.16366 2.85511 1.28866C2.56818 1.41366 2.34375 1.58554 2.18182 1.80429C2.02273 2.02304 1.94318 2.27162 1.94318 2.55003C1.94318 2.78298 1.99858 2.98326 2.10938 3.15088C2.22301 3.31565 2.3679 3.45344 2.54403 3.56423C2.72017 3.67219 2.90483 3.76167 3.09801 3.8327C3.29119 3.90088 3.46875 3.95628 3.63068 3.99889L4.51705 4.23753C4.74432 4.29719 4.99716 4.37957 5.27557 4.48469C5.55682 4.5898 5.82528 4.73327 6.08097 4.91508C6.33949 5.09406 6.55256 5.32417 6.72017 5.60542C6.88778 5.88667 6.97159 6.23184 6.97159 6.64094C6.97159 7.11253 6.84801 7.53866 6.60085 7.91934C6.35653 8.30003 5.99858 8.60258 5.52699 8.82702C5.05824 9.05145 4.48864 9.16366 3.81818 9.16366C3.19318 9.16366 2.65199 9.06281 2.1946 8.86111C1.74006 8.6594 1.3821 8.37815 1.12074 8.01736C0.862216 7.65656 0.715909 7.23753 0.681818 6.76025H1.77273C1.80114 7.0898 1.91193 7.36253 2.10511 7.57844C2.30114 7.7915 2.5483 7.95059 2.84659 8.05571C3.14773 8.15798 3.47159 8.20912 3.81818 8.20912C4.22159 8.20912 4.58381 8.14378 4.90483 8.01309C5.22585 7.87957 5.48011 7.69491 5.66761 7.45912C5.85511 7.22048 5.94886 6.94207 5.94886 6.62389C5.94886 6.33412 5.8679 6.09832 5.70597 5.9165C5.54403 5.73469 5.33097 5.58696 5.06676 5.47332C4.80256 5.35969 4.51705 5.26025 4.21023 5.17503L3.13636 4.86821C2.45455 4.67219 1.91477 4.39236 1.51705 4.02872C1.11932 3.66508 0.920455 3.18923 0.920455 2.60116C0.920455 2.11253 1.05256 1.68639 1.31676 1.32275C1.58381 0.956276 1.94176 0.672185 2.39062 0.470481C2.84233 0.265935 3.34659 0.163663 3.90341 0.163663C4.46591 0.163663 4.96591 0.264515 5.40341 0.466219C5.84091 0.665083 6.1875 0.93781 6.44318 1.2844C6.7017 1.63099 6.83807 2.02446 6.85227 2.4648H5.82955ZM10.4989 9.16366C10.0842 9.16366 9.70774 9.08554 9.36967 8.92929C9.03161 8.7702 8.76314 8.5415 8.56428 8.24321C8.36541 7.94207 8.26598 7.57844 8.26598 7.1523C8.26598 6.7773 8.33984 6.47332 8.48757 6.24037C8.6353 6.00457 8.83274 5.81991 9.0799 5.68639C9.32706 5.55287 9.59979 5.45344 9.89808 5.38809C10.1992 5.31991 10.5018 5.26594 10.8058 5.22616C11.2035 5.17503 11.5259 5.13667 11.7731 5.11111C12.0231 5.0827 12.2049 5.03582 12.3185 4.97048C12.435 4.90514 12.4933 4.7915 12.4933 4.62957V4.59548C12.4933 4.17503 12.3782 3.84832 12.1481 3.61537C11.9208 3.38241 11.5756 3.26594 11.1126 3.26594C10.6325 3.26594 10.256 3.37105 9.98331 3.58128C9.71058 3.7915 9.51882 4.01594 9.40803 4.25457L8.45348 3.91366C8.62393 3.51594 8.85121 3.20628 9.1353 2.98469C9.42223 2.76025 9.73473 2.604 10.0728 2.51594C10.4137 2.42503 10.7489 2.37957 11.0785 2.37957C11.2887 2.37957 11.5302 2.40514 11.8029 2.45628C12.0785 2.50457 12.3441 2.60542 12.5998 2.75883C12.8583 2.91224 13.0728 3.14378 13.2433 3.45344C13.4137 3.76309 13.4989 4.17787 13.4989 4.69775V9.01025H12.4933V8.12389H12.4421C12.3739 8.26594 12.2603 8.41792 12.1012 8.57986C11.9421 8.74179 11.7305 8.87957 11.4663 8.99321C11.2021 9.10684 10.8796 9.16366 10.4989 9.16366ZM10.6523 8.26025C11.0501 8.26025 11.3853 8.18213 11.658 8.02588C11.9336 7.86963 12.141 7.66792 12.2802 7.42077C12.4222 7.17361 12.4933 6.91366 12.4933 6.64094V5.72048C12.4506 5.77162 12.3569 5.81849 12.212 5.86111C12.07 5.90088 11.9052 5.93639 11.7177 5.96764C11.533 5.99605 11.3526 6.02162 11.1765 6.04434C11.0032 6.06423 10.8626 6.08128 10.7546 6.09548C10.4933 6.12957 10.2489 6.18497 10.0217 6.26167C9.79723 6.33554 9.61541 6.44775 9.47621 6.59832C9.33984 6.74605 9.27166 6.94775 9.27166 7.20344C9.27166 7.55287 9.40092 7.81707 9.65945 7.99605C9.92081 8.17219 10.2518 8.26025 10.6523 8.26025ZM16.3402 0.282981V9.01025H15.3345V0.282981H16.3402ZM20.1083 9.16366C19.6935 9.16366 19.3171 9.08554 18.979 8.92929C18.641 8.7702 18.3725 8.5415 18.1737 8.24321C17.9748 7.94207 17.8754 7.57844 17.8754 7.1523C17.8754 6.7773 17.9492 6.47332 18.0969 6.24037C18.2447 6.00457 18.4421 5.81991 18.6893 5.68639C18.9364 5.55287 19.2092 5.45344 19.5075 5.38809C19.8086 5.31991 20.1112 5.26594 20.4151 5.22616C20.8129 5.17503 21.1353 5.13667 21.3825 5.11111C21.6325 5.0827 21.8143 5.03582 21.9279 4.97048C22.0444 4.90514 22.1026 4.7915 22.1026 4.62957V4.59548C22.1026 4.17503 21.9876 3.84832 21.7575 3.61537C21.5302 3.38241 21.185 3.26594 20.7219 3.26594C20.2418 3.26594 19.8654 3.37105 19.5927 3.58128C19.32 3.7915 19.1282 4.01594 19.0174 4.25457L18.0629 3.91366C18.2333 3.51594 18.4606 3.20628 18.7447 2.98469C19.0316 2.76025 19.3441 2.604 19.6822 2.51594C20.0231 2.42503 20.3583 2.37957 20.6879 2.37957C20.8981 2.37957 21.1396 2.40514 21.4123 2.45628C21.6879 2.50457 21.9535 2.60542 22.2092 2.75883C22.4677 2.91224 22.6822 3.14378 22.8526 3.45344C23.0231 3.76309 23.1083 4.17787 23.1083 4.69775V9.01025H22.1026V8.12389H22.0515C21.9833 8.26594 21.8697 8.41792 21.7106 8.57986C21.5515 8.74179 21.3398 8.87957 21.0756 8.99321C20.8114 9.10684 20.489 9.16366 20.1083 9.16366ZM20.2617 8.26025C20.6594 8.26025 20.9947 8.18213 21.2674 8.02588C21.543 7.86963 21.7504 7.66792 21.8896 7.42077C22.0316 7.17361 22.1026 6.91366 22.1026 6.64094V5.72048C22.06 5.77162 21.9663 5.81849 21.8214 5.86111C21.6793 5.90088 21.5146 5.93639 21.3271 5.96764C21.1424 5.99605 20.962 6.02162 20.7859 6.04434C20.6126 6.06423 20.4719 6.08128 20.364 6.09548C20.1026 6.12957 19.8583 6.18497 19.631 6.26167C19.4066 6.33554 19.2248 6.44775 19.0856 6.59832C18.9492 6.74605 18.881 6.94775 18.881 7.20344C18.881 7.55287 19.0103 7.81707 19.2688 7.99605C19.5302 8.17219 19.8612 8.26025 20.2617 8.26025ZM24.9439 9.01025V2.4648H25.9155V3.45344H25.9837C26.103 3.12957 26.3189 2.86679 26.6314 2.66508C26.9439 2.46338 27.2962 2.36253 27.6882 2.36253C27.7621 2.36253 27.8544 2.36395 27.9652 2.36679C28.076 2.36963 28.1598 2.37389 28.2166 2.37957V3.4023C28.1825 3.39378 28.1044 3.38099 27.9822 3.36395C27.8629 3.34406 27.7365 3.33412 27.603 3.33412C27.2848 3.33412 27.0007 3.40088 26.7507 3.5344C26.5036 3.66508 26.3075 3.8469 26.1626 4.07986C26.0206 4.30997 25.9496 4.57275 25.9496 4.86821V9.01025H24.9439ZM30.2557 11.4648C30.0852 11.4648 29.9332 11.4506 29.7997 11.4222C29.6662 11.3966 29.5739 11.371 29.5227 11.3455L29.7784 10.4591C30.0227 10.5216 30.2386 10.5443 30.4261 10.5273C30.6136 10.5103 30.7798 10.4264 30.9247 10.2759C31.0724 10.1282 31.2074 9.88809 31.3295 9.55571L31.517 9.04434L29.0966 2.4648H30.1875L31.9943 7.68071H32.0625L33.8693 2.4648H34.9602L32.1818 9.9648C32.0568 10.3029 31.902 10.5827 31.7173 10.8043C31.5327 11.0287 31.3182 11.1949 31.0739 11.3029C30.8324 11.4108 30.5597 11.4648 30.2557 11.4648ZM40.157 9.01025H39.049L42.2536 0.282981H43.3445L46.549 9.01025H45.4411L42.8331 1.66366H42.7649L40.157 9.01025ZM40.5661 5.60116H45.032V6.53866H40.5661V5.60116ZM50.2436 9.14662C49.6982 9.14662 49.2166 9.00883 48.799 8.73327C48.3814 8.45486 48.0547 8.06281 47.8189 7.55713C47.5831 7.04861 47.4652 6.44775 47.4652 5.75457C47.4652 5.06707 47.5831 4.47048 47.8189 3.9648C48.0547 3.45912 48.3828 3.06849 48.8033 2.79292C49.2237 2.51736 49.7095 2.37957 50.2607 2.37957C50.6868 2.37957 51.0234 2.45059 51.2706 2.59264C51.5206 2.73184 51.7109 2.89094 51.8416 3.06991C51.9751 3.24605 52.0788 3.39094 52.1527 3.50457H52.2379V0.282981H53.2436V9.01025H52.272V8.00457H52.1527C52.0788 8.12389 51.9737 8.27446 51.8374 8.45628C51.701 8.63525 51.5064 8.79577 51.2536 8.93781C51.0007 9.07702 50.6641 9.14662 50.2436 9.14662ZM50.38 8.24321C50.7834 8.24321 51.1243 8.13809 51.4027 7.92787C51.6811 7.7148 51.8928 7.42077 52.0376 7.04577C52.1825 6.66792 52.255 6.23184 52.255 5.73753C52.255 5.24889 52.1839 4.82133 52.0419 4.45486C51.8999 4.08554 51.6896 3.79861 51.4112 3.59406C51.1328 3.38667 50.7891 3.28298 50.38 3.28298C49.9538 3.28298 49.5987 3.39236 49.3146 3.61111C49.0334 3.82702 48.8217 4.12105 48.6797 4.49321C48.5405 4.86253 48.4709 5.2773 48.4709 5.73753C48.4709 6.20344 48.5419 6.62673 48.6839 7.00741C48.8288 7.38525 49.0419 7.68639 49.3232 7.91082C49.6072 8.13241 49.9595 8.24321 50.38 8.24321ZM55.2251 2.4648H56.2308V9.48753C56.2308 9.89094 56.1612 10.2404 56.022 10.5358C55.8857 10.8313 55.6783 11.06 55.3999 11.2219C55.1243 11.3838 54.7763 11.4648 54.3558 11.4648C54.3217 11.4648 54.2876 11.4648 54.2536 11.4648C54.2195 11.4648 54.1854 11.4648 54.1513 11.4648V10.5273C54.1854 10.5273 54.2166 10.5273 54.245 10.5273C54.2734 10.5273 54.3047 10.5273 54.3388 10.5273C54.6456 10.5273 54.87 10.4364 55.0121 10.2546C55.1541 10.0756 55.2251 9.81991 55.2251 9.48753V2.4648ZM55.7195 1.37389C55.5234 1.37389 55.3544 1.30713 55.2124 1.17361C55.0732 1.04008 55.0036 0.879572 55.0036 0.692072C55.0036 0.504572 55.0732 0.344061 55.2124 0.210538C55.3544 0.0770152 55.5234 0.0102539 55.7195 0.0102539C55.9155 0.0102539 56.0831 0.0770152 56.2223 0.210538C56.3643 0.344061 56.4354 0.504572 56.4354 0.692072C56.4354 0.879572 56.3643 1.04008 56.2223 1.17361C56.0831 1.30713 55.9155 1.37389 55.7195 1.37389ZM62.1978 6.33412V2.4648H63.2035V9.01025H62.1978V7.9023H62.1296C61.9762 8.23469 61.7376 8.51736 61.4137 8.75031C61.0898 8.98042 60.6808 9.09548 60.1864 9.09548C59.7773 9.09548 59.4137 9.00599 59.0955 8.82702C58.7773 8.6452 58.5273 8.37247 58.3455 8.00883C58.1637 7.64236 58.0728 7.18071 58.0728 6.62389V2.4648H59.0785V6.55571C59.0785 7.03298 59.212 7.41366 59.479 7.69775C59.7489 7.98184 60.0927 8.12389 60.5103 8.12389C60.7603 8.12389 61.0146 8.05997 61.2731 7.93213C61.5344 7.80429 61.7532 7.60827 61.9293 7.34406C62.1083 7.07986 62.1978 6.74321 62.1978 6.33412ZM69.6818 3.93071L68.7784 4.18639C68.7216 4.03582 68.6378 3.88952 68.527 3.74747C68.419 3.60258 68.2713 3.48327 68.0838 3.38952C67.8963 3.29577 67.6562 3.24889 67.3636 3.24889C66.9631 3.24889 66.6293 3.34122 66.3622 3.52588C66.098 3.7077 65.9659 3.93923 65.9659 4.22048C65.9659 4.47048 66.0568 4.66792 66.2386 4.81281C66.4205 4.9577 66.7045 5.07844 67.0909 5.17503L68.0625 5.41366C68.6477 5.55571 69.0838 5.77304 69.3707 6.06565C69.6577 6.35542 69.8011 6.729 69.8011 7.18639C69.8011 7.56139 69.6932 7.89662 69.4773 8.19207C69.2642 8.48753 68.9659 8.72048 68.5824 8.89094C68.1989 9.06139 67.7528 9.14662 67.2443 9.14662C66.5767 9.14662 66.0241 9.00173 65.5866 8.71196C65.1491 8.42219 64.8722 7.99889 64.7557 7.44207L65.7102 7.20344C65.8011 7.55571 65.973 7.81991 66.2259 7.99605C66.4815 8.17219 66.8153 8.26025 67.2273 8.26025C67.696 8.26025 68.0682 8.16082 68.3438 7.96196C68.6222 7.76025 68.7614 7.51878 68.7614 7.23753C68.7614 7.01025 68.6818 6.81991 68.5227 6.6665C68.3636 6.51025 68.1193 6.39378 67.7898 6.31707L66.6989 6.06139C66.0994 5.91934 65.6591 5.69917 65.3778 5.40088C65.0994 5.09974 64.9602 4.72332 64.9602 4.27162C64.9602 3.9023 65.0639 3.57559 65.2713 3.2915C65.4815 3.00741 65.767 2.7844 66.1278 2.62247C66.4915 2.46054 66.9034 2.37957 67.3636 2.37957C68.0114 2.37957 68.5199 2.52162 68.8892 2.80571C69.2614 3.0898 69.5256 3.4648 69.6818 3.93071ZM74.1616 2.4648V3.31707H70.7695V2.4648H74.1616ZM71.7582 0.896617H72.7638V7.13525C72.7638 7.41934 72.805 7.63241 72.8874 7.77446C72.9727 7.91366 73.0806 8.00741 73.2113 8.05571C73.3448 8.10116 73.4854 8.12389 73.6332 8.12389C73.744 8.12389 73.8349 8.11821 73.9059 8.10684C73.9769 8.09264 74.0337 8.08128 74.0763 8.07275L74.2809 8.97616C74.2127 9.00173 74.1175 9.0273 73.9954 9.05287C73.8732 9.08128 73.7184 9.09548 73.5309 9.09548C73.2468 9.09548 72.9684 9.0344 72.6957 8.91224C72.4258 8.79008 72.2013 8.604 72.0224 8.354C71.8462 8.104 71.7582 7.78866 71.7582 7.40798V0.896617ZM75.6744 9.01025V2.4648H76.646V3.48753H76.7312C76.8675 3.13809 77.0877 2.86679 77.3917 2.67361C77.6957 2.47758 78.0607 2.37957 78.4869 2.37957C78.9187 2.37957 79.2781 2.47758 79.565 2.67361C79.8548 2.86679 80.0806 3.13809 80.2425 3.48753H80.3107C80.4783 3.14946 80.7298 2.88099 81.065 2.68213C81.4002 2.48042 81.8022 2.37957 82.271 2.37957C82.8562 2.37957 83.3349 2.56281 83.707 2.92929C84.0792 3.29292 84.2653 3.85969 84.2653 4.62957V9.01025H83.2596V4.62957C83.2596 4.14662 83.1275 3.80145 82.8633 3.59406C82.5991 3.38667 82.288 3.28298 81.93 3.28298C81.4698 3.28298 81.1133 3.42219 80.8604 3.70059C80.6076 3.97616 80.4812 4.32559 80.4812 4.74889V9.01025H79.4585V4.5273C79.4585 4.15514 79.3377 3.85542 79.0962 3.62815C78.8548 3.39804 78.5437 3.28298 78.163 3.28298C77.9016 3.28298 77.6573 3.35258 77.43 3.49179C77.2056 3.63099 77.0238 3.82417 76.8846 4.07133C76.7482 4.31565 76.68 4.59832 76.68 4.91934V9.01025H75.6744ZM88.8484 9.14662C88.2177 9.14662 87.6737 9.00741 87.2163 8.729C86.7617 8.44775 86.4109 8.05571 86.1637 7.55287C85.9194 7.04719 85.7972 6.45912 85.7972 5.78866C85.7972 5.11821 85.9194 4.5273 86.1637 4.01594C86.4109 3.50173 86.7546 3.10116 87.195 2.81423C87.6381 2.52446 88.1552 2.37957 88.7461 2.37957C89.087 2.37957 89.4237 2.43639 89.756 2.55003C90.0884 2.66366 90.391 2.84832 90.6637 3.104C90.9364 3.35684 91.1538 3.69207 91.3157 4.10969C91.4776 4.5273 91.5586 5.0415 91.5586 5.6523V6.07844H86.5131V5.20912H90.5359C90.5359 4.8398 90.462 4.51025 90.3143 4.22048C90.1694 3.93071 89.962 3.70202 89.6921 3.5344C89.4251 3.36679 89.1097 3.28298 88.7461 3.28298C88.3455 3.28298 87.9989 3.38241 87.7063 3.58128C87.4165 3.7773 87.1935 4.03298 87.0373 4.34832C86.881 4.66366 86.8029 5.00173 86.8029 5.36253V5.94207C86.8029 6.43639 86.8881 6.85542 87.0586 7.19917C87.2319 7.54008 87.4719 7.80003 87.7788 7.979C88.0856 8.15514 88.4421 8.24321 88.8484 8.24321C89.1126 8.24321 89.3512 8.20628 89.5643 8.13241C89.7802 8.05571 89.9663 7.94207 90.1225 7.7915C90.2788 7.63809 90.3995 7.44775 90.4847 7.22048L91.4563 7.49321C91.354 7.82275 91.1822 8.11253 90.9407 8.36253C90.6992 8.60969 90.4009 8.80287 90.0458 8.94207C89.6907 9.07844 89.2915 9.14662 88.8484 9.14662ZM94.0941 5.07275V9.01025H93.0884V2.4648H94.06V3.48753H94.1452C94.2987 3.15514 94.5316 2.88809 94.8441 2.68639C95.1566 2.48184 95.56 2.37957 96.0543 2.37957C96.4975 2.37957 96.8853 2.47048 97.2177 2.6523C97.5501 2.83128 97.8086 3.104 97.9933 3.47048C98.1779 3.83412 98.2702 4.29434 98.2702 4.85116V9.01025H97.2646V4.91934C97.2646 4.40514 97.131 4.00457 96.864 3.71764C96.5969 3.42787 96.2305 3.28298 95.7646 3.28298C95.4435 3.28298 95.1566 3.35258 94.9038 3.49179C94.6538 3.63099 94.4563 3.83412 94.3114 4.10116C94.1665 4.36821 94.0941 4.69207 94.0941 5.07275ZM102.955 2.4648V3.31707H99.5625V2.4648H102.955ZM100.551 0.896617H101.557V7.13525C101.557 7.41934 101.598 7.63241 101.68 7.77446C101.766 7.91366 101.874 8.00741 102.004 8.05571C102.138 8.10116 102.278 8.12389 102.426 8.12389C102.537 8.12389 102.628 8.11821 102.699 8.10684C102.77 8.09264 102.827 8.08128 102.869 8.07275L103.074 8.97616C103.006 9.00173 102.911 9.0273 102.788 9.05287C102.666 9.08128 102.511 9.09548 102.324 9.09548C102.04 9.09548 101.761 9.0344 101.489 8.91224C101.219 8.79008 100.994 8.604 100.815 8.354C100.639 8.104 100.551 7.78866 100.551 7.40798V0.896617Z" fill="black"/>
</svg>
