<svg width="63" height="10" viewBox="0 0 63 10" fill="none" xmlns="http://www.w3.org/2000/svg">
<path d="M5.76949 2.4648C5.71835 2.03298 5.51096 1.69775 5.14733 1.45912C4.78369 1.22048 4.33767 1.10116 3.80926 1.10116C3.4229 1.10116 3.08483 1.16366 2.79506 1.28866C2.50812 1.41366 2.28369 1.58554 2.12176 1.80429C1.96267 2.02304 1.88312 2.27162 1.88312 2.55003C1.88312 2.78298 1.93852 2.98326 2.04932 3.15088C2.16295 3.31565 2.30784 3.45344 2.48398 3.56423C2.66011 3.67219 2.84477 3.76167 3.03795 3.8327C3.23113 3.90088 3.40869 3.95628 3.57062 3.99889L4.45699 4.23753C4.68426 4.29719 4.9371 4.37957 5.21551 4.48469C5.49676 4.5898 5.76523 4.73327 6.02091 4.91508C6.27943 5.09406 6.4925 5.32417 6.66011 5.60542C6.82773 5.88667 6.91153 6.23184 6.91153 6.64094C6.91153 7.11253 6.78795 7.53866 6.54079 7.91934C6.29648 8.30003 5.93852 8.60258 5.46693 8.82702C4.99818 9.05145 4.42858 9.16366 3.75812 9.16366C3.13312 9.16366 2.59193 9.06281 2.13454 8.86111C1.68 8.6594 1.32204 8.37815 1.06068 8.01736C0.802157 7.65656 0.655851 7.23753 0.62176 6.76025H1.71267C1.74108 7.0898 1.85187 7.36253 2.04506 7.57844C2.24108 7.7915 2.48824 7.95059 2.78653 8.05571C3.08767 8.15798 3.41153 8.20912 3.75812 8.20912C4.16153 8.20912 4.52375 8.14378 4.84477 8.01309C5.16579 7.87957 5.42006 7.69491 5.60756 7.45912C5.79506 7.22048 5.88881 6.94207 5.88881 6.62389C5.88881 6.33412 5.80784 6.09832 5.64591 5.9165C5.48398 5.73469 5.27091 5.58696 5.0067 5.47332C4.7425 5.35969 4.45699 5.26025 4.15017 5.17503L3.07631 4.86821C2.39449 4.67219 1.85471 4.39236 1.45699 4.02872C1.05926 3.66508 0.860396 3.18923 0.860396 2.60116C0.860396 2.11253 0.992498 1.68639 1.2567 1.32275C1.52375 0.956276 1.8817 0.672185 2.33057 0.470481C2.78227 0.265935 3.28653 0.163663 3.84335 0.163663C4.40585 0.163663 4.90585 0.264515 5.34335 0.466219C5.78085 0.665083 6.12744 0.93781 6.38312 1.2844C6.64165 1.63099 6.77801 2.02446 6.79221 2.4648H5.76949ZM9.51842 0.282981V9.01025H8.51274V0.282981H9.51842ZM13.2865 9.16366C12.8718 9.16366 12.4953 9.08554 12.1573 8.92929C11.8192 8.7702 11.5507 8.5415 11.3519 8.24321C11.153 7.94207 11.0536 7.57844 11.0536 7.1523C11.0536 6.7773 11.1274 6.47332 11.2752 6.24037C11.4229 6.00457 11.6203 5.81991 11.8675 5.68639C12.1147 5.55287 12.3874 5.45344 12.6857 5.38809C12.9868 5.31991 13.2894 5.26594 13.5934 5.22616C13.9911 5.17503 14.3135 5.13667 14.5607 5.11111C14.8107 5.0827 14.9925 5.03582 15.1061 4.97048C15.2226 4.90514 15.2809 4.7915 15.2809 4.62957V4.59548C15.2809 4.17503 15.1658 3.84832 14.9357 3.61537C14.7084 3.38241 14.3632 3.26594 13.9002 3.26594C13.4201 3.26594 13.0436 3.37105 12.7709 3.58128C12.4982 3.7915 12.3064 4.01594 12.1956 4.25457L11.2411 3.91366C11.4115 3.51594 11.6388 3.20628 11.9229 2.98469C12.2098 2.76025 12.5223 2.604 12.8604 2.51594C13.2013 2.42503 13.5365 2.37957 13.8661 2.37957C14.0763 2.37957 14.3178 2.40514 14.5905 2.45628C14.8661 2.50457 15.1317 2.60542 15.3874 2.75883C15.6459 2.91224 15.8604 3.14378 16.0309 3.45344C16.2013 3.76309 16.2865 4.17787 16.2865 4.69775V9.01025H15.2809V8.12389H15.2297C15.1615 8.26594 15.0479 8.41792 14.8888 8.57986C14.7297 8.74179 14.5181 8.87957 14.2539 8.99321C13.9897 9.10684 13.6672 9.16366 13.2865 9.16366ZM13.4399 8.26025C13.8377 8.26025 14.1729 8.18213 14.4456 8.02588C14.7212 7.86963 14.9286 7.66792 15.0678 7.42077C15.2098 7.17361 15.2809 6.91366 15.2809 6.64094V5.72048C15.2382 5.77162 15.1445 5.81849 14.9996 5.86111C14.8576 5.90088 14.6928 5.93639 14.5053 5.96764C14.3206 5.99605 14.1402 6.02162 13.9641 6.04434C13.7908 6.06423 13.6502 6.08128 13.5422 6.09548C13.2809 6.12957 13.0365 6.18497 12.8093 6.26167C12.5848 6.33554 12.403 6.44775 12.2638 6.59832C12.1274 6.74605 12.0593 6.94775 12.0593 7.20344C12.0593 7.55287 12.1885 7.81707 12.447 7.99605C12.7084 8.17219 13.0394 8.26025 13.4399 8.26025ZM18.2585 9.01025V0.282981H19.2642V3.50457H19.3494C19.4233 3.39094 19.5255 3.24605 19.6562 3.06991C19.7897 2.89094 19.9801 2.73184 20.2272 2.59264C20.4772 2.45059 20.8153 2.37957 21.2414 2.37957C21.7926 2.37957 22.2784 2.51736 22.6988 2.79292C23.1193 3.06849 23.4474 3.45912 23.6832 3.9648C23.919 4.47048 24.0369 5.06707 24.0369 5.75457C24.0369 6.44775 23.919 7.04861 23.6832 7.55713C23.4474 8.06281 23.1207 8.45486 22.7031 8.73327C22.2855 9.00883 21.8039 9.14662 21.2585 9.14662C20.838 9.14662 20.5014 9.07702 20.2485 8.93781C19.9957 8.79577 19.8011 8.63525 19.6647 8.45628C19.5284 8.27446 19.4233 8.12389 19.3494 8.00457H19.2301V9.01025H18.2585ZM19.2471 5.73753C19.2471 6.23184 19.3196 6.66792 19.4644 7.04577C19.6093 7.42077 19.821 7.7148 20.0994 7.92787C20.3778 8.13809 20.7187 8.24321 21.1221 8.24321C21.5426 8.24321 21.8934 8.13241 22.1747 7.91082C22.4588 7.68639 22.6718 7.38525 22.8139 7.00741C22.9588 6.62673 23.0312 6.20344 23.0312 5.73753C23.0312 5.2773 22.9602 4.86253 22.8181 4.49321C22.6789 4.12105 22.4673 3.82702 22.1832 3.61111C21.9019 3.39236 21.5483 3.28298 21.1221 3.28298C20.713 3.28298 20.3693 3.38667 20.0909 3.59406C19.8125 3.79861 19.6022 4.08554 19.4602 4.45486C19.3181 4.82133 19.2471 5.24889 19.2471 5.73753ZM29.0866 0.282981H30.348L33.3139 7.5273H33.4161L36.3821 0.282981H37.6434V9.01025H36.6548V2.37957H36.5696L33.8423 9.01025H32.8877L30.1605 2.37957H30.0752V9.01025H29.0866V0.282981ZM41.5522 9.16366C41.1374 9.16366 40.761 9.08554 40.4229 8.92929C40.0848 8.7702 39.8164 8.5415 39.6175 8.24321C39.4186 7.94207 39.3192 7.57844 39.3192 7.1523C39.3192 6.7773 39.3931 6.47332 39.5408 6.24037C39.6885 6.00457 39.886 5.81991 40.1331 5.68639C40.3803 5.55287 40.653 5.45344 40.9513 5.38809C41.2524 5.31991 41.555 5.26594 41.859 5.22616C42.2567 5.17503 42.5791 5.13667 42.8263 5.11111C43.0763 5.0827 43.2581 5.03582 43.3718 4.97048C43.4882 4.90514 43.5465 4.7915 43.5465 4.62957V4.59548C43.5465 4.17503 43.4314 3.84832 43.2013 3.61537C42.974 3.38241 42.6289 3.26594 42.1658 3.26594C41.6857 3.26594 41.3093 3.37105 41.0365 3.58128C40.7638 3.7915 40.572 4.01594 40.4612 4.25457L39.5067 3.91366C39.6772 3.51594 39.9044 3.20628 40.1885 2.98469C40.4755 2.76025 40.788 2.604 41.126 2.51594C41.4669 2.42503 41.8022 2.37957 42.1317 2.37957C42.3419 2.37957 42.5834 2.40514 42.8561 2.45628C43.1317 2.50457 43.3973 2.60542 43.653 2.75883C43.9115 2.91224 44.126 3.14378 44.2965 3.45344C44.4669 3.76309 44.5522 4.17787 44.5522 4.69775V9.01025H43.5465V8.12389H43.4953C43.4272 8.26594 43.3135 8.41792 43.1544 8.57986C42.9953 8.74179 42.7837 8.87957 42.5195 8.99321C42.2553 9.10684 41.9328 9.16366 41.5522 9.16366ZM41.7056 8.26025C42.1033 8.26025 42.4385 8.18213 42.7112 8.02588C42.9868 7.86963 43.1942 7.66792 43.3334 7.42077C43.4755 7.17361 43.5465 6.91366 43.5465 6.64094V5.72048C43.5039 5.77162 43.4101 5.81849 43.2652 5.86111C43.1232 5.90088 42.9584 5.93639 42.7709 5.96764C42.5862 5.99605 42.4059 6.02162 42.2297 6.04434C42.0564 6.06423 41.9158 6.08128 41.8078 6.09548C41.5465 6.12957 41.3022 6.18497 41.0749 6.26167C40.8505 6.33554 40.6686 6.44775 40.5294 6.59832C40.3931 6.74605 40.3249 6.94775 40.3249 7.20344C40.3249 7.55287 40.4541 7.81707 40.7127 7.99605C40.974 8.17219 41.305 8.26025 41.7056 8.26025ZM47.3252 6.62389L47.3082 5.37957H47.5127L50.3764 2.4648H51.6207L48.5696 5.55003H48.4843L47.3252 6.62389ZM46.3877 9.01025V0.282981H47.3934V9.01025H46.3877ZM50.5468 9.01025L47.99 5.77162L48.7059 5.07275L51.8252 9.01025H50.5468ZM55.3899 9.14662C54.7592 9.14662 54.2152 9.00741 53.7578 8.729C53.3032 8.44775 52.9524 8.05571 52.7052 7.55287C52.4609 7.04719 52.3387 6.45912 52.3387 5.78866C52.3387 5.11821 52.4609 4.5273 52.7052 4.01594C52.9524 3.50173 53.2961 3.10116 53.7365 2.81423C54.1796 2.52446 54.6967 2.37957 55.2876 2.37957C55.6285 2.37957 55.9652 2.43639 56.2975 2.55003C56.6299 2.66366 56.9325 2.84832 57.2052 3.104C57.4779 3.35684 57.6953 3.69207 57.8572 4.10969C58.0191 4.5273 58.1001 5.0415 58.1001 5.6523V6.07844H53.0546V5.20912H57.0774C57.0774 4.8398 57.0035 4.51025 56.8558 4.22048C56.7109 3.93071 56.5035 3.70202 56.2336 3.5344C55.9666 3.36679 55.6512 3.28298 55.2876 3.28298C54.887 3.28298 54.5404 3.38241 54.2478 3.58128C53.9581 3.7773 53.735 4.03298 53.5788 4.34832C53.4225 4.66366 53.3444 5.00173 53.3444 5.36253V5.94207C53.3444 6.43639 53.4296 6.85542 53.6001 7.19917C53.7734 7.54008 54.0135 7.80003 54.3203 7.979C54.6271 8.15514 54.9836 8.24321 55.3899 8.24321C55.6541 8.24321 55.8927 8.20628 56.1058 8.13241C56.3217 8.05571 56.5078 7.94207 56.664 7.7915C56.8203 7.63809 56.941 7.44775 57.0262 7.22048L57.9978 7.49321C57.8956 7.82275 57.7237 8.11253 57.4822 8.36253C57.2407 8.60969 56.9424 8.80287 56.5873 8.94207C56.2322 9.07844 55.8331 9.14662 55.3899 9.14662ZM59.6299 9.01025V2.4648H60.6015V3.45344H60.6697C60.789 3.12957 61.0049 2.86679 61.3174 2.66508C61.6299 2.46338 61.9822 2.36253 62.3742 2.36253C62.4481 2.36253 62.5404 2.36395 62.6512 2.36679C62.762 2.36963 62.8458 2.37389 62.9027 2.37957V3.4023C62.8686 3.39378 62.7904 3.38099 62.6683 3.36395C62.549 3.34406 62.4225 3.33412 62.289 3.33412C61.9708 3.33412 61.6867 3.40088 61.4367 3.5344C61.1896 3.66508 60.9936 3.8469 60.8487 4.07986C60.7066 4.30997 60.6356 4.57275 60.6356 4.86821V9.01025H59.6299Z" fill="black"/>
</svg>
