<svg width="32" height="32" viewBox="0 0 32 32" fill="none" xmlns="http://www.w3.org/2000/svg">
<path d="M20.2746 5C20.3839 5 20.4932 5 20.6025 5C20.7538 5.10929 20.9219 5.21009 21.0648 5.33619C22.2502 6.37022 23.4272 7.41262 24.6041 8.45506C25.2178 8.99309 25.8231 9.53106 26.4284 10.0691C26.6553 10.2709 26.731 10.5232 26.6301 10.809C26.5376 11.078 26.2939 11.2293 25.9744 11.2377C25.8903 11.2377 25.7978 11.2377 25.6886 11.2377V25.9916H15.1885V11.2377C15.1129 11.2377 15.054 11.2377 14.9952 11.2377C14.5917 11.2377 14.3647 11.1032 14.2554 10.809C14.1461 10.5232 14.2386 10.2626 14.5328 10.002C16.1637 8.56442 17.7946 7.12676 19.4255 5.68921C19.7029 5.44541 19.9972 5.23539 20.283 5H20.2746Z" fill="#0671B8"/>
<path d="M6 18.9464C6.15973 18.5765 6.44556 18.4422 6.84067 18.4506C7.79064 18.4674 8.74061 18.4506 9.69058 18.4506H9.92594V25.9998H6V18.9464Z" fill="#FFB422"/>
<path d="M14.5244 14.8442V25.9832H10.5984V25.773C10.5984 22.3935 10.5984 19.0055 10.5984 15.626C10.5984 15.088 10.8423 14.8442 11.3719 14.8442C12.4143 14.8442 13.4652 14.8442 14.5329 14.8442H14.5244Z" fill="#FFB422"/>
<path d="M20.9388 21.1411C20.9388 20.9225 20.9388 20.7123 20.9388 20.5106C20.9388 20.4265 20.964 20.3927 21.0481 20.3591C21.191 20.3171 21.3255 20.2667 21.4516 20.1994C22.4436 19.6782 22.7546 18.5012 22.1073 17.6353C21.7122 17.0973 21.1573 16.8451 20.5016 16.8199C20.2074 16.8115 19.9299 16.7444 19.703 16.551C19.3751 16.2736 19.3246 15.8363 19.5852 15.5252C19.8879 15.1721 20.283 15.0797 20.7202 15.1806C21.1321 15.2731 21.4179 15.5168 21.4768 15.9708H22.4436C22.4436 15.8783 22.4435 15.8028 22.4183 15.7187C22.267 14.9705 21.8047 14.508 21.0985 14.2726C20.9556 14.2306 20.9219 14.1635 20.9304 14.0374C20.9388 13.8525 20.9304 13.6674 20.9304 13.4824H19.9551C19.9551 13.6674 19.9383 13.8356 19.9551 14.0122C19.972 14.1803 19.9215 14.2558 19.7534 14.2894C19.6609 14.3063 19.5769 14.3484 19.5012 14.3904C18.4672 14.878 18.1225 16.0971 18.7698 16.9798C19.1649 17.5178 19.7198 17.77 20.3755 17.7952C20.6529 17.8036 20.9135 17.8541 21.1405 18.0222C21.5693 18.3501 21.5693 18.9133 21.1405 19.2411C20.5016 19.7371 19.6441 19.4429 19.3919 18.6527H18.4251C18.4419 18.7788 18.4503 18.8964 18.4755 19.0057C18.6605 19.7203 19.1313 20.1405 19.8122 20.3591C19.9131 20.3927 19.9467 20.4349 19.9467 20.5358C19.9467 20.7376 19.9467 20.9309 19.9467 21.1411H20.9219H20.9388Z" fill="white"/>
</svg>
