<svg width="32" height="32" viewBox="0 0 32 32" fill="none" xmlns="http://www.w3.org/2000/svg">
<path d="M26.0085 26.9999H5.00842C5.00842 23.8854 5.00842 20.7625 5.00842 17.6479C5.08439 17.6817 5.16035 17.7069 5.21944 17.7491C8.57878 19.8677 11.9466 21.9863 15.3059 24.1133C15.4494 24.2062 15.5591 24.2146 15.7026 24.1133C19.0704 22.037 22.4382 19.9691 25.806 17.9012C25.865 17.8674 25.9241 17.8336 26.0085 17.7914V26.9999Z" fill="#0671B8"/>
<path d="M5.00845 14.356C5.4136 14.0521 5.81874 13.7569 6.21544 13.453C6.28297 13.4024 6.34205 13.36 6.42646 13.2925V16.8797C5.94534 16.5759 5.47267 16.289 5 15.9936C5 15.445 5 14.8962 5 14.356H5.00845Z" fill="#0671B8"/>
<path d="M7.67572 6H23.3498V6.22791C23.3498 10.0177 23.3498 13.7991 23.3498 17.5889C23.3498 17.7492 23.2992 17.842 23.1641 17.9264C20.6742 19.4541 18.1758 20.982 15.6942 22.5182C15.5676 22.5942 15.4748 22.5942 15.3482 22.5182C12.8666 20.9483 10.3851 19.3783 7.89513 17.8168C7.72632 17.7155 7.67572 17.6058 7.67572 17.4116C7.67572 13.6894 7.67572 9.97554 7.67572 6.25326V6ZM16.1163 18.9479C16.1163 18.6693 16.1163 18.4075 16.1163 18.1543C16.1163 18.0446 16.15 18.0024 16.2513 17.9686C16.4286 17.918 16.5974 17.8505 16.7662 17.7661C18.0154 17.1162 18.4036 15.6306 17.6018 14.5333C17.1038 13.858 16.4032 13.5373 15.5761 13.512C15.2047 13.4951 14.8586 13.4192 14.5716 13.1745C14.1581 12.8284 14.0905 12.2713 14.4282 11.8746C14.808 11.4272 15.306 11.3091 15.8546 11.4357C16.3779 11.5538 16.7324 11.8661 16.8084 12.4316H18.0322C18.0238 12.3134 18.0238 12.2122 18.007 12.1194C17.8213 11.1741 17.2304 10.5917 16.3441 10.2963C16.1669 10.2372 16.1247 10.1612 16.1331 10.0008C16.1416 9.76448 16.1331 9.52808 16.1331 9.30018H14.9008C14.9008 9.52808 14.884 9.74756 14.9008 9.96702C14.9177 10.178 14.8501 10.2792 14.6476 10.313C14.5378 10.3299 14.4282 10.3891 14.3269 10.4397C13.027 11.0559 12.5881 12.592 13.4068 13.7061C13.9048 14.3814 14.6054 14.7023 15.4326 14.7361C15.7871 14.7529 16.1078 14.8119 16.3948 15.0229C16.935 15.4365 16.9434 16.1456 16.3948 16.5591C15.5929 17.1837 14.5125 16.8123 14.1918 15.8163H12.9764C13.0017 15.9766 13.0101 16.1201 13.0439 16.2552C13.2718 17.1499 13.8711 17.6901 14.732 17.9602C14.8586 18.0024 14.9093 18.0531 14.9008 18.1797C14.8924 18.4329 14.9008 18.6778 14.9008 18.9394H16.1331L16.1163 18.9479Z" fill="#FFB422"/>
<path d="M24.5905 13.2925C25.0632 13.6554 25.519 14.0015 25.9664 14.356C26.0001 14.3813 26.0085 14.4659 26.0085 14.525C26.0085 15.0314 26.0085 15.5377 26.0085 16.0441C26.0085 16.1032 26.0001 16.1878 25.9579 16.2046C25.5106 16.4916 25.0548 16.7617 24.5821 17.0571V13.2925H24.5905Z" fill="#0671B8"/>
</svg>
