<svg width="32" height="32" viewBox="0 0 32 32" fill="none" xmlns="http://www.w3.org/2000/svg">
<path d="M17.5722 11.7235H17.9117C17.9117 11.684 17.9117 11.6365 17.9117 11.5971C17.9196 11.376 18.0775 11.2023 18.2986 11.1944C18.7013 11.1865 19.1039 11.1944 19.5065 11.1944C19.5065 11.1944 19.5223 11.1944 19.5302 11.2102V11.7314H20.5093C20.5093 11.5577 20.5093 11.3839 20.5093 11.2023C20.5487 11.2023 20.5803 11.2023 20.6119 11.2023C20.9672 11.2023 21.3146 11.2023 21.6699 11.2023C21.9541 11.2023 22.12 11.3681 22.12 11.6524C22.12 11.684 22.12 11.7077 22.12 11.7393H23.3122C23.3122 11.7393 23.328 11.7235 23.328 11.7156C23.3201 11.4393 23.3438 11.1471 23.2885 10.8786C23.1543 10.2075 22.5621 9.68651 21.8673 9.59966C21.6383 9.56808 21.4015 9.57595 21.1726 9.56805C21.0541 9.56805 20.9356 9.56805 20.8093 9.56805C20.8093 9.42593 20.8093 9.28379 20.8093 9.14957C20.8093 9.12588 20.833 9.10213 20.8567 9.08634C21.4173 8.59682 21.7173 7.98109 21.741 7.23102C21.741 7.22312 21.741 7.20729 21.741 7.1915C21.7726 7.1915 21.7963 7.19149 21.8279 7.1836C21.9542 7.16781 22.0568 7.11254 22.12 6.99411C22.1831 6.86778 22.1199 6.75729 22.0726 6.64676C22.0726 6.63097 22.0173 6.62305 21.9857 6.62305C21.7804 6.62305 21.5673 6.62305 21.362 6.62305C20.2409 6.62305 19.1197 6.62305 17.9986 6.62305C17.9354 6.62305 17.8406 6.62307 17.8248 6.64676C17.7853 6.7415 17.7538 6.85195 17.7617 6.9546C17.7774 7.09671 17.9038 7.15991 18.038 7.1836C18.0696 7.1836 18.109 7.1836 18.1485 7.1915C18.1643 7.32572 18.1723 7.45996 18.1959 7.60208C18.2986 8.19424 18.5749 8.67576 19.0249 9.07053C19.0565 9.10212 19.0881 9.15752 19.0881 9.20489C19.096 9.32332 19.0881 9.44172 19.0881 9.56805C18.8513 9.56805 18.6302 9.56016 18.4091 9.56805C18.196 9.58384 17.9669 9.59164 17.7696 9.6627C17.1221 9.87587 16.7037 10.3101 16.5931 10.997C16.5537 11.2339 16.5931 11.4788 16.5931 11.7393H17.5564L17.5722 11.7235ZM20.1698 11.6287C20.0672 11.5339 19.9724 11.5418 19.8698 11.6287V11.1944H20.1698V11.6208V11.6287ZM19.4513 9.32324C19.7908 9.48905 20.1303 9.49694 20.5014 9.31534C20.4856 9.52852 20.4935 9.718 20.4461 9.8917C20.3909 10.1049 20.1461 10.2155 19.8777 10.1839C19.6487 10.1602 19.475 9.99442 19.4513 9.78124C19.4355 9.63123 19.4513 9.48905 19.4513 9.32324Z" fill="#0671B8"/>
<path d="M19.4513 9.32333C19.7908 9.48914 20.1303 9.49703 20.5014 9.31543C20.4856 9.52861 20.4935 9.71808 20.4461 9.89179C20.3909 10.105 20.1461 10.2156 19.8777 10.184C19.6487 10.1603 19.475 9.99451 19.4513 9.78133C19.4355 9.63132 19.4513 9.48914 19.4513 9.32333Z" fill="white"/>
<path d="M20.1698 11.6291C20.0672 11.5344 19.9724 11.5423 19.8698 11.6291V11.1948H20.1698V11.6212V11.6291Z" fill="white"/>
<path d="M21.9621 6.27572H17.9827L17.9669 6.25992C17.9669 5.92041 17.9275 5.58107 18.0143 5.24946C18.1328 4.80731 18.3853 4.49139 18.8354 4.34927C19.1038 4.26242 19.3644 4.15988 19.6249 4.06514C19.8539 3.97829 20.075 3.97829 20.3039 4.06514C20.5645 4.15988 20.8329 4.26242 21.0935 4.34927C21.6225 4.52297 21.8831 4.90994 21.9542 5.43104C21.9936 5.71528 21.9542 5.9994 21.9542 6.29153L21.9621 6.27572ZM19.9645 5.5494C20.0277 5.5494 20.0987 5.5494 20.1619 5.5494C20.2566 5.5415 20.3197 5.46256 20.3118 5.36782C20.3118 5.28097 20.2408 5.21785 20.1461 5.21785C20.0355 5.21785 19.9171 5.21785 19.8065 5.21785C19.7039 5.21785 19.6407 5.28097 19.6328 5.37572C19.6328 5.47047 19.6882 5.5415 19.7908 5.5494C19.8461 5.5494 19.9092 5.5494 19.9645 5.5494Z" fill="#0671B8"/>
<path d="M19.9645 5.54151C19.9093 5.54151 19.8461 5.54151 19.7908 5.54151C19.6882 5.53361 19.6329 5.46258 19.6329 5.36783C19.6329 5.27309 19.7039 5.20996 19.8066 5.20996C19.9171 5.20996 20.0356 5.20996 20.1461 5.20996C20.2408 5.20996 20.304 5.27308 20.3119 5.35993C20.3119 5.45468 20.2567 5.52572 20.1619 5.54151C20.0987 5.54151 20.0277 5.54151 19.9645 5.54151Z" fill="white"/>
<path d="M5 20.038C5 20.038 5.02542 20.021 5.03388 20.0125C5.60926 18.6587 6.19312 17.3133 6.74311 15.951C6.98003 15.3672 7.37771 15.1133 8.00386 15.1218C9.37462 15.1387 10.7538 15.1218 12.1246 15.1218C12.2007 15.1218 12.2769 15.1218 12.3615 15.1218C12.3615 18.7687 12.3615 22.3818 12.3615 26.0033H11.5661C11.5407 25.2587 11.2869 24.6156 10.7538 24.0995C10.2292 23.5833 9.58615 23.3209 8.84154 23.3209C8.21539 23.3209 7.65696 23.5239 7.17466 23.9132C6.52312 24.4462 6.20153 25.1487 6.16769 25.9779C5.41462 26.0795 5.21154 25.944 5 25.4956C5 23.6679 5 21.8487 5 20.021V20.038ZM10.8215 19.9278C11.2192 19.9278 11.3715 19.7756 11.3715 19.3864C11.3715 18.5995 11.3715 17.8125 11.3715 17.0256C11.3715 16.6449 11.2107 16.4842 10.83 16.4842C10.0177 16.4842 9.19689 16.4842 8.38459 16.4842C8.11382 16.4842 7.94468 16.5941 7.84315 16.8395C7.47084 17.7364 7.09 18.6248 6.70923 19.5132C6.58231 19.8094 6.65852 19.9194 6.98006 19.9278C7.62313 19.9278 8.27459 19.9278 8.91767 19.9278C9.55228 19.9278 10.1869 19.9278 10.813 19.9278H10.8215Z" fill="#0671B8"/>
<path d="M26.8983 18.8784C22.2868 18.8784 17.7007 18.8784 13.0977 18.8784C13.0977 21.2561 13.0977 23.6254 13.0977 26.0031C15.0184 26.0031 16.9307 26.0031 18.8684 26.0031C18.9107 25.14 19.2407 24.4208 19.926 23.8877C20.4253 23.4985 21.0007 23.3122 21.6268 23.3292C22.3545 23.3461 22.9722 23.6253 23.4799 24.133C23.9284 24.5814 24.0722 24.9283 24.2837 26.0283C24.5037 26.0283 24.7322 26.0283 24.9522 26.0283C25.2738 26.0283 25.6038 26.0283 25.9253 26.0283C26.543 26.0199 26.8898 25.6646 26.8898 25.0469C26.8898 23.0669 26.8898 21.0869 26.8898 19.1069C26.8898 19.0392 26.8898 18.963 26.8898 18.8784H26.8983Z" fill="#0671B8"/>
<path d="M26.8898 16.9407C26.8898 15.6461 26.8898 14.3771 26.8898 13.1079C26.8898 12.7017 26.543 12.3631 26.1368 12.3123C26.0438 12.3039 25.9422 12.2954 25.8491 12.2954C21.9399 12.2954 18.0307 12.2954 14.13 12.2954C13.8846 12.2954 13.6477 12.321 13.4446 12.4817C13.2246 12.6594 13.0977 12.8877 13.0977 13.167C13.0977 14.4023 13.0977 15.6378 13.0977 16.8732C13.0977 16.8901 13.1062 16.9154 13.1146 16.9407C17.7007 16.9407 22.2953 16.9407 26.9068 16.9407H26.8898Z" fill="#FFB422"/>
<path d="M19.5792 26.0285C19.5707 24.937 20.4676 24.0402 21.5676 24.0317C22.6676 24.0317 23.556 24.9201 23.5475 26.0285C23.5475 27.1201 22.6591 28.0001 21.5676 28.0001C20.4761 28.0001 19.5876 27.1201 19.5792 26.0285ZM21.5845 27.0102C22.1176 27.0102 22.566 26.5533 22.566 26.0203C22.566 25.4703 22.1176 25.0217 21.5676 25.0301C21.0176 25.0301 20.5776 25.4785 20.586 26.037C20.586 26.587 21.043 27.0271 21.593 27.0187L21.5845 27.0102Z" fill="#0671B8"/>
<path d="M8.85848 24.04C9.95847 24.04 10.8554 24.9286 10.8554 26.0201C10.8554 27.1116 9.96695 27.9915 8.87542 27.9999C7.77543 27.9999 6.88699 27.1201 6.88699 26.0201C6.88699 24.9201 7.75849 24.0485 8.85848 24.04ZM8.85848 25.03C8.30848 25.03 7.85999 25.4868 7.86845 26.0368C7.86845 26.5784 8.31694 27.0185 8.85848 27.0185C9.40847 27.0185 9.85698 26.5784 9.85698 26.0284C9.85698 25.4784 9.40847 25.03 8.85848 25.0384V25.03Z" fill="#0671B8"/>
</svg>
