<svg width="32" height="32" viewBox="0 0 32 32" fill="none" xmlns="http://www.w3.org/2000/svg">
<path d="M4 15.4974C4 15.4974 4.02645 15.4797 4.03527 15.4709C4.66175 13.9885 5.29704 12.515 5.91469 11.0238C6.1794 10.3885 6.61175 10.1061 7.29116 10.1149C8.79998 10.1326 10.3088 10.1149 11.8088 10.1149C11.897 10.1149 11.9764 10.1149 12.0647 10.1149V22.0444H11.1911C11.1558 21.2326 10.8823 20.5266 10.3 19.9531C9.7176 19.3884 9.02055 19.0972 8.20879 19.1061C7.52055 19.1061 6.91172 19.3266 6.38231 19.759C5.6676 20.3414 5.31466 21.1091 5.27937 22.0179C4.44996 22.1326 4.22941 21.9825 4 21.4972C4 19.4943 4 17.5003 4 15.4974ZM10.3794 15.3737C10.8117 15.3737 10.9794 15.2061 10.9794 14.7738C10.9794 13.9091 10.9794 13.0444 10.9794 12.1886C10.9794 11.7739 10.8029 11.5972 10.3882 11.5972C9.49705 11.5972 8.59701 11.5972 7.70584 11.5972C7.41466 11.5972 7.22055 11.7121 7.10584 11.9945C6.69996 12.9739 6.27646 13.9531 5.86175 14.9326C5.72057 15.259 5.80878 15.3826 6.16172 15.3826C6.8676 15.3826 7.58234 15.3826 8.28822 15.3826C8.98528 15.3826 9.6735 15.3826 10.3706 15.3826L10.3794 15.3737Z" fill="#0671B8"/>
<path d="M28 14.2266C22.9441 14.2266 17.9147 14.2266 12.8765 14.2266C12.8765 16.8383 12.8765 19.4237 12.8765 22.0443C14.9765 22.0443 17.0764 22.0443 19.2029 22.0443C19.247 21.1002 19.6088 20.315 20.3676 19.7238C20.9147 19.3003 21.5412 19.0972 22.2382 19.106C23.0323 19.1236 23.7117 19.4236 24.2676 19.9884C24.7617 20.4825 24.9205 20.862 25.1411 22.062C25.3794 22.062 25.6264 22.062 25.8735 22.062C26.2264 22.062 26.5793 22.062 26.9411 22.062C27.6205 22.0531 28 21.6649 28 20.9855C28 18.8149 28 16.6442 28 14.4736C28 14.3942 28 14.3148 28 14.2266Z" fill="#0671B8"/>
<path d="M27.9912 12.1C27.9912 10.6794 28 9.2853 27.9912 7.89118C27.9912 7.44118 27.6117 7.07943 27.1617 7.01766C27.0558 7.00884 26.9499 7 26.8441 7C22.5647 7 18.2764 7 13.997 7C13.7235 7 13.4676 7.02645 13.2382 7.20292C12.9911 7.39704 12.8588 7.64419 12.8588 7.95301C12.8588 9.31183 12.8588 10.6617 12.8588 12.0205C12.8588 12.047 12.8676 12.0647 12.8765 12.1C17.9059 12.1 22.9353 12.1 27.9912 12.1Z" fill="#FFB422"/>
<path d="M19.9795 22.0618C19.9706 20.8618 20.95 19.8824 22.1588 19.8735C23.3677 19.8735 24.3383 20.8441 24.3295 22.0618C24.3295 23.2618 23.3588 24.2235 22.1588 24.2235C20.9588 24.2235 19.9883 23.2618 19.9795 22.0618ZM22.1765 23.1382C22.7677 23.1382 23.253 22.6353 23.253 22.0529C23.253 21.4529 22.7588 20.9588 22.1588 20.9676C21.5588 20.9676 21.0736 21.4618 21.0824 22.0706C21.0824 22.6706 21.5765 23.1559 22.1853 23.147L22.1765 23.1382Z" fill="#0671B8"/>
<path d="M8.22644 19.8735C9.42644 19.8735 10.4147 20.8441 10.4147 22.0441C10.4147 23.2353 9.44411 24.2058 8.24411 24.2146C7.03528 24.2146 6.06467 23.2529 6.06467 22.0441C6.06467 20.8441 7.02644 19.8824 8.22644 19.8735ZM8.22644 20.9588C7.62644 20.9588 7.13234 21.4618 7.14116 22.0618C7.14116 22.6529 7.63527 23.1382 8.22644 23.1382C8.82644 23.1382 9.32055 22.6529 9.32055 22.0529C9.32055 21.4529 8.83526 20.9588 8.22644 20.9676V20.9588Z" fill="#0671B8"/>
</svg>
