<svg width="32" height="32" viewBox="0 0 32 32" fill="none" xmlns="http://www.w3.org/2000/svg">
<path d="M6 11.207C6.67694 11.597 7.35389 11.9796 8.02348 12.377C8.0897 12.4138 8.15594 12.5094 8.15594 12.5756C8.1633 13.3262 8.15594 14.0767 8.15594 14.8346C8.15594 14.8566 8.14858 14.8713 8.13386 14.9155C8.06028 14.8787 8.0014 14.8493 7.93518 14.8125C7.28767 14.4446 6.64015 14.0767 6 13.7088C6 12.8773 6 12.0385 6 11.207Z" fill="#FFB422"/>
<path d="M12.1146 20.3678C12.1146 18.8962 12.1146 17.432 12.1146 15.9603C12.1146 15.2466 12.5341 14.8272 13.2478 14.8198C15.4184 14.8198 17.5964 14.8198 19.7671 14.8198C20.4661 14.8198 20.8929 15.2466 20.8929 15.9456C20.8929 18.8889 20.8929 21.8394 20.8929 24.7827C20.8929 25.4891 20.4735 25.9011 19.7671 25.9011C17.5891 25.9011 15.4037 25.9011 13.2257 25.9011C12.5193 25.9011 12.1073 25.4817 12.1073 24.7753C12.1073 23.3037 12.1073 21.8394 12.1073 20.3678H12.1146ZM16.5074 16.0854C15.5067 16.0854 14.5134 16.0854 13.5127 16.0854C13.1889 16.0854 13.0786 16.1958 13.0712 16.5122C13.0712 16.9905 13.0712 17.4687 13.0712 17.947C13.0712 18.2781 13.1816 18.3885 13.52 18.3885C15.5067 18.3885 17.5008 18.3885 19.4875 18.3885C19.8112 18.3885 19.9216 18.2781 19.929 17.9617C19.929 17.4835 19.929 17.0052 19.929 16.5269C19.929 16.1958 19.8186 16.0928 19.4801 16.0928C18.4868 16.0928 17.5008 16.0928 16.5074 16.0928V16.0854ZM16.5074 19.9779C16.3308 19.9779 16.1542 19.9779 15.9776 19.9779C15.7863 19.9852 15.6612 20.1177 15.6539 20.3016C15.6465 20.4782 15.7643 20.6548 15.9409 20.6622C16.3161 20.6769 16.6914 20.6769 17.0666 20.6622C17.2432 20.6548 17.3683 20.4782 17.3536 20.3016C17.3389 20.1177 17.2138 19.9852 17.0225 19.9779C16.8533 19.9779 16.684 19.9779 16.5148 19.9779H16.5074ZM16.5074 22.8107C16.6693 22.8107 16.8312 22.8107 17.0004 22.8107C17.2212 22.8034 17.361 22.6488 17.3536 22.4428C17.3463 22.2442 17.2065 22.1191 16.9857 22.1117C16.662 22.1117 16.3455 22.1117 16.0218 22.1117C15.7937 22.1117 15.6465 22.2442 15.6465 22.4502C15.6465 22.6562 15.7863 22.796 16.0144 22.8107C16.1763 22.8107 16.3382 22.8107 16.5074 22.8107ZM16.5222 24.2456C16.3456 24.2456 16.169 24.2456 15.9924 24.2456C15.8011 24.2456 15.676 24.3706 15.6539 24.562C15.6392 24.7385 15.7569 24.9225 15.9335 24.9299C16.3161 24.9446 16.6987 24.9446 17.074 24.9299C17.2506 24.9225 17.3683 24.7385 17.3463 24.562C17.3315 24.3854 17.2065 24.2603 17.0299 24.2529C16.8606 24.2455 16.6914 24.2529 16.5222 24.2529V24.2456ZM13.9321 24.2456C13.7629 24.2456 13.5936 24.2456 13.4244 24.2456C13.2184 24.2456 13.0933 24.378 13.0786 24.5693C13.0712 24.768 13.1889 24.9298 13.3876 24.9372C13.7481 24.9519 14.1087 24.9519 14.4692 24.9372C14.6606 24.9298 14.7856 24.7532 14.7783 24.5693C14.7636 24.3853 14.6385 24.2529 14.4472 24.2456C14.2779 24.2456 14.1087 24.2456 13.9395 24.2456H13.9321ZM13.91 20.6769C14.0719 20.6769 14.2338 20.6769 14.403 20.6769C14.4177 20.6769 14.4325 20.6769 14.4472 20.6769C14.6532 20.6548 14.7856 20.5003 14.7783 20.309C14.7709 20.1177 14.6385 19.9852 14.4325 19.9852C14.1013 19.9852 13.7629 19.9852 13.4317 19.9852C13.2257 19.9852 13.0933 20.1103 13.0859 20.309C13.0786 20.515 13.1963 20.6695 13.4097 20.6842C13.5789 20.6989 13.7481 20.6842 13.9174 20.6842L13.91 20.6769ZM19.0754 19.9779C18.9062 19.9779 18.7369 19.9779 18.5677 19.9779C18.3617 19.9779 18.2366 20.1103 18.2219 20.309C18.2145 20.4929 18.3396 20.6622 18.5383 20.6695C18.8988 20.6842 19.2594 20.6842 19.6199 20.6695C19.8112 20.6622 19.9289 20.4929 19.9142 20.3016C19.8995 20.1103 19.7818 19.9926 19.5831 19.9852C19.4139 19.9852 19.2446 19.9852 19.0754 19.9852V19.9779ZM13.9395 22.1117C13.7629 22.1117 13.5863 22.1117 13.4097 22.1117C13.211 22.1117 13.0933 22.2368 13.0786 22.4281C13.0638 22.6194 13.1742 22.7887 13.3582 22.796C13.7408 22.8107 14.1234 22.8107 14.4987 22.796C14.6753 22.7887 14.793 22.6047 14.7709 22.4207C14.7562 22.2442 14.6311 22.1191 14.4545 22.1117C14.2853 22.1117 14.1161 22.1117 13.9468 22.1117H13.9395ZM19.0754 22.1117C18.9209 22.1117 18.759 22.1117 18.6045 22.1117C18.5898 22.1117 18.5751 22.1117 18.5603 22.1117C18.369 22.1264 18.2366 22.2442 18.2219 22.4281C18.2072 22.6047 18.3249 22.7887 18.5015 22.796C18.8841 22.8107 19.2667 22.8107 19.642 22.796C19.8259 22.7887 19.9289 22.6121 19.9142 22.4281C19.8995 22.2368 19.7818 22.1191 19.5831 22.1117C19.4139 22.1117 19.2446 22.1117 19.0754 22.1117ZM19.0754 24.2456C18.9209 24.2456 18.759 24.2456 18.6045 24.2456C18.5898 24.2456 18.5751 24.2456 18.5603 24.2456C18.369 24.2603 18.2366 24.378 18.2219 24.562C18.2072 24.7385 18.3249 24.9225 18.5015 24.9299C18.8841 24.9446 19.2667 24.9446 19.642 24.9299C19.8259 24.9225 19.9289 24.7459 19.9142 24.562C19.8995 24.378 19.7818 24.2603 19.5978 24.2529C19.4212 24.2455 19.2446 24.2529 19.068 24.2529L19.0754 24.2456Z" fill="#0671B8"/>
<path d="M24.8441 14.9375C24.8441 14.7314 24.8441 14.5769 24.8441 14.4224C24.8441 13.819 24.8441 13.223 24.8441 12.6197C24.8441 12.5387 24.8883 12.4284 24.9545 12.3916C25.602 12.0016 26.2642 11.6263 26.9191 11.2511C26.9338 11.2437 26.9559 11.2437 27 11.229C27 11.4645 27 11.6852 27 11.9059C27 12.4504 27 12.9949 27 13.5468C27 13.613 26.9706 13.7087 26.9264 13.7381C26.2495 14.1355 25.5726 14.5254 24.8441 14.9448V14.9375Z" fill="#FFB422"/>
<path d="M26.6467 10.6037C25.9404 11.0084 25.2708 11.3983 24.5938 11.781C24.5423 11.8104 24.454 11.8104 24.4099 11.781C23.7256 11.3983 23.0486 11.001 22.3496 10.5963C22.4232 10.5448 22.4821 10.508 22.5336 10.4786C23.1296 10.1327 23.7256 9.79425 24.3216 9.44107C24.4393 9.37484 24.5276 9.36013 24.6527 9.44107C25.2413 9.7869 25.83 10.1254 26.426 10.4712C26.4922 10.508 26.5511 10.5448 26.6467 10.6037Z" fill="#FFB422"/>
<path d="M18.6559 6.20355C18.0599 6.54938 17.4859 6.85107 16.9488 7.20426C16.625 7.41765 16.3896 7.425 16.0585 7.20426C15.5213 6.85107 14.9401 6.54939 14.3588 6.21091C14.4176 6.16677 14.4544 6.13733 14.4986 6.11526C15.1166 5.75471 15.7347 5.39417 16.3602 5.04098C16.4264 5.00419 16.5368 4.98212 16.5956 5.01891C17.2726 5.40153 17.9422 5.7915 18.6559 6.20355Z" fill="#FFB422"/>
<path d="M10.665 10.5963C9.95131 11.0083 9.27438 11.3983 8.59008 11.7883C8.54593 11.8177 8.45763 11.8104 8.40613 11.7809C7.72918 11.3983 7.05958 11.0083 6.36792 10.6036C6.41943 10.5668 6.46358 10.5301 6.50773 10.508C7.12581 10.1474 7.74388 9.78689 8.36932 9.4337C8.42819 9.39691 8.53121 9.37483 8.58271 9.40426C9.26702 9.78688 9.94397 10.1842 10.6577 10.5963H10.665Z" fill="#FFB422"/>
<path d="M19.0091 6.83643C19.0091 7.1749 19.0091 7.49865 19.0091 7.82241C19.0091 8.26389 19.0091 8.71273 19.0091 9.15422C19.0091 9.22044 18.965 9.31609 18.9135 9.35288C18.2586 9.7355 17.6037 10.1181 16.9488 10.4934C16.9341 10.5008 16.9121 10.4934 16.8826 10.5007C16.8826 10.4566 16.8679 10.4198 16.8679 10.383C16.8679 9.65456 16.8679 8.91876 16.8679 8.19031C16.8679 8.12409 16.9194 8.02843 16.9709 7.99899C17.6258 7.61637 18.2807 7.23376 18.9355 6.8585C18.9503 6.85114 18.9723 6.85114 19.0165 6.83643H19.0091Z" fill="#FFB422"/>
<path d="M8.86235 14.9229C8.86235 14.3489 8.86235 13.8118 8.86235 13.2673C8.86235 13.0318 8.86235 12.8037 8.86235 12.5683C8.86235 12.5094 8.89178 12.4285 8.93593 12.399C9.61288 12.0017 10.2898 11.6117 10.9962 11.207C10.9962 11.3027 11.0109 11.3615 11.0109 11.4278C11.0109 12.1194 11.0109 12.8037 11.0109 13.4954C11.0109 13.6352 10.9741 13.7161 10.849 13.7824C10.253 14.1135 9.66438 14.4593 9.07574 14.7978C9.01687 14.8346 8.95799 14.8566 8.85498 14.9082L8.86235 14.9229Z" fill="#FFB422"/>
<path d="M16.1248 10.5229C15.5656 10.1991 15.0432 9.86068 14.4839 9.59579C14.0792 9.40448 13.9542 9.1543 13.9836 8.71281C14.0277 8.09473 13.991 7.46929 13.991 6.82178C14.0645 6.85121 14.116 6.8733 14.1675 6.90273C14.7783 7.25592 15.389 7.60175 15.9924 7.96229C16.0586 8.00644 16.1395 8.1021 16.1395 8.16832C16.1469 8.91885 16.1395 9.66938 16.1395 10.4273C16.1395 10.4493 16.1322 10.464 16.1174 10.5229H16.1248Z" fill="#FFB422"/>
<path d="M24.1451 14.9302C23.9979 14.8492 23.8876 14.783 23.7772 14.7241C23.2253 14.4077 22.6808 14.0913 22.129 13.7676C22.0701 13.7308 22.0039 13.6499 22.0039 13.591C21.9965 12.8257 22.0039 12.0605 22.0039 11.2953C22.0039 11.2805 22.0112 11.2585 22.026 11.2217C22.2025 11.3247 22.3718 11.4203 22.541 11.516C23.034 11.7956 23.527 12.0752 24.0126 12.3695C24.0715 12.4063 24.1451 12.4873 24.1451 12.5461C24.1524 13.3261 24.1451 14.0987 24.1451 14.9302Z" fill="#FFB422"/>
<path d="M8.86231 17.6821C8.68572 18.2192 9.00947 18.6607 9.48039 19.0654C9.85565 19.3818 10.1794 19.7571 10.5252 20.1029C10.7166 20.2942 10.7313 20.5076 10.5694 20.6548C10.4149 20.8019 10.2236 20.7872 10.0322 20.5959C9.45831 20.0293 8.88438 19.4628 8.32516 18.8815C8.23686 18.7858 8.17064 18.6313 8.16328 18.5062C8.14857 17.9543 8.15592 17.4025 8.16328 16.8433C8.16328 16.5784 8.28839 16.4239 8.50177 16.4165C8.71515 16.4165 8.86231 16.571 8.86231 16.8433C8.86231 17.0787 8.86231 17.3215 8.86231 17.6747V17.6821Z" fill="#0671B8"/>
<path d="M24.8441 17.6819C24.8441 17.9542 24.8588 18.2264 24.8441 18.4987C24.8294 18.6311 24.7779 18.7856 24.6896 18.8739C24.123 19.4552 23.5417 20.0292 22.9677 20.6031C22.7838 20.7871 22.5778 20.7944 22.4306 20.6399C22.2908 20.4927 22.2982 20.2867 22.4748 20.1175C22.9089 19.676 23.343 19.2198 23.7992 18.8004C24.0641 18.5575 24.1966 18.3 24.1598 17.9321C24.1303 17.5863 24.1524 17.2331 24.1598 16.8873C24.1598 16.8284 24.1598 16.7622 24.1745 16.7033C24.2113 16.5267 24.3511 16.409 24.5203 16.4163C24.6969 16.4163 24.8441 16.5488 24.8514 16.7401C24.8661 17.0565 24.8514 17.3655 24.8514 17.6819H24.8441Z" fill="#0671B8"/>
<path d="M16.8532 12.4507C16.8532 12.664 16.8532 12.8701 16.8532 13.0834C16.8458 13.3263 16.706 13.4734 16.4926 13.4661C16.294 13.4661 16.1542 13.3189 16.1542 13.0834C16.1542 12.6493 16.1542 12.2152 16.1542 11.7737C16.1542 11.5382 16.294 11.3984 16.5 11.3984C16.706 11.3984 16.8385 11.5309 16.8532 11.7663C16.8532 11.7811 16.8532 11.7958 16.8532 11.8105C16.8532 12.0239 16.8532 12.2299 16.8532 12.4433V12.4507Z" fill="#0671B8"/>
</svg>
