<svg width="32" height="32" viewBox="0 0 32 32" fill="none" xmlns="http://www.w3.org/2000/svg">
<path d="M6 13.7782C6.13897 13.4848 6.37059 13.3999 6.68713 13.3999C11.3967 13.3999 16.0985 13.3999 20.8081 13.3999C21.3331 13.3999 21.4952 13.562 21.4952 14.0948C21.4952 17.9782 21.4952 21.8617 21.4952 25.7451V25.9844H17.3647V25.7142C17.3647 23.5988 17.3647 21.4911 17.3647 19.3756C17.3647 19.2984 17.3647 19.2212 17.3647 19.1517C17.3338 18.8429 17.1408 18.6499 16.832 18.6499C14.7783 18.6499 12.7323 18.6499 10.6787 18.6499C10.3621 18.6499 10.1614 18.8429 10.1382 19.1672C10.1382 19.2444 10.1382 19.3139 10.1382 19.3911C10.1382 21.4988 10.1382 23.5988 10.1382 25.7065V25.9999C10.0533 25.9999 9.98382 25.9999 9.90661 25.9999C8.84117 25.9999 7.78346 25.9922 6.71802 25.9999C6.40148 25.9999 6.15442 25.9227 6.00773 25.6216V13.7705L6 13.7782Z" fill="#0671B8"/>
<path d="M14.6702 5C15.0254 5.23934 15.0949 5.43235 14.9945 5.8647C14.9173 6.1658 14.7474 6.39743 14.4849 6.55184C14.2842 6.66765 14.0603 6.7603 13.8441 6.8375C13.6357 6.90699 13.4812 6.99192 13.4581 7.25442C13.4349 7.49376 13.1647 7.64816 12.9254 7.62499C12.6706 7.60183 12.4698 7.38565 12.4621 7.11543C12.4544 6.62904 12.6629 6.25845 13.0875 6.03456C13.3037 5.91875 13.5276 5.84155 13.7592 5.75663C13.9136 5.70258 14.014 5.6331 14.0217 5.44781C14.0371 5.21619 14.207 5.10038 14.3923 5.00773H14.6779L14.6702 5Z" fill="#0671B8"/>
<path d="M10.2772 5C10.6555 5.23934 10.7404 5.50183 10.5783 5.95735C10.4547 6.31249 10.2 6.52869 9.86799 6.67538C9.68269 6.7603 9.48967 6.82207 9.30437 6.89155C9.18084 6.93788 9.10364 6.99963 9.0882 7.14632C9.0496 7.46287 8.79482 7.65589 8.51688 7.61729C8.23122 7.57869 8.04593 7.33163 8.06909 7.01508C8.09997 6.49781 8.3779 6.15808 8.83342 5.95735C9.02643 5.87242 9.24261 5.81066 9.43562 5.72574C9.50511 5.69485 9.60548 5.61765 9.60548 5.55588C9.62092 5.28566 9.76761 5.11582 9.99151 5.00773H10.2772V5Z" fill="#0671B8"/>
<path d="M19.0324 5C19.4107 5.20074 19.5034 5.4478 19.3799 5.90332C19.2718 6.28935 19.0015 6.52097 18.6541 6.67538C18.4688 6.7603 18.2758 6.82207 18.0905 6.89155C17.9593 6.93788 17.8821 7.00735 17.8666 7.16948C17.8357 7.46286 17.5964 7.65588 17.3262 7.63272C17.056 7.60956 16.8552 7.38565 16.8552 7.09227C16.8552 6.60588 17.0714 6.25073 17.4883 6.03456C17.7122 5.91875 17.9593 5.84154 18.1986 5.7489C18.3221 5.70257 18.3993 5.64081 18.4071 5.4864C18.4225 5.23934 18.5924 5.1081 18.7931 5.00773H19.0324V5Z" fill="#0671B8"/>
<path d="M22.5452 16.5653C22.6147 16.5653 22.6842 16.5576 22.7459 16.5576C23.8345 16.5576 24.9231 16.5576 26.0117 16.5576C26.475 16.5576 26.6525 16.7429 26.6525 17.2139C26.6525 19.9238 26.6525 22.6414 26.6525 25.3514C26.6525 25.8146 26.4673 25.9999 26.0195 25.9999C24.9231 25.9999 23.8268 25.9999 22.7305 25.9999C22.6687 25.9999 22.6147 25.9999 22.5375 25.9999V16.5653H22.5452ZM24.5912 20.7499C24.4136 20.7499 24.2437 20.7499 24.0662 20.7499C23.7805 20.7653 23.5643 20.9815 23.5566 21.2595C23.5489 21.522 23.7419 21.769 24.0198 21.7844C24.3981 21.8076 24.7842 21.8076 25.1625 21.7844C25.4559 21.769 25.6334 21.522 25.6103 21.2363C25.5948 20.9661 25.3864 20.7653 25.1084 20.7499C24.9309 20.7499 24.761 20.7499 24.5834 20.7499H24.5912ZM24.5834 19.6922C24.7687 19.6922 24.9617 19.6999 25.147 19.6922C25.4327 19.6767 25.6257 19.4528 25.6257 19.1595C25.6257 18.8815 25.4173 18.6653 25.147 18.6576C24.7842 18.6499 24.4213 18.6499 24.0584 18.6576C23.7805 18.6576 23.5643 18.9047 23.5643 19.1749C23.5643 19.4451 23.7728 19.669 24.043 19.6845C24.2206 19.6999 24.4059 19.6845 24.5834 19.6845V19.6922Z" fill="#0671B8"/>
<path d="M11.1727 19.7075H16.3146V25.9843H11.1727V19.7075Z" fill="#0671B8"/>
<path d="M15.033 12.3343H12.4543C12.4543 12.1413 12.4543 11.956 12.4543 11.7784C12.4543 11.1222 12.4543 10.4659 12.4543 9.80968C12.4543 9.56262 12.5393 9.37732 12.7477 9.24607C13.2264 8.92953 13.6974 8.60526 14.176 8.281C14.3613 8.14975 14.5543 8.10343 14.7628 8.21151C14.979 8.32732 15.0485 8.52033 15.0485 8.75967C15.0485 9.89459 15.0485 11.0295 15.0485 12.1644V12.342L15.033 12.3343Z" fill="#FFB422"/>
<path d="M19.4261 12.342H16.8629C16.8629 12.2957 16.8474 12.2494 16.8474 12.203C16.8474 11.3924 16.8474 10.574 16.8474 9.76333C16.8474 9.53943 16.9401 9.3773 17.1254 9.25377C17.604 8.93723 18.075 8.61296 18.5459 8.2887C18.739 8.15745 18.932 8.09568 19.1481 8.21149C19.3643 8.32729 19.4261 8.5203 19.4261 8.75964C19.4261 9.89457 19.4261 11.0295 19.4261 12.1567V12.3343V12.342Z" fill="#FFB422"/>
<path d="M8.0614 12.3266C8.0614 12.2108 8.0614 12.1027 8.0614 11.9946C8.0614 11.2689 8.0614 10.5431 8.0614 9.82511C8.0614 9.56261 8.15406 9.36961 8.37023 9.23064C8.84119 8.92181 9.31214 8.59754 9.77537 8.281C9.96067 8.14975 10.1537 8.10343 10.3621 8.21151C10.5783 8.32732 10.6401 8.52033 10.6401 8.75967C10.6401 9.89459 10.6401 11.0295 10.6401 12.1567C10.6401 12.2108 10.6401 12.2648 10.6401 12.3343H8.0614V12.3266Z" fill="#FFB422"/>
</svg>
