<svg width="32" height="32" viewBox="0 0 32 32" fill="none" xmlns="http://www.w3.org/2000/svg">
<path d="M17.4424 26.0001C17.0247 25.8425 16.7017 25.5982 16.6071 25.1333C16.5835 25.0309 16.5834 24.9206 16.5834 24.8181C16.5834 22.4699 16.5834 20.1138 16.5834 17.7656C16.5834 17.0327 17.0326 16.5836 17.7654 16.5836C20.0506 16.5836 22.3358 16.5993 24.6131 16.5757C25.2908 16.5757 25.7636 16.7884 25.9921 17.4425V25.1333C25.8502 25.5588 25.5587 25.8504 25.1332 25.9922H17.4424V26.0001ZM20.2003 19.1288C20.2003 18.8924 20.2003 18.6639 20.2003 18.4275C20.2003 18.1753 20.0585 18.0414 19.8063 18.0335C19.3493 18.0335 18.8844 18.0335 18.4274 18.0335C18.1752 18.0335 18.0412 18.1753 18.0334 18.4275C18.0334 18.8845 18.0334 19.3494 18.0334 19.8065C18.0334 20.0586 18.1752 20.1926 18.4274 20.2005C18.8844 20.2005 19.3493 20.2005 19.8063 20.2005C20.0585 20.2005 20.1925 20.0586 20.2003 19.8065C20.2003 19.5779 20.2003 19.3573 20.2003 19.1288ZM24.5422 19.1288C24.5422 18.8924 24.5422 18.6639 24.5422 18.4275C24.5422 18.1753 24.4004 18.0335 24.1482 18.0335C23.6912 18.0335 23.2263 18.0335 22.7692 18.0335C22.5171 18.0335 22.3752 18.1753 22.3752 18.4275C22.3752 18.8845 22.3752 19.3494 22.3752 19.8065C22.3752 20.0586 22.5171 20.2005 22.7692 20.2005C23.2263 20.2005 23.6912 20.2005 24.1482 20.2005C24.4082 20.2005 24.5422 20.0586 24.5501 19.7828C24.5501 19.5622 24.5501 19.3416 24.5501 19.1288H24.5422ZM18.0255 23.4549C18.0255 23.6755 18.0255 23.8962 18.0255 24.1089C18.0255 24.4084 18.1595 24.5423 18.451 24.5423C18.8923 24.5423 19.3415 24.5423 19.7827 24.5423C20.0585 24.5423 20.1925 24.4005 20.1925 24.1168C20.1925 23.6755 20.1925 23.2264 20.1925 22.7851C20.1925 22.5093 20.0506 22.3753 19.767 22.3753C19.3257 22.3753 18.8765 22.3753 18.4352 22.3753C18.1595 22.3753 18.0255 22.5093 18.0255 22.8009C18.0255 23.0215 18.0255 23.2421 18.0255 23.4549ZM24.5422 23.4549C24.5422 23.2185 24.5422 22.99 24.5422 22.7536C24.5422 22.5093 24.4004 22.3753 24.1561 22.3674C23.6912 22.3674 23.2184 22.3674 22.7534 22.3674C22.5092 22.3674 22.3752 22.5093 22.3673 22.7457C22.3673 23.2106 22.3673 23.6834 22.3673 24.1483C22.3673 24.3926 22.5092 24.5265 22.7456 24.5344C23.2105 24.5344 23.6833 24.5344 24.1482 24.5344C24.3846 24.5344 24.5264 24.3926 24.5343 24.1483C24.5343 23.9119 24.5343 23.6834 24.5343 23.447L24.5422 23.4549ZM20.9253 20.9175C20.7992 20.9175 20.6968 20.9175 20.6022 20.9175C20.358 20.9254 20.2004 21.0751 20.2082 21.2879C20.2082 21.4928 20.3658 21.6346 20.5943 21.6425C20.7756 21.6425 20.9568 21.6425 21.1381 21.6425C21.5399 21.6425 21.6503 21.5322 21.6503 21.1382C21.6503 20.3344 21.6503 19.5228 21.6503 18.719C21.6503 18.6008 21.6503 18.4748 21.6503 18.3566C21.6345 18.1596 21.4769 18.0177 21.2878 18.0256C21.0987 18.0256 20.9489 18.1674 20.9332 18.3644C20.9332 18.4354 20.9332 18.5142 20.9332 18.593C20.9332 19.3573 20.9332 20.1295 20.9332 20.9175H20.9253ZM22.7377 21.28C23.2341 21.28 23.6991 21.28 24.164 21.28C24.3925 21.28 24.5422 21.1224 24.5422 20.9175C24.5422 20.7205 24.3925 20.563 24.1797 20.563C23.5808 20.563 22.9741 20.563 22.3752 20.563C22.1625 20.563 22.0206 20.7048 22.0127 20.9175C22.0048 21.1618 22.0048 21.3982 22.0127 21.6425C22.0127 21.8553 22.1703 22.005 22.3673 22.005C22.5643 22.005 22.7141 21.8631 22.7298 21.6504C22.7298 21.54 22.7298 21.4297 22.7298 21.2879L22.7377 21.28ZM21.6503 23.2815C21.6503 22.9978 21.6503 22.7063 21.6503 22.4226C21.6503 22.1626 21.5005 21.9971 21.2799 22.005C21.0671 22.005 20.9332 22.1704 20.9332 22.4226C20.9332 22.99 20.9332 23.5573 20.9332 24.1168C20.9332 24.3689 21.075 24.5265 21.2799 24.5344C21.5005 24.5344 21.6503 24.3768 21.6503 24.1168C21.6503 23.841 21.6503 23.5573 21.6503 23.2815ZM19.1208 21.28C18.8686 21.28 18.6401 21.28 18.4195 21.28C18.191 21.28 18.0334 21.4297 18.0334 21.6346C18.0334 21.8395 18.1831 21.9971 18.4116 21.9971C18.7662 21.9971 19.1208 21.9971 19.4754 21.9971C19.696 21.9971 19.83 21.8552 19.8457 21.6504C19.8536 21.414 19.8536 21.1697 19.8457 20.9254C19.8379 20.7284 19.6803 20.5945 19.4911 20.5945C19.302 20.5945 19.1523 20.7284 19.1366 20.9254C19.1287 21.0279 19.1366 21.1382 19.1366 21.2721L19.1208 21.28Z" fill="#FFB422"/>
<path d="M15.8585 23.825C15.7403 23.825 15.6615 23.825 15.5748 23.825C12.6987 23.825 9.83037 23.825 6.9542 23.825C6.14256 23.825 5.71704 23.3995 5.71704 22.58C5.71704 18.2617 5.71704 13.9357 5.71704 9.61745C5.71704 9.53865 5.71704 9.45198 5.71704 9.35742H11.5088C11.5088 9.4441 11.5088 9.53076 11.5088 9.60956C11.5088 11.0516 11.5088 12.4936 11.5088 13.9278C11.5088 14.8576 12.2495 15.354 13.1084 15.0073C13.4709 14.8576 13.8334 14.7158 14.188 14.5503C14.3377 14.4794 14.4638 14.4873 14.6135 14.5503C14.9759 14.7158 15.3463 14.8655 15.7167 15.0152C16.5283 15.3462 17.2927 14.8418 17.2927 13.9672C17.2927 12.5173 17.2927 11.0674 17.2927 9.62534V9.36529H23.0687V15.8662C22.982 15.8662 22.8953 15.8662 22.8165 15.8662C21.1381 15.8662 19.4518 15.8662 17.7733 15.8662C16.6071 15.8662 15.8428 16.6306 15.8428 17.7889C15.8428 19.7038 15.8428 21.6186 15.8428 23.5334V23.825H15.8585ZM10.9729 18.3957C10.0668 18.3957 9.16056 18.3957 8.26224 18.3957C7.65549 18.3957 7.19062 18.8685 7.17486 19.4674C7.17486 19.7195 7.17486 19.9638 7.17486 20.216C7.19062 20.807 7.64763 21.2876 8.23863 21.2876C10.0668 21.2876 11.887 21.2876 13.7152 21.2876C14.3062 21.2876 14.7632 20.8148 14.779 20.216C14.779 20.0032 14.779 19.7904 14.779 19.5856C14.779 18.8448 14.3377 18.3957 13.597 18.3957C12.7223 18.3957 11.8476 18.3957 10.9729 18.3957Z" fill="#0671B8"/>
<path d="M11.5247 5.00781H17.2928V8.60106H11.5247V5.00781Z" fill="#0671B8"/>
<path d="M16.5834 9.35742C16.5834 10.2951 16.5834 11.2092 16.5834 12.1312C16.5834 12.7379 16.5834 13.3368 16.5834 13.9435C16.5834 14.3375 16.3549 14.4951 15.9924 14.3454C15.5432 14.1642 15.1099 13.9593 14.6528 13.7938C14.5031 13.7386 14.3061 13.7386 14.1564 13.7938C13.6915 13.9593 13.2423 14.172 12.7774 14.3612C12.4701 14.4872 12.2337 14.3218 12.2337 13.9908C12.2337 12.4779 12.2337 10.957 12.2337 9.44409C12.2337 9.42045 12.2337 9.39681 12.2416 9.36529H16.5756L16.5834 9.35742Z" fill="#0671B8"/>
<path d="M18.0413 8.609V5C18.1201 5 18.1989 5 18.2777 5C19.7276 5 21.1775 5 22.6195 5C23.376 5 23.8173 5.44126 23.8173 6.18985C23.8173 6.63901 23.8173 7.09605 23.8173 7.5452C23.8094 8.1362 23.3444 8.60901 22.7456 8.61689C21.209 8.61689 19.6645 8.61689 18.1279 8.61689C18.0964 8.61689 18.0728 8.61687 18.0334 8.60111L18.0413 8.609Z" fill="#0671B8"/>
<path d="M10.7838 5.00786V8.61689H10.5475C9.09755 8.61689 7.64763 8.61689 6.20561 8.61689C5.44125 8.61689 5 8.17561 5 7.41126C5 6.96998 5 6.53657 5 6.0953C5 5.47278 5.46492 5 6.08744 5C7.60826 5 9.13696 5 10.6578 5C10.6972 5 10.7287 4.99998 10.7917 5.00786H10.7838Z" fill="#0671B8"/>
<path d="M19.4675 19.4753H18.7662V18.7739H19.4675V19.4753Z" fill="#FFB422"/>
<path d="M23.8093 18.7739V19.4753H23.1159V18.7739H23.8093Z" fill="#FFB422"/>
<path d="M19.4675 23.817H18.7662V23.1157H19.4675V23.817Z" fill="#FFB422"/>
<path d="M23.8094 23.1157V23.8092H23.1081V23.1157H23.8094Z" fill="#FFB422"/>
</svg>
