<svg width="32" height="32" viewBox="0 0 32 32" fill="none" xmlns="http://www.w3.org/2000/svg">
<path d="M7.81685 25.3924C7.63213 25.3309 7.432 25.2847 7.25498 25.2C6.45451 24.8152 6.0081 24.1687 6.0004 23.2835C5.98501 22.3984 6.41604 21.7596 7.19341 21.3439C7.26268 21.3054 7.33964 21.2747 7.42431 21.2362C7.42431 20.7436 7.42431 20.251 7.42431 19.7661C7.42431 19.2658 7.71678 18.981 8.21707 18.981C10.4645 18.981 12.712 18.981 14.9672 18.981H15.2673C15.2673 18.7655 15.2673 18.55 15.2673 18.3422C15.2673 17.8881 15.5598 17.5648 15.9677 17.5571C16.391 17.5571 16.6835 17.8727 16.6912 18.3422C16.6912 18.5423 16.6912 18.7424 16.6912 18.981H16.9529C19.1927 18.981 21.4324 18.981 23.6799 18.981C24.2725 18.981 24.5342 19.2427 24.5342 19.8354C24.5342 20.251 24.5342 20.6666 24.5342 21.0822C24.5342 21.1515 24.5804 21.2593 24.642 21.2824C25.3501 21.6056 25.7811 22.1444 25.9274 22.9064C25.9274 22.9218 25.9427 22.9295 25.9504 22.9372C25.9504 23.145 25.9504 23.3528 25.9504 23.5606C25.935 23.6068 25.912 23.653 25.9043 23.6992C25.7118 24.4765 25.2346 24.9999 24.4804 25.277C24.3649 25.3155 24.2418 25.3462 24.1263 25.3847H23.5029C23.4567 25.3693 23.4105 25.3463 23.3643 25.3386C22.3791 25.1076 21.671 24.261 21.6864 23.2604C21.6941 22.3599 22.1328 21.7211 22.9333 21.3132C23.0026 21.2824 23.0949 21.2054 23.1026 21.1515C23.118 20.9129 23.1103 20.6666 23.1103 20.4126H16.6989C16.6989 20.6127 16.7066 20.8052 16.6989 20.9976C16.6835 21.1746 16.7374 21.267 16.9144 21.3439C17.7072 21.7134 18.1767 22.5215 18.1228 23.399C18.0689 24.2533 17.484 25.0153 16.6604 25.2847C16.545 25.3232 16.4218 25.354 16.3064 25.3924H15.683C15.6368 25.377 15.5906 25.354 15.5444 25.3463C14.5592 25.1154 13.8511 24.2687 13.8665 23.2681C13.8742 22.3676 14.3129 21.7288 15.1134 21.3208C15.1827 21.2901 15.275 21.2131 15.2827 21.1592C15.2981 20.9206 15.2904 20.6743 15.2904 20.4203H8.87901C8.87901 20.6204 8.8867 20.8129 8.87901 21.0053C8.86361 21.1823 8.91749 21.2747 9.09452 21.3516C9.88728 21.7211 10.3568 22.5292 10.3029 23.4067C10.249 24.261 9.66406 25.023 8.84051 25.2924C8.72506 25.3309 8.60192 25.3617 8.48646 25.4001H7.86303L7.81685 25.3924ZM23.803 23.9685C24.1879 23.9685 24.5111 23.653 24.5188 23.2604C24.5188 22.8756 24.2033 22.5446 23.8184 22.5446C23.4259 22.5446 23.0949 22.8679 23.0949 23.2604C23.0949 23.6453 23.4182 23.9685 23.803 23.9685ZM16.6758 23.2604C16.6758 22.8756 16.3603 22.5446 15.9754 22.5446C15.5906 22.5446 15.2596 22.8525 15.2519 23.2373C15.2442 23.6299 15.5675 23.9685 15.96 23.9685C16.3449 23.9685 16.6681 23.653 16.6758 23.2604ZM8.84051 23.2527C8.84051 22.8679 8.51726 22.5446 8.13242 22.5446C7.74758 22.5446 7.42432 22.8602 7.41663 23.245C7.41663 23.6376 7.73988 23.9685 8.13242 23.9685C8.51726 23.9685 8.84051 23.6453 8.84051 23.2527Z" fill="#0671B8"/>
<path d="M20.5011 6.62007C19.2004 7.36666 17.9535 8.02857 16.7682 8.79825C16.0678 9.26006 15.5367 9.28314 14.8286 8.81363C13.651 8.03626 12.3887 7.38205 11.1188 6.64316C11.2419 6.5585 11.3266 6.48153 11.4189 6.42765C12.7736 5.64258 14.1205 4.85751 15.4828 4.08783C15.6214 4.01086 15.8677 3.96468 15.9985 4.03395C17.4763 4.8652 18.9464 5.71955 20.5011 6.62007Z" fill="#FFB422"/>
<path d="M21.163 7.54371C21.163 8.2749 21.163 8.99071 21.163 9.69882C21.163 10.6686 21.1707 11.6384 21.1553 12.6082C21.1553 12.7544 21.063 12.9699 20.9475 13.0315C19.5236 13.8782 18.0843 14.694 16.6527 15.5253C16.622 15.5483 16.5681 15.5406 16.4988 15.5483C16.4834 15.456 16.4603 15.3713 16.4603 15.2867C16.4603 13.6857 16.4603 12.0925 16.468 10.4916C16.468 10.3453 16.5758 10.1375 16.6989 10.0682C18.1228 9.2293 19.5621 8.40575 20.9937 7.5745C21.0322 7.55141 21.0707 7.55141 21.163 7.52832V7.54371Z" fill="#FFB422"/>
<path d="M15.2058 15.6793C13.9897 14.9789 12.8429 14.2323 11.6268 13.6473C10.7417 13.224 10.4646 12.6775 10.5261 11.7231C10.6185 10.3685 10.5492 9.00617 10.5492 7.59766C10.7032 7.66693 10.8263 7.7131 10.9341 7.78237C12.2656 8.55205 13.5972 9.31404 14.921 10.0991C15.0673 10.1915 15.2366 10.3993 15.2443 10.5532C15.2674 12.1926 15.2597 13.8397 15.252 15.4791C15.252 15.5253 15.2289 15.5638 15.2058 15.6793Z" fill="#FFB422"/>
</svg>
