<svg width="32" height="32" viewBox="0 0 32 32" fill="none" xmlns="http://www.w3.org/2000/svg">
<path d="M15.8632 26V15.8709H19.4868C19.4868 16.4195 19.4868 16.9603 19.4868 17.5012C19.4868 17.9261 19.5873 18.0265 20.0199 18.0265C20.6535 18.0265 21.287 18.0265 21.9206 18.0265C22.2606 18.0265 22.3765 17.9029 22.3842 17.563C22.3842 17.0067 22.3842 16.4504 22.3842 15.8555H26.0078V26H15.8632ZM20.9394 25.2738C22.2219 25.2738 23.5045 25.2738 24.787 25.2738C25.1733 25.2738 25.2815 25.1579 25.2815 24.7716C25.2815 22.9327 25.2815 21.0939 25.2815 19.255C25.2815 18.8687 25.1733 18.7528 24.787 18.7528C22.2219 18.7528 19.6568 18.7528 17.0994 18.7528C16.6977 18.7528 16.5895 18.861 16.5895 19.2627C16.5895 21.0939 16.5895 22.925 16.5895 24.7561C16.5895 25.1579 16.6977 25.2661 17.0917 25.2661C18.3742 25.2661 19.6568 25.2661 20.9394 25.2661V25.2738Z" fill="#0671B8"/>
<path d="M5 26.0002V15.8711H8.62362C8.62362 16.4197 8.62362 16.9605 8.62362 17.5013C8.62362 17.934 8.72406 18.0344 9.15673 18.0344C9.79028 18.0344 10.4238 18.0344 11.0574 18.0344C11.3973 18.0344 11.521 17.9108 11.521 17.5709C11.521 17.0146 11.521 16.4583 11.521 15.8788H15.1446V26.0002H5ZM10.0684 18.753C8.78586 18.753 7.5033 18.753 6.22074 18.753C5.83443 18.753 5.71854 18.8612 5.71854 19.2475C5.71854 21.094 5.71854 22.9406 5.71854 24.7872C5.71854 25.158 5.83443 25.2739 6.20529 25.2739C8.77814 25.2739 11.351 25.2739 13.9161 25.2739C14.2869 25.2739 14.4106 25.158 14.4106 24.7949C14.4106 22.9483 14.4106 21.1017 14.4106 19.2552C14.4106 18.8689 14.2947 18.7607 13.9084 18.7607C12.6258 18.7607 11.3432 18.7607 10.0607 18.7607L10.0684 18.753Z" fill="#0671B8"/>
<path d="M16.968 5.00773H20.5607V15.1291H10.447V5.01544H14.0552C14.0552 5.56401 14.0552 6.10486 14.0552 6.6457C14.0552 7.07064 14.1556 7.17108 14.5883 7.17108C15.2141 7.17108 15.84 7.17108 16.4658 7.17108C16.8289 7.17108 16.9448 7.05517 16.9448 6.67658C16.9448 6.14347 16.9448 5.60265 16.9448 5.06953C16.9448 5.05408 16.9448 5.03863 16.9602 5L16.968 5.00773ZM15.4768 14.4183C16.7748 14.4183 18.0728 14.4183 19.3708 14.4183C19.7262 14.4183 19.8499 14.3024 19.8499 13.947C19.8499 12.0927 19.8499 10.2384 19.8499 8.3841C19.8499 8.01324 19.734 7.90507 19.3631 7.89735C16.7903 7.89735 14.2174 7.89735 11.6523 7.89735C11.2815 7.89735 11.1656 8.01324 11.1656 8.37637C11.1656 10.2229 11.1656 12.0695 11.1656 13.9161C11.1656 14.3024 11.2815 14.4106 11.6678 14.4106C12.9426 14.4106 14.2174 14.4106 15.4923 14.4106L15.4768 14.4183Z" fill="#FFB422"/>
<path d="M10.7788 17.2995H9.35767V15.8784H10.7788V17.2995Z" fill="#0671B8"/>
<path d="M20.2284 15.8711H21.6495V17.2922H20.2284V15.8711Z" fill="#0671B8"/>
<path d="M14.7891 6.42892V5.00781H16.218V6.42892H14.7891Z" fill="#FFB422"/>
<path d="M24.5397 24.5399H17.3234V19.4946H24.5397V24.5399ZM18.0496 22.3765C18.66 22.3765 19.2549 22.3765 19.8499 22.3765C20.0739 22.3765 20.2053 22.2297 20.213 21.9979C20.213 21.7121 20.213 21.4262 20.213 21.1403C20.213 20.8313 20.213 20.5299 20.213 20.2209H19.479V21.658H18.0496V22.3765ZM23.8289 21.6502C23.2108 21.6502 22.6159 21.6502 22.0209 21.6502C21.7892 21.6502 21.6655 21.8048 21.6655 22.052C21.6655 22.4615 21.6655 22.8633 21.6655 23.2728C21.6655 23.4505 21.6655 23.6282 21.6655 23.7981H22.3995V22.3611H23.8289V21.6425V21.6502ZM20.9315 23.1105H18.0651V23.8059H20.9315V23.1105ZM22.3995 20.9008H23.8289V20.2054H22.3995V20.9008ZM18.0574 20.2054V20.9008H18.7527V20.2054H18.0574ZM21.6578 20.9085V20.2132H20.9624V20.9085H21.6578ZM23.8289 23.8059V23.1028H23.1335V23.8059H23.8289Z" fill="#0671B8"/>
<path d="M13.6844 19.5024V24.5477H6.46808V19.5024H13.6844ZM9.34225 20.221H8.61598V21.6658H7.18661V22.3766C7.80472 22.3766 8.41509 22.3766 9.01773 22.3766C9.20316 22.3766 9.33452 22.2453 9.34225 22.0598C9.3577 21.4495 9.34225 20.8468 9.34225 20.2287V20.221ZM12.9659 21.6581C12.34 21.6581 11.7296 21.6581 11.1193 21.6581C10.9338 21.6581 10.8025 21.7972 10.8025 21.9826C10.7948 22.593 10.8025 23.1956 10.8025 23.8137H11.5288V22.3689H12.9659V21.6581ZM7.18661 23.8137H10.053V23.1183H7.18661V23.8137ZM11.5442 20.2133V20.9164H12.9581V20.2133H11.5442ZM7.19435 20.2133V20.9086H7.88971V20.2133H7.19435ZM10.0917 20.2133V20.9164H10.7871V20.2133H10.0917ZM12.9581 23.8137V23.1183H12.2628V23.8137H12.9581Z" fill="#0671B8"/>
<path d="M11.8918 13.6688V8.62354H19.1081V13.6688H11.8918ZM18.3896 10.7869C17.7715 10.7869 17.1765 10.7869 16.5816 10.7869C16.3576 10.7869 16.2262 10.9337 16.2262 11.1655C16.2262 11.4359 16.2262 11.7063 16.2262 11.9767C16.2262 12.3012 16.2262 12.618 16.2262 12.9348H16.9602V11.4977H18.3896V10.7792V10.7869ZM12.6103 11.5054C13.2284 11.5054 13.8234 11.5054 14.4183 11.5054C14.6501 11.5054 14.7737 11.3509 14.7737 11.1037C14.7737 10.6942 14.7737 10.2924 14.7737 9.88292C14.7737 9.70521 14.7737 9.52749 14.7737 9.35752H14.0397V10.7946H12.6103V11.5131V11.5054ZM12.6103 12.9425H15.4768V12.2472H12.6103V12.9425ZM16.9525 10.0452H18.3818V9.35752H16.9525V10.0452ZM18.3741 12.9502V12.2472H17.6865V12.9502H18.3741ZM12.6181 9.33434V10.0374H13.3057V9.33434H12.6181ZM15.5 10.0374H16.203V9.34207H15.5V10.0374Z" fill="#FFB422"/>
</svg>
