<svg width="32" height="32" viewBox="0 0 32 32" fill="none" xmlns="http://www.w3.org/2000/svg">
<path d="M8.66786 5.00834C8.95129 5.10838 9.08464 5.31678 9.168 5.60854C9.5598 7.01732 9.96825 8.41777 10.3517 9.82656C10.4017 10.0099 10.4851 10.035 10.6518 10.035C15.4867 10.035 20.3132 10.035 25.1481 10.035C25.2315 10.035 25.3149 10.035 25.3982 10.035C25.8317 10.06 26.0984 10.4018 25.9901 10.8269C25.7066 11.9272 25.4149 13.0193 25.1231 14.1113C24.7564 15.5034 24.3896 16.8955 24.0144 18.2876C24.0061 18.3293 23.9894 18.3793 23.9644 18.446C23.4809 18.0959 22.9391 18.1292 22.3972 18.1292C19.4296 18.1292 16.462 18.1292 13.4944 18.1292C12.7775 18.1292 12.0606 18.0375 11.3437 18.321C11.2103 17.8375 11.0936 17.3706 10.9603 16.9038C10.0183 13.4277 9.06797 9.95161 8.126 6.47549C8.07599 6.2921 8.0093 6.2254 7.80923 6.23374C7.14235 6.25041 6.46716 6.23375 5.80028 6.24208C5.40848 6.25042 5.14171 6.11704 5 5.74192V5.49182C5.07502 5.25841 5.24173 5.10837 5.45013 5H8.65118L8.66786 5.00834Z" fill="#0671B8"/>
<path d="M18.7627 5.0083C19.1462 5.14168 19.2795 5.41676 19.2712 5.80855C19.2545 6.71718 19.2712 7.62582 19.2712 8.53444V8.78451H11.7938V8.5511C11.7938 7.65082 11.8022 6.75053 11.7938 5.85025C11.7938 5.45012 11.9022 5.15835 12.2856 5.0083H18.7711H18.7627Z" fill="#FFB422"/>
<path d="M21.1219 23.2643H14.253C14.4697 23.8979 14.4364 24.5147 14.0779 25.0816C13.8445 25.4484 13.5194 25.7151 13.1109 25.8735C12.2773 26.1903 11.3354 25.9068 10.8019 25.1983C10.3267 24.5647 10.185 23.4977 10.9853 22.6141C10.6852 22.2557 10.5101 21.8472 10.4935 21.3637C10.4601 20.2884 11.302 19.3714 12.3774 19.3631C15.8951 19.3547 19.4046 19.3631 22.9224 19.3631C23.2725 19.3631 23.5393 19.6298 23.5476 19.9633C23.5476 20.28 23.2975 20.5551 22.9641 20.5885C22.8974 20.5885 22.8307 20.5885 22.7557 20.5885C19.3796 20.5885 16.0036 20.5885 12.6275 20.5885C12.5024 20.5885 12.3607 20.5885 12.244 20.6218C11.9022 20.7135 11.7022 21.0303 11.7439 21.3887C11.7772 21.7222 12.0439 21.9889 12.394 22.0223C12.4774 22.0223 12.5607 22.0223 12.6441 22.0223C16.0869 22.0223 19.538 22.0223 22.9808 22.0223C23.9811 22.0223 24.8397 22.7475 24.9648 23.6978C25.1065 24.7315 24.5146 25.6651 23.5226 25.9235C22.7891 26.1152 22.1388 25.9402 21.597 25.4067C21.0635 24.8732 20.9051 24.2146 21.0885 23.4811C21.1052 23.4144 21.1218 23.3477 21.1468 23.2893C21.1468 23.2893 21.1468 23.2727 21.1468 23.256L21.1219 23.2643Z" fill="#0671B8"/>
<path d="M23.4643 8.78443H20.5133V7.50068C20.5133 7.50068 20.5383 7.47567 20.5467 7.47567C21.3219 7.47567 22.0888 7.459 22.8641 7.47567C23.1975 7.47567 23.4309 7.71744 23.4559 8.04254C23.4726 8.27595 23.4559 8.51768 23.4559 8.78443H23.4643Z" fill="#FFB422"/>
</svg>
