<svg width="32" height="32" viewBox="0 0 32 32" fill="none" xmlns="http://www.w3.org/2000/svg">
<path d="M4 26.4724V7.52227C4 7.34632 4.1408 7.20557 4.31676 7.20557H6.23464C6.41059 7.20557 6.55134 7.34632 6.55134 7.52227C6.55134 8.63957 6.55134 9.75687 6.55134 10.8742C6.55134 11.0589 6.58655 11.1293 6.78889 11.1293C12.9384 11.1293 19.088 11.1293 25.2375 11.1293C25.4311 11.1293 25.4751 11.0677 25.4663 10.8918C25.4663 9.76566 25.4663 8.63957 25.4663 7.52227C25.4663 7.46069 25.4663 7.3991 25.4663 7.32872C25.4663 7.27593 25.5102 7.23196 25.563 7.23196H27.6833C27.8593 7.23196 28 7.37271 28 7.54866V26.4636C28 26.6395 27.8593 26.7803 27.6833 26.7803H25.7742C25.5982 26.7803 25.4575 26.6395 25.4575 26.4636V23.6571C25.4575 23.4812 25.3167 23.3404 25.1408 23.3404H6.85923C6.68328 23.3404 6.54253 23.4812 6.54253 23.6571V26.4724C6.54253 26.6484 6.40178 26.7891 6.22583 26.7891H4.31676C4.1408 26.7891 4 26.6484 4 26.4724ZM25.1408 13.3551H6.88565C6.7097 13.3551 6.56895 13.4959 6.56895 13.6718V20.7891C6.56895 20.9651 6.7097 21.1058 6.88565 21.1058H25.1408C25.3167 21.1058 25.4575 20.9651 25.4575 20.7891V13.6718C25.4575 13.4959 25.3167 13.3551 25.1408 13.3551Z" fill="#0671B8"/>
<path d="M9.49854 6H14.9443V10.6892H9.49854V6ZM12.9648 8.20822V6.43988H11.478V8.21702C11.7419 8.00588 11.9795 7.82112 12.2258 7.62757C12.4634 7.82112 12.7009 8.00587 12.9648 8.20822ZM10.8886 9.3519C11.0469 9.3519 11.2053 9.37831 11.3549 9.34312C11.4429 9.32553 11.5044 9.20234 11.5836 9.13196C11.5132 9.06158 11.4429 8.93841 11.3637 8.93841C11.0558 8.91202 10.7391 8.91202 10.4311 8.93841C10.3608 8.93841 10.2903 9.07038 10.2199 9.14077C10.2903 9.21115 10.3607 9.32551 10.4487 9.3519C10.5895 9.38709 10.739 9.36071 10.8886 9.36071V9.3519ZM10.8886 10.1613C11.0381 10.1613 11.1877 10.1613 11.3285 10.1613C11.4692 10.1613 11.5924 10.0821 11.566 9.94135C11.5484 9.86218 11.4252 9.74781 11.3373 9.74781C11.0469 9.72141 10.7478 9.72141 10.4487 9.74781C10.3695 9.74781 10.2904 9.87977 10.2112 9.94135C10.2816 10.0117 10.3519 10.1261 10.4399 10.1525C10.5807 10.1877 10.7302 10.1613 10.8798 10.1613H10.8886Z" fill="#FFB422"/>
<path d="M22.5015 10.6804H17.0557V6H22.5015V10.6804ZM20.5308 6.4223H19.0352V8.19941C19.2991 7.98827 19.5366 7.80353 19.783 7.60998C20.0293 7.80353 20.2669 7.98827 20.5308 8.19941V6.4223ZM18.4546 9.33431C18.6129 9.33431 18.7713 9.3607 18.9208 9.32551C19 9.30791 19.1232 9.20234 19.1232 9.13196C19.1232 9.06158 19.0088 8.92962 18.9384 8.92082C18.6217 8.89443 18.2962 8.89443 17.9795 8.92082C17.9091 8.92082 17.7948 9.0528 17.7948 9.12318C17.7948 9.19356 17.9091 9.30791 17.9883 9.32551C18.1378 9.3607 18.2962 9.33431 18.4546 9.33431ZM18.4546 9.72141C18.2962 9.72141 18.1378 9.69503 17.9883 9.73022C17.9091 9.74781 17.7948 9.85339 17.7948 9.92377C17.7948 9.99415 17.9091 10.1261 17.9795 10.1349C18.2962 10.1613 18.6217 10.1613 18.9384 10.1349C19.0088 10.1349 19.1232 10.0029 19.1232 9.92377C19.1232 9.85339 19 9.74781 18.9208 9.73022C18.7713 9.69503 18.6129 9.72141 18.4546 9.72141Z" fill="#FFB422"/>
<path d="M22.3959 15.9941V20.6921H16.959V15.9941H22.3959ZM20.4076 18.1936V16.4164H18.9296V18.2024C19.1936 17.9912 19.4311 17.8065 19.6774 17.6217C19.915 17.8065 20.1437 17.9912 20.4076 18.2024V18.1936ZM18.349 20.1378C18.4986 20.1378 18.6481 20.1642 18.7889 20.129C18.8769 20.1114 18.9472 19.9971 19.0264 19.9267C18.9472 19.8563 18.8768 19.7243 18.7977 19.7243C18.4985 19.6979 18.1907 19.6979 17.8915 19.7243C17.8124 19.7243 17.742 19.8651 17.6716 19.9355C17.7508 20.0058 17.8212 20.1114 17.9091 20.129C18.0499 20.1642 18.1995 20.129 18.349 20.129V20.1378ZM18.3666 18.915C18.2082 18.915 18.0499 18.8886 17.9003 18.9237C17.8124 18.9413 17.742 19.0557 17.6628 19.1261C17.742 19.1965 17.8124 19.3285 17.8915 19.3285C18.1907 19.3548 18.4985 19.3548 18.7977 19.3285C18.8768 19.3285 18.9472 19.1877 19.0176 19.1173C18.9384 19.0469 18.8681 18.9501 18.7801 18.9237C18.6481 18.8886 18.4985 18.9237 18.3578 18.9237L18.3666 18.915Z" fill="#FFB422"/>
<path d="M9.61292 15.9854H15.0411V20.6833H9.61292V15.9854ZM12.3314 17.6129C12.5777 17.8065 12.8065 17.9912 13.0704 18.1936V16.4164H11.6012V18.1936C11.8563 17.9912 12.0851 17.8153 12.3314 17.6129ZM11.003 18.915C10.8446 18.915 10.6863 18.8886 10.5367 18.9238C10.4575 18.9414 10.3343 19.0469 10.3343 19.1173C10.3343 19.1877 10.4487 19.3197 10.5191 19.3285C10.8358 19.3549 11.1613 19.3549 11.478 19.3285C11.5484 19.3285 11.6628 19.1965 11.6628 19.1173C11.6628 19.0469 11.5484 18.9414 11.4605 18.9238C11.3109 18.8886 11.1525 18.915 10.9942 18.915H11.003ZM10.9942 20.1378C11.1437 20.1378 11.2933 20.1642 11.434 20.1378C11.522 20.1202 11.6452 20.0235 11.6716 19.9443C11.7068 19.7947 11.5924 19.7243 11.4428 19.7155C11.1525 19.7155 10.8622 19.7155 10.5807 19.7155C10.4399 19.7155 10.3343 19.7683 10.3255 19.9267C10.3255 20.0851 10.4223 20.1378 10.5719 20.1378C10.7126 20.1378 10.8534 20.1378 10.9942 20.1378Z" fill="#FFB422"/>
</svg>
