<svg width="32" height="32" viewBox="0 0 32 32" fill="none" xmlns="http://www.w3.org/2000/svg">
<path d="M16.6527 6C17.0633 6.0798 17.359 6.31919 17.6465 6.59849C19.9956 8.94455 22.3529 11.2747 24.7102 13.6128C24.9731 13.8761 25.088 14.1633 24.9238 14.4984C24.7595 14.8256 24.4638 14.9453 24.0778 14.9374C23.3468 14.9374 22.6157 14.9374 21.8437 14.9374V17.3313C19.3385 17.2196 17.589 17.1159 16.127 18.9273C14.665 20.7307 14.0736 22.8055 14.8949 24.984C14.8046 24.984 14.7224 25 14.6403 25C13.7943 25 12.9565 25 12.1105 25C11.478 25 11.1659 24.7206 11.1659 24.1301C11.1659 21.1776 11.1659 18.217 11.1659 15.2645C11.1659 15.1687 11.1659 15.065 11.1659 14.9453C10.6403 14.9453 10.1474 14.9453 9.65462 14.9453C9.37536 14.9453 9.0961 14.9453 8.81684 14.9453C8.46365 14.9453 8.22545 14.7857 8.08582 14.4984C7.93797 14.2032 7.97905 13.9239 8.22546 13.6845C9.00575 12.9104 9.78605 12.1365 10.5664 11.3624C12.1927 9.75049 13.8189 8.14651 15.4288 6.53459C15.6916 6.27125 15.9791 6.08779 16.3487 6.00799H16.6527V6Z" fill="#0671B8" stroke="#0671B8" stroke-width="0.13" stroke-miterlimit="10"/>
<circle cx="19.7509" cy="22.5915" r="4.40841" fill="#FFB422"/>
<path d="M21.8492 21.0179C21.7766 21.1127 21.7376 21.1908 21.6762 21.2522C20.6104 22.2622 19.5501 23.2724 18.4843 24.2768C18.3224 24.4331 18.1606 24.4442 18.0378 24.3214C17.9151 24.1986 17.9318 24.0647 18.0936 23.914C19.0479 23.01 20.0077 22.1061 20.9619 21.1965C21.0903 21.0737 21.213 20.9397 21.3581 20.8337C21.4251 20.7835 21.559 20.7668 21.6371 20.7947C21.7208 20.8282 21.7766 20.9342 21.8548 21.0179H21.8492Z" fill="white"/>
<path d="M21.2576 24.7953C20.7107 24.7953 20.3033 24.4102 20.3033 23.8912C20.3033 23.3778 20.7163 22.9817 21.252 22.9761C21.7933 22.9761 22.2062 23.3668 22.2062 23.8857C22.2062 24.4047 21.7989 24.7953 21.2576 24.7953ZM21.2576 24.2763C21.4919 24.2763 21.6594 24.1144 21.6594 23.8968C21.6594 23.6736 21.4808 23.5006 21.2464 23.5006C21.0176 23.5006 20.8446 23.6681 20.8446 23.8857C20.8446 24.1145 21.0176 24.2763 21.2576 24.2763Z" fill="white"/>
<path d="M18.5122 20.3872C19.0646 20.3872 19.472 20.7722 19.472 21.2911C19.472 21.8045 19.0534 22.1896 18.5066 22.1896C17.9597 22.1896 17.5468 21.799 17.5468 21.2856C17.5468 20.7666 17.9597 20.3872 18.5122 20.3928V20.3872ZM18.9195 21.2911C18.9195 21.0735 18.7465 20.9061 18.5122 20.9061C18.2778 20.9061 18.1048 21.0568 18.0992 21.2744C18.0936 21.4976 18.261 21.665 18.501 21.6706C18.7409 21.6706 18.9195 21.5144 18.9251 21.2967L18.9195 21.2911Z" fill="white"/>
</svg>
