<svg width="32" height="32" viewBox="0 0 32 32" fill="none" xmlns="http://www.w3.org/2000/svg">
<path d="M11.7583 26.9841C12.0035 26.4937 12.0272 25.9638 12.0114 25.4338C12.0035 24.9672 12.0114 24.5005 12.0114 23.9863H27.0001V26.2327C26.8498 26.5807 26.5967 26.8338 26.2487 26.9841H11.7583Z" fill="#0671B8" stroke="#0671B8" stroke-width="0.110734" stroke-miterlimit="10"/>
<path d="M23.9943 22.9898H11.0147C11.0147 23.4881 11.0147 23.9628 11.0147 24.4373C11.0147 24.9277 11.0147 25.418 11.0147 25.9084C11.0147 26.557 10.6429 26.9446 10.026 26.9525C9.40111 26.9525 9.01354 26.5649 9.01354 25.9084C9.01354 20.5773 9.01354 15.2463 9.01354 9.91522C9.01354 9.02143 9.02936 8.12772 9.01354 7.22603C9.00563 6.83055 8.91071 6.43504 8.85535 6.00792C8.86326 6.00792 8.94235 6 9.02144 6C13.6565 6 18.2836 6 22.9186 6C23.583 6 24.0101 6.40345 24.0101 7.05204C24.0101 12.2961 24.0101 17.548 24.0101 22.7921C24.0101 22.8395 24.0101 22.8949 24.0022 22.9898H23.9943ZM13.8384 14.4001C13.9096 14.4001 13.9729 14.3843 14.0361 14.3843C14.9062 14.4634 15.6734 13.8305 15.6101 12.7627C15.6022 12.5966 15.6102 12.4304 15.5943 12.2643C15.5073 11.505 14.9457 10.9989 14.1943 10.991C13.7593 10.991 13.3243 10.991 12.8813 10.991C12.0192 10.991 11.9876 10.9593 12.0113 10.0971C12.0192 9.73328 12.1457 9.60682 12.5017 9.59891C13.0316 9.59891 13.5616 9.59891 14.0915 9.59891C14.4079 9.59891 14.574 9.71759 14.6214 10.034C14.6689 10.3424 14.8825 10.5005 15.1593 10.4768C15.452 10.4451 15.6734 10.6033 15.3649 10.6745C14.7559 10.809 14.8192 10.4373 14.1231 10.3899C13.965 10.374 13.8779 9.98646 13.7118 9.97855C13.6881 9.64635 13.6407 10.3898 13.3164 10.3582C13.0316 10.3345 13.1424 9.57523 12.9842 10.0419C12.8497 10.0419 12.4147 10.2001 12.2723 10.208C11.5288 10.2554 12.6519 11.5366 12.9762 10.8643C13.2294 10.3502 15.9186 11.0622 15.8949 11.6238C15.6576 19.3199 6.80676 13.1662 12.4305 11.9955C12.8655 11.9006 13.3243 11.9955 13.7751 11.9955C14.5819 11.9955 14.6452 12.0508 14.6214 12.8655C14.6214 12.8892 14.6214 12.9051 14.6214 12.9288C14.5977 13.2531 14.4791 13.3876 14.1548 13.3956C13.5932 13.4035 13.0316 13.3956 12.47 13.3956C12.2011 13.3956 12.0508 13.2611 12.0113 12.9922C11.9638 12.6679 11.7503 12.4938 11.4655 12.5254C11.157 12.5571 10.9909 12.7785 11.0147 13.1266C11.0621 13.791 11.6 14.3368 12.2644 14.3922C12.4384 14.408 12.6124 14.408 12.7785 14.4159C12.8655 14.8272 13.0158 14.9933 13.3005 14.9854C13.6644 14.9854 13.7909 14.7323 13.8384 14.4159V14.4001ZM16.496 17.6825C16.6621 17.6825 16.8282 17.6825 16.9943 17.6825C18.4813 17.6825 19.9683 17.6825 21.4553 17.6825C21.7875 17.6825 21.9853 17.4926 21.9853 17.1999C21.9853 16.9073 21.7955 16.7096 21.4712 16.6859C21.4 16.6859 21.3288 16.6859 21.2497 16.6859C18.0779 16.6859 14.9062 16.6859 11.7344 16.6859C11.6316 16.6859 11.5288 16.6859 11.426 16.7017C11.1808 16.7413 11.0463 16.9074 11.0226 17.1526C10.983 17.4769 11.2124 17.6904 11.5921 17.6904C13.2214 17.6904 14.8587 17.6904 16.4881 17.6904L16.496 17.6825ZM16.4802 20.6803C18.1333 20.6803 19.7864 20.6803 21.4395 20.6803C21.7876 20.6803 21.9932 20.4903 21.9932 20.1898C21.9932 19.8892 21.7876 19.6995 21.4395 19.6837C21.3763 19.6837 21.313 19.6837 21.2497 19.6837C18.0859 19.6837 14.9299 19.6837 11.7661 19.6837C11.6553 19.6837 11.5367 19.6837 11.426 19.6995C11.1491 19.7549 10.983 20.008 11.0384 20.2848C11.1017 20.5933 11.3152 20.6882 11.6079 20.6882C13.2294 20.6882 14.8508 20.6882 16.4723 20.6882L16.4802 20.6803ZM20.261 7.45544C21.4 6.7673 20.9412 6.34007 22.0169 7.74007C22.1039 7.85872 22.1435 8.59446 21.9932 8.48372C21.9932 8.18316 21.7875 7.99324 21.4316 7.99324C20.0158 7.99324 18.6 7.99324 17.1842 7.99324C16.8282 7.99324 16.6384 8.01696 16.3299 7.99324C16.0373 7.96951 16.2508 7.78759 17.1367 7.40002C18.0147 7.02035 20.3243 5.3594 20.2531 7.46335L20.261 7.45544ZM20.0791 10.2159C21.2022 9.17181 22.444 8.54693 22.2621 10.7853C22.6101 10.7853 22.0011 11.7819 21.9932 11.4734C21.9932 11.1728 21.7875 10.9831 21.4316 10.9831C20.0158 10.9831 18.6 10.9831 17.1842 10.9831C16.8282 10.9831 17.4768 9.83616 17.4689 10.1525C17.4689 10.4768 17.6746 10.7932 17.8802 10.4768C18.9243 8.91857 19.5096 9.50402 20.0633 10.2159H20.0791ZM20.4825 12.8734C21.5186 12.209 23.4327 10.0813 22.4045 13.6644C22.3096 14.0045 22.0011 14.4792 21.9932 14.1707C21.9932 13.8701 21.7876 13.6723 21.4395 13.6723C20.0237 13.6723 18.6079 13.6723 17.1921 13.6723C16.8203 13.6723 17.0734 12.3672 17.0813 12.6915C17.0892 13 17.1683 13.2372 17.5401 13.2372C18.7898 12.2485 21.2181 10.2949 20.4746 12.8655L20.4825 12.8734Z" fill="#0671B8" stroke="#0671B8" stroke-width="0.110734" stroke-miterlimit="10"/>
<path d="M6.01582 12.9685C6.01582 10.9436 6.01582 8.9424 6.01582 6.94127C6.01582 6.3955 6.43502 6.03174 6.99661 6.03174C7.55028 6.03174 7.99322 6.37192 7.99322 6.89395C8.00904 8.9109 7.99322 10.9278 7.99322 12.9685H6H6.01582Z" fill="#0671B8" stroke="#0671B8" stroke-width="0.110734" stroke-miterlimit="10"/>
<path d="M16.4961 17.6828C14.8667 17.6828 13.2294 17.6828 11.6001 17.6828C11.2204 17.6828 10.9989 17.4693 11.0306 17.145C11.0543 16.9077 11.1888 16.7415 11.434 16.6941C11.5368 16.6782 11.6396 16.6782 11.7424 16.6782C14.9142 16.6782 18.0859 16.6782 21.2577 16.6782C21.3289 16.6782 21.4001 16.6782 21.4792 16.6782C21.7955 16.702 21.9933 16.8996 21.9933 17.1923C21.9933 17.4849 21.7956 17.6748 21.4633 17.6748C19.9763 17.6748 18.4893 17.6748 17.0023 17.6748C16.8362 17.6748 16.6701 17.6748 16.504 17.6748L16.4961 17.6828Z" fill="white"/>
<path d="M16.4723 20.6801C14.8509 20.6801 13.2294 20.6801 11.6079 20.6801C11.3074 20.6801 11.1017 20.5852 11.0384 20.2767C10.9831 19.9999 11.1492 19.7468 11.426 19.6914C11.5367 19.6677 11.6554 19.6756 11.7661 19.6756C14.93 19.6756 18.0859 19.6756 21.2497 19.6756C21.313 19.6756 21.3763 19.6756 21.4396 19.6756C21.7876 19.6914 21.9932 19.8732 21.9932 20.1817C21.9932 20.4902 21.7955 20.6722 21.4396 20.6722C19.7865 20.6722 18.1334 20.6722 16.4803 20.6722L16.4723 20.6801Z" fill="white"/>
<path d="M17.8465 14.4565C19.6303 13.7176 20.4775 11.6726 19.7386 9.88876C18.9997 8.10492 16.9546 7.2577 15.1707 7.99659C13.3869 8.73548 12.5398 10.7807 13.2787 12.5645C14.0176 14.3484 16.0627 15.1954 17.8465 14.4565Z" fill="#FFB422"/>
<path d="M16.504 8.0092C18.2836 8.0092 19.7232 9.45671 19.7232 11.2285C19.7232 13.0002 18.2757 14.4475 16.504 14.4475C14.7322 14.4475 13.2847 13.0002 13.2847 11.2285C13.2847 9.45671 14.7322 8.0092 16.504 8.0092ZM16.504 7.45557C14.4158 7.45557 12.7311 9.14824 12.7311 11.2285C12.7311 13.3087 14.4237 15.0093 16.504 15.0093C18.5842 15.0093 20.2848 13.3166 20.2848 11.2285C20.2848 9.14033 18.5921 7.45557 16.504 7.45557Z" fill="white"/>
<path d="M16.8283 13.6881C16.8283 13.5457 16.8283 13.4113 16.8283 13.2847C16.8283 13.2293 16.8441 13.2057 16.8995 13.1899C16.9865 13.1662 17.0735 13.1265 17.1605 13.087C17.8012 12.7548 17.991 11.9956 17.5876 11.4419C17.3345 11.0939 16.9786 10.9356 16.5514 10.9197C16.3616 10.9197 16.1876 10.8723 16.0373 10.7457C15.8317 10.5717 15.7921 10.2869 15.9661 10.0892C16.156 9.85981 16.417 9.80461 16.6938 9.86789C16.9628 9.92326 17.1368 10.0814 17.1763 10.374H17.7933C17.7933 10.3187 17.7933 10.2633 17.7774 10.2159C17.6825 9.73338 17.382 9.44059 16.9311 9.29031C16.8441 9.25867 16.8204 9.21917 16.8204 9.14007C16.8204 9.02143 16.8204 8.90282 16.8204 8.78418H16.1955C16.1955 8.90282 16.1876 9.0135 16.1955 9.12424C16.2034 9.22706 16.1718 9.28241 16.069 9.29823C16.0136 9.30614 15.9582 9.33784 15.9029 9.36157C15.2385 9.67795 15.017 10.4532 15.4362 11.0227C15.6893 11.3707 16.0452 11.5288 16.4644 11.5446C16.6464 11.5446 16.8125 11.5841 16.9548 11.6949C17.2317 11.9084 17.2317 12.2643 16.9548 12.4779C16.5435 12.7943 15.9978 12.6045 15.8317 12.0983H15.2147C15.2305 12.1774 15.2305 12.2565 15.2464 12.3197C15.365 12.7785 15.6656 13.0475 16.1085 13.1899C16.1718 13.2136 16.1955 13.2373 16.1955 13.3005C16.1955 13.4271 16.1955 13.5536 16.1955 13.6881H16.8204H16.8283Z" fill="white"/>
</svg>
