<svg width="32" height="32" viewBox="0 0 32 32" fill="none" xmlns="http://www.w3.org/2000/svg">
<path d="M23.5125 9.22614C23.5125 10.1759 23.5502 25.9974 23.5502 26.9472C23.4371 26.9472 18.4246 26.9925 18.3266 26.9925C17.113 26.9925 10.1859 25.0477 8.96482 25.0477C8.14321 25.0477 9.2588 15.2412 9.2588 16.0553C9.2588 17.1633 18.3417 15.4674 18.3417 16.6282C18.2211 16.6282 18.1231 16.6282 18.0176 16.6282C15.696 16.6282 13.3668 16.6282 11.0452 16.6282C10.9548 16.6282 10.8492 16.598 10.7814 16.6433C10.6834 16.7036 10.5477 16.8165 10.5477 16.907C10.5477 16.9899 10.6909 17.0955 10.7965 17.1558C10.8568 17.1935 10.9548 17.1633 11.0301 17.1633C13.3442 17.1633 15.6583 17.1633 17.9799 17.1633C18.0854 17.1633 18.1909 17.1633 18.3191 17.1633V19.093H17.9949C15.6733 19.093 13.3442 19.093 11.0226 19.093C10.9397 19.093 10.8417 19.0629 10.7889 19.1005C10.691 19.1684 10.5553 19.2738 10.5553 19.3643C10.5553 19.4547 10.6985 19.5528 10.7965 19.6206C10.8568 19.6583 10.9548 19.6281 11.0301 19.6281C13.3442 19.6281 15.6583 19.6281 17.9799 19.6281H18.3191V21.5578H17.9949C15.6733 21.5578 13.3442 21.5578 11.0226 21.5578C10.9322 21.5578 10.8266 21.5277 10.7588 21.5729C10.6683 21.6332 10.5477 21.7386 10.5477 21.8291C10.5477 21.9195 10.6683 22.0251 10.7663 22.0854C10.8342 22.1231 10.9397 22.1005 11.0301 22.1005C13.3668 22.1005 15.6959 22.1005 18.0326 22.1005H18.3341V24.0302H18.01C15.6884 24.0302 13.3593 24.0302 11.0377 24.0302C10.9472 24.0302 10.8417 24.0001 10.7739 24.0453C10.6834 24.1056 10.5553 24.211 10.5553 24.2939C10.5553 24.3844 10.6759 24.49 10.7663 24.5503C10.8342 24.5879 10.9397 24.5654 11.0301 24.5654C13.3668 24.5654 15.6959 24.5654 18.0326 24.5654H18.3341V27H18.0326C15.0025 27 11.9723 27 8.94221 27C8.27889 27 8 26.7211 8 26.0502C8 19.6583 8 13.2589 8 6.86694C8 6.29408 8.26383 6 8.81408 6C12.598 6 16.3819 6 20.1582 6C20.1959 6 20.2261 6.00001 20.2939 6.01509C20.2939 6.11308 20.2939 6.21116 20.2939 6.30162C20.2939 7.05538 20.2939 7.8016 20.2939 8.55537C20.2939 9.01517 20.505 9.23369 20.9648 9.23369C21.8015 9.23369 22.6457 9.23369 23.5201 9.23369L23.5125 9.22614ZM16.4346 11.4497C16.4346 9.64821 14.9799 8.17093 13.1784 8.15585C11.3919 8.14078 9.89195 9.61821 9.87687 11.4122C9.86179 13.2137 11.3467 14.7136 13.1558 14.7211C14.9497 14.7211 16.4271 13.2512 16.4346 11.4497ZM9.46231 17.201C9.50753 17.201 9.54523 17.201 9.59046 17.201C9.65076 17.0955 9.77136 16.9825 9.75629 16.877C9.74875 16.7865 9.58292 16.6282 9.51508 16.6357C9.40955 16.6583 9.26634 16.7941 9.2588 16.8921C9.25126 16.9825 9.38693 17.0955 9.46231 17.201ZM9.81658 19.4322V19.3041C9.71859 19.2287 9.61305 19.093 9.5226 19.1005C9.42461 19.1156 9.2814 19.2512 9.26632 19.3567C9.25125 19.4245 9.40953 19.5904 9.49999 19.6055C9.59798 19.6206 9.71105 19.4925 9.81658 19.4322ZM9.81658 21.8894C9.81658 21.8442 9.81658 21.8066 9.81658 21.7614C9.71105 21.6935 9.60552 21.5654 9.50753 21.5729C9.41708 21.5729 9.24372 21.7312 9.2588 21.7991C9.27387 21.9046 9.402 22.0553 9.49999 22.0703C9.59044 22.0854 9.70351 21.9573 9.80903 21.8894H9.81658ZM9.81658 24.3392C9.81658 24.294 9.81658 24.2563 9.81658 24.2111C9.71105 24.1433 9.60552 24.0227 9.50753 24.0302C9.41708 24.0377 9.25125 24.1959 9.26632 24.2637C9.2814 24.3693 9.41709 24.5126 9.51508 24.5276C9.60553 24.5427 9.7186 24.407 9.82412 24.3316L9.81658 24.3392Z" fill="#0671B8"/>
<path d="M20.8367 8.66086V6.52783C21.5377 7.22883 22.2688 7.9674 22.9548 8.66086H20.8367Z" fill="#0671B8"/>
<path d="M16.4346 11.4497C16.4346 13.2512 14.9497 14.7287 13.1557 14.7211C11.3467 14.7211 9.86932 13.2212 9.87686 11.4122C9.89194 9.61823 11.3844 8.1408 13.1784 8.15588C14.9874 8.17095 16.4422 9.6407 16.4346 11.4497ZM13.1633 14.1709C14.6859 14.1709 15.8995 12.9348 15.8919 11.4197C15.8844 9.91221 14.6633 8.69102 13.1633 8.69102C11.6633 8.69102 10.412 9.93484 10.4196 11.4348C10.4196 12.9424 11.6558 14.1785 13.1708 14.1709H13.1633Z" fill="white"/>
<path d="M16.9246 18.2339H14.618V25.2439H16.9246V18.2339Z" fill="#0671B8"/>
<path d="M16.6456 18.5129V24.9651H14.8969V18.5129H16.6456ZM17.2034 17.9551H14.3391V25.5305H17.2034V17.9551Z" fill="white"/>
<path d="M12.6054 20.4126H10.2914V25.2442H12.6054V20.4126Z" fill="#0671B8"/>
<path d="M12.3266 20.6911V24.9651H10.5704V20.6911H12.3266ZM12.8844 20.1333H10.0126V25.5228H12.8844V20.1333Z" fill="white"/>
<path d="M23.5501 25.176C23.5501 24.3434 22.8752 23.6685 22.0426 23.6685C21.21 23.6685 20.535 24.3434 20.535 25.176V25.4472C20.535 26.2798 21.21 26.9548 22.0426 26.9548C22.8752 26.9548 23.5501 26.2798 23.5501 25.4472V25.176Z" fill="#0671B8"/>
<path d="M21.2512 16.0625H18.9447V25.2358H21.2512V16.0625Z" fill="#0671B8"/>
<path d="M20.9723 16.3415V24.9571H19.2311V16.3415H20.9723ZM21.5301 15.7837H18.6658V25.5225H21.5301V15.7837Z" fill="white"/>
<path d="M13.1558 14.156C14.6627 14.156 15.8844 12.9344 15.8844 11.4275C15.8844 9.92047 14.6627 8.69873 13.1558 8.69873C11.6488 8.69873 10.4271 9.92047 10.4271 11.4275C10.4271 12.9344 11.6488 14.156 13.1558 14.156Z" fill="#FFB422"/>
<path d="M13.3894 13.2062C13.3894 13.1007 13.3894 13.0103 13.3894 12.9123C13.3894 12.8747 13.4045 12.852 13.4422 12.8444C13.51 12.8218 13.5703 12.7991 13.6306 12.769C14.0904 12.5278 14.2336 11.9852 13.9396 11.5782C13.7587 11.3294 13.4949 11.2088 13.1934 11.2013C13.0578 11.2013 12.9296 11.171 12.8241 11.0806C12.6733 10.9524 12.6507 10.749 12.7713 10.6058C12.907 10.44 13.0954 10.4023 13.2989 10.4475C13.4949 10.4927 13.6231 10.6058 13.6532 10.8169H14.1055C14.1055 10.7716 14.1055 10.7338 14.0979 10.7037C14.0301 10.357 13.8115 10.1384 13.4874 10.0329C13.4195 10.0103 13.4045 9.98022 13.412 9.91992C13.412 9.83701 13.412 9.74649 13.412 9.66357H12.9598C12.9598 9.74649 12.9598 9.82945 12.9598 9.90483C12.9673 9.98021 12.9447 10.0178 12.8693 10.0329C12.8316 10.0329 12.7864 10.0631 12.7487 10.0782C12.2663 10.3043 12.108 10.8695 12.4095 11.2841C12.5904 11.5328 12.8467 11.6534 13.1557 11.661C13.2839 11.661 13.4045 11.6912 13.51 11.7666C13.7135 11.9174 13.7135 12.1812 13.51 12.3319C13.216 12.5581 12.8165 12.4223 12.6959 12.0605H12.2512C12.2588 12.1208 12.2663 12.1735 12.2738 12.2263C12.3567 12.558 12.5829 12.754 12.8919 12.852C12.9371 12.8671 12.9598 12.8822 12.9522 12.935C12.9522 13.0254 12.9522 13.1233 12.9522 13.2138H13.4045L13.3894 13.2062Z" fill="white"/>
</svg>
