<svg width="32" height="32" viewBox="0 0 32 32" fill="none" xmlns="http://www.w3.org/2000/svg">
<path d="M16.7551 25.9997C16.4657 25.8702 16.3743 25.6492 16.3743 25.3446C16.3743 20.8734 16.3743 16.4024 16.3743 11.9312C16.3743 11.4513 16.5418 11.2837 17.0217 11.2837C19.7181 11.2837 22.4145 11.2837 25.1109 11.2837C25.606 11.2837 25.766 11.4437 25.766 11.9465C25.766 16.41 25.766 20.8734 25.766 25.3293C25.766 25.634 25.6746 25.855 25.4003 25.9921H16.7475L16.7551 25.9997ZM21.0815 12.3347C19.9618 12.3347 18.8498 12.3347 17.7301 12.3347C17.3721 12.3347 17.235 12.472 17.2274 12.83C17.2274 13.4926 17.2274 14.1628 17.2274 14.8255C17.2274 15.1987 17.3645 15.336 17.7377 15.336C19.9618 15.336 22.186 15.336 24.4101 15.336C24.7986 15.336 24.9357 15.1987 24.9357 14.8103C24.9357 14.1628 24.9357 13.5155 24.9357 12.8681C24.9357 12.4644 24.8062 12.3347 24.4025 12.3347C23.2981 12.3347 22.186 12.3347 21.0815 12.3347ZM24.9433 22.3359C24.9433 21.6199 24.9433 20.9039 24.9433 20.1879C24.9433 19.8375 24.791 19.6928 24.4482 19.6852C24.1131 19.6852 23.7855 19.6852 23.4504 19.6852C23.0848 19.6852 22.9477 19.8299 22.9477 20.2031C22.9477 21.6199 22.9477 23.0291 22.9477 24.4458C22.9477 24.7962 23.0848 24.9485 23.4428 24.9561C23.7627 24.9637 24.0902 24.9561 24.4101 24.9561C24.7986 24.9561 24.9434 24.7962 24.951 24.4077C24.951 23.7145 24.951 23.029 24.951 22.3359H24.9433ZM19.2306 23.9432C19.2306 23.7451 19.2306 23.5471 19.2306 23.3566C19.2154 23.0977 19.0859 22.9605 18.8345 22.9529C18.4461 22.9377 18.05 22.9453 17.6539 22.9529C17.3949 22.9529 17.2426 23.1053 17.235 23.3719C17.2274 23.7604 17.2274 24.1563 17.235 24.5524C17.2426 24.8037 17.3797 24.9485 17.6387 24.9561C18.0424 24.9713 18.4385 24.9713 18.8422 24.9561C19.0935 24.9485 19.223 24.8037 19.2306 24.5371C19.2382 24.3391 19.2306 24.141 19.2306 23.9506V23.9432ZM22.0794 23.9658C22.0794 23.7754 22.0794 23.5926 22.0794 23.4022C22.0794 23.3946 22.0794 23.3869 22.0794 23.3793C22.0641 23.1127 21.9347 22.9605 21.6681 22.9529C21.2796 22.9453 20.8835 22.9453 20.4874 22.9529C20.2208 22.9529 20.0837 23.1127 20.0761 23.3793C20.0761 23.7602 20.0761 24.1486 20.0761 24.5295C20.0761 24.7885 20.2056 24.9409 20.4569 24.9561C20.8683 24.9713 21.2796 24.9713 21.6833 24.9561C21.9346 24.9485 22.0641 24.7885 22.0717 24.5371C22.0717 24.3467 22.0717 24.1639 22.0717 23.9735L22.0794 23.9658ZM22.0794 17.4306C22.0794 17.2326 22.0794 17.0345 22.0794 16.8441C22.0717 16.5775 21.9347 16.4328 21.6681 16.4251C21.2796 16.4175 20.8835 16.4175 20.495 16.4251C20.2284 16.4251 20.0913 16.5775 20.0913 16.8441C20.0913 17.225 20.0913 17.6134 20.0913 17.9943C20.0913 18.2609 20.2361 18.4133 20.5026 18.4209C20.8911 18.4285 21.2872 18.4285 21.6757 18.4209C21.9347 18.4209 22.0794 18.2609 22.087 17.9943C22.087 17.8039 22.087 17.6211 22.087 17.4306H22.0794ZM19.2306 17.4306C19.2306 17.225 19.2306 17.0193 19.2306 16.8136C19.2154 16.5546 19.0859 16.4175 18.8269 16.4175C18.4384 16.4099 18.0424 16.4099 17.6539 16.4175C17.3949 16.4175 17.2502 16.5546 17.235 16.806C17.2198 17.2097 17.2198 17.6058 17.235 18.0095C17.235 18.2533 17.3949 18.4056 17.6387 18.4132C18.0271 18.4209 18.4232 18.4209 18.8117 18.4132C19.0783 18.4132 19.2154 18.2609 19.223 17.9943C19.2306 17.8039 19.223 17.6211 19.223 17.4306H19.2306ZM22.9401 17.4001C22.9401 17.5829 22.9401 17.7581 22.9401 17.9409C22.9401 17.9561 22.9401 17.9714 22.9401 17.9943C22.9553 18.2609 23.0848 18.4133 23.3514 18.4209C23.7398 18.4285 24.136 18.4285 24.5244 18.4209C24.7758 18.4209 24.9281 18.2685 24.9357 18.0171C24.951 17.6134 24.951 17.2173 24.9357 16.8136C24.9281 16.5775 24.7986 16.4251 24.5472 16.4251C24.1359 16.4175 23.7322 16.4175 23.3209 16.4251C23.0848 16.4251 22.9553 16.5699 22.9401 16.8212C22.9325 17.0193 22.9401 17.2097 22.9401 17.4078V17.4001ZM19.2306 20.6907C19.2306 20.4927 19.2306 20.3022 19.2306 20.1042C19.223 19.83 19.0859 19.6928 18.8193 19.6852C18.4309 19.6776 18.0348 19.6776 17.6463 19.6852C17.3797 19.6852 17.2426 19.8376 17.235 20.1042C17.2274 20.485 17.2274 20.8735 17.235 21.2544C17.235 21.5209 17.3873 21.6731 17.6539 21.6731C18.0424 21.6808 18.4384 21.6808 18.8269 21.6731C19.0935 21.6655 19.223 21.5209 19.2306 21.2467C19.2306 21.0563 19.2306 20.8735 19.2306 20.6831V20.6907ZM21.0968 19.6852C20.8911 19.6852 20.6855 19.6852 20.4798 19.6852C20.2285 19.7004 20.0837 19.8376 20.0837 20.0889C20.0837 20.4774 20.0837 20.8735 20.0837 21.262C20.0837 21.5133 20.2285 21.6655 20.4798 21.6731C20.8835 21.6884 21.2796 21.6884 21.6833 21.6731C21.927 21.6731 22.0794 21.5133 22.087 21.262C22.0946 20.8735 22.0946 20.4774 22.087 20.0889C22.087 19.8223 21.9347 19.6928 21.6681 19.6776C21.4776 19.6776 21.2948 19.6776 21.1044 19.6776L21.0968 19.6852Z" fill="#0671B8"/>
<path d="M20.8074 8.09253V10.7737C20.7007 10.7737 20.6093 10.7737 20.5179 10.7737C19.3601 10.7737 18.1947 10.7737 17.037 10.7737C16.2524 10.7737 15.8715 11.1546 15.8715 11.9315C15.8715 12.9903 15.8715 14.049 15.8715 15.1458C15.7573 15.1458 15.6583 15.1458 15.5669 15.1458C13.3504 15.1458 11.1338 15.1458 8.90968 15.1458C8.8259 15.1458 8.71925 15.1154 8.65831 15.1611C8.55929 15.222 8.43744 15.3285 8.43744 15.4123C8.43744 15.4961 8.57454 15.5952 8.67356 15.6485C8.72688 15.6866 8.82589 15.6561 8.90206 15.6561C11.111 15.6561 13.3199 15.6561 15.5288 15.6561C15.6278 15.6561 15.7345 15.6561 15.8563 15.6561V17.4994H15.544C13.3275 17.4994 11.111 17.4994 8.88681 17.4994C8.81064 17.4994 8.71163 17.4689 8.65831 17.507C8.56691 17.5679 8.43744 17.6746 8.43744 17.7584C8.43744 17.8422 8.57454 17.9413 8.67356 18.0022C8.72688 18.0403 8.82589 18.0098 8.90206 18.0098C11.111 18.0098 13.3199 18.0098 15.5288 18.0098H15.8563V19.8454H15.5516C13.3351 19.8454 11.1186 19.8454 8.89443 19.8454C8.81065 19.8454 8.704 19.815 8.64306 19.8607C8.55166 19.914 8.43744 20.0207 8.43744 20.1045C8.43744 20.1883 8.55166 20.2948 8.64306 20.3481C8.704 20.3862 8.81065 20.3633 8.89443 20.3633C11.1186 20.3633 13.3504 20.3633 15.5745 20.3633H15.864V22.1991H15.5516C13.3351 22.1991 11.1186 22.1991 8.89443 22.1991C8.81065 22.1991 8.704 22.1763 8.64306 22.2144C8.55166 22.2677 8.43744 22.3742 8.43744 22.458C8.43744 22.5418 8.55166 22.6485 8.64306 22.7018C8.704 22.7399 8.81065 22.717 8.89443 22.717C11.1186 22.717 13.3504 22.717 15.5745 22.717H15.864V25.0403H15.5745C12.6801 25.0403 9.79324 25.0403 6.8988 25.0403C6.26659 25.0403 6 24.7737 6 24.1339C6 18.0327 6 11.9315 6 5.83032C6 5.28189 6.25133 5 6.7769 5C10.3873 5 13.9978 5 17.6006 5C17.6311 5 17.6691 5.00001 17.7301 5.01525C17.7301 5.10665 17.7301 5.19795 17.7301 5.28936C17.7301 6.00535 17.7301 6.72139 17.7301 7.43739C17.7301 7.87917 17.9281 8.0849 18.3699 8.0849C19.1697 8.0849 19.9695 8.0849 20.8074 8.0849V8.09253ZM14.0588 10.2101C14.0588 8.48863 12.6725 7.08702 10.951 7.07179C9.24482 7.05656 7.81283 8.47337 7.80521 10.1796C7.78998 11.901 9.20672 13.3329 10.9281 13.3329C12.642 13.3329 14.0511 11.9315 14.0588 10.2101ZM7.40149 15.7019C7.43958 15.7019 7.48531 15.7019 7.52339 15.7019C7.58433 15.6028 7.69093 15.4885 7.68332 15.3971C7.6757 15.3057 7.51575 15.1535 7.45482 15.1687C7.3558 15.1916 7.21873 15.3209 7.20349 15.4123C7.19588 15.5037 7.32536 15.6028 7.39392 15.7019H7.40149ZM7.73664 17.8346V17.7127C7.64524 17.6441 7.54622 17.507 7.45482 17.5222C7.3558 17.5375 7.2263 17.667 7.21107 17.766C7.19584 17.8346 7.3482 17.9946 7.43199 18.0022C7.52339 18.0098 7.63762 17.8956 7.73664 17.8346ZM7.73664 20.1805C7.73664 20.1425 7.73664 20.0968 7.73664 20.0587C7.63762 19.9902 7.5386 19.8683 7.44719 19.8759C7.35579 19.8759 7.19584 20.0283 7.21107 20.0969C7.2263 20.1959 7.34821 20.3405 7.43962 20.3557C7.5234 20.3709 7.63762 20.2491 7.73664 20.1805ZM7.73664 22.519C7.73664 22.4809 7.73664 22.4353 7.73664 22.3972C7.63762 22.3363 7.53102 22.2144 7.43962 22.222C7.34821 22.2296 7.19584 22.3818 7.21107 22.4428C7.2263 22.5418 7.35579 22.6789 7.44719 22.6942C7.53098 22.7094 7.63762 22.5799 7.73664 22.5114V22.519Z" fill="#0671B8"/>
<path d="M18.2557 7.55192V5.51807C18.9184 6.18836 19.6191 6.89686 20.2742 7.55192H18.2557Z" fill="#0671B8"/>
<path d="M21.0816 12.335C22.1861 12.335 23.2981 12.335 24.4026 12.335C24.8063 12.335 24.9358 12.4646 24.9358 12.8683C24.9358 13.5157 24.9358 14.163 24.9358 14.8105C24.9358 15.1913 24.791 15.3362 24.4102 15.3362C22.186 15.3362 19.9619 15.3362 17.7377 15.3362C17.3645 15.3362 17.2274 15.199 17.2274 14.8257C17.2274 14.163 17.2274 13.4928 17.2274 12.8302C17.2274 12.4722 17.3721 12.335 17.7301 12.335C18.8498 12.335 19.9619 12.335 21.0816 12.335ZM24.4026 12.8607H17.753V14.8105H24.4026V12.8607Z" fill="white"/>
<path d="M24.9433 22.3362C24.9433 23.0294 24.9433 23.7149 24.9433 24.408C24.9433 24.7965 24.7986 24.9488 24.4025 24.9564C24.0826 24.9564 23.7551 24.964 23.4352 24.9564C23.0848 24.9488 22.9477 24.8041 22.9401 24.4461C22.9401 23.0294 22.9401 21.6202 22.9401 20.2034C22.9401 19.8302 23.0771 19.6932 23.4428 19.6855C23.7779 19.6855 24.1054 19.6855 24.4406 19.6855C24.7833 19.6855 24.9357 19.8454 24.9357 20.1882C24.9357 20.9042 24.9357 21.6202 24.9357 22.3362H24.9433ZM24.4101 24.4309V20.2111H23.458V24.4309H24.4101Z" fill="white"/>
<path d="M19.2308 23.9435C19.2308 24.1416 19.2308 24.3394 19.2308 24.5299C19.2231 24.7888 19.0936 24.9336 18.8423 24.9488C18.4386 24.9641 18.0425 24.9641 17.6388 24.9488C17.3798 24.9412 17.2427 24.7965 17.2351 24.5451C17.2199 24.1566 17.2275 23.7607 17.2351 23.3646C17.2351 23.098 17.3951 22.9533 17.654 22.9457C18.0425 22.938 18.4386 22.938 18.8347 22.9457C19.086 22.9457 19.2231 23.098 19.2308 23.3494C19.2384 23.5474 19.2308 23.7455 19.2308 23.9359V23.9435ZM18.6976 24.4309V23.4712H17.7531V24.4309H18.6976Z" fill="white"/>
<path d="M22.0794 23.9584C22.0794 24.1488 22.0794 24.3316 22.0794 24.522C22.0718 24.7734 21.9423 24.9334 21.6909 24.941C21.2796 24.9562 20.8683 24.9562 20.4646 24.941C20.2132 24.9334 20.0914 24.7736 20.0837 24.5146C20.0837 24.1338 20.0837 23.7453 20.0837 23.3644C20.0837 23.0978 20.2284 22.9455 20.495 22.9378C20.8835 22.9302 21.2796 22.9302 21.6757 22.9378C21.9347 22.9378 22.0718 23.0978 22.087 23.3644C22.087 23.3721 22.087 23.3795 22.087 23.3871C22.087 23.5775 22.087 23.7603 22.087 23.9508L22.0794 23.9584ZM20.6093 23.4634V24.4231H21.5538V23.4634H20.6093Z" fill="white"/>
<path d="M22.0794 17.4233C22.0794 17.6137 22.0794 17.7965 22.0794 17.987C22.0718 18.2536 21.9271 18.4059 21.6681 18.4136C21.2796 18.4212 20.8835 18.4212 20.495 18.4136C20.2284 18.4136 20.0914 18.2536 20.0837 17.987C20.0837 17.6061 20.0837 17.2176 20.0837 16.8368C20.0837 16.5702 20.2284 16.4178 20.4874 16.4178C20.8759 16.4102 21.272 16.4102 21.6605 16.4178C21.927 16.4178 22.0641 16.5702 22.0718 16.8368C22.0718 17.0348 22.0718 17.2253 22.0718 17.4233H22.0794ZM20.6093 17.8878H21.5614V16.9357H20.6093V17.8878Z" fill="white"/>
<path d="M19.2306 17.4309C19.2306 17.6214 19.2306 17.8042 19.2306 17.9946C19.223 18.2612 19.0859 18.4059 18.8193 18.4136C18.4308 18.4212 18.0347 18.4212 17.6462 18.4136C17.4025 18.4136 17.2502 18.2536 17.2426 18.0098C17.2273 17.6061 17.2273 17.21 17.2426 16.8063C17.2502 16.5549 17.4025 16.4254 17.6615 16.4178C18.05 16.4102 18.446 16.4102 18.8345 16.4178C19.0935 16.4178 19.223 16.5626 19.2382 16.8139C19.2458 17.0196 19.2382 17.2253 19.2382 17.4309H19.2306ZM17.7453 16.9357V17.8878H18.6898V16.9357H17.7453Z" fill="white"/>
<path d="M22.9325 17.4004C22.9325 17.2024 22.9325 17.0043 22.9325 16.8139C22.9477 16.5702 23.0772 16.4254 23.3133 16.4178C23.7247 16.4102 24.1283 16.4102 24.5397 16.4178C24.7834 16.4178 24.9205 16.5778 24.9281 16.8063C24.9434 17.21 24.9434 17.6061 24.9281 18.0098C24.9281 18.2536 24.7682 18.4059 24.5168 18.4136C24.1284 18.4212 23.7323 18.4212 23.3438 18.4136C23.0772 18.4136 22.9477 18.2612 22.9325 17.987C22.9325 17.9717 22.9325 17.9564 22.9325 17.9336C22.9325 17.7508 22.9325 17.5756 22.9325 17.3928V17.4004ZM23.4581 16.9357V17.8802H24.4102V16.9357H23.4581Z" fill="white"/>
<path d="M19.2307 20.6911C19.2307 20.8815 19.2307 21.0643 19.2307 21.2547C19.223 21.5289 19.0859 21.6735 18.8269 21.6811C18.4385 21.6888 18.0424 21.6888 17.6539 21.6811C17.395 21.6811 17.2426 21.5213 17.235 21.2624C17.2274 20.8815 17.2274 20.493 17.235 20.1122C17.235 19.838 17.3797 19.7008 17.6463 19.6932C18.0348 19.6856 18.4309 19.6856 18.8194 19.6932C19.086 19.6932 19.223 19.838 19.2307 20.1122C19.2383 20.3102 19.2307 20.5007 19.2307 20.6987V20.6911ZM18.6975 20.2035H17.7453V21.1632H18.6975V20.2035Z" fill="white"/>
<path d="M21.0969 19.6855C21.2873 19.6855 21.4701 19.6855 21.6605 19.6855C21.9271 19.6932 22.0718 19.8303 22.0794 20.0969C22.0871 20.4854 22.0871 20.8815 22.0794 21.2699C22.0794 21.5137 21.9271 21.6735 21.6758 21.6811C21.2721 21.6963 20.876 21.6963 20.4723 21.6811C20.2209 21.6735 20.0838 21.5213 20.0762 21.2699C20.0762 20.8815 20.0762 20.4854 20.0762 20.0969C20.0762 19.8455 20.2209 19.7084 20.4723 19.6932C20.6779 19.6856 20.8836 19.6932 21.0892 19.6932L21.0969 19.6855ZM21.5615 20.2034H20.6094V21.1556H21.5615V20.2034Z" fill="white"/>
<path d="M14.0588 10.2175C14.0588 11.9389 12.642 13.3403 10.9282 13.3403C9.20674 13.3403 7.79 11.9084 7.80524 10.187C7.82047 8.4808 9.24484 7.06399 10.951 7.07922C12.6725 7.09446 14.0664 8.49607 14.0588 10.2175ZM10.9358 12.8148C12.383 12.8148 13.5484 11.6342 13.5332 10.187C13.5256 8.75501 12.3602 7.58949 10.9282 7.58188C9.49618 7.58188 8.30794 8.77026 8.30794 10.2022C8.30794 11.6419 9.48857 12.8148 10.9358 12.8148Z" fill="white"/>
<path d="M7.40143 15.7017C7.33288 15.6027 7.19578 15.4959 7.21101 15.4122C7.22624 15.3131 7.35575 15.1914 7.46238 15.1685C7.52332 15.1533 7.68327 15.3055 7.69088 15.3969C7.6985 15.4959 7.59189 15.6027 7.53096 15.7017C7.49287 15.7017 7.44714 15.7017 7.40906 15.7017H7.40143Z" fill="white"/>
<path d="M7.73664 17.8347C7.63762 17.8956 7.5234 18.0099 7.43199 18.0023C7.34059 17.9946 7.19584 17.8346 7.21107 17.7661C7.23392 17.6671 7.36342 17.5375 7.45482 17.5223C7.53861 17.5147 7.64525 17.6442 7.74427 17.7127V17.8347H7.73664Z" fill="white"/>
<path d="M7.74428 20.1728C7.64526 20.2337 7.53099 20.3632 7.44721 20.3479C7.34819 20.3251 7.23394 20.1881 7.21871 20.0891C7.21109 20.0281 7.37104 19.8758 7.45483 19.8682C7.54623 19.8682 7.65288 19.9824 7.74428 20.051C7.74428 20.089 7.74428 20.1347 7.74428 20.1728Z" fill="white"/>
<path d="M7.74429 22.5187C7.64527 22.5873 7.53863 22.7168 7.45484 22.7015C7.35582 22.6863 7.23395 22.5491 7.21872 22.4501C7.2111 22.3892 7.36343 22.237 7.44722 22.2294C7.53862 22.2217 7.64527 22.336 7.74429 22.4045C7.74429 22.4426 7.74429 22.4883 7.74429 22.5263V22.5187Z" fill="white"/>
<path d="M24.4025 12.8608V14.8106H17.7529V12.8608H24.4025Z" fill="#FFB422"/>
<path d="M24.4101 24.4308H23.458V20.2109H24.4101V24.4308Z" fill="#FFB422"/>
<path d="M18.6974 24.4231H17.7529V23.4634H18.6974V24.4231Z" fill="#FFB422"/>
<path d="M20.6093 23.4634H21.5537V24.4231H20.6093V23.4634Z" fill="#FFB422"/>
<path d="M20.6093 17.8877V16.9355H21.5614V17.8877H20.6093Z" fill="#FFB422"/>
<path d="M17.7454 16.9355H18.6899V17.8877H17.7454V16.9355Z" fill="#FFB422"/>
<path d="M23.458 16.9355H24.4101V17.88H23.458V16.9355Z" fill="#FFB422"/>
<path d="M18.6975 20.2031V21.1629H17.7454V20.2031H18.6975Z" fill="#FFB422"/>
<path d="M21.5614 20.2031V21.1552H20.6093V20.2031H21.5614Z" fill="#FFB422"/>
<path d="M10.9281 12.9293C12.4341 12.9293 13.655 11.7085 13.655 10.2025C13.655 8.69651 12.4341 7.47559 10.9281 7.47559C9.42212 7.47559 8.20129 8.69651 8.20129 10.2025C8.20129 11.7085 9.42212 12.9293 10.9281 12.9293Z" fill="#FFB422"/>
<path d="M11.1643 11.9774C11.1643 11.8783 11.1643 11.7794 11.1643 11.688C11.1643 11.6499 11.172 11.6346 11.2177 11.6194C11.2786 11.5965 11.3471 11.5738 11.4081 11.5433C11.8651 11.3072 12.0098 10.7587 11.7128 10.355C11.53 10.1037 11.271 9.98943 10.9663 9.98181C10.8292 9.98181 10.6997 9.95122 10.5931 9.85982C10.4407 9.73033 10.4179 9.52476 10.5397 9.38004C10.6768 9.21247 10.8596 9.17441 11.0653 9.22012C11.2557 9.26582 11.3852 9.38006 11.4157 9.58571H11.8651C11.8651 9.54001 11.8651 9.50962 11.8575 9.47153C11.7889 9.12115 11.5757 8.90778 11.2481 8.80115C11.1872 8.7783 11.1643 8.75553 11.172 8.69459C11.172 8.6108 11.172 8.51933 11.172 8.43555H10.7226C10.7226 8.51933 10.7226 8.60317 10.7226 8.67934C10.7226 8.75551 10.7073 8.79354 10.6312 8.80877C10.5931 8.80877 10.5474 8.83928 10.5093 8.85452C10.0294 9.08303 9.86945 9.64655 10.1741 10.0579C10.3569 10.3092 10.6159 10.4235 10.9206 10.4387C11.0501 10.4387 11.172 10.4693 11.271 10.5455C11.469 10.6978 11.469 10.9568 11.271 11.1091C10.9739 11.3376 10.5778 11.2004 10.4636 10.8348H10.0142C10.0218 10.8957 10.0294 10.9492 10.037 10.9949C10.1208 11.3225 10.3417 11.5204 10.654 11.6194C10.6997 11.6346 10.715 11.6499 10.715 11.7033C10.715 11.7947 10.715 11.886 10.715 11.985H11.1643V11.9774Z" fill="white"/>
</svg>
