<svg width="32" height="32" viewBox="0 0 32 32" fill="none" xmlns="http://www.w3.org/2000/svg">
<path d="M11.8693 26.9998C12.0889 26.5605 12.1036 26.0918 12.0962 25.6159C12.0889 25.1985 12.0962 24.7811 12.0962 24.3271H25.4445V26.3261C25.3127 26.6409 25.0857 26.8607 24.7782 26.9925H11.8766L11.8693 26.9998Z" fill="#0671B8" stroke="#0671B8" stroke-width="0.10251" stroke-miterlimit="10"/>
<path d="M22.7573 23.4414H11.1957C11.1957 23.8808 11.1957 24.3054 11.1957 24.7301C11.1957 25.1695 11.1957 25.6015 11.1957 26.0408C11.1957 26.6119 10.8588 26.9634 10.317 26.9707C9.76051 26.9707 9.41636 26.6266 9.41636 26.0408C9.41636 21.2961 9.41636 16.5514 9.41636 11.7993C9.41636 11.0012 9.431 10.2031 9.41636 9.40496C9.40904 9.05349 9.35046 8.31396 9.41636 8.31396C13.5387 8.31396 17.6684 8.31396 21.7908 8.31396C22.3839 8.31396 22.7646 8.67277 22.7646 9.25122C22.7646 13.9227 22.7646 18.5942 22.7646 23.2657C22.7646 23.3096 22.7646 23.3536 22.7573 23.4414ZM13.7145 15.7972C13.7804 15.7972 13.8389 15.7825 13.8902 15.7825C14.6663 15.8484 15.3473 15.2846 15.296 14.3401C15.2887 14.1936 15.296 14.0398 15.2814 13.8933C15.2082 13.2197 14.7103 12.7657 14.0293 12.7584C13.6412 12.7584 13.2532 12.7584 12.8651 12.7584C12.1036 12.7584 12.0743 12.7292 12.089 11.9604C12.089 11.6382 12.2061 11.521 12.521 11.521C12.9969 11.521 13.4655 11.521 13.9415 11.521C14.2197 11.521 14.3735 11.6308 14.4174 11.9091C14.4613 12.1873 14.6517 12.3265 14.8933 12.3045C15.1569 12.2752 15.3546 12.4143 15.0764 12.4802C14.5345 12.5974 14.5931 12.2751 13.9707 12.2239C13.8243 12.2165 13.7584 11.8651 13.6046 11.8578C13.5827 11.5649 13.5387 12.224 13.2532 12.1947C13.0042 12.1728 13.0921 11.4917 12.953 11.9091C12.8358 11.9091 12.4477 12.0482 12.3159 12.0555C11.6569 12.0921 12.6527 13.2417 12.9456 12.6413C13.1726 12.1873 15.5596 12.817 15.545 13.3222C15.34 20.1757 7.45405 14.6916 12.4551 13.6518C12.8431 13.5713 13.2532 13.6518 13.6486 13.6518C14.3734 13.6518 14.4174 13.7029 14.4027 14.4205C14.4027 14.4425 14.4027 14.4572 14.4027 14.4791C14.3881 14.7647 14.2783 14.8892 13.9927 14.8892C13.4948 14.8892 12.9896 14.8892 12.4917 14.8892C12.25 14.8892 12.1182 14.7721 12.0816 14.5304C12.0377 14.2376 11.8473 14.0837 11.5984 14.113C11.3274 14.1423 11.181 14.34 11.203 14.6475C11.2469 15.2333 11.7228 15.7239 12.3159 15.7752C12.4697 15.7898 12.6235 15.7898 12.7772 15.7972C12.8578 16.1633 12.9896 16.3097 13.2458 16.3097C13.568 16.3097 13.6852 16.0827 13.7218 15.7972H13.7145ZM16.0795 18.7187C16.2259 18.7187 16.3724 18.7187 16.5262 18.7187C17.8515 18.7187 19.1768 18.7187 20.4947 18.7187C20.7876 18.7187 20.9634 18.5502 20.9707 18.2866C20.9707 18.0303 20.8023 17.8474 20.5167 17.8327C20.4508 17.8327 20.3849 17.8327 20.319 17.8327C17.4927 17.8327 14.6737 17.8327 11.8473 17.8327C11.7521 17.8327 11.6643 17.8327 11.5691 17.8474C11.3494 17.884 11.2323 18.0303 11.2103 18.25C11.181 18.5355 11.3787 18.726 11.7155 18.726C13.1726 18.726 14.6224 18.726 16.0795 18.726V18.7187ZM16.0649 21.3912C17.5366 21.3912 19.0084 21.3912 20.4801 21.3912C20.795 21.3912 20.9707 21.2229 20.9707 20.952C20.9707 20.6811 20.7876 20.5126 20.4801 20.5052C20.4215 20.5052 20.3703 20.5052 20.3117 20.5052C17.5 20.5052 14.681 20.5052 11.8693 20.5052C11.7668 20.5052 11.6643 20.5053 11.5618 20.5199C11.3201 20.5638 11.1664 20.7981 11.2176 21.0397C11.2762 21.318 11.4592 21.3985 11.7302 21.3985C13.1726 21.3985 14.6224 21.3985 16.0649 21.3985V21.3912ZM19.4257 9.61733C20.4362 9.00959 20.0334 8.62873 20.9926 9.87349C21.0732 9.976 21.1025 10.6351 20.9707 10.5326C20.9707 10.2617 20.7876 10.0932 20.4728 10.0932C19.2134 10.0932 17.954 10.0932 16.6946 10.0932C16.3724 10.0932 16.2113 10.1152 15.9331 10.0932C15.6768 10.0712 15.8598 9.91016 16.658 9.56602C17.4341 9.22188 19.4916 7.74287 19.4331 9.62465L19.4257 9.61733ZM19.2646 12.0775C20.2604 11.1476 21.3734 10.591 21.2123 12.59C21.5199 12.59 20.978 13.476 20.978 13.2051C20.978 12.9342 20.795 12.7657 20.4801 12.7657C19.2207 12.7657 17.9613 12.7657 16.7019 12.7657C16.3797 12.7657 16.9655 11.7479 16.9582 12.0262C16.9582 12.319 17.1412 12.5974 17.3243 12.3191C18.2542 10.9353 18.7741 11.4478 19.272 12.0848L19.2646 12.0775ZM19.6234 14.4498C20.546 13.8641 22.2521 11.9676 21.3368 15.16C21.2489 15.4603 20.978 15.885 20.9707 15.6141C20.9707 15.3432 20.7876 15.1747 20.4728 15.1674C19.2134 15.1674 17.954 15.1674 16.6946 15.1674C16.3651 15.1674 16.5847 14.0032 16.5994 14.2961C16.6067 14.5743 16.6799 14.7793 17.0094 14.7866C18.1224 13.908 20.2824 12.1653 19.6234 14.4572V14.4498Z" fill="#0671B8" stroke="#0671B8" stroke-width="0.10251" stroke-miterlimit="10"/>
<path d="M16.0795 18.7185C14.6224 18.7185 13.1726 18.7185 11.7155 18.7185C11.3714 18.7185 11.1737 18.5282 11.2103 18.2426C11.2322 18.0303 11.3494 17.8838 11.569 17.8399C11.6569 17.8252 11.7521 17.8252 11.8473 17.8252C14.6736 17.8252 17.4927 17.8252 20.319 17.8252C20.3849 17.8252 20.4508 17.8252 20.5167 17.8252C20.8023 17.8472 20.978 18.0228 20.9707 18.2791C20.9707 18.5427 20.7949 18.7111 20.4947 18.7111C19.1694 18.7111 17.8441 18.7111 16.5261 18.7111C16.3797 18.7111 16.2332 18.7111 16.0795 18.7111V18.7185Z" fill="white"/>
<path d="M16.0648 21.3837C14.6224 21.3837 13.1726 21.3837 11.7301 21.3837C11.4665 21.3837 11.2762 21.3032 11.2176 21.0249C11.1663 20.7833 11.3128 20.5563 11.5617 20.5051C11.6569 20.4831 11.7667 20.4904 11.8692 20.4904C14.6809 20.4904 17.5 20.4904 20.3117 20.4904C20.3702 20.4904 20.4215 20.4904 20.4801 20.4904C20.7876 20.5051 20.9706 20.6662 20.9706 20.9372C20.9706 21.2081 20.7949 21.3764 20.4801 21.3764C19.0083 21.3764 17.5366 21.3764 16.0648 21.3764V21.3837Z" fill="white"/>
<path d="M13.2897 14.7721C12.0962 14.7721 11.1223 13.7983 11.1223 12.6048C11.1223 11.4113 12.0962 10.4375 13.2897 10.4375C14.4832 10.4375 15.457 11.4113 15.457 12.6048C15.457 13.7983 14.4832 14.7721 13.2897 14.7721Z" fill="#FFB422"/>
<path d="M13.2897 10.6132C14.3881 10.6132 15.2814 11.5064 15.2814 12.6048C15.2814 13.7031 14.3881 14.5964 13.2897 14.5964C12.1914 14.5964 11.2981 13.7031 11.2981 12.6048C11.2981 11.5064 12.1914 10.6132 13.2897 10.6132ZM13.2897 10.269C12.001 10.269 10.954 11.3161 10.954 12.6048C10.954 13.8935 12.001 14.9407 13.2897 14.9407C14.5784 14.9407 15.6255 13.8935 15.6255 12.6048C15.6255 11.3161 14.5784 10.269 13.2897 10.269Z" fill="white"/>
<path d="M13.4874 14.128C13.4874 14.0401 13.4874 13.9595 13.4874 13.879C13.4874 13.8423 13.4947 13.8278 13.5313 13.8205C13.5899 13.8059 13.6412 13.7838 13.6924 13.7545C14.0878 13.5495 14.205 13.081 13.956 12.7368C13.8022 12.5245 13.5753 12.4218 13.319 12.4145C13.2018 12.4145 13.092 12.3853 13.0041 12.3121C12.8723 12.2023 12.8504 12.0265 12.9602 11.902C13.0774 11.7629 13.2384 11.7263 13.4068 11.7629C13.5679 11.7995 13.6851 11.8947 13.7071 12.0777H14.0878C14.0878 12.0777 14.0878 12.0119 14.0805 11.9753C14.0219 11.6751 13.8389 11.492 13.5533 11.4042C13.4947 11.3895 13.4874 11.3601 13.4874 11.3089C13.4874 11.2357 13.4874 11.1626 13.4874 11.0894H13.0993C13.0993 11.1626 13.0993 11.2283 13.0993 11.3015C13.0993 11.3674 13.0847 11.3968 13.0188 11.4115C12.9822 11.4115 12.9529 11.4335 12.9163 11.4481C12.5062 11.6458 12.3671 12.1217 12.6234 12.4732C12.7771 12.6855 12.9968 12.788 13.2604 12.7953C13.3702 12.7953 13.4727 12.8173 13.5606 12.8906C13.729 13.0224 13.729 13.242 13.5606 13.3738C13.3043 13.5715 12.9675 13.4543 12.865 13.1394H12.4843C12.4916 13.1907 12.4916 13.2347 12.5062 13.2787C12.5794 13.5642 12.7698 13.7326 13.0407 13.8132C13.0847 13.8278 13.092 13.8423 13.092 13.8863C13.092 13.9668 13.092 14.0474 13.092 14.128H13.4801H13.4874Z" fill="white"/>
<path d="M18.8618 14.7721C17.6683 14.7721 16.6945 13.7983 16.6945 12.6048C16.6945 11.4113 17.6683 10.4375 18.8618 10.4375C20.0553 10.4375 21.0292 11.4113 21.0292 12.6048C21.0292 13.7983 20.0553 14.7721 18.8618 14.7721Z" fill="#FFB422"/>
<path d="M18.8619 10.6132C19.9602 10.6132 20.8535 11.5064 20.8535 12.6048C20.8535 13.7031 19.9602 14.5964 18.8619 14.5964C17.7636 14.5964 16.8703 13.7031 16.8703 12.6048C16.8703 11.5064 17.7636 10.6132 18.8619 10.6132ZM18.8619 10.269C17.5732 10.269 16.5261 11.3161 16.5261 12.6048C16.5261 13.8935 17.5732 14.9407 18.8619 14.9407C20.1506 14.9407 21.1976 13.8935 21.1976 12.6048C21.1976 11.3161 20.1506 10.269 18.8619 10.269Z" fill="white"/>
<path d="M19.0522 14.128C19.0522 14.0401 19.0522 13.9595 19.0522 13.879C19.0522 13.8423 19.0595 13.8278 19.0961 13.8205C19.1547 13.8059 19.206 13.7838 19.2572 13.7545C19.6526 13.5495 19.7698 13.081 19.5208 12.7368C19.3671 12.5245 19.1401 12.4218 18.8838 12.4145C18.7667 12.4145 18.6568 12.3853 18.5689 12.3121C18.4371 12.2023 18.4152 12.0265 18.525 11.902C18.6422 11.7629 18.8033 11.7263 18.9717 11.7629C19.1328 11.7995 19.2499 11.8947 19.2719 12.0777H19.6526C19.6526 12.0777 19.6526 12.0119 19.6453 11.9753C19.5867 11.6751 19.4037 11.492 19.1181 11.4042C19.0595 11.3895 19.0522 11.3601 19.0522 11.3089C19.0522 11.2357 19.0522 11.1626 19.0522 11.0894H18.6641C18.6641 11.1626 18.6641 11.2283 18.6641 11.3015C18.6641 11.3674 18.6495 11.3968 18.5836 11.4115C18.547 11.4115 18.5177 11.4335 18.4811 11.4481C18.071 11.6458 17.9319 12.1217 18.1882 12.4732C18.342 12.6855 18.5616 12.788 18.8252 12.7953C18.935 12.7953 19.0376 12.8173 19.1254 12.8906C19.2938 13.0224 19.2938 13.242 19.1254 13.3738C18.8692 13.5715 18.5323 13.4543 18.4298 13.1394H18.0491C18.0564 13.1907 18.0564 13.2347 18.071 13.2787C18.1443 13.5642 18.3346 13.7326 18.6056 13.8132C18.6495 13.8278 18.6568 13.8423 18.6568 13.8863C18.6568 13.9668 18.6568 14.0474 18.6568 14.128H19.0449H19.0522Z" fill="white"/>
<path d="M20.0846 6.24902C20.0846 6.16115 19.9748 6.08054 19.9162 6H7V24.0785C7.08054 24.2542 7.21234 24.3273 7.41004 24.32C7.80543 24.3053 8.1935 24.32 8.61818 24.32V24.0345C8.61818 18.9017 8.61818 13.7689 8.61818 8.63604C8.61818 8.62872 8.61818 8.62137 8.61818 8.60672V7.60368H9.60668C10.6537 7.60368 11.7008 7.60368 12.7479 7.60368H20.092C20.092 7.14239 20.0993 6.69567 20.0846 6.24902Z" fill="#FFB422"/>
</svg>
