<svg width="32" height="32" viewBox="0 0 32 32" fill="none" xmlns="http://www.w3.org/2000/svg">
<path d="M21.2145 26.9024H10.2279C10.1628 26.8879 10.0977 26.8662 10.0325 26.8589C8.62844 26.6346 7.62967 25.9109 7.1737 24.5285C7.08685 24.2679 7.0579 23.9857 7 23.7179C7 23.3126 7 22.9 7 22.4947C7.02895 22.227 7.05066 21.9592 7.07961 21.6914C7.21713 20.49 7.4632 19.3175 8.04944 18.2463C8.69358 17.0666 9.65617 16.3428 11.0023 16.1402C11.5017 16.0678 11.9577 16.1112 12.3775 16.4224C12.6091 16.5962 12.8552 16.7409 13.094 16.8857C14.8455 17.9641 16.5897 17.9641 18.3412 16.8857C18.6452 16.6975 18.9274 16.4948 19.2387 16.3211C19.4268 16.2198 19.644 16.1112 19.8466 16.1112C20.773 16.104 21.6198 16.3573 22.3435 16.958C23.1686 17.6456 23.6318 18.5648 23.9358 19.5636C24.3339 20.8663 24.4641 22.2125 24.428 23.5731C24.3918 25.0641 23.4798 26.2799 22.0541 26.7214C21.779 26.8083 21.4895 26.8517 21.2073 26.9169L21.2145 26.9024Z" fill="#0671B8"/>
<path d="M20.7585 11.0301C20.7585 13.8166 18.5221 16.053 15.7284 16.0674C12.9492 16.0819 10.6766 13.8093 10.6911 11.0229C10.6983 8.22918 12.9492 5.99278 15.7284 6.00002C18.5149 6.00002 20.7585 8.2509 20.7585 11.0374V11.0301Z" fill="#FFB422"/>
</svg>
