<svg width="32" height="32" viewBox="0 0 32 32" fill="none" xmlns="http://www.w3.org/2000/svg">
<path d="M15.9261 5.0166C15.9597 5.70561 15.9933 6.38622 16.0353 7.07523C16.0942 8.09193 16.1614 9.10865 16.2286 10.1254C16.2286 10.1674 16.2286 10.2094 16.2286 10.2682H14.0355C14.0691 9.66322 14.1111 9.07504 14.1448 8.48686C14.212 7.33571 14.2792 6.17615 14.3464 5.025C14.8758 5.025 15.4051 5.025 15.9261 5.025V5.0166Z" fill="#FFB422"/>
<path d="M13.5902 5.0166C13.5482 5.79804 13.5062 6.57947 13.4558 7.36091C13.397 8.3188 13.3382 9.27669 13.2709 10.2514H11.0779C11.1535 9.82286 11.2375 9.39433 11.3132 8.9658C11.5568 7.68861 11.7921 6.40303 12.0358 5.12584C12.0358 5.09223 12.0358 5.05021 12.0358 5.0166C12.5483 5.0166 13.0609 5.0166 13.5734 5.0166H13.5902Z" fill="#FFB422"/>
<path d="M18.2116 5.01671C18.3461 5.78134 18.4889 6.54598 18.6233 7.30221C18.8082 8.2769 18.9931 9.26 19.1779 10.2515H16.9849C16.9597 9.87339 16.9344 9.50367 16.9176 9.13396C16.8336 7.82316 16.7496 6.51236 16.674 5.20997C16.674 5.14275 16.674 5.07552 16.674 5.0083C17.1865 5.0083 17.6991 5.0083 18.2116 5.0083V5.01671Z" fill="#FFB422"/>
<path d="M11.3047 5.0166C10.9938 6.6551 10.6913 8.29359 10.3804 9.93209C10.3048 10.327 10.3972 10.2682 9.98551 10.2766C9.39733 10.2766 8.80076 10.2766 8.18738 10.2766C8.22099 10.1842 8.23779 10.1169 8.263 10.0497C8.85958 8.44484 9.46455 6.84836 10.0611 5.24347C10.0863 5.16785 10.1032 5.09222 10.1284 5.0166C10.5233 5.0166 10.9182 5.0166 11.3131 5.0166H11.3047Z" fill="#FFB422"/>
<path d="M20.1442 5.0166C20.3458 5.56277 20.5391 6.11733 20.7408 6.6635C21.1609 7.79784 21.5894 8.92378 22.0095 10.0497C22.0348 10.1085 22.0516 10.1758 22.0768 10.2514C22.018 10.2598 21.9759 10.2766 21.9255 10.2766C21.3289 10.2766 20.724 10.2766 20.1274 10.2766C19.9761 10.2766 19.9341 10.2178 19.9089 10.0833C19.6064 8.46165 19.3039 6.84835 19.0014 5.23506C18.9846 5.15944 18.9762 5.09222 18.9594 5.0166C19.3543 5.0166 19.7493 5.0166 20.1442 5.0166Z" fill="#FFB422"/>
<path d="M21.5979 5.0166C22.0516 5.15104 22.3121 5.47875 22.5306 5.87367C23.2952 7.26849 24.085 8.64651 24.8665 10.0329C24.9085 10.1001 24.9421 10.1674 24.9925 10.2766C24.6816 10.2766 24.4043 10.2766 24.1355 10.2766C23.7742 10.2766 23.4128 10.2766 23.0599 10.2766C22.9927 10.2766 22.8835 10.2178 22.8667 10.159C22.2197 8.44484 21.5811 6.73072 20.9425 5.025C21.161 5.025 21.3794 5.025 21.6063 5.025L21.5979 5.0166Z" fill="#FFB422"/>
<path d="M9.32166 5.01681C8.87632 6.21837 8.43099 7.41994 7.98565 8.6131C7.8008 9.11726 7.61596 9.61301 7.4227 10.1088C7.39749 10.176 7.29665 10.26 7.22943 10.26C6.61604 10.2684 6.00265 10.26 5.38086 10.26C5.35565 10.26 5.33044 10.2516 5.28003 10.2432C5.33044 10.1508 5.37246 10.0667 5.41447 9.98272C6.17911 8.62151 6.96056 7.26029 7.71679 5.88227C7.94366 5.47895 8.19573 5.13444 8.65787 5C8.87634 5 9.09479 5 9.32166 5V5.01681Z" fill="#FFB422"/>
<path d="M13.6238 13.2849C14.5145 14.31 15.8337 14.2344 16.6487 13.2849C17.0352 13.7554 17.531 14.0243 18.1444 14.0243C18.7493 14.0243 19.2451 13.7554 19.64 13.2681C20.0349 13.747 20.5223 14.0243 21.1357 14.0243C21.7406 14.0243 22.2364 13.7638 22.6397 13.2681C23.0262 13.747 23.522 13.9991 24.1438 14.0327V14.2848C24.1438 17.7718 24.1438 21.2589 24.1438 24.7544C24.1438 25.5946 23.6985 26.04 22.8498 26.04C17.7074 26.04 12.5567 26.04 7.4143 26.04C6.55724 26.04 6.1203 25.5946 6.1203 24.7376C6.1203 21.2589 6.1203 17.7718 6.1203 14.2932V14.0411C6.73369 14.0075 7.23785 13.7722 7.62437 13.2765C8.01929 13.7638 8.51504 14.0327 9.12843 14.0327C9.73341 14.0327 10.2292 13.7722 10.6241 13.2765C11.019 13.7554 11.5064 14.0243 12.1197 14.0327C12.7331 14.0327 13.2373 13.7722 13.6154 13.2933L13.6238 13.2849ZM16.5899 16.5283C16.5479 16.2762 16.5143 16.0829 16.4723 15.8897C16.3798 15.4191 16.0857 15.167 15.5984 15.1586C15.3211 15.1586 15.0438 15.1586 14.7665 15.1586C14.1616 15.1586 13.8675 15.4107 13.775 16.0157C13.7498 16.167 13.7246 16.3266 13.6826 16.5367C13.4641 16.3854 13.2961 16.2594 13.1196 16.1417C12.7583 15.8981 12.355 15.9317 12.0357 16.2342C11.834 16.4274 11.6408 16.6291 11.4475 16.8224C10.9854 17.2845 10.9602 17.629 11.3299 18.1584C11.4223 18.2844 11.5064 18.4104 11.624 18.5785C11.3719 18.6205 11.1786 18.6625 10.9854 18.6961C10.5401 18.7717 10.2544 19.091 10.246 19.5364C10.246 19.8473 10.246 20.1498 10.246 20.4607C10.246 20.9984 10.5149 21.3009 11.0442 21.3849C11.2207 21.4101 11.3887 21.4522 11.6156 21.4942C11.4643 21.7126 11.3467 21.8723 11.2291 22.0403C10.977 22.4101 11.0106 22.8218 11.3215 23.1411C11.5315 23.3595 11.7584 23.578 11.9769 23.7965C12.3466 24.1578 12.7415 24.1914 13.1616 23.8973C13.3129 23.7881 13.4725 23.6872 13.6658 23.5528C13.7078 23.8049 13.7498 24.0065 13.7918 24.2082C13.8843 24.6619 14.1784 24.9056 14.6405 24.914C14.9094 24.914 15.1867 24.914 15.4556 24.914C16.1362 24.914 16.3966 24.6871 16.4975 24.0233C16.5227 23.8805 16.5563 23.7377 16.5899 23.5528C16.8 23.6956 16.9596 23.8133 17.1192 23.9225C17.4974 24.183 17.9091 24.1494 18.2368 23.8301C18.4301 23.6452 18.6149 23.4604 18.7998 23.2671C19.2871 22.7798 19.3123 22.4437 18.909 21.8807C18.825 21.7631 18.7494 21.6454 18.6401 21.4942C18.8838 21.4522 19.0771 21.4185 19.2703 21.3849C19.7325 21.3009 20.0097 20.9816 20.0097 20.5195C20.0097 20.2086 20.0097 19.9061 20.0097 19.5952C20.0097 19.091 19.7493 18.7886 19.2535 18.6961C19.0602 18.6625 18.8754 18.6289 18.6401 18.5785C18.783 18.3768 18.9006 18.2172 19.0098 18.0575C19.2787 17.6626 19.2451 17.2593 18.9174 16.9232C18.7073 16.7047 18.4973 16.4947 18.2788 16.2846C17.9007 15.9149 17.5142 15.8813 17.0772 16.1922C16.926 16.293 16.7832 16.4022 16.5899 16.5367V16.5283Z" fill="#0671B8"/>
<path d="M14.0188 11.0416H16.279C16.2538 11.5289 16.279 12.0079 16.195 12.4616C16.1026 12.9742 15.5648 13.3187 15.0607 13.2767C14.5145 13.2347 14.0692 12.8481 14.0271 12.3104C13.9935 11.8987 14.0271 11.4785 14.0271 11.0332L14.0188 11.0416Z" fill="#FFB422"/>
<path d="M5.0112 11.0415H7.21267C7.21267 11.512 7.26308 11.9742 7.20426 12.4279C7.13704 12.9489 6.58247 13.3186 6.05311 13.285C5.49854 13.243 5.04481 12.8144 5.0112 12.2767C4.986 11.8734 5.0112 11.47 5.0112 11.0499V11.0415Z" fill="#FFB422"/>
<path d="M23.0178 11.0415H25.2193C25.2193 11.5204 25.2781 11.9994 25.2025 12.4615C25.1184 12.9909 24.5638 13.327 24.0513 13.2766C23.4883 13.2262 23.0514 12.7976 23.0178 12.2347C22.9926 11.8481 23.0178 11.4616 23.0178 11.0415Z" fill="#FFB422"/>
<path d="M13.2373 11.0415C13.2373 11.4952 13.271 11.9322 13.2289 12.3691C13.1701 12.8817 12.6744 13.2766 12.145 13.2766C11.5988 13.2766 11.1031 12.8985 11.0359 12.3439C10.9854 11.9238 11.0275 11.4868 11.0275 11.0415H13.2373Z" fill="#FFB422"/>
<path d="M17.0184 11.0415H19.2871C19.2619 11.5289 19.2871 12.0246 19.1863 12.4951C19.0855 13.0077 18.5141 13.3438 18.0015 13.2682C17.4386 13.1926 17.0268 12.764 17.01 12.2095C16.9932 11.8229 17.01 11.4364 17.01 11.0415H17.0184Z" fill="#FFB422"/>
<path d="M10.246 11.0415C10.246 11.47 10.2712 11.8818 10.246 12.2851C10.204 12.8565 9.66621 13.3018 9.10324 13.2766C8.51506 13.2514 8.0361 12.7808 8.0193 12.1926C8.0109 11.8145 8.0193 11.4364 8.0193 11.0415H10.2628H10.246Z" fill="#FFB422"/>
<path d="M20.0097 11.0415H22.2448C22.2448 11.4868 22.2868 11.9238 22.2364 12.3607C22.1692 12.9321 21.6062 13.3354 21.06 13.285C20.4718 13.2346 20.0265 12.764 20.0181 12.1843C20.0181 11.8145 20.0181 11.4448 20.0181 11.0499L20.0097 11.0415Z" fill="#FFB422"/>
<path d="M17.6486 16.705C17.9007 16.9571 18.1528 17.2007 18.388 17.4444C18.4216 17.478 18.4132 17.5788 18.388 17.6293C18.2956 17.7805 18.1864 17.915 18.0855 18.0662C17.7662 18.5704 18.0099 19.1837 18.5897 19.335C18.6989 19.3602 18.8082 19.377 18.9174 19.3938C19.1583 19.433 19.2787 19.5703 19.2787 19.8055C19.2787 20.0072 19.2787 20.2173 19.2787 20.4189C19.2787 20.5618 19.2535 20.6374 19.0938 20.6542C18.951 20.6626 18.8082 20.6962 18.6569 20.7214C18.0267 20.8306 17.7494 21.486 18.1023 22.0154C18.1864 22.1414 18.262 22.2591 18.3544 22.3683C18.4552 22.4859 18.4552 22.57 18.3376 22.6792C18.1444 22.8557 17.9595 23.0489 17.7746 23.2338C17.6906 23.3262 17.615 23.3346 17.5141 23.259C17.3797 23.1581 17.2453 23.0573 17.1024 22.9649C16.5899 22.6372 15.9681 22.8977 15.8336 23.4942C15.8 23.6539 15.7664 23.8135 15.7496 23.9732C15.7328 24.116 15.6656 24.1581 15.5312 24.1497C15.2707 24.1497 15.0018 24.1413 14.7413 24.1497C14.5733 24.1497 14.5229 24.0908 14.506 23.9396C14.4892 23.7799 14.464 23.6203 14.422 23.4606C14.2876 22.9061 13.6826 22.654 13.1952 22.9481C13.0356 23.0405 12.8928 23.1498 12.7499 23.2674C12.6575 23.343 12.5819 23.3262 12.5062 23.2422C12.313 23.0405 12.1197 22.8388 11.9181 22.654C11.8172 22.5616 11.8256 22.4859 11.9012 22.3935C11.9937 22.2759 12.0861 22.1498 12.1701 22.0154C12.5314 21.4692 12.2541 20.8222 11.6072 20.7046C11.4139 20.671 11.145 20.6878 11.0526 20.5702C10.9518 20.4441 11.0022 20.1836 11.0022 19.982C11.0022 19.4442 11.0022 19.4442 11.5399 19.3518C12.2626 19.2342 12.5399 18.5788 12.1281 17.9822C11.9097 17.6685 11.9377 17.3772 12.2121 17.1083C12.4866 16.8394 12.7779 16.8142 13.086 17.0327C13.6742 17.4444 14.3128 17.1839 14.4556 16.4865C14.4808 16.3605 14.5061 16.226 14.5145 16.1C14.5229 15.9488 14.5985 15.9067 14.7413 15.9067C14.9934 15.9067 15.2539 15.9151 15.5144 15.9067C15.6656 15.9067 15.7412 15.9404 15.758 16.1084C15.7664 16.2597 15.8 16.4109 15.8336 16.5621C15.9597 17.1503 16.5899 17.4192 17.1024 17.0915C17.2789 16.9739 17.4469 16.8478 17.6486 16.705ZM17.3797 20.0324C17.3797 18.7972 16.3798 17.7889 15.153 17.7805C13.8926 17.7805 12.8844 18.7972 12.8844 20.066C12.8844 21.2928 13.9095 22.3011 15.1362 22.2927C16.3882 22.2843 17.3797 21.2844 17.3797 20.0324Z" fill="#0671B8"/>
<path d="M16.6319 20.0404C16.6319 20.8638 15.9597 21.536 15.1362 21.536C14.3044 21.536 13.6322 20.8554 13.6406 20.0152C13.6406 19.1917 14.3296 18.5195 15.153 18.5279C15.9765 18.5363 16.6403 19.2085 16.6403 20.0404H16.6319Z" fill="#0671B8"/>
<circle cx="23" cy="11" r="5.5" fill="#0671B8" stroke="white"/>
<path d="M23.6477 8.18182V14H22.9432V8.92045H22.9091L21.4886 9.86364V9.14773L22.9432 8.18182H23.6477Z" fill="white"/>
</svg>
