<svg width="32" height="32" viewBox="0 0 32 32" fill="none" xmlns="http://www.w3.org/2000/svg">
<path d="M4 25.2639C4 24.9609 4 24.6579 4 24.355C4 24.0438 4.16381 23.8718 4.4504 23.8555C4.50772 23.8555 4.55681 23.8555 4.61412 23.8555C12.2047 23.8555 19.7871 23.8555 27.3777 23.8555C27.6397 23.8555 27.8444 23.9128 28 24.1502V25.2639H4Z" fill="#0671B8"/>
<path d="M17.7072 12.6375C18.698 13.9149 20.2539 13.8248 21.1382 12.6375C21.5804 13.2188 22.1371 13.5627 22.8413 13.5627C23.5455 13.5627 24.1106 13.2352 24.5118 12.703C24.954 13.0141 25.3716 13.3007 25.8465 13.6283V22.8974H22.4319V22.5945C22.4319 20.7275 22.4319 18.8524 22.4319 16.9855C22.4319 16.0111 21.9079 15.4379 21.0154 15.4379C17.6663 15.4379 14.3255 15.4379 10.9765 15.4379C10.1003 15.4379 9.5763 16.0111 9.5763 16.9609C9.5763 18.8278 9.5763 20.703 9.5763 22.5699C9.5763 22.6763 9.5763 22.7828 9.5763 22.8974H6.16994V13.6119C6.62029 13.3007 7.03788 13.0141 7.48824 12.703C7.88128 13.2107 8.4381 13.5546 9.1423 13.5546C9.8383 13.5546 10.3951 13.2352 10.8536 12.6211C11.304 13.2025 11.8609 13.5464 12.5569 13.5546C13.2611 13.5546 13.826 13.227 14.2846 12.6211C14.7349 13.2188 15.2999 13.5546 16.0041 13.5546C16.7001 13.5546 17.2569 13.227 17.7072 12.6211V12.6375Z" fill="#0671B8"/>
<path d="M15.5537 22.9219H10.4279V22.6353C10.4279 20.7683 10.4279 18.8932 10.4279 17.0263C10.4279 16.5268 10.5589 16.3794 11.0092 16.3794C12.434 16.3794 13.8669 16.3794 15.2917 16.3794H15.5456V22.9219H15.5537ZM15.1443 19.8922C15.1443 19.8267 15.1443 19.753 15.1443 19.6875C15.1279 19.3845 14.9642 19.188 14.7186 19.188C14.4729 19.188 14.3009 19.3845 14.2928 19.6793C14.2928 19.7857 14.2928 19.8922 14.2928 19.9986C14.2928 20.3671 14.4484 20.58 14.7186 20.5882C14.9888 20.5882 15.1443 20.3753 15.1525 20.0068C15.1525 19.9659 15.1525 19.9249 15.1525 19.8922H15.1443Z" fill="#0671B8"/>
<path d="M16.4463 16.3716H20.7206C21.5312 16.3716 21.5722 16.4125 21.5722 17.2887C21.5722 19.0492 21.5722 20.8178 21.5722 22.5783V22.9059H16.4463V16.3716ZM17.7072 19.9007C17.7072 19.8352 17.7072 19.7615 17.7072 19.696C17.699 19.3767 17.519 19.172 17.2733 19.1802C17.0277 19.1802 16.8639 19.3849 16.8557 19.6879C16.8557 19.8434 16.8475 19.999 16.8557 20.1546C16.8803 20.4084 17.0685 20.5968 17.2896 20.5804C17.5271 20.564 17.6663 20.4166 17.7072 20.1628C17.7236 20.0809 17.7072 19.9908 17.7072 19.9007Z" fill="#0671B8"/>
<path d="M8.11876 9.82892C8.46267 9.08379 8.81481 8.39598 9.08502 7.67541C9.28154 7.14317 9.55991 6.94664 10.0758 7.01214C10.5343 7.06946 11.001 7.02034 11.4923 7.02034C11.4678 7.11041 11.4596 7.1841 11.4351 7.24961C11.1648 8.04388 10.8946 8.82995 10.6162 9.61603C10.5835 9.7061 10.4688 9.81256 10.3869 9.81256C9.64999 9.82893 8.91302 9.82074 8.11876 9.82074V9.82892Z" fill="#FFB422"/>
<path d="M23.8731 9.82894C23.0788 9.82894 22.3255 9.82894 21.5804 9.82894C21.5231 9.82894 21.4247 9.77163 21.4002 9.71431C21.089 8.83816 20.786 7.95382 20.4667 7.02854C20.9089 7.02854 21.3101 7.02854 21.7113 7.02854C22.0061 7.02854 22.3501 6.94666 22.5712 7.09405C22.7759 7.23325 22.8496 7.60991 22.9806 7.88832C23.2753 8.51882 23.5619 9.14932 23.8731 9.83714V9.82894Z" fill="#FFB422"/>
<path d="M8.44631 7.0204C8.13515 7.70003 7.84859 8.33053 7.55381 8.96103C7.4228 9.24762 7.3409 9.63247 7.128 9.77986C6.9151 9.92725 6.55478 9.8208 6.26819 9.82899C5.78508 9.82899 5.31021 9.82899 4.79435 9.82899C4.84348 9.73073 4.86805 9.66522 4.9008 9.59972C5.35116 8.80545 5.80963 8.01937 6.25999 7.21691C6.34187 7.06953 6.44017 7.01221 6.60394 7.01221C7.20168 7.0204 7.79944 7.01221 8.4545 7.01221L8.44631 7.0204Z" fill="#FFB422"/>
<path d="M27.2221 9.82872C26.4278 9.82872 25.6909 9.82872 24.954 9.82872C24.8967 9.82872 24.8147 9.7796 24.7902 9.73047C24.3807 8.84613 23.9713 7.96179 23.5455 7.02832C24.2333 7.02832 24.8802 7.02832 25.5271 7.02832C25.5844 7.02832 25.6499 7.09383 25.6827 7.15115C26.1903 8.01911 26.6816 8.89525 27.2221 9.82872Z" fill="#FFB422"/>
<path d="M14.7676 9.80416C14.8741 8.87069 14.9806 7.9536 15.087 7.02832H16.9048C17.0112 7.9536 17.1177 8.8625 17.2241 9.80416H14.7676Z" fill="#FFB422"/>
<path d="M13.9079 9.81245H11.4759C11.5742 9.53405 11.6643 9.27202 11.7544 9.01818C11.9591 8.42044 12.1637 7.81449 12.3766 7.21674C12.4012 7.14305 12.4831 7.0366 12.5405 7.0366C13.0973 7.02022 13.6622 7.02842 14.2354 7.02842C14.1289 7.97826 14.0225 8.89536 13.916 9.82064L13.9079 9.81245Z" fill="#FFB422"/>
<path d="M18.084 9.81273C17.9775 8.87926 17.8711 7.97035 17.7646 7.02051C18.3378 7.02051 18.8863 7.02051 19.4432 7.02051C19.4923 7.02051 19.5742 7.08601 19.5906 7.13514C19.9017 8.01129 20.2047 8.89563 20.5159 9.80453H18.084V9.81273Z" fill="#FFB422"/>
<path d="M4.44226 10.7705H6.98061C7.05431 11.4174 6.95603 11.9824 6.44835 12.3754C6.00618 12.7111 5.53131 12.7275 5.06458 12.4327C4.49139 12.0643 4.37676 11.4665 4.45045 10.7705H4.44226Z" fill="#FFB422"/>
<path d="M7.87309 10.7705H10.4116C10.4852 11.401 10.4034 11.9578 9.90388 12.3508C9.4699 12.6948 8.99492 12.7357 8.52 12.4491C7.93044 12.0888 7.7994 11.4829 7.87309 10.7705Z" fill="#FFB422"/>
<path d="M11.2958 10.7705H13.8342C13.9078 11.3683 13.8342 11.9087 13.3757 12.3099C12.9581 12.6784 12.4831 12.7439 12 12.4737C11.3695 12.1216 11.2221 11.5156 11.2958 10.7705Z" fill="#FFB422"/>
<path d="M14.7268 10.7705H17.2651C17.3388 11.4174 17.2405 11.9824 16.7329 12.3754C16.2907 12.7111 15.8157 12.7357 15.349 12.4327C14.7758 12.0643 14.6613 11.4665 14.7268 10.7705Z" fill="#FFB422"/>
<path d="M18.1577 10.7788H20.696C20.7697 11.4421 20.6633 12.0152 20.1311 12.4001C19.6807 12.7194 19.2057 12.7276 18.7472 12.4165C18.1904 12.0398 18.084 11.4503 18.1577 10.7788Z" fill="#FFB422"/>
<path d="M25.0112 10.7788H27.5496C27.6233 11.3684 27.5496 11.917 27.0911 12.3182C26.6735 12.6867 26.1985 12.7522 25.7154 12.4902C25.0849 12.1463 24.9375 11.5321 25.0112 10.787V10.7788Z" fill="#FFB422"/>
<path d="M21.5804 10.7705H24.1187C24.1924 11.401 24.1024 11.966 23.5947 12.359C23.1689 12.6948 22.6939 12.7357 22.2354 12.4491C21.6376 12.0888 21.5067 11.4829 21.5804 10.7705Z" fill="#FFB422"/>
</svg>
