<svg width="32" height="32" viewBox="0 0 32 32" fill="none" xmlns="http://www.w3.org/2000/svg">
<path d="M24.0356 26.99H14.2401C14.2401 26.9025 14.2401 26.8151 14.2401 26.7276C14.2401 24.2884 14.2401 21.8493 14.2401 19.4199C14.2401 19.313 14.2401 19.2158 14.2401 19.1089C14.211 18.6036 13.8611 18.2537 13.3461 18.2537C11.8981 18.2537 10.4502 18.2537 9.00228 18.2537C8.59413 18.2537 8.27346 18.487 8.16657 18.8465C8.1277 18.9826 8.11793 19.1283 8.11793 19.2741C8.11793 21.7618 8.11793 24.2399 8.11793 26.7276C8.11793 26.8151 8.11793 26.9025 8.11793 26.99H6.19384C5.66908 26.7956 5.4942 26.4166 5.50392 25.8724C5.51364 22.7919 5.50392 19.7114 5.50392 16.6406C5.50392 16.5532 5.50392 16.4657 5.50392 16.3879C5.79545 16.4268 6.0578 16.4948 6.32018 16.4948C7.23364 16.5046 8.14706 16.4948 9.06052 16.4948C9.4881 16.4948 9.89625 16.3782 10.2752 16.1644C10.4404 16.0673 10.6056 15.9506 10.7709 15.8438C11.3539 16.3588 12.0438 16.5143 12.8018 16.5046C14.4247 16.4851 16.0378 16.5046 17.6607 16.5046C17.8842 16.5046 18.1078 16.4754 18.3313 16.4365C18.7783 16.3588 19.1572 16.1353 19.5071 15.8438C20.1193 16.3977 20.8482 16.5434 21.645 16.5143C22.1018 16.4948 22.5584 16.5143 23.0152 16.5143C23.5788 16.5143 24.1521 16.5531 24.706 16.3879C24.706 16.3879 24.7255 16.3977 24.7547 16.4171V16.6698C24.7547 19.7406 24.7547 22.8114 24.7547 25.8822C24.7547 26.4264 24.5895 26.8053 24.0647 26.9997L24.0356 26.99ZM19.0309 18.2537C18.3312 18.2537 17.6219 18.2537 16.9222 18.2537C16.3295 18.2537 15.9795 18.6036 15.9698 19.1964C15.9698 20.0224 15.9698 20.8484 15.9698 21.6744C15.9698 22.2574 16.3295 22.617 16.9125 22.617C18.3216 22.617 19.7306 22.617 21.13 22.617C21.7325 22.617 22.0823 22.2672 22.092 21.6647C22.092 20.8484 22.092 20.0224 22.092 19.2061C22.092 18.6036 21.7325 18.2537 21.13 18.2537C20.4303 18.2537 19.7209 18.2537 19.0212 18.2537H19.0309Z" fill="#0671B8"/>
<path d="M4.6098 13.0161C4.68754 13.0161 4.75555 13.0161 4.83329 13.0161C11.6649 13.0161 18.5061 13.0161 25.3377 13.0161H25.5903C25.5806 13.5506 25.6778 14.0754 25.4543 14.571C25.1433 15.2609 24.5895 15.6107 23.8412 15.6302C22.9763 15.6496 22.1017 15.6399 21.2368 15.6302C20.3719 15.6205 19.7306 15.086 19.5265 14.26C19.5168 14.2114 19.4973 14.1725 19.4778 14.0948C19.3126 14.8819 18.8852 15.3872 18.1272 15.5816C17.9523 15.6302 17.7579 15.6302 17.5829 15.6302C15.9406 15.6302 14.3081 15.6302 12.6658 15.6302C11.6163 15.6302 10.9943 15.1346 10.7416 14.1045C10.7222 14.1725 10.7028 14.2114 10.6931 14.26C10.4793 15.0957 9.84765 15.6205 8.98278 15.6302C8.1179 15.6399 7.24325 15.6399 6.37838 15.6302C5.50378 15.6205 4.85278 15.0763 4.64871 14.2211C4.64871 14.192 4.62924 14.1628 4.6098 14.1239C4.6098 13.7547 4.6098 13.3854 4.6098 13.0161Z" fill="#FFB422"/>
<path d="M17.1845 6.01953C17.5926 8.05054 17.991 10.0718 18.3992 12.1028H11.8009C12.2091 10.0718 12.6075 8.05054 13.0156 6.01953H17.1845Z" fill="#FFB422"/>
<path d="M10.0225 12.1125H4.85275C4.86247 12.0444 4.87223 11.9861 4.89166 11.9278C5.38727 10.1883 5.88278 8.45859 6.37838 6.71912C6.52415 6.22351 6.81566 6 7.3307 6C8.56485 6 9.79906 6 11.0332 6C11.0915 6 11.1498 6 11.2372 6C10.8291 8.05044 10.4209 10.0717 10.0128 12.1027L10.0225 12.1125Z" fill="#FFB422"/>
<path d="M18.9726 6.00977C19.0601 6.00977 19.1183 6.00977 19.1767 6.00977C20.4011 6.00977 21.6353 6.00977 22.8597 6.00977C23.4039 6.00977 23.6954 6.22355 23.8412 6.74831C24.3368 8.46834 24.8226 10.1787 25.3085 11.8987C25.3279 11.9667 25.3377 12.025 25.3668 12.1125H20.1873C19.7792 10.0912 19.3808 8.06021 18.9629 6.00977H18.9726Z" fill="#FFB422"/>
<circle cx="23" cy="12" r="5.5" fill="#0671B8" stroke="white"/>
<path d="M22.4886 13.3636V13.3295C22.4924 12.9678 22.5303 12.6799 22.6023 12.4659C22.6742 12.2519 22.7765 12.0786 22.9091 11.946C23.0417 11.8134 23.2008 11.6913 23.3864 11.5795C23.4981 11.5114 23.5985 11.4309 23.6875 11.3381C23.7765 11.2434 23.8466 11.1345 23.8977 11.0114C23.9508 10.8883 23.9773 10.7519 23.9773 10.6023C23.9773 10.4167 23.9337 10.2557 23.8466 10.1193C23.7595 9.98295 23.643 9.87784 23.4972 9.80398C23.3513 9.73011 23.1894 9.69318 23.0114 9.69318C22.8561 9.69318 22.7064 9.72538 22.5625 9.78977C22.4186 9.85417 22.2983 9.95549 22.2017 10.0938C22.1051 10.232 22.0492 10.4129 22.0341 10.6364H21.3182C21.3333 10.3144 21.4167 10.0388 21.5682 9.80966C21.7216 9.58049 21.9233 9.4053 22.1733 9.28409C22.4252 9.16288 22.7045 9.10227 23.0114 9.10227C23.3447 9.10227 23.6345 9.16856 23.8807 9.30114C24.1288 9.43371 24.3201 9.61553 24.4545 9.84659C24.5909 10.0777 24.6591 10.3409 24.6591 10.6364C24.6591 10.8447 24.6269 11.0331 24.5625 11.2017C24.5 11.3703 24.4091 11.5208 24.2898 11.6534C24.1723 11.786 24.0303 11.9034 23.8636 12.0057C23.697 12.1098 23.5634 12.2197 23.4631 12.3352C23.3627 12.4489 23.2898 12.5843 23.2443 12.7415C23.1989 12.8987 23.1742 13.0947 23.1705 13.3295V13.3636H22.4886ZM22.8523 15.0455C22.7121 15.0455 22.5919 14.9953 22.4915 14.8949C22.3911 14.7945 22.3409 14.6742 22.3409 14.5341C22.3409 14.3939 22.3911 14.2737 22.4915 14.1733C22.5919 14.0729 22.7121 14.0227 22.8523 14.0227C22.9924 14.0227 23.1127 14.0729 23.2131 14.1733C23.3134 14.2737 23.3636 14.3939 23.3636 14.5341C23.3636 14.6269 23.34 14.7121 23.2926 14.7898C23.2472 14.8674 23.1856 14.9299 23.108 14.9773C23.0322 15.0227 22.947 15.0455 22.8523 15.0455Z" fill="white"/>
</svg>
