<svg width="32" height="32" viewBox="0 0 32 32" fill="none" xmlns="http://www.w3.org/2000/svg">
<path d="M26.8228 25.9667H17.043C17.043 25.8774 17.043 25.7881 17.043 25.6988C17.043 23.265 17.043 20.8312 17.043 18.3974C17.043 18.2969 17.043 18.1964 17.043 18.0959C17.0095 17.5936 16.6635 17.2475 16.1499 17.2475C14.7097 17.2475 13.2583 17.2475 11.8181 17.2475C11.4162 17.2475 11.0925 17.4819 10.9808 17.8392C10.9362 17.9731 10.9362 18.1183 10.9362 18.2634C10.9362 20.7419 10.9362 23.2203 10.9362 25.7099C10.9362 25.7992 10.9362 25.8885 10.9362 25.9779H9.0159C8.49119 25.7881 8.32373 25.4085 8.32373 24.8614C8.33489 21.7913 8.32373 18.71 8.32373 15.6398C8.32373 15.5505 8.32373 15.4724 8.32373 15.383C8.614 15.4277 8.87082 15.4835 9.13876 15.4947C10.0542 15.5059 10.9696 15.4947 11.8739 15.4947C12.2982 15.4947 12.7113 15.383 13.0797 15.1709C13.2471 15.0704 13.4034 14.9588 13.5709 14.8472C14.1514 15.3607 14.8436 15.517 15.6027 15.5059C17.2215 15.4947 18.8293 15.5059 20.4481 15.5059C20.6714 15.5059 20.8946 15.4724 21.1179 15.4389C21.5645 15.3607 21.9441 15.1374 22.2902 14.8472C22.9042 15.3942 23.6298 15.5505 24.4225 15.517C24.8802 15.4947 25.3379 15.517 25.7956 15.517C26.365 15.517 26.9232 15.5617 27.4814 15.3942C27.4814 15.3942 27.5038 15.4054 27.5261 15.4277V15.6845C27.5261 18.7546 27.5261 21.8136 27.5261 24.8838C27.5261 25.4197 27.3587 25.8104 26.834 26.0002L26.8228 25.9667ZM21.8213 17.2475C21.1179 17.2475 20.4146 17.2475 19.7112 17.2475C19.1195 17.2475 18.7623 17.6047 18.7623 18.1853C18.7623 19.0114 18.7623 19.8375 18.7623 20.6637C18.7623 21.2554 19.1195 21.6015 19.7112 21.6015C21.1179 21.6015 22.5246 21.6015 23.9201 21.6015C24.523 21.6015 24.8691 21.2442 24.8802 20.6525C24.8802 19.8376 24.8802 19.0114 24.8802 18.1964C24.8802 17.5936 24.523 17.2475 23.9201 17.2475C23.2168 17.2475 22.5134 17.2475 21.8101 17.2475H21.8213Z" fill="#0671B8"/>
<path d="M7.43066 12.0112C7.50881 12.0112 7.57581 12.0112 7.65396 12.0112C14.4753 12.0112 21.3078 12.0112 28.1291 12.0112H28.3747C28.3635 12.5471 28.464 13.0718 28.2295 13.5631C27.9169 14.2441 27.37 14.6013 26.622 14.6237C25.7512 14.6348 24.8914 14.6348 24.0206 14.6237C23.161 14.6125 22.5134 14.0878 22.3125 13.2505C22.3013 13.2058 22.2902 13.1611 22.2679 13.083C22.1004 13.8645 21.6761 14.378 20.9169 14.5678C20.7383 14.6125 20.5485 14.6237 20.3699 14.6237C18.7288 14.6237 17.0989 14.6237 15.4578 14.6237C14.4195 14.6237 13.783 14.1324 13.5374 13.0942C13.5151 13.1611 13.504 13.2058 13.4929 13.2505C13.2808 14.0878 12.6444 14.6013 11.7847 14.6237C10.9139 14.6348 10.0543 14.6348 9.18345 14.6237C8.30148 14.6125 7.65398 14.0654 7.46419 13.217C7.46419 13.1835 7.44183 13.15 7.43066 13.1276C7.43066 12.7592 7.43066 12.3908 7.43066 12.0224V12.0112Z" fill="#FFB422"/>
<path d="M19.9792 5.03369C20.3811 7.06557 20.783 9.07513 21.1961 11.107H14.6093C15.0112 9.07513 15.4131 7.06557 15.8262 5.03369H19.9904H19.9792Z" fill="#FFB422"/>
<path d="M12.823 11.1181H7.66516C7.67633 11.0511 7.68745 10.9953 7.69862 10.9395C8.18984 9.20903 8.69225 7.47858 9.18347 5.73697C9.32861 5.24574 9.61886 5.02246 10.1436 5.02246C11.3716 5.02246 12.6109 5.02246 13.8389 5.02246C13.8947 5.02246 13.9618 5.02246 14.0399 5.02246C13.6269 7.06551 13.2249 9.08623 12.823 11.1181Z" fill="#FFB422"/>
<path d="M21.7655 5.01118C21.8548 5.01118 21.9107 5.01118 21.9665 5.01118C23.1946 5.01118 24.4226 5.01118 25.6506 5.01118C26.1977 5.01118 26.4768 5.22328 26.6331 5.748C27.1243 7.45612 27.6156 9.17541 28.1068 10.8835C28.1291 10.9505 28.1402 11.0175 28.1626 11.0956H22.9937C22.5918 9.07493 22.1786 7.05421 21.7767 5L21.7655 5.01118Z" fill="#FFB422"/>
<path d="M20.1724 12.5651C19.646 11.835 19.1282 11.1049 18.6188 10.3663C18.2538 9.84844 17.7614 9.59375 17.1332 9.59375C13.3469 9.59375 9.56061 9.59375 5.78281 9.59375C4.72163 9.59375 4 10.3069 4 11.368C4 13.1678 4 14.976 4 16.7758C4 17.6927 4.4924 18.3124 5.39228 18.5246C5.40926 18.5246 5.41774 18.5416 5.43472 18.5501H17.4218C17.4897 18.5331 17.5576 18.5161 17.6255 18.4907C18.0415 18.3803 18.3641 18.1426 18.6103 17.786C19.2385 16.8862 19.8667 15.9778 20.5035 15.0864C20.7072 14.7978 20.8091 14.4752 20.86 14.1356V13.9573C20.8091 13.397 20.4865 12.981 20.1724 12.5481V12.5651ZM11.632 14.229H9.53512V16.3259C9.53512 16.5381 9.56057 16.5721 9.4587 16.5721C9.34833 16.5721 9.38232 16.5381 9.38232 16.3259V14.229H7.2854C7.07317 14.229 7.04773 14.246 7.04773 14.1526C7.04773 14.0422 7.07317 14.0762 7.2854 14.0762H9.38232V11.9793C9.38232 11.767 9.34833 11.7331 9.4587 11.7331C9.56906 11.7331 9.53512 11.767 9.53512 11.9793V14.0762H11.632C11.8442 14.0762 11.8357 14.0422 11.8357 14.1526C11.8357 14.246 11.8357 14.229 11.632 14.229ZM15.7748 15.1968C15.1551 15.1968 14.6542 14.6959 14.6542 14.0762C14.6542 13.4649 15.1551 12.964 15.7663 12.9556C16.3861 12.9556 16.8954 13.448 16.8954 14.0677C16.8954 14.6874 16.3946 15.1968 15.7748 15.1968Z" fill="#0671B8" stroke="white" stroke-width="0.602749" stroke-miterlimit="10"/>
</svg>
