<svg width="32" height="32" viewBox="0 0 32 32" fill="none" xmlns="http://www.w3.org/2000/svg">
<path d="M8.25296 5.0079H23.3304C23.3304 11.9181 23.3304 18.8361 23.3304 25.7463C23.1881 25.9518 22.9905 26.0072 22.7454 25.9993C18.0253 25.9993 13.3051 25.9993 8.57715 25.9993C8.11858 25.9993 8 25.8807 8 25.4142C8 18.8045 8 12.1948 8 5.58507C8 5.33998 8.0474 5.14231 8.25296 5V5.0079ZM15.6533 15.4996C18.1201 15.4996 20.1046 13.5151 20.1046 11.0405C20.1046 8.59739 18.1043 6.6129 15.6454 6.62081C13.2339 6.62081 11.2337 8.62111 11.2337 11.0405C11.2337 13.4993 13.2181 15.4996 15.6612 15.4996H15.6533ZM12.056 16.3061C11.6686 16.3061 11.2812 16.3061 10.8938 16.3061C10.5775 16.3061 10.4193 16.4563 10.4193 16.7647C10.4193 17.5395 10.4193 18.3143 10.4193 19.0891C10.4193 19.3896 10.5775 19.5398 10.8779 19.5398C11.6527 19.5398 12.4275 19.5398 13.1944 19.5398C13.487 19.5398 13.6451 19.3817 13.6451 19.0812C13.6451 18.3064 13.6451 17.5316 13.6451 16.7567C13.6451 16.4642 13.487 16.314 13.1865 16.3061C12.807 16.3061 12.4276 16.3061 12.056 16.3061ZM10.4193 22.3624C10.4193 22.7419 10.4193 23.1214 10.4193 23.5009C10.4193 23.8329 10.5696 23.9753 10.8938 23.9832C11.6528 23.9832 12.4039 23.9832 13.1629 23.9832C13.4949 23.9832 13.6372 23.8329 13.6372 23.5009C13.6372 22.7419 13.6372 21.9908 13.6372 21.2317C13.6372 20.8997 13.487 20.7574 13.155 20.7574C12.3959 20.7574 11.6448 20.7574 10.8858 20.7574C10.5538 20.7574 10.4114 20.9076 10.4114 21.2396C10.4114 21.6192 10.4114 21.9987 10.4114 22.3782L10.4193 22.3624ZM17.8592 19.1287C18.7131 19.1287 19.5749 19.1287 20.4288 19.1287C20.7371 19.1287 20.9348 18.931 20.9031 18.678C20.8715 18.4566 20.7055 18.3301 20.4288 18.3222C19.4484 18.3222 18.4601 18.3222 17.4797 18.3222C16.7602 18.3222 16.0329 18.3222 15.3134 18.3222C15.0208 18.3222 14.831 18.5199 14.8627 18.7729C14.8943 18.9942 15.0604 19.1287 15.3371 19.1287C16.1752 19.1287 17.0211 19.1287 17.8592 19.1287ZM17.8592 23.572C18.6973 23.572 19.5433 23.572 20.3814 23.572C20.7214 23.572 20.911 23.4218 20.9031 23.1609C20.9031 22.9079 20.7134 22.7656 20.3971 22.7656C18.7131 22.7656 17.0369 22.7656 15.3529 22.7656C15.0366 22.7656 14.8547 22.9237 14.8547 23.1767C14.8547 23.4297 15.0445 23.572 15.3608 23.572C16.1909 23.572 17.0211 23.572 17.8592 23.572ZM16.2542 17.5158C16.5784 17.5158 16.9104 17.5158 17.2346 17.5158C17.4955 17.5158 17.6616 17.3497 17.6695 17.1204C17.6695 16.8833 17.4955 16.7093 17.2267 16.7093C16.5783 16.7093 15.93 16.7093 15.2817 16.7093C15.0208 16.7093 14.8548 16.8753 14.8469 17.1046C14.8469 17.3418 15.0129 17.5158 15.2896 17.5158C15.6059 17.5158 15.93 17.5158 16.2463 17.5158H16.2542ZM16.2384 21.9591C16.5625 21.9591 16.8947 21.9591 17.2188 21.9591C17.4956 21.9591 17.6695 21.7931 17.6695 21.5559C17.6695 21.3187 17.4956 21.1527 17.2188 21.1527C16.5784 21.1527 15.938 21.1527 15.3055 21.1527C15.0287 21.1527 14.8547 21.3187 14.8547 21.5559C14.8547 21.7931 15.0287 21.9512 15.3055 21.9591C15.6138 21.9591 15.93 21.9591 16.2384 21.9591Z" fill="#0671B8"/>
<path d="M19.2982 11.0799C19.2982 13.0802 17.6537 14.701 15.6376 14.701C13.661 14.701 12.0322 13.0565 12.0322 11.0799C12.0322 9.0638 13.6609 7.42718 15.6612 7.43509C17.6773 7.43509 19.2903 9.0717 19.2903 11.0799H19.2982ZM15.2659 11.4594C15.2659 11.6017 15.258 11.7441 15.2659 11.8864C15.2817 12.1077 15.4477 12.2659 15.6533 12.2738C15.8747 12.2738 16.0407 12.1157 16.0644 11.8864C16.0644 11.8389 16.0724 11.7836 16.0644 11.7361C16.0328 11.5227 16.104 11.4041 16.3254 11.3092C17.0607 11.0008 17.4244 10.1707 17.203 9.40376C16.9816 8.65266 16.2305 8.15456 15.4636 8.24944C14.6887 8.34432 14.08 9.00055 14.0484 9.75956C14.0405 10.0521 14.1828 10.2418 14.4279 10.2576C14.6572 10.2735 14.8231 10.1074 14.8548 9.83071C14.9101 9.35633 15.2422 9.04007 15.685 9.04798C16.104 9.05588 16.4519 9.40377 16.4677 9.82281C16.4835 10.2656 16.1673 10.6055 15.7008 10.6609C15.3845 10.7004 15.2659 10.8269 15.258 11.159C15.258 11.2618 15.258 11.3645 15.258 11.4594H15.2659ZM16.0724 13.4755C16.0724 13.2621 15.8826 13.0802 15.6691 13.0802C15.4557 13.0802 15.2738 13.2621 15.2738 13.4834C15.2738 13.7127 15.4636 13.8946 15.6929 13.8867C15.9063 13.8788 16.0803 13.689 16.0803 13.4755H16.0724Z" fill="#FFB422"/>
<path d="M12.8308 17.1445V18.7258H11.2495V17.1445H12.8308Z" fill="#0671B8"/>
<path d="M11.2495 21.5718H12.8308V23.153H11.2495V21.5718Z" fill="#0671B8"/>
</svg>
