<svg width="32" height="32" viewBox="0 0 32 32" fill="none" xmlns="http://www.w3.org/2000/svg">
<path d="M14.0565 6C13.9149 6.95773 13.7733 7.91546 13.6316 8.87319C13.553 9.40267 13.4743 9.93993 13.3956 10.485H9.6817C10.1145 8.9822 10.5472 7.48721 10.9721 6C12.0029 6 13.0258 6 14.0565 6Z" fill="#FFB422"/>
<path d="M21.02 6C21.4528 7.49499 21.8777 8.98221 22.3183 10.4928H18.6044C18.5258 9.95551 18.4471 9.41046 18.3684 8.87319C18.2268 7.91546 18.0851 6.95773 17.9435 6C18.9742 6 19.9971 6 21.0279 6H21.02Z" fill="#FFB422"/>
<path d="M10.1617 6C9.93347 6.80979 9.70529 7.61957 9.47711 8.43714C9.2804 9.12235 9.08369 9.79978 8.88698 10.4928H5.21246C5.24394 10.4149 5.26752 10.3448 5.29113 10.2747C5.85765 8.96662 6.41633 7.66629 6.99072 6.35817C7.05367 6.2258 7.17168 6.1168 7.2661 6C8.23391 6 9.19384 6 10.1617 6Z" fill="#FFB422"/>
<path d="M24.7181 6C24.8047 6.10122 24.9148 6.18687 24.9699 6.29588C25.5679 7.6585 26.158 9.02113 26.7482 10.3838C26.7639 10.4149 26.7639 10.4461 26.7797 10.4928H23.113C22.9714 9.99444 22.8219 9.48831 22.6802 8.97441C22.4127 8.04004 22.1373 7.09788 21.8698 6.16351C21.854 6.109 21.8462 6.0545 21.8383 6.00778C22.8061 6.00778 23.7661 6.00778 24.7339 6.00778L24.7181 6Z" fill="#FFB422"/>
<path d="M17.1803 6C17.4006 7.48721 17.613 8.9822 17.8333 10.485H14.1588C14.3791 8.9822 14.5916 7.49499 14.8119 6C15.5987 6 16.3935 6 17.1803 6Z" fill="#FFB422"/>
<path d="M5 11.2559H8.8319C8.79255 11.8165 8.81617 12.3849 8.69815 12.9066C8.50931 13.7397 7.71462 14.2692 6.8491 14.2536C6.00718 14.2381 5.27541 13.6541 5.06296 12.8365C5.04722 12.7742 5.02361 12.7197 5.00788 12.6652C5.00788 12.198 5.00788 11.7308 5.00788 11.2559H5Z" fill="#FFB422"/>
<path d="M6.15668 14.9233C7.6202 15.118 8.25751 14.8766 9.17811 13.7553C9.72889 14.5496 10.4764 15.009 11.4521 15.0012C12.4199 15.0012 13.1674 14.5496 13.7103 13.7553C14.8591 15.4606 17.2117 15.3671 18.2739 13.7553C18.8247 14.5496 19.5722 15.009 20.5558 15.0012C21.5236 15.0012 22.2711 14.5573 22.8219 13.7476C23.5773 14.7909 24.5687 15.188 25.8434 14.9155V24.7498H25.1037C25.1037 24.6641 25.1037 24.5707 25.1037 24.4773C25.1037 21.7598 25.1037 19.0345 25.1037 16.3171C25.1037 15.8655 25.0014 15.7642 24.5529 15.7642C22.9085 15.7642 21.2639 15.7642 19.6195 15.7642C19.1316 15.7642 19.0372 15.8577 19.0372 16.3327C19.0372 19.0423 19.0372 21.7598 19.0372 24.4695V24.7576H6.16455V14.9233H6.15668ZM12.5851 15.7565C10.8698 15.7565 9.15453 15.7565 7.43923 15.7565C6.9986 15.7565 6.88843 15.8655 6.88843 16.2937C6.88843 18.6842 6.88843 21.0746 6.88843 23.4728C6.88843 23.9089 6.99859 24.0179 7.43135 24.0179C10.862 24.0179 14.2926 24.0179 17.7153 24.0179C18.156 24.0179 18.2661 23.9088 18.2661 23.4806C18.2661 21.0902 18.2661 18.6997 18.2661 16.3015C18.2661 15.8655 18.156 15.7565 17.7232 15.7565C16.0079 15.7565 14.2926 15.7565 12.5773 15.7565H12.5851Z" fill="#0671B8"/>
<path d="M19.8083 16.5195H24.3326V24.742H19.8083V16.5195Z" fill="#0671B8"/>
<path d="M5.38562 27V25.5283H26.5909V27H5.38562Z" fill="#0671B8"/>
<path d="M13.3012 11.2715C13.3012 11.7698 13.3562 12.2604 13.2854 12.7353C13.1438 13.6775 12.2468 14.3315 11.2869 14.2537C10.3269 14.1758 9.57154 13.3894 9.54793 12.4394C9.54006 12.0579 9.54793 11.6764 9.54793 11.2793H13.3012V11.2715Z" fill="#FFB422"/>
<path d="M17.8569 11.2715C17.8569 11.7698 17.912 12.2604 17.8412 12.7353C17.6996 13.6775 16.8026 14.3315 15.8426 14.2537C14.8827 14.1758 14.1273 13.3894 14.1037 12.4394C14.0958 12.0579 14.1037 11.6764 14.1037 11.2793H17.8569V11.2715Z" fill="#FFB422"/>
<path d="M18.6517 11.2637H22.4599C22.4363 11.7931 22.4599 12.3226 22.3655 12.8288C22.1924 13.7242 21.3033 14.3237 20.3827 14.2537C19.4621 14.1758 18.7067 13.4361 18.6517 12.5251C18.6281 12.1124 18.6517 11.6997 18.6517 11.2637Z" fill="#FFB422"/>
<path d="M23.1996 11.2637H27C26.9528 11.8632 27.0944 12.4706 26.8584 13.0623C26.5358 13.8799 25.6624 14.3782 24.8126 14.2303C23.892 14.0668 23.231 13.3427 23.2074 12.4394C23.1996 12.0501 23.2074 11.6608 23.2074 11.2637H23.1996Z" fill="#FFB422"/>
<path d="M12.5851 15.7563C14.3004 15.7563 16.0158 15.7563 17.7311 15.7563C18.1638 15.7563 18.2739 15.8654 18.2739 16.3014C18.2739 18.6918 18.2739 21.0823 18.2739 23.4805C18.2739 23.9087 18.1638 24.0177 17.7232 24.0177C14.2926 24.0177 10.862 24.0177 7.43922 24.0177C7.00646 24.0177 6.8963 23.9087 6.8963 23.4727C6.8963 21.0823 6.8963 18.6918 6.8963 16.2936C6.8963 15.8654 7.00647 15.7563 7.4471 15.7563C9.1624 15.7563 10.8777 15.7563 12.593 15.7563H12.5851ZM17.495 23.2547V16.5272H7.66739V23.2547H17.495Z" fill="white"/>
<path d="M18.5494 24.2513C15.2683 24.2513 9.99642 24.3058 6.72318 24.3058C6.72318 22.0633 6.66809 17.7107 6.66809 15.4604C9.93347 15.4604 15.1817 15.6162 18.4707 15.6162C18.4707 17.8509 18.5494 21.9933 18.5494 24.2513ZM8.92636 20.2803C8.98931 20.2413 9.06799 19.8987 9.17028 19.8053C10.3741 18.6217 10.0043 19.1045 11.2082 17.9132C11.279 17.8431 12.3333 17.1813 12.3491 17.0956C12.3648 16.9788 12.5143 17.2513 12.4435 17.1657C12.3806 17.0878 12.6402 17.2825 12.5222 17.2903C12.4356 17.2903 12.3334 17.3681 12.2625 17.4382C11.0351 18.6529 9.80762 19.8676 8.58015 21.0823C8.53294 21.129 8.49358 21.1757 8.46998 21.2302C8.34409 21.4716 8.58799 20.2802 8.94206 20.288L8.92636 20.2803ZM10.5945 17.2513C10.4764 17.3136 10.4843 17.3136 10.4213 17.3759C9.78398 17.991 9.15454 18.614 8.53294 19.2447C8.3677 19.4082 8.38344 19.6184 8.53294 19.7663C8.68244 19.9143 7.96642 19.6262 8.13952 19.4782C8.17886 19.4471 8.24968 19.2291 8.28902 19.1902C8.83981 18.6451 8.67453 18.5984 9.22531 18.0533C9.28826 17.991 10.1695 17.6796 10.1853 17.6017C10.2168 17.4849 10.4607 17.2358 10.4134 17.1345C10.3662 17.0333 10.6967 17.3214 10.5945 17.2435V17.2513Z" fill="#0671B8"/>
<path d="M9.54794 22.5617C10.9559 22.5617 12.0973 21.4322 12.0973 20.0389C12.0973 18.6456 10.9559 17.5161 9.54794 17.5161C8.13997 17.5161 6.9986 18.6456 6.9986 20.0389C6.9986 21.4322 8.13997 22.5617 9.54794 22.5617Z" stroke="white" stroke-width="0.51" stroke-miterlimit="10"/>
<path d="M15.4256 22.5617C16.8336 22.5617 17.975 21.4322 17.975 20.0389C17.975 18.6456 16.8336 17.5161 15.4256 17.5161C14.0177 17.5161 12.8763 18.6456 12.8763 20.0389C12.8763 21.4322 14.0177 22.5617 15.4256 22.5617Z" fill="#0671B8" stroke="white" stroke-width="0.51" stroke-miterlimit="10"/>
<path d="M15.0007 20.4905C14.8827 20.3659 14.7726 20.2413 14.6624 20.1245C14.5995 20.0544 14.5208 20.0311 14.4421 20.1011C14.3713 20.1634 14.3792 20.2413 14.4657 20.3269C14.5995 20.4593 14.7332 20.5917 14.867 20.7241C14.9929 20.8486 15.0401 20.8486 15.1739 20.7241C15.5988 20.3036 16.0237 19.8909 16.4407 19.4704C16.4643 19.4471 16.5036 19.4237 16.5036 19.4004C16.5036 19.3381 16.5194 19.2602 16.4879 19.2213C16.4564 19.1901 16.3698 19.1979 16.3069 19.2057C16.2754 19.2057 16.2518 19.2524 16.2203 19.2836C15.8191 19.6807 15.4256 20.07 15.0007 20.4905Z" fill="white"/>
<path d="M8.83978 19.4551L10.2246 20.8177" stroke="white" stroke-width="0.31" stroke-miterlimit="10" stroke-linecap="round"/>
<path d="M10.2246 19.4551L8.83978 20.8177" stroke="white" stroke-width="0.31" stroke-miterlimit="10" stroke-linecap="round"/>
</svg>
