<svg width="32" height="32" viewBox="0 0 32 32" fill="none" xmlns="http://www.w3.org/2000/svg">
<path d="M26.616 27.0003H4.96594C4.96594 26.5337 4.96594 26.0672 4.96594 25.6006C4.96594 25.0892 5.28497 24.7751 5.79011 24.7662C5.89646 24.7662 6.00279 24.7662 6.13572 24.7662C6.13572 24.6585 6.13572 24.5688 6.13572 24.4791C6.13572 22.1014 6.13572 19.7238 6.13572 17.3461C6.13572 16.4579 6.13572 15.5786 6.13572 14.6903C6.13572 14.6096 6.18005 14.4929 6.24209 14.4481C6.51681 14.2148 6.80038 14.0084 7.08397 13.7841C7.88156 14.9057 9.59195 15.0133 10.5491 13.7482C10.9833 14.3404 11.5593 14.6813 12.286 14.6813C13.0127 14.6813 13.5887 14.3404 14.0319 13.7393C14.475 14.3494 15.051 14.6724 15.7777 14.6813C16.5044 14.6813 17.0804 14.3494 17.5147 13.7572C18.4186 14.9685 20.0935 15.0044 21.0241 13.7572C21.4583 14.3583 22.0343 14.6813 22.7699 14.6813C23.4966 14.6813 24.0726 14.3404 24.4714 13.7841C24.7284 13.9995 24.9588 14.2238 25.2247 14.3942C25.3931 14.5019 25.4374 14.6006 25.4285 14.78C25.4285 18.0011 25.4285 21.2311 25.4285 24.4521C25.4285 24.5508 25.4285 24.6495 25.4285 24.7662C25.5437 24.7662 25.6235 24.7662 25.7121 24.7662C26.3059 24.7662 26.5983 25.0623 26.5983 25.6724C26.5983 26.112 26.5983 26.5606 26.5983 27.0003H26.616ZM14.2002 24.7572C14.2002 24.6944 14.2091 24.6585 14.2091 24.6136C14.2091 22.3078 14.2091 20.0019 14.2091 17.696C14.2091 17.1308 13.8458 16.7809 13.2963 16.7809C12.0202 16.7809 10.744 16.7809 9.47675 16.7809C8.82981 16.7809 8.51078 17.1128 8.51078 17.7768C8.51078 20.0198 8.51078 22.2629 8.51078 24.5149C8.51078 24.5957 8.51078 24.6764 8.51078 24.7662H14.2091L14.2002 24.7572ZM19.81 21.9758C20.5544 21.9758 21.2988 21.9758 22.0432 21.9758C22.4686 21.9758 22.6813 21.7694 22.6813 21.3298C22.6813 19.975 22.6813 18.6112 22.6813 17.2564C22.6813 16.8167 22.4686 16.6014 22.0255 16.6014C20.5455 16.6014 19.0655 16.6014 17.5856 16.6014C17.1247 16.6014 16.9298 16.8078 16.9298 17.2743C16.9298 18.6202 16.9298 19.957 16.9298 21.3029C16.9298 21.7874 17.1247 21.9758 17.6033 21.9758C18.3388 21.9758 19.0744 21.9758 19.81 21.9758Z" fill="#0671B8"/>
<path d="M4 12.2676H6.68524C6.82704 12.9226 6.47253 13.5955 5.86105 13.8467C5.23184 14.1069 4.50515 13.8736 4.15067 13.2904C4.10636 13.2097 4.05318 13.1379 4.00887 13.0661V12.2765L4 12.2676Z" fill="#FFB422"/>
<path d="M25.4551 8.1763H6.11804C6.14463 7.79049 6.13575 7.41366 6.21551 7.07272C6.35731 6.4626 6.91563 6.04987 7.52711 6.02295C7.58915 6.02295 7.65117 6.02295 7.71321 6.02295C13.1014 6.02295 18.4895 6.02295 23.8777 6.02295C24.6487 6.02295 25.2336 6.42671 25.3842 7.12655C25.4551 7.46749 25.4374 7.82638 25.4551 8.1763Z" fill="#0671B8"/>
<path d="M14.5991 8.9209H16.9919C17.0539 9.80018 17.1071 10.6795 17.1691 11.5767H14.4219C14.4839 10.6974 14.5371 9.81813 14.5991 8.9209Z" fill="#FFB422"/>
<path d="M20.5987 11.586H17.8603C17.7983 10.6977 17.7362 9.81843 17.6742 8.93018H20.0581C20.2353 9.80946 20.4126 10.6798 20.5898 11.586H20.5987Z" fill="#FFB422"/>
<path d="M11.5151 8.91211H13.899C13.837 9.80036 13.7838 10.6886 13.7218 11.5769H10.9834C11.1606 10.6796 11.3379 9.80036 11.5151 8.91211Z" fill="#FFB422"/>
<path d="M20.776 8.91198C21.547 8.91198 22.3003 8.91198 23.0447 8.91198C23.089 8.91198 23.151 8.96581 23.1688 9.01067C23.4523 9.85407 23.7359 10.6975 24.0284 11.5678C23.9398 11.5678 23.8689 11.5857 23.8068 11.5857C23.0447 11.5857 22.2914 11.5857 21.5293 11.5857C21.3698 11.5857 21.2989 11.5498 21.2723 11.3794C21.1216 10.5539 20.9444 9.73744 20.776 8.89404V8.91198Z" fill="#FFB422"/>
<path d="M23.9043 8.9118C24.5512 8.9118 25.1893 8.9118 25.8274 8.9118C26.0755 8.9118 26.2705 9.05536 26.3768 9.27967C26.7401 10.0333 27.0858 10.787 27.4491 11.5676C27.3694 11.5766 27.3162 11.5855 27.2542 11.5855C26.492 11.5855 25.721 11.5855 24.9589 11.5855C24.8437 11.5855 24.7639 11.5855 24.7108 11.442C24.4449 10.6255 24.1702 9.80904 23.9043 8.99256C23.9043 8.97462 23.9043 8.94769 23.9043 8.90283V8.9118Z" fill="#FFB422"/>
<path d="M4.12402 11.5677C4.50509 10.7602 4.85957 9.9796 5.2495 9.21696C5.3204 9.0734 5.53311 8.92087 5.68376 8.92087C6.34842 8.88498 7.01307 8.90292 7.69545 8.90292C7.67772 8.96573 7.66887 9.02853 7.65115 9.08236C7.39415 9.85398 7.14599 10.6256 6.88012 11.3972C6.85354 11.469 6.75608 11.5587 6.68518 11.5677C5.85215 11.5767 5.01023 11.5677 4.12402 11.5677Z" fill="#FFB422"/>
<path d="M7.56258 11.5676C7.59803 11.442 7.63347 11.3523 7.66005 11.2536C7.89933 10.5358 8.13862 9.81801 8.36904 9.09126C8.41335 8.95667 8.47536 8.90283 8.62602 8.90283C9.33499 8.9118 10.0528 8.90283 10.7972 8.90283C10.682 9.47706 10.5757 10.0244 10.4693 10.5717C10.4162 10.8498 10.363 11.1369 10.2921 11.4151C10.2744 11.4689 10.2035 11.5496 10.1592 11.5496C9.29955 11.5496 8.44878 11.5496 7.55371 11.5496L7.56258 11.5676Z" fill="#FFB422"/>
<path d="M20.6696 12.3125C20.7228 12.9316 20.5367 13.434 20.0138 13.757C19.5175 14.0711 19.0035 14.0531 18.5161 13.7391C18.0198 13.4071 17.8426 12.9226 17.8869 12.3125H20.6608H20.6696Z" fill="#FFB422"/>
<path d="M21.3875 12.3037H24.1525C24.2056 12.869 24.0461 13.3355 23.603 13.6854C23.1688 14.0354 22.5484 14.0713 22.0699 13.7931C21.5647 13.497 21.3077 12.9497 21.3875 12.3127V12.3037Z" fill="#FFB422"/>
<path d="M10.9213 12.3125H13.6951C13.7394 12.9226 13.571 13.4161 13.057 13.7481C12.5608 14.0711 12.0379 14.0711 11.5416 13.7481C11.0365 13.4161 10.8593 12.9226 10.9213 12.3215V12.3125Z" fill="#FFB422"/>
<path d="M14.4218 12.3125C15.3257 12.3125 16.2385 12.3125 17.1425 12.3125C17.2754 12.7791 17.0627 13.3533 16.6373 13.6853C16.1765 14.0441 15.565 14.08 15.0687 13.775C14.5724 13.4699 14.3243 12.9136 14.4218 12.3125Z" fill="#FFB422"/>
<path d="M24.8703 12.3125H27.5555C27.6707 12.9047 27.5378 13.4071 27.0238 13.7391C26.5364 14.0531 26.0224 14.0711 25.5261 13.766C25.0032 13.443 24.8171 12.9406 24.8703 12.3125Z" fill="#FFB422"/>
<path d="M7.42076 12.3125H10.2034C10.2478 12.9047 10.0705 13.3802 9.58311 13.7122C9.0957 14.0352 8.58169 14.0531 8.08542 13.7481C7.57141 13.434 7.37644 12.9406 7.41189 12.3215L7.42076 12.3125Z" fill="#FFB422"/>
<circle cx="23" cy="11.75" r="5.5" fill="#0671B8" stroke="white"/>
<path d="M23.6477 8.93182V14.75H22.9432V9.67045H22.9091L21.4886 10.6136V9.89773L22.9432 8.93182H23.6477Z" fill="white"/>
</svg>
