<svg width="32" height="32" viewBox="0 0 32 32" fill="none" xmlns="http://www.w3.org/2000/svg">
<path d="M27.0044 26.0667H4.9812C4.9812 25.5971 4.9812 25.1274 4.9812 24.6662C4.9812 24.1462 5.29989 23.8359 5.81147 23.8275C5.9205 23.8275 6.02952 23.8275 6.16371 23.8275C6.16371 23.7185 6.16371 23.6262 6.16371 23.534C6.16371 21.1438 6.16371 18.7536 6.16371 16.3718C6.16371 15.4829 6.16371 14.5939 6.16371 13.7049C6.16371 13.6211 6.20564 13.512 6.27274 13.4617C6.54949 13.2269 6.84301 13.0172 7.12816 12.7992C7.94166 13.9314 9.67768 14.032 10.6589 12.7656C11.095 13.3611 11.6821 13.6965 12.4285 13.7049C13.1749 13.7049 13.7536 13.3611 14.1981 12.7656C14.6509 13.3778 15.2296 13.7049 15.9676 13.7049C16.7056 13.7049 17.2927 13.3695 17.7372 12.774C18.6597 13.9984 20.3538 14.032 21.3015 12.774C21.7376 13.3778 22.333 13.7049 23.0794 13.7049C23.8175 13.7049 24.4045 13.3611 24.8155 12.8075C25.0838 13.0256 25.3103 13.252 25.5786 13.4198C25.7464 13.5204 25.7883 13.6294 25.7883 13.8056C25.7883 17.0428 25.7883 20.28 25.7883 23.5256C25.7883 23.6263 25.7883 23.7269 25.7883 23.8443C25.9057 23.8443 25.9896 23.8443 26.0735 23.8443C26.6773 23.8443 26.9792 24.1462 26.9792 24.75C26.9792 25.1945 26.9792 25.639 26.9792 26.0835L27.0044 26.0667ZM14.3742 23.8191C14.3742 23.752 14.3826 23.7185 14.3826 23.6766C14.3826 21.3619 14.3826 19.0388 14.3826 16.7241C14.3826 16.1622 14.0135 15.81 13.4516 15.8016C12.1517 15.8016 10.8602 15.8016 9.56027 15.8016C8.89773 15.8016 8.57905 16.1286 8.57905 16.7996C8.57905 19.0556 8.57905 21.3115 8.57905 23.5675C8.57905 23.6514 8.57905 23.7353 8.57905 23.8191H14.3742ZM20.077 21.0264C20.8318 21.0264 21.5866 21.0264 22.3498 21.0264C22.7859 21.0264 22.9956 20.8167 23.004 20.3806C23.004 19.0136 23.004 17.655 23.004 16.288C23.004 15.8435 22.7859 15.6338 22.3414 15.6338C20.8318 15.6338 19.3306 15.6338 17.8211 15.6338C17.3598 15.6338 17.1501 15.8351 17.1501 16.3048C17.1501 17.655 17.1501 19.0052 17.1501 20.3555C17.1501 20.8419 17.343 21.0348 17.8378 21.0348C18.5842 21.0348 19.339 21.0348 20.0854 21.0348L20.077 21.0264Z" fill="#0671B8"/>
<path d="M4 11.2646H6.73403C6.88499 11.9188 6.51598 12.5981 5.89537 12.8497C5.25799 13.1097 4.51997 12.8749 4.15096 12.2878C4.10064 12.2123 4.05032 12.1369 4 12.0614V11.2646Z" fill="#FFB422"/>
<path d="M25.8302 7.16374H6.1637C6.19724 6.76957 6.18047 6.40057 6.26434 6.05672C6.40691 5.4445 6.9772 5.02516 7.59781 5C7.65651 5 7.72361 5 7.78231 5C13.2588 5 18.7436 5 24.22 5C25.0083 5 25.5954 5.41094 25.7548 6.11542C25.8302 6.45927 25.8051 6.8199 25.8302 7.17213V7.16374Z" fill="#0671B8"/>
<path d="M14.7851 7.90137H17.2172C17.2759 8.78196 17.3346 9.67093 17.4017 10.5683H14.609C14.6677 9.6877 14.7264 8.80712 14.7851 7.90137Z" fill="#FFB422"/>
<path d="M20.8906 10.5855H18.1063C18.0476 9.6965 17.9805 8.81591 17.9218 7.91016H20.3455C20.5216 8.79075 20.7061 9.67134 20.8906 10.5855Z" fill="#FFB422"/>
<path d="M11.6486 7.90137H14.0723C14.0136 8.79873 13.9549 9.68771 13.8962 10.5767H11.1118C11.2963 9.67932 11.4724 8.79873 11.657 7.90137H11.6486Z" fill="#FFB422"/>
<path d="M21.0667 7.89373C21.855 7.89373 22.6182 7.89373 23.3813 7.89373C23.4233 7.89373 23.4904 7.95243 23.5071 7.99436C23.8007 8.84141 24.0858 9.68845 24.3793 10.5607C24.2871 10.569 24.22 10.5774 24.1529 10.5774C23.3813 10.5774 22.6098 10.5774 21.8382 10.5774C21.6789 10.5774 21.6118 10.5439 21.5782 10.3678C21.4189 9.54588 21.2512 8.724 21.075 7.87695L21.0667 7.89373Z" fill="#FFB422"/>
<path d="M24.2452 7.89355C24.9077 7.89355 25.5535 7.89355 26.1993 7.89355C26.4509 7.89355 26.6522 8.03612 26.7528 8.26255C27.1218 9.01735 27.474 9.78053 27.843 10.5605C27.7676 10.5689 27.7089 10.5856 27.6501 10.5856C26.8702 10.5856 26.0903 10.5856 25.3103 10.5856C25.1929 10.5856 25.109 10.5856 25.0587 10.4431C24.7903 9.62118 24.5136 8.80768 24.2368 7.98579C24.2368 7.96902 24.2368 7.94387 24.2368 7.89355H24.2452Z" fill="#FFB422"/>
<path d="M4.13416 10.56C4.51994 9.74647 4.88056 8.96651 5.27473 8.19494C5.35021 8.05237 5.55987 7.90143 5.71083 7.89304C6.38176 7.85949 7.06107 7.87626 7.75715 7.87626C7.74038 7.94335 7.732 8.00206 7.71523 8.06077C7.45525 8.83233 7.19526 9.61228 6.92689 10.3838C6.90173 10.4593 6.80109 10.5516 6.73399 10.5516C5.88695 10.56 5.03152 10.5516 4.13416 10.5516V10.56Z" fill="#FFB422"/>
<path d="M7.63143 10.5601C7.67336 10.4343 7.69852 10.342 7.73206 10.2498C7.97527 9.52854 8.21849 8.80729 8.45331 8.07765C8.49524 7.93508 8.56235 7.88477 8.71331 7.88477C9.43455 7.89315 10.1642 7.88477 10.919 7.88477C10.8016 8.45505 10.6925 9.00857 10.5835 9.56208C10.5248 9.84723 10.4745 10.1324 10.4074 10.4091C10.3906 10.4678 10.3151 10.5517 10.2732 10.5517C9.40099 10.5601 8.5288 10.5517 7.62305 10.5517L7.63143 10.5601Z" fill="#FFB422"/>
<path d="M20.9577 11.3154C21.0164 11.936 20.8151 12.4392 20.2868 12.7663C19.7836 13.0766 19.2636 13.0682 18.7688 12.7412C18.2656 12.4141 18.0895 11.9193 18.1314 11.3154H20.9577Z" fill="#FFB422"/>
<path d="M21.6957 11.3062H24.5136C24.564 11.8765 24.4046 12.3378 23.9601 12.69C23.5156 13.0423 22.8866 13.0758 22.4002 12.7907C21.8886 12.4971 21.6203 11.9436 21.7041 11.2979L21.6957 11.3062Z" fill="#FFB422"/>
<path d="M11.0448 11.3154H13.8627C13.9046 11.9277 13.7368 12.4225 13.2169 12.7579C12.7137 13.085 12.1769 13.0766 11.6738 12.7579C11.1622 12.4225 10.9777 11.9277 11.0364 11.3238L11.0448 11.3154Z" fill="#FFB422"/>
<path d="M14.6091 11.3154C15.5316 11.3154 16.4541 11.3154 17.3766 11.3154C17.5108 11.7851 17.2928 12.3638 16.865 12.6908C16.3954 13.0515 15.7748 13.085 15.2632 12.7831C14.7516 12.4728 14.5 11.9193 14.6091 11.3154Z" fill="#FFB422"/>
<path d="M25.2349 11.3066H27.9605C28.0779 11.9021 27.9437 12.4053 27.4238 12.7408C26.929 13.0594 26.409 13.0762 25.8974 12.7659C25.3691 12.4388 25.1762 11.9356 25.2349 11.3066Z" fill="#FFB422"/>
<path d="M7.48049 11.3154H10.3151C10.3571 11.9109 10.181 12.3889 9.68616 12.716C9.19135 13.0431 8.67138 13.0515 8.16819 12.7495C7.64822 12.4309 7.44695 11.936 7.48049 11.3154Z" fill="#FFB422"/>
</svg>
