<svg width="778" height="194" viewBox="0 0 778 194" fill="none" xmlns="http://www.w3.org/2000/svg">
<path d="M-47.1899 32.5593C-15.4029 51.3224 12.737 75.7086 35.8772 104.546C90.371 173.08 82.9045 227.569 114.191 236.005C162.537 249.036 193.834 122.499 295.507 102.239C370.079 87.3702 445.921 136.994 463.476 148.491C531.961 193.293 541.016 243.112 590.138 244.304C626.072 245.214 636.7 218.955 692.9 207.691C732.025 199.851 766.263 204.671 789.338 210.067" stroke="#024890" stroke-width="0.975557" stroke-miterlimit="10"/>
<path d="M-47.1582 38.5554C-15.3682 57.3247 12.7757 81.7144 35.9226 110.554C90.4174 179.1 82.9499 233.577 114.224 242.014C162.582 255.044 193.88 128.507 295.54 108.248C370.125 93.3907 445.968 143.014 463.521 154.499C532.007 199.3 541.048 249.121 590.184 250.311C626.117 251.221 636.733 224.963 692.946 213.699C732.083 205.858 766.309 210.679 789.384 216.075" stroke="#024890" stroke-width="0.975557" stroke-miterlimit="10" stroke-dasharray="8 8"/>
<path d="M-47.1265 44.5513C-15.3335 63.3165 12.8111 87.7068 35.9543 116.55C90.4491 185.096 82.9816 239.573 114.268 248.009C162.576 261.043 193.924 134.502 295.584 114.243C370.157 99.3866 445.999 149.01 463.553 160.495C532.039 205.309 541.093 255.116 590.215 256.307C626.149 257.217 636.776 230.946 692.976 219.682C732.114 211.841 766.34 216.662 789.415 222.058" stroke="#024890" stroke-width="0.975557" stroke-miterlimit="10"/>
<path d="M-47.0703 50.5454C-15.2833 69.32 12.8566 93.7143 35.9988 122.558C90.4936 191.104 83.0261 245.581 114.3 254.018C162.659 267.047 193.956 140.51 295.616 120.252C370.201 105.394 446.044 155.018 463.597 166.503C532.084 211.317 541.125 261.125 590.26 262.315C626.193 263.225 636.808 236.954 693.021 225.69C732.158 217.849 766.384 222.67 789.459 228.066" stroke="#024890" stroke-width="0.975557" stroke-miterlimit="10"/>
<path d="M-47.0515 56.5422C-15.2615 75.3116 12.8824 99.7013 36.0292 128.541C90.5367 197.086 83.0575 251.577 114.343 260C162.689 273.03 193.999 146.493 295.659 126.234C370.244 111.377 446.074 161.001 463.64 172.485C532.114 217.3 541.168 267.107 590.29 268.298C626.224 269.208 636.851 242.936 693.051 231.673C732.189 223.832 766.415 228.666 789.489 234.049" stroke="#024890" stroke-width="0.975557" stroke-miterlimit="10"/>
<path d="M-47.0071 62.5371C-15.2197 81.31 12.9236 105.699 36.0737 134.535C90.5685 203.082 83.102 257.571 114.375 265.995C162.695 279.028 194.031 152.488 295.7 132.178C370.272 117.322 446.115 166.945 463.668 178.43C532.155 223.244 541.196 273.052 590.331 274.242C626.264 275.152 636.879 248.881 693.092 237.617C732.229 229.776 766.456 234.61 789.543 239.992" stroke="#024890" stroke-width="0.975557" stroke-miterlimit="10" stroke-dasharray="8 8"/>
<path d="M-46.9504 68.5439C-15.1636 87.3197 12.9731 111.719 36.107 140.57C90.6145 209.116 83.1353 263.606 114.421 272.029C162.768 285.072 194.078 158.534 295.738 138.276C370.322 123.406 446.152 173.03 463.718 184.514C532.192 229.329 541.246 279.136 590.368 280.328C626.302 281.237 636.929 254.966 693.129 243.702C732.268 235.874 766.493 240.695 789.567 246.079" stroke="#024890" stroke-width="0.975557" stroke-miterlimit="10" stroke-dasharray="8 8"/>
<path d="M-46.9351 74.4883C-15.1421 93.2535 13.0025 117.644 36.1457 146.487C90.6395 215.021 83.173 269.51 114.447 277.947C162.805 290.976 194.103 164.44 295.775 144.18C370.347 129.311 446.19 178.935 463.744 190.432C532.23 235.233 541.271 285.041 590.407 286.244C626.34 287.154 636.968 260.883 693.169 249.632C732.293 241.792 766.519 246.613 789.607 252.008" stroke="#024890" stroke-width="0.975557" stroke-miterlimit="10"/>
<path d="M-46.9001 80.5344C-15.1059 99.3024 13.0424 123.692 36.1932 152.532C90.6871 221.066 83.2079 275.556 114.495 283.992C162.815 297.025 194.15 170.485 295.807 150.188C370.392 135.318 446.222 184.943 463.789 196.439C532.262 241.241 541.316 291.061 590.439 292.252C626.372 293.162 637.001 266.903 693.201 255.64C732.338 247.799 766.564 252.62 789.639 258.016" stroke="#024890" stroke-width="0.975557" stroke-miterlimit="10"/>
<path d="M-46.8311 86.5276C-15.0443 105.315 13.0925 129.723 36.2284 158.579C90.7232 227.126 83.2557 281.602 114.542 290.038C162.888 303.069 194.186 176.532 295.858 156.272C370.43 141.403 446.272 191.027 463.827 202.524C532.312 247.326 541.354 297.146 590.49 298.337C626.423 299.247 637.052 272.988 693.252 261.724C732.376 253.884 766.602 258.705 789.69 264.1" stroke="#024890" stroke-width="0.975557" stroke-miterlimit="10"/>
<path d="M-46.8135 92.4995C-15.0261 111.272 13.1172 135.662 36.2673 164.498C90.7621 233.045 83.2946 287.521 114.569 295.958C162.914 308.989 194.224 182.451 295.884 162.192C370.47 147.335 446.3 196.959 463.866 208.443C532.339 253.246 541.393 303.065 590.528 304.255C626.449 305.166 637.078 278.907 693.29 267.643C732.428 259.802 766.653 264.623 789.728 270.019" stroke="#024890" stroke-width="0.975557" stroke-miterlimit="10"/>
<path d="M-46.7812 98.5205C-14.9912 117.29 13.1527 141.68 36.2995 170.519C90.7943 239.066 83.3268 293.542 114.613 301.978C162.959 315.009 194.257 188.472 295.929 168.212C370.502 153.356 446.344 202.979 463.898 214.464C532.384 259.278 541.425 309.086 590.561 310.276C626.494 311.186 637.122 284.915 693.322 273.651C732.446 265.811 766.672 270.632 789.76 276.028" stroke="#024890" stroke-width="0.975557" stroke-miterlimit="10"/>
<path d="M-46.7114 104.514C-14.9266 123.29 13.2161 147.679 36.3693 176.512C90.8642 245.059 83.3967 299.535 114.671 307.972C162.99 320.992 194.323 194.414 295.961 174.208C370.547 159.351 446.376 208.976 463.943 220.459C532.416 265.275 541.47 315.081 590.605 316.272C626.526 317.183 637.154 290.911 693.366 279.647C732.504 271.806 766.73 276.639 789.804 282.023" stroke="#024890" stroke-width="0.975557" stroke-miterlimit="10"/>
<path d="M-46.7056 110.512C-14.9156 129.281 13.2283 153.671 36.3752 182.51C90.87 251.057 83.4035 305.546 114.689 313.969C163.035 327 194.332 200.463 296.005 180.203C370.578 165.347 446.42 214.971 463.961 226.456C532.447 271.271 541.488 321.078 590.624 322.269C626.557 323.179 637.185 296.907 693.385 285.644C732.509 277.804 766.736 282.637 789.823 288.02" stroke="#024890" stroke-width="0.975557" stroke-miterlimit="10" stroke-dasharray="8 8"/>
<path d="M-46.6616 116.507C-14.8742 135.28 13.2691 159.669 36.4191 188.505C90.9139 257.052 83.4474 311.541 114.72 319.965C163.054 332.997 194.376 206.458 296.037 186.212C370.623 171.355 446.452 220.979 464.019 232.463C532.492 277.278 541.546 327.085 590.681 328.275C626.602 329.186 637.23 302.915 693.442 291.65C732.581 283.822 766.806 288.643 789.88 294.026" stroke="#024890" stroke-width="0.975557" stroke-miterlimit="10"/>
<path d="M-46.5908 122.512C-14.7954 141.274 13.3497 165.665 36.4899 194.51C90.9838 263.044 83.5173 317.534 114.803 325.957C163.112 339.003 194.444 212.425 296.082 192.207C370.654 177.338 446.496 226.961 464.05 238.446C532.536 283.26 541.577 333.068 590.712 334.258C626.646 335.168 637.273 308.897 693.473 297.633C732.599 289.806 766.825 294.627 789.911 300.01" stroke="#024890" stroke-width="0.975557" stroke-miterlimit="10"/>
<path d="M-46.584 128.523C-14.791 147.288 13.3535 171.678 36.4968 200.521C90.9906 269.055 83.5241 323.544 114.798 331.981C163.144 345.012 194.454 218.474 296.114 198.215C370.698 183.345 446.528 232.97 464.095 244.466C532.568 289.269 541.623 339.088 590.758 340.279C626.691 341.189 637.307 314.931 693.52 303.666C732.657 295.825 766.883 300.646 789.958 306.043" stroke="#024890" stroke-width="0.975557" stroke-miterlimit="10"/>
<path d="M-46.554 134.506C-14.761 153.272 13.3836 177.662 36.5268 206.505C91.0206 275.039 83.5541 329.528 114.841 337.964C163.174 350.996 194.484 224.458 296.159 204.223C370.73 189.354 446.573 238.978 464.127 250.476C532.613 295.277 541.655 345.098 590.79 346.288C626.723 347.198 637.352 320.939 693.552 309.675C732.677 301.835 766.902 306.656 789.99 312.052" stroke="#024890" stroke-width="0.975557" stroke-miterlimit="10"/>
<path d="M-46.4719 140.498C-14.6819 159.268 13.462 183.657 36.6088 212.497C91.1037 281.043 83.6362 335.52 114.91 343.957C163.22 357.016 194.565 230.437 296.188 210.194C370.773 195.337 446.616 244.96 464.17 256.445C532.642 301.247 541.697 351.067 590.832 352.257C626.766 353.167 637.381 326.909 693.594 315.645C732.731 307.804 766.957 312.625 790.032 318.021" stroke="#024890" stroke-width="0.975557" stroke-miterlimit="10"/>
<path d="M-46.4749 146.535C-14.6819 165.3 13.4627 189.69 36.6059 218.533C91.1007 287.08 83.6332 341.556 114.92 349.992C163.266 363.023 194.563 236.486 296.236 216.226C370.805 201.332 446.648 250.955 464.201 262.44C532.688 307.254 541.729 357.062 590.864 358.252C626.797 359.162 637.425 332.891 693.625 321.627C732.75 313.787 766.976 318.608 790.063 324.004" stroke="#024890" stroke-width="0.975557" stroke-miterlimit="10"/>
<path d="M-46.4343 152.492C-14.6443 171.262 13.4996 195.651 36.6464 224.491C91.1412 293.037 83.6738 347.514 114.948 355.951C163.294 368.982 194.604 242.444 296.268 222.236C370.853 207.378 446.695 257.002 464.249 268.487C532.723 313.302 541.776 363.109 590.911 364.299C626.845 365.209 637.46 338.938 693.672 327.674C732.81 319.833 767.036 324.654 790.111 330.05" stroke="#024890" stroke-width="0.975557" stroke-miterlimit="10"/>
<path d="M-46.3523 158.484C-14.5623 177.253 13.5816 201.643 36.7285 230.483C91.2233 299.029 83.7568 353.519 115.042 361.942C163.342 375.027 194.687 248.448 296.308 228.18C370.88 213.324 446.723 262.947 464.277 274.432C532.763 319.246 541.804 369.054 590.939 370.244C626.873 371.154 637.5 344.883 693.7 333.619C732.825 325.779 767.064 330.612 790.138 335.995" stroke="#024890" stroke-width="0.975557" stroke-miterlimit="10" stroke-dasharray="8 8"/>
<path d="M-46.3533 164.546C-14.5659 183.319 13.5774 207.708 36.7275 236.544C91.2223 305.091 83.7558 359.58 115.029 368.004C163.375 381.035 194.685 254.497 296.345 234.238C370.925 219.317 446.767 268.941 464.321 280.426C532.807 325.24 541.848 375.048 590.984 376.238C626.917 377.148 637.532 350.877 693.745 339.613C732.882 331.772 767.109 336.605 790.183 341.989" stroke="#024890" stroke-width="0.975557" stroke-miterlimit="10"/>
<path d="M-46.3262 170.492C-14.5346 189.253 13.6095 213.639 36.7536 242.477C91.2484 311.024 83.7819 365.513 115.068 373.936C163.414 386.98 194.712 260.443 296.383 240.171C370.956 225.314 446.799 274.938 464.352 286.423C532.838 331.237 541.892 381.044 591.015 382.235C626.948 383.145 637.576 356.873 693.776 345.61C732.901 337.783 767.14 342.602 790.214 347.986" stroke="#024890" stroke-width="0.975557" stroke-miterlimit="10"/>
<path d="M-46.2317 176.48C-14.4387 195.245 13.7058 219.636 36.8491 248.479C91.3429 317.013 83.8764 371.502 115.15 379.939C163.463 393.036 194.808 266.457 296.416 246.177C371 231.307 446.843 280.931 464.397 292.428C532.882 337.229 541.923 387.037 591.06 388.24C626.993 389.15 637.608 362.88 693.822 351.628C732.959 343.787 767.185 348.608 790.26 354.004" stroke="#024890" stroke-width="0.975557" stroke-miterlimit="10" stroke-dasharray="8 8"/>
<path d="M-46.2507 182.48C-14.4578 201.245 13.6868 225.636 36.83 254.479C91.3239 323.013 83.8573 377.502 115.144 385.938C163.49 398.968 194.8 272.43 296.46 252.172C371.032 237.303 446.871 286.888 464.441 298.423C532.914 343.225 541.969 393.045 591.091 394.236C627.025 395.146 637.653 368.887 693.853 357.624C732.99 349.783 767.216 354.604 790.291 360" stroke="#024890" stroke-width="0.975557" stroke-miterlimit="10"/>
<path d="M-46.2068 188.475C-14.4168 207.245 13.7271 231.634 36.874 260.474C91.3688 329.02 83.9013 383.497 115.175 391.934C163.534 404.963 194.831 278.427 296.491 258.168C371.076 243.298 446.918 292.922 464.473 304.419C532.958 349.22 542 399.041 591.135 400.231C627.069 401.141 637.685 374.883 693.897 363.619C733.035 355.778 767.26 360.599 790.335 365.995" stroke="#024890" stroke-width="0.975557" stroke-miterlimit="10"/>
</svg>
