<svg width="1773" height="1134" viewBox="0 0 1773 1134" fill="none" xmlns="http://www.w3.org/2000/svg">
<g opacity="0.72">
<g opacity="0.72">
<path d="M174.241 364.832C214.072 414.762 244.932 472.495 265.341 535.255C313.049 684.136 270.372 774.894 315.251 806.582C384.603 855.54 505.859 652.367 678.673 672.387C805.429 687.054 897.715 814.636 919.069 844.186C1002.41 959.377 988.592 1050.99 1065.87 1079.77C1122.39 1100.89 1154.11 1060.97 1249.67 1071.93C1316.19 1079.55 1367.8 1106.55 1401.37 1128.49" stroke="#024890" stroke-width="0.975557" stroke-miterlimit="10"/>
<path d="M170.989 374.505C210.821 424.448 241.686 482.189 262.104 544.956C309.806 693.86 267.135 784.595 311.993 816.278C381.366 865.241 502.622 662.068 675.415 682.083C802.186 696.778 894.472 824.359 915.832 853.887C999.171 969.078 985.334 1060.69 1062.64 1089.47C1119.15 1110.59 1150.85 1070.67 1246.43 1081.63C1312.98 1089.26 1364.57 1116.25 1398.13 1138.19" stroke="#024890" stroke-width="0.975557" stroke-miterlimit="10" stroke-dasharray="8 8"/>
<path d="M167.736 384.178C207.575 434.116 238.441 491.858 258.851 554.629C306.553 703.533 263.882 794.268 308.761 825.956C378.051 874.899 499.389 671.747 672.183 691.761C798.933 706.451 891.219 834.032 912.579 863.56C995.912 978.773 982.102 1070.36 1059.38 1099.14C1115.9 1120.26 1147.62 1080.32 1243.18 1091.28C1309.73 1098.91 1361.32 1125.9 1394.89 1147.84" stroke="#024890" stroke-width="0.975557" stroke-miterlimit="10"/>
<path d="M164.524 393.863C204.348 443.813 235.204 501.56 255.613 564.331C303.315 713.235 260.644 803.97 305.502 835.652C374.874 884.615 496.13 681.443 668.924 701.458C795.694 716.152 887.98 843.733 909.34 873.261C992.673 988.474 978.842 1080.06 1056.15 1108.84C1112.66 1129.96 1144.36 1090.02 1239.95 1100.98C1306.49 1108.61 1358.08 1135.6 1391.65 1157.54" stroke="#024890" stroke-width="0.975557" stroke-miterlimit="10"/>
<path d="M161.248 403.53C201.079 453.473 231.945 511.214 252.363 573.981C300.086 722.89 257.389 813.643 302.273 845.308C371.625 894.266 492.901 691.099 665.695 711.114C792.466 725.808 884.731 853.385 906.112 882.917C989.424 998.125 975.614 1089.72 1052.9 1118.49C1109.41 1139.61 1141.14 1099.68 1236.7 1110.63C1303.24 1118.26 1354.83 1145.28 1388.4 1167.19" stroke="#024890" stroke-width="0.975557" stroke-miterlimit="10"/>
<path d="M158.016 413.21C197.841 463.158 228.706 520.898 249.131 583.662C296.833 732.567 254.157 823.325 299.021 854.985C368.331 903.933 489.649 700.775 662.486 720.705C789.237 735.394 881.524 862.976 902.883 892.504C986.217 1007.72 972.386 1099.3 1049.69 1128.09C1106.2 1149.21 1137.91 1109.26 1233.49 1120.22C1300.04 1127.85 1351.62 1154.87 1385.21 1176.79" stroke="#024890" stroke-width="0.975557" stroke-miterlimit="10" stroke-dasharray="8 8"/>
<path d="M154.801 422.914C194.624 472.867 225.472 530.621 245.863 593.4C293.585 742.309 250.888 833.061 295.773 864.726C365.118 913.707 486.395 710.54 659.188 730.554C785.965 745.226 878.23 872.802 899.61 902.335C982.922 1017.54 969.112 1109.13 1046.39 1137.91C1102.91 1159.03 1134.63 1119.09 1230.19 1130.05C1296.73 1137.7 1348.32 1164.7 1381.89 1186.61" stroke="#024890" stroke-width="0.975557" stroke-miterlimit="10" stroke-dasharray="8 8"/>
<path d="M151.548 432.495C191.386 482.433 222.252 540.175 242.663 602.946C290.37 751.827 247.694 842.585 292.552 874.268C361.924 923.231 483.18 720.058 655.995 740.078C782.75 754.745 875.037 882.327 896.391 911.877C979.729 1027.07 965.899 1118.65 1043.2 1147.46C1099.71 1168.58 1131.44 1128.64 1226.99 1139.62C1293.52 1147.24 1345.1 1174.24 1378.69 1196.18" stroke="#024890" stroke-width="0.975557" stroke-miterlimit="10"/>
<path d="M148.27 442.252C188.109 492.195 218.981 549.938 239.405 612.708C287.113 761.59 244.416 852.343 289.295 884.031C358.605 932.979 479.924 729.821 652.734 749.769C779.511 764.44 871.777 892.017 893.152 921.573C976.47 1036.76 962.654 1128.37 1039.94 1157.15C1096.45 1178.27 1128.17 1138.35 1223.73 1149.31C1290.28 1156.94 1341.87 1183.94 1375.43 1205.87" stroke="#024890" stroke-width="0.975557" stroke-miterlimit="10"/>
<path d="M145.084 451.939C184.9 501.911 215.744 559.679 236.134 622.47C283.836 771.373 241.166 862.108 286.044 893.796C355.396 942.753 476.652 739.581 649.465 759.601C776.221 774.268 868.506 901.848 889.86 931.399C973.199 1046.59 959.362 1138.2 1036.67 1166.98C1093.18 1188.1 1124.9 1148.18 1220.46 1159.14C1286.98 1166.76 1338.57 1193.76 1372.16 1215.7" stroke="#024890" stroke-width="0.975557" stroke-miterlimit="10"/>
<path d="M141.818 461.568C181.644 511.516 212.508 569.256 232.933 632.019C280.635 780.923 237.965 871.658 282.823 903.341C352.174 952.299 473.451 749.132 646.244 769.147C773.015 783.841 865.281 911.417 886.661 940.95C969.979 1056.14 956.163 1147.75 1033.47 1176.53C1089.96 1197.65 1121.68 1157.73 1217.26 1168.69C1283.81 1176.32 1335.4 1203.32 1368.96 1225.25" stroke="#024890" stroke-width="0.975557" stroke-miterlimit="10"/>
<path d="M138.553 471.281C178.384 521.224 209.25 578.965 229.667 641.732C277.37 790.636 234.699 881.371 279.578 913.059C348.929 962.017 470.185 758.845 642.999 778.864C769.75 793.554 862.036 921.135 883.395 950.663C966.728 1065.88 952.898 1157.46 1030.2 1186.25C1086.71 1207.36 1118.44 1167.43 1214 1178.38C1280.53 1186.01 1332.11 1213 1365.7 1234.94" stroke="#024890" stroke-width="0.975557" stroke-miterlimit="10"/>
<path d="M135.363 480.972C175.182 530.925 206.046 588.663 226.478 651.423C274.18 800.327 231.509 891.062 276.367 922.745C345.683 971.67 467.018 768.445 639.748 788.54C766.519 803.234 858.784 930.811 880.165 960.343C963.477 1075.55 949.667 1167.14 1026.97 1195.93C1083.46 1217.04 1115.19 1177.1 1210.77 1188.06C1277.32 1195.69 1328.9 1222.71 1362.47 1244.62" stroke="#024890" stroke-width="0.975557" stroke-miterlimit="10"/>
<path d="M132.066 490.634C171.898 540.577 202.763 598.318 223.181 661.085C270.883 809.989 228.207 900.747 273.091 932.412C342.443 981.37 463.699 778.197 636.513 798.217C763.263 812.907 855.549 940.488 876.888 970.011C960.221 1085.22 946.39 1176.81 1023.69 1205.59C1080.2 1226.71 1111.93 1186.77 1207.49 1197.73C1274.02 1205.35 1325.6 1232.37 1359.19 1254.29" stroke="#024890" stroke-width="0.975557" stroke-miterlimit="10" stroke-dasharray="8 8"/>
<path d="M128.835 500.313C168.66 550.261 199.525 608 219.95 670.764C267.652 819.667 224.975 910.425 269.839 942.085C339.17 991.038 460.467 787.876 633.255 807.913C760.026 822.608 852.291 950.184 873.672 979.717C956.984 1094.92 943.174 1186.52 1020.48 1215.3C1076.97 1236.41 1108.7 1196.47 1204.28 1207.43C1270.82 1215.09 1322.41 1242.08 1355.98 1264" stroke="#024890" stroke-width="0.975557" stroke-miterlimit="10"/>
<path d="M125.639 510.023C165.483 559.956 196.35 617.699 216.753 680.474C264.461 829.355 221.785 920.113 266.669 951.779C335.953 1000.74 457.288 797.519 630.023 817.591C756.779 832.258 849.065 959.84 870.425 989.367C953.758 1104.58 939.927 1196.17 1017.23 1224.95C1073.74 1246.07 1105.47 1206.13 1201.03 1217.08C1267.55 1224.73 1319.14 1251.73 1352.73 1273.65" stroke="#024890" stroke-width="0.975557" stroke-miterlimit="10"/>
<path d="M122.338 519.707C162.176 569.644 193.042 627.386 213.453 690.158C261.16 839.039 218.484 929.797 263.342 961.48C332.694 1010.44 453.97 807.27 626.764 827.285C753.541 841.957 845.806 969.533 867.181 999.088C950.499 1114.27 936.683 1205.89 1013.99 1234.67C1070.5 1255.79 1102.2 1215.87 1197.78 1226.83C1264.33 1234.46 1315.91 1261.46 1349.48 1283.39" stroke="#024890" stroke-width="0.975557" stroke-miterlimit="10"/>
<path d="M119.09 529.358C158.928 579.296 189.794 637.038 210.204 699.809C257.912 848.69 215.236 939.448 260.114 971.136C329.445 1020.09 450.722 816.921 623.525 836.986C750.28 851.653 842.566 979.234 863.92 1008.78C947.259 1123.97 933.422 1215.58 1010.73 1244.37C1067.24 1265.48 1098.96 1225.57 1194.52 1236.52C1261.04 1244.15 1312.63 1271.15 1346.22 1293.09" stroke="#024890" stroke-width="0.975557" stroke-miterlimit="10"/>
<path d="M115.921 539.055C155.752 588.998 186.618 646.738 207.035 709.505C254.738 858.409 212.067 949.144 256.925 980.827C326.203 1029.81 447.559 826.595 620.285 846.617C747.055 861.312 839.342 988.893 860.701 1018.42C944.019 1133.61 930.203 1225.22 1007.51 1254C1064.02 1275.12 1095.72 1235.2 1191.3 1246.16C1257.85 1253.79 1309.44 1280.79 1343 1302.72" stroke="#024890" stroke-width="0.975557" stroke-miterlimit="10"/>
<path d="M112.587 548.775C152.425 598.712 183.292 656.455 203.702 719.226C251.404 868.131 208.733 958.866 253.612 990.554C322.964 1039.51 444.22 836.339 617.035 856.359C743.802 870.981 836.089 998.563 857.448 1028.09C940.782 1143.3 926.951 1234.89 1004.25 1263.67C1060.77 1284.79 1092.49 1244.85 1188.05 1255.81C1254.58 1263.44 1306.17 1290.43 1339.76 1312.37" stroke="#024890" stroke-width="0.975557" stroke-miterlimit="10"/>
<path d="M109.373 558.389C149.204 608.331 180.07 666.072 200.487 728.839C248.189 877.742 205.519 968.477 250.377 1000.16C319.728 1049.12 441.005 845.951 613.775 866.056C740.546 880.75 832.831 1008.33 854.191 1037.86C937.503 1153.07 923.693 1244.66 1001 1273.44C1057.51 1294.56 1089.21 1254.62 1184.8 1265.57C1251.34 1273.21 1302.93 1300.2 1336.5 1322.14" stroke="#024890" stroke-width="0.975557" stroke-miterlimit="10"/>
<path d="M106.202 568.085C146.034 618.028 176.899 675.769 197.317 738.536C245.019 887.44 202.342 978.198 247.227 1009.86C316.473 1058.89 437.829 855.671 610.566 875.648C737.316 890.337 829.602 1017.92 850.962 1047.45C934.294 1162.66 920.464 1254.25 997.767 1283.03C1054.28 1304.15 1086.01 1264.21 1181.57 1275.16C1248.09 1282.79 1299.7 1309.81 1333.27 1331.73" stroke="#024890" stroke-width="0.975557" stroke-miterlimit="10" stroke-dasharray="8 8"/>
<path d="M102.856 577.847C142.682 627.795 173.547 685.535 193.972 748.299C241.674 897.203 198.998 987.962 243.862 1019.62C313.214 1068.58 434.49 865.412 607.284 885.427C734.084 900.009 826.37 1027.59 847.73 1057.12C931.064 1172.33 917.233 1263.92 994.536 1292.7C1051.05 1313.82 1082.76 1273.88 1178.34 1284.84C1244.88 1292.47 1296.47 1319.49 1330.04 1341.4" stroke="#024890" stroke-width="0.975557" stroke-miterlimit="10"/>
<path d="M99.625 587.437C139.463 637.367 170.331 695.101 190.745 757.865C238.448 906.769 195.771 997.527 240.656 1029.19C310.002 1078.17 431.258 875 604.078 894.998C730.828 909.687 823.114 1037.27 844.474 1066.8C927.807 1182.01 913.997 1273.6 991.279 1302.38C1047.79 1323.5 1079.52 1283.56 1175.08 1294.51C1241.6 1302.16 1293.21 1329.16 1326.78 1351.08" stroke="#024890" stroke-width="0.975557" stroke-miterlimit="10"/>
<path d="M96.4785 597.132C136.317 647.07 167.183 704.812 187.593 767.583C235.301 916.464 192.624 1007.22 237.482 1038.9C306.744 1087.96 428.099 884.741 600.822 904.69C727.598 919.361 819.884 1046.94 841.238 1076.49C924.576 1191.68 910.746 1283.27 988.043 1312.08C1044.55 1333.19 1076.26 1293.25 1171.84 1304.23C1238.38 1311.86 1289.97 1338.86 1323.54 1360.79" stroke="#024890" stroke-width="0.975557" stroke-miterlimit="10" stroke-dasharray="8 8"/>
<path d="M93.1426 606.784C132.981 656.722 163.847 714.464 184.257 777.235C231.965 926.117 189.289 1016.87 234.167 1048.56C303.519 1097.52 424.796 894.353 597.589 914.368C724.345 929.034 816.648 1056.55 838.006 1086.17C921.324 1201.36 907.508 1292.97 984.791 1321.75C1041.3 1342.87 1073.02 1302.95 1168.59 1313.91C1235.13 1321.54 1286.72 1348.53 1320.29 1370.47" stroke="#024890" stroke-width="0.975557" stroke-miterlimit="10"/>
<path d="M89.9102 616.464C129.742 666.407 160.607 724.147 181.025 786.915C228.727 935.819 186.056 1026.55 230.914 1058.24C300.287 1107.2 421.543 904.027 594.336 924.042C721.113 938.714 813.399 1066.3 834.753 1095.85C918.092 1211.04 904.255 1302.64 981.558 1331.43C1038.07 1352.55 1069.77 1312.63 1165.35 1323.58C1231.9 1331.22 1283.49 1358.21 1317.05 1380.15" stroke="#024890" stroke-width="0.975557" stroke-miterlimit="10"/>
</g>
<ellipse cx="894.696" cy="812.341" rx="13.3225" ry="13.3596" transform="rotate(18.8921 894.696 812.341)" fill="#024890"/>
<ellipse cx="674.875" cy="949.087" rx="5.48572" ry="5.501" transform="rotate(18.8921 674.875 949.087)" fill="#024890"/>
<ellipse cx="961.761" cy="1073.74" rx="3.75563" ry="3.72867" transform="rotate(18.8921 961.761 1073.74)" fill="#024890"/>
<ellipse cx="170.401" cy="593.637" rx="3.75563" ry="3.72867" transform="rotate(18.8921 170.401 593.637)" fill="#024890"/>
<ellipse cx="314.703" cy="804.198" rx="5.25788" ry="5.22015" transform="rotate(18.8921 314.703 804.198)" fill="#024890"/>
<ellipse cx="237.637" cy="542.504" rx="8.23001" ry="8.25293" transform="rotate(18.8921 237.637 542.504)" fill="#024890"/>
<ellipse cx="341.665" cy="1026.64" rx="5.25788" ry="5.22015" transform="rotate(18.8921 341.665 1026.64)" fill="#024890"/>
</g>
</svg>
