<svg width="10" height="10" viewBox="0 0 10 10" fill="none" xmlns="http://www.w3.org/2000/svg">
<path d="M8.63776 9.92719C8.29215 9.92719 7.94654 9.79986 7.67369 9.52701L0.470342 2.32379C-0.0571714 1.79627 -0.0571714 0.923149 0.470342 0.395635C0.997856 -0.131878 1.87104 -0.131878 2.39855 0.395635L9.60184 7.59885C10.1294 8.12637 10.1294 8.99949 9.60184 9.52701C9.32899 9.78167 8.98338 9.92719 8.63776 9.92719Z" fill="#4C9E4C"/>
<path d="M1.35971 10.0001C1.0141 10.0001 0.668487 9.87272 0.395635 9.59987C-0.131878 9.07236 -0.131878 8.19923 0.395635 7.67172L7.59902 0.468389C8.12653 -0.0591245 8.99966 -0.0591245 9.52717 0.468389C10.0547 0.995903 10.0547 1.86903 9.52717 2.39654L2.32388 9.59987C2.05103 9.87272 1.70542 10.0001 1.35971 10.0001Z" fill="#4C9E4C"/>
</svg>
