<svg width="24" height="24" viewBox="0 0 24 24" fill="none" xmlns="http://www.w3.org/2000/svg">
<path d="M6.39942 18.4C6.04371 18.4 5.68802 18.2689 5.4072 17.9881C4.86427 17.4452 4.86427 16.5466 5.4072 16.0036L16.0037 5.4072C16.5466 4.86427 17.4452 4.86427 17.9882 5.4072C18.5311 5.95012 18.5311 6.84876 17.9882 7.39169L7.39167 17.9881C7.12957 18.2689 6.75513 18.4 6.39942 18.4Z" fill="#024890"/>
<path d="M16.9959 18.4C16.6402 18.4 16.2845 18.2689 16.0037 17.9881L5.4072 7.39169C4.86427 6.84876 4.86427 5.95012 5.4072 5.4072C5.9501 4.86427 6.84874 4.86427 7.39167 5.4072L17.9882 16.0036C18.5311 16.5466 18.5311 17.4452 17.9882 17.9881C17.7074 18.2689 17.3516 18.4 16.9959 18.4Z" fill="#024890"/>
</svg>
