<svg width="26" height="26" viewBox="0 0 26 26" fill="none" xmlns="http://www.w3.org/2000/svg">
<rect y="25.9995" width="25.9995" height="26" rx="8" transform="rotate(-90 0 25.9995)" fill="#FFB422"/>
<path d="M7.29868 9.57496L6.99032 9.85518L7.29868 9.57495C6.90855 9.14564 6.25037 9.14564 5.86024 9.57495L6.16861 9.85518L5.86024 9.57496C5.49103 9.98125 5.49103 10.6333 5.86024 11.0396L10.9145 16.6016C11.9016 17.6877 13.5365 17.6877 14.5235 16.6016L19.5778 11.0396C19.7708 10.8273 19.8567 10.5621 19.8567 10.3073C19.8567 10.0405 19.7556 9.78422 19.5872 9.58566L19.5826 9.58023L19.5778 9.57495C19.1877 9.14564 18.5295 9.14564 18.1394 9.57495L13.0851 15.1369C12.8783 15.3644 12.5597 15.3644 12.353 15.1369L7.29868 9.57496Z" fill="#FAFAFA" stroke="#FAFAFA" stroke-width="0.833341"/>
</svg>
