<svg width="469" height="270" viewBox="0 0 469 270" fill="none" xmlns="http://www.w3.org/2000/svg">
<g opacity="0.72">
<path d="M-255.188 -148.441C-223.4 -129.678 -195.261 -105.291 -172.12 -76.454C-117.627 -7.92006 -125.093 46.5692 -93.8064 55.005C-45.4607 68.0358 -14.1632 -58.5011 87.5094 -78.7607C162.081 -93.6298 237.924 -44.0061 255.478 -32.5087C323.963 12.2927 333.018 62.1123 382.141 63.3036C418.074 64.2135 428.703 37.9545 484.903 26.6911C524.027 18.8511 558.266 23.671 581.341 29.0675" stroke="#024890" stroke-width="0.975557" stroke-miterlimit="10"/>
<path d="M-255.156 -142.445C-223.366 -123.675 -195.222 -99.2856 -172.075 -70.4462C-117.581 -1.89955 -125.048 52.577 -93.7742 61.0139C-45.4157 74.0436 -14.1183 -52.4933 87.5417 -72.7519C162.127 -87.6093 237.97 -37.9856 255.523 -26.5008C324.009 18.3005 333.05 68.1211 382.186 69.3114C418.119 70.2213 428.735 43.9634 484.948 32.6989C524.085 24.8579 558.311 29.6788 581.386 35.0753" stroke="#024890" stroke-width="0.975557" stroke-miterlimit="10" stroke-dasharray="8 8"/>
<path d="M-255.125 -136.449C-223.332 -117.684 -195.187 -93.2932 -172.044 -64.4504C-117.549 4.0963 -125.017 58.5729 -93.7303 67.0087C-45.4224 80.0425 -14.0745 -46.4985 87.5855 -66.757C162.158 -81.6134 238.001 -31.9898 255.554 -20.505C324.041 24.309 333.094 74.1159 382.217 75.3072C418.15 76.2172 428.778 49.9455 484.978 38.6821C524.115 30.8411 558.341 35.662 581.416 41.0584" stroke="#024890" stroke-width="0.975557" stroke-miterlimit="10"/>
<path d="M-255.07 -130.455C-223.283 -111.68 -195.143 -87.2857 -172.001 -58.4425C-117.506 10.1042 -124.974 64.5808 -93.6999 73.0177C-45.3415 86.0474 -14.0441 -40.4895 87.6159 -60.7481C162.201 -75.6055 238.044 -25.9819 255.597 -14.4971C324.084 30.3169 333.125 80.1249 382.26 81.3152C418.193 82.2251 428.808 55.9544 485.021 44.69C524.158 36.849 558.384 41.6699 581.459 47.0663" stroke="#024890" stroke-width="0.975557" stroke-miterlimit="10"/>
<path d="M-255.055 -124.458C-223.265 -105.688 -195.121 -81.2987 -171.974 -52.4594C-117.466 16.0862 -124.946 70.5766 -93.66 78.9997C-45.3142 92.0304 -14.0042 -34.5075 87.6559 -54.7661C162.241 -69.6235 238.071 -19.9988 255.637 -8.51506C324.111 36.3 333.165 86.1069 382.287 87.2982C418.221 88.2081 428.848 61.9365 485.048 50.6731C524.185 42.832 558.412 47.6657 581.486 53.0494" stroke="#024890" stroke-width="0.975557" stroke-miterlimit="10"/>
<path d="M-255.008 -118.463C-223.22 -99.69 -195.077 -75.3008 -171.927 -46.4646C-117.432 22.082 -124.899 76.5712 -93.6258 84.9954C-45.3053 98.0281 -13.9699 -28.5117 87.6988 -48.8221C162.271 -63.6785 238.114 -14.0549 255.668 -2.5701C324.154 42.2439 333.195 92.0518 382.33 93.2421C418.264 94.152 428.878 67.8814 485.091 56.6169C524.228 48.7759 558.455 53.6096 581.542 58.9923" stroke="#024890" stroke-width="0.975557" stroke-miterlimit="10" stroke-dasharray="8 8"/>
<path d="M-254.953 -112.456C-223.166 -93.6803 -195.03 -69.2807 -171.896 -40.4302C-117.388 28.1155 -124.867 82.6059 -93.5817 91.029C-45.2349 104.072 -13.9249 -22.4655 87.7351 -42.7241C162.32 -57.5943 238.149 -7.96957 255.716 3.5142C324.189 48.3293 333.243 98.1362 382.365 99.3275C418.299 100.237 428.927 73.9658 485.127 62.7023C524.265 54.874 558.491 59.6949 581.565 65.0787" stroke="#024890" stroke-width="0.975557" stroke-miterlimit="10" stroke-dasharray="8 8"/>
<path d="M-254.938 -106.512C-223.145 -87.7465 -195 -63.3562 -171.857 -34.5133C-117.363 34.0206 -124.829 88.5099 -93.5554 96.9468C-45.197 109.976 -13.8996 -16.5604 87.773 -36.82C162.345 -51.6891 238.187 -2.06548 255.742 9.43201C324.227 54.2333 333.268 104.041 382.404 105.244C418.338 106.154 428.965 79.8825 485.166 68.6318C524.291 60.7918 558.517 65.6127 581.604 71.0082" stroke="#024890" stroke-width="0.975557" stroke-miterlimit="10"/>
<path d="M-254.898 -100.466C-223.104 -81.6976 -194.956 -57.3082 -171.805 -28.4683C-117.311 40.0657 -124.79 94.556 -93.5037 102.992C-45.1833 116.025 -13.8479 -10.5153 87.8091 -30.812C162.393 -45.6821 238.223 3.9425 255.791 15.439C324.263 60.2413 333.318 110.061 382.44 111.252C418.374 112.162 429.002 85.9032 485.202 74.6398C524.34 66.7988 558.566 71.6197 581.641 77.0161" stroke="#024890" stroke-width="0.975557" stroke-miterlimit="10"/>
<path d="M-254.828 -94.4724C-223.041 -75.6852 -194.905 -51.2775 -171.769 -22.4211C-117.274 46.1256 -124.741 100.602 -93.4547 109.038C-45.1089 122.069 -13.8115 -4.46815 87.8611 -24.7278C162.433 -39.5969 238.275 10.0268 255.83 21.5243C324.315 66.3256 333.357 116.146 382.492 117.337C418.426 118.247 429.055 91.9875 485.255 80.7241C524.379 72.8841 558.605 77.705 581.693 83.1004" stroke="#024890" stroke-width="0.975557" stroke-miterlimit="10"/>
<path d="M-254.812 -88.5005C-223.025 -69.7275 -194.882 -45.3384 -171.732 -16.5021C-117.237 52.0445 -124.704 106.521 -93.4304 114.958C-45.0847 127.989 -13.7746 1.45082 87.8854 -18.8078C162.471 -33.6652 238.301 15.9595 255.867 27.4432C324.34 72.2456 333.394 122.065 382.529 123.255C418.45 124.166 429.079 97.9075 485.291 86.643C524.429 78.802 558.654 83.6229 581.729 89.0194" stroke="#024890" stroke-width="0.975557" stroke-miterlimit="10"/>
<path d="M-254.781 -82.4795C-222.991 -63.7102 -194.847 -39.3205 -171.7 -10.4811C-117.206 58.0655 -124.673 112.542 -93.3865 120.978C-45.0408 134.009 -13.7434 7.47181 87.9293 -12.7878C162.502 -27.6442 238.344 21.9794 255.898 33.4642C324.384 78.2783 333.425 128.086 382.561 129.276C418.494 130.186 429.122 103.915 485.322 92.6513C524.446 84.8113 558.672 89.6322 581.76 95.0277" stroke="#024890" stroke-width="0.975557" stroke-miterlimit="10"/>
<path d="M-254.711 -76.4863C-222.926 -57.7097 -194.783 -33.3211 -171.63 -4.48794C-117.135 64.0587 -124.603 118.535 -93.3289 126.972C-45.0093 139.992 -13.677 13.4142 87.9617 -6.79155C162.547 -21.649 238.377 27.9757 255.943 39.4595C324.417 84.2745 333.47 134.081 382.606 135.272C418.527 136.183 429.154 109.911 485.367 98.6466C524.504 90.8055 558.731 95.6392 581.805 101.023" stroke="#024890" stroke-width="0.975557" stroke-miterlimit="10"/>
<path d="M-254.703 -70.4883C-222.913 -51.719 -194.769 -27.3293 -171.622 1.5101C-117.128 70.0568 -124.594 124.546 -93.3084 132.969C-44.9627 146 -13.6653 19.463 88.0074 -0.796587C162.58 -15.653 238.423 33.9707 255.964 45.4565C324.45 90.2705 333.491 140.078 382.626 141.269C418.56 142.179 429.187 115.907 485.387 104.644C524.512 96.8036 558.739 101.637 581.825 107.02" stroke="#024890" stroke-width="0.975557" stroke-miterlimit="10" stroke-dasharray="8 8"/>
<path d="M-254.664 -64.4934C-222.877 -45.7204 -194.733 -21.3313 -171.583 7.50498C-117.088 76.0516 -124.555 130.541 -93.282 138.965C-44.9488 151.997 -13.6261 25.4579 88.0348 5.21201C162.62 -9.64541 238.45 39.9793 256.016 51.463C324.49 96.2781 333.544 146.085 382.679 147.275C418.6 148.186 429.227 121.915 485.44 110.65C524.578 102.822 558.804 107.643 581.878 113.026" stroke="#024890" stroke-width="0.975557" stroke-miterlimit="10"/>
<path d="M-254.594 -58.488C-222.798 -39.7262 -194.653 -15.3355 -171.513 13.5103C-117.019 82.0443 -124.486 136.534 -93.2 144.957C-44.8912 158.003 -13.5588 31.4252 88.0789 11.2068C162.651 -3.66234 238.493 45.9613 256.047 57.4461C324.533 102.26 333.574 152.068 382.709 153.258C418.643 154.168 429.27 127.897 485.47 116.633C524.596 108.806 558.822 113.627 581.908 119.01" stroke="#024890" stroke-width="0.975557" stroke-miterlimit="10"/>
<path d="M-254.586 -52.4773C-222.793 -33.7121 -194.648 -9.32178 -171.505 19.5211C-117.011 88.055 -124.478 142.544 -93.2039 150.981C-44.8581 164.012 -13.5481 37.474 88.1119 17.2154C162.696 2.3453 238.526 51.97 256.093 63.4664C324.566 108.269 333.621 158.088 382.756 159.279C418.689 160.189 429.305 133.931 485.518 122.666C524.655 114.825 558.881 119.646 581.956 125.043" stroke="#024890" stroke-width="0.975557" stroke-miterlimit="10"/>
<path d="M-254.555 -46.4937C-222.762 -27.7284 -194.617 -3.33813 -171.474 25.5048C-116.98 94.0387 -124.447 148.528 -93.16 156.964C-44.8268 169.996 -13.5168 43.4577 88.1579 23.2235C162.73 8.35437 238.572 57.978 256.127 69.4755C324.612 114.277 333.654 164.098 382.789 165.288C418.723 166.198 429.351 139.939 485.551 128.675C524.676 120.835 558.902 125.656 581.989 131.052" stroke="#024890" stroke-width="0.975557" stroke-miterlimit="10"/>
<path d="M-254.477 -40.5017C-222.687 -21.7324 -194.543 2.65733 -171.396 31.4967C-116.901 100.043 -124.368 154.52 -93.0945 162.957C-44.7847 176.016 -13.4396 49.4369 88.1834 29.1941C162.769 14.3367 238.611 63.9603 256.165 75.4451C324.638 120.247 333.692 170.067 382.827 171.257C418.761 172.167 429.377 145.909 485.589 134.645C524.727 126.804 558.953 131.625 582.028 137.021" stroke="#024890" stroke-width="0.975557" stroke-miterlimit="10"/>
<path d="M-254.477 -34.4653C-222.684 -15.7001 -194.539 8.69015 -171.396 37.533C-116.901 106.08 -124.369 160.556 -93.0819 168.992C-44.7361 182.023 -13.4387 55.4859 88.2339 35.2263C162.804 20.3318 238.646 69.9554 256.2 81.4402C324.686 126.254 333.727 176.062 382.862 177.252C418.796 178.162 429.423 151.891 485.623 140.627C524.748 132.787 558.974 137.608 582.061 143.004" stroke="#024890" stroke-width="0.975557" stroke-miterlimit="10"/>
<path d="M-254.438 -28.5078C-222.647 -9.73848 -194.504 14.6512 -171.357 43.4906C-116.862 112.037 -124.329 166.514 -93.0554 174.951C-44.7096 187.982 -13.3996 61.4436 88.2644 41.2358C162.85 26.3783 238.692 76.002 256.246 87.4868C324.719 132.302 333.773 182.109 382.908 183.299C418.842 184.209 429.457 157.938 485.669 146.674C524.807 138.833 559.032 143.654 582.107 149.05" stroke="#024890" stroke-width="0.975557" stroke-miterlimit="10"/>
<path d="M-254.352 -22.5159C-222.562 -3.74655 -194.418 20.6432 -171.271 49.4825C-116.776 118.029 -124.242 172.519 -92.9568 180.942C-44.6577 194.027 -13.3127 67.4482 88.3084 47.1799C162.881 32.3235 238.724 81.9472 256.277 93.432C324.764 138.246 333.805 188.054 382.94 189.244C418.873 190.154 429.501 163.883 485.701 152.619C524.825 144.779 559.065 149.612 582.139 154.995" stroke="#024890" stroke-width="0.975557" stroke-miterlimit="10" stroke-dasharray="8 8"/>
<path d="M-254.352 -16.4543C-222.564 2.31859 -194.421 26.7077 -171.271 55.544C-116.776 124.091 -124.243 178.58 -92.9695 187.004C-44.6237 200.035 -13.3137 73.4969 88.3463 53.2383C162.927 38.3174 238.769 87.9409 256.323 99.4257C324.809 144.24 333.85 194.048 382.985 195.238C418.919 196.148 429.534 169.877 485.746 158.613C524.884 150.772 559.11 155.605 582.184 160.989" stroke="#024890" stroke-width="0.975557" stroke-miterlimit="10"/>
<path d="M-254.328 -10.5083C-222.537 8.25323 -194.392 32.6392 -171.248 61.4774C-116.754 130.024 -124.22 184.513 -92.9344 192.936C-44.5877 205.98 -13.2903 79.443 88.3814 59.1707C162.954 44.3143 238.797 93.9379 256.35 105.423C324.836 150.237 333.89 200.044 383.013 201.235C418.946 202.145 429.574 175.873 485.774 164.61C524.899 156.783 559.138 161.602 582.212 166.986" stroke="#024890" stroke-width="0.975557" stroke-miterlimit="10"/>
<path d="M-254.234 -4.51978C-222.441 14.2454 -194.297 38.6358 -171.154 67.4786C-116.66 136.013 -124.126 190.502 -92.8523 198.939C-44.5395 212.036 -13.1945 85.457 88.413 65.1771C162.997 50.307 238.84 99.9306 256.394 111.428C324.88 156.229 333.921 206.037 383.057 207.24C418.991 208.15 429.605 181.88 485.819 170.628C524.956 162.787 559.182 167.608 582.257 173.004" stroke="#024890" stroke-width="0.975557" stroke-miterlimit="10" stroke-dasharray="8 8"/>
<path d="M-254.25 1.48022C-222.457 20.2454 -194.312 44.6357 -171.169 73.4786C-116.675 142.013 -124.142 196.502 -92.8553 204.938C-44.5095 217.968 -13.1994 91.4305 88.4606 71.1719C163.032 56.3028 238.872 105.888 256.442 117.423C324.915 162.225 333.969 212.045 383.092 213.236C419.025 214.146 429.654 187.887 485.854 176.624C524.991 168.783 559.217 173.604 582.292 179" stroke="#024890" stroke-width="0.975557" stroke-miterlimit="10"/>
<path d="M-254.211 7.47534C-222.421 26.2447 -194.277 50.6344 -171.13 79.4737C-116.635 148.02 -124.103 202.497 -92.8289 210.934C-44.4704 223.963 -13.173 97.4266 88.487 77.168C163.071 62.2979 238.914 111.922 256.468 123.419C324.954 168.22 333.996 218.041 383.131 219.231C419.064 220.141 429.68 193.883 485.893 182.619C525.03 174.778 559.256 179.599 582.331 184.995" stroke="#024890" stroke-width="0.975557" stroke-miterlimit="10"/>
</g>
<ellipse cx="21.4897" cy="22.6234" rx="7.77096" ry="7.84894" fill="#024890"/>
<ellipse cx="139.419" cy="76.1084" rx="3.19981" ry="3.23191" fill="#024890"/>
<ellipse cx="417.321" cy="52.8722" rx="5.48538" ry="5.54043" fill="#024890"/>
<ellipse cx="406.837" cy="172.6" rx="3.65692" ry="3.69362" fill="#024890"/>
</svg>
