<svg width="469" height="270" viewBox="0 0 469 270" fill="none" xmlns="http://www.w3.org/2000/svg">
<g opacity="0.72">
<path d="M-255.189 -148.441C-223.402 -129.677 -195.263 -105.291 -172.122 -76.4539C-117.629 -7.91994 -125.095 46.5693 -93.8084 55.0052C-45.4626 68.0359 -14.1652 -58.5009 87.5075 -78.7606C162.079 -93.6296 237.922 -44.006 255.476 -32.5085C323.962 12.2928 333.016 62.1124 382.139 63.3037C418.072 64.2136 428.701 37.9547 484.901 26.6913C524.025 18.8513 558.264 23.6711 581.339 29.0676" stroke="#D11D1D" stroke-width="0.975557" stroke-miterlimit="10"/>
<path d="M-255.158 -142.445C-223.368 -123.675 -195.224 -99.2856 -172.077 -70.4462C-117.583 -1.89955 -125.05 52.577 -93.7761 61.0139C-45.4177 74.0436 -14.1203 -52.4933 87.5397 -72.7519C162.125 -87.6093 237.968 -37.9856 255.521 -26.5008C324.007 18.3005 333.048 68.1211 382.184 69.3114C418.117 70.2213 428.733 43.9634 484.946 32.6989C524.083 24.8579 558.309 29.6788 581.384 35.0753" stroke="#D11D1D" stroke-width="0.975557" stroke-miterlimit="10" stroke-dasharray="8 8"/>
<path d="M-255.125 -136.448C-223.332 -117.683 -195.187 -93.293 -172.044 -64.4501C-117.549 4.09654 -125.017 58.5731 -93.7303 67.009C-45.4224 80.0428 -14.0745 -46.4982 87.5855 -66.7568C162.158 -81.6132 238.001 -31.9896 255.554 -20.5048C324.041 24.3093 333.094 74.1162 382.217 75.3075C418.15 76.2174 428.778 49.9457 484.978 38.6823C524.115 30.8413 558.341 35.6622 581.416 41.0587" stroke="#D11D1D" stroke-width="0.975557" stroke-miterlimit="10"/>
<path d="M-255.07 -130.454C-223.283 -111.68 -195.143 -87.2855 -172.001 -58.4423C-117.506 10.1043 -124.974 64.5809 -93.6999 73.0178C-45.3415 86.0475 -14.0441 -40.4894 87.6159 -60.748C162.201 -75.6054 238.044 -25.9818 255.597 -14.497C324.084 30.3171 333.125 80.125 382.26 81.3153C418.193 82.2252 428.808 55.9546 485.021 44.6901C524.158 36.8491 558.384 41.67 581.459 47.0665" stroke="#D11D1D" stroke-width="0.975557" stroke-miterlimit="10"/>
<path d="M-255.051 -124.458C-223.261 -105.688 -195.117 -81.2986 -171.97 -52.4593C-117.463 16.0864 -124.942 70.5767 -93.6561 78.9998C-45.3103 92.0305 -14.0002 -34.5074 87.6598 -54.7659C162.245 -69.6234 238.075 -19.9987 255.641 -8.51494C324.115 36.3001 333.168 86.107 382.291 87.2984C418.225 88.2083 428.852 61.9366 485.052 50.6732C524.189 42.8322 558.416 47.6658 581.49 53.0495" stroke="#D11D1D" stroke-width="0.975557" stroke-miterlimit="10"/>
<path d="M-255.006 -118.463C-223.218 -99.6898 -195.075 -75.3007 -171.925 -46.4645C-117.43 22.0821 -124.897 76.5713 -93.6238 84.9955C-45.3033 98.0283 -13.968 -28.5115 87.7007 -48.822C162.273 -63.6783 238.116 -14.0548 255.67 -2.56998C324.156 42.244 333.197 92.0519 382.332 93.2422C418.266 94.1521 428.88 67.8815 485.093 56.6171C524.23 48.776 558.457 53.6097 581.544 58.9924" stroke="#D11D1D" stroke-width="0.975557" stroke-miterlimit="10" stroke-dasharray="8 8"/>
<path d="M-254.949 -112.456C-223.162 -93.6802 -195.026 -69.2806 -171.892 -40.43C-117.384 28.1156 -124.863 82.606 -93.5778 91.0291C-45.231 104.073 -13.921 -22.4654 87.739 -42.724C162.323 -57.5942 238.153 -7.96945 255.72 3.51432C324.193 48.3294 333.247 98.1363 382.369 99.3277C418.303 100.238 428.93 73.9659 485.131 62.7025C524.269 54.8741 558.495 59.6951 581.569 65.0788" stroke="#D11D1D" stroke-width="0.975557" stroke-miterlimit="10" stroke-dasharray="8 8"/>
<path d="M-254.934 -106.511C-223.141 -87.7463 -194.996 -63.356 -171.853 -34.5131C-117.359 34.0209 -124.826 88.5101 -93.5515 96.947C-45.1931 109.977 -13.8957 -16.5602 87.7769 -36.8198C162.349 -51.6889 238.191 -2.06524 255.746 9.43226C324.231 54.2336 333.272 104.042 382.408 105.245C418.342 106.154 428.969 79.8828 485.17 68.6321C524.295 60.7921 558.521 65.613 581.608 71.0084" stroke="#D11D1D" stroke-width="0.975557" stroke-miterlimit="10"/>
<path d="M-254.898 -100.465C-223.104 -81.6975 -194.956 -57.3081 -171.805 -28.4681C-117.311 40.0658 -124.79 94.5561 -93.5037 102.992C-45.1833 116.025 -13.8479 -10.5152 87.8091 -30.8119C162.393 -45.682 238.223 3.94262 255.791 15.4391C324.263 60.2414 333.318 110.061 382.44 111.252C418.374 112.162 429.002 85.9033 485.202 74.6399C524.34 66.7989 558.566 71.6198 581.641 77.0163" stroke="#D11D1D" stroke-width="0.975557" stroke-miterlimit="10"/>
<path d="M-254.83 -94.4723C-223.043 -75.6851 -194.906 -51.2773 -171.771 -22.421C-117.276 46.1258 -124.743 100.602 -93.4567 109.038C-45.1109 122.069 -13.8135 -4.46802 87.8592 -24.7277C162.431 -39.5968 238.273 10.0269 255.828 21.5244C324.313 66.3258 333.355 116.146 382.49 117.337C418.424 118.247 429.053 91.9877 485.253 80.7242C524.377 72.8842 558.603 77.7051 581.691 83.1006" stroke="#D11D1D" stroke-width="0.975557" stroke-miterlimit="10"/>
<path d="M-254.812 -88.5004C-223.025 -69.7274 -194.882 -45.3382 -171.732 -16.502C-117.237 52.0447 -124.704 106.521 -93.4304 114.958C-45.0847 127.989 -13.7746 1.45094 87.8854 -18.8077C162.471 -33.6651 238.301 15.9596 255.867 27.4433C324.34 72.2457 333.394 122.065 382.529 123.256C418.45 124.167 429.079 97.9076 485.291 86.6431C524.429 78.8021 558.654 83.623 581.729 89.0195" stroke="#D11D1D" stroke-width="0.975557" stroke-miterlimit="10"/>
<path d="M-254.781 -82.4792C-222.991 -63.7099 -194.847 -39.3202 -171.7 -10.4809C-117.206 58.0658 -124.673 112.542 -93.3865 120.978C-45.0408 134.009 -13.7434 7.47205 87.9293 -12.7876C162.502 -27.644 238.344 21.9797 255.898 33.4645C324.384 78.2785 333.425 128.086 382.561 129.277C418.494 130.187 429.122 103.915 485.322 92.6516C524.446 84.8116 558.672 89.6325 581.76 95.0279" stroke="#D11D1D" stroke-width="0.975557" stroke-miterlimit="10"/>
<path d="M-254.711 -76.4863C-222.926 -57.7097 -194.783 -33.3211 -171.63 -4.48794C-117.135 64.0587 -124.603 118.535 -93.3289 126.972C-45.0093 139.992 -13.677 13.4142 87.9617 -6.79155C162.547 -21.649 238.377 27.9757 255.943 39.4595C324.417 84.2745 333.47 134.081 382.606 135.272C418.527 136.183 429.154 109.911 485.367 98.6466C524.504 90.8055 558.731 95.6392 581.805 101.023" stroke="#D11D1D" stroke-width="0.975557" stroke-miterlimit="10"/>
<path d="M-254.705 -70.4883C-222.915 -51.719 -194.771 -27.3293 -171.624 1.5101C-117.13 70.0568 -124.596 124.546 -93.3104 132.969C-44.9646 146 -13.6672 19.463 88.0054 -0.796587C162.578 -15.653 238.421 33.9707 255.962 45.4565C324.448 90.2705 333.489 140.078 382.624 141.269C418.558 142.179 429.185 115.907 485.385 104.644C524.51 96.8036 558.737 101.637 581.823 107.02" stroke="#D11D1D" stroke-width="0.975557" stroke-miterlimit="10" stroke-dasharray="8 8"/>
<path d="M-254.66 -64.4932C-222.873 -45.7202 -194.729 -21.331 -171.579 7.50522C-117.085 76.0519 -124.551 130.541 -93.2781 138.965C-44.9449 151.997 -13.6222 25.4581 88.0387 5.21226C162.624 -9.64517 238.454 39.9795 256.02 51.4633C324.494 96.2783 333.547 146.085 382.683 147.276C418.604 148.186 429.231 121.915 485.444 110.65C524.582 102.822 558.808 107.643 581.882 113.027" stroke="#D11D1D" stroke-width="0.975557" stroke-miterlimit="10"/>
<path d="M-254.59 -58.4878C-222.794 -39.726 -194.649 -15.3352 -171.509 13.5106C-117.015 82.0445 -124.482 136.534 -93.1961 144.957C-44.8873 158.003 -13.5549 31.4254 88.0828 11.207C162.655 -3.6621 238.497 45.9615 256.051 57.4463C324.537 102.26 333.578 152.068 382.713 153.259C418.647 154.169 429.274 127.897 485.474 116.633C524.6 108.806 558.826 113.627 581.912 119.01" stroke="#D11D1D" stroke-width="0.975557" stroke-miterlimit="10"/>
<path d="M-254.584 -52.4772C-222.791 -33.712 -194.646 -9.32166 -171.503 19.5212C-117.009 88.0551 -124.476 142.544 -93.2019 150.981C-44.8561 164.012 -13.5461 37.4741 88.1139 17.2155C162.698 2.34542 238.528 51.9701 256.095 63.4665C324.568 108.269 333.623 158.089 382.758 159.279C418.691 160.189 429.307 133.931 485.52 122.666C524.657 114.825 558.883 119.646 581.958 125.043" stroke="#D11D1D" stroke-width="0.975557" stroke-miterlimit="10"/>
<path d="M-254.553 -46.4937C-222.76 -27.7284 -194.615 -3.33813 -171.472 25.5048C-116.978 94.0387 -124.445 148.528 -93.158 156.964C-44.8249 169.996 -13.5148 43.4577 88.1598 23.2235C162.732 8.35437 238.574 57.978 256.129 69.4755C324.614 114.277 333.656 164.098 382.791 165.288C418.725 166.198 429.353 139.939 485.553 128.675C524.678 120.835 558.904 125.656 581.991 131.052" stroke="#D11D1D" stroke-width="0.975557" stroke-miterlimit="10"/>
<path d="M-254.471 -40.5017C-222.681 -21.7324 -194.537 2.65733 -171.39 31.4967C-116.895 100.043 -124.363 154.52 -93.0886 162.957C-44.7788 176.016 -13.4338 49.4369 88.1893 29.1941C162.775 14.3367 238.617 63.9603 256.171 75.4451C324.643 120.247 333.698 170.067 382.833 171.257C418.767 172.167 429.383 145.909 485.595 134.645C524.733 126.804 558.958 131.625 582.033 137.021" stroke="#D11D1D" stroke-width="0.975557" stroke-miterlimit="10"/>
<path d="M-254.475 -34.4653C-222.682 -15.7001 -194.537 8.69015 -171.394 37.533C-116.899 106.08 -124.367 160.556 -93.0799 168.992C-44.7341 182.023 -13.4367 55.4859 88.2359 35.2263C162.806 20.3318 238.648 69.9554 256.202 81.4402C324.688 126.254 333.729 176.062 382.864 177.252C418.798 178.162 429.425 151.891 485.625 140.627C524.75 132.787 558.976 137.608 582.063 143.004" stroke="#D11D1D" stroke-width="0.975557" stroke-miterlimit="10"/>
<path d="M-254.434 -28.5076C-222.644 -9.73824 -194.5 14.6515 -171.353 43.4909C-116.858 112.038 -124.326 166.514 -93.0515 174.951C-44.7057 187.982 -13.3957 61.4438 88.2683 41.236C162.854 26.3786 238.696 76.0023 256.25 87.4871C324.723 132.302 333.777 182.109 382.912 183.299C418.846 184.209 429.461 157.939 485.673 146.674C524.811 138.833 559.036 143.654 582.111 149.051" stroke="#D11D1D" stroke-width="0.975557" stroke-miterlimit="10"/>
<path d="M-254.352 -22.5159C-222.562 -3.74655 -194.418 20.6432 -171.271 49.4825C-116.776 118.029 -124.242 172.519 -92.9568 180.942C-44.6577 194.027 -13.3127 67.4482 88.3084 47.1799C162.881 32.3235 238.724 81.9472 256.277 93.432C324.764 138.246 333.805 188.054 382.94 189.244C418.873 190.154 429.501 163.883 485.701 152.619C524.825 144.779 559.065 149.612 582.139 154.995" stroke="#D11D1D" stroke-width="0.975557" stroke-miterlimit="10" stroke-dasharray="8 8"/>
<path d="M-254.352 -16.4542C-222.564 2.31871 -194.421 26.7079 -171.271 55.5441C-116.776 124.091 -124.243 178.58 -92.9695 187.004C-44.6237 200.035 -13.3137 73.497 88.3463 53.2384C162.927 38.3175 238.769 87.9411 256.323 99.4258C324.809 144.24 333.85 194.048 382.985 195.238C418.919 196.148 429.534 169.877 485.746 158.613C524.884 150.772 559.11 155.605 582.184 160.989" stroke="#D11D1D" stroke-width="0.975557" stroke-miterlimit="10"/>
<path d="M-254.326 -10.5083C-222.535 8.25323 -194.39 32.6392 -171.246 61.4774C-116.752 130.024 -124.218 184.513 -92.9325 192.936C-44.5857 205.98 -13.2883 79.443 88.3834 59.1707C162.956 44.3143 238.799 93.9379 256.352 105.423C324.838 150.237 333.892 200.044 383.015 201.235C418.948 202.145 429.576 175.873 485.776 164.61C524.901 156.783 559.14 161.602 582.214 166.986" stroke="#D11D1D" stroke-width="0.975557" stroke-miterlimit="10"/>
<path d="M-254.23 -4.51965C-222.438 14.2456 -194.293 38.6359 -171.15 67.4788C-116.656 136.013 -124.122 190.502 -92.8484 198.939C-44.5356 212.036 -13.1906 85.4571 88.4169 65.1772C163.001 50.3071 238.844 99.9307 256.398 111.428C324.884 156.23 333.925 206.038 383.061 207.241C418.994 208.15 429.609 181.88 485.823 170.628C524.96 162.787 559.186 167.608 582.261 173.004" stroke="#D11D1D" stroke-width="0.975557" stroke-miterlimit="10" stroke-dasharray="8 8"/>
<path d="M-254.25 1.48047C-222.457 20.2457 -194.312 44.636 -171.169 73.4788C-116.675 142.013 -124.142 196.502 -92.8553 204.938C-44.5095 217.969 -13.1994 91.4307 88.4606 71.1722C163.032 56.3031 238.872 105.889 256.442 117.423C324.915 162.226 333.969 212.045 383.092 213.236C419.025 214.146 429.654 187.887 485.854 176.624C524.991 168.783 559.217 173.604 582.292 179" stroke="#D11D1D" stroke-width="0.975557" stroke-miterlimit="10"/>
<path d="M-254.205 7.47546C-222.415 26.2448 -194.271 50.6345 -171.124 79.4738C-116.629 148.02 -124.097 202.497 -92.823 210.934C-44.4646 223.964 -13.1672 97.4268 88.4928 77.1682C163.077 62.298 238.92 111.922 256.474 123.419C324.96 168.221 334.002 218.041 383.137 219.231C419.07 220.141 429.686 193.883 485.899 182.619C525.036 174.778 559.262 179.599 582.337 184.995" stroke="#D11D1D" stroke-width="0.975557" stroke-miterlimit="10"/>
</g>
<ellipse cx="21.4838" cy="22.6234" rx="7.77096" ry="7.84894" fill="#D11D1D"/>
<ellipse cx="139.421" cy="76.1085" rx="3.19981" ry="3.23191" fill="#D11D1D"/>
<ellipse cx="417.317" cy="52.8723" rx="5.48538" ry="5.54043" fill="#D11D1D"/>
<ellipse cx="406.833" cy="172.6" rx="3.65692" ry="3.69362" fill="#D11D1D"/>
</svg>
