<svg width="24" height="24" viewBox="0 0 24 24" fill="none" xmlns="http://www.w3.org/2000/svg">
<g clip-path="url(#clip0_4938_77117)">
<path fill-rule="evenodd" clip-rule="evenodd" d="M0.205078 21.8422V4.76019C0.205277 4.28319 0.394801 3.82577 0.73202 3.48841C1.06924 3.15105 1.52658 2.96133 2.00358 2.96094H19.0848L0.205078 21.8422Z" fill="#1EA361"/>
<path fill-rule="evenodd" clip-rule="evenodd" d="M0.204852 22.1999V21.8414L19.0854 2.9624H19.4439C19.9209 2.9626 20.3783 3.15213 20.7156 3.48934C21.053 3.82656 21.2427 4.2839 21.2431 4.7609V5.1209L2.3626 23.9999H2.0026C1.5256 23.9995 1.06826 23.8098 0.731044 23.4724C0.393824 23.1351 0.2043 22.6777 0.204102 22.2007" fill="#FEDB43"/>
<path fill-rule="evenodd" clip-rule="evenodd" d="M2.3623 24.0002L10.7248 15.6392L19.0851 24.0002H2.3623Z" fill="#5384C4"/>
<path fill-rule="evenodd" clip-rule="evenodd" d="M19.0854 23.9997L10.7236 15.6372L12.8806 13.4795L21.2431 21.842V22.2005C21.2429 22.6776 21.0533 23.1352 20.7159 23.4725C20.3785 23.8099 19.921 23.9995 19.4439 23.9997H19.0854Z" fill="white"/>
<path fill-rule="evenodd" clip-rule="evenodd" d="M21.2434 21.8422L12.8809 13.4797L21.2434 5.11719V21.8422Z" fill="#C2C2C1"/>
<path d="M3.95743 5.2875C5.02768 4.79775 6.36718 4.99725 7.23643 5.799L6.40543 6.624C5.53543 5.7615 3.90268 6.17025 3.49543 7.31174C2.97043 8.43524 3.84793 9.912 5.10043 9.92775C5.92018 10.023 6.73843 9.474 6.91168 8.65725C6.33868 8.658 5.76718 8.65275 5.19568 8.66175L5.18518 7.60199L8.06518 7.641C8.13718 8.34074 8.08768 9.08325 7.71118 9.696C7.12093 10.794 5.72818 11.274 4.54918 10.9965C3.09193 10.6942 2.00143 9.19949 2.20018 7.719C2.30143 6.675 3.00043 5.72025 3.95743 5.2875Z" fill="#EFEFEF"/>
<path d="M17.5683 0H18.2523C19.957 0.0975 21.6235 0.93 22.6563 2.30025C23.3328 3.16575 23.7108 4.23975 23.7963 5.33025V5.73525C23.7565 7.85025 22.4035 9.58575 21.2313 11.2305C19.9158 13.089 18.7008 15.1155 18.3633 17.4053C18.2733 17.793 18.3813 18.3368 17.9178 18.5115C17.809 18.4268 17.6815 18.3562 17.605 18.2377C17.4678 16.9575 17.155 15.6923 16.6015 14.523C15.9813 13.1603 15.1188 11.928 14.2413 10.7242C13.7073 10.002 13.204 9.25425 12.7878 8.45625C12.1338 7.2615 11.89 5.85 12.1578 4.50975C12.3768 3.45975 12.9303 2.46975 13.6975 1.71225C14.7303 0.702 16.1275 0.09 17.5683 0ZM17.4355 3.7245C16.627 3.9045 15.9483 4.62 15.88 5.4495C15.8469 5.83884 15.9311 6.22918 16.1217 6.57029C16.3123 6.91139 16.6006 7.18765 16.9495 7.3635C17.3313 7.55814 17.7628 7.63354 18.1879 7.57991C18.6131 7.52628 19.0123 7.3461 19.3338 7.06275C19.626 6.79678 19.8301 6.44803 19.919 6.06304C20.0078 5.67804 19.9771 5.27511 19.831 4.908C19.4658 3.9945 18.3835 3.474 17.4355 3.708" fill="#DC4B3E"/>
<path d="M17.4349 3.72433C18.3821 3.48208 19.4659 4.00183 19.8304 4.92433C20.1304 5.65408 19.9234 6.55633 19.3331 7.07908C19.0117 7.36243 18.6124 7.54262 18.1873 7.59625C17.7621 7.64987 17.3307 7.57447 16.9489 7.37983C16.2514 7.03483 15.7939 6.24508 15.8794 5.46583C15.9544 4.62883 16.6264 3.91333 17.4349 3.74083" fill="#802C27"/>
</g>
<defs>
<clipPath id="clip0_4938_77117">
<rect width="24" height="24" fill="white"/>
</clipPath>
</defs>
</svg>
