<svg width="177" height="53" viewBox="0 0 177 53" fill="none" xmlns="http://www.w3.org/2000/svg">
<g clip-path="url(#clip0_1_3523)">
<path d="M4.08841 40.6762C4.10771 40.6832 4.12877 40.6921 4.14982 40.7009C4.15684 40.7027 4.1621 40.7044 4.16912 40.708C4.24808 40.7362 4.32704 40.7662 4.40776 40.7945H4.40951L4.53234 40.8369C4.67447 40.8863 4.82713 40.9358 5.02892 40.9976C5.38161 41.107 5.73956 41.2024 6.09927 41.2854C7.22578 41.545 8.38738 41.6756 9.57003 41.6809C9.69813 41.6809 9.82446 41.6809 9.95255 41.6774C10.1596 41.6739 10.3684 41.6651 10.5772 41.6527C10.8843 41.635 11.1896 41.6103 11.4949 41.575C12.4758 41.4655 13.4444 41.266 14.3901 40.9817C14.5235 40.9428 14.6569 40.9004 14.7885 40.8563C14.9411 40.8069 15.0903 40.7556 15.2394 40.7009C16.2466 40.3389 17.2169 39.878 18.1206 39.3253C18.368 39.1734 18.6137 39.0145 18.8558 38.8485C19.1313 38.6614 19.4015 38.4636 19.6665 38.2587C19.7472 38.1969 19.8279 38.1334 19.9069 38.0698C20.149 37.8756 20.3876 37.6725 20.6245 37.4623C20.3473 37.3105 20.0613 37.1622 19.7753 37.0191C19.7138 36.9891 19.6595 36.9626 19.6033 36.9361L19.5858 36.9273C18.6312 36.4646 17.6468 36.0603 16.6519 35.7212C16.4923 35.6665 16.3361 35.6153 16.1782 35.5641C16.0676 35.5287 15.9641 35.4952 15.8588 35.4634L15.8132 35.4493C15.7342 35.4246 15.6553 35.3998 15.5746 35.3751C15.3078 35.2939 15.0429 35.2144 14.7744 35.1367C13.7427 34.8365 12.6916 34.5558 11.5914 34.2626C11.4686 34.2291 11.3458 34.1973 11.2212 34.1638C10.6755 34.019 10.121 33.8689 9.55951 33.7135C9.37702 33.664 9.19629 33.6128 9.0138 33.5616C9.00854 33.5616 9.00327 33.5581 8.99801 33.5563C8.08908 33.302 7.2714 33.0583 6.50987 32.8182C6.05365 32.6734 5.62025 32.5286 5.19737 32.3838C5.04822 32.3326 4.90083 32.2814 4.75694 32.2284C4.66745 32.1966 4.57972 32.1648 4.49023 32.133C4.31125 32.0677 4.13403 32.0024 3.95856 31.937C3.89539 31.9141 3.83398 31.8893 3.77081 31.8664C3.53217 31.7746 3.29529 31.6827 3.06192 31.5874C2.97419 31.5521 2.88645 31.5168 2.80047 31.4814C2.54429 31.3773 2.29161 31.2695 2.0442 31.1618C2.02841 31.1548 2.01437 31.1477 1.99858 31.1424C1.99156 31.1389 1.98454 31.1371 1.97928 31.1336C1.95121 31.123 1.92313 31.1088 1.89506 31.0965C1.85119 31.0771 1.80732 31.0576 1.76346 31.0382C1.67748 31.0011 1.59325 30.9623 1.50727 30.9234C1.4985 30.9199 1.49148 30.9164 1.48271 30.9111C1.45288 30.8987 1.42305 30.8846 1.39497 30.8705C1.24056 30.7998 1.08439 30.7292 0.931736 30.655C0.779079 30.5826 0.626421 30.5102 0.473764 30.4361C0.414105 30.4078 0.354446 30.3778 0.296541 30.3478C0.289522 30.3442 0.282504 30.3407 0.27724 30.3389C0.821191 34.1002 2.14948 37.6036 4.08841 40.6779M31.6334 21.7852C30.5946 22.6911 30.0349 24.0737 29.5822 25.4352C27.9521 30.3513 25.7693 34.3262 23.0846 37.2663C22.9091 37.4588 22.7301 37.6478 22.5494 37.8314C22.5073 37.8756 22.4634 37.9197 22.4196 37.9638C22.2792 38.1051 22.1353 38.2446 21.9897 38.3824C21.7054 38.6543 21.4124 38.9139 21.1176 39.1611C21.0264 39.2388 20.9334 39.3147 20.8404 39.3906C20.6807 39.5196 20.521 39.6449 20.3578 39.7685C19.8823 40.1288 19.3927 40.466 18.8927 40.7715C18.0469 41.2872 17.1503 41.7357 16.222 42.103C16.101 42.1507 15.9799 42.1966 15.8588 42.2407C15.8185 42.2566 15.7763 42.2707 15.7342 42.2866C14.3077 42.804 12.8215 43.1378 11.3107 43.279C11.2089 43.2879 11.1071 43.2985 11.0054 43.3055C10.886 43.3144 10.7667 43.3232 10.6474 43.3302C8.94361 43.4274 7.26789 43.2843 5.65534 42.9029C8.71024 46.7984 12.8267 49.8109 17.5679 51.4955C17.6293 51.4849 17.6907 51.4743 17.7521 51.4619L17.8188 51.4496C19.9542 51.0487 22.0353 50.33 24.0163 49.3094C24.0479 49.2935 24.0777 49.2794 24.1076 49.2617C24.4252 49.0975 24.7375 48.9262 25.0498 48.7443C26.0044 48.1951 26.9361 47.5683 27.8275 46.8849C27.9503 46.7878 28.0749 46.6924 28.1995 46.5935C28.2942 46.5176 28.389 46.4417 28.4837 46.364C28.7013 46.1874 28.9136 46.0055 29.1277 45.8183C29.3892 45.5905 29.6471 45.3557 29.9033 45.1137C29.9121 45.1049 29.9208 45.0961 29.9314 45.0873C30.2244 44.81 30.5122 44.5257 30.7947 44.2344C32.7669 42.2001 34.4742 39.825 35.8341 37.2381C36.0166 36.892 36.1921 36.5423 36.3605 36.1892C36.7764 35.3257 37.1519 34.441 37.487 33.5386L37.5309 33.4221C38.0748 31.9494 38.5082 30.429 38.8223 28.898C39.0171 27.9462 39.1136 27.035 39.1136 26.1945C39.1136 25.2568 38.9925 24.4057 38.7592 23.6729C38.6451 23.3162 38.5012 22.9895 38.3328 22.6946C38.2608 22.5675 38.1836 22.4474 38.1029 22.3361C38.0134 22.2108 37.9169 22.0942 37.8134 21.9812C37.0694 21.1777 36.0008 20.7469 34.6321 20.701C34.5848 20.701 34.5356 20.6992 34.4883 20.6992C33.4618 20.6992 32.4283 21.0912 31.6316 21.7887M45.1532 17.8456C45.1532 17.8456 45.1357 17.8456 45.1269 17.8456C45.069 17.8456 45.0128 17.8491 44.9567 17.8527C44.8935 17.8562 44.8321 17.8615 44.7689 17.8668C44.7549 17.8668 44.7426 17.8703 44.7303 17.8721C44.6689 17.8774 44.6093 17.8845 44.5479 17.8933C44.4794 17.9021 44.4127 17.9127 44.3461 17.9251C44.2829 17.9357 44.218 17.948 44.1566 17.9621C44.1092 17.971 44.0601 17.9816 44.0144 17.9957C43.9846 18.0028 43.953 18.0098 43.9232 18.0169C43.867 18.031 43.8126 18.0451 43.7583 18.0628C43.6284 18.0999 43.5021 18.1423 43.3775 18.1899C43.3529 18.1988 43.3284 18.2076 43.3038 18.2182C43.2196 18.2517 43.1371 18.2853 43.0546 18.3241C42.9792 18.3577 42.9055 18.393 42.83 18.4319C42.7563 18.4689 42.6826 18.5096 42.6089 18.5502C42.5001 18.612 42.3914 18.6773 42.2861 18.7479C42.179 18.8168 42.0738 18.891 41.9685 18.9704C41.9281 19.0005 41.886 19.034 41.8456 19.064C41.8176 19.087 41.7895 19.1082 41.7632 19.1311C41.7281 19.1594 41.6947 19.1876 41.6614 19.2159C41.6105 19.26 41.5596 19.3042 41.5105 19.3483C41.4596 19.3942 41.4105 19.4384 41.3614 19.4861C41.3245 19.5214 41.2877 19.5567 41.2526 19.5938C41.1841 19.6609 41.1175 19.7298 41.0508 19.8022C41.0209 19.8322 40.9929 19.864 40.963 19.8957C40.6718 20.2189 40.3945 20.5774 40.1296 20.9729C40.0997 21.0188 40.0699 21.063 40.0401 21.1089C40.0138 21.1495 39.9874 21.1901 39.9611 21.2325C39.9506 21.2484 39.9401 21.266 39.9295 21.2837C39.9032 21.3278 39.8751 21.372 39.8506 21.4161C39.8383 21.4356 39.826 21.4568 39.8137 21.4762C40.1805 22.5163 40.4331 23.6111 40.5542 24.7448C40.6051 25.1085 40.6332 25.474 40.6454 25.8396C40.6507 26.0003 40.6525 26.161 40.6525 26.3216C40.6507 26.5901 40.6402 26.8567 40.6244 27.1251C40.6104 27.3511 40.5893 27.5772 40.5647 27.805C40.5647 27.8173 40.563 27.8297 40.5612 27.842C40.5524 27.918 40.5437 27.9939 40.5331 28.0681C40.4823 28.476 40.4121 28.8804 40.3296 29.2812C40.2787 29.5267 40.2261 29.7703 40.1682 30.014C40.0453 30.5438 39.9102 31.0718 39.7611 31.598C39.5435 32.3644 39.2978 33.1237 39.0241 33.8706L38.9715 34.0013L38.9206 34.1496C38.7293 34.6564 38.5275 35.1579 38.3135 35.6541C38.3135 35.6577 38.31 35.6612 38.3082 35.6647C38.2661 35.7636 38.2222 35.8625 38.1784 35.9614C38.1345 36.062 38.0889 36.1592 38.045 36.258C37.9994 36.3587 37.9538 36.4576 37.9064 36.5582C37.6993 36.9997 37.4835 37.4341 37.2572 37.865C37.1063 38.1546 36.9501 38.4406 36.7904 38.7249C36.6518 38.9721 36.5097 39.2176 36.3623 39.4613C35.341 41.1741 34.1689 42.7811 32.8687 44.2449C32.8529 44.2626 32.8371 44.2803 32.8213 44.2979C32.523 44.6334 32.216 44.9619 31.9054 45.2833C31.1491 46.0585 30.3507 46.7913 29.526 47.4676C29.4067 47.5647 29.2874 47.6619 29.1663 47.7572C29.0593 47.8402 28.9522 47.925 28.8452 48.008C28.6153 48.1845 28.3855 48.3576 28.1504 48.5236C27.7801 48.792 27.4046 49.0498 27.0239 49.2953C26.9852 49.3217 26.9466 49.3465 26.908 49.3712C26.5536 49.5972 26.1939 49.8144 25.8342 50.0228C24.176 50.9746 22.2423 51.7869 20.4543 52.329C20.4473 52.3307 20.4403 52.3325 20.435 52.3343C22.2353 52.751 24.1076 52.9806 26.0307 53.0035C26.1377 53.0053 26.2465 53.0071 26.3536 53.0071C26.4606 53.0071 26.5782 53.0071 26.6887 53.0053C40.3454 52.8322 51.4982 42.2054 52.6089 28.7091C52.6176 28.5978 52.6264 28.4883 52.6334 28.3771C52.6404 28.2906 52.6457 28.2023 52.6492 28.1157C52.6545 28.0292 52.6598 27.9427 52.6633 27.8562C52.6685 27.759 52.672 27.6602 52.6773 27.563C52.6826 27.4394 52.6861 27.3158 52.6896 27.1904C52.6896 27.1392 52.6931 27.088 52.6948 27.0368C52.6948 26.9821 52.6966 26.9256 52.6983 26.8708C52.6983 26.8549 52.6984 26.8373 52.6966 26.8214C52.6966 26.7772 52.6931 26.7331 52.6931 26.6889V26.6801C52.6896 26.6254 52.6878 26.5689 52.6861 26.5141C52.6826 26.4629 52.6808 26.4099 52.6755 26.357C52.672 26.2916 52.6685 26.2281 52.6615 26.1627C52.658 26.0992 52.6527 26.0356 52.6457 25.972C52.6422 25.942 52.6404 25.9102 52.6369 25.8784C52.6317 25.8166 52.6247 25.7548 52.6159 25.6912C52.6159 25.6824 52.6159 25.6736 52.6124 25.6648C52.6054 25.5994 52.5983 25.5376 52.5896 25.4723C52.5808 25.4034 52.572 25.3363 52.5615 25.2674C52.5615 25.2639 52.5615 25.2604 52.5597 25.2568C52.551 25.195 52.5422 25.135 52.5317 25.0732C52.5246 25.0273 52.5176 24.9831 52.5106 24.939C52.4983 24.8737 52.4878 24.8101 52.4755 24.7465V24.7412L52.4738 24.7377C52.4702 24.7218 52.4685 24.7077 52.465 24.6918C52.4597 24.6653 52.4545 24.6388 52.4492 24.6141C52.4369 24.5505 52.4229 24.4869 52.4088 24.4234C52.3562 24.185 52.2965 23.9484 52.2281 23.7153C52.2158 23.6711 52.2035 23.6287 52.1912 23.5881C52.1737 23.5281 52.1544 23.468 52.1351 23.4098C52.0842 23.2473 52.0263 23.0849 51.9667 22.9224C51.9491 22.873 51.9298 22.8253 51.9105 22.7776C51.9017 22.7529 51.893 22.7299 51.8824 22.707L51.8544 22.6346C51.8017 22.5074 51.7456 22.3768 51.6789 22.2355L51.635 22.1384C51.5824 22.0271 51.5262 21.9194 51.4701 21.8117C51.4473 21.7675 51.4227 21.7234 51.3999 21.681C51.3613 21.6104 51.3209 21.5397 51.2788 21.4709C51.2613 21.4373 51.242 21.4073 51.2209 21.3738C51.1595 21.2731 51.0963 21.1742 51.0314 21.0753C50.9946 21.0188 50.956 20.9641 50.9191 20.9093C50.9156 20.904 50.9121 20.8987 50.9086 20.8934C50.8279 20.7804 50.7454 20.6674 50.6594 20.5597C50.4839 20.3319 50.2962 20.1182 50.1014 19.9169C50.0821 19.8957 50.0611 19.8763 50.0418 19.8551C50.033 19.8445 50.0225 19.8357 50.0119 19.8251C49.9733 19.7863 49.9347 19.7474 49.8944 19.7103C49.854 19.6733 49.8154 19.6344 49.7751 19.5991C49.7365 19.562 49.6961 19.5267 49.654 19.4914C49.568 19.4137 49.4803 19.3413 49.3925 19.2706C49.3557 19.2424 49.3206 19.2124 49.282 19.1859C49.2399 19.1523 49.1978 19.1205 49.1539 19.0888C49.0679 19.0252 48.9819 18.9651 48.8942 18.9086C48.8556 18.8822 48.817 18.8592 48.7801 18.8327C48.7696 18.8256 48.7573 18.8186 48.7468 18.8133C48.7082 18.7886 48.6679 18.7638 48.6275 18.7409C48.5047 18.6667 48.3801 18.5979 48.2537 18.5343C48.2151 18.5131 48.1765 18.4937 48.1362 18.476C48.1239 18.4707 48.1116 18.4636 48.0993 18.4584C48.0607 18.4407 48.0204 18.4213 47.9818 18.4036C47.9502 18.3895 47.9186 18.3754 47.8853 18.3612C47.8554 18.3489 47.8256 18.3365 47.7958 18.3241C47.7466 18.303 47.6958 18.2835 47.6466 18.2641C47.6028 18.2465 47.5589 18.2306 47.515 18.2164C47.4606 18.197 47.4062 18.1793 47.3501 18.1599C47.2922 18.1423 47.236 18.1246 47.1781 18.1087C47.136 18.0964 47.0921 18.084 47.0518 18.0734C47.0167 18.0646 46.9798 18.0557 46.943 18.0469C46.9272 18.0434 46.9114 18.0398 46.8956 18.0363C46.8412 18.024 46.7886 18.0116 46.7342 18.001C46.6938 17.9922 46.6517 17.9851 46.6114 17.9763C46.5745 17.9692 46.5377 17.9621 46.5008 17.9551C46.4517 17.9463 46.4008 17.9374 46.3517 17.9304C46.292 17.9215 46.2324 17.9127 46.1727 17.9039C46.099 17.895 46.0235 17.8862 45.9498 17.8792C45.8761 17.8721 45.8042 17.865 45.7323 17.8615C45.6709 17.858 45.6077 17.8544 45.5463 17.8527C45.5094 17.8509 45.4743 17.8491 45.4375 17.8491C45.3989 17.8491 45.3603 17.8491 45.3234 17.8491C45.269 17.8491 45.2164 17.8491 45.162 17.8527M6.93275 26.4753C6.93275 28.084 7.12576 29.6485 7.49074 31.1442C7.74692 31.2201 8.01012 31.296 8.28034 31.3737C8.42423 31.4143 8.56987 31.455 8.71901 31.4973C8.72428 31.4991 8.72954 31.5009 8.73481 31.5026C8.91729 31.5538 9.09978 31.605 9.28051 31.6545C9.64373 31.7551 10.0052 31.8523 10.3614 31.9494C10.5562 32.0006 10.7492 32.0536 10.9404 32.1048C11.065 32.1383 11.1878 32.1719 11.3107 32.2037C11.988 32.3855 12.646 32.5604 13.2917 32.7387C12.3459 30.8069 11.8125 28.6314 11.8125 26.3322C11.8125 18.3206 18.2662 11.8258 26.2272 11.8258C31.7966 11.8258 36.6272 15.0044 39.0276 19.6591C39.4838 18.9757 39.9769 18.3877 40.5016 17.8986C41.0297 17.4059 41.5912 17.0139 42.1843 16.7208C42.244 16.6907 42.3054 16.6625 42.365 16.6342C42.4598 16.5901 42.5545 16.5512 42.651 16.5124C42.6774 16.5018 42.7072 16.4894 42.7353 16.4806C42.7897 16.4612 42.8441 16.44 42.8985 16.4206C39.5084 10.7646 33.3425 6.98037 26.2992 6.98037C15.5991 6.98037 6.92573 15.7089 6.92573 26.4753M13.7883 3.16969C13.6953 3.2209 13.6023 3.27211 13.5093 3.32332C13.4163 3.37452 13.3233 3.4275 13.2321 3.48048C5.32546 8.05931 0 16.6448 0 26.4841C0 27.0951 0.0193015 27.7008 0.0614139 28.3029C0.0912434 28.317 0.121073 28.3312 0.150903 28.3471C0.163185 28.3524 0.175468 28.3594 0.187751 28.3647C0.340408 28.4389 0.493066 28.5113 0.645723 28.5837C0.800135 28.6561 0.954547 28.7285 1.10896 28.7991C1.13703 28.8132 1.16686 28.8274 1.19669 28.8397C1.20547 28.845 1.21248 28.8486 1.22126 28.8503C1.30724 28.8892 1.39146 28.928 1.47744 28.9651C1.52131 28.9845 1.56518 29.004 1.60904 29.0234C1.63712 29.0357 1.66519 29.0481 1.69151 29.0605C1.69678 29.064 1.7038 29.0658 1.71081 29.0693C1.72661 29.0764 1.74064 29.0834 1.75644 29.0887C1.76696 29.094 1.77925 29.0993 1.78978 29.1028C2.02841 29.207 2.27056 29.3095 2.51446 29.4083C2.60219 29.4437 2.68817 29.479 2.77591 29.5143C3.00928 29.6096 3.24616 29.7015 3.4848 29.7933C3.54621 29.818 3.60938 29.841 3.67255 29.8639C3.80064 29.9134 3.93049 29.961 4.06209 30.0087C4.10946 30.0246 4.15509 30.0423 4.20422 30.0599C4.29195 30.0917 4.38144 30.1235 4.47093 30.1553C4.61657 30.2065 4.76396 30.2595 4.91135 30.3107C5.08858 30.3707 5.2658 30.4325 5.44829 30.4926C5.20088 29.1876 5.07103 27.8403 5.07103 26.4629C5.07103 14.6653 14.5744 5.10152 26.2974 5.10152C34.2321 5.10152 41.1473 9.48257 44.79 15.972C45.0164 15.9491 45.2462 15.9385 45.4778 15.9385C48.0976 15.9385 50.398 17.3159 51.7034 19.3925C50.5173 15.1085 48.2888 11.2625 45.3129 8.14583C45.2497 8.08049 45.1866 8.01516 45.1216 7.94982C45.0041 7.82798 44.8848 7.70967 44.7654 7.59136C40.0067 2.89598 33.4881 0 26.2992 0C21.7721 0 17.5117 1.1478 13.79 3.16969" fill="#154A8E"/>
<path d="M77.4096 22.1719C76.5199 20.957 75.3759 20.1889 73.8195 20.1889C72.2631 20.1889 70.8962 21.3402 70.8962 22.9083C70.8962 26.9697 80.3978 25.2745 80.3978 33.3656C80.3978 38.1952 77.4096 41.6156 72.5157 41.6156C69.2117 41.6156 66.7955 39.6979 65.1426 36.9149L68.1606 33.9412C68.7976 35.7954 70.4803 37.4588 72.4842 37.4588C74.488 37.4588 75.5654 35.8272 75.5654 33.973C75.5654 31.4779 73.2773 30.7751 71.4015 30.0405C68.3203 28.7603 66.0638 27.194 66.0638 23.4521C66.0638 19.4543 69.0187 16.2245 73.0544 16.2245C75.1829 16.2245 78.1395 17.2805 79.6012 18.9104L77.4078 22.1719H77.4096Z" fill="#154A8E"/>
<path d="M97.4603 40.9764H93.0753V39.5372H93.0104C92.0576 40.7857 90.4047 41.4885 88.7834 41.4885C84.2072 41.4885 81.6015 37.2999 81.6015 33.046C81.6015 28.7921 84.2388 24.7624 88.7202 24.7624C90.3398 24.7624 91.9927 25.467 93.0736 26.7455V25.2745H97.4585V40.9764H97.4603ZM93.5193 33.1096C93.5193 30.9976 92.0892 28.7285 89.8011 28.7285C87.513 28.7285 86.1145 30.9994 86.1145 33.1096C86.1145 35.2197 87.513 37.5224 89.8011 37.5224C92.0892 37.5224 93.5193 35.2197 93.5193 33.1096Z" fill="#154A8E"/>
<path d="M105.119 40.9764H100.67V13.8566H105.119V40.9764Z" fill="#154A8E"/>
<path d="M111.856 33.8441C111.856 35.8254 112.619 38.0645 114.939 38.0645C116.4 38.0645 117.322 37.1692 117.925 35.9225L122.026 36.5936C120.945 39.7279 118.213 41.4867 114.94 41.4867C110.11 41.4867 107.155 38.0345 107.155 33.2685C107.155 28.5025 109.666 24.7607 114.718 24.7607C119.769 24.7607 122.122 28.566 122.122 33.2985V33.8424H111.857L111.856 33.8441ZM117.925 31.0612C117.704 29.4613 116.686 27.895 114.97 27.895C113.254 27.895 112.205 29.4295 111.984 31.0612H117.925Z" fill="#154A8E"/>
<path d="M132.192 28.9828C131.557 28.3753 130.731 27.895 129.841 27.895C129.111 27.895 128.378 28.4689 128.378 29.2371C128.378 30.3884 129.999 30.708 131.589 31.4126C133.208 32.1154 134.798 33.2031 134.798 35.9208C134.798 39.4065 132.001 41.4849 128.729 41.4849C126.63 41.4849 124.596 40.5261 123.231 38.8627L125.265 36.2068C126.123 37.1675 127.267 38.031 128.569 38.031C129.555 38.031 130.348 37.3599 130.348 36.3357C130.348 34.9602 128.792 34.6405 127.234 33.9695C125.677 33.2985 124.119 32.3697 124.119 29.8445C124.119 26.9008 126.153 24.7589 129.078 24.7589C130.731 24.7589 132.828 25.271 134.1 26.3905L132.192 28.981V28.9828Z" fill="#154A8E"/>
<path d="M142.108 40.9764H137.658V29.0481H136.165V25.2745H137.658V20.6692C137.658 16.832 139.248 13.4734 143.538 13.4734C144.268 13.4734 145 13.6323 145.667 13.9837V17.9816C145.096 17.6938 144.523 17.4377 143.856 17.4377C141.885 17.4377 142.108 20.0282 142.108 21.3067V25.2727H145.667V29.0464H142.108V40.9746V40.9764Z" fill="#154A8E"/>
<path d="M152.499 40.9764H148.05V13.8566H152.499V40.9764Z" fill="#154A8E"/>
<path d="M170.962 33.1413C170.962 38.0027 167.658 41.4885 162.764 41.4885C157.87 41.4885 154.565 38.0027 154.565 33.1413C154.565 28.28 157.902 24.7624 162.764 24.7624C167.627 24.7624 170.962 28.2482 170.962 33.1413ZM159.078 33.1413C159.078 35.2533 160.476 37.5224 162.764 37.5224C165.052 37.5224 166.451 35.2515 166.451 33.1413C166.451 31.0312 165.052 28.7285 162.764 28.7285C160.476 28.7285 159.078 30.9676 159.078 33.1413Z" fill="#154A8E"/>
<path d="M177 38.7373C177 40.3036 175.728 41.6156 174.171 41.6156C172.615 41.6156 171.343 40.3036 171.343 38.7373C171.343 37.171 172.613 35.9225 174.171 35.9225C175.73 35.9225 177 37.171 177 38.7373Z" fill="#154A8E"/>
</g>
<defs>
<clipPath id="clip0_1_3523">
<rect width="177" height="53" fill="white"/>
</clipPath>
</defs>
</svg>
