<svg width="30" height="30" viewBox="0 0 30 30" fill="none" xmlns="http://www.w3.org/2000/svg">
<path d="M3.33333 6.66667C4.21739 6.66667 5.06523 6.31548 5.69036 5.69036C6.31548 5.06523 6.66667 4.21739 6.66667 3.33333C6.66667 2.44928 6.31548 1.60143 5.69036 0.976311C5.06523 0.351189 4.21739 0 3.33333 0C2.44928 0 1.60143 0.351189 0.976311 0.976311C0.351189 1.60143 0 2.44928 0 3.33333C0 4.21739 0.351189 5.06523 0.976311 5.69036C1.60143 6.31548 2.44928 6.66667 3.33333 6.66667ZM15 6.66667C15.8841 6.66667 16.7319 6.31548 17.357 5.69036C17.9821 5.06523 18.3333 4.21739 18.3333 3.33333C18.3333 2.44928 17.9821 1.60143 17.357 0.976311C16.7319 0.351189 15.8841 0 15 0C14.1159 0 13.2681 0.351189 12.643 0.976311C12.0179 1.60143 11.6667 2.44928 11.6667 3.33333C11.6667 4.21739 12.0179 5.06523 12.643 5.69036C13.2681 6.31548 14.1159 6.66667 15 6.66667ZM26.6667 6.66667C27.5507 6.66667 28.3986 6.31548 29.0237 5.69036C29.6488 5.06523 30 4.21739 30 3.33333C30 2.44928 29.6488 1.60143 29.0237 0.976311C28.3986 0.351189 27.5507 0 26.6667 0C25.7826 0 24.9348 0.351189 24.3096 0.976311C23.6845 1.60143 23.3333 2.44928 23.3333 3.33333C23.3333 4.21739 23.6845 5.06523 24.3096 5.69036C24.9348 6.31548 25.7826 6.66667 26.6667 6.66667ZM3.33333 18.3333C4.21739 18.3333 5.06523 17.9821 5.69036 17.357C6.31548 16.7319 6.66667 15.8841 6.66667 15C6.66667 14.1159 6.31548 13.2681 5.69036 12.643C5.06523 12.0179 4.21739 11.6667 3.33333 11.6667C2.44928 11.6667 1.60143 12.0179 0.976311 12.643C0.351189 13.2681 0 14.1159 0 15C0 15.8841 0.351189 16.7319 0.976311 17.357C1.60143 17.9821 2.44928 18.3333 3.33333 18.3333ZM15 18.3333C15.8841 18.3333 16.7319 17.9821 17.357 17.357C17.9821 16.7319 18.3333 15.8841 18.3333 15C18.3333 14.1159 17.9821 13.2681 17.357 12.643C16.7319 12.0179 15.8841 11.6667 15 11.6667C14.1159 11.6667 13.2681 12.0179 12.643 12.643C12.0179 13.2681 11.6667 14.1159 11.6667 15C11.6667 15.8841 12.0179 16.7319 12.643 17.357C13.2681 17.9821 14.1159 18.3333 15 18.3333ZM26.6667 18.3333C27.5507 18.3333 28.3986 17.9821 29.0237 17.357C29.6488 16.7319 30 15.8841 30 15C30 14.1159 29.6488 13.2681 29.0237 12.643C28.3986 12.0179 27.5507 11.6667 26.6667 11.6667C25.7826 11.6667 24.9348 12.0179 24.3096 12.643C23.6845 13.2681 23.3333 14.1159 23.3333 15C23.3333 15.8841 23.6845 16.7319 24.3096 17.357C24.9348 17.9821 25.7826 18.3333 26.6667 18.3333ZM3.33333 30C4.21739 30 5.06523 29.6488 5.69036 29.0237C6.31548 28.3986 6.66667 27.5507 6.66667 26.6667C6.66667 25.7826 6.31548 24.9348 5.69036 24.3096C5.06523 23.6845 4.21739 23.3333 3.33333 23.3333C2.44928 23.3333 1.60143 23.6845 0.976311 24.3096C0.351189 24.9348 0 25.7826 0 26.6667C0 27.5507 0.351189 28.3986 0.976311 29.0237C1.60143 29.6488 2.44928 30 3.33333 30ZM15 30C15.8841 30 16.7319 29.6488 17.357 29.0237C17.9821 28.3986 18.3333 27.5507 18.3333 26.6667C18.3333 25.7826 17.9821 24.9348 17.357 24.3096C16.7319 23.6845 15.8841 23.3333 15 23.3333C14.1159 23.3333 13.2681 23.6845 12.643 24.3096C12.0179 24.9348 11.6667 25.7826 11.6667 26.6667C11.6667 27.5507 12.0179 28.3986 12.643 29.0237C13.2681 29.6488 14.1159 30 15 30ZM26.6667 30C27.5507 30 28.3986 29.6488 29.0237 29.0237C29.6488 28.3986 30 27.5507 30 26.6667C30 25.7826 29.6488 24.9348 29.0237 24.3096C28.3986 23.6845 27.5507 23.3333 26.6667 23.3333C25.7826 23.3333 24.9348 23.6845 24.3096 24.3096C23.6845 24.9348 23.3333 25.7826 23.3333 26.6667C23.3333 27.5507 23.6845 28.3986 24.3096 29.0237C24.9348 29.6488 25.7826 30 26.6667 30Z" fill="#FAFAFA"/>
</svg>
