<svg width="864" height="872" viewBox="0 0 864 872" fill="none" xmlns="http://www.w3.org/2000/svg">
<path d="M67.4855 669.149C67.8014 669.265 68.146 669.411 68.4906 669.556C68.6055 669.585 68.6916 669.614 68.8065 669.672C70.0987 670.137 71.391 670.631 72.7119 671.095H72.7407L74.7508 671.793C77.0769 672.606 79.5752 673.419 82.8777 674.436C88.6497 676.237 94.5079 677.806 100.395 679.171C118.831 683.441 137.841 685.591 157.197 685.678C159.293 685.678 161.36 685.678 163.457 685.62C166.845 685.562 170.263 685.417 173.68 685.213C178.705 684.923 183.702 684.516 188.699 683.935C204.751 682.134 220.603 678.852 236.081 674.175C238.264 673.536 240.446 672.838 242.6 672.112C245.098 671.299 247.539 670.456 249.98 669.556C266.464 663.601 282.344 656.019 297.133 646.926C301.182 644.428 305.202 641.814 309.165 639.083C313.674 636.004 318.096 632.75 322.432 629.381C323.753 628.364 325.074 627.318 326.367 626.272C330.33 623.077 334.235 619.736 338.112 616.28C333.575 613.781 328.894 611.341 324.213 608.988C323.208 608.494 322.318 608.059 321.399 607.623L321.112 607.478C305.49 599.867 289.38 593.214 273.097 587.637C270.484 586.736 267.928 585.894 265.344 585.052C263.534 584.471 261.84 583.919 260.117 583.396L259.371 583.163C258.078 582.757 256.786 582.35 255.465 581.943C251.1 580.607 246.764 579.3 242.37 578.022C225.485 573.083 208.284 568.465 190.278 563.642C188.268 563.09 186.258 562.568 184.219 562.016C175.288 559.634 166.214 557.164 157.024 554.608C154.038 553.795 151.08 552.952 148.093 552.11C148.007 552.11 147.921 552.052 147.835 552.023C132.96 547.84 119.578 543.831 107.115 539.88C99.6482 537.498 92.5552 535.116 85.6345 532.734C83.1935 531.892 80.7813 531.049 78.4266 530.178C76.962 529.655 75.5262 529.132 74.0616 528.609C71.1325 527.534 68.2321 526.459 65.3605 525.384C64.3267 525.007 63.3216 524.6 62.2878 524.223C58.3823 522.712 54.5055 521.201 50.6862 519.633C49.2504 519.052 47.8146 518.471 46.4074 517.89C42.2148 516.176 38.0796 514.404 34.0305 512.632C33.7721 512.516 33.5423 512.399 33.2839 512.312C33.169 512.254 33.0542 512.225 32.968 512.167C32.5085 511.993 32.0491 511.76 31.5896 511.557C30.8717 511.238 30.1538 510.918 29.4359 510.598C28.0287 509.988 26.6503 509.349 25.2432 508.71C25.0996 508.652 24.9848 508.594 24.8412 508.507C24.353 508.304 23.8648 508.071 23.4053 507.839C20.8783 506.677 18.3225 505.515 15.8241 504.295C13.3258 503.104 10.8274 501.913 8.32907 500.693C7.35271 500.228 6.37634 499.734 5.42869 499.24C5.31382 499.182 5.19895 499.124 5.1128 499.095C14.015 560.97 35.7535 618.603 67.4855 669.178M518.28 358.38C501.28 373.283 492.12 396.028 484.711 418.425C458.033 499.298 422.309 564.688 378.373 613.055C375.501 616.221 372.572 619.33 369.614 622.351C368.925 623.077 368.207 623.803 367.489 624.53C365.192 626.853 362.837 629.148 360.453 631.414C355.801 635.888 351.006 640.158 346.181 644.225C344.688 645.503 343.166 646.752 341.644 648.001C339.031 650.122 336.417 652.184 333.747 654.218C325.965 660.144 317.953 665.692 309.768 670.718C295.927 679.2 281.253 686.579 266.062 692.621C264.08 693.405 262.099 694.161 260.117 694.887C259.457 695.148 258.768 695.381 258.078 695.642C234.732 704.154 210.409 709.644 185.683 711.968C184.018 712.113 182.352 712.287 180.687 712.403C178.734 712.549 176.781 712.694 174.829 712.81C146.945 714.408 119.52 712.055 93.1295 705.78C143.125 769.863 210.495 819.421 288.087 847.134C289.092 846.96 290.097 846.785 291.103 846.582L292.194 846.379C327.142 839.784 361.2 827.961 393.621 811.171C394.138 810.909 394.626 810.677 395.114 810.387C400.312 807.685 405.424 804.867 410.535 801.875C426.157 792.841 441.406 782.528 455.994 771.286C458.004 769.689 460.043 768.12 462.082 766.493C463.633 765.244 465.183 763.995 466.734 762.717C470.295 759.812 473.77 756.82 477.273 753.741C481.552 749.993 485.773 746.13 489.966 742.15C490.109 742.005 490.253 741.859 490.425 741.714C495.221 737.153 499.93 732.477 504.554 727.683C536.831 694.219 564.773 655.147 587.028 612.59C590.015 606.897 592.886 601.145 595.643 595.335C602.449 581.13 608.595 566.576 614.079 551.732L614.797 549.815C623.699 525.588 630.793 500.576 635.933 475.391C639.12 459.733 640.7 444.744 640.7 430.916C640.7 415.491 638.718 401.489 634.899 389.434C633.032 383.566 630.678 378.192 627.921 373.341C626.743 371.249 625.48 369.274 624.159 367.444C622.694 365.381 621.115 363.464 619.421 361.605C607.245 348.388 589.756 341.299 567.357 340.544C566.582 340.544 565.778 340.515 565.003 340.515C548.203 340.515 531.289 346.964 518.252 358.439M739.543 293.572C739.543 293.572 739.256 293.572 739.112 293.572C738.164 293.572 737.245 293.63 736.326 293.688C735.293 293.746 734.288 293.833 733.254 293.92C733.024 293.92 732.823 293.978 732.622 294.007C731.617 294.094 730.641 294.211 729.635 294.356C728.516 294.501 727.424 294.675 726.333 294.879C725.299 295.053 724.237 295.256 723.232 295.489C722.456 295.634 721.652 295.808 720.906 296.041C720.417 296.157 719.901 296.273 719.412 296.389C718.493 296.622 717.603 296.854 716.713 297.145C714.588 297.755 712.52 298.452 710.481 299.236C710.079 299.381 709.677 299.527 709.275 299.701C707.897 300.253 706.547 300.805 705.198 301.444C703.963 301.996 702.757 302.577 701.522 303.216C700.316 303.826 699.11 304.494 697.903 305.162C696.123 306.179 694.343 307.254 692.62 308.416C690.868 309.549 689.145 310.769 687.422 312.076C686.761 312.57 686.072 313.122 685.412 313.616C684.952 313.993 684.493 314.342 684.062 314.719C683.488 315.184 682.942 315.649 682.396 316.114C681.564 316.84 680.731 317.566 679.927 318.292C679.094 319.048 678.29 319.774 677.486 320.558C676.883 321.139 676.28 321.72 675.705 322.33C674.586 323.434 673.494 324.567 672.403 325.758C671.915 326.252 671.455 326.775 670.967 327.298C666.2 332.614 661.663 338.511 657.327 345.018C656.839 345.773 656.35 346.499 655.862 347.255C655.431 347.923 655.001 348.591 654.57 349.288C654.398 349.549 654.225 349.84 654.053 350.13C653.622 350.857 653.163 351.583 652.761 352.309C652.56 352.629 652.359 352.977 652.158 353.297C658.16 370.407 662.295 388.417 664.276 407.067C665.109 413.051 665.568 419.064 665.769 425.077C665.856 427.721 665.884 430.364 665.884 433.008C665.856 437.423 665.683 441.81 665.425 446.225C665.195 449.944 664.851 453.662 664.448 457.409C664.448 457.613 664.42 457.816 664.391 458.019C664.248 459.268 664.104 460.518 663.932 461.738C663.099 468.448 661.95 475.1 660.6 481.694C659.768 485.732 658.906 489.741 657.959 493.75C655.948 502.465 653.737 511.15 651.296 519.807C647.735 532.414 643.715 544.906 639.235 557.193L638.374 559.343L637.541 561.783C634.411 570.12 631.108 578.37 627.605 586.533C627.605 586.591 627.548 586.649 627.519 586.707C626.83 588.334 626.112 589.961 625.394 591.588C624.676 593.243 623.929 594.841 623.211 596.468C622.465 598.124 621.718 599.751 620.943 601.406C617.554 608.669 614.022 615.815 610.318 622.903C607.848 627.667 605.292 632.373 602.679 637.05C600.41 641.117 598.084 645.155 595.672 649.163C578.959 677.341 559.776 703.776 538.497 727.858C538.239 728.148 537.98 728.439 537.722 728.729C532.84 734.249 527.814 739.652 522.732 744.939C510.355 757.691 497.289 769.747 483.792 780.873C481.839 782.47 479.886 784.068 477.905 785.637C476.153 787.002 474.401 788.396 472.65 789.762C468.888 792.667 465.126 795.513 461.278 798.244C455.219 802.659 449.073 806.901 442.842 810.939C442.21 811.374 441.578 811.781 440.946 812.188C435.146 815.906 429.259 819.479 423.372 822.907C396.234 838.564 364.589 851.927 335.326 860.845C335.211 860.874 335.097 860.903 335.01 860.932C364.474 867.788 395.114 871.564 426.588 871.942C428.34 871.971 430.12 872 431.872 872C433.624 872 435.548 872 437.357 871.971C660.859 869.124 843.382 694.306 861.56 472.282C861.704 470.452 861.847 468.651 861.962 466.821C862.077 465.398 862.163 463.945 862.22 462.522C862.307 461.099 862.393 459.675 862.45 458.252C862.536 456.654 862.594 455.027 862.68 453.43C862.766 451.396 862.824 449.363 862.881 447.3C862.881 446.458 862.938 445.615 862.967 444.773C862.967 443.872 862.996 442.943 863.025 442.042C863.025 441.781 863.025 441.49 862.996 441.229C862.996 440.503 862.938 439.776 862.938 439.05V438.905C862.881 438.004 862.852 437.075 862.824 436.174C862.766 435.332 862.737 434.46 862.651 433.589C862.594 432.514 862.536 431.468 862.422 430.394C862.364 429.348 862.278 428.302 862.163 427.256C862.106 426.762 862.077 426.239 862.02 425.717C861.933 424.7 861.818 423.683 861.675 422.637C861.675 422.492 861.675 422.347 861.617 422.202C861.503 421.127 861.388 420.11 861.244 419.035C861.101 417.902 860.957 416.798 860.785 415.666C860.785 415.607 860.785 415.549 860.756 415.491C860.612 414.475 860.469 413.487 860.296 412.47C860.182 411.715 860.067 410.989 859.952 410.262C859.751 409.188 859.579 408.142 859.378 407.096V407.009L859.349 406.951C859.291 406.689 859.263 406.457 859.205 406.195C859.119 405.76 859.033 405.324 858.947 404.917C858.746 403.872 858.516 402.826 858.286 401.78C857.425 397.858 856.448 393.966 855.328 390.131C855.127 389.405 854.926 388.708 854.725 388.04C854.438 387.052 854.122 386.064 853.806 385.106C852.974 382.433 852.026 379.761 851.05 377.088C850.763 376.275 850.447 375.49 850.131 374.706C849.987 374.299 849.844 373.922 849.671 373.544L849.212 372.353C848.35 370.262 847.431 368.112 846.34 365.788L845.622 364.19C844.761 362.36 843.842 360.588 842.923 358.816C842.55 358.09 842.148 357.364 841.774 356.667C841.142 355.505 840.482 354.343 839.793 353.21C839.506 352.658 839.19 352.164 838.845 351.612C837.84 349.956 836.806 348.329 835.744 346.703C835.141 345.773 834.509 344.873 833.906 343.972C833.848 343.885 833.791 343.798 833.734 343.711C832.413 341.851 831.063 339.992 829.656 338.22C826.784 334.473 823.711 330.958 820.524 327.646C820.208 327.298 819.863 326.978 819.547 326.63C819.404 326.455 819.232 326.31 819.059 326.136C818.427 325.497 817.796 324.858 817.135 324.248C816.475 323.638 815.843 322.998 815.183 322.417C814.551 321.807 813.89 321.226 813.201 320.645C811.794 319.367 810.358 318.176 808.922 317.014C808.319 316.55 807.745 316.056 807.113 315.62C806.424 315.068 805.735 314.545 805.017 314.022C803.61 312.976 802.203 311.989 800.767 311.059C800.135 310.623 799.503 310.246 798.9 309.81C798.728 309.694 798.527 309.578 798.355 309.491C797.723 309.084 797.062 308.677 796.402 308.3C794.392 307.079 792.353 305.947 790.285 304.901C789.653 304.552 789.022 304.233 788.361 303.942C788.16 303.855 787.959 303.739 787.758 303.652C787.126 303.361 786.466 303.042 785.834 302.751C785.317 302.519 784.8 302.286 784.255 302.054C783.766 301.851 783.278 301.647 782.79 301.444C781.986 301.095 781.153 300.776 780.349 300.456C779.631 300.166 778.913 299.904 778.195 299.672C777.305 299.352 776.415 299.062 775.496 298.742C774.548 298.452 773.629 298.161 772.682 297.9C771.993 297.697 771.275 297.493 770.614 297.319C770.04 297.174 769.437 297.028 768.834 296.883C768.575 296.825 768.317 296.767 768.058 296.709C767.168 296.506 766.307 296.302 765.416 296.128C764.756 295.983 764.067 295.866 763.406 295.721C762.803 295.605 762.2 295.489 761.597 295.373C760.793 295.227 759.96 295.082 759.156 294.966C758.18 294.821 757.204 294.675 756.227 294.53C755.021 294.385 753.786 294.24 752.58 294.124C751.374 294.007 750.197 293.891 749.019 293.833C748.014 293.775 746.98 293.717 745.975 293.688C745.372 293.659 744.798 293.63 744.195 293.63C743.563 293.63 742.931 293.63 742.328 293.63C741.438 293.63 740.577 293.63 739.686 293.688M114.035 435.535C114.035 461.999 117.194 487.737 123.167 512.341C127.36 513.59 131.667 514.84 136.09 516.118C138.444 516.786 140.828 517.454 143.269 518.151C143.355 518.18 143.441 518.209 143.527 518.238C146.514 519.081 149.5 519.923 152.458 520.737C158.403 522.392 164.318 523.99 170.148 525.588C173.335 526.43 176.494 527.302 179.624 528.144C181.663 528.696 183.673 529.248 185.683 529.771C196.768 532.763 207.537 535.639 218.105 538.573C202.626 506.793 193.896 471.004 193.896 433.182C193.896 301.386 299.517 194.543 429.804 194.543C520.951 194.543 600.008 246.831 639.293 323.405C646.759 312.163 654.828 302.49 663.415 294.443C672.058 286.338 681.248 279.889 690.954 275.067C691.93 274.573 692.935 274.109 693.912 273.644C695.463 272.918 697.013 272.279 698.593 271.639C699.023 271.465 699.512 271.262 699.971 271.117C700.861 270.797 701.752 270.448 702.642 270.129C647.161 177.084 546.251 114.832 430.982 114.832C255.867 114.832 113.92 258.422 113.92 435.535M226.231 52.1434C224.71 52.9858 223.188 53.8282 221.666 54.6707C220.144 55.5131 218.622 56.3846 217.128 57.256C87.7308 132.581 0.575562 273.818 0.575562 435.68C0.575562 445.731 0.891445 455.695 1.58065 465.601C2.06883 465.834 2.55701 466.066 3.0452 466.327C3.24622 466.415 3.44723 466.531 3.64825 466.618C6.1466 467.838 8.64496 469.029 11.1433 470.22C13.6704 471.411 16.1975 472.602 18.7245 473.764C19.184 473.996 19.6722 474.229 20.1604 474.432C20.3039 474.519 20.4188 474.577 20.5624 474.606C21.9695 475.246 23.3479 475.885 24.755 476.495C25.473 476.814 26.1909 477.134 26.9088 477.453C27.3683 477.657 27.8277 477.86 28.2585 478.063C28.3446 478.121 28.4595 478.15 28.5744 478.209C28.8328 478.325 29.0625 478.441 29.321 478.528C29.4933 478.615 29.6943 478.702 29.8666 478.76C33.7721 480.474 37.735 482.159 41.7266 483.786C43.1624 484.367 44.5696 484.948 46.0054 485.529C49.8247 487.098 53.7015 488.608 57.607 490.119C58.612 490.525 59.6458 490.903 60.6796 491.281C62.776 492.094 64.901 492.878 67.0547 493.663C67.8301 493.924 68.5767 494.215 69.3808 494.505C70.8166 495.028 72.2812 495.551 73.7457 496.074C76.1292 496.916 78.5414 497.788 80.9536 498.63C83.854 499.618 86.7544 500.635 89.741 501.622C85.6919 480.155 83.5669 457.99 83.5669 435.332C83.5669 241.254 239.097 83.9232 430.953 83.9232C560.81 83.9232 673.982 155.994 733.598 262.75C737.303 262.373 741.065 262.198 744.855 262.198C787.729 262.198 825.377 284.857 846.742 319.019C827.33 248.545 790.859 185.276 742.156 134.004C741.122 132.929 740.088 131.854 739.026 130.78C737.102 128.775 735.149 126.829 733.196 124.883C655.317 47.6408 548.634 0 430.982 0C356.893 0 287.168 18.882 226.26 52.1434" fill="#035AA6"/>
</svg>
