<svg width="83" height="75" viewBox="0 0 83 75" fill="none" xmlns="http://www.w3.org/2000/svg">
<rect x="0.5" y="0.5" width="82" height="74" rx="11.5" fill="#F1F5FB"/>
<path d="M46.7392 28.165H38.2259C37.2126 28.165 36.2859 27.6516 35.7526 26.785C35.2193 25.9183 35.1726 24.865 35.6259 23.9516L36.7726 21.6516C37.1459 20.905 37.7459 20.4383 38.4193 20.365C39.0926 20.2916 39.7793 20.625 40.2993 21.2716L40.4459 21.4583C40.7393 21.8183 41.0793 22.0116 41.4126 21.9783C41.7459 21.9516 42.0526 21.7116 42.2792 21.305L43.5392 19.0317C44.0592 18.0917 44.7526 17.605 45.5059 17.6383C46.2526 17.6783 46.8926 18.2383 47.3192 19.225L49.4059 24.0983C49.7926 24.9983 49.6992 26.025 49.1592 26.845C48.6259 27.6783 47.7192 28.165 46.7392 28.165ZM38.6059 21.365C38.5793 21.365 38.5526 21.365 38.5259 21.3716C38.1926 21.405 37.8859 21.6716 37.6659 22.105L36.5193 24.405C36.2193 24.9983 36.2526 25.6983 36.5993 26.265C36.9459 26.8316 37.5593 27.1716 38.2259 27.1716H46.7326C47.3859 27.1716 47.9659 26.8583 48.3259 26.3116C48.6859 25.765 48.7459 25.1116 48.4859 24.5116L46.3992 19.6383C46.1459 19.0383 45.7926 18.6717 45.4526 18.6583C45.1392 18.6383 44.7326 18.9717 44.4126 19.5383L43.1526 21.8116C42.7659 22.505 42.1592 22.9383 41.4992 22.9983C40.8393 23.0516 40.1659 22.7316 39.6659 22.105L39.5193 21.9183C39.2393 21.5516 38.9193 21.365 38.6059 21.365Z" fill="#292D32"/>
<path d="M39.1484 18.832C37.7751 18.832 36.6484 17.712 36.6484 16.332C36.6484 14.952 37.7684 13.832 39.1484 13.832C40.5284 13.832 41.6484 14.952 41.6484 16.332C41.6484 17.712 40.5284 18.832 39.1484 18.832ZM39.1484 14.832C38.3218 14.832 37.6484 15.5054 37.6484 16.332C37.6484 17.1587 38.3218 17.832 39.1484 17.832C39.9751 17.832 40.6484 17.1587 40.6484 16.332C40.6484 15.5054 39.9751 14.832 39.1484 14.832Z" fill="#292D32"/>
<path d="M23.0366 36.835C23.1233 36.835 23.1866 36.8467 23.2266 36.87C23.2699 36.89 23.3183 36.9333 23.3716 37L27.5216 42.4C27.5116 42.3133 27.5049 42.23 27.5016 42.15C27.4983 42.0667 27.4966 41.9867 27.4966 41.91V36.835H28.3466V44H27.8566C27.7799 44 27.7149 43.9867 27.6616 43.96C27.6116 43.9333 27.5616 43.8883 27.5116 43.825L23.3666 38.43C23.3733 38.5133 23.3783 38.595 23.3816 38.675C23.3849 38.755 23.3866 38.8283 23.3866 38.895V44H22.5366V36.835H23.0366ZM32.1052 38.855C32.4752 38.855 32.8085 38.9167 33.1052 39.04C33.4052 39.1633 33.6585 39.3383 33.8652 39.565C34.0752 39.7917 34.2352 40.0667 34.3452 40.39C34.4585 40.71 34.5152 41.0683 34.5152 41.465C34.5152 41.865 34.4585 42.225 34.3452 42.545C34.2352 42.865 34.0752 43.1383 33.8652 43.365C33.6585 43.5917 33.4052 43.7667 33.1052 43.89C32.8085 44.01 32.4752 44.07 32.1052 44.07C31.7352 44.07 31.4002 44.01 31.1002 43.89C30.8035 43.7667 30.5502 43.5917 30.3402 43.365C30.1302 43.1383 29.9685 42.865 29.8552 42.545C29.7419 42.225 29.6852 41.865 29.6852 41.465C29.6852 41.0683 29.7419 40.71 29.8552 40.39C29.9685 40.0667 30.1302 39.7917 30.3402 39.565C30.5502 39.3383 30.8035 39.1633 31.1002 39.04C31.4002 38.9167 31.7352 38.855 32.1052 38.855ZM32.1052 43.375C32.6052 43.375 32.9785 43.2083 33.2252 42.875C33.4719 42.5383 33.5952 42.07 33.5952 41.47C33.5952 40.8667 33.4719 40.3967 33.2252 40.06C32.9785 39.7233 32.6052 39.555 32.1052 39.555C31.8519 39.555 31.6319 39.5983 31.4452 39.685C31.2585 39.7717 31.1019 39.8967 30.9752 40.06C30.8519 40.2233 30.7585 40.425 30.6952 40.665C30.6352 40.9017 30.6052 41.17 30.6052 41.47C30.6052 41.77 30.6352 42.0383 30.6952 42.275C30.7585 42.5117 30.8519 42.7117 30.9752 42.875C31.1019 43.035 31.2585 43.1583 31.4452 43.245C31.6319 43.3317 31.8519 43.375 32.1052 43.375ZM37.7454 45.715V38.935H38.2754C38.4021 38.935 38.4821 38.9967 38.5154 39.12L38.5904 39.72C38.8071 39.4567 39.0538 39.245 39.3304 39.085C39.6104 38.925 39.9321 38.845 40.2954 38.845C40.5854 38.845 40.8488 38.9017 41.0854 39.015C41.3221 39.125 41.5238 39.29 41.6904 39.51C41.8571 39.7267 41.9854 39.9967 42.0754 40.32C42.1654 40.6433 42.2104 41.015 42.2104 41.435C42.2104 41.8083 42.1604 42.1567 42.0604 42.48C41.9604 42.8 41.8171 43.0783 41.6304 43.315C41.4438 43.5483 41.2138 43.7333 40.9404 43.87C40.6704 44.0033 40.3654 44.07 40.0254 44.07C39.7121 44.07 39.4438 44.0183 39.2204 43.915C39.0004 43.8117 38.8054 43.665 38.6354 43.475V45.715H37.7454ZM40.0004 39.565C39.7104 39.565 39.4554 39.6317 39.2354 39.765C39.0188 39.8983 38.8188 40.0867 38.6354 40.33V42.78C38.7988 43 38.9771 43.155 39.1704 43.245C39.3671 43.335 39.5854 43.38 39.8254 43.38C40.2954 43.38 40.6571 43.2117 40.9104 42.875C41.1638 42.5383 41.2904 42.0583 41.2904 41.435C41.2904 41.105 41.2604 40.8217 41.2004 40.585C41.1438 40.3483 41.0604 40.155 40.9504 40.005C40.8404 39.8517 40.7054 39.74 40.5454 39.67C40.3854 39.6 40.2038 39.565 40.0004 39.565ZM43.363 44V36.635H44.253V39.615C44.4697 39.385 44.7097 39.2017 44.973 39.065C45.2363 38.925 45.5397 38.855 45.883 38.855C46.1597 38.855 46.403 38.9017 46.613 38.995C46.8263 39.085 47.003 39.215 47.143 39.385C47.2863 39.5517 47.3947 39.7533 47.468 39.99C47.5413 40.2267 47.578 40.4883 47.578 40.775V44H46.688V40.775C46.688 40.3917 46.5997 40.095 46.423 39.885C46.2497 39.6717 45.983 39.565 45.623 39.565C45.3597 39.565 45.113 39.6283 44.883 39.755C44.6563 39.8817 44.4463 40.0533 44.253 40.27V44H43.363ZM51.0696 38.855C51.4396 38.855 51.773 38.9167 52.0696 39.04C52.3696 39.1633 52.623 39.3383 52.8296 39.565C53.0396 39.7917 53.1996 40.0667 53.3096 40.39C53.423 40.71 53.4796 41.0683 53.4796 41.465C53.4796 41.865 53.423 42.225 53.3096 42.545C53.1996 42.865 53.0396 43.1383 52.8296 43.365C52.623 43.5917 52.3696 43.7667 52.0696 43.89C51.773 44.01 51.4396 44.07 51.0696 44.07C50.6996 44.07 50.3646 44.01 50.0646 43.89C49.768 43.7667 49.5146 43.5917 49.3046 43.365C49.0946 43.1383 48.933 42.865 48.8196 42.545C48.7063 42.225 48.6496 41.865 48.6496 41.465C48.6496 41.0683 48.7063 40.71 48.8196 40.39C48.933 40.0667 49.0946 39.7917 49.3046 39.565C49.5146 39.3383 49.768 39.1633 50.0646 39.04C50.3646 38.9167 50.6996 38.855 51.0696 38.855ZM51.0696 43.375C51.5696 43.375 51.943 43.2083 52.1896 42.875C52.4363 42.5383 52.5596 42.07 52.5596 41.47C52.5596 40.8667 52.4363 40.3967 52.1896 40.06C51.943 39.7233 51.5696 39.555 51.0696 39.555C50.8163 39.555 50.5963 39.5983 50.4096 39.685C50.223 39.7717 50.0663 39.8967 49.9396 40.06C49.8163 40.2233 49.723 40.425 49.6596 40.665C49.5996 40.9017 49.5696 41.17 49.5696 41.47C49.5696 41.77 49.5996 42.0383 49.6596 42.275C49.723 42.5117 49.8163 42.7117 49.9396 42.875C50.0663 43.035 50.223 43.1583 50.4096 43.245C50.5963 43.3317 50.8163 43.375 51.0696 43.375ZM56.2113 44.08C55.8113 44.08 55.503 43.9683 55.2863 43.745C55.073 43.5217 54.9663 43.2 54.9663 42.78V39.68H54.3563C54.303 39.68 54.258 39.665 54.2213 39.635C54.1846 39.6017 54.1663 39.5517 54.1663 39.485V39.13L54.9963 39.025L55.2013 37.46C55.208 37.41 55.2296 37.37 55.2663 37.34C55.303 37.3067 55.3496 37.29 55.4063 37.29H55.8563V39.035H57.3063V39.68H55.8563V42.72C55.8563 42.9333 55.908 43.0917 56.0113 43.195C56.1146 43.2983 56.248 43.35 56.4113 43.35C56.5046 43.35 56.5846 43.3383 56.6513 43.315C56.7213 43.2883 56.7813 43.26 56.8313 43.23C56.8813 43.2 56.923 43.1733 56.9563 43.15C56.993 43.1233 57.0246 43.11 57.0513 43.11C57.098 43.11 57.1396 43.1383 57.1763 43.195L57.4363 43.62C57.283 43.7633 57.098 43.8767 56.8813 43.96C56.6646 44.04 56.4413 44.08 56.2113 44.08ZM60.5568 38.855C60.9268 38.855 61.2601 38.9167 61.5568 39.04C61.8568 39.1633 62.1101 39.3383 62.3168 39.565C62.5268 39.7917 62.6868 40.0667 62.7968 40.39C62.9101 40.71 62.9668 41.0683 62.9668 41.465C62.9668 41.865 62.9101 42.225 62.7968 42.545C62.6868 42.865 62.5268 43.1383 62.3168 43.365C62.1101 43.5917 61.8568 43.7667 61.5568 43.89C61.2601 44.01 60.9268 44.07 60.5568 44.07C60.1868 44.07 59.8518 44.01 59.5518 43.89C59.2551 43.7667 59.0018 43.5917 58.7918 43.365C58.5818 43.1383 58.4201 42.865 58.3068 42.545C58.1934 42.225 58.1368 41.865 58.1368 41.465C58.1368 41.0683 58.1934 40.71 58.3068 40.39C58.4201 40.0667 58.5818 39.7917 58.7918 39.565C59.0018 39.3383 59.2551 39.1633 59.5518 39.04C59.8518 38.9167 60.1868 38.855 60.5568 38.855ZM60.5568 43.375C61.0568 43.375 61.4301 43.2083 61.6768 42.875C61.9234 42.5383 62.0468 42.07 62.0468 41.47C62.0468 40.8667 61.9234 40.3967 61.6768 40.06C61.4301 39.7233 61.0568 39.555 60.5568 39.555C60.3034 39.555 60.0834 39.5983 59.8968 39.685C59.7101 39.7717 59.5534 39.8967 59.4268 40.06C59.3034 40.2233 59.2101 40.425 59.1468 40.665C59.0868 40.9017 59.0568 41.17 59.0568 41.47C59.0568 41.77 59.0868 42.0383 59.1468 42.275C59.2101 42.5117 59.3034 42.7117 59.4268 42.875C59.5534 43.035 59.7101 43.1583 59.8968 43.245C60.0834 43.3317 60.3034 43.375 60.5568 43.375ZM27.2141 58H26.8191C26.7324 58 26.6624 57.9867 26.6091 57.96C26.5557 57.9333 26.5207 57.8767 26.5041 57.79L26.4041 57.32C26.2707 57.44 26.1407 57.5483 26.0141 57.645C25.8874 57.7383 25.7541 57.8183 25.6141 57.885C25.4741 57.9483 25.3241 57.9967 25.1641 58.03C25.0074 58.0633 24.8324 58.08 24.6391 58.08C24.4424 58.08 24.2574 58.0533 24.0841 58C23.9141 57.9433 23.7657 57.86 23.6391 57.75C23.5124 57.64 23.4107 57.5017 23.3341 57.335C23.2607 57.165 23.2241 56.965 23.2241 56.735C23.2241 56.535 23.2791 56.3433 23.3891 56.16C23.4991 55.9733 23.6757 55.8083 23.9191 55.665C24.1657 55.5217 24.4874 55.405 24.8841 55.315C25.2807 55.2217 25.7657 55.1683 26.3391 55.155V54.76C26.3391 54.3667 26.2541 54.07 26.0841 53.87C25.9174 53.6667 25.6691 53.565 25.3391 53.565C25.1224 53.565 24.9391 53.5933 24.7891 53.65C24.6424 53.7033 24.5141 53.765 24.4041 53.835C24.2974 53.9017 24.2041 53.9633 24.1241 54.02C24.0474 54.0733 23.9707 54.1 23.8941 54.1C23.8341 54.1 23.7807 54.085 23.7341 54.055C23.6907 54.0217 23.6557 53.9817 23.6291 53.935L23.4691 53.65C23.7491 53.38 24.0507 53.1783 24.3741 53.045C24.6974 52.9117 25.0557 52.845 25.4491 52.845C25.7324 52.845 25.9841 52.8917 26.2041 52.985C26.4241 53.0783 26.6091 53.2083 26.7591 53.375C26.9091 53.5417 27.0224 53.7433 27.0991 53.98C27.1757 54.2167 27.2141 54.4767 27.2141 54.76V58ZM24.9041 57.455C25.0607 57.455 25.2041 57.44 25.3341 57.41C25.4641 57.3767 25.5857 57.3317 25.6991 57.275C25.8157 57.215 25.9257 57.1433 26.0291 57.06C26.1357 56.9767 26.2391 56.8817 26.3391 56.775V55.72C25.9291 55.7333 25.5807 55.7667 25.2941 55.82C25.0074 55.87 24.7741 55.9367 24.5941 56.02C24.4141 56.1033 24.2824 56.2017 24.1991 56.315C24.1191 56.4283 24.0791 56.555 24.0791 56.695C24.0791 56.8283 24.1007 56.9433 24.1441 57.04C24.1874 57.1367 24.2457 57.2167 24.3191 57.28C24.3924 57.34 24.4791 57.385 24.5791 57.415C24.6791 57.4417 24.7874 57.455 24.9041 57.455ZM27.8662 52.935H28.5962C28.6662 52.935 28.7245 52.9533 28.7712 52.99C28.8178 53.0267 28.8512 53.07 28.8712 53.12L30.1562 56.38C30.2028 56.5 30.2395 56.62 30.2662 56.74C30.2928 56.86 30.3178 56.9783 30.3412 57.095C30.3678 56.9783 30.3962 56.86 30.4262 56.74C30.4562 56.62 30.4945 56.5 30.5412 56.38L31.8412 53.12C31.8612 53.0667 31.8928 53.0233 31.9362 52.99C31.9828 52.9533 32.0395 52.935 32.1062 52.935H32.8012L30.7362 58H29.9312L27.8662 52.935ZM37.4434 58H37.0484C36.9617 58 36.8917 57.9867 36.8384 57.96C36.785 57.9333 36.75 57.8767 36.7334 57.79L36.6334 57.32C36.5 57.44 36.37 57.5483 36.2434 57.645C36.1167 57.7383 35.9834 57.8183 35.8434 57.885C35.7034 57.9483 35.5534 57.9967 35.3934 58.03C35.2367 58.0633 35.0617 58.08 34.8684 58.08C34.6717 58.08 34.4867 58.0533 34.3134 58C34.1434 57.9433 33.995 57.86 33.8684 57.75C33.7417 57.64 33.64 57.5017 33.5634 57.335C33.49 57.165 33.4534 56.965 33.4534 56.735C33.4534 56.535 33.5084 56.3433 33.6184 56.16C33.7284 55.9733 33.905 55.8083 34.1484 55.665C34.395 55.5217 34.7167 55.405 35.1134 55.315C35.51 55.2217 35.995 55.1683 36.5684 55.155V54.76C36.5684 54.3667 36.4834 54.07 36.3134 53.87C36.1467 53.6667 35.8984 53.565 35.5684 53.565C35.3517 53.565 35.1684 53.5933 35.0184 53.65C34.8717 53.7033 34.7434 53.765 34.6334 53.835C34.5267 53.9017 34.4334 53.9633 34.3534 54.02C34.2767 54.0733 34.2 54.1 34.1234 54.1C34.0634 54.1 34.01 54.085 33.9634 54.055C33.92 54.0217 33.885 53.9817 33.8584 53.935L33.6984 53.65C33.9784 53.38 34.28 53.1783 34.6034 53.045C34.9267 52.9117 35.285 52.845 35.6784 52.845C35.9617 52.845 36.2134 52.8917 36.4334 52.985C36.6534 53.0783 36.8384 53.2083 36.9884 53.375C37.1384 53.5417 37.2517 53.7433 37.3284 53.98C37.405 54.2167 37.4434 54.4767 37.4434 54.76V58ZM35.1334 57.455C35.29 57.455 35.4334 57.44 35.5634 57.41C35.6934 57.3767 35.815 57.3317 35.9284 57.275C36.045 57.215 36.155 57.1433 36.2584 57.06C36.365 56.9767 36.4684 56.8817 36.5684 56.775V55.72C36.1584 55.7333 35.81 55.7667 35.5234 55.82C35.2367 55.87 35.0034 55.9367 34.8234 56.02C34.6434 56.1033 34.5117 56.2017 34.4284 56.315C34.3484 56.4283 34.3084 56.555 34.3084 56.695C34.3084 56.8283 34.33 56.9433 34.3734 57.04C34.4167 57.1367 34.475 57.2167 34.5484 57.28C34.6217 57.34 34.7084 57.385 34.8084 57.415C34.9084 57.4417 35.0167 57.455 35.1334 57.455ZM39.8817 52.935V58H38.9917V52.935H39.8817ZM40.0817 51.345C40.0817 51.4317 40.0634 51.5133 40.0267 51.59C39.9934 51.6633 39.9467 51.73 39.8867 51.79C39.8301 51.8467 39.7634 51.8917 39.6867 51.925C39.6101 51.9583 39.5284 51.975 39.4417 51.975C39.3551 51.975 39.2734 51.9583 39.1967 51.925C39.1234 51.8917 39.0567 51.8467 38.9967 51.79C38.9401 51.73 38.8951 51.6633 38.8617 51.59C38.8284 51.5133 38.8117 51.4317 38.8117 51.345C38.8117 51.2583 38.8284 51.1767 38.8617 51.1C38.8951 51.02 38.9401 50.9517 38.9967 50.895C39.0567 50.835 39.1234 50.7883 39.1967 50.755C39.2734 50.7217 39.3551 50.705 39.4417 50.705C39.5284 50.705 39.6101 50.7217 39.6867 50.755C39.7634 50.7883 39.8301 50.835 39.8867 50.895C39.9467 50.9517 39.9934 51.02 40.0267 51.1C40.0634 51.1767 40.0817 51.2583 40.0817 51.345ZM42.5403 50.635V58H41.6503V50.635H42.5403ZM47.9289 58H47.5339C47.4472 58 47.3772 57.9867 47.3239 57.96C47.2706 57.9333 47.2356 57.8767 47.2189 57.79L47.1189 57.32C46.9856 57.44 46.8556 57.5483 46.7289 57.645C46.6022 57.7383 46.4689 57.8183 46.3289 57.885C46.1889 57.9483 46.0389 57.9967 45.8789 58.03C45.7222 58.0633 45.5472 58.08 45.3539 58.08C45.1572 58.08 44.9722 58.0533 44.7989 58C44.6289 57.9433 44.4806 57.86 44.3539 57.75C44.2272 57.64 44.1256 57.5017 44.0489 57.335C43.9756 57.165 43.9389 56.965 43.9389 56.735C43.9389 56.535 43.9939 56.3433 44.1039 56.16C44.2139 55.9733 44.3906 55.8083 44.6339 55.665C44.8806 55.5217 45.2022 55.405 45.5989 55.315C45.9956 55.2217 46.4806 55.1683 47.0539 55.155V54.76C47.0539 54.3667 46.9689 54.07 46.7989 53.87C46.6322 53.6667 46.3839 53.565 46.0539 53.565C45.8372 53.565 45.6539 53.5933 45.5039 53.65C45.3572 53.7033 45.2289 53.765 45.1189 53.835C45.0122 53.9017 44.9189 53.9633 44.8389 54.02C44.7622 54.0733 44.6856 54.1 44.6089 54.1C44.5489 54.1 44.4956 54.085 44.4489 54.055C44.4056 54.0217 44.3706 53.9817 44.3439 53.935L44.1839 53.65C44.4639 53.38 44.7656 53.1783 45.0889 53.045C45.4122 52.9117 45.7706 52.845 46.1639 52.845C46.4472 52.845 46.6989 52.8917 46.9189 52.985C47.1389 53.0783 47.3239 53.2083 47.4739 53.375C47.6239 53.5417 47.7372 53.7433 47.8139 53.98C47.8906 54.2167 47.9289 54.4767 47.9289 54.76V58ZM45.6189 57.455C45.7756 57.455 45.9189 57.44 46.0489 57.41C46.1789 57.3767 46.3006 57.3317 46.4139 57.275C46.5306 57.215 46.6406 57.1433 46.7439 57.06C46.8506 56.9767 46.9539 56.8817 47.0539 56.775V55.72C46.6439 55.7333 46.2956 55.7667 46.0089 55.82C45.7222 55.87 45.4889 55.9367 45.3089 56.02C45.1289 56.1033 44.9972 56.2017 44.9139 56.315C44.8339 56.4283 44.7939 56.555 44.7939 56.695C44.7939 56.8283 44.8156 56.9433 44.8589 57.04C44.9022 57.1367 44.9606 57.2167 45.0339 57.28C45.1072 57.34 45.1939 57.385 45.2939 57.415C45.3939 57.4417 45.5022 57.455 45.6189 57.455ZM49.4073 58V50.635H50.3023V53.665C50.5123 53.4217 50.7523 53.2267 51.0223 53.08C51.2956 52.93 51.6073 52.855 51.9573 52.855C52.2506 52.855 52.5156 52.91 52.7523 53.02C52.9889 53.13 53.1906 53.295 53.3573 53.515C53.5239 53.7317 53.6523 54.0017 53.7423 54.325C53.8323 54.645 53.8773 55.015 53.8773 55.435C53.8773 55.8083 53.8273 56.1567 53.7273 56.48C53.6273 56.8 53.4823 57.0783 53.2923 57.315C53.1056 57.5483 52.8756 57.7333 52.6023 57.87C52.3323 58.0033 52.0273 58.07 51.6873 58.07C51.3606 58.07 51.0823 58.0067 50.8523 57.88C50.6256 57.7533 50.4273 57.5767 50.2573 57.35L50.2123 57.81C50.1856 57.9367 50.1089 58 49.9823 58H49.4073ZM51.6673 53.565C51.3773 53.565 51.1223 53.6317 50.9023 53.765C50.6856 53.8983 50.4856 54.0867 50.3023 54.33V56.78C50.4623 57 50.6389 57.155 50.8323 57.245C51.0289 57.335 51.2473 57.38 51.4873 57.38C51.9606 57.38 52.3239 57.2117 52.5773 56.875C52.8306 56.5383 52.9573 56.0583 52.9573 55.435C52.9573 55.105 52.9273 54.8217 52.8673 54.585C52.8106 54.3483 52.7273 54.155 52.6173 54.005C52.5073 53.8517 52.3723 53.74 52.2123 53.67C52.0523 53.6 51.8706 53.565 51.6673 53.565ZM56.0532 50.635V58H55.1632V50.635H56.0532ZM59.7268 52.855C60.0301 52.855 60.3101 52.9067 60.5668 53.01C60.8235 53.11 61.0451 53.2567 61.2318 53.45C61.4185 53.64 61.5635 53.8767 61.6668 54.16C61.7735 54.44 61.8268 54.76 61.8268 55.12C61.8268 55.26 61.8118 55.3533 61.7818 55.4C61.7518 55.4467 61.6951 55.47 61.6118 55.47H58.2418C58.2485 55.79 58.2918 56.0683 58.3718 56.305C58.4518 56.5417 58.5618 56.74 58.7018 56.9C58.8418 57.0567 59.0085 57.175 59.2018 57.255C59.3951 57.3317 59.6118 57.37 59.8518 57.37C60.0751 57.37 60.2668 57.345 60.4268 57.295C60.5901 57.2417 60.7301 57.185 60.8468 57.125C60.9635 57.065 61.0601 57.01 61.1368 56.96C61.2168 56.9067 61.2851 56.88 61.3418 56.88C61.4151 56.88 61.4718 56.9083 61.5118 56.965L61.7618 57.29C61.6518 57.4233 61.5201 57.54 61.3668 57.64C61.2135 57.7367 61.0485 57.8167 60.8718 57.88C60.6985 57.9433 60.5185 57.99 60.3318 58.02C60.1451 58.0533 59.9601 58.07 59.7768 58.07C59.4268 58.07 59.1035 58.0117 58.8068 57.895C58.5135 57.775 58.2585 57.6017 58.0418 57.375C57.8285 57.145 57.6618 56.8617 57.5418 56.525C57.4218 56.1883 57.3618 55.8017 57.3618 55.365C57.3618 55.0117 57.4151 54.6817 57.5218 54.375C57.6318 54.0683 57.7885 53.8033 57.9918 53.58C58.1951 53.3533 58.4435 53.1767 58.7368 53.05C59.0301 52.92 59.3601 52.855 59.7268 52.855ZM59.7468 53.51C59.3168 53.51 58.9785 53.635 58.7318 53.885C58.4851 54.1317 58.3318 54.475 58.2718 54.915H61.0268C61.0268 54.7083 60.9985 54.52 60.9418 54.35C60.8851 54.1767 60.8018 54.0283 60.6918 53.905C60.5818 53.7783 60.4468 53.6817 60.2868 53.615C60.1301 53.545 59.9501 53.51 59.7468 53.51Z" fill="black"/>
<rect x="0.5" y="0.5" width="82" height="74" rx="11.5" stroke="#024890" stroke-dasharray="15 15"/>
</svg>
