<svg width="310" height="282" viewBox="0 0 310 282" fill="none" xmlns="http://www.w3.org/2000/svg">
<rect x="0.5" y="0.5" width="309" height="281" rx="11.5" fill="#F1F5FB"/>
<path d="M163.482 143.334H146.456C144.429 143.334 142.576 142.307 141.509 140.574C140.442 138.841 140.349 136.734 141.256 134.907L143.549 130.307C144.296 128.814 145.496 127.881 146.842 127.734C148.189 127.587 149.562 128.254 150.602 129.547L150.896 129.921C151.482 130.641 152.162 131.027 152.829 130.961C153.496 130.907 154.109 130.427 154.562 129.614L157.082 125.067C158.122 123.187 159.509 122.214 161.016 122.281C162.509 122.361 163.789 123.481 164.642 125.454L168.816 135.201C169.589 137.001 169.402 139.054 168.322 140.694C167.256 142.361 165.442 143.334 163.482 143.334ZM147.216 129.734C147.162 129.734 147.109 129.734 147.056 129.747C146.389 129.814 145.776 130.347 145.336 131.214L143.042 135.814C142.442 137.001 142.509 138.401 143.202 139.534C143.896 140.667 145.122 141.347 146.456 141.347H163.469C164.776 141.347 165.936 140.721 166.656 139.627C167.376 138.534 167.496 137.227 166.976 136.027L162.802 126.281C162.296 125.081 161.589 124.347 160.909 124.321C160.282 124.281 159.469 124.947 158.829 126.081L156.309 130.627C155.536 132.014 154.322 132.881 153.002 133.001C151.682 133.107 150.336 132.467 149.336 131.214L149.042 130.841C148.482 130.107 147.842 129.734 147.216 129.734Z" fill="#292D32"/>
<path d="M148.293 124.668C145.546 124.668 143.293 122.428 143.293 119.668C143.293 116.908 145.533 114.668 148.293 114.668C151.053 114.668 153.293 116.908 153.293 119.668C153.293 122.428 151.053 124.668 148.293 124.668ZM148.293 116.668C146.64 116.668 145.293 118.015 145.293 119.668C145.293 121.321 146.64 122.668 148.293 122.668C149.946 122.668 151.293 121.321 151.293 119.668C151.293 118.015 149.946 116.668 148.293 116.668Z" fill="#292D32"/>
<path d="M98.3409 153.48V165H97.3889C97.2449 165 97.1222 164.976 97.0209 164.928C96.9195 164.875 96.8235 164.789 96.7329 164.672L90.4049 156.544C90.4209 156.699 90.4315 156.853 90.4369 157.008C90.4475 157.157 90.4529 157.296 90.4529 157.424V165H88.8049V153.48H89.7809C89.8609 153.48 89.9275 153.485 89.9809 153.496C90.0395 153.501 90.0929 153.515 90.1409 153.536C90.1889 153.557 90.2342 153.589 90.2769 153.632C90.3195 153.675 90.3649 153.728 90.4129 153.792L96.7489 161.928C96.7329 161.763 96.7195 161.6 96.7089 161.44C96.7035 161.28 96.7009 161.131 96.7009 160.992V153.48H98.3409ZM104.204 156.712C104.807 156.712 105.351 156.811 105.836 157.008C106.327 157.205 106.743 157.485 107.084 157.848C107.431 158.211 107.697 158.651 107.884 159.168C108.071 159.685 108.164 160.267 108.164 160.912C108.164 161.557 108.071 162.139 107.884 162.656C107.697 163.173 107.431 163.616 107.084 163.984C106.743 164.347 106.327 164.627 105.836 164.824C105.351 165.021 104.807 165.12 104.204 165.12C103.596 165.12 103.047 165.021 102.556 164.824C102.071 164.627 101.655 164.347 101.308 163.984C100.961 163.616 100.695 163.173 100.508 162.656C100.321 162.139 100.228 161.557 100.228 160.912C100.228 160.267 100.321 159.685 100.508 159.168C100.695 158.651 100.961 158.211 101.308 157.848C101.655 157.485 102.071 157.205 102.556 157.008C103.047 156.811 103.596 156.712 104.204 156.712ZM104.204 163.776C104.94 163.776 105.487 163.531 105.844 163.04C106.207 162.544 106.388 161.837 106.388 160.92C106.388 160.003 106.207 159.296 105.844 158.8C105.487 158.299 104.94 158.048 104.204 158.048C103.457 158.048 102.903 158.299 102.54 158.8C102.177 159.296 101.996 160.003 101.996 160.92C101.996 161.837 102.177 162.544 102.54 163.04C102.903 163.531 103.457 163.776 104.204 163.776ZM115.841 162.952C116.081 163.261 116.342 163.48 116.625 163.608C116.913 163.731 117.23 163.792 117.577 163.792C118.249 163.792 118.772 163.547 119.145 163.056C119.524 162.565 119.713 161.835 119.713 160.864C119.713 160.363 119.67 159.936 119.585 159.584C119.5 159.227 119.377 158.936 119.217 158.712C119.057 158.488 118.862 158.325 118.633 158.224C118.404 158.123 118.145 158.072 117.857 158.072C117.42 158.072 117.041 158.168 116.721 158.36C116.406 158.547 116.113 158.816 115.841 159.168V162.952ZM115.753 158.024C116.094 157.624 116.481 157.301 116.913 157.056C117.35 156.811 117.857 156.688 118.433 156.688C118.892 156.688 119.308 156.781 119.681 156.968C120.054 157.149 120.374 157.416 120.641 157.768C120.908 158.12 121.113 158.557 121.257 159.08C121.406 159.597 121.481 160.192 121.481 160.864C121.481 161.467 121.398 162.029 121.233 162.552C121.073 163.069 120.841 163.52 120.537 163.904C120.233 164.283 119.865 164.581 119.433 164.8C119.001 165.013 118.513 165.12 117.969 165.12C117.489 165.12 117.081 165.043 116.745 164.888C116.414 164.733 116.113 164.52 115.841 164.248V167.712H114.121V156.84H115.161C115.396 156.84 115.545 156.949 115.609 157.168L115.753 158.024ZM125.032 157.808C125.368 157.477 125.736 157.213 126.136 157.016C126.536 156.813 127.003 156.712 127.536 156.712C127.984 156.712 128.376 156.787 128.712 156.936C129.054 157.085 129.339 157.296 129.568 157.568C129.803 157.84 129.979 158.168 130.096 158.552C130.214 158.931 130.272 159.349 130.272 159.808V165H128.56V159.808C128.56 159.259 128.432 158.832 128.176 158.528C127.926 158.224 127.542 158.072 127.024 158.072C126.64 158.072 126.283 158.16 125.952 158.336C125.627 158.512 125.32 158.752 125.032 159.056V165H123.312V153.16H125.032V157.808ZM135.969 156.712C136.572 156.712 137.116 156.811 137.601 157.008C138.092 157.205 138.508 157.485 138.849 157.848C139.196 158.211 139.462 158.651 139.649 159.168C139.836 159.685 139.929 160.267 139.929 160.912C139.929 161.557 139.836 162.139 139.649 162.656C139.462 163.173 139.196 163.616 138.849 163.984C138.508 164.347 138.092 164.627 137.601 164.824C137.116 165.021 136.572 165.12 135.969 165.12C135.361 165.12 134.812 165.021 134.321 164.824C133.836 164.627 133.42 164.347 133.073 163.984C132.726 163.616 132.46 163.173 132.273 162.656C132.086 162.139 131.993 161.557 131.993 160.912C131.993 160.267 132.086 159.685 132.273 159.168C132.46 158.651 132.726 158.211 133.073 157.848C133.42 157.485 133.836 157.205 134.321 157.008C134.812 156.811 135.361 156.712 135.969 156.712ZM135.969 163.776C136.705 163.776 137.252 163.531 137.609 163.04C137.972 162.544 138.153 161.837 138.153 160.92C138.153 160.003 137.972 159.296 137.609 158.8C137.252 158.299 136.705 158.048 135.969 158.048C135.222 158.048 134.668 158.299 134.305 158.8C133.942 159.296 133.761 160.003 133.761 160.92C133.761 161.837 133.942 162.544 134.305 163.04C134.668 163.531 135.222 163.776 135.969 163.776ZM144.201 165.128C143.524 165.128 143.001 164.939 142.633 164.56C142.271 164.176 142.089 163.637 142.089 162.944V158.192H141.193C141.097 158.192 141.015 158.163 140.945 158.104C140.876 158.04 140.841 157.947 140.841 157.824V157.128L142.161 156.936L142.537 154.576C142.564 154.485 142.609 154.413 142.673 154.36C142.737 154.301 142.823 154.272 142.929 154.272H143.809V156.952H146.073V158.192H143.809V162.824C143.809 163.117 143.881 163.341 144.025 163.496C144.169 163.651 144.361 163.728 144.601 163.728C144.735 163.728 144.849 163.712 144.945 163.68C145.041 163.643 145.124 163.605 145.193 163.568C145.263 163.525 145.321 163.488 145.369 163.456C145.423 163.419 145.473 163.4 145.521 163.4C145.617 163.4 145.695 163.453 145.753 163.56L146.265 164.4C145.999 164.635 145.684 164.816 145.321 164.944C144.959 165.067 144.585 165.128 144.201 165.128ZM151.055 156.712C151.657 156.712 152.201 156.811 152.687 157.008C153.177 157.205 153.593 157.485 153.935 157.848C154.281 158.211 154.548 158.651 154.735 159.168C154.921 159.685 155.015 160.267 155.015 160.912C155.015 161.557 154.921 162.139 154.735 162.656C154.548 163.173 154.281 163.616 153.935 163.984C153.593 164.347 153.177 164.627 152.687 164.824C152.201 165.021 151.657 165.12 151.055 165.12C150.447 165.12 149.897 165.021 149.407 164.824C148.921 164.627 148.505 164.347 148.159 163.984C147.812 163.616 147.545 163.173 147.359 162.656C147.172 162.139 147.079 161.557 147.079 160.912C147.079 160.267 147.172 159.685 147.359 159.168C147.545 158.651 147.812 158.211 148.159 157.848C148.505 157.485 148.921 157.205 149.407 157.008C149.897 156.811 150.447 156.712 151.055 156.712ZM151.055 163.776C151.791 163.776 152.337 163.531 152.695 163.04C153.057 162.544 153.239 161.837 153.239 160.92C153.239 160.003 153.057 159.296 152.695 158.8C152.337 158.299 151.791 158.048 151.055 158.048C150.308 158.048 149.753 158.299 149.391 158.8C149.028 159.296 148.847 160.003 148.847 160.92C148.847 161.837 149.028 162.544 149.391 163.04C149.753 163.531 150.308 163.776 151.055 163.776ZM165.332 161.432C164.718 161.453 164.201 161.504 163.78 161.584C163.358 161.659 163.017 161.757 162.756 161.88C162.494 161.997 162.305 162.139 162.188 162.304C162.076 162.469 162.02 162.651 162.02 162.848C162.02 163.04 162.049 163.205 162.108 163.344C162.172 163.477 162.257 163.589 162.364 163.68C162.476 163.765 162.604 163.829 162.748 163.872C162.897 163.909 163.06 163.928 163.236 163.928C163.684 163.928 164.068 163.845 164.388 163.68C164.713 163.509 165.028 163.264 165.332 162.944V161.432ZM160.772 157.976C161.694 157.117 162.793 156.688 164.068 156.688C164.537 156.688 164.953 156.765 165.316 156.92C165.684 157.069 165.99 157.283 166.236 157.56C166.486 157.837 166.676 158.168 166.804 158.552C166.937 158.931 167.004 159.352 167.004 159.816V165H166.236C166.07 165 165.945 164.976 165.86 164.928C165.774 164.875 165.702 164.771 165.644 164.616L165.476 163.952C165.268 164.139 165.062 164.307 164.86 164.456C164.657 164.6 164.446 164.723 164.228 164.824C164.014 164.925 163.782 165 163.532 165.048C163.286 165.101 163.014 165.128 162.716 165.128C162.385 165.128 162.076 165.083 161.788 164.992C161.505 164.901 161.26 164.765 161.052 164.584C160.844 164.397 160.678 164.168 160.556 163.896C160.438 163.624 160.38 163.304 160.38 162.936C160.38 162.621 160.462 162.315 160.628 162.016C160.798 161.717 161.076 161.451 161.46 161.216C161.849 160.976 162.358 160.779 162.988 160.624C163.622 160.469 164.404 160.381 165.332 160.36V159.816C165.332 159.229 165.206 158.792 164.956 158.504C164.705 158.216 164.337 158.072 163.852 158.072C163.521 158.072 163.244 158.115 163.02 158.2C162.796 158.28 162.601 158.368 162.436 158.464C162.27 158.56 162.124 158.651 161.996 158.736C161.868 158.816 161.732 158.856 161.588 158.856C161.47 158.856 161.369 158.827 161.284 158.768C161.204 158.704 161.137 158.627 161.084 158.536L160.772 157.976ZM176.175 156.84L172.895 165H171.343L168.063 156.84H169.479C169.612 156.84 169.722 156.875 169.807 156.944C169.898 157.008 169.956 157.085 169.983 157.176L171.791 161.928C171.866 162.152 171.932 162.373 171.991 162.592C172.05 162.811 172.1 163.032 172.143 163.256C172.186 163.032 172.236 162.813 172.295 162.6C172.359 162.381 172.428 162.157 172.503 161.928L174.343 157.176C174.375 157.08 174.434 157 174.519 156.936C174.604 156.872 174.708 156.84 174.831 156.84H176.175ZM181.683 161.432C181.07 161.453 180.552 161.504 180.131 161.584C179.71 161.659 179.368 161.757 179.107 161.88C178.846 161.997 178.656 162.139 178.539 162.304C178.427 162.469 178.371 162.651 178.371 162.848C178.371 163.04 178.4 163.205 178.459 163.344C178.523 163.477 178.608 163.589 178.715 163.68C178.827 163.765 178.955 163.829 179.099 163.872C179.248 163.909 179.411 163.928 179.587 163.928C180.035 163.928 180.419 163.845 180.739 163.68C181.064 163.509 181.379 163.264 181.683 162.944V161.432ZM177.123 157.976C178.046 157.117 179.144 156.688 180.419 156.688C180.888 156.688 181.304 156.765 181.667 156.92C182.035 157.069 182.342 157.283 182.587 157.56C182.838 157.837 183.027 158.168 183.155 158.552C183.288 158.931 183.355 159.352 183.355 159.816V165H182.587C182.422 165 182.296 164.976 182.211 164.928C182.126 164.875 182.054 164.771 181.995 164.616L181.827 163.952C181.619 164.139 181.414 164.307 181.211 164.456C181.008 164.6 180.798 164.723 180.579 164.824C180.366 164.925 180.134 165 179.883 165.048C179.638 165.101 179.366 165.128 179.067 165.128C178.736 165.128 178.427 165.083 178.139 164.992C177.856 164.901 177.611 164.765 177.403 164.584C177.195 164.397 177.03 164.168 176.907 163.896C176.79 163.624 176.731 163.304 176.731 162.936C176.731 162.621 176.814 162.315 176.979 162.016C177.15 161.717 177.427 161.451 177.811 161.216C178.2 160.976 178.71 160.779 179.339 160.624C179.974 160.469 180.755 160.381 181.683 160.36V159.816C181.683 159.229 181.558 158.792 181.307 158.504C181.056 158.216 180.688 158.072 180.203 158.072C179.872 158.072 179.595 158.115 179.371 158.2C179.147 158.28 178.952 158.368 178.787 158.464C178.622 158.56 178.475 158.651 178.347 158.736C178.219 158.816 178.083 158.856 177.939 158.856C177.822 158.856 177.72 158.827 177.635 158.768C177.555 158.704 177.488 158.627 177.435 158.536L177.123 157.976ZM187.322 156.84V165H185.602V156.84H187.322ZM187.61 154.376C187.61 154.531 187.578 154.677 187.514 154.816C187.455 154.955 187.373 155.077 187.266 155.184C187.159 155.285 187.034 155.368 186.89 155.432C186.751 155.491 186.602 155.52 186.442 155.52C186.287 155.52 186.141 155.491 186.002 155.432C185.869 155.368 185.751 155.285 185.65 155.184C185.549 155.077 185.466 154.955 185.402 154.816C185.343 154.677 185.314 154.531 185.314 154.376C185.314 154.216 185.343 154.067 185.402 153.928C185.466 153.789 185.549 153.669 185.65 153.568C185.751 153.461 185.869 153.379 186.002 153.32C186.141 153.256 186.287 153.224 186.442 153.224C186.602 153.224 186.751 153.256 186.89 153.32C187.034 153.379 187.159 153.461 187.266 153.568C187.373 153.669 187.455 153.789 187.514 153.928C187.578 154.067 187.61 154.216 187.61 154.376ZM191.395 153.16V165H189.675V153.16H191.395ZM198.038 161.432C197.425 161.453 196.907 161.504 196.486 161.584C196.065 161.659 195.723 161.757 195.462 161.88C195.201 161.997 195.011 162.139 194.894 162.304C194.782 162.469 194.726 162.651 194.726 162.848C194.726 163.04 194.755 163.205 194.814 163.344C194.878 163.477 194.963 163.589 195.07 163.68C195.182 163.765 195.31 163.829 195.454 163.872C195.603 163.909 195.766 163.928 195.942 163.928C196.39 163.928 196.774 163.845 197.094 163.68C197.419 163.509 197.734 163.264 198.038 162.944V161.432ZM193.478 157.976C194.401 157.117 195.499 156.688 196.774 156.688C197.243 156.688 197.659 156.765 198.022 156.92C198.39 157.069 198.697 157.283 198.942 157.56C199.193 157.837 199.382 158.168 199.51 158.552C199.643 158.931 199.71 159.352 199.71 159.816V165H198.942C198.777 165 198.651 164.976 198.566 164.928C198.481 164.875 198.409 164.771 198.35 164.616L198.182 163.952C197.974 164.139 197.769 164.307 197.566 164.456C197.363 164.6 197.153 164.723 196.934 164.824C196.721 164.925 196.489 165 196.238 165.048C195.993 165.101 195.721 165.128 195.422 165.128C195.091 165.128 194.782 165.083 194.494 164.992C194.211 164.901 193.966 164.765 193.758 164.584C193.55 164.397 193.385 164.168 193.262 163.896C193.145 163.624 193.086 163.304 193.086 162.936C193.086 162.621 193.169 162.315 193.334 162.016C193.505 161.717 193.782 161.451 194.166 161.216C194.555 160.976 195.065 160.779 195.694 160.624C196.329 160.469 197.11 160.381 198.038 160.36V159.816C198.038 159.229 197.913 158.792 197.662 158.504C197.411 158.216 197.043 158.072 196.558 158.072C196.227 158.072 195.95 158.115 195.726 158.2C195.502 158.28 195.307 158.368 195.142 158.464C194.977 158.56 194.83 158.651 194.702 158.736C194.574 158.816 194.438 158.856 194.294 158.856C194.177 158.856 194.075 158.827 193.99 158.768C193.91 158.704 193.843 158.627 193.79 158.536L193.478 157.976ZM203.605 162.952C203.845 163.261 204.106 163.48 204.389 163.608C204.677 163.731 204.989 163.792 205.325 163.792C206.002 163.792 206.53 163.547 206.909 163.056C207.288 162.565 207.477 161.805 207.477 160.776C207.477 159.837 207.312 159.152 206.981 158.72C206.656 158.288 206.189 158.072 205.581 158.072C205.16 158.072 204.792 158.168 204.477 158.36C204.168 158.547 203.877 158.816 203.605 159.168V162.952ZM203.605 157.92C203.941 157.552 204.317 157.259 204.733 157.04C205.149 156.821 205.624 156.712 206.157 156.712C206.632 156.712 207.058 156.805 207.437 156.992C207.821 157.173 208.146 157.437 208.413 157.784C208.68 158.131 208.885 158.552 209.029 159.048C209.173 159.539 209.245 160.093 209.245 160.712C209.245 161.373 209.162 161.976 208.997 162.52C208.837 163.059 208.605 163.523 208.301 163.912C207.997 164.296 207.629 164.595 207.197 164.808C206.765 165.016 206.282 165.12 205.749 165.12C205.488 165.12 205.25 165.093 205.037 165.04C204.824 164.992 204.626 164.92 204.445 164.824C204.264 164.728 204.096 164.613 203.941 164.48C203.792 164.347 203.648 164.195 203.509 164.024L203.437 164.656C203.41 164.779 203.362 164.867 203.293 164.92C203.224 164.973 203.128 165 203.005 165H201.885V153.16H203.605V157.92ZM212.828 153.16V165H211.108V153.16H212.828ZM220.463 160C220.463 159.712 220.42 159.445 220.335 159.2C220.255 158.949 220.135 158.733 219.975 158.552C219.815 158.365 219.615 158.221 219.375 158.12C219.14 158.013 218.868 157.96 218.559 157.96C217.935 157.96 217.444 158.139 217.087 158.496C216.73 158.853 216.503 159.355 216.407 160H220.463ZM216.359 161.056C216.38 161.52 216.452 161.923 216.575 162.264C216.698 162.6 216.86 162.88 217.063 163.104C217.271 163.328 217.516 163.496 217.799 163.608C218.087 163.715 218.407 163.768 218.759 163.768C219.095 163.768 219.386 163.731 219.631 163.656C219.876 163.576 220.09 163.491 220.271 163.4C220.452 163.304 220.607 163.219 220.735 163.144C220.863 163.064 220.98 163.024 221.087 163.024C221.226 163.024 221.332 163.077 221.407 163.184L221.895 163.816C221.692 164.056 221.463 164.259 221.207 164.424C220.951 164.589 220.679 164.725 220.391 164.832C220.103 164.933 219.807 165.005 219.503 165.048C219.199 165.096 218.903 165.12 218.615 165.12C218.05 165.12 217.524 165.027 217.039 164.84C216.559 164.648 216.14 164.368 215.783 164C215.431 163.632 215.154 163.176 214.951 162.632C214.754 162.088 214.655 161.461 214.655 160.752C214.655 160.187 214.743 159.659 214.919 159.168C215.1 158.677 215.356 158.251 215.687 157.888C216.023 157.525 216.428 157.24 216.903 157.032C217.383 156.819 217.924 156.712 218.527 156.712C219.028 156.712 219.492 156.795 219.919 156.96C220.346 157.12 220.714 157.357 221.023 157.672C221.332 157.987 221.572 158.373 221.743 158.832C221.919 159.285 222.007 159.803 222.007 160.384C222.007 160.651 221.978 160.829 221.919 160.92C221.86 161.011 221.754 161.056 221.599 161.056H216.359Z" fill="black"/>
<rect x="0.5" y="0.5" width="309" height="281" rx="11.5" stroke="#024890" stroke-dasharray="15 15"/>
</svg>
