<svg width="32" height="32" viewBox="0 0 32 32" fill="none" xmlns="http://www.w3.org/2000/svg">
<path d="M24.4804 30.3332H7.45381C5.42714 30.3332 3.57381 29.3065 2.50714 27.5732C1.44047 25.8399 1.34714 23.7332 2.25381 21.9065L4.54714 17.3065C5.29381 15.8132 6.49381 14.8799 7.84047 14.7332C9.18714 14.5865 10.5605 15.2532 11.6005 16.5465L11.8938 16.9199C12.4805 17.6399 13.1605 18.0265 13.8271 17.9599C14.4938 17.9065 15.1071 17.4265 15.5604 16.6132L18.0804 12.0666C19.1204 10.1866 20.5071 9.21325 22.0138 9.27991C23.5071 9.35991 24.7871 10.4799 25.6404 12.4532L29.8138 22.1999C30.5871 23.9999 30.4004 26.0532 29.3204 27.6932C28.2538 29.3599 26.4404 30.3332 24.4804 30.3332ZM8.21381 16.7332C8.16047 16.7332 8.10714 16.7332 8.05381 16.7465C7.38714 16.8132 6.77381 17.3465 6.33381 18.2132L4.04047 22.8132C3.44047 23.9999 3.50714 25.3999 4.20047 26.5332C4.89381 27.6665 6.12047 28.3465 7.45381 28.3465H24.4671C25.7738 28.3465 26.9338 27.7199 27.6538 26.6265C28.3738 25.5332 28.4938 24.2265 27.9738 23.0265L23.8004 13.2799C23.2938 12.0799 22.5871 11.3466 21.9071 11.3199C21.2804 11.2799 20.4671 11.9466 19.8271 13.0799L17.3071 17.6265C16.5338 19.0132 15.3204 19.8799 14.0004 19.9999C12.6805 20.1065 11.3338 19.4665 10.3338 18.2132L10.0405 17.8399C9.48047 17.1065 8.84047 16.7332 8.21381 16.7332Z" fill="#292D32"/>
<path d="M9.29492 11.6667C6.54825 11.6667 4.29492 9.42667 4.29492 6.66667C4.29492 3.90667 6.53492 1.66667 9.29492 1.66667C12.0549 1.66667 14.2949 3.90667 14.2949 6.66667C14.2949 9.42667 12.0549 11.6667 9.29492 11.6667ZM9.29492 3.66667C7.64159 3.66667 6.29492 5.01334 6.29492 6.66667C6.29492 8.32001 7.64159 9.66667 9.29492 9.66667C10.9483 9.66667 12.2949 8.32001 12.2949 6.66667C12.2949 5.01334 10.9483 3.66667 9.29492 3.66667Z" fill="#292D32"/>
</svg>
