<svg width="793" height="261" viewBox="0 0 793 261" fill="none" xmlns="http://www.w3.org/2000/svg">
<g opacity="0.72">
<path d="M-211.504 -289.046C-169.525 -264.424 -132.348 -232.412 -101.757 -194.548C-29.7174 -104.561 -39.4576 -32.9706 1.83962 -21.9155C65.6543 -4.83884 106.69 -171.1 240.797 -197.804C339.158 -217.403 439.326 -152.277 462.512 -137.188C552.963 -78.3909 565.012 -12.9497 629.827 -11.4274C677.24 -10.2632 691.21 -44.7694 765.338 -59.6152C816.944 -69.9488 862.128 -63.6466 892.585 -56.5772" stroke="#477AAE" stroke-width="0.975557" stroke-miterlimit="10"/>
<path d="M-211.463 -281.156C-169.48 -256.526 -132.297 -224.509 -101.698 -186.643C-29.657 -96.6391 -39.3985 -25.0656 1.88206 -14.0091C65.7134 3.0662 106.749 -163.195 240.84 -189.898C339.218 -209.481 439.387 -144.355 462.571 -129.283C553.023 -70.4858 565.055 -5.04335 629.887 -3.52236C677.3 -2.35823 691.253 -36.8631 765.398 -51.7103C817.02 -62.0452 862.188 -55.7416 892.644 -48.6722" stroke="#477AAE" stroke-width="0.975557" stroke-miterlimit="10" stroke-dasharray="8 8"/>
<path d="M-211.422 -273.267C-169.436 -248.642 -132.251 -216.624 -101.657 -178.753C-29.616 -88.7494 -39.3575 -17.176 1.93974 -6.12085C65.7044 10.9599 106.807 -155.307 240.897 -182.009C339.259 -201.591 439.428 -136.466 462.612 -121.393C553.065 -62.5795 565.112 2.84489 629.928 4.36724C677.341 5.53137 691.309 -28.9915 765.437 -43.8373C817.059 -54.1722 862.227 -47.8687 892.684 -40.7993" stroke="#477AAE" stroke-width="0.975557" stroke-miterlimit="10"/>
<path d="M-211.348 -265.38C-169.369 -240.743 -132.191 -208.72 -101.598 -170.848C-29.5571 -80.8446 -39.2986 -9.27113 1.98191 1.78534C65.8133 18.8607 106.849 -147.401 240.939 -174.103C339.318 -193.686 439.487 -128.561 462.671 -113.488C553.124 -54.6747 565.154 10.7511 629.986 12.2721C677.399 13.4362 691.351 -21.0853 765.496 -35.9325C817.118 -46.2675 862.286 -39.9639 892.743 -32.8945" stroke="#477AAE" stroke-width="0.975557" stroke-miterlimit="10"/>
<path d="M-211.322 -257.488C-169.34 -232.858 -132.157 -200.842 -101.557 -162.975C-29.4997 -72.9724 -39.2566 -1.38094 2.03934 9.65748C65.854 26.7342 106.907 -139.528 240.997 -166.231C339.375 -185.814 439.528 -120.687 462.728 -105.616C553.165 -46.8012 565.212 18.6233 630.027 20.1456C677.44 21.3097 691.409 -13.2131 765.537 -28.059C817.159 -38.3939 862.328 -32.0736 892.783 -25.0209" stroke="#477AAE" stroke-width="0.975557" stroke-miterlimit="10"/>
<path d="M-211.264 -249.601C-169.285 -224.966 -132.102 -192.95 -101.499 -155.087C-29.4578 -65.0836 -39.198 6.50645 2.08118 17.5462C65.8625 34.6256 106.948 -131.639 241.05 -158.41C339.412 -177.992 439.581 -112.866 462.765 -97.7939C553.218 -38.9805 565.248 26.4453 630.08 27.9663C677.493 29.1304 691.445 -5.39104 765.59 -20.2382C817.212 -30.5731 862.381 -24.2529 892.853 -17.2015" stroke="#477AAE" stroke-width="0.975557" stroke-miterlimit="10" stroke-dasharray="8 8"/>
<path d="M-211.188 -241.696C-169.209 -217.058 -132.035 -185.028 -101.453 -147.147C-29.3956 -57.1442 -39.1525 14.4474 2.14344 25.4858C65.9594 42.5792 107.012 -123.683 241.102 -150.386C339.48 -169.986 439.632 -104.859 462.832 -89.7879C553.269 -30.9729 565.316 34.4516 630.131 35.974C677.544 37.1381 691.513 2.6152 765.641 -12.2307C817.265 -22.5489 862.432 -16.2453 892.888 -9.19267" stroke="#477AAE" stroke-width="0.975557" stroke-miterlimit="10" stroke-dasharray="8 8"/>
<path d="M-211.168 -233.875C-169.182 -209.25 -131.998 -177.233 -101.403 -139.362C-29.3634 -49.3745 -39.1036 22.2157 2.17695 33.2721C66.0083 50.3475 107.044 -115.914 241.151 -142.618C339.512 -162.216 439.681 -97.0907 462.866 -82.0014C553.318 -23.2046 565.348 42.2212 630.181 43.7589C677.595 44.923 691.563 10.4002 765.692 -4.42896C817.298 -14.7625 862.466 -8.45896 892.939 -1.39096" stroke="#477AAE" stroke-width="0.975557" stroke-miterlimit="10"/>
<path d="M-211.123 -225.919C-169.135 -201.291 -131.946 -169.274 -101.342 -131.407C-29.3019 -41.4199 -39.0587 30.1716 2.23848 41.2267C66.0198 58.3061 107.106 -107.959 241.192 -134.712C339.569 -154.312 439.721 -89.1847 462.923 -74.0969C553.358 -15.2987 565.407 50.1424 630.222 51.6648C677.635 52.8289 691.605 18.3228 765.733 3.47695C817.355 -6.85799 862.523 -0.554409 892.98 6.51496" stroke="#477AAE" stroke-width="0.975557" stroke-miterlimit="10"/>
<path d="M-211.031 -218.033C-169.053 -193.38 -131.879 -161.339 -101.294 -123.45C-29.2534 -33.4464 -38.9949 38.1272 2.30235 49.1823C66.117 66.259 107.153 -100.002 241.26 -126.706C339.62 -146.305 439.789 -81.1794 462.975 -66.0901C553.427 -7.29324 565.458 58.1493 630.29 59.6703C677.703 60.8344 691.673 26.3282 765.801 11.4823C817.407 1.14873 862.575 7.45231 893.048 14.5203" stroke="#477AAE" stroke-width="0.975557" stroke-miterlimit="10"/>
<path d="M-211.008 -210.175C-169.029 -185.54 -131.846 -153.524 -101.243 -115.661C-29.2019 -25.6576 -38.9434 45.9158 2.33711 56.9723C66.1518 74.049 107.204 -92.2136 241.295 -118.916C339.673 -138.499 439.825 -73.3724 463.026 -58.3013C553.461 0.496943 565.51 65.9381 630.342 67.4591C677.738 68.6246 691.708 34.1184 765.852 19.2712C817.475 8.93625 862.643 15.2398 893.099 22.3092" stroke="#477AAE" stroke-width="0.975557" stroke-miterlimit="10"/>
<path d="M-210.967 -202.253C-168.984 -177.623 -131.801 -145.606 -101.202 -107.739C-29.1609 -17.7358 -38.9024 53.8377 2.39482 64.8928C66.2095 81.9695 107.245 -84.2917 241.352 -110.996C339.714 -130.578 439.883 -65.4519 463.067 -50.3794C553.52 8.43416 565.551 73.86 630.383 75.381C677.796 76.5451 691.764 42.0222 765.892 27.1764C817.498 16.8428 862.666 23.1464 893.139 30.2144" stroke="#477AAE" stroke-width="0.975557" stroke-miterlimit="10"/>
<path d="M-210.873 -194.367C-168.897 -169.728 -131.716 -137.712 -101.108 -99.8537C-29.0671 -9.84995 -38.8087 61.7235 2.47188 72.78C66.2519 89.8427 107.334 -76.4727 241.396 -103.106C339.775 -122.689 439.927 -57.5621 463.127 -42.4909C553.564 16.324 565.611 81.7485 630.443 83.2695C677.839 84.435 691.808 49.9121 765.953 35.0649C817.575 24.73 862.744 31.0502 893.199 38.1029" stroke="#477AAE" stroke-width="0.975557" stroke-miterlimit="10"/>
<path d="M-210.865 -186.474C-168.883 -161.844 -131.7 -129.827 -101.1 -91.9602C-29.0594 -1.95643 -38.7995 69.6337 2.49634 80.6721C66.311 97.7488 107.347 -68.5124 241.454 -95.2162C339.816 -114.798 439.984 -49.6726 463.152 -34.5987C553.605 24.2148 565.635 89.6407 630.467 91.1617C677.88 92.3258 691.849 57.8029 765.977 42.9571C817.582 32.6235 862.752 38.9438 893.224 45.9951" stroke="#477AAE" stroke-width="0.975557" stroke-miterlimit="10" stroke-dasharray="8 8"/>
<path d="M-210.809 -178.586C-168.83 -153.951 -131.647 -121.935 -101.044 -84.0725C-29.0027 5.93122 -38.7429 77.5214 2.53635 88.5611C66.3343 105.639 107.404 -60.6247 241.495 -87.3106C339.874 -106.894 440.026 -41.7669 463.227 -26.6958C553.663 32.1191 565.71 97.5436 630.542 99.0645C677.939 100.23 691.907 65.7072 766.052 50.86C817.675 40.5417 862.843 46.8453 893.298 53.898" stroke="#477AAE" stroke-width="0.975557" stroke-miterlimit="10"/>
<path d="M-210.715 -170.685C-168.725 -146.064 -131.54 -114.046 -100.95 -76.1711C-28.9103 13.8159 -38.6505 85.4061 2.64537 96.4445C66.4113 113.542 107.493 -52.7734 241.554 -79.4231C339.915 -99.0218 440.083 -33.8961 463.267 -18.8236C553.72 39.99 565.751 105.416 630.583 106.937C677.996 108.101 691.964 73.578 766.092 58.7322C817.699 48.4153 862.867 54.7189 893.339 61.7702" stroke="#477AAE" stroke-width="0.975557" stroke-miterlimit="10"/>
<path d="M-210.705 -162.775C-168.719 -138.151 -131.535 -106.133 -100.94 -68.2619C-28.9005 21.7251 -38.6407 93.3152 2.63984 104.372C66.4545 121.448 107.507 -44.8142 241.597 -71.5167C339.975 -91.1167 440.127 -25.9897 463.329 -10.9019C553.764 47.8964 565.812 113.338 630.644 114.858C678.057 116.023 692.01 81.5178 766.155 66.6706C817.777 56.3356 862.945 62.6392 893.402 69.7086" stroke="#477AAE" stroke-width="0.975557" stroke-miterlimit="10"/>
<path d="M-210.666 -154.901C-168.68 -130.277 -131.496 -98.2592 -100.901 -60.3878C-28.8614 29.5993 -38.6016 101.189 2.69564 112.245C66.4936 129.323 107.546 -36.94 241.656 -63.6106C340.016 -83.2092 440.185 -18.0836 463.371 -2.99434C553.822 55.8026 565.854 121.245 630.686 122.766C678.099 123.93 692.069 89.4241 766.197 74.5782C817.803 64.2446 862.971 70.5482 893.444 77.6162" stroke="#477AAE" stroke-width="0.975557" stroke-miterlimit="10"/>
<path d="M-210.557 -147.018C-168.574 -122.388 -131.391 -90.3708 -100.792 -52.5041C-28.7507 37.4997 -38.4922 109.073 2.78829 120.13C66.5556 137.244 107.654 -29.073 241.696 -55.7547C340.074 -75.3381 440.243 -10.2125 463.427 4.86008C553.862 63.6583 565.911 129.099 630.743 130.62C678.156 131.785 692.109 97.2798 766.254 82.4326C817.876 72.0976 863.044 78.4012 893.5 85.4706" stroke="#477AAE" stroke-width="0.975557" stroke-miterlimit="10"/>
<path d="M-210.561 -139.074C-168.574 -114.45 -131.39 -82.4321 -100.796 -44.5608C-28.7547 45.4429 -38.4962 117.016 2.80098 128.071C66.6156 145.148 107.652 -21.113 241.758 -47.8168C340.116 -67.4489 440.285 -2.32329 463.469 12.7492C553.922 71.5628 565.953 136.989 630.785 138.51C678.198 139.674 692.166 105.151 766.294 90.305C817.9 79.9715 863.068 86.275 893.541 93.343" stroke="#477AAE" stroke-width="0.975557" stroke-miterlimit="10"/>
<path d="M-210.508 -131.235C-168.525 -106.605 -131.342 -74.5886 -100.743 -36.7218C-28.7019 53.2819 -38.4434 124.855 2.83714 135.912C66.6518 152.989 107.704 -13.2741 241.8 -39.9098C340.179 -59.4932 440.347 5.63242 463.531 20.705C553.968 79.5199 566.015 144.944 630.847 146.465C678.26 147.629 692.212 113.108 766.357 98.2607C817.979 87.9258 863.147 94.2294 893.603 101.299" stroke="#477AAE" stroke-width="0.975557" stroke-miterlimit="10"/>
<path d="M-210.398 -123.351C-168.416 -98.7206 -131.233 -66.7038 -100.634 -28.8371C-28.5925 61.1667 -38.3327 132.757 2.96319 143.795C66.7164 160.944 107.815 -5.37259 241.854 -32.0877C340.216 -51.6697 440.385 13.456 463.569 28.5285C554.022 87.3421 566.052 152.768 630.884 154.289C678.297 155.453 692.266 120.93 766.394 106.084C818 95.7507 863.185 102.07 893.641 109.122" stroke="#477AAE" stroke-width="0.975557" stroke-miterlimit="10" stroke-dasharray="8 8"/>
<path d="M-210.4 -115.375C-168.421 -90.7403 -131.239 -58.7242 -100.636 -20.8617C-28.5945 69.1419 -38.3347 140.732 2.94451 151.772C66.7592 168.848 107.812 2.58611 241.902 -24.1163C340.274 -43.7831 440.443 21.3424 463.627 36.4149C554.08 95.2284 566.11 160.654 630.942 162.175C678.355 163.339 692.307 128.818 766.452 113.971C818.074 103.636 863.243 109.956 893.699 117.009" stroke="#477AAE" stroke-width="0.975557" stroke-miterlimit="10"/>
<path d="M-210.365 -107.551C-168.381 -82.931 -131.197 -50.9192 -100.602 -13.054C-28.5607 76.9497 -38.3009 148.54 2.99497 159.578C66.8109 176.672 107.847 10.4105 241.952 -16.3101C340.314 -35.892 440.483 29.2336 463.667 44.3061C554.12 103.12 566.167 168.544 630.983 170.066C678.396 171.231 692.364 136.708 766.492 121.862C818.099 111.545 863.283 117.847 893.739 124.9" stroke="#477AAE" stroke-width="0.975557" stroke-miterlimit="10"/>
<path d="M-210.24 -99.6709C-168.254 -75.0463 -131.07 -43.0287 -100.475 -5.15735C-28.4356 84.8297 -38.1758 156.42 3.10472 167.476C66.876 184.641 107.975 18.3238 241.996 -8.40665C340.373 -28.0067 440.542 37.119 463.727 52.2082C554.179 111.005 566.209 176.431 631.043 177.969C678.456 179.133 692.407 144.611 766.553 129.781C818.176 119.446 863.344 125.749 893.8 132.819" stroke="#477AAE" stroke-width="0.975557" stroke-miterlimit="10" stroke-dasharray="8 8"/>
<path d="M-210.266 -91.7764C-168.279 -67.1518 -131.095 -35.1343 -100.501 2.73708C-28.461 92.7241 -38.2012 164.314 3.09599 175.369C66.9107 192.446 107.963 26.1835 242.053 -0.519004C340.414 -20.1177 440.579 44.9579 463.785 60.0958C554.22 118.894 566.268 184.335 631.084 185.858C678.497 187.022 692.467 152.515 766.595 137.67C818.217 127.335 863.385 133.638 893.841 140.708" stroke="#477AAE" stroke-width="0.975557" stroke-miterlimit="10"/>
<path d="M-210.207 -83.8877C-168.225 -59.2577 -131.041 -27.2409 -100.442 10.6258C-28.4011 100.629 -38.1426 172.203 3.1379 183.259C66.9693 200.335 108.005 34.0735 242.095 7.37102C340.473 -12.229 440.642 52.8966 463.827 67.9858C554.279 126.783 566.31 192.225 631.142 193.746C678.556 194.91 692.509 160.405 766.653 145.558C818.276 135.223 863.444 141.527 893.9 148.596" stroke="#477AAE" stroke-width="0.975557" stroke-miterlimit="10"/>
</g>
<ellipse cx="309.337" cy="5.85127" rx="4.22339" ry="4.25264" fill="#477AAE"/>
<ellipse cx="132.802" cy="-1.0628" rx="2.89142" ry="2.88252" fill="#477AAE"/>
<ellipse cx="662.292" cy="132.817" rx="4.82673" ry="4.86016" fill="#477AAE"/>
<ellipse cx="74.9738" cy="138.452" rx="4.04798" ry="4.03553" fill="#477AAE"/>
</svg>
