<svg width="17" height="21" viewBox="0 0 17 21" fill="none" xmlns="http://www.w3.org/2000/svg">
<g opacity="0.5">
<path d="M2.59317 13.512V16.5174L2.59058 16.5194L2.59124 13.5133L2.59317 13.512Z" fill="#4DA935"/>
<path d="M16.4197 8.5381L6.35837 14.3446V13.745H5.19195L5.19415 8.05133L3.28491 6.94924C3.21482 6.90877 3.13532 6.88746 3.05439 6.88745C2.97345 6.88745 2.89394 6.90875 2.82384 6.94921C2.75375 6.98966 2.69555 7.04786 2.65507 7.11794C2.61459 7.18803 2.59328 7.26753 2.59326 7.34847V19.5084L16.0666 11.733C16.1868 11.6636 16.2866 11.5638 16.356 11.4436C16.4254 11.3234 16.462 11.1871 16.4619 11.0483V8.56203L16.4197 8.5381Z" fill="#5000BE"/>
<path d="M2.97654 0.773742C2.85625 0.704232 2.71975 0.667667 2.58082 0.667725C2.44188 0.667783 2.30542 0.704471 2.18519 0.774082L0.0550082 2.00692L0.00292969 2.03729L10.1205 7.8899V9.17016L5.19279 12.0126L5.19186 14.2189C5.19182 14.2999 5.2131 14.3794 5.25355 14.4496C5.294 14.5197 5.3522 14.578 5.4223 14.6185C5.4924 14.659 5.57193 14.6803 5.6529 14.6803C5.73386 14.6803 5.81341 14.659 5.88353 14.6186L16.4199 8.5381L2.97654 0.773742Z" fill="#3073FF"/>
<path d="M10.5377 8.13121L0.002933 2.03723L7.81567e-09 20.2065C-1.48954e-05 20.2875 0.021284 20.367 0.0617539 20.4371C0.102224 20.5072 0.160436 20.5655 0.230544 20.6059C0.300652 20.6464 0.380186 20.6677 0.461142 20.6677C0.542098 20.6677 0.621616 20.6464 0.691722 20.6059L2.59327 19.5082L2.59295 13.5122L2.59327 13.5119V7.32993C2.59618 7.2425 2.62454 7.15781 2.67487 7.08628C2.71565 7.02443 2.77196 6.9744 2.83816 6.94116L2.83839 6.93582C2.84861 6.93215 2.859 6.92897 2.86919 6.92512C2.88277 6.91999 2.89635 6.91495 2.91001 6.91019C3.01068 6.87538 3.1205 6.87786 3.21948 6.91718C3.23373 6.9226 3.24751 6.92894 3.2612 6.93549L8.62642 10.0323L10.5373 8.92981C10.6074 8.88936 10.6656 8.83118 10.7061 8.76111C10.7465 8.69104 10.7679 8.61156 10.7679 8.53063C10.768 8.44971 10.7467 8.3702 10.7063 8.30009C10.6659 8.22998 10.6077 8.17173 10.5377 8.13121Z" fill="#3C3CDD"/>
</g>
</svg>
