<svg width="147" height="44" viewBox="0 0 147 44" fill="none" xmlns="http://www.w3.org/2000/svg">
<g clip-path="url(#clip0_115_2800)">
<path d="M3.39415 33.7689C3.41017 33.7748 3.42765 33.7821 3.44513 33.7894C3.45096 33.7909 3.45533 33.7924 3.46116 33.7953C3.52671 33.8187 3.59226 33.8437 3.65927 33.8671H3.66073L3.7627 33.9023C3.88069 33.9434 4.00743 33.9844 4.17495 34.0357C4.46775 34.1266 4.76492 34.2058 5.06354 34.2747C5.99876 34.4902 6.9631 34.5986 7.94493 34.603C8.05127 34.603 8.15615 34.603 8.26249 34.6001C8.43439 34.5972 8.60773 34.5899 8.78108 34.5796C9.03601 34.5649 9.28948 34.5444 9.54295 34.5151C10.3573 34.4242 11.1614 34.2585 11.9465 34.0225C12.0572 33.9903 12.1679 33.9551 12.2772 33.9184C12.4039 33.8774 12.5278 33.8349 12.6516 33.7894C13.4877 33.4889 14.2933 33.1063 15.0435 32.6474C15.2489 32.5214 15.4528 32.3894 15.6539 32.2516C15.8826 32.0962 16.1069 31.932 16.3269 31.762C16.3939 31.7107 16.4609 31.6579 16.5264 31.6051C16.7275 31.4439 16.9256 31.2753 17.1222 31.1008C16.8921 30.9747 16.6546 30.8516 16.4172 30.7329C16.3662 30.7079 16.321 30.6859 16.2744 30.664L16.2599 30.6566C15.4674 30.2725 14.6502 29.9368 13.8242 29.6554C13.6917 29.6099 13.562 29.5674 13.4309 29.5249C13.3391 29.4956 13.2532 29.4677 13.1658 29.4413L13.1279 29.4296C13.0624 29.4091 12.9968 29.3885 12.9298 29.368C12.7084 29.3006 12.4884 29.2346 12.2655 29.1701C11.409 28.9209 10.5364 28.6878 9.62307 28.4445C9.5211 28.4166 9.41913 28.3902 9.3157 28.3624C8.86266 28.2421 8.40234 28.1175 7.93619 27.9885C7.78469 27.9475 7.63465 27.905 7.48315 27.8625C7.47878 27.8625 7.47441 27.8595 7.47004 27.8581C6.71546 27.647 6.03663 27.4447 5.40442 27.2453C5.02567 27.1251 4.66586 27.0049 4.31479 26.8846C4.19097 26.8421 4.06861 26.7996 3.94916 26.7556C3.87486 26.7293 3.80203 26.7029 3.72774 26.6765C3.57915 26.6222 3.43202 26.568 3.28635 26.5138C3.23391 26.4947 3.18292 26.4742 3.13048 26.4551C2.93237 26.3789 2.73571 26.3027 2.54197 26.2235C2.46913 26.1942 2.3963 26.1649 2.32492 26.1355C2.11224 26.049 1.90247 25.9596 1.69707 25.8702C1.68396 25.8643 1.67231 25.8585 1.6592 25.8541C1.65337 25.8511 1.64755 25.8497 1.64318 25.8467C1.61987 25.8379 1.59656 25.8262 1.57325 25.816C1.53684 25.7998 1.50042 25.7837 1.464 25.7676C1.39262 25.7368 1.3227 25.7045 1.25132 25.6723C1.24404 25.6693 1.23821 25.6664 1.23093 25.662C1.20616 25.6518 1.1814 25.64 1.15809 25.6283C1.0299 25.5697 0.90025 25.511 0.773516 25.4495C0.646782 25.3893 0.520048 25.3292 0.393313 25.2677C0.343785 25.2442 0.294257 25.2193 0.246185 25.1944C0.240358 25.1914 0.234531 25.1885 0.230161 25.187C0.681743 28.3096 1.78448 31.2181 3.39415 33.7704M26.2617 18.0858C25.3993 18.8379 24.9346 19.9857 24.5588 21.116C23.2055 25.1973 21.3933 28.4972 19.1646 30.9381C19.0189 31.0979 18.8703 31.2547 18.7203 31.4072C18.6853 31.4439 18.6489 31.4805 18.6125 31.5172C18.4959 31.6344 18.3765 31.7502 18.2556 31.8646C18.0196 32.0904 17.7763 32.3059 17.5316 32.5111C17.4558 32.5756 17.3786 32.6386 17.3014 32.7017C17.1689 32.8087 17.0363 32.9128 16.9008 33.0154C16.5061 33.3144 16.0996 33.5945 15.6845 33.8481C14.9823 34.2761 14.2379 34.6485 13.4673 34.9534C13.3668 34.993 13.2663 35.0311 13.1658 35.0678C13.1323 35.081 13.0973 35.0927 13.0624 35.1059C11.8781 35.5354 10.6442 35.8125 9.38999 35.9298C9.3055 35.9371 9.22101 35.9459 9.13652 35.9518C9.03747 35.9591 8.93841 35.9664 8.83935 35.9723C7.42488 36.0529 6.03372 35.9342 4.695 35.6175C7.23114 38.8515 10.6486 41.3524 14.5846 42.751C14.6356 42.7422 14.6866 42.7334 14.7376 42.7231L14.793 42.7129C16.5658 42.3801 18.2934 41.7834 19.9381 40.9361C19.9643 40.9229 19.9891 40.9112 20.0138 40.8965C20.2775 40.7602 20.5368 40.618 20.7961 40.467C21.5885 40.0111 22.362 39.4906 23.1021 38.9233C23.204 38.8427 23.3075 38.7635 23.4109 38.6814C23.4895 38.6184 23.5682 38.5553 23.6469 38.4908C23.8275 38.3442 24.0038 38.1932 24.1815 38.0378C24.3985 37.8487 24.6127 37.6538 24.8254 37.4529C24.8326 37.4456 24.8399 37.4383 24.8487 37.4309C25.0919 37.2008 25.3308 36.9647 25.5654 36.7229C27.2027 35.034 28.6201 33.0623 29.7491 30.9146C29.9006 30.6273 30.0462 30.337 30.1861 30.0438C30.5313 29.327 30.8431 28.5925 31.1213 27.8434L31.1577 27.7466C31.6093 26.524 31.9691 25.2618 32.2298 23.9908C32.3915 23.2006 32.4717 22.4442 32.4717 21.7464C32.4717 20.9679 32.3711 20.2613 32.1774 19.653C32.0827 19.3568 31.9633 19.0856 31.8234 18.8408C31.7637 18.7353 31.6996 18.6356 31.6326 18.5432C31.5583 18.4391 31.4782 18.3424 31.3922 18.2485C30.7746 17.5815 29.8874 17.2238 28.7512 17.1857C28.7119 17.1857 28.6711 17.1842 28.6318 17.1842C27.7796 17.1842 26.9216 17.5097 26.2602 18.0888M37.4857 14.8152C37.4857 14.8152 37.4711 14.8152 37.4638 14.8152C37.4158 14.8152 37.3691 14.8181 37.3225 14.8211C37.2701 14.824 37.2191 14.8284 37.1667 14.8328C37.155 14.8328 37.1448 14.8357 37.1346 14.8372C37.0836 14.8416 37.0341 14.8475 36.9831 14.8548C36.9263 14.8621 36.8709 14.8709 36.8156 14.8812C36.7631 14.89 36.7092 14.9002 36.6583 14.912C36.6189 14.9193 36.5781 14.9281 36.5403 14.9398C36.5155 14.9457 36.4893 14.9516 36.4645 14.9574C36.4179 14.9691 36.3727 14.9809 36.3276 14.9955C36.2198 15.0263 36.1149 15.0615 36.0115 15.1011C35.9911 15.1084 35.9707 15.1157 35.9503 15.1245C35.8804 15.1524 35.8119 15.1802 35.7434 15.2125C35.6808 15.2404 35.6196 15.2697 35.557 15.3019C35.4958 15.3327 35.4346 15.3664 35.3734 15.4001C35.2831 15.4515 35.1928 15.5057 35.1054 15.5643C35.0165 15.6215 34.9291 15.6831 34.8417 15.749C34.8082 15.774 34.7733 15.8018 34.7398 15.8267C34.7165 15.8458 34.6931 15.8634 34.6713 15.8825C34.6422 15.9059 34.6145 15.9294 34.5868 15.9528C34.5446 15.9895 34.5023 16.0261 34.4615 16.0628C34.4193 16.1009 34.3785 16.1375 34.3377 16.1771C34.3071 16.2064 34.2765 16.2358 34.2474 16.2665C34.1906 16.3222 34.1352 16.3794 34.0799 16.4395C34.0551 16.4644 34.0318 16.4908 34.007 16.5172C33.7652 16.7855 33.5351 17.0831 33.3151 17.4115C33.2903 17.4496 33.2656 17.4862 33.2408 17.5244C33.219 17.5581 33.1971 17.5918 33.1753 17.627C33.1665 17.6402 33.1578 17.6548 33.149 17.6695C33.1272 17.7061 33.1039 17.7428 33.0835 17.7794C33.0733 17.7956 33.0631 17.8132 33.0529 17.8293C33.3573 18.6927 33.5671 19.6017 33.6676 20.5428C33.7099 20.8448 33.7332 21.1483 33.7434 21.4517C33.7477 21.5851 33.7492 21.7185 33.7492 21.8519C33.7477 22.0748 33.739 22.2961 33.7259 22.519C33.7142 22.7066 33.6968 22.8942 33.6764 23.0834C33.6764 23.0936 33.6749 23.1039 33.6735 23.1141C33.6662 23.1772 33.6589 23.2402 33.6501 23.3018C33.6079 23.6404 33.5496 23.9761 33.4812 24.3089C33.4389 24.5127 33.3952 24.715 33.3471 24.9173C33.2452 25.3571 33.133 25.7954 33.0092 26.2323C32.8286 26.8685 32.6246 27.4989 32.3974 28.119L32.3537 28.2275L32.3114 28.3506C32.1526 28.7714 31.9851 29.1877 31.8074 29.5996C31.8074 29.6026 31.8045 29.6055 31.803 29.6084C31.7681 29.6905 31.7316 29.7726 31.6952 29.8547C31.6588 29.9383 31.6209 30.0189 31.5845 30.101C31.5466 30.1846 31.5088 30.2667 31.4694 30.3502C31.2975 30.7167 31.1184 31.0774 30.9305 31.4351C30.8052 31.6755 30.6755 31.913 30.543 32.149C30.4279 32.3542 30.3099 32.558 30.1875 32.7603C29.3397 34.1823 28.3666 35.5164 27.2872 36.7317C27.2741 36.7463 27.261 36.761 27.2479 36.7756C27.0002 37.0542 26.7453 37.3268 26.4875 37.5937C25.8596 38.2372 25.1968 38.8456 24.5122 39.4071C24.4131 39.4877 24.314 39.5683 24.2135 39.6475C24.1247 39.7164 24.0358 39.7868 23.947 39.8557C23.7561 40.0023 23.5653 40.1459 23.3701 40.2837C23.0627 40.5066 22.751 40.7206 22.4349 40.9244C22.4028 40.9464 22.3708 40.9669 22.3387 40.9874C22.0445 41.175 21.7459 41.3554 21.4472 41.5283C20.0706 42.3185 18.4653 42.9929 16.9809 43.4429C16.9751 43.4444 16.9693 43.4459 16.9649 43.4473C18.4595 43.7933 20.0138 43.9839 21.6104 44.0029C21.6992 44.0044 21.7896 44.0059 21.8784 44.0059C21.9673 44.0059 22.0649 44.0059 22.1567 44.0044C33.4943 43.8607 42.7532 35.0384 43.6753 23.8339C43.6825 23.7416 43.6898 23.6507 43.6957 23.5583C43.7015 23.4865 43.7058 23.4132 43.7088 23.3414C43.7131 23.2695 43.7175 23.1977 43.7204 23.1259C43.7248 23.0452 43.7277 22.9631 43.7321 22.8825C43.7364 22.7799 43.7394 22.6773 43.7423 22.5732C43.7423 22.5307 43.7452 22.4882 43.7466 22.4457C43.7466 22.4002 43.7481 22.3533 43.7495 22.3079C43.7495 22.2947 43.7496 22.28 43.7481 22.2668C43.7481 22.2302 43.7452 22.1935 43.7452 22.1569V22.1495C43.7423 22.1041 43.7408 22.0572 43.7394 22.0117C43.7364 21.9692 43.735 21.9252 43.7306 21.8813C43.7277 21.827 43.7248 21.7742 43.719 21.72C43.716 21.6672 43.7117 21.6144 43.7059 21.5617C43.7029 21.5367 43.7015 21.5104 43.6986 21.484C43.6942 21.4327 43.6884 21.3814 43.6811 21.3286C43.6811 21.3212 43.6811 21.3139 43.6782 21.3066C43.6723 21.2523 43.6665 21.201 43.6592 21.1468C43.652 21.0896 43.6447 21.0339 43.6359 20.9767C43.6359 20.9738 43.6359 20.9709 43.6345 20.9679C43.6272 20.9166 43.6199 20.8668 43.6112 20.8155C43.6053 20.7774 43.5995 20.7407 43.5937 20.7041C43.5835 20.6498 43.5747 20.5971 43.5645 20.5443V20.5399L43.5631 20.5369C43.5602 20.5238 43.5587 20.512 43.5558 20.4988C43.5514 20.4768 43.5471 20.4549 43.5427 20.4343C43.5325 20.3816 43.5208 20.3288 43.5092 20.276C43.4655 20.0781 43.416 19.8817 43.3592 19.6881C43.349 19.6515 43.3388 19.6163 43.3286 19.5826C43.314 19.5327 43.298 19.4829 43.2819 19.4345C43.2397 19.2997 43.1916 19.1648 43.1421 19.0299C43.1275 18.9889 43.1115 18.9493 43.0955 18.9097C43.0882 18.8892 43.0809 18.8701 43.0722 18.8511L43.0489 18.791C43.0052 18.6854 42.9586 18.5769 42.9032 18.4597L42.8668 18.379C42.8231 18.2867 42.7765 18.1972 42.7299 18.1078C42.7109 18.0712 42.6905 18.0345 42.6716 17.9993C42.6395 17.9407 42.606 17.8821 42.5711 17.8249C42.5565 17.797 42.5405 17.7721 42.523 17.7443C42.472 17.6607 42.4196 17.5786 42.3657 17.4965C42.3351 17.4496 42.303 17.4041 42.2724 17.3587C42.2695 17.3543 42.2666 17.3499 42.2637 17.3455C42.1967 17.2517 42.1282 17.1579 42.0568 17.0684C41.9112 16.8793 41.7553 16.7019 41.5936 16.5348C41.5776 16.5172 41.5601 16.5011 41.5441 16.4835C41.5368 16.4747 41.5281 16.4674 41.5193 16.4586C41.4873 16.4263 41.4552 16.3941 41.4217 16.3633C41.3882 16.3325 41.3562 16.3003 41.3227 16.2709C41.2906 16.2402 41.2571 16.2108 41.2222 16.1815C41.1508 16.117 41.0779 16.0569 41.0051 15.9983C40.9745 15.9748 40.9454 15.9499 40.9133 15.9279C40.8784 15.9 40.8434 15.8737 40.807 15.8473C40.7356 15.7945 40.6642 15.7447 40.5914 15.6977C40.5593 15.6757 40.5273 15.6567 40.4967 15.6347C40.488 15.6288 40.4778 15.623 40.469 15.6186C40.437 15.5981 40.4035 15.5775 40.37 15.5585C40.268 15.4969 40.1646 15.4397 40.0597 15.387C40.0276 15.3694 39.9956 15.3532 39.9621 15.3386C39.9519 15.3342 39.9417 15.3283 39.9315 15.3239C39.8995 15.3093 39.866 15.2931 39.8339 15.2785C39.8077 15.2667 39.7815 15.255 39.7538 15.2433C39.729 15.233 39.7043 15.2228 39.6795 15.2125C39.6387 15.1949 39.5965 15.1788 39.5557 15.1627C39.5193 15.148 39.4828 15.1348 39.4464 15.1231C39.4013 15.1069 39.3561 15.0923 39.3095 15.0762C39.2614 15.0615 39.2148 15.0468 39.1667 15.0336C39.1318 15.0234 39.0953 15.0131 39.0618 15.0043C39.0327 14.997 39.0021 14.9897 38.9715 14.9823C38.9584 14.9794 38.9453 14.9765 38.9322 14.9735C38.887 14.9633 38.8433 14.953 38.7982 14.9442C38.7647 14.9369 38.7297 14.931 38.6962 14.9237C38.6656 14.9178 38.635 14.912 38.6044 14.9061C38.5636 14.8988 38.5214 14.8914 38.4806 14.8856C38.4311 14.8783 38.3816 14.8709 38.332 14.8636C38.2708 14.8563 38.2082 14.8489 38.147 14.8431C38.0858 14.8372 38.0261 14.8313 37.9664 14.8284C37.9154 14.8255 37.863 14.8225 37.812 14.8211C37.7814 14.8196 37.7523 14.8181 37.7217 14.8181C37.6896 14.8181 37.6576 14.8181 37.627 14.8181C37.5818 14.8181 37.5381 14.8181 37.493 14.8211M5.75549 21.9795C5.75549 23.315 5.91572 24.6138 6.21872 25.8555C6.4314 25.9186 6.64991 25.9816 6.87424 26.0461C6.99369 26.0798 7.1146 26.1135 7.23842 26.1487C7.24279 26.1502 7.24716 26.1517 7.25153 26.1531C7.40303 26.1956 7.55453 26.2382 7.70457 26.2792C8.00611 26.3628 8.3062 26.4434 8.60191 26.524C8.7636 26.5665 8.92384 26.6105 9.08262 26.653C9.18605 26.6809 9.28802 26.7087 9.38999 26.7351C9.95228 26.8861 10.4986 27.0312 11.0346 27.1793C10.2495 25.5755 9.80661 23.7694 9.80661 21.8607C9.80661 15.2096 15.1644 9.81768 21.7735 9.81768C26.3972 9.81768 30.4075 12.4565 32.4003 16.3208C32.779 15.7534 33.1884 15.2653 33.6239 14.8592C34.0624 14.4502 34.5285 14.1247 35.0209 13.8814C35.0704 13.8565 35.1214 13.833 35.171 13.8096C35.2496 13.7729 35.3283 13.7407 35.4084 13.7084C35.4302 13.6996 35.455 13.6893 35.4783 13.682C35.5235 13.6659 35.5686 13.6483 35.6138 13.6322C32.7994 8.93663 27.6805 5.79503 21.8333 5.79503C12.9502 5.79503 5.74966 13.0414 5.74966 21.9795M11.4469 2.63144C11.3697 2.67395 11.2925 2.71647 11.2153 2.75898C11.1381 2.80149 11.0608 2.84547 10.9851 2.88945C4.42113 6.69074 0 13.8183 0 21.9868C0 22.494 0.0160239 22.9969 0.0509851 23.4968C0.0757492 23.5085 0.100513 23.5202 0.125278 23.5334C0.135475 23.5378 0.145672 23.5437 0.155869 23.5481C0.282603 23.6096 0.409337 23.6698 0.536072 23.7299C0.664263 23.79 0.792454 23.8501 0.920645 23.9087C0.943952 23.9204 0.968716 23.9322 0.99348 23.9424C1.00076 23.9468 1.00659 23.9498 1.01387 23.9512C1.08525 23.9835 1.15518 24.0157 1.22655 24.0465C1.26297 24.0626 1.29939 24.0788 1.33581 24.0949C1.35912 24.1051 1.38242 24.1154 1.40427 24.1257C1.40864 24.1286 1.41447 24.1301 1.4203 24.133C1.43341 24.1389 1.44506 24.1447 1.45817 24.1491C1.46691 24.1535 1.47711 24.1579 1.48585 24.1609C1.68396 24.2473 1.88499 24.3324 2.08747 24.4145C2.16031 24.4438 2.23169 24.4731 2.30452 24.5024C2.49827 24.5816 2.69492 24.6578 2.89304 24.7341C2.94402 24.7546 2.99646 24.7736 3.04891 24.7927C3.15525 24.8337 3.26304 24.8733 3.3723 24.9129C3.41163 24.9261 3.4495 24.9408 3.49029 24.9554C3.56313 24.9818 3.63742 25.0082 3.71171 25.0346C3.83262 25.0771 3.95498 25.1211 4.07735 25.1636C4.22448 25.2134 4.3716 25.2647 4.5231 25.3146C4.31771 24.2312 4.20991 23.1127 4.20991 21.9692C4.20991 12.175 12.0995 4.23522 21.8318 4.23522C28.4191 4.23522 34.16 7.87232 37.1841 13.2598C37.3721 13.2408 37.5629 13.232 37.7552 13.232C39.93 13.232 41.8398 14.3754 42.9236 16.0994C41.9389 12.5429 40.0888 9.35004 37.6182 6.76258C37.5658 6.70834 37.5134 6.65409 37.4595 6.59985C37.3619 6.4987 37.2628 6.40048 37.1637 6.30226C33.2131 2.40421 27.8014 0 21.8333 0C18.0749 0 14.538 0.952889 11.4483 2.63144" fill="white"/>
<path d="M64.2645 18.4069C63.5259 17.3983 62.5762 16.7606 61.2841 16.7606C59.992 16.7606 58.8572 17.7164 58.8572 19.0182C58.8572 22.39 66.7453 20.9826 66.7453 27.6998C66.7453 31.7092 64.2645 34.5488 60.2017 34.5488C57.4587 34.5488 55.4528 32.9568 54.0806 30.6464L56.5862 28.1777C57.1149 29.717 58.5119 31.0979 60.1755 31.0979C61.8391 31.0979 62.7335 29.7434 62.7335 28.2041C62.7335 26.1326 60.8339 25.5492 59.2767 24.9393C56.7187 23.8765 54.8454 22.5762 54.8454 19.4697C54.8454 16.1508 57.2985 13.4695 60.6489 13.4695C62.4159 13.4695 64.8705 14.3461 66.0839 15.6992L64.263 18.4069H64.2645Z" fill="white"/>
<path d="M80.9104 34.0183H77.2701V32.8235H77.2162C76.4252 33.8599 75.0529 34.4434 73.7069 34.4434C69.9078 34.4434 67.7446 30.9661 67.7446 27.4345C67.7446 23.903 69.934 20.5576 73.6545 20.5576C74.999 20.5576 76.3713 21.1425 77.2686 22.2039V20.9828H80.9089V34.0183H80.9104ZM77.6386 27.4873C77.6386 25.734 76.4514 23.8502 74.5518 23.8502C72.6523 23.8502 71.4913 25.7355 71.4913 27.4873C71.4913 29.2392 72.6523 31.1508 74.5518 31.1508C76.4514 31.1508 77.6386 29.2392 77.6386 27.4873Z" fill="white"/>
<path d="M87.269 34.0182H83.5747V11.5037H87.269V34.0182Z" fill="white"/>
<path d="M92.8613 28.0972C92.8613 29.742 93.495 31.6009 95.4208 31.6009C96.6342 31.6009 97.399 30.8576 97.9001 29.8226L101.304 30.3797C100.407 32.9818 98.139 34.4419 95.4222 34.4419C91.4119 34.4419 88.9588 31.5759 88.9588 27.6193C88.9588 23.6626 91.0433 20.5562 95.2372 20.5562C99.4311 20.5562 101.385 23.7153 101.385 27.6442V28.0957H92.8628L92.8613 28.0972ZM97.9001 25.7868C97.7165 24.4586 96.8716 23.1583 95.447 23.1583C94.0223 23.1583 93.1512 24.4322 92.9676 25.7868H97.9001Z" fill="white"/>
<path d="M109.745 24.0613C109.217 23.557 108.531 23.1583 107.793 23.1583C107.187 23.1583 106.578 23.6347 106.578 24.2724C106.578 25.2282 107.924 25.4936 109.244 26.0785C110.588 26.662 111.908 27.565 111.908 29.8212C111.908 32.715 109.586 34.4405 106.869 34.4405C105.127 34.4405 103.439 33.6444 102.305 32.2635L103.994 30.0586C104.706 30.8561 105.656 31.573 106.737 31.573C107.555 31.573 108.214 31.0159 108.214 30.1657C108.214 29.0237 106.922 28.7583 105.628 28.2012C104.336 27.6442 103.042 26.8731 103.042 24.7767C103.042 22.3329 104.731 20.5547 107.159 20.5547C108.531 20.5547 110.272 20.9798 111.328 21.9093L109.745 24.0598V24.0613Z" fill="white"/>
<path d="M117.977 34.0182H114.282V24.1155H113.043V20.9827H114.282V17.1594C114.282 13.9738 115.602 11.1855 119.164 11.1855C119.77 11.1855 120.377 11.3175 120.931 11.6092V14.9282C120.457 14.6892 119.981 14.4767 119.427 14.4767C117.792 14.4767 117.977 16.6273 117.977 17.6886V20.9812H120.931V24.114H117.977V34.0168V34.0182Z" fill="white"/>
<path d="M126.603 34.0182H122.909V11.5037H126.603V34.0182Z" fill="white"/>
<path d="M141.931 27.5137C141.931 31.5496 139.188 34.4434 135.125 34.4434C131.062 34.4434 128.318 31.5496 128.318 27.5137C128.318 23.4779 131.088 20.5576 135.125 20.5576C139.162 20.5576 141.931 23.4515 141.931 27.5137ZM132.064 27.5137C132.064 29.267 133.225 31.1508 135.125 31.1508C137.025 31.1508 138.186 29.2656 138.186 27.5137C138.186 25.7619 137.025 23.8502 135.125 23.8502C133.225 23.8502 132.064 25.7091 132.064 27.5137Z" fill="white"/>
<path d="M146.943 32.1593C146.943 33.4596 145.887 34.5488 144.595 34.5488C143.303 34.5488 142.247 33.4596 142.247 32.1593C142.247 30.859 143.302 29.8225 144.595 29.8225C145.889 29.8225 146.943 30.859 146.943 32.1593Z" fill="white"/>
</g>
<defs>
<clipPath id="clip0_115_2800">
<rect width="147" height="44" fill="white"/>
</clipPath>
</defs>
</svg>
