<svg width="32" height="32" viewBox="0 0 32 32" fill="none" xmlns="http://www.w3.org/2000/svg">
<path d="M13.7831 6C14.427 6.25593 15.0793 6.52027 15.7232 6.7762C16.0865 6.92481 16.458 7.065 16.879 7.23011C16.3341 7.44477 15.8388 7.64289 15.3352 7.83277C12.8997 8.7822 10.4725 9.72352 8.03705 10.6729C7.83891 10.7555 7.66553 10.7555 7.46739 10.6729C6.52622 10.2932 5.57679 9.92982 4.56958 9.54179C4.69342 9.49226 4.76773 9.45107 4.84204 9.4263C7.66554 8.32827 10.489 7.23025 13.3125 6.13222C13.4033 6.0992 13.4941 6.04128 13.585 6C13.651 6 13.717 6 13.7748 6H13.7831Z" fill="#0671B8"/>
<path d="M4.03301 10.1611C5.07324 10.5656 6.08046 10.9536 7.07942 11.3499C7.15372 11.3747 7.21154 11.5151 7.21154 11.6059C7.21979 12.3737 7.21154 13.1415 7.21154 13.9093C7.21154 14.2065 7.24452 14.2313 7.53348 14.1487C7.88022 14.0414 8.22698 13.9422 8.57372 13.8266C8.71407 13.7771 8.81318 13.7937 8.92051 13.8928C9.32504 14.2478 9.73783 14.6028 10.1589 14.9413C10.2249 14.9991 10.324 15.0074 10.4065 15.0404C10.4313 14.9579 10.4726 14.8753 10.4726 14.801C10.4726 14.1818 10.4726 13.5543 10.4726 12.9352C10.4726 12.8608 10.4726 12.7782 10.4726 12.6709C11.1826 12.9433 11.8678 13.2075 12.5448 13.4717C12.7842 13.5625 13.1227 13.6039 13.2383 13.7773C13.3621 13.9671 13.2796 14.2891 13.2796 14.5533C13.2796 17.7565 13.2796 20.9597 13.2796 24.163C13.2796 24.2621 13.2796 24.353 13.2796 24.4933C12.8833 24.3447 12.5035 24.1961 12.1237 24.0475C9.53965 23.0403 6.9556 22.0414 4.37152 21.0342C4.04955 20.9103 4 20.8359 4 20.4974C4 17.1208 4 13.7524 4 10.3758C4 10.3097 4.00002 10.2519 4.01653 10.1528L4.03301 10.1611Z" fill="#0671B8"/>
<path d="M14.0886 13.7525C17.1598 12.5637 20.231 11.3665 23.3352 10.1611V15.4615C21.4529 15.5358 19.9421 16.287 18.8771 17.8391C17.8121 19.3912 17.6717 21.0837 18.2826 22.8587C16.8874 23.4036 15.5004 23.9402 14.0886 24.4851V13.7442V13.7525Z" fill="#0671B8"/>
<path d="M18.7037 20.8689C18.7202 18.2765 20.809 16.2292 23.4013 16.2457C25.9606 16.2705 28.0246 18.3591 27.9998 20.9102C27.975 23.486 25.8863 25.5583 23.327 25.5418C20.7594 25.5253 18.6789 23.4282 18.7037 20.8689ZM22.3115 23.4778C22.2537 23.4035 20.4705 22.0991 20.4209 22.0331C20.165 21.7193 20.0577 20.4727 19.8018 20.159C19.6284 19.9443 21.0484 20.0351 20.7677 20.0929C20.2558 20.2002 20.0659 20.7616 20.3961 21.191C20.8172 21.7441 21.2548 22.2807 21.6923 22.8256C22.0721 23.3044 22.4601 23.3291 22.8894 22.8998C23.9132 21.876 24.9369 20.8606 25.9523 19.8369C26.0266 19.7626 26.1009 19.6882 26.1587 19.5974C26.2991 19.3745 26.3073 19.1352 26.1752 18.9123C26.0514 18.6894 27.0338 19.5811 26.7779 19.5728C26.5385 19.5728 26.6293 20.0763 26.4724 20.2414C25.6551 21.067 25.8533 21.8101 25.0277 22.6357C24.9699 22.6935 22.3858 23.4118 22.3115 23.4778Z" fill="#FFB422"/>
<path d="M22.7986 9.54163C22.3528 9.71501 21.9565 9.87193 21.5685 10.0205C19.0257 11.0112 16.4746 12.0018 13.9318 12.9925C13.7667 13.0586 13.6181 13.0668 13.453 12.9925C12.6687 12.6788 11.8844 12.3817 11.0505 12.0597C11.1496 12.0102 11.2074 11.9772 11.2735 11.9525C14.163 10.8297 17.0526 9.69857 19.9504 8.58403C20.0742 8.53449 20.2558 8.53449 20.3796 8.58403C21.0979 8.84821 21.8079 9.12891 22.5179 9.40961C22.6005 9.44263 22.6748 9.47558 22.8069 9.53337L22.7986 9.54163Z" fill="#0671B8"/>
<path d="M23.4838 18.2104C23.5828 18.2187 23.6819 18.227 23.7728 18.2435C24.1525 18.293 24.4993 18.4334 24.813 18.6398C25.2093 18.904 25.5147 19.2507 25.7211 19.68C25.7872 19.8121 25.8285 19.9607 25.878 20.1011C25.9028 20.1754 25.8697 20.2414 25.8037 20.2579C25.7376 20.2744 25.6798 20.2415 25.6468 20.1672C25.5808 20.0021 25.5312 19.8369 25.4569 19.6883C25.234 19.259 24.8955 18.9371 24.4662 18.7141C24.0782 18.5077 23.6571 18.4251 23.2196 18.4664C22.6995 18.5077 22.2454 18.6976 21.8491 19.0443C21.5437 19.3085 21.329 19.6387 21.1969 20.0267C21.2134 20.0267 21.23 20.0184 21.2465 20.0102C21.4446 19.9194 21.6345 19.8287 21.8326 19.7461C21.9234 19.7048 22.006 19.746 22.0225 19.8286C22.0225 19.8864 21.9977 19.936 21.9317 19.9608C21.717 20.0599 21.5024 20.1588 21.2877 20.2496C21.2052 20.2909 21.1226 20.324 21.0318 20.3653C20.941 20.4066 20.875 20.3818 20.8337 20.2909C20.7098 19.9772 20.586 19.6718 20.4622 19.3581C20.4291 19.2838 20.4622 19.2176 20.52 19.1846C20.586 19.1598 20.6521 19.1847 20.6851 19.2672C20.7676 19.4736 20.8502 19.68 20.9327 19.8864C20.9327 19.9029 20.9492 19.9195 20.9575 19.936C21.0235 19.7956 21.0813 19.647 21.1639 19.5149C21.5106 18.904 22.0307 18.4995 22.716 18.3096C22.8894 18.2601 23.0793 18.2517 23.2526 18.2187C23.2691 18.2187 23.2857 18.2187 23.3104 18.2104C23.3682 18.2104 23.4342 18.2104 23.492 18.2104H23.4838Z" fill="white" stroke="white" stroke-width="0.15" stroke-miterlimit="10"/>
<path d="M26.2494 22.5366C26.1998 22.6191 26.142 22.644 26.0842 22.6109C26.0512 22.5944 26.0182 22.553 26.0016 22.5118C25.9191 22.3136 25.8365 22.1155 25.7622 21.9174C25.7622 21.9009 25.7458 21.8845 25.7375 21.8597C25.7045 21.9423 25.6715 22.0247 25.6384 22.099C25.3577 22.7016 24.9119 23.131 24.3009 23.3869C23.9459 23.5355 23.5744 23.6016 23.1947 23.5851C22.6663 23.5603 22.1792 23.3953 21.7582 23.0733C21.3949 22.8009 21.1224 22.4624 20.9491 22.0496C20.8995 21.934 20.8583 21.81 20.8253 21.6862C20.8087 21.6201 20.8417 21.5624 20.9078 21.5459C20.9656 21.5294 21.0234 21.5625 21.0564 21.6203C21.0564 21.6368 21.0647 21.6531 21.0729 21.6696C21.1307 21.8183 21.1802 21.9751 21.2545 22.1155C21.5105 22.6108 21.9068 22.9576 22.4186 23.1723C22.7654 23.3209 23.1286 23.3786 23.5001 23.3456C24.2927 23.2713 24.9037 22.8999 25.3247 22.2147C25.4073 22.0826 25.4651 21.934 25.5311 21.7936H25.5146C25.5146 21.7936 25.4815 21.7936 25.4568 21.8019C25.2669 21.8927 25.0687 21.9753 24.8789 22.0661C24.8458 22.0826 24.7963 22.0907 24.7715 22.0742C24.7385 22.0577 24.6973 22.0165 24.6973 21.9835C24.6973 21.9505 24.7138 21.9091 24.7385 21.876C24.7468 21.8595 24.7798 21.8514 24.8046 21.8432C25.0935 21.7111 25.3825 21.579 25.6714 21.4469C25.787 21.3974 25.8448 21.4138 25.8861 21.5376C26.0099 21.8514 26.142 22.1732 26.2658 22.487V22.5448L26.2494 22.5366Z" fill="white" stroke="white" stroke-width="0.15" stroke-miterlimit="10"/>
</svg>
