<svg width="32" height="32" viewBox="0 0 32 32" fill="none" xmlns="http://www.w3.org/2000/svg">
<path d="M13.7713 6.00817C14.4162 6.26939 15.0693 6.53058 15.7142 6.7918C16.0815 6.93874 16.4488 7.07756 16.8733 7.24082C16.3264 7.45306 15.8284 7.64897 15.3305 7.84489C12.8978 8.79182 10.457 9.73873 8.02441 10.6857C7.82033 10.7673 7.65705 10.7673 7.45297 10.6857C6.51421 10.3102 5.55912 9.9429 4.55505 9.55106C4.6775 9.50208 4.75098 9.46116 4.82445 9.43667C7.64891 8.33464 10.4815 7.24094 13.306 6.13891C13.404 6.09809 13.4856 6.04898 13.5835 6C13.6488 6 13.7141 6 13.7794 6L13.7713 6.00817Z" fill="#0671B8"/>
<path d="M4.00817 10.1797C5.0449 10.5797 6.05712 10.9715 7.06119 11.3715C7.13466 11.396 7.19179 11.543 7.19995 11.6328C7.20812 12.4001 7.19995 13.1673 7.19995 13.9346C7.19995 14.2367 7.23263 14.2612 7.5265 14.1714C7.87752 14.0653 8.22039 13.9674 8.56324 13.8449C8.70201 13.796 8.79997 13.8124 8.91425 13.9103C9.32241 14.2695 9.73058 14.6203 10.1469 14.9632C10.2122 15.0203 10.3102 15.0286 10.4 15.0613C10.4244 14.9796 10.4652 14.8979 10.4652 14.8163C10.4652 14.1959 10.4652 13.5755 10.4652 12.9469C10.4652 12.8653 10.4652 12.792 10.4652 12.6858C11.1754 12.9634 11.8612 13.2246 12.5387 13.494C12.7754 13.5838 13.1101 13.6245 13.2326 13.8041C13.355 13.9918 13.2815 14.3183 13.2815 14.5796C13.2815 17.7877 13.2815 20.9958 13.2815 24.1958C13.2815 24.2938 13.2815 24.3918 13.2815 24.5225C12.8815 24.3673 12.5061 24.2285 12.1305 24.0816C9.54282 23.0775 6.95509 22.0733 4.37552 21.0692C4.05716 20.9468 4 20.8734 4 20.5305C4 17.151 4 13.7797 4 10.4001C4 10.3348 4.00002 10.2776 4.01634 10.1797H4.00817Z" fill="#0671B8"/>
<path d="M14.0734 13.7713C17.1427 12.5795 20.2202 11.3795 23.3304 10.1714V15.4775C21.4447 15.5509 19.9264 16.31 18.8651 17.861C17.8039 19.412 17.6651 21.1101 18.2692 22.8897C16.8733 23.4285 15.4856 23.9754 14.0734 24.5223V13.7713Z" fill="#0671B8"/>
<path d="M18.6937 20.8981C18.71 18.3022 20.7998 16.2533 23.3957 16.2696C25.9589 16.2941 28.0242 18.3839 27.9997 20.9389C27.9753 23.5185 25.8854 25.5919 23.3222 25.5756C20.7508 25.5592 18.6692 23.4613 18.6937 20.8981ZM22.3018 23.5105C22.2365 23.437 20.457 22.1309 20.408 22.0656C20.1549 21.7472 20.0406 20.5064 19.7876 20.188C19.608 19.9676 21.0284 20.0655 20.7508 20.1226C20.2447 20.2287 20.0488 20.7921 20.3753 21.2247C20.7998 21.7717 21.2406 22.3104 21.6733 22.8574C22.0488 23.3308 22.4406 23.3552 22.8732 22.9307C23.8936 21.9103 24.9222 20.8899 25.9426 19.8613C26.0161 19.7879 26.0895 19.7146 26.1467 19.6248C26.2855 19.4044 26.2936 19.1676 26.163 18.939C26.0406 18.7186 27.0202 19.6084 26.7671 19.6003C26.5304 19.6003 26.6202 20.1062 26.4651 20.2695C25.6406 21.094 25.8446 21.837 25.0202 22.6615C24.9549 22.7268 22.3753 23.437 22.3018 23.5105Z" fill="#FFB422"/>
<path d="M22.7916 9.5512C22.3426 9.72263 21.9508 9.8778 21.559 10.0329C19.0121 11.0206 16.4652 12.0165 13.9182 13.0042C13.7468 13.0695 13.608 13.0777 13.4366 13.0042C12.6529 12.6858 11.8611 12.3921 11.0284 12.0655C11.1264 12.0165 11.1836 11.9838 11.2489 11.9593C14.1386 10.8328 17.0366 9.70636 19.9345 8.588C20.0569 8.53902 20.2365 8.53902 20.3671 8.588C21.0855 8.84923 21.7957 9.13494 22.514 9.41249C22.5957 9.44515 22.6692 9.47772 22.7998 9.53486L22.7916 9.5512Z" fill="#0671B8"/>
<path d="M21.2896 18.1304H24.3263C24.4243 18.1712 24.4488 18.2528 24.4488 18.3508C24.4488 19.7467 24.4488 21.1425 24.4488 22.5384C24.4488 22.6772 24.3917 22.7425 24.2447 22.7425C23.2896 22.7425 22.3345 22.7425 21.3794 22.7425C21.2325 22.7425 21.1754 22.6853 21.1754 22.5384C21.1754 21.1425 21.1754 19.7467 21.1754 18.359C21.1754 18.261 21.1998 18.1794 21.2978 18.1385L21.2896 18.1304ZM22.7998 19.9426C23.1263 19.9426 23.4447 19.9426 23.7712 19.9426C23.8365 19.9426 23.8937 19.918 23.9263 19.8609C23.959 19.8119 23.959 19.7548 23.9263 19.6976C23.8937 19.6405 23.8447 19.608 23.7712 19.608C23.5019 19.608 23.2243 19.608 22.9549 19.608C22.5794 19.608 22.2039 19.608 21.8284 19.608C21.7549 19.608 21.6978 19.6323 21.6651 19.7058C21.6161 19.8201 21.6978 19.9344 21.8202 19.9344C22.1386 19.9344 22.4651 19.9344 22.7835 19.9344L22.7998 19.9426ZM22.7998 20.5957C23.1263 20.5957 23.4447 20.5957 23.7712 20.5957C23.8447 20.5957 23.9018 20.5711 23.9345 20.4976C23.9916 20.3833 23.91 20.2608 23.7794 20.2608C23.5018 20.2608 23.2161 20.2608 22.9386 20.2608C22.5712 20.2608 22.2039 20.2608 21.8366 20.2608C21.7631 20.2608 21.7059 20.2936 21.6733 20.3589C21.6243 20.4732 21.706 20.5875 21.8366 20.5875C22.1549 20.5875 22.4815 20.5875 22.7998 20.5875V20.5957ZM22.808 20.9221C22.4815 20.9221 22.1631 20.9221 21.8366 20.9221C21.7631 20.9221 21.6978 20.9549 21.6733 21.0202C21.6243 21.1345 21.706 21.2488 21.8366 21.2488C22.1876 21.2488 22.5468 21.2488 22.8978 21.2488C23.1916 21.2488 23.4774 21.2488 23.7712 21.2488C23.8447 21.2488 23.9018 21.2242 23.9345 21.1589C23.9916 21.0446 23.91 20.9221 23.7794 20.9221C23.461 20.9221 23.1345 20.9221 22.8161 20.9221H22.808ZM22.31 18.9549C22.1549 18.9549 21.9998 18.9549 21.8447 18.9549C21.7304 18.9549 21.657 19.0201 21.657 19.1181C21.657 19.216 21.7304 19.2813 21.8447 19.2813C22.1549 19.2813 22.4733 19.2813 22.7835 19.2813C22.8896 19.2813 22.9712 19.216 22.963 19.1181C22.963 19.0201 22.8896 18.9549 22.7835 18.9549C22.6284 18.9549 22.4651 18.9549 22.31 18.9549ZM23.461 21.5752C23.3549 21.5752 23.2488 21.5752 23.1427 21.5752C23.0447 21.5752 22.9712 21.6486 22.9712 21.7384C22.9712 21.8282 23.0447 21.9017 23.1427 21.9017C23.3549 21.9017 23.5671 21.9017 23.7794 21.9017C23.8773 21.9017 23.9508 21.8282 23.9508 21.7384C23.9508 21.6486 23.8773 21.5752 23.7794 21.5752C23.6732 21.5752 23.5672 21.5752 23.461 21.5752Z" fill="white"/>
<path d="M25.4284 19.2407V23.5999C25.3875 23.6733 25.3386 23.7222 25.2488 23.7222C24.2774 23.7222 23.2978 23.7222 22.3264 23.7222C22.2202 23.7222 22.1549 23.657 22.1549 23.5508C22.1549 23.4039 22.1549 23.2569 22.1549 23.11C22.1549 23.1018 22.1549 23.0857 22.1549 23.0693C22.1794 23.0693 22.2039 23.0693 22.2202 23.0693C22.8978 23.0693 23.5672 23.0693 24.2447 23.0693C24.2937 23.0693 24.3508 23.0693 24.3998 23.053C24.6202 22.9959 24.7672 22.7999 24.7672 22.555C24.7672 21.4366 24.7672 20.3102 24.7672 19.1918C24.7672 19.1673 24.7672 19.151 24.7672 19.1265C24.9141 19.1265 25.061 19.1265 25.1998 19.1265C25.2977 19.1265 25.3794 19.1509 25.4202 19.2488L25.4284 19.2407Z" fill="white"/>
<path d="M22.7998 19.9427C22.4814 19.9427 22.1549 19.9427 21.8365 19.9427C21.7059 19.9427 21.6243 19.8202 21.6814 19.7141C21.7141 19.6488 21.7712 19.6162 21.8446 19.6162C22.2202 19.6162 22.5957 19.6162 22.9712 19.6162C23.2406 19.6162 23.5181 19.6162 23.7875 19.6162C23.8528 19.6162 23.9099 19.6406 23.9426 19.7059C23.9752 19.763 23.9671 19.812 23.9426 19.8691C23.9099 19.9263 23.8528 19.9508 23.7875 19.9508C23.461 19.9508 23.1426 19.9508 22.8161 19.9508L22.7998 19.9427Z" fill="#FFB422"/>
<path d="M22.7998 20.5957C22.4815 20.5957 22.1549 20.5957 21.8366 20.5957C21.706 20.5957 21.6243 20.4732 21.6733 20.3671C21.706 20.3018 21.7631 20.269 21.8366 20.269C22.2039 20.269 22.5712 20.269 22.9386 20.269C23.2161 20.269 23.5018 20.269 23.7794 20.269C23.91 20.269 23.9916 20.3915 23.9345 20.5058C23.9018 20.5711 23.8447 20.6039 23.7712 20.6039C23.4447 20.6039 23.1264 20.6039 22.7998 20.6039V20.5957Z" fill="#FFB422"/>
<path d="M22.808 20.9224C23.1264 20.9224 23.4529 20.9224 23.7712 20.9224C23.9018 20.9224 23.9835 21.0448 23.9263 21.1591C23.8937 21.2244 23.8365 21.249 23.7631 21.249C23.4692 21.249 23.1835 21.249 22.8896 21.249C22.5386 21.249 22.1794 21.249 21.8284 21.249C21.6978 21.249 21.6161 21.1347 21.6651 21.0204C21.6978 20.9469 21.7549 20.9224 21.8284 20.9224C22.1549 20.9224 22.4733 20.9224 22.7998 20.9224H22.808Z" fill="#FFB422"/>
<path d="M22.31 18.9629C22.4651 18.9629 22.6283 18.9629 22.7834 18.9629C22.8896 18.9629 22.963 19.0282 22.963 19.1261C22.963 19.2241 22.8896 19.2893 22.7834 19.2893C22.4732 19.2893 22.1549 19.2893 21.8447 19.2893C21.7385 19.2893 21.6569 19.2241 21.6569 19.1261C21.6569 19.0282 21.7304 18.9629 21.8447 18.9629C21.9998 18.9629 22.1549 18.9629 22.31 18.9629Z" fill="#FFB422"/>
<path d="M23.461 21.5835C23.5671 21.5835 23.6732 21.5835 23.7793 21.5835C23.8773 21.5835 23.9508 21.6488 23.9508 21.7467C23.9508 21.8365 23.8773 21.9099 23.7793 21.9099C23.5671 21.9099 23.3549 21.9099 23.1426 21.9099C23.0447 21.9099 22.9712 21.8365 22.9712 21.7467C22.9712 21.6569 23.0447 21.5835 23.1426 21.5835C23.2488 21.5835 23.3549 21.5835 23.461 21.5835Z" fill="#FFB422"/>
</svg>
