<svg width="32" height="32" viewBox="0 0 32 32" fill="none" xmlns="http://www.w3.org/2000/svg">
<path d="M8 24.5403V6C12.413 6 16.8259 6 21.2463 6C21.305 6.08811 21.4151 6.16877 21.4225 6.25689C21.4372 6.71213 21.4298 7.16748 21.4298 7.64476H21.1728C18.7497 7.64476 16.3193 7.64476 13.8962 7.64476C12.7801 7.64476 11.6714 7.64476 10.5553 7.64476C10.1441 7.64476 9.80631 7.88712 9.70351 8.25426C9.6668 8.39377 9.66681 8.55521 9.66681 8.70206C9.66681 13.9668 9.66681 19.2315 9.66681 24.4962V24.79C9.23359 24.79 8.82974 24.7827 8.42589 24.79C8.22029 24.79 8.08812 24.7239 8.00735 24.5403H8Z" fill="#0671B8"/>
<path d="M21.4299 8.22464C21.4299 8.511 21.4299 8.78994 21.4299 9.06162C21.4299 9.58295 21.4299 10.1044 21.4299 10.6184C21.4299 11.2498 21.7677 11.5801 22.3918 11.5801C23.1848 11.5801 23.9778 11.5801 24.7929 11.5801C24.7929 11.6609 24.8002 11.7344 24.8002 11.8078C24.8002 16.7274 24.8002 21.6544 24.8002 26.574C24.8002 26.9191 24.7194 26.9998 24.3817 26.9998C19.7998 26.9998 15.2253 26.9998 10.6435 26.9998C10.3131 26.9998 10.2323 26.9191 10.2323 26.5887C10.2323 20.5971 10.2323 14.6128 10.2323 8.62117C10.2323 8.31278 10.3204 8.21729 10.6141 8.21729C14.1606 8.21729 17.7071 8.21729 21.2537 8.21729C21.2977 8.21729 21.3492 8.21729 21.4299 8.22464ZM11.9285 12.4173C11.9285 13.8344 13.0739 14.9872 14.4911 14.9872C15.9082 14.9872 17.061 13.8418 17.061 12.4246C17.061 10.9928 15.9156 9.84734 14.4837 9.84734C13.0666 9.84734 11.9211 10.9928 11.9211 12.4173H11.9285ZM17.5309 16.1693C16.8921 16.1693 16.246 16.1693 15.6072 16.1693C14.6967 16.1693 13.7935 16.1693 12.883 16.1693C12.6848 16.1693 12.5526 16.2942 12.5599 16.4631C12.5599 16.6247 12.6921 16.7347 12.8757 16.7421C12.9197 16.7421 12.9564 16.7421 13.0005 16.7421C16.011 16.7421 19.0215 16.7421 22.0393 16.7421C22.1054 16.7421 22.1789 16.7494 22.245 16.7347C22.3918 16.698 22.4873 16.6026 22.4799 16.4484C22.4799 16.2869 22.3845 16.1987 22.2303 16.1767C22.1642 16.1693 22.0908 16.1767 22.0247 16.1767C20.5268 16.1767 19.0362 16.1767 17.5383 16.1767L17.5309 16.1693ZM17.5163 18.7539C19.0215 18.7539 20.5194 18.7539 22.0247 18.7539C22.0908 18.7539 22.1642 18.7613 22.2303 18.7539C22.3918 18.7246 22.4873 18.6218 22.4799 18.453C22.4726 18.2988 22.3771 18.2032 22.2156 18.1885C22.1642 18.1885 22.1054 18.1885 22.054 18.1885C19.0362 18.1885 16.0183 18.1885 13.0005 18.1885C12.9417 18.1885 12.8757 18.1885 12.8169 18.1885C12.6627 18.2106 12.5746 18.3135 12.5673 18.4677C12.5673 18.6145 12.6481 18.7099 12.7876 18.7466C12.8536 18.7613 12.9197 18.7539 12.9932 18.7539C14.5058 18.7539 16.011 18.7539 17.5236 18.7539H17.5163ZM17.5163 20.1933C16.011 20.1933 14.5131 20.1933 13.0078 20.1933C12.9418 20.1933 12.8683 20.1933 12.8022 20.1933C12.648 20.2153 12.5599 20.318 12.5526 20.4722C12.5526 20.6191 12.6334 20.7146 12.7802 20.7513C12.8463 20.766 12.9124 20.7585 12.9858 20.7585C16.0037 20.7585 19.0215 20.7585 22.0393 20.7585C22.0981 20.7585 22.1642 20.7585 22.2229 20.7585C22.3844 20.7218 22.4799 20.6264 22.4652 20.4575C22.4579 20.3033 22.3551 20.2079 22.2009 20.1933C22.1348 20.1933 22.0614 20.1933 21.9953 20.1933C20.4974 20.1933 19.0068 20.1933 17.5089 20.1933H17.5163ZM17.5309 22.2052C16.0257 22.2052 14.5278 22.2052 13.0225 22.2052C12.9564 22.2052 12.883 22.2052 12.8169 22.2052C12.648 22.2272 12.5526 22.3226 12.5526 22.4914C12.5526 22.6456 12.648 22.7412 12.8022 22.7706C12.861 22.7852 12.9271 22.7706 12.9858 22.7706C16.0037 22.7706 19.0215 22.7706 22.0393 22.7706C22.1054 22.7706 22.1789 22.7779 22.245 22.7632C22.3918 22.7192 22.4799 22.6236 22.4652 22.462C22.4505 22.3152 22.3624 22.2272 22.2229 22.2052C22.1568 22.1978 22.0834 22.2052 22.0173 22.2052C20.5194 22.2052 19.0288 22.2052 17.5309 22.2052ZM20.5635 12.1529C20.0421 12.1529 19.5282 12.1529 19.0068 12.1529C18.7645 12.1529 18.647 12.2558 18.647 12.4467C18.647 12.6303 18.7719 12.7256 18.9995 12.7256C20.0275 12.7256 21.0628 12.7256 22.0907 12.7256C22.3257 12.7256 22.4579 12.6229 22.4579 12.4393C22.4579 12.2558 22.3331 12.1529 22.0907 12.1529C21.5768 12.1529 21.0628 12.1529 20.5561 12.1529H20.5635ZM20.5561 14.1648C20.0422 14.1648 19.5282 14.1648 19.0215 14.1648C18.7719 14.1648 18.6544 14.2603 18.6544 14.4512C18.6544 14.6421 18.7718 14.7449 19.0142 14.7449C20.0421 14.7449 21.0775 14.7449 22.1054 14.7449C22.3404 14.7449 22.4726 14.6348 22.4652 14.4512C22.4652 14.275 22.3331 14.1721 22.1054 14.1721C21.5841 14.1721 21.0701 14.1721 20.5488 14.1721L20.5561 14.1648ZM20.5855 24.217C20.0568 24.217 19.5355 24.217 19.0068 24.217C18.7719 24.217 18.6544 24.3124 18.6544 24.496C18.6544 24.6869 18.7718 24.7896 19.0142 24.797C20.0421 24.797 21.0775 24.797 22.1054 24.797C22.3404 24.797 22.4726 24.6869 22.4726 24.5107C22.4726 24.3271 22.3478 24.2244 22.1054 24.2244C21.5988 24.2244 21.0921 24.2244 20.5855 24.2244V24.217Z" fill="#0671B8"/>
<path d="M24.7781 11.0078C24.5211 11.0078 24.2715 11.0078 24.0218 11.0078C23.4638 11.0078 22.8984 11.0078 22.3403 11.0078C22.1127 11.0078 22.0099 10.9122 22.0026 10.6846C22.0026 9.89156 22.0026 9.09856 22.0026 8.30555C22.0026 8.27618 22.0173 8.25426 22.0173 8.23223C22.2669 8.17349 22.4504 8.24693 22.6267 8.4305C23.2802 9.09868 23.941 9.7595 24.6092 10.4203C24.7854 10.5892 24.8222 10.7728 24.7708 11.0151L24.7781 11.0078Z" fill="#0671B8"/>
<path d="M14.4983 14.5615C15.6824 14.5615 16.6424 13.6016 16.6424 12.4174C16.6424 11.2333 15.6824 10.2734 14.4983 10.2734C13.3142 10.2734 12.3542 11.2333 12.3542 12.4174C12.3542 13.6016 13.3142 14.5615 14.4983 14.5615Z" fill="#FFB422"/>
<path d="M13.3308 11.3086H14.0724C14.0724 11.5142 14.0724 11.7272 14.0724 11.9328C14.0724 12.0062 14.1311 12.0649 14.2193 12.0208C14.3 11.9768 14.3808 11.9401 14.4616 11.896C14.4763 11.8887 14.4909 11.8887 14.5056 11.896C14.5864 11.9401 14.6672 11.9768 14.7479 12.0208C14.836 12.0722 14.8948 12.0062 14.8948 11.9328C14.8948 11.7272 14.8948 11.5142 14.8948 11.3086H15.6364C15.6878 11.3306 15.7025 11.3673 15.7025 11.426C15.7025 11.7197 15.7025 12.0136 15.7025 12.3073C15.7025 12.322 15.7025 13.717 15.7025 13.7317C15.2326 13.7317 15.306 13.7317 14.9756 13.7317C14.8948 13.7317 14.9242 13.7317 14.3147 13.7317C14.3074 13.7317 14.2927 13.7317 14.2853 13.7317C13.9916 13.7317 13.6979 13.7317 13.3969 13.7317C13.3161 13.7317 13.2867 13.7022 13.2867 13.6215C13.2867 12.8872 13.2867 12.1603 13.2867 11.426C13.2867 11.3746 13.3014 11.3306 13.3528 11.3086H13.3308Z" fill="white"/>
<path d="M14.7113 11.3086V11.8152C14.6672 11.7932 14.6232 11.7713 14.5791 11.7492C14.469 11.6905 14.4837 11.6905 14.3735 11.7492C14.3295 11.7713 14.2854 11.7932 14.2413 11.8152V11.3086H14.7113Z" fill="white"/>
</svg>
