<svg width="32" height="32" viewBox="0 0 32 32" fill="none" xmlns="http://www.w3.org/2000/svg">
<path d="M5.45582 6.00815H11.0151C11.0151 7.57908 11.0395 9.15819 11.007 10.7291C10.9988 11.2989 11.4709 11.7466 12.0977 11.3885C12.6919 11.0548 13.3105 10.7697 13.9209 10.4523C14.0349 10.3953 14.1244 10.3953 14.2303 10.4523C14.8326 10.7697 15.4593 11.0548 16.0535 11.3885C16.6965 11.7548 17.1523 11.2826 17.1442 10.7291C17.1116 9.15819 17.1361 7.58722 17.1361 6.00815H22.6954C23.0617 6.17908 23.1756 6.47215 23.1675 6.87099C23.1512 9.06866 23.1675 11.2744 23.1675 13.472C23.1675 13.5534 23.1675 13.643 23.1675 13.7244C19.9198 12.6174 16.9651 13.0977 14.5233 15.5314C12.0896 17.9732 11.6175 20.928 12.7163 24.1675C12.6349 24.1675 12.5616 24.1675 12.4802 24.1675C10.2581 24.1675 8.03605 24.1675 5.81395 24.1675C5.22791 24.1675 5 23.9478 5 23.3536C5 17.8594 5 12.357 5 6.86284C5 6.464 5.10582 6.17093 5.4721 6L5.45582 6.00815Z" fill="#0671B8" stroke="#0671B8" stroke-width="0.187535" stroke-miterlimit="10"/>
<path d="M17.1279 6.0083C17.1279 7.57923 17.1035 9.15834 17.136 10.7293C17.1442 11.2828 16.6965 11.7549 16.0453 11.3886C15.4511 11.0549 14.8325 10.7699 14.2221 10.4525C14.1081 10.3955 14.0186 10.3955 13.9128 10.4525C13.3104 10.7699 12.6837 11.0549 12.0895 11.3886C11.4628 11.7468 10.9825 11.299 10.9988 10.7293C11.0314 9.15834 11.007 7.58737 11.007 6.0083H12.293V9.83385C12.643 9.65478 12.9686 9.50024 13.286 9.33745C14.1081 8.92233 14.0023 8.89791 14.8488 9.33745C15.1663 9.50024 15.4918 9.66292 15.8418 9.84199V6.01645H17.1279V6.0083Z" fill="white"/>
<path d="M15.8419 6.00815V9.83369C15.4919 9.65462 15.1663 9.50008 14.8489 9.32915C14.0024 8.88961 14.1082 8.91403 13.2861 9.32915C12.9687 9.49194 12.6431 9.65462 12.2931 9.82555V6H15.8419V6.00815Z" fill="#0671B8" stroke="#0671B8" stroke-width="0.187535" stroke-miterlimit="10"/>
<path d="M25.9957 20.4612V21.3888C25.981 21.4845 25.9589 21.5801 25.9515 21.6684C25.4951 25.1946 22.153 27.5872 18.6783 26.8657C15.5275 26.2106 13.4369 23.1996 13.908 20.0121C14.3865 16.7583 17.3974 14.4836 20.6807 14.8884C23.1026 15.1903 25.1197 16.9202 25.7675 19.2685C25.8779 19.6587 25.9221 20.0637 26.0031 20.4538L25.9957 20.4612ZM19.1642 20.1373C19.2378 20.1226 19.2451 20.1152 19.2599 20.1152C19.7457 20.1152 20.2242 20.1152 20.7101 20.1152C21.3874 20.1152 21.8585 20.579 21.8659 21.2268C21.8659 21.8526 21.38 22.3163 20.7175 22.3163C19.8709 22.3163 19.0317 22.3163 18.1851 22.3163C18.1115 22.3163 18.0305 22.3164 17.9569 22.3311C17.6698 22.3973 17.4784 22.6549 17.5004 22.942C17.5225 23.2438 17.7728 23.4722 18.082 23.4722C18.958 23.4722 19.8341 23.4722 20.7101 23.4722C20.8573 23.4722 21.0046 23.4574 21.1518 23.4353C22.2266 23.2734 23.0216 22.3237 23.0216 21.19C23.0216 20.1078 22.2119 19.1214 21.1518 18.9963C20.5776 18.93 19.996 18.9594 19.4145 18.952C19.3482 18.952 19.2819 18.952 19.2157 18.952C19.2083 18.9373 19.201 18.9152 19.1936 18.9005C19.2967 18.8121 19.3997 18.7312 19.4954 18.6282C19.731 18.3779 19.7384 18.0244 19.5102 17.7962C19.282 17.568 18.9286 17.568 18.6783 17.811C18.244 18.2379 17.8096 18.6723 17.3827 19.1066C17.1324 19.3643 17.125 19.6956 17.3827 19.9533C17.817 20.395 18.2513 20.8294 18.693 21.2637C18.9286 21.4993 19.2893 21.4919 19.5102 21.2784C19.7384 21.0502 19.7384 20.6968 19.5102 20.4465C19.4145 20.3434 19.304 20.2551 19.1789 20.13L19.1642 20.1373Z" fill="#FFB422"/>
<path d="M19.1569 20.13C19.2894 20.2552 19.3925 20.3435 19.4882 20.4465C19.7238 20.6968 19.7238 21.0577 19.4882 21.2785C19.2673 21.4993 18.9066 21.4993 18.6711 21.2638C18.2294 20.8294 17.7877 20.3951 17.3607 19.9534C17.1104 19.6957 17.1104 19.3643 17.3607 19.1067C17.7877 18.6724 18.222 18.238 18.6563 17.811C18.8993 17.5681 19.26 17.5681 19.4882 17.7963C19.7164 18.0245 19.709 18.378 19.4735 18.6283C19.3778 18.724 19.2747 18.8048 19.1716 18.9005C19.179 18.9153 19.1864 18.9374 19.1937 18.9521C19.26 18.9521 19.3262 18.9521 19.3925 18.9521C19.9741 18.9668 20.5556 18.9301 21.1298 18.9963C22.1973 19.1215 23.007 20.1079 22.9997 21.1901C22.9997 22.3238 22.2046 23.2734 21.1298 23.4354C20.9826 23.4575 20.8354 23.4722 20.6881 23.4722C19.8121 23.4722 18.9361 23.4722 18.0601 23.4722C17.7435 23.4722 17.5006 23.2365 17.4785 22.942C17.4564 22.6623 17.6478 22.3974 17.9349 22.3312C18.0085 22.3164 18.0895 22.3164 18.1631 22.3164C19.0097 22.3164 19.8489 22.3164 20.6955 22.3164C21.358 22.3164 21.8439 21.8527 21.8439 21.2269C21.8439 20.5791 21.3654 20.1227 20.6881 20.1153C20.2023 20.1153 19.7238 20.1153 19.2379 20.1153C19.2232 20.1153 19.2158 20.1153 19.1422 20.1374L19.1569 20.13Z" fill="white"/>
</svg>
