<svg width="32" height="32" viewBox="0 0 32 32" fill="none" xmlns="http://www.w3.org/2000/svg">
<path d="M27.0213 21.6959V22.449C27.0052 22.5291 26.9972 22.6012 26.9812 22.6813C26.6127 25.5414 23.9048 27.4802 21.0847 26.8954C18.5371 26.3666 16.8306 23.923 17.2152 21.3353C17.6078 18.6995 20.0432 16.8569 22.703 17.1854C24.6659 17.4257 26.3002 18.8277 26.829 20.7344C26.9171 21.0468 26.9572 21.3755 27.0213 21.6959ZM21.4853 21.4315C21.5414 21.4155 21.5574 21.4154 21.5654 21.4154C21.958 21.4154 22.3506 21.4154 22.7431 21.4154C23.2879 21.4154 23.6724 21.7921 23.6804 22.3128C23.6804 22.8256 23.2879 23.194 22.7511 23.202C22.0702 23.202 21.3811 23.202 20.7002 23.202C20.6361 23.202 20.572 23.202 20.5159 23.218C20.2836 23.2741 20.1314 23.4825 20.1474 23.7148C20.1714 23.9552 20.3637 24.1473 20.6201 24.1473C21.3331 24.1473 22.0381 24.1473 22.7511 24.1473C22.8713 24.1473 22.9915 24.1394 23.1116 24.1154C23.9849 23.9872 24.6258 23.2101 24.6258 22.2968C24.6258 21.4155 23.9689 20.6224 23.1036 20.5183C22.639 20.4622 22.1663 20.4942 21.6936 20.4782C21.6375 20.4782 21.5895 20.4782 21.5334 20.4782C21.5334 20.4621 21.5174 20.4461 21.5174 20.43C21.5975 20.3579 21.6856 20.2938 21.7577 20.2137C21.95 20.0134 21.95 19.7249 21.7737 19.5407C21.5895 19.3564 21.301 19.3564 21.1007 19.5567C20.7482 19.9012 20.3957 20.2538 20.0512 20.6063C19.8429 20.8146 19.8429 21.079 20.0512 21.2873C20.4037 21.6478 20.7563 22.0002 21.1168 22.3527C21.3091 22.545 21.5975 22.537 21.7817 22.3607C21.966 22.1765 21.966 21.8882 21.7817 21.6879C21.7016 21.6078 21.6135 21.5356 21.5093 21.4315H21.4853Z" fill="#FFB422"/>
<path d="M21.4773 21.4314C21.5815 21.5275 21.6696 21.5996 21.7497 21.6878C21.942 21.8881 21.942 22.1764 21.7497 22.3606C21.5655 22.5369 21.277 22.5369 21.0848 22.3526C20.7242 22.0001 20.3717 21.6477 20.0192 21.2872C19.8189 21.0789 19.8189 20.8144 20.0192 20.6061C20.3637 20.2536 20.7162 19.9011 21.0687 19.5566C21.269 19.3643 21.5574 19.3563 21.7417 19.5406C21.926 19.7248 21.926 20.0133 21.7257 20.2136C21.6536 20.2937 21.5654 20.3578 21.4853 20.4299C21.4853 20.4459 21.5013 20.462 21.5013 20.478C21.5574 20.478 21.6055 20.478 21.6616 20.478C22.1343 20.486 22.6069 20.462 23.0716 20.5181C23.9369 20.6223 24.5938 21.4154 24.5938 22.2967C24.5938 23.21 23.9448 23.9871 23.0796 24.1153C22.9594 24.1313 22.8393 24.1472 22.7191 24.1472C22.0061 24.1472 21.3011 24.1472 20.588 24.1472C20.3317 24.1472 20.1314 23.9631 20.1154 23.7147C20.0993 23.4824 20.2516 23.274 20.4839 23.2179C20.54 23.2019 20.6121 23.2019 20.6682 23.2019C21.3491 23.2019 22.0381 23.2019 22.7191 23.2019C23.2559 23.2019 23.6484 22.8254 23.6484 22.3127C23.6484 21.7839 23.2639 21.4153 22.7111 21.4153C22.3185 21.4153 21.926 21.4153 21.5334 21.4153C21.5254 21.4153 21.5174 21.4153 21.4533 21.4314H21.4773Z" fill="white"/>
<path d="M10.647 10.2441H15.1294C15.1294 11.5147 15.147 12.7854 15.1294 14.056C15.1206 14.5148 15.5088 14.8766 16.0117 14.5855C16.4882 14.3119 16.9912 14.0824 17.4853 13.8265C17.5735 13.7824 17.6441 13.7824 17.7412 13.8265C18.2265 14.0824 18.7294 14.3119 19.2058 14.5855C19.7264 14.8766 20.097 14.506 20.0882 14.056C20.0617 12.7854 20.0794 11.5147 20.0794 10.2441H24.5617C24.8617 10.3853 24.95 10.6148 24.95 10.9412C24.9411 12.7148 24.95 14.4971 24.95 16.2707C24.95 16.3413 24.95 16.403 24.95 16.4736C22.3294 15.5824 19.9382 15.9618 17.9706 17.9294C16.0029 19.897 15.6235 22.2884 16.5147 24.9089C16.4529 24.9089 16.3912 24.9089 16.3206 24.9089C14.5294 24.9089 12.7294 24.9089 10.9382 24.9089C10.4617 24.9089 10.2853 24.7325 10.2853 24.256C10.2853 19.8178 10.2853 15.3795 10.2853 10.9412C10.2853 10.6236 10.3735 10.3853 10.6735 10.2441H10.647Z" fill="#0671B8"/>
<path d="M20.0617 10.2441C20.0617 11.5147 20.0441 12.7854 20.0705 14.056C20.0794 14.506 19.7088 14.8855 19.1882 14.5855C18.7117 14.3119 18.2088 14.0824 17.7235 13.8265C17.6352 13.7824 17.5647 13.7824 17.4676 13.8265C16.9823 14.0824 16.4794 14.3119 15.9941 14.5855C15.4911 14.8766 15.1029 14.5148 15.1117 14.056C15.1382 12.7854 15.1205 11.5147 15.1117 10.2441H16.1441V13.3324C16.4264 13.1912 16.6823 13.0589 16.947 12.9265C17.6088 12.5912 17.5294 12.5736 18.2088 12.9265C18.4647 13.0589 18.7294 13.1912 19.0117 13.3324V10.2441H20.0441H20.0617Z" fill="white"/>
<path d="M19.0294 10.2441V13.3324C18.747 13.1912 18.4823 13.0589 18.2264 12.9265C17.547 12.5736 17.6265 12.5912 16.9647 12.9265C16.7088 13.0589 16.4441 13.1912 16.1617 13.3324V10.2441H19.0294Z" fill="#0671B8"/>
<path d="M10.9383 6V8.09106C10.7442 7.994 10.5678 7.90572 10.4001 7.81748C9.94129 7.57925 9.99423 7.58807 9.54423 7.81748C9.36776 7.90572 9.19128 7.994 9.00598 8.09106V6H10.9383Z" fill="#0671B8" stroke="#0671B8" stroke-width="0.16" stroke-miterlimit="10"/>
<path d="M9.37646 10.0142C9.37646 9.70539 9.62352 9.45844 9.93235 9.45844H14.9265C14.9265 8.46138 14.9265 7.47303 14.9265 6.47597C14.9265 6.25539 14.8647 6.09654 14.6706 6.0083H11.6353C11.6353 6.86418 11.6265 7.72903 11.6353 8.58492C11.6353 8.88492 11.397 9.14072 11.0441 8.9466C10.7176 8.76131 10.3824 8.61124 10.0471 8.43477C9.98529 8.39948 9.94117 8.39948 9.87941 8.43477C9.55294 8.61124 9.20882 8.76131 8.88234 8.9466C8.53823 9.14072 8.28233 8.89374 8.29116 8.58492C8.3088 7.72903 8.29116 6.86418 8.29116 6.0083H5.25586C5.05292 6.10536 5 6.26421 5 6.47597C5 9.47597 5 12.4761 5 15.4761C5 15.7938 5.12353 15.9173 5.44118 15.9173H9.35882V10.0142H9.37646Z" fill="#0671B8" stroke="#0671B8" stroke-width="0.16" stroke-miterlimit="10"/>
</svg>
