<svg width="32" height="32" viewBox="0 0 32 32" fill="none" xmlns="http://www.w3.org/2000/svg">
<path d="M13.7774 6C14.4258 6.26448 15.0742 6.52037 15.7227 6.78486C16.0895 6.92989 16.4564 7.07496 16.8744 7.23706C16.3284 7.45036 15.8336 7.64655 15.3302 7.84278C12.8986 8.78981 10.4585 9.73691 8.027 10.6925C7.82224 10.7693 7.66015 10.7778 7.45538 10.6925C6.51689 10.3085 5.56131 9.95014 4.55457 9.55768C4.67401 9.50649 4.7508 9.47245 4.82759 9.43832C7.6516 8.33773 10.4756 7.23703 13.2996 6.13643C13.3935 6.10231 13.4873 6.04266 13.5726 6C13.6409 6 13.7006 6 13.7689 6H13.7774Z" fill="#0671B8"/>
<path d="M4.02562 10.1807C5.06649 10.5817 6.07325 10.9742 7.07146 11.3752C7.13972 11.4008 7.20795 11.5459 7.20795 11.6312C7.21648 12.3991 7.20795 13.1669 7.20795 13.9433C7.20795 14.2419 7.24208 14.2675 7.53216 14.1822C7.88196 14.0798 8.23179 13.9773 8.57306 13.8579C8.70957 13.8067 8.81193 13.8238 8.92284 13.9262C9.33237 14.2846 9.7419 14.6344 10.16 14.9842C10.2282 15.0353 10.322 15.0523 10.4074 15.0864C10.433 15.0011 10.4756 14.9245 10.4756 14.8392C10.4756 14.2164 10.4756 13.5934 10.4756 12.9706C10.4756 12.8938 10.4756 12.8172 10.4756 12.7062C11.1838 12.9793 11.8663 13.2437 12.5488 13.5167C12.7877 13.6106 13.1205 13.6446 13.2399 13.8237C13.3594 14.0114 13.2826 14.3358 13.2826 14.6088C13.2826 17.8253 13.2826 21.0418 13.2826 24.2497C13.2826 24.3436 13.2826 24.4459 13.2826 24.5824C12.8816 24.4288 12.5062 24.2838 12.1308 24.1387C9.54567 23.132 6.96052 22.1252 4.3754 21.1184C4.05119 20.9905 4 20.9223 4 20.581C4 17.1939 4 13.8067 4 10.4281C4 10.3684 4.00002 10.3001 4.01708 10.2063L4.02562 10.1807Z" fill="#0671B8"/>
<path d="M14.0846 13.7898C17.156 12.5953 20.236 11.3922 23.333 10.1807V15.4961C21.4561 15.5644 20.0171 16.128 18.9507 17.6807C17.8842 19.2421 17.668 21.1356 18.2737 22.9273C16.8745 23.4733 15.4923 24.0107 14.0846 24.5653V13.7898Z" fill="#0671B8"/>
<path d="M18.9587 20.4555C18.9741 18.1138 20.8551 16.2635 23.1814 16.2789C25.4847 16.2943 27.3426 18.1906 27.3273 20.4939C27.3043 22.8202 25.4233 24.6935 23.12 24.6782C20.809 24.6628 18.9357 22.7665 18.951 20.4555H18.9587ZM22.2524 21.0313C22.1986 20.9699 22.1526 20.9162 22.1065 20.8547C21.8762 20.5707 21.6535 20.2865 21.4309 20.0024C21.2696 19.8028 21.07 19.7032 20.8167 19.7646C20.356 19.8644 20.1871 20.3711 20.4789 20.755C20.8627 21.2541 21.2543 21.7377 21.6459 22.2291C21.9837 22.659 22.3368 22.6821 22.7284 22.2905C23.6497 21.3692 24.5711 20.4478 25.4924 19.5188C25.5615 19.4497 25.6306 19.3806 25.6766 19.3038C25.8071 19.1042 25.8071 18.8892 25.692 18.6819C25.5768 18.4823 25.4002 18.3826 25.1699 18.3749C24.9549 18.3749 24.8014 18.4824 24.6555 18.6283C23.9184 19.373 23.1737 20.11 22.4366 20.8547C22.3829 20.9085 22.3215 20.9622 22.2524 21.0236V21.0313Z" fill="#FFB422"/>
<path d="M22.804 9.55761C22.3604 9.72824 21.9679 9.88187 21.5755 10.0354C19.033 11.0251 16.482 12.0233 13.9395 13.0216C13.7689 13.0898 13.6324 13.0898 13.4532 13.0216C12.6683 12.7059 11.8834 12.4074 11.0472 12.0832C11.1496 12.032 11.2094 11.9978 11.2691 11.9807C14.1613 10.8545 17.0536 9.71982 19.9459 8.60216C20.0738 8.55097 20.2445 8.5595 20.381 8.60216C21.0977 8.86665 21.8143 9.14817 22.5225 9.42972C22.5993 9.46384 22.6761 9.49789 22.8126 9.55761H22.804Z" fill="#0671B8"/>
<path d="M22.2525 21.0389C22.3216 20.9775 22.3753 20.9237 22.4367 20.87C23.1738 20.1253 23.9185 19.3883 24.6556 18.6436C24.8014 18.4977 24.955 18.3901 25.17 18.3901C25.4003 18.3901 25.5769 18.4975 25.692 18.6972C25.8072 18.9045 25.7995 19.1195 25.6767 19.3191C25.623 19.3959 25.5616 19.465 25.4925 19.5341C24.5711 20.4554 23.6498 21.3766 22.7285 22.3056C22.3446 22.6972 21.9914 22.6743 21.646 22.2443C21.2544 21.753 20.8628 21.2691 20.4789 20.7701C20.1795 20.3785 20.3561 19.872 20.8168 19.7798C21.0701 19.7261 21.2697 19.8258 21.431 20.0177C21.6613 20.3018 21.8839 20.5859 22.1066 20.87C22.1527 20.9237 22.1987 20.9775 22.2525 21.0466V21.0389Z" fill="white"/>
</svg>
