<svg width="32" height="32" viewBox="0 0 32 32" fill="none" xmlns="http://www.w3.org/2000/svg">
<path d="M10.7705 26C11.0159 25.5093 11.0396 24.9788 11.0238 24.4484C11.0159 23.9814 11.0238 23.5145 11.0238 23H26.0238V25.2479C25.8734 25.5962 25.6201 25.8496 25.2718 26H10.7705Z" fill="#0671B8" stroke="#0671B8" stroke-width="0.110818" stroke-miterlimit="10"/>
<path d="M23.0079 22.0026H10.0185C10.0185 22.5013 10.0185 22.9763 10.0185 23.4512C10.0185 23.942 10.0185 24.4326 10.0185 24.9234C10.0185 25.5725 9.64644 25.9604 9.02903 25.9683C8.4037 25.9683 8.01582 25.5804 8.01582 24.9234C8.01582 19.5883 8.01582 14.2532 8.01582 8.91816C8.01582 8.0237 8.03165 7.12932 8.01582 6.22695C8.0079 5.83117 7.91295 5.43536 7.85754 5.00792C7.86546 5.00792 7.94458 5 8.02374 5C12.6623 5 17.2929 5 21.9314 5C22.5963 5 23.0237 5.40356 23.0237 6.05264C23.0237 11.3007 23.0237 16.5567 23.0237 21.8047C23.0237 21.8522 23.0237 21.9076 23.0158 22.0026H23.0079ZM12.8443 13.4062C12.9156 13.4062 12.9789 13.3904 13.0422 13.3904C13.9129 13.4695 14.6807 12.8364 14.6174 11.7678C14.6095 11.6016 14.6174 11.4353 14.6016 11.2691C14.5145 10.5092 13.9525 10.0027 13.2005 9.99476C12.7652 9.99476 12.3298 9.99476 11.8865 9.99476C11.0237 9.99476 10.9921 9.963 11.0158 9.10021C11.0238 8.73609 11.1504 8.60953 11.5066 8.60162C12.0369 8.60162 12.5673 8.60162 13.0976 8.60162C13.4143 8.60162 13.5805 8.7202 13.628 9.03682C13.6755 9.34553 13.8892 9.50388 14.1662 9.48014C14.4591 9.44847 14.6807 9.60679 14.372 9.67803C13.7625 9.81259 13.8259 9.44067 13.1293 9.39317C12.971 9.37734 12.8839 8.98946 12.7177 8.98155C12.6939 8.6491 12.6464 9.39314 12.3219 9.36148C12.0369 9.33773 12.1478 8.57772 11.9894 9.04474C11.8549 9.04474 11.4195 9.20302 11.277 9.21094C10.533 9.25843 11.657 10.5408 11.9815 9.86799C12.2348 9.35348 14.9261 10.0658 14.9024 10.6279C14.6649 18.3297 5.80738 12.1714 11.4353 10.9999C11.8707 10.9049 12.3298 10.9999 12.781 10.9999C13.5884 10.9999 13.6517 11.0553 13.628 11.8707C13.628 11.8944 13.628 11.9103 13.628 11.934C13.6042 12.2586 13.4855 12.393 13.1609 12.4009C12.5989 12.4088 12.0369 12.4009 11.4749 12.4009C11.2058 12.4009 11.0554 12.2664 11.0158 11.9972C10.9684 11.6727 10.7546 11.4987 10.4697 11.5303C10.161 11.562 9.99473 11.7836 10.0185 12.1319C10.066 12.7968 10.6042 13.3429 11.2691 13.3983C11.4433 13.4141 11.6174 13.4142 11.7836 13.4221C11.8707 13.8337 12.0211 13.9999 12.3061 13.992C12.6702 13.992 12.7968 13.7387 12.8443 13.4221V13.4062ZM15.504 16.6913C15.6702 16.6913 15.8364 16.6913 16.0026 16.6913C17.4908 16.6913 18.9789 16.6913 20.467 16.6913C20.7995 16.6913 20.9974 16.5012 20.9974 16.2084C20.9974 15.9155 20.8074 15.7177 20.4828 15.6939C20.4116 15.6939 20.3404 15.6939 20.2612 15.6939C17.0871 15.6939 13.9129 15.6939 10.7388 15.6939C10.6359 15.6939 10.533 15.6939 10.4301 15.7098C10.1847 15.7494 10.0501 15.9154 10.0264 16.1608C9.98682 16.4854 10.2163 16.6992 10.5963 16.6992C12.2269 16.6992 13.8654 16.6992 15.496 16.6992L15.504 16.6913ZM15.4881 19.6913C17.1425 19.6913 18.7968 19.6913 20.4512 19.6913C20.7995 19.6913 21.0053 19.5013 21.0053 19.2005C21.0053 18.8997 20.7995 18.7098 20.4512 18.694C20.3879 18.694 20.3245 18.694 20.2612 18.694C17.095 18.694 13.9367 18.694 10.7705 18.694C10.6596 18.694 10.5409 18.6938 10.4301 18.7096C10.1531 18.765 9.98679 19.0185 10.0422 19.2955C10.1055 19.6043 10.3193 19.6991 10.6121 19.6991C12.2348 19.6991 13.8575 19.6991 15.4802 19.6991L15.4881 19.6913ZM19.2718 6.45634C20.4116 5.76769 19.9525 5.34033 21.029 6.74138C21.1161 6.86012 21.1557 7.59622 21.0053 7.4854C21.0053 7.18461 20.7995 6.99474 20.4433 6.99474C19.0264 6.99474 17.6095 6.99474 16.1926 6.99474C15.8364 6.99474 15.6464 7.01848 15.3377 6.99474C15.0448 6.97099 15.2586 6.78893 16.1451 6.40107C17.0237 6.02112 19.3351 4.35872 19.2638 6.46426L19.2718 6.45634ZM19.0897 9.21886C20.2137 8.17401 21.4564 7.54885 21.2744 9.78895C21.6227 9.78895 21.0132 10.7862 21.0053 10.4775C21.0053 10.1767 20.7995 9.98684 20.4433 9.98684C19.0264 9.98684 17.6095 9.98684 16.1926 9.98684C15.8364 9.98684 16.4855 8.83905 16.4776 9.15567C16.4776 9.48021 16.6834 9.79676 16.8892 9.48014C17.934 7.92077 18.5198 8.50646 19.0739 9.21886H19.0897ZM19.4934 11.8786C20.5303 11.2137 22.4459 9.08438 21.4169 12.6701C21.3219 13.0105 21.0132 13.4853 21.0053 13.1766C21.0053 12.8758 20.7995 12.6781 20.4512 12.6781C19.0343 12.6781 17.6174 12.6781 16.2005 12.6781C15.8285 12.6781 16.0818 11.372 16.0897 11.6965C16.0976 12.0052 16.1768 12.2427 16.5488 12.2427C17.7995 11.2532 20.2296 9.29809 19.4855 11.8707L19.4934 11.8786Z" fill="#0671B8" stroke="#0671B8" stroke-width="0.110818" stroke-miterlimit="10"/>
<path d="M5.01585 11.9737C5.01585 9.94732 5.01585 7.94459 5.01585 5.94195C5.01585 5.39578 5.43536 5.03174 5.99737 5.03174C6.55146 5.03174 6.99474 5.37198 6.99474 5.89441C7.01057 7.91288 6.99474 9.93148 6.99474 11.9737H5H5.01585Z" fill="#0671B8" stroke="#0671B8" stroke-width="0.110818" stroke-miterlimit="10"/>
<path d="M15.504 16.6913C13.8734 16.6913 12.2349 16.6913 10.6043 16.6913C10.2243 16.6913 10.0027 16.4775 10.0344 16.1529C10.0581 15.9155 10.1926 15.7494 10.438 15.7019C10.5409 15.6861 10.6438 15.686 10.7467 15.686C13.9209 15.686 17.095 15.686 20.2692 15.686C20.3404 15.686 20.4116 15.686 20.4908 15.686C20.8074 15.7098 21.0053 15.9076 21.0053 16.2005C21.0053 16.4933 20.8074 16.6834 20.475 16.6834C18.9869 16.6834 17.4987 16.6834 16.0106 16.6834C15.8444 16.6834 15.6781 16.6834 15.5119 16.6834L15.504 16.6913Z" fill="white"/>
<path d="M15.4881 19.6911C13.8654 19.6911 12.2427 19.6911 10.6201 19.6911C10.3193 19.6911 10.1134 19.5961 10.0501 19.2874C9.9947 19.0104 10.1609 18.7571 10.438 18.7017C10.5488 18.6779 10.6676 18.6858 10.7784 18.6858C13.9446 18.6858 17.1029 18.6858 20.2691 18.6858C20.3324 18.6858 20.3958 18.6858 20.4591 18.6858C20.8074 18.7017 21.0132 18.8836 21.0132 19.1923C21.0132 19.501 20.8153 19.6832 20.4591 19.6832C18.8047 19.6832 17.1504 19.6832 15.496 19.6832L15.4881 19.6911Z" fill="white"/>
<path d="M18.9993 10.8957C19.3089 8.98838 18.0136 7.19122 16.1063 6.88162C14.199 6.57202 12.4019 7.86722 12.0923 9.77452C11.7827 11.6818 13.0779 13.479 14.9852 13.7886C16.8925 14.0982 18.6897 12.803 18.9993 10.8957Z" fill="#FFB422"/>
<path d="M15.5198 7.01079C17.3008 7.01079 18.7414 8.45919 18.7414 10.2323C18.7414 12.0054 17.2929 13.454 15.5198 13.454C13.7467 13.454 12.2982 12.0054 12.2982 10.2323C12.2982 8.45919 13.7467 7.01079 15.5198 7.01079ZM15.5198 6.45654C13.4301 6.45654 11.7361 8.1505 11.7361 10.2402C11.7361 12.3299 13.4301 14.0159 15.5198 14.0159C17.6095 14.0159 19.2955 12.322 19.2955 10.2402C19.2955 8.15841 17.6016 6.45654 15.5198 6.45654Z" fill="white"/>
<path d="M17.7916 10.2557C17.7837 10.3427 17.7757 10.4219 17.7599 10.509C17.5778 11.4035 17.0554 12.013 16.1926 12.3059C15.5435 12.5275 14.9182 12.4404 14.3246 12.1001C14.3166 12.1001 14.3008 12.0921 14.285 12.0763C14.2929 12.1396 14.3008 12.1871 14.3087 12.2346C14.3245 12.3216 14.2771 12.3928 14.2058 12.4008C14.1267 12.4166 14.0633 12.3692 14.0475 12.2821C14.0158 12.1159 13.9921 11.9575 13.9604 11.7912C13.9446 11.7121 13.9921 11.6488 14.0713 11.633C14.2375 11.6013 14.4037 11.5697 14.5699 11.546C14.657 11.5302 14.7204 11.5776 14.7362 11.6567C14.752 11.728 14.6966 11.7992 14.6174 11.815C14.562 11.8229 14.5145 11.8309 14.4591 11.8467C14.4591 11.8467 14.4591 11.8467 14.4512 11.8467C14.5778 11.9259 14.7045 11.9812 14.839 12.0287C15.8602 12.3691 16.9367 11.8863 17.3641 10.9048C17.467 10.6594 17.5224 10.4061 17.5304 10.1449C17.5304 10.1133 17.5304 10.0894 17.5383 10.0578C17.5541 10.0024 17.5937 9.97081 17.6491 9.96289C17.7045 9.96289 17.752 9.97859 17.7757 10.0261C17.7757 10.034 17.7916 10.0499 17.7995 10.0578V10.2398L17.7916 10.2557Z" fill="#FFB422"/>
<path d="M17.6571 9.97852C17.6571 9.97852 17.6491 9.97852 17.6412 9.97852C17.5858 9.97852 17.5462 10.018 17.5304 10.0734C17.5304 10.0971 17.5225 10.1289 17.5225 10.1606C17.5225 10.4218 17.4671 10.675 17.3563 10.9204C17.0159 11.6961 16.2797 12.1553 15.4882 12.1553C15.2665 12.1553 15.0449 12.1235 14.8233 12.0444C14.6887 11.9969 14.5542 11.9415 14.4354 11.8623H14.4433C14.4987 11.8544 14.5462 11.8465 14.6016 11.8306C14.6808 11.8148 14.7362 11.7436 14.7204 11.6724C14.7045 11.609 14.6571 11.5616 14.5858 11.5616C14.5779 11.5616 14.57 11.5616 14.5541 11.5616C14.3879 11.5933 14.2217 11.6169 14.0554 11.6486C13.9763 11.6644 13.9367 11.7277 13.9447 11.8069C13.9763 11.9731 14.0001 12.1315 14.0317 12.2977C14.0476 12.3769 14.095 12.4243 14.1663 12.4243C14.1742 12.4243 14.1821 12.4243 14.19 12.4243C14.2692 12.4085 14.3088 12.3373 14.2929 12.2502C14.285 12.2027 14.2771 12.1473 14.2692 12.0919C14.285 12.0998 14.3008 12.1078 14.3087 12.1157C14.6808 12.3294 15.0687 12.4401 15.4644 12.4401C15.7019 12.4401 15.9393 12.4006 16.1768 12.3215C17.0396 12.0286 17.5621 11.4191 17.7441 10.5246C17.7599 10.4376 17.7678 10.3584 17.7758 10.2713V10.0892C17.7758 10.0892 17.76 10.0655 17.752 10.0576C17.7283 10.018 17.6887 9.99436 17.6412 9.99436L17.6571 9.97852Z" fill="white"/>
<path d="M16.8734 8.04747C16.9605 8.06331 16.9922 8.12678 17.008 8.20594C17.0317 8.35634 17.0634 8.5066 17.0871 8.66491C17.103 8.74407 17.0555 8.80735 16.9763 8.82318C16.8101 8.85485 16.6438 8.88659 16.4776 8.91034C16.3985 8.92617 16.3273 8.87876 16.3114 8.79961C16.2956 8.72045 16.351 8.65697 16.4381 8.64114C16.4935 8.63323 16.5489 8.62547 16.6043 8.60964V8.59379C16.4935 8.53839 16.3827 8.48283 16.2639 8.44325C15.0845 8.0079 13.8101 8.72042 13.5647 9.95525C13.541 10.0819 13.533 10.2165 13.5251 10.351C13.5172 10.4539 13.4222 10.5172 13.3272 10.4697C13.2718 10.438 13.2481 10.3906 13.2481 10.3352C13.2481 9.89982 13.3668 9.48819 13.6043 9.12408C13.9921 8.53041 14.5383 8.17415 15.2428 8.07124C15.2982 8.06333 15.3536 8.05539 15.409 8.04747C15.504 8.04747 15.599 8.04747 15.694 8.04747C15.7019 8.04747 15.7178 8.04747 15.7257 8.04747C16.0819 8.07122 16.4064 8.18215 16.7151 8.35629C16.723 8.35629 16.7309 8.36422 16.7468 8.37214C16.7389 8.32464 16.7309 8.27702 16.723 8.23744C16.7072 8.11871 16.723 8.07913 16.8418 8.03955H16.8576L16.8734 8.04747Z" fill="#FFB422"/>
<path d="M16.8733 8.04736H16.8575C16.7467 8.08694 16.723 8.12652 16.7388 8.24525C16.7388 8.28483 16.7547 8.33245 16.7626 8.37995C16.7467 8.37995 16.7388 8.37202 16.7309 8.3641C16.4222 8.18204 16.0976 8.07903 15.7414 8.05529C15.7335 8.05529 15.7177 8.05529 15.7098 8.05529H15.4248C15.3694 8.05529 15.314 8.07114 15.2586 8.07906C14.5541 8.18196 14.0079 8.53822 13.6201 9.13189C13.3826 9.496 13.2718 9.90764 13.2639 10.343C13.2639 10.4063 13.2876 10.4537 13.343 10.4775C13.3668 10.4854 13.3826 10.4933 13.4063 10.4933C13.4776 10.4933 13.533 10.438 13.5409 10.3588C13.5488 10.2243 13.5567 10.0897 13.5805 9.96306C13.7784 8.98153 14.6333 8.32449 15.5752 8.32449C15.8127 8.32449 16.0501 8.36399 16.2876 8.45106C16.4063 8.49064 16.5171 8.55411 16.628 8.60161C16.628 8.60161 16.628 8.60934 16.628 8.61726C16.5726 8.62518 16.5172 8.63312 16.4618 8.64895C16.3747 8.66478 16.3272 8.72826 16.3351 8.80742C16.343 8.87074 16.3985 8.91815 16.4697 8.91815C16.4776 8.91815 16.4855 8.91815 16.5013 8.91815C16.6676 8.88649 16.8338 8.86266 17 8.831C17.0792 8.81516 17.1188 8.75188 17.1109 8.67272C17.0871 8.52233 17.0554 8.37206 17.0317 8.21375C17.0158 8.1346 16.9842 8.07112 16.8971 8.05529L16.8733 8.04736Z" fill="white"/>
</svg>
