<svg width="47" height="10" viewBox="0 0 47 10" fill="none" xmlns="http://www.w3.org/2000/svg">
<path d="M1.67478 9.04004H0.566828L3.77137 0.312766H4.86228L8.06683 9.04004H6.95887L4.35092 1.69345H4.28274L1.67478 9.04004ZM2.08387 5.63095H6.54978V6.56845H2.08387V5.63095ZM13.4148 6.3639V2.49458H14.4205V9.04004H13.4148V7.93208H13.3467C13.1932 8.26447 12.9546 8.54714 12.6307 8.7801C12.3069 9.01021 11.8978 9.12527 11.4035 9.12527C10.9944 9.12527 10.6307 9.03578 10.3126 8.8568C9.99438 8.67498 9.74438 8.40225 9.56257 8.03862C9.38075 7.67214 9.28984 7.21049 9.28984 6.65368V2.49458H10.2955V6.58549C10.2955 7.06277 10.429 7.44345 10.6961 7.72754C10.966 8.01163 11.3097 8.15368 11.7273 8.15368C11.9773 8.15368 12.2316 8.08975 12.4901 7.96191C12.7515 7.83407 12.9702 7.63805 13.1464 7.37385C13.3254 7.10964 13.4148 6.77299 13.4148 6.3639ZM19.1091 2.49458V3.34686H15.717V2.49458H19.1091ZM16.7057 0.926403H17.7114V7.16504C17.7114 7.44913 17.7526 7.6622 17.8349 7.80424C17.9202 7.94345 18.0281 8.0372 18.1588 8.08549C18.2923 8.13095 18.433 8.15368 18.5807 8.15368C18.6915 8.15368 18.7824 8.14799 18.8534 8.13663C18.9244 8.12243 18.9812 8.11106 19.0239 8.10254L19.2284 9.00595C19.1602 9.03152 19.0651 9.05708 18.9429 9.08265C18.8207 9.11106 18.6659 9.12527 18.4784 9.12527C18.1943 9.12527 17.9159 9.06419 17.6432 8.94203C17.3733 8.81987 17.1489 8.63379 16.9699 8.38379C16.7937 8.13379 16.7057 7.81845 16.7057 7.43777V0.926403ZM23.2106 9.1764C22.6197 9.1764 22.1013 9.03578 21.6553 8.75453C21.2121 8.47328 20.8655 8.07981 20.6155 7.57413C20.3683 7.06845 20.2447 6.47754 20.2447 5.8014C20.2447 5.11958 20.3683 4.52441 20.6155 4.01589C20.8655 3.50737 21.2121 3.11248 21.6553 2.83123C22.1013 2.54998 22.6197 2.40936 23.2106 2.40936C23.8016 2.40936 24.3186 2.54998 24.7618 2.83123C25.2078 3.11248 25.5544 3.50737 25.8016 4.01589C26.0516 4.52441 26.1766 5.11958 26.1766 5.8014C26.1766 6.47754 26.0516 7.06845 25.8016 7.57413C25.5544 8.07981 25.2078 8.47328 24.7618 8.75453C24.3186 9.03578 23.8016 9.1764 23.2106 9.1764ZM23.2106 8.27299C23.6595 8.27299 24.0288 8.15794 24.3186 7.92782C24.6084 7.69771 24.8229 7.39515 24.9621 7.02015C25.1013 6.64515 25.1709 6.2389 25.1709 5.8014C25.1709 5.3639 25.1013 4.95623 24.9621 4.57839C24.8229 4.20055 24.6084 3.89515 24.3186 3.6622C24.0288 3.42924 23.6595 3.31277 23.2106 3.31277C22.7618 3.31277 22.3925 3.42924 22.1027 3.6622C21.8129 3.89515 21.5984 4.20055 21.4592 4.57839C21.32 4.95623 21.2504 5.3639 21.2504 5.8014C21.2504 6.2389 21.32 6.64515 21.4592 7.02015C21.5984 7.39515 21.8129 7.69771 22.1027 7.92782C22.3925 8.15794 22.7618 8.27299 23.2106 8.27299ZM33.9163 9.04004H31.2231V0.312766H34.0356C34.8822 0.312766 35.6066 0.487482 36.2089 0.836914C36.8111 1.1835 37.2728 1.68208 37.5938 2.33265C37.9148 2.98038 38.0754 3.75595 38.0754 4.65936C38.0754 5.56845 37.9134 6.35112 37.5896 7.00737C37.2657 7.66078 36.7941 8.16362 36.1748 8.51589C35.5555 8.86532 34.8026 9.04004 33.9163 9.04004ZM32.2799 8.10254H33.8481C34.5697 8.10254 35.1677 7.96333 35.6421 7.68493C36.1165 7.40652 36.4702 7.01021 36.7032 6.496C36.9361 5.9818 37.0526 5.36958 37.0526 4.65936C37.0526 3.95481 36.9376 3.34828 36.7075 2.83975C36.4773 2.32839 36.1336 1.93635 35.6762 1.66362C35.2188 1.38805 34.6492 1.25027 33.9674 1.25027H32.2799V8.10254ZM39.7959 9.04004H38.6879L41.8925 0.312766H42.9834L46.1879 9.04004H45.08L42.472 1.69345H42.4038L39.7959 9.04004ZM40.205 5.63095H44.6709V6.56845H40.205V5.63095Z" fill="black"/>
</svg>
