<svg width="80" height="12" viewBox="0 0 80 12" fill="none" xmlns="http://www.w3.org/2000/svg">
<path d="M1.67478 9.04004H0.566828L3.77137 0.312766H4.86228L8.06683 9.04004H6.95887L4.35092 1.69345H4.28274L1.67478 9.04004ZM2.08387 5.63095H6.54978V6.56845H2.08387V5.63095ZM13.8218 2.49458L11.4013 9.04004H10.3786L7.95816 2.49458H9.04907L10.8559 7.71049H10.9241L12.7309 2.49458H13.8218ZM17.6592 9.1764C17.0285 9.1764 16.4844 9.0372 16.0271 8.75879C15.5725 8.47754 15.2217 8.08549 14.9745 7.58265C14.7302 7.07697 14.608 6.4889 14.608 5.81845C14.608 5.14799 14.7302 4.55708 14.9745 4.04572C15.2217 3.53152 15.5654 3.13095 16.0057 2.84402C16.4489 2.55424 16.966 2.40936 17.5569 2.40936C17.8978 2.40936 18.2344 2.46618 18.5668 2.57981C18.8992 2.69345 19.2018 2.87811 19.4745 3.13379C19.7472 3.38663 19.9646 3.72186 20.1265 4.13947C20.2884 4.55708 20.3694 5.07129 20.3694 5.68208V6.10822H15.3239V5.2389H19.3467C19.3467 4.86958 19.2728 4.54004 19.1251 4.25027C18.9802 3.96049 18.7728 3.7318 18.5029 3.56419C18.2359 3.39657 17.9205 3.31277 17.5569 3.31277C17.1563 3.31277 16.8097 3.4122 16.5171 3.61106C16.2273 3.80708 16.0043 4.06277 15.8481 4.37811C15.6918 4.69345 15.6137 5.03152 15.6137 5.39231V5.97186C15.6137 6.46618 15.6989 6.88521 15.8694 7.22896C16.0427 7.56987 16.2827 7.82981 16.5896 8.00879C16.8964 8.18493 17.2529 8.27299 17.6592 8.27299C17.9234 8.27299 18.162 8.23606 18.3751 8.1622C18.591 8.08549 18.7771 7.97186 18.9333 7.82129C19.0896 7.66788 19.2103 7.47754 19.2955 7.25027L20.2671 7.52299C20.1648 7.85254 19.993 8.14231 19.7515 8.39231C19.51 8.63947 19.2117 8.83265 18.8566 8.97186C18.5015 9.10822 18.1023 9.1764 17.6592 9.1764ZM21.8992 9.04004V2.49458H22.8708V3.48322H22.939C23.0583 3.15936 23.2742 2.89657 23.5867 2.69487C23.8992 2.49316 24.2515 2.39231 24.6435 2.39231C24.7174 2.39231 24.8097 2.39373 24.9205 2.39657C25.0313 2.39941 25.1151 2.40368 25.1719 2.40936V3.43208C25.1379 3.42356 25.0597 3.41078 24.9376 3.39373C24.8182 3.37385 24.6918 3.3639 24.5583 3.3639C24.2401 3.3639 23.956 3.43066 23.706 3.56419C23.4589 3.69487 23.2629 3.87669 23.118 4.10964C22.9759 4.33975 22.9049 4.60254 22.9049 4.89799V9.04004H21.8992ZM28.2902 9.19345C27.8754 9.19345 27.499 9.11532 27.1609 8.95907C26.8229 8.79998 26.5544 8.57129 26.3555 8.27299C26.1567 7.97186 26.0572 7.60822 26.0572 7.18208C26.0572 6.80708 26.1311 6.50311 26.2788 6.27015C26.4266 6.03436 26.624 5.8497 26.8712 5.71618C27.1183 5.58265 27.391 5.48322 27.6893 5.41788C27.9905 5.3497 28.293 5.29572 28.597 5.25595C28.9947 5.20481 29.3172 5.16646 29.5643 5.14089C29.8143 5.11248 29.9962 5.06561 30.1098 5.00027C30.2263 4.93493 30.2845 4.82129 30.2845 4.65936V4.62527C30.2845 4.20481 30.1695 3.87811 29.9393 3.64515C29.7121 3.4122 29.3669 3.29572 28.9038 3.29572C28.4237 3.29572 28.0473 3.40083 27.7746 3.61106C27.5018 3.82129 27.3101 4.04572 27.1993 4.28436L26.2447 3.94345C26.4152 3.54572 26.6425 3.23606 26.9266 3.01447C27.2135 2.79004 27.526 2.63379 27.8641 2.54572C28.205 2.45481 28.5402 2.40936 28.8697 2.40936C29.08 2.40936 29.3214 2.43493 29.5942 2.48606C29.8697 2.53436 30.1354 2.63521 30.391 2.78862C30.6496 2.94203 30.8641 3.17356 31.0345 3.48322C31.205 3.79288 31.2902 4.20765 31.2902 4.72754V9.04004H30.2845V8.15368H30.2334C30.1652 8.29572 30.0516 8.44771 29.8925 8.60964C29.7334 8.77157 29.5217 8.90936 29.2575 9.02299C28.9933 9.13663 28.6709 9.19345 28.2902 9.19345ZM28.4436 8.29004C28.8413 8.29004 29.1766 8.21191 29.4493 8.05566C29.7249 7.89941 29.9322 7.69771 30.0714 7.45055C30.2135 7.20339 30.2845 6.94345 30.2845 6.67072V5.75027C30.2419 5.8014 30.1481 5.84828 30.0033 5.89089C29.8612 5.93066 29.6964 5.96618 29.5089 5.99743C29.3243 6.02583 29.1439 6.0514 28.9678 6.07413C28.7945 6.09402 28.6538 6.11106 28.5459 6.12527C28.2845 6.15936 28.0402 6.21475 27.8129 6.29146C27.5885 6.36532 27.4067 6.47754 27.2675 6.62811C27.1311 6.77583 27.0629 6.97754 27.0629 7.23322C27.0629 7.58265 27.1922 7.84686 27.4507 8.02583C27.7121 8.20197 28.043 8.29004 28.4436 8.29004ZM35.7678 11.6309C35.282 11.6309 34.8644 11.5684 34.515 11.4434C34.1655 11.3213 33.8744 11.1594 33.6414 10.9577C33.4113 10.7588 33.228 10.5457 33.0917 10.3184L33.8928 9.75595C33.9837 9.87527 34.0988 10.0116 34.238 10.165C34.3772 10.3213 34.5675 10.4562 34.809 10.5699C35.0533 10.6863 35.3729 10.7446 35.7678 10.7446C36.2962 10.7446 36.7323 10.6167 37.0761 10.3611C37.4198 10.1054 37.5917 9.70481 37.5917 9.15936V7.82981H37.5065C37.4326 7.94913 37.3275 8.09686 37.1911 8.27299C37.0576 8.44629 36.8644 8.60112 36.6116 8.73748C36.3616 8.871 36.0235 8.93777 35.5974 8.93777C35.069 8.93777 34.5945 8.81277 34.1741 8.56277C33.7565 8.31277 33.4255 7.94913 33.1812 7.47186C32.9397 6.99458 32.819 6.41504 32.819 5.73322C32.819 5.06277 32.9369 4.47896 33.1727 3.9818C33.4084 3.4818 33.7366 3.09544 34.157 2.82271C34.5775 2.54714 35.0633 2.40936 35.6144 2.40936C36.0405 2.40936 36.3786 2.48038 36.6286 2.62243C36.8815 2.76163 37.0746 2.92072 37.2082 3.0997C37.3445 3.27583 37.4496 3.42072 37.5235 3.53436H37.6258V2.49458H38.5974V9.22754C38.5974 9.79004 38.4695 10.2474 38.2138 10.5997C37.961 10.9548 37.6201 11.2148 37.1911 11.3795C36.765 11.5471 36.2905 11.6309 35.7678 11.6309ZM35.7337 8.03436C36.1371 8.03436 36.478 7.94203 36.7565 7.75737C37.0349 7.57271 37.2465 7.30708 37.3914 6.96049C37.5363 6.6139 37.6087 6.19913 37.6087 5.71618C37.6087 5.24458 37.5377 4.82839 37.3957 4.4676C37.2536 4.1068 37.0434 3.82413 36.765 3.61958C36.4866 3.41504 36.1428 3.31277 35.7337 3.31277C35.3076 3.31277 34.9525 3.42072 34.6684 3.63663C34.3871 3.85254 34.1755 4.14231 34.0334 4.50595C33.8942 4.86958 33.8246 5.27299 33.8246 5.71618C33.8246 6.17072 33.8957 6.57271 34.0377 6.92214C34.1826 7.26873 34.3957 7.54146 34.6769 7.74032C34.961 7.93635 35.3133 8.03436 35.7337 8.03436ZM43.1826 9.1764C42.5519 9.1764 42.0079 9.0372 41.5505 8.75879C41.0959 8.47754 40.7451 8.08549 40.4979 7.58265C40.2536 7.07697 40.1315 6.4889 40.1315 5.81845C40.1315 5.14799 40.2536 4.55708 40.4979 4.04572C40.7451 3.53152 41.0888 3.13095 41.5292 2.84402C41.9724 2.55424 42.4894 2.40936 43.0803 2.40936C43.4212 2.40936 43.7579 2.46618 44.0903 2.57981C44.4227 2.69345 44.7252 2.87811 44.9979 3.13379C45.2707 3.38663 45.488 3.72186 45.6499 4.13947C45.8119 4.55708 45.8928 5.07129 45.8928 5.68208V6.10822H40.8474V5.2389H44.8701C44.8701 4.86958 44.7962 4.54004 44.6485 4.25027C44.5036 3.96049 44.2962 3.7318 44.0263 3.56419C43.7593 3.39657 43.444 3.31277 43.0803 3.31277C42.6798 3.31277 42.3332 3.4122 42.0405 3.61106C41.7508 3.80708 41.5278 4.06277 41.3715 4.37811C41.2153 4.69345 41.1371 5.03152 41.1371 5.39231V5.97186C41.1371 6.46618 41.2224 6.88521 41.3928 7.22896C41.5661 7.56987 41.8062 7.82981 42.113 8.00879C42.4198 8.18493 42.7763 8.27299 43.1826 8.27299C43.4468 8.27299 43.6854 8.23606 43.8985 8.1622C44.1144 8.08549 44.3005 7.97186 44.4567 7.82129C44.613 7.66788 44.7337 7.47754 44.819 7.25027L45.7905 7.52299C45.6883 7.85254 45.5164 8.14231 45.2749 8.39231C45.0334 8.63947 44.7352 8.83265 44.38 8.97186C44.0249 9.10822 43.6258 9.1764 43.1826 9.1764ZM55.7067 2.49458C55.6556 2.06277 55.4482 1.72754 55.0846 1.4889C54.7209 1.25027 54.2749 1.13095 53.7465 1.13095C53.3602 1.13095 53.0221 1.19345 52.7323 1.31845C52.4454 1.44345 52.2209 1.61532 52.059 1.83407C51.8999 2.05282 51.8204 2.3014 51.8204 2.57981C51.8204 2.81277 51.8758 3.01305 51.9866 3.18066C52.1002 3.34544 52.2451 3.48322 52.4212 3.59402C52.5974 3.70197 52.782 3.79146 52.9752 3.86248C53.1684 3.93066 53.3459 3.98606 53.5079 4.02868L54.3942 4.26731C54.6215 4.32697 54.8744 4.40936 55.1528 4.51447C55.434 4.61958 55.7025 4.76305 55.9582 4.94487C56.2167 5.12385 56.4298 5.35396 56.5974 5.63521C56.765 5.91646 56.8488 6.26163 56.8488 6.67072C56.8488 7.14231 56.7252 7.56845 56.478 7.94913C56.2337 8.32981 55.8758 8.63237 55.4042 8.8568C54.9354 9.08123 54.3658 9.19345 53.6954 9.19345C53.0704 9.19345 52.5292 9.0926 52.0718 8.89089C51.6173 8.68919 51.2593 8.40794 50.9979 8.04714C50.7394 7.68635 50.5931 7.26731 50.559 6.79004H51.6499C51.6783 7.11958 51.7891 7.39231 51.9823 7.60822C52.1783 7.82129 52.4255 7.98038 52.7238 8.08549C53.0249 8.18777 53.3488 8.2389 53.6954 8.2389C54.0988 8.2389 54.461 8.17356 54.782 8.04288C55.103 7.90936 55.3573 7.7247 55.5448 7.4889C55.7323 7.25027 55.8261 6.97186 55.8261 6.65368C55.8261 6.3639 55.7451 6.12811 55.5832 5.94629C55.4212 5.76447 55.2082 5.61674 54.944 5.50311C54.6798 5.38947 54.3942 5.29004 54.0874 5.20481L53.0136 4.89799C52.3317 4.70197 51.792 4.42214 51.3942 4.0585C50.9965 3.69487 50.7977 3.21902 50.7977 2.63095C50.7977 2.14231 50.9298 1.71618 51.194 1.35254C51.461 0.986062 51.819 0.701971 52.2678 0.500266C52.7195 0.295721 53.2238 0.193448 53.7806 0.193448C54.3431 0.193448 54.8431 0.2943 55.2806 0.496005C55.7181 0.694868 56.0647 0.967595 56.3204 1.31419C56.5789 1.66078 56.7153 2.05424 56.7295 2.49458H55.7067ZM60.3761 9.19345C59.9614 9.19345 59.5849 9.11532 59.2469 8.95907C58.9088 8.79998 58.6403 8.57129 58.4415 8.27299C58.2426 7.97186 58.1432 7.60822 58.1432 7.18208C58.1432 6.80708 58.217 6.50311 58.3648 6.27015C58.5125 6.03436 58.7099 5.8497 58.9571 5.71618C59.2043 5.58265 59.477 5.48322 59.7753 5.41788C60.0764 5.3497 60.379 5.29572 60.683 5.25595C61.0807 5.20481 61.4031 5.16646 61.6503 5.14089C61.9003 5.11248 62.0821 5.06561 62.1957 5.00027C62.3122 4.93493 62.3705 4.82129 62.3705 4.65936V4.62527C62.3705 4.20481 62.2554 3.87811 62.0253 3.64515C61.798 3.4122 61.4528 3.29572 60.9898 3.29572C60.5097 3.29572 60.1332 3.40083 59.8605 3.61106C59.5878 3.82129 59.396 4.04572 59.2852 4.28436L58.3307 3.94345C58.5011 3.54572 58.7284 3.23606 59.0125 3.01447C59.2994 2.79004 59.6119 2.63379 59.95 2.54572C60.2909 2.45481 60.6261 2.40936 60.9557 2.40936C61.1659 2.40936 61.4074 2.43493 61.6801 2.48606C61.9557 2.53436 62.2213 2.63521 62.477 2.78862C62.7355 2.94203 62.95 3.17356 63.1205 3.48322C63.2909 3.79288 63.3761 4.20765 63.3761 4.72754V9.04004H62.3705V8.15368H62.3193C62.2511 8.29572 62.1375 8.44771 61.9784 8.60964C61.8193 8.77157 61.6077 8.90936 61.3435 9.02299C61.0793 9.13663 60.7568 9.19345 60.3761 9.19345ZM60.5295 8.29004C60.9273 8.29004 61.2625 8.21191 61.5352 8.05566C61.8108 7.89941 62.0182 7.69771 62.1574 7.45055C62.2994 7.20339 62.3705 6.94345 62.3705 6.67072V5.75027C62.3278 5.8014 62.2341 5.84828 62.0892 5.89089C61.9472 5.93066 61.7824 5.96618 61.5949 5.99743C61.4102 6.02583 61.2298 6.0514 61.0537 6.07413C60.8804 6.09402 60.7398 6.11106 60.6318 6.12527C60.3705 6.15936 60.1261 6.21475 59.8989 6.29146C59.6744 6.36532 59.4926 6.47754 59.3534 6.62811C59.217 6.77583 59.1489 6.97754 59.1489 7.23322C59.1489 7.58265 59.2781 7.84686 59.5366 8.02583C59.798 8.20197 60.129 8.29004 60.5295 8.29004ZM66.2174 0.312766V9.04004H65.2117V0.312766H66.2174ZM70.8037 9.1764C70.173 9.1764 69.629 9.0372 69.1716 8.75879C68.717 8.47754 68.3662 8.08549 68.119 7.58265C67.8747 7.07697 67.7526 6.4889 67.7526 5.81845C67.7526 5.14799 67.8747 4.55708 68.119 4.04572C68.3662 3.53152 68.7099 3.13095 69.1503 2.84402C69.5935 2.55424 70.1105 2.40936 70.7014 2.40936C71.0423 2.40936 71.379 2.46618 71.7114 2.57981C72.0437 2.69345 72.3463 2.87811 72.619 3.13379C72.8918 3.38663 73.1091 3.72186 73.271 4.13947C73.433 4.55708 73.5139 5.07129 73.5139 5.68208V6.10822H68.4685V5.2389H72.4912C72.4912 4.86958 72.4173 4.54004 72.2696 4.25027C72.1247 3.96049 71.9173 3.7318 71.6474 3.56419C71.3804 3.39657 71.0651 3.31277 70.7014 3.31277C70.3008 3.31277 69.9543 3.4122 69.6616 3.61106C69.3719 3.80708 69.1489 4.06277 68.9926 4.37811C68.8364 4.69345 68.7582 5.03152 68.7582 5.39231V5.97186C68.7582 6.46618 68.8435 6.88521 69.0139 7.22896C69.1872 7.56987 69.4273 7.82981 69.7341 8.00879C70.0409 8.18493 70.3974 8.27299 70.8037 8.27299C71.0679 8.27299 71.3065 8.23606 71.5196 8.1622C71.7355 8.08549 71.9216 7.97186 72.0778 7.82129C72.2341 7.66788 72.3548 7.47754 72.4401 7.25027L73.4116 7.52299C73.3094 7.85254 73.1375 8.14231 72.896 8.39231C72.6545 8.63947 72.3562 8.83265 72.0011 8.97186C71.646 9.10822 71.2469 9.1764 70.8037 9.1764ZM79.6801 3.96049L78.7767 4.21618C78.7199 4.06561 78.6361 3.9193 78.5253 3.77725C78.4173 3.63237 78.2696 3.51305 78.0821 3.4193C77.8946 3.32555 77.6545 3.27868 77.3619 3.27868C76.9614 3.27868 76.6276 3.371 76.3605 3.55566C76.0963 3.73748 75.9642 3.96902 75.9642 4.25027C75.9642 4.50027 76.0551 4.69771 76.2369 4.8426C76.4187 4.98748 76.7028 5.10822 77.0892 5.20481L78.0608 5.44345C78.646 5.58549 79.0821 5.80282 79.369 6.09544C79.656 6.38521 79.7994 6.75879 79.7994 7.21618C79.7994 7.59118 79.6915 7.9264 79.4756 8.22186C79.2625 8.51731 78.9642 8.75027 78.5807 8.92072C78.1972 9.09118 77.7511 9.1764 77.2426 9.1764C76.575 9.1764 76.0224 9.03152 75.5849 8.74174C75.1474 8.45197 74.8705 8.02868 74.754 7.47186L75.7085 7.23322C75.7994 7.58549 75.9713 7.8497 76.2241 8.02583C76.4798 8.20197 76.8136 8.29004 77.2256 8.29004C77.6943 8.29004 78.0665 8.19061 78.342 7.99174C78.6205 7.79004 78.7597 7.54856 78.7597 7.26731C78.7597 7.04004 78.6801 6.8497 78.521 6.69629C78.3619 6.54004 78.1176 6.42356 77.7881 6.34686L76.6972 6.09118C76.0977 5.94913 75.6574 5.72896 75.3761 5.43066C75.0977 5.12953 74.9585 4.75311 74.9585 4.3014C74.9585 3.93208 75.0622 3.60538 75.2696 3.32129C75.4798 3.0372 75.7653 2.81419 76.1261 2.65225C76.4898 2.49032 76.9017 2.40936 77.3619 2.40936C78.0097 2.40936 78.5182 2.5514 78.8875 2.83549C79.2597 3.11958 79.5239 3.49458 79.6801 3.96049Z" fill="black"/>
</svg>
