<svg width="32" height="32" viewBox="0 0 32 32" fill="none" xmlns="http://www.w3.org/2000/svg">
<path d="M5.45637 26C5.10144 25.8394 5 25.5519 5 25.1716C5 18.7069 5 12.2422 5 5.7774C5 5.28726 5.22815 5 5.61688 5C6.00561 5 6.22531 5.28726 6.22531 5.7774C6.22531 8.09288 6.22531 10.4083 6.22531 12.7238V12.9858C6.30136 12.9858 6.36897 12.9943 6.43657 12.9943C7.9915 12.9943 9.55489 12.9943 11.1098 12.9943C11.245 12.9943 11.3295 12.9521 11.414 12.8422C12.5802 11.2366 13.7549 9.63103 14.9211 8.02541C15.276 7.54372 15.7154 7.54372 16.0704 8.02541C17.245 9.63103 18.4112 11.2366 19.5859 12.8422C19.6366 12.9099 19.738 12.9943 19.8225 12.9943C21.1324 13.0028 22.4506 12.9943 23.7604 12.9943C23.7858 12.9943 23.8112 12.9943 23.8957 12.9774C23.676 12.7661 23.4901 12.5887 23.3042 12.4028C23.0253 12.1239 22.9999 11.7436 23.245 11.4901C23.4985 11.2281 23.8787 11.245 24.1745 11.5324C24.7069 12.0647 25.2393 12.5886 25.7633 13.1294C25.8562 13.2308 25.9238 13.3662 25.9999 13.4845V13.7717C25.8816 13.9238 25.7718 14.0929 25.6366 14.2281C25.1295 14.7351 24.614 15.2337 24.0985 15.7323C23.8788 15.9436 23.6084 15.986 23.3633 15.8592C23.1267 15.7409 22.983 15.4789 23.0506 15.2085C23.0844 15.0733 23.1689 14.9464 23.2534 14.8449C23.4309 14.6421 23.6253 14.4478 23.8366 14.2281C23.7521 14.2281 23.676 14.2281 23.6084 14.2281C22.2478 14.2281 20.8872 14.2281 19.5267 14.2281C19.2055 14.2281 18.9858 14.1183 18.7999 13.8563C17.752 12.4028 16.6957 10.9663 15.6394 9.52119C15.5971 9.47049 15.5549 9.41115 15.4958 9.33509C15.4366 9.4027 15.3943 9.47029 15.3436 9.52944C14.2873 10.9745 13.231 12.4197 12.1831 13.8647C12.0056 14.1183 11.7859 14.2281 11.4732 14.2281C9.81691 14.2281 8.15212 14.2281 6.49579 14.2281H6.24222V24.7576C6.32673 24.7576 6.41128 24.7576 6.49579 24.7576C12.7239 24.7576 18.9436 24.7576 25.1717 24.7576C25.552 24.7576 25.8309 24.859 25.9999 25.2139V25.5436C25.8985 25.7464 25.7548 25.8986 25.552 25.9915H5.45637V26Z" fill="#0671B8"/>
<path d="M25.552 26.0002C25.7548 25.8987 25.907 25.7551 25.9999 25.5522V26.0002H25.552Z" fill="white"/>
<path d="M17.3464 23.5236H13.6535C13.6535 23.4391 13.6535 23.3715 13.6535 23.2954C13.6535 20.2448 13.6535 17.2027 13.6535 14.152C13.6535 13.6365 13.8817 13.4082 14.4056 13.4082C15.1577 13.4082 15.9098 13.4082 16.6619 13.4082C17.1013 13.4082 17.3464 13.6618 17.3464 14.1012C17.3464 17.1857 17.3464 20.2617 17.3464 23.3462C17.3464 23.3969 17.3464 23.456 17.3464 23.5236Z" fill="#FFB422"/>
<path d="M12.4282 23.5239H8.73523C8.73523 23.4394 8.73523 23.3718 8.73523 23.2958C8.73523 21.4789 8.73523 19.662 8.73523 17.8451C8.73523 17.3296 8.96331 17.1016 9.48725 17.1016C10.2225 17.1016 10.9661 17.1016 11.7013 17.1016C12.1915 17.1016 12.4282 17.3381 12.4282 17.8367C12.4282 19.662 12.4282 21.4873 12.4282 23.3042V23.5239Z" fill="#FFB422"/>
<path d="M22.2731 23.5239H18.5802V23.2958C18.5802 21.4789 18.5802 19.662 18.5802 17.8451C18.5802 17.3381 18.8084 17.1016 19.3154 17.1016C20.0591 17.1016 20.8027 17.1016 21.5464 17.1016C22.0281 17.1016 22.2731 17.338 22.2731 17.8113C22.2731 19.6451 22.2731 21.4873 22.2731 23.3211V23.5155V23.5239Z" fill="#FFB422"/>
</svg>
