<svg width="32" height="32" viewBox="0 0 32 32" fill="none" xmlns="http://www.w3.org/2000/svg">
<path d="M9.505 23.7503V9.49141C9.74519 9.49141 9.97738 9.49141 10.2176 9.49141C11.1142 9.49141 12.0189 9.49141 12.9156 9.49141C13.0597 9.49141 13.1478 9.52341 13.2278 9.65951C14.2446 11.4369 16.7585 11.4369 17.7833 9.65951C17.8393 9.56344 17.8794 9.4834 18.0235 9.4834C19.1524 9.4834 20.2732 9.4834 21.4021 9.4834C21.4341 9.4834 21.4581 9.48341 21.4981 9.49943V17.8499C21.1219 18.0021 20.7375 18.13 20.3853 18.3142C20.1291 18.4503 19.8889 18.4983 19.6087 18.4983C16.5904 18.4983 13.5721 18.4983 10.5538 18.4983H10.2656V19.235H19.1043C18.9042 19.4992 18.7441 19.7313 18.5599 19.9474C18.5199 19.9955 18.4078 20.0035 18.3277 20.0035C16.086 20.0035 13.8363 20.0035 11.5946 20.0035C11.1543 20.0035 10.7219 20.0035 10.2656 20.0035V20.748H18.1196C18.0395 21.0042 17.9674 21.2444 17.8874 21.5006H10.2656V22.2453H17.7272C17.7673 22.7657 17.8153 23.254 17.8554 23.7423H9.51302L9.505 23.7503ZM20.7456 12.5097H10.2656V13.2304H20.7456V12.5097ZM20.7456 14.015H10.2656V14.7355H20.7456V14.015ZM10.2576 16.2327H20.7456V15.512H10.2576V16.2327ZM10.2576 17.7377H20.7375V17.0173H10.2576V17.7377Z" fill="#0671B8"/>
<path d="M8 26.0003V6.50537H11.3706C11.3706 6.8096 11.3706 7.11395 11.3706 7.42619C11.3706 7.89055 11.4666 7.99459 11.931 7.99459C12.2192 7.99459 12.5074 7.99459 12.7957 7.99459C12.8117 7.99459 12.8277 7.99461 12.8677 8.01062V8.73911C12.7957 8.73911 12.7156 8.73911 12.6275 8.73911C11.4986 8.73911 10.3778 8.73911 9.24895 8.73911C8.86466 8.73911 8.74456 8.8593 8.74456 9.24359C8.74456 14.1593 8.74456 19.083 8.74456 23.9988C8.74456 24.3911 8.86467 24.5111 9.26498 24.5111C12.1392 24.5111 15.0213 24.5111 17.8955 24.5111C18.0717 24.5111 18.1437 24.5752 18.2318 24.7193C18.48 25.1596 18.7602 25.576 19.0324 26.0003H8.00801H8Z" fill="#0671B8"/>
<path d="M22.9872 17.7539H22.2507V17.4736C22.2507 14.7675 22.2507 12.0616 22.2507 9.35551C22.2507 8.8191 22.1706 8.73902 21.6262 8.73902C20.5454 8.73902 19.4725 8.73902 18.3917 8.73902C18.3037 8.73902 18.2236 8.73902 18.1275 8.73902V7.98649C18.4798 7.98649 18.808 7.98649 19.1443 7.98649C19.4966 7.98649 19.6247 7.85832 19.6247 7.50605C19.6247 7.16979 19.6247 6.84153 19.6247 6.48926H22.9872V17.7459V17.7539Z" fill="#0671B8"/>
<path d="M12.131 7.22572V5H18.8562V7.22572H12.131ZM12.8836 6.473H13.6042V5.75253H12.8836V6.473ZM18.1116 6.48101V5.75253H17.3991V6.48101H18.1116Z" fill="#0671B8"/>
<path d="M13.6443 8.73073V8.01025H17.3431V8.73073H13.6443Z" fill="#0671B8"/>
<path d="M16.9428 9.50732C16.3023 10.4601 14.7251 10.4921 14.0526 9.50732H16.9428Z" fill="#0671B8"/>
<path d="M15.982 17.7539V18.5064H20.7376V19.2431H15.982V20.0037H20.7376V20.7562H15.982V21.5167H20.7376V22.2534H15.982V23.7505H21.4902V17.7539H15.982Z" fill="#0671B8"/>
<path d="M22.2509 17.7539V24.511H17.4072V26.0002H22.9874V17.7539H22.2509Z" fill="#0671B8"/>
<path d="M20.1656 14C22.3748 14 24.1657 12.209 24.1657 9.99989C24.1657 7.79075 22.3748 6 20.1656 6C17.9565 6 16.1656 7.79075 16.1656 9.99989C16.1656 12.209 17.9565 14 20.1656 14Z" fill="#FFB422" stroke="white" stroke-width="0.76767" stroke-miterlimit="10"/>
<path d="M19.6715 10.3682C19.499 10.18 19.3657 10.0153 19.2088 9.86632C19.0049 9.67024 18.7618 9.67022 18.5814 9.85061C18.401 10.031 18.3931 10.282 18.5814 10.4781C18.8402 10.7526 19.1068 11.0193 19.3813 11.2781C19.5774 11.4585 19.8049 11.4585 19.9931 11.2781C20.6519 10.635 21.3029 9.98401 21.9461 9.32519C22.1265 9.13695 22.1029 8.88595 21.9304 8.7134C21.7578 8.54085 21.5225 8.54085 21.3186 8.7134C21.2088 8.80751 21.1147 8.90938 21.0206 9.01134C20.5892 9.45056 20.15 9.88976 19.6794 10.3682H19.6715Z" fill="white"/>
</svg>
