<svg width="32" height="32" viewBox="0 0 32 32" fill="none" xmlns="http://www.w3.org/2000/svg">
<path d="M16.7134 6.0075C16.8258 6.04499 16.9457 6.08259 17.0507 6.12007C17.7929 6.41247 18.2279 7.19966 18.0554 7.96438C17.883 8.7591 17.1782 9.31389 16.3834 9.26891C15.5662 9.22392 14.899 8.61671 14.824 7.83699C14.7416 7.00479 15.2364 6.26995 16.0386 6.05253C16.0911 6.03754 16.1435 6.01499 16.196 6C16.3684 6 16.5409 6 16.7134 6V6.0075Z" fill="#FFB422"/>
<path d="M15.5738 18.0256C14.9516 18.5355 14.3593 19.0079 13.782 19.4878C13.6245 19.6152 13.4596 19.75 13.3322 19.9075C13.0548 20.2374 13.0847 20.5597 13.3996 20.8446C13.9169 21.317 14.5167 21.4745 15.2065 21.2871C15.6413 21.1746 16.0162 20.9496 16.3686 20.6722C16.9609 20.1999 16.7885 20.2524 17.4032 20.5523C17.8606 20.7772 18.3029 21.0171 18.7602 21.227C18.9476 21.3095 19.1726 21.3471 19.375 21.3471C19.6 21.3471 19.7948 21.3996 19.9823 21.5195C20.5371 21.8719 21.1069 22.2242 21.6617 22.5766C21.7066 22.6066 21.7516 22.689 21.7516 22.7415C21.7516 23.1089 21.3468 23.3564 20.9944 23.2064C20.9419 23.1839 20.897 23.1314 20.8445 23.1314C20.747 23.1314 20.6121 23.1314 20.5671 23.1839C20.5221 23.2364 20.5596 23.3712 20.5746 23.4687C20.5746 23.5062 20.6346 23.5288 20.6646 23.5588C20.8445 23.7687 20.852 24.0535 20.6871 24.2635C20.5296 24.4734 20.2372 24.5333 19.9898 24.4134C19.9373 24.3909 19.8923 24.331 19.8399 24.3385C19.7574 24.3385 19.6374 24.3534 19.5999 24.4134C19.5549 24.4659 19.5774 24.5859 19.5924 24.6683C19.5924 24.7058 19.6599 24.7432 19.6899 24.7807C19.8698 24.9832 19.8848 25.2832 19.7274 25.4856C19.5624 25.703 19.2775 25.7705 19.0151 25.643C18.9851 25.628 18.9551 25.6055 18.9251 25.5905C18.8052 25.523 18.6852 25.5306 18.6327 25.6505C18.5952 25.7255 18.6028 25.8754 18.6627 25.9278C18.9027 26.1678 18.8727 26.4227 18.7677 26.7001C18.7077 26.85 18.6028 26.9325 18.4379 26.9175C18.3104 26.91 18.1755 26.895 18.063 26.85C17.4257 26.5651 16.7959 26.2728 16.1437 25.9654C16.2261 25.8154 16.3011 25.6804 16.3761 25.538C16.601 25.1481 16.5935 24.7582 16.3161 24.3984C16.0387 24.0385 15.6713 23.9261 15.229 24.046C15.2065 24.046 15.184 24.046 15.1465 24.046C15.0641 23.7611 14.9141 23.5213 14.6442 23.3713C14.3743 23.2214 14.0894 23.2063 13.8045 23.3038C13.4221 22.569 13.1298 22.4041 12.4175 22.5465C12.32 22.2092 12.1326 21.9468 11.7952 21.8118C11.4653 21.6844 11.1204 21.6845 10.8655 21.9169C10.6256 22.1343 10.4457 22.4266 10.2283 22.704C9.88339 22.509 9.50105 22.2992 9.13368 22.0668C9.0887 22.0443 9.08868 21.9018 9.11117 21.8343C9.55351 20.5748 10.0034 19.3152 10.4532 18.0557C10.5132 17.8982 10.5282 17.6734 10.6482 17.5984C10.7606 17.5235 10.978 17.5834 11.1429 17.5984C12.4699 17.7109 13.8045 17.8233 15.1315 17.9433C15.274 17.9583 15.4089 17.9957 15.5964 18.0332L15.5738 18.0256Z" fill="#0671B8"/>
<path d="M20.1547 18.1159C19.3899 17.801 18.6402 17.5236 17.9205 17.1862C17.3357 16.9088 16.8334 16.9613 16.3611 17.3887C16.3086 17.4337 16.241 17.4711 16.196 17.5236C16.0836 17.651 15.9562 17.6434 15.7913 17.621C14.9666 17.501 14.1418 17.3961 13.3096 17.2911C13.1372 17.2686 12.9573 17.2611 12.7773 17.2461C12.7623 17.2161 12.7548 17.1937 12.7548 17.1787C12.7548 16.2641 12.7248 15.3568 12.7698 14.4421C12.8598 12.6203 14.3293 11.1659 16.1811 11.0085C17.958 10.8585 19.6523 12.0881 20.0572 13.835C20.1247 14.1199 20.1547 14.4122 20.1622 14.7046C20.1772 15.7842 20.1622 16.8714 20.1622 17.951C20.1622 17.9885 20.1621 18.0334 20.1471 18.1084L20.1547 18.1159Z" fill="#FFB422"/>
<path d="M22.3739 17.7487C22.8537 19.0982 23.3335 20.4402 23.8283 21.8197C23.4535 21.9696 23.1011 22.1196 22.7338 22.2471C22.3514 22.3745 21.9765 22.2846 21.6466 22.0897C21.2117 21.8347 20.7844 21.5573 20.3721 21.2649C20.0497 21.04 19.7198 20.875 19.2999 20.92C19.1725 20.935 19.0226 20.8749 18.8951 20.815C18.3628 20.5601 17.8305 20.2978 17.3132 20.0204C16.9608 19.833 16.6534 19.8554 16.346 20.1178C16.2036 20.2452 16.0462 20.3577 15.8962 20.4776C15.5663 20.7475 15.1764 20.8826 14.7566 20.9275C14.3143 20.98 13.9693 20.77 13.6619 20.4851C13.6169 20.4401 13.6095 20.2978 13.6395 20.2303C13.6995 20.1254 13.8044 20.0353 13.9019 19.9529C14.8016 19.2181 15.7162 18.4984 16.6009 17.7487C16.9533 17.4488 17.2907 17.3963 17.718 17.5913C18.4527 17.9286 19.21 18.221 19.9672 18.5209C20.0872 18.5659 20.2521 18.5659 20.3721 18.5209C20.9644 18.3035 21.5491 18.056 22.1414 17.8235C22.2089 17.8011 22.2764 17.7787 22.3589 17.7412L22.3739 17.7487Z" fill="#0671B8"/>
<path d="M25.7177 16.6989C25.6652 16.549 25.6202 16.4365 25.5827 16.3241C25.3353 15.6343 24.9005 15.432 24.2107 15.6794C23.7909 15.8294 23.3785 15.9792 22.9661 16.1291C22.3214 16.3541 22.1489 16.624 22.2089 17.3288C21.6991 17.5312 21.1743 17.7412 20.6345 17.9586C20.6345 17.8612 20.627 17.7861 20.627 17.7112C20.627 16.774 20.6345 15.8293 20.627 14.8922C20.627 14.5098 20.5445 14.1274 20.5145 13.7451C20.5145 13.6551 20.5296 13.5427 20.582 13.4753C21.2793 12.5606 22.5163 12.1707 23.6559 12.4931C24.773 12.8079 25.6427 13.8051 25.7327 14.9297C25.7777 15.4995 25.7402 16.0842 25.7402 16.6989H25.7177Z" fill="#FFB422"/>
<path d="M7.20681 16.6688C7.20681 15.934 7.07184 15.1917 7.28927 14.4794C7.63414 13.3698 8.38395 12.6651 9.52354 12.4402C10.6406 12.2153 11.5928 12.5827 12.335 13.4524C12.4025 13.5274 12.4175 13.6698 12.41 13.7747C12.3875 14.1046 12.3125 14.4345 12.305 14.7719C12.29 15.5067 12.305 16.2413 12.305 16.9686C12.305 17.0435 12.305 17.1186 12.305 17.2235C11.7802 17.1861 11.2778 17.156 10.7605 17.1185C10.753 17.0585 10.7381 17.006 10.7306 16.9461C10.6856 16.5787 10.4832 16.3238 10.1458 16.1963C9.61348 15.9939 9.07365 15.8065 8.53385 15.6265C8.05402 15.4691 7.58918 15.694 7.40174 16.1588C7.33427 16.3237 7.27429 16.4963 7.21431 16.6688H7.20681Z" fill="#FFB422"/>
<path d="M10.2957 17.0735C10.2807 17.126 10.2582 17.216 10.2282 17.3059C9.65844 18.8954 9.09613 20.4774 8.52633 22.0668C8.38389 22.4642 8.18147 22.5616 7.78411 22.4267C7.31178 22.2617 6.84694 22.0968 6.37461 21.9244C6.02973 21.7969 5.92482 21.5869 6.05228 21.2345C6.62957 19.6226 7.20682 18.0107 7.78411 16.3913C7.90406 16.0539 8.1215 15.949 8.45138 16.0614C8.9462 16.2339 9.44102 16.4213 9.94334 16.5937C10.1533 16.6687 10.2732 16.8036 10.2957 17.066V17.0735Z" fill="#0671B8"/>
<path d="M22.6213 17.066C22.6363 16.8335 22.7338 16.6837 22.9287 16.6162C23.461 16.4213 23.9858 16.2339 24.5181 16.0539C24.803 15.9565 25.0129 16.0764 25.1254 16.3988C25.6052 17.7408 26.0851 19.0902 26.5724 20.4323C26.6699 20.7097 26.7748 20.9796 26.8648 21.257C26.9773 21.5794 26.8798 21.7969 26.5574 21.9169C26.0626 22.0968 25.5678 22.2767 25.0654 22.4492C24.7431 22.5616 24.5256 22.449 24.4057 22.1267C23.8209 20.4997 23.2435 18.8728 22.6587 17.2459C22.6362 17.1784 22.6213 17.111 22.6138 17.066H22.6213Z" fill="#0671B8"/>
<path d="M24.0907 9.64377C24.0907 10.341 23.521 10.9033 22.8237 10.8958C22.134 10.8958 21.5716 10.3335 21.5641 9.64377C21.5641 8.95402 22.1265 8.38428 22.8237 8.38428C23.5285 8.38428 24.0832 8.93903 24.0832 9.64377H24.0907Z" fill="#FFB422"/>
<path d="M8.82623 9.65128C8.82623 8.94653 9.37357 8.39177 10.0783 8.38428C10.7756 8.38428 11.3528 8.94652 11.3453 9.63627C11.3453 10.3185 10.7831 10.8808 10.0933 10.8958C9.39607 10.9033 8.81873 10.3485 8.81873 9.65128H8.82623Z" fill="#FFB422"/>
<path d="M11.4128 24.8711C11.4502 24.7661 11.4803 24.6535 11.5327 24.5561C11.7651 24.1287 12.0051 23.7014 12.245 23.2741C12.4325 22.9517 12.7398 22.8468 13.0322 23.0043C13.3096 23.1542 13.3921 23.4841 13.2271 23.799C12.9797 24.2564 12.7323 24.7061 12.4699 25.1559C12.3274 25.3958 12.0801 25.4934 11.8326 25.4184C11.5852 25.3509 11.4277 25.1335 11.4128 24.8711Z" fill="#0671B8"/>
<path d="M10.6556 24.7286C10.2358 24.6911 9.93579 24.2862 10.1082 23.9263C10.3631 23.4015 10.6555 22.8992 10.9554 22.3969C11.0979 22.1569 11.4128 22.1045 11.6527 22.2319C11.9076 22.3669 12.0351 22.6667 11.9076 22.9216C11.6452 23.4389 11.3603 23.9488 11.0529 24.4436C10.9779 24.5711 10.7906 24.6311 10.6556 24.7211V24.7286Z" fill="#0671B8"/>
<path d="M14.7566 27C14.3217 26.955 14.0369 26.5427 14.2168 26.1754C14.4717 25.6655 14.7491 25.1707 15.0415 24.6834C15.1914 24.436 15.4988 24.376 15.7537 24.5035C16.0011 24.6309 16.136 24.9383 16.0086 25.1932C15.7462 25.7105 15.4614 26.2203 15.154 26.7152C15.079 26.8426 14.8915 26.9025 14.7566 26.9925V27Z" fill="#0671B8"/>
<path d="M13.3772 26.2356C12.9498 26.1906 12.6649 25.7932 12.8448 25.4333C13.0997 24.916 13.3846 24.4137 13.6845 23.9188C13.8269 23.6789 14.1494 23.6265 14.3893 23.7539C14.6292 23.8814 14.7716 24.1812 14.6442 24.4286C14.3743 24.9609 14.0818 25.4858 13.7669 25.9956C13.692 26.1156 13.5046 26.1604 13.3697 26.2429L13.3772 26.2356Z" fill="#0671B8"/>
</svg>
