<svg width="85" height="27" viewBox="0 0 85 27" fill="none" xmlns="http://www.w3.org/2000/svg">
<path d="M0.607844 9.78223V1.05495H3.55671C4.24137 1.05495 4.80103 1.17853 5.23568 1.42569C5.67318 1.67001 5.99705 2.00098 6.20728 2.41859C6.4175 2.8362 6.52262 3.30211 6.52262 3.81632C6.52262 4.33052 6.4175 4.79785 6.20728 5.21831C5.99989 5.63876 5.67887 5.97399 5.24421 6.22399C4.80955 6.47115 4.25273 6.59473 3.57375 6.59473H1.46012V5.65723H3.53966C4.00841 5.65723 4.38483 5.57626 4.66892 5.41433C4.95301 5.2524 5.15898 5.03365 5.28682 4.75808C5.4175 4.47967 5.48284 4.16575 5.48284 3.81632C5.48284 3.46689 5.4175 3.15439 5.28682 2.87882C5.15898 2.60325 4.95159 2.38734 4.66466 2.23109C4.37773 2.072 3.99705 1.99245 3.52262 1.99245H1.66466V9.78223H0.607844ZM8.08867 9.78223V3.23677H9.06026V4.22541H9.12844C9.24776 3.90154 9.46367 3.63876 9.77617 3.43706C10.0887 3.23535 10.4409 3.1345 10.833 3.1345C10.9068 3.1345 10.9992 3.13592 11.11 3.13876C11.2208 3.1416 11.3046 3.14586 11.3614 3.15154V4.17427C11.3273 4.16575 11.2492 4.15296 11.127 4.13592C11.0077 4.11603 10.8813 4.10609 10.7478 4.10609C10.4296 4.10609 10.1455 4.17285 9.89549 4.30637C9.64833 4.43706 9.4523 4.61887 9.30742 4.85183C9.16537 5.08194 9.09435 5.34473 9.09435 5.64018V9.78223H8.08867ZM12.5535 9.78223V3.23677H13.5592V9.78223H12.5535ZM13.0649 2.14586C12.8689 2.14586 12.6998 2.0791 12.5578 1.94558C12.4186 1.81206 12.349 1.65154 12.349 1.46404C12.349 1.27654 12.4186 1.11603 12.5578 0.98251C12.6998 0.848988 12.8689 0.782227 13.0649 0.782227C13.2609 0.782227 13.4285 0.848988 13.5677 0.98251C13.7098 1.11603 13.7808 1.27654 13.7808 1.46404C13.7808 1.65154 13.7098 1.81206 13.5677 1.94558C13.4285 2.0791 13.2609 2.14586 13.0649 2.14586ZM15.4012 9.78223V3.23677H16.3728V4.2595H16.458C16.5943 3.91007 16.8145 3.63876 17.1185 3.44558C17.4225 3.24956 17.7875 3.15154 18.2137 3.15154C18.6455 3.15154 19.0049 3.24956 19.2918 3.44558C19.5816 3.63876 19.8074 3.91007 19.9693 4.2595H20.0375C20.2051 3.92143 20.4566 3.65297 20.7918 3.4541C21.127 3.2524 21.529 3.15154 21.9978 3.15154C22.583 3.15154 23.0617 3.33478 23.4338 3.70126C23.806 4.0649 23.9921 4.63166 23.9921 5.40154V9.78223H22.9864V5.40154C22.9864 4.91859 22.8543 4.57342 22.5901 4.36603C22.3259 4.15865 22.0148 4.05495 21.6568 4.05495C21.1966 4.05495 20.8401 4.19416 20.5872 4.47257C20.3344 4.74814 20.208 5.09757 20.208 5.52086V9.78223H19.1853V5.29927C19.1853 4.92711 19.0645 4.6274 18.823 4.40012C18.5816 4.17001 18.2705 4.05495 17.8898 4.05495C17.6284 4.05495 17.3841 4.12456 17.1568 4.26376C16.9324 4.40297 16.7506 4.59615 16.6114 4.84331C16.475 5.08762 16.4068 5.37029 16.4068 5.69132V9.78223H15.4012ZM27.757 9.93564C27.3422 9.93564 26.9658 9.85751 26.6277 9.70126C26.2897 9.54217 26.0212 9.31348 25.8223 9.01518C25.6235 8.71404 25.524 8.35041 25.524 7.92427C25.524 7.54927 25.5979 7.24529 25.7456 7.01234C25.8934 6.77654 26.0908 6.59189 26.338 6.45836C26.5851 6.32484 26.8578 6.22541 27.1561 6.16007C27.4573 6.09189 27.7598 6.03791 28.0638 5.99814C28.4615 5.947 28.784 5.90865 29.0311 5.88308C29.2811 5.85467 29.463 5.80779 29.5766 5.74245C29.6931 5.67711 29.7513 5.56348 29.7513 5.40154V5.36745C29.7513 4.947 29.6363 4.62029 29.4061 4.38734C29.1789 4.15439 28.8337 4.03791 28.3706 4.03791C27.8905 4.03791 27.5141 4.14302 27.2414 4.35325C26.9686 4.56348 26.7769 4.78791 26.6661 5.02654L25.7115 4.68564C25.882 4.28791 26.1093 3.97825 26.3934 3.75666C26.6803 3.53223 26.9928 3.37598 27.3309 3.28791C27.6718 3.197 28.007 3.15154 28.3365 3.15154C28.5468 3.15154 28.7882 3.17711 29.061 3.22825C29.3365 3.27654 29.6022 3.3774 29.8578 3.53081C30.1164 3.68422 30.3309 3.91575 30.5013 4.22541C30.6718 4.53507 30.757 4.94984 30.757 5.46973V9.78223H29.7513V8.89586H29.7002C29.632 9.03791 29.5184 9.1899 29.3593 9.35183C29.2002 9.51376 28.9885 9.65154 28.7243 9.76518C28.4601 9.87882 28.1377 9.93564 27.757 9.93564ZM27.9104 9.03223C28.3081 9.03223 28.6434 8.9541 28.9161 8.79785C29.1917 8.6416 29.399 8.4399 29.5382 8.19274C29.6803 7.94558 29.7513 7.68564 29.7513 7.41291V6.49245C29.7087 6.54359 29.6149 6.59047 29.4701 6.63308C29.328 6.67285 29.1632 6.70836 28.9757 6.73961C28.7911 6.76802 28.6107 6.79359 28.4345 6.81632C28.2613 6.8362 28.1206 6.85325 28.0127 6.86745C27.7513 6.90154 27.507 6.95694 27.2797 7.03365C27.0553 7.10751 26.8735 7.21973 26.7343 7.37029C26.5979 7.51802 26.5297 7.71973 26.5297 7.97541C26.5297 8.32484 26.659 8.58904 26.9175 8.76802C27.1789 8.94416 27.5098 9.03223 27.9104 9.03223ZM32.5926 9.78223V3.23677H33.5642V4.22541H33.6323C33.7517 3.90154 33.9676 3.63876 34.2801 3.43706C34.5926 3.23535 34.9448 3.1345 35.3369 3.1345C35.4108 3.1345 35.5031 3.13592 35.6139 3.13876C35.7247 3.1416 35.8085 3.14586 35.8653 3.15154V4.17427C35.8312 4.16575 35.7531 4.15296 35.6309 4.13592C35.5116 4.11603 35.3852 4.10609 35.2517 4.10609C34.9335 4.10609 34.6494 4.17285 34.3994 4.30637C34.1522 4.43706 33.9562 4.61887 33.8113 4.85183C33.6693 5.08194 33.5983 5.34473 33.5983 5.64018V9.78223H32.5926ZM37.9044 12.2368C37.7339 12.2368 37.5819 12.2226 37.4484 12.1942C37.3149 12.1686 37.2225 12.143 37.1714 12.1175L37.4271 11.2311C37.6714 11.2936 37.8873 11.3163 38.0748 11.2993C38.2623 11.2822 38.4285 11.1984 38.5734 11.0479C38.7211 10.9001 38.8561 10.6601 38.9782 10.3277L39.1657 9.81632L36.7453 3.23677H37.8362L39.643 8.45268H39.7112L41.518 3.23677H42.6089L39.8305 10.7368C39.7055 11.0748 39.5507 11.3547 39.366 11.5763C39.1814 11.8007 38.9669 11.9669 38.7225 12.0748C38.4811 12.1828 38.2083 12.2368 37.9044 12.2368ZM54.8113 5.41859C54.8113 6.33904 54.6451 7.1345 54.3127 7.80495C53.9804 8.47541 53.5244 8.99245 52.9448 9.35609C52.3653 9.71973 51.7034 9.90154 50.9591 9.90154C50.2147 9.90154 49.5528 9.71973 48.9733 9.35609C48.3937 8.99245 47.9377 8.47541 47.6054 7.80495C47.273 7.1345 47.1068 6.33904 47.1068 5.41859C47.1068 4.49814 47.273 3.70268 47.6054 3.03223C47.9377 2.36177 48.3937 1.84473 48.9733 1.48109C49.5528 1.11745 50.2147 0.935635 50.9591 0.935635C51.7034 0.935635 52.3653 1.11745 52.9448 1.48109C53.5244 1.84473 53.9804 2.36177 54.3127 3.03223C54.6451 3.70268 54.8113 4.49814 54.8113 5.41859ZM53.7886 5.41859C53.7886 4.66291 53.6622 4.02512 53.4093 3.50524C53.1593 2.98535 52.8198 2.59189 52.3909 2.32484C51.9647 2.05779 51.4875 1.92427 50.9591 1.92427C50.4306 1.92427 49.9519 2.05779 49.523 2.32484C49.0968 2.59189 48.7573 2.98535 48.5045 3.50524C48.2545 4.02512 48.1295 4.66291 48.1295 5.41859C48.1295 6.17427 48.2545 6.81206 48.5045 7.33194C48.7573 7.85183 49.0968 8.24529 49.523 8.51234C49.9519 8.77939 50.4306 8.91291 50.9591 8.91291C51.4875 8.91291 51.9647 8.77939 52.3909 8.51234C52.8198 8.24529 53.1593 7.85183 53.4093 7.33194C53.6622 6.81206 53.7886 6.17427 53.7886 5.41859ZM56.4519 9.78223V3.23677H57.4235V4.22541H57.4917C57.611 3.90154 57.8269 3.63876 58.1394 3.43706C58.4519 3.23535 58.8042 3.1345 59.1963 3.1345C59.2701 3.1345 59.3625 3.13592 59.4733 3.13876C59.5841 3.1416 59.6679 3.14586 59.7247 3.15154V4.17427C59.6906 4.16575 59.6125 4.15296 59.4903 4.13592C59.371 4.11603 59.2446 4.10609 59.111 4.10609C58.7929 4.10609 58.5088 4.17285 58.2588 4.30637C58.0116 4.43706 57.8156 4.61887 57.6707 4.85183C57.5287 5.08194 57.4576 5.34473 57.4576 5.64018V9.78223H56.4519ZM63.1892 9.91859C62.6437 9.91859 62.1622 9.78081 61.7446 9.50524C61.3269 9.22683 61.0002 8.83478 60.7644 8.3291C60.5287 7.82058 60.4108 7.21973 60.4108 6.52654C60.4108 5.83904 60.5287 5.24245 60.7644 4.73677C61.0002 4.23109 61.3284 3.84047 61.7488 3.5649C62.1693 3.28933 62.6551 3.15154 63.2062 3.15154C63.6323 3.15154 63.969 3.22257 64.2162 3.36461C64.4662 3.50382 64.6565 3.66291 64.7872 3.84189C64.9207 4.01802 65.0244 4.16291 65.0983 4.27654H65.1835V1.05495H66.1892V9.78223H65.2176V8.77654H65.0983C65.0244 8.89586 64.9193 9.04643 64.7829 9.22825C64.6466 9.40723 64.4519 9.56774 64.1991 9.70978C63.9463 9.84899 63.6096 9.91859 63.1892 9.91859ZM63.3255 9.01518C63.7289 9.01518 64.0698 8.91007 64.3483 8.69984C64.6267 8.48677 64.8383 8.19274 64.9832 7.81774C65.1281 7.4399 65.2005 7.00382 65.2005 6.5095C65.2005 6.02086 65.1295 5.59331 64.9875 5.22683C64.8454 4.85751 64.6352 4.57058 64.3568 4.36603C64.0784 4.15865 63.7346 4.05495 63.3255 4.05495C62.8994 4.05495 62.5443 4.16433 62.2602 4.38308C61.9789 4.59899 61.7673 4.89302 61.6252 5.26518C61.486 5.6345 61.4164 6.04927 61.4164 6.5095C61.4164 6.97541 61.4875 7.3987 61.6295 7.77939C61.7744 8.15723 61.9875 8.45836 62.2687 8.68279C62.5528 8.90439 62.9051 9.01518 63.3255 9.01518ZM70.915 9.91859C70.2843 9.91859 69.7403 9.77939 69.2829 9.50098C68.8284 9.21973 68.4775 8.82768 68.2304 8.32484C67.986 7.81916 67.8639 7.23109 67.8639 6.56064C67.8639 5.89018 67.986 5.29927 68.2304 4.78791C68.4775 4.2737 68.8213 3.87314 69.2616 3.5862C69.7048 3.29643 70.2218 3.15154 70.8127 3.15154C71.1537 3.15154 71.4903 3.20836 71.8227 3.322C72.1551 3.43564 72.4576 3.62029 72.7304 3.87598C73.0031 4.12882 73.2204 4.46404 73.3823 4.88166C73.5443 5.29927 73.6252 5.81348 73.6252 6.42427V6.85041H68.5798V5.98109H72.6025C72.6025 5.61177 72.5287 5.28223 72.3809 4.99245C72.236 4.70268 72.0287 4.47399 71.7588 4.30637C71.4917 4.13876 71.1764 4.05495 70.8127 4.05495C70.4122 4.05495 70.0656 4.15439 69.773 4.35325C69.4832 4.54927 69.2602 4.80495 69.1039 5.12029C68.9477 5.43564 68.8696 5.7737 68.8696 6.1345V6.71404C68.8696 7.20836 68.9548 7.6274 69.1252 7.97115C69.2985 8.31206 69.5386 8.572 69.8454 8.75098C70.1522 8.92711 70.5088 9.01518 70.915 9.01518C71.1792 9.01518 71.4179 8.97825 71.6309 8.90439C71.8468 8.82768 72.0329 8.71404 72.1892 8.56348C72.3454 8.41007 72.4662 8.21973 72.5514 7.99245L73.523 8.26518C73.4207 8.59473 73.2488 8.8845 73.0073 9.1345C72.7659 9.38166 72.4676 9.57484 72.1125 9.71404C71.7573 9.85041 71.3582 9.91859 70.915 9.91859ZM75.1551 9.78223V3.23677H76.1267V4.22541H76.1948C76.3142 3.90154 76.5301 3.63876 76.8426 3.43706C77.1551 3.23535 77.5073 3.1345 77.8994 3.1345C77.9733 3.1345 78.0656 3.13592 78.1764 3.13876C78.2872 3.1416 78.371 3.14586 78.4278 3.15154V4.17427C78.3937 4.16575 78.3156 4.15296 78.1934 4.13592C78.0741 4.11603 77.9477 4.10609 77.8142 4.10609C77.496 4.10609 77.2119 4.17285 76.9619 4.30637C76.7147 4.43706 76.5187 4.61887 76.3738 4.85183C76.2318 5.08194 76.1608 5.34473 76.1608 5.64018V9.78223H75.1551ZM84.2563 4.70268L83.3529 4.95836C83.2961 4.80779 83.2122 4.66149 83.1015 4.51944C82.9935 4.37456 82.8458 4.25524 82.6583 4.16149C82.4708 4.06774 82.2307 4.02086 81.9381 4.02086C81.5375 4.02086 81.2037 4.11319 80.9367 4.29785C80.6725 4.47967 80.5404 4.7112 80.5404 4.99245C80.5404 5.24245 80.6313 5.4399 80.8131 5.58478C80.9949 5.72967 81.279 5.85041 81.6654 5.947L82.637 6.18564C83.2222 6.32768 83.6583 6.54501 83.9452 6.83762C84.2321 7.1274 84.3756 7.50098 84.3756 7.95836C84.3756 8.33336 84.2676 8.66859 84.0517 8.96404C83.8387 9.2595 83.5404 9.49245 83.1568 9.66291C82.7733 9.83336 82.3273 9.91859 81.8188 9.91859C81.1512 9.91859 80.5986 9.7737 80.1611 9.48393C79.7236 9.19416 79.4466 8.77086 79.3301 8.21404L80.2847 7.97541C80.3756 8.32768 80.5475 8.59189 80.8003 8.76802C81.056 8.94416 81.3898 9.03223 81.8017 9.03223C82.2705 9.03223 82.6426 8.93279 82.9182 8.73393C83.1966 8.53223 83.3358 8.29075 83.3358 8.0095C83.3358 7.78223 83.2563 7.59189 83.0972 7.43848C82.9381 7.28223 82.6938 7.16575 82.3642 7.08904L81.2733 6.83336C80.6739 6.69132 80.2336 6.47115 79.9523 6.17285C79.6739 5.87172 79.5347 5.49529 79.5347 5.04359C79.5347 4.67427 79.6384 4.34757 79.8458 4.06348C80.056 3.77939 80.3415 3.55637 80.7023 3.39444C81.0659 3.23251 81.4779 3.15154 81.9381 3.15154C82.5858 3.15154 83.0943 3.29359 83.4637 3.57768C83.8358 3.86177 84.1 4.23677 84.2563 4.70268ZM26.306 21.1004C26.306 20.0265 26.4452 19.0393 26.7236 18.1388C27.0049 17.2354 27.4054 16.4044 27.9253 15.6459H28.8117C28.6071 15.9271 28.4154 16.2737 28.2364 16.6856C28.0603 17.0947 27.9054 17.545 27.7719 18.0365C27.6384 18.5251 27.5333 19.0308 27.4566 19.5535C27.3827 20.0763 27.3458 20.5919 27.3458 21.1004C27.3458 21.7765 27.4111 22.4626 27.5418 23.1586C27.6725 23.8547 27.8486 24.501 28.0702 25.0976C28.2918 25.6942 28.539 26.18 28.8117 26.555H27.9253C27.4054 25.7964 27.0049 24.9669 26.7236 24.0663C26.4452 23.1629 26.306 22.1743 26.306 21.1004ZM37.3525 16.055V24.7822H36.3298L31.5741 17.93H31.4889V24.7822H30.4321V16.055H31.4548L36.2275 22.9243H36.3127V16.055H37.3525ZM42.0752 24.9186C41.4445 24.9186 40.9005 24.7794 40.4431 24.501C39.9885 24.2197 39.6377 23.8277 39.3905 23.3248C39.1462 22.8192 39.024 22.2311 39.024 21.5606C39.024 20.8902 39.1462 20.2993 39.3905 19.7879C39.6377 19.2737 39.9814 18.8731 40.4218 18.5862C40.8649 18.2964 41.382 18.1515 41.9729 18.1515C42.3138 18.1515 42.6505 18.2084 42.9828 18.322C43.3152 18.4356 43.6178 18.6203 43.8905 18.876C44.1632 19.1288 44.3806 19.464 44.5425 19.8817C44.7044 20.2993 44.7854 20.8135 44.7854 21.4243V21.8504H39.7399V20.9811H43.7627C43.7627 20.6118 43.6888 20.2822 43.5411 19.9925C43.3962 19.7027 43.1888 19.474 42.9189 19.3064C42.6519 19.1388 42.3365 19.055 41.9729 19.055C41.5723 19.055 41.2257 19.1544 40.9331 19.3532C40.6434 19.5493 40.4203 19.805 40.2641 20.1203C40.1078 20.4356 40.0297 20.7737 40.0297 21.1345V21.714C40.0297 22.2084 40.1149 22.6274 40.2854 22.9711C40.4587 23.3121 40.6988 23.572 41.0056 23.751C41.3124 23.9271 41.6689 24.0152 42.0752 24.0152C42.3394 24.0152 42.578 23.9782 42.7911 23.9044C43.007 23.8277 43.1931 23.714 43.3493 23.5635C43.5056 23.4101 43.6263 23.2197 43.7115 22.9925L44.6831 23.2652C44.5809 23.5947 44.409 23.8845 44.1675 24.1345C43.926 24.3817 43.6277 24.5748 43.2726 24.714C42.9175 24.8504 42.5184 24.9186 42.0752 24.9186ZM47.7982 24.7822L45.8039 18.2368H46.8607L48.2755 23.2481H48.3436L49.7414 18.2368H50.8152L52.1959 23.2311H52.2641L53.6789 18.2368H54.7357L52.7414 24.7822H51.7527L50.3209 19.7538H50.2186L48.7868 24.7822H47.7982ZM58.213 21.1004C58.213 22.1743 58.0723 23.1629 57.7911 24.0663C57.5127 24.9669 57.1135 25.7964 56.5936 26.555H55.7073C55.9118 26.2737 56.1022 25.9271 56.2783 25.5152C56.4573 25.1061 56.6135 24.6572 56.747 24.1686C56.8806 23.6771 56.9843 23.17 57.0581 22.6473C57.1348 22.1217 57.1732 21.6061 57.1732 21.1004C57.1732 20.4243 57.1078 19.7382 56.9772 19.0422C56.8465 18.3461 56.6703 17.6998 56.4488 17.1032C56.2272 16.5067 55.98 16.0209 55.7073 15.6459H56.5936C57.1135 16.4044 57.5127 17.2354 57.7911 18.1388C58.0723 19.0393 58.213 20.0265 58.213 21.1004Z" fill="black"/>
</svg>
