<svg width="32" height="32" viewBox="0 0 32 32" fill="none" xmlns="http://www.w3.org/2000/svg">
<path d="M9.50623 23.8323V9.51115C9.75341 9.51115 9.98514 9.51115 10.2169 9.51115C11.1206 9.51115 12.0244 9.51115 12.9282 9.51115C13.0749 9.51115 13.1599 9.54203 13.2371 9.68107C14.2568 11.4654 16.7827 11.4654 17.81 9.68107C17.8641 9.58837 17.9027 9.50342 18.0495 9.50342C19.1772 9.50342 20.3128 9.50342 21.4405 9.50342C21.4714 9.50342 21.5023 9.50343 21.5409 9.51888V17.8998C21.1702 18.0543 20.7762 18.178 20.4209 18.3711C20.166 18.5101 19.9188 18.5565 19.6407 18.5565C16.6127 18.5565 13.577 18.5565 10.549 18.5565H10.2555V19.298H19.1309C18.9301 19.5606 18.7679 19.7923 18.5825 20.0086C18.5438 20.0549 18.428 20.0627 18.3507 20.0627C16.0952 20.0627 13.8474 20.0627 11.5918 20.0627C11.1515 20.0627 10.7113 20.0627 10.2632 20.0627V20.8119H18.1499C18.0649 21.0746 17.9954 21.3063 17.9104 21.5689H10.2632V22.3182H17.756C17.8023 22.8357 17.8409 23.3302 17.8796 23.8246H9.50623V23.8323ZM20.7917 12.5468H10.271V13.2729H20.7917V12.5468ZM20.7917 14.053H10.271V14.7791H20.7917V14.053ZM10.2632 16.2855H20.7917V15.5593H10.2632V16.2855ZM10.2632 17.7918H20.7839V17.0657H10.2632V17.7918Z" fill="#0671B8"/>
<path d="M8 26.0802V6.50635H11.3833C11.3833 6.8076 11.3833 7.11654 11.3833 7.43325C11.3833 7.90444 11.4837 8.00504 11.9395 8.00504C12.233 8.00504 12.5188 8.00504 12.8123 8.00504C12.8278 8.00504 12.8432 8.00486 12.8819 8.02031V8.75429C12.8123 8.75429 12.7274 8.75429 12.6424 8.75429C11.5146 8.75429 10.3791 8.75429 9.25136 8.75429C8.86514 8.75429 8.74155 8.8778 8.74155 9.2563C8.74155 14.1922 8.74155 19.1358 8.74155 24.0718C8.74155 24.4657 8.85741 24.5817 9.26681 24.5817C12.1558 24.5817 15.0447 24.5817 17.9337 24.5817C18.1113 24.5817 18.1808 24.6435 18.2658 24.7903C18.5207 25.2306 18.7988 25.6553 19.0692 26.0725H8V26.0802Z" fill="#0671B8"/>
<path d="M23.0474 17.8073H22.3136V17.5292C22.3136 14.8102 22.3136 12.0988 22.3136 9.37982C22.3136 8.83911 22.2363 8.76202 21.6802 8.76202C20.5987 8.76202 19.5173 8.76202 18.4282 8.76202C18.3432 8.76202 18.2582 8.76202 18.1655 8.76202V8.00504C18.5209 8.00504 18.853 8.00504 19.1852 8.00504C19.5405 8.00504 19.6718 7.87363 19.6718 7.52603C19.6718 7.19388 19.6718 6.85395 19.6718 6.50635H23.0474V17.8073Z" fill="#0671B8"/>
<path d="M12.1404 7.23248V5H18.8916V7.23248H12.1404ZM12.8897 6.4753H13.6158V5.74925H12.8897V6.4753ZM18.1346 6.49077V5.75698H17.4162V6.49077H18.1346Z" fill="#FFB422"/>
<path d="M13.6697 8.74626V8.02002H17.3852V8.74626H13.6697Z" fill="#FFB422"/>
<path d="M16.9758 9.52637C16.3347 10.4842 14.7512 10.5151 14.0714 9.52637H16.9758Z" fill="#FFB422"/>
<path d="M16.0103 17.8071V18.5641H20.784V19.2979H16.0103V20.0703H20.784V20.8196H16.0103V21.5843H20.784V22.3258H16.0103V23.8322H21.541V17.8071H16.0103Z" fill="#0671B8"/>
<path d="M22.3057 17.8071V24.5892H17.4393V26.08H23.0473V17.8071H22.3057Z" fill="#0671B8"/>
</svg>
