<svg width="90" height="27" viewBox="0 0 90 27" fill="none" xmlns="http://www.w3.org/2000/svg">
<path d="M6.11422 9.17676V0.420394H9.07291C9.75985 0.420394 10.3214 0.544385 10.7575 0.792368C11.1964 1.0375 11.5214 1.36957 11.7323 1.78858C11.9432 2.20758 12.0487 2.67504 12.0487 3.19096C12.0487 3.70688 11.9432 4.17577 11.7323 4.59762C11.5242 5.01948 11.2021 5.35582 10.766 5.60666C10.3299 5.85464 9.77126 5.97863 9.09002 5.97863H6.96933V5.03801H9.05581C9.52612 5.03801 9.9038 4.95677 10.1888 4.7943C10.4739 4.63183 10.6805 4.41235 10.8088 4.13586C10.9399 3.85653 11.0055 3.54156 11.0055 3.19096C11.0055 2.84037 10.9399 2.52682 10.8088 2.25034C10.6805 1.97385 10.4724 1.75722 10.1846 1.60045C9.89667 1.44083 9.51472 1.36102 9.03871 1.36102H7.17456V9.17676H6.11422ZM13.62 9.17676V2.60948H14.5948V3.60142H14.6632C14.7829 3.27647 14.9996 3.01281 15.3131 2.81044C15.6266 2.60806 15.9801 2.50687 16.3734 2.50687C16.4476 2.50687 16.5402 2.5083 16.6514 2.51115C16.7625 2.514 16.8466 2.51827 16.9036 2.52397V3.55011C16.8694 3.54156 16.791 3.52873 16.6685 3.51163C16.5487 3.49168 16.4219 3.4817 16.2879 3.4817C15.9687 3.4817 15.6837 3.54868 15.4328 3.68265C15.1848 3.81377 14.9882 3.99619 14.8428 4.22993C14.7003 4.46081 14.629 4.72447 14.629 5.02091V9.17676H13.62ZM18.0997 9.17676V2.60948H19.1087V9.17676H18.0997ZM18.6128 1.51494C18.4161 1.51494 18.2465 1.44796 18.104 1.31399C17.9643 1.18002 17.8945 1.01897 17.8945 0.830849C17.8945 0.642724 17.9643 0.481677 18.104 0.347709C18.2465 0.213742 18.4161 0.146758 18.6128 0.146758C18.8095 0.146758 18.9776 0.213742 19.1173 0.347709C19.2598 0.481677 19.3311 0.642724 19.3311 0.830849C19.3311 1.01897 19.2598 1.18002 19.1173 1.31399C18.9776 1.44796 18.8095 1.51494 18.6128 1.51494ZM20.9569 9.17676V2.60948H21.9317V3.63562H22.0172C22.154 3.28502 22.3749 3.01281 22.6799 2.81899C22.9849 2.62231 23.3512 2.52397 23.7787 2.52397C24.212 2.52397 24.5726 2.62231 24.8604 2.81899C25.1512 3.01281 25.3778 3.28502 25.5403 3.63562H25.6087C25.7768 3.29643 26.0291 3.02707 26.3654 2.82754C26.7018 2.62516 27.1051 2.52397 27.5754 2.52397C28.1626 2.52397 28.6429 2.70782 29.0163 3.07552C29.3897 3.44037 29.5764 4.00902 29.5764 4.78147V9.17676H28.5674V4.78147C28.5674 4.29691 28.4348 3.95059 28.1697 3.74251C27.9047 3.53443 27.5925 3.43039 27.2334 3.43039C26.7716 3.43039 26.4139 3.57006 26.1602 3.8494C25.9065 4.12589 25.7797 4.47648 25.7797 4.90119V9.17676H24.7536V4.67886C24.7536 4.30546 24.6324 4.00475 24.3901 3.77672C24.1479 3.54583 23.8357 3.43039 23.4538 3.43039C23.1916 3.43039 22.9464 3.50023 22.7184 3.6399C22.4932 3.77957 22.3108 3.97339 22.1711 4.22137C22.0343 4.46651 21.9659 4.75012 21.9659 5.07221V9.17676H20.9569ZM33.3539 9.33068C32.9377 9.33068 32.56 9.25229 32.2208 9.09552C31.8816 8.9359 31.6123 8.70645 31.4128 8.40716C31.2132 8.10502 31.1135 7.74017 31.1135 7.31261C31.1135 6.93636 31.1876 6.63137 31.3358 6.39764C31.484 6.16106 31.6821 5.97578 31.9301 5.84181C32.1781 5.70785 32.4517 5.60808 32.751 5.54252C33.0531 5.47412 33.3567 5.41996 33.6617 5.38005C34.0608 5.32875 34.3843 5.29027 34.6323 5.26461C34.8831 5.23611 35.0655 5.18908 35.1795 5.12352C35.2964 5.05796 35.3548 4.94395 35.3548 4.78147V4.74727C35.3548 4.32541 35.2394 3.99762 35.0085 3.76389C34.7805 3.53016 34.4342 3.41329 33.9695 3.41329C33.4878 3.41329 33.1102 3.51876 32.8365 3.72968C32.5629 3.94061 32.3705 4.16579 32.2593 4.40522L31.3016 4.06318C31.4726 3.66412 31.7006 3.35343 31.9857 3.1311C32.2736 2.90592 32.5871 2.74915 32.9263 2.66079C33.2684 2.56958 33.6047 2.52397 33.9353 2.52397C34.1463 2.52397 34.3886 2.54963 34.6622 2.60093C34.9387 2.64939 35.2052 2.75058 35.4617 2.9045C35.7211 3.05842 35.9363 3.29073 36.1073 3.60142C36.2784 3.91211 36.3639 4.32826 36.3639 4.84988V9.17676H35.3548V8.28744H35.3035C35.2351 8.42996 35.1211 8.58245 34.9615 8.74493C34.8019 8.9074 34.5895 9.04564 34.3244 9.15966C34.0593 9.27367 33.7358 9.33068 33.3539 9.33068ZM33.5078 8.42426C33.9068 8.42426 34.2432 8.34587 34.5168 8.1891C34.7933 8.03233 35.0014 7.82995 35.1411 7.58197C35.2836 7.33399 35.3548 7.07318 35.3548 6.79954V5.87602C35.3121 5.92733 35.218 5.97436 35.0726 6.01711C34.9301 6.05702 34.7648 6.09265 34.5767 6.124C34.3914 6.15251 34.2104 6.17816 34.0337 6.20096C33.8598 6.22091 33.7187 6.23802 33.6104 6.25227C33.3482 6.28647 33.103 6.34206 32.875 6.41902C32.6498 6.49313 32.4674 6.60572 32.3277 6.75679C32.1909 6.90501 32.1225 7.10738 32.1225 7.36392C32.1225 7.71451 32.2522 7.9796 32.5116 8.15917C32.7738 8.3359 33.1059 8.42426 33.5078 8.42426ZM38.2056 9.17676V2.60948H39.1804V3.60142H39.2488C39.3685 3.27647 39.5851 3.01281 39.8987 2.81044C40.2122 2.60806 40.5657 2.50687 40.959 2.50687C41.0331 2.50687 41.1258 2.5083 41.2369 2.51115C41.3481 2.514 41.4322 2.51827 41.4892 2.52397V3.55011C41.455 3.54156 41.3766 3.52873 41.254 3.51163C41.1343 3.49168 41.0075 3.4817 40.8735 3.4817C40.5543 3.4817 40.2692 3.54868 40.0184 3.68265C39.7704 3.81377 39.5737 3.99619 39.4284 4.22993C39.2859 4.46081 39.2146 4.72447 39.2146 5.02091V9.17676H38.2056ZM43.5351 11.6395C43.364 11.6395 43.2115 11.6252 43.0776 11.5967C42.9436 11.5711 42.851 11.5454 42.7997 11.5198L43.0562 10.6305C43.3013 10.6932 43.518 10.716 43.7061 10.6989C43.8942 10.6818 44.061 10.5977 44.2063 10.4466C44.3545 10.2984 44.4899 10.0575 44.6125 9.72403L44.8006 9.21096L42.3721 2.60948H43.4667L45.2795 7.84278H45.3479L47.1607 2.60948H48.2553L45.4676 10.1345C45.3422 10.4737 45.1869 10.7544 45.0016 10.9768C44.8163 11.202 44.6011 11.3687 44.356 11.477C44.1137 11.5853 43.8401 11.6395 43.5351 11.6395ZM60.4984 4.79858C60.4984 5.7221 60.3316 6.5202 59.9981 7.19289C59.6646 7.86558 59.2072 8.38435 58.6257 8.7492C58.0442 9.11405 57.3801 9.29647 56.6333 9.29647C55.8865 9.29647 55.2223 9.11405 54.6408 8.7492C54.0594 8.38435 53.6019 7.86558 53.2684 7.19289C52.9349 6.5202 52.7681 5.7221 52.7681 4.79858C52.7681 3.87505 52.9349 3.07695 53.2684 2.40426C53.6019 1.73157 54.0594 1.2128 54.6408 0.847951C55.2223 0.483102 55.8865 0.300678 56.6333 0.300678C57.3801 0.300678 58.0442 0.483102 58.6257 0.847951C59.2072 1.2128 59.6646 1.73157 59.9981 2.40426C60.3316 3.07695 60.4984 3.87505 60.4984 4.79858ZM59.4722 4.79858C59.4722 4.04038 59.3454 3.40047 59.0917 2.87885C58.8409 2.35723 58.5003 1.96245 58.0699 1.69451C57.6423 1.42658 57.1634 1.29261 56.6333 1.29261C56.1031 1.29261 55.6228 1.42658 55.1924 1.69451C54.7648 1.96245 54.4242 2.35723 54.1705 2.87885C53.9197 3.40047 53.7943 4.04038 53.7943 4.79858C53.7943 5.55678 53.9197 6.19669 54.1705 6.71831C54.4242 7.23993 54.7648 7.6347 55.1924 7.90264C55.6228 8.17057 56.1031 8.30454 56.6333 8.30454C57.1634 8.30454 57.6423 8.17057 58.0699 7.90264C58.5003 7.6347 58.8409 7.23993 59.0917 6.71831C59.3454 6.19669 59.4722 5.55678 59.4722 4.79858ZM62.1445 9.17676V2.60948H63.1193V3.60142H63.1877C63.3074 3.27647 63.5241 3.01281 63.8376 2.81044C64.1511 2.60806 64.5046 2.50687 64.8979 2.50687C64.972 2.50687 65.0647 2.5083 65.1758 2.51115C65.287 2.514 65.3711 2.51827 65.4281 2.52397V3.55011C65.3939 3.54156 65.3155 3.52873 65.193 3.51163C65.0732 3.49168 64.9464 3.4817 64.8124 3.4817C64.4932 3.4817 64.2081 3.54868 63.9573 3.68265C63.7093 3.81377 63.5127 3.99619 63.3673 4.22993C63.2248 4.46081 63.1535 4.72447 63.1535 5.02091V9.17676H62.1445ZM68.9041 9.31358C68.3569 9.31358 67.8737 9.17533 67.4547 8.89885C67.0357 8.61951 66.7079 8.22616 66.4713 7.71879C66.2348 7.20857 66.1165 6.60572 66.1165 5.91022C66.1165 5.22043 66.2348 4.62185 66.4713 4.11448C66.7079 3.60712 67.0371 3.21519 67.459 2.9387C67.8809 2.66222 68.3683 2.52397 68.9212 2.52397C69.3488 2.52397 69.6866 2.59523 69.9346 2.73775C70.1854 2.87742 70.3764 3.03704 70.5075 3.21662C70.6415 3.39334 70.7455 3.53871 70.8196 3.65272H70.9051V0.420394H71.9141V9.17676H70.9393V8.16772H70.8196C70.7455 8.28744 70.64 8.43851 70.5032 8.62093C70.3664 8.80051 70.1711 8.96155 69.9175 9.10407C69.6638 9.24374 69.326 9.31358 68.9041 9.31358ZM69.041 8.40716C69.4457 8.40716 69.7878 8.30169 70.0671 8.09076C70.3464 7.87699 70.5588 7.58197 70.7042 7.20572C70.8495 6.82662 70.9222 6.38909 70.9222 5.89312C70.9222 5.40286 70.851 4.97387 70.7084 4.60618C70.5659 4.23563 70.355 3.94774 70.0757 3.74251C69.7963 3.53443 69.4514 3.43039 69.041 3.43039C68.6134 3.43039 68.2571 3.54013 67.9721 3.75961C67.6899 3.97624 67.4775 4.27126 67.335 4.64466C67.1953 5.0152 67.1255 5.43136 67.1255 5.89312C67.1255 6.36058 67.1968 6.78529 67.3393 7.16724C67.4847 7.54634 67.6984 7.84848 67.9806 8.07366C68.2657 8.29599 68.6191 8.40716 69.041 8.40716ZM76.6557 9.31358C76.023 9.31358 75.4771 9.17391 75.0182 8.89457C74.5621 8.61238 74.2101 8.21903 73.9621 7.71451C73.717 7.20715 73.5944 6.61712 73.5944 5.94443C73.5944 5.27174 73.717 4.67886 73.9621 4.16579C74.2101 3.64987 74.555 3.24797 74.9968 2.96008C75.4415 2.66934 75.9603 2.52397 76.5531 2.52397C76.8952 2.52397 77.233 2.58098 77.5664 2.695C77.8999 2.80901 78.2035 2.99429 78.4771 3.25082C78.7508 3.5045 78.9688 3.84085 79.1313 4.25985C79.2938 4.67886 79.375 5.19478 79.375 5.80761V6.23517H74.3127V5.36295H78.3489C78.3489 4.9924 78.2748 4.66176 78.1265 4.37102C77.9812 4.08028 77.7731 3.85082 77.5023 3.68265C77.2344 3.51448 76.918 3.43039 76.5531 3.43039C76.1512 3.43039 75.8035 3.53016 75.5099 3.72968C75.2192 3.92636 74.9954 4.18289 74.8386 4.49929C74.6819 4.81568 74.6035 5.15487 74.6035 5.51687V6.09835C74.6035 6.59431 74.689 7.01475 74.86 7.35964C75.0339 7.70169 75.2747 7.9625 75.5826 8.14207C75.8904 8.31879 76.2481 8.40716 76.6557 8.40716C76.9208 8.40716 77.1603 8.3701 77.374 8.29599C77.5907 8.21903 77.7774 8.10502 77.9341 7.95395C78.0909 7.80002 78.2121 7.60905 78.2976 7.38102L79.2724 7.65466C79.1698 7.9853 78.9973 8.27604 78.7551 8.52687C78.5128 8.77485 78.2135 8.96868 77.8572 9.10835C77.5009 9.24517 77.1004 9.31358 76.6557 9.31358ZM80.9099 9.17676V2.60948H81.8848V3.60142H81.9532C82.0729 3.27647 82.2895 3.01281 82.6031 2.81044C82.9166 2.60806 83.2701 2.50687 83.6634 2.50687C83.7375 2.50687 83.8302 2.5083 83.9413 2.51115C84.0525 2.514 84.1366 2.51827 84.1936 2.52397V3.55011C84.1594 3.54156 84.081 3.52873 83.9584 3.51163C83.8387 3.49168 83.7119 3.4817 83.5779 3.4817C83.2587 3.4817 82.9736 3.54868 82.7228 3.68265C82.4748 3.81377 82.2781 3.99619 82.1328 4.22993C81.9902 4.46081 81.919 4.72447 81.919 5.02091V9.17676H80.9099ZM0.817322 24.1768V15.4204H1.87766V23.2361H5.948V24.1768H0.817322ZM10.121 24.3136C9.52808 24.3136 9.00789 24.1725 8.56038 23.8903C8.11572 23.6081 7.76797 23.2133 7.51714 22.706C7.26915 22.1986 7.14516 21.6057 7.14516 20.9273C7.14516 20.2432 7.26915 19.6461 7.51714 19.1359C7.76797 18.6256 8.11572 18.2294 8.56038 17.9473C9.00789 17.6651 9.52808 17.524 10.121 17.524C10.7138 17.524 11.2326 17.6651 11.6773 17.9473C12.1248 18.2294 12.4725 18.6256 12.7205 19.1359C12.9713 19.6461 13.0968 20.2432 13.0968 20.9273C13.0968 21.6057 12.9713 22.1986 12.7205 22.706C12.4725 23.2133 12.1248 23.6081 11.6773 23.8903C11.2326 24.1725 10.7138 24.3136 10.121 24.3136ZM10.121 23.4072C10.5713 23.4072 10.9419 23.2917 11.2326 23.0608C11.5233 22.83 11.7385 22.5264 11.8782 22.1501C12.0179 21.7739 12.0877 21.3663 12.0877 20.9273C12.0877 20.4884 12.0179 20.0793 11.8782 19.7002C11.7385 19.3211 11.5233 19.0147 11.2326 18.781C10.9419 18.5473 10.5713 18.4304 10.121 18.4304C9.6706 18.4304 9.30005 18.5473 9.00931 18.781C8.71857 19.0147 8.50337 19.3211 8.3637 19.7002C8.22403 20.0793 8.1542 20.4884 8.1542 20.9273C8.1542 21.3663 8.22403 21.7739 8.3637 22.1501C8.50337 22.5264 8.71857 22.83 9.00931 23.0608C9.30005 23.2917 9.6706 23.4072 10.121 23.4072ZM17.2879 26.7763C16.8005 26.7763 16.3815 26.7136 16.0309 26.5882C15.6803 26.4656 15.3881 26.3031 15.1544 26.1008C14.9235 25.9012 14.7396 25.6875 14.6028 25.4594L15.4066 24.8951C15.4978 25.0148 15.6133 25.1516 15.753 25.3055C15.8926 25.4623 16.0836 25.5977 16.3259 25.7117C16.571 25.8286 16.8917 25.887 17.2879 25.887C17.8181 25.887 18.2556 25.7587 18.6005 25.5022C18.9454 25.2456 19.1178 24.8437 19.1178 24.2965V22.9625H19.0323C18.9582 23.0822 18.8527 23.2304 18.7159 23.4072C18.582 23.581 18.3881 23.7364 18.1344 23.8732C17.8836 24.0072 17.5444 24.0741 17.1169 24.0741C16.5867 24.0741 16.1107 23.9487 15.6888 23.6979C15.2698 23.4471 14.9377 23.0822 14.6926 22.6033C14.4503 22.1245 14.3292 21.543 14.3292 20.8589C14.3292 20.1862 14.4475 19.6005 14.6841 19.1017C14.9206 18.6 15.2499 18.2123 15.6717 17.9387C16.0936 17.6622 16.581 17.524 17.134 17.524C17.5615 17.524 17.9007 17.5952 18.1515 17.7378C18.4052 17.8774 18.5991 18.037 18.733 18.2166C18.8698 18.3933 18.9753 18.5387 19.0494 18.6527H19.152V17.6095H20.1269V24.3649C20.1269 24.9293 19.9986 25.3882 19.7421 25.7416C19.4884 26.0979 19.1463 26.3587 18.7159 26.524C18.2884 26.6922 17.8123 26.7763 17.2879 26.7763ZM17.2537 23.1677C17.6584 23.1677 18.0005 23.0751 18.2798 22.8898C18.5591 22.7045 18.7715 22.438 18.9169 22.0903C19.0622 21.7425 19.1349 21.3264 19.1349 20.8418C19.1349 20.3687 19.0637 19.9511 18.9211 19.5891C18.7786 19.2271 18.5677 18.9435 18.2884 18.7382C18.009 18.533 17.6641 18.4304 17.2537 18.4304C16.8261 18.4304 16.4698 18.5387 16.1848 18.7553C15.9026 18.972 15.6902 19.2627 15.5477 19.6276C15.4081 19.9924 15.3382 20.3972 15.3382 20.8418C15.3382 21.2979 15.4095 21.7012 15.552 22.0518C15.6974 22.3995 15.9111 22.6732 16.1933 22.8727C16.4784 23.0694 16.8318 23.1677 17.2537 23.1677ZM21.9739 24.1768V17.6095H22.9829V24.1768H21.9739ZM22.487 16.5149C22.2903 16.5149 22.1207 16.448 21.9782 16.314C21.8385 16.18 21.7687 16.019 21.7687 15.8308C21.7687 15.6427 21.8385 15.4817 21.9782 15.3477C22.1207 15.2137 22.2903 15.1468 22.487 15.1468C22.6836 15.1468 22.8518 15.2137 22.9915 15.3477C23.134 15.4817 23.2053 15.6427 23.2053 15.8308C23.2053 16.019 23.134 16.18 22.9915 16.314C22.8518 16.448 22.6836 16.5149 22.487 16.5149ZM29.4829 19.0803L28.5764 19.3368C28.5194 19.1857 28.4354 19.0389 28.3242 18.8964C28.2159 18.7511 28.0677 18.6313 27.8795 18.5373C27.6914 18.4432 27.4505 18.3962 27.157 18.3962C26.7551 18.3962 26.4201 18.4888 26.1522 18.6741C25.8871 18.8565 25.7546 19.0888 25.7546 19.371C25.7546 19.6219 25.8458 19.82 26.0282 19.9653C26.2106 20.1107 26.4957 20.2318 26.8833 20.3287L27.8582 20.5682C28.4453 20.7107 28.8829 20.9288 29.1708 21.2223C29.4586 21.5131 29.6026 21.8879 29.6026 22.3468C29.6026 22.7231 29.4943 23.0594 29.2776 23.3558C29.0639 23.6523 28.7646 23.886 28.3798 24.057C27.995 24.2281 27.5475 24.3136 27.0372 24.3136C26.3674 24.3136 25.813 24.1682 25.374 23.8775C24.9351 23.5867 24.6572 23.162 24.5403 22.6033L25.498 22.3639C25.5893 22.7174 25.7617 22.9824 26.0154 23.1592C26.2719 23.3359 26.6068 23.4243 27.0201 23.4243C27.4905 23.4243 27.8639 23.3245 28.1403 23.125C28.4197 22.9226 28.5593 22.6803 28.5593 22.3981C28.5593 22.1701 28.4795 21.9791 28.3199 21.8252C28.1603 21.6684 27.9152 21.5516 27.5845 21.4746L26.49 21.2181C25.8885 21.0755 25.4467 20.8546 25.1645 20.5554C24.8852 20.2532 24.7455 19.8755 24.7455 19.4223C24.7455 19.0518 24.8496 18.724 25.0577 18.4389C25.2686 18.1539 25.555 17.9302 25.917 17.7677C26.2819 17.6052 26.6952 17.524 27.157 17.524C27.8068 17.524 28.3171 17.6665 28.6876 17.9515C29.061 18.2366 29.3261 18.6128 29.4829 19.0803ZM33.9776 17.6095V18.4646H30.5742V17.6095H33.9776ZM31.5661 16.0361H32.5752V22.2955C32.5752 22.5805 32.6165 22.7943 32.6992 22.9368C32.7847 23.0765 32.893 23.1706 33.0241 23.219C33.1581 23.2646 33.2992 23.2874 33.4474 23.2874C33.5586 23.2874 33.6498 23.2817 33.721 23.2703C33.7923 23.2561 33.8493 23.2447 33.892 23.2361L34.0973 24.1426C34.0289 24.1682 33.9334 24.1939 33.8108 24.2195C33.6882 24.248 33.5329 24.2623 33.3448 24.2623C33.0597 24.2623 32.7804 24.201 32.5068 24.0784C32.236 23.9559 32.0108 23.7692 31.8312 23.5183C31.6545 23.2675 31.5661 22.9511 31.5661 22.5691V16.0361ZM35.4954 24.1768V17.6095H36.5044V24.1768H35.4954ZM36.0085 16.5149C35.8118 16.5149 35.6422 16.448 35.4997 16.314C35.36 16.18 35.2902 16.019 35.2902 15.8308C35.2902 15.6427 35.36 15.4817 35.4997 15.3477C35.6422 15.2137 35.8118 15.1468 36.0085 15.1468C36.2051 15.1468 36.3733 15.2137 36.513 15.3477C36.6555 15.4817 36.7268 15.6427 36.7268 15.8308C36.7268 16.019 36.6555 16.18 36.513 16.314C36.3733 16.448 36.2051 16.5149 36.0085 16.5149ZM41.0205 24.3136C40.4048 24.3136 39.8746 24.1682 39.43 23.8775C38.9853 23.5867 38.6433 23.1863 38.4038 22.676C38.1644 22.1658 38.0447 21.5829 38.0447 20.9273C38.0447 20.2603 38.1673 19.6717 38.4124 19.1615C38.6604 18.6484 39.0053 18.248 39.4471 17.9601C39.8917 17.6693 40.4105 17.524 41.0034 17.524C41.4651 17.524 41.8813 17.6095 42.2519 17.7805C42.6224 17.9515 42.926 18.191 43.1625 18.4988C43.3991 18.8066 43.5459 19.1658 43.6029 19.5762H42.5939C42.5169 19.277 42.3459 19.0119 42.0808 18.781C41.8186 18.5473 41.4651 18.4304 41.0205 18.4304C40.6271 18.4304 40.2822 18.533 39.9858 18.7382C39.6922 18.9406 39.4628 19.2271 39.2974 19.5976C39.135 19.9653 39.0537 20.3972 39.0537 20.8931C39.0537 21.4005 39.1335 21.8423 39.2932 22.2185C39.4556 22.5948 39.6837 22.887 39.9773 23.095C40.2737 23.3031 40.6214 23.4072 41.0205 23.4072C41.2827 23.4072 41.5207 23.3615 41.7345 23.2703C41.9483 23.1791 42.1293 23.048 42.2775 22.877C42.4257 22.706 42.5312 22.5007 42.5939 22.2613H43.6029C43.5459 22.649 43.4048 22.9981 43.1797 23.3088C42.9573 23.6167 42.6623 23.8618 42.2946 24.0442C41.9298 24.2238 41.5051 24.3136 41.0205 24.3136ZM48.6011 24.1768V15.4204H51.5598C52.2467 15.4204 52.8082 15.5444 53.2443 15.7924C53.6833 16.0375 54.0082 16.3696 54.2192 16.7886C54.4301 17.2076 54.5356 17.675 54.5356 18.191C54.5356 18.7069 54.4301 19.1758 54.2192 19.5976C54.0111 20.0195 53.689 20.3558 53.2529 20.6067C52.8168 20.8546 52.2581 20.9786 51.5769 20.9786H49.4562V20.038H51.5427C52.013 20.038 52.3906 19.9568 52.6757 19.7943C52.9607 19.6318 53.1674 19.4123 53.2956 19.1359C53.4268 18.8565 53.4923 18.5416 53.4923 18.191C53.4923 17.8404 53.4268 17.5268 53.2956 17.2503C53.1674 16.9739 52.9593 16.7572 52.6714 16.6005C52.3835 16.4408 52.0016 16.361 51.5256 16.361H49.6614V24.1768H48.6011ZM58.0394 24.3307C57.6232 24.3307 57.2456 24.2523 56.9064 24.0955C56.5672 23.9359 56.2978 23.7064 56.0983 23.4072C55.8988 23.105 55.799 22.7402 55.799 22.3126C55.799 21.9364 55.8731 21.6314 56.0213 21.3976C56.1695 21.1611 56.3676 20.9758 56.6156 20.8418C56.8636 20.7078 57.1372 20.6081 57.4365 20.5425C57.7387 20.4741 58.0422 20.42 58.3472 20.3801C58.7463 20.3287 59.0698 20.2903 59.3178 20.2646C59.5686 20.2361 59.751 20.1891 59.8651 20.1235C59.9819 20.058 60.0404 19.9439 60.0404 19.7815V19.7473C60.0404 19.3254 59.9249 18.9976 59.694 18.7639C59.466 18.5302 59.1197 18.4133 58.6551 18.4133C58.1734 18.4133 57.7957 18.5188 57.522 18.7297C57.2484 18.9406 57.056 19.1658 56.9448 19.4052L55.9871 19.0632C56.1581 18.6641 56.3862 18.3534 56.6712 18.1311C56.9591 17.9059 57.2726 17.7492 57.6118 17.6608C57.9539 17.5696 58.2902 17.524 58.6209 17.524C58.8318 17.524 59.0741 17.5496 59.3477 17.6009C59.6242 17.6494 59.8907 17.7506 60.1472 17.9045C60.4066 18.0584 60.6218 18.2907 60.7929 18.6014C60.9639 18.9121 61.0494 19.3283 61.0494 19.8499V24.1768H60.0404V23.2874H59.989C59.9206 23.43 59.8066 23.5825 59.647 23.7449C59.4874 23.9074 59.275 24.0456 59.0099 24.1597C58.7449 24.2737 58.4213 24.3307 58.0394 24.3307ZM58.1933 23.4243C58.5924 23.4243 58.9287 23.3459 59.2023 23.1891C59.4788 23.0323 59.6869 22.83 59.8266 22.582C59.9691 22.334 60.0404 22.0732 60.0404 21.7995V20.876C59.9976 20.9273 59.9035 20.9744 59.7582 21.0171C59.6156 21.057 59.4503 21.0926 59.2622 21.124C59.0769 21.1525 58.8959 21.1782 58.7192 21.201C58.5453 21.2209 58.4042 21.238 58.2959 21.2523C58.0337 21.2865 57.7886 21.3421 57.5605 21.419C57.3353 21.4931 57.1529 21.6057 57.0133 21.7568C56.8764 21.905 56.808 22.1074 56.808 22.3639C56.808 22.7145 56.9377 22.9796 57.1971 23.1592C57.4593 23.3359 57.7914 23.4243 58.1933 23.4243ZM62.8911 24.1768V17.6095H63.8659V18.6014H63.9343C64.054 18.2765 64.2707 18.0128 64.5842 17.8104C64.8978 17.6081 65.2512 17.5069 65.6446 17.5069C65.7187 17.5069 65.8113 17.5083 65.9225 17.5111C66.0336 17.514 66.1177 17.5183 66.1747 17.524V18.5501C66.1405 18.5416 66.0621 18.5287 65.9396 18.5116C65.8199 18.4917 65.693 18.4817 65.559 18.4817C65.2398 18.4817 64.9548 18.5487 64.7039 18.6827C64.4559 18.8138 64.2593 18.9962 64.1139 19.2299C63.9714 19.4608 63.9001 19.7245 63.9001 20.0209V24.1768H62.8911ZM70.6384 17.6095V18.4646H67.2351V17.6095H70.6384ZM68.227 16.0361H69.236V22.2955C69.236 22.5805 69.2774 22.7943 69.36 22.9368C69.4455 23.0765 69.5539 23.1706 69.685 23.219C69.8189 23.2646 69.96 23.2874 70.1082 23.2874C70.2194 23.2874 70.3106 23.2817 70.3819 23.2703C70.4531 23.2561 70.5102 23.2447 70.5529 23.2361L70.7581 24.1426C70.6897 24.1682 70.5942 24.1939 70.4717 24.2195C70.3491 24.248 70.1938 24.2623 70.0056 24.2623C69.7206 24.2623 69.4413 24.201 69.1676 24.0784C68.8968 23.9559 68.6717 23.7692 68.4921 23.5183C68.3154 23.2675 68.227 22.9511 68.227 22.5691V16.0361ZM73.1653 20.2261V24.1768H72.1562V17.6095H73.1311V18.6356H73.2166C73.3705 18.3021 73.6042 18.0342 73.9178 17.8318C74.2313 17.6266 74.6361 17.524 75.132 17.524C75.5767 17.524 75.9658 17.6152 76.2993 17.7976C76.6328 17.9772 76.8921 18.2508 77.0774 18.6185C77.2627 18.9834 77.3553 19.4451 77.3553 20.0038V24.1768H76.3463V20.0722C76.3463 19.5563 76.2123 19.1544 75.9444 18.8665C75.6765 18.5758 75.3088 18.4304 74.8413 18.4304C74.5192 18.4304 74.2313 18.5002 73.9776 18.6399C73.7268 18.7796 73.5287 18.9834 73.3833 19.2513C73.238 19.5192 73.1653 19.8442 73.1653 20.2261ZM81.9526 24.3136C81.3199 24.3136 80.774 24.1739 80.3151 23.8946C79.859 23.6124 79.507 23.219 79.259 22.7145C79.0139 22.2071 78.8913 21.6171 78.8913 20.9444C78.8913 20.2717 79.0139 19.6789 79.259 19.1658C79.507 18.6499 79.8519 18.248 80.2937 17.9601C80.7384 17.6693 81.2571 17.524 81.85 17.524C82.1921 17.524 82.5298 17.581 82.8633 17.695C83.1968 17.809 83.5004 17.9943 83.774 18.2508C84.0477 18.5045 84.2657 18.8408 84.4282 19.2599C84.5907 19.6789 84.6719 20.1948 84.6719 20.8076V21.2352H79.6096V20.363H83.6458C83.6458 19.9924 83.5717 19.6618 83.4234 19.371C83.2781 19.0803 83.07 18.8508 82.7992 18.6827C82.5313 18.5145 82.2149 18.4304 81.85 18.4304C81.4481 18.4304 81.1004 18.5302 80.8068 18.7297C80.516 18.9264 80.2923 19.1829 80.1355 19.4993C79.9788 19.8157 79.9004 20.1549 79.9004 20.5169V21.0983C79.9004 21.5943 79.9859 22.0147 80.1569 22.3596C80.3308 22.7017 80.5716 22.9625 80.8795 23.1421C81.1873 23.3188 81.545 23.4072 81.9526 23.4072C82.2177 23.4072 82.4572 23.3701 82.6709 23.296C82.8876 23.219 83.0743 23.105 83.231 22.9539C83.3878 22.8 83.5089 22.609 83.5945 22.381L84.5693 22.6547C84.4667 22.9853 84.2942 23.276 84.0519 23.5269C83.8097 23.7749 83.5104 23.9687 83.1541 24.1083C82.7978 24.2452 82.3973 24.3136 81.9526 24.3136ZM86.2068 24.1768V17.6095H87.1817V18.6014H87.2501C87.3698 18.2765 87.5864 18.0128 87.9 17.8104C88.2135 17.6081 88.5669 17.5069 88.9603 17.5069C89.0344 17.5069 89.127 17.5083 89.2382 17.5111C89.3494 17.514 89.4335 17.5183 89.4905 17.524V18.5501C89.4563 18.5416 89.3779 18.5287 89.2553 18.5116C89.1356 18.4917 89.0088 18.4817 88.8748 18.4817C88.5555 18.4817 88.2705 18.5487 88.0197 18.6827C87.7717 18.8138 87.575 18.9962 87.4296 19.2299C87.2871 19.4608 87.2159 19.7245 87.2159 20.0209V24.1768H86.2068Z" fill="black"/>
</svg>
