<svg width="32" height="32" viewBox="0 0 32 32" fill="none" xmlns="http://www.w3.org/2000/svg">
<path d="M9.4989 23.7518V9.49658C9.74346 9.49658 9.97223 9.49658 10.2089 9.49658C11.1082 9.49658 12.0076 9.49658 12.9069 9.49658C13.0489 9.49658 13.1357 9.52811 13.2145 9.67011C14.2322 11.4451 16.7488 11.4451 17.7664 9.67011C17.8216 9.57545 17.8611 9.49658 18.0031 9.49658C19.1312 9.49658 20.2514 9.49658 21.3795 9.49658C21.4111 9.49658 21.4347 9.4966 21.4821 9.51238V17.8586C21.1113 18.0085 20.7247 18.1348 20.3697 18.3242C20.1173 18.4583 19.8727 18.5135 19.5966 18.5135C16.5831 18.5135 13.5616 18.5135 10.5481 18.5135H10.2562V19.2471H19.0917C18.8945 19.5074 18.7288 19.7442 18.5474 19.9572C18.508 20.0045 18.3896 20.0125 18.3107 20.0125C16.0703 20.0125 13.822 20.0125 11.5815 20.0125C11.1477 20.0125 10.7059 20.0125 10.2562 20.0125V20.754H18.1056C18.0267 21.0143 17.9478 21.2509 17.869 21.5034H10.2484V22.2528H17.7112C17.7585 22.7734 17.798 23.2548 17.8374 23.7518H9.4989ZM20.7326 12.5181H10.2562V13.2438H20.7326V12.5181ZM20.7326 14.0169H10.2562V14.7426H20.7326V14.0169ZM10.2484 16.2337H20.7326V15.5078H10.2484V16.2337ZM10.2484 17.7325H20.7247V17.0068H10.2484V17.7325Z" fill="#0671B8"/>
<path d="M8 25.9922V6.50684H11.3685C11.3685 6.80661 11.3685 7.11422 11.3685 7.42977C11.3685 7.89521 11.4711 7.99774 11.9286 7.99774C12.2205 7.99774 12.5045 7.99774 12.7964 7.99774C12.8122 7.99774 12.828 7.99776 12.8674 8.01354V8.74734C12.7964 8.74734 12.7096 8.74734 12.6307 8.74734C11.5026 8.74734 10.3824 8.74734 9.25432 8.74734C8.86777 8.74734 8.74943 8.86558 8.74943 9.25214C8.74943 14.1669 8.74943 19.0895 8.74943 24.0042C8.74943 24.3987 8.86776 24.5171 9.27009 24.5171C12.1495 24.5171 15.0211 24.5171 17.9005 24.5171C18.074 24.5171 18.1451 24.5802 18.2318 24.7222C18.4843 25.1561 18.7604 25.582 19.0286 26.0001H8.00787L8 25.9922Z" fill="#0671B8"/>
<path d="M22.9809 17.7563H22.2472V17.4801C22.2472 14.7743 22.2472 12.0686 22.2472 9.36269C22.2472 8.82625 22.1683 8.74734 21.624 8.74734C20.5432 8.74734 19.4703 8.74734 18.3896 8.74734C18.3028 8.74734 18.216 8.74734 18.1213 8.74734V7.99774C18.4684 7.99774 18.8077 7.99774 19.139 7.99774C19.494 7.99774 19.6202 7.87163 19.6202 7.51663C19.6202 7.1853 19.6202 6.84606 19.6202 6.50684H22.9809V17.7563Z" fill="#0671B8"/>
<path d="M12.1259 7.22452V5H18.8472V7.22452H12.1259ZM12.8753 6.47511H13.5932V5.7573H12.8753V6.47511ZM18.0977 6.49091V5.7573H17.3877V6.49091H18.0977Z" fill="#0671B8"/>
<path d="M13.6406 8.73128V8.00537H17.3405V8.73128H13.6406Z" fill="#0671B8"/>
<path d="M16.938 9.5127C16.299 10.4672 14.7212 10.4988 14.0507 9.5127H16.938Z" fill="#0671B8"/>
<path d="M15.9756 17.7563V18.5057H20.7247V19.2394H15.9756V20.0047H20.7247V20.7541H15.9756V21.5114H20.7247V22.2529H15.9756V23.7519H21.482V17.7563H15.9756Z" fill="#0671B8"/>
<path d="M22.2471 17.7563V24.5092H17.3955V25.9923H22.9808V17.7563H22.2471Z" fill="#0671B8"/>
<path d="M20.46 15C22.9453 15 24.9601 12.9853 24.9601 10.5C24.9601 8.01469 22.9453 6 20.46 6C17.9747 6 15.96 8.01469 15.96 10.5C15.96 12.9853 17.9747 15 20.46 15Z" fill="#FFB422" stroke="white" stroke-width="0.69499" stroke-miterlimit="10"/>
<path d="M20.7119 12.9932H20.2254C20.2254 12.9932 20.1907 12.9932 20.1733 12.9932C19.8519 12.9845 19.5391 12.9498 19.2264 12.8716C19.0005 12.8195 18.7833 12.75 18.5835 12.6197C18.4532 12.5241 18.375 12.4112 18.375 12.2375C18.375 11.9682 18.375 11.7076 18.375 11.4383C18.375 11.4209 18.375 11.4035 18.375 11.3861C18.3924 11.3948 18.4098 11.4035 18.4185 11.4122C18.6443 11.5512 18.8963 11.6295 19.1482 11.6816C19.487 11.7511 19.8432 11.7857 20.1907 11.7944C20.6511 11.8031 21.1115 11.7943 21.5719 11.7162C21.8499 11.6727 22.128 11.6032 22.3799 11.4729C22.432 11.4468 22.4928 11.4122 22.545 11.3774V11.4296C22.545 11.7076 22.545 11.9856 22.545 12.2723C22.545 12.3852 22.5015 12.4721 22.4233 12.5416C22.3017 12.6546 22.154 12.7239 22.0063 12.776C21.6675 12.8976 21.3113 12.9412 20.9465 12.976C20.8596 12.976 20.7814 12.9845 20.6945 12.9932H20.7119Z" fill="white"/>
<path d="M22.5623 10.1874C22.5623 10.3351 22.5623 10.4828 22.5623 10.6218C22.5623 10.7608 22.5623 10.9172 22.5623 11.0648C22.5623 11.0996 22.5536 11.1257 22.5275 11.1431C22.3798 11.2734 22.2061 11.343 22.0237 11.4038C21.7196 11.4993 21.4069 11.5514 21.0854 11.5688C20.7814 11.5862 20.4686 11.5949 20.1646 11.5862C19.7476 11.5775 19.3306 11.5341 18.9223 11.4038C18.7312 11.343 18.5574 11.2647 18.4097 11.1257C18.3924 11.117 18.3837 11.0909 18.3837 11.0735C18.3837 10.7869 18.3837 10.4915 18.3837 10.2048C18.3837 10.2048 18.3837 10.1961 18.3837 10.1874C18.4619 10.2308 18.54 10.2744 18.6182 10.3091C18.8354 10.4134 19.0613 10.4655 19.3045 10.5089C19.8692 10.6045 20.4426 10.6133 21.0159 10.5785C21.2679 10.5611 21.5285 10.535 21.7717 10.4829C22.041 10.422 22.293 10.3438 22.5275 10.1961C22.5275 10.1961 22.5449 10.1961 22.5536 10.1787L22.5623 10.1874Z" fill="white"/>
<path d="M18.3837 8.99698C18.4445 9.03173 18.4966 9.06636 18.5488 9.09242C18.8615 9.24879 19.2003 9.31834 19.5478 9.36178C19.9561 9.4139 20.3731 9.42263 20.7814 9.40526C21.1984 9.38788 21.6154 9.35318 22.015 9.23155C22.1801 9.18812 22.3365 9.12732 22.4841 9.03176C22.5015 9.01439 22.5276 9.00566 22.5536 8.98828V9.04046C22.5536 9.31845 22.5536 9.58772 22.5536 9.86571C22.5536 9.90046 22.5536 9.91792 22.5189 9.94398C22.3712 10.0743 22.1974 10.1523 22.015 10.2131C21.7196 10.3087 21.4069 10.3523 21.0942 10.3783C20.764 10.4044 20.4339 10.4129 20.1125 10.3955C19.6694 10.3782 19.2264 10.3347 18.8007 10.1696C18.653 10.1175 18.514 10.0395 18.4011 9.93528C18.3924 9.92659 18.375 9.90049 18.375 9.8918C18.375 9.59643 18.375 9.29234 18.375 8.98828L18.3837 8.99698Z" fill="white"/>
<path d="M20.5729 9.21428C20.0778 9.21428 19.6868 9.18812 19.2959 9.11863C19.0353 9.0665 18.7747 8.99716 18.5401 8.84948C18.4967 8.82342 18.4532 8.78857 18.4098 8.75382C18.375 8.72776 18.375 8.70161 18.3837 8.66686C18.4098 8.54524 18.488 8.46722 18.5835 8.39772C18.7746 8.25872 19.0005 8.19787 19.2264 8.14575C19.7911 8.02413 20.3558 7.99795 20.9291 8.0327C21.2506 8.05877 21.572 8.10235 21.8934 8.18923C22.0585 8.23267 22.2149 8.29347 22.3625 8.39772C22.4581 8.46722 22.5363 8.54524 22.5624 8.66686C22.5624 8.70161 22.5624 8.72776 22.5363 8.75382C22.3886 8.88413 22.2148 8.95368 22.0324 9.01449C21.737 9.11005 21.433 9.15343 21.1289 9.1795C20.9118 9.19687 20.6946 9.20558 20.5816 9.20558L20.5729 9.21428Z" fill="white"/>
</svg>
