<svg width="85" height="27" viewBox="0 0 85 27" fill="none" xmlns="http://www.w3.org/2000/svg">
<path d="M0.607844 9.04004V0.312766H3.55671C4.24137 0.312766 4.80103 0.436346 5.23568 0.683505C5.67318 0.927823 5.99705 1.25879 6.20728 1.6764C6.4175 2.09402 6.52262 2.55993 6.52262 3.07413C6.52262 3.58833 6.4175 4.05566 6.20728 4.47612C5.99989 4.89657 5.67887 5.2318 5.24421 5.4818C4.80955 5.72896 4.25273 5.85254 3.57375 5.85254H1.46012V4.91504H3.53966C4.00841 4.91504 4.38483 4.83407 4.66892 4.67214C4.95301 4.51021 5.15898 4.29146 5.28682 4.01589C5.4175 3.73748 5.48284 3.42356 5.48284 3.07413C5.48284 2.7247 5.4175 2.4122 5.28682 2.13663C5.15898 1.86106 4.95159 1.64515 4.66466 1.4889C4.37773 1.32981 3.99705 1.25027 3.52262 1.25027H1.66466V9.04004H0.607844ZM8.08867 9.04004V2.49458H9.06026V3.48322H9.12844C9.24776 3.15936 9.46367 2.89657 9.77617 2.69487C10.0887 2.49316 10.4409 2.39231 10.833 2.39231C10.9068 2.39231 10.9992 2.39373 11.11 2.39657C11.2208 2.39941 11.3046 2.40368 11.3614 2.40936V3.43208C11.3273 3.42356 11.2492 3.41078 11.127 3.39373C11.0077 3.37385 10.8813 3.3639 10.7478 3.3639C10.4296 3.3639 10.1455 3.43066 9.89549 3.56419C9.64833 3.69487 9.4523 3.87669 9.30742 4.10964C9.16537 4.33975 9.09435 4.60254 9.09435 4.89799V9.04004H8.08867ZM12.5535 9.04004V2.49458H13.5592V9.04004H12.5535ZM13.0649 1.40368C12.8689 1.40368 12.6998 1.33691 12.5578 1.20339C12.4186 1.06987 12.349 0.909357 12.349 0.721857C12.349 0.534357 12.4186 0.373846 12.5578 0.240323C12.6998 0.1068 12.8689 0.0400391 13.0649 0.0400391C13.2609 0.0400391 13.4285 0.1068 13.5677 0.240323C13.7098 0.373846 13.7808 0.534357 13.7808 0.721857C13.7808 0.909357 13.7098 1.06987 13.5677 1.20339C13.4285 1.33691 13.2609 1.40368 13.0649 1.40368ZM15.4012 9.04004V2.49458H16.3728V3.51731H16.458C16.5943 3.16788 16.8145 2.89657 17.1185 2.70339C17.4225 2.50737 17.7875 2.40936 18.2137 2.40936C18.6455 2.40936 19.0049 2.50737 19.2918 2.70339C19.5816 2.89657 19.8074 3.16788 19.9693 3.51731H20.0375C20.2051 3.17924 20.4566 2.91078 20.7918 2.71191C21.127 2.51021 21.529 2.40936 21.9978 2.40936C22.583 2.40936 23.0617 2.5926 23.4338 2.95907C23.806 3.32271 23.9921 3.88947 23.9921 4.65936V9.04004H22.9864V4.65936C22.9864 4.1764 22.8543 3.83123 22.5901 3.62385C22.3259 3.41646 22.0148 3.31277 21.6568 3.31277C21.1966 3.31277 20.8401 3.45197 20.5872 3.73038C20.3344 4.00595 20.208 4.35538 20.208 4.77868V9.04004H19.1853V4.55708C19.1853 4.18493 19.0645 3.88521 18.823 3.65794C18.5816 3.42782 18.2705 3.31277 17.8898 3.31277C17.6284 3.31277 17.3841 3.38237 17.1568 3.52157C16.9324 3.66078 16.7506 3.85396 16.6114 4.10112C16.475 4.34544 16.4068 4.62811 16.4068 4.94913V9.04004H15.4012ZM27.757 9.19345C27.3422 9.19345 26.9658 9.11532 26.6277 8.95907C26.2897 8.79998 26.0212 8.57129 25.8223 8.27299C25.6235 7.97186 25.524 7.60822 25.524 7.18208C25.524 6.80708 25.5979 6.50311 25.7456 6.27015C25.8934 6.03436 26.0908 5.8497 26.338 5.71618C26.5851 5.58265 26.8578 5.48322 27.1561 5.41788C27.4573 5.3497 27.7598 5.29572 28.0638 5.25595C28.4615 5.20481 28.784 5.16646 29.0311 5.14089C29.2811 5.11248 29.463 5.06561 29.5766 5.00027C29.6931 4.93493 29.7513 4.82129 29.7513 4.65936V4.62527C29.7513 4.20481 29.6363 3.87811 29.4061 3.64515C29.1789 3.4122 28.8337 3.29572 28.3706 3.29572C27.8905 3.29572 27.5141 3.40083 27.2414 3.61106C26.9686 3.82129 26.7769 4.04572 26.6661 4.28436L25.7115 3.94345C25.882 3.54572 26.1093 3.23606 26.3934 3.01447C26.6803 2.79004 26.9928 2.63379 27.3309 2.54572C27.6718 2.45481 28.007 2.40936 28.3365 2.40936C28.5468 2.40936 28.7882 2.43493 29.061 2.48606C29.3365 2.53436 29.6022 2.63521 29.8578 2.78862C30.1164 2.94203 30.3309 3.17356 30.5013 3.48322C30.6718 3.79288 30.757 4.20765 30.757 4.72754V9.04004H29.7513V8.15368H29.7002C29.632 8.29572 29.5184 8.44771 29.3593 8.60964C29.2002 8.77157 28.9885 8.90936 28.7243 9.02299C28.4601 9.13663 28.1377 9.19345 27.757 9.19345ZM27.9104 8.29004C28.3081 8.29004 28.6434 8.21191 28.9161 8.05566C29.1917 7.89941 29.399 7.69771 29.5382 7.45055C29.6803 7.20339 29.7513 6.94345 29.7513 6.67072V5.75027C29.7087 5.8014 29.6149 5.84828 29.4701 5.89089C29.328 5.93066 29.1632 5.96618 28.9757 5.99743C28.7911 6.02583 28.6107 6.0514 28.4345 6.07413C28.2613 6.09402 28.1206 6.11106 28.0127 6.12527C27.7513 6.15936 27.507 6.21475 27.2797 6.29146C27.0553 6.36532 26.8735 6.47754 26.7343 6.62811C26.5979 6.77583 26.5297 6.97754 26.5297 7.23322C26.5297 7.58265 26.659 7.84686 26.9175 8.02583C27.1789 8.20197 27.5098 8.29004 27.9104 8.29004ZM32.5926 9.04004V2.49458H33.5642V3.48322H33.6323C33.7517 3.15936 33.9676 2.89657 34.2801 2.69487C34.5926 2.49316 34.9448 2.39231 35.3369 2.39231C35.4108 2.39231 35.5031 2.39373 35.6139 2.39657C35.7247 2.39941 35.8085 2.40368 35.8653 2.40936V3.43208C35.8312 3.42356 35.7531 3.41078 35.6309 3.39373C35.5116 3.37385 35.3852 3.3639 35.2517 3.3639C34.9335 3.3639 34.6494 3.43066 34.3994 3.56419C34.1522 3.69487 33.9562 3.87669 33.8113 4.10964C33.6693 4.33975 33.5983 4.60254 33.5983 4.89799V9.04004H32.5926ZM37.9044 11.4946C37.7339 11.4946 37.5819 11.4804 37.4484 11.452C37.3149 11.4264 37.2225 11.4008 37.1714 11.3753L37.4271 10.4889C37.6714 10.5514 37.8873 10.5741 38.0748 10.5571C38.2623 10.54 38.4285 10.4562 38.5734 10.3057C38.7211 10.1579 38.8561 9.91788 38.9782 9.58549L39.1657 9.07413L36.7453 2.49458H37.8362L39.643 7.71049H39.7112L41.518 2.49458H42.6089L39.8305 9.99458C39.7055 10.3327 39.5507 10.6125 39.366 10.8341C39.1814 11.0585 38.9669 11.2247 38.7225 11.3327C38.4811 11.4406 38.2083 11.4946 37.9044 11.4946ZM54.8113 4.6764C54.8113 5.59686 54.6451 6.39231 54.3127 7.06277C53.9804 7.73322 53.5244 8.25027 52.9448 8.6139C52.3653 8.97754 51.7034 9.15936 50.9591 9.15936C50.2147 9.15936 49.5528 8.97754 48.9733 8.6139C48.3937 8.25027 47.9377 7.73322 47.6054 7.06277C47.273 6.39231 47.1068 5.59686 47.1068 4.6764C47.1068 3.75595 47.273 2.96049 47.6054 2.29004C47.9377 1.61958 48.3937 1.10254 48.9733 0.738903C49.5528 0.375266 50.2147 0.193448 50.9591 0.193448C51.7034 0.193448 52.3653 0.375266 52.9448 0.738903C53.5244 1.10254 53.9804 1.61958 54.3127 2.29004C54.6451 2.96049 54.8113 3.75595 54.8113 4.6764ZM53.7886 4.6764C53.7886 3.92072 53.6622 3.28294 53.4093 2.76305C53.1593 2.24316 52.8198 1.8497 52.3909 1.58265C51.9647 1.31561 51.4875 1.18208 50.9591 1.18208C50.4306 1.18208 49.9519 1.31561 49.523 1.58265C49.0968 1.8497 48.7573 2.24316 48.5045 2.76305C48.2545 3.28294 48.1295 3.92072 48.1295 4.6764C48.1295 5.43208 48.2545 6.06987 48.5045 6.58975C48.7573 7.10964 49.0968 7.50311 49.523 7.77015C49.9519 8.0372 50.4306 8.17072 50.9591 8.17072C51.4875 8.17072 51.9647 8.0372 52.3909 7.77015C52.8198 7.50311 53.1593 7.10964 53.4093 6.58975C53.6622 6.06987 53.7886 5.43208 53.7886 4.6764ZM56.4519 9.04004V2.49458H57.4235V3.48322H57.4917C57.611 3.15936 57.8269 2.89657 58.1394 2.69487C58.4519 2.49316 58.8042 2.39231 59.1963 2.39231C59.2701 2.39231 59.3625 2.39373 59.4733 2.39657C59.5841 2.39941 59.6679 2.40368 59.7247 2.40936V3.43208C59.6906 3.42356 59.6125 3.41078 59.4903 3.39373C59.371 3.37385 59.2446 3.3639 59.111 3.3639C58.7929 3.3639 58.5088 3.43066 58.2588 3.56419C58.0116 3.69487 57.8156 3.87669 57.6707 4.10964C57.5287 4.33975 57.4576 4.60254 57.4576 4.89799V9.04004H56.4519ZM63.1892 9.1764C62.6437 9.1764 62.1622 9.03862 61.7446 8.76305C61.3269 8.48464 61.0002 8.0926 60.7644 7.58691C60.5287 7.07839 60.4108 6.47754 60.4108 5.78436C60.4108 5.09686 60.5287 4.50027 60.7644 3.99458C61.0002 3.4889 61.3284 3.09828 61.7488 2.82271C62.1693 2.54714 62.6551 2.40936 63.2062 2.40936C63.6323 2.40936 63.969 2.48038 64.2162 2.62243C64.4662 2.76163 64.6565 2.92072 64.7872 3.0997C64.9207 3.27583 65.0244 3.42072 65.0983 3.53436H65.1835V0.312766H66.1892V9.04004H65.2176V8.03436H65.0983C65.0244 8.15368 64.9193 8.30424 64.7829 8.48606C64.6466 8.66504 64.4519 8.82555 64.1991 8.9676C63.9463 9.1068 63.6096 9.1764 63.1892 9.1764ZM63.3255 8.27299C63.7289 8.27299 64.0698 8.16788 64.3483 7.95765C64.6267 7.74458 64.8383 7.45055 64.9832 7.07555C65.1281 6.69771 65.2005 6.26163 65.2005 5.76731C65.2005 5.27868 65.1295 4.85112 64.9875 4.48464C64.8454 4.11532 64.6352 3.82839 64.3568 3.62385C64.0784 3.41646 63.7346 3.31277 63.3255 3.31277C62.8994 3.31277 62.5443 3.42214 62.2602 3.64089C61.9789 3.8568 61.7673 4.15083 61.6252 4.52299C61.486 4.89231 61.4164 5.30708 61.4164 5.76731C61.4164 6.23322 61.4875 6.65652 61.6295 7.0372C61.7744 7.41504 61.9875 7.71618 62.2687 7.94061C62.5528 8.1622 62.9051 8.27299 63.3255 8.27299ZM70.915 9.1764C70.2843 9.1764 69.7403 9.0372 69.2829 8.75879C68.8284 8.47754 68.4775 8.08549 68.2304 7.58265C67.986 7.07697 67.8639 6.4889 67.8639 5.81845C67.8639 5.14799 67.986 4.55708 68.2304 4.04572C68.4775 3.53152 68.8213 3.13095 69.2616 2.84402C69.7048 2.55424 70.2218 2.40936 70.8127 2.40936C71.1537 2.40936 71.4903 2.46618 71.8227 2.57981C72.1551 2.69345 72.4576 2.87811 72.7304 3.13379C73.0031 3.38663 73.2204 3.72186 73.3823 4.13947C73.5443 4.55708 73.6252 5.07129 73.6252 5.68208V6.10822H68.5798V5.2389H72.6025C72.6025 4.86958 72.5287 4.54004 72.3809 4.25027C72.236 3.96049 72.0287 3.7318 71.7588 3.56419C71.4917 3.39657 71.1764 3.31277 70.8127 3.31277C70.4122 3.31277 70.0656 3.4122 69.773 3.61106C69.4832 3.80708 69.2602 4.06277 69.1039 4.37811C68.9477 4.69345 68.8696 5.03152 68.8696 5.39231V5.97186C68.8696 6.46618 68.9548 6.88521 69.1252 7.22896C69.2985 7.56987 69.5386 7.82981 69.8454 8.00879C70.1522 8.18493 70.5088 8.27299 70.915 8.27299C71.1792 8.27299 71.4179 8.23606 71.6309 8.1622C71.8468 8.08549 72.0329 7.97186 72.1892 7.82129C72.3454 7.66788 72.4662 7.47754 72.5514 7.25027L73.523 7.52299C73.4207 7.85254 73.2488 8.14231 73.0073 8.39231C72.7659 8.63947 72.4676 8.83265 72.1125 8.97186C71.7573 9.10822 71.3582 9.1764 70.915 9.1764ZM75.1551 9.04004V2.49458H76.1267V3.48322H76.1948C76.3142 3.15936 76.5301 2.89657 76.8426 2.69487C77.1551 2.49316 77.5073 2.39231 77.8994 2.39231C77.9733 2.39231 78.0656 2.39373 78.1764 2.39657C78.2872 2.39941 78.371 2.40368 78.4278 2.40936V3.43208C78.3937 3.42356 78.3156 3.41078 78.1934 3.39373C78.0741 3.37385 77.9477 3.3639 77.8142 3.3639C77.496 3.3639 77.2119 3.43066 76.9619 3.56419C76.7147 3.69487 76.5187 3.87669 76.3738 4.10964C76.2318 4.33975 76.1608 4.60254 76.1608 4.89799V9.04004H75.1551ZM84.2563 3.96049L83.3529 4.21618C83.2961 4.06561 83.2122 3.9193 83.1015 3.77725C82.9935 3.63237 82.8458 3.51305 82.6583 3.4193C82.4708 3.32555 82.2307 3.27868 81.9381 3.27868C81.5375 3.27868 81.2037 3.371 80.9367 3.55566C80.6725 3.73748 80.5404 3.96902 80.5404 4.25027C80.5404 4.50027 80.6313 4.69771 80.8131 4.8426C80.9949 4.98748 81.279 5.10822 81.6654 5.20481L82.637 5.44345C83.2222 5.58549 83.6583 5.80282 83.9452 6.09544C84.2321 6.38521 84.3756 6.75879 84.3756 7.21618C84.3756 7.59118 84.2676 7.9264 84.0517 8.22186C83.8387 8.51731 83.5404 8.75027 83.1568 8.92072C82.7733 9.09118 82.3273 9.1764 81.8188 9.1764C81.1512 9.1764 80.5986 9.03152 80.1611 8.74174C79.7236 8.45197 79.4466 8.02868 79.3301 7.47186L80.2847 7.23322C80.3756 7.58549 80.5475 7.8497 80.8003 8.02583C81.056 8.20197 81.3898 8.29004 81.8017 8.29004C82.2705 8.29004 82.6426 8.19061 82.9182 7.99174C83.1966 7.79004 83.3358 7.54856 83.3358 7.26731C83.3358 7.04004 83.2563 6.8497 83.0972 6.69629C82.9381 6.54004 82.6938 6.42356 82.3642 6.34686L81.2733 6.09118C80.6739 5.94913 80.2336 5.72896 79.9523 5.43066C79.6739 5.12953 79.5347 4.75311 79.5347 4.3014C79.5347 3.93208 79.6384 3.60538 79.8458 3.32129C80.056 3.0372 80.3415 2.81419 80.7023 2.65225C81.0659 2.49032 81.4779 2.40936 81.9381 2.40936C82.5858 2.40936 83.0943 2.5514 83.4637 2.83549C83.8358 3.11958 84.1 3.49458 84.2563 3.96049ZM15.8246 24.04V15.3128H18.7735C19.4553 15.3128 20.015 15.4292 20.4525 15.6622C20.89 15.8923 21.2138 16.2091 21.4241 16.6125C21.6343 17.0159 21.7394 17.4747 21.7394 17.9889C21.7394 18.5031 21.6343 18.9591 21.4241 19.3568C21.2138 19.7545 20.8914 20.067 20.4567 20.2943C20.0221 20.5187 19.4667 20.6309 18.7905 20.6309H16.4042V19.6764H18.7565C19.2224 19.6764 19.5974 19.6082 19.8815 19.4719C20.1684 19.3355 20.3758 19.1423 20.5036 18.8923C20.6343 18.6395 20.6996 18.3383 20.6996 17.9889C20.6996 17.6395 20.6343 17.3341 20.5036 17.0727C20.3729 16.8113 20.1641 16.6096 19.8772 16.4676C19.5903 16.3227 19.211 16.2503 18.7394 16.2503H16.8815V24.04H15.8246ZM19.9326 20.1196L22.0803 24.04H20.853L18.7394 20.1196H19.9326ZM26.0381 24.1764C25.4074 24.1764 24.8633 24.0372 24.406 23.7588C23.9514 23.4775 23.6006 23.0855 23.3534 22.5827C23.1091 22.077 22.9869 21.4889 22.9869 20.8184C22.9869 20.148 23.1091 19.5571 23.3534 19.0457C23.6006 18.5315 23.9443 18.1309 24.3847 17.844C24.8278 17.5542 25.3449 17.4094 25.9358 17.4094C26.2767 17.4094 26.6133 17.4662 26.9457 17.5798C27.2781 17.6934 27.5807 17.8781 27.8534 18.1338C28.1261 18.3866 28.3435 18.7219 28.5054 19.1395C28.6673 19.5571 28.7483 20.0713 28.7483 20.6821V21.1082H23.7028V20.2389H27.7256C27.7256 19.8696 27.6517 19.54 27.504 19.2503C27.3591 18.9605 27.1517 18.7318 26.8818 18.5642C26.6148 18.3966 26.2994 18.3128 25.9358 18.3128C25.5352 18.3128 25.1886 18.4122 24.896 18.6111C24.6062 18.8071 24.3832 19.0628 24.227 19.3781C24.0707 19.6934 23.9926 20.0315 23.9926 20.3923V20.9719C23.9926 21.4662 24.0778 21.8852 24.2483 22.229C24.4216 22.5699 24.6616 22.8298 24.9685 23.0088C25.2753 23.1849 25.6318 23.273 26.0381 23.273C26.3023 23.273 26.5409 23.2361 26.754 23.1622C26.9699 23.0855 27.156 22.9719 27.3122 22.8213C27.4685 22.6679 27.5892 22.4775 27.6744 22.2503L28.646 22.523C28.5437 22.8525 28.3719 23.1423 28.1304 23.3923C27.8889 23.6395 27.5906 23.8327 27.2355 23.9719C26.8804 24.1082 26.4812 24.1764 26.0381 24.1764ZM32.9372 24.1764C32.3236 24.1764 31.7952 24.0315 31.352 23.7417C30.9088 23.452 30.5679 23.0528 30.3293 22.5443C30.0906 22.0358 29.9713 21.4548 29.9713 20.8014C29.9713 20.1366 30.0935 19.55 30.3378 19.0415C30.5849 18.5301 30.9287 18.1309 31.369 17.844C31.8122 17.5542 32.3293 17.4094 32.9202 17.4094C33.3804 17.4094 33.7952 17.4946 34.1645 17.665C34.5338 17.8355 34.8364 18.0741 35.0722 18.3809C35.308 18.6878 35.4543 19.0457 35.5111 19.4548H34.5054C34.4287 19.1565 34.2582 18.8923 33.994 18.6622C33.7327 18.4292 33.3804 18.3128 32.9372 18.3128C32.5452 18.3128 32.2014 18.415 31.906 18.6196C31.6133 18.8213 31.3847 19.1068 31.2199 19.4761C31.058 19.8426 30.977 20.273 30.977 20.7673C30.977 21.273 31.0565 21.7133 31.2156 22.0883C31.3776 22.4633 31.6048 22.7545 31.8974 22.9619C32.1929 23.1693 32.5395 23.273 32.9372 23.273C33.1986 23.273 33.4358 23.2275 33.6489 23.1366C33.8619 23.0457 34.0423 22.915 34.1901 22.7446C34.3378 22.5741 34.4429 22.3696 34.5054 22.1309H35.5111C35.4543 22.5173 35.3136 22.8653 35.0892 23.175C34.8676 23.4818 34.5736 23.7261 34.2071 23.9079C33.8435 24.0869 33.4202 24.1764 32.9372 24.1764ZM39.7256 24.1764C39.0949 24.1764 38.5508 24.0372 38.0935 23.7588C37.6389 23.4775 37.2881 23.0855 37.0409 22.5827C36.7966 22.077 36.6744 21.4889 36.6744 20.8184C36.6744 20.148 36.7966 19.5571 37.0409 19.0457C37.2881 18.5315 37.6318 18.1309 38.0722 17.844C38.5153 17.5542 39.0324 17.4094 39.6233 17.4094C39.9642 17.4094 40.3008 17.4662 40.6332 17.5798C40.9656 17.6934 41.2682 17.8781 41.5409 18.1338C41.8136 18.3866 42.031 18.7219 42.1929 19.1395C42.3548 19.5571 42.4358 20.0713 42.4358 20.6821V21.1082H37.3903V20.2389H41.4131C41.4131 19.8696 41.3392 19.54 41.1915 19.2503C41.0466 18.9605 40.8392 18.7318 40.5693 18.5642C40.3023 18.3966 39.9869 18.3128 39.6233 18.3128C39.2227 18.3128 38.8761 18.4122 38.5835 18.6111C38.2937 18.8071 38.0707 19.0628 37.9145 19.3781C37.7582 19.6934 37.6801 20.0315 37.6801 20.3923V20.9719C37.6801 21.4662 37.7653 21.8852 37.9358 22.229C38.1091 22.5699 38.3491 22.8298 38.656 23.0088C38.9628 23.1849 39.3193 23.273 39.7256 23.273C39.9898 23.273 40.2284 23.2361 40.4415 23.1622C40.6574 23.0855 40.8435 22.9719 40.9997 22.8213C41.156 22.6679 41.2767 22.4775 41.3619 22.2503L42.3335 22.523C42.2312 22.8525 42.0594 23.1423 41.8179 23.3923C41.5764 23.6395 41.2781 23.8327 40.923 23.9719C40.5679 24.1082 40.1687 24.1764 39.7256 24.1764ZM43.9656 24.04V17.4946H44.9713V24.04H43.9656ZM44.477 16.4037C44.281 16.4037 44.1119 16.3369 43.9699 16.2034C43.8307 16.0699 43.7611 15.9094 43.7611 15.7219C43.7611 15.5344 43.8307 15.3738 43.9699 15.2403C44.1119 15.1068 44.281 15.04 44.477 15.04C44.673 15.04 44.8406 15.1068 44.9798 15.2403C45.1219 15.3738 45.1929 15.5344 45.1929 15.7219C45.1929 15.9094 45.1219 16.0699 44.9798 16.2034C44.8406 16.3369 44.673 16.4037 44.477 16.4037ZM52.1655 17.4946L49.7451 24.04H48.7224L46.3019 17.4946H47.3928L49.1996 22.7105H49.2678L51.0746 17.4946H52.1655ZM53.493 24.04V17.4946H54.4986V24.04H53.493ZM54.0043 16.4037C53.8083 16.4037 53.6393 16.3369 53.4972 16.2034C53.358 16.0699 53.2884 15.9094 53.2884 15.7219C53.2884 15.5344 53.358 15.3738 53.4972 15.2403C53.6393 15.1068 53.8083 15.04 54.0043 15.04C54.2004 15.04 54.368 15.1068 54.5072 15.2403C54.6492 15.3738 54.7202 15.5344 54.7202 15.7219C54.7202 15.9094 54.6492 16.0699 54.5072 16.2034C54.368 16.3369 54.2004 16.4037 54.0043 16.4037ZM57.3463 20.1025V24.04H56.3406V17.4946H57.3122V18.5173H57.3974C57.5508 18.1849 57.7838 17.9179 58.0963 17.7162C58.4088 17.5116 58.8122 17.4094 59.3065 17.4094C59.7497 17.4094 60.1375 17.5003 60.4699 17.6821C60.8023 17.8611 61.0608 18.1338 61.2455 18.5003C61.4301 18.8639 61.5224 19.3241 61.5224 19.8809V24.04H60.5168V19.9491C60.5168 19.4349 60.3832 19.0344 60.1162 18.7474C59.8491 18.4577 59.4827 18.3128 59.0168 18.3128C58.6957 18.3128 58.4088 18.3824 58.156 18.5216C57.906 18.6608 57.7085 18.8639 57.5636 19.1309C57.4187 19.398 57.3463 19.7219 57.3463 20.1025ZM66.0022 26.6309C65.5164 26.6309 65.0988 26.5684 64.7494 26.4434C64.3999 26.3213 64.1087 26.1594 63.8758 25.9577C63.6457 25.7588 63.4624 25.5457 63.3261 25.3184L64.1272 24.7559C64.2181 24.8753 64.3332 25.0116 64.4724 25.165C64.6116 25.3213 64.8019 25.4562 65.0434 25.5699C65.2877 25.6863 65.6073 25.7446 66.0022 25.7446C66.5306 25.7446 66.9667 25.6167 67.3104 25.3611C67.6542 25.1054 67.8261 24.7048 67.8261 24.1594V22.8298H67.7408C67.667 22.9491 67.5619 23.0969 67.4255 23.273C67.292 23.4463 67.0988 23.6011 66.8459 23.7375C66.5959 23.871 66.2579 23.9378 65.8317 23.9378C65.3033 23.9378 64.8289 23.8128 64.4084 23.5628C63.9908 23.3128 63.6599 22.9491 63.4155 22.4719C63.1741 21.9946 63.0533 21.415 63.0533 20.7332C63.0533 20.0628 63.1712 19.479 63.407 18.9818C63.6428 18.4818 63.9709 18.0954 64.3914 17.8227C64.8119 17.5471 65.2977 17.4094 65.8488 17.4094C66.2749 17.4094 66.613 17.4804 66.863 17.6224C67.1158 17.7616 67.309 17.9207 67.4425 18.0997C67.5789 18.2758 67.684 18.4207 67.7579 18.5344H67.8602V17.4946H68.8317V24.2275C68.8317 24.79 68.7039 25.2474 68.4482 25.5997C68.1954 25.9548 67.8545 26.2148 67.4255 26.3795C66.9994 26.5471 66.5249 26.6309 66.0022 26.6309ZM65.9681 23.0344C66.3715 23.0344 66.7124 22.942 66.9908 22.7574C67.2692 22.5727 67.4809 22.3071 67.6258 21.9605C67.7707 21.6139 67.8431 21.1991 67.8431 20.7162C67.8431 20.2446 67.7721 19.8284 67.63 19.4676C67.488 19.1068 67.2778 18.8241 66.9994 18.6196C66.7209 18.415 66.3772 18.3128 65.9681 18.3128C65.542 18.3128 65.1869 18.4207 64.9028 18.6366C64.6215 18.8525 64.4099 19.1423 64.2678 19.5059C64.1286 19.8696 64.059 20.273 64.059 20.7162C64.059 21.1707 64.13 21.5727 64.2721 21.9221C64.417 22.2687 64.63 22.5415 64.9113 22.7403C65.1954 22.9363 65.5477 23.0344 65.9681 23.0344Z" fill="black"/>
</svg>
