<svg width="32" height="32" viewBox="0 0 32 32" fill="none" xmlns="http://www.w3.org/2000/svg">
<path d="M9.50519 23.7503V9.49141C9.74537 9.49141 9.97751 9.49141 10.2177 9.49141C11.1144 9.49141 12.0191 9.49141 12.9157 9.49141C13.0599 9.49141 13.1479 9.52341 13.228 9.65951C14.2448 11.4369 16.7587 11.4369 17.7835 9.65951C17.8395 9.56344 17.8795 9.4834 18.0236 9.4834C19.1525 9.4834 20.2734 9.4834 21.4023 9.4834C21.4343 9.4834 21.4583 9.48341 21.4983 9.49943V17.8499C21.122 18.0021 20.7377 18.13 20.3855 18.3142C20.1293 18.4503 19.8891 18.4983 19.6089 18.4983C16.5906 18.4983 13.5723 18.4983 10.554 18.4983H10.2657V19.235H19.1045C18.9043 19.4992 18.7442 19.7313 18.5601 19.9474C18.5201 19.9955 18.4079 20.0035 18.3279 20.0035C16.0862 20.0035 13.8365 20.0035 11.5948 20.0035C11.1544 20.0035 10.7221 20.0035 10.2657 20.0035V20.748H18.1197C18.0397 21.0042 17.9676 21.2444 17.8876 21.5006H10.2657V22.2453H17.7274C17.7675 22.7657 17.8155 23.2539 17.8556 23.7423H9.51315L9.50519 23.7503ZM20.7457 12.5097H10.2657V13.2304H20.7457V12.5097ZM20.7457 14.015H10.2657V14.7355H20.7457V14.015ZM10.2578 16.2327H20.7457V15.512H10.2578V16.2327ZM10.2578 17.7377H20.7377V17.0173H10.2578V17.7377Z" fill="#0671B8"/>
<path d="M8 25.9998V6.50488H11.3705C11.3705 6.80911 11.3705 7.11346 11.3705 7.4257C11.3705 7.89006 11.4666 7.9941 11.931 7.9941C12.2192 7.9941 12.5074 7.9941 12.7956 7.9941C12.8117 7.9941 12.8276 7.99412 12.8677 8.01013V8.73862C12.7956 8.73862 12.7156 8.73862 12.6275 8.73862C11.4986 8.73862 10.3778 8.73862 9.24895 8.73862C8.86466 8.73862 8.74456 8.85881 8.74456 9.2431C8.74456 14.1589 8.74456 19.0826 8.74456 23.9983C8.74456 24.3906 8.86462 24.5106 9.26493 24.5106C12.1391 24.5106 15.0213 24.5106 17.8955 24.5106C18.0717 24.5106 18.1437 24.5747 18.2318 24.7188C18.48 25.1591 18.7602 25.5755 19.0324 25.9998H8.00801H8Z" fill="#0671B8"/>
<path d="M22.9874 17.7539H22.2508V17.4736C22.2508 14.7675 22.2508 12.0616 22.2508 9.35551C22.2508 8.8191 22.1708 8.73902 21.6263 8.73902C20.5455 8.73902 19.4727 8.73902 18.3919 8.73902C18.3038 8.73902 18.2238 8.73902 18.1277 8.73902V7.98649C18.48 7.98649 18.8082 7.98649 19.1445 7.98649C19.4967 7.98649 19.6248 7.85832 19.6248 7.50605C19.6248 7.16979 19.6248 6.84153 19.6248 6.48926H22.9874V17.7459V17.7539Z" fill="#0671B8"/>
<path d="M12.1311 7.22572V5H18.8563V7.22572H12.1311ZM12.8837 6.473H13.6042V5.75253H12.8837V6.473ZM18.1117 6.48101V5.75253H17.3991V6.48101H18.1117Z" fill="#0671B8"/>
<path d="M13.6523 8.73073V8.01025H17.3511V8.73073H13.6523Z" fill="#0671B8"/>
<path d="M16.9428 9.50732C16.3023 10.4601 14.7251 10.4921 14.0526 9.50732H16.9428Z" fill="#0671B8"/>
<path d="M15.9821 17.7539V18.5064H20.7377V19.2431H15.9821V20.0037H20.7377V20.7562H15.9821V21.5167H20.7377V22.2534H15.9821V23.7505H21.4983V17.7539H15.9821Z" fill="#0671B8"/>
<path d="M22.2589 17.7539V24.511H17.4072V26.0002H22.9874V17.7539H22.2589Z" fill="#0671B8"/>
<path d="M20.2742 14.2C22.5385 14.2 24.3741 12.3642 24.3741 10.0999C24.3741 7.83551 22.5385 6 20.2742 6C18.0098 6 16.1741 7.83551 16.1741 10.0999C16.1741 12.3642 18.0098 14.2 20.2742 14.2Z" fill="#FFB422" stroke="white" stroke-width="0.643137" stroke-miterlimit="10"/>
<path d="M19.9446 10.8154C19.9446 10.8154 19.9446 10.759 19.9446 10.7349C19.9446 10.0194 19.9446 9.30396 19.9446 8.58043C19.9446 8.41965 20.033 8.29089 20.1697 8.2507C20.3707 8.18638 20.5797 8.33922 20.5877 8.54824C20.5877 8.62059 20.5877 8.69296 20.5877 8.76532C20.5877 9.42453 20.5877 10.0757 20.5877 10.7349V10.8073C20.5877 10.8073 20.6199 10.7751 20.636 10.759C20.7887 10.5982 20.9415 10.4293 21.0942 10.2685C21.1826 10.1801 21.2871 10.1481 21.4077 10.1802C21.5283 10.2124 21.6087 10.3009 21.6328 10.4214C21.6569 10.5259 21.6328 10.6223 21.5604 10.7027C21.3595 10.9198 21.1504 11.1369 20.9495 11.3539C20.7967 11.5147 20.652 11.6756 20.5073 11.8283C20.3626 11.981 20.1616 11.981 20.025 11.8283C19.6873 11.4665 19.3416 11.0966 19.004 10.7268C18.8512 10.5661 18.8915 10.3169 19.0844 10.2205C19.213 10.1481 19.3658 10.1801 19.4703 10.2927C19.615 10.4535 19.7677 10.6063 19.9124 10.7671C19.9205 10.7751 19.9285 10.7832 19.9526 10.8073L19.9446 10.8154Z" fill="white"/>
</svg>
