<svg width="90" height="27" viewBox="0 0 90 27" fill="none" xmlns="http://www.w3.org/2000/svg">
<path d="M3.60784 9.04004V0.312766H6.55671C7.24137 0.312766 7.80103 0.436346 8.23568 0.683505C8.67318 0.927823 8.99705 1.25879 9.20728 1.6764C9.4175 2.09402 9.52262 2.55993 9.52262 3.07413C9.52262 3.58833 9.4175 4.05566 9.20728 4.47612C8.99989 4.89657 8.67887 5.2318 8.24421 5.4818C7.80955 5.72896 7.25273 5.85254 6.57375 5.85254H4.46012V4.91504H6.53966C7.00841 4.91504 7.38483 4.83407 7.66892 4.67214C7.95301 4.51021 8.15898 4.29146 8.28682 4.01589C8.4175 3.73748 8.48284 3.42356 8.48284 3.07413C8.48284 2.7247 8.4175 2.4122 8.28682 2.13663C8.15898 1.86106 7.95159 1.64515 7.66466 1.4889C7.37773 1.32981 6.99705 1.25027 6.52262 1.25027H4.66466V9.04004H3.60784ZM11.0887 9.04004V2.49458H12.0603V3.48322H12.1284C12.2478 3.15936 12.4637 2.89657 12.7762 2.69487C13.0887 2.49316 13.4409 2.39231 13.833 2.39231C13.9068 2.39231 13.9992 2.39373 14.11 2.39657C14.2208 2.39941 14.3046 2.40368 14.3614 2.40936V3.43208C14.3273 3.42356 14.2492 3.41078 14.127 3.39373C14.0077 3.37385 13.8813 3.3639 13.7478 3.3639C13.4296 3.3639 13.1455 3.43066 12.8955 3.56419C12.6483 3.69487 12.4523 3.87669 12.3074 4.10964C12.1654 4.33975 12.0943 4.60254 12.0943 4.89799V9.04004H11.0887ZM15.5535 9.04004V2.49458H16.5592V9.04004H15.5535ZM16.0649 1.40368C15.8689 1.40368 15.6998 1.33691 15.5578 1.20339C15.4186 1.06987 15.349 0.909357 15.349 0.721857C15.349 0.534357 15.4186 0.373846 15.5578 0.240323C15.6998 0.1068 15.8689 0.0400391 16.0649 0.0400391C16.2609 0.0400391 16.4285 0.1068 16.5677 0.240323C16.7098 0.373846 16.7808 0.534357 16.7808 0.721857C16.7808 0.909357 16.7098 1.06987 16.5677 1.20339C16.4285 1.33691 16.2609 1.40368 16.0649 1.40368ZM18.4012 9.04004V2.49458H19.3728V3.51731H19.458C19.5943 3.16788 19.8145 2.89657 20.1185 2.70339C20.4225 2.50737 20.7875 2.40936 21.2137 2.40936C21.6455 2.40936 22.0049 2.50737 22.2918 2.70339C22.5816 2.89657 22.8074 3.16788 22.9693 3.51731H23.0375C23.2051 3.17924 23.4566 2.91078 23.7918 2.71191C24.127 2.51021 24.529 2.40936 24.9978 2.40936C25.583 2.40936 26.0617 2.5926 26.4338 2.95907C26.806 3.32271 26.9921 3.88947 26.9921 4.65936V9.04004H25.9864V4.65936C25.9864 4.1764 25.8543 3.83123 25.5901 3.62385C25.3259 3.41646 25.0148 3.31277 24.6568 3.31277C24.1966 3.31277 23.8401 3.45197 23.5872 3.73038C23.3344 4.00595 23.208 4.35538 23.208 4.77868V9.04004H22.1853V4.55708C22.1853 4.18493 22.0645 3.88521 21.823 3.65794C21.5816 3.42782 21.2705 3.31277 20.8898 3.31277C20.6284 3.31277 20.3841 3.38237 20.1568 3.52157C19.9324 3.66078 19.7506 3.85396 19.6114 4.10112C19.475 4.34544 19.4068 4.62811 19.4068 4.94913V9.04004H18.4012ZM30.757 9.19345C30.3422 9.19345 29.9658 9.11532 29.6277 8.95907C29.2897 8.79998 29.0212 8.57129 28.8223 8.27299C28.6235 7.97186 28.524 7.60822 28.524 7.18208C28.524 6.80708 28.5979 6.50311 28.7456 6.27015C28.8934 6.03436 29.0908 5.8497 29.338 5.71618C29.5851 5.58265 29.8578 5.48322 30.1561 5.41788C30.4573 5.3497 30.7598 5.29572 31.0638 5.25595C31.4615 5.20481 31.784 5.16646 32.0311 5.14089C32.2811 5.11248 32.463 5.06561 32.5766 5.00027C32.6931 4.93493 32.7513 4.82129 32.7513 4.65936V4.62527C32.7513 4.20481 32.6363 3.87811 32.4061 3.64515C32.1789 3.4122 31.8337 3.29572 31.3706 3.29572C30.8905 3.29572 30.5141 3.40083 30.2414 3.61106C29.9686 3.82129 29.7769 4.04572 29.6661 4.28436L28.7115 3.94345C28.882 3.54572 29.1093 3.23606 29.3934 3.01447C29.6803 2.79004 29.9928 2.63379 30.3309 2.54572C30.6718 2.45481 31.007 2.40936 31.3365 2.40936C31.5468 2.40936 31.7882 2.43493 32.061 2.48606C32.3365 2.53436 32.6022 2.63521 32.8578 2.78862C33.1164 2.94203 33.3309 3.17356 33.5013 3.48322C33.6718 3.79288 33.757 4.20765 33.757 4.72754V9.04004H32.7513V8.15368H32.7002C32.632 8.29572 32.5184 8.44771 32.3593 8.60964C32.2002 8.77157 31.9885 8.90936 31.7243 9.02299C31.4601 9.13663 31.1377 9.19345 30.757 9.19345ZM30.9104 8.29004C31.3081 8.29004 31.6434 8.21191 31.9161 8.05566C32.1917 7.89941 32.399 7.69771 32.5382 7.45055C32.6803 7.20339 32.7513 6.94345 32.7513 6.67072V5.75027C32.7087 5.8014 32.6149 5.84828 32.4701 5.89089C32.328 5.93066 32.1632 5.96618 31.9757 5.99743C31.7911 6.02583 31.6107 6.0514 31.4345 6.07413C31.2613 6.09402 31.1206 6.11106 31.0127 6.12527C30.7513 6.15936 30.507 6.21475 30.2797 6.29146C30.0553 6.36532 29.8735 6.47754 29.7343 6.62811C29.5979 6.77583 29.5297 6.97754 29.5297 7.23322C29.5297 7.58265 29.659 7.84686 29.9175 8.02583C30.1789 8.20197 30.5098 8.29004 30.9104 8.29004ZM35.5926 9.04004V2.49458H36.5642V3.48322H36.6323C36.7517 3.15936 36.9676 2.89657 37.2801 2.69487C37.5926 2.49316 37.9448 2.39231 38.3369 2.39231C38.4108 2.39231 38.5031 2.39373 38.6139 2.39657C38.7247 2.39941 38.8085 2.40368 38.8653 2.40936V3.43208C38.8312 3.42356 38.7531 3.41078 38.6309 3.39373C38.5116 3.37385 38.3852 3.3639 38.2517 3.3639C37.9335 3.3639 37.6494 3.43066 37.3994 3.56419C37.1522 3.69487 36.9562 3.87669 36.8113 4.10964C36.6693 4.33975 36.5983 4.60254 36.5983 4.89799V9.04004H35.5926ZM40.9044 11.4946C40.7339 11.4946 40.5819 11.4804 40.4484 11.452C40.3149 11.4264 40.2225 11.4008 40.1714 11.3753L40.4271 10.4889C40.6714 10.5514 40.8873 10.5741 41.0748 10.5571C41.2623 10.54 41.4285 10.4562 41.5734 10.3057C41.7211 10.1579 41.8561 9.91788 41.9782 9.58549L42.1657 9.07413L39.7453 2.49458H40.8362L42.643 7.71049H42.7112L44.518 2.49458H45.6089L42.8305 9.99458C42.7055 10.3327 42.5507 10.6125 42.366 10.8341C42.1814 11.0585 41.9669 11.2247 41.7225 11.3327C41.4811 11.4406 41.2083 11.4946 40.9044 11.4946ZM57.8113 4.6764C57.8113 5.59686 57.6451 6.39231 57.3127 7.06277C56.9804 7.73322 56.5244 8.25027 55.9448 8.6139C55.3653 8.97754 54.7034 9.15936 53.9591 9.15936C53.2147 9.15936 52.5528 8.97754 51.9733 8.6139C51.3937 8.25027 50.9377 7.73322 50.6054 7.06277C50.273 6.39231 50.1068 5.59686 50.1068 4.6764C50.1068 3.75595 50.273 2.96049 50.6054 2.29004C50.9377 1.61958 51.3937 1.10254 51.9733 0.738903C52.5528 0.375266 53.2147 0.193448 53.9591 0.193448C54.7034 0.193448 55.3653 0.375266 55.9448 0.738903C56.5244 1.10254 56.9804 1.61958 57.3127 2.29004C57.6451 2.96049 57.8113 3.75595 57.8113 4.6764ZM56.7886 4.6764C56.7886 3.92072 56.6622 3.28294 56.4093 2.76305C56.1593 2.24316 55.8198 1.8497 55.3909 1.58265C54.9647 1.31561 54.4875 1.18208 53.9591 1.18208C53.4306 1.18208 52.9519 1.31561 52.523 1.58265C52.0968 1.8497 51.7573 2.24316 51.5045 2.76305C51.2545 3.28294 51.1295 3.92072 51.1295 4.6764C51.1295 5.43208 51.2545 6.06987 51.5045 6.58975C51.7573 7.10964 52.0968 7.50311 52.523 7.77015C52.9519 8.0372 53.4306 8.17072 53.9591 8.17072C54.4875 8.17072 54.9647 8.0372 55.3909 7.77015C55.8198 7.50311 56.1593 7.10964 56.4093 6.58975C56.6622 6.06987 56.7886 5.43208 56.7886 4.6764ZM59.4519 9.04004V2.49458H60.4235V3.48322H60.4917C60.611 3.15936 60.8269 2.89657 61.1394 2.69487C61.4519 2.49316 61.8042 2.39231 62.1963 2.39231C62.2701 2.39231 62.3625 2.39373 62.4733 2.39657C62.5841 2.39941 62.6679 2.40368 62.7247 2.40936V3.43208C62.6906 3.42356 62.6125 3.41078 62.4903 3.39373C62.371 3.37385 62.2446 3.3639 62.111 3.3639C61.7929 3.3639 61.5088 3.43066 61.2588 3.56419C61.0116 3.69487 60.8156 3.87669 60.6707 4.10964C60.5287 4.33975 60.4576 4.60254 60.4576 4.89799V9.04004H59.4519ZM66.1892 9.1764C65.6437 9.1764 65.1622 9.03862 64.7446 8.76305C64.3269 8.48464 64.0002 8.0926 63.7644 7.58691C63.5287 7.07839 63.4108 6.47754 63.4108 5.78436C63.4108 5.09686 63.5287 4.50027 63.7644 3.99458C64.0002 3.4889 64.3284 3.09828 64.7488 2.82271C65.1693 2.54714 65.6551 2.40936 66.2062 2.40936C66.6323 2.40936 66.969 2.48038 67.2162 2.62243C67.4662 2.76163 67.6565 2.92072 67.7872 3.0997C67.9207 3.27583 68.0244 3.42072 68.0983 3.53436H68.1835V0.312766H69.1892V9.04004H68.2176V8.03436H68.0983C68.0244 8.15368 67.9193 8.30424 67.7829 8.48606C67.6466 8.66504 67.4519 8.82555 67.1991 8.9676C66.9463 9.1068 66.6096 9.1764 66.1892 9.1764ZM66.3255 8.27299C66.7289 8.27299 67.0698 8.16788 67.3483 7.95765C67.6267 7.74458 67.8383 7.45055 67.9832 7.07555C68.1281 6.69771 68.2005 6.26163 68.2005 5.76731C68.2005 5.27868 68.1295 4.85112 67.9875 4.48464C67.8454 4.11532 67.6352 3.82839 67.3568 3.62385C67.0784 3.41646 66.7346 3.31277 66.3255 3.31277C65.8994 3.31277 65.5443 3.42214 65.2602 3.64089C64.9789 3.8568 64.7673 4.15083 64.6252 4.52299C64.486 4.89231 64.4164 5.30708 64.4164 5.76731C64.4164 6.23322 64.4875 6.65652 64.6295 7.0372C64.7744 7.41504 64.9875 7.71618 65.2687 7.94061C65.5528 8.1622 65.9051 8.27299 66.3255 8.27299ZM73.915 9.1764C73.2843 9.1764 72.7403 9.0372 72.2829 8.75879C71.8284 8.47754 71.4775 8.08549 71.2304 7.58265C70.986 7.07697 70.8639 6.4889 70.8639 5.81845C70.8639 5.14799 70.986 4.55708 71.2304 4.04572C71.4775 3.53152 71.8213 3.13095 72.2616 2.84402C72.7048 2.55424 73.2218 2.40936 73.8127 2.40936C74.1537 2.40936 74.4903 2.46618 74.8227 2.57981C75.1551 2.69345 75.4576 2.87811 75.7304 3.13379C76.0031 3.38663 76.2204 3.72186 76.3823 4.13947C76.5443 4.55708 76.6252 5.07129 76.6252 5.68208V6.10822H71.5798V5.2389H75.6025C75.6025 4.86958 75.5287 4.54004 75.3809 4.25027C75.236 3.96049 75.0287 3.7318 74.7588 3.56419C74.4917 3.39657 74.1764 3.31277 73.8127 3.31277C73.4122 3.31277 73.0656 3.4122 72.773 3.61106C72.4832 3.80708 72.2602 4.06277 72.1039 4.37811C71.9477 4.69345 71.8696 5.03152 71.8696 5.39231V5.97186C71.8696 6.46618 71.9548 6.88521 72.1252 7.22896C72.2985 7.56987 72.5386 7.82981 72.8454 8.00879C73.1522 8.18493 73.5088 8.27299 73.915 8.27299C74.1792 8.27299 74.4179 8.23606 74.6309 8.1622C74.8468 8.08549 75.0329 7.97186 75.1892 7.82129C75.3454 7.66788 75.4662 7.47754 75.5514 7.25027L76.523 7.52299C76.4207 7.85254 76.2488 8.14231 76.0073 8.39231C75.7659 8.63947 75.4676 8.83265 75.1125 8.97186C74.7573 9.10822 74.3582 9.1764 73.915 9.1764ZM78.1551 9.04004V2.49458H79.1267V3.48322H79.1948C79.3142 3.15936 79.5301 2.89657 79.8426 2.69487C80.1551 2.49316 80.5073 2.39231 80.8994 2.39231C80.9733 2.39231 81.0656 2.39373 81.1764 2.39657C81.2872 2.39941 81.371 2.40368 81.4278 2.40936V3.43208C81.3937 3.42356 81.3156 3.41078 81.1934 3.39373C81.0741 3.37385 80.9477 3.3639 80.8142 3.3639C80.496 3.3639 80.2119 3.43066 79.9619 3.56419C79.7147 3.69487 79.5187 3.87669 79.3738 4.10964C79.2318 4.33975 79.1608 4.60254 79.1608 4.89799V9.04004H78.1551ZM87.2563 3.96049L86.3529 4.21618C86.2961 4.06561 86.2122 3.9193 86.1015 3.77725C85.9935 3.63237 85.8458 3.51305 85.6583 3.4193C85.4708 3.32555 85.2307 3.27868 84.9381 3.27868C84.5375 3.27868 84.2037 3.371 83.9367 3.55566C83.6725 3.73748 83.5404 3.96902 83.5404 4.25027C83.5404 4.50027 83.6313 4.69771 83.8131 4.8426C83.9949 4.98748 84.279 5.10822 84.6654 5.20481L85.637 5.44345C86.2222 5.58549 86.6583 5.80282 86.9452 6.09544C87.2321 6.38521 87.3756 6.75879 87.3756 7.21618C87.3756 7.59118 87.2676 7.9264 87.0517 8.22186C86.8387 8.51731 86.5404 8.75027 86.1568 8.92072C85.7733 9.09118 85.3273 9.1764 84.8188 9.1764C84.1512 9.1764 83.5986 9.03152 83.1611 8.74174C82.7236 8.45197 82.4466 8.02868 82.3301 7.47186L83.2847 7.23322C83.3756 7.58549 83.5475 7.8497 83.8003 8.02583C84.056 8.20197 84.3898 8.29004 84.8017 8.29004C85.2705 8.29004 85.6426 8.19061 85.9182 7.99174C86.1966 7.79004 86.3358 7.54856 86.3358 7.26731C86.3358 7.04004 86.2563 6.8497 86.0972 6.69629C85.9381 6.54004 85.6938 6.42356 85.3642 6.34686L84.2733 6.09118C83.6739 5.94913 83.2336 5.72896 82.9523 5.43066C82.6739 5.12953 82.5347 4.75311 82.5347 4.3014C82.5347 3.93208 82.6384 3.60538 82.8458 3.32129C83.056 3.0372 83.3415 2.81419 83.7023 2.65225C84.0659 2.49032 84.4779 2.40936 84.9381 2.40936C85.5858 2.40936 86.0943 2.5514 86.4637 2.83549C86.8358 3.11958 87.1 3.49458 87.2563 3.96049ZM1.79197 24.04H0.684015L3.88856 15.3128H4.97947L8.18402 24.04H7.07606L4.46811 16.6934H4.39992L1.79197 24.04ZM2.20106 20.6309H6.66697V21.5684H2.20106V20.6309ZM9.40703 26.4946V17.4946H10.3786V18.5344H10.4979C10.5718 18.4207 10.6741 18.2758 10.8048 18.0997C10.9383 17.9207 11.1286 17.7616 11.3758 17.6224C11.6258 17.4804 11.9638 17.4094 12.39 17.4094C12.9411 17.4094 13.4269 17.5471 13.8474 17.8227C14.2678 18.0983 14.5959 18.4889 14.8317 18.9946C15.0675 19.5003 15.1854 20.0969 15.1854 20.7844C15.1854 21.4775 15.0675 22.0784 14.8317 22.5869C14.5959 23.0926 14.2692 23.4846 13.8516 23.7631C13.434 24.0386 12.9525 24.1764 12.407 24.1764C11.9866 24.1764 11.6499 24.1068 11.3971 23.9676C11.1442 23.8256 10.9496 23.665 10.8133 23.4861C10.6769 23.3042 10.5718 23.1537 10.4979 23.0344H10.4127V26.4946H9.40703ZM10.3957 20.7673C10.3957 21.2616 10.4681 21.6977 10.613 22.0756C10.7579 22.4506 10.9695 22.7446 11.2479 22.9577C11.5263 23.1679 11.8673 23.273 12.2707 23.273C12.6911 23.273 13.042 23.1622 13.3232 22.9406C13.6073 22.7162 13.8204 22.415 13.9624 22.0372C14.1073 21.6565 14.1798 21.2332 14.1798 20.7673C14.1798 20.3071 14.1087 19.8923 13.9667 19.523C13.8275 19.1508 13.6158 18.8568 13.3317 18.6409C13.0505 18.4221 12.6968 18.3128 12.2707 18.3128C11.8616 18.3128 11.5178 18.4165 11.2394 18.6238C10.961 18.8284 10.7508 19.1153 10.6087 19.4846C10.4667 19.8511 10.3957 20.2787 10.3957 20.7673ZM16.7195 26.4946V17.4946H17.6911V18.5344H17.8104C17.8843 18.4207 17.9866 18.2758 18.1173 18.0997C18.2508 17.9207 18.4411 17.7616 18.6883 17.6224C18.9383 17.4804 19.2763 17.4094 19.7025 17.4094C20.2536 17.4094 20.7394 17.5471 21.1599 17.8227C21.5803 18.0983 21.9084 18.4889 22.1442 18.9946C22.38 19.5003 22.4979 20.0969 22.4979 20.7844C22.4979 21.4775 22.38 22.0784 22.1442 22.5869C21.9084 23.0926 21.5817 23.4846 21.1641 23.7631C20.7465 24.0386 20.265 24.1764 19.7195 24.1764C19.2991 24.1764 18.9624 24.1068 18.7096 23.9676C18.4567 23.8256 18.2621 23.665 18.1258 23.4861C17.9894 23.3042 17.8843 23.1537 17.8104 23.0344H17.7252V26.4946H16.7195ZM17.7082 20.7673C17.7082 21.2616 17.7806 21.6977 17.9255 22.0756C18.0704 22.4506 18.282 22.7446 18.5604 22.9577C18.8388 23.1679 19.1798 23.273 19.5832 23.273C20.0036 23.273 20.3545 23.1622 20.6357 22.9406C20.9198 22.7162 21.1329 22.415 21.2749 22.0372C21.4198 21.6565 21.4923 21.2332 21.4923 20.7673C21.4923 20.3071 21.4212 19.8923 21.2792 19.523C21.14 19.1508 20.9283 18.8568 20.6442 18.6409C20.363 18.4221 20.0093 18.3128 19.5832 18.3128C19.1741 18.3128 18.8303 18.4165 18.5519 18.6238C18.2735 18.8284 18.0633 19.1153 17.9212 19.4846C17.7792 19.8511 17.7082 20.2787 17.7082 20.7673ZM24.032 24.04V17.4946H25.0036V18.4832H25.0718C25.1911 18.1594 25.407 17.8966 25.7195 17.6949C26.032 17.4932 26.3843 17.3923 26.7763 17.3923C26.8502 17.3923 26.9425 17.3937 27.0533 17.3966C27.1641 17.3994 27.2479 17.4037 27.3048 17.4094V18.4321C27.2707 18.4236 27.1925 18.4108 27.0704 18.3937C26.9511 18.3738 26.8246 18.3639 26.6911 18.3639C26.3729 18.3639 26.0888 18.4307 25.8388 18.5642C25.5917 18.6949 25.3957 18.8767 25.2508 19.1096C25.1087 19.3398 25.0377 19.6025 25.0377 19.898V24.04H24.032ZM30.9567 24.1764C30.3658 24.1764 29.8474 24.0358 29.4013 23.7545C28.9582 23.4733 28.6116 23.0798 28.3616 22.5741C28.1144 22.0684 27.9908 21.4775 27.9908 20.8014C27.9908 20.1196 28.1144 19.5244 28.3616 19.0159C28.6116 18.5074 28.9582 18.1125 29.4013 17.8312C29.8474 17.55 30.3658 17.4094 30.9567 17.4094C31.5477 17.4094 32.0647 17.55 32.5079 17.8312C32.9539 18.1125 33.3005 18.5074 33.5477 19.0159C33.7977 19.5244 33.9227 20.1196 33.9227 20.8014C33.9227 21.4775 33.7977 22.0684 33.5477 22.5741C33.3005 23.0798 32.9539 23.4733 32.5079 23.7545C32.0647 24.0358 31.5477 24.1764 30.9567 24.1764ZM30.9567 23.273C31.4056 23.273 31.7749 23.1579 32.0647 22.9278C32.3545 22.6977 32.569 22.3952 32.7082 22.0202C32.8474 21.6452 32.917 21.2389 32.917 20.8014C32.917 20.3639 32.8474 19.9562 32.7082 19.5784C32.569 19.2006 32.3545 18.8952 32.0647 18.6622C31.7749 18.4292 31.4056 18.3128 30.9567 18.3128C30.5079 18.3128 30.1386 18.4292 29.8488 18.6622C29.559 18.8952 29.3445 19.2006 29.2053 19.5784C29.0661 19.9562 28.9965 20.3639 28.9965 20.8014C28.9965 21.2389 29.0661 21.6452 29.2053 22.0202C29.3445 22.3952 29.559 22.6977 29.8488 22.9278C30.1386 23.1579 30.5079 23.273 30.9567 23.273ZM40.5757 17.4946L38.1553 24.04H37.1325L34.7121 17.4946H35.803L37.6098 22.7105H37.678L39.4848 17.4946H40.5757ZM43.63 24.1934C43.2153 24.1934 42.8388 24.1153 42.5008 23.9591C42.1627 23.8 41.8942 23.5713 41.6954 23.273C41.4965 22.9719 41.3971 22.6082 41.3971 22.1821C41.3971 21.8071 41.4709 21.5031 41.6187 21.2702C41.7664 21.0344 41.9638 20.8497 42.211 20.7162C42.4582 20.5827 42.7309 20.4832 43.0292 20.4179C43.3303 20.3497 43.6329 20.2957 43.9369 20.2559C44.3346 20.2048 44.657 20.1665 44.9042 20.1409C45.1542 20.1125 45.336 20.0656 45.4496 20.0003C45.5661 19.9349 45.6244 19.8213 45.6244 19.6594V19.6253C45.6244 19.2048 45.5093 18.8781 45.2792 18.6452C45.0519 18.4122 44.7067 18.2957 44.2437 18.2957C43.7636 18.2957 43.3871 18.4008 43.1144 18.6111C42.8417 18.8213 42.6499 19.0457 42.5391 19.2844L41.5846 18.9434C41.755 18.5457 41.9823 18.2361 42.2664 18.0145C42.5533 17.79 42.8658 17.6338 43.2039 17.5457C43.5448 17.4548 43.88 17.4094 44.2096 17.4094C44.4198 17.4094 44.6613 17.4349 44.934 17.4861C45.2096 17.5344 45.4752 17.6352 45.7309 17.7886C45.9894 17.942 46.2039 18.1736 46.3744 18.4832C46.5448 18.7929 46.63 19.2077 46.63 19.7275V24.04H45.6244V23.1537H45.5732C45.505 23.2957 45.3914 23.4477 45.2323 23.6096C45.0732 23.7716 44.8616 23.9094 44.5974 24.023C44.3332 24.1366 44.0107 24.1934 43.63 24.1934ZM43.7834 23.29C44.1812 23.29 44.5164 23.2119 44.7891 23.0557C45.0647 22.8994 45.2721 22.6977 45.4113 22.4506C45.5533 22.2034 45.6244 21.9434 45.6244 21.6707V20.7503C45.5817 20.8014 45.488 20.8483 45.3431 20.8909C45.2011 20.9307 45.0363 20.9662 44.8488 20.9974C44.6641 21.0258 44.4837 21.0514 44.3076 21.0741C44.1343 21.094 43.9937 21.1111 43.8857 21.1253C43.6244 21.1594 43.38 21.2148 43.1528 21.2915C42.9283 21.3653 42.7465 21.4775 42.6073 21.6281C42.4709 21.7758 42.4028 21.9775 42.4028 22.2332C42.4028 22.5827 42.532 22.8469 42.7905 23.0258C43.0519 23.202 43.3829 23.29 43.7834 23.29ZM49.4713 15.3128V24.04H48.4656V15.3128H49.4713ZM59.5974 17.4946C59.5462 17.0628 59.3388 16.7275 58.9752 16.4889C58.6116 16.2503 58.1655 16.1309 57.6371 16.1309C57.2508 16.1309 56.9127 16.1934 56.6229 16.3184C56.336 16.4434 56.1116 16.6153 55.9496 16.8341C55.7905 17.0528 55.711 17.3014 55.711 17.5798C55.711 17.8128 55.7664 18.0131 55.8772 18.1807C55.9908 18.3454 56.1357 18.4832 56.3119 18.594C56.488 18.702 56.6727 18.7915 56.8658 18.8625C57.059 18.9307 57.2366 18.9861 57.3985 19.0287L58.2849 19.2673C58.5121 19.327 58.765 19.4094 59.0434 19.5145C59.3246 19.6196 59.5931 19.7631 59.8488 19.9449C60.1073 20.1238 60.3204 20.354 60.488 20.6352C60.6556 20.9165 60.7394 21.2616 60.7394 21.6707C60.7394 22.1423 60.6158 22.5684 60.3687 22.9491C60.1244 23.3298 59.7664 23.6324 59.2948 23.8568C58.8261 24.0812 58.2565 24.1934 57.586 24.1934C56.961 24.1934 56.4198 24.0926 55.9624 23.8909C55.5079 23.6892 55.1499 23.4079 54.8886 23.0471C54.63 22.6863 54.4837 22.2673 54.4496 21.79H55.5405C55.569 22.1196 55.6798 22.3923 55.8729 22.6082C56.069 22.8213 56.3161 22.9804 56.6144 23.0855C56.9155 23.1878 57.2394 23.2389 57.586 23.2389C57.9894 23.2389 58.3516 23.1736 58.6727 23.0429C58.9937 22.9094 59.2479 22.7247 59.4354 22.4889C59.6229 22.2503 59.7167 21.9719 59.7167 21.6537C59.7167 21.3639 59.6357 21.1281 59.4738 20.9463C59.3119 20.7645 59.0988 20.6167 58.8346 20.5031C58.5704 20.3895 58.2849 20.29 57.978 20.2048L56.9042 19.898C56.2224 19.702 55.6826 19.4221 55.2849 19.0585C54.8871 18.6949 54.6883 18.219 54.6883 17.6309C54.6883 17.1423 54.8204 16.7162 55.0846 16.3525C55.3516 15.9861 55.7096 15.702 56.1584 15.5003C56.6102 15.2957 57.1144 15.1934 57.6712 15.1934C58.2337 15.1934 58.7337 15.2943 59.1712 15.496C59.6087 15.6949 59.9553 15.9676 60.211 16.3142C60.4695 16.6608 60.6059 17.0542 60.6201 17.4946H59.5974ZM65.1872 17.4946V18.3469H61.7952V17.4946H65.1872ZM62.7838 15.9264H63.7895V22.165C63.7895 22.4491 63.8307 22.6622 63.9131 22.8042C63.9983 22.9434 64.1062 23.0372 64.2369 23.0855C64.3705 23.1309 64.5111 23.1537 64.6588 23.1537C64.7696 23.1537 64.8605 23.148 64.9315 23.1366C65.0026 23.1224 65.0594 23.1111 65.102 23.1025L65.3065 24.0059C65.2383 24.0315 65.1432 24.0571 65.021 24.0827C64.8989 24.1111 64.744 24.1253 64.5565 24.1253C64.2724 24.1253 63.994 24.0642 63.7213 23.942C63.4514 23.8199 63.227 23.6338 63.048 23.3838C62.8719 23.1338 62.7838 22.8184 62.7838 22.4378V15.9264ZM68.6261 24.1934C68.2114 24.1934 67.8349 24.1153 67.4969 23.9591C67.1588 23.8 66.8903 23.5713 66.6915 23.273C66.4926 22.9719 66.3932 22.6082 66.3932 22.1821C66.3932 21.8071 66.467 21.5031 66.6148 21.2702C66.7625 21.0344 66.9599 20.8497 67.2071 20.7162C67.4543 20.5827 67.727 20.4832 68.0253 20.4179C68.3264 20.3497 68.629 20.2957 68.933 20.2559C69.3307 20.2048 69.6531 20.1665 69.9003 20.1409C70.1503 20.1125 70.3321 20.0656 70.4457 20.0003C70.5622 19.9349 70.6205 19.8213 70.6205 19.6594V19.6253C70.6205 19.2048 70.5054 18.8781 70.2753 18.6452C70.048 18.4122 69.7028 18.2957 69.2398 18.2957C68.7597 18.2957 68.3832 18.4008 68.1105 18.6111C67.8378 18.8213 67.646 19.0457 67.5352 19.2844L66.5807 18.9434C66.7511 18.5457 66.9784 18.2361 67.2625 18.0145C67.5494 17.79 67.8619 17.6338 68.2 17.5457C68.5409 17.4548 68.8761 17.4094 69.2057 17.4094C69.4159 17.4094 69.6574 17.4349 69.9301 17.4861C70.2057 17.5344 70.4713 17.6352 70.727 17.7886C70.9855 17.942 71.2 18.1736 71.3705 18.4832C71.5409 18.7929 71.6261 19.2077 71.6261 19.7275V24.04H70.6205V23.1537H70.5693C70.5011 23.2957 70.3875 23.4477 70.2284 23.6096C70.0693 23.7716 69.8577 23.9094 69.5935 24.023C69.3293 24.1366 69.0068 24.1934 68.6261 24.1934ZM68.7795 23.29C69.1773 23.29 69.5125 23.2119 69.7852 23.0557C70.0608 22.8994 70.2682 22.6977 70.4074 22.4506C70.5494 22.2034 70.6205 21.9434 70.6205 21.6707V20.7503C70.5778 20.8014 70.4841 20.8483 70.3392 20.8909C70.1972 20.9307 70.0324 20.9662 69.8449 20.9974C69.6602 21.0258 69.4798 21.0514 69.3037 21.0741C69.1304 21.094 68.9898 21.1111 68.8818 21.1253C68.6205 21.1594 68.3761 21.2148 68.1489 21.2915C67.9244 21.3653 67.7426 21.4775 67.6034 21.6281C67.467 21.7758 67.3989 21.9775 67.3989 22.2332C67.3989 22.5827 67.5281 22.8469 67.7866 23.0258C68.048 23.202 68.379 23.29 68.7795 23.29ZM76.3083 17.4946V18.3469H72.9163V17.4946H76.3083ZM73.9049 15.9264H74.9106V22.165C74.9106 22.4491 74.9518 22.6622 75.0342 22.8042C75.1194 22.9434 75.2273 23.0372 75.358 23.0855C75.4915 23.1309 75.6322 23.1537 75.7799 23.1537C75.8907 23.1537 75.9816 23.148 76.0526 23.1366C76.1236 23.1224 76.1805 23.1111 76.2231 23.1025L76.4276 24.0059C76.3594 24.0315 76.2643 24.0571 76.1421 24.0827C76.02 24.1111 75.8651 24.1253 75.6776 24.1253C75.3935 24.1253 75.1151 24.0642 74.8424 23.942C74.5725 23.8199 74.3481 23.6338 74.1691 23.3838C73.993 23.1338 73.9049 22.8184 73.9049 22.4378V15.9264ZM81.9461 21.3639V17.4946H82.9518V24.04H81.9461V22.9321H81.8779C81.7245 23.2645 81.4859 23.5471 81.162 23.7801C80.8381 24.0102 80.429 24.1253 79.9347 24.1253C79.5256 24.1253 79.162 24.0358 78.8438 23.8568C78.5256 23.675 78.2756 23.4023 78.0938 23.0386C77.912 22.6721 77.8211 22.2105 77.8211 21.6537V17.4946H78.8268V21.5855C78.8268 22.0628 78.9603 22.4434 79.2273 22.7275C79.4972 23.0116 79.841 23.1537 80.2586 23.1537C80.5086 23.1537 80.7629 23.0898 81.0214 22.9619C81.2827 22.8341 81.5015 22.6381 81.6776 22.3738C81.8566 22.1096 81.9461 21.773 81.9461 21.3639ZM89.4301 18.9605L88.5267 19.2162C88.4699 19.0656 88.3861 18.9193 88.2753 18.7773C88.1673 18.6324 88.0196 18.5131 87.8321 18.4193C87.6446 18.3256 87.4045 18.2787 87.1119 18.2787C86.7114 18.2787 86.3776 18.371 86.1105 18.5557C85.8463 18.7375 85.7142 18.969 85.7142 19.2503C85.7142 19.5003 85.8051 19.6977 85.9869 19.8426C86.1687 19.9875 86.4528 20.1082 86.8392 20.2048L87.8108 20.4434C88.396 20.5855 88.8321 20.8028 89.119 21.0954C89.406 21.3852 89.5494 21.7588 89.5494 22.2162C89.5494 22.5912 89.4415 22.9264 89.2256 23.2219C89.0125 23.5173 88.7142 23.7503 88.3307 23.9207C87.9472 24.0912 87.5011 24.1764 86.9926 24.1764C86.325 24.1764 85.7724 24.0315 85.3349 23.7417C84.8974 23.452 84.6205 23.0287 84.504 22.4719L85.4585 22.2332C85.5494 22.5855 85.7213 22.8497 85.9741 23.0258C86.2298 23.202 86.5636 23.29 86.9756 23.29C87.4443 23.29 87.8165 23.1906 88.092 22.9917C88.3705 22.79 88.5097 22.5486 88.5097 22.2673C88.5097 22.04 88.4301 21.8497 88.271 21.6963C88.1119 21.54 87.8676 21.4236 87.5381 21.3469L86.4472 21.0912C85.8477 20.9491 85.4074 20.729 85.1261 20.4307C84.8477 20.1295 84.7085 19.7531 84.7085 19.3014C84.7085 18.9321 84.8122 18.6054 85.0196 18.3213C85.2298 18.0372 85.5153 17.8142 85.8761 17.6523C86.2398 17.4903 86.6517 17.4094 87.1119 17.4094C87.7597 17.4094 88.2682 17.5514 88.6375 17.8355C89.0097 18.1196 89.2739 18.4946 89.4301 18.9605Z" fill="black"/>
</svg>
