<svg width="85" height="26" viewBox="0 0 85 26" fill="none" xmlns="http://www.w3.org/2000/svg">
<path d="M0.607844 9.04004V0.312766H3.55671C4.24137 0.312766 4.80103 0.436346 5.23568 0.683505C5.67318 0.927823 5.99705 1.25879 6.20728 1.6764C6.4175 2.09402 6.52262 2.55993 6.52262 3.07413C6.52262 3.58833 6.4175 4.05566 6.20728 4.47612C5.99989 4.89657 5.67887 5.2318 5.24421 5.4818C4.80955 5.72896 4.25273 5.85254 3.57375 5.85254H1.46012V4.91504H3.53966C4.00841 4.91504 4.38483 4.83407 4.66892 4.67214C4.95301 4.51021 5.15898 4.29146 5.28682 4.01589C5.4175 3.73748 5.48284 3.42356 5.48284 3.07413C5.48284 2.7247 5.4175 2.4122 5.28682 2.13663C5.15898 1.86106 4.95159 1.64515 4.66466 1.4889C4.37773 1.32981 3.99705 1.25027 3.52262 1.25027H1.66466V9.04004H0.607844ZM8.08867 9.04004V2.49458H9.06026V3.48322H9.12844C9.24776 3.15936 9.46367 2.89657 9.77617 2.69487C10.0887 2.49316 10.4409 2.39231 10.833 2.39231C10.9068 2.39231 10.9992 2.39373 11.11 2.39657C11.2208 2.39941 11.3046 2.40368 11.3614 2.40936V3.43208C11.3273 3.42356 11.2492 3.41078 11.127 3.39373C11.0077 3.37385 10.8813 3.3639 10.7478 3.3639C10.4296 3.3639 10.1455 3.43066 9.89549 3.56419C9.64833 3.69487 9.4523 3.87669 9.30742 4.10964C9.16537 4.33975 9.09435 4.60254 9.09435 4.89799V9.04004H8.08867ZM12.5535 9.04004V2.49458H13.5592V9.04004H12.5535ZM13.0649 1.40368C12.8689 1.40368 12.6998 1.33691 12.5578 1.20339C12.4186 1.06987 12.349 0.909357 12.349 0.721857C12.349 0.534357 12.4186 0.373846 12.5578 0.240323C12.6998 0.1068 12.8689 0.0400391 13.0649 0.0400391C13.2609 0.0400391 13.4285 0.1068 13.5677 0.240323C13.7098 0.373846 13.7808 0.534357 13.7808 0.721857C13.7808 0.909357 13.7098 1.06987 13.5677 1.20339C13.4285 1.33691 13.2609 1.40368 13.0649 1.40368ZM15.4012 9.04004V2.49458H16.3728V3.51731H16.458C16.5943 3.16788 16.8145 2.89657 17.1185 2.70339C17.4225 2.50737 17.7875 2.40936 18.2137 2.40936C18.6455 2.40936 19.0049 2.50737 19.2918 2.70339C19.5816 2.89657 19.8074 3.16788 19.9693 3.51731H20.0375C20.2051 3.17924 20.4566 2.91078 20.7918 2.71191C21.127 2.51021 21.529 2.40936 21.9978 2.40936C22.583 2.40936 23.0617 2.5926 23.4338 2.95907C23.806 3.32271 23.9921 3.88947 23.9921 4.65936V9.04004H22.9864V4.65936C22.9864 4.1764 22.8543 3.83123 22.5901 3.62385C22.3259 3.41646 22.0148 3.31277 21.6568 3.31277C21.1966 3.31277 20.8401 3.45197 20.5872 3.73038C20.3344 4.00595 20.208 4.35538 20.208 4.77868V9.04004H19.1853V4.55708C19.1853 4.18493 19.0645 3.88521 18.823 3.65794C18.5816 3.42782 18.2705 3.31277 17.8898 3.31277C17.6284 3.31277 17.3841 3.38237 17.1568 3.52157C16.9324 3.66078 16.7506 3.85396 16.6114 4.10112C16.475 4.34544 16.4068 4.62811 16.4068 4.94913V9.04004H15.4012ZM27.757 9.19345C27.3422 9.19345 26.9658 9.11532 26.6277 8.95907C26.2897 8.79998 26.0212 8.57129 25.8223 8.27299C25.6235 7.97186 25.524 7.60822 25.524 7.18208C25.524 6.80708 25.5979 6.50311 25.7456 6.27015C25.8934 6.03436 26.0908 5.8497 26.338 5.71618C26.5851 5.58265 26.8578 5.48322 27.1561 5.41788C27.4573 5.3497 27.7598 5.29572 28.0638 5.25595C28.4615 5.20481 28.784 5.16646 29.0311 5.14089C29.2811 5.11248 29.463 5.06561 29.5766 5.00027C29.6931 4.93493 29.7513 4.82129 29.7513 4.65936V4.62527C29.7513 4.20481 29.6363 3.87811 29.4061 3.64515C29.1789 3.4122 28.8337 3.29572 28.3706 3.29572C27.8905 3.29572 27.5141 3.40083 27.2414 3.61106C26.9686 3.82129 26.7769 4.04572 26.6661 4.28436L25.7115 3.94345C25.882 3.54572 26.1093 3.23606 26.3934 3.01447C26.6803 2.79004 26.9928 2.63379 27.3309 2.54572C27.6718 2.45481 28.007 2.40936 28.3365 2.40936C28.5468 2.40936 28.7882 2.43493 29.061 2.48606C29.3365 2.53436 29.6022 2.63521 29.8578 2.78862C30.1164 2.94203 30.3309 3.17356 30.5013 3.48322C30.6718 3.79288 30.757 4.20765 30.757 4.72754V9.04004H29.7513V8.15368H29.7002C29.632 8.29572 29.5184 8.44771 29.3593 8.60964C29.2002 8.77157 28.9885 8.90936 28.7243 9.02299C28.4601 9.13663 28.1377 9.19345 27.757 9.19345ZM27.9104 8.29004C28.3081 8.29004 28.6434 8.21191 28.9161 8.05566C29.1917 7.89941 29.399 7.69771 29.5382 7.45055C29.6803 7.20339 29.7513 6.94345 29.7513 6.67072V5.75027C29.7087 5.8014 29.6149 5.84828 29.4701 5.89089C29.328 5.93066 29.1632 5.96618 28.9757 5.99743C28.7911 6.02583 28.6107 6.0514 28.4345 6.07413C28.2613 6.09402 28.1206 6.11106 28.0127 6.12527C27.7513 6.15936 27.507 6.21475 27.2797 6.29146C27.0553 6.36532 26.8735 6.47754 26.7343 6.62811C26.5979 6.77583 26.5297 6.97754 26.5297 7.23322C26.5297 7.58265 26.659 7.84686 26.9175 8.02583C27.1789 8.20197 27.5098 8.29004 27.9104 8.29004ZM32.5926 9.04004V2.49458H33.5642V3.48322H33.6323C33.7517 3.15936 33.9676 2.89657 34.2801 2.69487C34.5926 2.49316 34.9448 2.39231 35.3369 2.39231C35.4108 2.39231 35.5031 2.39373 35.6139 2.39657C35.7247 2.39941 35.8085 2.40368 35.8653 2.40936V3.43208C35.8312 3.42356 35.7531 3.41078 35.6309 3.39373C35.5116 3.37385 35.3852 3.3639 35.2517 3.3639C34.9335 3.3639 34.6494 3.43066 34.3994 3.56419C34.1522 3.69487 33.9562 3.87669 33.8113 4.10964C33.6693 4.33975 33.5983 4.60254 33.5983 4.89799V9.04004H32.5926ZM37.9044 11.4946C37.7339 11.4946 37.5819 11.4804 37.4484 11.452C37.3149 11.4264 37.2225 11.4008 37.1714 11.3753L37.4271 10.4889C37.6714 10.5514 37.8873 10.5741 38.0748 10.5571C38.2623 10.54 38.4285 10.4562 38.5734 10.3057C38.7211 10.1579 38.8561 9.91788 38.9782 9.58549L39.1657 9.07413L36.7453 2.49458H37.8362L39.643 7.71049H39.7112L41.518 2.49458H42.6089L39.8305 9.99458C39.7055 10.3327 39.5507 10.6125 39.366 10.8341C39.1814 11.0585 38.9669 11.2247 38.7225 11.3327C38.4811 11.4406 38.2083 11.4946 37.9044 11.4946ZM54.8113 4.6764C54.8113 5.59686 54.6451 6.39231 54.3127 7.06277C53.9804 7.73322 53.5244 8.25027 52.9448 8.6139C52.3653 8.97754 51.7034 9.15936 50.9591 9.15936C50.2147 9.15936 49.5528 8.97754 48.9733 8.6139C48.3937 8.25027 47.9377 7.73322 47.6054 7.06277C47.273 6.39231 47.1068 5.59686 47.1068 4.6764C47.1068 3.75595 47.273 2.96049 47.6054 2.29004C47.9377 1.61958 48.3937 1.10254 48.9733 0.738903C49.5528 0.375266 50.2147 0.193448 50.9591 0.193448C51.7034 0.193448 52.3653 0.375266 52.9448 0.738903C53.5244 1.10254 53.9804 1.61958 54.3127 2.29004C54.6451 2.96049 54.8113 3.75595 54.8113 4.6764ZM53.7886 4.6764C53.7886 3.92072 53.6622 3.28294 53.4093 2.76305C53.1593 2.24316 52.8198 1.8497 52.3909 1.58265C51.9647 1.31561 51.4875 1.18208 50.9591 1.18208C50.4306 1.18208 49.9519 1.31561 49.523 1.58265C49.0968 1.8497 48.7573 2.24316 48.5045 2.76305C48.2545 3.28294 48.1295 3.92072 48.1295 4.6764C48.1295 5.43208 48.2545 6.06987 48.5045 6.58975C48.7573 7.10964 49.0968 7.50311 49.523 7.77015C49.9519 8.0372 50.4306 8.17072 50.9591 8.17072C51.4875 8.17072 51.9647 8.0372 52.3909 7.77015C52.8198 7.50311 53.1593 7.10964 53.4093 6.58975C53.6622 6.06987 53.7886 5.43208 53.7886 4.6764ZM56.4519 9.04004V2.49458H57.4235V3.48322H57.4917C57.611 3.15936 57.8269 2.89657 58.1394 2.69487C58.4519 2.49316 58.8042 2.39231 59.1963 2.39231C59.2701 2.39231 59.3625 2.39373 59.4733 2.39657C59.5841 2.39941 59.6679 2.40368 59.7247 2.40936V3.43208C59.6906 3.42356 59.6125 3.41078 59.4903 3.39373C59.371 3.37385 59.2446 3.3639 59.111 3.3639C58.7929 3.3639 58.5088 3.43066 58.2588 3.56419C58.0116 3.69487 57.8156 3.87669 57.6707 4.10964C57.5287 4.33975 57.4576 4.60254 57.4576 4.89799V9.04004H56.4519ZM63.1892 9.1764C62.6437 9.1764 62.1622 9.03862 61.7446 8.76305C61.3269 8.48464 61.0002 8.0926 60.7644 7.58691C60.5287 7.07839 60.4108 6.47754 60.4108 5.78436C60.4108 5.09686 60.5287 4.50027 60.7644 3.99458C61.0002 3.4889 61.3284 3.09828 61.7488 2.82271C62.1693 2.54714 62.6551 2.40936 63.2062 2.40936C63.6323 2.40936 63.969 2.48038 64.2162 2.62243C64.4662 2.76163 64.6565 2.92072 64.7872 3.0997C64.9207 3.27583 65.0244 3.42072 65.0983 3.53436H65.1835V0.312766H66.1892V9.04004H65.2176V8.03436H65.0983C65.0244 8.15368 64.9193 8.30424 64.7829 8.48606C64.6466 8.66504 64.4519 8.82555 64.1991 8.9676C63.9463 9.1068 63.6096 9.1764 63.1892 9.1764ZM63.3255 8.27299C63.7289 8.27299 64.0698 8.16788 64.3483 7.95765C64.6267 7.74458 64.8383 7.45055 64.9832 7.07555C65.1281 6.69771 65.2005 6.26163 65.2005 5.76731C65.2005 5.27868 65.1295 4.85112 64.9875 4.48464C64.8454 4.11532 64.6352 3.82839 64.3568 3.62385C64.0784 3.41646 63.7346 3.31277 63.3255 3.31277C62.8994 3.31277 62.5443 3.42214 62.2602 3.64089C61.9789 3.8568 61.7673 4.15083 61.6252 4.52299C61.486 4.89231 61.4164 5.30708 61.4164 5.76731C61.4164 6.23322 61.4875 6.65652 61.6295 7.0372C61.7744 7.41504 61.9875 7.71618 62.2687 7.94061C62.5528 8.1622 62.9051 8.27299 63.3255 8.27299ZM70.915 9.1764C70.2843 9.1764 69.7403 9.0372 69.2829 8.75879C68.8284 8.47754 68.4775 8.08549 68.2304 7.58265C67.986 7.07697 67.8639 6.4889 67.8639 5.81845C67.8639 5.14799 67.986 4.55708 68.2304 4.04572C68.4775 3.53152 68.8213 3.13095 69.2616 2.84402C69.7048 2.55424 70.2218 2.40936 70.8127 2.40936C71.1537 2.40936 71.4903 2.46618 71.8227 2.57981C72.1551 2.69345 72.4576 2.87811 72.7304 3.13379C73.0031 3.38663 73.2204 3.72186 73.3823 4.13947C73.5443 4.55708 73.6252 5.07129 73.6252 5.68208V6.10822H68.5798V5.2389H72.6025C72.6025 4.86958 72.5287 4.54004 72.3809 4.25027C72.236 3.96049 72.0287 3.7318 71.7588 3.56419C71.4917 3.39657 71.1764 3.31277 70.8127 3.31277C70.4122 3.31277 70.0656 3.4122 69.773 3.61106C69.4832 3.80708 69.2602 4.06277 69.1039 4.37811C68.9477 4.69345 68.8696 5.03152 68.8696 5.39231V5.97186C68.8696 6.46618 68.9548 6.88521 69.1252 7.22896C69.2985 7.56987 69.5386 7.82981 69.8454 8.00879C70.1522 8.18493 70.5088 8.27299 70.915 8.27299C71.1792 8.27299 71.4179 8.23606 71.6309 8.1622C71.8468 8.08549 72.0329 7.97186 72.1892 7.82129C72.3454 7.66788 72.4662 7.47754 72.5514 7.25027L73.523 7.52299C73.4207 7.85254 73.2488 8.14231 73.0073 8.39231C72.7659 8.63947 72.4676 8.83265 72.1125 8.97186C71.7573 9.10822 71.3582 9.1764 70.915 9.1764ZM75.1551 9.04004V2.49458H76.1267V3.48322H76.1948C76.3142 3.15936 76.5301 2.89657 76.8426 2.69487C77.1551 2.49316 77.5073 2.39231 77.8994 2.39231C77.9733 2.39231 78.0656 2.39373 78.1764 2.39657C78.2872 2.39941 78.371 2.40368 78.4278 2.40936V3.43208C78.3937 3.42356 78.3156 3.41078 78.1934 3.39373C78.0741 3.37385 77.9477 3.3639 77.8142 3.3639C77.496 3.3639 77.2119 3.43066 76.9619 3.56419C76.7147 3.69487 76.5187 3.87669 76.3738 4.10964C76.2318 4.33975 76.1608 4.60254 76.1608 4.89799V9.04004H75.1551ZM84.2563 3.96049L83.3529 4.21618C83.2961 4.06561 83.2122 3.9193 83.1015 3.77725C82.9935 3.63237 82.8458 3.51305 82.6583 3.4193C82.4708 3.32555 82.2307 3.27868 81.9381 3.27868C81.5375 3.27868 81.2037 3.371 80.9367 3.55566C80.6725 3.73748 80.5404 3.96902 80.5404 4.25027C80.5404 4.50027 80.6313 4.69771 80.8131 4.8426C80.9949 4.98748 81.279 5.10822 81.6654 5.20481L82.637 5.44345C83.2222 5.58549 83.6583 5.80282 83.9452 6.09544C84.2321 6.38521 84.3756 6.75879 84.3756 7.21618C84.3756 7.59118 84.2676 7.9264 84.0517 8.22186C83.8387 8.51731 83.5404 8.75027 83.1568 8.92072C82.7733 9.09118 82.3273 9.1764 81.8188 9.1764C81.1512 9.1764 80.5986 9.03152 80.1611 8.74174C79.7236 8.45197 79.4466 8.02868 79.3301 7.47186L80.2847 7.23322C80.3756 7.58549 80.5475 7.8497 80.8003 8.02583C81.056 8.20197 81.3898 8.29004 81.8017 8.29004C82.2705 8.29004 82.6426 8.19061 82.9182 7.99174C83.1966 7.79004 83.3358 7.54856 83.3358 7.26731C83.3358 7.04004 83.2563 6.8497 83.0972 6.69629C82.9381 6.54004 82.6938 6.42356 82.3642 6.34686L81.2733 6.09118C80.6739 5.94913 80.2336 5.72896 79.9523 5.43066C79.6739 5.12953 79.5347 4.75311 79.5347 4.3014C79.5347 3.93208 79.6384 3.60538 79.8458 3.32129C80.056 3.0372 80.3415 2.81419 80.7023 2.65225C81.0659 2.49032 81.4779 2.40936 81.9381 2.40936C82.5858 2.40936 83.0943 2.5514 83.4637 2.83549C83.8358 3.11958 84.1 3.49458 84.2563 3.96049ZM24.0033 19.6764C24.0033 18.6025 24.1425 17.6153 24.4209 16.7148C24.7021 15.8113 25.1027 14.9804 25.6226 14.2219H26.5089C26.3044 14.5031 26.1126 14.8497 25.9337 15.2616C25.7575 15.6707 25.6027 16.121 25.4692 16.6125C25.3356 17.1011 25.2305 17.6068 25.1538 18.1295C25.08 18.6523 25.043 19.1679 25.043 19.6764C25.043 20.3525 25.1084 21.0386 25.2391 21.7346C25.3697 22.4307 25.5459 23.077 25.7675 23.6736C25.9891 24.2702 26.2362 24.7559 26.5089 25.1309H25.6226C25.1027 24.3724 24.7021 23.5429 24.4209 22.6423C24.1425 21.7389 24.0033 20.7503 24.0033 19.6764ZM30.8225 24.04H28.1293V15.3128H30.9418C31.7884 15.3128 32.5129 15.4875 33.1151 15.8369C33.7174 16.1835 34.179 16.6821 34.5001 17.3327C34.8211 17.9804 34.9816 18.7559 34.9816 19.6594C34.9816 20.5684 34.8197 21.3511 34.4958 22.0074C34.1719 22.6608 33.7004 23.1636 33.081 23.5159C32.4617 23.8653 31.7089 24.04 30.8225 24.04ZM29.1861 23.1025H30.7543C31.4759 23.1025 32.0739 22.9633 32.5484 22.6849C33.0228 22.4065 33.3765 22.0102 33.6094 21.496C33.8424 20.9818 33.9589 20.3696 33.9589 19.6594C33.9589 18.9548 33.8438 18.3483 33.6137 17.8398C33.3836 17.3284 33.0398 16.9363 32.5825 16.6636C32.1251 16.3881 31.5555 16.2503 30.8736 16.2503H29.1861V23.1025ZM36.7543 24.04V15.3128H39.8055C40.4134 15.3128 40.9148 15.4179 41.3097 15.6281C41.7046 15.8355 41.9986 16.1153 42.1918 16.4676C42.385 16.817 42.4816 17.2048 42.4816 17.6309C42.4816 18.0059 42.4148 18.3156 42.2813 18.5599C42.1506 18.8042 41.9773 18.9974 41.7614 19.1395C41.5484 19.2815 41.3168 19.3866 41.0668 19.4548V19.54C41.3339 19.5571 41.6023 19.6508 41.8722 19.8213C42.1421 19.9917 42.368 20.2361 42.5498 20.5542C42.7316 20.8724 42.8225 21.2616 42.8225 21.7219C42.8225 22.1594 42.7231 22.5528 42.5242 22.9023C42.3254 23.2517 42.0114 23.5287 41.5825 23.7332C41.1535 23.9378 40.5952 24.04 39.9077 24.04H36.7543ZM37.8111 23.1025H39.9077C40.5981 23.1025 41.0881 22.969 41.3779 22.702C41.6705 22.4321 41.8168 22.1054 41.8168 21.7219C41.8168 21.4264 41.7415 21.1537 41.591 20.9037C41.4404 20.6508 41.2259 20.4491 40.9475 20.2986C40.6691 20.1452 40.3396 20.0684 39.9589 20.0684H37.8111V23.1025ZM37.8111 19.148H39.7714C40.0896 19.148 40.3765 19.0855 40.6322 18.9605C40.8907 18.8355 41.0952 18.6594 41.2458 18.4321C41.3992 18.2048 41.4759 17.9378 41.4759 17.6309C41.4759 17.2474 41.3424 16.9221 41.0754 16.6551C40.8083 16.3852 40.385 16.2503 39.8055 16.2503H37.8111V19.148ZM44.559 24.04V15.3128H47.5079C48.1897 15.3128 48.7494 15.4292 49.1869 15.6622C49.6244 15.8923 49.9482 16.2091 50.1584 16.6125C50.3687 17.0159 50.4738 17.4747 50.4738 17.9889C50.4738 18.5031 50.3687 18.9591 50.1584 19.3568C49.9482 19.7545 49.6258 20.067 49.1911 20.2943C48.7565 20.5187 48.2011 20.6309 47.5249 20.6309H45.1386V19.6764H47.4908C47.9567 19.6764 48.3317 19.6082 48.6158 19.4719C48.9028 19.3355 49.1102 19.1423 49.238 18.8923C49.3687 18.6395 49.434 18.3383 49.434 17.9889C49.434 17.6395 49.3687 17.3341 49.238 17.0727C49.1073 16.8113 48.8985 16.6096 48.6116 16.4676C48.3246 16.3227 47.9454 16.2503 47.4738 16.2503H45.6158V24.04H44.559ZM48.667 20.1196L50.8147 24.04H49.5874L47.4738 20.1196H48.667ZM56.7348 18.9605L55.8314 19.2162C55.7746 19.0656 55.6908 18.9193 55.58 18.7773C55.472 18.6324 55.3243 18.5131 55.1368 18.4193C54.9493 18.3256 54.7092 18.2787 54.4166 18.2787C54.016 18.2787 53.6822 18.371 53.4152 18.5557C53.151 18.7375 53.0189 18.969 53.0189 19.2503C53.0189 19.5003 53.1098 19.6977 53.2916 19.8426C53.4734 19.9875 53.7575 20.1082 54.1439 20.2048L55.1155 20.4434C55.7007 20.5855 56.1368 20.8028 56.4237 21.0954C56.7106 21.3852 56.8541 21.7588 56.8541 22.2162C56.8541 22.5912 56.7462 22.9264 56.5303 23.2219C56.3172 23.5173 56.0189 23.7503 55.6354 23.9207C55.2518 24.0912 54.8058 24.1764 54.2973 24.1764C53.6297 24.1764 53.0771 24.0315 52.6396 23.7417C52.2021 23.452 51.9251 23.0287 51.8087 22.4719L52.7632 22.2332C52.8541 22.5855 53.026 22.8497 53.2788 23.0258C53.5345 23.202 53.8683 23.29 54.2803 23.29C54.749 23.29 55.1212 23.1906 55.3967 22.9917C55.6751 22.79 55.8143 22.5486 55.8143 22.2673C55.8143 22.04 55.7348 21.8497 55.5757 21.6963C55.4166 21.54 55.1723 21.4236 54.8428 21.3469L53.7518 21.0912C53.1524 20.9491 52.7121 20.729 52.4308 20.4307C52.1524 20.1295 52.0132 19.7531 52.0132 19.3014C52.0132 18.9321 52.1169 18.6054 52.3243 18.3213C52.5345 18.0372 52.82 17.8142 53.1808 17.6523C53.5445 17.4903 53.9564 17.4094 54.4166 17.4094C55.0643 17.4094 55.5729 17.5514 55.9422 17.8355C56.3143 18.1196 56.5785 18.4946 56.7348 18.9605ZM60.5157 20.3582C60.5157 21.4321 60.3751 22.4207 60.0938 23.3241C59.8154 24.2247 59.4163 25.0542 58.8964 25.8128H58.01C58.2146 25.5315 58.4049 25.1849 58.581 24.773C58.76 24.3639 58.9163 23.915 59.0498 23.4264C59.1833 22.9349 59.287 22.4278 59.3609 21.9051C59.4376 21.3795 59.4759 20.8639 59.4759 20.3582C59.4759 19.6821 59.4106 18.996 59.2799 18.3C59.1492 17.604 58.9731 16.9577 58.7515 16.3611C58.5299 15.7645 58.2827 15.2787 58.01 14.9037H58.8964C59.4163 15.6622 59.8154 16.4932 60.0938 17.3966C60.3751 18.2971 60.5157 19.2844 60.5157 20.3582Z" fill="black"/>
</svg>
