<svg width="85" height="13" viewBox="0 0 85 13" fill="none" xmlns="http://www.w3.org/2000/svg">
<path d="M0.316828 9.78223V1.05495H3.26569C3.95035 1.05495 4.51001 1.17853 4.94467 1.42569C5.38217 1.67001 5.70603 2.00098 5.91626 2.41859C6.12649 2.8362 6.2316 3.30211 6.2316 3.81632C6.2316 4.33052 6.12649 4.79785 5.91626 5.21831C5.70887 5.63876 5.38785 5.97399 4.95319 6.22399C4.51853 6.47115 3.96171 6.59473 3.28274 6.59473H1.1691V5.65723H3.24865C3.7174 5.65723 4.09382 5.57626 4.37791 5.41433C4.662 5.2524 4.86796 5.03365 4.99581 4.75808C5.12649 4.47967 5.19183 4.16575 5.19183 3.81632C5.19183 3.46689 5.12649 3.15439 4.99581 2.87882C4.86796 2.60325 4.66058 2.38734 4.37365 2.23109C4.08671 2.072 3.70603 1.99245 3.2316 1.99245H1.37365V9.78223H0.316828ZM7.79765 9.78223V3.23677H8.76924V4.22541H8.83742C8.95674 3.90154 9.17265 3.63876 9.48515 3.43706C9.79765 3.23535 10.1499 3.1345 10.542 3.1345C10.6158 3.1345 10.7082 3.13592 10.819 3.13876C10.9298 3.1416 11.0136 3.14586 11.0704 3.15154V4.17427C11.0363 4.16575 10.9582 4.15296 10.836 4.13592C10.7167 4.11603 10.5903 4.10609 10.4567 4.10609C10.1386 4.10609 9.85447 4.17285 9.60447 4.30637C9.35731 4.43706 9.16129 4.61887 9.0164 4.85183C8.87436 5.08194 8.80333 5.34473 8.80333 5.64018V9.78223H7.79765ZM12.2625 9.78223V3.23677H13.2682V9.78223H12.2625ZM12.7739 2.14586C12.5778 2.14586 12.4088 2.0791 12.2668 1.94558C12.1276 1.81206 12.058 1.65154 12.058 1.46404C12.058 1.27654 12.1276 1.11603 12.2668 0.98251C12.4088 0.848988 12.5778 0.782227 12.7739 0.782227C12.9699 0.782227 13.1375 0.848988 13.2767 0.98251C13.4187 1.11603 13.4898 1.27654 13.4898 1.46404C13.4898 1.65154 13.4187 1.81206 13.2767 1.94558C13.1375 2.0791 12.9699 2.14586 12.7739 2.14586ZM15.1102 9.78223V3.23677H16.0817V4.2595H16.167C16.3033 3.91007 16.5235 3.63876 16.8275 3.44558C17.1315 3.24956 17.4965 3.15154 17.9227 3.15154C18.3545 3.15154 18.7138 3.24956 19.0008 3.44558C19.2905 3.63876 19.5164 3.91007 19.6783 4.2595H19.7465C19.9141 3.92143 20.1655 3.65297 20.5008 3.4541C20.836 3.2524 21.238 3.15154 21.7067 3.15154C22.292 3.15154 22.7707 3.33478 23.1428 3.70126C23.515 4.0649 23.7011 4.63166 23.7011 5.40154V9.78223H22.6954V5.40154C22.6954 4.91859 22.5633 4.57342 22.2991 4.36603C22.0349 4.15865 21.7238 4.05495 21.3658 4.05495C20.9056 4.05495 20.5491 4.19416 20.2962 4.47257C20.0434 4.74814 19.917 5.09757 19.917 5.52086V9.78223H18.8942V5.29927C18.8942 4.92711 18.7735 4.6274 18.532 4.40012C18.2905 4.17001 17.9795 4.05495 17.5988 4.05495C17.3374 4.05495 17.0931 4.12456 16.8658 4.26376C16.6414 4.40297 16.4596 4.59615 16.3204 4.84331C16.184 5.08762 16.1158 5.37029 16.1158 5.69132V9.78223H15.1102ZM27.466 9.93564C27.0512 9.93564 26.6748 9.85751 26.3367 9.70126C25.9986 9.54217 25.7302 9.31348 25.5313 9.01518C25.3325 8.71404 25.233 8.35041 25.233 7.92427C25.233 7.54927 25.3069 7.24529 25.4546 7.01234C25.6023 6.77654 25.7998 6.59189 26.0469 6.45836C26.2941 6.32484 26.5668 6.22541 26.8651 6.16007C27.1663 6.09189 27.4688 6.03791 27.7728 5.99814C28.1705 5.947 28.493 5.90865 28.7401 5.88308C28.9901 5.85467 29.1719 5.80779 29.2856 5.74245C29.4021 5.67711 29.4603 5.56348 29.4603 5.40154V5.36745C29.4603 4.947 29.3452 4.62029 29.1151 4.38734C28.8879 4.15439 28.5427 4.03791 28.0796 4.03791C27.5995 4.03791 27.2231 4.14302 26.9504 4.35325C26.6776 4.56348 26.4859 4.78791 26.3751 5.02654L25.4205 4.68564C25.591 4.28791 25.8182 3.97825 26.1023 3.75666C26.3893 3.53223 26.7018 3.37598 27.0398 3.28791C27.3807 3.197 27.716 3.15154 28.0455 3.15154C28.2557 3.15154 28.4972 3.17711 28.77 3.22825C29.0455 3.27654 29.3111 3.3774 29.5668 3.53081C29.8254 3.68422 30.0398 3.91575 30.2103 4.22541C30.3807 4.53507 30.466 4.94984 30.466 5.46973V9.78223H29.4603V8.89586H29.4092C29.341 9.03791 29.2273 9.1899 29.0682 9.35183C28.9092 9.51376 28.6975 9.65154 28.4333 9.76518C28.1691 9.87882 27.8467 9.93564 27.466 9.93564ZM27.6194 9.03223C28.0171 9.03223 28.3523 8.9541 28.6251 8.79785C28.9006 8.6416 29.108 8.4399 29.2472 8.19274C29.3893 7.94558 29.4603 7.68564 29.4603 7.41291V6.49245C29.4177 6.54359 29.3239 6.59047 29.179 6.63308C29.037 6.67285 28.8722 6.70836 28.6847 6.73961C28.5001 6.76802 28.3197 6.79359 28.1435 6.81632C27.9702 6.8362 27.8296 6.85325 27.7217 6.86745C27.4603 6.90154 27.216 6.95694 26.9887 7.03365C26.7643 7.10751 26.5825 7.21973 26.4432 7.37029C26.3069 7.51802 26.2387 7.71973 26.2387 7.97541C26.2387 8.32484 26.368 8.58904 26.6265 8.76802C26.8879 8.94416 27.2188 9.03223 27.6194 9.03223ZM32.3016 9.78223V3.23677H33.2731V4.22541H33.3413C33.4606 3.90154 33.6766 3.63876 33.9891 3.43706C34.3016 3.23535 34.6538 3.1345 35.0459 3.1345C35.1197 3.1345 35.2121 3.13592 35.3229 3.13876C35.4337 3.1416 35.5175 3.14586 35.5743 3.15154V4.17427C35.5402 4.16575 35.4621 4.15296 35.3399 4.13592C35.2206 4.11603 35.0942 4.10609 34.9606 4.10609C34.6425 4.10609 34.3584 4.17285 34.1084 4.30637C33.8612 4.43706 33.6652 4.61887 33.5203 4.85183C33.3783 5.08194 33.3072 5.34473 33.3072 5.64018V9.78223H32.3016ZM37.6133 12.2368C37.4429 12.2368 37.2909 12.2226 37.1574 12.1942C37.0239 12.1686 36.9315 12.143 36.8804 12.1175L37.1361 11.2311C37.3804 11.2936 37.5963 11.3163 37.7838 11.2993C37.9713 11.2822 38.1375 11.1984 38.2824 11.0479C38.4301 10.9001 38.5651 10.6601 38.6872 10.3277L38.8747 9.81632L36.4543 3.23677H37.5452L39.352 8.45268H39.4202L41.227 3.23677H42.3179L39.5395 10.7368C39.4145 11.0748 39.2597 11.3547 39.075 11.5763C38.8903 11.8007 38.6758 11.9669 38.4315 12.0748C38.1901 12.1828 37.9173 12.2368 37.6133 12.2368ZM54.5203 5.41859C54.5203 6.33904 54.3541 7.1345 54.0217 7.80495C53.6893 8.47541 53.2334 8.99245 52.6538 9.35609C52.0743 9.71973 51.4124 9.90154 50.668 9.90154C49.9237 9.90154 49.2618 9.71973 48.6822 9.35609C48.1027 8.99245 47.6467 8.47541 47.3143 7.80495C46.982 7.1345 46.8158 6.33904 46.8158 5.41859C46.8158 4.49814 46.982 3.70268 47.3143 3.03223C47.6467 2.36177 48.1027 1.84473 48.6822 1.48109C49.2618 1.11745 49.9237 0.935635 50.668 0.935635C51.4124 0.935635 52.0743 1.11745 52.6538 1.48109C53.2334 1.84473 53.6893 2.36177 54.0217 3.03223C54.3541 3.70268 54.5203 4.49814 54.5203 5.41859ZM53.4976 5.41859C53.4976 4.66291 53.3712 4.02512 53.1183 3.50524C52.8683 2.98535 52.5288 2.59189 52.0999 2.32484C51.6737 2.05779 51.1964 1.92427 50.668 1.92427C50.1396 1.92427 49.6609 2.05779 49.232 2.32484C48.8058 2.59189 48.4663 2.98535 48.2135 3.50524C47.9635 4.02512 47.8385 4.66291 47.8385 5.41859C47.8385 6.17427 47.9635 6.81206 48.2135 7.33194C48.4663 7.85183 48.8058 8.24529 49.232 8.51234C49.6609 8.77939 50.1396 8.91291 50.668 8.91291C51.1964 8.91291 51.6737 8.77939 52.0999 8.51234C52.5288 8.24529 52.8683 7.85183 53.1183 7.33194C53.3712 6.81206 53.4976 6.17427 53.4976 5.41859ZM56.1609 9.78223V3.23677H57.1325V4.22541H57.2007C57.32 3.90154 57.5359 3.63876 57.8484 3.43706C58.1609 3.23535 58.5132 3.1345 58.9053 3.1345C58.9791 3.1345 59.0714 3.13592 59.1822 3.13876C59.293 3.1416 59.3768 3.14586 59.4337 3.15154V4.17427C59.3996 4.16575 59.3214 4.15296 59.1993 4.13592C59.08 4.11603 58.9535 4.10609 58.82 4.10609C58.5018 4.10609 58.2178 4.17285 57.9678 4.30637C57.7206 4.43706 57.5246 4.61887 57.3797 4.85183C57.2376 5.08194 57.1666 5.34473 57.1666 5.64018V9.78223H56.1609ZM62.8981 9.91859C62.3527 9.91859 61.8712 9.78081 61.4535 9.50524C61.0359 9.22683 60.7092 8.83478 60.4734 8.3291C60.2376 7.82058 60.1197 7.21973 60.1197 6.52654C60.1197 5.83904 60.2376 5.24245 60.4734 4.73677C60.7092 4.23109 61.0374 3.84047 61.4578 3.5649C61.8783 3.28933 62.3641 3.15154 62.9152 3.15154C63.3413 3.15154 63.678 3.22257 63.9251 3.36461C64.1751 3.50382 64.3655 3.66291 64.4962 3.84189C64.6297 4.01802 64.7334 4.16291 64.8072 4.27654H64.8925V1.05495H65.8981V9.78223H64.9266V8.77654H64.8072C64.7334 8.89586 64.6283 9.04643 64.4919 9.22825C64.3555 9.40723 64.1609 9.56774 63.9081 9.70978C63.6553 9.84899 63.3186 9.91859 62.8981 9.91859ZM63.0345 9.01518C63.4379 9.01518 63.7788 8.91007 64.0572 8.69984C64.3356 8.48677 64.5473 8.19274 64.6922 7.81774C64.8371 7.4399 64.9095 7.00382 64.9095 6.5095C64.9095 6.02086 64.8385 5.59331 64.6964 5.22683C64.5544 4.85751 64.3442 4.57058 64.0658 4.36603C63.7874 4.15865 63.4436 4.05495 63.0345 4.05495C62.6084 4.05495 62.2533 4.16433 61.9692 4.38308C61.6879 4.59899 61.4763 4.89302 61.3342 5.26518C61.195 5.6345 61.1254 6.04927 61.1254 6.5095C61.1254 6.97541 61.1964 7.3987 61.3385 7.77939C61.4834 8.15723 61.6964 8.45836 61.9777 8.68279C62.2618 8.90439 62.6141 9.01518 63.0345 9.01518ZM70.624 9.91859C69.9933 9.91859 69.4493 9.77939 68.9919 9.50098C68.5374 9.21973 68.1865 8.82768 67.9393 8.32484C67.695 7.81916 67.5729 7.23109 67.5729 6.56064C67.5729 5.89018 67.695 5.29927 67.9393 4.78791C68.1865 4.2737 68.5303 3.87314 68.9706 3.5862C69.4138 3.29643 69.9308 3.15154 70.5217 3.15154C70.8626 3.15154 71.1993 3.20836 71.5317 3.322C71.8641 3.43564 72.1666 3.62029 72.4393 3.87598C72.7121 4.12882 72.9294 4.46404 73.0913 4.88166C73.2533 5.29927 73.3342 5.81348 73.3342 6.42427V6.85041H68.2888V5.98109H72.3115C72.3115 5.61177 72.2376 5.28223 72.0899 4.99245C71.945 4.70268 71.7376 4.47399 71.4678 4.30637C71.2007 4.13876 70.8854 4.05495 70.5217 4.05495C70.1212 4.05495 69.7746 4.15439 69.482 4.35325C69.1922 4.54927 68.9692 4.80495 68.8129 5.12029C68.6567 5.43564 68.5785 5.7737 68.5785 6.1345V6.71404C68.5785 7.20836 68.6638 7.6274 68.8342 7.97115C69.0075 8.31206 69.2476 8.572 69.5544 8.75098C69.8612 8.92711 70.2178 9.01518 70.624 9.01518C70.8882 9.01518 71.1268 8.97825 71.3399 8.90439C71.5558 8.82768 71.7419 8.71404 71.8981 8.56348C72.0544 8.41007 72.1751 8.21973 72.2604 7.99245L73.232 8.26518C73.1297 8.59473 72.9578 8.8845 72.7163 9.1345C72.4749 9.38166 72.1766 9.57484 71.8214 9.71404C71.4663 9.85041 71.0672 9.91859 70.624 9.91859ZM74.8641 9.78223V3.23677H75.8356V4.22541H75.9038C76.0231 3.90154 76.2391 3.63876 76.5516 3.43706C76.8641 3.23535 77.2163 3.1345 77.6084 3.1345C77.6822 3.1345 77.7746 3.13592 77.8854 3.13876C77.9962 3.1416 78.08 3.14586 78.1368 3.15154V4.17427C78.1027 4.16575 78.0246 4.15296 77.9024 4.13592C77.7831 4.11603 77.6567 4.10609 77.5231 4.10609C77.205 4.10609 76.9209 4.17285 76.6709 4.30637C76.4237 4.43706 76.2277 4.61887 76.0828 4.85183C75.9408 5.08194 75.8697 5.34473 75.8697 5.64018V9.78223H74.8641ZM83.9653 4.70268L83.0619 4.95836C83.005 4.80779 82.9212 4.66149 82.8104 4.51944C82.7025 4.37456 82.5548 4.25524 82.3673 4.16149C82.1798 4.06774 81.9397 4.02086 81.6471 4.02086C81.2465 4.02086 80.9127 4.11319 80.6457 4.29785C80.3815 4.47967 80.2494 4.7112 80.2494 4.99245C80.2494 5.24245 80.3403 5.4399 80.5221 5.58478C80.7039 5.72967 80.988 5.85041 81.3744 5.947L82.3459 6.18564C82.9312 6.32768 83.3673 6.54501 83.6542 6.83762C83.9411 7.1274 84.0846 7.50098 84.0846 7.95836C84.0846 8.33336 83.9766 8.66859 83.7607 8.96404C83.5477 9.2595 83.2494 9.49245 82.8658 9.66291C82.4823 9.83336 82.0363 9.91859 81.5278 9.91859C80.8602 9.91859 80.3076 9.7737 79.8701 9.48393C79.4326 9.19416 79.1556 8.77086 79.0391 8.21404L79.9937 7.97541C80.0846 8.32768 80.2565 8.59189 80.5093 8.76802C80.765 8.94416 81.0988 9.03223 81.5107 9.03223C81.9795 9.03223 82.3516 8.93279 82.6272 8.73393C82.9056 8.53223 83.0448 8.29075 83.0448 8.0095C83.0448 7.78223 82.9653 7.59189 82.8062 7.43848C82.6471 7.28223 82.4028 7.16575 82.0732 7.08904L80.9823 6.83336C80.3829 6.69132 79.9425 6.47115 79.6613 6.17285C79.3829 5.87172 79.2437 5.49529 79.2437 5.04359C79.2437 4.67427 79.3474 4.34757 79.5548 4.06348C79.765 3.77939 80.0505 3.55637 80.4113 3.39444C80.7749 3.23251 81.1869 3.15154 81.6471 3.15154C82.2948 3.15154 82.8033 3.29359 83.1727 3.57768C83.5448 3.86177 83.809 4.23677 83.9653 4.70268Z" fill="black"/>
</svg>
