<svg width="32" height="32" viewBox="0 0 32 32" fill="none" xmlns="http://www.w3.org/2000/svg">
<path d="M8.49915 24.712V10.4898C8.73965 10.4898 8.97215 10.4898 9.20464 10.4898C10.1025 10.4898 11.0004 10.4898 11.8983 10.4898C12.0426 10.4898 12.1308 10.522 12.211 10.6583C13.2291 12.43 15.7304 12.43 16.7566 10.6583C16.8127 10.5621 16.8528 10.4819 16.9971 10.4819C18.1195 10.4819 19.2418 10.4819 20.3642 10.4819C20.3963 10.4819 20.4203 10.4818 20.4604 10.4978V18.8275C20.0916 18.9798 19.7068 19.1081 19.3541 19.2925C19.1055 19.4288 18.857 19.4769 18.5764 19.4769C15.5701 19.4769 12.5557 19.4769 9.54936 19.4769H9.26076V20.2144H18.0714C17.8709 20.4709 17.7106 20.7033 17.5262 20.9198C17.4861 20.9679 17.3739 20.976 17.2937 20.976C15.057 20.976 12.8203 20.976 10.5836 20.976C10.1506 20.976 9.70971 20.976 9.26076 20.976V21.7215H17.0933C17.0131 21.978 16.941 22.2187 16.8608 22.4752H9.26076V23.2207H16.7005C16.7406 23.7418 16.7806 24.2228 16.8287 24.7198H8.50717L8.49915 24.712ZM19.7068 13.5041H9.25274V14.2258H19.7068V13.5041ZM19.7068 15.0034H9.25274V15.7248H19.7068V15.0034ZM9.24471 17.2161H19.7068V16.4946H9.24471V17.2161ZM9.24471 18.7151H19.6988V17.9937H9.24471V18.7151Z" fill="#0671B8"/>
<path d="M7 26.9484V7.50732H10.3591C10.3591 7.81197 10.3591 8.11672 10.3591 8.42136C10.3591 8.88634 10.4553 8.99053 10.9123 8.99053C11.2009 8.99053 11.4895 8.99053 11.7781 8.99053C11.7941 8.99053 11.8101 8.99055 11.8502 9.00658V9.73605C11.7781 9.73605 11.6979 9.73605 11.6097 9.73605C10.4874 9.73605 9.36498 9.73605 8.24261 9.73605C7.8578 9.73605 7.73757 9.8564 7.73757 10.2332C7.73757 15.1396 7.73757 20.0458 7.73757 24.9522C7.73757 25.345 7.85782 25.4654 8.25866 25.4654C11.1287 25.4654 13.9988 25.4654 16.8688 25.4654C17.0452 25.4654 17.1174 25.5295 17.1975 25.6738C17.4461 26.1067 17.7266 26.5315 17.9912 26.9484H7Z" fill="#0671B8"/>
<path d="M21.9435 18.723H21.214V18.4505C21.214 15.7488 21.214 13.0551 21.214 10.3534C21.214 9.81624 21.1338 9.73605 20.5887 9.73605C19.5144 9.73605 18.4401 9.73605 17.3578 9.73605C17.2696 9.73605 17.1895 9.73605 17.0933 9.73605V8.99053C17.446 8.99053 17.7747 8.99053 18.1034 8.99053C18.4561 8.99053 18.5844 8.86219 18.5844 8.51746C18.5844 8.18075 18.5844 7.85205 18.5844 7.50732H21.9355V18.731L21.9435 18.723Z" fill="#0671B8"/>
<path d="M11.1207 8.2207V6H17.8309V8.2207H11.1207ZM11.8663 7.46716H12.5878V6.74552H11.8663V7.46716ZM17.0773 7.47518V6.74552H16.3638V7.47518H17.0773Z" fill="#0671B8"/>
<path d="M12.6278 9.72779V9.00635H16.3156V9.72779H12.6278Z" fill="#0671B8"/>
<path d="M15.9149 10.4976C15.2816 11.4516 13.7022 11.4836 13.0288 10.4976H15.9149Z" fill="#0671B8"/>
<path d="M14.9607 18.7227V19.4764H19.6987V20.2139H14.9607V20.9755H19.6987V21.713H14.9607V22.4747H19.6987V23.2122H14.9607V24.7115H20.4523V18.7227H14.9607Z" fill="#0671B8"/>
<path d="M21.214 18.7227V25.465H16.3798V26.948H21.9435V18.7227H21.214Z" fill="#0671B8"/>
<path d="M20.1026 15.0338C22.3519 15.0338 24.1752 13.2104 24.1752 10.9611C24.1752 8.7119 22.3519 6.88867 20.1026 6.88867C17.8534 6.88867 16.03 8.7119 16.03 10.9611C16.03 13.2104 17.8534 15.0338 20.1026 15.0338Z" fill="#FFB422" stroke="white" stroke-width="0.97" stroke-miterlimit="10"/>
<path d="M19.9824 8.5798C20.0866 8.5798 20.1347 8.62 20.1748 8.69215C20.3752 9.10101 20.5756 9.5097 20.776 9.91857C20.7921 9.95063 20.8161 9.96672 20.8482 9.97474C21.2891 10.0389 21.7381 10.103 22.179 10.1671C22.195 10.1671 22.2191 10.1671 22.2351 10.1752C22.3634 10.1992 22.4115 10.3516 22.3233 10.4478C22.2832 10.4959 22.2351 10.5359 22.187 10.576C21.8984 10.8646 21.6018 11.1453 21.3132 11.4258C21.2891 11.4499 21.2811 11.474 21.2891 11.5061C21.3693 11.9631 21.4495 12.42 21.5216 12.877C21.5296 12.9491 21.5216 13.0052 21.4575 13.0453C21.4014 13.0854 21.3372 13.0854 21.2731 13.0533C20.8642 12.8369 20.4554 12.6284 20.0465 12.4119C20.0144 12.3959 19.9904 12.3959 19.9503 12.4119C19.5495 12.6284 19.1406 12.8368 18.7397 13.0453C18.6836 13.0774 18.6195 13.0934 18.5554 13.0613C18.4912 13.0293 18.4591 12.9652 18.4672 12.885C18.5313 12.5242 18.5874 12.1634 18.6516 11.7946C18.6676 11.6984 18.6836 11.5943 18.6997 11.4981C18.6997 11.466 18.6997 11.4419 18.6756 11.4178C18.371 11.1212 18.0583 10.8165 17.7537 10.5198C17.7296 10.4958 17.6975 10.4638 17.6735 10.4398C17.6254 10.3917 17.6094 10.3356 17.6254 10.2715C17.6414 10.2073 17.6895 10.1671 17.7617 10.1591C18.0182 10.119 18.2748 10.087 18.5313 10.047C18.7398 10.0149 18.9482 9.98274 19.1566 9.95869C19.1887 9.95869 19.2047 9.9428 19.2208 9.91074C19.4212 9.50187 19.6296 9.08496 19.8301 8.6761C19.8621 8.60395 19.9182 8.57178 19.9663 8.57178L19.9824 8.5798Z" fill="white"/>
</svg>
