<svg width="32" height="32" viewBox="0 0 32 32" fill="none" xmlns="http://www.w3.org/2000/svg">
<path d="M8 15.6986V8.72728C8.16228 8.38155 8.43042 8.24755 8.80438 8.26872C8.98783 8.28283 9.1713 8.25458 9.35476 8.24047C10.9988 8.12052 12.5087 7.59838 13.8493 6.64584C14.4491 6.22249 14.9712 5.69327 15.5216 5.20642C15.825 4.9383 16.1566 4.92418 16.4529 5.20642C16.5587 5.31226 16.6645 5.41806 16.7704 5.5239C18.5626 7.30197 20.7288 8.21934 23.2548 8.27578C23.7628 8.2899 23.9886 8.50867 23.9886 9.02375C23.9886 10.9994 24.0027 12.975 23.9815 14.9506C23.9815 15.6209 23.9392 16.2913 23.8193 16.9475C23.1348 20.7012 21.1027 23.4881 17.7441 25.2944C17.2361 25.5696 16.6928 25.7672 16.1636 26H15.839C15.7403 25.9577 15.6414 25.9154 15.5427 25.873C11.4714 24.229 9.00899 21.2586 8.1764 16.9404C8.09878 16.5312 8.06352 16.1149 8.01413 15.7056L8 15.6986ZM10.4625 15.4515C10.4625 18.4997 12.9391 20.9834 15.9872 20.9904C19.0424 20.9904 21.5331 18.5067 21.5331 15.4515C21.5331 12.4034 19.0565 9.91985 16.0084 9.91279C12.9532 9.91279 10.4625 12.3963 10.4625 15.4515Z" fill="#0671B8"/>
<path d="M15.9872 11.1477C18.3579 11.1477 20.2912 13.0668 20.2983 15.4375C20.2983 17.8154 18.3721 19.7558 15.9942 19.7558C13.6235 19.7558 11.6972 17.8224 11.6902 15.4517C11.6902 13.0809 13.6164 11.1477 15.9872 11.1406V11.1477ZM15.1828 16.6301C15.1193 16.5666 15.0699 16.5241 15.0205 16.4747C14.6818 16.136 14.3432 15.7974 14.0045 15.4587C13.8352 15.2894 13.6306 15.2047 13.3907 15.2682C12.9109 15.3952 12.7627 15.9526 13.1296 16.3195C13.6306 16.8346 14.1386 17.3357 14.6466 17.8437C15.0135 18.2106 15.3381 18.2106 15.705 17.8437C16.4812 17.0746 17.2502 16.2984 18.0193 15.5223C18.2944 15.2471 18.5697 14.9718 18.8448 14.6966C19.1271 14.4073 19.1411 14.0406 18.8871 13.7866C18.6331 13.5326 18.2592 13.5465 17.977 13.8217C17.8923 13.9064 17.8006 13.9982 17.7159 14.0829C16.8763 14.9225 16.0366 15.7622 15.1828 16.623V16.6301Z" fill="#FFB422"/>
<path d="M15.1758 16.6299C16.0296 15.7691 16.8692 14.9294 17.7088 14.0897C17.7935 14.0051 17.8782 13.9133 17.9699 13.8286C18.2592 13.5534 18.6261 13.5324 18.8801 13.7934C19.1341 14.0475 19.12 14.4213 18.8378 14.7035C18.5626 14.9787 18.2874 15.254 18.0122 15.5292C17.2431 16.3053 16.467 17.0744 15.6979 17.8506C15.331 18.2175 15.0065 18.2175 14.6396 17.8506C14.1315 17.3425 13.6235 16.8415 13.1225 16.3264C12.7627 15.9595 12.9038 15.4021 13.3836 15.2751C13.6235 15.2116 13.8281 15.2963 13.9975 15.4656C14.3361 15.8043 14.6748 16.1429 15.0135 16.4816C15.0628 16.531 15.1123 16.5733 15.1758 16.6368V16.6299Z" fill="white"/>
</svg>
