<svg width="68" height="13" viewBox="0 0 68 13" fill="none" xmlns="http://www.w3.org/2000/svg">
<path d="M6.08956 3.49458C6.03842 3.06277 5.83103 2.72754 5.4674 2.4889C5.10376 2.25027 4.65774 2.13095 4.12933 2.13095C3.74296 2.13095 3.4049 2.19345 3.11512 2.31845C2.82819 2.44345 2.60376 2.61532 2.44183 2.83407C2.28274 3.05282 2.20319 3.3014 2.20319 3.57981C2.20319 3.81277 2.25859 4.01305 2.36938 4.18066C2.48302 4.34544 2.62791 4.48322 2.80404 4.59402C2.98018 4.70197 3.16484 4.79146 3.35802 4.86248C3.5512 4.93066 3.72876 4.98606 3.89069 5.02868L4.77706 5.26731C5.00433 5.32697 5.25717 5.40936 5.53558 5.51447C5.81683 5.61958 6.08529 5.76305 6.34098 5.94487C6.5995 6.12385 6.81257 6.35396 6.98018 6.63521C7.14779 6.91646 7.2316 7.26163 7.2316 7.67072C7.2316 8.14231 7.10802 8.56845 6.86086 8.94913C6.61654 9.32981 6.25859 9.63237 5.787 9.8568C5.31825 10.0812 4.74865 10.1934 4.07819 10.1934C3.45319 10.1934 2.912 10.0926 2.45461 9.89089C2.00007 9.68919 1.64211 9.40794 1.38075 9.04714C1.12223 8.68635 0.975919 8.26731 0.941828 7.79004H2.03274C2.06115 8.11958 2.17194 8.39231 2.36512 8.60822C2.56115 8.82129 2.80831 8.98038 3.1066 9.08549C3.40774 9.18777 3.7316 9.2389 4.07819 9.2389C4.4816 9.2389 4.84382 9.17356 5.16484 9.04288C5.48586 8.90936 5.74012 8.7247 5.92762 8.4889C6.11512 8.25027 6.20887 7.97186 6.20887 7.65368C6.20887 7.3639 6.12791 7.12811 5.96598 6.94629C5.80404 6.76447 5.59098 6.61674 5.32677 6.50311C5.06257 6.38947 4.77706 6.29004 4.47024 6.20481L3.39637 5.89799C2.71456 5.70197 2.17478 5.42214 1.77706 5.0585C1.37933 4.69487 1.18046 4.21902 1.18046 3.63095C1.18046 3.14231 1.31257 2.71618 1.57677 2.35254C1.84382 1.98606 2.20177 1.70197 2.65063 1.50027C3.10234 1.29572 3.6066 1.19345 4.16342 1.19345C4.72592 1.19345 5.22592 1.2943 5.66342 1.496C6.10092 1.69487 6.44751 1.9676 6.70319 2.31419C6.96171 2.66078 7.09808 3.05424 7.11228 3.49458H6.08956ZM10.7589 10.1934C10.3442 10.1934 9.96775 10.1153 9.62968 9.95907C9.29161 9.79998 9.02315 9.57129 8.82429 9.27299C8.62542 8.97186 8.52599 8.60822 8.52599 8.18208C8.52599 7.80708 8.59985 7.50311 8.74758 7.27015C8.89531 7.03436 9.09275 6.8497 9.33991 6.71618C9.58707 6.58265 9.8598 6.48322 10.1581 6.41788C10.4592 6.3497 10.7618 6.29572 11.0658 6.25595C11.4635 6.20481 11.7859 6.16646 12.0331 6.14089C12.2831 6.11248 12.4649 6.06561 12.5785 6.00027C12.695 5.93493 12.7533 5.82129 12.7533 5.65936V5.62527C12.7533 5.20481 12.6382 4.87811 12.4081 4.64515C12.1808 4.4122 11.8356 4.29572 11.3726 4.29572C10.8925 4.29572 10.516 4.40083 10.2433 4.61106C9.97059 4.82129 9.77883 5.04572 9.66804 5.28436L8.71349 4.94345C8.88394 4.54572 9.11122 4.23606 9.39531 4.01447C9.68224 3.79004 9.99474 3.63379 10.3328 3.54572C10.6737 3.45481 11.0089 3.40936 11.3385 3.40936C11.5487 3.40936 11.7902 3.43493 12.0629 3.48606C12.3385 3.53436 12.6041 3.63521 12.8598 3.78862C13.1183 3.94203 13.3328 4.17356 13.5033 4.48322C13.6737 4.79288 13.7589 5.20765 13.7589 5.72754V10.04H12.7533V9.15368H12.7021C12.6339 9.29572 12.5203 9.44771 12.3612 9.60964C12.2021 9.77157 11.9905 9.90936 11.7263 10.023C11.4621 10.1366 11.1396 10.1934 10.7589 10.1934ZM10.9124 9.29004C11.3101 9.29004 11.6453 9.21191 11.918 9.05566C12.1936 8.89941 12.401 8.69771 12.5402 8.45055C12.6822 8.20339 12.7533 7.94345 12.7533 7.67072V6.75027C12.7106 6.8014 12.6169 6.84828 12.472 6.89089C12.33 6.93066 12.1652 6.96618 11.9777 6.99743C11.793 7.02583 11.6126 7.0514 11.4365 7.07413C11.2632 7.09402 11.1226 7.11106 11.0146 7.12527C10.7533 7.15936 10.5089 7.21475 10.2817 7.29146C10.0572 7.36532 9.87542 7.47754 9.73622 7.62811C9.59985 7.77583 9.53167 7.97754 9.53167 8.23322C9.53167 8.58265 9.66093 8.84686 9.91946 9.02583C10.1808 9.20197 10.5118 9.29004 10.9124 9.29004ZM18.5093 3.49458V4.34686H14.9809V3.49458H18.5093ZM16.0377 10.04V2.59118C16.0377 2.21618 16.1258 1.90367 16.3019 1.65367C16.478 1.40367 16.7067 1.21617 16.988 1.09117C17.2692 0.966175 17.5661 0.903675 17.8786 0.903675C18.1258 0.903675 18.3275 0.923561 18.4837 0.963334C18.64 1.00311 18.7565 1.04004 18.8332 1.07413L18.5434 1.94345C18.4923 1.9264 18.4212 1.9051 18.3303 1.87953C18.2423 1.85396 18.1258 1.84117 17.9809 1.84117C17.6485 1.84117 17.4084 1.92498 17.2607 2.0926C17.1158 2.26021 17.0434 2.50595 17.0434 2.82981V10.04H16.0377ZM22.3935 10.1764C21.7629 10.1764 21.2188 10.0372 20.7614 9.75879C20.3069 9.47754 19.956 9.08549 19.7089 8.58265C19.4646 8.07697 19.3424 7.4889 19.3424 6.81845C19.3424 6.14799 19.4646 5.55708 19.7089 5.04572C19.956 4.53152 20.2998 4.13095 20.7401 3.84402C21.1833 3.55424 21.7004 3.40936 22.2913 3.40936C22.6322 3.40936 22.9688 3.46618 23.3012 3.57981C23.6336 3.69345 23.9361 3.87811 24.2089 4.13379C24.4816 4.38663 24.6989 4.72186 24.8609 5.13947C25.0228 5.55708 25.1038 6.07129 25.1038 6.68208V7.10822H20.0583V6.2389H24.081C24.081 5.86958 24.0072 5.54004 23.8594 5.25027C23.7146 4.96049 23.5072 4.7318 23.2373 4.56419C22.9702 4.39657 22.6549 4.31277 22.2913 4.31277C21.8907 4.31277 21.5441 4.4122 21.2515 4.61106C20.9617 4.80708 20.7387 5.06277 20.5825 5.37811C20.4262 5.69345 20.3481 6.03152 20.3481 6.39231V6.97186C20.3481 7.46618 20.4333 7.88521 20.6038 8.22896C20.7771 8.56987 21.0171 8.82981 21.3239 9.00879C21.6307 9.18493 21.9873 9.27299 22.3935 9.27299C22.6577 9.27299 22.8964 9.23606 23.1094 9.1622C23.3254 9.08549 23.5114 8.97186 23.6677 8.82129C23.8239 8.66788 23.9447 8.47754 24.0299 8.25027L25.0015 8.52299C24.8992 8.85254 24.7273 9.14231 24.4859 9.39231C24.2444 9.63947 23.9461 9.83265 23.591 9.97186C23.2359 10.1082 22.8367 10.1764 22.3935 10.1764ZM29.4802 3.49458V4.34686H26.0881V3.49458H29.4802ZM27.0768 1.9264H28.0825V8.16504C28.0825 8.44913 28.1236 8.6622 28.206 8.80424C28.2913 8.94345 28.3992 9.0372 28.5299 9.08549C28.6634 9.13095 28.804 9.15368 28.9518 9.15368C29.0626 9.15368 29.1535 9.14799 29.2245 9.13663C29.2955 9.12243 29.3523 9.11106 29.395 9.10254L29.5995 10.0059C29.5313 10.0315 29.4361 10.0571 29.314 10.0827C29.1918 10.1111 29.037 10.1253 28.8495 10.1253C28.5654 10.1253 28.287 10.0642 28.0143 9.94203C27.7444 9.81987 27.52 9.63379 27.341 9.38379C27.1648 9.13379 27.0768 8.81845 27.0768 8.43777V1.9264ZM31.6407 12.4946C31.4702 12.4946 31.3182 12.4804 31.1847 12.452C31.0512 12.4264 30.9589 12.4008 30.9077 12.3753L31.1634 11.4889C31.4077 11.5514 31.6236 11.5741 31.8111 11.5571C31.9986 11.54 32.1648 11.4562 32.3097 11.3057C32.4575 11.1579 32.5924 10.9179 32.7146 10.5855L32.9021 10.0741L30.4816 3.49458H31.5725L33.3793 8.71049H33.4475L35.2543 3.49458H36.3452L33.5668 10.9946C33.4418 11.3327 33.287 11.6125 33.1023 11.8341C32.9177 12.0585 32.7032 12.2247 32.4589 12.3327C32.2174 12.4406 31.9447 12.4946 31.6407 12.4946ZM43.8772 10.04H41.184V1.31277H43.9965C44.8431 1.31277 45.5675 1.48748 46.1698 1.83691C46.7721 2.1835 47.2337 2.68208 47.5548 3.33265C47.8758 3.98038 48.0363 4.75595 48.0363 5.65936C48.0363 6.56845 47.8744 7.35112 47.5505 8.00737C47.2266 8.66078 46.755 9.16362 46.1357 9.51589C45.5164 9.86532 44.7636 10.04 43.8772 10.04ZM42.2408 9.10254H43.809C44.5306 9.10254 45.1286 8.96333 45.603 8.68493C46.0775 8.40652 46.4312 8.01021 46.6641 7.496C46.8971 6.9818 47.0136 6.36958 47.0136 5.65936C47.0136 4.95481 46.8985 4.34828 46.6684 3.83975C46.4383 3.32839 46.0945 2.93635 45.6371 2.66362C45.1798 2.38805 44.6102 2.25027 43.9283 2.25027H42.2408V9.10254ZM51.5988 10.1934C51.184 10.1934 50.8076 10.1153 50.4695 9.95907C50.1315 9.79998 49.863 9.57129 49.6641 9.27299C49.4653 8.97186 49.3658 8.60822 49.3658 8.18208C49.3658 7.80708 49.4397 7.50311 49.5874 7.27015C49.7352 7.03436 49.9326 6.8497 50.1798 6.71618C50.4269 6.58265 50.6996 6.48322 50.9979 6.41788C51.2991 6.3497 51.6016 6.29572 51.9056 6.25595C52.3033 6.20481 52.6258 6.16646 52.8729 6.14089C53.1229 6.11248 53.3048 6.06561 53.4184 6.00027C53.5349 5.93493 53.5931 5.82129 53.5931 5.65936V5.62527C53.5931 5.20481 53.478 4.87811 53.2479 4.64515C53.0207 4.4122 52.6755 4.29572 52.2124 4.29572C51.7323 4.29572 51.3559 4.40083 51.0832 4.61106C50.8104 4.82129 50.6187 5.04572 50.5079 5.28436L49.5533 4.94345C49.7238 4.54572 49.9511 4.23606 50.2352 4.01447C50.5221 3.79004 50.8346 3.63379 51.1727 3.54572C51.5136 3.45481 51.8488 3.40936 52.1783 3.40936C52.3886 3.40936 52.63 3.43493 52.9028 3.48606C53.1783 3.53436 53.444 3.63521 53.6996 3.78862C53.9582 3.94203 54.1727 4.17356 54.3431 4.48322C54.5136 4.79288 54.5988 5.20765 54.5988 5.72754V10.04H53.5931V9.15368H53.542C53.4738 9.29572 53.3602 9.44771 53.2011 9.60964C53.042 9.77157 52.8303 9.90936 52.5661 10.023C52.3019 10.1366 51.9795 10.1934 51.5988 10.1934ZM51.7522 9.29004C52.1499 9.29004 52.4852 9.21191 52.7579 9.05566C53.0334 8.89941 53.2408 8.69771 53.38 8.45055C53.5221 8.20339 53.5931 7.94345 53.5931 7.67072V6.75027C53.5505 6.8014 53.4567 6.84828 53.3119 6.89089C53.1698 6.93066 53.005 6.96618 52.8175 6.99743C52.6329 7.02583 52.4525 7.0514 52.2763 7.07413C52.103 7.09402 51.9624 7.11106 51.8545 7.12527C51.5931 7.15936 51.3488 7.21475 51.1215 7.29146C50.8971 7.36532 50.7153 7.47754 50.5761 7.62811C50.4397 7.77583 50.3715 7.97754 50.3715 8.23322C50.3715 8.58265 50.5008 8.84686 50.7593 9.02583C51.0207 9.20197 51.3516 9.29004 51.7522 9.29004ZM56.8477 12.4946C56.6773 12.4946 56.5253 12.4804 56.3918 12.452C56.2582 12.4264 56.1659 12.4008 56.1148 12.3753L56.3705 11.4889C56.6148 11.5514 56.8307 11.5741 57.0182 11.5571C57.2057 11.54 57.3719 11.4562 57.5168 11.3057C57.6645 11.1579 57.7994 10.9179 57.9216 10.5855L58.1091 10.0741L55.6886 3.49458H56.7795L58.5864 8.71049H58.6545L60.4614 3.49458H61.5523L58.7739 10.9946C58.6489 11.3327 58.494 11.6125 58.3094 11.8341C58.1247 12.0585 57.9102 12.2247 57.6659 12.3327C57.4244 12.4406 57.1517 12.4946 56.8477 12.4946ZM67.516 4.96049L66.6126 5.21618C66.5558 5.06561 66.472 4.9193 66.3612 4.77725C66.2533 4.63237 66.1055 4.51305 65.918 4.4193C65.7305 4.32555 65.4905 4.27868 65.1979 4.27868C64.7973 4.27868 64.4635 4.371 64.1964 4.55566C63.9322 4.73748 63.8001 4.96902 63.8001 5.25027C63.8001 5.50027 63.891 5.69771 64.0729 5.8426C64.2547 5.98748 64.5388 6.10822 64.9251 6.20481L65.8967 6.44345C66.482 6.58549 66.918 6.80282 67.205 7.09544C67.4919 7.38521 67.6354 7.75879 67.6354 8.21618C67.6354 8.59118 67.5274 8.9264 67.3115 9.22186C67.0984 9.51731 66.8001 9.75027 66.4166 9.92072C66.0331 10.0912 65.5871 10.1764 65.0785 10.1764C64.4109 10.1764 63.8584 10.0315 63.4209 9.74174C62.9834 9.45197 62.7064 9.02868 62.5899 8.47186L63.5445 8.23322C63.6354 8.58549 63.8072 8.8497 64.0601 9.02583C64.3158 9.20197 64.6496 9.29004 65.0615 9.29004C65.5303 9.29004 65.9024 9.19061 66.178 8.99174C66.4564 8.79004 66.5956 8.54856 66.5956 8.26731C66.5956 8.04004 66.516 7.8497 66.357 7.69629C66.1979 7.54004 65.9535 7.42356 65.624 7.34686L64.5331 7.09118C63.9337 6.94913 63.4933 6.72896 63.2121 6.43066C62.9337 6.12953 62.7945 5.75311 62.7945 5.3014C62.7945 4.93208 62.8981 4.60538 63.1055 4.32129C63.3158 4.0372 63.6013 3.81419 63.9621 3.65225C64.3257 3.49032 64.7376 3.40936 65.1979 3.40936C65.8456 3.40936 66.3541 3.5514 66.7234 3.83549C67.0956 4.11958 67.3598 4.49458 67.516 4.96049Z" fill="black"/>
</svg>
