<svg width="77" height="25" viewBox="0 0 77 25" fill="none" xmlns="http://www.w3.org/2000/svg">
<path d="M5.58452 2.60948C5.53321 2.17623 5.32513 1.83988 4.96028 1.60045C4.59543 1.36102 4.14793 1.2413 3.61775 1.2413C3.2301 1.2413 2.89091 1.30401 2.60017 1.42943C2.31228 1.55484 2.0871 1.72729 1.92463 1.94677C1.76501 2.16625 1.6852 2.41566 1.6852 2.695C1.6852 2.92873 1.74078 3.12968 1.85194 3.29785C1.96596 3.46317 2.11133 3.60142 2.28805 3.71258C2.46478 3.8209 2.65005 3.91068 2.84388 3.98194C3.0377 4.05035 3.21585 4.10593 3.37832 4.14869L4.26764 4.38812C4.49567 4.44798 4.74935 4.53064 5.02869 4.6361C5.31088 4.74157 5.58024 4.88551 5.83677 5.06794C6.09616 5.24751 6.30994 5.47839 6.47811 5.76058C6.64628 6.04277 6.73037 6.38909 6.73037 6.79954C6.73037 7.2727 6.60638 7.70026 6.35839 8.08221C6.11326 8.46416 5.75411 8.76773 5.28095 8.99291C4.81064 9.21809 4.23914 9.33068 3.56645 9.33068C2.93936 9.33068 2.39637 9.22949 1.93746 9.02711C1.4814 8.82474 1.12225 8.54255 0.860013 8.18055C0.600628 7.81855 0.453834 7.39812 0.419629 6.91926H1.51417C1.54268 7.2499 1.65384 7.52354 1.84767 7.74017C2.04435 7.95395 2.29233 8.11357 2.59162 8.21903C2.89376 8.32164 3.2187 8.37295 3.56645 8.37295C3.9712 8.37295 4.33462 8.30739 4.65672 8.17627C4.97881 8.04231 5.23392 7.85703 5.42204 7.62045C5.61017 7.38102 5.70423 7.10168 5.70423 6.78244C5.70423 6.4917 5.623 6.25512 5.46052 6.0727C5.29805 5.89027 5.08427 5.74205 4.81919 5.62804C4.5541 5.51402 4.26764 5.41426 3.9598 5.32875L2.88236 5.02091C2.19827 4.82423 1.65669 4.54347 1.25764 4.17862C0.858588 3.81377 0.659061 3.33633 0.659061 2.7463C0.659061 2.25604 0.791604 1.82848 1.05669 1.46363C1.32462 1.09593 1.68377 0.810896 2.13413 0.608519C2.58734 0.403292 3.09328 0.300678 3.65196 0.300678C4.21633 0.300678 4.718 0.401866 5.15696 0.604243C5.59592 0.80377 5.94366 1.07741 6.2002 1.42515C6.45958 1.7729 6.5964 2.16768 6.61065 2.60948H5.58452ZM8.33691 11.6395V2.60948H9.31174V3.65272H9.43146C9.50557 3.53871 9.60818 3.39334 9.7393 3.21662C9.87327 3.03704 10.0642 2.87742 10.3122 2.73775C10.5631 2.59523 10.9023 2.52397 11.3298 2.52397C11.8828 2.52397 12.3702 2.66222 12.7921 2.9387C13.2139 3.21519 13.5431 3.60712 13.7797 4.11448C14.0163 4.62185 14.1346 5.22043 14.1346 5.91022C14.1346 6.60572 14.0163 7.20857 13.7797 7.71879C13.5431 8.22616 13.2153 8.61951 12.7963 8.89885C12.3773 9.17533 11.8942 9.31358 11.3469 9.31358C10.9251 9.31358 10.5873 9.24374 10.3336 9.10407C10.0799 8.96155 9.88467 8.80051 9.74785 8.62093C9.61103 8.43851 9.50557 8.28744 9.43146 8.16772H9.34595V11.6395H8.33691ZM9.32884 5.89312C9.32884 6.38909 9.40153 6.82662 9.5469 7.20572C9.69227 7.58197 9.90462 7.87699 10.184 8.09076C10.4633 8.30169 10.8053 8.40716 11.2101 8.40716C11.632 8.40716 11.984 8.29599 12.2662 8.07366C12.5512 7.84848 12.765 7.54634 12.9075 7.16724C13.0529 6.78529 13.1255 6.36058 13.1255 5.89312C13.1255 5.43136 13.0543 5.0152 12.9118 4.64466C12.7721 4.27126 12.5597 3.97624 12.2747 3.75961C11.9925 3.54013 11.6377 3.43039 11.2101 3.43039C10.7996 3.43039 10.4547 3.53443 10.1754 3.74251C9.89607 3.94774 9.68514 4.23563 9.54262 4.60618C9.4001 4.97387 9.32884 5.40286 9.32884 5.89312ZM18.4273 9.31358C17.7945 9.31358 17.2486 9.17391 16.7897 8.89457C16.3337 8.61238 15.9816 8.21903 15.7336 7.71451C15.4885 7.20715 15.3659 6.61712 15.3659 5.94443C15.3659 5.27174 15.4885 4.67886 15.7336 4.16579C15.9816 3.64987 16.3265 3.24797 16.7683 2.96008C17.213 2.66934 17.7318 2.52397 18.3246 2.52397C18.6667 2.52397 19.0045 2.58098 19.3379 2.695C19.6714 2.80901 19.975 2.99429 20.2486 3.25082C20.5223 3.5045 20.7403 3.84085 20.9028 4.25985C21.0653 4.67886 21.1465 5.19478 21.1465 5.80761V6.23517H16.0842V5.36295H20.1204C20.1204 4.9924 20.0463 4.66176 19.898 4.37102C19.7527 4.08028 19.5446 3.85082 19.2738 3.68265C19.0059 3.51448 18.6895 3.43039 18.3246 3.43039C17.9227 3.43039 17.575 3.53016 17.2814 3.72968C16.9907 3.92636 16.7669 4.18289 16.6101 4.49929C16.4534 4.81568 16.375 5.15487 16.375 5.51687V6.09835C16.375 6.59431 16.4605 7.01475 16.6315 7.35964C16.8054 7.70169 17.0462 7.9625 17.3541 8.14207C17.6619 8.31879 18.0196 8.40716 18.4273 8.40716C18.6923 8.40716 18.9318 8.3701 19.1455 8.29599C19.3622 8.21903 19.5489 8.10502 19.7056 7.95395C19.8624 7.80002 19.9836 7.60905 20.0691 7.38102L21.0439 7.65466C20.9413 7.9853 20.7688 8.27604 20.5266 8.52687C20.2843 8.77485 19.985 8.96868 19.6287 9.10835C19.2724 9.24517 18.8719 9.31358 18.4273 9.31358ZM25.3494 9.31358C24.7337 9.31358 24.2035 9.16821 23.7589 8.87747C23.3142 8.58673 22.9722 8.18625 22.7328 7.67603C22.4933 7.16582 22.3736 6.58291 22.3736 5.92733C22.3736 5.26034 22.4962 4.67173 22.7413 4.16152C22.9893 3.64845 23.3342 3.24797 23.776 2.96008C24.2206 2.66934 24.7394 2.52397 25.3323 2.52397C25.7941 2.52397 26.2102 2.60949 26.5808 2.78051C26.9513 2.95153 27.2549 3.19096 27.4915 3.4988C27.728 3.80664 27.8748 4.16579 27.9318 4.57625H26.9228C26.8458 4.27696 26.6748 4.01187 26.4097 3.78099C26.1475 3.54726 25.7941 3.43039 25.3494 3.43039C24.956 3.43039 24.6112 3.53301 24.3147 3.73823C24.0211 3.94061 23.7917 4.22707 23.6263 4.59762C23.4639 4.96532 23.3826 5.39716 23.3826 5.89312C23.3826 6.40049 23.4624 6.8423 23.6221 7.21855C23.7845 7.5948 24.0126 7.88696 24.3062 8.09504C24.6026 8.30312 24.9503 8.40716 25.3494 8.40716C25.6116 8.40716 25.8496 8.36155 26.0634 8.27034C26.2772 8.17913 26.4582 8.04801 26.6064 7.87699C26.7546 7.70596 26.8601 7.50074 26.9228 7.2613H27.9318C27.8748 7.64895 27.7337 7.99813 27.5086 8.30882C27.2862 8.61666 26.9912 8.86179 26.6235 9.04422C26.2587 9.22379 25.834 9.31358 25.3494 9.31358ZM29.4069 9.17676V2.60948H30.4159V9.17676H29.4069ZM29.92 1.51494C29.7233 1.51494 29.5537 1.44796 29.4112 1.31399C29.2715 1.18002 29.2017 1.01897 29.2017 0.830849C29.2017 0.642724 29.2715 0.481677 29.4112 0.347709C29.5537 0.213742 29.7233 0.146758 29.92 0.146758C30.1167 0.146758 30.2848 0.213742 30.4245 0.347709C30.567 0.481677 30.6383 0.642724 30.6383 0.830849C30.6383 1.01897 30.567 1.18002 30.4245 1.31399C30.2848 1.44796 30.1167 1.51494 29.92 1.51494ZM34.1966 9.33068C33.7805 9.33068 33.4028 9.25229 33.0636 9.09552C32.7244 8.9359 32.455 8.70645 32.2555 8.40716C32.056 8.10502 31.9562 7.74017 31.9562 7.31261C31.9562 6.93636 32.0303 6.63137 32.1785 6.39764C32.3268 6.16106 32.5249 5.97578 32.7729 5.84181C33.0208 5.70785 33.2945 5.60808 33.5938 5.54252C33.8959 5.47412 34.1995 5.41996 34.5045 5.38005C34.9035 5.32875 35.227 5.29027 35.475 5.26461C35.7258 5.23611 35.9083 5.18908 36.0223 5.12352C36.1392 5.05796 36.1976 4.94395 36.1976 4.78147V4.74727C36.1976 4.32541 36.0821 3.99762 35.8513 3.76389C35.6232 3.53016 35.2769 3.41329 34.8123 3.41329C34.3306 3.41329 33.9529 3.51876 33.6793 3.72968C33.4056 3.94061 33.2132 4.16579 33.1021 4.40522L32.1443 4.06318C32.3154 3.66412 32.5434 3.35343 32.8284 3.1311C33.1163 2.90592 33.4299 2.74915 33.7691 2.66079C34.1111 2.56958 34.4475 2.52397 34.7781 2.52397C34.989 2.52397 35.2313 2.54963 35.5049 2.60093C35.7814 2.64939 36.0479 2.75058 36.3045 2.9045C36.5639 3.05842 36.7791 3.29073 36.9501 3.60142C37.1211 3.91211 37.2066 4.32826 37.2066 4.84988V9.17676H36.1976V8.28744H36.1463C36.0779 8.42996 35.9639 8.58245 35.8042 8.74493C35.6446 8.9074 35.4323 9.04564 35.1672 9.15966C34.9021 9.27367 34.5786 9.33068 34.1966 9.33068ZM34.3505 8.42426C34.7496 8.42426 35.0859 8.34587 35.3596 8.1891C35.6361 8.03233 35.8441 7.82995 35.9838 7.58197C36.1263 7.33399 36.1976 7.07318 36.1976 6.79954V5.87602C36.1548 5.92733 36.0608 5.97436 35.9154 6.01711C35.7729 6.05702 35.6076 6.09265 35.4194 6.124C35.2342 6.15251 35.0532 6.17816 34.8764 6.20096C34.7026 6.22091 34.5615 6.23802 34.4532 6.25227C34.1909 6.28647 33.9458 6.34206 33.7178 6.41902C33.4926 6.49313 33.3101 6.60572 33.1705 6.75679C33.0337 6.90501 32.9653 7.10738 32.9653 7.36392C32.9653 7.71451 33.0949 7.9796 33.3543 8.15917C33.6166 8.3359 33.9486 8.42426 34.3505 8.42426ZM40.0574 0.420394V9.17676H39.0483V0.420394H40.0574ZM52.8167 4.79858C52.8167 5.7221 52.65 6.5202 52.3165 7.19289C51.983 7.86558 51.5255 8.38435 50.944 8.7492C50.3625 9.11405 49.6984 9.29647 48.9516 9.29647C48.2048 9.29647 47.5407 9.11405 46.9592 8.7492C46.3777 8.38435 45.9202 7.86558 45.5867 7.19289C45.2532 6.5202 45.0865 5.7221 45.0865 4.79858C45.0865 3.87505 45.2532 3.07695 45.5867 2.40426C45.9202 1.73157 46.3777 1.2128 46.9592 0.847951C47.5407 0.483102 48.2048 0.300678 48.9516 0.300678C49.6984 0.300678 50.3625 0.483102 50.944 0.847951C51.5255 1.2128 51.983 1.73157 52.3165 2.40426C52.65 3.07695 52.8167 3.87505 52.8167 4.79858ZM51.7906 4.79858C51.7906 4.04038 51.6637 3.40047 51.4101 2.87885C51.1592 2.35723 50.8186 1.96245 50.3882 1.69451C49.9606 1.42658 49.4818 1.29261 48.9516 1.29261C48.4214 1.29261 47.9411 1.42658 47.5107 1.69451C47.0832 1.96245 46.7426 2.35723 46.4889 2.87885C46.238 3.40047 46.1126 4.04038 46.1126 4.79858C46.1126 5.55678 46.238 6.19669 46.4889 6.71831C46.7426 7.23993 47.0832 7.6347 47.5107 7.90264C47.9411 8.17057 48.4214 8.30454 48.9516 8.30454C49.4818 8.30454 49.9606 8.17057 50.3882 7.90264C50.8186 7.6347 51.1592 7.23993 51.4101 6.71831C51.6637 6.19669 51.7906 5.55678 51.7906 4.79858ZM54.4628 9.17676V2.60948H55.4376V3.60142H55.506C55.6258 3.27647 55.8424 3.01281 56.1559 2.81044C56.4695 2.60806 56.8229 2.50687 57.2163 2.50687C57.2904 2.50687 57.383 2.5083 57.4942 2.51115C57.6054 2.514 57.6894 2.51827 57.7464 2.52397V3.55011C57.7122 3.54156 57.6339 3.52873 57.5113 3.51163C57.3916 3.49168 57.2647 3.4817 57.1308 3.4817C56.8115 3.4817 56.5265 3.54868 56.2757 3.68265C56.0277 3.81377 55.831 3.99619 55.6856 4.22993C55.5431 4.46081 55.4718 4.72447 55.4718 5.02091V9.17676H54.4628ZM61.2225 9.31358C60.6752 9.31358 60.1921 9.17533 59.7731 8.89885C59.3541 8.61951 59.0263 8.22616 58.7897 7.71879C58.5531 7.20857 58.4348 6.60572 58.4348 5.91022C58.4348 5.22043 58.5531 4.62185 58.7897 4.11448C59.0263 3.60712 59.3555 3.21519 59.7773 2.9387C60.1992 2.66222 60.6866 2.52397 61.2396 2.52397C61.6671 2.52397 62.0049 2.59523 62.2529 2.73775C62.5037 2.87742 62.6947 3.03704 62.8258 3.21662C62.9598 3.39334 63.0638 3.53871 63.1379 3.65272H63.2235V0.420394H64.2325V9.17676H63.2577V8.16772H63.1379C63.0638 8.28744 62.9584 8.43851 62.8215 8.62093C62.6847 8.80051 62.4895 8.96155 62.2358 9.10407C61.9821 9.24374 61.6443 9.31358 61.2225 9.31358ZM61.3593 8.40716C61.7641 8.40716 62.1061 8.30169 62.3854 8.09076C62.6648 7.87699 62.8771 7.58197 63.0225 7.20572C63.1679 6.82662 63.2406 6.38909 63.2406 5.89312C63.2406 5.40286 63.1693 4.97387 63.0268 4.60618C62.8843 4.23563 62.6733 3.94774 62.394 3.74251C62.1147 3.53443 61.7698 3.43039 61.3593 3.43039C60.9317 3.43039 60.5755 3.54013 60.2904 3.75961C60.0082 3.97624 59.7959 4.27126 59.6534 4.64466C59.5137 5.0152 59.4438 5.43136 59.4438 5.89312C59.4438 6.36058 59.5151 6.78529 59.6576 7.16724C59.803 7.54634 60.0168 7.84848 60.299 8.07366C60.584 8.29599 60.9374 8.40716 61.3593 8.40716ZM68.9741 9.31358C68.3413 9.31358 67.7955 9.17391 67.3365 8.89457C66.8805 8.61238 66.5285 8.21903 66.2805 7.71451C66.0354 7.20715 65.9128 6.61712 65.9128 5.94443C65.9128 5.27174 66.0354 4.67886 66.2805 4.16579C66.5285 3.64987 66.8734 3.24797 67.3152 2.96008C67.7598 2.66934 68.2786 2.52397 68.8715 2.52397C69.2135 2.52397 69.5513 2.58098 69.8848 2.695C70.2183 2.80901 70.5218 2.99429 70.7955 3.25082C71.0691 3.5045 71.2872 3.84085 71.4496 4.25985C71.6121 4.67886 71.6934 5.19478 71.6934 5.80761V6.23517H66.6311V5.36295H70.6672C70.6672 4.9924 70.5931 4.66176 70.4449 4.37102C70.2995 4.08028 70.0914 3.85082 69.8207 3.68265C69.5527 3.51448 69.2363 3.43039 68.8715 3.43039C68.4696 3.43039 68.1218 3.53016 67.8282 3.72968C67.5375 3.92636 67.3137 4.18289 67.157 4.49929C67.0002 4.81568 66.9218 5.15487 66.9218 5.51687V6.09835C66.9218 6.59431 67.0073 7.01475 67.1784 7.35964C67.3522 7.70169 67.5931 7.9625 67.9009 8.14207C68.2088 8.31879 68.5665 8.40716 68.9741 8.40716C69.2392 8.40716 69.4786 8.3701 69.6924 8.29599C69.909 8.21903 70.0957 8.10502 70.2525 7.95395C70.4093 7.80002 70.5304 7.60905 70.6159 7.38102L71.5907 7.65466C71.4881 7.9853 71.3157 8.27604 71.0734 8.52687C70.8311 8.77485 70.5318 8.96868 70.1755 9.10835C69.8192 9.24517 69.4188 9.31358 68.9741 9.31358ZM73.2283 9.17676V2.60948H74.2031V3.60142H74.2715C74.3912 3.27647 74.6079 3.01281 74.9214 2.81044C75.235 2.60806 75.5884 2.50687 75.9818 2.50687C76.0559 2.50687 76.1485 2.5083 76.2597 2.51115C76.3708 2.514 76.4549 2.51827 76.5119 2.52397V3.55011C76.4777 3.54156 76.3993 3.52873 76.2768 3.51163C76.1571 3.49168 76.0302 3.4817 75.8962 3.4817C75.577 3.4817 75.292 3.54868 75.0411 3.68265C74.7931 3.81377 74.5965 3.99619 74.4511 4.22993C74.3086 4.46081 74.2373 4.72447 74.2373 5.02091V9.17676H73.2283ZM18.3503 24.1768V15.4204H21.309C21.9931 15.4204 22.5546 15.5373 22.9936 15.771C23.4325 16.0019 23.7575 16.3197 23.9684 16.7244C24.1793 17.1292 24.2848 17.5895 24.2848 18.1055C24.2848 18.6214 24.1793 19.0789 23.9684 19.4779C23.7575 19.877 23.4339 20.1905 22.9978 20.4185C22.5617 20.6437 22.0045 20.7563 21.3261 20.7563H18.9318V19.7986H21.2919C21.7593 19.7986 22.1356 19.7302 22.4206 19.5933C22.7085 19.4565 22.9166 19.2627 23.0449 19.0119C23.176 18.7582 23.2415 18.456 23.2415 18.1055C23.2415 17.7549 23.176 17.4484 23.0449 17.1862C22.9137 16.924 22.7042 16.7216 22.4164 16.5791C22.1285 16.4337 21.7479 16.361 21.2748 16.361H19.4106V24.1768H18.3503ZM22.4719 20.2432L24.6268 24.1768H23.3955L21.2748 20.2432H22.4719ZM28.5978 24.3136C27.965 24.3136 27.4191 24.1739 26.9602 23.8946C26.5042 23.6124 26.1521 23.219 25.9042 22.7145C25.659 22.2071 25.5365 21.6171 25.5365 20.9444C25.5365 20.2717 25.659 19.6789 25.9042 19.1658C26.1521 18.6499 26.497 18.248 26.9388 17.9601C27.3835 17.6693 27.9023 17.524 28.4951 17.524C28.8372 17.524 29.175 17.581 29.5085 17.695C29.842 17.809 30.1455 17.9943 30.4192 18.2508C30.6928 18.5045 30.9108 18.8408 31.0733 19.2599C31.2358 19.6789 31.317 20.1948 31.317 20.8076V21.2352H26.2547V20.363H30.2909C30.2909 19.9924 30.2168 19.6618 30.0686 19.371C29.9232 19.0803 29.7151 18.8508 29.4443 18.6827C29.1764 18.5145 28.86 18.4304 28.4951 18.4304C28.0932 18.4304 27.7455 18.5302 27.4519 18.7297C27.1612 18.9264 26.9374 19.1829 26.7806 19.4993C26.6239 19.8157 26.5455 20.1549 26.5455 20.5169V21.0983C26.5455 21.5943 26.631 22.0147 26.802 22.3596C26.9759 22.7017 27.2168 22.9625 27.5246 23.1421C27.8324 23.3188 28.1902 23.4072 28.5978 23.4072C28.8628 23.4072 29.1023 23.3701 29.3161 23.296C29.5327 23.219 29.7194 23.105 29.8762 22.9539C30.0329 22.8 30.1541 22.609 30.2396 22.381L31.2144 22.6547C31.1118 22.9853 30.9393 23.276 30.6971 23.5269C30.4548 23.7749 30.1555 23.9687 29.7992 24.1083C29.4429 24.2452 29.0424 24.3136 28.5978 24.3136ZM34.7845 24.3307C34.3684 24.3307 33.9907 24.2523 33.6515 24.0955C33.3123 23.9359 33.0429 23.7064 32.8434 23.4072C32.6439 23.105 32.5441 22.7402 32.5441 22.3126C32.5441 21.9364 32.6182 21.6314 32.7664 21.3976C32.9147 21.1611 33.1128 20.9758 33.3607 20.8418C33.6087 20.7078 33.8824 20.6081 34.1817 20.5425C34.4838 20.4741 34.7874 20.42 35.0923 20.3801C35.4914 20.3287 35.8149 20.2903 36.0629 20.2646C36.3137 20.2361 36.4962 20.1891 36.6102 20.1235C36.727 20.058 36.7855 19.9439 36.7855 19.7815V19.7473C36.7855 19.3254 36.67 18.9976 36.4392 18.7639C36.2111 18.5302 35.8648 18.4133 35.4002 18.4133C34.9185 18.4133 34.5408 18.5188 34.2672 18.7297C33.9935 18.9406 33.8011 19.1658 33.69 19.4052L32.7322 19.0632C32.9033 18.6641 33.1313 18.3534 33.4163 18.1311C33.7042 17.9059 34.0178 17.7492 34.357 17.6608C34.699 17.5696 35.0353 17.524 35.366 17.524C35.5769 17.524 35.8192 17.5496 36.0928 17.6009C36.3693 17.6494 36.6358 17.7506 36.8924 17.9045C37.1517 18.0584 37.367 18.2907 37.538 18.6014C37.709 18.9121 37.7945 19.3283 37.7945 19.8499V24.1768H36.7855V23.2874H36.7342C36.6658 23.43 36.5517 23.5825 36.3921 23.7449C36.2325 23.9074 36.0201 24.0456 35.7551 24.1597C35.49 24.2737 35.1665 24.3307 34.7845 24.3307ZM34.9384 23.4243C35.3375 23.4243 35.6738 23.3459 35.9475 23.1891C36.2239 23.0323 36.432 22.83 36.5717 22.582C36.7142 22.334 36.7855 22.0732 36.7855 21.7995V20.876C36.7427 20.9273 36.6487 20.9744 36.5033 21.0171C36.3608 21.057 36.1954 21.0926 36.0073 21.124C35.822 21.1525 35.641 21.1782 35.4643 21.201C35.2905 21.2209 35.1494 21.238 35.041 21.2523C34.7788 21.2865 34.5337 21.3421 34.3056 21.419C34.0805 21.4931 33.898 21.6057 33.7584 21.7568C33.6216 21.905 33.5531 22.1074 33.5531 22.3639C33.5531 22.7145 33.6828 22.9796 33.9422 23.1592C34.2045 23.3359 34.5365 23.4243 34.9384 23.4243ZM44.288 19.0803L43.3816 19.3368C43.3246 19.1857 43.2405 19.0389 43.1293 18.8964C43.021 18.7511 42.8728 18.6313 42.6847 18.5373C42.4966 18.4432 42.2557 18.3962 41.9621 18.3962C41.5602 18.3962 41.2253 18.4888 40.9574 18.6741C40.6923 18.8565 40.5597 19.0888 40.5597 19.371C40.5597 19.6219 40.6509 19.82 40.8334 19.9653C41.0158 20.1107 41.3008 20.2318 41.6885 20.3287L42.6633 20.5682C43.2505 20.7107 43.688 20.9288 43.9759 21.2223C44.2638 21.5131 44.4077 21.8879 44.4077 22.3468C44.4077 22.7231 44.2994 23.0594 44.0828 23.3558C43.869 23.6523 43.5697 23.886 43.1849 24.057C42.8001 24.2281 42.3526 24.3136 41.8424 24.3136C41.1726 24.3136 40.6182 24.1682 40.1792 23.8775C39.7402 23.5867 39.4623 23.162 39.3455 22.6033L40.3032 22.3639C40.3944 22.7174 40.5669 22.9824 40.8205 23.1592C41.0771 23.3359 41.412 23.4243 41.8253 23.4243C42.2956 23.4243 42.669 23.3245 42.9455 23.125C43.2248 22.9226 43.3645 22.6803 43.3645 22.3981C43.3645 22.1701 43.2847 21.9791 43.1251 21.8252C42.9654 21.6684 42.7203 21.5516 42.3897 21.4746L41.2951 21.2181C40.6937 21.0755 40.2519 20.8546 39.9697 20.5554C39.6904 20.2532 39.5507 19.8755 39.5507 19.4223C39.5507 19.0518 39.6547 18.724 39.8628 18.4389C40.0737 18.1539 40.3602 17.9302 40.7222 17.7677C41.0871 17.6052 41.5004 17.524 41.9621 17.524C42.612 17.524 43.1222 17.6665 43.4928 17.9515C43.8662 18.2366 44.1313 18.6128 44.288 19.0803ZM48.5946 24.3136C48.0017 24.3136 47.4815 24.1725 47.034 23.8903C46.5893 23.6081 46.2416 23.2133 45.9908 22.706C45.7428 22.1986 45.6188 21.6057 45.6188 20.9273C45.6188 20.2432 45.7428 19.6461 45.9908 19.1359C46.2416 18.6256 46.5893 18.2294 47.034 17.9473C47.4815 17.6651 48.0017 17.524 48.5946 17.524C49.1875 17.524 49.7062 17.6651 50.1509 17.9473C50.5984 18.2294 50.9462 18.6256 51.1941 19.1359C51.445 19.6461 51.5704 20.2432 51.5704 20.9273C51.5704 21.6057 51.445 22.1986 51.1941 22.706C50.9462 23.2133 50.5984 23.6081 50.1509 23.8903C49.7062 24.1725 49.1875 24.3136 48.5946 24.3136ZM48.5946 23.4072C49.0449 23.4072 49.4155 23.2917 49.7062 23.0608C49.997 22.83 50.2122 22.5264 50.3518 22.1501C50.4915 21.7739 50.5614 21.3663 50.5614 20.9273C50.5614 20.4884 50.4915 20.0793 50.3518 19.7002C50.2122 19.3211 49.997 19.0147 49.7062 18.781C49.4155 18.5473 49.0449 18.4304 48.5946 18.4304C48.1442 18.4304 47.7737 18.5473 47.4829 18.781C47.1922 19.0147 46.977 19.3211 46.8373 19.7002C46.6977 20.0793 46.6278 20.4884 46.6278 20.9273C46.6278 21.3663 46.6977 21.7739 46.8373 22.1501C46.977 22.5264 47.1922 22.83 47.4829 23.0608C47.7737 23.2917 48.1442 23.4072 48.5946 23.4072ZM54.1197 20.2261V24.1768H53.1107V17.6095H54.0855V18.6356H54.171C54.3249 18.3021 54.5587 18.0342 54.8722 17.8318C55.1857 17.6266 55.5905 17.524 56.0865 17.524C56.5311 17.524 56.9202 17.6152 57.2537 17.7976C57.5872 17.9772 57.8466 18.2508 58.0318 18.6185C58.2171 18.9834 58.3098 19.4451 58.3098 20.0038V24.1768H57.3007V20.0722C57.3007 19.5563 57.1667 19.1544 56.8988 18.8665C56.6309 18.5758 56.2632 18.4304 55.7957 18.4304C55.4736 18.4304 55.1857 18.5002 54.9321 18.6399C54.6812 18.7796 54.4831 18.9834 54.3377 19.2513C54.1924 19.5192 54.1197 19.8442 54.1197 20.2261Z" fill="black"/>
</svg>
