<svg width="32" height="32" viewBox="0 0 32 32" fill="none" xmlns="http://www.w3.org/2000/svg">
<path d="M14.4658 6C15.1547 6.27379 15.8524 6.55636 16.5413 6.83014C16.9299 6.98912 17.3273 7.1393 17.7777 7.31594C17.1948 7.54557 16.6649 7.75752 16.1262 7.96065C13.5208 8.97632 10.9242 9.9831 8.31883 10.9988C8.10686 11.0871 7.92134 11.0871 7.70937 10.9988C6.70254 10.5925 5.68686 10.204 4.60938 9.78891C4.74185 9.73592 4.82141 9.69164 4.9009 9.66514C7.9214 8.4905 10.9419 7.31587 13.9624 6.14123C14.0596 6.1059 14.1567 6.04416 14.2538 6C14.3245 6 14.3951 6 14.4569 6H14.4658Z" fill="#0671B8"/>
<path d="M4.03525 10.4512C5.14807 10.884 6.22562 11.299 7.29427 11.723C7.37376 11.7495 7.43561 11.8997 7.43561 11.9968C7.44445 12.8182 7.43561 13.6396 7.43561 14.4609C7.43561 14.7789 7.47095 14.8054 7.78007 14.7171C8.15101 14.6023 8.52185 14.4962 8.89279 14.3725C9.04293 14.3195 9.14895 14.3373 9.26376 14.4432C9.69653 14.823 10.1381 15.2028 10.5885 15.5649C10.6592 15.6267 10.7652 15.6355 10.8535 15.6708C10.88 15.5825 10.9242 15.4941 10.9242 15.4146C10.9242 14.7522 10.9242 14.081 10.9242 13.4186C10.9242 13.3391 10.9242 13.251 10.9242 13.1361C11.6837 13.4276 12.4168 13.7102 13.141 13.9928C13.3971 14.09 13.7592 14.134 13.8828 14.3195C14.0153 14.5226 13.927 14.8672 13.927 15.1498C13.927 18.5766 13.927 22.0033 13.927 25.4301C13.927 25.536 13.927 25.6331 13.927 25.7832C13.5031 25.6243 13.0968 25.4655 12.6905 25.3065C9.92616 24.229 7.16177 23.1602 4.39739 22.0827C4.05295 21.9503 4 21.8709 4 21.5088C4 17.8965 4 14.2931 4 10.6809C4 10.6102 4.00002 10.5484 4.01768 10.4424L4.03525 10.4512Z" fill="#0671B8"/>
<path d="M14.7925 14.3017C18.078 13.0299 21.3634 11.7494 24.6842 10.46V16.13C22.6705 16.2094 21.0544 17.0133 19.915 18.6737C18.7757 20.334 18.6255 22.1444 19.2791 24.0433C17.7865 24.6262 16.3028 25.2002 14.7925 25.7831V14.2931V14.3017Z" fill="#0671B8"/>
<path d="M24.1102 9.78877C23.6333 9.97424 23.2094 10.1421 22.7943 10.3011C20.0741 11.3609 17.345 12.4206 14.6248 13.4804C14.4482 13.5511 14.2891 13.5599 14.1125 13.4804C13.2735 13.1448 12.4344 12.827 11.5424 12.4825C11.6484 12.4295 11.7102 12.3941 11.7809 12.3676C14.872 11.1665 17.9632 9.95666 21.0632 8.76435C21.1957 8.71136 21.39 8.71136 21.5225 8.76435C22.2908 9.04697 23.0503 9.34726 23.8099 9.64754C23.8982 9.68287 23.9778 9.71811 24.1191 9.77993L24.1102 9.78877Z" fill="#0671B8"/>
<path d="M19.639 21.672C19.6538 19.3404 21.5324 17.4989 23.864 17.5138C26.1658 17.536 28.0221 19.4147 27.9998 21.7091C27.9775 24.0258 26.099 25.8895 23.7972 25.8746C21.4879 25.8598 19.6167 23.9738 19.639 21.672Z" fill="#FFB422"/>
<path d="M23.7532 19.1826C23.8646 19.1826 23.9165 19.2273 23.9536 19.2941C24.1615 19.7248 24.3769 20.148 24.5848 20.5787C24.5997 20.6158 24.6219 20.6307 24.6665 20.6381C25.1343 20.7049 25.5946 20.7718 26.0624 20.8386C26.0847 20.8386 26.0995 20.8386 26.1218 20.846C26.2555 20.8757 26.3074 21.0316 26.2183 21.1356C26.1738 21.1875 26.1293 21.2246 26.0773 21.2766C25.7729 21.5736 25.4683 21.8706 25.1565 22.1676C25.1268 22.1899 25.1194 22.2122 25.1268 22.2493C25.2085 22.732 25.2902 23.2072 25.3718 23.6898C25.3867 23.764 25.3644 23.8234 25.305 23.868C25.2456 23.9125 25.1788 23.9126 25.112 23.8754C24.6887 23.6527 24.2581 23.43 23.8349 23.1998C23.7977 23.1775 23.7754 23.1775 23.7383 23.1998C23.3151 23.4226 22.8918 23.6452 22.476 23.868C22.4166 23.8977 22.3497 23.92 22.2829 23.8829C22.2161 23.8457 22.179 23.7789 22.1938 23.6972C22.2606 23.3185 22.32 22.9398 22.3869 22.5611C22.4017 22.4572 22.4166 22.3533 22.4389 22.2493C22.4389 22.2122 22.4389 22.1899 22.4166 22.1676C22.0973 21.8557 21.7706 21.5439 21.4513 21.232C21.4216 21.2023 21.3919 21.1727 21.3622 21.1504C21.3102 21.0984 21.2954 21.039 21.3177 20.9722C21.34 20.9054 21.3845 20.8607 21.4587 20.8533C21.726 20.8162 21.9934 20.7717 22.2607 20.7346C22.476 20.7049 22.6914 20.6678 22.9141 20.6381C22.9513 20.6381 22.9661 20.6158 22.9809 20.5861C23.1963 20.1554 23.4042 19.7248 23.6195 19.2941C23.6566 19.2199 23.7086 19.1826 23.7606 19.1826H23.7532Z" fill="white"/>
</svg>
