<svg width="32" height="32" viewBox="0 0 32 32" fill="none" xmlns="http://www.w3.org/2000/svg">
<path d="M7 23.5322V5C11.4136 5 15.8192 5 20.2327 5C20.296 5.08701 20.4067 5.16616 20.4067 5.25316C20.4225 5.71192 20.4146 6.16276 20.4146 6.63734H20.1537C17.7333 6.63734 15.305 6.63734 12.8847 6.63734C11.7694 6.63734 10.6621 6.63734 9.54686 6.63734C9.13557 6.63734 8.7955 6.87464 8.70058 7.24639C8.66103 7.38877 8.66099 7.54691 8.66099 7.68928C8.66099 12.9492 8.66099 18.209 8.66099 23.4689V23.7615C8.22597 23.7615 7.82263 23.7536 7.42715 23.7615C7.2215 23.7615 7.08701 23.6983 7.00792 23.5164L7 23.5322Z" fill="#0671B8"/>
<path d="M20.4226 7.23047C20.4226 7.52312 20.4226 7.79199 20.4226 8.06092C20.4226 8.58295 20.4226 9.09715 20.4226 9.61918C20.4226 10.244 20.7627 10.5841 21.3797 10.5841C22.1707 10.5841 22.9615 10.5841 23.7762 10.5841C23.7762 10.6632 23.7841 10.7343 23.7841 10.8134C23.7841 15.7332 23.7841 20.653 23.7841 25.5728C23.7841 25.9129 23.6971 25.9999 23.3649 25.9999C18.7932 25.9999 14.2135 25.9999 9.64179 25.9999C9.3175 25.9999 9.23048 25.9208 9.23048 25.5886C9.23048 19.601 9.23048 13.6214 9.23048 7.63387C9.23048 7.32539 9.31756 7.23047 9.61022 7.23047C13.1537 7.23047 16.6972 7.23047 20.2407 7.23047C20.2881 7.23047 20.3356 7.23047 20.4146 7.23047H20.4226ZM10.9311 11.4146C10.9311 12.8304 12.0779 13.9773 13.4938 13.9773C14.9096 13.9773 16.0644 12.8383 16.0644 11.4225C16.0644 9.99086 14.9175 8.84396 13.4938 8.84396C12.0779 8.84396 10.9311 9.99085 10.9311 11.4146ZM16.5232 15.1637C15.8825 15.1637 15.2418 15.1637 14.6011 15.1637C13.6915 15.1637 12.7899 15.1637 11.8803 15.1637C11.6825 15.1637 11.5559 15.2903 11.5559 15.4564C11.5559 15.6146 11.6825 15.7254 11.8723 15.7333C11.9119 15.7333 11.9514 15.7333 11.9988 15.7333C15.0045 15.7333 18.0181 15.7333 21.0237 15.7333C21.0949 15.7333 21.1661 15.7333 21.2294 15.7333C21.3796 15.7016 21.4746 15.6067 21.4667 15.4406C21.4667 15.2824 21.3717 15.1874 21.2135 15.1716C21.1502 15.1637 21.0791 15.1716 21.0079 15.1716C19.513 15.1716 18.0181 15.1716 16.5232 15.1716V15.1637ZM16.5074 17.7502C18.0102 17.7502 19.513 17.7502 21.0079 17.7502C21.0791 17.7502 21.1502 17.7502 21.2135 17.7502C21.3717 17.7185 21.4667 17.6157 21.4588 17.4496C21.4509 17.2914 21.3559 17.2044 21.1977 17.1886C21.1423 17.1886 21.087 17.1886 21.0316 17.1886C18.0181 17.1886 14.9966 17.1886 11.9831 17.1886C11.9198 17.1886 11.8565 17.1886 11.8011 17.1886C11.6429 17.2123 11.5559 17.3151 11.5559 17.4654C11.5559 17.6157 11.6351 17.7106 11.7774 17.7422C11.8407 17.7581 11.9119 17.7502 11.9831 17.7502C13.4938 17.7502 14.9966 17.7502 16.5074 17.7502ZM16.5074 19.1818C15.0045 19.1818 13.5017 19.1818 12.0068 19.1818C11.9356 19.1818 11.8723 19.1818 11.8011 19.1818C11.6429 19.2056 11.5559 19.3084 11.5559 19.4587C11.5559 19.6089 11.643 19.7038 11.7774 19.7355C11.8407 19.7513 11.9119 19.7434 11.9831 19.7434C14.9966 19.7434 18.0181 19.7434 21.0316 19.7434C21.0949 19.7434 21.1582 19.7434 21.2135 19.7434C21.3717 19.7118 21.4667 19.6089 21.4588 19.4428C21.4509 19.2846 21.348 19.1977 21.1977 19.1818C21.1265 19.1818 21.0632 19.1818 20.992 19.1818C19.4971 19.1818 18.0023 19.1818 16.5074 19.1818ZM16.5232 21.1908C15.0204 21.1908 13.5175 21.1908 12.0226 21.1908C11.9514 21.1908 11.8881 21.1908 11.8169 21.1908C11.6508 21.2066 11.5559 21.3095 11.5559 21.4756C11.5559 21.6338 11.6508 21.7287 11.8011 21.7604C11.8644 21.7683 11.9198 21.7604 11.9831 21.7604C14.9966 21.7604 18.0181 21.7604 21.0316 21.7604C21.1028 21.7604 21.174 21.7604 21.2373 21.7525C21.3876 21.7129 21.4746 21.6101 21.4588 21.4519C21.4509 21.3016 21.3559 21.2145 21.2135 21.1908C21.1502 21.1829 21.0791 21.1908 21.0079 21.1908C19.513 21.1908 18.0181 21.1908 16.5232 21.1908ZM19.5525 11.1457C19.0305 11.1457 18.5164 11.1457 17.9944 11.1457C17.7492 11.1457 17.6305 11.2485 17.6384 11.4383C17.6384 11.6202 17.765 11.7151 17.9944 11.7151C19.0226 11.7151 20.0587 11.7151 21.0869 11.7151C21.3242 11.7151 21.4588 11.6123 21.4588 11.4304C21.4588 11.2485 21.3321 11.1457 21.0869 11.1457C20.5728 11.1457 20.0667 11.1457 19.5525 11.1457ZM19.5446 13.1547C19.0305 13.1547 18.5243 13.1547 18.0102 13.1547C17.765 13.1547 17.6463 13.2496 17.6384 13.4395C17.6384 13.6293 17.7571 13.7321 18.0023 13.7321C19.0305 13.7321 20.0666 13.7321 21.0949 13.7321C21.3242 13.7321 21.4588 13.6214 21.4588 13.4395C21.4588 13.2655 21.3322 13.1627 21.1028 13.1627C20.5807 13.1627 20.0666 13.1627 19.5446 13.1627V13.1547ZM19.5684 23.1999C19.0463 23.1999 18.5164 23.1999 17.9944 23.1999C17.7571 23.1999 17.6463 23.2948 17.6384 23.4767C17.6384 23.6665 17.7571 23.7773 17.9944 23.7773C19.0226 23.7773 20.0587 23.7773 21.0869 23.7773C21.3242 23.7773 21.4588 23.6665 21.4588 23.4846C21.4588 23.3027 21.3321 23.1999 21.0869 23.1999C20.5807 23.1999 20.0746 23.1999 19.5684 23.1999Z" fill="#0671B8"/>
<path d="M23.7604 10.0147C23.5073 10.0147 23.2542 10.0147 23.0011 10.0147C22.4395 10.0147 21.8779 10.0147 21.3242 10.0147C21.0949 10.0147 20.992 9.91979 20.992 9.69832C20.992 8.90736 20.992 8.1164 20.992 7.32544C20.992 7.30171 20.9999 7.27009 21.0078 7.24636C21.253 7.191 21.435 7.26218 21.6169 7.4441C22.2655 8.11642 22.9299 8.77283 23.6022 9.42932C23.7762 9.59542 23.8157 9.77734 23.7683 10.0225L23.7604 10.0147Z" fill="#0671B8"/>
<path d="M13.4938 13.6374C14.7169 13.6374 15.7085 12.6458 15.7085 11.4226C15.7085 10.1995 14.7169 9.20801 13.4938 9.20801C12.2706 9.20801 11.2791 10.1995 11.2791 11.4226C11.2791 12.6458 12.2706 13.6374 13.4938 13.6374Z" fill="#FFB422"/>
<path d="M13.6599 13.1077C13.6599 13.0128 13.6599 12.9179 13.6599 12.8309C13.6599 12.7913 13.6678 12.7755 13.7073 12.7676C13.7706 12.7518 13.826 12.728 13.8892 12.6964C14.3243 12.467 14.4587 11.9529 14.1819 11.5653C14.0079 11.3281 13.7627 11.2173 13.4701 11.2093C13.3356 11.2093 13.2169 11.1778 13.122 11.0908C12.9796 10.9721 12.956 10.7743 13.0746 10.6399C13.2091 10.4817 13.383 10.4422 13.5728 10.4896C13.7547 10.5292 13.8813 10.6399 13.9051 10.8376H14.3322C14.3322 10.7981 14.3322 10.7585 14.3243 10.7269C14.261 10.3947 14.0554 10.197 13.739 10.0942C13.6757 10.0704 13.6599 10.0467 13.6678 9.99134C13.6678 9.91224 13.6678 9.82519 13.6678 9.74609H13.2407C13.2407 9.82519 13.2407 9.90432 13.2407 9.9755C13.2407 10.0467 13.2249 10.0863 13.1537 10.0942C13.1141 10.0942 13.0746 10.1178 13.0429 10.1416C12.5842 10.3551 12.4339 10.893 12.7186 11.2806C12.8926 11.5179 13.1378 11.6286 13.4226 11.6444C13.5412 11.6444 13.6599 11.6681 13.7627 11.7472C13.9526 11.8896 13.9526 12.1349 13.7627 12.2851C13.478 12.4987 13.1062 12.3721 12.9954 12.0241H12.5684C12.5763 12.0794 12.5762 12.1269 12.592 12.1823C12.6711 12.4987 12.8847 12.6806 13.1853 12.7755C13.2327 12.7913 13.2486 12.8071 13.2407 12.8546C13.2407 12.9416 13.2407 13.0286 13.2407 13.1235H13.6678L13.6599 13.1077Z" fill="white"/>
</svg>
