<svg width="42" height="40" viewBox="0 0 42 40" fill="none" xmlns="http://www.w3.org/2000/svg">
<path d="M31.423 19.4098C31.423 23.4682 31.423 27.5389 31.423 31.5974C31.423 32.077 31.4353 32.5566 31.2754 33.0363C30.9434 34.0201 30.0087 34.7457 28.9757 34.7949C28.7543 34.7949 28.5452 34.7949 28.3239 34.7949C22.1501 34.7949 15.9764 34.7949 9.81494 34.7949C9.33531 34.7949 8.88027 34.7334 8.44983 34.512C7.51516 34.0201 7.03553 33.233 7.01093 32.1877C6.98634 30.9947 7.01093 29.7895 7.01093 28.5966C7.01093 21.3037 7.01093 14.0108 7.01093 6.73022C7.01093 5.4512 7.66274 4.51653 8.86797 4.11068C9.15083 4.03689 9.44599 4 9.72885 4C16.0748 4 22.4207 4 28.7666 4C30.2916 4 31.423 5.13144 31.423 6.65643C31.423 10.1368 31.423 13.6296 31.423 17.11C31.423 17.8725 31.423 18.635 31.423 19.4098ZM19.2231 7.89856C16.5544 7.89856 13.8857 7.89856 11.2169 7.89856C11.0202 7.89856 10.9218 8.00104 10.9218 8.20601C10.9218 9.26367 10.9218 10.309 10.9218 11.3667C10.9218 11.5798 11.0284 11.6864 11.2415 11.6864C13.7873 11.6864 16.333 11.6864 18.8788 11.6864C21.6459 11.6864 24.413 11.6864 27.1678 11.6864C27.3892 11.6864 27.4999 11.5757 27.4999 11.3544C27.4999 10.2844 27.4999 9.21447 27.4999 8.14452C27.4999 7.96005 27.4384 7.89856 27.2539 7.89856C24.5729 7.89856 21.9042 7.89856 19.2231 7.89856ZM16.0133 27.1208C14.9802 27.1208 13.9349 27.1208 12.9018 27.1208C12.7542 27.1208 12.5944 27.1208 12.4468 27.1577C11.4137 27.3298 10.6881 28.4736 10.9833 29.482C11.2415 30.3798 11.9425 30.9086 12.8895 30.9086C14.9802 30.9086 17.0586 30.9086 19.1493 30.9086C19.3953 30.9086 19.6413 30.8718 19.8749 30.798C20.7235 30.5151 21.2892 29.5435 21.1171 28.7319C20.8957 27.7111 20.1824 27.1331 19.1247 27.1331C18.0917 27.1331 17.0586 27.1331 16.0256 27.1331L16.0133 27.1208ZM19.2231 14.306C18.1778 14.306 17.3292 15.1545 17.3292 16.1999C17.3292 17.2453 18.1901 18.1061 19.2354 18.0938C20.2562 18.0938 21.1171 17.233 21.1294 16.1999C21.1294 15.1545 20.2808 14.306 19.2354 14.2937L19.2231 14.306ZM19.2231 24.5012C20.2562 24.5012 21.1048 23.6404 21.1048 22.6073C21.1048 21.5743 20.2316 20.7011 19.1985 20.7011C18.1532 20.7011 17.3046 21.562 17.3046 22.6073C17.3046 23.6527 18.1655 24.4889 19.2108 24.4889L19.2231 24.5012ZM10.9095 16.1876C10.9095 17.2453 11.7458 18.0938 12.7911 18.0938C13.8365 18.0938 14.6974 17.233 14.6974 16.1999C14.6974 15.1545 13.8365 14.306 12.7911 14.306C11.7458 14.306 10.9095 15.1545 10.9095 16.1876ZM10.9095 22.6073C10.9095 23.6527 11.7458 24.4889 12.7788 24.5012C13.8365 24.5012 14.6974 23.6527 14.6974 22.595C14.6974 21.562 13.8365 20.7134 12.8034 20.7134C11.7581 20.7134 10.9095 21.562 10.9095 22.6073ZM27.4876 16.2122C27.4876 15.1422 26.6636 14.3183 25.5936 14.3183C24.5606 14.3183 23.712 15.1545 23.712 16.1999C23.712 17.233 24.5606 18.1061 25.5936 18.1061C26.6513 18.1061 27.4876 17.2699 27.4876 16.2122ZM27.4876 22.6319C27.4876 21.5742 26.6636 20.7257 25.6059 20.7257C24.5729 20.7257 23.7243 21.5743 23.712 22.6073C23.712 23.6404 24.5483 24.5012 25.5567 24.5135C26.6513 24.5135 27.4753 23.7019 27.4876 22.6319ZM27.4876 29.0393C27.4876 27.9694 26.6759 27.1454 25.6182 27.1331C24.5729 27.1331 23.7366 27.9571 23.7243 29.0024C23.712 30.0478 24.5483 30.8964 25.5813 30.9086C26.639 30.9086 27.4876 30.097 27.4876 29.0393Z" fill="#0671B8"/>
<path d="M25.6182 35.9999C30.5221 35.9999 34.4976 32.0245 34.4976 27.1206C34.4976 22.2166 30.5221 18.2412 25.6182 18.2412C20.7143 18.2412 16.7388 22.2166 16.7388 27.1206C16.7388 32.0245 20.7143 35.9999 25.6182 35.9999Z" fill="#FFB422" stroke="white" stroke-miterlimit="10"/>
<path d="M26.4055 32.286C26.4055 31.9909 26.4055 31.708 26.4055 31.4375C26.4055 31.3268 26.4424 31.2776 26.553 31.2407C26.7375 31.1792 26.922 31.1177 27.1065 31.0193C28.447 30.3183 28.8651 28.7318 27.9919 27.5635C27.4631 26.8379 26.7129 26.4935 25.8274 26.4689C25.4339 26.4566 25.065 26.3706 24.7452 26.1123C24.3025 25.7433 24.2287 25.153 24.5976 24.7226C25.0035 24.243 25.5446 24.12 26.1226 24.2553C26.676 24.3782 27.0573 24.7103 27.1434 25.3129H28.447C28.447 25.1899 28.447 25.0792 28.4101 24.9809C28.2133 23.9724 27.5738 23.3452 26.6268 23.0377C26.4424 22.9762 26.3932 22.8901 26.4055 22.718C26.4178 22.472 26.4055 22.2137 26.4055 21.9678H25.0895C25.0895 22.2137 25.0773 22.4474 25.0895 22.6811C25.1141 22.9024 25.0404 23.0131 24.819 23.05C24.696 23.0746 24.5853 23.1361 24.4746 23.1853C23.0849 23.8494 22.6176 25.4851 23.4908 26.678C24.0196 27.4036 24.7698 27.748 25.6553 27.7849C26.0242 27.7972 26.3809 27.8587 26.6883 28.0923C27.2663 28.5351 27.2663 29.2853 26.6883 29.7403C25.8274 30.4044 24.6714 30.0109 24.3271 28.9409H23.0234C23.048 29.1131 23.0603 29.2607 23.0972 29.4082C23.3432 30.3675 23.9827 30.9455 24.9051 31.2407C25.0404 31.2899 25.0895 31.3391 25.0895 31.4743C25.0895 31.7449 25.0895 32.0155 25.0895 32.286H26.4055Z" fill="white"/>
</svg>
