<svg width="32" height="32" viewBox="0 0 32 32" fill="none" xmlns="http://www.w3.org/2000/svg">
<path d="M3.04426 13.2603H25.4359C25.4427 13.4578 25.4563 13.6238 25.4563 13.7898C25.4563 16.6035 25.4563 19.4172 25.4563 22.2309C25.4563 23.6457 24.8326 24.3807 23.6191 24.3807C17.3551 24.3807 11.0912 24.3807 4.83397 24.3807C3.66795 24.3807 3.02393 23.6536 3.02393 22.3099C3.02393 19.4409 3.02393 16.5798 3.02393 13.7108C3.02393 13.5764 3.03748 13.442 3.04426 13.2603ZM5.72882 15.1097V16.2794H14.2096V15.1097H5.72882Z" fill="#0671B8"/>
<path d="M25.4587 9.56103C25.4452 9.727 25.4452 9.89298 25.4384 10.0906H3C3.02712 9.48199 3 8.88131 3.12206 8.31225C3.27124 7.59302 3.73913 7.16622 4.37655 7.05557C4.59354 7.02396 4.81053 7.02396 5.03431 7.02396C11.1237 7.02396 17.213 7.05557 23.3024 7.00024C24.7942 6.98444 25.5876 7.73528 25.4587 9.56103Z" fill="#0671B8"/>
<path d="M29.7471 16.3892C29.7471 15.6798 29.3226 15.1163 28.6286 14.9241C28.4467 14.8711 28.4198 14.7849 28.4198 14.6258C28.4265 13.9562 28.4265 13.2866 28.4198 12.6171C28.4063 11.6956 28.0761 10.8271 27.5236 10.1575C27.1328 9.68685 26.6342 9.32223 26.0683 9.09683C25.8392 9.00402 25.5966 8.93773 25.3473 8.89795C24.3636 8.74547 23.326 8.73884 22.3423 8.85817C20.961 9.02391 19.8628 9.91888 19.3574 11.1188C19.1553 11.5762 19.0475 12.0867 19.0408 12.6171C19.0408 13.2999 19.0408 13.9827 19.0408 14.6722C19.0408 14.7981 19.0205 14.871 18.8723 14.9175C18.1244 15.1627 17.7538 15.6865 17.7538 16.4687V23.1313C17.7538 23.5357 17.8549 23.8738 18.0368 24.139C18.3198 24.55 18.8049 24.7754 19.4383 24.7754H23.737C25.1991 24.7754 26.6612 24.7754 28.1166 24.7754C29.1003 24.7688 29.7471 24.1323 29.7538 23.1777C29.7538 20.9171 29.7538 18.6564 29.7538 16.3892H29.7471ZM22.7398 10.078C23.3934 10.0448 24.0469 10.0448 24.7005 10.078C25.381 10.1111 26.0211 10.4095 26.4591 10.8735C26.5332 10.9531 26.6006 11.0326 26.6612 11.1188C26.8768 11.4238 27.025 11.7751 27.0722 12.1596C27.1328 12.69 27.1261 13.227 27.1194 13.7706C27.1059 14.1286 27.0924 14.4865 27.0924 14.8445H20.3614C20.3614 14.8445 20.3277 14.8114 20.3277 14.7981C20.3277 13.9761 20.2873 13.1474 20.3546 12.3254C20.3883 11.8812 20.55 11.4635 20.8061 11.1188C21.244 10.5222 21.9515 10.1178 22.7398 10.078ZM24.4849 21.6662C24.4849 22.064 24.2693 22.2761 23.8852 22.2761C23.5012 22.2761 23.2923 22.064 23.2856 21.6728C23.2856 21.4408 23.2856 21.2088 23.2856 20.9767C23.2856 20.8972 23.2721 20.811 23.2856 20.7314C23.326 20.3337 23.2586 20.0354 22.8476 19.7834C22.2749 19.4321 22.1267 18.7028 22.3692 18.0863C22.6185 17.4565 23.2654 17.0588 23.9661 17.1118C24.6601 17.1582 25.2261 17.6223 25.3945 18.2786C25.5562 18.9084 25.28 19.5779 24.6938 19.916C24.5186 20.0155 24.4714 20.1215 24.4782 20.3072C24.4916 20.758 24.4782 21.2154 24.4782 21.6662H24.4849Z" fill="#FFB422" stroke="white" stroke-width="0.5" stroke-miterlimit="10"/>
</svg>
