<svg width="32" height="32" viewBox="0 0 32 32" fill="none" xmlns="http://www.w3.org/2000/svg">
<path d="M22.3851 23.1948H19.9394C19.9394 23.1031 19.9394 23.0267 19.9394 22.9503C19.9394 22.2396 19.9394 21.5211 19.9394 20.8104C19.9394 20.1531 19.4962 19.7023 18.8466 19.7023C16.08 19.7023 13.3134 19.7023 10.5468 19.7023C9.89716 19.7023 9.45395 20.1531 9.45395 20.8104C9.45395 21.5976 9.45395 22.3847 9.45395 23.1872H7.01595C7.01595 23.126 7.00839 23.0573 7.00839 22.9961C7.00839 22.2624 7.00839 21.5211 7.00839 20.7874C7.01603 18.3724 8.77376 16.4542 11.1659 16.2249C11.2958 16.2096 11.3569 16.2479 11.418 16.3625C11.8002 17.142 12.1899 17.9139 12.5721 18.6857C12.7402 19.0297 12.9083 19.0755 13.2293 18.8845C13.6496 18.6323 14.07 18.3877 14.4827 18.1279C14.6279 18.0362 14.7349 18.0209 14.8954 18.1279C15.3157 18.403 15.7513 18.6476 16.1869 18.9074C16.4774 19.0832 16.6455 19.0297 16.7984 18.724C17.1881 17.9445 17.5856 17.165 17.9677 16.3778C18.0288 16.2555 18.0976 16.2173 18.2352 16.2325C20.4133 16.4618 22.0488 18.0362 22.3468 20.199C22.3468 20.2449 22.3698 20.283 22.3851 20.3213V23.2101V23.1948Z" fill="#0671B8"/>
<path d="M10.1494 25.9999C10.1494 24.3033 10.1494 22.6066 10.1494 20.91C10.1494 20.4973 10.2411 20.4056 10.6691 20.4056C11.1888 20.4056 11.7009 20.4056 12.2511 20.4056C12.2511 20.4896 12.2511 20.5661 12.2511 20.6425C12.2511 21.3456 12.2435 22.0564 12.2511 22.7595C12.2511 22.8971 12.3275 23.05 12.4192 23.1569C12.6027 23.3709 12.809 23.5619 13.0154 23.7606C13.2064 23.9441 13.3822 23.9441 13.5656 23.7606C13.7032 23.6307 13.8178 23.4855 13.9935 23.2945C14.1464 23.4702 14.2611 23.6154 14.3986 23.7453C14.605 23.9517 14.7731 23.9517 14.9871 23.7453C15.117 23.6154 15.2317 23.4779 15.3998 23.2868C15.5527 23.4626 15.6673 23.6078 15.7973 23.7453C16.0036 23.9517 16.1717 23.944 16.3856 23.7453C16.3856 23.7453 16.3933 23.7378 16.4009 23.7301C16.8952 23.2563 17.1422 22.6754 17.1422 21.9876C17.1422 21.4679 17.1422 20.9405 17.1422 20.3979C17.7536 20.3979 18.3498 20.3903 18.9383 20.3979C19.137 20.3979 19.2364 20.5585 19.2364 20.8107C19.2364 21.5138 19.2364 22.2245 19.2364 22.9276C19.2364 23.9441 19.2364 24.9682 19.2364 25.9846H10.1494V25.9999Z" fill="#0671B8"/>
<path d="M19.9394 26.0001V23.8984H22.3851V26.0001H19.9394Z" fill="#0671B8"/>
<path d="M7.22226 26C7.04648 25.8777 6.99305 25.7095 7.00069 25.4955C7.01598 24.9758 7.00069 24.4485 7.00069 23.9136H9.44625V26H7.21461H7.22226Z" fill="#0671B8"/>
<path d="M18.5332 8.88841C15.973 7.90253 13.4204 7.90253 10.8678 8.88841C10.7149 7.38284 11.1658 6.16764 12.465 5.40339C12.9159 5.1359 13.4204 5.00606 13.9477 5.00606C14.5897 5.00606 15.2317 4.97544 15.866 5.05187C17.3257 5.22 18.4721 6.51155 18.5332 7.97891C18.5485 8.27696 18.5332 8.57507 18.5332 8.88841Z" fill="#0671B8"/>
<path d="M11.5633 11.9227C11.9224 11.9533 12.2587 11.9991 12.595 11.9991C13.9095 12.0067 15.2317 12.0067 16.5462 11.9991C16.9742 11.9991 17.3944 11.9609 17.8377 11.9303C17.9294 13.1455 17.5397 14.2155 16.4621 14.9415C15.3769 15.6752 14.2228 15.6981 13.0841 15.0409C11.9989 14.4218 11.4333 13.2066 11.5633 11.915V11.9227Z" fill="#0671B8"/>
<path d="M14.6814 11.3033C13.9324 11.3033 13.1835 11.288 12.4346 11.3033C11.8843 11.3186 11.4792 11.0817 11.1888 10.6384C11.0742 10.4626 10.9825 10.2715 10.8984 10.0804C10.7914 9.82823 10.8526 9.63721 11.1124 9.55314C11.7315 9.35444 12.3505 9.12519 12.9924 9.00291C14.7502 8.67428 16.4851 8.83479 18.1511 9.49969C18.5562 9.66018 18.625 9.81297 18.4339 10.2027C18.3269 10.4167 18.2046 10.6231 18.0594 10.8142C17.8072 11.1428 17.4633 11.3033 17.0353 11.3033C16.2482 11.2957 15.4609 11.3033 14.6814 11.3033Z" fill="#0671B8"/>
<path d="M13.3287 23.0422C13.0153 22.8587 12.9236 22.6294 12.9389 22.3084C12.9618 21.6817 12.9465 21.0551 12.9465 20.4131H16.4392C16.4392 20.5965 16.4392 20.7876 16.4392 20.971C16.4392 21.4142 16.4163 21.8576 16.4392 22.3009C16.4621 22.6218 16.3628 22.8511 16.0724 23.0269C15.9501 22.9122 15.8202 22.7747 15.6903 22.6524C15.4686 22.4384 15.3081 22.4384 15.0865 22.6524C14.9566 22.7823 14.8343 22.9122 14.689 23.0575C14.5438 22.9046 14.4215 22.7747 14.2916 22.6524C14.07 22.4384 13.9019 22.4384 13.6879 22.6524C13.558 22.7823 13.4357 22.9122 13.321 23.0422H13.3287Z" fill="#0671B8"/>
<path d="M14.0929 17.5547C13.749 17.761 13.428 17.9521 13.0918 18.1584C12.7708 17.5088 12.4498 16.8745 12.1288 16.2249C12.3428 16.1714 12.4956 16.2096 12.6561 16.3472C13.1223 16.7522 13.5961 17.142 14.1005 17.5547H14.0929Z" fill="#0671B8"/>
<path d="M16.3016 18.1586C15.9653 17.9522 15.6444 17.7688 15.3005 17.5548C15.4228 17.4478 15.5297 17.3561 15.6367 17.272C15.9959 16.974 16.3551 16.6836 16.7067 16.3703C16.8672 16.2251 17.0276 16.1639 17.2646 16.2174C16.9512 16.8517 16.6302 17.486 16.3016 18.1509V18.1586Z" fill="#0671B8"/>
<path d="M16.08 15.9883C15.6215 16.3704 15.1705 16.7525 14.6967 17.1423C14.2305 16.7525 13.772 16.3704 13.3058 15.9883C14.2382 16.2863 15.1553 16.2863 16.08 15.9883Z" fill="#0671B8"/>
<path d="M19.1064 10.501C19.4045 11.0512 19.1599 11.8843 18.5332 12.3428C18.6096 11.8996 18.388 11.4639 18.7472 11.0818C18.9001 10.9213 18.9841 10.7073 19.1064 10.501Z" fill="#0671B8"/>
<path d="M10.8525 12.3044C10.2716 11.9987 9.95828 10.9365 10.2793 10.5161C10.4627 10.7836 10.6615 11.0434 10.8296 11.3262C10.8755 11.4026 10.8525 11.5249 10.8525 11.6242C10.8525 11.8459 10.8525 12.0675 10.8525 12.3044Z" fill="#0671B8"/>
<path d="M20.1967 25.0001C22.4058 25.0001 24.1967 23.2092 24.1967 21C24.1967 18.7908 22.4058 17 20.1967 17C17.9875 17 16.1967 18.7908 16.1967 21C16.1967 23.2092 17.9875 25.0001 20.1967 25.0001Z" fill="#FFB422" stroke="white" stroke-width="0.614208" stroke-miterlimit="10"/>
<path d="M20.3195 22.328C20.3195 22.2512 20.3195 22.1822 20.3195 22.1131C20.3195 22.0824 20.3271 22.0746 20.3578 22.067C20.4039 22.0516 20.45 22.0363 20.4961 22.0133C20.8339 21.8367 20.9337 21.4451 20.7187 21.1534C20.5882 20.9691 20.3962 20.8847 20.1736 20.877C20.0738 20.877 19.9816 20.854 19.9049 20.7849C19.7974 20.6927 19.7744 20.5468 19.8665 20.4393C19.9663 20.3165 20.1045 20.2857 20.2504 20.3241C20.3886 20.3548 20.4807 20.4394 20.5037 20.5929H20.8262C20.8262 20.5929 20.8262 20.5314 20.8186 20.5084C20.7725 20.255 20.6112 20.1015 20.3732 20.0247C20.3271 20.0093 20.3118 19.9863 20.3195 19.9479C20.3195 19.8865 20.3195 19.8251 20.3195 19.7637H19.9893C19.9893 19.8251 19.9893 19.8865 19.9893 19.9402C19.9893 19.994 19.974 20.0247 19.9202 20.0324C19.8895 20.0324 19.8588 20.0554 19.8358 20.0631C19.4903 20.2243 19.3751 20.6389 19.5901 20.9384C19.7206 21.1226 19.9126 21.2071 20.1275 21.2147C20.2197 21.2147 20.3118 21.2378 20.3809 21.2915C20.5267 21.399 20.5267 21.591 20.3809 21.6984C20.1659 21.8673 19.8818 21.7675 19.7897 21.4988H19.4673C19.4673 21.5449 19.475 21.5833 19.4827 21.614C19.5441 21.852 19.7053 21.9979 19.9356 22.067C19.974 22.0746 19.9816 22.09 19.9816 22.1284C19.9816 22.1975 19.9816 22.2589 19.9816 22.3356H20.3118L20.3195 22.328Z" fill="white"/>
<path d="M23.1065 22.5051C23.0528 22.5896 22.999 22.6203 22.9376 22.5819C22.8992 22.5588 22.8684 22.5205 22.8531 22.4821C22.7686 22.2824 22.6919 22.0751 22.6074 21.8755C22.6074 21.8601 22.5921 21.8448 22.5844 21.8218C22.546 21.9063 22.5153 21.9907 22.4846 22.0674C22.2005 22.674 21.7475 23.1117 21.1333 23.3727C20.7801 23.5262 20.404 23.5877 20.0124 23.5723C19.475 23.5493 18.9913 23.3803 18.5536 23.0579C18.1851 22.7892 17.9088 22.436 17.7322 22.0214C17.6784 21.9063 17.64 21.7758 17.6093 21.6529C17.5863 21.5838 17.6323 21.53 17.6937 21.507C17.7552 21.4916 17.8166 21.5223 17.8397 21.5838C17.8397 21.5991 17.8474 21.6145 17.855 21.6299C17.9165 21.7834 17.9625 21.9369 18.0393 22.0828C18.3003 22.5819 18.6995 22.935 19.2139 23.15C19.5671 23.2959 19.928 23.3573 20.3042 23.3266C21.1026 23.2498 21.7245 22.8736 22.1468 22.1826C22.2312 22.0521 22.285 21.8985 22.3541 21.7603L22.3387 21.745C22.3387 21.745 22.3003 21.7603 22.2849 21.768C22.093 21.8601 21.8934 21.9447 21.7014 22.0291C21.6707 22.0445 21.6247 22.0521 21.594 22.0444C21.5633 22.029 21.5249 21.9906 21.5172 21.9523C21.5172 21.9216 21.5403 21.8756 21.5556 21.8449C21.5633 21.8295 21.594 21.8218 21.617 21.8064C21.9087 21.6759 22.2005 21.5377 22.4999 21.4072C22.6151 21.3534 22.6689 21.3765 22.7226 21.4993C22.8531 21.8218 22.976 22.1366 23.1065 22.459V22.5128V22.5051Z" fill="white" stroke="white" stroke-width="0.0921312" stroke-miterlimit="10"/>
<path d="M20.3041 18.4277C20.4039 18.4354 20.5037 18.4508 20.5959 18.4585C20.9797 18.5122 21.3252 18.6504 21.6477 18.8577C22.0546 19.1264 22.3617 19.4719 22.5613 19.9096C22.6227 20.0477 22.6688 20.1936 22.7149 20.3318C22.7379 20.4085 22.7072 20.47 22.6381 20.4931C22.5767 20.5161 22.5152 20.4777 22.4845 20.4009C22.4231 20.2397 22.3693 20.0708 22.2849 19.9172C22.0622 19.4796 21.7168 19.1571 21.2869 18.9345C20.8876 18.7272 20.4653 18.6427 20.02 18.6811C19.498 18.7194 19.0296 18.9114 18.638 19.2646C18.3309 19.5333 18.116 19.8635 17.9778 20.2627C18.0008 20.255 18.0162 20.2473 18.0239 20.2473C18.2235 20.1552 18.4231 20.0708 18.6151 19.9786C18.7072 19.9402 18.7917 19.9786 18.807 20.0631C18.8147 20.1168 18.784 20.1706 18.7149 20.2013C18.4999 20.3011 18.2772 20.4009 18.0622 20.5007C17.9778 20.5391 17.8933 20.5774 17.8089 20.6158C17.7091 20.6619 17.6476 20.6312 17.6093 20.5391C17.4864 20.2243 17.3559 19.9095 17.2331 19.5947C17.2024 19.518 17.233 19.4489 17.2944 19.4182C17.3559 19.3875 17.425 19.4182 17.4557 19.5026C17.5402 19.7099 17.6246 19.9172 17.7091 20.1321C17.7091 20.1475 17.7244 20.1706 17.7321 20.1859C17.8012 20.0401 17.8627 19.8941 17.9394 19.7559C18.2926 19.1341 18.8146 18.7272 19.5056 18.5429C19.6822 18.4969 19.8665 18.4815 20.0508 18.4508C20.0661 18.4508 20.0891 18.4508 20.1045 18.4431C20.1659 18.4431 20.2273 18.4431 20.2887 18.4431L20.3041 18.4277Z" fill="white" stroke="white" stroke-width="0.0921312" stroke-miterlimit="10"/>
</svg>
