<svg width="32" height="32" viewBox="0 0 32 32" fill="none" xmlns="http://www.w3.org/2000/svg">
<path d="M7.88562 27.0001V25.4572H8.16615C12.8804 25.4572 17.5947 25.4572 22.309 25.4572C22.3714 25.4572 22.4337 25.4572 22.496 25.4572C22.7688 25.4572 22.7999 25.4182 22.8077 25.1533C22.8077 25.1065 22.8077 25.052 22.8077 25.0053V17.9689C22.8077 17.891 22.8077 17.813 22.8077 17.7663C23.322 17.5949 23.8129 17.4312 24.3116 17.2676C24.3116 17.2987 24.3194 17.3455 24.3194 17.4001C24.3194 20.6027 24.3194 23.7975 24.3194 27.0001H7.88562Z" fill="#0671B8"/>
<path d="M22.4026 8.52467C19.8234 8.30649 17.4546 10.4805 17.4935 13.2078C17.5325 15.826 19.7688 17.9377 22.4026 17.7662V25.0597H6V6.1247C6 6.05457 6.05452 6 6.12465 6H22.4026V8.52467ZM10.239 18.3741C10.1455 18.3741 10.0675 18.3741 9.98961 18.3741C9.15585 18.3741 8.32206 18.3741 7.48829 18.3741C7.23894 18.3741 7.19999 18.413 7.19999 18.6468C7.19999 20.3688 7.19999 22.0909 7.19999 23.813C7.19999 23.9689 7.32466 24.1013 7.48829 24.1013C11.4779 24.1013 15.4675 24.1013 19.4572 24.1013C19.6208 24.1013 19.7533 23.9688 19.7533 23.8052C19.7533 22.0987 19.7533 20.3845 19.7533 18.678C19.7533 18.5143 19.6208 18.3741 19.4494 18.3741C18.6156 18.3741 17.774 18.3741 16.9403 18.3741C16.8701 18.3741 16.7922 18.3741 16.7065 18.3741C16.7065 18.2572 16.7065 18.1715 16.7065 18.0935C16.7065 16.5195 16.7065 14.9454 16.7065 13.3636C16.7065 13.1844 16.5584 13.0364 16.3792 13.0364C14.439 13.0364 12.5065 13.0364 10.5662 13.0364C10.2701 13.0364 10.2312 13.0675 10.2312 13.3792C10.2312 14.9532 10.2312 16.5273 10.2312 18.1091V18.3819L10.239 18.3741ZM10.5351 9.5377C11.3532 9.5377 12.1714 9.5377 12.9896 9.5377C13.0675 9.5377 13.1532 9.55327 13.2156 9.5221C13.2779 9.49093 13.3481 9.40523 13.3481 9.34289C13.3481 9.28056 13.2779 9.21035 13.2156 9.16359C13.1766 9.13242 13.1065 9.14809 13.052 9.14809C11.3766 9.14809 9.70909 9.14809 8.03376 9.14809C7.97921 9.14809 7.90909 9.13251 7.87013 9.15589C7.80779 9.20264 7.72987 9.28056 7.72987 9.35069C7.72987 9.40524 7.80779 9.48314 7.87013 9.5221C7.92467 9.55327 8.01037 9.5377 8.07271 9.5377C8.89089 9.5377 9.7091 9.5377 10.5273 9.5377H10.5351ZM10.5351 7.91686C11.361 7.91686 12.187 7.91686 13.013 7.91686C13.0675 7.91686 13.1377 7.94023 13.1766 7.91686C13.2468 7.8701 13.3481 7.79998 13.3481 7.72985C13.3481 7.66751 13.2468 7.59739 13.1844 7.54284C13.1611 7.51947 13.1065 7.54284 13.0598 7.54284C11.3766 7.54284 9.7013 7.54284 8.01818 7.54284C7.97143 7.54284 7.90907 7.52727 7.8779 7.55064C7.81557 7.5974 7.72986 7.66751 7.73765 7.72205C7.73765 7.79218 7.81557 7.8701 7.8779 7.91686C7.91687 7.94803 8.0026 7.92466 8.06493 7.92466C8.89091 7.92466 9.71688 7.92466 10.5429 7.92466L10.5351 7.91686ZM10.5507 11.1584C11.4078 11.1584 12.2571 11.1584 13.1143 11.1584C13.2467 11.1584 13.3558 11.1351 13.3636 10.9714C13.3636 10.8156 13.2701 10.7688 13.1299 10.7688C11.4078 10.7688 9.68571 10.7688 7.96363 10.7688C7.93246 10.7688 7.87791 10.7611 7.86233 10.7766C7.80778 10.8312 7.72987 10.9013 7.72987 10.9636C7.72987 11.026 7.79999 11.1039 7.86233 11.1428C7.90908 11.174 7.987 11.1506 8.04933 11.1506C8.8831 11.1506 9.71689 11.1506 10.5507 11.1506V11.1584Z" fill="#0671B8"/>
<path d="M22.1143 8.91428C24.4909 8.92986 26.3611 10.8312 26.3377 13.1922C26.3143 15.5221 24.3974 17.3922 22.052 17.3688C19.7299 17.3454 17.8598 15.4286 17.8753 13.0987C17.8987 10.7766 19.8 8.8909 22.1065 8.91428H22.1143ZM21.9974 16.6442C23.8754 16.7455 25.5039 15.2338 25.6052 13.2779C25.7065 11.4 24.2026 9.76359 22.2779 9.6545C20.3688 9.54541 18.7325 11.0416 18.6156 13.0052C18.4987 14.9065 20.0182 16.5273 21.9974 16.6442Z" fill="#0671B8"/>
<path d="M24.3117 9.03916C23.8208 8.87552 23.3377 8.71187 22.8234 8.54045V7.94043H24.3117V9.03916Z" fill="#0671B8"/>
<path d="M14.2909 13.4341H16.3169V18.3587H10.6364V13.4341H12.6701C12.6701 13.5198 12.6701 13.6055 12.6701 13.6834C12.6701 14.8366 12.6701 15.9976 12.6701 17.1509C12.6701 17.3223 12.8104 17.4626 12.9818 17.4626C13.3169 17.4626 13.6597 17.4626 13.9948 17.4626C14.1584 17.4626 14.2909 17.3301 14.2909 17.1665C14.2909 16.0055 14.2909 14.8444 14.2909 13.6834C14.2909 13.6055 14.2909 13.5276 14.2909 13.4341Z" fill="#0671B8"/>
<path d="M11.252 18.7715H13.278V23.7039H7.60522V18.7715H9.62341C9.62341 18.8494 9.62341 18.9351 9.62341 19.013C9.62341 20.1585 9.62341 21.3117 9.62341 22.4572C9.62341 22.652 9.77925 22.8 9.96627 22.8078C10.278 22.8078 10.5896 22.8078 10.9091 22.8078C11.0961 22.8078 11.252 22.652 11.252 22.465C11.252 21.3195 11.252 20.1663 11.252 19.0208C11.252 18.9429 11.252 18.865 11.252 18.7715Z" fill="#0671B8"/>
<path d="M19.3481 23.7117H13.6909V18.7715H15.7091V18.9974C15.7091 20.1584 15.7091 21.3195 15.7091 22.4806C15.7091 22.6598 15.8494 22.8 16.0286 22.8C16.3559 22.8 16.6831 22.8 17.0182 22.8C17.1974 22.8 17.3455 22.652 17.3455 22.4728C17.3455 21.3195 17.3455 20.1584 17.3455 19.0052C17.3455 18.9273 17.3455 18.8572 17.3455 18.7637H19.3559V23.6961L19.3481 23.7117Z" fill="#0671B8"/>
<path d="M10.0208 18.7715H10.8467V22.4182H10.0208V18.7715Z" fill="#0671B8"/>
<path d="M16.1066 18.7793H16.9403V22.4182H16.1066V18.7793Z" fill="#0671B8"/>
<path d="M13.8935 13.4341V17.073H13.0675V13.4341H13.8935Z" fill="#0671B8"/>
<path d="M25.1844 12.6229C25.535 14.7424 23.7428 16.5424 21.6233 16.2229C20.3142 16.0203 19.2467 14.9528 19.0441 13.6437C18.7246 11.5476 20.4857 9.77096 22.5818 10.0671C23.8909 10.2541 24.9662 11.3138 25.1766 12.6151L25.1844 12.6229ZM20.7116 14.5554C20.4701 14.1424 20.2207 14.6879 20.0025 14.2983C19.9402 14.1892 20.0804 12.9658 19.9558 13.0359C19.8311 13.1061 19.9324 12.2644 20.0025 12.3813C20.2675 12.8411 20.9142 14.0099 21.1792 14.4697C21.2805 14.6411 21.3896 14.6489 21.5376 14.5242C21.5844 14.4852 21.6311 14.4385 21.6701 14.3918C22.4337 13.6281 22.8077 12.4359 23.5714 11.6723C23.6025 11.6411 23.8129 11.5087 23.8441 11.4775C23.9532 11.3762 24.2259 11.8048 24.0935 11.6801C23.9688 11.5632 24.4129 12.9502 24.3116 13.0437C23.587 13.7684 23.135 14.532 22.4103 15.2645C22.3558 15.3191 20.7895 14.4931 20.7116 14.5632V14.5554Z" fill="#FFB422"/>
<path d="M21.6079 13.5663C21.4598 13.4104 21.3429 13.2625 21.2105 13.1378C21.0312 12.9741 20.8286 12.9741 20.6728 13.1222C20.517 13.2702 20.5092 13.4884 20.6728 13.6598C20.891 13.8936 21.1248 14.1195 21.3585 14.3455C21.5222 14.5014 21.7169 14.5014 21.8806 14.3455C22.4416 13.7923 23.0027 13.2312 23.5559 12.6702C23.7118 12.5143 23.6884 12.2884 23.5403 12.1481C23.3923 12.0001 23.1897 12.0001 23.0183 12.1481C22.9248 12.2261 22.8468 12.3195 22.7611 12.4053C22.3871 12.7793 22.0208 13.1611 21.6157 13.5741L21.6079 13.5663Z" fill="white"/>
</svg>
