<svg width="32" height="32" viewBox="0 0 32 32" fill="none" xmlns="http://www.w3.org/2000/svg">
<path d="M20.5033 5.01514C20.5033 5.3363 20.5033 5.64288 20.5033 5.94944C20.5033 6.53337 20.5033 7.11 20.5033 7.69393C20.5033 8.39464 20.8829 8.76688 21.5763 8.77418C22.4595 8.77418 23.3427 8.77418 24.2551 8.77418C24.2551 8.86907 24.2697 8.94934 24.2697 9.02963C24.2697 14.5258 24.2697 20.022 24.2697 25.5255C24.2697 25.9051 24.1748 26 23.8025 26C18.6859 26 13.5765 26 8.45986 26C8.09491 26 8.00002 25.9051 8.00002 25.5401C8.00002 18.8542 8.00002 12.1609 8.00002 5.47498C8.00002 5.12463 8.10226 5.02244 8.42342 5.02244C12.3868 5.02244 16.3429 5.02244 20.3063 5.02244C20.3573 5.02244 20.4158 5.02245 20.5033 5.02975V5.01514ZM9.89045 9.69387C9.89045 11.2778 11.1751 12.5624 12.7517 12.5624C14.3356 12.5624 15.6203 11.2851 15.6276 9.70118C15.6276 8.10268 14.3502 6.82529 12.7517 6.82529C11.1678 6.82529 9.89045 8.10997 9.89045 9.69387ZM16.1458 13.8835C15.4305 13.8835 14.7152 13.8835 13.9926 13.8835C12.978 13.8835 11.9634 13.8835 10.9489 13.8835C10.7299 13.8835 10.5839 14.0222 10.5912 14.212C10.5912 14.3944 10.7372 14.5113 10.9489 14.5259C10.9927 14.5259 11.0437 14.5259 11.0875 14.5259C14.4524 14.5259 17.8173 14.5259 21.1749 14.5259C21.2479 14.5259 21.3281 14.5332 21.4011 14.5186C21.569 14.4821 21.6712 14.3725 21.6639 14.1973C21.6639 14.0222 21.5545 13.92 21.3793 13.8908C21.3063 13.8835 21.226 13.8908 21.153 13.8908C19.4815 13.8908 17.81 13.8908 16.1385 13.8908L16.1458 13.8835ZM16.1312 16.7666C17.81 16.7666 19.4888 16.7666 21.1676 16.7666C21.2406 16.7666 21.3208 16.7739 21.3938 16.7666C21.569 16.7301 21.6785 16.6207 21.6712 16.4309C21.6639 16.2557 21.5545 16.1535 21.3793 16.1389C21.3209 16.1389 21.2552 16.1389 21.1968 16.1389C17.8246 16.1389 14.4524 16.1389 11.0802 16.1389C11.0145 16.1389 10.9416 16.1389 10.8759 16.1389C10.7007 16.1681 10.6058 16.2776 10.5985 16.4528C10.5985 16.6207 10.6934 16.7228 10.8467 16.7666C10.9197 16.7885 11 16.7812 11.073 16.7812C12.7591 16.7812 14.4451 16.7812 16.1312 16.7812V16.7666ZM16.1312 18.3725C14.4524 18.3725 12.7736 18.3725 11.0948 18.3725C11.0218 18.3725 10.9416 18.3725 10.8686 18.3725C10.6934 18.4017 10.5985 18.5111 10.5912 18.6863C10.5912 18.8542 10.6861 18.9564 10.8394 19.0002C10.9124 19.0148 10.9927 19.0148 11.0657 19.0148C14.4379 19.0148 17.81 19.0148 21.1822 19.0148C21.2479 19.0148 21.3208 19.0221 21.3865 19.0148C21.5617 18.9783 21.6712 18.8688 21.6639 18.679C21.6493 18.5038 21.5472 18.4016 21.372 18.387C21.299 18.3797 21.2187 18.387 21.1457 18.387C19.4742 18.387 17.8027 18.387 16.1312 18.387V18.3725ZM16.1531 20.6206C14.4743 20.6206 12.7955 20.6206 11.1167 20.6206C11.0437 20.6206 10.9635 20.6206 10.8905 20.6206C10.7007 20.6425 10.5985 20.752 10.5985 20.9345C10.5985 21.1096 10.708 21.2191 10.8759 21.2483C10.9416 21.2629 11.0145 21.2483 11.0802 21.2483C14.4524 21.2483 17.8246 21.2483 21.1968 21.2483C21.2698 21.2483 21.35 21.2556 21.423 21.2337C21.5909 21.1899 21.6858 21.0804 21.6712 20.8979C21.6566 20.7301 21.5617 20.6352 21.3938 20.606C21.3208 20.5914 21.2406 20.606 21.1676 20.606C19.4961 20.606 17.8246 20.606 16.1531 20.606V20.6206ZM19.5399 9.39458C18.9633 9.39458 18.3793 9.39458 17.8027 9.39458C17.5327 9.39458 17.4012 9.51133 17.4012 9.72301C17.4012 9.92738 17.5399 10.0369 17.7954 10.0369C18.9487 10.0369 20.1019 10.0369 21.2552 10.0369C21.5179 10.0369 21.6712 9.92016 21.6712 9.71579C21.6712 9.51142 21.5325 9.39458 21.2625 9.39458C20.6931 9.39458 20.1165 9.39458 19.5472 9.39458H19.5399ZM19.5326 11.6427C18.9633 11.6427 18.3867 11.6427 17.8173 11.6427C17.54 11.6427 17.4085 11.7449 17.4012 11.9566C17.4012 12.1682 17.5327 12.2777 17.81 12.2777C18.9633 12.2777 20.1165 12.2777 21.2625 12.2777C21.5179 12.2777 21.6712 12.1536 21.6639 11.9493C21.6639 11.7522 21.5179 11.6427 21.2625 11.6427C20.6858 11.6427 20.1019 11.6427 19.5253 11.6427H19.5326ZM19.5617 22.8687C18.9778 22.8687 18.3866 22.8687 17.8027 22.8687C17.54 22.8687 17.4085 22.9709 17.4085 23.1752C17.4085 23.3869 17.54 23.5037 17.81 23.511C18.9633 23.511 20.1165 23.511 21.2625 23.511C21.5252 23.511 21.6712 23.3942 21.6712 23.1899C21.6712 22.9855 21.5325 22.876 21.2552 22.8687C20.6931 22.8687 20.1238 22.8687 19.5617 22.8687Z" fill="#0671B8"/>
<path d="M24.2405 8.12453C23.9558 8.12453 23.6784 8.12453 23.3937 8.12453C22.766 8.12453 22.1456 8.12453 21.5179 8.12453C21.2625 8.12453 21.1457 8.02235 21.1457 7.76688C21.1457 6.88369 21.1457 5.9932 21.1457 5.11001C21.1457 5.08081 21.1603 5.05162 21.1676 5.02242C21.4449 4.95673 21.6493 5.03706 21.8463 5.24143C22.5763 5.99324 23.3135 6.73038 24.0653 7.46029C24.2624 7.65007 24.3062 7.85446 24.2478 8.11722L24.2405 8.12453Z" fill="#0671B8"/>
<path d="M12.7882 12.2195C14.179 12.2195 15.3064 11.0921 15.3064 9.70134C15.3064 8.31059 14.179 7.18311 12.7882 7.18311C11.3975 7.18311 10.27 8.31059 10.27 9.70134C10.27 11.0921 11.3975 12.2195 12.7882 12.2195Z" fill="#FFB422" stroke="white" stroke-width="0.116785" stroke-miterlimit="10"/>
<path d="M12.759 12.2195C14.1498 12.2195 15.2772 11.0921 15.2772 9.70134C15.2772 8.31059 14.1498 7.18311 12.759 7.18311C11.3683 7.18311 10.2409 8.31059 10.2409 9.70134C10.2409 11.0921 11.3683 12.2195 12.759 12.2195Z" fill="#FFB422"/>
<path d="M12.7882 11.4018H12.7371C12.7371 11.4018 12.686 11.3653 12.6641 11.3434C12.27 10.9493 11.8758 10.5551 11.4817 10.1683C11.4744 10.161 11.4598 10.1464 11.4525 10.1318C11.4233 10.088 11.4233 10.0295 11.4671 10.0003C11.489 9.98574 11.5182 9.9712 11.5473 9.9712C11.7152 9.9712 11.8832 9.9712 12.0583 9.9712C12.1167 9.9712 12.1459 9.94201 12.1459 9.88361C12.1459 9.87632 12.1459 9.86169 12.1459 9.85439C12.1459 9.32156 12.1459 8.78876 12.1459 8.24863C12.1459 8.16104 12.1824 8.12451 12.2699 8.12451C12.5984 8.12451 12.9342 8.12451 13.2627 8.12451C13.3503 8.12451 13.3867 8.16104 13.3867 8.24863C13.3867 8.78876 13.3867 9.32156 13.3867 9.8617C13.3867 9.94199 13.4086 9.96389 13.4889 9.96389C13.6495 9.96389 13.8174 9.96389 13.978 9.96389C14.051 9.96389 14.102 10.015 14.0874 10.0807C14.0874 10.1099 14.0656 10.1391 14.0437 10.1537C13.6495 10.5478 13.2554 10.942 12.8612 11.3361C12.8393 11.358 12.8101 11.3799 12.7809 11.4018H12.7882Z" fill="white"/>
</svg>
