<svg width="32" height="32" viewBox="0 0 32 32" fill="none" xmlns="http://www.w3.org/2000/svg">
<path d="M11.8097 13.1469C12.8086 13.1469 13.8002 13.1469 14.7991 13.1469C16.4566 13.1469 18.1215 13.1469 19.779 13.1469C20.0972 13.1469 20.26 13.0285 20.26 12.7917C20.26 12.5623 20.0898 12.4365 19.7717 12.4365C19.7569 12.4365 19.742 12.4365 19.7272 12.4365C17.0856 12.4365 14.4439 12.4365 11.8097 12.4365V13.1394V13.1469Z" fill="#FFB422"/>
<path d="M14.8435 11.0384C15.4355 11.0384 16.0348 11.0384 16.6342 11.0384C17.2336 11.0384 17.8403 11.0384 18.4397 11.0384C18.6617 11.0384 18.8023 10.9051 18.8097 10.7128C18.8171 10.513 18.6839 10.365 18.4545 10.3428C18.3953 10.3428 18.3361 10.3428 18.2769 10.3428C17.9144 10.3428 17.5592 10.3428 17.1966 10.3428C16.4714 10.3428 15.7389 10.3428 15.0137 10.3428C14.9545 10.3428 14.8953 10.3428 14.8361 10.3428C14.5993 10.3576 14.444 10.5056 14.4514 10.7128C14.4588 10.9125 14.6067 11.0458 14.8435 11.0458V11.0384Z" fill="#FFB422"/>
<path d="M16.4863 15.0339C16.6786 15.0117 16.8192 14.8488 16.8044 14.6712C16.7896 14.4788 16.6786 14.3604 16.4863 14.3382C16.4197 14.3309 16.353 14.3382 16.2864 14.3382C15.2135 14.3382 14.1406 14.3382 13.0676 14.3382C12.6459 14.3382 12.2315 14.3382 11.8097 14.3382V15.0412C13.3118 15.0412 14.8065 15.0412 16.3086 15.0412C16.3678 15.0412 16.4271 15.0412 16.4863 15.0412V15.0339Z" fill="#FFB422"/>
<path d="M20.0158 17.0321C20.186 16.9803 20.2674 16.8545 20.26 16.6843C20.2452 16.4993 20.1416 16.3883 19.9567 16.3661C19.8827 16.3587 19.8086 16.3661 19.7346 16.3661C18.0919 16.3661 16.4566 16.3661 14.8139 16.3661C13.815 16.3661 12.816 16.3661 11.8097 16.3661V17.0691C14.4587 17.0691 17.1078 17.0691 19.7569 17.0691C19.8456 17.0691 19.9344 17.0691 20.0158 17.0395V17.0321Z" fill="#FFB422"/>
<path d="M22.4725 5H13.3784C12.5571 5 11.8911 5.62892 11.8245 6.43547C14.7548 6.43547 17.685 6.43547 20.6152 6.43547C21.6733 6.43547 22.4133 7.13852 22.4133 8.18926C22.4207 11.3267 22.4133 14.4715 22.4133 17.6163C22.4133 17.6607 22.4133 17.7051 22.3985 17.7569C20.3118 17.5497 18.6395 18.2378 17.611 20.0729C17.5148 20.2505 17.426 20.4207 17.352 20.5983H22.4799C23.3457 20.5983 24.0412 19.8953 24.0412 19.037V6.57611C24.0412 5.71036 23.3383 5.01481 22.4799 5.01481L22.4725 5Z" fill="#FFB422"/>
<path d="M15.5318 20.28C15.4578 20.2578 15.369 20.2578 15.295 20.2578C14.3404 20.2578 13.3785 20.2578 12.424 20.2578C12.6903 20.4576 13.0159 20.5834 13.3711 20.5834H15.7834C15.776 20.4354 15.6871 20.3244 15.5318 20.28Z" fill="#FFB422"/>
<path d="M17.574 18.5859C17.574 18.4009 17.4704 18.2825 17.2854 18.2529C17.204 18.2381 17.1226 18.2455 17.0412 18.2455C15.8499 18.2455 14.6585 18.2455 13.4672 18.2455C12.9122 18.2455 12.3647 18.2455 11.8097 18.2455V18.9484C13.556 18.9484 15.3097 18.9484 17.056 18.9484C17.1374 18.9484 17.2188 18.9484 17.3002 18.9336C17.4852 18.8966 17.5814 18.7708 17.574 18.5859Z" fill="#FFB422"/>
<path d="M10.0264 22.6333L10.3742 22.2412V22.6333H10.0264Z" fill="white"/>
<path d="M14.7992 13.147C13.1639 13.147 11.5212 13.147 9.88594 13.147C9.81934 13.147 9.75273 13.147 9.68614 13.147C9.49375 13.1248 9.37535 13.0212 9.36055 12.8214C9.34576 12.629 9.47155 12.481 9.66394 12.4514C9.73794 12.4366 9.81194 12.4514 9.88594 12.4514C13.1714 12.4514 16.4567 12.4514 19.7422 12.4514C19.757 12.4514 19.7718 12.4514 19.7866 12.4514C20.1047 12.4514 20.2676 12.5773 20.275 12.8067C20.275 13.0434 20.1121 13.1618 19.794 13.1618C18.1365 13.1618 16.4716 13.1618 14.8141 13.1618L14.7992 13.147Z" fill="white"/>
<path d="M14.8141 16.3508C16.4568 16.3508 18.092 16.3508 19.7347 16.3508C19.8087 16.3508 19.8828 16.3508 19.9568 16.3508C20.1418 16.373 20.2453 16.4914 20.2601 16.669C20.2749 16.8392 20.1861 16.965 20.0159 17.0168C19.9345 17.039 19.8458 17.0464 19.757 17.0464C16.4568 17.0464 13.1491 17.0464 9.84892 17.0464C9.76013 17.0464 9.67133 17.0464 9.58993 17.0168C9.41974 16.965 9.34575 16.8318 9.36055 16.6616C9.37535 16.484 9.47895 16.3804 9.64914 16.3508C9.72314 16.336 9.79713 16.3508 9.87112 16.3508C11.5212 16.3508 13.164 16.3508 14.8141 16.3508Z" fill="white"/>
<path d="M13.0678 14.3308C14.1407 14.3308 15.2136 14.3308 16.2866 14.3308C16.3532 14.3308 16.4198 14.3308 16.4864 14.3308C16.6788 14.3604 16.7898 14.4788 16.8046 14.6638C16.8194 14.8414 16.6788 15.0042 16.4864 15.0264C16.4272 15.0338 16.3679 15.0264 16.3088 15.0264C14.1481 15.0264 11.9874 15.0264 9.82674 15.0264C9.76014 15.0264 9.69355 15.0264 9.62696 15.019C9.44197 14.9746 9.33837 14.8488 9.34577 14.6564C9.35317 14.4714 9.46416 14.3604 9.64915 14.3308C9.72315 14.316 9.79714 14.3308 9.87113 14.3308C10.9367 14.3308 12.0022 14.3308 13.0678 14.3308Z" fill="white"/>
<path d="M14.8215 20.9685C13.2898 20.9685 11.758 20.9685 10.2263 20.9685C10.1005 20.9685 9.97473 20.9685 9.85633 20.9685C9.56035 20.9389 9.39015 20.8353 9.36055 20.6577C9.33096 20.4802 9.46416 20.3544 9.74535 20.3026C9.88594 20.273 10.0413 20.2729 10.1893 20.2729C13.2675 20.2729 16.3458 20.2729 19.424 20.2729C19.5572 20.2729 19.6978 20.273 19.8309 20.2952C20.1343 20.347 20.2897 20.4802 20.2601 20.6577C20.2305 20.8353 20.0455 20.9537 19.7273 20.9685C19.6164 20.9685 19.5054 20.9685 19.3944 20.9685C17.8775 20.9685 16.3531 20.9685 14.8362 20.9685H14.8215Z" fill="white"/>
<path d="M11.5952 22.8553C10.9885 22.8553 10.3743 22.8553 9.76755 22.8553C9.50116 22.8553 9.35316 22.7295 9.34576 22.5149C9.34576 22.2929 9.49375 22.1523 9.75273 22.1523C10.9811 22.1523 12.2094 22.1523 13.4303 22.1523C13.6819 22.1523 13.8447 22.3003 13.8447 22.5149C13.8447 22.7295 13.6819 22.8553 13.4229 22.8627C12.8162 22.8627 12.202 22.8627 11.5952 22.8627V22.8553Z" fill="white"/>
<path d="M14.1925 11.038C12.8606 11.038 11.5213 11.038 10.1893 11.038C9.66396 11.038 9.33839 10.8973 9.31619 10.7049C9.29399 10.5052 9.64177 10.3498 10.1745 10.335C10.3077 10.335 10.4409 10.335 10.5667 10.335C12.1946 10.335 13.8299 10.335 15.4579 10.335C16.2644 10.335 17.0709 10.335 17.8775 10.335C18.0107 10.335 18.1439 10.335 18.2697 10.335C18.7729 10.3572 19.0836 10.5052 19.0614 10.7049C19.0392 10.8973 18.7285 11.0306 18.2327 11.0306C16.8786 11.0306 15.5318 11.0306 14.1777 11.0306L14.1925 11.038Z" fill="white"/>
<path d="M21.7844 18.3783C19.6977 18.1712 18.0255 18.8593 16.9969 20.6944C15.961 22.5295 16.2274 24.3054 17.5001 25.9851C17.4409 25.9851 17.3891 25.9999 17.3373 25.9999C14.481 25.9999 11.6322 25.9999 8.77598 25.9999C7.74004 25.9999 7.00006 25.2748 7.00006 24.2388C7.00006 19.1035 7.00006 13.9683 7.00006 8.83296C7.00006 7.78222 7.74003 7.06445 8.79077 7.06445C12.5276 7.06445 16.2644 7.06445 20.0011 7.06445C21.0593 7.06445 21.7992 7.76741 21.7992 8.81815C21.8066 11.9556 21.7992 15.1004 21.7992 18.2452C21.7992 18.2896 21.7992 18.334 21.7844 18.3857V18.3783ZM12.8531 11.5485C12.8383 11.5042 9.94509 14.1237 8.99055 11.8816C8.74636 11.3118 10.3151 12.4513 9.70092 12.4513C9.18295 12.4513 8.97576 12.2589 8.46519 12.2663C7.88062 12.2737 8.73897 8.95873 8.72417 9.5507C8.70198 10.0983 8.70938 10.6532 8.72417 11.2082C8.73897 11.7854 9.19034 12.222 9.76011 12.2367C10.3077 12.2441 10.8626 12.2441 11.4176 12.2367C11.9652 12.222 12.4017 11.7854 12.4313 11.2378C12.4387 11.0528 12.4461 10.8678 12.4313 10.6829C12.4239 10.5275 12.4684 10.4238 12.609 10.3424C12.8161 10.2166 13.0159 10.0761 13.2157 9.9429C13.4377 9.78751 13.4895 9.60246 13.3711 9.41747C13.2527 9.23248 13.9113 9.89842 13.6819 10.0464C13.5635 10.1204 12.9863 11.4746 12.8605 11.556L12.8531 11.5485ZM14.1924 13.7758C15.85 13.7758 17.5148 13.7758 19.1723 13.7758C19.4905 13.7758 19.6533 13.6574 19.6533 13.4207C19.6533 13.1913 19.4832 13.0655 19.165 13.0655C19.1502 13.0655 19.1354 13.0655 19.1206 13.0655C15.8352 13.0655 12.5497 13.0655 9.26433 13.0655C9.19033 13.0655 9.11635 13.0655 9.04235 13.0655C8.84996 13.0951 8.72417 13.2505 8.73897 13.4355C8.75376 13.6353 8.87216 13.7388 9.06455 13.761C9.13115 13.7684 9.19773 13.761 9.26433 13.761C10.8996 13.761 12.5423 13.761 14.1776 13.761L14.1924 13.7758ZM14.2073 16.9872C12.5572 16.9872 10.9144 16.9872 9.26433 16.9872C9.19033 16.9872 9.11635 16.9872 9.04235 16.9872C8.86476 17.0168 8.76858 17.1204 8.75378 17.298C8.73898 17.4756 8.81297 17.6014 8.98316 17.6532C9.06456 17.6828 9.15334 17.6828 9.24213 17.6828C12.5423 17.6828 15.85 17.6828 19.1502 17.6828C19.239 17.6828 19.3277 17.6828 19.4091 17.6532C19.5793 17.6014 19.6607 17.4756 19.6533 17.3054C19.6385 17.1205 19.535 17.0094 19.35 16.9872C19.276 16.9798 19.202 16.9872 19.128 16.9872C17.4852 16.9872 15.85 16.9872 14.2073 16.9872ZM12.8679 18.8741C11.6766 18.8741 10.4853 18.8741 9.29393 18.8741C9.21994 18.8741 9.14595 18.8741 9.07196 18.8741C8.86477 18.8963 8.74637 19.0295 8.73897 19.2145C8.73897 19.4069 8.85736 19.5401 9.06455 19.5623C9.13115 19.5697 9.19773 19.5623 9.26433 19.5623C11.6618 19.5623 14.0518 19.5623 16.4493 19.5623C16.5307 19.5623 16.6121 19.5623 16.6935 19.5475C16.8785 19.5105 16.9747 19.3847 16.9673 19.1997C16.9673 19.0147 16.8637 18.8963 16.6787 18.8667C16.5973 18.8519 16.5159 18.8593 16.4345 18.8593C15.2432 18.8593 14.0519 18.8593 12.8605 18.8593L12.8679 18.8741ZM12.4684 14.9597C11.4028 14.9597 10.3373 14.9597 9.27174 14.9597C9.19774 14.9597 9.12375 14.9597 9.04976 14.9597C8.87217 14.9893 8.76117 15.1004 8.74637 15.2854C8.73897 15.4852 8.84257 15.6035 9.02756 15.6479C9.08676 15.6627 9.16074 15.6553 9.22734 15.6553C11.388 15.6553 13.5487 15.6553 15.7094 15.6553C15.7685 15.6553 15.8278 15.6553 15.887 15.6553C16.0794 15.6332 16.22 15.4704 16.2052 15.2928C16.1904 15.1004 16.0794 14.9819 15.887 14.9597C15.8204 14.9523 15.7538 14.9597 15.6872 14.9597C14.6142 14.9597 13.5413 14.9597 12.4684 14.9597ZM11.9874 21.5898C12.8827 21.5898 13.7855 21.5898 14.6808 21.5898C14.7474 21.5898 14.814 21.5898 14.8806 21.5898C15.073 21.575 15.1766 21.4566 15.1914 21.279C15.2062 21.1014 15.1174 20.9682 14.9398 20.9164C14.8658 20.8942 14.777 20.8942 14.703 20.8942C12.8827 20.8942 11.0698 20.8942 9.24954 20.8942C9.16074 20.8942 9.07194 20.8942 8.99055 20.9238C8.82036 20.9756 8.74636 21.1088 8.76116 21.279C8.77596 21.4566 8.87957 21.5602 9.04976 21.5898C9.12375 21.6046 9.19774 21.5898 9.27174 21.5898C10.1745 21.5898 11.0846 21.5898 11.9874 21.5898ZM16.9525 9.77263C17.8182 9.77263 18.684 9.77263 19.5571 9.77263C19.6533 9.77263 19.7495 9.7727 19.8383 9.7505C20.0085 9.69871 20.0825 9.57284 20.0751 9.39525C20.0677 9.23246 19.9789 9.12152 19.8162 9.08452C19.7348 9.06972 19.6534 9.06971 19.572 9.06971C17.8405 9.06971 16.1015 9.06971 14.37 9.06971C14.296 9.06971 14.222 9.06972 14.1481 9.08452C13.9705 9.11412 13.8743 9.23246 13.8669 9.40265C13.8595 9.58764 13.9483 9.71351 14.1332 9.75791C14.2146 9.78011 14.3109 9.78004 14.3997 9.78004C15.2506 9.78004 16.1089 9.78004 16.9599 9.78004L16.9525 9.77263ZM11.0032 23.4841C11.61 23.4841 12.2242 23.4841 12.8309 23.4841C13.0899 23.4841 13.2527 23.3509 13.2527 23.1363C13.2527 22.9291 13.0899 22.7737 12.8383 22.7737C11.61 22.7737 10.3817 22.7737 9.16075 22.7737C8.90176 22.7737 8.74638 22.9143 8.75378 23.1363C8.75378 23.3583 8.90175 23.4767 9.17554 23.4767C9.7823 23.4767 10.3965 23.4767 11.0032 23.4767V23.4841ZM16.0349 11.6596C16.6343 11.6596 17.2411 11.6596 17.8404 11.6596C18.0624 11.6596 18.203 11.5264 18.2104 11.334C18.2178 11.1342 18.0846 10.9862 17.8552 10.964C17.7961 10.964 17.7369 10.964 17.6777 10.964C17.3151 10.964 16.9599 10.964 16.5973 10.964C15.8722 10.964 15.1396 10.964 14.4144 10.964C14.3552 10.964 14.296 10.964 14.2368 10.964C14.0001 10.9788 13.8447 11.1268 13.8521 11.334C13.8595 11.5338 14.0075 11.667 14.2443 11.667C14.8362 11.667 15.4356 11.667 16.0349 11.667V11.6596Z" fill="#0671B8"/>
<path d="M18.8838 12.5474H14.1629C12.5527 12.5474 11.2474 13.8527 11.2474 15.4628V23.0844C11.2474 24.6945 12.5527 25.9998 14.1629 25.9998H18.8838C20.494 25.9998 21.7992 24.6945 21.7992 23.0844V15.4628C21.7992 13.8527 20.494 12.5474 18.8838 12.5474Z" fill="#0671B8"/>
<path d="M9.41235 23.2623L9.76013 22.8701V23.2623H9.41235Z" fill="white"/>
<path d="M14.1851 13.7758C12.5498 13.7758 10.9071 13.7758 9.27178 13.7758C9.20519 13.7758 9.1386 13.7758 9.072 13.7758C8.87961 13.7536 8.76122 13.6501 8.74642 13.4503C8.73162 13.2579 8.85741 13.1099 9.0498 13.0803C9.1238 13.0655 9.19779 13.0803 9.27178 13.0803C12.5572 13.0803 15.8426 13.0803 19.128 13.0803C19.1428 13.0803 19.1576 13.0803 19.1724 13.0803C19.4906 13.0803 19.6534 13.2061 19.6608 13.4355C19.6608 13.6723 19.498 13.7906 19.1798 13.7906C17.5223 13.7906 15.8574 13.7906 14.1999 13.7906L14.1851 13.7758Z" fill="white"/>
<path d="M14.2 16.9797C15.8427 16.9797 17.478 16.9797 19.1207 16.9797C19.1947 16.9797 19.2687 16.9797 19.3427 16.9797C19.5277 17.0019 19.6312 17.1204 19.646 17.2979C19.6608 17.4681 19.5721 17.5939 19.4019 17.6457C19.3205 17.6679 19.2317 17.6753 19.1429 17.6753C15.8427 17.6753 12.5351 17.6753 9.23485 17.6753C9.14605 17.6753 9.05725 17.6753 8.97586 17.6457C8.80567 17.5939 8.73168 17.4607 8.74647 17.2905C8.76127 17.1129 8.86486 17.0093 9.03505 16.9797C9.10904 16.9649 9.18305 16.9797 9.25705 16.9797C10.9072 16.9797 12.5499 16.9797 14.2 16.9797Z" fill="white"/>
<path d="M14.1998 18.874C15.776 18.874 17.3595 18.874 18.9356 18.874C19.0392 18.874 19.1502 18.874 19.2538 18.8814C19.498 18.911 19.6311 19.0294 19.6385 19.2144C19.6385 19.3994 19.5127 19.5178 19.2759 19.5622C19.1723 19.577 19.0614 19.5769 18.9578 19.5769C15.7833 19.5769 12.6015 19.5769 9.42711 19.5769C9.33831 19.5769 9.24954 19.5769 9.16814 19.5769C8.89436 19.5473 8.73895 19.4142 8.73895 19.2292C8.73895 19.0368 8.90914 18.9036 9.17552 18.8888C9.27172 18.8814 9.36792 18.8888 9.46412 18.8888C11.0402 18.8888 12.6237 18.8888 14.1998 18.8888V18.874Z" fill="white"/>
<path d="M12.4536 14.9597C13.5265 14.9597 14.5994 14.9597 15.6724 14.9597C15.739 14.9597 15.8056 14.9597 15.8722 14.9597C16.0646 14.9893 16.1756 15.1077 16.1904 15.2927C16.2052 15.4703 16.0646 15.6331 15.8722 15.6553C15.813 15.6627 15.7538 15.6553 15.6946 15.6553C13.5339 15.6553 11.3732 15.6553 9.21256 15.6553C9.14597 15.6553 9.07936 15.6553 9.01276 15.6479C8.82777 15.6035 8.72417 15.4777 8.73157 15.2853C8.73897 15.1003 8.84997 14.9893 9.03496 14.9597C9.10895 14.9449 9.18296 14.9597 9.25696 14.9597C10.3225 14.9597 11.388 14.9597 12.4536 14.9597Z" fill="white"/>
<path d="M14.2147 21.5975C12.683 21.5975 11.1513 21.5975 9.61954 21.5975C9.49375 21.5975 9.36796 21.5975 9.24956 21.5975C8.95358 21.5679 8.7834 21.4642 8.7538 21.2866C8.72421 21.1091 8.85739 20.9833 9.13857 20.9315C9.27917 20.9019 9.43456 20.9019 9.58255 20.9019C12.6608 20.9019 15.739 20.9019 18.8172 20.9019C18.9504 20.9019 19.091 20.9019 19.2242 20.9241C19.5276 20.9759 19.683 21.1091 19.6534 21.2866C19.6238 21.4642 19.4388 21.5827 19.1206 21.5975C19.0096 21.5975 18.8986 21.5975 18.7876 21.5975C17.2707 21.5975 15.7464 21.5975 14.2295 21.5975H14.2147Z" fill="white"/>
<path d="M14.4737 9.78015C12.8827 9.78015 11.2992 9.78015 9.70833 9.78015C9.54554 9.78015 9.37534 9.78022 9.21995 9.75802C8.87957 9.71363 8.71678 9.58776 8.73158 9.40277C8.74638 9.23258 8.92398 9.11424 9.25696 9.08464C9.39016 9.06984 9.53074 9.06982 9.66393 9.06982C12.8975 9.06982 16.1237 9.06982 19.3574 9.06982C19.5053 9.06982 19.6608 9.06984 19.8088 9.08464C20.1121 9.12164 20.2749 9.23257 20.2971 9.39536C20.3193 9.57295 20.1713 9.69882 19.8532 9.75062C19.683 9.78022 19.498 9.77275 19.3278 9.77275C17.7147 9.77275 16.0942 9.77275 14.4811 9.77275L14.4737 9.78015Z" fill="white"/>
<path d="M10.981 23.4842C10.3743 23.4842 9.76011 23.4842 9.15335 23.4842C8.88696 23.4842 8.73897 23.3584 8.73157 23.1438C8.73157 22.9218 8.87957 22.7812 9.13856 22.7812C10.3669 22.7812 11.5952 22.7812 12.8161 22.7812C13.0677 22.7812 13.2305 22.9292 13.2305 23.1438C13.2305 23.3584 13.0677 23.4842 12.8087 23.4916C12.202 23.4916 11.5878 23.4916 10.981 23.4916V23.4842Z" fill="white"/>
<path d="M13.5858 11.6668C12.2538 11.6668 10.9145 11.6668 9.58261 11.6668C9.05724 11.6668 8.73164 11.5262 8.70944 11.3338C8.68724 11.1341 9.03502 10.9787 9.56779 10.9639C9.70099 10.9639 9.83418 10.9639 9.95997 10.9639C11.5879 10.9639 13.2232 10.9639 14.8511 10.9639C15.6577 10.9639 16.4642 10.9639 17.2708 10.9639C17.404 10.9639 17.5371 10.9639 17.6629 10.9639C18.1661 10.9861 18.4769 11.1341 18.4547 11.3338C18.4325 11.5262 18.1217 11.6594 17.6259 11.6594C16.2718 11.6594 14.9251 11.6594 13.571 11.6594L13.5858 11.6668Z" fill="white"/>
</svg>
