<svg width="32" height="32" viewBox="0 0 32 32" fill="none" xmlns="http://www.w3.org/2000/svg">
<path d="M24.4069 17.5491C22.0921 17.3162 20.2433 18.0804 19.0932 20.1112C17.9431 22.1421 18.2416 24.122 19.6537 25.9781C19.5882 25.9781 19.53 26 19.4717 26C16.3054 26 13.139 26 9.97263 26C8.82254 26 8.00728 25.192 8 24.0492C8 18.3497 8 12.6576 8 6.9581C8 5.79346 8.81523 5 9.98715 5C14.1289 5 18.278 5 22.4197 5C23.5989 5 24.4141 5.77889 24.4141 6.94353C24.4214 10.4302 24.4141 13.9168 24.4141 17.3962C24.4141 17.4471 24.4069 17.4909 24.3996 17.5491H24.4069ZM14.4929 9.96433C14.4783 9.91338 11.2683 12.8177 10.2056 10.3356C9.93624 9.70957 11.6759 10.9688 10.9989 10.9688C10.4312 10.9688 10.1982 10.7577 9.6232 10.765C8.97537 10.7723 9.92893 7.09637 9.9071 7.75149C9.88526 8.36292 9.88526 8.97437 9.9071 9.58581C9.92893 10.2264 10.4239 10.7141 11.0572 10.7214C11.6686 10.7287 12.2801 10.7359 12.8915 10.7214C13.503 10.7068 13.9833 10.2264 14.0125 9.61495C14.0197 9.41114 14.027 9.20726 14.0125 9.00345C13.9979 8.82876 14.0489 8.71965 14.209 8.62502C14.4419 8.48672 14.6603 8.33378 14.8787 8.18092C15.1189 8.0135 15.1844 7.80247 15.0534 7.59865C14.9223 7.39484 15.6575 8.12999 15.3955 8.29741C15.2645 8.37748 14.6166 9.88427 14.4856 9.97162L14.4929 9.96433ZM15.9778 12.4392C17.8194 12.4392 19.661 12.4392 21.5025 12.4392C21.8592 12.4392 22.0412 12.3082 22.0339 12.0461C22.0339 11.7914 21.8447 11.653 21.4953 11.653C21.4807 11.653 21.4662 11.653 21.4443 11.653C17.7976 11.653 14.158 11.653 10.5113 11.653C10.4312 11.653 10.3438 11.653 10.2638 11.653C10.0527 11.6894 9.9144 11.8569 9.92895 12.068C9.94351 12.2863 10.0745 12.4028 10.2929 12.4319C10.3657 12.4392 10.4385 12.4319 10.5113 12.4319C12.331 12.4319 14.1508 12.4319 15.9632 12.4319L15.9778 12.4392ZM15.9923 15.9987C14.1653 15.9987 12.3383 15.9987 10.5113 15.9987C10.4312 15.9987 10.3438 15.9986 10.2638 16.0059C10.0672 16.035 9.95804 16.1515 9.94348 16.348C9.92892 16.5446 10.009 16.6828 10.1983 16.7483C10.2856 16.7774 10.3875 16.7848 10.4894 16.7848C14.1507 16.7848 17.8194 16.7848 21.4807 16.7848C21.5754 16.7848 21.6772 16.7847 21.7719 16.7556C21.9611 16.6974 22.0557 16.5591 22.0412 16.3698C22.0266 16.166 21.9102 16.0423 21.6991 16.0131C21.619 16.0059 21.5389 16.0131 21.4516 16.0131C19.6318 16.0131 17.8121 16.0131 15.9923 16.0131V15.9987ZM14.5001 18.095C13.1826 18.095 11.8579 18.095 10.5404 18.095C10.4603 18.095 10.3803 18.095 10.2929 18.095C10.0673 18.1168 9.92895 18.2624 9.92895 18.4734C9.92895 18.6845 10.06 18.8301 10.2856 18.8593C10.3584 18.8665 10.4312 18.8665 10.504 18.8665C13.1608 18.8665 15.8177 18.8665 18.4745 18.8665C18.5618 18.8665 18.6565 18.8665 18.7438 18.8447C18.9476 18.801 19.0568 18.6701 19.0495 18.459C19.0495 18.2551 18.9331 18.1241 18.7292 18.0877C18.6419 18.0732 18.5473 18.0732 18.4599 18.0732C17.1424 18.0732 15.8176 18.0732 14.5001 18.0732V18.095ZM14.0561 13.7567C12.8769 13.7567 11.6905 13.7567 10.5113 13.7567C10.4312 13.7567 10.3438 13.7494 10.2638 13.7567C10.0672 13.7931 9.94351 13.9095 9.92895 14.1206C9.9144 14.339 10.0309 14.4773 10.2419 14.5283C10.3147 14.5428 10.3875 14.5356 10.4603 14.5356C12.8551 14.5356 15.2572 14.5356 17.652 14.5356C17.7175 14.5356 17.783 14.5356 17.8485 14.5356C18.0596 14.5065 18.2197 14.3317 18.1979 14.1352C18.1761 13.9241 18.0596 13.7931 17.8412 13.764C17.7684 13.7567 17.6957 13.764 17.6229 13.764C16.4291 13.764 15.2426 13.764 14.0489 13.764L14.0561 13.7567ZM13.5175 21.1157C14.5147 21.1157 15.5119 21.1157 16.5019 21.1157C16.5747 21.1157 16.6474 21.1157 16.7202 21.1157C16.9313 21.0939 17.0478 20.9629 17.0697 20.7663C17.0915 20.5625 16.9896 20.417 16.7858 20.3588C16.6984 20.3369 16.6111 20.3296 16.5164 20.3296C14.5002 20.3296 12.4839 20.3296 10.4676 20.3296C10.373 20.3296 10.271 20.3297 10.1764 20.3661C9.98716 20.4243 9.90711 20.5698 9.92167 20.7663C9.93623 20.9629 10.0527 21.0793 10.2419 21.1084C10.322 21.123 10.4021 21.1084 10.4894 21.1157C11.4939 21.1157 12.4984 21.1157 13.5029 21.1157H13.5175ZM19.0277 8.00623C19.9885 8.00623 20.9493 8.00623 21.9175 8.00623C22.0194 8.00623 22.1358 8.00629 22.2304 7.97718C22.4197 7.92622 22.5071 7.78062 22.4925 7.58408C22.4852 7.40211 22.3833 7.27838 22.2013 7.2347C22.114 7.21287 22.0267 7.22013 21.932 7.22013C20.0104 7.22013 18.0814 7.22013 16.1598 7.22013C16.0797 7.22013 15.9924 7.22015 15.9196 7.2347C15.723 7.2711 15.6211 7.39484 15.6066 7.59137C15.5993 7.79518 15.6939 7.94079 15.8977 7.98446C15.9923 8.0063 16.0943 8.00623 16.1889 8.00623C17.1352 8.00623 18.0814 8.00623 19.0277 8.00623ZM12.4256 23.2194C13.1026 23.2194 13.7795 23.2194 14.4565 23.2194C14.7476 23.2194 14.9223 23.0738 14.9296 22.8336C14.9296 22.6006 14.7476 22.4333 14.471 22.4333C13.1099 22.4333 11.7487 22.4333 10.3875 22.4333C10.1037 22.4333 9.92896 22.5934 9.93624 22.8336C9.93624 23.0738 10.1036 23.2121 10.4021 23.2121C11.079 23.2121 11.756 23.2121 12.4329 23.2121L12.4256 23.2194ZM18.0086 10.1026C18.6783 10.1026 19.348 10.1026 20.0176 10.1026C20.2651 10.1026 20.418 9.94973 20.4253 9.73864C20.4398 9.51299 20.2797 9.35289 20.0322 9.32378C19.9667 9.32378 19.9012 9.32378 19.8357 9.32378C19.4353 9.32378 19.035 9.32378 18.6346 9.32378C17.8266 9.32378 17.0187 9.32378 16.2107 9.32378C16.1452 9.32378 16.0797 9.32378 16.0142 9.32378C15.7521 9.33833 15.5774 9.5057 15.592 9.73135C15.5993 9.94972 15.7667 10.1026 16.0215 10.1026C16.6839 10.1026 17.3462 10.1026 18.0013 10.1026H18.0086Z" fill="#0671B8"/>
<path d="M22.3906 11.0781H14.7476C13.626 11.0781 12.7167 11.9873 12.7167 13.1089V23.9692C12.7167 25.0908 13.626 26.0001 14.7476 26.0001H22.3906C23.5122 26.0001 24.4214 25.0908 24.4214 23.9692V13.1089C24.4214 11.9873 23.5122 11.0781 22.3906 11.0781Z" fill="#0671B8"/>
<path d="M10.6787 22.9646L11.0645 22.5278V22.9646H10.6787Z" fill="white"/>
<path d="M15.9706 12.4392C14.1508 12.4392 12.3311 12.4392 10.5186 12.4392C10.4458 12.4392 10.373 12.4392 10.3002 12.4392C10.0891 12.4173 9.95812 12.2936 9.93628 12.0752C9.92172 11.8641 10.0527 11.6967 10.2711 11.6603C10.3512 11.6457 10.4312 11.6603 10.5186 11.6603C14.1654 11.6603 17.8048 11.6603 21.4516 11.6603C21.4662 11.6603 21.4807 11.6603 21.5026 11.6603C21.852 11.6603 22.0412 11.7986 22.0412 12.0534C22.0412 12.3154 21.8593 12.4465 21.5099 12.4465C19.6683 12.4465 17.8267 12.4465 15.9851 12.4465L15.9706 12.4392Z" fill="white"/>
<path d="M15.9923 15.9988C17.8121 15.9988 19.6318 15.9988 21.4516 15.9988C21.5316 15.9988 21.619 15.9988 21.6991 15.9988C21.9029 16.0279 22.0266 16.1517 22.0412 16.3555C22.0557 16.5447 21.9611 16.6902 21.7718 16.7412C21.6772 16.7703 21.5826 16.7703 21.4807 16.7703C17.8194 16.7703 14.1507 16.7703 10.4894 16.7703C10.3948 16.7703 10.2929 16.7703 10.1982 16.7339C10.0163 16.6757 9.9289 16.5301 9.94346 16.3336C9.95801 16.1371 10.0745 16.0206 10.2637 15.9915C10.3438 15.977 10.4239 15.9842 10.5112 15.9842C12.3383 15.9842 14.1653 15.9842 15.9923 15.9842V15.9988Z" fill="white"/>
<path d="M15.9924 18.0952C17.7466 18.0952 19.4936 18.0952 21.2478 18.0952C21.3643 18.0952 21.488 18.0951 21.6045 18.1097C21.8738 18.1461 22.0267 18.2698 22.034 18.4809C22.034 18.6847 21.8957 18.8231 21.6263 18.8667C21.5099 18.8886 21.3934 18.8886 21.2696 18.8886C17.7466 18.8886 14.2163 18.8886 10.6933 18.8886C10.5986 18.8886 10.4967 18.8886 10.4021 18.8813C10.1036 18.8522 9.92169 18.7066 9.92169 18.4955C9.92169 18.2844 10.1037 18.1388 10.4094 18.117C10.5186 18.1097 10.6278 18.117 10.7369 18.117C12.4912 18.117 14.2381 18.117 15.9924 18.117V18.0952Z" fill="white"/>
<path d="M14.0561 13.7569C15.2499 13.7569 16.4363 13.7569 17.6301 13.7569C17.7029 13.7569 17.7757 13.7569 17.8485 13.7569C18.0669 13.786 18.1833 13.9171 18.2052 14.1282C18.2197 14.3247 18.0668 14.4994 17.8557 14.5285C17.7902 14.5358 17.7247 14.5285 17.6592 14.5285C15.2644 14.5285 12.8624 14.5285 10.4676 14.5285C10.3948 14.5285 10.3147 14.5358 10.2492 14.5213C10.0381 14.4703 9.92166 14.3392 9.93622 14.1136C9.9435 13.9025 10.0672 13.786 10.271 13.7496C10.3511 13.7351 10.4312 13.7496 10.5185 13.7496C11.6977 13.7496 12.8842 13.7496 14.0634 13.7496L14.0561 13.7569Z" fill="white"/>
<path d="M16.0069 21.1157C14.3036 21.1157 12.6076 21.1157 10.9043 21.1157C10.766 21.1157 10.6277 21.1157 10.4894 21.1084C10.1618 21.0793 9.97258 20.9628 9.94346 20.7663C9.91435 20.5698 10.0599 20.4315 10.3729 20.366C10.5258 20.3369 10.7005 20.3296 10.8606 20.3296C14.2745 20.3296 17.6883 20.3296 21.1095 20.3296C21.2623 20.3296 21.4152 20.3296 21.5608 20.3587C21.8956 20.417 22.0703 20.5625 22.0339 20.7663C21.9975 20.9628 21.801 21.0939 21.4443 21.1157C21.3206 21.1157 21.1968 21.1157 21.0731 21.1157C19.3844 21.1157 17.6956 21.1157 16.0142 21.1157H16.0069Z" fill="white"/>
<path d="M18.933 8.00632C17.9576 8.00632 16.9895 8.00632 16.0141 8.00632C15.9122 8.00632 15.8103 8.00638 15.7157 7.98455C15.5046 7.94087 15.4027 7.79526 15.4173 7.59145C15.4245 7.4022 15.5337 7.27118 15.7375 7.23479C15.8176 7.22023 15.905 7.22021 15.985 7.22021C17.9649 7.22021 19.9375 7.22021 21.9174 7.22021C22.012 7.22021 22.1067 7.22023 22.194 7.23479C22.3833 7.27118 22.4779 7.39491 22.4925 7.58417C22.507 7.7807 22.4124 7.91903 22.2231 7.97726C22.1212 8.00638 22.0047 8.00632 21.9028 8.00632C20.9129 8.00632 19.923 8.00632 18.9403 8.00632H18.933Z" fill="white"/>
<path d="M12.4256 23.2192C11.7487 23.2192 11.0717 23.2192 10.3948 23.2192C10.0963 23.2192 9.92896 23.0809 9.92896 22.8407C9.92896 22.6005 10.0964 22.4404 10.3802 22.4404C11.7414 22.4404 13.1026 22.4404 14.4638 22.4404C14.7476 22.4404 14.9296 22.6078 14.9223 22.8407C14.9223 23.0736 14.7403 23.2193 14.4492 23.2265C13.7722 23.2265 13.0953 23.2265 12.4184 23.2265L12.4256 23.2192Z" fill="white"/>
<path d="M17.8849 10.1025C17.2079 10.1025 16.531 10.1025 15.8467 10.1025C15.5774 10.1025 15.41 9.94968 15.4027 9.73131C15.3954 9.50566 15.5701 9.33829 15.8395 9.32373C15.905 9.32373 15.9705 9.32373 16.0432 9.32373C16.873 9.32373 17.7029 9.32373 18.5327 9.32373C18.9403 9.32373 19.3552 9.32373 19.7628 9.32373C19.8284 9.32373 19.8938 9.32373 19.9666 9.32373C20.2214 9.34557 20.3815 9.51295 20.367 9.73859C20.3524 9.94969 20.1996 10.1025 19.9448 10.1025C19.2606 10.1025 18.5691 10.1025 17.8849 10.1025Z" fill="white"/>
<path d="M11.6831 10.4959C12.7766 10.4959 13.663 9.60946 13.663 8.516C13.663 7.42254 12.7766 6.53613 11.6831 6.53613C10.5897 6.53613 9.70325 7.42254 9.70325 8.516C9.70325 9.60946 10.5897 10.4959 11.6831 10.4959Z" fill="#FFB422"/>
<path d="M11.7777 9.84822C11.7777 9.76815 11.7777 9.7027 11.7777 9.62991C11.7777 9.60079 11.7849 9.58618 11.8141 9.5789C11.865 9.56435 11.9087 9.54254 11.9524 9.5207C12.2945 9.33873 12.4037 8.93113 12.1853 8.63269C12.047 8.44343 11.8577 8.35607 11.6248 8.34879C11.5229 8.34879 11.4283 8.32695 11.3482 8.25416C11.2317 8.15954 11.2172 8.00668 11.3118 7.8975C11.4137 7.77376 11.552 7.74461 11.7049 7.77372C11.8505 7.80284 11.9451 7.89019 11.9669 8.05033H12.3018C12.3018 8.05033 12.3018 7.9921 12.2945 7.96299C12.2435 7.70094 12.0834 7.54076 11.8359 7.46069C11.785 7.44613 11.7777 7.4243 11.7777 7.38063C11.7777 7.31512 11.7777 7.24959 11.7777 7.18408H11.4356C11.4356 7.24959 11.4356 7.30783 11.4356 7.36606C11.4356 7.42429 11.421 7.45341 11.3628 7.46069C11.3336 7.46069 11.3045 7.48256 11.2754 7.49712C10.9187 7.66454 10.795 8.08671 11.0207 8.39971C11.159 8.58896 11.3482 8.67632 11.5811 8.6836C11.6757 8.6836 11.7704 8.70543 11.8432 8.76366C11.9961 8.88012 11.9961 9.06934 11.8432 9.18581C11.6248 9.3605 11.3264 9.25867 11.239 8.98206H10.9042C10.9042 9.02574 10.9115 9.06936 10.926 9.10575C10.9915 9.35324 11.1517 9.49883 11.3919 9.5789C11.4283 9.59346 11.4429 9.60071 11.4356 9.6371C11.4356 9.70261 11.4356 9.77543 11.4356 9.84822H11.7777Z" fill="white"/>
</svg>
