<svg width="32" height="32" viewBox="0 0 32 32" fill="none" xmlns="http://www.w3.org/2000/svg">
<path d="M23.3975 17.5468C21.0811 17.3114 19.2279 18.0785 18.0811 20.1139C16.9342 22.1494 17.2304 24.1241 18.6431 25.9773C18.5747 25.9773 18.5216 26 18.4608 26C15.2937 26 12.1266 26 8.96712 26C7.82028 26 7 25.195 7 24.0481C7 18.3519 7 12.6557 7 6.95947C7 5.79744 7.82029 5 8.98232 5C13.1292 5 17.2684 5 21.4153 5C22.5925 5 23.4052 5.77464 23.4128 6.94426C23.4203 10.4304 23.4128 13.9165 23.4128 17.4025C23.4128 17.4481 23.4051 17.5012 23.3975 17.5544V17.5468ZM13.4861 9.96704C13.4709 9.92147 10.2583 12.8227 9.20256 10.3316C8.93673 9.7012 10.676 10.9696 9.99242 10.962C9.4228 10.962 9.18735 10.7494 8.61773 10.7569C7.96456 10.7645 8.92153 7.0886 8.90634 7.74177C8.88356 8.34937 8.88356 8.9645 8.90634 9.57969C8.92913 10.2177 9.42281 10.7113 10.0532 10.7189C10.6684 10.7265 11.276 10.7341 11.8912 10.7189C12.5064 10.7037 12.9849 10.2177 13.0152 9.6101C13.0228 9.40504 13.0304 9.20002 13.0152 8.99496C13.0076 8.82027 13.0532 8.70635 13.2127 8.61521C13.4482 8.4785 13.6608 8.31894 13.8886 8.16704C14.1317 7.99995 14.1925 7.78728 14.0634 7.58982C13.9342 7.38475 14.6633 8.1215 14.4051 8.28859C14.276 8.37213 13.6304 9.8759 13.4937 9.96704H13.4861ZM14.9672 12.443C16.8127 12.443 18.6507 12.443 20.4963 12.443C20.8532 12.443 21.0279 12.3139 21.0279 12.0481C21.0279 11.7898 20.838 11.6608 20.4887 11.6532C20.4735 11.6532 20.4583 11.6532 20.4431 11.6532C16.7975 11.6532 13.152 11.6532 9.50638 11.6532C9.42283 11.6532 9.33928 11.6532 9.26333 11.6532C9.05067 11.6836 8.91396 11.8582 8.92915 12.0633C8.94434 12.2835 9.07344 12.3974 9.29369 12.4278C9.36964 12.4354 9.43798 12.4278 9.51393 12.4278C11.3291 12.4278 13.152 12.4278 14.9672 12.4278V12.443ZM14.9823 16.0051C13.1519 16.0051 11.3292 16.0051 9.49877 16.0051C9.41523 16.0051 9.33168 16.0051 9.25573 16.0127C9.06585 16.0431 8.95194 16.1646 8.92915 16.3544C8.91396 16.5519 8.99747 16.6886 9.17975 16.7494C9.27089 16.7798 9.36963 16.7873 9.46836 16.7873C13.1291 16.7873 16.7975 16.7873 20.4583 16.7873C20.557 16.7873 20.6558 16.7874 20.7469 16.757C20.9292 16.7038 21.0279 16.5595 21.0127 16.3696C20.9975 16.1646 20.8836 16.0431 20.6709 16.0127C20.5874 16.0051 20.5115 16.0127 20.4279 16.0127C18.6051 16.0127 16.7899 16.0127 14.9672 16.0127L14.9823 16.0051ZM13.4937 18.1013C12.1722 18.1013 10.8507 18.1013 9.52914 18.1013C9.44559 18.1013 9.36204 18.1013 9.28609 18.1013C9.05824 18.1241 8.92155 18.2684 8.92155 18.4811C8.92155 18.6937 9.05064 18.838 9.27849 18.8684C9.35444 18.876 9.42282 18.8759 9.49877 18.8759C12.157 18.8759 14.8152 18.8759 17.4735 18.8759C17.5646 18.8759 17.6557 18.876 17.7393 18.8608C17.9444 18.8152 18.0507 18.6861 18.0431 18.4811C18.0431 18.276 17.9216 18.1469 17.7241 18.1089C17.6329 18.0937 17.5418 18.0937 17.4583 18.0937C16.1368 18.0937 14.8153 18.0937 13.4937 18.0937V18.1013ZM13.0456 13.7645C11.8608 13.7645 10.6836 13.7645 9.49877 13.7645C9.41523 13.7645 9.33168 13.7645 9.25573 13.7645C9.05826 13.8025 8.93674 13.9164 8.92155 14.1291C8.91395 14.3493 9.02786 14.4861 9.23292 14.5316C9.30128 14.5468 9.37725 14.5392 9.4532 14.5392C11.8532 14.5392 14.2456 14.5392 16.6456 14.5392C16.714 14.5392 16.7747 14.5392 16.8431 14.5392C17.0557 14.5088 17.2153 14.3341 17.1925 14.1367C17.1697 13.924 17.0557 13.7949 16.8355 13.7645C16.7595 13.7569 16.6912 13.7645 16.6152 13.7645C15.4228 13.7645 14.238 13.7645 13.0456 13.7645ZM12.5063 21.1241C13.5013 21.1241 14.4963 21.1241 15.4912 21.1241C15.5672 21.1241 15.6355 21.1241 15.7114 21.1241C15.9241 21.1013 16.038 20.9721 16.0608 20.7747C16.0836 20.5772 15.9772 20.4254 15.7798 20.3722C15.6962 20.3494 15.6051 20.3494 15.514 20.3494C13.5013 20.3494 11.481 20.3494 9.46836 20.3494C9.36963 20.3494 9.27089 20.3494 9.17975 20.3874C8.99747 20.4482 8.90637 20.5924 8.92915 20.7823C8.94434 20.9797 9.05826 21.0937 9.25573 21.1241C9.33927 21.1393 9.41523 21.1241 9.49877 21.1241C10.5013 21.1241 11.5038 21.1241 12.5063 21.1241ZM18.0127 8.01518C18.9773 8.01518 19.9343 8.01518 20.8988 8.01518C21.0051 8.01518 21.1115 8.01515 21.2102 7.98477C21.4001 7.9316 21.4836 7.78729 21.476 7.59742C21.4684 7.41514 21.3697 7.29365 21.1874 7.24808C21.1039 7.23289 21.0127 7.23287 20.9216 7.23287C19.0001 7.23287 17.071 7.23287 15.1494 7.23287C15.0659 7.23287 14.9823 7.23289 14.9064 7.24808C14.7089 7.28605 14.6026 7.40755 14.595 7.60502C14.5874 7.81008 14.6861 7.9544 14.8836 7.99997C14.9747 8.02276 15.081 8.02278 15.1722 8.02278C16.1216 8.02278 17.0633 8.02278 18.0127 8.02278V8.01518ZM11.4127 23.2279C12.0886 23.2279 12.7646 23.2279 13.4406 23.2279C13.7292 23.2279 13.9038 23.0836 13.9114 22.8482C13.9114 22.6203 13.7291 22.4456 13.4557 22.4456C12.0962 22.4456 10.7367 22.4456 9.36962 22.4456C9.08102 22.4456 8.91395 22.6051 8.91395 22.8482C8.91395 23.0912 9.08102 23.2279 9.37723 23.2279C10.0532 23.2279 10.7292 23.2279 11.4051 23.2279H11.4127ZM16.995 10.1114C17.6634 10.1114 18.3317 10.1114 19.0001 10.1114C19.2431 10.1114 19.395 9.95951 19.4102 9.74685C19.4178 9.519 19.2659 9.35948 19.0152 9.33669C18.9469 9.33669 18.8861 9.33669 18.8178 9.33669C18.4152 9.33669 18.0203 9.33669 17.6178 9.33669C16.8127 9.33669 16.0001 9.33669 15.195 9.33669C15.1266 9.33669 15.0659 9.33669 14.9975 9.33669C14.7317 9.35188 14.5646 9.519 14.5722 9.74685C14.5798 9.96711 14.7469 10.119 15.0051 10.119C15.6659 10.119 16.3266 10.119 16.9874 10.119L16.995 10.1114Z" fill="#0671B8"/>
<path d="M21.2937 11.0757H13.8279C12.6576 11.0757 11.7089 12.0243 11.7089 13.1946V23.8808C11.7089 25.0511 12.6576 25.9997 13.8279 25.9997H21.2937C22.464 25.9997 23.4127 25.0511 23.4127 23.8808V13.1946C23.4127 12.0243 22.464 11.0757 21.2937 11.0757Z" fill="#0671B8"/>
<path d="M9.67346 22.962L10.0608 22.5215V22.962H9.67346Z" fill="white"/>
<path d="M14.9671 12.4353C13.1519 12.4353 11.3291 12.4353 9.51391 12.4353C9.43796 12.4353 9.36962 12.4353 9.29367 12.4353C9.08101 12.4125 8.95191 12.291 8.92913 12.0707C8.91394 11.8581 9.05065 11.6909 9.26331 11.6606C9.34685 11.6454 9.42281 11.6606 9.50635 11.6606C13.1519 11.6606 16.7975 11.6606 20.4431 11.6606C20.4583 11.6606 20.4734 11.6606 20.4886 11.6606C20.838 11.6606 21.0279 11.7973 21.0279 12.0555C21.0279 12.3137 20.8456 12.4505 20.4962 12.4505C18.6507 12.4505 16.8127 12.4505 14.9671 12.4505V12.4353Z" fill="white"/>
<path d="M14.9899 15.9973C16.8127 15.9973 18.6279 15.9973 20.4507 15.9973C20.5343 15.9973 20.6178 15.9973 20.6938 15.9973C20.8988 16.0201 21.0203 16.1492 21.0355 16.3542C21.0507 16.5441 20.952 16.6884 20.7697 16.7416C20.6785 16.772 20.5798 16.772 20.4811 16.772C16.8203 16.772 13.152 16.772 9.49119 16.772C9.39245 16.772 9.29371 16.772 9.20257 16.734C9.02029 16.6732 8.92914 16.5289 8.95193 16.339C8.96712 16.1416 9.08104 16.0277 9.2785 15.9973C9.36205 15.9821 9.438 15.9897 9.52155 15.9897C11.3519 15.9897 13.1748 15.9897 15.0051 15.9897L14.9899 15.9973Z" fill="white"/>
<path d="M14.9899 18.1011C16.7443 18.1011 18.4911 18.1011 20.2456 18.1011C20.3671 18.1011 20.4886 18.101 20.6026 18.1162C20.876 18.1542 21.0203 18.2758 21.0279 18.4884C21.0279 18.6935 20.8912 18.8302 20.6253 18.8682C20.5114 18.8834 20.3899 18.8833 20.2684 18.8833C16.7443 18.8833 13.2203 18.8833 9.68861 18.8833C9.58987 18.8833 9.49113 18.8833 9.4 18.8757C9.0962 18.8453 8.92151 18.7011 8.92151 18.4884C8.92151 18.2758 9.1038 18.1315 9.4076 18.1087C9.51393 18.1011 9.62025 18.1087 9.73418 18.1087C11.4886 18.1087 13.2354 18.1087 14.9899 18.1087V18.1011Z" fill="white"/>
<path d="M13.0532 13.7568C14.2456 13.7568 15.4304 13.7568 16.6228 13.7568C16.6988 13.7568 16.7671 13.7568 16.8431 13.7568C17.0557 13.7871 17.1773 13.9162 17.2001 14.1289C17.2152 14.3264 17.0557 14.5011 16.8507 14.5315C16.7899 14.539 16.7216 14.5315 16.6532 14.5315C14.2532 14.5315 11.8608 14.5315 9.46079 14.5315C9.38484 14.5315 9.30886 14.539 9.2405 14.5238C9.03544 14.4707 8.91394 14.3416 8.92913 14.1214C8.93673 13.9163 9.06584 13.7947 9.26331 13.7568C9.33926 13.7416 9.42281 13.7568 9.50636 13.7568C10.6912 13.7568 11.8684 13.7568 13.0532 13.7568Z" fill="white"/>
<path d="M15.0051 21.1165C13.3038 21.1165 11.6025 21.1165 9.90124 21.1165C9.76453 21.1165 9.62023 21.1165 9.48352 21.1165C9.15694 21.0861 8.96709 20.9721 8.93671 20.7747C8.90633 20.5772 9.05063 20.4406 9.36202 20.3798C9.51392 20.3494 9.68857 20.3418 9.84807 20.3418C13.2658 20.3418 16.676 20.3418 20.0937 20.3418C20.2456 20.3418 20.3975 20.3418 20.5418 20.3646C20.876 20.4178 21.0507 20.5697 21.0203 20.7672C20.9899 20.9646 20.7849 21.0937 20.4279 21.1165C20.3064 21.1165 20.1772 21.1165 20.0557 21.1165C18.3696 21.1165 16.6836 21.1165 14.9975 21.1165H15.0051Z" fill="white"/>
<path d="M17.9292 8.00768C16.957 8.00768 15.9849 8.00768 15.0127 8.00768C14.914 8.00768 14.8076 8.00766 14.7165 7.98487C14.5038 7.9393 14.4051 7.79498 14.4203 7.58992C14.4279 7.40005 14.5418 7.27095 14.7393 7.23298C14.8228 7.21779 14.9064 7.21777 14.9899 7.21777C16.9646 7.21777 18.9469 7.21777 20.9216 7.21777C21.0127 7.21777 21.1114 7.21779 21.195 7.23298C21.3773 7.27095 21.4836 7.39244 21.4912 7.58232C21.5064 7.77219 21.4153 7.9165 21.2178 7.96967C21.119 8.00005 21.0051 8.00008 20.8912 8.00008C19.9039 8.00008 18.9165 8.00008 17.9292 8.00008V8.00768Z" fill="white"/>
<path d="M11.4203 23.2203C10.7443 23.2203 10.0684 23.2203 9.39242 23.2203C9.09622 23.2203 8.92914 23.0836 8.92914 22.8405C8.92914 22.5975 9.09621 22.438 9.38482 22.438C10.7443 22.438 12.1038 22.438 13.4709 22.438C13.7519 22.438 13.9342 22.6051 13.9266 22.8405C13.9266 23.076 13.7443 23.2203 13.4557 23.2203C12.7798 23.2203 12.1038 23.2203 11.4279 23.2203H11.4203Z" fill="white"/>
<path d="M16.881 10.1041C16.2051 10.1041 15.5215 10.1041 14.8456 10.1041C14.5798 10.1041 14.4127 9.95219 14.3975 9.73194C14.3899 9.50409 14.5646 9.33697 14.838 9.32178C14.9063 9.32178 14.9747 9.32178 15.0355 9.32178C15.8633 9.32178 16.6912 9.32178 17.5266 9.32178C17.9368 9.32178 18.3469 9.32178 18.757 9.32178C18.8254 9.32178 18.8937 9.32178 18.9545 9.32178C19.2127 9.34456 19.3722 9.51168 19.357 9.73194C19.3494 9.94459 19.1899 10.0965 18.9393 10.0965C18.2557 10.0965 17.5646 10.0965 16.881 10.0965V10.1041Z" fill="white"/>
<path d="M10.6836 10.4909C11.7742 10.4909 12.6583 9.60686 12.6583 8.51627C12.6583 7.42568 11.7742 6.5415 10.6836 6.5415C9.59299 6.5415 8.70886 7.42568 8.70886 8.51627C8.70886 9.60686 9.59299 10.4909 10.6836 10.4909Z" fill="#FFB422"/>
<path d="M10.7747 9.84574C10.7747 9.76979 10.7747 9.7014 10.7747 9.62545C10.7747 9.59507 10.7823 9.57983 10.8127 9.57224C10.8582 9.55705 10.9114 9.5419 10.957 9.51911C11.2987 9.33683 11.4051 8.92667 11.1848 8.63047C11.0481 8.44059 10.8582 8.35705 10.6228 8.34946C10.5165 8.34946 10.4253 8.32668 10.3418 8.25832C10.2279 8.15959 10.2127 8.00771 10.3038 7.90138C10.4101 7.77986 10.5468 7.74946 10.6987 7.77984C10.843 7.81022 10.9418 7.89375 10.9646 8.05324H11.2988C11.2988 8.05324 11.2987 7.9925 11.2911 7.96971C11.238 7.71148 11.0785 7.55205 10.8355 7.46851C10.7899 7.45332 10.7747 7.43045 10.7747 7.38488C10.7747 7.31653 10.7747 7.25585 10.7747 7.1875H10.4329C10.4329 7.24826 10.4329 7.30901 10.4329 7.36977C10.4329 7.43053 10.4178 7.45332 10.3646 7.46851C10.3342 7.46851 10.3038 7.49124 10.2734 7.50643C9.91644 7.67352 9.79496 8.09888 10.0228 8.41028C10.1595 8.60015 10.3494 8.68369 10.5848 8.69129C10.6836 8.69129 10.7747 8.71406 10.8506 8.77482C11.0025 8.88875 11.0025 9.08617 10.8506 9.20009C10.6304 9.37478 10.3342 9.26852 10.243 8.99511H9.90886C9.90886 9.04067 9.91647 9.07858 9.92407 9.11656C9.98483 9.36719 10.1519 9.51149 10.3873 9.58744C10.4253 9.60263 10.4329 9.61029 10.4329 9.64826C10.4329 9.71662 10.4329 9.7849 10.4329 9.86085H10.7747V9.84574Z" fill="white"/>
<path d="M21 14C23.2092 14 25 12.2092 25 10C25 7.79085 23.2092 6 21 6C18.7908 6 17 7.79085 17 10C17 12.2092 18.7908 14 21 14Z" fill="#FFB422" stroke="white" stroke-width="0.8" stroke-miterlimit="10"/>
<path d="M21.9432 8.81818C21.9261 8.67424 21.857 8.5625 21.7358 8.48295C21.6146 8.40341 21.4659 8.36364 21.2898 8.36364C21.161 8.36364 21.0483 8.38447 20.9517 8.42614C20.8561 8.4678 20.7813 8.52509 20.7273 8.59801C20.6742 8.67093 20.6477 8.75379 20.6477 8.84659C20.6477 8.92424 20.6662 8.991 20.7031 9.04688C20.741 9.1018 20.7893 9.14773 20.848 9.18466C20.9067 9.22064 20.9683 9.25047 21.0327 9.27415C21.0971 9.29687 21.1562 9.31534 21.2102 9.32955L21.5057 9.40909C21.5814 9.42898 21.6657 9.45644 21.7585 9.49148C21.8523 9.52652 21.9418 9.57434 22.027 9.63494C22.1132 9.6946 22.1842 9.77131 22.2401 9.86506C22.2959 9.95881 22.3239 10.0739 22.3239 10.2102C22.3239 10.3674 22.2827 10.5095 22.2003 10.6364C22.1188 10.7633 21.9995 10.8641 21.8423 10.9389C21.6861 11.0137 21.4962 11.0511 21.2727 11.0511C21.0644 11.0511 20.884 11.0175 20.7315 10.9503C20.58 10.883 20.4607 10.7893 20.3736 10.669C20.2874 10.5488 20.2386 10.4091 20.2273 10.25H20.5909C20.6004 10.3598 20.6373 10.4508 20.7017 10.5227C20.767 10.5937 20.8494 10.6468 20.9489 10.6818C21.0492 10.7159 21.1572 10.733 21.2727 10.733C21.4072 10.733 21.5279 10.7112 21.6349 10.6676C21.742 10.6231 21.8267 10.5616 21.8892 10.483C21.9517 10.4034 21.983 10.3106 21.983 10.2045C21.983 10.108 21.956 10.0294 21.902 9.96875C21.848 9.90814 21.777 9.8589 21.6889 9.82102C21.6009 9.78314 21.5057 9.75 21.4034 9.72159L21.0455 9.61932C20.8182 9.55398 20.6383 9.4607 20.5057 9.33949C20.3731 9.21828 20.3068 9.05966 20.3068 8.86364C20.3068 8.70076 20.3509 8.55871 20.4389 8.4375C20.5279 8.31534 20.6473 8.22064 20.7969 8.15341C20.9474 8.08523 21.1155 8.05114 21.3011 8.05114C21.4886 8.05114 21.6553 8.08475 21.8011 8.15199C21.947 8.21828 22.0625 8.30919 22.1477 8.42472C22.2339 8.54025 22.2794 8.6714 22.2841 8.81818H21.9432Z" fill="white"/>
</svg>
