<svg width="32" height="32" viewBox="0 0 32 32" fill="none" xmlns="http://www.w3.org/2000/svg">
<path d="M23.4844 18.5021C21.1557 18.2654 19.2927 19.0365 18.1398 21.0828C16.9868 23.129 17.2847 25.1142 18.7048 26.9771C18.6361 26.9771 18.5826 27.0001 18.5215 27.0001C15.3376 27.0001 12.1537 27.0001 8.9775 27.0001C7.82458 27.0001 7 26.1908 7 25.0379C7 19.3115 7 13.585 7 7.85862C7 6.69043 7.82459 5.88867 8.99278 5.88867C13.1616 5.88867 17.3228 5.88867 21.4916 5.88867C22.6751 5.88867 23.4921 6.66751 23.4997 7.84333C23.5073 11.3479 23.4997 14.8525 23.4997 18.357C23.4997 18.4029 23.4921 18.4563 23.4844 18.5097V18.5021ZM13.5205 10.8821C13.5052 10.8363 10.2755 13.753 9.21419 11.2486C8.94695 10.6149 10.6954 11.8899 10.0083 11.8823C9.43564 11.8823 9.19895 11.6686 8.62631 11.6762C7.96968 11.6839 8.93172 7.98835 8.91645 8.64498C8.89354 9.25579 8.89354 9.87428 8.91645 10.4927C8.93935 11.1341 9.4356 11.6304 10.0693 11.638C10.6878 11.6457 11.2986 11.6533 11.9171 11.638C12.5355 11.6227 13.0165 11.1341 13.0471 10.5233C13.0547 10.3172 13.0624 10.111 13.0471 9.90481C13.0394 9.7292 13.0853 9.61467 13.2456 9.52304C13.4823 9.38561 13.6961 9.2253 13.9252 9.07259C14.1695 8.90462 14.2305 8.69082 14.1007 8.49231C13.9709 8.28616 14.7039 9.02681 14.4443 9.19478C14.3145 9.27877 13.6655 10.7905 13.5281 10.8821H13.5205ZM15.0093 13.3712C16.8647 13.3712 18.7124 13.3712 20.5678 13.3712C20.9266 13.3712 21.1022 13.2414 21.1022 12.9742C21.1022 12.7146 20.9114 12.5848 20.5602 12.5771C20.5449 12.5771 20.5296 12.5771 20.5143 12.5771C16.8494 12.5771 13.1845 12.5771 9.51961 12.5771C9.43563 12.5771 9.35163 12.5771 9.27528 12.5771C9.06149 12.6077 8.92406 12.7833 8.93933 12.9895C8.9546 13.2109 9.08438 13.3254 9.3058 13.3559C9.38216 13.3636 9.4509 13.3559 9.52726 13.3559C11.3521 13.3559 13.1845 13.3559 15.0093 13.3559V13.3712ZM15.0246 16.9521C13.1845 16.9521 11.3521 16.9521 9.51197 16.9521C9.42798 16.9521 9.34399 16.9521 9.26764 16.9597C9.07676 16.9903 8.96223 17.1125 8.93933 17.3034C8.92406 17.5019 9.00806 17.6393 9.1913 17.7003C9.28293 17.7309 9.38219 17.7385 9.48145 17.7385C13.1616 17.7385 16.8494 17.7385 20.5296 17.7385C20.6288 17.7385 20.7281 17.7385 20.8197 17.708C21.003 17.6545 21.1023 17.5095 21.087 17.3186C21.0717 17.1124 20.9572 16.9903 20.7434 16.9597C20.6594 16.9521 20.5831 16.9597 20.4991 16.9597C18.6666 16.9597 16.8418 16.9597 15.0093 16.9597L15.0246 16.9521ZM13.5281 19.0594C12.1996 19.0594 10.8711 19.0594 9.54254 19.0594C9.45855 19.0594 9.37456 19.0594 9.29821 19.0594C9.06915 19.0823 8.93169 19.2274 8.93169 19.4412C8.93169 19.655 9.06151 19.8001 9.29057 19.8306C9.36692 19.8382 9.43562 19.8382 9.51197 19.8382C12.1843 19.8382 14.8566 19.8382 17.529 19.8382C17.6206 19.8382 17.7122 19.8382 17.7962 19.823C18.0024 19.7771 18.1092 19.6473 18.1016 19.4412C18.1016 19.235 17.9794 19.1052 17.7809 19.0671C17.6893 19.0518 17.5977 19.0518 17.5137 19.0518C16.1851 19.0518 14.8566 19.0518 13.5281 19.0518V19.0594ZM13.0776 14.6997C11.8865 14.6997 10.7031 14.6997 9.51197 14.6997C9.42798 14.6997 9.34399 14.6997 9.26764 14.6997C9.06912 14.7379 8.94696 14.8524 8.93169 15.0662C8.92405 15.2876 9.03861 15.4251 9.24476 15.4709C9.31347 15.4862 9.38981 15.4786 9.46616 15.4786C11.8789 15.4786 14.284 15.4786 16.6967 15.4786C16.7655 15.4786 16.8265 15.4786 16.8952 15.4786C17.109 15.448 17.2694 15.2724 17.2465 15.0739C17.2235 14.8601 17.109 14.7303 16.8876 14.6997C16.8113 14.6921 16.7425 14.6997 16.6662 14.6997C15.4674 14.6997 14.2763 14.6997 13.0776 14.6997ZM12.5355 22.0982C13.5357 22.0982 14.536 22.0982 15.5362 22.0982C15.6125 22.0982 15.6812 22.0982 15.7576 22.0982C15.9714 22.0753 16.0859 21.9456 16.1088 21.747C16.1317 21.5485 16.0248 21.3958 15.8263 21.3424C15.7423 21.3194 15.6507 21.3194 15.5591 21.3194C13.5357 21.3194 11.5048 21.3194 9.48145 21.3194C9.38219 21.3194 9.28293 21.3195 9.1913 21.3576C9.00806 21.4187 8.91642 21.5638 8.93933 21.7547C8.9546 21.9532 9.06912 22.0677 9.26764 22.0982C9.35163 22.1135 9.42798 22.0982 9.51197 22.0982C10.5198 22.0982 11.5277 22.0982 12.5355 22.0982ZM18.0711 8.91983C19.0407 8.91983 20.0028 8.91983 20.9724 8.91983C21.0793 8.91983 21.1862 8.9199 21.2855 8.88935C21.4763 8.83591 21.5604 8.69083 21.5527 8.49995C21.5451 8.31671 21.4458 8.19448 21.2626 8.14867C21.1786 8.1334 21.087 8.13348 20.9954 8.13348C19.0637 8.13348 17.1243 8.13348 15.1926 8.13348C15.1086 8.13348 15.0246 8.1334 14.9482 8.14867C14.7497 8.18684 14.6429 8.30908 14.6352 8.50759C14.6276 8.71374 14.7268 8.85883 14.9254 8.90464C15.017 8.92755 15.1239 8.92747 15.2155 8.92747C16.1699 8.92747 17.1167 8.92747 18.0711 8.92747V8.91983ZM11.4361 24.2132C12.1156 24.2132 12.7951 24.2132 13.4747 24.2132C13.7648 24.2132 13.9404 24.0681 13.948 23.8314C13.948 23.6024 13.7648 23.4268 13.4899 23.4268C12.1232 23.4268 10.7565 23.4268 9.38219 23.4268C9.09205 23.4268 8.92404 23.5871 8.92404 23.8314C8.92404 24.0758 9.09205 24.2132 9.38983 24.2132C10.0694 24.2132 10.7489 24.2132 11.4284 24.2132H11.4361ZM17.0479 11.0272C17.7198 11.0272 18.3917 11.0272 19.0636 11.0272C19.308 11.0272 19.4607 10.8745 19.4759 10.6607C19.4836 10.4316 19.3309 10.2713 19.0789 10.2484C19.0102 10.2484 18.9491 10.2484 18.8804 10.2484C18.4757 10.2484 18.0787 10.2484 17.674 10.2484C16.8647 10.2484 16.0477 10.2484 15.2384 10.2484C15.1697 10.2484 15.1086 10.2484 15.0399 10.2484C14.7726 10.2636 14.6047 10.4316 14.6123 10.6607C14.6199 10.8821 14.7879 11.0348 15.0475 11.0348C15.7118 11.0348 16.376 11.0348 17.0403 11.0348L17.0479 11.0272Z" fill="#0671B8"/>
<path d="M21.3695 11.9966H13.8641C12.6876 11.9966 11.7339 12.9503 11.7339 14.1268V24.8696C11.7339 26.046 12.6876 26.9998 13.8641 26.9998H21.3695C22.546 26.9998 23.4997 26.046 23.4997 24.8696V14.1268C23.4997 12.9503 22.546 11.9966 21.3695 11.9966Z" fill="#0671B8"/>
<path d="M9.68762 23.9457L10.077 23.5029V23.9457H9.68762Z" fill="white"/>
<path d="M15.0093 13.3637C13.1845 13.3637 11.3521 13.3637 9.52725 13.3637C9.4509 13.3637 9.38215 13.3637 9.3058 13.3637C9.09202 13.3408 8.96223 13.2187 8.93933 12.9972C8.92406 12.7835 9.06149 12.6155 9.27528 12.5849C9.35927 12.5696 9.43562 12.5849 9.51961 12.5849C13.1845 12.5849 16.8494 12.5849 20.5143 12.5849C20.5296 12.5849 20.5449 12.5849 20.5602 12.5849C20.9114 12.5849 21.1022 12.7224 21.1022 12.982C21.1022 13.2416 20.919 13.379 20.5678 13.379C18.7124 13.379 16.8647 13.379 15.0093 13.379V13.3637Z" fill="white"/>
<path d="M15.0246 16.9446C16.8571 16.9446 18.6819 16.9446 20.5144 16.9446C20.5984 16.9446 20.6823 16.9446 20.7587 16.9446C20.9648 16.9675 21.087 17.0974 21.1022 17.3035C21.1175 17.4944 21.0183 17.6394 20.835 17.6928C20.7434 17.7234 20.6441 17.7234 20.5449 17.7234C16.8647 17.7234 13.1769 17.7234 9.4967 17.7234C9.39744 17.7234 9.29823 17.7235 9.20661 17.6853C9.02336 17.6242 8.93172 17.4791 8.95463 17.2882C8.9699 17.0897 9.08442 16.9751 9.28294 16.9446C9.36693 16.9293 9.44328 16.937 9.52727 16.937C11.3674 16.937 13.1998 16.937 15.0399 16.937L15.0246 16.9446Z" fill="white"/>
<path d="M15.0322 19.0518C16.796 19.0518 18.5521 19.0518 20.3158 19.0518C20.438 19.0518 20.5601 19.0518 20.6747 19.067C20.9495 19.1052 21.0946 19.2274 21.1022 19.4412C21.1022 19.6473 20.9648 19.7847 20.6976 19.8229C20.5831 19.8382 20.4609 19.8382 20.3387 19.8382C16.796 19.8382 13.2532 19.8382 9.70287 19.8382C9.60361 19.8382 9.50435 19.8382 9.41272 19.8306C9.10732 19.8 8.9317 19.6549 8.9317 19.4412C8.9317 19.2274 9.11496 19.0823 9.42037 19.0594C9.52726 19.0518 9.63415 19.0594 9.74868 19.0594C11.5124 19.0594 13.2685 19.0594 15.0322 19.0594V19.0518Z" fill="white"/>
<path d="M13.0776 14.6918C14.2763 14.6918 15.4674 14.6918 16.6661 14.6918C16.7425 14.6918 16.8112 14.6918 16.8876 14.6918C17.1014 14.7224 17.2235 14.8522 17.2464 15.066C17.2617 15.2645 17.1013 15.4401 16.8952 15.4707C16.8341 15.4783 16.7654 15.4707 16.6967 15.4707C14.284 15.4707 11.8788 15.4707 9.46612 15.4707C9.38976 15.4707 9.31343 15.4783 9.24471 15.463C9.03856 15.4096 8.91637 15.2797 8.93164 15.0583C8.93928 14.8522 9.06908 14.73 9.26759 14.6918C9.34394 14.6766 9.42794 14.6918 9.51192 14.6918C10.703 14.6918 11.8865 14.6918 13.0776 14.6918Z" fill="white"/>
<path d="M15.0399 22.0902C13.3296 22.0902 11.6193 22.0902 9.90904 22.0902C9.77161 22.0902 9.62655 22.0902 9.48911 22.0902C9.1608 22.0597 8.96989 21.9452 8.93935 21.7467C8.90881 21.5482 9.05388 21.4107 9.36692 21.3496C9.51963 21.3191 9.69525 21.3115 9.85559 21.3115C13.2914 21.3115 16.7196 21.3115 20.1555 21.3115C20.3082 21.3115 20.4609 21.3115 20.606 21.3344C20.9419 21.3878 21.1176 21.5405 21.087 21.739C21.0565 21.9376 20.8503 22.0673 20.4914 22.0902C20.3693 22.0902 20.2395 22.0902 20.1173 22.0902C18.4223 22.0902 16.7273 22.0902 15.0322 22.0902H15.0399Z" fill="white"/>
<path d="M17.9871 8.91216C17.0098 8.91216 16.0325 8.91216 15.0552 8.91216C14.9559 8.91216 14.849 8.91223 14.7574 8.88933C14.5436 8.84352 14.4443 8.69843 14.4596 8.49228C14.4672 8.3014 14.5818 8.17163 14.7803 8.13345C14.8643 8.11818 14.9482 8.11816 15.0322 8.11816C17.0174 8.11816 19.0102 8.11816 20.9954 8.11816C21.087 8.11816 21.1863 8.11818 21.2702 8.13345C21.4535 8.17163 21.5604 8.29376 21.568 8.48464C21.5833 8.67552 21.4916 8.8206 21.2931 8.87404C21.1939 8.90458 21.0793 8.90461 20.9648 8.90461C19.9722 8.90461 18.9797 8.90461 17.9871 8.90461V8.91216Z" fill="white"/>
<path d="M11.4438 24.2054C10.7642 24.2054 10.0847 24.2054 9.40513 24.2054C9.10736 24.2054 8.93939 24.068 8.93939 23.8236C8.93939 23.5793 9.10739 23.4189 9.39753 23.4189C10.7642 23.4189 12.1309 23.4189 13.5052 23.4189C13.7877 23.4189 13.971 23.5869 13.9634 23.8236C13.9634 24.0603 13.7801 24.2054 13.49 24.2054C12.8105 24.2054 12.1309 24.2054 11.4514 24.2054H11.4438Z" fill="white"/>
<path d="M16.9334 11.0193C16.2539 11.0193 15.5667 11.0193 14.8872 11.0193C14.62 11.0193 14.452 10.8666 14.4367 10.6451C14.4291 10.4161 14.6047 10.2482 14.8796 10.2329C14.9483 10.2329 15.017 10.2329 15.0781 10.2329C15.9103 10.2329 16.7425 10.2329 17.5824 10.2329C17.9947 10.2329 18.407 10.2329 18.8193 10.2329C18.888 10.2329 18.9568 10.2329 19.0178 10.2329C19.2774 10.2558 19.4377 10.4237 19.4225 10.6451C19.4148 10.8589 19.2545 11.0116 19.0025 11.0116C18.3154 11.0116 17.6206 11.0116 16.9334 11.0116V11.0193Z" fill="white"/>
<path d="M10.6954 11.4088C11.7918 11.4088 12.6806 10.52 12.6806 9.42362C12.6806 8.32724 11.7918 7.43848 10.6954 7.43848C9.59903 7.43848 8.71027 8.32724 8.71027 9.42362C8.71027 10.52 9.59903 11.4088 10.6954 11.4088Z" fill="#FFB422"/>
<path d="M10.7947 10.7597C10.7947 10.6834 10.7947 10.6146 10.7947 10.5383C10.7947 10.5077 10.8023 10.4925 10.8328 10.4849C10.8786 10.4696 10.9321 10.4544 10.9779 10.4315C11.3215 10.2482 11.4284 9.83589 11.207 9.53811C11.0696 9.34723 10.8786 9.26325 10.642 9.25561C10.5351 9.25561 10.4434 9.23271 10.3595 9.16399C10.2449 9.06474 10.2297 8.91205 10.3213 8.80516C10.4282 8.683 10.5656 8.65243 10.7183 8.68297C10.8634 8.71351 10.9626 8.79749 10.9855 8.95783H11.3215C11.3215 8.95783 11.3215 8.89676 11.3139 8.87385C11.2604 8.61425 11.1001 8.45389 10.8558 8.3699C10.8099 8.35463 10.7947 8.33174 10.7947 8.28593C10.7947 8.21721 10.7947 8.15612 10.7947 8.0874H10.4511C10.4511 8.14848 10.4511 8.20956 10.4511 8.27064C10.4511 8.33172 10.4358 8.35463 10.3824 8.3699C10.3518 8.3699 10.3213 8.39284 10.2908 8.40812C9.93191 8.57609 9.80973 9.00362 10.0388 9.31666C10.1762 9.50754 10.3671 9.59153 10.6038 9.59916C10.703 9.59916 10.7947 9.62206 10.871 9.68314C11.0237 9.79767 11.0237 9.99623 10.871 10.1108C10.6496 10.2864 10.3518 10.1795 10.2602 9.90459H9.92429C9.92429 9.9504 9.93189 9.9886 9.93952 10.0268C10.0006 10.2787 10.1686 10.4238 10.4053 10.5002C10.4434 10.5154 10.4511 10.523 10.4511 10.5612C10.4511 10.6299 10.4511 10.6987 10.4511 10.775H10.7947V10.7597Z" fill="white"/>
<path d="M21 15C23.2091 15 25 13.2091 25 11C25 8.79083 23.2091 7 21 7C18.7909 7 17 8.79083 17 11C17 13.2091 18.7909 15 21 15Z" fill="#FFB422" stroke="white" stroke-width="0.55944" stroke-miterlimit="10"/>
<path d="M21.0733 9.007C21.36 9.007 21.5908 9.04892 21.8076 9.14683C22.325 9.39158 22.4999 9.92302 22.2341 10.4335C22.1152 10.6573 21.9474 10.8321 21.7516 10.986C21.7027 11.0279 21.6467 11.0699 21.5978 11.1119C21.4649 11.2378 21.395 11.3916 21.388 11.5734C21.388 11.6293 21.388 11.6853 21.388 11.7343C21.388 11.8462 21.339 11.9091 21.2341 11.944C21.2131 11.951 21.1922 11.958 21.1712 11.958C20.8565 12.007 20.7446 11.9161 20.7377 11.5944C20.7307 11.2098 20.8635 10.8951 21.1712 10.6643C21.2621 10.5944 21.36 10.5244 21.437 10.4405C21.5139 10.3566 21.5768 10.2588 21.6187 10.1539C21.6817 9.96505 21.5908 9.79022 21.402 9.7063C21.0943 9.57343 20.7726 9.66431 20.5838 9.93704C20.4509 10.1258 20.2341 10.1469 20.0873 9.98604C19.9894 9.88114 19.9824 9.76226 20.0244 9.63639C20.1083 9.37065 20.3041 9.20981 20.5558 9.10491C20.7446 9.02799 20.9404 9 21.0873 9L21.0733 9.007Z" fill="white"/>
<path d="M21.4999 12.8112C21.4999 13.0559 21.2971 13.2587 21.0523 13.2587C20.8146 13.2587 20.6188 13.0559 20.6188 12.8182C20.6188 12.5734 20.8076 12.3706 21.0523 12.3706C21.2971 12.3706 21.4999 12.5664 21.4999 12.8112Z" fill="white"/>
</svg>
