<svg width="32" height="32" viewBox="0 0 32 32" fill="none" xmlns="http://www.w3.org/2000/svg">
<path d="M14.3174 6C14.6329 6.06136 14.9572 6.10515 15.2728 6.18403C15.825 6.31551 16.3247 6.54344 16.7892 6.87652C17.2538 7.20959 17.7183 7.54261 18.2442 7.91075C18.0952 7.91075 18.0163 7.91075 17.9286 7.91075C16.2545 7.91075 14.5804 7.91075 12.9062 7.91075C11.6703 7.91075 10.8202 8.90126 10.9955 10.1459C11.0743 10.1459 11.1619 10.1459 11.2408 10.1459C12.4066 10.1459 13.5723 10.1459 14.7293 10.1459C15.413 10.1459 15.9916 10.6455 16.1406 11.3116C16.2896 11.9778 15.9741 12.6703 15.3517 12.9595C15.1501 13.0559 14.9222 13.1086 14.7031 13.1173C13.5286 13.1349 12.3453 13.1524 11.1707 13.1085C10.6448 13.0823 10.1276 12.8982 9.61049 12.7755C9.5579 12.7579 9.48776 12.6616 9.48776 12.6002C9.48776 10.7069 9.48776 8.81364 9.48776 6.89407C9.92602 6.78888 10.3555 6.68362 10.7938 6.5872C11.5563 6.4119 12.3189 6.24539 13.0815 6.07008C13.2305 6.03502 13.3883 6.01753 13.5373 6C13.8002 6 14.0632 6 14.3262 6H14.3174Z" fill="#0671B8"/>
<path d="M5.00877 6.28062C5.14025 6.09655 5.32432 6.04395 5.55221 6.04395C6.45502 6.05271 7.34914 6.04395 8.25195 6.04395C8.61133 6.04395 8.73398 6.16671 8.73398 6.53485C8.73398 8.69108 8.73398 10.8473 8.73398 13.0036C8.73398 13.3717 8.61132 13.4943 8.24318 13.4943C7.34037 13.4943 6.44625 13.4943 5.54344 13.4943C5.31554 13.4943 5.13148 13.4506 5 13.2578V6.27185L5.00877 6.28062Z" fill="#0671B8"/>
<path d="M22.8898 23.1358C22.8898 24.021 22.8898 24.9064 22.8898 25.7916C22.8898 25.9757 22.8547 26.0546 22.6531 26.0984C21.4085 26.3526 20.1726 26.6681 18.9192 26.8785C17.6044 27.0976 16.3685 26.8522 15.229 26.1159C13.4497 24.9589 11.6529 23.8195 9.86476 22.6713C9.03207 22.1366 8.83047 21.1198 9.4265 20.4273C9.87352 19.9102 10.4608 19.8401 11.0656 19.9979C12.2314 20.3046 13.3971 20.6377 14.5629 20.962C14.6155 20.9795 14.6856 21.0935 14.6856 21.1548C14.6681 22.566 15.6322 23.5478 17.0434 23.5566C18.1127 23.5566 19.1821 23.5566 20.2603 23.5566C20.5933 23.5566 20.7773 23.2935 20.6459 23.013C20.567 22.8377 20.4092 22.8115 20.2339 22.8115C19.147 22.8115 18.0602 22.8115 16.9733 22.8115C16.0179 22.8115 15.2904 21.9262 15.4657 20.9883C15.5797 20.3572 16.1581 19.8488 16.8418 19.84C18.3144 19.8225 19.7957 19.8138 21.2683 19.8488C21.7504 19.8663 22.2325 20.0505 22.7145 20.1557C22.846 20.182 22.8898 20.2695 22.8898 20.401C22.8898 21.3126 22.8898 22.2154 22.8898 23.127V23.1358Z" fill="#0671B8"/>
<path d="M11.7142 13.871H13.2042C13.2042 14.0901 13.2042 14.3005 13.2042 14.5196C13.2042 14.8352 13.3095 14.9579 13.625 14.9842C14.0195 15.028 14.2736 15.2821 14.3262 15.6766C14.3612 16.0009 14.4752 16.1062 14.8083 16.1062C17.4729 16.1062 20.1288 16.1062 22.7934 16.1062C23.1265 16.1062 23.2316 16.0009 23.2754 15.6766C23.3192 15.2997 23.5822 15.0368 23.9591 14.993C24.2922 14.9579 24.3974 14.8439 24.3974 14.5196C24.3974 13.5905 24.3974 12.6614 24.3974 11.7236C24.3974 11.408 24.2922 11.2941 23.9767 11.259C23.5997 11.2152 23.328 10.961 23.2842 10.5841C23.2403 10.2335 23.144 10.1458 22.7934 10.1458C20.7336 10.1458 18.6649 10.1458 16.6051 10.1458C16.4473 10.1458 16.3334 10.1019 16.2195 9.99675C15.7988 9.59355 15.2816 9.40078 14.6944 9.40078C13.8266 9.40078 12.9589 9.40078 12.0911 9.40078C12.0122 9.40078 11.9245 9.40078 11.8369 9.40078C11.9596 8.98005 12.354 8.68206 12.801 8.65576C12.8712 8.65576 12.9413 8.65576 13.0114 8.65576C16.8856 8.65576 20.7511 8.65576 24.6253 8.65576C25.4492 8.65576 25.8963 9.09397 25.8963 9.9179C25.8963 12.0566 25.8963 14.204 25.8963 16.3427C25.8963 17.1491 25.4492 17.5962 24.6428 17.5962C20.7511 17.5962 16.868 17.5962 12.9763 17.5962C12.1874 17.5962 11.7317 17.1404 11.7317 16.3603C11.7317 15.6152 11.7317 14.8703 11.7317 14.1252C11.7317 14.0463 11.7317 13.9762 11.7317 13.8798L11.7142 13.871Z" fill="#FFB422"/>
<path d="M23.6348 23.1623C23.6348 22.0929 23.6348 21.0235 23.6348 19.9542C23.6348 19.586 23.7575 19.4634 24.1169 19.4634C25.0373 19.4634 25.9663 19.4634 26.8866 19.4634C27.2372 19.4634 27.36 19.5948 27.36 19.9454C27.36 22.1104 27.36 24.2754 27.36 26.4317C27.36 26.7823 27.2372 26.9138 26.8866 26.9138C25.9575 26.9138 25.0285 26.9138 24.0906 26.9138C23.7575 26.9138 23.626 26.7823 23.626 26.4492C23.626 25.3536 23.626 24.2667 23.626 23.171L23.6348 23.1623Z" fill="#0671B8"/>
<path d="M20.2777 13.1264C20.2777 13.9503 19.594 14.6164 18.7788 14.6164C17.9724 14.6164 17.3063 13.9328 17.3063 13.1264C17.3063 12.3024 17.9812 11.6362 18.8051 11.6362C19.6203 11.6362 20.2865 12.3112 20.2777 13.1264Z" fill="#FFB422"/>
</svg>
