<svg width="32" height="32" viewBox="0 0 32 32" fill="none" xmlns="http://www.w3.org/2000/svg">
<path d="M11.0518 22.3212C10.7382 22.6772 10.4247 23.0416 10.0772 23.4485C9.69576 23.0671 9.32275 22.7026 8.93286 22.3127C9.34817 21.9652 9.72117 21.6432 10.0602 21.355C10.3908 21.6771 10.7128 21.9907 11.0603 22.3212H11.0518Z" fill="#0671B8"/>
<path d="M8.00054 20.9825C7.75474 20.4994 7.51743 20.0332 7.26315 19.55C7.7378 19.3466 8.18702 19.1601 8.64471 18.9736C8.8566 19.3805 9.05154 19.7704 9.27191 20.2027C8.8566 20.457 8.44127 20.7113 7.99206 20.9825H8.00054Z" fill="#0671B8"/>
<path d="M17.095 10.1929C17.6036 10.4556 18.1037 10.7184 18.6122 10.9812C18.8156 11.0829 19.0106 11.1846 19.2225 11.2948C19.2055 11.3117 19.1886 11.3287 19.1717 11.3372C18.4766 11.7355 17.7817 12.1338 17.0782 12.5322C17.0527 12.5491 16.9934 12.5491 16.968 12.5322C16.2645 12.1338 15.561 11.7355 14.8575 11.3287C14.8406 11.3287 14.832 11.3117 14.8151 11.2948C14.849 11.2778 14.8829 11.2523 14.9083 11.2439C15.5864 10.8964 16.256 10.5489 16.934 10.2014C16.934 10.2014 16.934 10.2013 16.934 10.1929C16.9849 10.1929 17.0357 10.1929 17.0865 10.1929H17.095Z" fill="#FFB422"/>
<path d="M12.1198 16.5241C12.7639 16.8886 13.3996 17.2529 14.0438 17.6089C14.1201 17.6513 14.1455 17.7022 14.1455 17.787C14.1455 18.482 14.1455 19.1685 14.1455 19.8635V19.9737C14.1455 19.9737 14.0862 19.9482 14.0607 19.9313C13.4759 19.6007 12.8996 19.2787 12.3148 18.9397C12.2385 18.8973 12.1791 18.8041 12.1113 18.7363C12.1113 17.9989 12.1113 17.2615 12.1113 16.5156L12.1198 16.5241Z" fill="#FFB422"/>
<path d="M12.213 15.9057C12.569 15.7277 12.9081 15.5582 13.2471 15.3887C13.62 15.2022 13.9929 15.0158 14.3659 14.8378C14.3998 14.8209 14.4506 14.8124 14.4845 14.8378C15.188 15.1853 15.8915 15.5413 16.595 15.8888C16.6035 15.8888 16.612 15.9057 16.6374 15.9142C16.6035 15.9311 16.5781 15.9481 16.5527 15.9651C15.8746 16.355 15.1881 16.7448 14.51 17.1347C14.4676 17.1602 14.4337 17.1771 14.3828 17.1432C13.6793 16.7364 12.9674 16.338 12.2554 15.9396C12.2469 15.9396 12.2384 15.9226 12.213 15.9057Z" fill="#FFB422"/>
<path d="M21.8246 15.9055C21.8246 15.9055 21.7568 15.9479 21.7313 15.9649C21.0448 16.3547 20.3667 16.7362 19.6802 17.126C19.6208 17.1599 19.5785 17.1684 19.5192 17.126C18.8411 16.7362 18.163 16.3463 17.485 15.9564C17.4595 15.9394 17.4341 15.9225 17.4002 15.8971C17.4341 15.8801 17.4596 15.8631 17.4935 15.8462C18.1715 15.5072 18.8495 15.1682 19.5276 14.8291C19.5869 14.7952 19.6378 14.7952 19.6971 14.8291C20.3837 15.1682 21.0617 15.5072 21.7482 15.8462C21.7736 15.8547 21.7992 15.8717 21.8415 15.8971L21.8246 15.9055Z" fill="#FFB422"/>
<path d="M21.9093 16.5244C21.9093 16.9228 21.9093 17.3127 21.9093 17.6941C21.9093 18.0077 21.9093 18.3213 21.9093 18.6264C21.9093 18.762 21.8585 18.8552 21.7399 18.923C21.1381 19.2621 20.5363 19.6095 19.926 19.9486C19.9176 19.9486 19.9006 19.9571 19.8836 19.9655C19.8836 19.9316 19.8836 19.9062 19.8836 19.8808C19.8836 19.1688 19.8836 18.4568 19.8836 17.7449C19.8836 17.694 19.8921 17.6601 19.943 17.6347C20.5787 17.2787 21.2144 16.9142 21.85 16.5582C21.867 16.5582 21.8754 16.5414 21.9093 16.5329V16.5244Z" fill="#FFB422"/>
<path d="M16.7306 15.3037C16.7306 15.3037 16.6628 15.2783 16.6374 15.2614C16.0271 14.9563 15.4168 14.6511 14.7981 14.3459C14.7473 14.3205 14.7219 14.3036 14.7219 14.2357C14.7219 13.4899 14.7219 12.7355 14.7219 11.9896C14.7219 11.9727 14.7219 11.9558 14.7219 11.9219C14.7558 11.9388 14.7812 11.9558 14.8066 11.9643C15.4169 12.3118 16.0271 12.6593 16.6374 13.0068C16.6967 13.0407 16.7221 13.0746 16.7221 13.1424C16.7221 13.829 16.7221 14.5155 16.7221 15.1935V15.2867L16.7306 15.3037Z" fill="#FFB422"/>
<path d="M19.3073 11.9221C19.3073 12.3882 19.3073 12.8374 19.3073 13.2951C19.3073 13.6087 19.3073 13.9223 19.3073 14.2274C19.3073 14.2613 19.2818 14.3122 19.2564 14.3207C18.6122 14.6427 17.9681 14.9648 17.3324 15.2869C17.3324 15.2869 17.3239 15.2869 17.3069 15.2869C17.3069 15.2615 17.3069 15.2361 17.3069 15.2022C17.3069 14.5156 17.3069 13.8292 17.3069 13.1341C17.3069 13.0833 17.307 13.0494 17.3578 13.0155C17.9935 12.651 18.6292 12.2865 19.2649 11.9305C19.2733 11.9305 19.2902 11.922 19.3157 11.9136L19.3073 11.9221Z" fill="#FFB422"/>
<path d="M14.7219 19.974V19.8893C14.7219 19.1773 14.7219 18.4653 14.7219 17.7449C14.7219 17.694 14.7218 17.6601 14.7811 17.6262C15.4168 17.2702 16.044 16.9057 16.6797 16.5413C16.6882 16.5413 16.7052 16.5329 16.7221 16.5244C16.7221 16.5498 16.7221 16.5752 16.7221 16.6007C16.7221 17.3211 16.7221 18.0331 16.7221 18.7535C16.7221 18.7875 16.6967 18.8468 16.6712 18.8637C16.0355 19.2367 15.3915 19.6011 14.7473 19.9655C14.7473 19.9655 14.7388 19.9655 14.7134 19.9655L14.7219 19.974Z" fill="#FFB422"/>
<path d="M19.3073 19.9738C19.3073 19.9738 19.2394 19.94 19.214 19.923C18.6037 19.5755 18.002 19.2279 17.3918 18.8804C17.3324 18.8465 17.3069 18.8127 17.3069 18.7364C17.3069 18.0329 17.3069 17.3294 17.3069 16.6259V16.5327C17.3069 16.5327 17.3578 16.5496 17.3833 16.5665C18.002 16.9225 18.6292 17.2785 19.2479 17.6345C19.2903 17.6599 19.3241 17.6854 19.3157 17.7447C19.3157 18.4736 19.3157 19.211 19.3157 19.9399C19.3157 19.9484 19.3157 19.9569 19.3157 19.9823L19.3073 19.9738Z" fill="#FFB422"/>
<path d="M27.461 15.49H25.9692C25.8506 12.2862 24.5114 9.73494 21.8331 7.96351C20.104 6.81928 18.1715 6.37014 16.1034 6.56509C11.8147 6.9804 8.50065 10.3452 8.03448 14.4645C8.44979 14.0492 8.85658 13.6424 9.25494 13.2355C9.63635 13.6254 9.98386 13.9644 10.3144 14.295C9.27189 15.3375 8.20396 16.4054 7.15296 17.4564C6.11044 16.4139 5.04252 15.346 4 14.3035C4.3136 13.9899 4.66108 13.6423 5.02554 13.2778C5.48323 13.744 5.9749 14.2271 6.48345 14.7441C6.55125 14.2864 6.60209 13.8796 6.67837 13.4812C6.99198 11.7946 7.70393 10.2859 8.78035 8.94673C10.4162 6.92101 12.5096 5.60731 15.0778 5.17505C18.9173 4.53089 22.1974 5.66662 24.8249 8.54839C26.3336 10.2012 27.1558 12.176 27.4101 14.3967C27.427 14.5323 27.444 14.6679 27.461 14.8035V15.49Z" fill="#0671B8"/>
<path d="M21.4093 23.3384C21.6551 23.7706 21.8924 24.186 22.1552 24.6437C21.672 24.8725 21.1973 25.1013 20.6972 25.3386C20.5108 24.8555 20.3413 24.3979 20.1633 23.9402C20.5786 23.7453 20.9855 23.5503 21.4093 23.3469V23.3384Z" fill="#0671B8"/>
<path d="M25.6725 21.364C25.2403 21.0758 24.8334 20.8046 24.4266 20.5249C24.6555 20.1265 24.8759 19.7366 25.1047 19.3213C25.5454 19.5247 25.9862 19.7281 26.4608 19.957C26.1981 20.4316 25.9354 20.8893 25.6641 21.364H25.6725Z" fill="#0671B8"/>
<path d="M13.3996 23.7794C13.2047 24.2286 13.0182 24.6694 12.8063 25.1525C12.3317 24.9067 11.8655 24.6609 11.3824 24.4066C11.6536 23.9659 11.9164 23.559 12.1791 23.1353C12.586 23.3471 12.9843 23.5591 13.3996 23.7794Z" fill="#0671B8"/>
<path d="M14.7134 24.2285C15.1795 24.3133 15.6118 24.3896 16.078 24.4743C16.0271 24.9575 15.9847 25.432 15.9338 25.966C15.3999 25.8728 14.8828 25.7796 14.3404 25.6863C14.4675 25.1863 14.5947 24.7116 14.7134 24.2285Z" fill="#0671B8"/>
<path d="M19.1462 25.7881C18.6122 25.8559 18.0952 25.9322 17.5443 26C17.5188 25.4829 17.4934 24.9998 17.468 24.4997C17.9342 24.4404 18.3749 24.3811 18.8326 24.3218C18.9343 24.8049 19.036 25.2795 19.1462 25.7881Z" fill="#0671B8"/>
<path d="M23.5705 21.6182C23.935 21.9487 24.291 22.2792 24.6724 22.6352C24.2741 22.9997 23.8927 23.3557 23.4943 23.7371C23.1722 23.3387 22.8671 22.9573 22.562 22.5674C22.901 22.2538 23.2315 21.9402 23.5705 21.6182Z" fill="#0671B8"/>
</svg>
