<svg width="32" height="32" viewBox="0 0 32 32" fill="none" xmlns="http://www.w3.org/2000/svg">
<path d="M24.863 11.1163C24.7522 11.4211 24.572 11.6705 24.2326 11.7189C23.9556 11.7536 23.6647 11.7536 23.3807 11.7189C23.0135 11.6705 22.7711 11.3518 22.7572 10.9777C22.7088 10.0011 22.0577 9.37772 21.081 9.37772C18.061 9.37772 15.0409 9.37772 12.0209 9.37772H11.8339C11.8686 9.4262 11.8893 9.46086 11.917 9.48857C12.1041 9.67559 12.291 9.85564 12.4711 10.0496C12.6928 10.2851 12.6997 10.5829 12.4711 10.8115C12.2564 11.0401 12.0348 11.2549 11.8062 11.4765C11.5776 11.6982 11.2659 11.7051 11.0443 11.4765C10.0676 10.4999 9.09095 9.52313 8.11429 8.54646C7.9619 8.39407 7.9619 8.26254 8.11429 8.10323C9.08403 7.12656 10.0607 6.15677 11.0373 5.18703C11.1205 5.10391 11.252 5.06234 11.3559 5C11.3975 5 11.446 5 11.4876 5C11.633 5.09697 11.7854 5.18012 11.917 5.29095C12.0833 5.43641 12.2287 5.59576 12.388 5.75507C12.7205 6.08755 12.7205 6.35767 12.388 6.68322C12.201 6.87024 12.0071 7.05036 11.8131 7.23046C11.827 7.24431 11.8338 7.25812 11.8477 7.27197C11.91 7.27197 11.9793 7.27197 12.0417 7.27197C15.0756 7.27197 18.1164 7.27197 21.1503 7.27197C22.7711 7.27197 24.1772 8.2833 24.669 9.8141C24.7521 10.0773 24.7937 10.3543 24.856 10.6245V11.1163H24.863Z" fill="#0671B8"/>
<path d="M24.863 22.7808C24.3297 23.3142 23.7964 23.8544 23.263 24.3878C22.7989 24.8519 22.3348 25.316 21.8638 25.787C21.5798 26.071 21.2889 26.071 21.0049 25.787C20.811 25.6 20.6239 25.4061 20.4369 25.219C20.1598 24.942 20.1598 24.6511 20.4369 24.374C20.6377 24.1731 20.8386 23.9722 21.0741 23.7437C20.9702 23.7437 20.9079 23.7437 20.8456 23.7437C17.8048 23.7437 14.7709 23.7437 11.7301 23.7437C9.96374 23.7437 8.4953 22.5661 8.1074 20.8344C8.05199 20.5781 8.03121 20.315 8.02429 20.0518C8.01736 19.6223 8.36369 19.2829 8.79314 19.269C8.98016 19.269 9.16714 19.269 9.35416 19.269C9.77669 19.2829 10.1092 19.6084 10.1299 20.031C10.1784 21.0215 10.8296 21.6379 11.8201 21.6379C14.8332 21.6379 17.8532 21.6379 20.8663 21.6379H21.0533C21.0187 21.5894 20.991 21.5548 20.9633 21.5271C20.7763 21.34 20.5893 21.16 20.4092 20.966C20.1876 20.7305 20.1806 20.4327 20.4092 20.2041C20.6239 19.9825 20.8456 19.7608 21.0741 19.5391C21.3027 19.3175 21.6075 19.3105 21.8361 19.5391C22.8197 20.5158 23.7963 21.4994 24.7799 22.483C24.8145 22.5176 24.8423 22.5522 24.8769 22.5869V22.7878L24.863 22.7808Z" fill="#0671B8"/>
<path d="M16.4401 19.7886C18.8081 19.7886 20.7278 17.8689 20.7278 15.501C20.7278 13.133 18.8081 11.2134 16.4401 11.2134C14.0721 11.2134 12.1525 13.133 12.1525 15.501C12.1525 17.8689 14.0721 19.7886 16.4401 19.7886Z" fill="#FFB422" stroke="white" stroke-width="0.554135" stroke-miterlimit="10"/>
<path d="M16.8211 17.9946C16.8211 17.8491 16.8211 17.7176 16.8211 17.586C16.8211 17.5305 16.835 17.5098 16.8904 17.489C16.9804 17.4613 17.0705 17.4266 17.1536 17.3851C17.7978 17.0456 17.9987 16.2838 17.5831 15.7158C17.3268 15.3625 16.9666 15.2032 16.5371 15.1893C16.3432 15.1893 16.17 15.1409 16.0176 15.0162C15.8029 14.8361 15.7683 14.552 15.9414 14.3442C16.1354 14.1156 16.3986 14.0533 16.6826 14.1157C16.9528 14.178 17.1328 14.3373 17.1744 14.6282H17.8048C17.8048 14.5659 17.8047 14.5174 17.7909 14.462C17.6939 13.9771 17.3891 13.6724 16.932 13.52C16.8419 13.4923 16.8211 13.4507 16.8211 13.3676C16.8211 13.2429 16.8211 13.1252 16.8211 13.0005H16.1838C16.1838 13.1182 16.1769 13.2291 16.1838 13.3468C16.1977 13.4576 16.1631 13.5061 16.0523 13.5269C15.9969 13.5339 15.9415 13.5685 15.886 13.5892C15.2142 13.9079 14.9855 14.6976 15.4081 15.2794C15.6644 15.6327 16.0245 15.7988 16.454 15.8127C16.6341 15.8196 16.8072 15.8543 16.9527 15.9651C17.2367 16.1799 17.2367 16.547 16.9527 16.7617C16.5371 17.0803 15.9761 16.8933 15.8168 16.3738H15.1864C15.2003 16.4569 15.2002 16.5331 15.221 16.6023C15.3388 17.0664 15.6505 17.3435 16.0938 17.482C16.1631 17.5028 16.1838 17.5306 16.1838 17.5998C16.1838 17.7314 16.1838 17.8561 16.1838 17.9946H16.8211Z" fill="white"/>
</svg>
