<svg width="32" height="32" viewBox="0 0 32 32" fill="none" xmlns="http://www.w3.org/2000/svg">
<path d="M14.8846 26.9761C12.0577 26.9761 9.22284 26.9761 6.39593 26.9761C6.3009 26.9761 6.22173 26.9366 6.14254 26.897C6.11087 26.8811 6.07918 26.8653 6.04751 26.8573C6.01584 26.8494 6 26.8178 6 26.7861V9.2386C6 9.2386 6.01584 9.1832 6.04751 9.16736C6.07918 9.15153 6.10294 9.13564 6.13461 9.11981C6.20588 9.0723 6.28507 9.03271 6.37217 9.03271C6.72851 9.03271 7.09276 9.03271 7.44909 9.03271H8.49434C8.49434 9.03271 8.57353 9.04065 8.61312 9.04857C8.65271 9.04857 8.72398 9.08814 8.72398 9.12773C8.77941 9.82456 9.1199 10.2126 9.69795 10.2126C10.5769 10.2126 11.4559 10.2205 12.3348 10.2205C13.2613 10.2205 14.1957 10.2205 15.1222 10.2205C15.6052 10.2205 16.0011 9.88006 16.0724 9.38911C16.0803 9.33368 16.0803 9.27817 16.0882 9.21483V9.11981C16.0961 9.08021 16.1278 9.04857 16.1674 9.04857C16.2624 9.04857 16.302 9.04064 16.3416 9.04064H18.4242C18.7409 9.04064 18.8201 9.11983 18.8201 9.44449V26.5961C18.8201 26.9207 18.733 26.9999 18.4083 26.9999H14.9083L14.8846 26.9761ZM8.00339 24.1096C7.80542 24.1096 7.63122 24.1888 7.52036 24.3234C7.4095 24.4581 7.36991 24.6402 7.4095 24.8302C7.46493 25.1153 7.71833 25.2974 8.05882 25.2974H16.6663C16.7217 25.2974 16.7771 25.2974 16.8326 25.2895C17.1572 25.2261 17.371 24.949 17.3314 24.6244C17.2997 24.3076 17.0384 24.1096 16.6742 24.1096H9.2466C8.83484 24.1096 8.42308 24.1096 8.01131 24.1096H8.00339ZM8.03507 20.6096C7.86878 20.6096 7.71832 20.6809 7.59955 20.8076C7.37783 21.053 7.39366 21.4094 7.63122 21.6311C7.90836 21.9004 8.19343 22.1537 8.48642 22.4071C8.59728 22.5022 8.73981 22.5576 8.88235 22.5576C9.04863 22.5576 9.19909 22.4864 9.30995 22.3676C9.88801 21.7183 10.4581 21.061 11.0283 20.4037C11.155 20.2533 11.1946 20.0791 11.1391 19.8812C11.0758 19.6594 10.9333 19.5169 10.7195 19.4535C10.664 19.4377 10.6007 19.4298 10.5452 19.4298C10.379 19.4298 10.2364 19.501 10.1176 19.6356C9.82465 19.9682 8.88235 21.0452 8.88235 21.0452C8.86651 21.061 8.85068 21.0689 8.82692 21.0689C8.81108 21.0689 8.78732 21.0689 8.77149 21.0452L8.65271 20.9343C8.57353 20.863 8.50225 20.7997 8.42307 20.7363C8.30429 20.6413 8.16968 20.5938 8.02714 20.5938L8.03507 20.6096ZM13.0079 21.3461C12.612 21.3461 12.3507 21.5836 12.3507 21.94C12.3507 22.1063 12.4061 22.2488 12.509 22.3517C12.6278 22.4705 12.802 22.5339 13 22.5339H16.6663C16.8801 22.5339 17.0543 22.4705 17.173 22.3438C17.276 22.2409 17.3314 22.0983 17.3314 21.932C17.3314 21.5757 17.0622 21.3381 16.6742 21.3381H14.8371H13L13.0079 21.3461ZM16.7217 17.6006C16.9038 17.6006 17.0622 17.5373 17.173 17.4185C17.2839 17.2997 17.3393 17.1413 17.3314 16.9671C17.3156 16.6345 17.0463 16.4128 16.6742 16.4128H8.2647C8.16176 16.4128 8.06673 16.4128 7.96379 16.4128C7.64705 16.4208 7.40949 16.6583 7.39366 16.975C7.38574 17.1413 7.44117 17.2997 7.54411 17.4106C7.66289 17.5373 7.82918 17.6006 8.02714 17.6006H14.0531H16.7217ZM8.03507 12.8732C7.86878 12.8732 7.71041 12.9445 7.59955 13.0791C7.38575 13.3245 7.40158 13.673 7.64706 13.9026C7.9242 14.1639 8.20135 14.4173 8.48642 14.6628C8.6052 14.7657 8.73981 14.8212 8.88235 14.8212C9.04863 14.8212 9.21493 14.742 9.34162 14.6074C9.44456 14.4965 9.53959 14.3856 9.64253 14.2748L10.1176 13.7364C10.4185 13.388 10.7274 13.0474 11.0283 12.699C11.2025 12.4931 11.2341 12.2397 11.1075 12.0101C11.0045 11.82 10.8224 11.7092 10.6323 11.7092C10.5928 11.7092 10.5532 11.7092 10.5136 11.725C10.3631 11.7646 10.2047 11.8597 10.0939 11.9785C9.80089 12.2952 9.51583 12.6199 9.23076 12.9524L8.9061 13.3325C8.9061 13.3325 8.87443 13.3563 8.85068 13.3563C8.83484 13.3563 8.81108 13.3563 8.79524 13.3325L8.68438 13.2296C8.6052 13.1583 8.53394 13.095 8.45475 13.0316C8.33597 12.9366 8.19343 12.8811 8.0509 12.8811L8.03507 12.8732ZM12.9446 13.6097C12.6912 13.6097 12.5011 13.7363 12.3982 13.9818C12.319 14.1639 12.3348 14.3619 12.4378 14.5203C12.5486 14.6945 12.7466 14.7974 12.9683 14.7974C13.2138 14.7974 13.4593 14.7974 13.7047 14.7974H15.9536C16.207 14.7974 16.4683 14.7974 16.7217 14.7974C17.078 14.7974 17.3314 14.552 17.3314 14.2194C17.3314 14.0531 17.276 13.8947 17.1651 13.7838C17.0543 13.673 16.9038 13.6097 16.7296 13.6097C16.1357 13.6097 15.5418 13.6097 14.9479 13.6097C14.2749 13.6097 13.6097 13.6097 12.9366 13.6097H12.9446Z" fill="#0671B8"/>
<path d="M6.07117 26.7704C6.07117 20.9186 6.07117 15.0747 6.07117 9.22292C6.16619 9.17541 6.26914 9.09629 6.36416 9.09629C7.06891 9.08837 7.78157 9.09629 8.48632 9.09629C8.53383 9.09629 8.58926 9.10413 8.63678 9.11205C8.69221 9.84055 9.06438 10.2682 9.68203 10.2761C11.4875 10.2841 13.3008 10.2841 15.1062 10.2761C15.6447 10.2761 16.0564 9.89605 16.1356 9.37342C16.1515 9.28632 16.1515 9.19924 16.1594 9.10422C16.2227 9.10422 16.2782 9.09629 16.3257 9.09629C17.0225 9.09629 17.7114 9.09629 18.4082 9.09629C18.6854 9.09629 18.725 9.14373 18.725 9.42088C18.725 15.1381 18.725 20.8553 18.725 26.5725C18.725 26.8496 18.6775 26.8971 18.3924 26.8971C14.3936 26.8971 10.3947 26.8971 6.39583 26.8971C6.28497 26.8971 6.18203 26.8179 6.07117 26.7783V26.7704ZM12.3743 24.0227C11.8517 24.0227 11.3291 24.0227 10.8065 24.0227C9.87207 24.0227 8.9456 24.0227 8.01122 24.0227C7.55194 24.0227 7.25103 24.4028 7.33814 24.8383C7.40149 25.163 7.67864 25.3688 8.05873 25.3688C10.9252 25.3688 13.7997 25.3688 16.6662 25.3688C16.7295 25.3688 16.7929 25.3688 16.8483 25.353C17.2205 25.2817 17.4501 24.9729 17.4105 24.6007C17.3709 24.2523 17.0858 24.0148 16.6741 24.0148C15.2408 24.0148 13.8076 24.0148 12.3664 24.0148L12.3743 24.0227ZM12.3585 17.672C12.8969 17.672 13.4354 17.672 13.9739 17.672C14.8924 17.672 15.811 17.672 16.7295 17.672C17.1492 17.672 17.4422 17.3553 17.4184 16.9514C17.4026 16.5792 17.1017 16.318 16.682 16.318C14.0214 16.318 11.3607 16.318 8.70804 16.318C8.46257 16.318 8.2171 16.318 7.97162 16.318C7.61529 16.3338 7.33813 16.603 7.3223 16.9514C7.29854 17.3553 7.59945 17.6641 8.03497 17.6641C9.47615 17.6641 10.9173 17.6641 12.3585 17.6641V17.672ZM14.837 22.6132C15.4467 22.6132 16.0564 22.6132 16.6741 22.6132C17.1254 22.6132 17.4263 22.336 17.4184 21.9322C17.4184 21.5363 17.1175 21.2671 16.682 21.2591C15.4626 21.2591 14.2352 21.2591 13.0157 21.2591C12.5802 21.2591 12.2793 21.5363 12.2793 21.9322C12.2793 22.3281 12.5723 22.6053 13.0078 22.6132C13.6175 22.6132 14.2273 22.6132 14.8449 22.6132H14.837ZM14.8291 14.8768C15.4626 14.8768 16.096 14.8768 16.7295 14.8768C17.1334 14.8768 17.4105 14.5917 17.4184 14.2196C17.4184 13.8395 17.1492 13.5307 16.7454 13.5307C15.4784 13.5227 14.2114 13.5307 12.9524 13.5307C12.6594 13.5307 12.4456 13.6811 12.3347 13.9504C12.1447 14.4017 12.4694 14.8688 12.9841 14.8768C13.6017 14.8847 14.2193 14.8768 14.837 14.8768H14.8291ZM8.83474 13.2614C8.71596 13.1506 8.60511 13.0556 8.49425 12.9605C8.19334 12.7151 7.78949 12.7388 7.54401 13.0239C7.29854 13.301 7.31438 13.697 7.59152 13.9583C7.86867 14.2196 8.14583 14.473 8.43881 14.7264C8.73972 14.9798 9.14356 14.948 9.40487 14.6629C9.54741 14.5046 9.68202 14.3462 9.82456 14.1879C10.2442 13.7048 10.6718 13.2298 11.0836 12.7467C11.2895 12.5092 11.3132 12.2241 11.1707 11.9707C11.0361 11.7252 10.7669 11.5748 10.4818 11.646C10.3155 11.6856 10.1413 11.7965 10.0304 11.9152C9.62659 12.3508 9.23858 12.8101 8.83474 13.2614ZM8.83474 21.0057C8.70804 20.8869 8.59718 20.784 8.48632 20.6969C8.18542 20.4593 7.79742 20.491 7.55194 20.7603C7.30647 21.0295 7.31438 21.4333 7.59152 21.6946C7.86867 21.9638 8.16167 22.2251 8.45465 22.4785C8.7318 22.7161 9.15149 22.7003 9.39696 22.4311C9.97501 21.7818 10.5451 21.1245 11.1153 20.4673C11.2657 20.301 11.3053 20.0951 11.242 19.8734C11.1707 19.6279 11.0123 19.4617 10.7669 19.3904C10.4976 19.3191 10.268 19.3904 10.0859 19.5963C9.67411 20.0555 9.27026 20.5227 8.85058 21.0057H8.83474Z" fill="#0671B8"/>
<path d="M13.9502 6H26.1922C26.6753 6.16629 26.9682 6.48306 26.9682 7.02152C26.9682 13.1505 26.9682 19.2794 26.9682 25.4004C26.9682 26.0101 26.5644 26.4061 25.9547 26.4061C24.0701 26.4061 22.1855 26.4061 20.3008 26.414C20.2296 26.414 20.1583 26.414 20.0712 26.4061V26.1447C20.0712 23.2861 20.0712 20.4355 20.0712 17.5769C20.0712 14.8292 20.0712 12.0814 20.0712 9.33367C20.0712 8.54974 19.5803 7.93211 18.8359 7.77374C18.6855 7.74207 18.5271 7.74204 18.3687 7.74204C17.6323 7.74204 16.9038 7.74204 16.1674 7.74204C16.1515 7.68661 16.1357 7.655 16.1278 7.61541C15.9932 7.11654 15.6527 6.85517 15.13 6.85517C14.9558 6.85517 14.7737 6.86309 14.5995 6.85517C14.5441 6.85517 14.4728 6.79973 14.4332 6.75222C14.2669 6.50675 14.1085 6.2534 13.9423 6.00793L13.9502 6Z" fill="#FFB422"/>
<path d="M14.7976 8.19365V8.91417H10.0068V8.19365C10.2681 8.19365 10.5215 8.19365 10.7829 8.19365C11.258 8.19365 11.4955 7.97986 11.5589 7.51267C11.6222 7.02964 11.9627 6.71289 12.4062 6.71289C12.8654 6.71289 13.2059 7.05332 13.2534 7.53635C13.293 7.93228 13.5464 8.18573 13.9503 8.19365C14.2274 8.19365 14.5046 8.19365 14.8055 8.19365H14.7976Z" fill="#0671B8"/>
</svg>
