<svg width="32" height="32" viewBox="0 0 32 32" fill="none" xmlns="http://www.w3.org/2000/svg">
<path d="M24.0409 11.5223V23.9465C24.0261 23.9908 24.0113 24.0352 24.0039 24.0795C23.8119 25.1949 22.9107 25.9926 21.7806 25.9926C17.6071 25.9926 13.4338 25.9926 9.26034 25.9926C8.94271 25.9926 8.60291 25.9114 8.31483 25.7785C7.42106 25.3574 7 24.6113 7 23.6215C7 18.2072 7 12.8002 7 7.38585C7 7.31937 7 7.24548 7 7.17901C7.05909 6.34432 7.43586 5.70165 8.15974 5.29539C8.4035 5.15505 8.69155 5.09603 8.95746 5C11.8161 5 14.6673 5 17.5259 5C17.5259 6.36652 17.5259 7.73297 17.5333 9.0921C17.5333 9.29893 17.5481 9.5206 17.5924 9.72004C17.8436 10.8133 18.73 11.4928 19.9044 11.5001C21.1971 11.5001 22.4823 11.5001 23.775 11.5001C23.8636 11.5001 23.9523 11.5075 24.0409 11.5149V11.5223ZM11.5723 23.363C11.9786 23.363 12.3923 23.363 12.7985 23.363C13.2491 23.363 13.5002 23.1118 13.5002 22.6686C13.5002 21.8413 13.5002 21.0141 13.5002 20.1942C13.5002 19.7436 13.2565 19.4999 12.7985 19.4999C11.9712 19.4999 11.1513 19.4999 10.324 19.4999C9.88077 19.4999 9.63705 19.7436 9.62967 20.1794C9.62967 21.0141 9.62967 21.8414 9.62967 22.676C9.62967 23.1118 9.88076 23.363 10.3166 23.363C10.7302 23.363 11.1513 23.363 11.5649 23.363H11.5723ZM11.5649 18.089C11.9934 18.089 12.4218 18.089 12.8576 18.089C13.2417 18.089 13.5002 17.8379 13.5076 17.4538C13.5076 16.5969 13.5076 15.7327 13.5076 14.8759C13.5076 14.4844 13.2417 14.2332 12.8576 14.2332C12.0081 14.2332 11.1513 14.2332 10.3019 14.2332C9.90299 14.2332 9.64445 14.477 9.64445 14.8832C9.64445 15.7327 9.64445 16.5895 9.64445 17.439C9.64445 17.8452 9.89561 18.089 10.3019 18.089C10.7229 18.089 11.1513 18.089 11.5723 18.089H11.5649ZM18.1464 22.1368C17.297 22.1368 16.4401 22.1368 15.5906 22.1368C15.1843 22.1368 14.9111 22.3806 14.9037 22.7426C14.9037 23.1045 15.1843 23.3704 15.5906 23.3704C17.2969 23.3704 19.0032 23.3704 20.7095 23.3704C21.1232 23.3704 21.4038 23.1192 21.4038 22.7499C21.4038 22.3879 21.1232 22.1368 20.7095 22.1368C19.8601 22.1368 19.0033 22.1368 18.1538 22.1368H18.1464ZM12.8872 10.9387C12.0229 10.9387 11.1513 10.9387 10.2871 10.9387C9.91037 10.9387 9.64445 11.1899 9.63706 11.5297C9.62967 11.8917 9.90292 12.1576 10.3166 12.1649C11.2473 12.1649 12.1706 12.1649 13.1013 12.1649C13.8769 12.1649 14.6599 12.1649 15.4355 12.1649C15.7088 12.1649 15.9304 12.0837 16.0633 11.8252C16.2849 11.4042 15.9895 10.9387 15.4872 10.9314C14.6229 10.9314 13.7514 10.9314 12.8872 10.9314V10.9387ZM18.1538 18.089C19.018 18.089 19.8896 18.089 20.7538 18.089C21.1305 18.089 21.4038 17.8231 21.4038 17.4759C21.4038 17.1362 21.1379 16.8702 20.7686 16.8628C20.6061 16.8628 20.4437 16.8628 20.2811 16.8628C18.7226 16.8628 17.1713 16.8628 15.6128 16.8628C15.3469 16.8628 15.1327 16.9441 14.9923 17.1805C14.756 17.5941 15.0514 18.089 15.5389 18.089C16.4105 18.089 17.2821 18.089 18.1611 18.089H18.1538ZM11.9195 9.52798C12.4439 9.52798 12.9684 9.52798 13.4928 9.52798C13.8917 9.52798 14.165 9.26939 14.165 8.91483C14.165 8.56028 13.8843 8.30178 13.4854 8.30178C12.4292 8.30178 11.3728 8.30178 10.3166 8.30178C9.91769 8.30178 9.64445 8.56767 9.64445 8.92223C9.64445 9.27678 9.9177 9.52798 10.324 9.52798C10.8558 9.52798 11.3877 9.52798 11.9195 9.52798ZM16.8538 14.2332C16.4253 14.2332 15.9969 14.2332 15.5685 14.2332C15.1918 14.2332 14.9185 14.4991 14.9185 14.8463C14.9185 15.1934 15.1917 15.4593 15.5758 15.4593C16.4253 15.4593 17.2822 15.4593 18.1316 15.4593C18.5157 15.4593 18.7817 15.2008 18.7817 14.8463C18.7817 14.4917 18.5157 14.2406 18.1316 14.2332C17.7106 14.2332 17.2896 14.2332 16.8612 14.2332H16.8538ZM16.8316 20.7334C17.2526 20.7334 17.681 20.7334 18.1021 20.7334C18.5083 20.7334 18.7743 20.4823 18.7743 20.1203C18.7743 19.7584 18.5083 19.5073 18.1021 19.5073C17.2674 19.5073 16.4327 19.5073 15.6054 19.5073C15.1991 19.5073 14.9259 19.7584 14.9259 20.1129C14.9259 20.4749 15.1991 20.7334 15.6128 20.7334C16.019 20.7334 16.4327 20.7334 16.839 20.7334H16.8316Z" fill="#0671B8"/>
<path d="M23.5607 10.2739H23.3983C22.2533 10.2739 21.101 10.2739 19.9561 10.2739C19.1657 10.2739 18.7595 9.86767 18.7595 9.06992C18.7595 7.85113 18.7595 6.63974 18.7595 5.47266C20.3476 7.06077 21.9578 8.67104 23.5533 10.2665L23.5607 10.2739Z" fill="#0671B8"/>
<path d="M12.2592 20.7407V22.122H10.878V20.7407H12.2592Z" fill="#FFB422"/>
<path d="M12.2593 16.8481H10.8706V15.4668H12.2593V16.8481Z" fill="#FFB422"/>
<path d="M8.89101 5H7.74605C7.33402 5 7 5.33402 7 5.74605V6.89092C7 7.30295 7.33402 7.63697 7.74605 7.63697H8.89101C9.30304 7.63697 9.63706 7.30295 9.63706 6.89092V5.74605C9.63706 5.33402 9.30304 5 8.89101 5Z" fill="#0671B8"/>
<path d="M8.89101 22.4912H7.74605C7.33402 22.4912 7 22.8252 7 23.2373V25.2538C7 25.6658 7.33402 25.9998 7.74605 25.9998H8.89101C9.30304 25.9998 9.63706 25.6658 9.63706 25.2538V23.2373C9.63706 22.8252 9.30304 22.4912 8.89101 22.4912Z" fill="#0671B8"/>
<path d="M23.2875 22.4912H22.1425C21.7305 22.4912 21.3965 22.8252 21.3965 23.2373V25.2538C21.3965 25.6658 21.7305 25.9998 22.1425 25.9998H23.2875C23.6995 25.9998 24.0335 25.6658 24.0335 25.2538V23.2373C24.0335 22.8252 23.6995 22.4912 23.2875 22.4912Z" fill="#0671B8"/>
</svg>
