<svg width="32" height="32" viewBox="0 0 32 32" fill="none" xmlns="http://www.w3.org/2000/svg">
<path d="M5 26.2975C5 21.955 5 17.6045 5 13.262C5.16581 13.0962 5.30003 12.8988 5.48952 12.7645C8.64774 10.5775 11.8138 8.39827 14.98 6.2191C15.4063 5.92697 15.5879 5.92697 16.0222 6.2191C19.2041 8.41406 22.386 10.6091 25.5758 12.7882C25.8758 12.9935 26.0021 13.2382 26.0021 13.6093C26.0021 17.7071 25.9942 21.8049 26.0021 25.9027C26.0021 26.4396 25.8126 26.8107 25.2994 26.9844H23.3729C23.3729 23.5262 23.3729 20.0679 23.3729 16.6097C23.3729 15.9543 23.0334 15.6148 22.3781 15.6148C17.7908 15.6148 13.2114 15.6148 8.62405 15.6148C7.96872 15.6148 7.6292 15.9543 7.6292 16.6097C7.6292 20.0679 7.6292 23.5262 7.6292 26.9844H5.70269C5.35529 26.8739 5.11842 26.637 5.00788 26.2896L5 26.2975Z" fill="#0671B8"/>
<path d="M16.2353 26.9923C15.9984 26.8581 15.9274 26.6607 15.9353 26.4002C15.9432 25.3264 15.9353 24.2525 15.9353 23.1866C15.9353 22.7682 16.0774 22.6182 16.5038 22.6182C16.9617 22.6182 17.4197 22.6182 17.9013 22.6182C17.9013 22.8313 17.9013 23.0287 17.9013 23.2261C17.9013 23.6525 18.1697 23.9367 18.5566 23.9289C18.9356 23.9289 19.204 23.6367 19.2119 23.2182C19.2119 23.0287 19.2119 22.8392 19.2119 22.6182C19.3541 22.6182 19.4883 22.6182 19.6146 22.6182C19.9778 22.6182 20.341 22.6182 20.7042 22.6182C21.0042 22.6182 21.1779 22.7918 21.1858 23.0919C21.1858 24.2288 21.1858 25.3738 21.1858 26.5107C21.1858 26.7397 21.0595 26.8897 20.87 26.9923H16.2353Z" fill="#FFB422"/>
<path d="M10.1321 26.9923C9.88731 26.8739 9.80835 26.6765 9.80835 26.4081C9.80835 25.3343 9.80835 24.2604 9.80835 23.1945C9.80835 22.7682 9.95836 22.6182 10.3926 22.6182C10.8427 22.6182 11.2927 22.6182 11.7743 22.6182C11.7743 22.8471 11.7743 23.0603 11.7743 23.2814C11.7901 23.5972 11.9875 23.842 12.2639 23.913C12.5481 23.9841 12.8481 23.8657 12.9823 23.613C13.0376 23.5025 13.0692 23.3683 13.0771 23.2419C13.0929 23.0446 13.0771 22.8472 13.0771 22.6419C13.1403 22.634 13.1797 22.6182 13.2271 22.6182C13.6614 22.6182 14.1035 22.6182 14.5378 22.6182C14.8773 22.6182 15.0431 22.784 15.0431 23.1235C15.0431 24.2447 15.0431 25.3658 15.0431 26.487C15.0431 26.7318 14.9326 26.8818 14.7431 27.0002H10.1084L10.1321 26.9923Z" fill="#FFB422"/>
<path d="M14.8457 17.3758C14.8457 17.6047 14.8457 17.8101 14.8457 18.0153C14.8457 18.4022 15.1299 18.6864 15.501 18.6785C15.8721 18.6785 16.1485 18.3943 16.1564 18.0074C16.1564 17.8022 16.1564 17.5968 16.1564 17.3679C16.4643 17.3679 16.7643 17.3679 17.0644 17.3679C17.2538 17.3679 17.4433 17.3679 17.6407 17.3679C17.9565 17.3758 18.1224 17.5415 18.1224 17.8495C18.1224 18.9864 18.1224 20.1155 18.1224 21.2525C18.1224 21.5604 17.9486 21.742 17.6407 21.742C16.2116 21.742 14.7825 21.742 13.3534 21.742C13.0455 21.742 12.8718 21.5683 12.8718 21.2525C12.8718 20.1155 12.8718 18.9864 12.8718 17.8495C12.8718 17.5652 13.0297 17.3758 13.2982 17.3679C13.8035 17.3521 14.3088 17.3679 14.8378 17.3679L14.8457 17.3758Z" fill="#FFB422"/>
</svg>
