<svg width="32" height="32" viewBox="0 0 32 32" fill="none" xmlns="http://www.w3.org/2000/svg">
<path d="M5 7.82808C5.1478 7.43914 5.43561 7.29919 5.84788 7.30697C6.76577 7.32252 7.69144 7.30697 8.61711 7.30697H8.86604C8.88937 7.0736 8.91271 6.8635 8.92827 6.6457C8.95938 6.25676 9.21608 6.00778 9.60502 6C9.65947 6 9.70614 6 9.76059 6C13.5877 6 17.4149 6 21.242 6C21.3665 6 21.4909 6.00004 21.6076 6.03893C21.8954 6.1245 22.051 6.33453 22.0588 6.63012C22.0588 6.84793 22.0588 7.06582 22.0588 7.30697C22.1599 7.30697 22.2377 7.30697 22.3155 7.30697C23.2801 7.30697 24.2446 7.30697 25.2092 7.30697C25.707 7.30697 25.9793 7.587 25.9948 8.08484C26.0259 9.22832 25.9248 10.3485 25.4659 11.4064C24.4546 13.7244 22.6966 15.1478 20.2386 15.7079C20.0519 15.7545 19.9352 15.8324 19.8263 15.9958C19.4762 16.5092 19.1029 17.007 18.7217 17.5048C18.675 17.567 18.5584 17.5982 18.4806 17.5982C16.4892 17.5982 14.5056 17.5982 12.5143 17.5982C12.4287 17.5982 12.312 17.5437 12.2653 17.4737C11.8764 16.9525 11.5108 16.4235 11.1296 15.9101C11.0752 15.8323 10.9741 15.7624 10.8807 15.7468C7.87036 15.1789 5.66897 12.9776 5.1089 9.96724C5.06223 9.73387 5.03889 9.4928 5 9.25944C5 8.77716 5 8.30258 5 7.8203V7.82808ZM13.58 14.1289C13.58 14.4945 14.0389 14.7667 14.3656 14.6033C14.7001 14.4322 15.0268 14.2456 15.3691 14.0822C15.4469 14.0433 15.5635 14.0433 15.6413 14.0822C15.968 14.2378 16.287 14.4089 16.6059 14.5878C16.8004 14.6967 16.987 14.6889 17.1582 14.5644C17.3371 14.4322 17.4538 14.2533 17.4149 14.0044C17.3526 13.6232 17.306 13.2421 17.236 12.8687C17.2126 12.7365 17.236 12.651 17.3371 12.5654C17.6016 12.3087 17.8894 12.0676 18.115 11.772C18.2472 11.593 18.3717 11.3363 18.3483 11.1263C18.3172 10.8851 18.0294 10.7996 17.7805 10.7607C17.7649 10.7607 17.7494 10.7607 17.7416 10.7529C17.446 10.7062 17.1504 10.6674 16.8626 10.6129C16.777 10.5974 16.6681 10.5196 16.6214 10.4418C16.4425 10.1151 16.2947 9.78062 16.1158 9.45391C15.9991 9.22832 15.8125 9.08055 15.5402 9.08833C15.2757 9.08833 15.1201 9.23612 15.0112 9.46948C14.8634 9.79619 14.7001 10.1229 14.5212 10.4418C14.4745 10.5196 14.3734 10.5974 14.28 10.6129C13.9378 10.6829 13.5955 10.7218 13.2533 10.7918C13.0121 10.8385 12.8176 10.963 12.7399 11.2119C12.6621 11.4608 12.7554 11.6629 12.9343 11.8418C13.191 12.0908 13.4399 12.3397 13.6889 12.5964C13.7433 12.6508 13.7744 12.7598 13.7666 12.8375C13.7122 13.2732 13.6422 13.7089 13.58 14.1367V14.1289ZM20.8142 14.1988C22.1521 13.7088 23.1556 12.8998 23.8635 11.733C24.4391 10.784 24.7036 9.74946 24.6802 8.6371H22.0588C21.9966 10.5585 21.631 12.4097 20.8142 14.2066V14.1988ZM6.33795 8.62932C6.19793 11.0096 7.8548 13.452 10.1729 14.1677C9.33276 12.4097 8.94382 10.5584 8.87381 8.62932H6.33795Z" fill="#0671B8" stroke="#0671B8" stroke-width="0.15" stroke-miterlimit="10"/>
<path d="M10.7485 26.9946C10.3673 26.8624 10.2351 26.5901 10.2429 26.209C10.2584 25.6956 10.2429 25.1822 10.2429 24.661C10.2429 24.1943 10.4607 23.9766 10.9196 23.9766C13.9689 23.9766 17.0104 23.9766 20.0597 23.9766C20.5264 23.9766 20.7286 24.1865 20.7286 24.661C20.7286 25.1744 20.7209 25.6878 20.7286 26.209C20.7364 26.5979 20.6042 26.8702 20.2308 26.9946H10.7329H10.7485Z" fill="#FFB422"/>
<path d="M12.942 18.8584H18.0449C18.0605 19.0062 18.0683 19.1463 18.0916 19.2863C18.2394 20.1964 18.7294 20.9276 19.3128 21.5965C19.4295 21.7288 19.5773 21.8377 19.6629 21.9855C19.7329 22.0944 19.7796 22.2733 19.7407 22.3744C19.694 22.4755 19.5229 22.5222 19.4062 22.5922C19.3751 22.6078 19.3362 22.5922 19.2973 22.5922C16.8081 22.5922 14.3189 22.5922 11.8297 22.5922C11.783 22.5922 11.7364 22.6078 11.6975 22.5922C11.5808 22.53 11.4252 22.4755 11.3863 22.3744C11.3474 22.2733 11.3863 22.0944 11.4485 22.001C11.6819 21.6743 11.9541 21.3866 12.1875 21.0598C12.6465 20.4064 12.9265 19.6829 12.942 18.8584Z" fill="#FFB422"/>
</svg>
