<svg width="71" height="10" viewBox="0 0 71 10" fill="none" xmlns="http://www.w3.org/2000/svg">
<path d="M0.0568182 9.17383V0.446555H1.11364V8.23633H5.17045V9.17383H0.0568182ZM9.41477 9.31019C8.78409 9.31019 8.24006 9.17099 7.78267 8.89258C7.32812 8.61133 6.97727 8.21928 6.73011 7.71644C6.4858 7.21076 6.36364 6.62269 6.36364 5.95224C6.36364 5.28178 6.4858 4.69087 6.73011 4.17951C6.97727 3.66531 7.32102 3.26474 7.76136 2.97781C8.20455 2.68803 8.72159 2.54315 9.3125 2.54315C9.65341 2.54315 9.99006 2.59996 10.3224 2.7136C10.6548 2.82724 10.9574 3.0119 11.2301 3.26758C11.5028 3.52042 11.7202 3.85565 11.8821 4.27326C12.044 4.69087 12.125 5.20508 12.125 5.81587V6.24201H7.07955V5.37269H11.1023C11.1023 5.00337 11.0284 4.67383 10.8807 4.38406C10.7358 4.09428 10.5284 3.86559 10.2585 3.69798C9.99148 3.53036 9.67614 3.44656 9.3125 3.44656C8.91193 3.44656 8.56534 3.54599 8.27273 3.74485C7.98295 3.94087 7.75994 4.19656 7.60369 4.5119C7.44744 4.82724 7.36932 5.16531 7.36932 5.5261V6.10565C7.36932 6.59996 7.45455 7.019 7.625 7.36275C7.7983 7.70366 8.03835 7.9636 8.34517 8.14258C8.65199 8.31871 9.00852 8.40678 9.41477 8.40678C9.67898 8.40678 9.91761 8.36985 10.1307 8.29599C10.3466 8.21928 10.5327 8.10565 10.6889 7.95508C10.8452 7.80167 10.9659 7.61133 11.0511 7.38406L12.0227 7.65678C11.9205 7.98633 11.7486 8.2761 11.5071 8.5261C11.2656 8.77326 10.9673 8.96644 10.6122 9.10565C10.2571 9.24201 9.85795 9.31019 9.41477 9.31019ZM15.581 9.32724C15.1662 9.32724 14.7898 9.24911 14.4517 9.09286C14.1136 8.93377 13.8452 8.70508 13.6463 8.40678C13.4474 8.10565 13.348 7.74201 13.348 7.31587C13.348 6.94087 13.4219 6.6369 13.5696 6.40394C13.7173 6.16815 13.9148 5.98349 14.1619 5.84996C14.4091 5.71644 14.6818 5.61701 14.9801 5.55167C15.2813 5.48349 15.5838 5.42951 15.8878 5.38974C16.2855 5.3386 16.608 5.30025 16.8551 5.27468C17.1051 5.24627 17.2869 5.1994 17.4006 5.13406C17.517 5.06871 17.5753 4.95508 17.5753 4.79315V4.75906C17.5753 4.3386 17.4602 4.0119 17.2301 3.77894C17.0028 3.54599 16.6577 3.42951 16.1946 3.42951C15.7145 3.42951 15.3381 3.53462 15.0653 3.74485C14.7926 3.95508 14.6009 4.17951 14.4901 4.41815L13.5355 4.07724C13.706 3.67951 13.9332 3.36985 14.2173 3.14826C14.5043 2.92383 14.8168 2.76758 15.1548 2.67951C15.4957 2.5886 15.831 2.54315 16.1605 2.54315C16.3707 2.54315 16.6122 2.56871 16.8849 2.61985C17.1605 2.66815 17.4261 2.769 17.6818 2.92241C17.9403 3.07582 18.1548 3.30735 18.3253 3.61701C18.4957 3.92667 18.581 4.34144 18.581 4.86133V9.17383H17.5753V8.28746H17.5241C17.456 8.42951 17.3423 8.5815 17.1832 8.74343C17.0241 8.90536 16.8125 9.04315 16.5483 9.15678C16.2841 9.27042 15.9616 9.32724 15.581 9.32724ZM15.7344 8.42383C16.1321 8.42383 16.4673 8.3457 16.7401 8.18945C17.0156 8.0332 17.223 7.8315 17.3622 7.58434C17.5043 7.33718 17.5753 7.07724 17.5753 6.80451V5.88406C17.5327 5.93519 17.4389 5.98207 17.294 6.02468C17.152 6.06445 16.9872 6.09996 16.7997 6.13121C16.6151 6.15962 16.4347 6.18519 16.2585 6.20792C16.0852 6.22781 15.9446 6.24485 15.8366 6.25906C15.5753 6.29315 15.331 6.34854 15.1037 6.42525C14.8793 6.49911 14.6974 6.61133 14.5582 6.7619C14.4219 6.90962 14.3537 7.11133 14.3537 7.36701C14.3537 7.71644 14.483 7.98065 14.7415 8.15962C15.0028 8.33576 15.3338 8.42383 15.7344 8.42383ZM22.8881 9.31019C22.3427 9.31019 21.8612 9.17241 21.4435 8.89684C21.0259 8.61843 20.6992 8.22638 20.4634 7.7207C20.2276 7.21218 20.1097 6.61133 20.1097 5.91815C20.1097 5.23065 20.2276 4.63406 20.4634 4.12837C20.6992 3.62269 21.0273 3.23207 21.4478 2.9565C21.8683 2.68093 22.354 2.54315 22.9052 2.54315C23.3313 2.54315 23.668 2.61417 23.9151 2.75621C24.1651 2.89542 24.3555 3.05451 24.4862 3.23349C24.6197 3.40962 24.7234 3.55451 24.7972 3.66815H24.8825V0.446555H25.8881V9.17383H24.9165V8.16815H24.7972C24.7234 8.28746 24.6183 8.43803 24.4819 8.61985C24.3455 8.79883 24.1509 8.95934 23.8981 9.10138C23.6452 9.24059 23.3086 9.31019 22.8881 9.31019ZM23.0245 8.40678C23.4279 8.40678 23.7688 8.30167 24.0472 8.09144C24.3256 7.87837 24.5373 7.58434 24.6822 7.20934C24.8271 6.8315 24.8995 6.39542 24.8995 5.9011C24.8995 5.41246 24.8285 4.98491 24.6864 4.61843C24.5444 4.24911 24.3342 3.96218 24.0558 3.75763C23.7773 3.55025 23.4336 3.44656 23.0245 3.44656C22.5984 3.44656 22.2433 3.55593 21.9592 3.77468C21.6779 3.99059 21.4663 4.28462 21.3242 4.65678C21.185 5.0261 21.1154 5.44087 21.1154 5.9011C21.1154 6.36701 21.1864 6.79031 21.3285 7.17099C21.4734 7.54883 21.6864 7.84996 21.9677 8.0744C22.2518 8.29599 22.604 8.40678 23.0245 8.40678ZM30.614 9.31019C29.9833 9.31019 29.4393 9.17099 28.9819 8.89258C28.5273 8.61133 28.1765 8.21928 27.9293 7.71644C27.685 7.21076 27.5629 6.62269 27.5629 5.95224C27.5629 5.28178 27.685 4.69087 27.9293 4.17951C28.1765 3.66531 28.5202 3.26474 28.9606 2.97781C29.4038 2.68803 29.9208 2.54315 30.5117 2.54315C30.8526 2.54315 31.1893 2.59996 31.5217 2.7136C31.854 2.82724 32.1566 3.0119 32.4293 3.26758C32.7021 3.52042 32.9194 3.85565 33.0813 4.27326C33.2433 4.69087 33.3242 5.20508 33.3242 5.81587V6.24201H28.2788V5.37269H32.3015C32.3015 5.00337 32.2276 4.67383 32.0799 4.38406C31.935 4.09428 31.7276 3.86559 31.4577 3.69798C31.1907 3.53036 30.8754 3.44656 30.5117 3.44656C30.1112 3.44656 29.7646 3.54599 29.4719 3.74485C29.1822 3.94087 28.9592 4.19656 28.8029 4.5119C28.6467 4.82724 28.5685 5.16531 28.5685 5.5261V6.10565C28.5685 6.59996 28.6538 7.019 28.8242 7.36275C28.9975 7.70366 29.2376 7.9636 29.5444 8.14258C29.8512 8.31871 30.2077 8.40678 30.614 8.40678C30.8782 8.40678 31.1168 8.36985 31.3299 8.29599C31.5458 8.21928 31.7319 8.10565 31.8881 7.95508C32.0444 7.80167 32.1651 7.61133 32.2504 7.38406L33.2219 7.65678C33.1197 7.98633 32.9478 8.2761 32.7063 8.5261C32.4648 8.77326 32.1665 8.96644 31.8114 9.10565C31.4563 9.24201 31.0572 9.31019 30.614 9.31019ZM34.854 9.17383V2.62837H35.8256V3.61701H35.8938C36.0131 3.29315 36.229 3.03036 36.5415 2.82866C36.854 2.62695 37.2063 2.5261 37.5984 2.5261C37.6722 2.5261 37.7646 2.52752 37.8754 2.53036C37.9862 2.5332 38.07 2.53746 38.1268 2.54315V3.56587C38.0927 3.55735 38.0146 3.54457 37.8924 3.52752C37.7731 3.50763 37.6467 3.49769 37.5131 3.49769C37.195 3.49769 36.9109 3.56445 36.6609 3.69798C36.4137 3.82866 36.2177 4.01048 36.0728 4.24343C35.9308 4.47354 35.8597 4.73633 35.8597 5.03178V9.17383H34.854ZM39.4553 9.17383V0.446555H40.4609V3.66815H40.5462C40.62 3.55451 40.7223 3.40962 40.853 3.23349C40.9865 3.05451 41.1768 2.89542 41.424 2.75621C41.674 2.61417 42.0121 2.54315 42.4382 2.54315C42.9893 2.54315 43.4751 2.68093 43.8956 2.9565C44.3161 3.23207 44.6442 3.62269 44.88 4.12837C45.1158 4.63406 45.2337 5.23065 45.2337 5.91815C45.2337 6.61133 45.1158 7.21218 44.88 7.7207C44.6442 8.22638 44.3175 8.61843 43.8999 8.89684C43.4822 9.17241 43.0007 9.31019 42.4553 9.31019C42.0348 9.31019 41.6982 9.24059 41.4453 9.10138C41.1925 8.95934 40.9979 8.79883 40.8615 8.61985C40.7251 8.43803 40.62 8.28746 40.5462 8.16815H40.4268V9.17383H39.4553ZM40.4439 5.9011C40.4439 6.39542 40.5163 6.8315 40.6612 7.20934C40.8061 7.58434 41.0178 7.87837 41.2962 8.09144C41.5746 8.30167 41.9155 8.40678 42.3189 8.40678C42.7393 8.40678 43.0902 8.29599 43.3714 8.0744C43.6555 7.84996 43.8686 7.54883 44.0107 7.17099C44.1555 6.79031 44.228 6.36701 44.228 5.9011C44.228 5.44087 44.157 5.0261 44.0149 4.65678C43.8757 4.28462 43.6641 3.99059 43.38 3.77468C43.0987 3.55593 42.745 3.44656 42.3189 3.44656C41.9098 3.44656 41.5661 3.55025 41.2876 3.75763C41.0092 3.96218 40.799 4.24911 40.657 4.61843C40.5149 4.98491 40.4439 5.41246 40.4439 5.9011ZM49.4311 9.31019C48.8402 9.31019 48.3217 9.16957 47.8757 8.88832C47.4325 8.60707 47.0859 8.2136 46.8359 7.70792C46.5888 7.20224 46.4652 6.61133 46.4652 5.93519C46.4652 5.25337 46.5888 4.6582 46.8359 4.14968C47.0859 3.64116 47.4325 3.24627 47.8757 2.96502C48.3217 2.68377 48.8402 2.54315 49.4311 2.54315C50.022 2.54315 50.5391 2.68377 50.9822 2.96502C51.4283 3.24627 51.7749 3.64116 52.022 4.14968C52.272 4.6582 52.397 5.25337 52.397 5.93519C52.397 6.61133 52.272 7.20224 52.022 7.70792C51.7749 8.2136 51.4283 8.60707 50.9822 8.88832C50.5391 9.16957 50.022 9.31019 49.4311 9.31019ZM49.4311 8.40678C49.88 8.40678 50.2493 8.29173 50.5391 8.06161C50.8288 7.8315 51.0433 7.52894 51.1825 7.15394C51.3217 6.77894 51.3913 6.37269 51.3913 5.93519C51.3913 5.49769 51.3217 5.09002 51.1825 4.71218C51.0433 4.33434 50.8288 4.02894 50.5391 3.79599C50.2493 3.56303 49.88 3.44656 49.4311 3.44656C48.9822 3.44656 48.6129 3.56303 48.3232 3.79599C48.0334 4.02894 47.8189 4.33434 47.6797 4.71218C47.5405 5.09002 47.4709 5.49769 47.4709 5.93519C47.4709 6.37269 47.5405 6.77894 47.6797 7.15394C47.8189 7.52894 48.0334 7.8315 48.3232 8.06161C48.6129 8.29173 48.9822 8.40678 49.4311 8.40678ZM55.8583 9.32724C55.4435 9.32724 55.0671 9.24911 54.729 9.09286C54.391 8.93377 54.1225 8.70508 53.9237 8.40678C53.7248 8.10565 53.6254 7.74201 53.6254 7.31587C53.6254 6.94087 53.6992 6.6369 53.8469 6.40394C53.9947 6.16815 54.1921 5.98349 54.4393 5.84996C54.6864 5.71644 54.9592 5.61701 55.2575 5.55167C55.5586 5.48349 55.8612 5.42951 56.1651 5.38974C56.5629 5.3386 56.8853 5.30025 57.1325 5.27468C57.3825 5.24627 57.5643 5.1994 57.6779 5.13406C57.7944 5.06871 57.8526 4.95508 57.8526 4.79315V4.75906C57.8526 4.3386 57.7376 4.0119 57.5075 3.77894C57.2802 3.54599 56.935 3.42951 56.4719 3.42951C55.9918 3.42951 55.6154 3.53462 55.3427 3.74485C55.07 3.95508 54.8782 4.17951 54.7674 4.41815L53.8129 4.07724C53.9833 3.67951 54.2106 3.36985 54.4947 3.14826C54.7816 2.92383 55.0941 2.76758 55.4322 2.67951C55.7731 2.5886 56.1083 2.54315 56.4379 2.54315C56.6481 2.54315 56.8896 2.56871 57.1623 2.61985C57.4379 2.66815 57.7035 2.769 57.9592 2.92241C58.2177 3.07582 58.4322 3.30735 58.6026 3.61701C58.7731 3.92667 58.8583 4.34144 58.8583 4.86133V9.17383H57.8526V8.28746H57.8015C57.7333 8.42951 57.6197 8.5815 57.4606 8.74343C57.3015 8.90536 57.0898 9.04315 56.8256 9.15678C56.5614 9.27042 56.239 9.32724 55.8583 9.32724ZM56.0117 8.42383C56.4094 8.42383 56.7447 8.3457 57.0174 8.18945C57.293 8.0332 57.5004 7.8315 57.6396 7.58434C57.7816 7.33718 57.8526 7.07724 57.8526 6.80451V5.88406C57.81 5.93519 57.7163 5.98207 57.5714 6.02468C57.4293 6.06445 57.2646 6.09996 57.0771 6.13121C56.8924 6.15962 56.712 6.18519 56.5359 6.20792C56.3626 6.22781 56.2219 6.24485 56.114 6.25906C55.8526 6.29315 55.6083 6.34854 55.381 6.42525C55.1566 6.49911 54.9748 6.61133 54.8356 6.7619C54.6992 6.90962 54.631 7.11133 54.631 7.36701C54.631 7.71644 54.7603 7.98065 55.0188 8.15962C55.2802 8.33576 55.6112 8.42383 56.0117 8.42383ZM60.6939 9.17383V2.62837H61.6655V3.61701H61.7337C61.853 3.29315 62.0689 3.03036 62.3814 2.82866C62.6939 2.62695 63.0462 2.5261 63.4382 2.5261C63.5121 2.5261 63.6044 2.52752 63.7152 2.53036C63.826 2.5332 63.9098 2.53746 63.9666 2.54315V3.56587C63.9325 3.55735 63.8544 3.54457 63.7322 3.52752C63.6129 3.50763 63.4865 3.49769 63.353 3.49769C63.0348 3.49769 62.7507 3.56445 62.5007 3.69798C62.2536 3.82866 62.0575 4.01048 61.9126 4.24343C61.7706 4.47354 61.6996 4.73633 61.6996 5.03178V9.17383H60.6939ZM67.4311 9.31019C66.8857 9.31019 66.4041 9.17241 65.9865 8.89684C65.5689 8.61843 65.2422 8.22638 65.0064 7.7207C64.7706 7.21218 64.6527 6.61133 64.6527 5.91815C64.6527 5.23065 64.7706 4.63406 65.0064 4.12837C65.2422 3.62269 65.5703 3.23207 65.9908 2.9565C66.4112 2.68093 66.897 2.54315 67.4482 2.54315C67.8743 2.54315 68.2109 2.61417 68.4581 2.75621C68.7081 2.89542 68.8984 3.05451 69.0291 3.23349C69.1626 3.40962 69.2663 3.55451 69.3402 3.66815H69.4254V0.446555H70.4311V9.17383H69.4595V8.16815H69.3402C69.2663 8.28746 69.1612 8.43803 69.0249 8.61985C68.8885 8.79883 68.6939 8.95934 68.4411 9.10138C68.1882 9.24059 67.8516 9.31019 67.4311 9.31019ZM67.5675 8.40678C67.9709 8.40678 68.3118 8.30167 68.5902 8.09144C68.8686 7.87837 69.0803 7.58434 69.2251 7.20934C69.37 6.8315 69.4425 6.39542 69.4425 5.9011C69.4425 5.41246 69.3714 4.98491 69.2294 4.61843C69.0874 4.24911 68.8771 3.96218 68.5987 3.75763C68.3203 3.55025 67.9766 3.44656 67.5675 3.44656C67.1413 3.44656 66.7862 3.55593 66.5021 3.77468C66.2209 3.99059 66.0092 4.28462 65.8672 4.65678C65.728 5.0261 65.6584 5.44087 65.6584 5.9011C65.6584 6.36701 65.7294 6.79031 65.8714 7.17099C66.0163 7.54883 66.2294 7.84996 66.5107 8.0744C66.7947 8.29599 67.147 8.40678 67.5675 8.40678Z" fill="black"/>
</svg>
