<svg width="72" height="27" viewBox="0 0 72 27" fill="none" xmlns="http://www.w3.org/2000/svg">
<path d="M0.960627 9.17383V0.446555H2.01745V8.23633H6.07426V9.17383H0.960627ZM10.3186 9.31019C9.6879 9.31019 9.14387 9.17099 8.68648 8.89258C8.23193 8.61133 7.88108 8.21928 7.63392 7.71644C7.3896 7.21076 7.26744 6.62269 7.26744 5.95224C7.26744 5.28178 7.3896 4.69087 7.63392 4.17951C7.88108 3.66531 8.22483 3.26474 8.66517 2.97781C9.10835 2.68803 9.6254 2.54315 10.2163 2.54315C10.5572 2.54315 10.8939 2.59996 11.2263 2.7136C11.5586 2.82724 11.8612 3.0119 12.1339 3.26758C12.4066 3.52042 12.624 3.85565 12.7859 4.27326C12.9478 4.69087 13.0288 5.20508 13.0288 5.81587V6.24201H7.98335V5.37269H12.0061C12.0061 5.00337 11.9322 4.67383 11.7845 4.38406C11.6396 4.09428 11.4322 3.86559 11.1623 3.69798C10.8953 3.53036 10.5799 3.44656 10.2163 3.44656C9.81574 3.44656 9.46915 3.54599 9.17654 3.74485C8.88676 3.94087 8.66375 4.19656 8.5075 4.5119C8.35125 4.82724 8.27313 5.16531 8.27313 5.5261V6.10565C8.27313 6.59996 8.35835 7.019 8.52881 7.36275C8.7021 7.70366 8.94216 7.9636 9.24898 8.14258C9.5558 8.31871 9.91233 8.40678 10.3186 8.40678C10.5828 8.40678 10.8214 8.36985 11.0345 8.29599C11.2504 8.21928 11.4365 8.10565 11.5927 7.95508C11.749 7.80167 11.8697 7.61133 11.9549 7.38406L12.9265 7.65678C12.8243 7.98633 12.6524 8.2761 12.4109 8.5261C12.1694 8.77326 11.8711 8.96644 11.516 9.10565C11.1609 9.24201 10.7618 9.31019 10.3186 9.31019ZM16.4848 9.32724C16.07 9.32724 15.6936 9.24911 15.3555 9.09286C15.0174 8.93377 14.749 8.70508 14.5501 8.40678C14.3513 8.10565 14.2518 7.74201 14.2518 7.31587C14.2518 6.94087 14.3257 6.6369 14.4734 6.40394C14.6211 6.16815 14.8186 5.98349 15.0657 5.84996C15.3129 5.71644 15.5856 5.61701 15.8839 5.55167C16.1851 5.48349 16.4876 5.42951 16.7916 5.38974C17.1893 5.3386 17.5118 5.30025 17.7589 5.27468C18.0089 5.24627 18.1907 5.1994 18.3044 5.13406C18.4209 5.06871 18.4791 4.95508 18.4791 4.79315V4.75906C18.4791 4.3386 18.364 4.0119 18.1339 3.77894C17.9066 3.54599 17.5615 3.42951 17.0984 3.42951C16.6183 3.42951 16.2419 3.53462 15.9691 3.74485C15.6964 3.95508 15.5047 4.17951 15.3939 4.41815L14.4393 4.07724C14.6098 3.67951 14.837 3.36985 15.1211 3.14826C15.4081 2.92383 15.7206 2.76758 16.0586 2.67951C16.3995 2.5886 16.7348 2.54315 17.0643 2.54315C17.2745 2.54315 17.516 2.56871 17.7888 2.61985C18.0643 2.66815 18.3299 2.769 18.5856 2.92241C18.8441 3.07582 19.0586 3.30735 19.2291 3.61701C19.3995 3.92667 19.4848 4.34144 19.4848 4.86133V9.17383H18.4791V8.28746H18.428C18.3598 8.42951 18.2461 8.5815 18.087 8.74343C17.928 8.90536 17.7163 9.04315 17.4521 9.15678C17.1879 9.27042 16.8655 9.32724 16.4848 9.32724ZM16.6382 8.42383C17.0359 8.42383 17.3711 8.3457 17.6439 8.18945C17.9194 8.0332 18.1268 7.8315 18.266 7.58434C18.4081 7.33718 18.4791 7.07724 18.4791 6.80451V5.88406C18.4365 5.93519 18.3427 5.98207 18.1978 6.02468C18.0558 6.06445 17.891 6.09996 17.7035 6.13121C17.5189 6.15962 17.3385 6.18519 17.1623 6.20792C16.989 6.22781 16.8484 6.24485 16.7405 6.25906C16.4791 6.29315 16.2348 6.34854 16.0075 6.42525C15.7831 6.49911 15.6013 6.61133 15.462 6.7619C15.3257 6.90962 15.2575 7.11133 15.2575 7.36701C15.2575 7.71644 15.3868 7.98065 15.6453 8.15962C15.9066 8.33576 16.2376 8.42383 16.6382 8.42383ZM23.7919 9.31019C23.2465 9.31019 22.765 9.17241 22.3473 8.89684C21.9297 8.61843 21.603 8.22638 21.3672 7.7207C21.1314 7.21218 21.0135 6.61133 21.0135 5.91815C21.0135 5.23065 21.1314 4.63406 21.3672 4.12837C21.603 3.62269 21.9312 3.23207 22.3516 2.9565C22.7721 2.68093 23.2579 2.54315 23.809 2.54315C24.2351 2.54315 24.5718 2.61417 24.8189 2.75621C25.0689 2.89542 25.2593 3.05451 25.39 3.23349C25.5235 3.40962 25.6272 3.55451 25.701 3.66815H25.7863V0.446555H26.7919V9.17383H25.8204V8.16815H25.701C25.6272 8.28746 25.5221 8.43803 25.3857 8.61985C25.2493 8.79883 25.0547 8.95934 24.8019 9.10138C24.5491 9.24059 24.2124 9.31019 23.7919 9.31019ZM23.9283 8.40678C24.3317 8.40678 24.6726 8.30167 24.951 8.09144C25.2294 7.87837 25.4411 7.58434 25.586 7.20934C25.7309 6.8315 25.8033 6.39542 25.8033 5.9011C25.8033 5.41246 25.7323 4.98491 25.5902 4.61843C25.4482 4.24911 25.238 3.96218 24.9596 3.75763C24.6812 3.55025 24.3374 3.44656 23.9283 3.44656C23.5022 3.44656 23.1471 3.55593 22.863 3.77468C22.5817 3.99059 22.3701 4.28462 22.228 4.65678C22.0888 5.0261 22.0192 5.44087 22.0192 5.9011C22.0192 6.36701 22.0902 6.79031 22.2323 7.17099C22.3772 7.54883 22.5902 7.84996 22.8715 8.0744C23.1556 8.29599 23.5079 8.40678 23.9283 8.40678ZM31.5178 9.31019C30.8871 9.31019 30.3431 9.17099 29.8857 8.89258C29.4312 8.61133 29.0803 8.21928 28.8331 7.71644C28.5888 7.21076 28.4667 6.62269 28.4667 5.95224C28.4667 5.28178 28.5888 4.69087 28.8331 4.17951C29.0803 3.66531 29.4241 3.26474 29.8644 2.97781C30.3076 2.68803 30.8246 2.54315 31.4155 2.54315C31.7564 2.54315 32.0931 2.59996 32.4255 2.7136C32.7579 2.82724 33.0604 3.0119 33.3331 3.26758C33.6059 3.52042 33.8232 3.85565 33.9851 4.27326C34.1471 4.69087 34.228 5.20508 34.228 5.81587V6.24201H29.1826V5.37269H33.2053C33.2053 5.00337 33.1314 4.67383 32.9837 4.38406C32.8388 4.09428 32.6314 3.86559 32.3616 3.69798C32.0945 3.53036 31.7792 3.44656 31.4155 3.44656C31.015 3.44656 30.6684 3.54599 30.3758 3.74485C30.086 3.94087 29.863 4.19656 29.7067 4.5119C29.5505 4.82724 29.4723 5.16531 29.4723 5.5261V6.10565C29.4723 6.59996 29.5576 7.019 29.728 7.36275C29.9013 7.70366 30.1414 7.9636 30.4482 8.14258C30.755 8.31871 31.1116 8.40678 31.5178 8.40678C31.782 8.40678 32.0206 8.36985 32.2337 8.29599C32.4496 8.21928 32.6357 8.10565 32.7919 7.95508C32.9482 7.80167 33.0689 7.61133 33.1542 7.38406L34.1258 7.65678C34.0235 7.98633 33.8516 8.2761 33.6101 8.5261C33.3687 8.77326 33.0704 8.96644 32.7152 9.10565C32.3601 9.24201 31.961 9.31019 31.5178 9.31019ZM35.7579 9.17383V2.62837H36.7294V3.61701H36.7976C36.9169 3.29315 37.1329 3.03036 37.4454 2.82866C37.7579 2.62695 38.1101 2.5261 38.5022 2.5261C38.576 2.5261 38.6684 2.52752 38.7792 2.53036C38.89 2.5332 38.9738 2.53746 39.0306 2.54315V3.56587C38.9965 3.55735 38.9184 3.54457 38.7962 3.52752C38.6769 3.50763 38.5505 3.49769 38.4169 3.49769C38.0988 3.49769 37.8147 3.56445 37.5647 3.69798C37.3175 3.82866 37.1215 4.01048 36.9766 4.24343C36.8346 4.47354 36.7635 4.73633 36.7635 5.03178V9.17383H35.7579ZM40.3591 9.17383V0.446555H41.3647V3.66815H41.45C41.5238 3.55451 41.6261 3.40962 41.7568 3.23349C41.8903 3.05451 42.0807 2.89542 42.3278 2.75621C42.5778 2.61417 42.9159 2.54315 43.342 2.54315C43.8932 2.54315 44.379 2.68093 44.7994 2.9565C45.2199 3.23207 45.548 3.62269 45.7838 4.12837C46.0196 4.63406 46.1375 5.23065 46.1375 5.91815C46.1375 6.61133 46.0196 7.21218 45.7838 7.7207C45.548 8.22638 45.2213 8.61843 44.8037 8.89684C44.3861 9.17241 43.9045 9.31019 43.3591 9.31019C42.9386 9.31019 42.602 9.24059 42.3491 9.10138C42.0963 8.95934 41.9017 8.79883 41.7653 8.61985C41.629 8.43803 41.5238 8.28746 41.45 8.16815H41.3307V9.17383H40.3591ZM41.3477 5.9011C41.3477 6.39542 41.4201 6.8315 41.565 7.20934C41.7099 7.58434 41.9216 7.87837 42.2 8.09144C42.4784 8.30167 42.8193 8.40678 43.2227 8.40678C43.6432 8.40678 43.994 8.29599 44.2753 8.0744C44.5593 7.84996 44.7724 7.54883 44.9145 7.17099C45.0593 6.79031 45.1318 6.36701 45.1318 5.9011C45.1318 5.44087 45.0608 5.0261 44.9187 4.65678C44.7795 4.28462 44.5679 3.99059 44.2838 3.77468C44.0025 3.55593 43.6488 3.44656 43.2227 3.44656C42.8136 3.44656 42.4699 3.55025 42.1915 3.75763C41.913 3.96218 41.7028 4.24911 41.5608 4.61843C41.4187 4.98491 41.3477 5.41246 41.3477 5.9011ZM50.3349 9.31019C49.744 9.31019 49.2255 9.16957 48.7795 8.88832C48.3363 8.60707 47.9897 8.2136 47.7397 7.70792C47.4926 7.20224 47.369 6.61133 47.369 5.93519C47.369 5.25337 47.4926 4.6582 47.7397 4.14968C47.9897 3.64116 48.3363 3.24627 48.7795 2.96502C49.2255 2.68377 49.744 2.54315 50.3349 2.54315C50.9258 2.54315 51.4429 2.68377 51.8861 2.96502C52.3321 3.24627 52.6787 3.64116 52.9258 4.14968C53.1758 4.6582 53.3008 5.25337 53.3008 5.93519C53.3008 6.61133 53.1758 7.20224 52.9258 7.70792C52.6787 8.2136 52.3321 8.60707 51.8861 8.88832C51.4429 9.16957 50.9258 9.31019 50.3349 9.31019ZM50.3349 8.40678C50.7838 8.40678 51.1531 8.29173 51.4429 8.06161C51.7326 7.8315 51.9471 7.52894 52.0863 7.15394C52.2255 6.77894 52.2951 6.37269 52.2951 5.93519C52.2951 5.49769 52.2255 5.09002 52.0863 4.71218C51.9471 4.33434 51.7326 4.02894 51.4429 3.79599C51.1531 3.56303 50.7838 3.44656 50.3349 3.44656C49.8861 3.44656 49.5167 3.56303 49.227 3.79599C48.9372 4.02894 48.7227 4.33434 48.5835 4.71218C48.4443 5.09002 48.3747 5.49769 48.3747 5.93519C48.3747 6.37269 48.4443 6.77894 48.5835 7.15394C48.7227 7.52894 48.9372 7.8315 49.227 8.06161C49.5167 8.29173 49.8861 8.40678 50.3349 8.40678ZM56.7621 9.32724C56.3473 9.32724 55.9709 9.24911 55.6329 9.09286C55.2948 8.93377 55.0263 8.70508 54.8275 8.40678C54.6286 8.10565 54.5292 7.74201 54.5292 7.31587C54.5292 6.94087 54.603 6.6369 54.7508 6.40394C54.8985 6.16815 55.0959 5.98349 55.3431 5.84996C55.5902 5.71644 55.863 5.61701 56.1613 5.55167C56.4624 5.48349 56.765 5.42951 57.0689 5.38974C57.4667 5.3386 57.7891 5.30025 58.0363 5.27468C58.2863 5.24627 58.4681 5.1994 58.5817 5.13406C58.6982 5.06871 58.7564 4.95508 58.7564 4.79315V4.75906C58.7564 4.3386 58.6414 4.0119 58.4113 3.77894C58.184 3.54599 57.8388 3.42951 57.3758 3.42951C56.8956 3.42951 56.5192 3.53462 56.2465 3.74485C55.9738 3.95508 55.782 4.17951 55.6712 4.41815L54.7167 4.07724C54.8871 3.67951 55.1144 3.36985 55.3985 3.14826C55.6854 2.92383 55.9979 2.76758 56.336 2.67951C56.6769 2.5886 57.0121 2.54315 57.3417 2.54315C57.5519 2.54315 57.7934 2.56871 58.0661 2.61985C58.3417 2.66815 58.6073 2.769 58.863 2.92241C59.1215 3.07582 59.336 3.30735 59.5064 3.61701C59.6769 3.92667 59.7621 4.34144 59.7621 4.86133V9.17383H58.7564V8.28746H58.7053C58.6371 8.42951 58.5235 8.5815 58.3644 8.74343C58.2053 8.90536 57.9937 9.04315 57.7294 9.15678C57.4652 9.27042 57.1428 9.32724 56.7621 9.32724ZM56.9155 8.42383C57.3133 8.42383 57.6485 8.3457 57.9212 8.18945C58.1968 8.0332 58.4042 7.8315 58.5434 7.58434C58.6854 7.33718 58.7564 7.07724 58.7564 6.80451V5.88406C58.7138 5.93519 58.6201 5.98207 58.4752 6.02468C58.3331 6.06445 58.1684 6.09996 57.9809 6.13121C57.7962 6.15962 57.6158 6.18519 57.4397 6.20792C57.2664 6.22781 57.1258 6.24485 57.0178 6.25906C56.7564 6.29315 56.5121 6.34854 56.2848 6.42525C56.0604 6.49911 55.8786 6.61133 55.7394 6.7619C55.603 6.90962 55.5348 7.11133 55.5348 7.36701C55.5348 7.71644 55.6641 7.98065 55.9226 8.15962C56.184 8.33576 56.515 8.42383 56.9155 8.42383ZM61.5977 9.17383V2.62837H62.5693V3.61701H62.6375C62.7568 3.29315 62.9727 3.03036 63.2852 2.82866C63.5977 2.62695 63.95 2.5261 64.342 2.5261C64.4159 2.5261 64.5082 2.52752 64.619 2.53036C64.7298 2.5332 64.8136 2.53746 64.8704 2.54315V3.56587C64.8363 3.55735 64.7582 3.54457 64.6361 3.52752C64.5167 3.50763 64.3903 3.49769 64.2568 3.49769C63.9386 3.49769 63.6545 3.56445 63.4045 3.69798C63.1574 3.82866 62.9613 4.01048 62.8165 4.24343C62.6744 4.47354 62.6034 4.73633 62.6034 5.03178V9.17383H61.5977ZM68.3349 9.31019C67.7895 9.31019 67.3079 9.17241 66.8903 8.89684C66.4727 8.61843 66.146 8.22638 65.9102 7.7207C65.6744 7.21218 65.5565 6.61133 65.5565 5.91815C65.5565 5.23065 65.6744 4.63406 65.9102 4.12837C66.146 3.62269 66.4741 3.23207 66.8946 2.9565C67.315 2.68093 67.8008 2.54315 68.352 2.54315C68.7781 2.54315 69.1147 2.61417 69.3619 2.75621C69.6119 2.89542 69.8022 3.05451 69.9329 3.23349C70.0665 3.40962 70.1701 3.55451 70.244 3.66815H70.3292V0.446555H71.3349V9.17383H70.3633V8.16815H70.244C70.1701 8.28746 70.065 8.43803 69.9287 8.61985C69.7923 8.79883 69.5977 8.95934 69.3449 9.10138C69.092 9.24059 68.7554 9.31019 68.3349 9.31019ZM68.4713 8.40678C68.8747 8.40678 69.2156 8.30167 69.494 8.09144C69.7724 7.87837 69.9841 7.58434 70.129 7.20934C70.2738 6.8315 70.3463 6.39542 70.3463 5.9011C70.3463 5.41246 70.2753 4.98491 70.1332 4.61843C69.9912 4.24911 69.7809 3.96218 69.5025 3.75763C69.2241 3.55025 68.8804 3.44656 68.4713 3.44656C68.0451 3.44656 67.69 3.55593 67.4059 3.77468C67.1247 3.99059 66.913 4.28462 66.771 4.65678C66.6318 5.0261 66.5622 5.44087 66.5622 5.9011C66.5622 6.36701 66.6332 6.79031 66.7753 7.17099C66.9201 7.54883 67.1332 7.84996 67.4145 8.0744C67.6986 8.29599 68.0508 8.40678 68.4713 8.40678ZM18.0583 24.1738V15.4466H21.0071C21.689 15.4466 22.2486 15.563 22.6861 15.796C23.1236 16.0261 23.4475 16.3429 23.6577 16.7463C23.8679 17.1497 23.9731 17.6085 23.9731 18.1227C23.9731 18.6369 23.8679 19.0929 23.6577 19.4906C23.4475 19.8883 23.125 20.2008 22.6904 20.4281C22.2557 20.6525 21.7003 20.7647 21.0242 20.7647H18.6378V19.8102H20.9901C21.456 19.8102 21.831 19.742 22.1151 19.6056C22.402 19.4693 22.6094 19.2761 22.7373 19.0261C22.8679 18.7733 22.9333 18.4721 22.9333 18.1227C22.9333 17.7733 22.8679 17.4679 22.7373 17.2065C22.6066 16.9451 22.3978 16.7434 22.1108 16.6014C21.8239 16.4565 21.4446 16.3841 20.9731 16.3841H19.1151V24.1738H18.0583ZM22.1662 20.2534L24.314 24.1738H23.0867L20.9731 20.2534H22.1662ZM28.2717 24.3102C27.641 24.3102 27.097 24.171 26.6396 23.8926C26.1851 23.6113 25.8342 23.2193 25.587 22.7164C25.3427 22.2108 25.2206 21.6227 25.2206 20.9522C25.2206 20.2818 25.3427 19.6909 25.587 19.1795C25.8342 18.6653 26.178 18.2647 26.6183 17.9778C27.0615 17.688 27.5785 17.5431 28.1694 17.5431C28.5103 17.5431 28.847 17.6 29.1794 17.7136C29.5118 17.8272 29.8143 18.0119 30.087 18.2676C30.3598 18.5204 30.5771 18.8556 30.739 19.2733C30.901 19.6909 30.9819 20.2051 30.9819 20.8159V21.242H25.9365V20.3727H29.9592C29.9592 20.0034 29.8853 19.6738 29.7376 19.3841C29.5927 19.0943 29.3853 18.8656 29.1155 18.698C28.8484 18.5304 28.5331 18.4466 28.1694 18.4466C27.7689 18.4466 27.4223 18.546 27.1297 18.7449C26.8399 18.9409 26.6169 19.1966 26.4606 19.5119C26.3044 19.8272 26.2263 20.1653 26.2263 20.5261V21.1056C26.2263 21.6 26.3115 22.019 26.4819 22.3627C26.6552 22.7037 26.8953 22.9636 27.2021 23.1426C27.5089 23.3187 27.8655 23.4068 28.2717 23.4068C28.5359 23.4068 28.7745 23.3699 28.9876 23.296C29.2035 23.2193 29.3896 23.1056 29.5459 22.9551C29.7021 22.8017 29.8228 22.6113 29.9081 22.3841L30.8797 22.6568C30.7774 22.9863 30.6055 23.2761 30.364 23.5261C30.1226 23.7733 29.8243 23.9664 29.4691 24.1056C29.114 24.242 28.7149 24.3102 28.2717 24.3102ZM32.5118 26.6284V17.6284H33.4834V18.6681H33.6027C33.6765 18.5545 33.7788 18.4096 33.9095 18.2335C34.043 18.0545 34.2334 17.8954 34.4805 17.7562C34.7305 17.6142 35.0686 17.5431 35.4947 17.5431C36.0459 17.5431 36.5316 17.6809 36.9521 17.9565C37.3726 18.2321 37.7007 18.6227 37.9365 19.1284C38.1723 19.6341 38.2902 20.2306 38.2902 20.9181C38.2902 21.6113 38.1723 22.2122 37.9365 22.7207C37.7007 23.2264 37.374 23.6184 36.9564 23.8968C36.5388 24.1724 36.0572 24.3102 35.5118 24.3102C35.0913 24.3102 34.7547 24.2406 34.5018 24.1014C34.249 23.9593 34.0544 23.7988 33.918 23.6199C33.7816 23.438 33.6765 23.2875 33.6027 23.1681H33.5174V26.6284H32.5118ZM33.5004 20.9011C33.5004 21.3954 33.5728 21.8315 33.7177 22.2093C33.8626 22.5843 34.0743 22.8784 34.3527 23.0914C34.6311 23.3017 34.972 23.4068 35.3754 23.4068C35.7959 23.4068 36.1467 23.296 36.428 23.0744C36.712 22.85 36.9251 22.5488 37.0672 22.171C37.212 21.7903 37.2845 21.367 37.2845 20.9011C37.2845 20.4409 37.2135 20.0261 37.0714 19.6568C36.9322 19.2846 36.7206 18.9906 36.4365 18.7747C36.1552 18.5559 35.8015 18.4466 35.3754 18.4466C34.9663 18.4466 34.6226 18.5502 34.3441 18.7576C34.0657 18.9622 33.8555 19.2491 33.7135 19.6184C33.5714 19.9849 33.5004 20.4125 33.5004 20.9011ZM42.4834 24.3102C41.8924 24.3102 41.374 24.1696 40.928 23.8883C40.4848 23.6071 40.1382 23.2136 39.8882 22.7079C39.641 22.2022 39.5174 21.6113 39.5174 20.9352C39.5174 20.2534 39.641 19.6582 39.8882 19.1497C40.1382 18.6412 40.4848 18.2463 40.928 17.965C41.374 17.6838 41.8924 17.5431 42.4834 17.5431C43.0743 17.5431 43.5913 17.6838 44.0345 17.965C44.4805 18.2463 44.8271 18.6412 45.0743 19.1497C45.3243 19.6582 45.4493 20.2534 45.4493 20.9352C45.4493 21.6113 45.3243 22.2022 45.0743 22.7079C44.8271 23.2136 44.4805 23.6071 44.0345 23.8883C43.5913 24.1696 43.0743 24.3102 42.4834 24.3102ZM42.4834 23.4068C42.9322 23.4068 43.3015 23.2917 43.5913 23.0616C43.8811 22.8315 44.0956 22.5289 44.2348 22.1539C44.374 21.7789 44.4436 21.3727 44.4436 20.9352C44.4436 20.4977 44.374 20.09 44.2348 19.7122C44.0956 19.3343 43.8811 19.0289 43.5913 18.796C43.3015 18.563 42.9322 18.4466 42.4834 18.4466C42.0345 18.4466 41.6652 18.563 41.3754 18.796C41.0856 19.0289 40.8711 19.3343 40.7319 19.7122C40.5927 20.09 40.5231 20.4977 40.5231 20.9352C40.5231 21.3727 40.5927 21.7789 40.7319 22.1539C40.8711 22.5289 41.0856 22.8315 41.3754 23.0616C41.6652 23.2917 42.0345 23.4068 42.4834 23.4068ZM46.9844 24.1738V17.6284H47.956V18.617H48.0242C48.1435 18.2931 48.3594 18.0304 48.6719 17.8287C48.9844 17.627 49.3367 17.5261 49.7287 17.5261C49.8026 17.5261 49.8949 17.5275 50.0057 17.5304C50.1165 17.5332 50.2003 17.5375 50.2571 17.5431V18.5659C50.2231 18.5574 50.1449 18.5446 50.0228 18.5275C49.9035 18.5076 49.777 18.4977 49.6435 18.4977C49.3253 18.4977 49.0412 18.5645 48.7912 18.698C48.5441 18.8287 48.3481 19.0105 48.2032 19.2434C48.0611 19.4735 47.9901 19.7363 47.9901 20.0318V24.1738H46.9844ZM54.706 17.6284V18.4806H51.314V17.6284H54.706ZM52.3026 16.0602H53.3083V22.2988C53.3083 22.5829 53.3495 22.796 53.4319 22.938C53.5171 23.0772 53.625 23.171 53.7557 23.2193C53.8892 23.2647 54.0299 23.2875 54.1776 23.2875C54.2884 23.2875 54.3793 23.2818 54.4503 23.2704C54.5214 23.2562 54.5782 23.2449 54.6208 23.2363L54.8253 24.1397C54.7571 24.1653 54.662 24.1909 54.5398 24.2164C54.4177 24.2449 54.2628 24.2591 54.0753 24.2591C53.7912 24.2591 53.5128 24.198 53.2401 24.0758C52.9702 23.9537 52.7458 23.7676 52.5668 23.5176C52.3907 23.2676 52.3026 22.9522 52.3026 22.5716V16.0602Z" fill="black"/>
</svg>
