<svg width="32" height="32" viewBox="0 0 32 32" fill="none" xmlns="http://www.w3.org/2000/svg">
<path d="M15.4557 6.00749H15.845C16.2492 6.17218 16.3839 6.49405 16.3315 6.93571C16.4363 6.93571 16.5112 6.93571 16.5935 6.93571C16.9603 6.93571 17.3271 6.93571 17.6939 6.93571C18.0233 6.93571 18.3077 7.14526 18.3826 7.45217C18.42 7.60188 18.4799 7.62433 18.6147 7.62433C19.4156 7.62433 20.2166 7.62433 21.0175 7.62433C21.3769 7.62433 21.7436 7.60937 22.0955 7.63931C22.6719 7.69171 23.106 8.08853 23.2408 8.65744C23.2483 8.69487 23.2707 8.73223 23.2857 8.77714V20.1328C23.2857 20.1328 23.2557 20.1328 23.2408 20.1328C18.2553 20.1328 13.2624 20.1328 8.27697 20.1328C8.18714 20.1328 8.09731 20.1328 8 20.1328C8 20.013 8 19.9383 8 19.8559C8 16.2628 8 12.6773 8 9.08417C8 8.14847 8.5315 7.62433 9.4672 7.62433C10.5152 7.62433 11.5632 7.62433 12.6037 7.62433C12.6785 7.62433 12.7609 7.62433 12.8282 7.62433C13.0528 7.03296 13.2025 6.92821 13.8164 6.92821C14.1832 6.92821 14.5499 6.92821 14.9392 6.92821C14.9093 6.49404 15.059 6.17966 15.4482 6L15.4557 6.00749ZM15.6354 19.4442C16.062 19.4442 16.4887 19.4442 16.9154 19.4442C17.1924 19.4442 17.2597 19.3768 17.2747 19.1074C17.3421 17.715 17.4169 16.3227 17.4843 14.9378C17.4843 14.8704 17.4768 14.7806 17.5143 14.7507C17.8212 14.5186 17.7239 14.1893 17.7239 13.8899C17.7239 13.6054 17.5367 13.4332 17.2523 13.4332C16.1743 13.4332 15.1039 13.4332 14.026 13.4332C13.8238 13.4332 13.6442 13.5231 13.6068 13.7102C13.5394 14.0546 13.4421 14.4213 13.749 14.7282C13.7864 14.7656 13.8014 14.8405 13.8014 14.9003C13.8762 16.3076 13.9436 17.7076 14.0185 19.1149C14.0334 19.3769 14.0933 19.4442 14.3553 19.4442C14.782 19.4442 15.2087 19.4442 15.6354 19.4442ZM20.0444 15.0352H18.8093C18.0158 15.0352 17.9409 15.11 17.9634 15.9035C17.9634 16.0233 18.0008 16.1804 18.0832 16.2553C18.2029 16.3751 18.2179 16.5023 18.2254 16.6446C18.2853 17.4755 18.3452 18.2989 18.4125 19.1298C18.435 19.3769 18.5023 19.4367 18.7569 19.4367C19.6177 19.4367 20.4711 19.4367 21.3319 19.4367C21.549 19.4367 21.6463 19.3544 21.6613 19.1373C21.7212 18.284 21.796 17.4232 21.8634 16.5698C21.8634 16.5024 21.8634 16.3976 21.9083 16.3677C22.1554 16.1805 22.1254 15.9109 22.1254 15.6564C22.1254 15.1923 21.9682 15.0352 21.4966 15.0352C21.01 15.0352 20.531 15.0352 20.0444 15.0352ZM11.2488 15.9709C10.7248 15.9709 10.1933 15.9709 9.66931 15.9709C9.44474 15.9709 9.23514 16.0532 9.2052 16.2778C9.1528 16.6221 9.04052 16.9965 9.36988 17.2884C9.4148 17.3258 9.42227 17.4157 9.42976 17.483C9.48965 18.037 9.54953 18.5834 9.6169 19.1373C9.64684 19.3844 9.71422 19.4442 9.96873 19.4442C10.8296 19.4442 11.6829 19.4442 12.5438 19.4442C12.7459 19.4442 12.8582 19.3694 12.8732 19.1598C12.8881 18.9727 12.9031 18.7855 12.9405 18.5984C13.0453 18.0744 12.9181 17.5129 13.2849 17.0338C13.3822 16.9141 13.3298 16.6745 13.3298 16.4874C13.3298 16.143 13.1501 15.9709 12.8133 15.9634C12.2968 15.9634 11.7728 15.9634 11.2563 15.9634L11.2488 15.9709ZM14.4601 9.71285C14.243 9.71285 14.0334 9.71285 13.8238 9.71285C13.6741 9.71285 13.5768 9.78775 13.5618 9.94495C13.502 10.4689 13.8687 11.0753 14.3703 11.2849C14.4227 11.3074 14.4676 11.3672 14.4976 11.4196C14.6173 11.5843 14.7072 11.7714 14.8494 11.9136C14.9841 12.0558 14.9841 12.4002 14.8344 12.52C14.767 12.5724 14.7146 12.6997 14.7296 12.767C14.7446 12.8344 14.8643 12.9317 14.9317 12.9317C15.4033 12.9467 15.8674 12.9467 16.339 12.9317C16.4139 12.9317 16.5262 12.8419 16.5486 12.767C16.5711 12.7072 16.5187 12.5799 16.4588 12.5275C16.2716 12.3628 16.2866 12.0485 16.4663 11.8763C16.601 11.749 16.6834 11.5618 16.7882 11.4046C16.8181 11.3597 16.8406 11.2999 16.878 11.2849C17.4843 11.0753 17.664 10.5888 17.7164 10.0199C17.7388 9.79531 17.6565 9.71284 17.4319 9.70536C17.2223 9.70536 17.0202 9.70536 16.8181 9.70536C16.6983 9.33107 16.5785 9.24883 16.2117 9.24883C15.8375 9.24883 15.4632 9.24883 15.0889 9.24883C14.7071 9.24883 14.5949 9.32359 14.4601 9.70536V9.71285ZM10.343 15.1774C10.343 15.4469 10.5227 15.5815 10.6948 15.4543C11.0766 15.1773 11.421 15.1773 11.8027 15.4543C11.9749 15.5815 12.2069 15.417 12.1471 15.2224C11.9973 14.7657 12.1096 14.4362 12.4914 14.1443C12.671 14.0095 12.5887 13.7552 12.3716 13.7552C11.8925 13.7477 11.6081 13.538 11.4584 13.0889C11.391 12.8793 11.1589 12.8943 11.0392 13.0889C10.9643 13.2161 10.9044 13.3434 10.852 13.4781C10.7996 13.6129 10.7173 13.6803 10.5676 13.6878C10.4179 13.6878 10.2682 13.7178 10.1184 13.7627C9.91634 13.8151 9.84148 14.0172 9.99868 14.137C10.3804 14.4364 10.5751 14.7657 10.3505 15.1849L10.343 15.1774ZM19.1311 14.3764C19.1311 14.586 19.3108 14.7133 19.4755 14.601C19.8648 14.324 20.2166 14.324 20.6058 14.601C20.778 14.7282 20.9651 14.5635 20.9352 14.3389C20.9202 14.2416 20.9127 14.1369 20.8828 14.0396C20.8229 13.8225 20.8454 13.6504 21.0475 13.5156C21.1448 13.4482 21.2196 13.3584 21.2945 13.276C21.4218 13.1188 21.3694 12.9466 21.1747 12.8942C21.0999 12.8718 21.0175 12.8568 20.9427 12.8568C20.6433 12.8568 20.4486 12.7371 20.3513 12.4377C20.3064 12.288 20.254 12.0932 20.0444 12.0857C19.8198 12.0857 19.7824 12.288 19.7225 12.4452C19.6252 12.7072 19.468 12.8493 19.1686 12.8568C19.0039 12.8568 18.7943 12.8343 18.7269 13.0439C18.6521 13.261 18.8467 13.3584 18.974 13.4557C19.191 13.6278 19.2809 13.8151 19.1835 14.092C19.1461 14.1818 19.1461 14.2866 19.1386 14.3764H19.1311Z" fill="#0671B8" stroke="#0671B8" stroke-width="0.104799" stroke-miterlimit="10"/>
<path d="M23.3007 20.6118V25.6796C23.3007 25.6796 23.2782 25.7021 23.2782 25.7096C23.0761 26.4956 22.6345 26.8399 21.8185 26.8399C17.7014 26.8399 13.5918 26.8399 9.4747 26.8399C8.55397 26.8399 8.01501 26.3083 8.01501 25.3951C8.01501 23.8755 8.01501 22.3635 8.01501 20.8439C8.01501 20.7691 8.01501 20.6867 8.01501 20.5894H8.29198C13.2026 20.5894 18.1056 20.5894 23.0162 20.5894C23.106 20.5894 23.2034 20.6043 23.2932 20.6043L23.3007 20.6118ZM16.9154 25.6871C18.4575 25.6871 20.007 25.6871 21.549 25.6871C21.9757 25.6871 22.1329 25.5224 22.1329 25.0957C22.1329 24.8936 22.1329 24.6915 22.1329 24.4893C22.1329 23.9803 21.9907 23.8382 21.4742 23.8382C18.4425 23.8382 15.4108 23.8382 12.3791 23.8382C12.3192 23.8382 12.2668 23.8382 12.207 23.8382C11.9 23.8606 11.7354 24.0328 11.7204 24.3397C11.7204 24.5942 11.7204 24.8487 11.7204 25.0957C11.7204 25.5374 11.8776 25.6946 12.3193 25.6946C13.8463 25.6946 15.3809 25.6946 16.908 25.6946L16.9154 25.6871ZM16.9379 23.1419C18.465 23.1419 19.9995 23.1419 21.5266 23.1419C21.9832 23.1419 22.1329 22.9923 22.1329 22.5282C22.1329 22.3336 22.1329 22.1389 22.1329 21.9443C22.1329 21.4353 21.9982 21.3005 21.4966 21.3005C19.221 21.3005 16.9529 21.3005 14.6772 21.3005C13.8987 21.3005 13.1202 21.3005 12.3417 21.3005C11.8701 21.3005 11.7279 21.4427 11.7279 21.9218C11.7279 22.1239 11.7279 22.3261 11.7279 22.5282C11.7279 22.9998 11.8701 23.1419 12.3492 23.1419C13.8763 23.1419 15.4108 23.1419 16.9379 23.1419ZM9.18277 22.3411C9.18277 22.91 9.65437 23.374 10.2158 23.374C10.7847 23.374 11.2638 22.895 11.2638 22.3186C11.2638 21.7497 10.7922 21.293 10.2233 21.293C9.63938 21.293 9.18277 21.7572 9.18277 22.3411ZM10.2233 25.9192C10.7922 25.9192 11.2563 25.4625 11.2638 24.8936C11.2638 24.3247 10.7922 23.8382 10.2233 23.8382C9.65436 23.8382 9.19026 24.3022 9.18277 24.8711C9.18277 25.455 9.63938 25.9192 10.2233 25.9192Z" fill="#0671B8" stroke="#0671B8" stroke-width="0.104799" stroke-miterlimit="10"/>
<path d="M15.6428 19.4368C15.2161 19.4368 14.7894 19.4368 14.3628 19.4368C14.1008 19.4368 14.0409 19.3694 14.0259 19.1074C13.9585 17.7001 13.8837 16.3002 13.8088 14.8929C13.8088 14.8331 13.7938 14.7582 13.7564 14.7208C13.4495 14.4139 13.5468 14.0472 13.6142 13.7028C13.6516 13.5157 13.8313 13.4258 14.0334 13.4258C15.1113 13.4258 16.1818 13.4258 17.2597 13.4258C17.5367 13.4258 17.7238 13.6055 17.7313 13.8825C17.7313 14.1819 17.8286 14.5112 17.5217 14.7433C17.4843 14.7732 17.4993 14.863 17.4918 14.9304C17.4244 16.3227 17.3495 17.7151 17.2822 19.1C17.2672 19.3694 17.1998 19.4368 16.9229 19.4368C16.4962 19.4368 16.0695 19.4368 15.6428 19.4368ZM16.818 18.9578C16.8854 17.5729 16.9528 16.1955 17.0276 14.8107H14.2804C14.3478 16.1955 14.4152 17.5729 14.49 18.9578H16.8255H16.818ZM17.2597 14.3242V13.89H14.0484V14.3242H17.2597Z" fill="white"/>
<path d="M20.0519 15.0352C20.5385 15.0352 21.0176 15.0352 21.5041 15.0352C21.9682 15.0352 22.1329 15.1922 22.1329 15.6563C22.1329 15.9183 22.1703 16.1805 21.9158 16.3676C21.8709 16.3976 21.8784 16.5024 21.8709 16.5697C21.8035 17.4231 21.7362 18.2839 21.6688 19.1373C21.6538 19.3544 21.549 19.4441 21.3394 19.4366C20.4786 19.4366 19.6252 19.4366 18.7644 19.4366C18.5099 19.4366 18.435 19.3768 18.42 19.1298C18.3527 18.2989 18.2928 17.4754 18.2329 16.6445C18.2254 16.5023 18.2104 16.375 18.0907 16.2552C18.0083 16.1729 17.9784 16.0232 17.9709 15.9034C17.9484 15.1099 18.0233 15.0352 18.8168 15.0352C19.2285 15.0352 19.6402 15.0352 20.0519 15.0352ZM18.6745 16.4349C18.7419 17.2882 18.8018 18.1192 18.8692 18.9576H21.2197C21.287 18.1117 21.3469 17.2808 21.4143 16.4349H18.682H18.6745ZM21.6463 15.5216H18.435V15.9559H21.6463V15.5216Z" fill="white"/>
<path d="M11.2563 15.9634C11.7728 15.9634 12.2968 15.9634 12.8133 15.9634C13.1577 15.9634 13.3373 16.143 13.3298 16.4873C13.3298 16.6745 13.3822 16.914 13.2849 17.0338C12.9106 17.5129 13.0454 18.0743 12.9406 18.5983C12.9031 18.778 12.8882 18.9726 12.8732 19.1598C12.8582 19.3694 12.7385 19.4441 12.5438 19.4441C11.683 19.4441 10.8296 19.4441 9.96877 19.4441C9.71426 19.4441 9.64688 19.3843 9.61694 19.1373C9.55706 18.5833 9.49717 18.0369 9.4298 17.483C9.42231 17.4156 9.41484 17.3258 9.36993 17.2884C9.03307 16.9964 9.15284 16.6221 9.20524 16.2777C9.23518 16.0606 9.44478 15.9709 9.66935 15.9709C10.1933 15.9709 10.7248 15.9709 11.2488 15.9709L11.2563 15.9634ZM12.6112 17.3631H9.89391C9.95379 17.9021 10.0137 18.4262 10.0661 18.9576H12.4315C12.4914 18.4262 12.5513 17.9021 12.6112 17.3631ZM12.8582 16.4349H9.64689V16.8766H12.8582V16.4349Z" fill="white"/>
<path d="M14.4676 9.71287C14.6023 9.3311 14.7146 9.25635 15.0964 9.25635C15.4706 9.25635 15.8449 9.25635 16.2192 9.25635C16.586 9.25635 16.7058 9.33859 16.8255 9.71287C17.0276 9.71287 17.2298 9.71287 17.4394 9.71287C17.6639 9.71287 17.7463 9.80264 17.7238 10.0272C17.6714 10.5961 17.4917 11.0903 16.8854 11.2924C16.848 11.3074 16.8255 11.3672 16.7956 11.4121C16.6908 11.5693 16.6084 11.7491 16.4737 11.8838C16.2941 12.0635 16.2791 12.3703 16.4662 12.535C16.5261 12.5874 16.5785 12.7072 16.5561 12.7746C16.5261 12.8494 16.4213 12.9392 16.3465 12.9392C15.8749 12.9542 15.4108 12.9542 14.9392 12.9392C14.8643 12.9392 14.752 12.8419 14.737 12.7746C14.7221 12.6997 14.7745 12.5799 14.8418 12.5275C14.9916 12.4002 14.9915 12.0558 14.8568 11.9211C14.7221 11.7789 14.6247 11.5918 14.505 11.4271C14.4676 11.3747 14.4301 11.3149 14.3777 11.2924C13.8762 11.0828 13.5094 10.4839 13.5693 9.95246C13.5842 9.79526 13.6816 9.72785 13.8313 9.72036C14.0409 9.72036 14.2505 9.72036 14.4676 9.72036V9.71287ZM14.9541 9.72036C14.9541 10.2743 14.9541 10.8057 14.9541 11.3372C14.9541 11.4944 15.0589 11.5618 15.2161 11.5618C15.4781 11.5618 15.7326 11.5618 15.9946 11.5618C16.2941 11.5618 16.339 11.5244 16.339 11.225C16.339 10.8582 16.339 10.4914 16.339 10.1246C16.339 9.98987 16.339 9.8551 16.339 9.72036H14.9541ZM15.4332 12.041V12.4825H15.8674V12.041H15.4332ZM14.4751 10.7983V10.1846C14.3927 10.1846 14.3253 10.1846 14.2654 10.1846C14.2055 10.1846 14.1457 10.1921 14.0858 10.1995C14.1082 10.5214 14.2205 10.686 14.4751 10.7983ZM16.8106 10.8357C17.0801 10.6785 17.1998 10.484 17.2073 10.1921H16.8106V10.8357Z" fill="white"/>
<path d="M10.3505 15.1773C10.5751 14.7656 10.373 14.4288 9.99868 14.1294C9.84148 14.0097 9.91634 13.8075 10.1185 13.7551C10.2607 13.7177 10.4179 13.6877 10.5676 13.6802C10.7173 13.6802 10.7996 13.6053 10.852 13.4706C10.9044 13.3359 10.9718 13.2086 11.0392 13.0813C11.1515 12.8867 11.3835 12.8717 11.4584 13.0813C11.6081 13.5379 11.8925 13.7402 12.3716 13.7476C12.5887 13.7476 12.671 14.0097 12.4914 14.1369C12.1096 14.4214 11.9973 14.7582 12.1471 15.2148C12.2144 15.4094 11.9824 15.5742 11.8027 15.4469C11.421 15.1699 11.0766 15.1699 10.6948 15.4469C10.5302 15.5667 10.343 15.4393 10.343 15.1698L10.3505 15.1773ZM11.8177 14.1442C11.4958 14.1667 11.3611 13.9722 11.2338 13.6802C11.1515 14.0246 10.9718 14.1442 10.6799 14.1517C10.9194 14.3314 10.9793 14.5486 10.9044 14.8255C11.144 14.6534 11.3611 14.6609 11.6006 14.8255C11.5108 14.5411 11.5856 14.3314 11.8177 14.1442Z" fill="white"/>
<path d="M19.1387 14.3763C19.1536 14.2865 19.1536 14.1817 19.1836 14.0919C19.2809 13.8224 19.1836 13.6352 18.974 13.4556C18.8467 13.3583 18.6521 13.2609 18.727 13.0438C18.8018 12.8342 19.0114 12.8567 19.1686 12.8567C19.4606 12.8567 19.6177 12.7071 19.7225 12.4451C19.7824 12.2954 19.8199 12.0782 20.0444 12.0856C20.254 12.0856 20.2989 12.2879 20.3513 12.4376C20.4487 12.737 20.6433 12.8567 20.9427 12.8567C21.0176 12.8567 21.0999 12.8717 21.1748 12.8941C21.3694 12.9465 21.4218 13.1262 21.2945 13.2759C21.2197 13.3657 21.1373 13.4556 21.0475 13.5155C20.8454 13.6503 20.823 13.8299 20.8828 14.0395C20.9128 14.1368 20.9277 14.234 20.9352 14.3388C20.9652 14.5559 20.778 14.7207 20.6058 14.6009C20.2166 14.3164 19.8648 14.3164 19.4755 14.6009C19.3183 14.7132 19.1387 14.5859 19.1312 14.3763H19.1387ZM20.0444 12.8642C19.9546 13.1486 19.7675 13.2834 19.468 13.2909C19.745 13.4556 19.7525 13.6876 19.6776 14.0095C19.9471 13.7774 20.1642 13.8073 20.4112 13.9645C20.2765 13.6726 20.4038 13.4706 20.6208 13.2834C20.3214 13.2834 20.1417 13.1486 20.0519 12.8642H20.0444Z" fill="white"/>
<path d="M16.9079 25.6875C15.3808 25.6875 13.8463 25.6875 12.3192 25.6875C11.8701 25.6875 11.7203 25.5377 11.7203 25.0886C11.7203 24.8341 11.7203 24.5796 11.7203 24.3325C11.7278 24.0256 11.9 23.8535 12.2069 23.8311C12.2668 23.8311 12.3192 23.8311 12.3791 23.8311C15.4108 23.8311 18.4424 23.8311 21.4741 23.8311C21.9831 23.8311 22.1329 23.9732 22.1329 24.4822C22.1329 24.6843 22.1329 24.8865 22.1329 25.0886C22.1329 25.5153 21.9757 25.68 21.549 25.68C20.0069 25.68 18.4574 25.68 16.9154 25.68L16.9079 25.6875ZM18.6446 24.3101H12.1844V25.2083H18.6446V24.3101ZM19.1236 25.2083H21.6463V24.3101H19.1236V25.2083Z" fill="white"/>
<path d="M16.9304 23.1344C15.4033 23.1344 13.8687 23.1344 12.3417 23.1344C11.8626 23.1344 11.7203 22.9923 11.7203 22.5207C11.7203 22.3186 11.7203 22.1164 11.7203 21.9143C11.7203 21.4353 11.8626 21.293 12.3342 21.293C13.1127 21.293 13.8912 21.293 14.6697 21.293C16.9453 21.293 19.2135 21.293 21.4891 21.293C21.9906 21.293 22.1254 21.4278 22.1254 21.9368C22.1254 22.1314 22.1254 22.3261 22.1254 22.5207C22.1254 22.9848 21.9757 23.1344 21.519 23.1344C19.992 23.1344 18.4574 23.1344 16.9304 23.1344ZM12.1844 22.6554H20.0294V21.7572H12.1844V22.6554ZM20.5235 22.6554H21.6463V21.7572H20.5235V22.6554Z" fill="white"/>
<path d="M9.17529 22.3411C9.17529 21.7572 9.63193 21.293 10.2158 21.293C10.7847 21.293 11.2488 21.7572 11.2563 22.3186C11.2563 22.8875 10.7772 23.374 10.2083 23.374C9.64689 23.374 9.17529 22.9025 9.17529 22.3411ZM10.7847 22.3261C10.7847 22.0042 10.5302 21.7497 10.2083 21.7497C9.88643 21.7497 9.63191 22.0117 9.6394 22.3336C9.6394 22.6555 9.89393 22.91 10.2158 22.91C10.5377 22.91 10.7847 22.6555 10.7847 22.3261Z" fill="white"/>
<path d="M10.2158 25.9121C9.63193 25.9121 9.17529 25.4479 9.17529 24.864C9.17529 24.2951 9.6469 23.8311 10.2158 23.8311C10.7922 23.8311 11.2638 24.3101 11.2563 24.8865C11.2563 25.4554 10.7847 25.9121 10.2158 25.9121ZM10.7922 24.8715C10.7922 24.5496 10.5377 24.2951 10.2158 24.2951C9.89393 24.2951 9.6394 24.5496 9.6394 24.8715C9.6394 25.1934 9.89393 25.4554 10.2158 25.4554C10.5302 25.4554 10.7922 25.1934 10.7922 24.879V24.8715Z" fill="white"/>
<path d="M16.8181 18.9649H14.4825C14.4152 17.5801 14.3478 16.2102 14.2729 14.8179H17.0202C16.9528 16.1952 16.8854 17.5726 16.8106 18.9649H16.8181Z" fill="#0671B8" stroke="#0671B8" stroke-width="0.104799" stroke-miterlimit="10"/>
<path d="M17.2598 14.3315H14.0485V13.8975H17.2598V14.3315Z" fill="#0671B8" stroke="#0671B8" stroke-width="0.104799" stroke-miterlimit="10"/>
<path d="M18.6745 16.4351H21.4067C21.3394 17.2809 21.2795 18.1119 21.2121 18.9578H18.8616C18.7943 18.1194 18.7344 17.2884 18.667 16.4351H18.6745Z" fill="#0671B8" stroke="#0671B8" stroke-width="0.104799" stroke-miterlimit="10"/>
<path d="M21.6463 15.5142V15.9484H18.4349V15.5142H21.6463Z" fill="#0671B8" stroke="#0671B8" stroke-width="0.104799" stroke-miterlimit="10"/>
<path d="M12.6112 17.3633C12.5513 17.9022 12.4914 18.4263 12.4316 18.9578H10.0661C10.0062 18.4338 9.95381 17.9097 9.89392 17.3633H12.6112Z" fill="#0671B8" stroke="#0671B8" stroke-width="0.104799" stroke-miterlimit="10"/>
<path d="M12.8582 16.4351V16.8768H9.64685V16.4351H12.8582Z" fill="#0671B8" stroke="#0671B8" stroke-width="0.104799" stroke-miterlimit="10"/>
<path d="M14.9542 9.72021H16.3391C16.3391 9.86244 16.3391 9.98973 16.3391 10.1245C16.3391 10.4913 16.3391 10.858 16.3391 11.2248C16.3391 11.5168 16.2942 11.5542 15.9947 11.5617C15.7327 11.5617 15.4782 11.5617 15.2162 11.5617C15.059 11.5617 14.9542 11.4942 14.9542 11.337C14.9542 10.8056 14.9542 10.2742 14.9542 9.72021Z" fill="#FFB422"/>
<path d="M15.4332 12.0337H15.8674V12.4752H15.4332V12.0337Z" fill="#FFB422"/>
<path d="M14.4751 10.7909C14.2206 10.6787 14.1083 10.5141 14.0858 10.1922C14.1457 10.1922 14.2056 10.1772 14.2655 10.1772C14.3328 10.1772 14.3927 10.1772 14.4751 10.1772V10.7909Z" fill="#FFB422"/>
<path d="M16.8181 10.8282V10.1846H17.2149C17.2074 10.4765 17.0801 10.671 16.8181 10.8282Z" fill="#FFB422"/>
<path d="M11.8177 14.137C11.5857 14.3167 11.5108 14.5337 11.6007 14.8182C11.3611 14.6535 11.144 14.646 10.9045 14.8182C10.9719 14.5412 10.9195 14.3165 10.6799 14.1444C10.9719 14.1444 11.159 14.0172 11.2339 13.6729C11.3536 13.9723 11.4959 14.167 11.8177 14.137Z" fill="#FFB422"/>
<path d="M20.0445 12.8643C20.1418 13.1412 20.3139 13.2835 20.6134 13.2835C20.3963 13.4706 20.2765 13.6652 20.4038 13.9646C20.1567 13.8074 19.9397 13.7775 19.6702 14.0096C19.745 13.6877 19.7375 13.4482 19.4606 13.291C19.7675 13.291 19.9472 13.1487 20.037 12.8643H20.0445Z" fill="#FFB422"/>
<path d="M18.6446 24.3101V25.2083H12.1844V24.3101H18.6446Z" fill="#0671B8"/>
<path d="M19.1311 25.2083V24.3101H21.6538V25.2083H19.1311Z" fill="#0671B8"/>
<path d="M12.1844 22.6629V21.7646H20.0294V22.6629H12.1844Z" fill="#0671B8"/>
<path d="M20.5234 22.6629V21.7646H21.6463V22.6629H20.5234Z" fill="#0671B8"/>
<path d="M10.7846 22.3264C10.7846 22.6483 10.5376 22.9028 10.2157 22.9103C9.89381 22.9103 9.63928 22.6558 9.63928 22.3339C9.63928 22.012 9.8938 21.75 10.2082 21.75C10.5301 21.75 10.7846 22.0045 10.7846 22.3264Z" fill="#0671B8"/>
<path d="M10.7847 24.8788C10.7847 25.2007 10.5302 25.4552 10.2083 25.4552C9.88646 25.4552 9.63196 25.1932 9.63196 24.8713C9.63196 24.5494 9.88646 24.2949 10.2083 24.2949C10.5302 24.2949 10.7847 24.5494 10.7847 24.8713V24.8788Z" fill="#0671B8"/>
</svg>
