<svg width="82" height="12" viewBox="0 0 82 12" fill="none" xmlns="http://www.w3.org/2000/svg">
<path d="M0.22957 1.38406V0.446555H6.77502V1.38406H4.03071V9.17383H2.97389V1.38406H0.22957ZM9.30521 9.32724C8.89044 9.32724 8.51402 9.24911 8.17595 9.09286C7.83788 8.93377 7.56941 8.70508 7.37055 8.40678C7.17169 8.10565 7.07225 7.74201 7.07225 7.31587C7.07225 6.94087 7.14612 6.6369 7.29385 6.40394C7.44157 6.16815 7.63902 5.98349 7.88618 5.84996C8.13333 5.71644 8.40606 5.61701 8.70436 5.55167C9.00549 5.48349 9.30805 5.42951 9.61203 5.38974C10.0098 5.3386 10.3322 5.30025 10.5794 5.27468C10.8294 5.24627 11.0112 5.1994 11.1248 5.13406C11.2413 5.06871 11.2995 4.95508 11.2995 4.79315V4.75906C11.2995 4.3386 11.1845 4.0119 10.9544 3.77894C10.7271 3.54599 10.3819 3.42951 9.91885 3.42951C9.43873 3.42951 9.06231 3.53462 8.78958 3.74485C8.51686 3.95508 8.3251 4.17951 8.2143 4.41815L7.25975 4.07724C7.43021 3.67951 7.65748 3.36985 7.94157 3.14826C8.2285 2.92383 8.541 2.76758 8.87907 2.67951C9.21998 2.5886 9.55521 2.54315 9.88475 2.54315C10.095 2.54315 10.3365 2.56871 10.6092 2.61985C10.8848 2.66815 11.1504 2.769 11.4061 2.92241C11.6646 3.07582 11.8791 3.30735 12.0495 3.61701C12.22 3.92667 12.3052 4.34144 12.3052 4.86133V9.17383H11.2995V8.28746H11.2484C11.1802 8.42951 11.0666 8.5815 10.9075 8.74343C10.7484 8.90536 10.5367 9.04315 10.2725 9.15678C10.0083 9.27042 9.68589 9.32724 9.30521 9.32724ZM9.45862 8.42383C9.85635 8.42383 10.1916 8.3457 10.4643 8.18945C10.7399 8.0332 10.9473 7.8315 11.0865 7.58434C11.2285 7.33718 11.2995 7.07724 11.2995 6.80451V5.88406C11.2569 5.93519 11.1632 5.98207 11.0183 6.02468C10.8762 6.06445 10.7115 6.09996 10.524 6.13121C10.3393 6.15962 10.1589 6.18519 9.98277 6.20792C9.80947 6.22781 9.66885 6.24485 9.56089 6.25906C9.29953 6.29315 9.05521 6.34854 8.82794 6.42525C8.6035 6.49911 8.42169 6.61133 8.28248 6.7619C8.14612 6.90962 8.07794 7.11133 8.07794 7.36701C8.07794 7.71644 8.2072 7.98065 8.46572 8.15962C8.72708 8.33576 9.05805 8.42383 9.45862 8.42383ZM14.1408 9.17383V2.62837H15.1124V3.61701H15.1806C15.2999 3.29315 15.5158 3.03036 15.8283 2.82866C16.1408 2.62695 16.4931 2.5261 16.8851 2.5261C16.959 2.5261 17.0513 2.52752 17.1621 2.53036C17.2729 2.5332 17.3567 2.53746 17.4135 2.54315V3.56587C17.3794 3.55735 17.3013 3.54457 17.1791 3.52752C17.0598 3.50763 16.9334 3.49769 16.7999 3.49769C16.4817 3.49769 16.1976 3.56445 15.9476 3.69798C15.7005 3.82866 15.5044 4.01048 15.3595 4.24343C15.2175 4.47354 15.1465 4.73633 15.1465 5.03178V9.17383H14.1408ZM21.0485 11.7647C20.5627 11.7647 20.1451 11.7022 19.7956 11.5772C19.4462 11.4551 19.155 11.2931 18.922 11.0914C18.6919 10.8926 18.5087 10.6795 18.3723 10.4522L19.1735 9.88974C19.2644 10.0091 19.3794 10.1454 19.5186 10.2988C19.6578 10.4551 19.8482 10.59 20.0897 10.7037C20.334 10.8201 20.6536 10.8784 21.0485 10.8784C21.5769 10.8784 22.013 10.7505 22.3567 10.4949C22.7005 10.2392 22.8723 9.8386 22.8723 9.29315V7.9636H22.7871C22.7132 8.08292 22.6081 8.23065 22.4718 8.40678C22.3382 8.58008 22.1451 8.73491 21.8922 8.87127C21.6422 9.00479 21.3041 9.07156 20.878 9.07156C20.3496 9.07156 19.8752 8.94656 19.4547 8.69656C19.0371 8.44656 18.7061 8.08292 18.4618 7.60565C18.2203 7.12837 18.0996 6.54883 18.0996 5.86701C18.0996 5.19656 18.2175 4.61275 18.4533 4.11559C18.6891 3.61559 19.0172 3.22923 19.4377 2.9565C19.8581 2.68093 20.3439 2.54315 20.8951 2.54315C21.3212 2.54315 21.6593 2.61417 21.9093 2.75621C22.1621 2.89542 22.3553 3.05451 22.4888 3.23349C22.6252 3.40962 22.7303 3.55451 22.8041 3.66815H22.9064V2.62837H23.878V9.36133C23.878 9.92383 23.7502 10.3812 23.4945 10.7335C23.2416 11.0886 22.9007 11.3485 22.4718 11.5133C22.0456 11.6809 21.5712 11.7647 21.0485 11.7647ZM21.0144 8.16815C21.4178 8.16815 21.7587 8.07582 22.0371 7.89116C22.3155 7.7065 22.5272 7.44087 22.672 7.09428C22.8169 6.74769 22.8894 6.33292 22.8894 5.84996C22.8894 5.37837 22.8183 4.96218 22.6763 4.60138C22.5343 4.24059 22.324 3.95792 22.0456 3.75337C21.7672 3.54883 21.4235 3.44656 21.0144 3.44656C20.5882 3.44656 20.2331 3.55451 19.949 3.77042C19.6678 3.98633 19.4561 4.2761 19.3141 4.63974C19.1749 5.00337 19.1053 5.40678 19.1053 5.84996C19.1053 6.30451 19.1763 6.7065 19.3183 7.05593C19.4632 7.40252 19.6763 7.67525 19.9576 7.87411C20.2416 8.07013 20.5939 8.16815 21.0144 8.16815ZM28.4632 9.31019C27.8326 9.31019 27.2885 9.17099 26.8311 8.89258C26.3766 8.61133 26.0257 8.21928 25.7786 7.71644C25.5343 7.21076 25.4121 6.62269 25.4121 5.95224C25.4121 5.28178 25.5343 4.69087 25.7786 4.17951C26.0257 3.66531 26.3695 3.26474 26.8098 2.97781C27.253 2.68803 27.7701 2.54315 28.361 2.54315C28.7019 2.54315 29.0385 2.59996 29.3709 2.7136C29.7033 2.82724 30.0058 3.0119 30.2786 3.26758C30.5513 3.52042 30.7686 3.85565 30.9306 4.27326C31.0925 4.69087 31.1735 5.20508 31.1735 5.81587V6.24201H26.128V5.37269H30.1507C30.1507 5.00337 30.0769 4.67383 29.9291 4.38406C29.7843 4.09428 29.5769 3.86559 29.307 3.69798C29.0399 3.53036 28.7246 3.44656 28.361 3.44656C27.9604 3.44656 27.6138 3.54599 27.3212 3.74485C27.0314 3.94087 26.8084 4.19656 26.6522 4.5119C26.4959 4.82724 26.4178 5.16531 26.4178 5.5261V6.10565C26.4178 6.59996 26.503 7.019 26.6735 7.36275C26.8468 7.70366 27.0868 7.9636 27.3936 8.14258C27.7005 8.31871 28.057 8.40678 28.4632 8.40678C28.7274 8.40678 28.9661 8.36985 29.1791 8.29599C29.3951 8.21928 29.5811 8.10565 29.7374 7.95508C29.8936 7.80167 30.0144 7.61133 30.0996 7.38406L31.0712 7.65678C30.9689 7.98633 30.797 8.2761 30.5556 8.5261C30.3141 8.77326 30.0158 8.96644 29.6607 9.10565C29.3056 9.24201 28.9064 9.31019 28.4632 9.31019ZM35.5499 2.62837V3.48065H32.1578V2.62837H35.5499ZM33.1465 1.06019H34.1522V7.29883C34.1522 7.58292 34.1933 7.79599 34.2757 7.93803C34.361 8.07724 34.4689 8.17099 34.5996 8.21928C34.7331 8.26474 34.8737 8.28746 35.0215 8.28746C35.1323 8.28746 35.2232 8.28178 35.2942 8.27042C35.3652 8.25621 35.422 8.24485 35.4647 8.23633L35.6692 9.13974C35.601 9.16531 35.5058 9.19087 35.3837 9.21644C35.2615 9.24485 35.1067 9.25906 34.9192 9.25906C34.6351 9.25906 34.3567 9.19798 34.084 9.07582C33.8141 8.95366 33.5897 8.76758 33.4107 8.51758C33.2345 8.26758 33.1465 7.95224 33.1465 7.57156V1.06019ZM40.574 0.446555H41.8354L44.8013 7.69087H44.9036L47.8695 0.446555H49.1308V9.17383H48.1422V2.54315H48.057L45.3297 9.17383H44.3752L41.6479 2.54315H41.5627V9.17383H40.574V0.446555ZM53.7725 9.31019C53.1816 9.31019 52.6632 9.16957 52.2171 8.88832C51.774 8.60707 51.4274 8.2136 51.1774 7.70792C50.9302 7.20224 50.8066 6.61133 50.8066 5.93519C50.8066 5.25337 50.9302 4.6582 51.1774 4.14968C51.4274 3.64116 51.774 3.24627 52.2171 2.96502C52.6632 2.68377 53.1816 2.54315 53.7725 2.54315C54.3634 2.54315 54.8805 2.68377 55.3237 2.96502C55.7697 3.24627 56.1163 3.64116 56.3634 4.14968C56.6134 4.6582 56.7384 5.25337 56.7384 5.93519C56.7384 6.61133 56.6134 7.20224 56.3634 7.70792C56.1163 8.2136 55.7697 8.60707 55.3237 8.88832C54.8805 9.16957 54.3634 9.31019 53.7725 9.31019ZM53.7725 8.40678C54.2214 8.40678 54.5907 8.29173 54.8805 8.06161C55.1703 7.8315 55.3848 7.52894 55.524 7.15394C55.6632 6.77894 55.7328 6.37269 55.7328 5.93519C55.7328 5.49769 55.6632 5.09002 55.524 4.71218C55.3848 4.33434 55.1703 4.02894 54.8805 3.79599C54.5907 3.56303 54.2214 3.44656 53.7725 3.44656C53.3237 3.44656 52.9544 3.56303 52.6646 3.79599C52.3748 4.02894 52.1603 4.33434 52.0211 4.71218C51.8819 5.09002 51.8123 5.49769 51.8123 5.93519C51.8123 6.37269 51.8819 6.77894 52.0211 7.15394C52.1603 7.52894 52.3748 7.8315 52.6646 8.06161C52.9544 8.29173 53.3237 8.40678 53.7725 8.40678ZM60.7452 9.31019C60.1997 9.31019 59.7182 9.17241 59.3006 8.89684C58.883 8.61843 58.5563 8.22638 58.3205 7.7207C58.0847 7.21218 57.9668 6.61133 57.9668 5.91815C57.9668 5.23065 58.0847 4.63406 58.3205 4.12837C58.5563 3.62269 58.8844 3.23207 59.3049 2.9565C59.7253 2.68093 60.2111 2.54315 60.7622 2.54315C61.1884 2.54315 61.525 2.61417 61.7722 2.75621C62.0222 2.89542 62.2125 3.05451 62.3432 3.23349C62.4767 3.40962 62.5804 3.55451 62.6543 3.66815H62.7395V0.446555H63.7452V9.17383H62.7736V8.16815H62.6543C62.5804 8.28746 62.4753 8.43803 62.3389 8.61985C62.2026 8.79883 62.008 8.95934 61.7551 9.10138C61.5023 9.24059 61.1656 9.31019 60.7452 9.31019ZM60.8816 8.40678C61.285 8.40678 61.6259 8.30167 61.9043 8.09144C62.1827 7.87837 62.3943 7.58434 62.5392 7.20934C62.6841 6.8315 62.7566 6.39542 62.7566 5.9011C62.7566 5.41246 62.6855 4.98491 62.5435 4.61843C62.4014 4.24911 62.1912 3.96218 61.9128 3.75763C61.6344 3.55025 61.2906 3.44656 60.8816 3.44656C60.4554 3.44656 60.1003 3.55593 59.8162 3.77468C59.535 3.99059 59.3233 4.28462 59.1813 4.65678C59.0421 5.0261 58.9725 5.44087 58.9725 5.9011C58.9725 6.36701 59.0435 6.79031 59.1855 7.17099C59.3304 7.54883 59.5435 7.84996 59.8247 8.0744C60.1088 8.29599 60.4611 8.40678 60.8816 8.40678ZM69.8517 6.49769V2.62837H70.8574V9.17383H69.8517V8.06587H69.7835C69.6301 8.39826 69.3915 8.68093 69.0676 8.91388C68.7438 9.144 68.3347 9.25906 67.8404 9.25906C67.4313 9.25906 67.0676 9.16957 66.7495 8.99059C66.4313 8.80877 66.1813 8.53604 65.9995 8.17241C65.8176 7.80593 65.7267 7.34428 65.7267 6.78746V2.62837H66.7324V6.71928C66.7324 7.19656 66.8659 7.57724 67.133 7.86133C67.4029 8.14542 67.7466 8.28746 68.1642 8.28746C68.4142 8.28746 68.6685 8.22354 68.927 8.0957C69.1884 7.96786 69.4071 7.77184 69.5833 7.50763C69.7622 7.24343 69.8517 6.90678 69.8517 6.49769ZM73.7051 0.446555V9.17383H72.6994V0.446555H73.7051ZM78.2914 9.31019C77.6607 9.31019 77.1166 9.17099 76.6593 8.89258C76.2047 8.61133 75.8539 8.21928 75.6067 7.71644C75.3624 7.21076 75.2402 6.62269 75.2402 5.95224C75.2402 5.28178 75.3624 4.69087 75.6067 4.17951C75.8539 3.66531 76.1976 3.26474 76.638 2.97781C77.0811 2.68803 77.5982 2.54315 78.1891 2.54315C78.53 2.54315 78.8666 2.59996 79.199 2.7136C79.5314 2.82724 79.834 3.0119 80.1067 3.26758C80.3794 3.52042 80.5968 3.85565 80.7587 4.27326C80.9206 4.69087 81.0016 5.20508 81.0016 5.81587V6.24201H75.9561V5.37269H79.9789C79.9789 5.00337 79.905 4.67383 79.7573 4.38406C79.6124 4.09428 79.405 3.86559 79.1351 3.69798C78.8681 3.53036 78.5527 3.44656 78.1891 3.44656C77.7885 3.44656 77.4419 3.54599 77.1493 3.74485C76.8595 3.94087 76.6365 4.19656 76.4803 4.5119C76.324 4.82724 76.2459 5.16531 76.2459 5.5261V6.10565C76.2459 6.59996 76.3311 7.019 76.5016 7.36275C76.6749 7.70366 76.9149 7.9636 77.2218 8.14258C77.5286 8.31871 77.8851 8.40678 78.2914 8.40678C78.5556 8.40678 78.7942 8.36985 79.0073 8.29599C79.2232 8.21928 79.4093 8.10565 79.5655 7.95508C79.7218 7.80167 79.8425 7.61133 79.9277 7.38406L80.8993 7.65678C80.797 7.98633 80.6252 8.2761 80.3837 8.5261C80.1422 8.77326 79.8439 8.96644 79.4888 9.10565C79.1337 9.24201 78.7345 9.31019 78.2914 9.31019Z" fill="black"/>
</svg>
