<svg width="32" height="32" viewBox="0 0 32 32" fill="none" xmlns="http://www.w3.org/2000/svg">
<path d="M16.5364 6C16.6849 6.04455 16.8334 6.07439 16.9745 6.14122C17.5165 6.38625 17.8581 6.80943 17.9769 7.3886C17.9992 7.5074 18.0511 7.54453 18.1625 7.57423C18.6748 7.72273 19.1872 7.87858 19.6921 8.04193C19.952 8.13103 20.0411 8.31676 19.952 8.51725C19.8703 8.7103 19.6847 8.76226 19.4397 8.68058C18.9496 8.51722 18.4521 8.35393 17.9546 8.19058C17.6056 9.00735 17.0562 9.45279 16.1874 9.41567C15.5192 9.39339 15.0142 8.99976 14.6504 8.20526C14.242 8.33149 13.8188 8.45773 13.403 8.58396C13.299 8.61366 13.2025 8.66574 13.1059 8.69544C12.9055 8.76227 12.7273 8.69545 12.653 8.51725C12.5788 8.33162 12.653 8.13106 12.8609 8.06423C13.3362 7.90087 13.8114 7.74505 14.294 7.61139C14.4945 7.55942 14.6059 7.50004 14.6653 7.26986C14.836 6.61644 15.2815 6.20794 15.9424 6.03716C15.9795 6.02974 16.0166 6.00743 16.0538 6C16.2171 6 16.373 6 16.5364 6Z" fill="#0671B8"/>
<path d="M26.5902 16.6105C26.5456 16.7368 26.5085 16.863 26.4491 16.9818C26.2041 17.509 25.7957 17.8357 25.2239 17.9545C25.0903 17.9842 25.0532 18.0437 25.0161 18.1699C24.8676 18.6897 24.7116 19.2093 24.5334 19.7217C24.4369 20.0038 24.1102 20.0559 23.9394 19.8406C23.8429 19.7143 23.8577 19.5881 23.9023 19.4396C24.0582 18.9644 24.1993 18.4818 24.3478 18.0066C24.3478 17.9843 24.3478 17.9545 24.3552 17.9248C23.6127 17.6204 23.1597 17.0932 23.1671 16.2764C23.1671 15.4671 23.6201 14.9474 24.3923 14.6355C24.2438 14.1677 24.0953 13.6924 23.9394 13.2246C23.828 12.9053 23.8651 12.705 24.0805 12.6307C24.2958 12.5491 24.4666 12.653 24.5705 12.9648C24.7339 13.4475 24.8601 13.9375 25.0161 14.4201C25.0383 14.487 25.0977 14.5761 25.1571 14.5909C25.8922 14.7617 26.36 15.1924 26.5531 15.9275C26.5531 15.9423 26.5679 15.9498 26.5753 15.9572V16.6031L26.5902 16.6105Z" fill="#0671B8"/>
<path d="M14.6505 24.3921C14.9698 23.6125 15.4896 23.1819 16.2915 23.1596C17.0266 23.1448 17.5166 23.5011 17.9696 24.3773C18.378 24.251 18.8012 24.1248 19.2171 23.9986C19.321 23.9689 19.4175 23.917 19.514 23.8873C19.7145 23.8205 19.8853 23.9021 19.9596 24.0803C20.0264 24.2511 19.9596 24.4294 19.7739 24.5111C19.5066 24.6224 19.2244 24.7263 18.9497 24.8154C18.6973 24.8971 18.4374 24.9639 18.1701 25.0159C18.0439 25.0382 17.9993 25.0828 17.9696 25.2164C17.8062 26.0183 17.1157 26.59 16.3212 26.5974C15.5044 26.5974 14.8139 26.0481 14.6357 25.2313C14.606 25.1051 14.5614 25.0531 14.4278 25.0159C13.9155 24.8748 13.4031 24.7114 12.8982 24.548C12.6606 24.4664 12.5715 24.2734 12.6457 24.0803C12.72 23.8947 12.913 23.8353 13.1581 23.917C13.6481 24.0804 14.1456 24.2437 14.6505 24.407V24.3921Z" fill="#0671B8"/>
<path d="M8.20538 14.6356C8.99988 14.9623 9.43794 15.4895 9.43794 16.2988C9.43794 17.0933 8.99244 17.6205 8.23507 17.9323C8.30189 18.1848 8.36131 18.4521 8.43556 18.712C8.50981 18.9645 8.60632 19.2021 8.69542 19.4471C8.7771 19.6773 8.71772 19.8629 8.53209 19.9445C8.33904 20.0262 8.13855 19.9447 8.05687 19.7071C7.88609 19.1947 7.73015 18.6749 7.58164 18.1551C7.55194 18.0438 7.52224 17.9918 7.39601 17.9695C6.55697 17.7839 5.99265 17.1007 6.00007 16.2914C6.00007 15.4821 6.56438 14.8064 7.38858 14.6282C7.50739 14.6059 7.54451 14.5539 7.57421 14.4425C7.72272 13.9302 7.87122 13.4178 8.042 12.9129C8.12368 12.6604 8.31675 12.564 8.51723 12.6531C8.71028 12.7348 8.76228 12.9204 8.68061 13.1654C8.51725 13.6555 8.35387 14.153 8.19052 14.6505L8.20538 14.6356Z" fill="#0671B8"/>
<path d="M16.6553 13.7739C16.7221 13.8036 16.7741 13.8185 16.8186 13.8408C17.4052 14.1304 17.9918 14.4199 18.571 14.7244C18.6304 14.7541 18.7046 14.8283 18.7046 14.8877C18.7121 15.504 18.7046 16.1203 18.7046 16.7663C18.5561 16.6921 18.4373 16.6326 18.3111 16.5732C17.8062 16.3208 17.2938 16.0685 16.7889 15.8086C16.7295 15.7789 16.6553 15.7045 16.6553 15.6451C16.6479 15.0288 16.6553 14.4199 16.6553 13.7814V13.7739Z" fill="#FFB422"/>
<path d="M19.3952 16.7514C19.3952 16.3579 19.3952 15.9868 19.3952 15.6155C19.3952 15.3779 19.3952 15.1476 19.3952 14.91C19.3952 14.858 19.4323 14.7764 19.4769 14.7541C20.1154 14.4274 20.7689 14.1081 21.4371 13.7739C21.4371 13.8556 21.452 13.9076 21.452 13.9596C21.452 14.4867 21.452 15.0215 21.452 15.5487C21.452 15.6823 21.4148 15.7639 21.2886 15.8233C20.7095 16.1054 20.1377 16.3951 19.566 16.6847C19.5214 16.707 19.4695 16.7217 19.3952 16.7589V16.7514Z" fill="#FFB422"/>
<path d="M13.9302 17.8878C14.0787 17.9621 14.2123 18.0289 14.3534 18.0957C14.836 18.3408 15.3187 18.5858 15.8087 18.816C15.9275 18.8754 15.9795 18.9348 15.9721 19.0759C15.9647 19.6625 15.9721 20.249 15.9721 20.8579C15.9127 20.8356 15.8681 20.8283 15.831 20.806C15.237 20.509 14.643 20.2193 14.0564 19.9149C13.997 19.8852 13.9227 19.7961 13.9227 19.7292C13.9153 19.1501 13.9227 18.5636 13.9227 17.977C13.9227 17.9547 13.9301 17.9249 13.945 17.8804L13.9302 17.8878Z" fill="#FFB422"/>
<path d="M13.1951 16.7444C13.1283 16.7147 13.0763 16.6925 13.0169 16.6628C12.4452 16.3807 11.8809 16.0986 11.3165 15.809C11.2497 15.7793 11.1755 15.69 11.168 15.6306C11.1606 15.0217 11.168 14.4129 11.168 13.7817C11.2349 13.804 11.2794 13.8189 11.324 13.8412C11.9106 14.1308 12.4972 14.4203 13.0837 14.7248C13.1506 14.7545 13.2248 14.8435 13.2248 14.903C13.2323 15.4895 13.2248 16.0837 13.2248 16.6702C13.2248 16.6851 13.2174 16.7073 13.2025 16.7444H13.1951Z" fill="#FFB422"/>
<path d="M13.908 16.7442C13.908 16.4694 13.908 16.2097 13.908 15.9498C13.908 15.6157 13.908 15.2815 13.908 14.9473C13.908 14.8731 13.9599 14.7765 14.0119 14.7468C14.6282 14.4276 15.2519 14.1231 15.8757 13.8113C15.8905 13.8038 15.9128 13.8038 15.9648 13.7964C15.9648 13.9152 15.9648 14.0193 15.9648 14.1307C15.9648 14.6207 15.9648 15.1108 15.9648 15.5934C15.9648 15.6602 15.9128 15.7642 15.8534 15.7939C15.2445 16.1058 14.6356 16.4102 14.0267 16.7146C13.997 16.7295 13.9674 16.7368 13.908 16.7516V16.7442Z" fill="#FFB422"/>
<path d="M16.6553 20.8802C16.6553 20.5386 16.6553 20.2267 16.6553 19.9149C16.6553 19.6253 16.6553 19.3432 16.6553 19.0536C16.6553 18.9942 16.685 18.8977 16.7296 18.8754C17.3755 18.5413 18.029 18.2219 18.7047 17.8804C18.7047 18.3482 18.7047 18.7788 18.7047 19.2095C18.7047 19.4248 18.7715 19.6774 18.675 19.8407C18.5784 19.9967 18.3186 20.056 18.1255 20.1525C17.6429 20.3976 17.1602 20.6352 16.6479 20.8876L16.6553 20.8802Z" fill="#FFB422"/>
<path d="M11.5913 13.2027C11.8289 13.0839 12.0294 12.9798 12.2373 12.8758C12.6308 12.6754 13.0244 12.4749 13.4179 12.2892C13.4848 12.2595 13.5887 12.2448 13.6555 12.2745C14.2569 12.5641 14.851 12.8685 15.4524 13.1655C15.4673 13.173 15.4821 13.1877 15.5118 13.2174C15.1851 13.3807 14.8732 13.5368 14.5614 13.6927C14.2718 13.8412 13.9748 13.9898 13.6852 14.1308C13.6258 14.1605 13.5367 14.1752 13.4847 14.153C12.861 13.8485 12.2447 13.5368 11.5913 13.2101V13.2027Z" fill="#FFB422"/>
<path d="M14.3312 17.3234C14.9846 16.9967 15.6009 16.6849 16.2171 16.3804C16.2617 16.3582 16.336 16.3507 16.3805 16.3804C17.0042 16.6849 17.628 16.9967 18.2739 17.3234C18.0735 17.4274 17.8953 17.5166 17.7171 17.6057C17.2864 17.821 16.8557 18.0363 16.4251 18.2516C16.3731 18.2813 16.2914 18.3036 16.2394 18.2813C15.6083 17.9769 14.9846 17.6576 14.3237 17.3309L14.3312 17.3234Z" fill="#FFB422"/>
<path d="M17.0859 13.2029C17.2122 13.1361 17.3235 13.0839 17.4275 13.0319C17.925 12.7869 18.415 12.5345 18.9125 12.2894C18.9868 12.2523 19.0982 12.245 19.165 12.2747C19.7516 12.5569 20.3382 12.8539 20.9248 13.1509C20.947 13.1657 20.9693 13.1806 21.0139 13.2103C20.7762 13.3291 20.5609 13.4405 20.3456 13.5519C19.9595 13.7449 19.5659 13.9454 19.1798 14.131C19.1204 14.1607 19.0313 14.1754 18.9794 14.1532C18.3556 13.8487 17.7394 13.537 17.0859 13.2103V13.2029Z" fill="#FFB422"/>
<path d="M21.5114 23.4565C21.4223 23.3822 21.2886 23.3155 21.2515 23.2116C21.2144 23.1076 21.2515 22.9517 21.3109 22.8478C21.3703 22.7438 21.5039 22.6843 21.593 22.5952C21.9866 22.2017 22.3727 21.8007 22.7588 21.4071C22.7885 21.3774 22.8108 21.3404 22.8331 21.3181C22.9742 21.1696 23.1746 21.1473 23.3157 21.2661C23.4568 21.3849 23.4865 21.5781 23.3677 21.734C22.9073 22.3429 22.3653 22.8848 21.7564 23.3526C21.7044 23.3972 21.6227 23.4119 21.5039 23.4565H21.5114Z" fill="#0671B8"/>
<path d="M23.1004 11.4428C22.9816 11.3612 22.8702 11.3166 22.8108 11.2349C22.3801 10.6929 21.8901 10.2103 21.3481 9.77961C21.1773 9.63853 21.155 9.43811 21.2812 9.28218C21.4 9.1411 21.6005 9.11135 21.7639 9.23758C22.3653 9.69794 22.8925 10.2251 23.3528 10.8265C23.4494 10.9453 23.4791 11.0938 23.39 11.2201C23.3232 11.3092 23.2118 11.3612 23.1004 11.4428Z" fill="#0671B8"/>
<path d="M9.51225 21.1401C9.63106 21.2292 9.74241 21.2738 9.80924 21.3555C10.2399 21.8901 10.7225 22.3727 11.2572 22.8034C11.4354 22.9445 11.4651 23.1449 11.3463 23.3008C11.2275 23.4642 11.0121 23.479 10.8339 23.338C10.2473 22.885 9.72758 22.3652 9.27464 21.7786C9.17812 21.6598 9.13356 21.5187 9.22266 21.3925C9.28949 21.2959 9.40088 21.2367 9.51969 21.1476L9.51225 21.1401Z" fill="#0671B8"/>
<path d="M9.50481 11.4501C9.39343 11.361 9.25235 11.3016 9.22265 11.205C9.18552 11.1011 9.20037 10.9229 9.2672 10.8412C9.58648 10.4625 9.92064 10.0987 10.2622 9.7423C10.433 9.5641 10.6334 9.41567 10.8265 9.25974C11.0047 9.11866 11.2052 9.13354 11.3314 9.28947C11.4577 9.4454 11.4353 9.65326 11.2497 9.80176C10.7151 10.225 10.2325 10.7076 9.80179 11.2496C9.73496 11.3313 9.62361 11.3759 9.50481 11.465V11.4501Z" fill="#0671B8"/>
</svg>
