<svg width="32" height="32" viewBox="0 0 32 32" fill="none" xmlns="http://www.w3.org/2000/svg">
<path d="M6 11.7555H6.547C6.4598 12.0884 6.62629 12.2865 6.91168 12.3737C7.58552 12.5956 7.95811 13.0477 8.14837 13.7294C8.29106 14.2526 8.64779 14.3319 8.98075 13.9038C9.43261 13.3251 9.99546 13.1188 10.7089 13.1505C11.1767 13.1743 11.3352 12.8811 11.1212 12.461C11.0181 12.2548 10.9071 12.0408 10.8041 11.8347C10.8041 11.8188 10.8041 11.8029 10.7882 11.7712H12.3182C12.3975 11.9376 12.3816 12.0884 12.2548 12.2628C11.9773 12.6354 11.9377 13.0476 12.1438 13.4678C12.3499 13.8958 12.6987 14.1494 13.1744 14.1494C15.077 14.1653 16.9875 14.1653 18.8901 14.1494C19.3578 14.1494 19.7146 13.9038 19.9207 13.4757C20.1268 13.0555 20.0951 12.6433 19.8176 12.2707C19.6987 12.1042 19.6749 11.9614 19.7463 11.7712H21.3001C21.1812 12.0011 21.0702 12.2311 20.9592 12.453C20.7452 12.889 20.8958 13.1426 21.3873 13.1585C21.6806 13.1664 21.9739 13.1823 22.2593 13.214C22.3465 13.222 22.4416 13.2776 22.513 13.341C22.735 13.555 22.949 13.7769 23.171 13.9909C23.4484 14.2604 23.7972 14.205 23.8924 13.8324C24.0826 13.0634 24.5186 12.5641 25.2717 12.3183C25.5254 12.239 25.5889 12.0171 25.5334 11.7555H26.0566V14.958H6.02378V11.7476L6 11.7555Z" fill="#0671B8" stroke="#0671B8" stroke-width="0.11" stroke-miterlimit="10"/>
<path d="M8.41003 27.0001V25.4146H21.2447V27.0001H8.41003Z" fill="#0671B8" stroke="#0671B8" stroke-width="0.11" stroke-miterlimit="10"/>
<path d="M22.0452 27.0001V25.4146H26.0565V27.0001H22.0452Z" fill="#0671B8" stroke="#0671B8" stroke-width="0.11" stroke-miterlimit="10"/>
<path d="M6 15.7666H7.5855V17.368H6V15.7666Z" fill="#0671B8" stroke="#0671B8" stroke-width="0.11" stroke-miterlimit="10"/>
<path d="M6 18.1685H7.5855V19.7698H6V18.1685Z" fill="#0671B8" stroke="#0671B8" stroke-width="0.11" stroke-miterlimit="10"/>
<path d="M6 20.5786H7.5855V22.18H6V20.5786Z" fill="#0671B8" stroke="#0671B8" stroke-width="0.11" stroke-miterlimit="10"/>
<path d="M6 22.9883H7.5855V24.5897H6V22.9883Z" fill="#0671B8" stroke="#0671B8" stroke-width="0.11" stroke-miterlimit="10"/>
<path d="M6 25.3906H7.60137V26.992H6V25.3906Z" fill="#0671B8" stroke="#0671B8" stroke-width="0.11" stroke-miterlimit="10"/>
<path d="M21.2367 15.7744V17.344H8.43384V15.7744H21.2367Z" fill="#0671B8" stroke="#0671B8" stroke-width="0.11" stroke-miterlimit="10"/>
<path d="M21.2367 18.1846V19.7542H8.43384V18.1846H21.2367Z" fill="#0671B8" stroke="#0671B8" stroke-width="0.11" stroke-miterlimit="10"/>
<path d="M8.41785 22.164V20.5864H21.2207V22.164H8.41785Z" fill="#0671B8" stroke="#0671B8" stroke-width="0.11" stroke-miterlimit="10"/>
<path d="M21.2288 23.0044V24.582H8.4259V23.0044H21.2288Z" fill="#0671B8" stroke="#0671B8" stroke-width="0.11" stroke-miterlimit="10"/>
<path d="M13.1426 11.7395C13.0712 11.0657 12.9999 10.3997 12.9444 9.73383C12.9286 9.57528 13.1505 9.45636 13.3012 9.53564C13.5786 9.69419 13.8482 9.86056 14.1177 10.0191C14.4586 10.2173 14.6409 10.1777 14.8391 9.83679C15.1958 9.21845 15.5446 8.60816 15.8934 7.98982C15.9331 7.91847 15.9806 7.85501 16.0441 7.75195C16.1788 7.98185 16.2898 8.18007 16.4008 8.37826C16.6783 8.85391 16.9478 9.33734 17.2253 9.81299C17.4393 10.1777 17.6058 10.2252 17.9784 10.0032C18.2321 9.85262 18.4778 9.69421 18.7315 9.55945C18.8107 9.51981 18.9376 9.51981 19.0089 9.55945C19.0724 9.59116 19.112 9.71784 19.1041 9.79712C19.0486 10.4392 18.9852 11.0736 18.9217 11.7236H13.1505L13.1426 11.7395Z" fill="#FFB422"/>
<path d="M26.0565 15.7822V17.3519H22.069V15.7822H26.0565Z" fill="#0671B8" stroke="#0671B8" stroke-width="0.11" stroke-miterlimit="10"/>
<path d="M22.069 18.1846H26.0406V19.7701H22.069V18.1846Z" fill="#0671B8" stroke="#0671B8" stroke-width="0.11" stroke-miterlimit="10"/>
<path d="M22.0612 22.1639V20.5942H26.0408V22.1639H22.0612Z" fill="#0671B8" stroke="#0671B8" stroke-width="0.11" stroke-miterlimit="10"/>
<path d="M22.069 22.9966H26.0486V24.5821H22.069V22.9966Z" fill="#0671B8" stroke="#0671B8" stroke-width="0.11" stroke-miterlimit="10"/>
<path d="M16.0283 12.5557C16.94 12.5557 17.8516 12.5557 18.7633 12.5557C19.0408 12.5557 19.2073 12.6827 19.239 12.9046C19.2707 13.1504 19.0804 13.3484 18.795 13.3563C18.2322 13.3563 17.6773 13.3563 17.1144 13.3563C15.8619 13.3563 14.6093 13.3563 13.3567 13.3563C13.2299 13.3563 13.0555 13.3327 12.9921 13.2534C12.9049 13.1503 12.8494 12.968 12.8652 12.8332C12.897 12.6271 13.0793 12.5557 13.2854 12.5557C14.0702 12.5557 14.855 12.5557 15.6399 12.5557C15.7746 12.5557 15.9094 12.5557 16.0442 12.5557H16.0283Z" fill="#FFB422"/>
<path d="M7.67261 11.8584C8.21168 11.5413 8.45741 11.0973 8.44949 10.479C8.90928 10.8992 9.40079 11.018 9.98742 10.7722C9.924 11.0893 9.80511 11.3589 9.82889 11.6205C9.85267 11.8742 10.0271 12.1041 10.1618 12.4133C9.54348 12.3102 9.07577 12.5244 8.70317 13.111C8.59219 12.4371 8.27509 12.0407 7.66467 11.8663L7.67261 11.8584Z" fill="#FFB422"/>
<path d="M23.3533 13.1029C22.9807 12.5321 22.5209 12.2942 21.8947 12.3893C22.2593 11.8899 22.3386 11.3826 22.0611 10.8118C22.6478 11.01 23.1551 10.9149 23.6149 10.4868C23.5991 11.1131 23.8607 11.5491 24.3997 11.8662C23.8052 12.0565 23.4643 12.437 23.3612 13.1109L23.3533 13.1029Z" fill="#FFB422"/>
<path d="M16.5674 6.53902C16.5674 6.83233 16.3137 7.07803 16.0204 7.07803C15.735 7.07803 15.4971 6.84028 15.4892 6.55489C15.4813 6.2695 15.727 6.00793 16.0204 6C16.3137 6 16.5674 6.2457 16.5674 6.53902Z" fill="#FFB422"/>
<path d="M12.4292 8.00537C12.7225 8.00537 12.9683 8.27506 12.9524 8.56045C12.9366 8.85377 12.6749 9.09152 12.3896 9.0836C12.1042 9.06774 11.8743 8.82204 11.8743 8.54458C11.8743 8.25126 12.1359 8.00538 12.4213 8.01331L12.4292 8.00537Z" fill="#FFB422"/>
<path d="M19.6433 8.00537C19.9367 8.00537 20.1824 8.2592 20.1824 8.55252C20.1824 8.84583 19.9208 9.09152 19.6354 9.0836C19.35 9.0836 19.1122 8.83791 19.1122 8.55252C19.1122 8.2592 19.3579 8.00537 19.6512 8.00537H19.6433Z" fill="#FFB422"/>
</svg>
