<svg width="96" height="25" viewBox="0 0 96 25" fill="none" xmlns="http://www.w3.org/2000/svg">
<path d="M1.41819 0.446555L4.0091 7.79315H4.11137L6.70228 0.446555H7.81024L4.60569 9.17383H3.51478L0.310236 0.446555H1.41819ZM9.03325 9.17383V2.62837H10.0389V9.17383H9.03325ZM9.54461 1.53746C9.34859 1.53746 9.17955 1.4707 9.03751 1.33718C8.8983 1.20366 8.8287 1.04315 8.8287 0.855646C8.8287 0.668146 8.8983 0.507635 9.03751 0.374112C9.17955 0.240589 9.34859 0.173828 9.54461 0.173828C9.74063 0.173828 9.90825 0.240589 10.0475 0.374112C10.1895 0.507635 10.2605 0.668146 10.2605 0.855646C10.2605 1.04315 10.1895 1.20366 10.0475 1.33718C9.90825 1.4707 9.74063 1.53746 9.54461 1.53746ZM14.6252 9.31019C13.9945 9.31019 13.4505 9.17099 12.9931 8.89258C12.5386 8.61133 12.1877 8.21928 11.9406 7.71644C11.6962 7.21076 11.5741 6.62269 11.5741 5.95224C11.5741 5.28178 11.6962 4.69087 11.9406 4.17951C12.1877 3.66531 12.5315 3.26474 12.9718 2.97781C13.415 2.68803 13.932 2.54315 14.5229 2.54315C14.8639 2.54315 15.2005 2.59996 15.5329 2.7136C15.8653 2.82724 16.1678 3.0119 16.4406 3.26758C16.7133 3.52042 16.9306 3.85565 17.0926 4.27326C17.2545 4.69087 17.3354 5.20508 17.3354 5.81587V6.24201H12.29V5.37269H16.3127C16.3127 5.00337 16.2389 4.67383 16.0911 4.38406C15.9462 4.09428 15.7389 3.86559 15.469 3.69798C15.2019 3.53036 14.8866 3.44656 14.5229 3.44656C14.1224 3.44656 13.7758 3.54599 13.4832 3.74485C13.1934 3.94087 12.9704 4.19656 12.8141 4.5119C12.6579 4.82724 12.5798 5.16531 12.5798 5.5261V6.10565C12.5798 6.59996 12.665 7.019 12.8354 7.36275C13.0087 7.70366 13.2488 7.9636 13.5556 8.14258C13.8624 8.31871 14.219 8.40678 14.6252 8.40678C14.8894 8.40678 15.1281 8.36985 15.3411 8.29599C15.557 8.21928 15.7431 8.10565 15.8994 7.95508C16.0556 7.80167 16.1764 7.61133 16.2616 7.38406L17.2332 7.65678C17.1309 7.98633 16.959 8.2761 16.7176 8.5261C16.4761 8.77326 16.1778 8.96644 15.8227 9.10565C15.4676 9.24201 15.0684 9.31019 14.6252 9.31019ZM20.3482 9.17383L18.3539 2.62837H19.4107L20.8255 7.63974H20.8937L22.2914 2.62837H23.3653L24.746 7.62269H24.8141L26.2289 2.62837H27.2857L25.2914 9.17383H24.3028L22.871 4.14542H22.7687L21.3369 9.17383H20.3482ZM34.8198 9.17383H32.1266V0.446555H34.9391C35.7857 0.446555 36.5102 0.621271 37.1124 0.970703C37.7147 1.31729 38.1764 1.81587 38.4974 2.46644C38.8184 3.11417 38.9789 3.88974 38.9789 4.79315C38.9789 5.70224 38.817 6.48491 38.4931 7.14116C38.1693 7.79457 37.6977 8.29741 37.0783 8.64968C36.459 8.99911 35.7062 9.17383 34.8198 9.17383ZM33.1835 8.23633H34.7516C35.4732 8.23633 36.0712 8.09712 36.5457 7.81871C37.0201 7.54031 37.3738 7.144 37.6068 6.62979C37.8397 6.11559 37.9562 5.50337 37.9562 4.79315C37.9562 4.0886 37.8411 3.48207 37.611 2.97354C37.3809 2.46218 37.0372 2.07013 36.5798 1.79741C36.1224 1.52184 35.5528 1.38406 34.871 1.38406H33.1835V8.23633ZM40.6153 9.17383V2.62837H41.621V9.17383H40.6153ZM41.1266 1.53746C40.9306 1.53746 40.7616 1.4707 40.6195 1.33718C40.4803 1.20366 40.4107 1.04315 40.4107 0.855646C40.4107 0.668146 40.4803 0.507635 40.6195 0.374112C40.7616 0.240589 40.9306 0.173828 41.1266 0.173828C41.3227 0.173828 41.4903 0.240589 41.6295 0.374112C41.7715 0.507635 41.8426 0.668146 41.8426 0.855646C41.8426 1.04315 41.7715 1.20366 41.6295 1.33718C41.4903 1.4707 41.3227 1.53746 41.1266 1.53746ZM48.0993 4.09428L47.1959 4.34996C47.1391 4.1994 47.0553 4.05309 46.9445 3.91104C46.8365 3.76616 46.6888 3.64684 46.5013 3.55309C46.3138 3.45934 46.0737 3.41246 45.7811 3.41246C45.3805 3.41246 45.0467 3.50479 44.7797 3.68945C44.5155 3.87127 44.3834 4.10281 44.3834 4.38406C44.3834 4.63406 44.4743 4.8315 44.6561 4.97638C44.8379 5.12127 45.122 5.24201 45.5084 5.3386L46.48 5.57724C47.0652 5.71928 47.5013 5.93661 47.7882 6.22923C48.0752 6.519 48.2186 6.89258 48.2186 7.34996C48.2186 7.72496 48.1107 8.06019 47.8948 8.35565C47.6817 8.6511 47.3834 8.88406 46.9999 9.05451C46.6163 9.22496 46.1703 9.31019 45.6618 9.31019C44.9942 9.31019 44.4416 9.16531 44.0041 8.87553C43.5666 8.58576 43.2896 8.16246 43.1732 7.60565L44.1277 7.36701C44.2186 7.71928 44.3905 7.98349 44.6433 8.15962C44.899 8.33576 45.2328 8.42383 45.6448 8.42383C46.1135 8.42383 46.4857 8.3244 46.7612 8.12553C47.0396 7.92383 47.1788 7.68235 47.1788 7.4011C47.1788 7.17383 47.0993 6.98349 46.9402 6.83008C46.7811 6.67383 46.5368 6.55735 46.2073 6.48065L45.1163 6.22496C44.5169 6.08292 44.0766 5.86275 43.7953 5.56445C43.5169 5.26332 43.3777 4.8869 43.3777 4.43519C43.3777 4.06587 43.4814 3.73917 43.6888 3.45508C43.899 3.17099 44.1845 2.94798 44.5453 2.78604C44.909 2.62411 45.3209 2.54315 45.7811 2.54315C46.4288 2.54315 46.9374 2.68519 47.3067 2.96928C47.6788 3.25337 47.943 3.62837 48.0993 4.09428ZM52.5791 2.62837V3.48065H49.187V2.62837H52.5791ZM50.1756 1.06019H51.1813V7.29883C51.1813 7.58292 51.2225 7.79599 51.3049 7.93803C51.3901 8.07724 51.4981 8.17099 51.6288 8.21928C51.7623 8.26474 51.9029 8.28746 52.0506 8.28746C52.1614 8.28746 52.2524 8.28178 52.3234 8.27042C52.3944 8.25621 52.4512 8.24485 52.4938 8.23633L52.6984 9.13974C52.6302 9.16531 52.535 9.19087 52.4129 9.21644C52.2907 9.24485 52.1359 9.25906 51.9484 9.25906C51.6643 9.25906 51.3859 9.19798 51.1131 9.07582C50.8433 8.95366 50.6188 8.76758 50.4399 8.51758C50.2637 8.26758 50.1756 7.95224 50.1756 7.57156V1.06019ZM54.0918 9.17383V2.62837H55.0634V3.61701H55.1316C55.2509 3.29315 55.4668 3.03036 55.7793 2.82866C56.0918 2.62695 56.4441 2.5261 56.8362 2.5261C56.91 2.5261 57.0024 2.52752 57.1131 2.53036C57.2239 2.5332 57.3078 2.53746 57.3646 2.54315V3.56587C57.3305 3.55735 57.2524 3.54457 57.1302 3.52752C57.0109 3.50763 56.8845 3.49769 56.7509 3.49769C56.4328 3.49769 56.1487 3.56445 55.8987 3.69798C55.6515 3.82866 55.4555 4.01048 55.3106 4.24343C55.1685 4.47354 55.0975 4.73633 55.0975 5.03178V9.17383H54.0918ZM58.5567 9.17383V2.62837H59.5624V9.17383H58.5567ZM59.068 1.53746C58.872 1.53746 58.703 1.4707 58.5609 1.33718C58.4217 1.20366 58.3521 1.04315 58.3521 0.855646C58.3521 0.668146 58.4217 0.507635 58.5609 0.374112C58.703 0.240589 58.872 0.173828 59.068 0.173828C59.2641 0.173828 59.4317 0.240589 59.5709 0.374112C59.7129 0.507635 59.784 0.668146 59.784 0.855646C59.784 1.04315 59.7129 1.20366 59.5709 1.33718C59.4317 1.4707 59.2641 1.53746 59.068 1.53746ZM61.5407 9.17383V0.446555H62.5464V3.66815H62.6316C62.7055 3.55451 62.8078 3.40962 62.9384 3.23349C63.072 3.05451 63.2623 2.89542 63.5095 2.75621C63.7595 2.61417 64.0975 2.54315 64.5237 2.54315C65.0748 2.54315 65.5606 2.68093 65.981 2.9565C66.4015 3.23207 66.7296 3.62269 66.9654 4.12837C67.2012 4.63406 67.3191 5.23065 67.3191 5.91815C67.3191 6.61133 67.2012 7.21218 66.9654 7.7207C66.7296 8.22638 66.4029 8.61843 65.9853 8.89684C65.5677 9.17241 65.0862 9.31019 64.5407 9.31019C64.1203 9.31019 63.7836 9.24059 63.5308 9.10138C63.2779 8.95934 63.0833 8.79883 62.947 8.61985C62.8106 8.43803 62.7055 8.28746 62.6316 8.16815H62.5123V9.17383H61.5407ZM62.5293 5.9011C62.5293 6.39542 62.6018 6.8315 62.7467 7.20934C62.8916 7.58434 63.1032 7.87837 63.3816 8.09144C63.66 8.30167 64.0009 8.40678 64.4043 8.40678C64.8248 8.40678 65.1756 8.29599 65.4569 8.0744C65.741 7.84996 65.9541 7.54883 66.0961 7.17099C66.241 6.79031 66.3134 6.36701 66.3134 5.9011C66.3134 5.44087 66.2424 5.0261 66.1004 4.65678C65.9612 4.28462 65.7495 3.99059 65.4654 3.77468C65.1842 3.55593 64.8305 3.44656 64.4043 3.44656C63.9953 3.44656 63.6515 3.55025 63.3731 3.75763C63.0947 3.96218 62.8845 4.24911 62.7424 4.61843C62.6004 4.98491 62.5293 5.41246 62.5293 5.9011ZM72.9825 6.49769V2.62837H73.9881V9.17383H72.9825V8.06587H72.9143C72.7609 8.39826 72.5222 8.68093 72.1984 8.91388C71.8745 9.144 71.4654 9.25906 70.9711 9.25906C70.562 9.25906 70.1984 9.16957 69.8802 8.99059C69.562 8.80877 69.312 8.53604 69.1302 8.17241C68.9484 7.80593 68.8575 7.34428 68.8575 6.78746V2.62837H69.8631V6.71928C69.8631 7.19656 69.9967 7.57724 70.2637 7.86133C70.5336 8.14542 70.8774 8.28746 71.295 8.28746C71.545 8.28746 71.7992 8.22354 72.0578 8.0957C72.3191 7.96786 72.5379 7.77184 72.714 7.50763C72.893 7.24343 72.9825 6.90678 72.9825 6.49769ZM78.6767 2.62837V3.48065H75.2847V2.62837H78.6767ZM76.2733 1.06019H77.279V7.29883C77.279 7.58292 77.3202 7.79599 77.4026 7.93803C77.4878 8.07724 77.5957 8.17099 77.7264 8.21928C77.86 8.26474 78.0006 8.28746 78.1483 8.28746C78.2591 8.28746 78.35 8.28178 78.421 8.27042C78.4921 8.25621 78.5489 8.24485 78.5915 8.23633L78.796 9.13974C78.7278 9.16531 78.6327 9.19087 78.5105 9.21644C78.3884 9.24485 78.2335 9.25906 78.046 9.25906C77.7619 9.25906 77.4835 9.19798 77.2108 9.07582C76.9409 8.95366 76.7165 8.76758 76.5375 8.51758C76.3614 8.26758 76.2733 7.95224 76.2733 7.57156V1.06019ZM80.1895 9.17383V2.62837H81.1952V9.17383H80.1895ZM80.7009 1.53746C80.5048 1.53746 80.3358 1.4707 80.1938 1.33718C80.0546 1.20366 79.985 1.04315 79.985 0.855646C79.985 0.668146 80.0546 0.507635 80.1938 0.374112C80.3358 0.240589 80.5048 0.173828 80.7009 0.173828C80.8969 0.173828 81.0645 0.240589 81.2037 0.374112C81.3457 0.507635 81.4168 0.668146 81.4168 0.855646C81.4168 1.04315 81.3457 1.20366 81.2037 1.33718C81.0645 1.4707 80.8969 1.53746 80.7009 1.53746ZM85.6962 9.31019C85.1053 9.31019 84.5869 9.16957 84.1408 8.88832C83.6977 8.60707 83.3511 8.2136 83.1011 7.70792C82.8539 7.20224 82.7303 6.61133 82.7303 5.93519C82.7303 5.25337 82.8539 4.6582 83.1011 4.14968C83.3511 3.64116 83.6977 3.24627 84.1408 2.96502C84.5869 2.68377 85.1053 2.54315 85.6962 2.54315C86.2872 2.54315 86.8042 2.68377 87.2474 2.96502C87.6934 3.24627 88.04 3.64116 88.2872 4.14968C88.5372 4.6582 88.6622 5.25337 88.6622 5.93519C88.6622 6.61133 88.5372 7.20224 88.2872 7.70792C88.04 8.2136 87.6934 8.60707 87.2474 8.88832C86.8042 9.16957 86.2872 9.31019 85.6962 9.31019ZM85.6962 8.40678C86.1451 8.40678 86.5144 8.29173 86.8042 8.06161C87.094 7.8315 87.3085 7.52894 87.4477 7.15394C87.5869 6.77894 87.6565 6.37269 87.6565 5.93519C87.6565 5.49769 87.5869 5.09002 87.4477 4.71218C87.3085 4.33434 87.094 4.02894 86.8042 3.79599C86.5144 3.56303 86.1451 3.44656 85.6962 3.44656C85.2474 3.44656 84.8781 3.56303 84.5883 3.79599C84.2985 4.02894 84.084 4.33434 83.9448 4.71218C83.8056 5.09002 83.736 5.49769 83.736 5.93519C83.736 6.37269 83.8056 6.77894 83.9448 7.15394C84.084 7.52894 84.2985 7.8315 84.5883 8.06161C84.8781 8.29173 85.2474 8.40678 85.6962 8.40678ZM91.203 5.23633V9.17383H90.1973V2.62837H91.1689V3.6511H91.2541C91.4075 3.31871 91.6405 3.05167 91.953 2.84996C92.2655 2.64542 92.6689 2.54315 93.1632 2.54315C93.6064 2.54315 93.9942 2.63406 94.3266 2.81587C94.659 2.99485 94.9175 3.26758 95.1021 3.63406C95.2868 3.99769 95.3791 4.45792 95.3791 5.01474V9.17383H94.3734V5.08292C94.3734 4.56871 94.2399 4.16815 93.9729 3.88121C93.7058 3.59144 93.3394 3.44656 92.8734 3.44656C92.5524 3.44656 92.2655 3.51616 92.0127 3.65536C91.7627 3.79457 91.5652 3.99769 91.4203 4.26474C91.2754 4.53178 91.203 4.85565 91.203 5.23633ZM12.9606 24.1738V15.4466H14.0174V23.2363H18.0743V24.1738H12.9606ZM22.3186 24.3102C21.6879 24.3102 21.1439 24.171 20.6865 23.8926C20.2319 23.6113 19.8811 23.2193 19.6339 22.7164C19.3896 22.2108 19.2674 21.6227 19.2674 20.9522C19.2674 20.2818 19.3896 19.6909 19.6339 19.1795C19.8811 18.6653 20.2248 18.2647 20.6652 17.9778C21.1084 17.688 21.6254 17.5431 22.2163 17.5431C22.5572 17.5431 22.8939 17.6 23.2263 17.7136C23.5586 17.8272 23.8612 18.0119 24.1339 18.2676C24.4066 18.5204 24.624 18.8556 24.7859 19.2733C24.9478 19.6909 25.0288 20.2051 25.0288 20.8159V21.242H19.9834V20.3727H24.0061C24.0061 20.0034 23.9322 19.6738 23.7845 19.3841C23.6396 19.0943 23.4322 18.8656 23.1623 18.698C22.8953 18.5304 22.5799 18.4466 22.2163 18.4466C21.8157 18.4466 21.4691 18.546 21.1765 18.7449C20.8868 18.9409 20.6638 19.1966 20.5075 19.5119C20.3513 19.8272 20.2731 20.1653 20.2731 20.5261V21.1056C20.2731 21.6 20.3584 22.019 20.5288 22.3627C20.7021 22.7037 20.9422 22.9636 21.249 23.1426C21.5558 23.3187 21.9123 23.4068 22.3186 23.4068C22.5828 23.4068 22.8214 23.3699 23.0345 23.296C23.2504 23.2193 23.4365 23.1056 23.5927 22.9551C23.749 22.8017 23.8697 22.6113 23.9549 22.3841L24.9265 22.6568C24.8243 22.9863 24.6524 23.2761 24.4109 23.5261C24.1694 23.7733 23.8711 23.9664 23.516 24.1056C23.1609 24.242 22.7618 24.3102 22.3186 24.3102ZM28.4848 24.3272C28.07 24.3272 27.6936 24.2491 27.3555 24.0929C27.0174 23.9338 26.749 23.7051 26.5501 23.4068C26.3513 23.1056 26.2518 22.742 26.2518 22.3159C26.2518 21.9409 26.3257 21.6369 26.4734 21.4039C26.6211 21.1681 26.8186 20.9835 27.0657 20.85C27.3129 20.7164 27.5856 20.617 27.8839 20.5517C28.1851 20.4835 28.4876 20.4295 28.7916 20.3897C29.1893 20.3386 29.5118 20.3002 29.7589 20.2747C30.0089 20.2463 30.1907 20.1994 30.3044 20.1341C30.4209 20.0687 30.4791 19.9551 30.4791 19.7931V19.7591C30.4791 19.3386 30.364 19.0119 30.1339 18.7789C29.9066 18.546 29.5615 18.4295 29.0984 18.4295C28.6183 18.4295 28.2419 18.5346 27.9691 18.7449C27.6964 18.9551 27.5047 19.1795 27.3939 19.4181L26.4393 19.0772C26.6098 18.6795 26.837 18.3699 27.1211 18.1483C27.4081 17.9238 27.7206 17.7676 28.0586 17.6795C28.3995 17.5886 28.7348 17.5431 29.0643 17.5431C29.2745 17.5431 29.516 17.5687 29.7888 17.6199C30.0643 17.6681 30.3299 17.769 30.5856 17.9224C30.8441 18.0758 31.0586 18.3074 31.2291 18.617C31.3995 18.9267 31.4848 19.3414 31.4848 19.8613V24.1738H30.4791V23.2875H30.428C30.3598 23.4295 30.2461 23.5815 30.087 23.7434C29.928 23.9054 29.7163 24.0431 29.4521 24.1568C29.1879 24.2704 28.8655 24.3272 28.4848 24.3272ZM28.6382 23.4238C29.0359 23.4238 29.3711 23.3457 29.6439 23.1895C29.9194 23.0332 30.1268 22.8315 30.266 22.5843C30.4081 22.3372 30.4791 22.0772 30.4791 21.8045V20.8841C30.4365 20.9352 30.3427 20.9821 30.1978 21.0247C30.0558 21.0645 29.891 21.1 29.7035 21.1312C29.5189 21.1596 29.3385 21.1852 29.1623 21.2079C28.989 21.2278 28.8484 21.2449 28.7405 21.2591C28.4791 21.2931 28.2348 21.3485 28.0075 21.4252C27.7831 21.4991 27.6013 21.6113 27.462 21.7619C27.3257 21.9096 27.2575 22.1113 27.2575 22.367C27.2575 22.7164 27.3868 22.9806 27.6453 23.1596C27.9066 23.3358 28.2376 23.4238 28.6382 23.4238ZM35.7919 24.3102C35.2465 24.3102 34.765 24.1724 34.3473 23.8968C33.9297 23.6184 33.603 23.2264 33.3672 22.7207C33.1314 22.2122 33.0135 21.6113 33.0135 20.9181C33.0135 20.2306 33.1314 19.6341 33.3672 19.1284C33.603 18.6227 33.9312 18.2321 34.3516 17.9565C34.7721 17.6809 35.2579 17.5431 35.809 17.5431C36.2351 17.5431 36.5718 17.6142 36.8189 17.7562C37.0689 17.8954 37.2593 18.0545 37.39 18.2335C37.5235 18.4096 37.6272 18.5545 37.701 18.6681H37.7863V15.4466H38.7919V24.1738H37.8204V23.1681H37.701C37.6272 23.2875 37.5221 23.438 37.3857 23.6199C37.2493 23.7988 37.0547 23.9593 36.8019 24.1014C36.5491 24.2406 36.2124 24.3102 35.7919 24.3102ZM35.9283 23.4068C36.3317 23.4068 36.6726 23.3017 36.951 23.0914C37.2294 22.8784 37.4411 22.5843 37.586 22.2093C37.7309 21.8315 37.8033 21.3954 37.8033 20.9011C37.8033 20.4125 37.7323 19.9849 37.5902 19.6184C37.4482 19.2491 37.238 18.9622 36.9596 18.7576C36.6812 18.5502 36.3374 18.4466 35.9283 18.4466C35.5022 18.4466 35.1471 18.5559 34.863 18.7747C34.5817 18.9906 34.3701 19.2846 34.228 19.6568C34.0888 20.0261 34.0192 20.4409 34.0192 20.9011C34.0192 21.367 34.0902 21.7903 34.2323 22.171C34.3772 22.5488 34.5902 22.85 34.8715 23.0744C35.1556 23.296 35.5079 23.4068 35.9283 23.4068ZM43.5178 24.3102C42.8871 24.3102 42.3431 24.171 41.8857 23.8926C41.4312 23.6113 41.0803 23.2193 40.8331 22.7164C40.5888 22.2108 40.4667 21.6227 40.4667 20.9522C40.4667 20.2818 40.5888 19.6909 40.8331 19.1795C41.0803 18.6653 41.4241 18.2647 41.8644 17.9778C42.3076 17.688 42.8246 17.5431 43.4155 17.5431C43.7564 17.5431 44.0931 17.6 44.4255 17.7136C44.7579 17.8272 45.0604 18.0119 45.3331 18.2676C45.6059 18.5204 45.8232 18.8556 45.9851 19.2733C46.1471 19.6909 46.228 20.2051 46.228 20.8159V21.242H41.1826V20.3727H45.2053C45.2053 20.0034 45.1314 19.6738 44.9837 19.3841C44.8388 19.0943 44.6314 18.8656 44.3616 18.698C44.0945 18.5304 43.7792 18.4466 43.4155 18.4466C43.015 18.4466 42.6684 18.546 42.3758 18.7449C42.086 18.9409 41.863 19.1966 41.7067 19.5119C41.5505 19.8272 41.4723 20.1653 41.4723 20.5261V21.1056C41.4723 21.6 41.5576 22.019 41.728 22.3627C41.9013 22.7037 42.1414 22.9636 42.4482 23.1426C42.755 23.3187 43.1116 23.4068 43.5178 23.4068C43.782 23.4068 44.0206 23.3699 44.2337 23.296C44.4496 23.2193 44.6357 23.1056 44.7919 22.9551C44.9482 22.8017 45.0689 22.6113 45.1542 22.3841L46.1258 22.6568C46.0235 22.9863 45.8516 23.2761 45.6101 23.5261C45.3687 23.7733 45.0704 23.9664 44.7152 24.1056C44.3601 24.242 43.961 24.3102 43.5178 24.3102ZM47.7579 24.1738V17.6284H48.7294V18.617H48.7976C48.9169 18.2931 49.1329 18.0304 49.4454 17.8287C49.7579 17.627 50.1101 17.5261 50.5022 17.5261C50.576 17.5261 50.6684 17.5275 50.7792 17.5304C50.89 17.5332 50.9738 17.5375 51.0306 17.5431V18.5659C50.9965 18.5574 50.9184 18.5446 50.7962 18.5275C50.6769 18.5076 50.5505 18.4977 50.4169 18.4977C50.0988 18.4977 49.8147 18.5645 49.5647 18.698C49.3175 18.8287 49.1215 19.0105 48.9766 19.2434C48.8346 19.4735 48.7635 19.7363 48.7635 20.0318V24.1738H47.7579ZM52.3591 24.1738V15.4466H53.3647V18.6681H53.45C53.5238 18.5545 53.6261 18.4096 53.7568 18.2335C53.8903 18.0545 54.0807 17.8954 54.3278 17.7562C54.5778 17.6142 54.9159 17.5431 55.342 17.5431C55.8932 17.5431 56.379 17.6809 56.7994 17.9565C57.2199 18.2321 57.548 18.6227 57.7838 19.1284C58.0196 19.6341 58.1375 20.2306 58.1375 20.9181C58.1375 21.6113 58.0196 22.2122 57.7838 22.7207C57.548 23.2264 57.2213 23.6184 56.8037 23.8968C56.3861 24.1724 55.9045 24.3102 55.3591 24.3102C54.9386 24.3102 54.602 24.2406 54.3491 24.1014C54.0963 23.9593 53.9017 23.7988 53.7653 23.6199C53.629 23.438 53.5238 23.2875 53.45 23.1681H53.3307V24.1738H52.3591ZM53.3477 20.9011C53.3477 21.3954 53.4201 21.8315 53.565 22.2093C53.7099 22.5843 53.9216 22.8784 54.2 23.0914C54.4784 23.3017 54.8193 23.4068 55.2227 23.4068C55.6432 23.4068 55.994 23.296 56.2753 23.0744C56.5593 22.85 56.7724 22.5488 56.9145 22.171C57.0593 21.7903 57.1318 21.367 57.1318 20.9011C57.1318 20.4409 57.0608 20.0261 56.9187 19.6568C56.7795 19.2846 56.5679 18.9906 56.2838 18.7747C56.0025 18.5559 55.6488 18.4466 55.2227 18.4466C54.8136 18.4466 54.4699 18.5502 54.1915 18.7576C53.913 18.9622 53.7028 19.2491 53.5608 19.6184C53.4187 19.9849 53.3477 20.4125 53.3477 20.9011ZM62.3349 24.3102C61.744 24.3102 61.2255 24.1696 60.7795 23.8883C60.3363 23.6071 59.9897 23.2136 59.7397 22.7079C59.4926 22.2022 59.369 21.6113 59.369 20.9352C59.369 20.2534 59.4926 19.6582 59.7397 19.1497C59.9897 18.6412 60.3363 18.2463 60.7795 17.965C61.2255 17.6838 61.744 17.5431 62.3349 17.5431C62.9258 17.5431 63.4429 17.6838 63.8861 17.965C64.3321 18.2463 64.6787 18.6412 64.9258 19.1497C65.1758 19.6582 65.3008 20.2534 65.3008 20.9352C65.3008 21.6113 65.1758 22.2022 64.9258 22.7079C64.6787 23.2136 64.3321 23.6071 63.8861 23.8883C63.4429 24.1696 62.9258 24.3102 62.3349 24.3102ZM62.3349 23.4068C62.7838 23.4068 63.1531 23.2917 63.4429 23.0616C63.7326 22.8315 63.9471 22.5289 64.0863 22.1539C64.2255 21.7789 64.2951 21.3727 64.2951 20.9352C64.2951 20.4977 64.2255 20.09 64.0863 19.7122C63.9471 19.3343 63.7326 19.0289 63.4429 18.796C63.1531 18.563 62.7838 18.4466 62.3349 18.4466C61.8861 18.4466 61.5167 18.563 61.227 18.796C60.9372 19.0289 60.7227 19.3343 60.5835 19.7122C60.4443 20.09 60.3747 20.4977 60.3747 20.9352C60.3747 21.3727 60.4443 21.7789 60.5835 22.1539C60.7227 22.5289 60.9372 22.8315 61.227 23.0616C61.5167 23.2917 61.8861 23.4068 62.3349 23.4068ZM68.7621 24.3272C68.3473 24.3272 67.9709 24.2491 67.6329 24.0929C67.2948 23.9338 67.0263 23.7051 66.8275 23.4068C66.6286 23.1056 66.5292 22.742 66.5292 22.3159C66.5292 21.9409 66.603 21.6369 66.7508 21.4039C66.8985 21.1681 67.0959 20.9835 67.3431 20.85C67.5902 20.7164 67.863 20.617 68.1613 20.5517C68.4624 20.4835 68.765 20.4295 69.0689 20.3897C69.4667 20.3386 69.7891 20.3002 70.0363 20.2747C70.2863 20.2463 70.4681 20.1994 70.5817 20.1341C70.6982 20.0687 70.7564 19.9551 70.7564 19.7931V19.7591C70.7564 19.3386 70.6414 19.0119 70.4113 18.7789C70.184 18.546 69.8388 18.4295 69.3758 18.4295C68.8956 18.4295 68.5192 18.5346 68.2465 18.7449C67.9738 18.9551 67.782 19.1795 67.6712 19.4181L66.7167 19.0772C66.8871 18.6795 67.1144 18.3699 67.3985 18.1483C67.6854 17.9238 67.9979 17.7676 68.336 17.6795C68.6769 17.5886 69.0121 17.5431 69.3417 17.5431C69.5519 17.5431 69.7934 17.5687 70.0661 17.6199C70.3417 17.6681 70.6073 17.769 70.863 17.9224C71.1215 18.0758 71.336 18.3074 71.5064 18.617C71.6769 18.9267 71.7621 19.3414 71.7621 19.8613V24.1738H70.7564V23.2875H70.7053C70.6371 23.4295 70.5235 23.5815 70.3644 23.7434C70.2053 23.9054 69.9937 24.0431 69.7294 24.1568C69.4652 24.2704 69.1428 24.3272 68.7621 24.3272ZM68.9155 23.4238C69.3133 23.4238 69.6485 23.3457 69.9212 23.1895C70.1968 23.0332 70.4042 22.8315 70.5434 22.5843C70.6854 22.3372 70.7564 22.0772 70.7564 21.8045V20.8841C70.7138 20.9352 70.6201 20.9821 70.4752 21.0247C70.3331 21.0645 70.1684 21.1 69.9809 21.1312C69.7962 21.1596 69.6158 21.1852 69.4397 21.2079C69.2664 21.2278 69.1258 21.2449 69.0178 21.2591C68.7564 21.2931 68.5121 21.3485 68.2848 21.4252C68.0604 21.4991 67.8786 21.6113 67.7394 21.7619C67.603 21.9096 67.5348 22.1113 67.5348 22.367C67.5348 22.7164 67.6641 22.9806 67.9226 23.1596C68.184 23.3358 68.515 23.4238 68.9155 23.4238ZM73.5977 24.1738V17.6284H74.5693V18.617H74.6375C74.7568 18.2931 74.9727 18.0304 75.2852 17.8287C75.5977 17.627 75.95 17.5261 76.342 17.5261C76.4159 17.5261 76.5082 17.5275 76.619 17.5304C76.7298 17.5332 76.8136 17.5375 76.8704 17.5431V18.5659C76.8363 18.5574 76.7582 18.5446 76.6361 18.5275C76.5167 18.5076 76.3903 18.4977 76.2568 18.4977C75.9386 18.4977 75.6545 18.5645 75.4045 18.698C75.1574 18.8287 74.9613 19.0105 74.8165 19.2434C74.6744 19.4735 74.6034 19.7363 74.6034 20.0318V24.1738H73.5977ZM80.3349 24.3102C79.7895 24.3102 79.3079 24.1724 78.8903 23.8968C78.4727 23.6184 78.146 23.2264 77.9102 22.7207C77.6744 22.2122 77.5565 21.6113 77.5565 20.9181C77.5565 20.2306 77.6744 19.6341 77.9102 19.1284C78.146 18.6227 78.4741 18.2321 78.8946 17.9565C79.315 17.6809 79.8008 17.5431 80.352 17.5431C80.7781 17.5431 81.1147 17.6142 81.3619 17.7562C81.6119 17.8954 81.8022 18.0545 81.9329 18.2335C82.0665 18.4096 82.1701 18.5545 82.244 18.6681H82.3292V15.4466H83.3349V24.1738H82.3633V23.1681H82.244C82.1701 23.2875 82.065 23.438 81.9287 23.6199C81.7923 23.7988 81.5977 23.9593 81.3449 24.1014C81.092 24.2406 80.7554 24.3102 80.3349 24.3102ZM80.4713 23.4068C80.8747 23.4068 81.2156 23.3017 81.494 23.0914C81.7724 22.8784 81.9841 22.5843 82.129 22.2093C82.2738 21.8315 82.3463 21.3954 82.3463 20.9011C82.3463 20.4125 82.2753 19.9849 82.1332 19.6184C81.9912 19.2491 81.7809 18.9622 81.5025 18.7576C81.2241 18.5502 80.8804 18.4466 80.4713 18.4466C80.0451 18.4466 79.69 18.5559 79.4059 18.7747C79.1247 18.9906 78.913 19.2846 78.771 19.6568C78.6318 20.0261 78.5622 20.4409 78.5622 20.9011C78.5622 21.367 78.6332 21.7903 78.7753 22.171C78.9201 22.5488 79.1332 22.85 79.4145 23.0744C79.6986 23.296 80.0508 23.4068 80.4713 23.4068Z" fill="black"/>
</svg>
