<svg width="32" height="32" viewBox="0 0 32 32" fill="none" xmlns="http://www.w3.org/2000/svg">
<path d="M8 26.271V6C13.1299 6 18.3577 6 23.4876 6C23.5328 6.15066 23.5102 6.2938 23.5102 6.44446C23.5102 12.9755 23.5102 19.4989 23.5102 26.0299C23.5102 26.0676 23.5102 26.1128 23.5102 26.1504C23.4951 26.4518 23.3369 26.5422 23.0808 26.384C22.7795 26.2032 22.4707 26.0224 22.1844 25.8265C21.966 25.6759 21.7701 25.6759 21.5441 25.8265C21.0695 26.1354 20.5724 26.4216 20.0978 26.7305C19.9095 26.851 19.7663 26.8585 19.5705 26.7305C19.1034 26.4216 18.6138 26.1429 18.1393 25.8341C17.8982 25.6759 17.7023 25.6684 17.4537 25.8341C17.0018 26.1354 16.5197 26.4066 16.0677 26.7079C15.8493 26.851 15.6836 26.8661 15.4576 26.7079C14.983 26.3915 14.4858 26.1053 14.0112 25.804C13.8078 25.6759 13.6346 25.6834 13.4312 25.804C12.9416 26.1128 12.4444 26.4066 11.9623 26.7229C11.7664 26.851 11.6158 26.8435 11.4199 26.7229C10.9303 26.399 10.4256 26.1053 9.92841 25.7964C9.74009 25.6834 9.57435 25.6759 9.39356 25.7964C9.09225 25.9923 8.78342 26.1806 8.47457 26.3689C8.22599 26.5196 8.17326 26.5045 8 26.2785V26.271ZM16.5423 14.0753C16.8135 14.0451 17.062 14.0451 17.3031 13.9849C17.9886 13.8116 18.4029 13.1638 18.3276 12.4406C18.2523 11.7702 17.6647 11.2353 16.9566 11.2203C16.4519 11.2052 15.9397 11.2354 15.4425 11.2052C15.2617 11.1977 15.0508 11.0998 14.9152 10.9793C14.7269 10.8135 14.7118 10.5649 14.8172 10.3314C14.9227 10.0904 15.1186 9.95476 15.3822 9.95476C16.1129 9.95476 16.8436 9.95476 17.5743 9.95476C17.6722 9.95476 17.7702 9.95478 17.8606 9.92464C18.0413 9.87191 18.1393 9.72878 18.1242 9.54046C18.1091 9.34461 17.9961 9.21657 17.7927 9.18644C17.6948 9.17891 17.5969 9.18644 17.5065 9.18644C17.1976 9.18644 16.8888 9.18644 16.5498 9.18644C16.5498 8.95292 16.5498 8.75704 16.5498 8.55366C16.5498 8.23728 16.4142 8.07908 16.1657 8.07908C15.9171 8.07908 15.7815 8.24481 15.7815 8.55366C15.7815 8.75704 15.7815 8.96043 15.7815 9.16382C15.5254 9.17888 15.3069 9.17136 15.096 9.21655C14.3954 9.36721 13.9209 10.0301 13.9962 10.7307C14.0715 11.4388 14.659 11.9811 15.3747 11.9962C15.8794 12.0037 16.3841 11.9962 16.8963 11.9962C17.3257 11.9962 17.5969 12.305 17.5668 12.7043C17.5366 13.0508 17.2654 13.2693 16.8587 13.2768C16.1656 13.2768 15.4802 13.2768 14.7871 13.2768C14.3879 13.2768 14.2146 13.3973 14.2146 13.6685C14.2146 13.9321 14.3954 14.0526 14.7947 14.0526C15.1186 14.0526 15.4425 14.0526 15.7815 14.0526C15.7815 14.1958 15.7815 14.3013 15.7815 14.4067C15.7815 14.5197 15.7815 14.6327 15.7815 14.7457C15.7965 14.9943 15.9472 15.1525 16.1657 15.16C16.3916 15.16 16.5498 14.9943 16.5498 14.7306C16.5498 14.5122 16.5498 14.3013 16.5498 14.0828L16.5423 14.0753ZM16.9566 17.3897C15.5103 17.3897 14.064 17.3897 12.6177 17.3897C12.5423 17.3897 12.4745 17.3897 12.3992 17.3897C12.1808 17.4048 12.0301 17.5555 12.0226 17.7513C12.015 17.9547 12.1657 18.1279 12.3917 18.1581C12.4519 18.1581 12.5197 18.1581 12.5875 18.1581C15.5028 18.1581 18.418 18.1581 21.3407 18.1581C21.4236 18.1581 21.5065 18.1656 21.5818 18.1505C21.7852 18.0978 21.9057 17.9698 21.8982 17.7589C21.8831 17.5479 21.7626 17.4198 21.5516 17.3972C21.4838 17.3897 21.4085 17.3972 21.3332 17.3972C19.8794 17.3972 18.4255 17.3972 16.9716 17.3972L16.9566 17.3897ZM16.9415 20.4858C17.9735 20.4858 18.998 20.4858 20.03 20.4858C20.5121 20.4858 20.9942 20.4858 21.4763 20.4858C21.7324 20.4858 21.8906 20.3351 21.8906 20.1166C21.8906 19.8907 21.7324 19.7324 21.4688 19.7174C21.4311 19.7174 21.3859 19.7174 21.3483 19.7174C18.418 19.7174 15.4801 19.7174 12.5498 19.7174C12.467 19.7174 12.3842 19.7174 12.3088 19.7325C12.1205 19.7927 12.0075 19.9283 12.0226 20.1241C12.0376 20.32 12.1582 20.4481 12.354 20.4782C12.4294 20.4933 12.5122 20.4782 12.595 20.4782C14.0413 20.4782 15.4877 20.4782 16.934 20.4782L16.9415 20.4858ZM16.9566 22.8134C17.2654 22.8134 17.5667 22.8134 17.8756 22.8134C19.0507 22.8134 20.2183 22.8134 21.3935 22.8134C21.5893 22.8134 21.7626 22.7908 21.8605 22.5874C21.9961 22.3012 21.7852 22.0451 21.4085 22.0451C18.4406 22.0451 15.4801 22.0451 12.5122 22.0451C12.2033 22.0451 12.0301 22.1882 12.0226 22.4217C12.0226 22.6628 12.1958 22.8059 12.4972 22.8134C12.5649 22.8134 12.6252 22.8134 12.693 22.8134C14.1167 22.8134 15.5404 22.8134 16.9566 22.8134ZM10.4482 17.3897C10.3051 17.3897 10.1619 17.3897 10.0188 17.3897C9.78529 17.4048 9.63462 17.5554 9.63462 17.7663C9.63462 17.9697 9.77024 18.143 9.98869 18.1505C10.29 18.1656 10.5988 18.1656 10.9001 18.1505C11.1111 18.143 11.2467 17.9622 11.2467 17.7589C11.2467 17.5555 11.096 17.4048 10.8851 17.3897C10.742 17.3822 10.5988 17.3897 10.4557 17.3897H10.4482ZM10.4331 20.4858C10.5838 20.4858 10.7345 20.4933 10.8926 20.4858C11.1036 20.4707 11.2241 20.3426 11.2467 20.1317C11.2617 19.9283 11.1261 19.74 10.9152 19.7325C10.6064 19.7174 10.29 19.7174 9.98115 19.7325C9.77023 19.74 9.63462 19.9208 9.63462 20.1241C9.63462 20.3275 9.78527 20.4782 10.0037 20.4933C10.1468 20.5008 10.29 20.4933 10.4331 20.4933V20.4858ZM10.4331 22.8134C10.5838 22.8134 10.7344 22.8209 10.8851 22.8134C11.1036 22.7983 11.2467 22.6477 11.2467 22.4443C11.2467 22.2334 11.1337 22.0827 10.9228 22.0676C10.6064 22.045 10.2825 22.045 9.96607 22.0676C9.76268 22.0827 9.64216 22.2334 9.64216 22.4443C9.64216 22.6477 9.78527 22.7983 10.0037 22.8134C10.1468 22.8209 10.29 22.8134 10.4331 22.8134Z" fill="#0671B8"/>
<path d="M15.8492 15.1298C17.9127 15.1298 19.5855 13.4571 19.5855 11.3935C19.5855 9.33004 17.9127 7.65723 15.8492 7.65723C13.7857 7.65723 12.1129 9.33004 12.1129 11.3935C12.1129 13.4571 13.7857 15.1298 15.8492 15.1298Z" fill="#FFB422"/>
<path d="M16.0676 13.7815C16.0676 13.6459 16.0676 13.5178 16.0676 13.3898C16.0676 13.3371 16.0827 13.3145 16.1354 13.2994C16.2258 13.2768 16.3087 13.2391 16.3915 13.2015C17.0092 12.8775 17.1975 12.1469 16.8058 11.6045C16.5572 11.273 16.2107 11.1149 15.8039 11.0998C15.6156 11.0998 15.4499 11.0546 15.3068 10.9341C15.1034 10.7608 15.0732 10.4896 15.239 10.2938C15.4273 10.0753 15.6759 10.0151 15.9471 10.0753C16.2032 10.1356 16.3764 10.2862 16.4141 10.565H17.0168C17.0168 10.5047 17.0167 10.4595 17.0017 10.4068C16.9113 9.93975 16.6175 9.6535 16.1806 9.51038C16.0977 9.48025 16.0752 9.44257 16.0752 9.35971C16.0752 9.24672 16.0752 9.12618 16.0752 9.01318H15.4649C15.4649 9.12618 15.4574 9.23164 15.4649 9.34463C15.4725 9.45009 15.4424 9.50285 15.3369 9.51792C15.2842 9.52545 15.2315 9.55555 15.1787 9.57815C14.5384 9.887 14.32 10.6403 14.7267 11.1902C14.9753 11.5216 15.3143 11.6874 15.7286 11.7024C15.9019 11.7024 16.0601 11.7401 16.2032 11.8456C16.4744 12.0489 16.4744 12.403 16.2032 12.6064C15.804 12.9152 15.2691 12.7344 15.1109 12.2373H14.5083C14.5234 12.3201 14.5233 12.3879 14.5384 12.4557C14.6514 12.9002 14.9527 13.1638 15.3746 13.2994C15.4423 13.322 15.4575 13.3446 15.4575 13.4124C15.4575 13.5329 15.4575 13.661 15.4575 13.789H16.0676V13.7815Z" fill="white"/>
</svg>
