<svg width="185" height="13" viewBox="0 0 185 13" fill="none" xmlns="http://www.w3.org/2000/svg">
<path d="M1.11364 1.22341V9.95068H0.0568182V1.22341H1.11364ZM4.10192 6.01318V9.95068H3.09624V3.40523H4.06783V4.42796H4.15305C4.30646 4.09557 4.53942 3.82852 4.85192 3.62682C5.16442 3.42227 5.56783 3.32 6.06215 3.32C6.50533 3.32 6.89311 3.41091 7.2255 3.59273C7.55788 3.77171 7.81641 4.04443 8.00107 4.41091C8.18572 4.77455 8.27805 5.23477 8.27805 5.79159V9.95068H7.27237V5.85977C7.27237 5.34557 7.13885 4.945 6.8718 4.65807C6.60476 4.3683 6.23828 4.22341 5.77237 4.22341C5.45135 4.22341 5.16442 4.29301 4.91158 4.43222C4.66158 4.57142 4.46413 4.77455 4.31925 5.04159C4.17436 5.30864 4.10192 5.6325 4.10192 6.01318ZM15.2337 3.40523L12.8132 9.95068H11.7905L9.37003 3.40523H10.4609L12.2678 8.62114H12.3359L14.1428 3.40523H15.2337ZM19.071 10.087C18.4403 10.087 17.8963 9.94784 17.4389 9.66943C16.9844 9.38818 16.6335 8.99614 16.3864 8.4933C16.142 7.98762 16.0199 7.39955 16.0199 6.72909C16.0199 6.05864 16.142 5.46773 16.3864 4.95637C16.6335 4.44216 16.9773 4.04159 17.4176 3.75466C17.8608 3.46489 18.3778 3.32 18.9688 3.32C19.3097 3.32 19.6463 3.37682 19.9787 3.49046C20.3111 3.60409 20.6136 3.78875 20.8864 4.04443C21.1591 4.29727 21.3764 4.6325 21.5384 5.05012C21.7003 5.46773 21.7812 5.98193 21.7812 6.59273V7.01887H16.7358V6.14955H20.7585C20.7585 5.78023 20.6847 5.45068 20.5369 5.16091C20.392 4.87114 20.1847 4.64244 19.9148 4.47483C19.6477 4.30722 19.3324 4.22341 18.9688 4.22341C18.5682 4.22341 18.2216 4.32284 17.929 4.52171C17.6392 4.71773 17.4162 4.97341 17.2599 5.28875C17.1037 5.60409 17.0256 5.94216 17.0256 6.30296V6.8825C17.0256 7.37682 17.1108 7.79585 17.2812 8.1396C17.4545 8.48051 17.6946 8.74046 18.0014 8.91943C18.3082 9.09557 18.6648 9.18364 19.071 9.18364C19.3352 9.18364 19.5739 9.14671 19.7869 9.07284C20.0028 8.99614 20.1889 8.8825 20.3452 8.73193C20.5014 8.57852 20.6222 8.38818 20.7074 8.16091L21.679 8.43364C21.5767 8.76318 21.4048 9.05296 21.1634 9.30296C20.9219 9.55012 20.6236 9.7433 20.2685 9.8825C19.9134 10.0189 19.5142 10.087 19.071 10.087ZM24.3168 6.01318V9.95068H23.3111V3.40523H24.2827V4.42796H24.3679C24.5213 4.09557 24.7543 3.82852 25.0668 3.62682C25.3793 3.42227 25.7827 3.32 26.277 3.32C26.7202 3.32 27.108 3.41091 27.4403 3.59273C27.7727 3.77171 28.0313 4.04443 28.2159 4.41091C28.4006 4.77455 28.4929 5.23477 28.4929 5.79159V9.95068H27.4872V5.85977C27.4872 5.34557 27.3537 4.945 27.0866 4.65807C26.8196 4.3683 26.4531 4.22341 25.9872 4.22341C25.6662 4.22341 25.3793 4.29301 25.1264 4.43222C24.8764 4.57142 24.679 4.77455 24.5341 5.04159C24.3892 5.30864 24.3168 5.6325 24.3168 6.01318ZM33.1772 3.40523V4.2575H29.7852V3.40523H33.1772ZM30.7738 1.83705H31.7795V8.07568C31.7795 8.35977 31.8207 8.57284 31.9031 8.71489C31.9883 8.85409 32.0962 8.94784 32.2269 8.99614C32.3604 9.04159 32.5011 9.06432 32.6488 9.06432C32.7596 9.06432 32.8505 9.05864 32.9215 9.04727C32.9925 9.03307 33.0494 9.02171 33.092 9.01318L33.2965 9.91659C33.2283 9.94216 33.1332 9.96773 33.011 9.9933C32.8888 10.0217 32.734 10.0359 32.5465 10.0359C32.2624 10.0359 31.984 9.97483 31.7113 9.85267C31.4414 9.73051 31.217 9.54443 31.038 9.29443C30.8619 9.04443 30.7738 8.72909 30.7738 8.34841V1.83705ZM37.2788 10.087C36.6879 10.087 36.1694 9.94642 35.7234 9.66517C35.2802 9.38392 34.9336 8.99046 34.6836 8.48477C34.4364 7.97909 34.3129 7.38818 34.3129 6.71205C34.3129 6.03023 34.4364 5.43506 34.6836 4.92654C34.9336 4.41801 35.2802 4.02313 35.7234 3.74188C36.1694 3.46063 36.6879 3.32 37.2788 3.32C37.8697 3.32 38.3867 3.46063 38.8299 3.74188C39.2759 4.02313 39.6225 4.41801 39.8697 4.92654C40.1197 5.43506 40.2447 6.03023 40.2447 6.71205C40.2447 7.38818 40.1197 7.97909 39.8697 8.48477C39.6225 8.99046 39.2759 9.38392 38.8299 9.66517C38.3867 9.94642 37.8697 10.087 37.2788 10.087ZM37.2788 9.18364C37.7276 9.18364 38.0969 9.06858 38.3867 8.83847C38.6765 8.60835 38.891 8.3058 39.0302 7.9308C39.1694 7.5558 39.239 7.14955 39.239 6.71205C39.239 6.27455 39.1694 5.86688 39.0302 5.48904C38.891 5.11119 38.6765 4.8058 38.3867 4.57284C38.0969 4.33989 37.7276 4.22341 37.2788 4.22341C36.8299 4.22341 36.4606 4.33989 36.1708 4.57284C35.881 4.8058 35.6665 5.11119 35.5273 5.48904C35.3881 5.86688 35.3185 6.27455 35.3185 6.71205C35.3185 7.14955 35.3881 7.5558 35.5273 7.9308C35.6665 8.3058 35.881 8.60835 36.1708 8.83847C36.4606 9.06858 36.8299 9.18364 37.2788 9.18364ZM41.7798 9.95068V3.40523H42.7514V4.39387H42.8196C42.9389 4.07 43.1548 3.80722 43.4673 3.60551C43.7798 3.40381 44.1321 3.30296 44.5241 3.30296C44.598 3.30296 44.6903 3.30438 44.8011 3.30722C44.9119 3.31006 44.9957 3.31432 45.0526 3.32V4.34273C45.0185 4.33421 44.9403 4.32142 44.8182 4.30438C44.6989 4.28449 44.5724 4.27455 44.4389 4.27455C44.1207 4.27455 43.8366 4.34131 43.5866 4.47483C43.3395 4.60551 43.1435 4.78733 42.9986 5.02029C42.8565 5.2504 42.7855 5.51318 42.7855 5.80864V9.95068H41.7798ZM47.0916 12.4052C46.9212 12.4052 46.7692 12.391 46.6357 12.3626C46.5021 12.337 46.4098 12.3115 46.3587 12.2859L46.6143 11.3995C46.8587 11.462 47.0746 11.4848 47.2621 11.4677C47.4496 11.4507 47.6158 11.3669 47.7607 11.2163C47.9084 11.0686 48.0433 10.8285 48.1655 10.4961L48.353 9.98477L45.9325 3.40523H47.0234L48.8303 8.62114H48.8984L50.7053 3.40523H51.7962L49.0178 10.9052C48.8928 11.2433 48.7379 11.5231 48.5533 11.7447C48.3686 11.9691 48.1541 12.1353 47.9098 12.2433C47.6683 12.3513 47.3956 12.4052 47.0916 12.4052ZM56.9929 9.95068H55.8849L59.0895 1.22341H60.1804L63.3849 9.95068H62.277L59.669 2.60409H59.6009L56.9929 9.95068ZM57.402 6.54159H61.8679V7.47909H57.402V6.54159ZM67.0795 10.087C66.5341 10.087 66.0526 9.94926 65.6349 9.67369C65.2173 9.39529 64.8906 9.00324 64.6548 8.49756C64.419 7.98904 64.3011 7.38818 64.3011 6.695C64.3011 6.0075 64.419 5.41091 64.6548 4.90523C64.8906 4.39955 65.2188 4.00892 65.6392 3.73335C66.0597 3.45779 66.5455 3.32 67.0966 3.32C67.5227 3.32 67.8594 3.39102 68.1065 3.53307C68.3565 3.67227 68.5469 3.83137 68.6776 4.01034C68.8111 4.18648 68.9148 4.33137 68.9886 4.445H69.0739V1.22341H70.0795V9.95068H69.108V8.945H68.9886C68.9148 9.06432 68.8097 9.21489 68.6733 9.39671C68.5369 9.57568 68.3423 9.73619 68.0895 9.87824C67.8366 10.0174 67.5 10.087 67.0795 10.087ZM67.2159 9.18364C67.6193 9.18364 67.9602 9.07852 68.2386 8.8683C68.517 8.65523 68.7287 8.36119 68.8736 7.98619C69.0185 7.60835 69.0909 7.17227 69.0909 6.67796C69.0909 6.18932 69.0199 5.76176 68.8778 5.39529C68.7358 5.02597 68.5256 4.73904 68.2472 4.53449C67.9688 4.3271 67.625 4.22341 67.2159 4.22341C66.7898 4.22341 66.4347 4.33279 66.1506 4.55154C65.8693 4.76744 65.6577 5.06148 65.5156 5.43364C65.3764 5.80296 65.3068 6.21773 65.3068 6.67796C65.3068 7.14387 65.3778 7.56716 65.5199 7.94784C65.6648 8.32568 65.8778 8.62682 66.1591 8.85125C66.4432 9.07284 66.7955 9.18364 67.2159 9.18364ZM72.0611 3.40523H73.0668V10.428C73.0668 10.8314 72.9972 11.1808 72.858 11.4763C72.7216 11.7717 72.5142 12.0004 72.2358 12.1623C71.9602 12.3243 71.6122 12.4052 71.1918 12.4052C71.1577 12.4052 71.1236 12.4052 71.0895 12.4052C71.0554 12.4052 71.0213 12.4052 70.9872 12.4052V11.4677C71.0213 11.4677 71.0526 11.4677 71.081 11.4677C71.1094 11.4677 71.1406 11.4677 71.1747 11.4677C71.4815 11.4677 71.706 11.3768 71.848 11.195C71.9901 11.016 72.0611 10.7603 72.0611 10.428V3.40523ZM72.5554 2.31432C72.3594 2.31432 72.1903 2.24756 72.0483 2.11404C71.9091 1.98051 71.8395 1.82 71.8395 1.6325C71.8395 1.445 71.9091 1.28449 72.0483 1.15097C72.1903 1.01744 72.3594 0.950684 72.5554 0.950684C72.7514 0.950684 72.919 1.01744 73.0582 1.15097C73.2003 1.28449 73.2713 1.445 73.2713 1.6325C73.2713 1.82 73.2003 1.98051 73.0582 2.11404C72.919 2.24756 72.7514 2.31432 72.5554 2.31432ZM79.0337 7.27455V3.40523H80.0394V9.95068H79.0337V8.84273H78.9656C78.8121 9.17512 78.5735 9.45779 78.2496 9.69074C77.9258 9.92085 77.5167 10.0359 77.0224 10.0359C76.6133 10.0359 76.2496 9.94642 75.9315 9.76744C75.6133 9.58563 75.3633 9.3129 75.1815 8.94926C74.9996 8.58279 74.9087 8.12114 74.9087 7.56432V3.40523H75.9144V7.49614C75.9144 7.97341 76.0479 8.35409 76.315 8.63818C76.5849 8.92227 76.9286 9.06432 77.3462 9.06432C77.5962 9.06432 77.8505 9.0004 78.109 8.87256C78.3704 8.74472 78.5891 8.54869 78.7653 8.28449C78.9442 8.02029 79.0337 7.68364 79.0337 7.27455ZM86.5178 4.87114L85.6143 5.12682C85.5575 4.97625 85.4737 4.82994 85.3629 4.6879C85.255 4.54301 85.1072 4.42369 84.9197 4.32994C84.7322 4.23619 84.4922 4.18932 84.1996 4.18932C83.799 4.18932 83.4652 4.28165 83.1982 4.46631C82.9339 4.64813 82.8018 4.87966 82.8018 5.16091C82.8018 5.41091 82.8928 5.60835 83.0746 5.75324C83.2564 5.89813 83.5405 6.01887 83.9268 6.11546L84.8984 6.35409C85.4837 6.49614 85.9197 6.71347 86.2067 7.00608C86.4936 7.29585 86.6371 7.66943 86.6371 8.12682C86.6371 8.50182 86.5291 8.83705 86.3132 9.1325C86.1001 9.42796 85.8018 9.66091 85.4183 9.83137C85.0348 10.0018 84.5888 10.087 84.0803 10.087C83.4126 10.087 82.8601 9.94216 82.4226 9.65239C81.9851 9.36262 81.7081 8.93932 81.5916 8.3825L82.5462 8.14387C82.6371 8.49614 82.8089 8.76034 83.0618 8.93648C83.3175 9.11262 83.6513 9.20068 84.0632 9.20068C84.532 9.20068 84.9041 9.10125 85.1797 8.90239C85.4581 8.70068 85.5973 8.45921 85.5973 8.17796C85.5973 7.95068 85.5178 7.76034 85.3587 7.60693C85.1996 7.45068 84.9553 7.33421 84.6257 7.2575L83.5348 7.00182C82.9354 6.85977 82.495 6.6396 82.2138 6.34131C81.9354 6.04017 81.7962 5.66375 81.7962 5.21205C81.7962 4.84273 81.8999 4.51602 82.1072 4.23193C82.3175 3.94784 82.603 3.72483 82.9638 3.5629C83.3274 3.40097 83.7393 3.32 84.1996 3.32C84.8473 3.32 85.3558 3.46205 85.7251 3.74614C86.0973 4.03023 86.3615 4.40523 86.5178 4.87114ZM90.9975 3.40523V4.2575H87.6055V3.40523H90.9975ZM88.5941 1.83705H89.5998V8.07568C89.5998 8.35977 89.641 8.57284 89.7234 8.71489C89.8086 8.85409 89.9165 8.94784 90.0472 8.99614C90.1808 9.04159 90.3214 9.06432 90.4691 9.06432C90.5799 9.06432 90.6708 9.05864 90.7418 9.04727C90.8129 9.03307 90.8697 9.02171 90.9123 9.01318L91.1168 9.91659C91.0487 9.94216 90.9535 9.96773 90.8313 9.9933C90.7092 10.0217 90.5543 10.0359 90.3668 10.0359C90.0827 10.0359 89.8043 9.97483 89.5316 9.85267C89.2617 9.73051 89.0373 9.54443 88.8583 9.29443C88.6822 9.04443 88.5941 8.72909 88.5941 8.34841V1.83705ZM92.5103 9.95068V3.40523H93.4819V4.42796H93.5671C93.7035 4.07852 93.9237 3.80722 94.2276 3.61404C94.5316 3.41801 94.8967 3.32 95.3228 3.32C95.7546 3.32 96.114 3.41801 96.4009 3.61404C96.6907 3.80722 96.9165 4.07852 97.0785 4.42796H97.1467C97.3143 4.08989 97.5657 3.82142 97.9009 3.62256C98.2362 3.42085 98.6381 3.32 99.1069 3.32C99.6921 3.32 100.171 3.50324 100.543 3.86972C100.915 4.23335 101.101 4.80012 101.101 5.57V9.95068H100.096V5.57C100.096 5.08705 99.9634 4.74188 99.6992 4.53449C99.435 4.3271 99.1239 4.22341 98.766 4.22341C98.3058 4.22341 97.9492 4.36262 97.6964 4.64102C97.4435 4.91659 97.3171 5.26602 97.3171 5.68932V9.95068H96.2944V5.46773C96.2944 5.09557 96.1737 4.79585 95.9322 4.56858C95.6907 4.33847 95.3796 4.22341 94.9989 4.22341C94.7376 4.22341 94.4933 4.29301 94.266 4.43222C94.0415 4.57142 93.8597 4.7646 93.7205 5.01176C93.5842 5.25608 93.516 5.53875 93.516 5.85977V9.95068H92.5103ZM105.684 10.087C105.054 10.087 104.51 9.94784 104.052 9.66943C103.598 9.38818 103.247 8.99614 103 8.4933C102.755 7.98762 102.633 7.39955 102.633 6.72909C102.633 6.05864 102.755 5.46773 103 4.95637C103.247 4.44216 103.591 4.04159 104.031 3.75466C104.474 3.46489 104.991 3.32 105.582 3.32C105.923 3.32 106.26 3.37682 106.592 3.49046C106.924 3.60409 107.227 3.78875 107.5 4.04443C107.772 4.29727 107.99 4.6325 108.152 5.05012C108.314 5.46773 108.395 5.98193 108.395 6.59273V7.01887H103.349V6.14955H107.372C107.372 5.78023 107.298 5.45068 107.15 5.16091C107.005 4.87114 106.798 4.64244 106.528 4.47483C106.261 4.30722 105.946 4.22341 105.582 4.22341C105.181 4.22341 104.835 4.32284 104.542 4.52171C104.252 4.71773 104.029 4.97341 103.873 5.28875C103.717 5.60409 103.639 5.94216 103.639 6.30296V6.8825C103.639 7.37682 103.724 7.79585 103.895 8.1396C104.068 8.48051 104.308 8.74046 104.615 8.91943C104.922 9.09557 105.278 9.18364 105.684 9.18364C105.949 9.18364 106.187 9.14671 106.4 9.07284C106.616 8.99614 106.802 8.8825 106.958 8.73193C107.115 8.57852 107.235 8.38818 107.321 8.16091L108.292 8.43364C108.19 8.76318 108.018 9.05296 107.777 9.30296C107.535 9.55012 107.237 9.7433 106.882 9.8825C106.527 10.0189 106.127 10.087 105.684 10.087ZM110.93 6.01318V9.95068H109.924V3.40523H110.896V4.42796H110.981C111.135 4.09557 111.368 3.82852 111.68 3.62682C111.993 3.42227 112.396 3.32 112.89 3.32C113.333 3.32 113.721 3.41091 114.054 3.59273C114.386 3.77171 114.645 4.04443 114.829 4.41091C115.014 4.77455 115.106 5.23477 115.106 5.79159V9.95068H114.1V5.85977C114.1 5.34557 113.967 4.945 113.7 4.65807C113.433 4.3683 113.066 4.22341 112.6 4.22341C112.279 4.22341 111.993 4.29301 111.74 4.43222C111.49 4.57142 111.292 4.77455 111.147 5.04159C111.002 5.30864 110.93 5.6325 110.93 6.01318ZM119.79 3.40523V4.2575H116.398V3.40523H119.79ZM117.387 1.83705H118.393V8.07568C118.393 8.35977 118.434 8.57284 118.516 8.71489C118.602 8.85409 118.71 8.94784 118.84 8.99614C118.974 9.04159 119.114 9.06432 119.262 9.06432C119.373 9.06432 119.464 9.05864 119.535 9.04727C119.606 9.03307 119.663 9.02171 119.705 9.01318L119.91 9.91659C119.842 9.94216 119.746 9.96773 119.624 9.9933C119.502 10.0217 119.347 10.0359 119.16 10.0359C118.876 10.0359 118.597 9.97483 118.325 9.85267C118.055 9.73051 117.83 9.54443 117.651 9.29443C117.475 9.04443 117.387 8.72909 117.387 8.34841V1.83705ZM124.815 9.95068V1.22341H127.763C128.445 1.22341 129.005 1.33989 129.442 1.57284C129.88 1.80296 130.204 2.11972 130.414 2.52313C130.624 2.92654 130.729 3.38534 130.729 3.89955C130.729 4.41375 130.624 4.86972 130.414 5.26744C130.204 5.66517 129.881 5.97767 129.447 6.20494C129.012 6.42938 128.457 6.54159 127.781 6.54159H125.394V5.58705H127.746C128.212 5.58705 128.587 5.51887 128.871 5.3825C129.158 5.24614 129.366 5.05296 129.494 4.80296C129.624 4.55012 129.69 4.24898 129.69 3.89955C129.69 3.55012 129.624 3.24472 129.494 2.98335C129.363 2.72199 129.154 2.52029 128.867 2.37824C128.58 2.23335 128.201 2.16091 127.729 2.16091H125.871V9.95068H124.815ZM128.923 6.03023L131.07 9.95068H129.843L127.729 6.03023H128.923ZM135.028 10.087C134.397 10.087 133.853 9.94784 133.396 9.66943C132.941 9.38818 132.591 8.99614 132.343 8.4933C132.099 7.98762 131.977 7.39955 131.977 6.72909C131.977 6.05864 132.099 5.46773 132.343 4.95637C132.591 4.44216 132.934 4.04159 133.375 3.75466C133.818 3.46489 134.335 3.32 134.926 3.32C135.267 3.32 135.603 3.37682 135.936 3.49046C136.268 3.60409 136.571 3.78875 136.843 4.04443C137.116 4.29727 137.333 4.6325 137.495 5.05012C137.657 5.46773 137.738 5.98193 137.738 6.59273V7.01887H132.693V6.14955H136.716C136.716 5.78023 136.642 5.45068 136.494 5.16091C136.349 4.87114 136.142 4.64244 135.872 4.47483C135.605 4.30722 135.289 4.22341 134.926 4.22341C134.525 4.22341 134.179 4.32284 133.886 4.52171C133.596 4.71773 133.373 4.97341 133.217 5.28875C133.061 5.60409 132.983 5.94216 132.983 6.30296V6.8825C132.983 7.37682 133.068 7.79585 133.238 8.1396C133.412 8.48051 133.652 8.74046 133.958 8.91943C134.265 9.09557 134.622 9.18364 135.028 9.18364C135.292 9.18364 135.531 9.14671 135.744 9.07284C135.96 8.99614 136.146 8.8825 136.302 8.73193C136.458 8.57852 136.579 8.38818 136.664 8.16091L137.636 8.43364C137.534 8.76318 137.362 9.05296 137.12 9.30296C136.879 9.55012 136.581 9.7433 136.225 9.8825C135.87 10.0189 135.471 10.087 135.028 10.087ZM141.927 10.087C141.314 10.087 140.785 9.94216 140.342 9.65239C139.899 9.36262 139.558 8.96347 139.319 8.45494C139.081 7.94642 138.961 7.36546 138.961 6.71205C138.961 6.04727 139.083 5.46063 139.328 4.9521C139.575 4.44074 139.919 4.04159 140.359 3.75466C140.802 3.46489 141.319 3.32 141.91 3.32C142.37 3.32 142.785 3.40523 143.154 3.57568C143.524 3.74614 143.826 3.98477 144.062 4.29159C144.298 4.59841 144.444 4.95637 144.501 5.36546H143.495C143.419 5.06716 143.248 4.80296 142.984 4.57284C142.723 4.33989 142.37 4.22341 141.927 4.22341C141.535 4.22341 141.191 4.32568 140.896 4.53023C140.603 4.73193 140.375 5.01744 140.21 5.38676C140.048 5.75324 139.967 6.18364 139.967 6.67796C139.967 7.18364 140.047 7.62398 140.206 7.99898C140.368 8.37398 140.595 8.66517 140.887 8.87256C141.183 9.07994 141.529 9.18364 141.927 9.18364C142.189 9.18364 142.426 9.13818 142.639 9.04727C142.852 8.95637 143.032 8.82568 143.18 8.65523C143.328 8.48477 143.433 8.28023 143.495 8.04159H144.501C144.444 8.42796 144.304 8.77597 144.079 9.08563C143.858 9.39244 143.564 9.63676 143.197 9.81858C142.833 9.99756 142.41 10.087 141.927 10.087ZM148.716 10.087C148.085 10.087 147.541 9.94784 147.083 9.66943C146.629 9.38818 146.278 8.99614 146.031 8.4933C145.787 7.98762 145.664 7.39955 145.664 6.72909C145.664 6.05864 145.787 5.46773 146.031 4.95637C146.278 4.44216 146.622 4.04159 147.062 3.75466C147.505 3.46489 148.022 3.32 148.613 3.32C148.954 3.32 149.291 3.37682 149.623 3.49046C149.956 3.60409 150.258 3.78875 150.531 4.04443C150.804 4.29727 151.021 4.6325 151.183 5.05012C151.345 5.46773 151.426 5.98193 151.426 6.59273V7.01887H146.38V6.14955H150.403C150.403 5.78023 150.329 5.45068 150.181 5.16091C150.037 4.87114 149.829 4.64244 149.559 4.47483C149.292 4.30722 148.977 4.22341 148.613 4.22341C148.213 4.22341 147.866 4.32284 147.574 4.52171C147.284 4.71773 147.061 4.97341 146.904 5.28875C146.748 5.60409 146.67 5.94216 146.67 6.30296V6.8825C146.67 7.37682 146.755 7.79585 146.926 8.1396C147.099 8.48051 147.339 8.74046 147.646 8.91943C147.953 9.09557 148.309 9.18364 148.716 9.18364C148.98 9.18364 149.218 9.14671 149.431 9.07284C149.647 8.99614 149.833 8.8825 149.99 8.73193C150.146 8.57852 150.267 8.38818 150.352 8.16091L151.324 8.43364C151.221 8.76318 151.049 9.05296 150.808 9.30296C150.566 9.55012 150.268 9.7433 149.913 9.8825C149.558 10.0189 149.159 10.087 148.716 10.087ZM152.956 9.95068V3.40523H153.961V9.95068H152.956ZM153.467 2.31432C153.271 2.31432 153.102 2.24756 152.96 2.11404C152.821 1.98051 152.751 1.82 152.751 1.6325C152.751 1.445 152.821 1.28449 152.96 1.15097C153.102 1.01744 153.271 0.950684 153.467 0.950684C153.663 0.950684 153.831 1.01744 153.97 1.15097C154.112 1.28449 154.183 1.445 154.183 1.6325C154.183 1.82 154.112 1.98051 153.97 2.11404C153.831 2.24756 153.663 2.31432 153.467 2.31432ZM161.156 3.40523L158.735 9.95068H157.712L155.292 3.40523H156.383L158.19 8.62114H158.258L160.065 3.40523H161.156ZM162.483 9.95068V3.40523H163.489V9.95068H162.483ZM162.994 2.31432C162.798 2.31432 162.629 2.24756 162.487 2.11404C162.348 1.98051 162.278 1.82 162.278 1.6325C162.278 1.445 162.348 1.28449 162.487 1.15097C162.629 1.01744 162.798 0.950684 162.994 0.950684C163.19 0.950684 163.358 1.01744 163.497 1.15097C163.639 1.28449 163.71 1.445 163.71 1.6325C163.71 1.82 163.639 1.98051 163.497 2.11404C163.358 2.24756 163.19 2.31432 162.994 2.31432ZM166.336 6.01318V9.95068H165.331V3.40523H166.302V4.42796H166.387C166.541 4.09557 166.774 3.82852 167.086 3.62682C167.399 3.42227 167.802 3.32 168.297 3.32C168.74 3.32 169.127 3.41091 169.46 3.59273C169.792 3.77171 170.051 4.04443 170.235 4.41091C170.42 4.77455 170.512 5.23477 170.512 5.79159V9.95068H169.507V5.85977C169.507 5.34557 169.373 4.945 169.106 4.65807C168.839 4.3683 168.473 4.22341 168.007 4.22341C167.686 4.22341 167.399 4.29301 167.146 4.43222C166.896 4.57142 166.699 4.77455 166.554 5.04159C166.409 5.30864 166.336 5.6325 166.336 6.01318ZM174.992 12.5416C174.506 12.5416 174.089 12.4791 173.739 12.3541C173.39 12.2319 173.099 12.07 172.866 11.8683C172.636 11.6694 172.452 11.4564 172.316 11.2291L173.117 10.6666C173.208 10.7859 173.323 10.9223 173.462 11.0757C173.602 11.2319 173.792 11.3669 174.033 11.4805C174.278 11.597 174.597 11.6552 174.992 11.6552C175.521 11.6552 175.957 11.5274 176.3 11.2717C176.644 11.016 176.816 10.6155 176.816 10.07V8.74046H176.731C176.657 8.85977 176.552 9.0075 176.415 9.18364C176.282 9.35693 176.089 9.51176 175.836 9.64813C175.586 9.78165 175.248 9.84841 174.822 9.84841C174.293 9.84841 173.819 9.72341 173.398 9.47341C172.981 9.22341 172.65 8.85977 172.406 8.3825C172.164 7.90523 172.043 7.32568 172.043 6.64387C172.043 5.97341 172.161 5.3896 172.397 4.89244C172.633 4.39244 172.961 4.00608 173.381 3.73335C173.802 3.45779 174.288 3.32 174.839 3.32C175.265 3.32 175.603 3.39102 175.853 3.53307C176.106 3.67227 176.299 3.83137 176.433 4.01034C176.569 4.18648 176.674 4.33137 176.748 4.445H176.85V3.40523H177.822V10.1382C177.822 10.7007 177.694 11.1581 177.438 11.5103C177.185 11.8655 176.844 12.1254 176.415 12.2902C175.989 12.4578 175.515 12.5416 174.992 12.5416ZM174.958 8.945C175.362 8.945 175.702 8.85267 175.981 8.66801C176.259 8.48335 176.471 8.21773 176.616 7.87114C176.761 7.52455 176.833 7.10977 176.833 6.62682C176.833 6.15523 176.762 5.73904 176.62 5.37824C176.478 5.01744 176.268 4.73477 175.989 4.53023C175.711 4.32568 175.367 4.22341 174.958 4.22341C174.532 4.22341 174.177 4.33137 173.893 4.54727C173.612 4.76318 173.4 5.05296 173.258 5.41659C173.119 5.78023 173.049 6.18364 173.049 6.62682C173.049 7.08137 173.12 7.48335 173.262 7.83279C173.407 8.17938 173.62 8.4521 173.901 8.65097C174.185 8.84699 174.538 8.945 174.958 8.945ZM184.299 4.87114L183.396 5.12682C183.339 4.97625 183.255 4.82994 183.144 4.6879C183.036 4.54301 182.888 4.42369 182.701 4.32994C182.513 4.23619 182.273 4.18932 181.981 4.18932C181.58 4.18932 181.246 4.28165 180.979 4.46631C180.715 4.64813 180.583 4.87966 180.583 5.16091C180.583 5.41091 180.674 5.60835 180.856 5.75324C181.038 5.89813 181.322 6.01887 181.708 6.11546L182.68 6.35409C183.265 6.49614 183.701 6.71347 183.988 7.00608C184.275 7.29585 184.418 7.66943 184.418 8.12682C184.418 8.50182 184.31 8.83705 184.094 9.1325C183.881 9.42796 183.583 9.66091 183.2 9.83137C182.816 10.0018 182.37 10.087 181.862 10.087C181.194 10.087 180.641 9.94216 180.204 9.65239C179.766 9.36262 179.489 8.93932 179.373 8.3825L180.327 8.14387C180.418 8.49614 180.59 8.76034 180.843 8.93648C181.099 9.11262 181.433 9.20068 181.844 9.20068C182.313 9.20068 182.685 9.10125 182.961 8.90239C183.239 8.70068 183.379 8.45921 183.379 8.17796C183.379 7.95068 183.299 7.76034 183.14 7.60693C182.981 7.45068 182.737 7.33421 182.407 7.2575L181.316 7.00182C180.717 6.85977 180.276 6.6396 179.995 6.34131C179.717 6.04017 179.577 5.66375 179.577 5.21205C179.577 4.84273 179.681 4.51602 179.888 4.23193C180.099 3.94784 180.384 3.72483 180.745 3.5629C181.109 3.40097 181.521 3.32 181.981 3.32C182.629 3.32 183.137 3.46205 183.506 3.74614C183.879 4.03023 184.143 4.40523 184.299 4.87114Z" fill="black"/>
</svg>
