<svg width="32" height="32" viewBox="0 0 32 32" fill="none" xmlns="http://www.w3.org/2000/svg">
<path d="M22.8545 26.3908H9.16447C9.11353 26.3762 9.06259 26.3617 9.01164 26.3471C8.51673 26.2088 8.1965 25.8958 8.05821 25.4009C8.0291 25.299 8.02183 25.1972 8 25.0953C8 19.6513 8 14.2073 8 8.7633C8.00728 8.72691 8.02182 8.69779 8.0291 8.6614C8.15282 7.92631 8.64046 7.51149 9.38283 7.50421C10.0524 7.50421 10.722 7.50421 11.3843 7.50421C11.4498 7.50421 11.5153 7.50421 11.5808 7.50421V9.10539C11.0349 9.10539 10.4964 9.10539 9.96506 9.10539C9.64483 9.10539 9.62299 9.11993 9.62299 9.44744C9.62299 14.4402 9.62299 19.4257 9.62299 24.4184C9.62299 24.7459 9.63027 24.7605 9.96506 24.7605C13.9898 24.7605 18.0219 24.7605 22.0466 24.7605C22.3887 24.7605 22.396 24.7532 22.396 24.4038C22.396 19.4257 22.396 14.4475 22.396 9.47658C22.396 9.43291 22.396 9.39649 22.396 9.35282C22.4033 9.17815 22.3159 9.10539 22.1413 9.10539C21.6464 9.10539 21.1514 9.10539 20.6565 9.10539C20.5838 9.10539 20.511 9.10539 20.4236 9.10539V7.51878C20.46 7.51878 20.4891 7.50421 20.511 7.50421C21.2606 7.50421 22.0102 7.49693 22.7672 7.50421C22.9564 7.50421 23.1529 7.56973 23.3203 7.65707C23.8298 7.92635 24.0044 8.37756 24.0044 8.93797C24.0044 14.2655 24.0044 19.5858 24.0044 24.9133C24.0044 24.9934 24.0044 25.0807 23.9972 25.1608C23.9535 25.6994 23.6114 26.1288 23.0874 26.2889C23.0073 26.3107 22.9346 26.3398 22.8545 26.3616V26.3908Z" fill="#0671B8"/>
<path d="M9.16443 26.2453L9.04798 26.2017C8.59674 26.0779 8.31291 25.8013 8.19646 25.3574C8.1819 25.2919 8.16733 25.2337 8.16006 25.1682L8.14551 25.0663V8.76342C8.14551 8.76342 8.17463 8.71977 8.17463 8.69066C8.2838 8.02836 8.71321 7.65719 9.38279 7.65719H11.4352V8.96723H9.96502C9.56473 8.96723 9.47741 9.04728 9.47741 9.45485V24.4258C9.47741 24.8334 9.55745 24.9134 9.96502 24.9134H22.0466C22.4687 24.9134 22.5415 24.8407 22.5415 24.4112V9.36023C22.5415 9.2365 22.5124 9.13464 22.4469 9.06913C22.3814 8.99635 22.2795 8.95994 22.1412 8.95994H20.5619V7.66443L21.0859 7.6499H21.7045C22.0539 7.6499 22.4032 7.64991 22.7526 7.65719C22.9054 7.65719 23.0874 7.70814 23.2402 7.79547C23.655 8.01381 23.8516 8.38497 23.8516 8.95266C23.8516 12.8683 23.8516 24.928 23.8516 24.928C23.8516 25.0081 23.8516 25.0881 23.8443 25.1682C23.8079 25.6485 23.5022 26.027 23.0364 26.1726L22.8254 26.238H9.15717L9.16443 26.2453Z" fill="#0671B8"/>
<path d="M20.409 9.46191H22.0538V24.4329H9.96497V9.4692H11.6025C11.6025 9.76032 11.6025 10.0369 11.6025 10.3134C11.6025 10.7938 11.8791 11.0631 12.3595 11.0631C14.7903 11.0631 17.2285 11.0631 19.6593 11.0631C20.1543 11.0631 20.409 10.8011 20.4163 10.2989C20.4163 10.0296 20.4163 9.76032 20.4163 9.4692L20.409 9.46191ZM18.2474 23.6978C19.6666 23.6978 20.8384 22.526 20.8384 21.1068C20.8384 19.6803 19.6521 18.5013 18.2329 18.5085C16.8136 18.5231 15.6491 19.6949 15.6564 21.1141C15.6637 22.5406 16.8355 23.7051 18.2547 23.6978H18.2474ZM16.0058 17.2931C14.6666 17.2931 13.3201 17.2931 11.981 17.2931C11.9155 17.2931 11.8427 17.2786 11.799 17.3004C11.7408 17.3295 11.6535 17.4095 11.6608 17.4459C11.6753 17.5114 11.7481 17.5697 11.8063 17.6133C11.8427 17.6352 11.9009 17.6133 11.9519 17.6133C14.6593 17.6133 17.3595 17.6133 20.0669 17.6133C20.1179 17.6133 20.1761 17.6279 20.2125 17.6133C20.2707 17.5697 20.3435 17.5114 20.358 17.4459C20.3653 17.4023 20.278 17.3295 20.2197 17.3004C20.1688 17.2713 20.096 17.2931 20.0378 17.2931C18.6986 17.2931 17.3522 17.2931 16.013 17.2931H16.0058ZM16.0203 11.8127C14.6739 11.8127 13.3274 11.8127 11.9737 11.8127C11.9155 11.8127 11.85 11.7982 11.8063 11.8127C11.7408 11.8491 11.668 11.9074 11.6608 11.9729C11.6535 12.0165 11.7335 12.0893 11.7918 12.1257C11.8354 12.1475 11.9009 12.1329 11.9519 12.1329C14.6448 12.1329 17.3449 12.1329 20.0378 12.1329C20.096 12.1329 20.1615 12.1475 20.1979 12.1184C20.2561 12.082 20.3289 12.0092 20.3362 11.951C20.3362 11.9073 20.2562 11.8418 20.1907 11.8127C20.1397 11.7909 20.0669 11.8127 20.0087 11.8127C18.6768 11.8127 17.3377 11.8127 16.0058 11.8127H16.0203ZM16.0058 15.7938C17.374 15.7938 18.7423 15.7938 20.1106 15.7938C20.227 15.7938 20.3508 15.7938 20.358 15.6337C20.358 15.4809 20.2416 15.4663 20.1179 15.4663C20.0888 15.4663 20.0596 15.4663 20.0378 15.4663C17.3522 15.4663 14.6593 15.4663 11.9737 15.4663C11.9082 15.4663 11.8282 15.459 11.7699 15.4881C11.719 15.5172 11.6608 15.59 11.6608 15.641C11.6608 15.6919 11.7263 15.7574 11.7845 15.7793C11.8427 15.8084 11.9228 15.7938 11.9883 15.7938C13.3274 15.7938 14.6739 15.7938 16.013 15.7938H16.0058ZM15.9839 13.967C17.3304 13.967 18.6768 13.967 20.0305 13.967C20.1033 13.967 20.1906 13.967 20.2562 13.9452C20.2998 13.9306 20.358 13.8578 20.358 13.8142C20.358 13.756 20.2998 13.6905 20.2489 13.6614C20.1979 13.6323 20.1251 13.6468 20.0669 13.6468C17.3668 13.6468 14.6593 13.6468 11.9591 13.6468C11.9155 13.6468 11.8645 13.6322 11.8354 13.6468C11.7699 13.6905 11.7117 13.7487 11.6535 13.8069C11.7117 13.8578 11.7699 13.9234 11.8427 13.9597C11.8937 13.9816 11.9664 13.9597 12.0247 13.9597C13.342 13.9597 14.6666 13.9597 15.9839 13.9597V13.967ZM13.5967 19.1199C13.0363 19.1199 12.4686 19.1199 11.9082 19.1199C11.7845 19.1199 11.6535 19.1199 11.6535 19.2873C11.6535 19.4474 11.7772 19.462 11.9082 19.462C13.0363 19.462 14.1571 19.462 15.2852 19.462C15.409 19.462 15.54 19.4547 15.54 19.2946C15.54 19.1272 15.409 19.1272 15.2852 19.1272C14.7248 19.1272 14.1571 19.1272 13.5967 19.1272V19.1199ZM13.5967 23.101C14.1644 23.101 14.7394 23.101 15.3071 23.101C15.4308 23.101 15.5472 23.0865 15.5472 22.9409C15.5472 22.7953 15.4235 22.7735 15.3071 22.7735C14.1717 22.7735 13.0436 22.7735 11.9082 22.7735C11.7845 22.7735 11.6535 22.788 11.6608 22.9481C11.6608 23.101 11.7918 23.101 11.9082 23.101C12.4686 23.101 13.0363 23.101 13.5967 23.101ZM13.1819 20.9467C12.7525 20.9467 12.3231 20.9467 11.8936 20.9467C11.7772 20.9467 11.6535 20.9612 11.6535 21.1068C11.6535 21.2596 11.7772 21.2669 11.8936 21.2669C12.7525 21.2669 13.6113 21.2669 14.4701 21.2669C14.5865 21.2669 14.7103 21.2596 14.7103 21.1068C14.7103 20.954 14.5865 20.9467 14.4701 20.9467C14.0407 20.9467 13.6113 20.9467 13.1819 20.9467Z" fill="#0671B8"/>
<path d="M10.1033 24.2872V9.61467H11.4497V10.3133C11.4497 10.8737 11.7918 11.2013 12.3522 11.2013H19.6521C20.2198 11.2013 20.5473 10.8738 20.5546 10.2915V9.6001H21.9083V24.2799H10.1106L10.1033 24.2872ZM18.2256 18.3629C16.719 18.3774 15.4963 19.6074 15.5036 21.114C15.5109 22.6206 16.7409 23.8433 18.2401 23.8433C19.754 23.8433 20.984 22.6133 20.984 21.1067C20.984 20.3789 20.7001 19.6947 20.1761 19.1707C19.6521 18.6467 18.9752 18.3629 18.2547 18.3629H18.2329H18.2256ZM15.2998 23.2392C15.409 23.2392 15.5181 23.2246 15.6055 23.1446C15.6419 23.1082 15.6856 23.0427 15.6856 22.9262C15.6856 22.8098 15.6346 22.6133 15.2998 22.6133H11.901C11.7845 22.6133 11.6681 22.6278 11.5807 22.7152C11.5443 22.7516 11.5007 22.8243 11.5007 22.9408C11.5152 23.2319 11.7918 23.2319 11.8864 23.2319H14.4919H15.2925L15.2998 23.2392ZM11.8864 20.7938C11.7772 20.7938 11.6681 20.8083 11.588 20.8884C11.5516 20.9248 11.5079 20.9903 11.5079 21.1067C11.5079 21.3105 11.6389 21.4124 11.8937 21.4124H14.4774C14.5575 21.4124 14.6884 21.4124 14.7831 21.3178C14.834 21.2668 14.8631 21.194 14.8631 21.0994C14.8631 20.7937 14.572 20.7938 14.4774 20.7938H11.8937H11.8864ZM15.278 19.5929C15.3799 19.5929 15.6783 19.5929 15.6783 19.2799C15.6783 19.1853 15.6564 19.1125 15.5982 19.0543C15.5036 18.9597 15.3726 18.9597 15.2852 18.9597H11.8791C11.6244 18.9597 11.5007 19.0616 11.5007 19.2653C11.5007 19.36 11.5298 19.4327 11.588 19.491C11.6826 19.5856 11.8209 19.5856 11.901 19.5856H13.5895H15.278V19.5929ZM11.8718 17.1402C11.8718 17.1402 11.7845 17.1401 11.7263 17.1693C11.7263 17.1693 11.4861 17.293 11.5152 17.475C11.5371 17.5987 11.6462 17.6787 11.719 17.737C11.7408 17.7515 11.8209 17.7733 11.85 17.7733H11.9446H20.0597H20.147C20.147 17.7733 20.2562 17.7588 20.2853 17.7442C20.3653 17.6933 20.4672 17.606 20.4891 17.4822C20.5182 17.3076 20.278 17.1838 20.278 17.1838C20.2271 17.1547 20.1688 17.1547 20.1324 17.1547H20.0233H11.9737H11.8646L11.8718 17.1402ZM11.8718 15.3134C11.8209 15.3134 11.7554 15.3133 11.6899 15.3497C11.5953 15.4007 11.5007 15.5171 11.5007 15.6336C11.5007 15.7573 11.6244 15.8665 11.7045 15.9029C11.7627 15.9247 11.8209 15.932 11.8573 15.932H11.9665H20.0961C20.1907 15.932 20.4818 15.932 20.4891 15.6336C20.4891 15.5244 20.4454 15.4517 20.409 15.4153C20.3289 15.3279 20.2125 15.3206 20.1106 15.3206H11.8718V15.3134ZM11.8646 13.4866C11.8646 13.4866 11.7627 13.5011 11.7408 13.523C11.6899 13.5594 11.6389 13.603 11.588 13.6467C11.5589 13.6758 11.5152 13.7413 11.5152 13.7777C11.5152 13.8214 11.5152 13.8796 11.5443 13.9087C11.639 13.996 11.6899 14.047 11.7627 14.0834C11.7845 14.0906 11.8718 14.1125 11.8937 14.1125H12.0101C12.0101 14.1125 20.0233 14.1125 20.0306 14.1125C20.1543 14.1125 20.2271 14.1125 20.2926 14.0834C20.3944 14.047 20.4963 13.916 20.4891 13.7996C20.4818 13.6904 20.3872 13.5812 20.3071 13.5375C20.2489 13.5011 20.1834 13.5011 20.147 13.5011H20.0524H11.9446H11.8646V13.4866ZM11.8646 11.6525C11.8646 11.6525 11.7554 11.6743 11.7335 11.6816C11.6608 11.7253 11.5371 11.8126 11.5152 11.9436C11.4861 12.0965 11.6608 12.2129 11.719 12.242C11.7408 12.2566 11.8355 12.2784 11.8646 12.2784H11.9592H20.0451H20.1397C20.1397 12.2784 20.2634 12.2566 20.2926 12.242C20.3581 12.1984 20.4818 12.1038 20.4963 11.9728C20.5182 11.7981 20.278 11.6889 20.2707 11.6816C20.2343 11.6671 20.1907 11.6525 20.1397 11.6525H20.0233H11.9737H11.8718H11.8646Z" fill="#0671B8"/>
<path d="M13.9534 6.74733C13.9825 6.64544 14.0044 6.55081 14.0335 6.45619C14.3028 5.57555 15.147 4.97875 16.0713 5.00058C16.9811 5.02241 17.789 5.66289 18.0073 6.5581C18.0437 6.70366 18.0946 6.74732 18.2402 6.74005C18.7133 6.73277 19.1863 6.74005 19.6594 6.74005C19.9724 6.74005 20.0888 6.84919 20.0888 7.16943C20.0888 8.21019 20.0888 9.25822 20.0888 10.299C20.0888 10.6119 19.9651 10.7211 19.6521 10.7211C17.2285 10.7211 14.7977 10.7211 12.3741 10.7211C12.0466 10.7211 11.9374 10.612 11.9374 10.2845C11.9374 9.25097 11.9374 8.2102 11.9374 7.17671C11.9374 6.85648 12.0466 6.74733 12.3668 6.74733C12.8981 6.74733 13.4221 6.74733 13.9534 6.74733ZM14.9214 8.05009C14.9214 8.65417 15.409 9.1418 16.0058 9.1418C16.6026 9.1418 17.0975 8.64689 17.0975 8.05009C17.0975 7.45329 16.6099 6.96566 16.0058 6.96566C15.4018 6.96566 14.9214 7.44601 14.9214 8.05009Z" fill="#0671B8"/>
<path d="M12.374 10.5827C12.1265 10.5827 12.0829 10.5391 12.0829 10.2916C12.0829 9.25814 12.0829 8.21737 12.0829 7.18388C12.0829 6.94371 12.1266 6.90003 12.3667 6.90003H13.9534C14.0189 6.90003 14.0771 6.85639 14.0916 6.79088C14.0916 6.79088 14.1499 6.56525 14.1717 6.50703C14.4191 5.71372 15.1761 5.15332 16.0203 5.15332C16.9082 5.17515 17.6652 5.7865 17.8617 6.60165C17.9126 6.81271 18.0218 6.90003 18.2256 6.90003C18.4657 6.90003 18.6841 6.90003 18.9097 6.90003H19.6521C19.8922 6.90003 19.9359 6.95098 19.9359 7.18388C19.9359 8.22465 19.9359 9.27268 19.9359 10.3134C19.9359 10.5391 19.885 10.59 19.6448 10.59H15.8311H12.3667L12.374 10.5827ZM16.0058 6.81998C15.3144 6.81998 14.7758 7.35856 14.7758 8.04997C14.7758 8.37749 14.9068 8.69045 15.1324 8.92335C15.3653 9.15625 15.671 9.28725 16.0058 9.28725C16.3406 9.28725 16.6462 9.15625 16.8791 8.92335C17.112 8.69045 17.243 8.37749 17.243 8.04997C17.243 7.37311 16.6899 6.81998 16.0058 6.81998Z" fill="#0671B8"/>
<path d="M20.4964 21.1141C20.4964 22.3514 19.4701 23.3776 18.2402 23.3703C17.0029 23.3703 15.9767 22.3441 15.9767 21.1141C15.9767 19.8696 17.0029 18.8433 18.2474 18.8506C19.492 18.8506 20.4964 19.8696 20.4964 21.1141ZM17.7525 21.74C17.5487 21.5363 17.3741 21.3398 17.1776 21.1651C17.1193 21.1141 16.9665 21.0923 16.9156 21.1359C16.8137 21.2087 16.8646 21.3179 16.9519 21.3979C17.1484 21.5945 17.345 21.791 17.5415 21.9875C17.738 22.1767 17.7744 22.184 17.9636 21.9875C18.473 21.478 18.9825 20.9685 19.492 20.4518C19.5284 20.4154 19.5866 20.3718 19.5939 20.3281C19.5939 20.2626 19.5866 20.1752 19.5429 20.1316C19.5138 20.1025 19.4192 20.117 19.361 20.1389C19.31 20.1534 19.2809 20.2117 19.2372 20.248C18.7496 20.7357 18.2693 21.2233 17.7525 21.7328V21.74Z" fill="#FFB422"/>
<path d="M18.2402 23.2246C17.0757 23.2246 16.1223 22.2712 16.1223 21.114C16.1223 20.5536 16.3407 20.0223 16.7482 19.6147C17.1485 19.2144 17.6798 18.9888 18.2402 18.9888C19.412 18.9888 20.3509 19.9422 20.3509 21.1067C20.3509 21.6671 20.1325 22.1911 19.7322 22.5987C19.332 22.999 18.8079 23.2246 18.2475 23.2246H18.2402ZM17.003 20.9611C16.9302 20.9611 16.872 20.9757 16.8283 21.0121C16.741 21.0776 16.7191 21.1577 16.7118 21.2086C16.7046 21.3032 16.7482 21.4051 16.8429 21.4997L17.4324 22.0892C17.5415 22.1984 17.6289 22.2785 17.7453 22.2785C17.8618 22.2785 17.9491 22.1984 18.0583 22.0965L19.594 20.5609C19.6595 20.4954 19.725 20.4371 19.7395 20.3425C19.7468 20.2479 19.725 20.1096 19.6449 20.0296C19.6158 20.0005 19.5212 19.9713 19.4848 19.9713C19.4339 19.9713 19.3683 19.9859 19.3101 20.0077C19.2446 20.0368 19.1937 20.0878 19.1646 20.1241L17.7599 21.5361L17.7017 21.4706C17.5634 21.3251 17.4251 21.1795 17.2795 21.0558C17.2068 20.9903 17.0903 20.9684 17.0102 20.9684L17.003 20.9611Z" fill="#FFB422"/>
<path d="M16.7627 8.0427C16.7627 8.47211 16.4207 8.80689 15.9985 8.80689C15.5837 8.80689 15.2489 8.46484 15.2489 8.04999C15.2489 7.62058 15.591 7.28581 16.0204 7.29309C16.4425 7.29309 16.77 7.62786 16.77 8.04999L16.7627 8.0427Z" fill="#0671B8"/>
<path d="M15.9986 8.66159C15.6638 8.66159 15.3945 8.38505 15.3872 8.05026C15.3872 7.88286 15.4527 7.73004 15.5619 7.61359C15.6783 7.49714 15.8312 7.43164 15.9986 7.43164C16.3479 7.43164 16.6099 7.69363 16.6099 8.04297C16.6099 8.21037 16.5444 8.36319 16.428 8.47964C16.3115 8.59609 16.1587 8.66159 15.9913 8.66159H15.9986Z" fill="#0671B8"/>
</svg>
