<svg width="32" height="32" viewBox="0 0 32 32" fill="none" xmlns="http://www.w3.org/2000/svg">
<path d="M6.09097 26.0926C5.77702 25.6138 5.46307 25.1351 5.14913 24.6563C5.10203 24.5857 5.06279 24.515 5 24.4287C5.21191 24.1854 5.43168 23.9342 5.65144 23.6909C6.2087 24.2011 6.5619 24.8211 6.71102 25.5432C6.76596 25.8022 6.59329 25.9592 6.40492 26.0926H6.08312H6.09097Z" fill="#0671B8"/>
<path d="M21.4588 26.0931C21.4038 26.0617 21.3567 26.0382 21.3018 26.0068C21.0035 25.8498 20.8544 25.5201 20.925 25.2062C21.0035 24.8766 21.2939 24.6411 21.6314 24.6411C21.9689 24.6411 22.2515 24.8687 22.3378 25.2062C22.4163 25.5201 22.2672 25.8498 21.9689 26.0146C21.914 26.046 21.8669 26.0696 21.8198 26.101H21.4588V26.0931Z" fill="#0671B8"/>
<path d="M14.9993 26.0928C14.9522 25.8574 14.9051 25.6219 14.858 25.3707C15.3368 25.3707 15.8077 25.355 16.2786 25.3707C16.6318 25.3864 16.8594 25.6768 16.9144 26.085H15.0071L14.9993 26.0928Z" fill="#0671B8"/>
<path d="M19.7712 21.0147C19.889 21.2423 19.991 21.4385 20.1087 21.6583C21.1761 21.1246 22.2279 20.5987 23.3031 20.065C23.8839 21.1403 24.4569 22.1999 25.0377 23.2908C25.54 23.0397 26.0423 22.7964 26.5603 22.5374C26.6702 22.7493 26.7723 22.9612 26.89 23.1809C25.6107 23.8167 24.3549 24.4525 23.0755 25.0882C22.9264 24.5545 22.6203 24.1699 22.0944 23.9972C21.5686 23.8246 21.0977 23.9501 20.6581 24.2955C19.3396 21.7447 18.021 19.2095 16.7024 16.6744C16.9536 16.6351 17.1812 16.5959 17.4559 16.5488C17.9974 17.6006 18.5625 18.6837 19.1355 19.7825C19.9204 19.3901 20.6895 19.0133 21.4744 18.6208C21.6863 19.0368 21.8825 19.445 22.0944 19.861C21.3174 20.2534 20.5561 20.6301 19.7712 21.0225V21.0147Z" fill="#FFB422"/>
<path d="M6.75812 23.8558C6.55405 23.6046 6.36569 23.3691 6.16162 23.118C6.52266 22.7098 6.87585 22.3095 7.22904 21.9093C7.61363 21.4619 8.00607 21.0224 8.3828 20.5672C8.46914 20.4573 8.53192 20.3003 8.54762 20.1669C8.66535 19.021 8.76738 17.875 8.87726 16.7056C8.94005 16.7056 9.01069 16.7056 9.07348 16.7056C10.1174 16.7998 11.1534 16.8939 12.1973 16.996C12.2836 17.0038 12.3935 17.0745 12.4484 17.1529C13.194 18.2047 13.9318 19.2564 14.6618 20.316C14.7167 20.4023 14.7638 20.5044 14.7873 20.5985C15.0856 21.8779 15.3838 23.1651 15.6821 24.4444C15.6978 24.5072 15.7056 24.5778 15.7213 24.6484H14.6931C14.5911 24.2011 14.4812 23.7616 14.3792 23.3142C14.2615 22.7962 14.1437 22.2781 14.0182 21.768C13.9868 21.6424 13.9161 21.509 13.8298 21.4226C12.9193 20.5043 12.001 19.586 11.0827 18.6756C10.7609 18.3538 10.4784 18.4323 10.3528 18.8718C10.1488 19.586 9.94469 20.3003 9.74062 21.0067C9.70923 21.1009 9.66998 21.2107 9.59934 21.2814C8.69674 22.129 7.79415 22.961 6.8837 23.8008C6.86015 23.8244 6.82876 23.8479 6.77382 23.8793L6.75812 23.8558Z" fill="#0671B8"/>
<path d="M11.3732 11.6356C11.1692 11.8396 11.0122 11.9966 10.8238 12.185C11.4831 12.7344 11.954 13.4878 12.7703 13.9117C12.6055 14.673 12.4328 15.4422 12.2523 16.2506C11.1692 16.1486 10.086 16.0544 8.97937 15.9523C9.05001 15.5835 9.11279 15.2303 9.18343 14.8771C9.39535 13.8332 9.60726 12.7893 9.81133 11.7455C9.92906 11.1176 10.2823 10.6388 10.7453 10.2306C10.7846 10.1914 10.8866 10.1836 10.9494 10.2071C11.334 10.3327 11.7264 10.4661 12.1031 10.6152C12.5505 10.7958 12.8331 11.1254 13.0293 11.5806C13.2177 12.0358 13.1784 12.3576 12.7703 12.6323C12.6918 12.6873 12.6447 12.7815 12.5819 12.8678C12.1581 12.444 11.7735 12.0516 11.3732 11.6434V11.6356Z" fill="#0671B8"/>
<path d="M13.4923 5.96086C14.1202 5.76464 14.7245 5.57629 15.3446 5.38792C15.423 5.62338 15.4858 5.8353 15.5643 6.07861C15.2033 6.19634 14.8501 6.30622 14.5047 6.4161C14.2771 6.48674 14.0495 6.57309 13.8141 6.62803C13.6728 6.65942 13.6335 6.73005 13.6414 6.86348C13.6492 7.0283 13.6571 7.20098 13.6414 7.36581C13.6257 7.58557 13.6963 7.75825 13.8533 7.91523C13.9161 7.97801 13.9161 8.09573 13.9318 8.18991C13.9318 8.237 13.9161 8.29195 13.9004 8.34689C13.7513 8.93555 13.6492 9.00616 13.0449 9.01401C12.7388 9.01401 12.6446 9.08466 12.5426 9.36721C12.4876 9.53204 12.4248 9.69686 12.3699 9.85383C12.3699 9.87738 12.3464 9.89309 12.3307 9.92449C12.0717 9.8303 11.8205 9.75179 11.5693 9.64976C11.5144 9.62621 11.4516 9.54772 11.4516 9.50063C11.4516 9.39075 11.4751 9.22596 11.5379 9.19457C11.9382 8.99835 12.1423 8.68439 12.1815 8.25271C12.1815 8.18992 12.2443 8.10356 12.2993 8.08002C12.7859 7.82886 13.0057 7.39718 13.1391 6.84777C12.8094 7.00474 12.4248 6.94983 12.1894 7.27163C12.1344 7.35011 12.0403 7.40504 11.9618 7.45213C11.6557 7.6248 11.4908 7.89166 11.4673 8.237C11.4595 8.40182 11.3731 8.50385 11.2397 8.5274C11.1691 8.53525 11.0592 8.45677 10.9964 8.38613C10.4941 7.76608 10.2586 7.0597 10.4156 6.27483C10.549 5.59984 11.0906 5.12894 11.7499 5.01906C12.4013 4.91702 13.0606 5.23093 13.4138 5.81173C13.4373 5.85883 13.4609 5.90593 13.5001 5.96872L13.4923 5.96086Z" fill="#0671B8"/>
<path d="M13.1704 13.2681C13.3588 13.0797 13.5236 12.9149 13.7042 12.7344C13.9318 12.86 14.1751 12.9856 14.4105 13.1111C15.0777 13.4722 15.737 13.8332 16.4041 14.1943C16.8672 14.4454 17.1654 14.8064 17.2518 15.3323C17.2675 15.4108 17.2753 15.4971 17.2675 15.5835C17.2439 15.7797 17.1262 15.8974 16.9221 15.9131C16.7337 15.9288 16.5611 15.7875 16.5532 15.5913C16.5375 15.0968 16.2707 14.8143 15.839 14.6024C15.0149 14.2021 14.1986 13.7861 13.3824 13.378C13.3196 13.3466 13.2489 13.3074 13.1626 13.2603L13.1704 13.2681Z" fill="#0671B8"/>
</svg>
