<svg width="32" height="32" viewBox="0 0 32 32" fill="none" xmlns="http://www.w3.org/2000/svg">
<path d="M15.1834 26.0144C14.8608 25.8869 14.7333 25.6468 14.7483 25.3093C14.7633 25.0167 14.7333 24.7167 14.7483 24.4241C14.7708 24.1391 14.6733 23.929 14.4782 23.719C13.7206 22.9014 13.0905 21.9937 12.6629 20.9585C12.5504 20.6885 12.4679 20.4034 12.4229 20.1184C12.3629 19.7133 12.5804 19.3533 12.9255 19.1957C13.2781 19.0382 13.7056 19.1207 13.9757 19.4283C14.0957 19.5633 14.1932 19.7133 14.2982 19.8483C14.4932 20.1034 14.7483 20.2759 15.1009 20.3659C15.1009 20.2684 15.1009 20.1934 15.1009 20.1109C15.1009 18.3031 15.1009 16.5028 15.1009 14.695C15.1009 14.0423 15.641 13.6372 16.2486 13.8173C16.5711 13.9148 16.7736 14.1549 16.8186 14.4999C16.9312 15.4526 17.0437 16.3977 17.1487 17.3504C17.1562 17.4329 17.1787 17.5079 17.1862 17.5904C18.0489 17.5529 18.8065 17.9655 19.6091 18.1455C19.9242 18.2205 20.2392 18.3331 20.5468 18.4306C21.0269 18.5806 21.3569 19.0307 21.3644 19.5408C21.3644 20.3059 21.3644 21.071 21.3644 21.8362C21.3644 22.3612 21.2594 22.8489 20.9594 23.2689C20.6218 23.7415 20.4718 24.2441 20.5393 24.8217C20.5618 24.9792 20.5318 25.1368 20.5393 25.2943C20.5693 25.6393 20.4343 25.8719 20.1192 26.0144H15.1609H15.1834Z" fill="#FFB422"/>
<path d="M21.687 18.7982C21.6345 18.7307 21.5745 18.6707 21.5295 18.6032C21.3495 18.3481 21.1244 18.1381 20.8244 18.0406C20.6068 17.9656 20.5393 17.8231 20.5468 17.6055C20.5468 16.4578 20.5468 15.3101 20.5468 14.1549C20.5468 11.9345 20.5468 9.72166 20.5468 7.50128C20.5468 7.10371 20.4793 7.04371 20.0817 7.04371C17.2763 7.04371 14.4633 7.04371 11.6578 7.04371C11.2827 7.04371 11.2152 7.11119 11.2152 7.48626C11.2152 11.4319 11.2152 15.3851 11.2152 19.3308C11.2152 19.7209 11.2677 19.7884 11.6578 19.7959C11.8678 19.7959 11.9578 19.8634 11.9653 20.0885C11.9878 20.6211 12.2054 21.1011 12.4454 21.5587C12.693 22.0388 12.993 22.4889 13.2706 22.9465C13.3831 23.134 13.3756 23.1715 13.1655 23.179C12.4229 23.179 11.6728 23.194 10.9302 23.179C10.4651 23.164 10.0675 22.7364 10.015 22.2713C10.0075 22.1738 10 22.0838 10 21.9863C10 16.7279 10 11.462 10 6.20357C10 5.97103 10.06 5.72346 10.165 5.52092C10.3376 5.18337 10.6601 5.02584 11.0427 5.00333C11.2152 4.99583 11.3877 5.00333 11.5528 5.00333C14.5683 5.00333 17.5763 5.00333 20.5918 5.00333C21.1694 5.00333 21.582 5.29588 21.717 5.79847C21.7545 5.92599 21.7545 6.06854 21.7545 6.20357C21.7545 10.3143 21.7545 14.425 21.7545 18.5432C21.7545 18.6257 21.7395 18.7157 21.732 18.7982L21.687 18.8132V18.7982ZM15.866 6.34609C16.1211 6.34609 16.3836 6.34609 16.6386 6.34609C16.8412 6.34609 16.9612 6.24109 16.9537 6.07606C16.9462 5.88853 16.8187 5.81349 16.6536 5.81349C16.1361 5.81349 15.6185 5.81349 15.1009 5.81349C14.9284 5.81349 14.8083 5.88853 14.8008 6.07606C14.7933 6.24109 14.9134 6.33859 15.1159 6.34609C15.3709 6.34609 15.6185 6.34609 15.8735 6.34609H15.866Z" fill="#0671B8"/>
<path d="M17.3287 14.9352C17.2912 14.4176 17.2537 13.93 16.8337 13.6075C16.6011 13.4274 16.3311 13.3149 16.0385 13.3299C14.8908 13.3824 14.5833 14.1175 14.6508 15.1302C14.2682 14.9427 13.9381 14.0726 14.0132 13.5325C14.1257 12.7073 14.7333 12.0472 15.5209 11.8971C16.3011 11.7471 17.1337 12.1297 17.5088 12.8048C17.8988 13.5099 17.8388 14.3726 17.3287 14.9352Z" fill="#0671B8"/>
<path d="M13.4807 11.3641C13.8032 11.3716 13.9758 11.6417 13.8707 11.8742C13.8407 11.9492 13.7882 12.0167 13.7432 12.0842C13.0981 13.0519 13.0906 14.1096 13.7282 15.0698C13.7582 15.1148 13.7882 15.1598 13.8182 15.2048C13.9307 15.4073 13.8932 15.6174 13.7282 15.7299C13.5632 15.8424 13.3532 15.7974 13.2031 15.6174C12.2805 14.5072 12.288 12.5944 13.2256 11.5142C13.3007 11.4317 13.4207 11.3866 13.4732 11.3491L13.4807 11.3641Z" fill="#0671B8"/>
<path d="M19.2641 13.5622C19.2341 14.3048 19.0241 14.9724 18.5815 15.5725C18.4089 15.8051 18.1839 15.865 18.0039 15.7375C17.8164 15.6025 17.7938 15.385 17.9739 15.1449C18.3864 14.5673 18.5815 13.9372 18.4615 13.2321C18.4014 12.8871 18.2439 12.5645 18.1164 12.2344C18.0789 12.1369 17.9964 12.0544 17.9439 11.9569C17.8238 11.7544 17.8614 11.5443 18.0264 11.4318C18.1989 11.3118 18.4015 11.3493 18.5515 11.5368C18.8515 11.9119 19.0541 12.332 19.1591 12.797C19.2116 13.0521 19.2341 13.3071 19.2716 13.5622H19.2641Z" fill="#0671B8"/>
</svg>
