<svg width="59" height="12" viewBox="0 0 59 12" fill="none" xmlns="http://www.w3.org/2000/svg">
<path d="M1.41477 8.91309H0.306818L3.51136 0.185813H4.60227L7.80682 8.91309H6.69886L4.09091 1.56649H4.02273L1.41477 8.91309ZM1.82386 5.504H6.28977V6.44149H1.82386V5.504ZM9.02983 11.3676V2.36763H10.0014V3.4074H10.1207C10.1946 3.29377 10.2969 3.14888 10.4276 2.97274C10.5611 2.79377 10.7514 2.63468 10.9986 2.49547C11.2486 2.35343 11.5866 2.2824 12.0128 2.2824C12.5639 2.2824 13.0497 2.42019 13.4702 2.69576C13.8906 2.97132 14.2188 3.36195 14.4545 3.86763C14.6903 4.37331 14.8082 4.9699 14.8082 5.6574C14.8082 6.35059 14.6903 6.95144 14.4545 7.45996C14.2188 7.96564 13.892 8.35769 13.4744 8.6361C13.0568 8.91167 12.5753 9.04945 12.0298 9.04945C11.6094 9.04945 11.2727 8.97985 11.0199 8.84064C10.767 8.6986 10.5724 8.53809 10.4361 8.35911C10.2997 8.17729 10.1946 8.02672 10.1207 7.9074H10.0355V11.3676H9.02983ZM10.0185 5.64036C10.0185 6.13468 10.0909 6.57076 10.2358 6.9486C10.3807 7.3236 10.5923 7.61763 10.8707 7.8307C11.1491 8.04093 11.4901 8.14604 11.8935 8.14604C12.3139 8.14604 12.6648 8.03525 12.946 7.81365C13.2301 7.58922 13.4432 7.28809 13.5852 6.91024C13.7301 6.52956 13.8026 6.10627 13.8026 5.64036C13.8026 5.18013 13.7315 4.76536 13.5895 4.39604C13.4503 4.02388 13.2386 3.72985 12.9545 3.51394C12.6733 3.29519 12.3196 3.18581 11.8935 3.18581C11.4844 3.18581 11.1406 3.28951 10.8622 3.49689C10.5838 3.70144 10.3736 3.98837 10.2315 4.35769C10.0895 4.72417 10.0185 5.15172 10.0185 5.64036ZM16.3423 11.3676V2.36763H17.3139V3.4074H17.4332C17.5071 3.29377 17.6094 3.14888 17.7401 2.97274C17.8736 2.79377 18.0639 2.63468 18.3111 2.49547C18.5611 2.35343 18.8991 2.2824 19.3253 2.2824C19.8764 2.2824 20.3622 2.42019 20.7827 2.69576C21.2031 2.97132 21.5313 3.36195 21.767 3.86763C22.0028 4.37331 22.1207 4.9699 22.1207 5.6574C22.1207 6.35059 22.0028 6.95144 21.767 7.45996C21.5313 7.96564 21.2045 8.35769 20.7869 8.6361C20.3693 8.91167 19.8878 9.04945 19.3423 9.04945C18.9219 9.04945 18.5852 8.97985 18.3324 8.84064C18.0795 8.6986 17.8849 8.53809 17.7486 8.35911C17.6122 8.17729 17.5071 8.02672 17.4332 7.9074H17.348V11.3676H16.3423ZM17.331 5.64036C17.331 6.13468 17.4034 6.57076 17.5483 6.9486C17.6932 7.3236 17.9048 7.61763 18.1832 7.8307C18.4616 8.04093 18.8026 8.14604 19.206 8.14604C19.6264 8.14604 19.9773 8.03525 20.2585 7.81365C20.5426 7.58922 20.7557 7.28809 20.8977 6.91024C21.0426 6.52956 21.1151 6.10627 21.1151 5.64036C21.1151 5.18013 21.044 4.76536 20.902 4.39604C20.7628 4.02388 20.5511 3.72985 20.267 3.51394C19.9858 3.29519 19.6321 3.18581 19.206 3.18581C18.7969 3.18581 18.4531 3.28951 18.1747 3.49689C17.8963 3.70144 17.6861 3.98837 17.544 4.35769C17.402 4.72417 17.331 5.15172 17.331 5.64036ZM32.8935 0.185813H33.9503V5.96422C33.9503 6.56081 33.8097 7.09348 33.5284 7.56223C33.25 8.02814 32.8565 8.39604 32.348 8.66593C31.8395 8.93297 31.2429 9.0665 30.5582 9.0665C29.8736 9.0665 29.277 8.93297 28.7685 8.66593C28.2599 8.39604 27.8651 8.02814 27.5838 7.56223C27.3054 7.09348 27.1662 6.56081 27.1662 5.96422V0.185813H28.223V5.879C28.223 6.30513 28.3168 6.68439 28.5043 7.01678C28.6918 7.34632 28.9588 7.60627 29.3054 7.79661C29.6548 7.98411 30.0724 8.07786 30.5582 8.07786C31.044 8.07786 31.4616 7.98411 31.8111 7.79661C32.1605 7.60627 32.4276 7.34632 32.6122 7.01678C32.7997 6.68439 32.8935 6.30513 32.8935 5.879V0.185813ZM40.5607 3.83354L39.6573 4.08922C39.6005 3.93865 39.5167 3.79235 39.4059 3.6503C39.2979 3.50542 39.1502 3.3861 38.9627 3.29235C38.7752 3.1986 38.5352 3.15172 38.2425 3.15172C37.842 3.15172 37.5082 3.24405 37.2411 3.42871C36.9769 3.61053 36.8448 3.84206 36.8448 4.12331C36.8448 4.37331 36.9357 4.57076 37.1175 4.71564C37.2994 4.86053 37.5835 4.98127 37.9698 5.07786L38.9414 5.3165C39.5266 5.45854 39.9627 5.67587 40.2496 5.96848C40.5366 6.25826 40.68 6.63184 40.68 7.08922C40.68 7.46422 40.5721 7.79945 40.3562 8.0949C40.1431 8.39036 39.8448 8.62331 39.4613 8.79377C39.0778 8.96422 38.6317 9.04945 38.1232 9.04945C37.4556 9.04945 36.9031 8.90456 36.4656 8.61479C36.0281 8.32502 35.7511 7.90172 35.6346 7.3449L36.5891 7.10627C36.68 7.45854 36.8519 7.72275 37.1048 7.89888C37.3604 8.07502 37.6942 8.16309 38.1062 8.16309C38.5749 8.16309 38.9471 8.06365 39.2227 7.86479C39.5011 7.66309 39.6403 7.42161 39.6403 7.14036C39.6403 6.91309 39.5607 6.72274 39.4016 6.56934C39.2425 6.41309 38.9982 6.29661 38.6687 6.2199L37.5778 5.96422C36.9783 5.82218 36.538 5.60201 36.2567 5.30371C35.9783 5.00257 35.8391 4.62615 35.8391 4.17445C35.8391 3.80513 35.9428 3.47843 36.1502 3.19434C36.3604 2.91024 36.646 2.68723 37.0067 2.5253C37.3704 2.36337 37.7823 2.2824 38.2425 2.2824C38.8903 2.2824 39.3988 2.42445 39.7681 2.70854C40.1403 2.99263 40.4045 3.36763 40.5607 3.83354ZM44.9382 9.04945C44.3075 9.04945 43.7635 8.91025 43.3061 8.63184C42.8516 8.35059 42.5007 7.95854 42.2536 7.4557C42.0092 6.95002 41.8871 6.36195 41.8871 5.6915C41.8871 5.02104 42.0092 4.43013 42.2536 3.91877C42.5007 3.40456 42.8445 3.00399 43.2848 2.71706C43.728 2.42729 44.245 2.2824 44.8359 2.2824C45.1768 2.2824 45.5135 2.33922 45.8459 2.45286C46.1783 2.56649 46.4808 2.75115 46.7536 3.00684C47.0263 3.25968 47.2436 3.5949 47.4055 4.01252C47.5675 4.43013 47.6484 4.94434 47.6484 5.55513V5.98127H42.603V5.11195H46.6257C46.6257 4.74263 46.5518 4.41309 46.4041 4.12331C46.2592 3.83354 46.0518 3.60485 45.782 3.43723C45.5149 3.26962 45.1996 3.18581 44.8359 3.18581C44.4354 3.18581 44.0888 3.28524 43.7962 3.48411C43.5064 3.68013 43.2834 3.93581 43.1271 4.25115C42.9709 4.56649 42.8928 4.90456 42.8928 5.26536V5.8449C42.8928 6.33922 42.978 6.75826 43.1484 7.10201C43.3217 7.44292 43.5618 7.70286 43.8686 7.88184C44.1754 8.05797 44.532 8.14604 44.9382 8.14604C45.2024 8.14604 45.4411 8.10911 45.6541 8.03524C45.87 7.95854 46.0561 7.8449 46.2124 7.69434C46.3686 7.54093 46.4893 7.35059 46.5746 7.12331L47.5462 7.39604C47.4439 7.72559 47.272 8.01536 47.0305 8.26536C46.7891 8.51252 46.4908 8.7057 46.1357 8.8449C45.7805 8.98127 45.3814 9.04945 44.9382 9.04945ZM49.1783 8.91309V2.36763H50.1499V3.35627H50.218C50.3374 3.0324 50.5533 2.76962 50.8658 2.56791C51.1783 2.36621 51.5305 2.26536 51.9226 2.26536C51.9964 2.26536 52.0888 2.26678 52.1996 2.26962C52.3104 2.27246 52.3942 2.27672 52.451 2.2824V3.30513C52.4169 3.29661 52.3388 3.28382 52.2166 3.26678C52.0973 3.24689 51.9709 3.23695 51.8374 3.23695C51.5192 3.23695 51.2351 3.30371 50.9851 3.43723C50.7379 3.56792 50.5419 3.74973 50.397 3.98269C50.255 4.2128 50.1839 4.47559 50.1839 4.77104V8.91309H49.1783ZM58.2795 3.83354L57.3761 4.08922C57.3192 3.93865 57.2354 3.79235 57.1246 3.6503C57.0167 3.50542 56.869 3.3861 56.6815 3.29235C56.494 3.1986 56.2539 3.15172 55.9613 3.15172C55.5607 3.15172 55.2269 3.24405 54.9599 3.42871C54.6957 3.61053 54.5636 3.84206 54.5636 4.12331C54.5636 4.37331 54.6545 4.57076 54.8363 4.71564C55.0181 4.86053 55.3022 4.98127 55.6886 5.07786L56.6602 5.3165C57.2454 5.45854 57.6815 5.67587 57.9684 5.96848C58.2553 6.25826 58.3988 6.63184 58.3988 7.08922C58.3988 7.46422 58.2908 7.79945 58.0749 8.0949C57.8619 8.39036 57.5636 8.62331 57.18 8.79377C56.7965 8.96422 56.3505 9.04945 55.842 9.04945C55.1744 9.04945 54.6218 8.90456 54.1843 8.61479C53.7468 8.32502 53.4698 7.90172 53.3533 7.3449L54.3079 7.10627C54.3988 7.45854 54.5707 7.72275 54.8235 7.89888C55.0792 8.07502 55.413 8.16309 55.8249 8.16309C56.2937 8.16309 56.6658 8.06365 56.9414 7.86479C57.2198 7.66309 57.359 7.42161 57.359 7.14036C57.359 6.91309 57.2795 6.72274 57.1204 6.56934C56.9613 6.41309 56.717 6.29661 56.3874 6.2199L55.2965 5.96422C54.6971 5.82218 54.2567 5.60201 53.9755 5.30371C53.6971 5.00257 53.5579 4.62615 53.5579 4.17445C53.5579 3.80513 53.6616 3.47843 53.869 3.19434C54.0792 2.91024 54.3647 2.68723 54.7255 2.5253C55.0891 2.36337 55.5011 2.2824 55.9613 2.2824C56.609 2.2824 57.1175 2.42445 57.4869 2.70854C57.859 2.99263 58.1232 3.36763 58.2795 3.83354Z" fill="black"/>
</svg>
