<svg width="32" height="32" viewBox="0 0 32 32" fill="none" xmlns="http://www.w3.org/2000/svg">
<path d="M4.46226 6.01718H8.15138C8.46024 6.16302 8.61476 6.41184 8.6834 6.73786C8.73487 6.97808 8.81207 7.21826 8.88071 7.4499C9.00081 7.87028 9.12087 8.29069 9.24955 8.71108H9.54133C15.0664 8.71108 20.5913 8.71108 26.1163 8.71108C26.5281 8.71108 26.8284 8.83115 27 9.20864V9.569C26.9743 9.64622 26.9315 9.71486 26.9143 9.79207C26.0478 12.812 25.1899 15.8319 24.3234 18.8518C24.1775 19.3665 23.9888 19.5038 23.4569 19.5038C19.7249 19.5038 15.9929 19.5038 12.2609 19.5038C12.1665 19.5038 12.0635 19.5038 11.9691 19.5038C11.9262 19.5038 11.8577 19.5295 11.8405 19.5553C11.7547 19.7269 11.6518 19.907 11.6174 20.0872C11.5402 20.5247 11.8747 20.8422 12.3723 20.8422C15.6753 20.8422 18.987 20.8422 22.29 20.8422C22.7361 20.8422 23.1737 20.8422 23.6198 20.8422C23.9201 20.8422 24.1431 20.988 24.2547 21.254C24.452 21.7001 24.1174 22.1805 23.6112 22.1891C22.8391 22.1891 22.067 22.1891 21.2519 22.1891C22.4616 22.5837 23.0965 23.4502 22.942 24.4626C22.7876 25.4835 21.9811 26.2128 20.9859 26.2385C20.0079 26.2557 19.1415 25.5693 18.9528 24.6342C18.8412 24.0765 18.9355 23.5618 19.2529 23.0899C19.5703 22.6181 20.0165 22.3349 20.5656 22.1977H14.4744C15.6669 22.5923 16.2932 23.4502 16.1473 24.4626C15.9929 25.4921 15.1778 26.2299 14.174 26.2385C13.1874 26.2557 12.3294 25.5522 12.1578 24.5913C11.9605 23.4846 12.5183 22.6523 13.8224 22.1891C13.2733 22.1891 12.7671 22.1891 12.2609 22.1891C11.3257 22.1805 10.545 21.5542 10.322 20.6448C10.1675 20.0357 10.3221 19.4866 10.6309 18.9633C10.7081 18.826 10.7337 18.6973 10.6822 18.5429C9.7814 15.4029 8.88067 12.2543 7.98843 9.11428C7.81684 8.53089 7.65376 7.93892 7.48218 7.34695C7.3878 7.34695 7.31057 7.34695 7.24193 7.34695C6.39258 7.34695 5.55185 7.34695 4.7025 7.34695C4.35075 7.34695 4.09333 7.13247 4.01612 6.81504C3.94749 6.51477 4.10208 6.21449 4.40235 6.06006C4.43667 6.0429 4.46228 6.02574 4.48802 6L4.46226 6.01718Z" fill="#0671B8"/>
<path d="M17.4686 17.7191C19.5818 17.7191 21.2949 16.006 21.2949 13.8928C21.2949 11.7795 19.5818 10.0664 17.4686 10.0664C15.3553 10.0664 13.642 11.7795 13.642 13.8928C13.642 16.006 15.3553 17.7191 17.4686 17.7191Z" fill="white"/>
<path d="M17.3483 10.873C17.4256 10.873 17.4942 10.873 17.5714 10.873C17.7087 10.8902 17.8545 10.8988 17.9918 10.9245C18.6781 11.0446 19.2701 11.3706 19.7248 11.894C20.3683 12.6232 20.6171 13.4812 20.4541 14.442C20.3255 15.1884 19.9651 15.8147 19.3646 16.2866C18.4552 16.9986 17.4428 17.1703 16.3704 16.7585C15.3152 16.3552 14.6889 15.5659 14.4658 14.4506C14.4401 14.3134 14.4315 14.1675 14.4143 14.0303C14.4143 13.9616 14.4143 13.8929 14.4143 13.8243C14.4143 13.7986 14.4229 13.7815 14.4229 13.7557C14.4401 13.4297 14.5001 13.1122 14.6288 12.812C15.0835 11.7481 15.8814 11.1133 17.0224 10.916C17.1254 10.8988 17.2282 10.8902 17.3398 10.8816L17.3483 10.873ZM17.194 13.0865C17.194 13.361 17.194 13.627 17.194 13.9016C17.194 13.9788 17.2112 14.056 17.2713 14.1074C17.5544 14.3906 17.8289 14.6737 18.112 14.9482C18.1892 15.0254 18.2835 15.0426 18.3864 15.0083C18.5923 14.9482 18.6439 14.6994 18.4895 14.545C18.2578 14.3134 18.0261 14.0817 17.7945 13.8501C17.7602 13.8158 17.7515 13.7814 17.7515 13.7385C17.7515 13.2581 17.7515 12.7777 17.7515 12.2972C17.7515 12.2372 17.7429 12.1771 17.7172 12.1256C17.6657 12.0141 17.5372 11.9541 17.4085 11.9884C17.2884 12.0141 17.2026 12.1171 17.2026 12.2458C17.2026 12.5203 17.2026 12.8034 17.2026 13.0779L17.194 13.0865Z" fill="#FFB422"/>
<path d="M17.194 13.0863C17.194 12.8118 17.194 12.5287 17.194 12.2542C17.194 12.1255 17.2883 12.0225 17.3998 11.9967C17.52 11.971 17.6573 12.0225 17.7088 12.134C17.7345 12.1855 17.7429 12.2456 17.7429 12.3056C17.7429 12.7861 17.7429 13.2665 17.7429 13.747C17.7429 13.7898 17.7601 13.8242 17.7859 13.8585C18.0175 14.0901 18.2492 14.3218 18.4808 14.5534C18.6353 14.7078 18.5751 14.9566 18.3778 15.0167C18.2748 15.051 18.1806 15.0252 18.1034 14.9566C17.8203 14.6735 17.5372 14.399 17.2627 14.1159C17.2026 14.0558 17.1854 13.9872 17.1854 13.91C17.1854 13.6354 17.1854 13.3695 17.1854 13.0949L17.194 13.0863Z" fill="white"/>
</svg>
