<svg width="78" height="12" viewBox="0 0 78 12" fill="none" xmlns="http://www.w3.org/2000/svg">
<path d="M2.75 9.46289H0.0568182V0.735618H2.86932C3.71591 0.735618 4.44034 0.910334 5.04261 1.25977C5.64489 1.60636 6.10653 2.10494 6.42756 2.7555C6.74858 3.40323 6.90909 4.1788 6.90909 5.08221C6.90909 5.9913 6.74716 6.77397 6.4233 7.43022C6.09943 8.08363 5.62784 8.58647 5.00852 8.93874C4.3892 9.28817 3.63636 9.46289 2.75 9.46289ZM1.11364 8.52539H2.68182C3.40341 8.52539 4.00142 8.38619 4.47585 8.10778C4.95028 7.82937 5.30398 7.43306 5.53693 6.91886C5.76989 6.40465 5.88636 5.79244 5.88636 5.08221C5.88636 4.37766 5.77131 3.77113 5.54119 3.26261C5.31108 2.75124 4.96733 2.3592 4.50994 2.08647C4.05256 1.8109 3.48295 1.67312 2.80114 1.67312H1.11364V8.52539ZM10.4716 9.6163C10.0568 9.6163 9.6804 9.53817 9.34233 9.38192C9.00426 9.22283 8.7358 8.99414 8.53693 8.69585C8.33807 8.39471 8.23864 8.03107 8.23864 7.60494C8.23864 7.22994 8.3125 6.92596 8.46023 6.693C8.60795 6.45721 8.8054 6.27255 9.05256 6.13903C9.29972 6.0055 9.57244 5.90607 9.87074 5.84073C10.1719 5.77255 10.4744 5.71857 10.7784 5.6788C11.1761 5.62766 11.4986 5.58931 11.7457 5.56374C11.9957 5.53533 12.1776 5.48846 12.2912 5.42312C12.4077 5.35778 12.4659 5.24414 12.4659 5.08221V5.04812C12.4659 4.62766 12.3509 4.30096 12.1207 4.068C11.8935 3.83505 11.5483 3.71857 11.0852 3.71857C10.6051 3.71857 10.2287 3.82369 9.95597 4.03391C9.68324 4.24414 9.49148 4.46857 9.38068 4.70721L8.42614 4.3663C8.59659 3.96857 8.82386 3.65891 9.10795 3.43732C9.39489 3.21289 9.70739 3.05664 10.0455 2.96857C10.3864 2.87766 10.7216 2.83221 11.0511 2.83221C11.2614 2.83221 11.5028 2.85778 11.7756 2.90891C12.0511 2.95721 12.3168 3.05806 12.5724 3.21147C12.831 3.36488 13.0455 3.59641 13.2159 3.90607C13.3864 4.21573 13.4716 4.6305 13.4716 5.15039V9.46289H12.4659V8.57653H12.4148C12.3466 8.71857 12.233 8.87056 12.0739 9.03249C11.9148 9.19442 11.7031 9.33221 11.4389 9.44585C11.1747 9.55948 10.8523 9.6163 10.4716 9.6163ZM10.625 8.71289C11.0227 8.71289 11.358 8.63477 11.6307 8.47852C11.9063 8.32227 12.1136 8.12056 12.2528 7.8734C12.3949 7.62624 12.4659 7.3663 12.4659 7.09357V6.17312C12.4233 6.22425 12.3295 6.27113 12.1847 6.31374C12.0426 6.35352 11.8778 6.38903 11.6903 6.42028C11.5057 6.44869 11.3253 6.47425 11.1491 6.49698C10.9759 6.51687 10.8352 6.53391 10.7273 6.54812C10.4659 6.58221 10.2216 6.63761 9.99432 6.71431C9.76989 6.78817 9.58807 6.90039 9.44886 7.05096C9.3125 7.19869 9.24432 7.40039 9.24432 7.65607C9.24432 8.0055 9.37358 8.26971 9.6321 8.44869C9.89347 8.62482 10.2244 8.71289 10.625 8.71289ZM15.7205 11.9174C15.5501 11.9174 15.3981 11.9032 15.2646 11.8748C15.131 11.8493 15.0387 11.8237 14.9876 11.7981L15.2433 10.9118C15.4876 10.9743 15.7035 10.997 15.891 10.9799C16.0785 10.9629 16.2447 10.8791 16.3896 10.7285C16.5373 10.5808 16.6722 10.3407 16.7944 10.0083L16.9819 9.49698L14.5614 2.91744H15.6523L17.4592 8.13335H17.5273L19.3342 2.91744H20.4251L17.6467 10.4174C17.5217 10.7555 17.3668 11.0353 17.1822 11.2569C16.9975 11.4814 16.783 11.6475 16.5387 11.7555C16.2972 11.8635 16.0245 11.9174 15.7205 11.9174ZM26.3888 4.38335L25.4854 4.63903C25.4286 4.48846 25.3448 4.34215 25.234 4.20011C25.1261 4.05522 24.9783 3.9359 24.7908 3.84215C24.6033 3.7484 24.3633 3.70153 24.0707 3.70153C23.6701 3.70153 23.3363 3.79386 23.0692 3.97852C22.805 4.16033 22.6729 4.39187 22.6729 4.67312C22.6729 4.92312 22.7638 5.12056 22.9457 5.26545C23.1275 5.41033 23.4116 5.53107 23.7979 5.62766L24.7695 5.8663C25.3548 6.00835 25.7908 6.22567 26.0778 6.51829C26.3647 6.80806 26.5082 7.18164 26.5082 7.63903C26.5082 8.01403 26.4002 8.34925 26.1843 8.64471C25.9712 8.94016 25.6729 9.17312 25.2894 9.34357C24.9059 9.51403 24.4599 9.59925 23.9513 9.59925C23.2837 9.59925 22.7312 9.45437 22.2937 9.1646C21.8562 8.87482 21.5792 8.45153 21.4627 7.89471L22.4173 7.65607C22.5082 8.00835 22.68 8.27255 22.9329 8.44869C23.1886 8.62482 23.5224 8.71289 23.9343 8.71289C24.4031 8.71289 24.7752 8.61346 25.0508 8.4146C25.3292 8.21289 25.4684 7.97141 25.4684 7.69016C25.4684 7.46289 25.3888 7.27255 25.2298 7.11914C25.0707 6.96289 24.8263 6.84641 24.4968 6.76971L23.4059 6.51403C22.8065 6.37198 22.3661 6.15181 22.0849 5.85352C21.8065 5.55238 21.6673 5.17596 21.6673 4.72425C21.6673 4.35494 21.771 4.02823 21.9783 3.74414C22.1886 3.46005 22.4741 3.23704 22.8349 3.07511C23.1985 2.91317 23.6104 2.83221 24.0707 2.83221C24.7184 2.83221 25.2269 2.97425 25.5962 3.25834C25.9684 3.54244 26.2326 3.91744 26.3888 4.38335ZM34.0561 9.59925C33.4652 9.59925 32.9467 9.45863 32.5007 9.17738C32.0575 8.89613 31.7109 8.50266 31.4609 7.99698C31.2138 7.4913 31.0902 6.90039 31.0902 6.22425C31.0902 5.54244 31.2138 4.94727 31.4609 4.43874C31.7109 3.93022 32.0575 3.53533 32.5007 3.25408C32.9467 2.97283 33.4652 2.83221 34.0561 2.83221C34.647 2.83221 35.1641 2.97283 35.6072 3.25408C36.0533 3.53533 36.3999 3.93022 36.647 4.43874C36.897 4.94727 37.022 5.54244 37.022 6.22425C37.022 6.90039 36.897 7.4913 36.647 7.99698C36.3999 8.50266 36.0533 8.89613 35.6072 9.17738C35.1641 9.45863 34.647 9.59925 34.0561 9.59925ZM34.0561 8.69585C34.505 8.69585 34.8743 8.58079 35.1641 8.35067C35.4538 8.12056 35.6683 7.818 35.8075 7.443C35.9467 7.068 36.0163 6.66175 36.0163 6.22425C36.0163 5.78675 35.9467 5.37908 35.8075 5.00124C35.6683 4.6234 35.4538 4.318 35.1641 4.08505C34.8743 3.85209 34.505 3.73562 34.0561 3.73562C33.6072 3.73562 33.2379 3.85209 32.9482 4.08505C32.6584 4.318 32.4439 4.6234 32.3047 5.00124C32.1655 5.37908 32.0959 5.78675 32.0959 6.22425C32.0959 6.66175 32.1655 7.068 32.3047 7.443C32.4439 7.818 32.6584 8.12056 32.9482 8.35067C33.2379 8.58079 33.6072 8.69585 34.0561 8.69585ZM41.4719 2.91744V3.76971H37.9435V2.91744H41.4719ZM39.0004 9.46289V2.01403C39.0004 1.63903 39.0884 1.32653 39.2646 1.07653C39.4407 0.826526 39.6694 0.639026 39.9506 0.514026C40.2319 0.389026 40.5288 0.326526 40.8413 0.326526C41.0884 0.326526 41.2901 0.346413 41.4464 0.386186C41.6026 0.425958 41.7191 0.46289 41.7958 0.496981L41.506 1.3663C41.4549 1.34925 41.3839 1.32795 41.293 1.30238C41.2049 1.27681 41.0884 1.26403 40.9435 1.26403C40.6112 1.26403 40.3711 1.34783 40.2234 1.51545C40.0785 1.68306 40.006 1.9288 40.006 2.25266V9.46289H39.0004ZM51.1655 2.91744C51.1143 2.48562 50.907 2.15039 50.5433 1.91175C50.1797 1.67312 49.7337 1.5538 49.2053 1.5538C48.8189 1.5538 48.4808 1.6163 48.1911 1.7413C47.9041 1.8663 47.6797 2.03817 47.5178 2.25692C47.3587 2.47567 47.2791 2.72425 47.2791 3.00266C47.2791 3.23562 47.3345 3.4359 47.4453 3.60352C47.5589 3.76829 47.7038 3.90607 47.88 4.01687C48.0561 4.12482 48.2408 4.21431 48.4339 4.28533C48.6271 4.35352 48.8047 4.40891 48.9666 4.45153L49.853 4.69016C50.0803 4.74982 50.3331 4.83221 50.6115 4.93732C50.8928 5.04244 51.1612 5.1859 51.4169 5.36772C51.6754 5.5467 51.8885 5.77681 52.0561 6.05806C52.2237 6.33931 52.3075 6.68448 52.3075 7.09357C52.3075 7.56516 52.1839 7.9913 51.9368 8.37198C51.6925 8.75266 51.3345 9.05522 50.8629 9.27965C50.3942 9.50408 49.8246 9.6163 49.1541 9.6163C48.5291 9.6163 47.9879 9.51545 47.5305 9.31374C47.076 9.11204 46.718 8.83079 46.4567 8.46999C46.1982 8.1092 46.0518 7.69016 46.0178 7.21289H47.1087C47.1371 7.54244 47.2479 7.81516 47.4411 8.03107C47.6371 8.24414 47.8842 8.40323 48.1825 8.50835C48.4837 8.61062 48.8075 8.66175 49.1541 8.66175C49.5575 8.66175 49.9197 8.59641 50.2408 8.46573C50.5618 8.33221 50.8161 8.14755 51.0036 7.91175C51.1911 7.67312 51.2848 7.39471 51.2848 7.07653C51.2848 6.78675 51.2038 6.55096 51.0419 6.36914C50.88 6.18732 50.6669 6.0396 50.4027 5.92596C50.1385 5.81232 49.853 5.71289 49.5462 5.62766L48.4723 5.32085C47.7905 5.12482 47.2507 4.84499 46.853 4.48136C46.4553 4.11772 46.2564 3.64187 46.2564 3.0538C46.2564 2.56516 46.3885 2.13903 46.6527 1.77539C46.9197 1.40891 47.2777 1.12482 47.7266 0.923118C48.1783 0.718572 48.6825 0.616299 49.2393 0.616299C49.8018 0.616299 50.3018 0.717152 50.7393 0.918856C51.1768 1.11772 51.5234 1.39045 51.7791 1.73704C52.0376 2.08363 52.174 2.47709 52.1882 2.91744H51.1655ZM56.7553 2.91744V3.76971H53.3633V2.91744H56.7553ZM54.3519 1.34925H55.3576V7.58789C55.3576 7.87198 55.3988 8.08505 55.4812 8.2271C55.5664 8.3663 55.6744 8.46005 55.805 8.50835C55.9386 8.5538 56.0792 8.57653 56.2269 8.57653C56.3377 8.57653 56.4286 8.57085 56.4996 8.55948C56.5707 8.54528 56.6275 8.53391 56.6701 8.52539L56.8746 9.4288C56.8065 9.45437 56.7113 9.47994 56.5891 9.5055C56.467 9.53391 56.3121 9.54812 56.1246 9.54812C55.8406 9.54812 55.5621 9.48704 55.2894 9.36488C55.0195 9.24272 54.7951 9.05664 54.6161 8.80664C54.44 8.55664 54.3519 8.2413 54.3519 7.86062V1.34925ZM60.8569 9.59925C60.266 9.59925 59.7475 9.45863 59.3015 9.17738C58.8583 8.89613 58.5117 8.50266 58.2617 7.99698C58.0146 7.4913 57.891 6.90039 57.891 6.22425C57.891 5.54244 58.0146 4.94727 58.2617 4.43874C58.5117 3.93022 58.8583 3.53533 59.3015 3.25408C59.7475 2.97283 60.266 2.83221 60.8569 2.83221C61.4478 2.83221 61.9648 2.97283 62.408 3.25408C62.854 3.53533 63.2006 3.93022 63.4478 4.43874C63.6978 4.94727 63.8228 5.54244 63.8228 6.22425C63.8228 6.90039 63.6978 7.4913 63.4478 7.99698C63.2006 8.50266 62.854 8.89613 62.408 9.17738C61.9648 9.45863 61.4478 9.59925 60.8569 9.59925ZM60.8569 8.69585C61.3058 8.69585 61.6751 8.58079 61.9648 8.35067C62.2546 8.12056 62.4691 7.818 62.6083 7.443C62.7475 7.068 62.8171 6.66175 62.8171 6.22425C62.8171 5.78675 62.7475 5.37908 62.6083 5.00124C62.4691 4.6234 62.2546 4.318 61.9648 4.08505C61.6751 3.85209 61.3058 3.73562 60.8569 3.73562C60.408 3.73562 60.0387 3.85209 59.7489 4.08505C59.4592 4.318 59.2447 4.6234 59.1055 5.00124C58.9663 5.37908 58.8967 5.78675 58.8967 6.22425C58.8967 6.66175 58.9663 7.068 59.1055 7.443C59.2447 7.818 59.4592 8.12056 59.7489 8.35067C60.0387 8.58079 60.408 8.69585 60.8569 8.69585ZM68.017 9.59925C67.4034 9.59925 66.875 9.45437 66.4318 9.1646C65.9886 8.87482 65.6477 8.47567 65.4091 7.96715C65.1705 7.45863 65.0511 6.87766 65.0511 6.22425C65.0511 5.55948 65.1733 4.97283 65.4176 4.46431C65.6648 3.95295 66.0085 3.5538 66.4489 3.26687C66.892 2.9771 67.4091 2.83221 68 2.83221C68.4602 2.83221 68.875 2.91744 69.2443 3.08789C69.6136 3.25835 69.9162 3.49698 70.152 3.8038C70.3878 4.11062 70.5341 4.46857 70.5909 4.87766H69.5852C69.5085 4.57937 69.3381 4.31516 69.0739 4.08505C68.8125 3.85209 68.4602 3.73562 68.017 3.73562C67.625 3.73562 67.2813 3.83789 66.9858 4.04244C66.6932 4.24414 66.4645 4.52965 66.2997 4.89897C66.1378 5.26545 66.0568 5.69585 66.0568 6.19016C66.0568 6.69585 66.1364 7.13619 66.2955 7.51119C66.4574 7.88619 66.6847 8.17738 66.9773 8.38477C67.2727 8.59215 67.6193 8.69585 68.017 8.69585C68.2784 8.69585 68.5156 8.65039 68.7287 8.55948C68.9418 8.46857 69.1222 8.33789 69.2699 8.16744C69.4176 7.99698 69.5227 7.79244 69.5852 7.5538H70.5909C70.5341 7.94016 70.3935 8.28817 70.169 8.59783C69.9474 8.90465 69.6534 9.14897 69.2869 9.33079C68.9233 9.50977 68.5 9.59925 68.017 9.59925ZM72.9986 7.07653L72.9815 5.83221H73.1861L76.0497 2.91744H77.294L74.2429 6.00266H74.1577L72.9986 7.07653ZM72.0611 9.46289V0.735618H73.0668V9.46289H72.0611ZM76.2202 9.46289L73.6634 6.22425L74.3793 5.52539L77.4986 9.46289H76.2202Z" fill="black"/>
</svg>
