<svg width="85" height="27" viewBox="0 0 85 27" fill="none" xmlns="http://www.w3.org/2000/svg">
<path d="M8.79492 9.44922H6.10174V0.721946H8.91424C9.76083 0.721946 10.4853 0.896662 11.0875 1.24609C11.6898 1.59268 12.1515 2.09126 12.4725 2.74183C12.7935 3.38956 12.954 4.16513 12.954 5.06854C12.954 5.97763 12.7921 6.7603 12.4682 7.41655C12.1444 8.06996 11.6728 8.5728 11.0534 8.92507C10.4341 9.2745 9.68129 9.44922 8.79492 9.44922ZM7.15856 8.51172H8.72674C9.44833 8.51172 10.0463 8.37251 10.5208 8.09411C10.9952 7.8157 11.3489 7.41939 11.5819 6.90518C11.8148 6.39098 11.9313 5.77876 11.9313 5.06854C11.9313 4.36399 11.8162 3.75746 11.5861 3.24893C11.356 2.73757 11.0123 2.34553 10.5549 2.0728C10.0975 1.79723 9.52788 1.65945 8.84606 1.65945H7.15856V8.51172ZM17.3347 9.58558C16.704 9.58558 16.16 9.44638 15.7026 9.16797C15.248 8.88672 14.8972 8.49467 14.65 7.99183C14.4057 7.48615 14.2836 6.89808 14.2836 6.22763C14.2836 5.55717 14.4057 4.96626 14.65 4.4549C14.8972 3.9407 15.2409 3.54013 15.6813 3.2532C16.1245 2.96342 16.6415 2.81854 17.2324 2.81854C17.5733 2.81854 17.91 2.87536 18.2424 2.98899C18.5748 3.10263 18.8773 3.28729 19.15 3.54297C19.4228 3.79581 19.6401 4.13104 19.802 4.54865C19.964 4.96626 20.0449 5.48047 20.0449 6.09126V6.5174H14.9995V5.64808H19.0222C19.0222 5.27876 18.9483 4.94922 18.8006 4.65945C18.6557 4.36967 18.4483 4.14098 18.1784 3.97337C17.9114 3.80575 17.5961 3.72195 17.2324 3.72195C16.8319 3.72195 16.4853 3.82138 16.1926 4.02024C15.9029 4.21626 15.6799 4.47195 15.5236 4.78729C15.3674 5.10263 15.2892 5.4407 15.2892 5.80149V6.38104C15.2892 6.87536 15.3745 7.29439 15.5449 7.63814C15.7182 7.97905 15.9583 8.23899 16.2651 8.41797C16.5719 8.59411 16.9284 8.68217 17.3347 8.68217C17.5989 8.68217 17.8375 8.64524 18.0506 8.57138C18.2665 8.49467 18.4526 8.38104 18.6088 8.23047C18.7651 8.07706 18.8858 7.88672 18.9711 7.65945L19.9426 7.93217C19.8404 8.26172 19.6685 8.55149 19.427 8.80149C19.1855 9.04865 18.8873 9.24183 18.5321 9.38104C18.177 9.5174 17.7779 9.58558 17.3347 9.58558ZM22.5804 0.721946V9.44922H21.5748V0.721946H22.5804ZM24.4224 9.44922V2.90376H25.4281V9.44922H24.4224ZM24.9338 1.81286C24.7377 1.81286 24.5687 1.74609 24.4267 1.61257C24.2875 1.47905 24.2179 1.31854 24.2179 1.13104C24.2179 0.943537 24.2875 0.783026 24.4267 0.649503C24.5687 0.51598 24.7377 0.449219 24.9338 0.449219C25.1298 0.449219 25.2974 0.51598 25.4366 0.649503C25.5787 0.783026 25.6497 0.943537 25.6497 1.13104C25.6497 1.31854 25.5787 1.47905 25.4366 1.61257C25.2974 1.74609 25.1298 1.81286 24.9338 1.81286ZM32.6223 2.90376L30.2019 9.44922H29.1792L26.7587 2.90376H27.8496L29.6564 8.11967H29.7246L31.5314 2.90376H32.6223ZM36.4597 9.58558C35.829 9.58558 35.285 9.44638 34.8276 9.16797C34.373 8.88672 34.0222 8.49467 33.775 7.99183C33.5307 7.48615 33.4086 6.89808 33.4086 6.22763C33.4086 5.55717 33.5307 4.96626 33.775 4.4549C34.0222 3.9407 34.3659 3.54013 34.8063 3.2532C35.2495 2.96342 35.7665 2.81854 36.3574 2.81854C36.6983 2.81854 37.035 2.87536 37.3674 2.98899C37.6998 3.10263 38.0023 3.28729 38.275 3.54297C38.5478 3.79581 38.7651 4.13104 38.927 4.54865C39.089 4.96626 39.1699 5.48047 39.1699 6.09126V6.5174H34.1245V5.64808H38.1472C38.1472 5.27876 38.0733 4.94922 37.9256 4.65945C37.7807 4.36967 37.5733 4.14098 37.3034 3.97337C37.0364 3.80575 36.7211 3.72195 36.3574 3.72195C35.9569 3.72195 35.6103 3.82138 35.3176 4.02024C35.0279 4.21626 34.8049 4.47195 34.6486 4.78729C34.4924 5.10263 34.4142 5.4407 34.4142 5.80149V6.38104C34.4142 6.87536 34.4995 7.29439 34.6699 7.63814C34.8432 7.97905 35.0833 8.23899 35.3901 8.41797C35.6969 8.59411 36.0534 8.68217 36.4597 8.68217C36.7239 8.68217 36.9625 8.64524 37.1756 8.57138C37.3915 8.49467 37.5776 8.38104 37.7338 8.23047C37.8901 8.07706 38.0108 7.88672 38.0961 7.65945L39.0676 7.93217C38.9654 8.26172 38.7935 8.55149 38.552 8.80149C38.3105 9.04865 38.0123 9.24183 37.6571 9.38104C37.302 9.5174 36.9029 9.58558 36.4597 9.58558ZM40.6998 9.44922V2.90376H41.6713V3.8924H41.7395C41.8588 3.56854 42.0748 3.30575 42.3873 3.10405C42.6998 2.90234 43.052 2.80149 43.4441 2.80149C43.5179 2.80149 43.6103 2.80291 43.7211 2.80575C43.8319 2.80859 43.9157 2.81286 43.9725 2.81854V3.84126C43.9384 3.83274 43.8603 3.81996 43.7381 3.80291C43.6188 3.78303 43.4924 3.77308 43.3588 3.77308C43.0407 3.77308 42.7566 3.83984 42.5066 3.97337C42.2594 4.10405 42.0634 4.28587 41.9185 4.51882C41.7765 4.74893 41.7054 5.01172 41.7054 5.30717V9.44922H40.6998ZM46.0115 11.9038C45.8411 11.9038 45.6891 11.8896 45.5556 11.8612C45.4221 11.8356 45.3297 11.81 45.2786 11.7844L45.5343 10.8981C45.7786 10.9606 45.9945 10.9833 46.182 10.9663C46.3695 10.9492 46.5357 10.8654 46.6806 10.7148C46.8283 10.5671 46.9632 10.3271 47.0854 9.99467L47.2729 9.48331L44.8525 2.90376H45.9434L47.7502 8.11967H47.8184L49.6252 2.90376H50.7161L47.9377 10.4038C47.8127 10.7418 47.6578 11.0217 47.4732 11.2433C47.2885 11.4677 47.074 11.6339 46.8297 11.7418C46.5882 11.8498 46.3155 11.9038 46.0115 11.9038ZM55.5549 0.721946H56.8162L59.7821 7.96626H59.8844L62.8503 0.721946H64.1117V9.44922H63.123V2.81854H63.0378L60.3105 9.44922H59.356L56.6287 2.81854H56.5435V9.44922H55.5549V0.721946ZM68.0204 9.60263C67.6056 9.60263 67.2292 9.5245 66.8912 9.36825C66.5531 9.20916 66.2846 8.98047 66.0858 8.68217C65.8869 8.38104 65.7875 8.0174 65.7875 7.59126C65.7875 7.21626 65.8613 6.91229 66.0091 6.67933C66.1568 6.44354 66.3542 6.25888 66.6014 6.12535C66.8485 5.99183 67.1213 5.8924 67.4196 5.82706C67.7207 5.75888 68.0233 5.7049 68.3272 5.66513C68.725 5.61399 69.0474 5.57564 69.2946 5.55007C69.5446 5.52166 69.7264 5.47479 69.84 5.40945C69.9565 5.34411 70.0147 5.23047 70.0147 5.06854V5.03445C70.0147 4.61399 69.8997 4.28729 69.6696 4.05433C69.4423 3.82138 69.0971 3.7049 68.6341 3.7049C68.1539 3.7049 67.7775 3.81001 67.5048 4.02024C67.2321 4.23047 67.0403 4.4549 66.9295 4.69354L65.975 4.35263C66.1454 3.9549 66.3727 3.64524 66.6568 3.42365C66.9437 3.19922 67.2562 3.04297 67.5943 2.9549C67.9352 2.86399 68.2704 2.81854 68.6 2.81854C68.8102 2.81854 69.0517 2.84411 69.3244 2.89524C69.6 2.94354 69.8656 3.04439 70.1213 3.1978C70.3798 3.35121 70.5943 3.58274 70.7647 3.8924C70.9352 4.20206 71.0204 4.61683 71.0204 5.13672V9.44922H70.0147V8.56286H69.9636C69.8954 8.7049 69.7818 8.85689 69.6227 9.01882C69.4636 9.18075 69.252 9.31854 68.9877 9.43217C68.7235 9.54581 68.4011 9.60263 68.0204 9.60263ZM68.1738 8.69922C68.5716 8.69922 68.9068 8.62109 69.1795 8.46484C69.4551 8.30859 69.6625 8.10689 69.8017 7.85973C69.9437 7.61257 70.0147 7.35263 70.0147 7.0799V6.15945C69.9721 6.21058 69.8784 6.25746 69.7335 6.30007C69.5914 6.33984 69.4267 6.37535 69.2392 6.4066C69.0545 6.43501 68.8741 6.46058 68.698 6.48331C68.5247 6.5032 68.3841 6.52024 68.2761 6.53445C68.0147 6.56854 67.7704 6.62393 67.5431 6.70064C67.3187 6.7745 67.1369 6.88672 66.9977 7.03729C66.8613 7.18501 66.7931 7.38672 66.7931 7.6424C66.7931 7.99183 66.9224 8.25604 67.1809 8.43501C67.4423 8.61115 67.7733 8.69922 68.1738 8.69922ZM73.8617 5.51172V9.44922H72.856V2.90376H73.8276V3.92649H73.9128C74.0662 3.59411 74.2992 3.32706 74.6117 3.12536C74.9242 2.92081 75.3276 2.81854 75.8219 2.81854C76.2651 2.81854 76.6529 2.90945 76.9853 3.09126C77.3176 3.27024 77.5762 3.54297 77.7608 3.90945C77.9455 4.27308 78.0378 4.73331 78.0378 5.29013V9.44922H77.0321V5.35831C77.0321 4.84411 76.8986 4.44354 76.6316 4.1566C76.3645 3.86683 75.998 3.72195 75.5321 3.72195C75.2111 3.72195 74.9242 3.79155 74.6713 3.93075C74.4213 4.06996 74.2239 4.27308 74.079 4.54013C73.9341 4.80717 73.8617 5.13104 73.8617 5.51172ZM0.160334 24.4492V15.7219H5.42738V16.6594H1.21715V19.6083H5.15465V20.5458H1.21715V23.5117H5.49556V24.4492H0.160334ZM7.94585 17.9038L9.51403 20.5799L11.0822 17.9038H12.2413L10.1277 21.1765L12.2413 24.4492H11.0822L9.51403 21.9094L7.94585 24.4492H6.78675L8.8663 21.1765L6.78675 17.9038H7.94585ZM13.6763 26.9038V17.9038H14.6479V18.9435H14.7672C14.8411 18.8299 14.9434 18.685 15.074 18.5089C15.2076 18.3299 15.3979 18.1708 15.6451 18.0316C15.8951 17.8896 16.2331 17.8185 16.6593 17.8185C17.2104 17.8185 17.6962 17.9563 18.1167 18.2319C18.5371 18.5075 18.8652 18.8981 19.101 19.4038C19.3368 19.9094 19.4547 20.506 19.4547 21.1935C19.4547 21.8867 19.3368 22.4876 19.101 22.9961C18.8652 23.5018 18.5385 23.8938 18.1209 24.1722C17.7033 24.4478 17.2218 24.5856 16.6763 24.5856C16.2559 24.5856 15.9192 24.516 15.6664 24.3768C15.4135 24.2347 15.2189 24.0742 15.0826 23.8952C14.9462 23.7134 14.8411 23.5629 14.7672 23.4435H14.682V26.9038H13.6763ZM14.665 21.1765C14.665 21.6708 14.7374 22.1069 14.8823 22.4847C15.0272 22.8597 15.2388 23.1538 15.5172 23.3668C15.7956 23.5771 16.1365 23.6822 16.54 23.6822C16.9604 23.6822 17.3113 23.5714 17.5925 23.3498C17.8766 23.1254 18.0897 22.8242 18.2317 22.4464C18.3766 22.0657 18.449 21.6424 18.449 21.1765C18.449 20.7163 18.378 20.3015 18.236 19.9322C18.0968 19.56 17.8851 19.266 17.601 19.0501C17.3198 18.8313 16.9661 18.7219 16.54 18.7219C16.1309 18.7219 15.7871 18.8256 15.5087 19.033C15.2303 19.2376 15.0201 19.5245 14.878 19.8938C14.736 20.2603 14.665 20.6879 14.665 21.1765ZM23.7331 24.5856C23.1025 24.5856 22.5584 24.4464 22.101 24.168C21.6465 23.8867 21.2956 23.4947 21.0485 22.9918C20.8042 22.4862 20.682 21.8981 20.682 21.2276C20.682 20.5572 20.8042 19.9663 21.0485 19.4549C21.2956 18.9407 21.6394 18.5401 22.0797 18.2532C22.5229 17.9634 23.04 17.8185 23.6309 17.8185C23.9718 17.8185 24.3084 17.8754 24.6408 17.989C24.9732 18.1026 25.2757 18.2873 25.5485 18.543C25.8212 18.7958 26.0385 19.131 26.2005 19.5487C26.3624 19.9663 26.4434 20.4805 26.4434 21.0913V21.5174H21.3979V20.6481H25.4206C25.4206 20.2788 25.3468 19.9492 25.199 19.6594C25.0542 19.3697 24.8468 19.141 24.5769 18.9734C24.3098 18.8058 23.9945 18.7219 23.6309 18.7219C23.2303 18.7219 22.8837 18.8214 22.5911 19.0202C22.3013 19.2163 22.0783 19.4719 21.9221 19.7873C21.7658 20.1026 21.6877 20.4407 21.6877 20.8015V21.381C21.6877 21.8754 21.7729 22.2944 21.9434 22.6381C22.1167 22.979 22.3567 23.239 22.6635 23.418C22.9703 23.5941 23.3269 23.6822 23.7331 23.6822C23.9973 23.6822 24.236 23.6452 24.449 23.5714C24.665 23.4947 24.851 23.381 25.0073 23.2305C25.1635 23.0771 25.2843 22.8867 25.3695 22.6594L26.3411 22.9322C26.2388 23.2617 26.0669 23.5515 25.8255 23.8015C25.584 24.0487 25.2857 24.2418 24.9306 24.381C24.5755 24.5174 24.1763 24.5856 23.7331 24.5856ZM28.9789 20.5117V24.4492H27.9732V17.9038H28.9448V18.9265H29.03C29.1834 18.5941 29.4164 18.3271 29.7289 18.1254C30.0414 17.9208 30.4448 17.8185 30.9391 17.8185C31.3823 17.8185 31.7701 17.9094 32.1025 18.0913C32.4348 18.2702 32.6934 18.543 32.878 18.9094C33.0627 19.2731 33.155 19.7333 33.155 20.2901V24.4492H32.1493V20.3583C32.1493 19.8441 32.0158 19.4435 31.7488 19.1566C31.4817 18.8668 31.1152 18.7219 30.6493 18.7219C30.3283 18.7219 30.0414 18.7915 29.7885 18.9308C29.5385 19.07 29.3411 19.2731 29.1962 19.5401C29.0513 19.8072 28.9789 20.131 28.9789 20.5117ZM39.6291 19.3697L38.7257 19.6254C38.6689 19.4748 38.585 19.3285 38.4743 19.1864C38.3663 19.0415 38.2186 18.9222 38.0311 18.8285C37.8436 18.7347 37.6035 18.6879 37.3109 18.6879C36.9103 18.6879 36.5765 18.7802 36.3095 18.9648C36.0453 19.1467 35.9132 19.3782 35.9132 19.6594C35.9132 19.9094 36.0041 20.1069 36.1859 20.2518C36.3677 20.3967 36.6518 20.5174 37.0382 20.614L38.0098 20.8526C38.595 20.9947 39.0311 21.212 39.318 21.5046C39.6049 21.7944 39.7484 22.168 39.7484 22.6254C39.7484 23.0004 39.6404 23.3356 39.4245 23.631C39.2115 23.9265 38.9132 24.1594 38.5297 24.3299C38.1461 24.5004 37.7001 24.5856 37.1916 24.5856C36.524 24.5856 35.9714 24.4407 35.5339 24.1509C35.0964 23.8612 34.8194 23.4379 34.7029 22.881L35.6575 22.6424C35.7484 22.9947 35.9203 23.2589 36.1731 23.435C36.4288 23.6112 36.7626 23.6992 37.1745 23.6992C37.6433 23.6992 38.0154 23.5998 38.291 23.4009C38.5694 23.1992 38.7086 22.9577 38.7086 22.6765C38.7086 22.4492 38.6291 22.2589 38.47 22.1055C38.3109 21.9492 38.0666 21.8327 37.737 21.756L36.6461 21.5004C36.0467 21.3583 35.6064 21.1381 35.3251 20.8398C35.0467 20.5387 34.9075 20.1623 34.9075 19.7106C34.9075 19.3413 35.0112 19.0146 35.2186 18.7305C35.4288 18.4464 35.7143 18.2234 36.0751 18.0614C36.4387 17.8995 36.8507 17.8185 37.3109 17.8185C37.9586 17.8185 38.4672 17.9606 38.8365 18.2447C39.2086 18.5288 39.4728 18.9038 39.6291 19.3697ZM44.0066 24.5856C43.3759 24.5856 42.8319 24.4464 42.3745 24.168C41.9199 23.8867 41.5691 23.4947 41.3219 22.9918C41.0776 22.4862 40.9554 21.8981 40.9554 21.2276C40.9554 20.5572 41.0776 19.9663 41.3219 19.4549C41.5691 18.9407 41.9128 18.5401 42.3532 18.2532C42.7963 17.9634 43.3134 17.8185 43.9043 17.8185C44.2452 17.8185 44.5819 17.8754 44.9142 17.989C45.2466 18.1026 45.5492 18.2873 45.8219 18.543C46.0946 18.7958 46.312 19.131 46.4739 19.5487C46.6358 19.9663 46.7168 20.4805 46.7168 21.0913V21.5174H41.6713V20.6481H45.6941C45.6941 20.2788 45.6202 19.9492 45.4725 19.6594C45.3276 19.3697 45.1202 19.141 44.8503 18.9734C44.5833 18.8058 44.2679 18.7219 43.9043 18.7219C43.5037 18.7219 43.1571 18.8214 42.8645 19.0202C42.5748 19.2163 42.3517 19.4719 42.1955 19.7873C42.0392 20.1026 41.9611 20.4407 41.9611 20.8015V21.381C41.9611 21.8754 42.0463 22.2944 42.2168 22.6381C42.3901 22.979 42.6301 23.239 42.937 23.418C43.2438 23.5941 43.6003 23.6822 44.0066 23.6822C44.2708 23.6822 44.5094 23.6452 44.7225 23.5714C44.9384 23.4947 45.1245 23.381 45.2807 23.2305C45.437 23.0771 45.5577 22.8867 45.6429 22.6594L46.6145 22.9322C46.5123 23.2617 46.3404 23.5515 46.0989 23.8015C45.8574 24.0487 45.5591 24.2418 45.204 24.381C44.8489 24.5174 44.4498 24.5856 44.0066 24.5856ZM51.2807 16.6594V15.7219H57.8262V16.6594H55.0819V24.4492H54.025V16.6594H51.2807ZM59.2186 26.9038C59.0481 26.9038 58.8961 26.8896 58.7626 26.8612C58.6291 26.8356 58.5368 26.81 58.4856 26.7844L58.7413 25.8981C58.9856 25.9606 59.2015 25.9833 59.389 25.9663C59.5765 25.9492 59.7427 25.8654 59.8876 25.7148C60.0353 25.5671 60.1703 25.3271 60.2924 24.9947L60.4799 24.4833L58.0595 17.9038H59.1504L60.9572 23.1197H61.0254L62.8322 17.9038H63.9231L61.1447 25.4038C61.0197 25.7418 60.8649 26.0217 60.6802 26.2433C60.4956 26.4677 60.2811 26.6339 60.0368 26.7418C59.7953 26.8498 59.5225 26.9038 59.2186 26.9038ZM65.2505 26.9038V17.9038H66.2221V18.9435H66.3414C66.4153 18.8299 66.5176 18.685 66.6483 18.5089C66.7818 18.3299 66.9721 18.1708 67.2193 18.0316C67.4693 17.8896 67.8074 17.8185 68.2335 17.8185C68.7846 17.8185 69.2704 17.9563 69.6909 18.2319C70.1113 18.5075 70.4395 18.8981 70.6752 19.4038C70.911 19.9094 71.0289 20.506 71.0289 21.1935C71.0289 21.8867 70.911 22.4876 70.6752 22.9961C70.4395 23.5018 70.1127 23.8938 69.6951 24.1722C69.2775 24.4478 68.796 24.5856 68.2505 24.5856C67.8301 24.5856 67.4934 24.516 67.2406 24.3768C66.9877 24.2347 66.7931 24.0742 66.6568 23.8952C66.5204 23.7134 66.4153 23.5629 66.3414 23.4435H66.2562V26.9038H65.2505ZM66.2392 21.1765C66.2392 21.6708 66.3116 22.1069 66.4565 22.4847C66.6014 22.8597 66.813 23.1538 67.0914 23.3668C67.3699 23.5771 67.7108 23.6822 68.1142 23.6822C68.5346 23.6822 68.8855 23.5714 69.1667 23.3498C69.4508 23.1254 69.6639 22.8242 69.8059 22.4464C69.9508 22.0657 70.0233 21.6424 70.0233 21.1765C70.0233 20.7163 69.9522 20.3015 69.8102 19.9322C69.671 19.56 69.4593 19.266 69.1752 19.0501C68.894 18.8313 68.5403 18.7219 68.1142 18.7219C67.7051 18.7219 67.3613 18.8256 67.0829 19.033C66.8045 19.2376 66.5943 19.5245 66.4522 19.8938C66.3102 20.2603 66.2392 20.6879 66.2392 21.1765ZM75.3074 24.5856C74.6767 24.5856 74.1326 24.4464 73.6752 24.168C73.2207 23.8867 72.8699 23.4947 72.6227 22.9918C72.3784 22.4862 72.2562 21.8981 72.2562 21.2276C72.2562 20.5572 72.3784 19.9663 72.6227 19.4549C72.8699 18.9407 73.2136 18.5401 73.6539 18.2532C74.0971 17.9634 74.6142 17.8185 75.2051 17.8185C75.546 17.8185 75.8826 17.8754 76.215 17.989C76.5474 18.1026 76.85 18.2873 77.1227 18.543C77.3954 18.7958 77.6127 19.131 77.7747 19.5487C77.9366 19.9663 78.0176 20.4805 78.0176 21.0913V21.5174H72.9721V20.6481H76.9949C76.9949 20.2788 76.921 19.9492 76.7733 19.6594C76.6284 19.3697 76.421 19.141 76.1511 18.9734C75.8841 18.8058 75.5687 18.7219 75.2051 18.7219C74.8045 18.7219 74.4579 18.8214 74.1653 19.0202C73.8755 19.2163 73.6525 19.4719 73.4963 19.7873C73.34 20.1026 73.2619 20.4407 73.2619 20.8015V21.381C73.2619 21.8754 73.3471 22.2944 73.5176 22.6381C73.6909 22.979 73.9309 23.239 74.2377 23.418C74.5446 23.5941 74.9011 23.6822 75.3074 23.6822C75.5716 23.6822 75.8102 23.6452 76.0233 23.5714C76.2392 23.4947 76.4252 23.381 76.5815 23.2305C76.7377 23.0771 76.8585 22.8867 76.9437 22.6594L77.9153 22.9322C77.813 23.2617 77.6412 23.5515 77.3997 23.8015C77.1582 24.0487 76.8599 24.2418 76.5048 24.381C76.1497 24.5174 75.7505 24.5856 75.3074 24.5856ZM84.1838 19.3697L83.2804 19.6254C83.2235 19.4748 83.1397 19.3285 83.0289 19.1864C82.921 19.0415 82.7733 18.9222 82.5858 18.8285C82.3983 18.7347 82.1582 18.6879 81.8656 18.6879C81.465 18.6879 81.1312 18.7802 80.8642 18.9648C80.6 19.1467 80.4679 19.3782 80.4679 19.6594C80.4679 19.9094 80.5588 20.1069 80.7406 20.2518C80.9224 20.3967 81.2065 20.5174 81.5929 20.614L82.5645 20.8526C83.1497 20.9947 83.5858 21.212 83.8727 21.5046C84.1596 21.7944 84.3031 22.168 84.3031 22.6254C84.3031 23.0004 84.1951 23.3356 83.9792 23.631C83.7662 23.9265 83.4679 24.1594 83.0843 24.3299C82.7008 24.5004 82.2548 24.5856 81.7463 24.5856C81.0787 24.5856 80.5261 24.4407 80.0886 24.1509C79.6511 23.8612 79.3741 23.4379 79.2576 22.881L80.2122 22.6424C80.3031 22.9947 80.475 23.2589 80.7278 23.435C80.9835 23.6112 81.3173 23.6992 81.7292 23.6992C82.198 23.6992 82.5701 23.5998 82.8457 23.4009C83.1241 23.1992 83.2633 22.9577 83.2633 22.6765C83.2633 22.4492 83.1838 22.2589 83.0247 22.1055C82.8656 21.9492 82.6213 21.8327 82.2917 21.756L81.2008 21.5004C80.6014 21.3583 80.161 21.1381 79.8798 20.8398C79.6014 20.5387 79.4622 20.1623 79.4622 19.7106C79.4622 19.3413 79.5659 19.0146 79.7733 18.7305C79.9835 18.4464 80.269 18.2234 80.6298 18.0614C80.9934 17.8995 81.4054 17.8185 81.8656 17.8185C82.5133 17.8185 83.0218 17.9606 83.3912 18.2447C83.7633 18.5288 84.0275 18.9038 84.1838 19.3697Z" fill="black"/>
</svg>
