<svg width="96" height="27" viewBox="0 0 96 27" fill="none" xmlns="http://www.w3.org/2000/svg">
<path d="M14.7949 9.44629H12.1017V0.719016H14.9142C15.7608 0.719016 16.4853 0.893732 17.0875 1.24316C17.6898 1.58975 18.1515 2.08833 18.4725 2.7389C18.7935 3.38663 18.954 4.1622 18.954 5.06561C18.954 5.9747 18.7921 6.75737 18.4682 7.41362C18.1444 8.06703 17.6728 8.56987 17.0534 8.92214C16.4341 9.27157 15.6813 9.44629 14.7949 9.44629ZM13.1586 8.50879H14.7267C15.4483 8.50879 16.0463 8.36958 16.5208 8.09118C16.9952 7.81277 17.3489 7.41646 17.5819 6.90225C17.8148 6.38805 17.9313 5.77583 17.9313 5.06561C17.9313 4.36106 17.8162 3.75453 17.5861 3.246C17.356 2.73464 17.0123 2.3426 16.5549 2.06987C16.0975 1.7943 15.5279 1.65652 14.8461 1.65652H13.1586V8.50879ZM23.3347 9.58265C22.704 9.58265 22.16 9.44345 21.7026 9.16504C21.248 8.88379 20.8972 8.49174 20.65 7.9889C20.4057 7.48322 20.2836 6.89515 20.2836 6.2247C20.2836 5.55424 20.4057 4.96333 20.65 4.45197C20.8972 3.93777 21.2409 3.5372 21.6813 3.25027C22.1245 2.96049 22.6415 2.81561 23.2324 2.81561C23.5733 2.81561 23.91 2.87243 24.2424 2.98606C24.5748 3.0997 24.8773 3.28436 25.15 3.54004C25.4228 3.79288 25.6401 4.12811 25.802 4.54572C25.964 4.96333 26.0449 5.47754 26.0449 6.08833V6.51447H20.9995V5.64515H25.0222C25.0222 5.27583 24.9483 4.94629 24.8006 4.65652C24.6557 4.36674 24.4483 4.13805 24.1784 3.97044C23.9114 3.80282 23.5961 3.71902 23.2324 3.71902C22.8319 3.71902 22.4853 3.81845 22.1926 4.01731C21.9029 4.21333 21.6799 4.46902 21.5236 4.78436C21.3674 5.0997 21.2892 5.43777 21.2892 5.79856V6.37811C21.2892 6.87243 21.3745 7.29146 21.5449 7.63521C21.7182 7.97612 21.9583 8.23606 22.2651 8.41504C22.5719 8.59118 22.9284 8.67924 23.3347 8.67924C23.5989 8.67924 23.8375 8.64231 24.0506 8.56845C24.2665 8.49174 24.4526 8.37811 24.6088 8.22754C24.7651 8.07413 24.8858 7.88379 24.9711 7.65652L25.9426 7.92924C25.8404 8.25879 25.6685 8.54856 25.427 8.79856C25.1855 9.04572 24.8873 9.2389 24.5321 9.37811C24.177 9.51447 23.7779 9.58265 23.3347 9.58265ZM28.5804 0.719016V9.44629H27.5748V0.719016H28.5804ZM30.4224 9.44629V2.90083H31.4281V9.44629H30.4224ZM30.9338 1.80993C30.7377 1.80993 30.5687 1.74316 30.4267 1.60964C30.2875 1.47612 30.2179 1.31561 30.2179 1.12811C30.2179 0.940607 30.2875 0.780096 30.4267 0.646573C30.5687 0.51305 30.7377 0.446289 30.9338 0.446289C31.1298 0.446289 31.2974 0.51305 31.4366 0.646573C31.5787 0.780096 31.6497 0.940607 31.6497 1.12811C31.6497 1.31561 31.5787 1.47612 31.4366 1.60964C31.2974 1.74316 31.1298 1.80993 30.9338 1.80993ZM38.6223 2.90083L36.2019 9.44629H35.1792L32.7587 2.90083H33.8496L35.6564 8.11674H35.7246L37.5314 2.90083H38.6223ZM42.4597 9.58265C41.829 9.58265 41.285 9.44345 40.8276 9.16504C40.373 8.88379 40.0222 8.49174 39.775 7.9889C39.5307 7.48322 39.4086 6.89515 39.4086 6.2247C39.4086 5.55424 39.5307 4.96333 39.775 4.45197C40.0222 3.93777 40.3659 3.5372 40.8063 3.25027C41.2495 2.96049 41.7665 2.81561 42.3574 2.81561C42.6983 2.81561 43.035 2.87243 43.3674 2.98606C43.6998 3.0997 44.0023 3.28436 44.275 3.54004C44.5478 3.79288 44.7651 4.12811 44.927 4.54572C45.089 4.96333 45.1699 5.47754 45.1699 6.08833V6.51447H40.1245V5.64515H44.1472C44.1472 5.27583 44.0733 4.94629 43.9256 4.65652C43.7807 4.36674 43.5733 4.13805 43.3034 3.97044C43.0364 3.80282 42.7211 3.71902 42.3574 3.71902C41.9569 3.71902 41.6103 3.81845 41.3176 4.01731C41.0279 4.21333 40.8049 4.46902 40.6486 4.78436C40.4924 5.0997 40.4142 5.43777 40.4142 5.79856V6.37811C40.4142 6.87243 40.4995 7.29146 40.6699 7.63521C40.8432 7.97612 41.0833 8.23606 41.3901 8.41504C41.6969 8.59118 42.0534 8.67924 42.4597 8.67924C42.7239 8.67924 42.9625 8.64231 43.1756 8.56845C43.3915 8.49174 43.5776 8.37811 43.7338 8.22754C43.8901 8.07413 44.0108 7.88379 44.0961 7.65652L45.0676 7.92924C44.9654 8.25879 44.7935 8.54856 44.552 8.79856C44.3105 9.04572 44.0123 9.2389 43.6571 9.37811C43.302 9.51447 42.9029 9.58265 42.4597 9.58265ZM46.6998 9.44629V2.90083H47.6713V3.88947H47.7395C47.8588 3.56561 48.0748 3.30282 48.3873 3.10112C48.6998 2.89941 49.052 2.79856 49.4441 2.79856C49.5179 2.79856 49.6103 2.79998 49.7211 2.80282C49.8319 2.80566 49.9157 2.80993 49.9725 2.81561V3.83833C49.9384 3.82981 49.8603 3.81703 49.7381 3.79998C49.6188 3.7801 49.4924 3.77015 49.3588 3.77015C49.0407 3.77015 48.7566 3.83691 48.5066 3.97044C48.2594 4.10112 48.0634 4.28294 47.9185 4.51589C47.7765 4.746 47.7054 5.00879 47.7054 5.30424V9.44629H46.6998ZM52.0115 11.9008C51.8411 11.9008 51.6891 11.8866 51.5556 11.8582C51.4221 11.8327 51.3297 11.8071 51.2786 11.7815L51.5343 10.8952C51.7786 10.9577 51.9945 10.9804 52.182 10.9633C52.3695 10.9463 52.5357 10.8625 52.6806 10.7119C52.8283 10.5642 52.9632 10.3241 53.0854 9.99174L53.2729 9.48038L50.8525 2.90083H51.9434L53.7502 8.11674H53.8184L55.6252 2.90083H56.7161L53.9377 10.4008C53.8127 10.7389 53.6578 11.0187 53.4732 11.2403C53.2885 11.4648 53.074 11.6309 52.8297 11.7389C52.5882 11.8469 52.3155 11.9008 52.0115 11.9008ZM61.5549 0.719016H62.8162L65.7821 7.96333H65.8844L68.8503 0.719016H70.1117V9.44629H69.123V2.81561H69.0378L66.3105 9.44629H65.356L62.6287 2.81561H62.5435V9.44629H61.5549V0.719016ZM74.0204 9.5997C73.6056 9.5997 73.2292 9.52157 72.8912 9.36532C72.5531 9.20623 72.2846 8.97754 72.0858 8.67924C71.8869 8.37811 71.7875 8.01447 71.7875 7.58833C71.7875 7.21333 71.8613 6.90936 72.0091 6.6764C72.1568 6.44061 72.3542 6.25595 72.6014 6.12243C72.8485 5.9889 73.1213 5.88947 73.4196 5.82413C73.7207 5.75595 74.0233 5.70197 74.3272 5.6622C74.725 5.61106 75.0474 5.57271 75.2946 5.54714C75.5446 5.51873 75.7264 5.47186 75.84 5.40652C75.9565 5.34118 76.0147 5.22754 76.0147 5.06561V5.03152C76.0147 4.61106 75.8997 4.28436 75.6696 4.0514C75.4423 3.81845 75.0971 3.70197 74.6341 3.70197C74.1539 3.70197 73.7775 3.80708 73.5048 4.01731C73.2321 4.22754 73.0403 4.45197 72.9295 4.69061L71.975 4.3497C72.1454 3.95197 72.3727 3.64231 72.6568 3.42072C72.9437 3.19629 73.2562 3.04004 73.5943 2.95197C73.9352 2.86106 74.2704 2.81561 74.6 2.81561C74.8102 2.81561 75.0517 2.84118 75.3244 2.89231C75.6 2.94061 75.8656 3.04146 76.1213 3.19487C76.3798 3.34828 76.5943 3.57981 76.7647 3.88947C76.9352 4.19913 77.0204 4.6139 77.0204 5.13379V9.44629H76.0147V8.55993H75.9636C75.8954 8.70197 75.7818 8.85396 75.6227 9.01589C75.4636 9.17782 75.252 9.31561 74.9877 9.42924C74.7235 9.54288 74.4011 9.5997 74.0204 9.5997ZM74.1738 8.69629C74.5716 8.69629 74.9068 8.61816 75.1795 8.46191C75.4551 8.30566 75.6625 8.10396 75.8017 7.8568C75.9437 7.60964 76.0147 7.3497 76.0147 7.07697V6.15652C75.9721 6.20765 75.8784 6.25453 75.7335 6.29714C75.5914 6.33691 75.4267 6.37243 75.2392 6.40368C75.0545 6.43208 74.8741 6.45765 74.698 6.48038C74.5247 6.50027 74.3841 6.51731 74.2761 6.53152C74.0147 6.56561 73.7704 6.621 73.5431 6.69771C73.3187 6.77157 73.1369 6.88379 72.9977 7.03436C72.8613 7.18208 72.7931 7.38379 72.7931 7.63947C72.7931 7.9889 72.9224 8.25311 73.1809 8.43208C73.4423 8.60822 73.7733 8.69629 74.1738 8.69629ZM79.8617 5.50879V9.44629H78.856V2.90083H79.8276V3.92356H79.9128C80.0662 3.59118 80.2992 3.32413 80.6117 3.12243C80.9242 2.91788 81.3276 2.81561 81.8219 2.81561C82.2651 2.81561 82.6529 2.90652 82.9853 3.08833C83.3176 3.26731 83.5762 3.54004 83.7608 3.90652C83.9455 4.27015 84.0378 4.73038 84.0378 5.2872V9.44629H83.0321V5.35538C83.0321 4.84118 82.8986 4.44061 82.6316 4.15368C82.3645 3.8639 81.998 3.71902 81.5321 3.71902C81.2111 3.71902 80.9242 3.78862 80.6713 3.92782C80.4213 4.06703 80.2239 4.27015 80.079 4.5372C79.9341 4.80424 79.8617 5.12811 79.8617 5.50879ZM1.75462 24.4463H0.646662L3.85121 15.719H4.94212L8.14666 24.4463H7.03871L4.43075 17.0997H4.36257L1.75462 24.4463ZM2.16371 21.0372H6.62962V21.9747H2.16371V21.0372ZM11.8413 24.5827C11.2958 24.5827 10.8143 24.4449 10.3967 24.1693C9.97905 23.8909 9.65234 23.4988 9.41655 22.9932C9.18075 22.4846 9.06286 21.8838 9.06286 21.1906C9.06286 20.5031 9.18075 19.9065 9.41655 19.4008C9.65234 18.8952 9.98047 18.5045 10.4009 18.229C10.8214 17.9534 11.3072 17.8156 11.8583 17.8156C12.2844 17.8156 12.6211 17.8866 12.8683 18.0287C13.1183 18.1679 13.3086 18.327 13.4393 18.5059C13.5728 18.6821 13.6765 18.827 13.7504 18.9406H13.8356V15.719H14.8413V24.4463H13.8697V23.4406H13.7504C13.6765 23.5599 13.5714 23.7105 13.435 23.8923C13.2987 24.0713 13.104 24.2318 12.8512 24.3738C12.5984 24.5131 12.2617 24.5827 11.8413 24.5827ZM11.9776 23.6792C12.381 23.6792 12.7219 23.5741 13.0004 23.3639C13.2788 23.1508 13.4904 22.8568 13.6353 22.4818C13.7802 22.104 13.8526 21.6679 13.8526 21.1736C13.8526 20.6849 13.7816 20.2574 13.6396 19.8909C13.4975 19.5216 13.2873 19.2346 13.0089 19.0301C12.7305 18.8227 12.3867 18.719 11.9776 18.719C11.5515 18.719 11.1964 18.8284 10.9123 19.0471C10.631 19.2631 10.4194 19.5571 10.2773 19.9292C10.1381 20.2986 10.0685 20.7133 10.0685 21.1736C10.0685 21.6395 10.1396 22.0628 10.2816 22.4434C10.4265 22.8213 10.6396 23.1224 10.9208 23.3469C11.2049 23.5684 11.5572 23.6792 11.9776 23.6792ZM19.2944 24.5827C18.7489 24.5827 18.2674 24.4449 17.8498 24.1693C17.4322 23.8909 17.1055 23.4988 16.8697 22.9932C16.6339 22.4846 16.516 21.8838 16.516 21.1906C16.516 20.5031 16.6339 19.9065 16.8697 19.4008C17.1055 18.8952 17.4336 18.5045 17.854 18.229C18.2745 17.9534 18.7603 17.8156 19.3114 17.8156C19.7376 17.8156 20.0742 17.8866 20.3214 18.0287C20.5714 18.1679 20.7617 18.327 20.8924 18.5059C21.0259 18.6821 21.1296 18.827 21.2035 18.9406H21.2887V15.719H22.2944V24.4463H21.3228V23.4406H21.2035C21.1296 23.5599 21.0245 23.7105 20.8881 23.8923C20.7518 24.0713 20.5572 24.2318 20.3043 24.3738C20.0515 24.5131 19.7148 24.5827 19.2944 24.5827ZM19.4308 23.6792C19.8342 23.6792 20.1751 23.5741 20.4535 23.3639C20.7319 23.1508 20.9435 22.8568 21.0884 22.4818C21.2333 22.104 21.3058 21.6679 21.3058 21.1736C21.3058 20.6849 21.2347 20.2574 21.0927 19.8909C20.9506 19.5216 20.7404 19.2346 20.462 19.0301C20.1836 18.8227 19.8398 18.719 19.4308 18.719C19.0046 18.719 18.6495 18.8284 18.3654 19.0471C18.0842 19.2631 17.8725 19.5571 17.7305 19.9292C17.5913 20.2986 17.5217 20.7133 17.5217 21.1736C17.5217 21.6395 17.5927 22.0628 17.7347 22.4434C17.8796 22.8213 18.0927 23.1224 18.3739 23.3469C18.658 23.5684 19.0103 23.6792 19.4308 23.6792ZM27.0202 24.5827C26.3896 24.5827 25.8455 24.4434 25.3881 24.165C24.9336 23.8838 24.5827 23.4917 24.3356 22.9889C24.0913 22.4832 23.9691 21.8952 23.9691 21.2247C23.9691 20.5542 24.0913 19.9633 24.3356 19.452C24.5827 18.9378 24.9265 18.5372 25.3668 18.2503C25.81 17.9605 26.3271 17.8156 26.918 17.8156C27.2589 17.8156 27.5955 17.8724 27.9279 17.9861C28.2603 18.0997 28.5629 18.2844 28.8356 18.54C29.1083 18.7929 29.3256 19.1281 29.4876 19.5457C29.6495 19.9633 29.7305 20.4775 29.7305 21.0883V21.5145H24.685V20.6452H28.7077C28.7077 20.2758 28.6339 19.9463 28.4862 19.6565C28.3413 19.3667 28.1339 19.1381 27.864 18.9704C27.5969 18.8028 27.2816 18.719 26.918 18.719C26.5174 18.719 26.1708 18.8184 25.8782 19.0173C25.5884 19.2133 25.3654 19.469 25.2092 19.7844C25.0529 20.0997 24.9748 20.4378 24.9748 20.7986V21.3781C24.9748 21.8724 25.06 22.2915 25.2305 22.6352C25.4038 22.9761 25.6438 23.2361 25.9506 23.415C26.2575 23.5912 26.614 23.6792 27.0202 23.6792C27.2844 23.6792 27.5231 23.6423 27.7362 23.5684C27.9521 23.4917 28.1381 23.3781 28.2944 23.2275C28.4506 23.0741 28.5714 22.8838 28.6566 22.6565L29.6282 22.9292C29.5259 23.2588 29.354 23.5486 29.1126 23.7986C28.8711 24.0457 28.5728 24.2389 28.2177 24.3781C27.8626 24.5145 27.4634 24.5827 27.0202 24.5827ZM33.7319 24.5827C33.1864 24.5827 32.7049 24.4449 32.2873 24.1693C31.8697 23.8909 31.543 23.4988 31.3072 22.9932C31.0714 22.4846 30.9535 21.8838 30.9535 21.1906C30.9535 20.5031 31.0714 19.9065 31.3072 19.4008C31.543 18.8952 31.8711 18.5045 32.2915 18.229C32.712 17.9534 33.1978 17.8156 33.7489 17.8156C34.1751 17.8156 34.5117 17.8866 34.7589 18.0287C35.0089 18.1679 35.1992 18.327 35.3299 18.5059C35.4634 18.6821 35.5671 18.827 35.641 18.9406H35.7262V15.719H36.7319V24.4463H35.7603V23.4406H35.641C35.5671 23.5599 35.462 23.7105 35.3256 23.8923C35.1893 24.0713 34.9947 24.2318 34.7418 24.3738C34.489 24.5131 34.1523 24.5827 33.7319 24.5827ZM33.8683 23.6792C34.2717 23.6792 34.6126 23.5741 34.891 23.3639C35.1694 23.1508 35.381 22.8568 35.5259 22.4818C35.6708 22.104 35.7433 21.6679 35.7433 21.1736C35.7433 20.6849 35.6722 20.2574 35.5302 19.8909C35.3881 19.5216 35.1779 19.2346 34.8995 19.0301C34.6211 18.8227 34.2773 18.719 33.8683 18.719C33.4421 18.719 33.087 18.8284 32.8029 19.0471C32.5217 19.2631 32.31 19.5571 32.168 19.9292C32.0288 20.2986 31.9592 20.7133 31.9592 21.1736C31.9592 21.6395 32.0302 22.0628 32.1722 22.4434C32.3171 22.8213 32.5302 23.1224 32.8114 23.3469C33.0955 23.5684 33.4478 23.6792 33.8683 23.6792ZM42.2248 24.4463V15.719H47.4918V16.6565H43.2816V19.6054H47.2191V20.5429H43.2816V23.5088H47.56V24.4463H42.2248ZM50.0103 17.9008L51.5785 20.577L53.1467 17.9008H54.3058L52.1921 21.1736L54.3058 24.4463H53.1467L51.5785 21.9065L50.0103 24.4463H48.8512L50.9308 21.1736L48.8512 17.9008H50.0103ZM55.7408 26.9008V17.9008H56.7124V18.9406H56.8317C56.9055 18.827 57.0078 18.6821 57.1385 18.5059C57.272 18.327 57.4624 18.1679 57.7095 18.0287C57.9595 17.8866 58.2976 17.8156 58.7237 17.8156C59.2749 17.8156 59.7607 17.9534 60.1811 18.229C60.6016 18.5045 60.9297 18.8952 61.1655 19.4008C61.4013 19.9065 61.5192 20.5031 61.5192 21.1906C61.5192 21.8838 61.4013 22.4846 61.1655 22.9932C60.9297 23.4988 60.603 23.8909 60.1854 24.1693C59.7678 24.4449 59.2862 24.5827 58.7408 24.5827C58.3203 24.5827 57.9837 24.5131 57.7308 24.3738C57.478 24.2318 57.2834 24.0713 57.147 23.8923C57.0107 23.7105 56.9055 23.5599 56.8317 23.4406H56.7464V26.9008H55.7408ZM56.7294 21.1736C56.7294 21.6679 56.8018 22.104 56.9467 22.4818C57.0916 22.8568 57.3033 23.1508 57.5817 23.3639C57.8601 23.5741 58.201 23.6792 58.6044 23.6792C59.0249 23.6792 59.3757 23.5684 59.657 23.3469C59.9411 23.1224 60.1541 22.8213 60.2962 22.4434C60.4411 22.0628 60.5135 21.6395 60.5135 21.1736C60.5135 20.7133 60.4425 20.2986 60.3004 19.9292C60.1612 19.5571 59.9496 19.2631 59.6655 19.0471C59.3842 18.8284 59.0305 18.719 58.6044 18.719C58.1953 18.719 57.8516 18.8227 57.5732 19.0301C57.2947 19.2346 57.0845 19.5216 56.9425 19.8909C56.8004 20.2574 56.7294 20.6849 56.7294 21.1736ZM65.7976 24.5827C65.1669 24.5827 64.6229 24.4434 64.1655 24.165C63.7109 23.8838 63.3601 23.4917 63.1129 22.9889C62.8686 22.4832 62.7464 21.8952 62.7464 21.2247C62.7464 20.5542 62.8686 19.9633 63.1129 19.452C63.3601 18.9378 63.7038 18.5372 64.1442 18.2503C64.5874 17.9605 65.1044 17.8156 65.6953 17.8156C66.0362 17.8156 66.3729 17.8724 66.7053 17.9861C67.0376 18.0997 67.3402 18.2844 67.6129 18.54C67.8857 18.7929 68.103 19.1281 68.2649 19.5457C68.4268 19.9633 68.5078 20.4775 68.5078 21.0883V21.5145H63.4624V20.6452H67.4851C67.4851 20.2758 67.4112 19.9463 67.2635 19.6565C67.1186 19.3667 66.9112 19.1381 66.6413 18.9704C66.3743 18.8028 66.0589 18.719 65.6953 18.719C65.2947 18.719 64.9482 18.8184 64.6555 19.0173C64.3658 19.2133 64.1428 19.469 63.9865 19.7844C63.8303 20.0997 63.7521 20.4378 63.7521 20.7986V21.3781C63.7521 21.8724 63.8374 22.2915 64.0078 22.6352C64.1811 22.9761 64.4212 23.2361 64.728 23.415C65.0348 23.5912 65.3913 23.6792 65.7976 23.6792C66.0618 23.6792 66.3004 23.6423 66.5135 23.5684C66.7294 23.4917 66.9155 23.3781 67.0717 23.2275C67.228 23.0741 67.3487 22.8838 67.4339 22.6565L68.4055 22.9292C68.3033 23.2588 68.1314 23.5486 67.8899 23.7986C67.6484 24.0457 67.3501 24.2389 66.995 24.3781C66.6399 24.5145 66.2408 24.5827 65.7976 24.5827ZM71.0433 20.5088V24.4463H70.0376V17.9008H71.0092V18.9236H71.0945C71.2479 18.5912 71.4808 18.3241 71.7933 18.1224C72.1058 17.9179 72.5092 17.8156 73.0036 17.8156C73.4467 17.8156 73.8345 17.9065 74.1669 18.0883C74.4993 18.2673 74.7578 18.54 74.9425 18.9065C75.1271 19.2702 75.2195 19.7304 75.2195 20.2872V24.4463H74.2138V20.3554C74.2138 19.8412 74.0803 19.4406 73.8132 19.1537C73.5462 18.8639 73.1797 18.719 72.7138 18.719C72.3928 18.719 72.1058 18.7886 71.853 18.9278C71.603 19.067 71.4055 19.2702 71.2607 19.5372C71.1158 19.8042 71.0433 20.1281 71.0433 20.5088ZM81.6935 19.3667L80.7901 19.6224C80.7333 19.4719 80.6495 19.3256 80.5387 19.1835C80.4308 19.0386 80.283 18.9193 80.0955 18.8256C79.908 18.7318 79.668 18.6849 79.3754 18.6849C78.9748 18.6849 78.641 18.7773 78.3739 18.9619C78.1097 19.1437 77.9776 19.3753 77.9776 19.6565C77.9776 19.9065 78.0685 20.104 78.2504 20.2488C78.4322 20.3937 78.7163 20.5145 79.1026 20.6111L80.0742 20.8497C80.6594 20.9917 81.0955 21.2091 81.3825 21.5017C81.6694 21.7915 81.8129 22.165 81.8129 22.6224C81.8129 22.9974 81.7049 23.3327 81.489 23.6281C81.2759 23.9236 80.9776 24.1565 80.5941 24.327C80.2106 24.4974 79.7646 24.5827 79.256 24.5827C78.5884 24.5827 78.0359 24.4378 77.5984 24.148C77.1609 23.8582 76.8839 23.4349 76.7674 22.8781L77.7219 22.6395C77.8129 22.9917 77.9847 23.2559 78.2376 23.4321C78.4933 23.6082 78.8271 23.6963 79.239 23.6963C79.7077 23.6963 80.0799 23.5969 80.3555 23.398C80.6339 23.1963 80.7731 22.9548 80.7731 22.6736C80.7731 22.4463 80.6935 22.2559 80.5344 22.1025C80.3754 21.9463 80.131 21.8298 79.8015 21.7531L78.7106 21.4974C78.1112 21.3554 77.6708 21.1352 77.3896 20.8369C77.1112 20.5358 76.9719 20.1594 76.9719 19.7077C76.9719 19.3383 77.0756 19.0116 77.283 18.7275C77.4933 18.4434 77.7788 18.2204 78.1396 18.0585C78.5032 17.8966 78.9151 17.8156 79.3754 17.8156C80.0231 17.8156 80.5316 17.9577 80.9009 18.2417C81.2731 18.5258 81.5373 18.9008 81.6935 19.3667ZM86.071 24.5827C85.4403 24.5827 84.8963 24.4434 84.4389 24.165C83.9844 23.8838 83.6335 23.4917 83.3864 22.9889C83.142 22.4832 83.0199 21.8952 83.0199 21.2247C83.0199 20.5542 83.142 19.9633 83.3864 19.452C83.6335 18.9378 83.9773 18.5372 84.4176 18.2503C84.8608 17.9605 85.3778 17.8156 85.9688 17.8156C86.3097 17.8156 86.6463 17.8724 86.9787 17.9861C87.3111 18.0997 87.6136 18.2844 87.8864 18.54C88.1591 18.7929 88.3764 19.1281 88.5384 19.5457C88.7003 19.9633 88.7812 20.4775 88.7812 21.0883V21.5145H83.7358V20.6452H87.7585C87.7585 20.2758 87.6847 19.9463 87.5369 19.6565C87.392 19.3667 87.1847 19.1381 86.9148 18.9704C86.6477 18.8028 86.3324 18.719 85.9688 18.719C85.5682 18.719 85.2216 18.8184 84.929 19.0173C84.6392 19.2133 84.4162 19.469 84.2599 19.7844C84.1037 20.0997 84.0256 20.4378 84.0256 20.7986V21.3781C84.0256 21.8724 84.1108 22.2915 84.2812 22.6352C84.4545 22.9761 84.6946 23.2361 85.0014 23.415C85.3082 23.5912 85.6648 23.6792 86.071 23.6792C86.3352 23.6792 86.5739 23.6423 86.7869 23.5684C87.0028 23.4917 87.1889 23.3781 87.3452 23.2275C87.5014 23.0741 87.6222 22.8838 87.7074 22.6565L88.679 22.9292C88.5767 23.2588 88.4048 23.5486 88.1634 23.7986C87.9219 24.0457 87.6236 24.2389 87.2685 24.3781C86.9134 24.5145 86.5142 24.5827 86.071 24.5827ZM94.9474 19.3667L94.044 19.6224C93.9872 19.4719 93.9034 19.3256 93.7926 19.1835C93.6847 19.0386 93.5369 18.9193 93.3494 18.8256C93.1619 18.7318 92.9219 18.6849 92.6293 18.6849C92.2287 18.6849 91.8949 18.7773 91.6278 18.9619C91.3636 19.1437 91.2315 19.3753 91.2315 19.6565C91.2315 19.9065 91.3224 20.104 91.5043 20.2488C91.6861 20.3937 91.9702 20.5145 92.3565 20.6111L93.3281 20.8497C93.9134 20.9917 94.3494 21.2091 94.6364 21.5017C94.9233 21.7915 95.0668 22.165 95.0668 22.6224C95.0668 22.9974 94.9588 23.3327 94.7429 23.6281C94.5298 23.9236 94.2315 24.1565 93.848 24.327C93.4645 24.4974 93.0185 24.5827 92.5099 24.5827C91.8423 24.5827 91.2898 24.4378 90.8523 24.148C90.4148 23.8582 90.1378 23.4349 90.0213 22.8781L90.9759 22.6395C91.0668 22.9917 91.2386 23.2559 91.4915 23.4321C91.7472 23.6082 92.081 23.6963 92.4929 23.6963C92.9616 23.6963 93.3338 23.5969 93.6094 23.398C93.8878 23.1963 94.027 22.9548 94.027 22.6736C94.027 22.4463 93.9474 22.2559 93.7884 22.1025C93.6293 21.9463 93.3849 21.8298 93.0554 21.7531L91.9645 21.4974C91.3651 21.3554 90.9247 21.1352 90.6435 20.8369C90.3651 20.5358 90.2259 20.1594 90.2259 19.7077C90.2259 19.3383 90.3295 19.0116 90.5369 18.7275C90.7472 18.4434 91.0327 18.2204 91.3935 18.0585C91.7571 17.8966 92.169 17.8156 92.6293 17.8156C93.277 17.8156 93.7855 17.9577 94.1548 18.2417C94.527 18.5258 94.7912 18.9008 94.9474 19.3667Z" fill="black"/>
</svg>
