<svg width="32" height="32" viewBox="0 0 32 32" fill="none" xmlns="http://www.w3.org/2000/svg">
<path d="M23.3931 24.1952H20.9455C20.9455 24.0985 20.9455 24.0241 20.9455 23.9497C20.9455 23.2355 20.9455 22.5213 20.9455 21.8071C20.9455 21.1524 20.4991 20.6986 19.8519 20.6986C17.0844 20.6986 14.3168 20.6986 11.5494 20.6986C10.9021 20.6986 10.4558 21.1524 10.4558 21.8071C10.4558 22.5957 10.4558 23.3843 10.4558 24.1803H8.02307C8.02307 24.1208 8.01562 24.0538 8.01562 23.9943C8.01562 23.2578 8.01562 22.5213 8.01562 21.7848C8.02306 19.3744 9.77885 17.4476 12.1818 17.217C12.3157 17.2021 12.3753 17.2393 12.4348 17.3583C12.8142 18.1395 13.2009 18.9132 13.5952 19.6869C13.7663 20.0291 13.9301 20.0812 14.2574 19.8803C14.674 19.6274 15.098 19.3819 15.5072 19.1215C15.656 19.0322 15.7602 19.0173 15.9164 19.1215C16.3405 19.3967 16.7719 19.6422 17.2034 19.9026C17.4936 20.0737 17.6647 20.0216 17.8209 19.7166C18.2152 18.9355 18.6094 18.1544 18.9888 17.3732C19.0483 17.2467 19.1154 17.2095 19.2567 17.2244C21.4365 17.4476 23.0732 19.0248 23.3707 21.1897C23.3707 21.2343 23.3931 21.2715 23.408 21.3161V24.2026L23.3931 24.1952Z" fill="#0671B8"/>
<path d="M11.1476 26.9999C11.1476 25.3037 11.1476 23.6075 11.1476 21.9038C11.1476 21.4872 11.2444 21.398 11.661 21.398C12.1744 21.398 12.695 21.398 13.2456 21.398C13.2456 21.4872 13.2456 21.5616 13.2456 21.636C13.2456 22.3428 13.2381 23.0496 13.253 23.7563C13.253 23.8902 13.3274 24.0539 13.4167 24.158C13.5952 24.3738 13.811 24.5672 14.0118 24.7606C14.2053 24.9392 14.3764 24.9466 14.5698 24.7606C14.7037 24.6267 14.8228 24.4853 14.9939 24.2919C15.1501 24.4705 15.2617 24.6118 15.3957 24.7457C15.5965 24.954 15.7749 24.9466 15.9832 24.7457C16.1097 24.6192 16.2288 24.4779 16.3999 24.2845C16.5487 24.463 16.6677 24.6118 16.7942 24.7383C16.9951 24.9466 17.1662 24.9391 17.3819 24.7383C17.3819 24.7383 17.3894 24.7309 17.3968 24.7234C17.8878 24.2473 18.1333 23.667 18.1333 22.9826C18.1333 22.4618 18.1333 21.9336 18.1333 21.3905C18.7434 21.3905 19.3385 21.3831 19.9336 21.3905C20.1345 21.3905 20.2313 21.5542 20.2313 21.7997C20.2313 22.5065 20.2313 23.2132 20.2313 23.9199C20.2313 24.9391 20.2313 25.9583 20.2313 26.9775H11.1401L11.1476 26.9999Z" fill="#0671B8"/>
<path d="M20.938 26.9998V24.9019H23.3857V26.9998H20.938Z" fill="#0671B8"/>
<path d="M8.2239 27C8.04535 26.8736 7.99324 26.7099 8.00068 26.4942C8.01556 25.9734 8.00068 25.4526 8.00068 24.917H10.4483V27H8.21645H8.2239Z" fill="#0671B8"/>
<path d="M19.5393 9.88185C16.9801 8.8924 14.4211 8.8924 11.8693 9.88185C11.7205 8.37164 12.1668 7.15901 13.4687 6.40019C13.9225 6.13237 14.421 6.00588 14.9492 6.00588C15.589 6.00588 16.2363 5.97612 16.8686 6.05051C18.3267 6.22162 19.4797 7.51609 19.5393 8.98166C19.5541 9.27923 19.5393 9.57684 19.5393 9.88929V9.88185Z" fill="#0671B8"/>
<path d="M12.5612 12.9175C12.9183 12.9472 13.2605 12.9919 13.5952 12.9919C14.912 12.9993 16.2289 12.9993 17.5531 12.9919C17.9771 12.9919 18.4012 12.9472 18.8401 12.9249C18.9294 14.145 18.5424 15.2163 17.4637 15.9379C16.3776 16.6744 15.2246 16.6967 14.0864 16.042C13.0002 15.4171 12.4348 14.2045 12.5612 12.9175Z" fill="#0671B8"/>
<path d="M15.6858 12.2921C14.9344 12.2921 14.1831 12.2773 13.4391 12.2921C12.8811 12.307 12.4869 12.0764 12.1968 11.63C12.0852 11.4515 11.9884 11.2655 11.9065 11.0721C11.8024 10.8191 11.8619 10.6332 12.1223 10.5513C12.7398 10.3505 13.3647 10.1198 14.0045 10.0008C15.7677 9.67344 17.4936 9.82969 19.1674 10.4918C19.5766 10.6555 19.6362 10.8043 19.4502 11.1911C19.3461 11.4069 19.2196 11.6152 19.0708 11.8012C18.8179 12.1285 18.4756 12.2921 18.0441 12.2847C17.2555 12.2772 16.4744 12.2847 15.6858 12.2847V12.2921Z" fill="#0671B8"/>
<path d="M14.3316 24.0388C14.0191 23.8528 13.9299 23.6222 13.9447 23.3023C13.9745 22.6774 13.9522 22.0525 13.9522 21.4053H17.4489C17.4489 21.5913 17.4489 21.7772 17.4489 21.9632C17.4489 22.4096 17.4265 22.8559 17.4489 23.2949C17.4712 23.6148 17.3745 23.8454 17.0769 24.0165C16.9579 23.8975 16.8239 23.771 16.69 23.6371C16.4743 23.4288 16.3031 23.4288 16.0874 23.6371C15.9609 23.7636 15.8344 23.8975 15.6931 24.0463C15.5443 23.8975 15.4252 23.7636 15.2988 23.6371C15.083 23.4214 14.9119 23.4214 14.6961 23.6371C14.5697 23.7636 14.4506 23.8975 14.3241 24.024L14.3316 24.0388Z" fill="#0671B8"/>
<path d="M15.098 18.5491C14.7558 18.7574 14.436 18.9434 14.0938 19.1517C13.7664 18.5045 13.4539 17.8647 13.1266 17.2174C13.3349 17.1653 13.4911 17.2026 13.6548 17.3365C14.116 17.7456 14.5995 18.1325 15.098 18.5417V18.5491Z" fill="#0671B8"/>
<path d="M17.3001 19.1513C16.9653 18.9505 16.6455 18.757 16.2958 18.5487C16.4223 18.4446 16.5264 18.3553 16.638 18.266C16.9951 17.9685 17.3596 17.6783 17.7018 17.3658C17.8655 17.2245 18.0217 17.1575 18.2598 17.217C17.9399 17.8568 17.6274 18.4892 17.3001 19.1513Z" fill="#0671B8"/>
<path d="M17.0845 16.979C16.6307 17.3584 16.1693 17.7453 15.7007 18.1396C15.232 17.7527 14.7706 17.3659 14.3094 16.979C15.2393 17.2766 16.1545 17.284 17.0845 16.979Z" fill="#0671B8"/>
<path d="M20.1047 11.4888C20.4023 12.0393 20.1568 12.8725 19.5319 13.3263C19.6063 12.88 19.3905 12.4485 19.7476 12.0691C19.8964 11.9128 19.9857 11.6896 20.1122 11.4888H20.1047Z" fill="#0671B8"/>
<path d="M11.8469 13.2967C11.2592 12.9917 10.9542 11.9278 11.2741 11.5112C11.4601 11.7791 11.6535 12.0394 11.8246 12.3221C11.8692 12.3965 11.8469 12.523 11.8469 12.6197C11.8469 12.8429 11.8469 13.066 11.8469 13.2967Z" fill="#0671B8"/>
<path d="M23.2617 26C25.4709 26 27.2616 24.2092 27.2616 22C27.2616 19.7909 25.4709 18 23.2617 18C21.0526 18 19.2617 19.7909 19.2617 22C19.2617 24.2092 21.0526 26 23.2617 26Z" fill="#FFB422" stroke="white" stroke-width="0.518733" stroke-miterlimit="10"/>
<path d="M23.7242 24.4669C23.7242 24.3372 23.7242 24.2219 23.7242 24.0994C23.7242 24.049 23.7387 24.0274 23.7891 24.013C23.8684 23.9914 23.9475 23.9553 24.0268 23.9193C24.6103 23.6167 24.7833 22.9323 24.4158 22.4207C24.1853 22.1037 23.861 21.9597 23.4792 21.9453C23.3063 21.9453 23.1479 21.9021 23.011 21.7868C22.8236 21.6283 22.7876 21.3689 22.9461 21.1888C23.119 20.9798 23.3568 20.9294 23.609 20.987C23.854 21.0375 24.0124 21.1816 24.0484 21.4481H24.6104C24.6104 21.3977 24.6104 21.3473 24.596 21.304C24.5095 20.8646 24.2357 20.598 23.825 20.4611C23.7458 20.4323 23.7242 20.3963 23.7242 20.3242C23.7242 20.2161 23.7242 20.1081 23.7242 20H23.155C23.155 20.1081 23.1478 20.2089 23.155 20.3098C23.1622 20.4035 23.1335 20.4539 23.0398 20.4683C22.9894 20.4755 22.939 20.5044 22.8885 20.526C22.2834 20.8142 22.0816 21.5202 22.4634 22.0389C22.694 22.3559 23.0182 22.5 23.4 22.5144C23.5658 22.5144 23.717 22.5504 23.8466 22.6513C24.0988 22.8458 24.0988 23.1701 23.8466 23.3646C23.472 23.6528 22.9749 23.4798 22.8236 23.0187H22.2617C22.2761 23.0908 22.2761 23.1629 22.2905 23.2205C22.3986 23.6384 22.6724 23.8833 23.0759 24.013C23.1335 24.0346 23.155 24.0562 23.155 24.1139C23.155 24.2291 23.155 24.3444 23.155 24.4669H23.7242Z" fill="white"/>
</svg>
