<svg width="32" height="32" viewBox="0 0 32 32" fill="none" xmlns="http://www.w3.org/2000/svg">
<path d="M19.9414 26.9998V24.8989H22.3925V26.9998H19.9414Z" fill="#0671B8"/>
<path d="M7.21954 26.9998C7.04447 26.8758 6.99337 26.708 7.00067 26.4965C7.01526 25.9713 7.00067 25.4534 7.00067 24.9136H9.45175V26.9998H7.21954Z" fill="#0671B8"/>
<path d="M22.3925 24.1983H19.9414C19.9414 24.1035 19.9414 24.0306 19.9414 23.9503C19.9414 23.2355 19.9414 22.5206 19.9414 21.8057C19.9414 21.1492 19.4965 20.6969 18.8472 20.6969C16.0826 20.6969 13.3107 20.6969 10.546 20.6969C9.89681 20.6969 9.45183 21.1492 9.45183 21.8057C9.45183 22.5935 9.45183 23.3814 9.45183 24.1838H7.01536C7.01536 24.1181 7.00806 24.0598 7.00806 23.9941C7.00806 23.2573 7.00806 22.5206 7.00806 21.7838C7.01535 19.3693 8.77333 17.4508 11.1733 17.2174C11.3046 17.2028 11.3703 17.2393 11.4213 17.356C11.8007 18.1365 12.1946 18.9097 12.5813 19.6829C12.7563 20.0258 12.9167 20.0769 13.2377 19.8799C13.6535 19.6319 14.0766 19.3839 14.4924 19.1213C14.6383 19.0265 14.7477 19.0119 14.9009 19.1213C15.324 19.3912 15.7617 19.6465 16.1921 19.9018C16.4839 20.0769 16.6515 20.0258 16.8047 19.7122C17.1986 18.9316 17.5926 18.1511 17.9719 17.3706C18.0303 17.2466 18.1033 17.2101 18.2419 17.2247C20.423 17.4508 22.0569 19.0264 22.356 21.1929C22.356 21.2367 22.3779 21.2732 22.3925 21.317V24.2056V24.1983Z" fill="#0671B8"/>
<path d="M10.1521 26.9997C10.1521 25.3001 10.1521 23.6077 10.1521 21.9081C10.1521 21.4923 10.2469 21.3975 10.67 21.3975C11.1879 21.3975 11.7058 21.3975 12.2529 21.3975C12.2529 21.485 12.2529 21.558 12.2529 21.6382C12.2529 22.3458 12.2456 23.0533 12.2602 23.7609C12.2602 23.8995 12.3331 24.0527 12.4279 24.1621C12.6103 24.381 12.8219 24.5706 13.0261 24.7676C13.2158 24.9499 13.3909 24.9499 13.5805 24.7676C13.7191 24.6363 13.8359 24.4904 14.0037 24.3007C14.1569 24.4758 14.2736 24.6217 14.4049 24.753C14.6092 24.9572 14.7841 24.9572 14.9884 24.753C15.1197 24.629 15.2364 24.4831 15.4042 24.2934C15.5574 24.4685 15.6741 24.6144 15.8054 24.753C16.0097 24.9572 16.1775 24.9572 16.3891 24.753C16.3891 24.753 16.3964 24.7457 16.4037 24.7384C16.8948 24.2618 17.1404 23.6807 17.1404 22.995C17.1404 22.4698 17.1404 21.9519 17.1404 21.4048C17.7532 21.4048 18.344 21.3975 18.9422 21.4048C19.1391 21.4048 19.2412 21.5652 19.2412 21.8133C19.2412 22.5208 19.2412 23.2284 19.2412 23.936C19.2412 24.9572 19.2412 25.9785 19.2412 26.9997H10.1521Z" fill="#0671B8"/>
<path d="M18.541 9.8865C15.9805 8.90172 13.4274 8.90172 10.8743 9.8865C10.7211 8.37651 11.166 7.16562 12.4718 6.39968C12.924 6.13708 13.4274 5.99845 13.9526 6.00575C14.5945 6.00575 15.2366 5.97661 15.8712 6.04956C17.3301 6.21733 18.4826 7.51575 18.541 8.98197C18.5556 9.28105 18.541 9.58012 18.541 9.8865Z" fill="#0671B8"/>
<path d="M11.5598 12.9209C11.9173 12.9501 12.2529 12.9938 12.5958 12.9938C13.9161 13.0011 15.2291 13.0011 16.5494 12.9938C16.9725 12.9938 17.3956 12.9501 17.8406 12.9282C17.9281 14.1464 17.5414 15.2187 16.4691 15.9409C15.3822 16.6776 14.2297 16.6995 13.0918 16.043C12.0049 15.4229 11.4358 14.2047 11.5671 12.9136L11.5598 12.9209Z" fill="#0671B8"/>
<path d="M14.6822 12.301C13.9308 12.301 13.1794 12.2864 12.4353 12.301C11.881 12.3156 11.4798 12.0822 11.188 11.6372C11.0713 11.4621 10.9765 11.2724 10.8963 11.0755C10.7869 10.8202 10.8525 10.6378 11.1152 10.5503C11.7352 10.346 12.3551 10.1199 12.997 10.0032C14.7623 9.67493 16.4912 9.8354 18.1617 10.4992C18.5702 10.6597 18.6358 10.8129 18.4461 11.1995C18.344 11.4111 18.2201 11.6226 18.067 11.8122C17.8117 12.1405 17.4687 12.301 17.0456 12.301C16.2578 12.2937 15.47 12.301 14.6895 12.301H14.6822Z" fill="#0671B8"/>
<path d="M13.3326 24.0455C13.0189 23.8631 12.9313 23.6297 12.9459 23.3087C12.9751 22.6814 12.9532 22.054 12.9532 21.4121H16.4472C16.4472 21.5945 16.4472 21.7841 16.4472 21.9738C16.4472 22.4187 16.4253 22.8637 16.4545 23.3087C16.4764 23.6297 16.3816 23.8558 16.0825 24.0309C15.9658 23.9141 15.8346 23.7828 15.696 23.6515C15.4772 23.44 15.3093 23.44 15.0905 23.6515C14.9592 23.7755 14.8352 23.9068 14.6966 24.06C14.5507 23.9141 14.4266 23.7828 14.3026 23.6515C14.0838 23.44 13.916 23.4327 13.7044 23.6515C13.5731 23.7755 13.4566 23.9142 13.3326 24.0382V24.0455Z" fill="#0671B8"/>
<path d="M14.0984 18.5527C13.7556 18.757 13.4347 18.9467 13.0918 19.1582C12.7636 18.509 12.4499 17.8743 12.1289 17.2251C12.3405 17.174 12.4936 17.2106 12.6541 17.3492C13.121 17.7576 13.5951 18.1442 14.0984 18.56V18.5527Z" fill="#0671B8"/>
<path d="M16.3014 19.1579C15.9658 18.9537 15.645 18.764 15.3021 18.5597C15.4261 18.4576 15.5355 18.3628 15.645 18.2752C16.0024 17.9762 16.3671 17.6844 16.7099 17.378C16.8704 17.2321 17.0309 17.1665 17.2643 17.2248C16.9507 17.8595 16.6297 18.4941 16.3014 19.1579Z" fill="#0671B8"/>
<path d="M16.0826 16.9844C15.623 17.3637 15.1708 17.7503 14.6966 18.1442C14.2298 17.7576 13.7703 17.371 13.3107 16.9844C14.2371 17.2835 15.1561 17.2835 16.0826 16.9844Z" fill="#0671B8"/>
<path d="M19.1099 11.4985C19.409 12.0529 19.161 12.8772 18.5336 13.3368C18.6066 12.8918 18.3878 12.4541 18.7452 12.0821C18.8984 11.9216 18.9859 11.7028 19.1099 11.4985Z" fill="#0671B8"/>
<path d="M10.8524 13.3003C10.2688 12.994 9.96238 11.929 10.2761 11.5132C10.4584 11.7831 10.6554 12.0457 10.8231 12.3229C10.8669 12.3958 10.8451 12.5198 10.8451 12.6219C10.8451 12.8408 10.8451 13.0669 10.8451 13.3003H10.8524Z" fill="#0671B8"/>
<path d="M21.4546 26C23.6638 26 25.4546 24.2091 25.4546 22C25.4546 19.7908 23.6638 18 21.4546 18C19.2455 18 17.4547 19.7908 17.4547 22C17.4547 24.2091 19.2455 26 21.4546 26Z" fill="#FFB422" stroke="white" stroke-width="0.74" stroke-miterlimit="10"/>
<path d="M21.489 24.7045C21.4043 24.6904 21.3408 24.6338 21.2843 24.5773C20.7969 24.0828 20.3094 23.5813 19.8291 23.0868C19.7726 23.0303 19.7513 22.9667 19.7867 22.8961C19.822 22.8255 19.8785 22.8043 19.9633 22.8043C20.1116 22.8043 20.267 22.8043 20.4224 22.8043V22.4864C20.938 22.5076 21.3477 22.3239 21.6515 21.9424C21.9553 21.561 22.0259 21.1301 21.8564 20.6709C21.8776 20.6709 21.8918 20.6709 21.9059 20.6709C22.0825 20.6709 22.252 20.6709 22.4286 20.6709C22.5628 20.6709 22.6264 20.7345 22.6264 20.8546C22.6264 21.4833 22.6264 22.112 22.6264 22.7407C22.6264 22.7619 22.6264 22.783 22.6264 22.8113C22.7324 22.8113 22.8383 22.8113 22.9372 22.8113C22.9937 22.8113 23.0502 22.8113 23.1067 22.8113C23.1774 22.8113 23.2268 22.8466 23.2551 22.9031C23.2833 22.9667 23.2764 23.0232 23.227 23.0797C23.0645 23.2422 22.9019 23.4117 22.7465 23.5742C22.4145 23.9133 22.0754 24.2594 21.7434 24.5985C21.6869 24.655 21.6304 24.6903 21.5527 24.7115H21.489V24.7045Z" fill="white"/>
<path d="M20.5638 22.2181C21.1763 22.2181 21.6727 21.7216 21.6727 21.1091C21.6727 20.4965 21.1763 20 20.5638 20C19.9512 20 19.4547 20.4965 19.4547 21.1091C19.4547 21.7216 19.9512 22.2181 20.5638 22.2181Z" fill="white"/>
<path d="M20.6343 21.6954C20.6343 21.6954 20.6343 21.6318 20.6343 21.5964C20.6343 21.5823 20.6343 21.5752 20.6484 21.5752C20.6696 21.5752 20.6909 21.5611 20.7121 21.547C20.8675 21.4693 20.9098 21.2856 20.8109 21.1514C20.7473 21.0666 20.6627 21.0313 20.5638 21.0243C20.5214 21.0243 20.4789 21.0101 20.4436 20.9819C20.3941 20.9395 20.387 20.8688 20.4294 20.8264C20.4789 20.7699 20.5354 20.7558 20.606 20.77C20.6696 20.7841 20.7121 20.8194 20.7191 20.89H20.8675C20.8675 20.89 20.8675 20.8618 20.8675 20.8547C20.8463 20.7417 20.7756 20.6711 20.6626 20.6357C20.6414 20.6357 20.6343 20.6216 20.6343 20.6004C20.6343 20.5722 20.6343 20.5439 20.6343 20.5156H20.486C20.486 20.5156 20.486 20.5722 20.486 20.5934C20.486 20.6216 20.4859 20.6287 20.4577 20.6357C20.4436 20.6357 20.4294 20.6428 20.4153 20.6498C20.2599 20.7275 20.2034 20.9112 20.3023 21.0454C20.3659 21.1302 20.4507 21.1656 20.5496 21.1726C20.592 21.1726 20.6343 21.1797 20.6696 21.2079C20.7332 21.2574 20.7332 21.3421 20.6696 21.3986C20.5708 21.4763 20.4366 21.4269 20.4013 21.3068H20.2528C20.2528 21.3068 20.2528 21.3421 20.2599 21.3633C20.2881 21.4693 20.3588 21.54 20.4648 21.5682C20.4789 21.5682 20.486 21.5823 20.486 21.5964C20.486 21.6247 20.486 21.66 20.486 21.6883H20.6343V21.6954Z" fill="#FFB422"/>
</svg>
