<svg width="32" height="32" viewBox="0 0 32 32" fill="none" xmlns="http://www.w3.org/2000/svg">
<path d="M24.9158 18.7354C24.5887 19.4821 24.2616 20.2287 23.9345 20.9753C23.835 21.21 23.6927 21.3877 23.4296 21.4304C22.9461 21.5086 22.5764 21.0678 22.747 20.6056C22.8466 20.3283 22.9745 20.058 23.1096 19.7452C21.7159 20.2927 20.3578 20.8189 18.9783 21.3593C18.9783 20.9185 18.9783 20.506 18.9854 20.0936C18.9854 20.0438 19.0849 19.9869 19.156 19.9585C20.2582 19.5247 21.3604 19.0909 22.4626 18.6643C22.5124 18.643 22.5621 18.6216 22.6617 18.5861C22.3844 18.4652 22.1426 18.3514 21.9008 18.2448C21.6875 18.1523 21.531 18.0101 21.4884 17.7754C21.4457 17.5479 21.5026 17.3417 21.6804 17.1853C21.8724 17.0217 22.0928 16.9791 22.3275 17.0786C22.7399 17.2564 23.1523 17.4413 23.5647 17.619C23.8278 17.7328 24.0838 17.8537 24.354 17.9603C24.6171 18.0599 24.8305 18.2163 24.93 18.4936V18.7426L24.9158 18.7354Z" fill="#FFB422"/>
<path d="M21.7656 26.9626C21.4954 26.8488 21.2963 26.6852 21.275 26.3724C21.2608 26.1093 21.403 25.8817 21.6732 25.7679C21.9363 25.6541 22.2065 25.5546 22.5052 25.4408C22.4127 25.3982 22.3558 25.3697 22.2918 25.3413C21.2536 24.8862 20.2226 24.4311 19.1844 23.9831C19.0137 23.912 18.9569 23.8196 18.964 23.6347C18.9782 23.2791 18.964 22.9165 18.964 22.5254C20.315 23.1227 21.6376 23.6987 23.0029 24.296C22.9105 24.0543 22.8322 23.8551 22.7611 23.656C22.7185 23.5423 22.6687 23.4285 22.6545 23.3076C22.6118 23.0018 22.7825 22.7316 23.0669 22.6321C23.3584 22.5325 23.6642 22.6605 23.8064 22.9449C23.8704 23.0801 23.9202 23.2223 23.9771 23.3574C24.2117 23.9547 24.4464 24.552 24.6739 25.1493C24.8517 25.6044 24.7166 25.9101 24.2615 26.095C23.5504 26.3724 22.8394 26.6497 22.1283 26.927C22.0998 26.9412 22.0714 26.9554 22.0429 26.9768H21.7585L21.7656 26.9626Z" fill="#FFB422"/>
<path d="M13.631 21.9429C13.631 21.111 13.631 20.279 13.631 19.447C13.631 19.3475 13.5954 19.2337 13.5385 19.1483C13.1474 18.5368 12.7421 17.9395 12.3581 17.3351C12.287 17.2284 12.2444 17.0862 12.2444 16.9583C12.2373 15.7636 12.2444 14.569 12.2444 13.3744C12.2444 12.3789 12.7777 11.682 13.7305 11.3976C13.8443 11.362 13.951 11.3265 14.0647 11.298C14.3421 11.2198 14.3918 11.2411 14.4914 11.5114C14.7972 12.3433 15.0958 13.1753 15.4016 14.0073C15.5082 14.2988 15.622 14.5974 15.7216 14.889C15.7642 15.017 15.8353 15.1592 15.9847 15.1237C16.0771 15.1023 16.1909 14.9885 16.2264 14.889C16.646 13.7726 17.0513 12.6491 17.4566 11.5327C17.5704 11.2269 17.6059 11.2056 17.9259 11.3052C18.3455 11.4331 18.765 11.554 19.0921 11.8669C19.4547 12.2082 19.6894 12.6278 19.6965 13.1255C19.7178 14.4339 19.7107 15.7423 19.7036 17.0507C19.7036 17.1431 19.6467 17.2427 19.597 17.328C19.2059 17.9324 18.8006 18.5369 18.4166 19.1413C18.3597 19.2337 18.3241 19.3546 18.3241 19.4612C18.3241 21.1038 18.3241 22.7464 18.3241 24.3961C18.3241 24.7232 18.2886 24.7588 17.9615 24.7588C16.6389 24.7588 15.3163 24.7588 13.9936 24.7588C13.7092 24.7588 13.6665 24.709 13.6665 24.4246C13.6665 23.5997 13.6665 22.7749 13.6665 21.95L13.631 21.9429Z" fill="#0671B8"/>
<path d="M13.7731 8.17606C13.7873 6.96011 14.7828 5.98593 15.9917 6.00015C17.1792 6.01438 18.1533 7.01702 18.1391 8.20453C18.1249 9.41337 17.1365 10.3875 15.9419 10.3804C14.7402 10.3733 13.7589 9.37067 13.7731 8.17606Z" fill="#0671B8"/>
<path d="M8.7956 23.9902C10.2035 23.4427 11.5546 22.9165 12.9341 22.3761C12.9341 22.8099 12.9341 23.2081 12.927 23.6134C12.927 23.6703 12.8345 23.7485 12.7634 23.7769C11.6897 24.2036 10.6088 24.6231 9.5351 25.0427C9.45689 25.0711 9.37868 25.1066 9.25779 25.1564C9.54934 25.2844 9.81243 25.3982 10.0684 25.5191C10.4524 25.704 10.5662 26.1306 10.3244 26.4577C10.1609 26.6852 9.86931 26.7777 9.5991 26.6639C8.84535 26.3439 8.09872 26.0169 7.3592 25.6755C7.04632 25.5333 6.91834 25.1991 7.05344 24.8791C7.37343 24.1324 7.69341 23.393 8.02762 22.6534C8.17694 22.3263 8.52538 22.2055 8.83114 22.3406C9.15113 22.4757 9.28624 22.8241 9.15114 23.1583C9.04448 23.4214 8.92358 23.6774 8.78848 23.9902H8.7956Z" fill="#FFB422"/>
<path d="M12.9411 21.2173C11.5901 20.6271 10.2746 20.044 8.90221 19.4467C8.99465 19.6885 9.07287 19.8804 9.14398 20.0795C9.18664 20.2075 9.24353 20.3356 9.25775 20.4707C9.29331 20.7551 9.11552 21.0182 8.84531 21.1035C8.56799 21.1959 8.26935 21.0822 8.12002 20.8333C8.08447 20.7764 8.05602 20.7124 8.02758 20.6484C7.75736 19.9587 7.48717 19.2689 7.21696 18.572C7.05341 18.1383 7.1885 17.8254 7.62225 17.6548C8.33334 17.3774 9.04442 17.1001 9.7555 16.8228C10.0257 16.7162 10.2675 16.7588 10.4666 16.9721C10.6443 17.1641 10.7084 17.4059 10.5733 17.6334C10.4879 17.7827 10.3315 17.9107 10.1751 17.989C9.93329 18.1169 9.67017 18.1952 9.38574 18.3018C9.97594 18.5649 10.5377 18.8067 11.0994 19.0556C11.6612 19.3045 12.223 19.5534 12.7847 19.7951C12.8914 19.8449 12.934 19.9018 12.934 20.0227C12.9269 20.4067 12.934 20.7977 12.934 21.2173H12.9411Z" fill="#FFB422"/>
<path d="M15.9704 11.241C16.0699 11.241 16.1766 11.2339 16.2761 11.241C16.4823 11.2623 16.5748 11.4401 16.4894 11.6321C16.4894 11.6464 16.4823 11.6606 16.4681 11.6677C16.1339 11.9806 16.1553 12.3787 16.2619 12.7627C16.3828 13.2249 16.2264 13.6302 16.0557 14.0355C16.0344 14.0782 15.9846 14.1067 15.949 14.1422C15.9135 14.1067 15.8708 14.0711 15.8495 14.0285C15.6006 13.5663 15.5508 13.0756 15.6788 12.5707C15.7642 12.2365 15.6788 11.9663 15.4726 11.7032C15.3304 11.5255 15.366 11.3548 15.5295 11.2695C15.5793 11.241 15.6433 11.2339 15.7073 11.2339C15.7926 11.2339 15.885 11.2339 15.9704 11.2339V11.241Z" fill="#0671B8"/>
</svg>
