<svg width="101" height="25" viewBox="0 0 101 25" fill="none" xmlns="http://www.w3.org/2000/svg">
<path d="M2.88477 9.06055H0.191584V0.333274H3.00408C3.85067 0.333274 4.57511 0.50799 5.17738 0.857422C5.77965 1.20401 6.2413 1.70259 6.56232 2.35316C6.88335 3.00089 7.04386 3.77646 7.04386 4.67986C7.04386 5.58896 6.88193 6.37163 6.55806 7.02788C6.2342 7.68129 5.76261 8.18413 5.14329 8.5364C4.52397 8.88583 3.77113 9.06055 2.88477 9.06055ZM1.2484 8.12305H2.81658C3.53817 8.12305 4.13619 7.98384 4.61062 7.70543C5.08505 7.42702 5.43874 7.03072 5.6717 6.51651C5.90465 6.00231 6.02113 5.39009 6.02113 4.67986C6.02113 3.97532 5.90607 3.36879 5.67596 2.86026C5.44585 2.3489 5.1021 1.95685 4.64471 1.68413C4.18732 1.40856 3.61772 1.27077 2.9359 1.27077H1.2484V8.12305ZM8.68022 9.06055V2.51509H9.6859V9.06055H8.68022ZM9.19158 1.42418C8.99556 1.42418 8.82653 1.35742 8.68448 1.2239C8.54528 1.09038 8.47567 0.929865 8.47567 0.742365C8.47567 0.554865 8.54528 0.394354 8.68448 0.260831C8.82653 0.127308 8.99556 0.0605469 9.19158 0.0605469C9.38761 0.0605469 9.55522 0.127308 9.69442 0.260831C9.83647 0.394354 9.90749 0.554865 9.90749 0.742365C9.90749 0.929865 9.83647 1.09038 9.69442 1.2239C9.55522 1.35742 9.38761 1.42418 9.19158 1.42418ZM16.1642 3.981L15.2608 4.23668C15.204 4.08611 15.1202 3.93981 15.0094 3.79776C14.9015 3.65288 14.7537 3.53356 14.5662 3.43981C14.3787 3.34606 14.1387 3.29918 13.8461 3.29918C13.4455 3.29918 13.1117 3.39151 12.8446 3.57617C12.5804 3.75799 12.4483 3.98952 12.4483 4.27077C12.4483 4.52077 12.5392 4.71822 12.7211 4.8631C12.9029 5.00799 13.187 5.12873 13.5733 5.22532L14.5449 5.46396C15.1301 5.606 15.5662 5.82333 15.8532 6.11594C16.1401 6.40572 16.2836 6.7793 16.2836 7.23668C16.2836 7.61168 16.1756 7.94691 15.9597 8.24237C15.7466 8.53782 15.4483 8.77077 15.0648 8.94123C14.6813 9.11168 14.2353 9.19691 13.7267 9.19691C13.0591 9.19691 12.5066 9.05202 12.0691 8.76225C11.6316 8.47248 11.3546 8.04918 11.2381 7.49236L12.1926 7.25373C12.2836 7.606 12.4554 7.87021 12.7083 8.04634C12.964 8.22248 13.2978 8.31055 13.7097 8.31055C14.1784 8.31055 14.5506 8.21112 14.8262 8.01225C15.1046 7.81055 15.2438 7.56907 15.2438 7.28782C15.2438 7.06055 15.1642 6.87021 15.0051 6.7168C14.8461 6.56055 14.6017 6.44407 14.2722 6.36736L13.1813 6.11168C12.5819 5.96964 12.1415 5.74947 11.8603 5.45117C11.5819 5.15004 11.4426 4.77361 11.4426 4.32191C11.4426 3.95259 11.5463 3.62589 11.7537 3.3418C11.964 3.05771 12.2495 2.83469 12.6103 2.67276C12.9739 2.51083 13.3858 2.42987 13.8461 2.42987C14.4938 2.42987 15.0023 2.57191 15.3716 2.856C15.7438 3.14009 16.008 3.51509 16.1642 3.981ZM20.644 2.51509V3.36736H17.252V2.51509H20.644ZM18.2406 0.94691H19.2463V7.18555C19.2463 7.46964 19.2875 7.68271 19.3699 7.82475C19.4551 7.96396 19.563 8.05771 19.6937 8.106C19.8272 8.15146 19.9679 8.17418 20.1156 8.17418C20.2264 8.17418 20.3173 8.1685 20.3883 8.15714C20.4593 8.14293 20.5162 8.13157 20.5588 8.12305L20.7633 9.02646C20.6951 9.05202 20.6 9.07759 20.4778 9.10316C20.3556 9.13157 20.2008 9.14577 20.0133 9.14577C19.7292 9.14577 19.4508 9.08469 19.1781 8.96254C18.9082 8.84038 18.6838 8.6543 18.5048 8.4043C18.3287 8.1543 18.2406 7.83896 18.2406 7.45827V0.94691ZM22.1568 9.06055V2.51509H23.1284V3.50373H23.1966C23.3159 3.17987 23.5318 2.91708 23.8443 2.71538C24.1568 2.51367 24.5091 2.41282 24.9011 2.41282C24.975 2.41282 25.0673 2.41424 25.1781 2.41708C25.2889 2.41992 25.3727 2.42418 25.4295 2.42987V3.45259C25.3954 3.44407 25.3173 3.43129 25.1951 3.41424C25.0758 3.39435 24.9494 3.38441 24.8159 3.38441C24.4977 3.38441 24.2136 3.45117 23.9636 3.58469C23.7164 3.71538 23.5204 3.89719 23.3755 4.13015C23.2335 4.36026 23.1625 4.62305 23.1625 4.9185V9.06055H22.1568ZM26.6216 9.06055V2.51509H27.6273V9.06055H26.6216ZM27.133 1.42418C26.937 1.42418 26.7679 1.35742 26.6259 1.2239C26.4867 1.09038 26.4171 0.929865 26.4171 0.742365C26.4171 0.554865 26.4867 0.394354 26.6259 0.260831C26.7679 0.127308 26.937 0.0605469 27.133 0.0605469C27.329 0.0605469 27.4966 0.127308 27.6358 0.260831C27.7779 0.394354 27.8489 0.554865 27.8489 0.742365C27.8489 0.929865 27.7779 1.09038 27.6358 1.2239C27.4966 1.35742 27.329 1.42418 27.133 1.42418ZM29.6056 9.06055V0.333274H30.6113V3.55486H30.6966C30.7704 3.44123 30.8727 3.29634 31.0034 3.12021C31.1369 2.94123 31.3272 2.78214 31.5744 2.64293C31.8244 2.50089 32.1625 2.42987 32.5886 2.42987C33.1397 2.42987 33.6255 2.56765 34.046 2.84322C34.4664 3.11879 34.7946 3.50941 35.0304 4.01509C35.2662 4.52077 35.3841 5.11736 35.3841 5.80487C35.3841 6.49805 35.2662 7.0989 35.0304 7.60742C34.7946 8.1131 34.4679 8.50515 34.0502 8.78356C33.6326 9.05913 33.1511 9.19691 32.6056 9.19691C32.1852 9.19691 31.8485 9.12731 31.5957 8.9881C31.3429 8.84606 31.1483 8.68555 31.0119 8.50657C30.8755 8.32475 30.7704 8.17418 30.6966 8.05487H30.5772V9.06055H29.6056ZM30.5943 5.78782C30.5943 6.28214 30.6667 6.71822 30.8116 7.09606C30.9565 7.47106 31.1681 7.76509 31.4466 7.97816C31.725 8.18839 32.0659 8.2935 32.4693 8.2935C32.8897 8.2935 33.2406 8.18271 33.5218 7.96112C33.8059 7.73668 34.019 7.43555 34.161 7.05771C34.3059 6.67702 34.3784 6.25373 34.3784 5.78782C34.3784 5.32759 34.3074 4.91282 34.1653 4.5435C34.0261 4.17134 33.8145 3.87731 33.5304 3.6614C33.2491 3.44265 32.8954 3.33327 32.4693 3.33327C32.0602 3.33327 31.7164 3.43697 31.438 3.64435C31.1596 3.8489 30.9494 4.13583 30.8074 4.50515C30.6653 4.87163 30.5943 5.29918 30.5943 5.78782ZM41.0474 6.38441V2.51509H42.0531V9.06055H41.0474V7.95259H40.9792C40.8258 8.28498 40.5872 8.56765 40.2633 8.8006C39.9395 9.03072 39.5304 9.14577 39.036 9.14577C38.627 9.14577 38.2633 9.05629 37.9451 8.87731C37.627 8.69549 37.377 8.42276 37.1951 8.05913C37.0133 7.69265 36.9224 7.231 36.9224 6.67418V2.51509H37.9281V6.606C37.9281 7.08327 38.0616 7.46396 38.3287 7.74805C38.5985 8.03214 38.9423 8.17418 39.3599 8.17418C39.6099 8.17418 39.8642 8.11026 40.1227 7.98242C40.3841 7.85458 40.6028 7.65856 40.7789 7.39435C40.9579 7.13015 41.0474 6.7935 41.0474 6.38441ZM46.7417 2.51509V3.36736H43.3496V2.51509H46.7417ZM44.3382 0.94691H45.3439V7.18555C45.3439 7.46964 45.3851 7.68271 45.4675 7.82475C45.5527 7.96396 45.6607 8.05771 45.7914 8.106C45.9249 8.15146 46.0655 8.17418 46.2132 8.17418C46.324 8.17418 46.415 8.1685 46.486 8.15714C46.557 8.14293 46.6138 8.13157 46.6564 8.12305L46.861 9.02646C46.7928 9.05202 46.6976 9.07759 46.5755 9.10316C46.4533 9.13157 46.2985 9.14577 46.111 9.14577C45.8269 9.14577 45.5485 9.08469 45.2757 8.96254C45.0059 8.84038 44.7814 8.6543 44.6025 8.4043C44.4263 8.1543 44.3382 7.83896 44.3382 7.45827V0.94691ZM50.8432 9.19691C50.2523 9.19691 49.7338 9.05629 49.2878 8.77504C48.8446 8.49379 48.498 8.10032 48.248 7.59464C48.0009 7.08896 47.8773 6.49805 47.8773 5.82191C47.8773 5.14009 48.0009 4.54492 48.248 4.0364C48.498 3.52788 48.8446 3.13299 49.2878 2.85174C49.7338 2.57049 50.2523 2.42987 50.8432 2.42987C51.4341 2.42987 51.9512 2.57049 52.3944 2.85174C52.8404 3.13299 53.187 3.52788 53.4341 4.0364C53.6841 4.54492 53.8091 5.14009 53.8091 5.82191C53.8091 6.49805 53.6841 7.08896 53.4341 7.59464C53.187 8.10032 52.8404 8.49379 52.3944 8.77504C51.9512 9.05629 51.4341 9.19691 50.8432 9.19691ZM50.8432 8.2935C51.2921 8.2935 51.6614 8.17844 51.9512 7.94833C52.2409 7.71822 52.4554 7.41566 52.5946 7.04066C52.7338 6.66566 52.8034 6.25941 52.8034 5.82191C52.8034 5.38441 52.7338 4.97674 52.5946 4.5989C52.4554 4.22106 52.2409 3.91566 51.9512 3.68271C51.6614 3.44975 51.2921 3.33327 50.8432 3.33327C50.3944 3.33327 50.025 3.44975 49.7353 3.68271C49.4455 3.91566 49.231 4.22106 49.0918 4.5989C48.9526 4.97674 48.883 5.38441 48.883 5.82191C48.883 6.25941 48.9526 6.66566 49.0918 7.04066C49.231 7.41566 49.4455 7.71822 49.7353 7.94833C50.025 8.17844 50.3944 8.2935 50.8432 8.2935ZM55.3443 9.06055V2.51509H56.3159V3.50373H56.3841C56.5034 3.17987 56.7193 2.91708 57.0318 2.71538C57.3443 2.51367 57.6966 2.41282 58.0886 2.41282C58.1625 2.41282 58.2548 2.41424 58.3656 2.41708C58.4764 2.41992 58.5602 2.42418 58.617 2.42987V3.45259C58.5829 3.44407 58.5048 3.43129 58.3826 3.41424C58.2633 3.39435 58.1369 3.38441 58.0034 3.38441C57.6852 3.38441 57.4011 3.45117 57.1511 3.58469C56.9039 3.71538 56.7079 3.89719 56.563 4.13015C56.421 4.36026 56.35 4.62305 56.35 4.9185V9.06055H55.3443ZM64.4455 3.981L63.5421 4.23668C63.4853 4.08611 63.4015 3.93981 63.2907 3.79776C63.1827 3.65288 63.035 3.53356 62.8475 3.43981C62.66 3.34606 62.4199 3.29918 62.1273 3.29918C61.7267 3.29918 61.3929 3.39151 61.1259 3.57617C60.8617 3.75799 60.7296 3.98952 60.7296 4.27077C60.7296 4.52077 60.8205 4.71822 61.0023 4.8631C61.1841 5.00799 61.4682 5.12873 61.8546 5.22532L62.8262 5.46396C63.4114 5.606 63.8475 5.82333 64.1344 6.11594C64.4213 6.40572 64.5648 6.7793 64.5648 7.23668C64.5648 7.61168 64.4569 7.94691 64.2409 8.24237C64.0279 8.53782 63.7296 8.77077 63.3461 8.94123C62.9625 9.11168 62.5165 9.19691 62.008 9.19691C61.3404 9.19691 60.7878 9.05202 60.3503 8.76225C59.9128 8.47248 59.6358 8.04918 59.5194 7.49236L60.4739 7.25373C60.5648 7.606 60.7367 7.87021 60.9895 8.04634C61.2452 8.22248 61.579 8.31055 61.9909 8.31055C62.4597 8.31055 62.8319 8.21112 63.1074 8.01225C63.3858 7.81055 63.525 7.56907 63.525 7.28782C63.525 7.06055 63.4455 6.87021 63.2864 6.7168C63.1273 6.56055 62.883 6.44407 62.5534 6.36736L61.4625 6.11168C60.8631 5.96964 60.4228 5.74947 60.1415 5.45117C59.8631 5.15004 59.7239 4.77361 59.7239 4.32191C59.7239 3.95259 59.8276 3.62589 60.035 3.3418C60.2452 3.05771 60.5307 2.83469 60.8915 2.67276C61.2551 2.51083 61.6671 2.42987 62.1273 2.42987C62.775 2.42987 63.2836 2.57191 63.6529 2.856C64.025 3.14009 64.2892 3.51509 64.4455 3.981ZM74.3627 2.51509C74.3116 2.08327 74.1042 1.74805 73.7406 1.50941C73.377 1.27077 72.9309 1.15146 72.4025 1.15146C72.0162 1.15146 71.6781 1.21396 71.3883 1.33896C71.1014 1.46396 70.877 1.63583 70.715 1.85458C70.5559 2.07333 70.4764 2.32191 70.4764 2.60032C70.4764 2.83327 70.5318 3.03356 70.6426 3.20117C70.7562 3.36594 70.9011 3.50373 71.0772 3.61452C71.2534 3.72248 71.438 3.81197 71.6312 3.88299C71.8244 3.95117 72.002 4.00657 72.1639 4.04918L73.0502 4.28782C73.2775 4.34748 73.5304 4.42986 73.8088 4.53498C74.09 4.64009 74.3585 4.78356 74.6142 4.96538C74.8727 5.14435 75.0858 5.37447 75.2534 5.65572C75.421 5.93697 75.5048 6.28214 75.5048 6.69123C75.5048 7.16282 75.3812 7.58896 75.1341 7.96964C74.8897 8.35032 74.5318 8.65288 74.0602 8.87731C73.5914 9.10174 73.0218 9.21396 72.3514 9.21396C71.7264 9.21396 71.1852 9.1131 70.7278 8.9114C70.2733 8.70969 69.9153 8.42844 69.6539 8.06765C69.3954 7.70685 69.2491 7.28782 69.215 6.81055H70.3059C70.3343 7.14009 70.4451 7.41282 70.6383 7.62873C70.8343 7.8418 71.0815 8.00089 71.3798 8.106C71.6809 8.20827 72.0048 8.25941 72.3514 8.25941C72.7548 8.25941 73.117 8.19407 73.438 8.06339C73.7591 7.92987 74.0133 7.74521 74.2008 7.50941C74.3883 7.27077 74.4821 6.99237 74.4821 6.67418C74.4821 6.38441 74.4011 6.14862 74.2392 5.9668C74.0772 5.78498 73.8642 5.63725 73.6 5.52362C73.3358 5.40998 73.0502 5.31055 72.7434 5.22532L71.6696 4.9185C70.9877 4.72248 70.448 4.44265 70.0502 4.07901C69.6525 3.71538 69.4537 3.23952 69.4537 2.65146C69.4537 2.16282 69.5858 1.73668 69.85 1.37305C70.117 1.00657 70.475 0.722478 70.9238 0.520774C71.3755 0.316228 71.8798 0.213956 72.4366 0.213956C72.9991 0.213956 73.4991 0.314808 73.9366 0.516512C74.3741 0.715376 74.7207 0.988103 74.9764 1.33469C75.2349 1.68129 75.3713 2.07475 75.3855 2.51509H74.3627ZM79.9526 2.51509V3.36736H76.5605V2.51509H79.9526ZM77.5492 0.94691H78.5549V7.18555C78.5549 7.46964 78.5961 7.68271 78.6784 7.82475C78.7637 7.96396 78.8716 8.05771 79.0023 8.106C79.1358 8.15146 79.2765 8.17418 79.4242 8.17418C79.535 8.17418 79.6259 8.1685 79.6969 8.15714C79.7679 8.14293 79.8248 8.13157 79.8674 8.12305L80.0719 9.02646C80.0037 9.05202 79.9086 9.07759 79.7864 9.10316C79.6642 9.13157 79.5094 9.14577 79.3219 9.14577C79.0378 9.14577 78.7594 9.08469 78.4867 8.96254C78.2168 8.84038 77.9924 8.6543 77.8134 8.4043C77.6373 8.1543 77.5492 7.83896 77.5492 7.45827V0.94691ZM84.0542 9.19691C83.4632 9.19691 82.9448 9.05629 82.4988 8.77504C82.0556 8.49379 81.709 8.10032 81.459 7.59464C81.2118 7.08896 81.0882 6.49805 81.0882 5.82191C81.0882 5.14009 81.2118 4.54492 81.459 4.0364C81.709 3.52788 82.0556 3.13299 82.4988 2.85174C82.9448 2.57049 83.4632 2.42987 84.0542 2.42987C84.6451 2.42987 85.1621 2.57049 85.6053 2.85174C86.0513 3.13299 86.3979 3.52788 86.6451 4.0364C86.8951 4.54492 87.0201 5.14009 87.0201 5.82191C87.0201 6.49805 86.8951 7.08896 86.6451 7.59464C86.3979 8.10032 86.0513 8.49379 85.6053 8.77504C85.1621 9.05629 84.6451 9.19691 84.0542 9.19691ZM84.0542 8.2935C84.503 8.2935 84.8723 8.17844 85.1621 7.94833C85.4519 7.71822 85.6664 7.41566 85.8056 7.04066C85.9448 6.66566 86.0144 6.25941 86.0144 5.82191C86.0144 5.38441 85.9448 4.97674 85.8056 4.5989C85.6664 4.22106 85.4519 3.91566 85.1621 3.68271C84.8723 3.44975 84.503 3.33327 84.0542 3.33327C83.6053 3.33327 83.236 3.44975 82.9462 3.68271C82.6564 3.91566 82.4419 4.22106 82.3027 4.5989C82.1635 4.97674 82.0939 5.38441 82.0939 5.82191C82.0939 6.25941 82.1635 6.66566 82.3027 7.04066C82.4419 7.41566 82.6564 7.71822 82.9462 7.94833C83.236 8.17844 83.6053 8.2935 84.0542 8.2935ZM91.2143 9.19691C90.6007 9.19691 90.0723 9.05202 89.6291 8.76225C89.1859 8.47248 88.845 8.07333 88.6064 7.56481C88.3677 7.05629 88.2484 6.47532 88.2484 5.82191C88.2484 5.15714 88.3706 4.57049 88.6149 4.06197C88.862 3.5506 89.2058 3.15146 89.6461 2.86452C90.0893 2.57475 90.6064 2.42987 91.1973 2.42987C91.6575 2.42987 92.0723 2.51509 92.4416 2.68555C92.8109 2.856 93.1135 3.09464 93.3493 3.40146C93.585 3.70827 93.7314 4.06623 93.7882 4.47532H92.7825C92.7058 4.17702 92.5353 3.91282 92.2711 3.68271C92.0098 3.44975 91.6575 3.33327 91.2143 3.33327C90.8223 3.33327 90.4785 3.43555 90.1831 3.64009C89.8904 3.8418 89.6618 4.12731 89.497 4.49663C89.335 4.8631 89.2541 5.2935 89.2541 5.78782C89.2541 6.2935 89.3336 6.73384 89.4927 7.10884C89.6547 7.48384 89.8819 7.77504 90.1745 7.98242C90.47 8.18981 90.8166 8.2935 91.2143 8.2935C91.4757 8.2935 91.7129 8.24805 91.926 8.15714C92.139 8.06623 92.3194 7.93555 92.4672 7.76509C92.6149 7.59464 92.72 7.39009 92.7825 7.15146H93.7882C93.7314 7.53782 93.5907 7.88583 93.3663 8.19549C93.1447 8.50231 92.8507 8.74663 92.4842 8.92844C92.1206 9.10742 91.6973 9.19691 91.2143 9.19691ZM96.1958 6.67418L96.1788 5.42987H96.3833L99.247 2.51509H100.491L97.4402 5.60032H97.3549L96.1958 6.67418ZM95.2583 9.06055V0.333274H96.264V9.06055H95.2583ZM99.4174 9.06055L96.8606 5.82191L97.5765 5.12305L100.696 9.06055H99.4174ZM27.06 16.2708V15.3333H33.6055V16.2708H30.8612V24.0605H29.8043V16.2708H27.06ZM34.4205 24.0605V17.5151H35.392V18.5037H35.4602C35.5795 18.1799 35.7955 17.9171 36.108 17.7154C36.4205 17.5137 36.7727 17.4128 37.1648 17.4128C37.2386 17.4128 37.331 17.4142 37.4418 17.4171C37.5526 17.4199 37.6364 17.4242 37.6932 17.4299V18.4526C37.6591 18.4441 37.581 18.4313 37.4588 18.4142C37.3395 18.3944 37.2131 18.3844 37.0795 18.3844C36.7614 18.3844 36.4773 18.4512 36.2273 18.5847C35.9801 18.7154 35.7841 18.8972 35.6392 19.1301C35.4972 19.3603 35.4261 19.623 35.4261 19.9185V24.0605H34.4205ZM40.8114 24.214C40.3967 24.214 40.0202 24.1358 39.6822 23.9796C39.3441 23.8205 39.0756 23.5918 38.8768 23.2935C38.6779 22.9924 38.5785 22.6287 38.5785 22.2026C38.5785 21.8276 38.6523 21.5236 38.8001 21.2907C38.9478 21.0549 39.1452 20.8702 39.3924 20.7367C39.6396 20.6032 39.9123 20.5037 40.2106 20.4384C40.5117 20.3702 40.8143 20.3162 41.1183 20.2765C41.516 20.2253 41.8384 20.187 42.0856 20.1614C42.3356 20.133 42.5174 20.0861 42.631 20.0208C42.7475 19.9554 42.8058 19.8418 42.8058 19.6799V19.6458C42.8058 19.2253 42.6907 18.8986 42.4606 18.6657C42.2333 18.4327 41.8881 18.3162 41.4251 18.3162C40.945 18.3162 40.5685 18.4213 40.2958 18.6316C40.0231 18.8418 39.8313 19.0662 39.7205 19.3049L38.766 18.964C38.9364 18.5662 39.1637 18.2566 39.4478 18.035C39.7347 17.8105 40.0472 17.6543 40.3853 17.5662C40.7262 17.4753 41.0614 17.4299 41.391 17.4299C41.6012 17.4299 41.8427 17.4554 42.1154 17.5066C42.391 17.5549 42.6566 17.6557 42.9123 17.8091C43.1708 17.9625 43.3853 18.1941 43.5558 18.5037C43.7262 18.8134 43.8114 19.2282 43.8114 19.748V24.0605H42.8058V23.1742H42.7546C42.6864 23.3162 42.5728 23.4682 42.4137 23.6301C42.2546 23.7921 42.043 23.9299 41.7788 24.0435C41.5146 24.1571 41.1921 24.214 40.8114 24.214ZM40.9648 23.3105C41.3626 23.3105 41.6978 23.2324 41.9705 23.0762C42.2461 22.9199 42.4535 22.7182 42.5927 22.4711C42.7347 22.2239 42.8058 21.964 42.8058 21.6912V20.7708C42.7631 20.8219 42.6694 20.8688 42.5245 20.9114C42.3825 20.9512 42.2177 20.9867 42.0302 21.0179C41.8455 21.0463 41.6651 21.0719 41.489 21.0946C41.3157 21.1145 41.1751 21.1316 41.0671 21.1458C40.8058 21.1799 40.5614 21.2353 40.3342 21.312C40.1097 21.3858 39.9279 21.498 39.7887 21.6486C39.6523 21.7963 39.5842 21.998 39.5842 22.2537C39.5842 22.6032 39.7134 22.8674 39.9719 23.0463C40.2333 23.2225 40.5643 23.3105 40.9648 23.3105ZM46.6527 20.123V24.0605H45.647V17.5151H46.6186V18.5378H46.7038C46.8572 18.2054 47.0902 17.9384 47.4027 17.7367C47.7152 17.5321 48.1186 17.4299 48.6129 17.4299C49.0561 17.4299 49.4439 17.5208 49.7763 17.7026C50.1087 17.8816 50.3672 18.1543 50.5518 18.5208C50.7365 18.8844 50.8288 19.3446 50.8288 19.9015V24.0605H49.8232V19.9696C49.8232 19.4554 49.6896 19.0549 49.4226 18.7679C49.1555 18.4782 48.7891 18.3333 48.3232 18.3333C48.0021 18.3333 47.7152 18.4029 47.4624 18.5421C47.2124 18.6813 47.0149 18.8844 46.87 19.1515C46.7251 19.4185 46.6527 19.7424 46.6527 20.123ZM57.3029 18.981L56.3995 19.2367C56.3427 19.0861 56.2589 18.9398 56.1481 18.7978C56.0401 18.6529 55.8924 18.5336 55.7049 18.4398C55.5174 18.3461 55.2773 18.2992 54.9847 18.2992C54.5842 18.2992 54.2504 18.3915 53.9833 18.5762C53.7191 18.758 53.587 18.9895 53.587 19.2708C53.587 19.5208 53.6779 19.7182 53.8597 19.8631C54.0415 20.008 54.3256 20.1287 54.712 20.2253L55.6836 20.464C56.2688 20.606 56.7049 20.8233 56.9918 21.1159C57.2788 21.4057 57.4222 21.7793 57.4222 22.2367C57.4222 22.6117 57.3143 22.9469 57.0984 23.2424C56.8853 23.5378 56.587 23.7708 56.2035 23.9412C55.82 24.1117 55.3739 24.1969 54.8654 24.1969C54.1978 24.1969 53.6452 24.052 53.2077 23.7623C52.7702 23.4725 52.4933 23.0492 52.3768 22.4924L53.3313 22.2537C53.4222 22.606 53.5941 22.8702 53.8469 23.0463C54.1026 23.2225 54.4364 23.3105 54.8484 23.3105C55.3171 23.3105 55.6893 23.2111 55.9648 23.0123C56.2433 22.8105 56.3825 22.5691 56.3825 22.2878C56.3825 22.0605 56.3029 21.8702 56.1438 21.7168C55.9847 21.5605 55.7404 21.4441 55.4109 21.3674L54.32 21.1117C53.7205 20.9696 53.2802 20.7495 52.9989 20.4512C52.7205 20.15 52.5813 19.7736 52.5813 19.3219C52.5813 18.9526 52.685 18.6259 52.8924 18.3418C53.1026 18.0577 53.3881 17.8347 53.7489 17.6728C54.1126 17.5108 54.5245 17.4299 54.9847 17.4299C55.6325 17.4299 56.141 17.5719 56.5103 17.856C56.8825 18.1401 57.1467 18.5151 57.3029 18.981ZM61.8509 17.5151V18.3674H58.3224V17.5151H61.8509ZM59.3793 24.0605V16.6117C59.3793 16.2367 59.4673 15.9242 59.6435 15.6742C59.8196 15.4242 60.0483 15.2367 60.3295 15.1117C60.6108 14.9867 60.9077 14.9242 61.2202 14.9242C61.4673 14.9242 61.669 14.9441 61.8253 14.9838C61.9815 15.0236 62.098 15.0605 62.1747 15.0946L61.8849 15.964C61.8338 15.9469 61.7628 15.9256 61.6719 15.9C61.5838 15.8745 61.4673 15.8617 61.3224 15.8617C60.9901 15.8617 60.75 15.9455 60.6023 16.1131C60.4574 16.2807 60.3849 16.5265 60.3849 16.8503V24.0605H59.3793ZM65.7351 24.1969C65.1044 24.1969 64.5604 24.0577 64.103 23.7793C63.6484 23.498 63.2976 23.106 63.0504 22.6032C62.8061 22.0975 62.6839 21.5094 62.6839 20.839C62.6839 20.1685 62.8061 19.5776 63.0504 19.0662C63.2976 18.552 63.6413 18.1515 64.0817 17.8645C64.5249 17.5748 65.0419 17.4299 65.6328 17.4299C65.9737 17.4299 66.3104 17.4867 66.6428 17.6003C66.9751 17.714 67.2777 17.8986 67.5504 18.1543C67.8232 18.4071 68.0405 18.7424 68.2024 19.16C68.3643 19.5776 68.4453 20.0918 68.4453 20.7026V21.1287H63.3999V20.2594H67.4226C67.4226 19.8901 67.3487 19.5605 67.201 19.2708C67.0561 18.981 66.8487 18.7523 66.5788 18.5847C66.3118 18.4171 65.9964 18.3333 65.6328 18.3333C65.2322 18.3333 64.8857 18.4327 64.593 18.6316C64.3033 18.8276 64.0803 19.0833 63.924 19.3986C63.7678 19.714 63.6896 20.052 63.6896 20.4128V20.9924C63.6896 21.4867 63.7749 21.9057 63.9453 22.2495C64.1186 22.5904 64.3587 22.8503 64.6655 23.0293C64.9723 23.2054 65.3288 23.2935 65.7351 23.2935C65.9993 23.2935 66.2379 23.2566 66.451 23.1827C66.6669 23.106 66.853 22.9924 67.0092 22.8418C67.1655 22.6884 67.2862 22.498 67.3714 22.2708L68.343 22.5435C68.2408 22.873 68.0689 23.1628 67.8274 23.4128C67.5859 23.66 67.2876 23.8532 66.9325 23.9924C66.5774 24.1287 66.1783 24.1969 65.7351 24.1969ZM69.9751 24.0605V17.5151H70.9467V18.5037H71.0149C71.1342 18.1799 71.3501 17.9171 71.6626 17.7154C71.9751 17.5137 72.3274 17.4128 72.7195 17.4128C72.7933 17.4128 72.8857 17.4142 72.9964 17.4171C73.1072 17.4199 73.1911 17.4242 73.2479 17.4299V18.4526C73.2138 18.4441 73.1357 18.4313 73.0135 18.4142C72.8942 18.3944 72.7678 18.3844 72.6342 18.3844C72.3161 18.3844 72.032 18.4512 71.782 18.5847C71.5348 18.7154 71.3388 18.8972 71.1939 19.1301C71.0518 19.3603 70.9808 19.623 70.9808 19.9185V24.0605H69.9751Z" fill="black"/>
</svg>
