<svg width="32" height="32" viewBox="0 0 32 32" fill="none" xmlns="http://www.w3.org/2000/svg">
<path d="M4.46227 6.01718H8.1514C8.46025 6.16302 8.61457 6.41184 8.6832 6.73786C8.73468 6.97808 8.81187 7.21826 8.88051 7.4499C9.00062 7.87028 9.12067 8.29069 9.24936 8.71108H9.54113C15.0662 8.71108 20.5913 8.71108 26.1163 8.71108C26.5281 8.71108 26.8284 8.83115 27 9.20863V9.569C26.9743 9.64621 26.9313 9.71486 26.9141 9.79207C26.0476 12.812 25.1897 15.8319 24.3232 18.8518C24.1773 19.3665 23.9886 19.5037 23.4567 19.5037C19.7247 19.5037 15.9927 19.5037 12.2607 19.5037C12.1663 19.5037 12.0635 19.5037 11.9691 19.5037C11.9262 19.5037 11.8575 19.5295 11.8403 19.5552C11.7545 19.7268 11.6516 19.907 11.6172 20.0872C11.54 20.5247 11.8747 20.8421 12.3723 20.8421C15.6753 20.8421 18.987 20.8421 22.29 20.8421C22.7361 20.8421 23.1735 20.8421 23.6196 20.8421C23.9199 20.8421 24.1429 20.988 24.2545 21.2539C24.4518 21.7001 24.1172 22.1805 23.611 22.1891C22.8389 22.1891 22.0668 22.1891 21.2517 22.1891C22.4614 22.5837 23.0965 23.4502 22.942 24.4626C22.7876 25.4835 21.9811 26.2128 20.9859 26.2385C20.0079 26.2557 19.1413 25.5693 18.9525 24.6342C18.841 24.0765 18.9355 23.5618 19.2529 23.0899C19.5703 22.6181 20.0165 22.3349 20.5656 22.1976H14.4742C15.6667 22.5923 16.293 23.4502 16.1471 24.4626C15.9927 25.4921 15.1776 26.2299 14.1738 26.2385C13.1872 26.2557 12.3294 25.5522 12.1578 24.5913C11.9605 23.4846 12.5181 22.6523 13.8222 22.1891C13.2731 22.1891 12.7669 22.1891 12.2607 22.1891C11.3255 22.1805 10.5448 21.5542 10.3218 20.6448C10.1673 20.0357 10.3219 19.4866 10.6307 18.9633C10.7079 18.826 10.7337 18.6973 10.6822 18.5429C9.78141 15.4029 8.88047 12.2543 7.98823 9.11427C7.81665 8.53089 7.65377 7.93892 7.48219 7.34695C7.38782 7.34695 7.31058 7.34695 7.24194 7.34695C6.3926 7.34695 5.55186 7.34695 4.70252 7.34695C4.35077 7.34695 4.09335 7.13247 4.01613 6.81504C3.9475 6.51477 4.10189 6.21449 4.40216 6.06006C4.43648 6.0429 4.4623 6.02574 4.48804 6L4.46227 6.01718Z" fill="#0671B8"/>
<path d="M17.4597 17.7191C19.573 17.7191 21.2861 16.006 21.2861 13.8928C21.2861 11.7795 19.573 10.0664 17.4597 10.0664C15.3465 10.0664 13.6334 11.7795 13.6334 13.8928C13.6334 16.006 15.3465 17.7191 17.4597 17.7191Z" fill="white"/>
<path d="M17.3483 10.8726C17.4255 10.8726 17.4942 10.8726 17.5714 10.8726C17.7086 10.8897 17.8545 10.8983 17.9918 10.924C18.6781 11.0441 19.2701 11.3702 19.7248 11.8935C20.3682 12.6227 20.6169 13.4807 20.4539 14.4416C20.3252 15.188 19.9649 15.8142 19.3643 16.2861C18.4549 16.9981 17.4426 17.1698 16.3702 16.758C15.3149 16.3547 14.6886 15.5655 14.4656 14.4501C14.4399 14.3129 14.4312 14.167 14.4141 14.0298C14.4141 13.9611 14.4141 13.8925 14.4141 13.8238C14.4141 13.7981 14.4227 13.781 14.4227 13.7552C14.4398 13.4292 14.4999 13.1118 14.6285 12.8115C15.0832 11.7477 15.8811 11.1128 17.0222 10.9155C17.1251 10.8983 17.2282 10.8897 17.3397 10.8811L17.3483 10.8726Z" fill="#FFB422"/>
<path d="M17.0738 14.2104C16.928 14.0474 16.8079 13.9015 16.6792 13.7814C16.499 13.6098 16.293 13.6184 16.1386 13.7642C15.9842 13.9187 15.9756 14.1332 16.1386 14.3047C16.3617 14.545 16.5933 14.7681 16.825 14.9911C16.988 15.1456 17.1854 15.1456 17.3484 14.9911C17.9146 14.4335 18.4808 13.8758 19.0299 13.301C19.1843 13.138 19.1672 12.9235 19.0127 12.7777C18.8583 12.6318 18.6609 12.6232 18.4893 12.7777C18.3949 12.8549 18.3179 12.9492 18.2321 13.035C17.8546 13.4125 17.4856 13.7986 17.0738 14.2104Z" fill="white"/>
</svg>
