<svg width="113" height="25" viewBox="0 0 113 25" fill="none" xmlns="http://www.w3.org/2000/svg">
<path d="M3.07422 9.10889H0.381037V0.381614H3.19354C4.04013 0.381614 4.76456 0.55633 5.36683 0.905762C5.96911 1.25235 6.43075 1.75093 6.75178 2.4015C7.0728 3.04923 7.23331 3.8248 7.23331 4.7282C7.23331 5.6373 7.07138 6.41997 6.74751 7.07622C6.42365 7.72963 5.95206 8.23247 5.33274 8.58474C4.71342 8.93417 3.96058 9.10889 3.07422 9.10889ZM1.43786 8.17139H3.00604C3.72763 8.17139 4.32564 8.03218 4.80007 7.75377C5.2745 7.47536 5.6282 7.07906 5.86115 6.56485C6.09411 6.05065 6.21058 5.43843 6.21058 4.7282C6.21058 4.02366 6.09553 3.41713 5.86541 2.9086C5.6353 2.39724 5.29155 2.00519 4.83416 1.73247C4.37678 1.4569 3.80717 1.31911 3.12536 1.31911H1.43786V8.17139ZM8.86967 9.10889V2.56343H9.87536V9.10889H8.86967ZM9.38104 1.47252C9.18501 1.47252 9.01598 1.40576 8.87393 1.27224C8.73473 1.13872 8.66513 0.978205 8.66513 0.790705C8.66513 0.603205 8.73473 0.442693 8.87393 0.30917C9.01598 0.175648 9.18501 0.108887 9.38104 0.108887C9.57706 0.108887 9.74467 0.175648 9.88388 0.30917C10.0259 0.442693 10.0969 0.603205 10.0969 0.790705C10.0969 0.978205 10.0259 1.13872 9.88388 1.27224C9.74467 1.40576 9.57706 1.47252 9.38104 1.47252ZM16.3537 4.02934L15.4503 4.28502C15.3935 4.13445 15.3097 3.98815 15.1989 3.8461C15.0909 3.70122 14.9432 3.5819 14.7557 3.48815C14.5682 3.3944 14.3281 3.34752 14.0355 3.34752C13.6349 3.34752 13.3011 3.43985 13.0341 3.62451C12.7699 3.80633 12.6378 4.03786 12.6378 4.31911C12.6378 4.56911 12.7287 4.76656 12.9105 4.91144C13.0923 5.05633 13.3764 5.17707 13.7628 5.27366L14.7344 5.5123C15.3196 5.65434 15.7557 5.87167 16.0426 6.16428C16.3295 6.45406 16.473 6.82764 16.473 7.28502C16.473 7.66002 16.3651 7.99525 16.1491 8.2907C15.9361 8.58616 15.6378 8.81911 15.2543 8.98957C14.8707 9.16002 14.4247 9.24525 13.9162 9.24525C13.2486 9.24525 12.696 9.10036 12.2585 8.81059C11.821 8.52082 11.544 8.09752 11.4276 7.5407L12.3821 7.30207C12.473 7.65434 12.6449 7.91855 12.8977 8.09468C13.1534 8.27082 13.4872 8.35889 13.8991 8.35889C14.3679 8.35889 14.7401 8.25945 15.0156 8.06059C15.294 7.85889 15.4332 7.61741 15.4332 7.33616C15.4332 7.10889 15.3537 6.91855 15.1946 6.76514C15.0355 6.60889 14.7912 6.49241 14.4616 6.4157L13.3707 6.16002C12.7713 6.01798 12.331 5.79781 12.0497 5.49951C11.7713 5.19838 11.6321 4.82195 11.6321 4.37025C11.6321 4.00093 11.7358 3.67423 11.9432 3.39014C12.1534 3.10605 12.4389 2.88303 12.7997 2.7211C13.1634 2.55917 13.5753 2.4782 14.0355 2.4782C14.6832 2.4782 15.1918 2.62025 15.5611 2.90434C15.9332 3.18843 16.1974 3.56343 16.3537 4.02934ZM20.8335 2.56343V3.4157H17.4414V2.56343H20.8335ZM18.43 0.99525H19.4357V7.23389C19.4357 7.51798 19.4769 7.73105 19.5593 7.87309C19.6445 8.0123 19.7525 8.10605 19.8832 8.15434C20.0167 8.1998 20.1573 8.22252 20.305 8.22252C20.4158 8.22252 20.5067 8.21684 20.5778 8.20548C20.6488 8.19127 20.7056 8.17991 20.7482 8.17139L20.9528 9.0748C20.8846 9.10036 20.7894 9.12593 20.6673 9.1515C20.5451 9.17991 20.3903 9.19411 20.2028 9.19411C19.9187 9.19411 19.6403 9.13303 19.3675 9.01088C19.0977 8.88872 18.8732 8.70264 18.6942 8.45264C18.5181 8.20264 18.43 7.8873 18.43 7.50661V0.99525ZM22.3462 9.10889V2.56343H23.3178V3.55207H23.386C23.5053 3.2282 23.7212 2.96542 24.0337 2.76372C24.3462 2.56201 24.6985 2.46116 25.0906 2.46116C25.1644 2.46116 25.2567 2.46258 25.3675 2.46542C25.4783 2.46826 25.5621 2.47252 25.619 2.4782V3.50093C25.5849 3.49241 25.5067 3.47963 25.3846 3.46258C25.2653 3.44269 25.1388 3.43275 25.0053 3.43275C24.6871 3.43275 24.4031 3.49951 24.1531 3.63303C23.9059 3.76372 23.7099 3.94553 23.565 4.17849C23.4229 4.4086 23.3519 4.67139 23.3519 4.96684V9.10889H22.3462ZM26.8111 9.10889V2.56343H27.8168V9.10889H26.8111ZM27.3224 1.47252C27.1264 1.47252 26.9574 1.40576 26.8153 1.27224C26.6761 1.13872 26.6065 0.978205 26.6065 0.790705C26.6065 0.603205 26.6761 0.442693 26.8153 0.30917C26.9574 0.175648 27.1264 0.108887 27.3224 0.108887C27.5185 0.108887 27.6861 0.175648 27.8253 0.30917C27.9673 0.442693 28.0384 0.603205 28.0384 0.790705C28.0384 0.978205 27.9673 1.13872 27.8253 1.27224C27.6861 1.40576 27.5185 1.47252 27.3224 1.47252ZM29.7951 9.10889V0.381614H30.8008V3.6032H30.886C30.9599 3.48957 31.0621 3.34468 31.1928 3.16855C31.3263 2.98957 31.5167 2.83048 31.7638 2.69127C32.0138 2.54923 32.3519 2.4782 32.7781 2.4782C33.3292 2.4782 33.815 2.61599 34.2354 2.89156C34.6559 3.16713 34.984 3.55775 35.2198 4.06343C35.4556 4.56911 35.5735 5.1657 35.5735 5.8532C35.5735 6.54639 35.4556 7.14724 35.2198 7.65576C34.984 8.16144 34.6573 8.55349 34.2397 8.8319C33.8221 9.10747 33.3406 9.24525 32.7951 9.24525C32.3746 9.24525 32.038 9.17565 31.7852 9.03644C31.5323 8.8944 31.3377 8.73389 31.2013 8.55491C31.065 8.37309 30.9599 8.22252 30.886 8.1032H30.7667V9.10889H29.7951ZM30.7837 5.83616C30.7837 6.33048 30.8562 6.76656 31.0011 7.1444C31.146 7.5194 31.3576 7.81343 31.636 8.0265C31.9144 8.23673 32.2553 8.34184 32.6587 8.34184C33.0792 8.34184 33.43 8.23105 33.7113 8.00945C33.9954 7.78502 34.2085 7.48389 34.3505 7.10605C34.4954 6.72536 34.5678 6.30207 34.5678 5.83616C34.5678 5.37593 34.4968 4.96116 34.3548 4.59184C34.2156 4.21968 34.0039 3.92565 33.7198 3.70974C33.4386 3.49099 33.0849 3.38161 32.6587 3.38161C32.2496 3.38161 31.9059 3.48531 31.6275 3.69269C31.3491 3.89724 31.1388 4.18417 30.9968 4.55349C30.8548 4.91997 30.7837 5.34752 30.7837 5.83616ZM41.2369 6.43275V2.56343H42.2425V9.10889H41.2369V8.00093H41.1687C41.0153 8.33332 40.7766 8.61599 40.4528 8.84894C40.1289 9.07906 39.7198 9.19411 39.2255 9.19411C38.8164 9.19411 38.4528 9.10463 38.1346 8.92565C37.8164 8.74383 37.5664 8.4711 37.3846 8.10747C37.2028 7.74099 37.1119 7.27934 37.1119 6.72252V2.56343H38.1175V6.65434C38.1175 7.13161 38.2511 7.5123 38.5181 7.79639C38.788 8.08048 39.1317 8.22252 39.5494 8.22252C39.7994 8.22252 40.0536 8.1586 40.3121 8.03076C40.5735 7.90292 40.7923 7.7069 40.9684 7.44269C41.1474 7.17849 41.2369 6.84184 41.2369 6.43275ZM46.9311 2.56343V3.4157H43.5391V2.56343H46.9311ZM44.5277 0.99525H45.5334V7.23389C45.5334 7.51798 45.5746 7.73105 45.657 7.87309C45.7422 8.0123 45.8501 8.10605 45.9808 8.15434C46.1143 8.1998 46.255 8.22252 46.4027 8.22252C46.5135 8.22252 46.6044 8.21684 46.6754 8.20548C46.7464 8.19127 46.8033 8.17991 46.8459 8.17139L47.0504 9.0748C46.9822 9.10036 46.8871 9.12593 46.7649 9.1515C46.6428 9.17991 46.4879 9.19411 46.3004 9.19411C46.0163 9.19411 45.7379 9.13303 45.4652 9.01088C45.1953 8.88872 44.9709 8.70264 44.7919 8.45264C44.6158 8.20264 44.5277 7.8873 44.5277 7.50661V0.99525ZM51.0327 9.24525C50.4418 9.24525 49.9233 9.10463 49.4773 8.82338C49.0341 8.54213 48.6875 8.14866 48.4375 7.64298C48.1903 7.1373 48.0668 6.54639 48.0668 5.87025C48.0668 5.18843 48.1903 4.59326 48.4375 4.08474C48.6875 3.57622 49.0341 3.18133 49.4773 2.90008C49.9233 2.61883 50.4418 2.4782 51.0327 2.4782C51.6236 2.4782 52.1406 2.61883 52.5838 2.90008C53.0298 3.18133 53.3764 3.57622 53.6236 4.08474C53.8736 4.59326 53.9986 5.18843 53.9986 5.87025C53.9986 6.54639 53.8736 7.1373 53.6236 7.64298C53.3764 8.14866 53.0298 8.54213 52.5838 8.82338C52.1406 9.10463 51.6236 9.24525 51.0327 9.24525ZM51.0327 8.34184C51.4815 8.34184 51.8509 8.22678 52.1406 7.99667C52.4304 7.76656 52.6449 7.464 52.7841 7.089C52.9233 6.714 52.9929 6.30775 52.9929 5.87025C52.9929 5.43275 52.9233 5.02508 52.7841 4.64724C52.6449 4.2694 52.4304 3.964 52.1406 3.73105C51.8509 3.49809 51.4815 3.38161 51.0327 3.38161C50.5838 3.38161 50.2145 3.49809 49.9247 3.73105C49.6349 3.964 49.4205 4.2694 49.2812 4.64724C49.142 5.02508 49.0724 5.43275 49.0724 5.87025C49.0724 6.30775 49.142 6.714 49.2812 7.089C49.4205 7.464 49.6349 7.76656 49.9247 7.99667C50.2145 8.22678 50.5838 8.34184 51.0327 8.34184ZM55.5337 9.10889V2.56343H56.5053V3.55207H56.5735C56.6928 3.2282 56.9087 2.96542 57.2212 2.76372C57.5337 2.56201 57.886 2.46116 58.2781 2.46116C58.3519 2.46116 58.4442 2.46258 58.555 2.46542C58.6658 2.46826 58.7496 2.47252 58.8065 2.4782V3.50093C58.7724 3.49241 58.6942 3.47963 58.5721 3.46258C58.4528 3.44269 58.3263 3.43275 58.1928 3.43275C57.8746 3.43275 57.5906 3.49951 57.3406 3.63303C57.0934 3.76372 56.8974 3.94553 56.7525 4.17849C56.6104 4.4086 56.5394 4.67139 56.5394 4.96684V9.10889H55.5337ZM63.5099 0.381614H64.7713L67.7372 7.62593H67.8395L70.8054 0.381614H72.0668V9.10889H71.0781V2.4782H70.9929L68.2656 9.10889H67.3111L64.5838 2.4782H64.4986V9.10889H63.5099V0.381614ZM74.0494 9.10889V2.56343H75.055V9.10889H74.0494ZM74.5607 1.47252C74.3647 1.47252 74.1957 1.40576 74.0536 1.27224C73.9144 1.13872 73.8448 0.978205 73.8448 0.790705C73.8448 0.603205 73.9144 0.442693 74.0536 0.30917C74.1957 0.175648 74.3647 0.108887 74.5607 0.108887C74.7567 0.108887 74.9244 0.175648 75.0636 0.30917C75.2056 0.442693 75.2766 0.603205 75.2766 0.790705C75.2766 0.978205 75.2056 1.13872 75.0636 1.27224C74.9244 1.40576 74.7567 1.47252 74.5607 1.47252ZM77.9027 5.17139V9.10889H76.897V2.56343H77.8686V3.58616H77.9538C78.1072 3.25377 78.3402 2.98673 78.6527 2.78502C78.9652 2.58048 79.3686 2.4782 79.8629 2.4782C80.3061 2.4782 80.6939 2.56911 81.0263 2.75093C81.3587 2.92991 81.6172 3.20264 81.8018 3.56911C81.9865 3.93275 82.0788 4.39298 82.0788 4.9498V9.10889H81.0732V5.01798C81.0732 4.50377 80.9396 4.1032 80.6726 3.81627C80.4055 3.5265 80.0391 3.38161 79.5732 3.38161C79.2521 3.38161 78.9652 3.45122 78.7124 3.59042C78.4624 3.72963 78.2649 3.93275 78.12 4.1998C77.9751 4.46684 77.9027 4.7907 77.9027 5.17139ZM83.9165 9.10889V2.56343H84.9222V9.10889H83.9165ZM84.4279 1.47252C84.2319 1.47252 84.0629 1.40576 83.9208 1.27224C83.7816 1.13872 83.712 0.978205 83.712 0.790705C83.712 0.603205 83.7816 0.442693 83.9208 0.30917C84.0629 0.175648 84.2319 0.108887 84.4279 0.108887C84.6239 0.108887 84.7915 0.175648 84.9308 0.30917C85.0728 0.442693 85.1438 0.603205 85.1438 0.790705C85.1438 0.978205 85.0728 1.13872 84.9308 1.27224C84.7915 1.40576 84.6239 1.47252 84.4279 1.47252ZM86.7642 9.10889V2.56343H87.7358V3.58616H87.821C87.9574 3.23673 88.1776 2.96542 88.4815 2.77224C88.7855 2.57622 89.1506 2.4782 89.5767 2.4782C90.0085 2.4782 90.3679 2.57622 90.6548 2.77224C90.9446 2.96542 91.1705 3.23673 91.3324 3.58616H91.4006C91.5682 3.24809 91.8196 2.97963 92.1548 2.78076C92.4901 2.57906 92.892 2.4782 93.3608 2.4782C93.946 2.4782 94.4247 2.66144 94.7969 3.02792C95.169 3.39156 95.3551 3.95832 95.3551 4.7282V9.10889H94.3494V4.7282C94.3494 4.24525 94.2173 3.90008 93.9531 3.69269C93.6889 3.48531 93.3778 3.38161 93.0199 3.38161C92.5597 3.38161 92.2031 3.52082 91.9503 3.79923C91.6974 4.0748 91.571 4.42423 91.571 4.84752V9.10889H90.5483V4.62593C90.5483 4.25377 90.4276 3.95406 90.1861 3.72678C89.9446 3.49667 89.6335 3.38161 89.2528 3.38161C88.9915 3.38161 88.7472 3.45122 88.5199 3.59042C88.2955 3.72963 88.1136 3.92281 87.9744 4.16997C87.8381 4.41428 87.7699 4.69695 87.7699 5.01798V9.10889H86.7642ZM101.319 6.43275V2.56343H102.325V9.10889H101.319V8.00093H101.251C101.097 8.33332 100.859 8.61599 100.535 8.84894C100.211 9.07906 99.8018 9.19411 99.3075 9.19411C98.8984 9.19411 98.5348 9.10463 98.2166 8.92565C97.8984 8.74383 97.6484 8.4711 97.4666 8.10747C97.2848 7.74099 97.1939 7.27934 97.1939 6.72252V2.56343H98.1996V6.65434C98.1996 7.13161 98.3331 7.5123 98.6001 7.79639C98.87 8.08048 99.2138 8.22252 99.6314 8.22252C99.8814 8.22252 100.136 8.1586 100.394 8.03076C100.656 7.90292 100.874 7.7069 101.05 7.44269C101.229 7.17849 101.319 6.84184 101.319 6.43275ZM104.167 9.10889V2.56343H105.138V3.58616H105.223C105.36 3.23673 105.58 2.96542 105.884 2.77224C106.188 2.57622 106.553 2.4782 106.979 2.4782C107.411 2.4782 107.77 2.57622 108.057 2.77224C108.347 2.96542 108.573 3.23673 108.735 3.58616H108.803C108.971 3.24809 109.222 2.97963 109.557 2.78076C109.892 2.57906 110.294 2.4782 110.763 2.4782C111.348 2.4782 111.827 2.66144 112.199 3.02792C112.571 3.39156 112.757 3.95832 112.757 4.7282V9.10889H111.752V4.7282C111.752 4.24525 111.62 3.90008 111.355 3.69269C111.091 3.48531 110.78 3.38161 110.422 3.38161C109.962 3.38161 109.605 3.52082 109.353 3.79923C109.1 4.0748 108.973 4.42423 108.973 4.84752V9.10889H107.951V4.62593C107.951 4.25377 107.83 3.95406 107.588 3.72678C107.347 3.49667 107.036 3.38161 106.655 3.38161C106.394 3.38161 106.15 3.45122 105.922 3.59042C105.698 3.72963 105.516 3.92281 105.377 4.16997C105.24 4.41428 105.172 4.69695 105.172 5.01798V9.10889H104.167ZM46.1635 17.5634C46.1124 17.1316 45.905 16.7964 45.5414 16.5578C45.1777 16.3191 44.7317 16.1998 44.2033 16.1998C43.8169 16.1998 43.4789 16.2623 43.1891 16.3873C42.9022 16.5123 42.6777 16.6842 42.5158 16.9029C42.3567 17.1217 42.2772 17.3702 42.2772 17.6487C42.2772 17.8816 42.3326 18.0819 42.4434 18.2495C42.557 18.4143 42.7019 18.5521 42.878 18.6629C43.0542 18.7708 43.2388 18.8603 43.432 18.9313C43.6252 18.9995 43.8027 19.0549 43.9647 19.0975L44.851 19.3362C45.0783 19.3958 45.3311 19.4782 45.6096 19.5833C45.8908 19.6884 46.1593 19.8319 46.415 20.0137C46.6735 20.1927 46.8865 20.4228 47.0542 20.7041C47.2218 20.9853 47.3056 21.3305 47.3056 21.7396C47.3056 22.2112 47.182 22.6373 46.9348 23.018C46.6905 23.3987 46.3326 23.7012 45.861 23.9256C45.3922 24.1501 44.8226 24.2623 44.1522 24.2623C43.5272 24.2623 42.986 24.1614 42.5286 23.9597C42.074 23.758 41.7161 23.4768 41.4547 23.116C41.1962 22.7552 41.0499 22.3362 41.0158 21.8589H42.1067C42.1351 22.1884 42.2459 22.4612 42.4391 22.6771C42.6351 22.8901 42.8823 23.0492 43.1806 23.1543C43.4817 23.2566 43.8056 23.3078 44.1522 23.3078C44.5556 23.3078 44.9178 23.2424 45.2388 23.1117C45.5598 22.9782 45.8141 22.7935 46.0016 22.5578C46.1891 22.3191 46.2828 22.0407 46.2828 21.7225C46.2828 21.4328 46.2019 21.197 46.04 21.0151C45.878 20.8333 45.665 20.6856 45.4007 20.572C45.1365 20.4583 44.851 20.3589 44.5442 20.2737L43.4703 19.9668C42.7885 19.7708 42.2488 19.491 41.851 19.1274C41.4533 18.7637 41.2544 18.2879 41.2544 17.6998C41.2544 17.2112 41.3865 16.785 41.6507 16.4214C41.9178 16.0549 42.2757 15.7708 42.7246 15.5691C43.1763 15.3646 43.6806 15.2623 44.2374 15.2623C44.7999 15.2623 45.2999 15.3631 45.7374 15.5649C46.1749 15.7637 46.5215 16.0364 46.7772 16.383C47.0357 16.7296 47.1721 17.1231 47.1863 17.5634H46.1635ZM51.7534 17.5634V18.4157H48.3613V17.5634H51.7534ZM49.35 15.9953H50.3556V22.2339C50.3556 22.518 50.3968 22.731 50.4792 22.8731C50.5645 23.0123 50.6724 23.106 50.8031 23.1543C50.9366 23.1998 51.0772 23.2225 51.225 23.2225C51.3358 23.2225 51.4267 23.2168 51.4977 23.2055C51.5687 23.1913 51.6255 23.1799 51.6681 23.1714L51.8727 24.0748C51.8045 24.1004 51.7093 24.1259 51.5872 24.1515C51.465 24.1799 51.3102 24.1941 51.1227 24.1941C50.8386 24.1941 50.5602 24.133 50.2875 24.0109C50.0176 23.8887 49.7931 23.7026 49.6142 23.4526C49.438 23.2026 49.35 22.8873 49.35 22.5066V15.9953ZM55.8549 24.2453C55.264 24.2453 54.7456 24.1046 54.2995 23.8234C53.8564 23.5421 53.5098 23.1487 53.2598 22.643C53.0126 22.1373 52.889 21.5464 52.889 20.8703C52.889 20.1884 53.0126 19.5933 53.2598 19.0847C53.5098 18.5762 53.8564 18.1813 54.2995 17.9001C54.7456 17.6188 55.264 17.4782 55.8549 17.4782C56.4458 17.4782 56.9629 17.6188 57.4061 17.9001C57.8521 18.1813 58.1987 18.5762 58.4458 19.0847C58.6958 19.5933 58.8208 20.1884 58.8208 20.8703C58.8208 21.5464 58.6958 22.1373 58.4458 22.643C58.1987 23.1487 57.8521 23.5421 57.4061 23.8234C56.9629 24.1046 56.4458 24.2453 55.8549 24.2453ZM55.8549 23.3418C56.3038 23.3418 56.6731 23.2268 56.9629 22.9967C57.2527 22.7666 57.4672 22.464 57.6064 22.089C57.7456 21.714 57.8152 21.3078 57.8152 20.8703C57.8152 20.4328 57.7456 20.0251 57.6064 19.6472C57.4672 19.2694 57.2527 18.964 56.9629 18.731C56.6731 18.4981 56.3038 18.3816 55.8549 18.3816C55.4061 18.3816 55.0368 18.4981 54.747 18.731C54.4572 18.964 54.2427 19.2694 54.1035 19.6472C53.9643 20.0251 53.8947 20.4328 53.8947 20.8703C53.8947 21.3078 53.9643 21.714 54.1035 22.089C54.2427 22.464 54.4572 22.7666 54.747 22.9967C55.0368 23.2268 55.4061 23.3418 55.8549 23.3418ZM63.0151 24.2453C62.4015 24.2453 61.873 24.1004 61.4299 23.8106C60.9867 23.5208 60.6458 23.1217 60.4071 22.6131C60.1685 22.1046 60.0492 21.5237 60.0492 20.8703C60.0492 20.2055 60.1713 19.6188 60.4157 19.1103C60.6628 18.5989 61.0066 18.1998 61.4469 17.9129C61.8901 17.6231 62.4071 17.4782 62.998 17.4782C63.4583 17.4782 63.873 17.5634 64.2424 17.7339C64.6117 17.9043 64.9142 18.143 65.15 18.4498C65.3858 18.7566 65.5321 19.1146 65.589 19.5237H64.5833C64.5066 19.2254 64.3361 18.9612 64.0719 18.731C63.8105 18.4981 63.4583 18.3816 63.0151 18.3816C62.623 18.3816 62.2793 18.4839 61.9838 18.6884C61.6912 18.8901 61.4625 19.1756 61.2978 19.545C61.1358 19.9114 61.0549 20.3418 61.0549 20.8362C61.0549 21.3418 61.1344 21.7822 61.2935 22.1572C61.4554 22.5322 61.6827 22.8234 61.9753 23.0308C62.2708 23.2381 62.6174 23.3418 63.0151 23.3418C63.2765 23.3418 63.5137 23.2964 63.7267 23.2055C63.9398 23.1146 64.1202 22.9839 64.2679 22.8134C64.4157 22.643 64.5208 22.4384 64.5833 22.1998H65.589C65.5321 22.5862 65.3915 22.9342 65.1671 23.2438C64.9455 23.5506 64.6515 23.795 64.285 23.9768C63.9213 24.1558 63.498 24.2453 63.0151 24.2453ZM67.9966 21.7225L67.9796 20.4782H68.1841L71.0478 17.5634H72.2921L69.2409 20.6487H69.1557L67.9966 21.7225ZM67.0591 24.1089V15.3816H68.0648V24.1089H67.0591ZM71.2182 24.1089L68.6614 20.8703L69.3773 20.1714L72.4966 24.1089H71.2182Z" fill="black"/>
</svg>
