<svg width="32" height="32" viewBox="0 0 32 32" fill="none" xmlns="http://www.w3.org/2000/svg">
<path d="M23.0613 19.4682C21.0432 19.3452 19.763 20.7557 19.4953 22.0794C19.3217 22.9184 19.4447 23.714 19.8787 24.4591C20.3127 25.1968 20.9492 25.6887 21.7448 25.9997H21.5496C17.7883 25.9997 14.0271 25.9997 10.2658 25.9997C9.62205 25.9997 9.16639 25.667 9.02896 25.1028C9.00003 24.9871 9 24.8569 9 24.7339C9 19.338 9 13.942 9 8.55332C9 7.75767 9.4774 7.28027 10.2803 7.28027C10.7649 7.28027 11.2495 7.28027 11.7703 7.28027C11.7703 7.57683 11.7703 7.85894 11.7703 8.14826C11.7703 8.31463 11.7776 8.48098 11.821 8.64011C11.9512 9.14644 12.4141 9.5081 12.9421 9.5081C15.0035 9.5081 17.065 9.5081 19.1264 9.5081C19.7413 9.5081 20.2548 9.00903 20.2765 8.39421C20.291 8.03255 20.2765 7.67089 20.2765 7.30199C20.8841 7.30199 21.47 7.26584 22.0487 7.30923C22.6201 7.35263 23.0396 7.85171 23.0613 8.42313C23.0613 8.48823 23.0613 8.56053 23.0613 8.62563C23.0613 12.1627 23.0613 15.6997 23.0613 19.2367C23.0613 19.3163 23.0613 19.3958 23.0613 19.4826V19.4682ZM17.7594 15.3742C18.7214 15.3742 19.6762 15.3742 20.6382 15.3742C20.7033 15.3742 20.7612 15.3742 20.8263 15.3742C21.0071 15.3453 21.1083 15.2368 21.1156 15.0559C21.1228 14.8896 20.9926 14.7521 20.8118 14.7304C20.7612 14.7304 20.7177 14.7304 20.6671 14.7304C18.7286 14.7304 16.7901 14.7304 14.8517 14.7304C14.7938 14.7304 14.7432 14.7304 14.6853 14.7304C14.5117 14.7594 14.396 14.8606 14.396 15.0487C14.396 15.2295 14.5045 15.338 14.6781 15.3742C14.7359 15.3887 14.801 15.3742 14.8661 15.3742C15.8354 15.3742 16.7974 15.3742 17.7666 15.3742H17.7594ZM17.7377 12.2133C18.6997 12.2133 19.6545 12.2133 20.6165 12.2133C20.9564 12.2133 21.1156 12.112 21.1156 11.895C21.1156 11.6708 20.9564 11.5695 20.6237 11.5695C18.7142 11.5695 16.8046 11.5695 14.8878 11.5695C14.8227 11.5695 14.7504 11.5695 14.6853 11.5768C14.4972 11.6057 14.3743 11.7432 14.396 11.9095C14.4177 12.0904 14.5189 12.1916 14.6997 12.2061C14.7576 12.2061 14.8227 12.2061 14.8878 12.2061C15.8426 12.2061 16.7901 12.2061 17.7449 12.2061L17.7377 12.2133ZM17.7811 17.8769C16.8118 17.8769 15.8354 17.8769 14.8661 17.8769C14.801 17.8769 14.7287 17.8769 14.6636 17.8769C14.49 17.9058 14.396 18.0215 14.396 18.1879C14.396 18.3615 14.49 18.47 14.6636 18.4989C14.7215 18.5062 14.7866 18.4989 14.8517 18.4989C16.7901 18.4989 18.7286 18.4989 20.6671 18.4989C20.7322 18.4989 20.8046 18.4989 20.8697 18.4845C21.036 18.4483 21.1156 18.3326 21.1156 18.1734C21.1156 18.0143 21.0288 17.8986 20.8624 17.8624C20.7973 17.8479 20.725 17.8552 20.6599 17.8552C19.6979 17.8552 18.7431 17.8552 17.7811 17.8552V17.8769ZM11.7052 15.1211C11.6184 15.027 11.5678 14.9547 11.5027 14.8968C11.358 14.7594 11.17 14.7594 11.0398 14.8823C10.9023 15.0125 10.9023 15.2006 11.047 15.3525C11.17 15.4827 11.2929 15.6057 11.4231 15.7286C11.6257 15.9239 11.7776 15.9312 11.9729 15.7359C12.2911 15.4248 12.6021 15.1066 12.9132 14.7883C12.9638 14.7377 13.0144 14.6653 13.0289 14.6002C13.065 14.4556 13.0216 14.3254 12.8842 14.2531C12.7395 14.1735 12.6021 14.1952 12.4864 14.3109C12.2332 14.5713 11.9801 14.8317 11.698 15.1138L11.7052 15.1211ZM11.6908 11.9818C11.6112 11.8806 11.5678 11.8082 11.5099 11.7576C11.3508 11.6057 11.17 11.5985 11.0398 11.7359C10.9096 11.8661 10.9096 12.0542 11.0542 12.2133C11.1772 12.3507 11.3146 12.4809 11.4448 12.6039C11.6256 12.7702 11.792 12.7775 11.9656 12.6039C12.2911 12.2856 12.6094 11.9674 12.9204 11.6419C12.971 11.5913 13.0144 11.5189 13.0361 11.4538C13.0723 11.3092 13.0216 11.179 12.8842 11.1067C12.7395 11.0271 12.6021 11.056 12.4936 11.1717C12.2405 11.4249 11.9873 11.6925 11.698 11.9891L11.6908 11.9818ZM11.6908 18.2892C11.6112 18.1952 11.5606 18.1156 11.4955 18.0577C11.3436 17.9131 11.1483 17.913 11.0181 18.0505C10.8951 18.1807 10.8951 18.3615 11.0325 18.5134C11.1555 18.6508 11.2929 18.781 11.4231 18.904C11.6112 19.0848 11.7703 19.0848 11.9584 18.904C12.2766 18.593 12.5877 18.2747 12.8987 17.9637C12.9493 17.9131 13 17.8479 13.0144 17.7756C13.0506 17.631 13.0144 17.5008 12.8698 17.4212C12.7179 17.3344 12.5804 17.3633 12.4575 17.4863C12.2043 17.7467 11.9511 18.0071 11.6763 18.2964L11.6908 18.2892Z" fill="#0671B8"/>
<path d="M22.743 25.6744C21.1445 25.6744 19.857 24.3941 19.857 22.7884C19.857 21.1898 21.1445 19.9023 22.743 19.9023C24.3416 19.9023 25.6291 21.1826 25.6291 22.7884C25.6291 24.3869 24.3488 25.6744 22.7503 25.6744H22.743ZM22.3163 23.056C22.1933 22.9186 22.092 22.7956 21.9835 22.6943C21.8317 22.5497 21.6581 22.5569 21.5279 22.6799C21.3977 22.8101 21.3904 22.9909 21.5279 23.1356C21.7159 23.3381 21.9112 23.5262 22.1065 23.7142C22.2439 23.8444 22.4103 23.8444 22.5478 23.7142C23.0251 23.2441 23.5025 22.7739 23.9654 22.2893C24.0956 22.1519 24.0812 21.971 23.951 21.8481C23.8208 21.7251 23.6544 21.7179 23.5097 21.8481C23.4302 21.9132 23.3651 21.9927 23.2928 22.0651C22.9745 22.3833 22.6635 22.7088 22.3163 23.056Z" fill="#FFB422"/>
<path d="M14.7214 6.82484C14.5695 6.16662 14.7214 5.62414 15.2711 5.24801C15.7413 4.92975 16.2548 4.9153 16.7394 5.21909C17.3253 5.58799 17.4917 6.14492 17.3326 6.82484C17.7666 6.82484 18.1933 6.82484 18.6128 6.82484C18.8588 6.82484 19.1047 6.82484 19.3506 6.82484C19.6689 6.82484 19.8425 7.00567 19.8497 7.32393C19.8497 7.64219 19.8497 7.95321 19.8497 8.27147C19.8497 8.74886 19.5387 9.06712 19.0541 9.08158C18.7792 9.08882 18.5043 9.08158 18.2295 9.08158C16.5152 9.08158 14.801 9.08158 13.0939 9.08158C12.8552 9.08158 12.631 9.04543 12.4502 8.87184C12.291 8.72718 12.2042 8.54634 12.2042 8.32211C12.2042 7.98215 12.2042 7.63497 12.2042 7.29501C12.2042 6.99845 12.3851 6.82484 12.6816 6.82484C13.3543 6.82484 14.0198 6.82484 14.7214 6.82484ZM16.0161 6.82484C16.1536 6.82484 16.291 6.81037 16.4284 6.82484C16.5803 6.8393 16.6526 6.76697 16.696 6.63677C16.8118 6.34744 16.725 6.01476 16.4863 5.81946C16.2548 5.62416 15.9004 5.59522 15.6472 5.76158C15.3796 5.92795 15.2566 6.23898 15.329 6.54278C15.3724 6.73807 15.4592 6.86101 15.6906 6.83208C15.7991 6.81761 15.9076 6.83208 16.0161 6.83208V6.82484Z" fill="#0671B8"/>
</svg>
