<svg width="32" height="32" viewBox="0 0 32 32" fill="none" xmlns="http://www.w3.org/2000/svg">
<path d="M23.8867 23.5969H21.5196C21.5196 23.5034 21.5196 23.4314 21.5196 23.3595C21.5196 22.6688 21.5196 21.9781 21.5196 21.2874C21.5196 20.6542 21.0879 20.2154 20.462 20.2154C17.7855 20.2154 15.109 20.2154 12.4326 20.2154C11.8066 20.2154 11.375 20.6542 11.375 21.2874C11.375 22.05 11.375 22.8127 11.375 23.5825H9.02228C9.02228 23.525 9.01508 23.4602 9.01508 23.4026C9.01508 22.6904 9.01508 21.9781 9.01508 21.2658C9.02227 18.9347 10.7203 17.0713 13.0442 16.8482C13.1737 16.8338 13.2312 16.8698 13.2888 16.9849C13.6557 17.7404 14.0298 18.4886 14.4112 19.2369C14.5766 19.5678 14.7349 19.6182 15.0515 19.424C15.4544 19.1793 15.8645 18.9419 16.2602 18.6901C16.4041 18.6037 16.5048 18.5894 16.6559 18.6901C17.066 18.9563 17.4833 19.1937 17.9006 19.4455C18.1812 19.611 18.3467 19.5606 18.4978 19.2657C18.8791 18.5102 19.2604 17.7548 19.6274 16.9993C19.6849 16.877 19.7497 16.841 19.8864 16.8554C21.9944 17.0713 23.5773 18.5966 23.8651 20.6902C23.8651 20.7334 23.8867 20.7694 23.9011 20.8125V23.6041L23.8867 23.5969Z" fill="#0671B8"/>
<path d="M12.0512 26.3089C12.0512 24.6685 12.0512 23.0281 12.0512 21.3805C12.0512 20.9776 12.1447 20.8913 12.5476 20.8913C13.0441 20.8913 13.5477 20.8913 14.0801 20.8913C14.0801 20.9776 14.0801 21.0495 14.0801 21.1215C14.0801 21.805 14.0729 22.4885 14.0873 23.172C14.0873 23.3015 14.1593 23.4598 14.2456 23.5605C14.4183 23.7692 14.6269 23.9562 14.8212 24.1433C15.0082 24.316 15.1737 24.3232 15.3608 24.1433C15.4903 24.0138 15.6054 23.8771 15.7709 23.69C15.922 23.8627 16.0299 23.9994 16.1594 24.1289C16.3537 24.3304 16.5264 24.3232 16.7278 24.1289C16.8501 24.0066 16.9652 23.8699 17.1307 23.6828C17.2746 23.8555 17.3897 23.9994 17.512 24.1217C17.7063 24.3232 17.8718 24.316 18.0804 24.1217C18.0804 24.1217 18.0876 24.1145 18.0948 24.1073C18.5696 23.6469 18.8071 23.0857 18.8071 22.4237C18.8071 21.9201 18.8071 21.4093 18.8071 20.8841C19.397 20.8841 19.9726 20.8769 20.5482 20.8841C20.7425 20.8841 20.836 21.0424 20.836 21.2798C20.836 21.9633 20.836 22.6468 20.836 23.3303C20.836 24.316 20.836 25.3017 20.836 26.2873H12.044L12.0512 26.3089Z" fill="#0671B8"/>
<path d="M21.5195 26.3092V24.2803H23.8866V26.3092H21.5195Z" fill="#0671B8"/>
<path d="M9.21648 26.3094C9.0438 26.1871 8.9934 26.0289 9.0006 25.8202C9.01499 25.3166 9.0006 24.8129 9.0006 24.2949H11.3677V26.3094H9.20927H9.21648Z" fill="#0671B8"/>
<path d="M20.1597 9.75418C17.6847 8.79727 15.2097 8.79727 12.7419 9.75418C12.598 8.29364 13.0297 7.1209 14.2888 6.38703C14.7277 6.12802 15.2097 6.00569 15.7205 6.00569C16.3393 6.00569 16.9653 5.9769 17.5768 6.04885C18.987 6.21433 20.1021 7.46622 20.1597 8.88359C20.1741 9.17138 20.1597 9.4592 20.1597 9.76138V9.75418Z" fill="#0671B8"/>
<path d="M13.4111 12.6895C13.7564 12.7182 14.0874 12.7614 14.4111 12.7614C15.6846 12.7686 16.9581 12.7686 18.2388 12.7614C18.6489 12.7614 19.059 12.7182 19.4834 12.6966C19.5698 13.8766 19.1957 14.9126 18.1524 15.6105C17.102 16.3228 15.9868 16.3444 14.886 15.7112C13.8356 15.1069 13.2888 13.9341 13.4111 12.6895Z" fill="#0671B8"/>
<path d="M16.4328 12.0854C15.7061 12.0854 14.9795 12.071 14.26 12.0854C13.7204 12.0998 13.3391 11.8767 13.0585 11.445C12.9505 11.2723 12.857 11.0925 12.7779 10.9054C12.6771 10.6608 12.7347 10.481 12.9865 10.4018C13.5837 10.2076 14.188 9.98448 14.8068 9.86936C16.512 9.55279 18.1811 9.7039 19.8 10.3442C20.1957 10.5025 20.2532 10.6464 20.0734 11.0205C19.9726 11.2292 19.8503 11.4307 19.7064 11.6105C19.4618 11.9271 19.1308 12.0854 18.7135 12.0782C17.9509 12.071 17.1955 12.0782 16.4328 12.0782V12.0854Z" fill="#0671B8"/>
<path d="M15.1233 23.4459C14.8212 23.266 14.7349 23.043 14.7492 22.7336C14.778 22.1292 14.7564 21.5249 14.7564 20.8989H18.138C18.138 21.0788 18.138 21.2587 18.138 21.4385C18.138 21.8702 18.1164 22.3019 18.138 22.7264C18.1595 23.0358 18.066 23.2588 17.7782 23.4243C17.6631 23.3092 17.5336 23.1869 17.4041 23.0574C17.1955 22.8559 17.03 22.8559 16.8213 23.0574C16.699 23.1797 16.5767 23.3092 16.44 23.4531C16.2961 23.3092 16.181 23.1797 16.0587 23.0574C15.85 22.8487 15.6845 22.8487 15.4759 23.0574C15.3536 23.1797 15.2385 23.3092 15.1161 23.4315L15.1233 23.4459Z" fill="#0671B8"/>
<path d="M15.8644 18.1364C15.5334 18.3379 15.224 18.5177 14.8931 18.7192C14.5765 18.0932 14.2743 17.4745 13.9578 16.8485C14.1592 16.7982 14.3103 16.8341 14.4686 16.9637C14.9147 17.3594 15.3823 17.7335 15.8644 18.1292V18.1364Z" fill="#0671B8"/>
<path d="M18.0012 18.7188C17.6775 18.5246 17.3681 18.3375 17.03 18.1361C17.1523 18.0353 17.253 17.949 17.3609 17.8627C17.7063 17.5749 18.0588 17.2943 18.3898 16.9921C18.5481 16.8554 18.6992 16.7906 18.9294 16.8482C18.62 17.4669 18.3178 18.0785 18.0012 18.7188Z" fill="#0671B8"/>
<path d="M17.7854 16.6177C17.3465 16.9846 16.9004 17.3587 16.4472 17.7401C15.9939 17.3659 15.5478 16.9918 15.1017 16.6177C16.0011 16.9055 16.886 16.9127 17.7854 16.6177Z" fill="#0671B8"/>
<path d="M20.7137 11.3081C21.0015 11.8405 20.7641 12.6464 20.1597 13.0852C20.2317 12.6536 20.0231 12.2363 20.3684 11.8693C20.5123 11.7182 20.5986 11.5024 20.7209 11.3081H20.7137Z" fill="#0671B8"/>
<path d="M12.7275 13.0568C12.1592 12.7618 11.8642 11.733 12.1735 11.3301C12.3534 11.5891 12.5405 11.8409 12.7059 12.1143C12.7491 12.1862 12.7275 12.3086 12.7275 12.4021C12.7275 12.6179 12.7275 12.8338 12.7275 13.0568Z" fill="#0671B8"/>
<path d="M24.0018 27.0001C26.1276 27.0001 27.8509 25.2768 27.8509 23.1509C27.8509 21.0251 26.1276 19.3018 24.0018 19.3018C21.8759 19.3018 20.1525 21.0251 20.1525 23.1509C20.1525 25.2768 21.8759 27.0001 24.0018 27.0001Z" fill="#FFB422" stroke="white" stroke-width="0.518024" stroke-miterlimit="10"/>
<path d="M25.5989 22.0786H22.3973C22.1787 22.0786 22.0015 22.2542 22.0015 22.4707C22.0015 22.6873 22.1787 22.8628 22.3973 22.8628H25.5989C25.8175 22.8628 25.9947 22.6873 25.9947 22.4707C25.9947 22.2542 25.8175 22.0786 25.5989 22.0786Z" fill="white"/>
<path d="M25.5989 23.4385H22.3973C22.1787 23.4385 22.0015 23.614 22.0015 23.8306C22.0015 24.0471 22.1787 24.2227 22.3973 24.2227H25.5989C25.8175 24.2227 25.9947 24.0471 25.9947 23.8306C25.9947 23.614 25.8175 23.4385 25.5989 23.4385Z" fill="white"/>
</svg>
