<svg width="91" height="25" viewBox="0 0 91 25" fill="none" xmlns="http://www.w3.org/2000/svg">
<path d="M3.13477 9.36035H0.441584V0.633079H3.25408C4.10067 0.633079 4.82511 0.807795 5.42738 1.15723C6.02965 1.50382 6.4913 2.0024 6.81232 2.65297C7.13335 3.30069 7.29386 4.07626 7.29386 4.97967C7.29386 5.88876 7.13193 6.67143 6.80806 7.32768C6.4842 7.98109 6.01261 8.48393 5.39329 8.8362C4.77397 9.18564 4.02113 9.36035 3.13477 9.36035ZM1.4984 8.42285H3.06658C3.78817 8.42285 4.38619 8.28365 4.86062 8.00524C5.33505 7.72683 5.68874 7.33052 5.9217 6.81632C6.15465 6.30211 6.27113 5.6899 6.27113 4.97967C6.27113 4.27512 6.15607 3.66859 5.92596 3.16007C5.69585 2.6487 5.3521 2.25666 4.89471 1.98393C4.43732 1.70836 3.86772 1.57058 3.1859 1.57058H1.4984V8.42285ZM8.93022 9.36035V2.8149H9.9359V9.36035H8.93022ZM9.44158 1.72399C9.24556 1.72399 9.07653 1.65723 8.93448 1.5237C8.79528 1.39018 8.72567 1.22967 8.72567 1.04217C8.72567 0.85467 8.79528 0.694158 8.93448 0.560635C9.07653 0.427113 9.24556 0.360352 9.44158 0.360352C9.63761 0.360352 9.80522 0.427113 9.94442 0.560635C10.0865 0.694158 10.1575 0.85467 10.1575 1.04217C10.1575 1.22967 10.0865 1.39018 9.94442 1.5237C9.80522 1.65723 9.63761 1.72399 9.44158 1.72399ZM16.4142 4.28081L15.5108 4.53649C15.454 4.38592 15.3702 4.23961 15.2594 4.09757C15.1515 3.95268 15.0037 3.83336 14.8162 3.73961C14.6287 3.64586 14.3887 3.59899 14.0961 3.59899C13.6955 3.59899 13.3617 3.69132 13.0946 3.87598C12.8304 4.05779 12.6983 4.28933 12.6983 4.57058C12.6983 4.82058 12.7892 5.01802 12.9711 5.16291C13.1529 5.30779 13.437 5.42853 13.8233 5.52512L14.7949 5.76376C15.3801 5.90581 15.8162 6.12314 16.1032 6.41575C16.3901 6.70552 16.5336 7.0791 16.5336 7.53649C16.5336 7.91149 16.4256 8.24672 16.2097 8.54217C15.9966 8.83762 15.6983 9.07058 15.3148 9.24103C14.9313 9.41149 14.4853 9.49672 13.9767 9.49672C13.3091 9.49672 12.7566 9.35183 12.3191 9.06206C11.8816 8.77228 11.6046 8.34899 11.4881 7.79217L12.4426 7.55353C12.5336 7.90581 12.7054 8.17001 12.9583 8.34615C13.214 8.52228 13.5478 8.61035 13.9597 8.61035C14.4284 8.61035 14.8006 8.51092 15.0762 8.31206C15.3546 8.11035 15.4938 7.86887 15.4938 7.58762C15.4938 7.36035 15.4142 7.17001 15.2551 7.0166C15.0961 6.86035 14.8517 6.74387 14.5222 6.66717L13.4313 6.41149C12.8319 6.26944 12.3915 6.04927 12.1103 5.75098C11.8319 5.44984 11.6926 5.07342 11.6926 4.62172C11.6926 4.2524 11.7963 3.92569 12.0037 3.6416C12.214 3.35751 12.4995 3.1345 12.8603 2.97257C13.2239 2.81064 13.6358 2.72967 14.0961 2.72967C14.7438 2.72967 15.2523 2.87172 15.6216 3.15581C15.9938 3.4399 16.258 3.8149 16.4142 4.28081ZM20.894 2.8149V3.66717H17.502V2.8149H20.894ZM18.4906 1.24672H19.4963V7.48535C19.4963 7.76944 19.5375 7.98251 19.6199 8.12456C19.7051 8.26376 19.813 8.35751 19.9437 8.40581C20.0772 8.45126 20.2179 8.47399 20.3656 8.47399C20.4764 8.47399 20.5673 8.46831 20.6383 8.45694C20.7093 8.44274 20.7662 8.43137 20.8088 8.42285L21.0133 9.32626C20.9451 9.35183 20.85 9.3774 20.7278 9.40297C20.6056 9.43137 20.4508 9.44558 20.2633 9.44558C19.9792 9.44558 19.7008 9.3845 19.4281 9.26234C19.1582 9.14018 18.9338 8.9541 18.7548 8.7041C18.5787 8.4541 18.4906 8.13876 18.4906 7.75808V1.24672ZM22.4068 9.36035V2.8149H23.3784V3.80353H23.4466C23.5659 3.47967 23.7818 3.21689 24.0943 3.01518C24.4068 2.81348 24.7591 2.71262 25.1511 2.71262C25.225 2.71262 25.3173 2.71404 25.4281 2.71689C25.5389 2.71973 25.6227 2.72399 25.6795 2.72967V3.7524C25.6454 3.74387 25.5673 3.73109 25.4451 3.71404C25.3258 3.69416 25.1994 3.68422 25.0659 3.68422C24.7477 3.68422 24.4636 3.75098 24.2136 3.8845C23.9664 4.01518 23.7704 4.197 23.6255 4.42995C23.4835 4.66007 23.4125 4.92285 23.4125 5.21831V9.36035H22.4068ZM26.8716 9.36035V2.8149H27.8773V9.36035H26.8716ZM27.383 1.72399C27.187 1.72399 27.0179 1.65723 26.8759 1.5237C26.7367 1.39018 26.6671 1.22967 26.6671 1.04217C26.6671 0.85467 26.7367 0.694158 26.8759 0.560635C27.0179 0.427113 27.187 0.360352 27.383 0.360352C27.579 0.360352 27.7466 0.427113 27.8858 0.560635C28.0279 0.694158 28.0989 0.85467 28.0989 1.04217C28.0989 1.22967 28.0279 1.39018 27.8858 1.5237C27.7466 1.65723 27.579 1.72399 27.383 1.72399ZM29.8556 9.36035V0.633079H30.8613V3.85467H30.9466C31.0204 3.74103 31.1227 3.59615 31.2534 3.42001C31.3869 3.24103 31.5772 3.08194 31.8244 2.94274C32.0744 2.80069 32.4125 2.72967 32.8386 2.72967C33.3897 2.72967 33.8755 2.86745 34.296 3.14302C34.7164 3.41859 35.0446 3.80922 35.2804 4.3149C35.5162 4.82058 35.6341 5.41717 35.6341 6.10467C35.6341 6.79785 35.5162 7.3987 35.2804 7.90723C35.0446 8.41291 34.7179 8.80495 34.3002 9.08336C33.8826 9.35893 33.4011 9.49672 32.8556 9.49672C32.4352 9.49672 32.0985 9.42711 31.8457 9.28791C31.5929 9.14586 31.3983 8.98535 31.2619 8.80637C31.1255 8.62456 31.0204 8.47399 30.9466 8.35467H30.8272V9.36035H29.8556ZM30.8443 6.08762C30.8443 6.58194 30.9167 7.01802 31.0616 7.39586C31.2065 7.77086 31.4181 8.0649 31.6966 8.27797C31.975 8.48819 32.3159 8.59331 32.7193 8.59331C33.1397 8.59331 33.4906 8.48251 33.7718 8.26092C34.0559 8.03649 34.269 7.73535 34.411 7.35751C34.5559 6.97683 34.6284 6.55353 34.6284 6.08762C34.6284 5.6274 34.5574 5.21262 34.4153 4.84331C34.2761 4.47115 34.0645 4.17711 33.7804 3.9612C33.4991 3.74245 33.1454 3.63308 32.7193 3.63308C32.3102 3.63308 31.9664 3.73677 31.688 3.94416C31.4096 4.1487 31.1994 4.43564 31.0574 4.80495C30.9153 5.17143 30.8443 5.59899 30.8443 6.08762ZM41.2974 6.68422V2.8149H42.3031V9.36035H41.2974V8.2524H41.2292C41.0758 8.58478 40.8372 8.86745 40.5133 9.10041C40.1895 9.33052 39.7804 9.44558 39.286 9.44558C38.877 9.44558 38.5133 9.35609 38.1951 9.17711C37.877 8.99529 37.627 8.72257 37.4451 8.35893C37.2633 7.99245 37.1724 7.53081 37.1724 6.97399V2.8149H38.1781V6.90581C38.1781 7.38308 38.3116 7.76376 38.5787 8.04785C38.8485 8.33194 39.1923 8.47399 39.6099 8.47399C39.8599 8.47399 40.1142 8.41007 40.3727 8.28223C40.6341 8.15439 40.8528 7.95836 41.0289 7.69416C41.2079 7.42995 41.2974 7.09331 41.2974 6.68422ZM46.9917 2.8149V3.66717H43.5996V2.8149H46.9917ZM44.5882 1.24672H45.5939V7.48535C45.5939 7.76944 45.6351 7.98251 45.7175 8.12456C45.8027 8.26376 45.9107 8.35751 46.0414 8.40581C46.1749 8.45126 46.3155 8.47399 46.4632 8.47399C46.574 8.47399 46.665 8.46831 46.736 8.45694C46.807 8.44274 46.8638 8.43137 46.9064 8.42285L47.111 9.32626C47.0428 9.35183 46.9476 9.3774 46.8255 9.40297C46.7033 9.43137 46.5485 9.44558 46.361 9.44558C46.0769 9.44558 45.7985 9.3845 45.5257 9.26234C45.2559 9.14018 45.0314 8.9541 44.8525 8.7041C44.6763 8.4541 44.5882 8.13876 44.5882 7.75808V1.24672ZM51.1784 9.49672C50.5478 9.49672 50.0037 9.35751 49.5463 9.0791C49.0918 8.79785 48.7409 8.40581 48.4938 7.90297C48.2495 7.39728 48.1273 6.80922 48.1273 6.13876C48.1273 5.46831 48.2495 4.8774 48.4938 4.36603C48.7409 3.85183 49.0847 3.45126 49.525 3.16433C49.9682 2.87456 50.4853 2.72967 51.0762 2.72967C51.4171 2.72967 51.7537 2.78649 52.0861 2.90012C52.4185 3.01376 52.7211 3.19842 52.9938 3.4541C53.2665 3.70694 53.4838 4.04217 53.6458 4.45978C53.8077 4.8774 53.8887 5.3916 53.8887 6.0024V6.42853H48.8432V5.55922H52.8659C52.8659 5.1899 52.7921 4.86035 52.6444 4.57058C52.4995 4.28081 52.2921 4.05211 52.0222 3.8845C51.7551 3.71689 51.4398 3.63308 51.0762 3.63308C50.6756 3.63308 50.329 3.73251 50.0364 3.93137C49.7466 4.1274 49.5236 4.38308 49.3674 4.69842C49.2111 5.01376 49.133 5.35183 49.133 5.71262V6.29217C49.133 6.78649 49.2182 7.20552 49.3887 7.54927C49.562 7.89018 49.802 8.15012 50.1088 8.3291C50.4157 8.50524 50.7722 8.59331 51.1784 8.59331C51.4426 8.59331 51.6813 8.55637 51.8944 8.48251C52.1103 8.40581 52.2963 8.29217 52.4526 8.1416C52.6088 7.98819 52.7296 7.79785 52.8148 7.57058L53.7864 7.84331C53.6841 8.17285 53.5123 8.46262 53.2708 8.71262C53.0293 8.95978 52.731 9.15297 52.3759 9.29217C52.0208 9.42853 51.6216 9.49672 51.1784 9.49672ZM55.4185 9.36035V2.8149H56.3901V3.80353H56.4583C56.5776 3.47967 56.7935 3.21689 57.106 3.01518C57.4185 2.81348 57.7708 2.71262 58.1628 2.71262C58.2367 2.71262 58.329 2.71404 58.4398 2.71689C58.5506 2.71973 58.6344 2.72399 58.6912 2.72967V3.7524C58.6571 3.74387 58.579 3.73109 58.4569 3.71404C58.3375 3.69416 58.2111 3.68422 58.0776 3.68422C57.7594 3.68422 57.4753 3.75098 57.2253 3.8845C56.9782 4.01518 56.7821 4.197 56.6373 4.42995C56.4952 4.66007 56.4242 4.92285 56.4242 5.21831V9.36035H55.4185ZM63.3947 0.633079H64.6561L67.622 7.8774H67.7243L70.6902 0.633079H71.9515V9.36035H70.9629V2.72967H70.8777L68.1504 9.36035H67.1958L64.4686 2.72967H64.3833V9.36035H63.3947V0.633079ZM78.0591 6.68422V2.8149H79.0648V9.36035H78.0591V8.2524H77.9909C77.8375 8.58478 77.5989 8.86745 77.275 9.10041C76.9512 9.33052 76.5421 9.44558 76.0478 9.44558C75.6387 9.44558 75.275 9.35609 74.9569 9.17711C74.6387 8.99529 74.3887 8.72257 74.2069 8.35893C74.025 7.99245 73.9341 7.53081 73.9341 6.97399V2.8149H74.9398V6.90581C74.9398 7.38308 75.0733 7.76376 75.3404 8.04785C75.6103 8.33194 75.954 8.47399 76.3716 8.47399C76.6216 8.47399 76.8759 8.41007 77.1344 8.28223C77.3958 8.15439 77.6145 7.95836 77.7907 7.69416C77.9696 7.42995 78.0591 7.09331 78.0591 6.68422ZM85.5431 4.28081L84.6397 4.53649C84.5829 4.38592 84.4991 4.23961 84.3883 4.09757C84.2804 3.95268 84.1326 3.83336 83.9451 3.73961C83.7576 3.64586 83.5176 3.59899 83.225 3.59899C82.8244 3.59899 82.4906 3.69132 82.2235 3.87598C81.9593 4.05779 81.8272 4.28933 81.8272 4.57058C81.8272 4.82058 81.9181 5.01802 82.1 5.16291C82.2818 5.30779 82.5659 5.42853 82.9522 5.52512L83.9238 5.76376C84.5091 5.90581 84.9451 6.12314 85.2321 6.41575C85.519 6.70552 85.6625 7.0791 85.6625 7.53649C85.6625 7.91149 85.5545 8.24672 85.3386 8.54217C85.1255 8.83762 84.8272 9.07058 84.4437 9.24103C84.0602 9.41149 83.6142 9.49672 83.1056 9.49672C82.438 9.49672 81.8855 9.35183 81.448 9.06206C81.0105 8.77228 80.7335 8.34899 80.617 7.79217L81.5716 7.55353C81.6625 7.90581 81.8343 8.17001 82.0872 8.34615C82.3429 8.52228 82.6767 8.61035 83.0886 8.61035C83.5574 8.61035 83.9295 8.51092 84.2051 8.31206C84.4835 8.11035 84.6227 7.86887 84.6227 7.58762C84.6227 7.36035 84.5431 7.17001 84.3841 7.0166C84.225 6.86035 83.9806 6.74387 83.6511 6.66717L82.5602 6.41149C81.9608 6.26944 81.5204 6.04927 81.2392 5.75098C80.9608 5.44984 80.8216 5.07342 80.8216 4.62172C80.8216 4.2524 80.9252 3.92569 81.1326 3.6416C81.3429 3.35751 81.6284 3.1345 81.9892 2.97257C82.3528 2.81064 82.7647 2.72967 83.225 2.72967C83.8727 2.72967 84.3812 2.87172 84.7505 3.15581C85.1227 3.4399 85.3869 3.8149 85.5431 4.28081ZM90.0229 2.8149V3.66717H86.6309V2.8149H90.0229ZM87.6195 1.24672H88.6252V7.48535C88.6252 7.76944 88.6664 7.98251 88.7488 8.12456C88.834 8.26376 88.9419 8.35751 89.0726 8.40581C89.2061 8.45126 89.3468 8.47399 89.4945 8.47399C89.6053 8.47399 89.6962 8.46831 89.7672 8.45694C89.8382 8.44274 89.8951 8.43137 89.9377 8.42285L90.1422 9.32626C90.074 9.35183 89.9789 9.3774 89.8567 9.40297C89.7346 9.43137 89.5797 9.44558 89.3922 9.44558C89.1081 9.44558 88.8297 9.3845 88.557 9.26234C88.2871 9.14018 88.0627 8.9541 87.8837 8.7041C87.7076 8.4541 87.6195 8.13876 87.6195 7.75808V1.24672ZM40.6635 17.8149C40.6124 17.3831 40.405 17.0479 40.0414 16.8092C39.6777 16.5706 39.2317 16.4513 38.7033 16.4513C38.3169 16.4513 37.9789 16.5138 37.6891 16.6388C37.4022 16.7638 37.1777 16.9356 37.0158 17.1544C36.8567 17.3731 36.7772 17.6217 36.7772 17.9001C36.7772 18.1331 36.8326 18.3334 36.9434 18.501C37.057 18.6657 37.2019 18.8035 37.378 18.9143C37.5542 19.0223 37.7388 19.1118 37.932 19.1828C38.1252 19.251 38.3027 19.3064 38.4647 19.349L39.351 19.5876C39.5783 19.6473 39.8311 19.7297 40.1096 19.8348C40.3908 19.9399 40.6593 20.0834 40.915 20.2652C41.1735 20.4442 41.3865 20.6743 41.5542 20.9555C41.7218 21.2368 41.8056 21.5819 41.8056 21.991C41.8056 22.4626 41.682 22.8888 41.4348 23.2694C41.1905 23.6501 40.8326 23.9527 40.361 24.1771C39.8922 24.4015 39.3226 24.5138 38.6522 24.5138C38.0272 24.5138 37.486 24.4129 37.0286 24.2112C36.574 24.0095 36.2161 23.7282 35.9547 23.3675C35.6962 23.0067 35.5499 22.5876 35.5158 22.1104H36.6067C36.6351 22.4399 36.7459 22.7126 36.9391 22.9285C37.1351 23.1416 37.3823 23.3007 37.6806 23.4058C37.9817 23.5081 38.3056 23.5592 38.6522 23.5592C39.0556 23.5592 39.4178 23.4939 39.7388 23.3632C40.0598 23.2297 40.3141 23.045 40.5016 22.8092C40.6891 22.5706 40.7828 22.2922 40.7828 21.974C40.7828 21.6842 40.7019 21.4484 40.54 21.2666C40.378 21.0848 40.165 20.9371 39.9007 20.8234C39.6365 20.7098 39.351 20.6104 39.0442 20.5251L37.9703 20.2183C37.2885 20.0223 36.7488 19.7425 36.351 19.3788C35.9533 19.0152 35.7544 18.5393 35.7544 17.9513C35.7544 17.4626 35.8865 17.0365 36.1507 16.6729C36.4178 16.3064 36.7757 16.0223 37.2246 15.8206C37.6763 15.616 38.1806 15.5138 38.7374 15.5138C39.2999 15.5138 39.7999 15.6146 40.2374 15.8163C40.6749 16.0152 41.0215 16.2879 41.2772 16.6345C41.5357 16.9811 41.6721 17.3746 41.6863 17.8149H40.6635ZM46.1511 24.4967C45.5204 24.4967 44.9764 24.3575 44.519 24.0791C44.0645 23.7979 43.7136 23.4058 43.4664 22.903C43.2221 22.3973 43.1 21.8092 43.1 21.1388C43.1 20.4683 43.2221 19.8774 43.4664 19.366C43.7136 18.8518 44.0574 18.4513 44.4977 18.1643C44.9409 17.8746 45.4579 17.7297 46.0488 17.7297C46.3897 17.7297 46.7264 17.7865 47.0588 17.9001C47.3912 18.0138 47.6937 18.1984 47.9664 18.4541C48.2392 18.7069 48.4565 19.0422 48.6184 19.4598C48.7804 19.8774 48.8613 20.3916 48.8613 21.0024V21.4285H43.8159V20.5592H47.8386C47.8386 20.1899 47.7647 19.8604 47.617 19.5706C47.4721 19.2808 47.2647 19.0521 46.9949 18.8845C46.7278 18.7169 46.4125 18.6331 46.0488 18.6331C45.6483 18.6331 45.3017 18.7325 45.0091 18.9314C44.7193 19.1274 44.4963 19.3831 44.34 19.6984C44.1838 20.0138 44.1056 20.3518 44.1056 20.7126V21.2922C44.1056 21.7865 44.1909 22.2055 44.3613 22.5493C44.5346 22.8902 44.7747 23.1501 45.0815 23.3291C45.3883 23.5052 45.7449 23.5933 46.1511 23.5933C46.4153 23.5933 46.6539 23.5564 46.867 23.4825C47.0829 23.4058 47.269 23.2922 47.4252 23.1416C47.5815 22.9882 47.7022 22.7979 47.7875 22.5706L48.7591 22.8433C48.6568 23.1729 48.4849 23.4626 48.2434 23.7126C48.002 23.9598 47.7037 24.153 47.3485 24.2922C46.9934 24.4285 46.5943 24.4967 46.1511 24.4967ZM51.3968 15.6331V24.3604H50.3912V15.6331H51.3968ZM54.2445 15.6331V24.3604H53.2388V15.6331H54.2445Z" fill="black"/>
</svg>
