<svg width="32" height="32" viewBox="0 0 32 32" fill="none" xmlns="http://www.w3.org/2000/svg">
<path d="M7.14169 25.9327C6.77366 25.79 6.47323 25.5797 6.37559 25.1666C6.21786 24.5582 6.65349 23.9498 7.2844 23.9048C7.33697 23.9048 7.38204 23.9048 7.43461 23.9048C13.4658 23.9048 19.4894 23.9048 25.5206 23.9048C26.159 23.9048 26.6171 24.3404 26.6096 24.9338C26.6096 25.3544 26.3468 25.7149 25.9412 25.8651C25.8961 25.8801 25.851 25.9027 25.8135 25.9252H7.15672L7.14169 25.9327ZM7.69748 24.5808C7.51722 24.5808 7.3595 24.731 7.3595 24.9113C7.3595 25.0915 7.50972 25.2492 7.68998 25.2492C7.87023 25.2492 8.02796 25.099 8.02796 24.9187C8.02796 24.7385 7.87774 24.5808 7.69748 24.5808ZM25.5882 24.9187C25.5882 24.7385 25.438 24.5808 25.2577 24.5808C25.0774 24.5808 24.9197 24.731 24.9197 24.9113C24.9197 25.0915 25.0699 25.2492 25.2502 25.2492C25.4304 25.2492 25.5882 25.099 25.5882 24.9187Z" fill="#0671B8"/>
<path d="M26.9401 11.4141C26.9026 11.5718 26.865 11.722 26.8124 11.8797C26.4294 13.134 25.1525 13.9527 23.8907 13.7574C22.5087 13.5471 21.5323 12.4355 21.5323 11.0761C21.5323 9.73915 22.5087 8.60503 23.8306 8.40975C25.2952 8.19194 26.6472 9.16835 26.895 10.6254C26.895 10.663 26.9176 10.7005 26.9326 10.7381C26.9326 10.9634 26.9326 11.1887 26.9326 11.4141H26.9401ZM24.0334 10.9109C23.9358 10.9109 23.8682 10.9109 23.8006 10.9109C23.3124 10.9109 23.042 11.1737 23.0345 11.6619C23.0345 11.9624 23.027 12.2703 23.0345 12.5707C23.0345 12.6458 23.0946 12.7435 23.1547 12.7886C23.7781 13.2092 24.6869 13.2092 25.3103 12.7886C25.3628 12.751 25.4304 12.6759 25.4304 12.6158C25.4379 12.2477 25.4455 11.8873 25.4304 11.5192C25.4079 11.1812 25.13 10.9334 24.7845 10.9184C24.6794 10.9184 24.5817 10.9184 24.4465 10.9184C24.9122 10.6405 25.0774 10.34 24.9723 9.97201C24.8746 9.62651 24.5817 9.39367 24.2287 9.40118C23.8832 9.40118 23.5978 9.63402 23.5077 9.97201C23.41 10.34 23.5678 10.648 24.0334 10.9184V10.9109Z" fill="#FFB422"/>
<path d="M15.8016 17.8283V19.1652H17.1385V17.8433C17.2061 17.8433 17.2512 17.8283 17.3037 17.8283C17.7995 17.8283 18.3027 17.8283 18.7984 17.8283C19.0387 17.8283 19.1739 17.956 19.1739 18.1888C19.1739 19.7511 19.1739 21.3133 19.1739 22.8755C19.1739 23.1009 19.0387 23.2285 18.8134 23.2285C17.2512 23.2285 15.6889 23.2285 14.1267 23.2285C13.9014 23.2285 13.7737 23.0933 13.7737 22.868C13.7737 21.3058 13.7737 19.7435 13.7737 18.1813C13.7737 17.9635 13.9014 17.8283 14.1117 17.8208C14.6675 17.8208 15.2233 17.8208 15.8016 17.8208V17.8283Z" fill="#0671B8"/>
<path d="M13.7661 7.68886C13.7661 6.20173 14.9828 4.99252 16.4699 5.00003C17.9646 5.00003 19.1738 6.22429 19.1663 7.71893C19.1588 9.20607 17.9421 10.4078 16.4474 10.4003C14.9603 10.4003 13.7585 9.176 13.7585 7.68886H13.7661ZM16.6727 7.53116C17.1384 7.25327 17.2961 6.95283 17.1985 6.5848C17.1084 6.2393 16.8079 6.00646 16.4549 6.01397C16.1094 6.01397 15.824 6.24681 15.7339 6.5848C15.6287 6.96034 15.794 7.26829 16.2671 7.53116C16.1695 7.53116 16.1019 7.53116 16.0343 7.53116C15.5461 7.53116 15.2757 7.79404 15.2682 8.28224C15.2682 8.58267 15.2607 8.89059 15.2682 9.19102C15.2682 9.26613 15.3283 9.3638 15.3884 9.40886C16.0043 9.82946 16.9206 9.82946 17.544 9.40886C17.5965 9.37131 17.6641 9.29617 17.6641 9.23608C17.6717 8.86805 17.6792 8.50756 17.6641 8.13954C17.6416 7.80155 17.3637 7.54619 17.0182 7.53116C16.9131 7.53116 16.8154 7.53116 16.6802 7.53116H16.6727Z" fill="#FFB422"/>
<path d="M8.69637 13.7802C7.20923 13.7802 6 12.5634 6 11.0838C6 9.58913 7.21674 8.37241 8.7189 8.37992C10.206 8.37992 11.4078 9.60416 11.4078 11.0913C11.4078 12.5784 10.191 13.7877 8.70389 13.7802H8.69637ZM8.49359 10.911C8.39594 10.911 8.32834 10.911 8.26074 10.911C7.77254 10.911 7.50216 11.1739 7.49465 11.6621C7.49465 11.9626 7.48714 12.2705 7.49465 12.5709C7.49465 12.646 7.55473 12.7437 7.61481 12.7887C8.23821 13.2093 9.14702 13.2093 9.77042 12.7887C9.82299 12.7512 9.89059 12.6761 9.89059 12.616C9.8981 12.2479 9.90561 11.8874 9.89059 11.5194C9.86806 11.1814 9.59016 10.9336 9.24466 10.9186C9.13951 10.9186 9.04186 10.9186 8.90667 10.9186C9.37234 10.6407 9.53758 10.3402 9.43243 9.9722C9.33479 9.6267 9.04187 9.39386 8.68886 9.40137C8.34337 9.40137 8.05795 9.63421 7.96782 9.9722C7.87018 10.3402 8.02792 10.6482 8.49359 10.9186V10.911Z" fill="#FFB422"/>
<path d="M16.1395 13.2692H15.118C15.5762 12.6608 16.0118 12.075 16.4625 11.4741C16.9131 12.075 17.3487 12.6533 17.8069 13.2692H16.8005V16.8068H16.132V13.2692H16.1395Z" fill="#0671B8"/>
<path d="M12.8348 17.3178C12.4293 16.8371 12.0387 16.3715 11.6331 15.8908C11.3852 16.1011 11.1374 16.3039 10.8595 16.5367C10.8144 15.7781 10.7769 15.0571 10.7318 14.291C11.4679 14.4638 12.1739 14.6215 12.925 14.7942C12.6471 15.0271 12.4067 15.2298 12.1513 15.4477C12.5494 15.9283 12.94 16.394 13.3531 16.8822C13.1803 17.0249 13.0226 17.1601 12.8348 17.3178Z" fill="#0671B8"/>
<path d="M21.3069 15.8908C20.9089 16.364 20.5183 16.8296 20.1127 17.3178C19.94 17.1751 19.7672 17.0324 19.5945 16.8897C20.0001 16.409 20.3906 15.9434 20.7962 15.4552C20.5408 15.2449 20.3005 15.0346 20.0226 14.8017C20.7662 14.629 21.4647 14.4638 22.2082 14.291C22.1707 15.0346 22.1256 15.7631 22.0881 16.5367C21.8177 16.3114 21.5773 16.1086 21.3144 15.8908H21.3069Z" fill="#0671B8"/>
</svg>
