<svg width="116" height="28" viewBox="0 0 116 28" fill="none" xmlns="http://www.w3.org/2000/svg">
<path d="M3.23242 9.74414H0.53924V1.01687H3.35174C4.19833 1.01687 4.92276 1.19158 5.52504 1.54102C6.12731 1.88761 6.58896 2.38619 6.90998 3.03675C7.231 3.68448 7.39151 4.46005 7.39151 5.36346C7.39151 6.27255 7.22958 7.05522 6.90572 7.71147C6.58185 8.36488 6.11026 8.86772 5.49094 9.21999C4.87163 9.56942 4.11879 9.74414 3.23242 9.74414ZM1.59606 8.80664H3.16424C3.88583 8.80664 4.48384 8.66744 4.95827 8.38903C5.43271 8.11062 5.7864 7.71431 6.01935 7.20011C6.25231 6.6859 6.36879 6.07369 6.36879 5.36346C6.36879 4.65891 6.25373 4.05238 6.02362 3.54386C5.7935 3.03249 5.44975 2.64045 4.99237 2.36772C4.53498 2.09215 3.96538 1.95437 3.28356 1.95437H1.59606V8.80664ZM9.02788 9.74414V3.19869H10.0336V9.74414H9.02788ZM9.53924 2.10778C9.34322 2.10778 9.17418 2.04102 9.03214 1.90749C8.89293 1.77397 8.82333 1.61346 8.82333 1.42596C8.82333 1.23846 8.89293 1.07795 9.03214 0.944424C9.17418 0.810902 9.34322 0.744141 9.53924 0.744141C9.73526 0.744141 9.90288 0.810902 10.0421 0.944424C10.1841 1.07795 10.2551 1.23846 10.2551 1.42596C10.2551 1.61346 10.1841 1.77397 10.0421 1.90749C9.90288 2.04102 9.73526 2.10778 9.53924 2.10778ZM16.5119 4.6646L15.6085 4.92028C15.5517 4.76971 15.4679 4.6234 15.3571 4.48136C15.2491 4.33647 15.1014 4.21715 14.9139 4.1234C14.7264 4.02965 14.4863 3.98278 14.1937 3.98278C13.7931 3.98278 13.4593 4.07511 13.1923 4.25977C12.9281 4.44158 12.796 4.67312 12.796 4.95437C12.796 5.20437 12.8869 5.40181 13.0687 5.5467C13.2505 5.69158 13.5346 5.81232 13.921 5.90891L14.8926 6.14755C15.4778 6.2896 15.9139 6.50692 16.2008 6.79954C16.4877 7.08931 16.6312 7.46289 16.6312 7.92028C16.6312 8.29528 16.5233 8.6305 16.3074 8.92596C16.0943 9.22141 15.796 9.45437 15.4125 9.62482C15.0289 9.79528 14.5829 9.8805 14.0744 9.8805C13.4068 9.8805 12.8542 9.73562 12.4167 9.44585C11.9792 9.15607 11.7022 8.73278 11.5858 8.17596L12.5403 7.93732C12.6312 8.2896 12.8031 8.5538 13.0559 8.72994C13.3116 8.90607 13.6454 8.99414 14.0574 8.99414C14.5261 8.99414 14.8983 8.89471 15.1738 8.69585C15.4522 8.49414 15.5914 8.25266 15.5914 7.97141C15.5914 7.74414 15.5119 7.5538 15.3528 7.40039C15.1937 7.24414 14.9494 7.12766 14.6199 7.05096L13.5289 6.79528C12.9295 6.65323 12.4892 6.43306 12.2079 6.13477C11.9295 5.83363 11.7903 5.45721 11.7903 5.0055C11.7903 4.63619 11.894 4.30948 12.1014 4.02539C12.3116 3.7413 12.5971 3.51829 12.9579 3.35636C13.3216 3.19442 13.7335 3.11346 14.1937 3.11346C14.8414 3.11346 15.35 3.2555 15.7193 3.53959C16.0914 3.82369 16.3556 4.19869 16.5119 4.6646ZM20.9917 3.19869V4.05096H17.5996V3.19869H20.9917ZM18.5882 1.6305H19.5939V7.86914C19.5939 8.15323 19.6351 8.3663 19.7175 8.50835C19.8027 8.64755 19.9107 8.7413 20.0414 8.7896C20.1749 8.83505 20.3155 8.85778 20.4632 8.85778C20.574 8.85778 20.665 8.8521 20.736 8.84073C20.807 8.82653 20.8638 8.81516 20.9064 8.80664L21.111 9.71005C21.0428 9.73562 20.9476 9.76119 20.8255 9.78675C20.7033 9.81516 20.5485 9.82937 20.361 9.82937C20.0769 9.82937 19.7985 9.76829 19.5257 9.64613C19.2559 9.52397 19.0314 9.33789 18.8525 9.08789C18.6763 8.83789 18.5882 8.52255 18.5882 8.14187V1.6305ZM22.5044 9.74414V3.19869H23.476V4.18732H23.5442C23.6635 3.86346 23.8794 3.60067 24.1919 3.39897C24.5044 3.19727 24.8567 3.09641 25.2488 3.09641C25.3226 3.09641 25.415 3.09783 25.5257 3.10067C25.6365 3.10352 25.7203 3.10778 25.7772 3.11346V4.13619C25.7431 4.12766 25.665 4.11488 25.5428 4.09783C25.4235 4.07795 25.2971 4.068 25.1635 4.068C24.8453 4.068 24.5613 4.13477 24.3113 4.26829C24.0641 4.39897 23.8681 4.58079 23.7232 4.81374C23.5811 5.04386 23.5101 5.30664 23.5101 5.6021V9.74414H22.5044ZM26.9693 9.74414V3.19869H27.975V9.74414H26.9693ZM27.4806 2.10778C27.2846 2.10778 27.1156 2.04102 26.9735 1.90749C26.8343 1.77397 26.7647 1.61346 26.7647 1.42596C26.7647 1.23846 26.8343 1.07795 26.9735 0.944424C27.1156 0.810902 27.2846 0.744141 27.4806 0.744141C27.6767 0.744141 27.8443 0.810902 27.9835 0.944424C28.1255 1.07795 28.1966 1.23846 28.1966 1.42596C28.1966 1.61346 28.1255 1.77397 27.9835 1.90749C27.8443 2.04102 27.6767 2.10778 27.4806 2.10778ZM29.9533 9.74414V1.01687H30.959V4.23846H31.0442C31.1181 4.12482 31.2203 3.97994 31.351 3.8038C31.4846 3.62482 31.6749 3.46573 31.9221 3.32653C32.1721 3.18448 32.5101 3.11346 32.9363 3.11346C33.4874 3.11346 33.9732 3.25124 34.3936 3.52681C34.8141 3.80238 35.1422 4.193 35.378 4.69869C35.6138 5.20437 35.7317 5.80096 35.7317 6.48846C35.7317 7.18164 35.6138 7.78249 35.378 8.29102C35.1422 8.7967 34.8155 9.18874 34.3979 9.46715C33.9803 9.74272 33.4988 9.8805 32.9533 9.8805C32.5328 9.8805 32.1962 9.8109 31.9434 9.6717C31.6905 9.52965 31.4959 9.36914 31.3596 9.19016C31.2232 9.00835 31.1181 8.85778 31.0442 8.73846H30.9249V9.74414H29.9533ZM30.9419 6.47141C30.9419 6.96573 31.0144 7.40181 31.1593 7.77965C31.3042 8.15465 31.5158 8.44869 31.7942 8.66175C32.0726 8.87198 32.4135 8.9771 32.8169 8.9771C33.2374 8.9771 33.5882 8.8663 33.8695 8.64471C34.1536 8.42028 34.3667 8.11914 34.5087 7.7413C34.6536 7.36062 34.726 6.93732 34.726 6.47141C34.726 6.01119 34.655 5.59641 34.513 5.2271C34.3738 4.85494 34.1621 4.5609 33.878 4.34499C33.5968 4.12624 33.2431 4.01687 32.8169 4.01687C32.4078 4.01687 32.0641 4.12056 31.7857 4.32795C31.5073 4.53249 31.2971 4.81942 31.155 5.18874C31.013 5.55522 30.9419 5.98278 30.9419 6.47141ZM41.3951 7.068V3.19869H42.4007V9.74414H41.3951V8.63619H41.3269C41.1735 8.96857 40.9348 9.25124 40.611 9.4842C40.2871 9.71431 39.878 9.82937 39.3837 9.82937C38.9746 9.82937 38.611 9.73988 38.2928 9.5609C37.9746 9.37908 37.7246 9.10636 37.5428 8.74272C37.361 8.37624 37.2701 7.9146 37.2701 7.35778V3.19869H38.2757V7.2896C38.2757 7.76687 38.4093 8.14755 38.6763 8.43164C38.9462 8.71573 39.29 8.85778 39.7076 8.85778C39.9576 8.85778 40.2118 8.79386 40.4703 8.66602C40.7317 8.53817 40.9505 8.34215 41.1266 8.07795C41.3056 7.81374 41.3951 7.4771 41.3951 7.068ZM47.0893 3.19869V4.05096H43.6973V3.19869H47.0893ZM44.6859 1.6305H45.6916V7.86914C45.6916 8.15323 45.7328 8.3663 45.8152 8.50835C45.9004 8.64755 46.0083 8.7413 46.139 8.7896C46.2725 8.83505 46.4132 8.85778 46.5609 8.85778C46.6717 8.85778 46.7626 8.8521 46.8336 8.84073C46.9047 8.82653 46.9615 8.81516 47.0041 8.80664L47.2086 9.71005C47.1404 9.73562 47.0453 9.76119 46.9231 9.78675C46.801 9.81516 46.6461 9.82937 46.4586 9.82937C46.1745 9.82937 45.8961 9.76829 45.6234 9.64613C45.3535 9.52397 45.1291 9.33789 44.9501 9.08789C44.774 8.83789 44.6859 8.52255 44.6859 8.14187V1.6305ZM51.1909 9.8805C50.6 9.8805 50.0815 9.73988 49.6355 9.45863C49.1923 9.17738 48.8457 8.78391 48.5957 8.27823C48.3485 7.77255 48.225 7.18164 48.225 6.5055C48.225 5.82369 48.3485 5.22852 48.5957 4.71999C48.8457 4.21147 49.1923 3.81658 49.6355 3.53533C50.0815 3.25408 50.6 3.11346 51.1909 3.11346C51.7818 3.11346 52.2988 3.25408 52.742 3.53533C53.188 3.81658 53.5346 4.21147 53.7818 4.71999C54.0318 5.22852 54.1568 5.82369 54.1568 6.5055C54.1568 7.18164 54.0318 7.77255 53.7818 8.27823C53.5346 8.78391 53.188 9.17738 52.742 9.45863C52.2988 9.73988 51.7818 9.8805 51.1909 9.8805ZM51.1909 8.9771C51.6397 8.9771 52.0091 8.86204 52.2988 8.63192C52.5886 8.40181 52.8031 8.09925 52.9423 7.72425C53.0815 7.34925 53.1511 6.943 53.1511 6.5055C53.1511 6.068 53.0815 5.66033 52.9423 5.28249C52.8031 4.90465 52.5886 4.59925 52.2988 4.3663C52.0091 4.13334 51.6397 4.01687 51.1909 4.01687C50.742 4.01687 50.3727 4.13334 50.0829 4.3663C49.7931 4.59925 49.5787 4.90465 49.4395 5.28249C49.3002 5.66033 49.2306 6.068 49.2306 6.5055C49.2306 6.943 49.3002 7.34925 49.4395 7.72425C49.5787 8.09925 49.7931 8.40181 50.0829 8.63192C50.3727 8.86204 50.742 8.9771 51.1909 8.9771ZM55.6919 9.74414V3.19869H56.6635V4.18732H56.7317C56.851 3.86346 57.0669 3.60067 57.3794 3.39897C57.6919 3.19727 58.0442 3.09641 58.4363 3.09641C58.5101 3.09641 58.6025 3.09783 58.7132 3.10067C58.824 3.10352 58.9078 3.10778 58.9647 3.11346V4.13619C58.9306 4.12766 58.8525 4.11488 58.7303 4.09783C58.611 4.07795 58.4846 4.068 58.351 4.068C58.0328 4.068 57.7488 4.13477 57.4988 4.26829C57.2516 4.39897 57.0556 4.58079 56.9107 4.81374C56.7686 5.04386 56.6976 5.30664 56.6976 5.6021V9.74414H55.6919ZM64.7931 4.6646L63.8897 4.92028C63.8329 4.76971 63.7491 4.6234 63.6383 4.48136C63.5304 4.33647 63.3826 4.21715 63.1951 4.1234C63.0076 4.02965 62.7676 3.98278 62.475 3.98278C62.0744 3.98278 61.7406 4.07511 61.4735 4.25977C61.2093 4.44158 61.0772 4.67312 61.0772 4.95437C61.0772 5.20437 61.1681 5.40181 61.35 5.5467C61.5318 5.69158 61.8159 5.81232 62.2022 5.90891L63.1738 6.14755C63.7591 6.2896 64.1951 6.50692 64.4821 6.79954C64.769 7.08931 64.9125 7.46289 64.9125 7.92028C64.9125 8.29528 64.8045 8.6305 64.5886 8.92596C64.3755 9.22141 64.0772 9.45437 63.6937 9.62482C63.3102 9.79528 62.8642 9.8805 62.3556 9.8805C61.688 9.8805 61.1355 9.73562 60.698 9.44585C60.2605 9.15607 59.9835 8.73278 59.867 8.17596L60.8216 7.93732C60.9125 8.2896 61.0843 8.5538 61.3372 8.72994C61.5929 8.90607 61.9267 8.99414 62.3386 8.99414C62.8074 8.99414 63.1795 8.89471 63.4551 8.69585C63.7335 8.49414 63.8727 8.25266 63.8727 7.97141C63.8727 7.74414 63.7931 7.5538 63.6341 7.40039C63.475 7.24414 63.2306 7.12766 62.9011 7.05096L61.8102 6.79528C61.2108 6.65323 60.7704 6.43306 60.4892 6.13477C60.2108 5.83363 60.0716 5.45721 60.0716 5.0055C60.0716 4.63619 60.1752 4.30948 60.3826 4.02539C60.5929 3.7413 60.8784 3.51829 61.2392 3.35636C61.6028 3.19442 62.0147 3.11346 62.475 3.11346C63.1227 3.11346 63.6312 3.2555 64.0005 3.53959C64.3727 3.82369 64.6369 4.19869 64.7931 4.6646ZM77.3013 5.3805C77.3013 6.30096 77.1351 7.09641 76.8027 7.76687C76.4703 8.43732 76.0144 8.95437 75.4348 9.318C74.8553 9.68164 74.1934 9.86346 73.449 9.86346C72.7047 9.86346 72.0428 9.68164 71.4632 9.318C70.8837 8.95437 70.4277 8.43732 70.0953 7.76687C69.763 7.09641 69.5968 6.30096 69.5968 5.3805C69.5968 4.46005 69.763 3.6646 70.0953 2.99414C70.4277 2.32369 70.8837 1.80664 71.4632 1.443C72.0428 1.07937 72.7047 0.897549 73.449 0.897549C74.1934 0.897549 74.8553 1.07937 75.4348 1.443C76.0144 1.80664 76.4703 2.32369 76.8027 2.99414C77.1351 3.6646 77.3013 4.46005 77.3013 5.3805ZM76.2786 5.3805C76.2786 4.62482 76.1522 3.98704 75.8993 3.46715C75.6493 2.94727 75.3098 2.5538 74.8809 2.28675C74.4547 2.01971 73.9775 1.88619 73.449 1.88619C72.9206 1.88619 72.4419 2.01971 72.013 2.28675C71.5868 2.5538 71.2473 2.94727 70.9945 3.46715C70.7445 3.98704 70.6195 4.62482 70.6195 5.3805C70.6195 6.13619 70.7445 6.77397 70.9945 7.29386C71.2473 7.81374 71.5868 8.20721 72.013 8.47425C72.4419 8.7413 72.9206 8.87482 73.449 8.87482C73.9775 8.87482 74.4547 8.7413 74.8809 8.47425C75.3098 8.20721 75.6493 7.81374 75.8993 7.29386C76.1522 6.77397 76.2786 6.13619 76.2786 5.3805ZM78.9419 12.1987V3.19869H79.9135V4.23846H80.0328C80.1067 4.12482 80.209 3.97994 80.3397 3.8038C80.4732 3.62482 80.6635 3.46573 80.9107 3.32653C81.1607 3.18448 81.4988 3.11346 81.9249 3.11346C82.476 3.11346 82.9618 3.25124 83.3823 3.52681C83.8027 3.80238 84.1309 4.193 84.3667 4.69869C84.6025 5.20437 84.7203 5.80096 84.7203 6.48846C84.7203 7.18164 84.6025 7.78249 84.3667 8.29102C84.1309 8.7967 83.8042 9.18874 83.3865 9.46715C82.9689 9.74272 82.4874 9.8805 81.9419 9.8805C81.5215 9.8805 81.1848 9.8109 80.932 9.6717C80.6792 9.52965 80.4846 9.36914 80.3482 9.19016C80.2118 9.00835 80.1067 8.85778 80.0328 8.73846H79.9476V12.1987H78.9419ZM79.9306 6.47141C79.9306 6.96573 80.003 7.40181 80.1479 7.77965C80.2928 8.15465 80.5044 8.44869 80.7828 8.66175C81.0613 8.87198 81.4022 8.9771 81.8056 8.9771C82.226 8.9771 82.5769 8.8663 82.8581 8.64471C83.1422 8.42028 83.3553 8.11914 83.4973 7.7413C83.6422 7.36062 83.7147 6.93732 83.7147 6.47141C83.7147 6.01119 83.6436 5.59641 83.5016 5.2271C83.3624 4.85494 83.1507 4.5609 82.8667 4.34499C82.5854 4.12624 82.2317 4.01687 81.8056 4.01687C81.3965 4.01687 81.0527 4.12056 80.7743 4.32795C80.4959 4.53249 80.2857 4.81942 80.1436 5.18874C80.0016 5.55522 79.9306 5.98278 79.9306 6.47141ZM88.9988 9.8805C88.3681 9.8805 87.824 9.7413 87.3667 9.46289C86.9121 9.18164 86.5613 8.7896 86.3141 8.28675C86.0698 7.78107 85.9476 7.193 85.9476 6.52255C85.9476 5.8521 86.0698 5.26119 86.3141 4.74982C86.5613 4.23562 86.905 3.83505 87.3453 3.54812C87.7885 3.25835 88.3056 3.11346 88.8965 3.11346C89.2374 3.11346 89.574 3.17028 89.9064 3.28391C90.2388 3.39755 90.5414 3.58221 90.8141 3.83789C91.0868 4.09073 91.3042 4.42596 91.4661 4.84357C91.628 5.26119 91.709 5.77539 91.709 6.38619V6.81232H86.6635V5.943H90.6863C90.6863 5.57369 90.6124 5.24414 90.4647 4.95437C90.3198 4.66459 90.1124 4.4359 89.8425 4.26829C89.5755 4.10067 89.2601 4.01687 88.8965 4.01687C88.4959 4.01687 88.1493 4.1163 87.8567 4.31516C87.5669 4.51119 87.3439 4.76687 87.1877 5.08221C87.0314 5.39755 86.9533 5.73562 86.9533 6.09641V6.67596C86.9533 7.17028 87.0385 7.58931 87.209 7.93306C87.3823 8.27397 87.6223 8.53391 87.9292 8.71289C88.236 8.88903 88.5925 8.9771 88.9988 8.9771C89.263 8.9771 89.5016 8.94016 89.7147 8.8663C89.9306 8.7896 90.1167 8.67596 90.2729 8.52539C90.4292 8.37198 90.5499 8.18164 90.6351 7.95437L91.6067 8.2271C91.5044 8.55664 91.3326 8.84641 91.0911 9.09641C90.8496 9.34357 90.5513 9.53675 90.1962 9.67596C89.8411 9.81232 89.4419 9.8805 88.9988 9.8805ZM94.2445 5.80664V9.74414H93.2388V3.19869H94.2104V4.22141H94.2956C94.449 3.88903 94.682 3.62198 94.9945 3.42028C95.307 3.21573 95.7104 3.11346 96.2047 3.11346C96.6479 3.11346 97.0357 3.20437 97.3681 3.38619C97.7005 3.56516 97.959 3.83789 98.1436 4.20437C98.3283 4.568 98.4206 5.02823 98.4206 5.58505V9.74414H97.415V5.65323C97.415 5.13903 97.2814 4.73846 97.0144 4.45153C96.7473 4.16175 96.3809 4.01687 95.915 4.01687C95.5939 4.01687 95.307 4.08647 95.0542 4.22567C94.8042 4.36488 94.6067 4.568 94.4618 4.83505C94.3169 5.10209 94.2445 5.42596 94.2445 5.80664ZM100.258 9.74414V3.19869H101.264V9.74414H100.258ZM100.77 2.10778C100.574 2.10778 100.405 2.04102 100.263 1.90749C100.123 1.77397 100.054 1.61346 100.054 1.42596C100.054 1.23846 100.123 1.07795 100.263 0.944424C100.405 0.810902 100.574 0.744141 100.77 0.744141C100.966 0.744141 101.133 0.810902 101.273 0.944424C101.415 1.07795 101.486 1.23846 101.486 1.42596C101.486 1.61346 101.415 1.77397 101.273 1.90749C101.133 2.04102 100.966 2.10778 100.77 2.10778ZM104.112 5.80664V9.74414H103.106V3.19869H104.078V4.22141H104.163C104.316 3.88903 104.549 3.62198 104.862 3.42028C105.174 3.21573 105.578 3.11346 106.072 3.11346C106.515 3.11346 106.903 3.20437 107.235 3.38619C107.568 3.56516 107.826 3.83789 108.011 4.20437C108.195 4.568 108.288 5.02823 108.288 5.58505V9.74414H107.282V5.65323C107.282 5.13903 107.149 4.73846 106.882 4.45153C106.615 4.16175 106.248 4.01687 105.782 4.01687C105.461 4.01687 105.174 4.08647 104.921 4.22567C104.671 4.36488 104.474 4.568 104.329 4.83505C104.184 5.10209 104.112 5.42596 104.112 5.80664ZM112.768 12.335C112.282 12.335 111.864 12.2725 111.515 12.1475C111.165 12.0254 110.874 11.8635 110.641 11.6618C110.411 11.4629 110.228 11.2498 110.091 11.0225L110.893 10.46C110.983 10.5794 111.099 10.7157 111.238 10.8691C111.377 11.0254 111.567 11.1603 111.809 11.274C112.053 11.3904 112.373 11.4487 112.768 11.4487C113.296 11.4487 113.732 11.3208 114.076 11.0652C114.42 10.8095 114.591 10.4089 114.591 9.86346V8.53391H114.506C114.432 8.65323 114.327 8.80096 114.191 8.9771C114.057 9.15039 113.864 9.30522 113.611 9.44158C113.361 9.57511 113.023 9.64187 112.597 9.64187C112.069 9.64187 111.594 9.51687 111.174 9.26687C110.756 9.01687 110.425 8.65323 110.181 8.17596C109.939 7.69869 109.819 7.11914 109.819 6.43732C109.819 5.76687 109.937 5.18306 110.172 4.6859C110.408 4.1859 110.736 3.79954 111.157 3.52681C111.577 3.25124 112.063 3.11346 112.614 3.11346C113.04 3.11346 113.378 3.18448 113.628 3.32653C113.881 3.46573 114.074 3.62482 114.208 3.8038C114.344 3.97994 114.449 4.12482 114.523 4.23846H114.626V3.19869H115.597V9.93164C115.597 10.4941 115.469 10.9515 115.214 11.3038C114.961 11.6589 114.62 11.9189 114.191 12.0836C113.765 12.2512 113.29 12.335 112.768 12.335ZM112.733 8.73846C113.137 8.73846 113.478 8.64613 113.756 8.46147C114.035 8.27681 114.246 8.01119 114.391 7.6646C114.536 7.318 114.608 6.90323 114.608 6.42028C114.608 5.94869 114.537 5.53249 114.395 5.1717C114.253 4.8109 114.043 4.52823 113.765 4.32369C113.486 4.11914 113.143 4.01687 112.733 4.01687C112.307 4.01687 111.952 4.12482 111.668 4.34073C111.387 4.55664 111.175 4.84641 111.033 5.21005C110.894 5.57369 110.824 5.9771 110.824 6.42028C110.824 6.87482 110.895 7.27681 111.037 7.62624C111.182 7.97283 111.395 8.24556 111.677 8.44442C111.961 8.64045 112.313 8.73846 112.733 8.73846ZM33.5121 16.0169V24.7441H32.4553V16.0169H33.5121ZM36.5004 20.8066V24.7441H35.4947V18.1987H36.4663V19.2214H36.5515C36.7049 18.889 36.9379 18.622 37.2504 18.4203C37.5629 18.2157 37.9663 18.1135 38.4606 18.1135C38.9038 18.1135 39.2915 18.2044 39.6239 18.3862C39.9563 18.5652 40.2148 18.8379 40.3995 19.2044C40.5842 19.568 40.6765 20.0282 40.6765 20.585V24.7441H39.6708V20.6532C39.6708 20.139 39.5373 19.7385 39.2702 19.4515C39.0032 19.1618 38.6367 19.0169 38.1708 19.0169C37.8498 19.0169 37.5629 19.0865 37.31 19.2257C37.06 19.3649 36.8626 19.568 36.7177 19.835C36.5728 20.1021 36.5004 20.426 36.5004 20.8066ZM47.6321 18.1987L45.2116 24.7441H44.1889L41.7685 18.1987H42.8594L44.6662 23.4146H44.7344L46.5412 18.1987H47.6321ZM51.4695 24.8805C50.8388 24.8805 50.2947 24.7413 49.8374 24.4629C49.3828 24.1816 49.032 23.7896 48.7848 23.2868C48.5405 22.7811 48.4183 22.193 48.4183 21.5225C48.4183 20.8521 48.5405 20.2612 48.7848 19.7498C49.032 19.2356 49.3757 18.835 49.8161 18.5481C50.2592 18.2583 50.7763 18.1135 51.3672 18.1135C51.7081 18.1135 52.0447 18.1703 52.3771 18.2839C52.7095 18.3975 53.0121 18.5822 53.2848 18.8379C53.5575 19.0907 53.7749 19.426 53.9368 19.8436C54.0987 20.2612 54.1797 20.7754 54.1797 21.3862V21.8123H49.1342V20.943H53.157C53.157 20.5737 53.0831 20.2441 52.9354 19.9544C52.7905 19.6646 52.5831 19.4359 52.3132 19.2683C52.0462 19.1007 51.7308 19.0169 51.3672 19.0169C50.9666 19.0169 50.62 19.1163 50.3274 19.3152C50.0376 19.5112 49.8146 19.7669 49.6584 20.0822C49.5021 20.3975 49.424 20.7356 49.424 21.0964V21.676C49.424 22.1703 49.5092 22.5893 49.6797 22.9331C49.853 23.274 50.093 23.5339 50.3999 23.7129C50.7067 23.889 51.0632 23.9771 51.4695 23.9771C51.7337 23.9771 51.9723 23.9402 52.1854 23.8663C52.4013 23.7896 52.5874 23.676 52.7436 23.5254C52.8999 23.372 53.0206 23.1816 53.1058 22.9544L54.0774 23.2271C53.9751 23.5566 53.8033 23.8464 53.5618 24.0964C53.3203 24.3436 53.022 24.5368 52.6669 24.676C52.3118 24.8123 51.9126 24.8805 51.4695 24.8805ZM56.7152 20.8066V24.7441H55.7095V18.1987H56.6811V19.2214H56.7663C56.9197 18.889 57.1527 18.622 57.4652 18.4203C57.7777 18.2157 58.1811 18.1135 58.6754 18.1135C59.1186 18.1135 59.5064 18.2044 59.8388 18.3862C60.1712 18.5652 60.4297 18.8379 60.6143 19.2044C60.799 19.568 60.8913 20.0282 60.8913 20.585V24.7441H59.8857V20.6532C59.8857 20.139 59.7521 19.7385 59.4851 19.4515C59.218 19.1618 58.8516 19.0169 58.3857 19.0169C58.0646 19.0169 57.7777 19.0865 57.5249 19.2257C57.2749 19.3649 57.0774 19.568 56.9325 19.835C56.7876 20.1021 56.7152 20.426 56.7152 20.8066ZM65.5756 18.1987V19.051H62.1836V18.1987H65.5756ZM63.1722 16.6305H64.1779V22.8691C64.1779 23.1532 64.2191 23.3663 64.3015 23.5083C64.3867 23.6475 64.4947 23.7413 64.6254 23.7896C64.7589 23.835 64.8995 23.8578 65.0472 23.8578C65.158 23.8578 65.2489 23.8521 65.32 23.8407C65.391 23.8265 65.4478 23.8152 65.4904 23.8066L65.695 24.71C65.6268 24.7356 65.5316 24.7612 65.4094 24.7868C65.2873 24.8152 65.1325 24.8294 64.945 24.8294C64.6609 24.8294 64.3825 24.7683 64.1097 24.6461C63.8398 24.524 63.6154 24.3379 63.4364 24.0879C63.2603 23.8379 63.1722 23.5225 63.1722 23.1419V16.6305ZM69.6772 24.8805C69.0863 24.8805 68.5678 24.7399 68.1218 24.4586C67.6786 24.1774 67.332 23.7839 67.082 23.2782C66.8349 22.7725 66.7113 22.1816 66.7113 21.5055C66.7113 20.8237 66.8349 20.2285 67.082 19.72C67.332 19.2115 67.6786 18.8166 68.1218 18.5353C68.5678 18.2541 69.0863 18.1135 69.6772 18.1135C70.2681 18.1135 70.7852 18.2541 71.2283 18.5353C71.6744 18.8166 72.021 19.2115 72.2681 19.72C72.5181 20.2285 72.6431 20.8237 72.6431 21.5055C72.6431 22.1816 72.5181 22.7725 72.2681 23.2782C72.021 23.7839 71.6744 24.1774 71.2283 24.4586C70.7852 24.7399 70.2681 24.8805 69.6772 24.8805ZM69.6772 23.9771C70.1261 23.9771 70.4954 23.862 70.7852 23.6319C71.0749 23.4018 71.2894 23.0993 71.4286 22.7243C71.5678 22.3493 71.6374 21.943 71.6374 21.5055C71.6374 21.068 71.5678 20.6603 71.4286 20.2825C71.2894 19.9047 71.0749 19.5993 70.7852 19.3663C70.4954 19.1333 70.1261 19.0169 69.6772 19.0169C69.2283 19.0169 68.859 19.1333 68.5692 19.3663C68.2795 19.5993 68.065 19.9047 67.9258 20.2825C67.7866 20.6603 67.717 21.068 67.717 21.5055C67.717 21.943 67.7866 22.3493 67.9258 22.7243C68.065 23.0993 68.2795 23.4018 68.5692 23.6319C68.859 23.862 69.2283 23.9771 69.6772 23.9771ZM74.1783 24.7441V18.1987H75.1499V19.1873H75.218C75.3374 18.8635 75.5533 18.6007 75.8658 18.399C76.1783 18.1973 76.5305 18.0964 76.9226 18.0964C76.9964 18.0964 77.0888 18.0978 77.1996 18.1007C77.3104 18.1035 77.3942 18.1078 77.451 18.1135V19.1362C77.4169 19.1277 77.3388 19.1149 77.2166 19.0978C77.0973 19.0779 76.9709 19.068 76.8374 19.068C76.5192 19.068 76.2351 19.1348 75.9851 19.2683C75.7379 19.399 75.5419 19.5808 75.397 19.8137C75.255 20.0439 75.1839 20.3066 75.1839 20.6021V24.7441H74.1783ZM79.4901 27.1987C79.3196 27.1987 79.1676 27.1845 79.0341 27.1561C78.9006 27.1305 78.8082 27.1049 78.7571 27.0794L79.0128 26.193C79.2571 26.2555 79.473 26.2782 79.6605 26.2612C79.848 26.2441 80.0142 26.1603 80.1591 26.0098C80.3068 25.862 80.4418 25.622 80.5639 25.2896L80.7514 24.7782L78.331 18.1987H79.4219L81.2287 23.4146H81.2969L83.1037 18.1987H84.1946L81.4162 25.6987C81.2912 26.0368 81.1364 26.3166 80.9517 26.5382C80.767 26.7626 80.5526 26.9288 80.3082 27.0368C80.0668 27.1447 79.794 27.1987 79.4901 27.1987Z" fill="black"/>
</svg>
