<svg width="109" height="25" viewBox="0 0 109 25" fill="none" xmlns="http://www.w3.org/2000/svg">
<path d="M3.14648 9.44629H0.453303V0.719016H3.2658C4.11239 0.719016 4.83683 0.893732 5.4391 1.24316C6.04137 1.58975 6.50302 2.08833 6.82404 2.7389C7.14506 3.38663 7.30558 4.1622 7.30558 5.06561C7.30558 5.9747 7.14364 6.75737 6.81978 7.41362C6.49592 8.06703 6.02433 8.56987 5.40501 8.92214C4.78569 9.27157 4.03285 9.44629 3.14648 9.44629ZM1.51012 8.50879H3.0783C3.79989 8.50879 4.3979 8.36958 4.87234 8.09118C5.34677 7.81277 5.70046 7.41646 5.93342 6.90225C6.16637 6.38805 6.28285 5.77583 6.28285 5.06561C6.28285 4.36106 6.16779 3.75453 5.93768 3.246C5.70756 2.73464 5.36381 2.3426 4.90643 2.06987C4.44904 1.7943 3.87944 1.65652 3.19762 1.65652H1.51012V8.50879ZM8.94194 9.44629V2.90083H9.94762V9.44629H8.94194ZM9.4533 1.80993C9.25728 1.80993 9.08825 1.74316 8.9462 1.60964C8.807 1.47612 8.73739 1.31561 8.73739 1.12811C8.73739 0.940607 8.807 0.780096 8.9462 0.646573C9.08825 0.51305 9.25728 0.446289 9.4533 0.446289C9.64933 0.446289 9.81694 0.51305 9.95614 0.646573C10.0982 0.780096 10.1692 0.940607 10.1692 1.12811C10.1692 1.31561 10.0982 1.47612 9.95614 1.60964C9.81694 1.74316 9.64933 1.80993 9.4533 1.80993ZM16.426 4.36674L15.5225 4.62243C15.4657 4.47186 15.3819 4.32555 15.2711 4.1835C15.1632 4.03862 15.0154 3.9193 14.8279 3.82555C14.6404 3.7318 14.4004 3.68493 14.1078 3.68493C13.7072 3.68493 13.3734 3.77725 13.1064 3.96191C12.8422 4.14373 12.71 4.37527 12.71 4.65652C12.71 4.90652 12.801 5.10396 12.9828 5.24885C13.1646 5.39373 13.4487 5.51447 13.835 5.61106L14.8066 5.8497C15.3919 5.99174 15.8279 6.20907 16.1149 6.50169C16.4018 6.79146 16.5453 7.16504 16.5453 7.62243C16.5453 7.99743 16.4373 8.33265 16.2214 8.62811C16.0083 8.92356 15.71 9.15652 15.3265 9.32697C14.943 9.49743 14.497 9.58265 13.9885 9.58265C13.3208 9.58265 12.7683 9.43777 12.3308 9.14799C11.8933 8.85822 11.6163 8.43493 11.4998 7.87811L12.4544 7.63947C12.5453 7.99174 12.7172 8.25595 12.97 8.43208C13.2257 8.60822 13.5595 8.69629 13.9714 8.69629C14.4402 8.69629 14.8123 8.59686 15.0879 8.39799C15.3663 8.19629 15.5055 7.95481 15.5055 7.67356C15.5055 7.44629 15.426 7.25595 15.2669 7.10254C15.1078 6.94629 14.8635 6.82981 14.5339 6.75311L13.443 6.49743C12.8436 6.35538 12.4032 6.13521 12.122 5.83691C11.8436 5.53578 11.7044 5.15936 11.7044 4.70765C11.7044 4.33833 11.8081 4.01163 12.0154 3.72754C12.2257 3.44345 12.5112 3.22044 12.872 3.0585C13.2356 2.89657 13.6475 2.81561 14.1078 2.81561C14.7555 2.81561 15.264 2.95765 15.6333 3.24174C16.0055 3.52583 16.2697 3.90083 16.426 4.36674ZM20.9057 2.90083V3.75311H17.5137V2.90083H20.9057ZM18.5023 1.33265H19.508V7.57129C19.508 7.85538 19.5492 8.06845 19.6316 8.21049C19.7168 8.3497 19.8248 8.44345 19.9554 8.49174C20.089 8.5372 20.2296 8.55993 20.3773 8.55993C20.4881 8.55993 20.579 8.55424 20.65 8.54288C20.7211 8.52868 20.7779 8.51731 20.8205 8.50879L21.025 9.4122C20.9569 9.43777 20.8617 9.46333 20.7395 9.4889C20.6174 9.51731 20.4625 9.53152 20.275 9.53152C19.9909 9.53152 19.7125 9.47044 19.4398 9.34828C19.1699 9.22612 18.9455 9.04004 18.7665 8.79004C18.5904 8.54004 18.5023 8.2247 18.5023 7.84402V1.33265ZM22.4185 9.44629V2.90083H23.3901V3.88947H23.4583C23.5776 3.56561 23.7935 3.30282 24.106 3.10112C24.4185 2.89941 24.7708 2.79856 25.1628 2.79856C25.2367 2.79856 25.329 2.79998 25.4398 2.80282C25.5506 2.80566 25.6344 2.80993 25.6912 2.81561V3.83833C25.6571 3.82981 25.579 3.81703 25.4569 3.79998C25.3375 3.7801 25.2111 3.77015 25.0776 3.77015C24.7594 3.77015 24.4753 3.83691 24.2253 3.97044C23.9782 4.10112 23.7821 4.28294 23.6373 4.51589C23.4952 4.746 23.4242 5.00879 23.4242 5.30424V9.44629H22.4185ZM26.8833 9.44629V2.90083H27.889V9.44629H26.8833ZM27.3947 1.80993C27.1987 1.80993 27.0297 1.74316 26.8876 1.60964C26.7484 1.47612 26.6788 1.31561 26.6788 1.12811C26.6788 0.940607 26.7484 0.780096 26.8876 0.646573C27.0297 0.51305 27.1987 0.446289 27.3947 0.446289C27.5907 0.446289 27.7583 0.51305 27.8975 0.646573C28.0396 0.780096 28.1106 0.940607 28.1106 1.12811C28.1106 1.31561 28.0396 1.47612 27.8975 1.60964C27.7583 1.74316 27.5907 1.80993 27.3947 1.80993ZM29.8674 9.44629V0.719016H30.873V3.94061H30.9583C31.0321 3.82697 31.1344 3.68208 31.2651 3.50595C31.3986 3.32697 31.589 3.16788 31.8361 3.02868C32.0861 2.88663 32.4242 2.81561 32.8503 2.81561C33.4015 2.81561 33.8873 2.95339 34.3077 3.22896C34.7282 3.50453 35.0563 3.89515 35.2921 4.40083C35.5279 4.90652 35.6458 5.50311 35.6458 6.19061C35.6458 6.88379 35.5279 7.48464 35.2921 7.99316C35.0563 8.49885 34.7296 8.89089 34.312 9.1693C33.8944 9.44487 33.4128 9.58265 32.8674 9.58265C32.4469 9.58265 32.1103 9.51305 31.8574 9.37385C31.6046 9.2318 31.41 9.07129 31.2736 8.89231C31.1373 8.71049 31.0321 8.55993 30.9583 8.44061H30.839V9.44629H29.8674ZM30.856 6.17356C30.856 6.66788 30.9284 7.10396 31.0733 7.4818C31.2182 7.8568 31.4299 8.15083 31.7083 8.3639C31.9867 8.57413 32.3276 8.67924 32.731 8.67924C33.1515 8.67924 33.5023 8.56845 33.7836 8.34686C34.0676 8.12243 34.2807 7.82129 34.4228 7.44345C34.5676 7.06277 34.6401 6.63947 34.6401 6.17356C34.6401 5.71333 34.5691 5.29856 34.427 4.92924C34.2878 4.55708 34.0762 4.26305 33.7921 4.04714C33.5108 3.82839 33.1571 3.71902 32.731 3.71902C32.3219 3.71902 31.9782 3.82271 31.6998 4.0301C31.4213 4.23464 31.2111 4.52157 31.0691 4.89089C30.927 5.25737 30.856 5.68493 30.856 6.17356ZM41.3091 6.77015V2.90083H42.3148V9.44629H41.3091V8.33833H41.2409C41.0875 8.67072 40.8489 8.95339 40.525 9.18635C40.2012 9.41646 39.7921 9.53152 39.2978 9.53152C38.8887 9.53152 38.525 9.44203 38.2069 9.26305C37.8887 9.08123 37.6387 8.8085 37.4569 8.44487C37.275 8.07839 37.1841 7.61674 37.1841 7.05993V2.90083H38.1898V6.99174C38.1898 7.46902 38.3233 7.8497 38.5904 8.13379C38.8603 8.41788 39.204 8.55993 39.6216 8.55993C39.8716 8.55993 40.1259 8.496 40.3844 8.36816C40.6458 8.24032 40.8645 8.0443 41.0407 7.7801C41.2196 7.51589 41.3091 7.17924 41.3091 6.77015ZM47.0034 2.90083V3.75311H43.6113V2.90083H47.0034ZM44.6 1.33265H45.6056V7.57129C45.6056 7.85538 45.6468 8.06845 45.7292 8.21049C45.8145 8.3497 45.9224 8.44345 46.0531 8.49174C46.1866 8.5372 46.3272 8.55993 46.475 8.55993C46.5858 8.55993 46.6767 8.55424 46.7477 8.54288C46.8187 8.52868 46.8755 8.51731 46.9181 8.50879L47.1227 9.4122C47.0545 9.43777 46.9593 9.46333 46.8372 9.4889C46.715 9.51731 46.5602 9.53152 46.3727 9.53152C46.0886 9.53152 45.8102 9.47044 45.5375 9.34828C45.2676 9.22612 45.0431 9.04004 44.8642 8.79004C44.688 8.54004 44.6 8.2247 44.6 7.84402V1.33265ZM51.1049 9.58265C50.514 9.58265 49.9956 9.44203 49.5495 9.16078C49.1064 8.87953 48.7598 8.48606 48.5098 7.98038C48.2626 7.4747 48.139 6.88379 48.139 6.20765C48.139 5.52583 48.2626 4.93066 48.5098 4.42214C48.7598 3.91362 49.1064 3.51873 49.5495 3.23748C49.9956 2.95623 50.514 2.81561 51.1049 2.81561C51.6958 2.81561 52.2129 2.95623 52.6561 3.23748C53.1021 3.51873 53.4487 3.91362 53.6958 4.42214C53.9458 4.93066 54.0708 5.52583 54.0708 6.20765C54.0708 6.88379 53.9458 7.4747 53.6958 7.98038C53.4487 8.48606 53.1021 8.87953 52.6561 9.16078C52.2129 9.44203 51.6958 9.58265 51.1049 9.58265ZM51.1049 8.67924C51.5538 8.67924 51.9231 8.56419 52.2129 8.33407C52.5027 8.10396 52.7172 7.8014 52.8564 7.4264C52.9956 7.0514 53.0652 6.64515 53.0652 6.20765C53.0652 5.77015 52.9956 5.36248 52.8564 4.98464C52.7172 4.6068 52.5027 4.3014 52.2129 4.06845C51.9231 3.83549 51.5538 3.71902 51.1049 3.71902C50.6561 3.71902 50.2868 3.83549 49.997 4.06845C49.7072 4.3014 49.4927 4.6068 49.3535 4.98464C49.2143 5.36248 49.1447 5.77015 49.1447 6.20765C49.1447 6.64515 49.2143 7.0514 49.3535 7.4264C49.4927 7.8014 49.7072 8.10396 49.997 8.33407C50.2868 8.56419 50.6561 8.67924 51.1049 8.67924ZM55.606 9.44629V2.90083H56.5776V3.88947H56.6458C56.7651 3.56561 56.981 3.30282 57.2935 3.10112C57.606 2.89941 57.9583 2.79856 58.3503 2.79856C58.4242 2.79856 58.5165 2.79998 58.6273 2.80282C58.7381 2.80566 58.8219 2.80993 58.8787 2.81561V3.83833C58.8446 3.82981 58.7665 3.81703 58.6444 3.79998C58.525 3.7801 58.3986 3.77015 58.2651 3.77015C57.9469 3.77015 57.6628 3.83691 57.4128 3.97044C57.1657 4.10112 56.9696 4.28294 56.8248 4.51589C56.6827 4.746 56.6117 5.00879 56.6117 5.30424V9.44629H55.606ZM66.2754 9.44629H63.5822V0.719016H66.3947C67.2413 0.719016 67.9657 0.893732 68.568 1.24316C69.1703 1.58975 69.6319 2.08833 69.9529 2.7389C70.274 3.38663 70.4345 4.1622 70.4345 5.06561C70.4345 5.9747 70.2726 6.75737 69.9487 7.41362C69.6248 8.06703 69.1532 8.56987 68.5339 8.92214C67.9146 9.27157 67.1618 9.44629 66.2754 9.44629ZM64.639 8.50879H66.2072C66.9288 8.50879 67.5268 8.36958 68.0012 8.09118C68.4757 7.81277 68.8294 7.41646 69.0623 6.90225C69.2953 6.38805 69.4118 5.77583 69.4118 5.06561C69.4118 4.36106 69.2967 3.75453 69.0666 3.246C68.8365 2.73464 68.4927 2.3426 68.0353 2.06987C67.5779 1.7943 67.0083 1.65652 66.3265 1.65652H64.639V8.50879ZM74.8152 9.58265C74.1845 9.58265 73.6404 9.44345 73.1831 9.16504C72.7285 8.88379 72.3777 8.49174 72.1305 7.9889C71.8862 7.48322 71.764 6.89515 71.764 6.2247C71.764 5.55424 71.8862 4.96333 72.1305 4.45197C72.3777 3.93777 72.7214 3.5372 73.1618 3.25027C73.6049 2.96049 74.122 2.81561 74.7129 2.81561C75.0538 2.81561 75.3904 2.87243 75.7228 2.98606C76.0552 3.0997 76.3578 3.28436 76.6305 3.54004C76.9032 3.79288 77.1206 4.12811 77.2825 4.54572C77.4444 4.96333 77.5254 5.47754 77.5254 6.08833V6.51447H72.4799V5.64515H76.5027C76.5027 5.27583 76.4288 4.94629 76.2811 4.65652C76.1362 4.36674 75.9288 4.13805 75.6589 3.97044C75.3919 3.80282 75.0765 3.71902 74.7129 3.71902C74.3123 3.71902 73.9657 3.81845 73.6731 4.01731C73.3833 4.21333 73.1603 4.46902 73.0041 4.78436C72.8478 5.0997 72.7697 5.43777 72.7697 5.79856V6.37811C72.7697 6.87243 72.8549 7.29146 73.0254 7.63521C73.1987 7.97612 73.4387 8.23606 73.7456 8.41504C74.0524 8.59118 74.4089 8.67924 74.8152 8.67924C75.0794 8.67924 75.318 8.64231 75.5311 8.56845C75.747 8.49174 75.9331 8.37811 76.0893 8.22754C76.2456 8.07413 76.3663 7.88379 76.4515 7.65652L77.4231 7.92924C77.3208 8.25879 77.149 8.54856 76.9075 8.79856C76.666 9.04572 76.3677 9.2389 76.0126 9.37811C75.6575 9.51447 75.2583 9.58265 74.8152 9.58265ZM80.0609 0.719016V9.44629H79.0552V0.719016H80.0609ZM81.9029 9.44629V2.90083H82.9086V9.44629H81.9029ZM82.4142 1.80993C82.2182 1.80993 82.0492 1.74316 81.9071 1.60964C81.7679 1.47612 81.6983 1.31561 81.6983 1.12811C81.6983 0.940607 81.7679 0.780096 81.9071 0.646573C82.0492 0.51305 82.2182 0.446289 82.4142 0.446289C82.6103 0.446289 82.7779 0.51305 82.9171 0.646573C83.0591 0.780096 83.1301 0.940607 83.1301 1.12811C83.1301 1.31561 83.0591 1.47612 82.9171 1.60964C82.7779 1.74316 82.6103 1.80993 82.4142 1.80993ZM90.1028 2.90083L87.6824 9.44629H86.6596L84.2392 2.90083H85.3301L87.1369 8.11674H87.2051L89.0119 2.90083H90.1028ZM93.9402 9.58265C93.3095 9.58265 92.7654 9.44345 92.3081 9.16504C91.8535 8.88379 91.5027 8.49174 91.2555 7.9889C91.0112 7.48322 90.889 6.89515 90.889 6.2247C90.889 5.55424 91.0112 4.96333 91.2555 4.45197C91.5027 3.93777 91.8464 3.5372 92.2868 3.25027C92.7299 2.96049 93.247 2.81561 93.8379 2.81561C94.1788 2.81561 94.5154 2.87243 94.8478 2.98606C95.1802 3.0997 95.4828 3.28436 95.7555 3.54004C96.0282 3.79288 96.2456 4.12811 96.4075 4.54572C96.5694 4.96333 96.6504 5.47754 96.6504 6.08833V6.51447H91.6049V5.64515H95.6277C95.6277 5.27583 95.5538 4.94629 95.4061 4.65652C95.2612 4.36674 95.0538 4.13805 94.7839 3.97044C94.5169 3.80282 94.2015 3.71902 93.8379 3.71902C93.4373 3.71902 93.0907 3.81845 92.7981 4.01731C92.5083 4.21333 92.2853 4.46902 92.1291 4.78436C91.9728 5.0997 91.8947 5.43777 91.8947 5.79856V6.37811C91.8947 6.87243 91.9799 7.29146 92.1504 7.63521C92.3237 7.97612 92.5637 8.23606 92.8706 8.41504C93.1774 8.59118 93.5339 8.67924 93.9402 8.67924C94.2044 8.67924 94.443 8.64231 94.6561 8.56845C94.872 8.49174 95.0581 8.37811 95.2143 8.22754C95.3706 8.07413 95.4913 7.88379 95.5765 7.65652L96.5481 7.92924C96.4458 8.25879 96.274 8.54856 96.0325 8.79856C95.791 9.04572 95.4927 9.2389 95.1376 9.37811C94.7825 9.51447 94.3833 9.58265 93.9402 9.58265ZM98.1802 9.44629V2.90083H99.1518V3.88947H99.22C99.3393 3.56561 99.5552 3.30282 99.8677 3.10112C100.18 2.89941 100.532 2.79856 100.925 2.79856C100.998 2.79856 101.091 2.79998 101.202 2.80282C101.312 2.80566 101.396 2.80993 101.453 2.81561V3.83833C101.419 3.82981 101.341 3.81703 101.219 3.79998C101.099 3.7801 100.973 3.77015 100.839 3.77015C100.521 3.77015 100.237 3.83691 99.987 3.97044C99.7399 4.10112 99.5439 4.28294 99.399 4.51589C99.2569 4.746 99.1859 5.00879 99.1859 5.30424V9.44629H98.1802ZM103.492 11.9008C103.322 11.9008 103.17 11.8866 103.036 11.8582C102.903 11.8327 102.81 11.8071 102.759 11.7815L103.015 10.8952C103.259 10.9577 103.475 10.9804 103.662 10.9633C103.85 10.9463 104.016 10.8625 104.161 10.7119C104.309 10.5642 104.444 10.3241 104.566 9.99174L104.753 9.48038L102.333 2.90083H103.424L105.231 8.11674H105.299L107.106 2.90083H108.197L105.418 10.4008C105.293 10.7389 105.138 11.0187 104.954 11.2403C104.769 11.4648 104.555 11.6309 104.31 11.7389C104.069 11.8469 103.796 11.9008 103.492 11.9008ZM30.676 24.4463V15.719H31.7328V23.5088H35.7896V24.4463H30.676ZM39.9487 24.5827C39.3578 24.5827 38.8393 24.442 38.3933 24.1608C37.9501 23.8795 37.6035 23.4861 37.3535 22.9804C37.1064 22.4747 36.9828 21.8838 36.9828 21.2077C36.9828 20.5258 37.1064 19.9307 37.3535 19.4221C37.6035 18.9136 37.9501 18.5187 38.3933 18.2375C38.8393 17.9562 39.3578 17.8156 39.9487 17.8156C40.5396 17.8156 41.0566 17.9562 41.4998 18.2375C41.9458 18.5187 42.2924 18.9136 42.5396 19.4221C42.7896 19.9307 42.9146 20.5258 42.9146 21.2077C42.9146 21.8838 42.7896 22.4747 42.5396 22.9804C42.2924 23.4861 41.9458 23.8795 41.4998 24.1608C41.0566 24.442 40.5396 24.5827 39.9487 24.5827ZM39.9487 23.6792C40.3975 23.6792 40.7669 23.5642 41.0566 23.3341C41.3464 23.104 41.5609 22.8014 41.7001 22.4264C41.8393 22.0514 41.9089 21.6452 41.9089 21.2077C41.9089 20.7702 41.8393 20.3625 41.7001 19.9846C41.5609 19.6068 41.3464 19.3014 41.0566 19.0684C40.7669 18.8355 40.3975 18.719 39.9487 18.719C39.4998 18.719 39.1305 18.8355 38.8407 19.0684C38.551 19.3014 38.3365 19.6068 38.1973 19.9846C38.0581 20.3625 37.9885 20.7702 37.9885 21.2077C37.9885 21.6452 38.0581 22.0514 38.1973 22.4264C38.3365 22.8014 38.551 23.104 38.8407 23.3341C39.1305 23.5642 39.4998 23.6792 39.9487 23.6792ZM47.1088 24.5827C46.4952 24.5827 45.9668 24.4378 45.5236 24.148C45.0804 23.8582 44.7395 23.4591 44.5009 22.9506C44.2623 22.442 44.1429 21.8611 44.1429 21.2077C44.1429 20.5429 44.2651 19.9562 44.5094 19.4477C44.7566 18.9363 45.1003 18.5372 45.5407 18.2503C45.9838 17.9605 46.5009 17.8156 47.0918 17.8156C47.552 17.8156 47.9668 17.9008 48.3361 18.0713C48.7054 18.2417 49.008 18.4804 49.2438 18.7872C49.4796 19.094 49.6259 19.452 49.6827 19.8611H48.677C48.6003 19.5628 48.4299 19.2986 48.1657 19.0684C47.9043 18.8355 47.552 18.719 47.1088 18.719C46.7168 18.719 46.373 18.8213 46.0776 19.0258C45.785 19.2275 45.5563 19.5131 45.3915 19.8824C45.2296 20.2488 45.1486 20.6792 45.1486 21.1736C45.1486 21.6792 45.2282 22.1196 45.3873 22.4946C45.5492 22.8696 45.7765 23.1608 46.0691 23.3682C46.3645 23.5756 46.7111 23.6792 47.1088 23.6792C47.3702 23.6792 47.6074 23.6338 47.8205 23.5429C48.0336 23.452 48.214 23.3213 48.3617 23.1508C48.5094 22.9804 48.6145 22.7758 48.677 22.5372H49.6827C49.6259 22.9236 49.4853 23.2716 49.2608 23.5812C49.0392 23.8881 48.7452 24.1324 48.3787 24.3142C48.0151 24.4932 47.5918 24.5827 47.1088 24.5827ZM53.079 24.5997C52.6642 24.5997 52.2878 24.5216 51.9498 24.3653C51.6117 24.2062 51.3432 23.9775 51.1444 23.6792C50.9455 23.3781 50.8461 23.0145 50.8461 22.5883C50.8461 22.2133 50.9199 21.9094 51.0676 21.6764C51.2154 21.4406 51.4128 21.2559 51.66 21.1224C51.9071 20.9889 52.1799 20.8895 52.4782 20.8241C52.7793 20.7559 53.0819 20.702 53.3858 20.6622C53.7836 20.6111 54.106 20.5727 54.3532 20.5471C54.6032 20.5187 54.785 20.4719 54.8986 20.4065C55.0151 20.3412 55.0733 20.2275 55.0733 20.0656V20.0315C55.0733 19.6111 54.9583 19.2844 54.7282 19.0514C54.5009 18.8184 54.1557 18.702 53.6926 18.702C53.2125 18.702 52.8361 18.8071 52.5634 19.0173C52.2907 19.2275 52.0989 19.452 51.9881 19.6906L51.0336 19.3497C51.204 18.952 51.4313 18.6423 51.7154 18.4207C52.0023 18.1963 52.3148 18.04 52.6529 17.952C52.9938 17.8611 53.329 17.8156 53.6586 17.8156C53.8688 17.8156 54.1103 17.8412 54.383 17.8923C54.6586 17.9406 54.9242 18.0415 55.1799 18.1949C55.4384 18.3483 55.6529 18.5798 55.8233 18.8895C55.9938 19.1991 56.079 19.6139 56.079 20.1338V24.4463H55.0733V23.5599H55.0222C54.954 23.702 54.8404 23.854 54.6813 24.0159C54.5222 24.1778 54.3105 24.3156 54.0463 24.4292C53.7821 24.5429 53.4597 24.5997 53.079 24.5997ZM53.2324 23.6963C53.6301 23.6963 53.9654 23.6182 54.2381 23.4619C54.5137 23.3057 54.7211 23.104 54.8603 22.8568C55.0023 22.6096 55.0733 22.3497 55.0733 22.077V21.1565C55.0307 21.2077 54.937 21.2545 54.7921 21.2971C54.65 21.3369 54.4853 21.3724 54.2978 21.4037C54.1131 21.4321 53.9327 21.4577 53.7566 21.4804C53.5833 21.5003 53.4426 21.5173 53.3347 21.5315C53.0733 21.5656 52.829 21.621 52.6017 21.6977C52.3773 21.7716 52.1955 21.8838 52.0563 22.0344C51.9199 22.1821 51.8517 22.3838 51.8517 22.6395C51.8517 22.9889 51.981 23.2531 52.2395 23.4321C52.5009 23.6082 52.8319 23.6963 53.2324 23.6963ZM60.7612 17.9008V18.7531H57.3691V17.9008H60.7612ZM58.3578 16.3327H59.3635V22.5713C59.3635 22.8554 59.4047 23.0684 59.487 23.2105C59.5723 23.3497 59.6802 23.4434 59.8109 23.4917C59.9444 23.5372 60.085 23.5599 60.2328 23.5599C60.3436 23.5599 60.4345 23.5542 60.5055 23.5429C60.5765 23.5287 60.6333 23.5173 60.676 23.5088L60.8805 24.4122C60.8123 24.4378 60.7172 24.4633 60.595 24.4889C60.4728 24.5173 60.318 24.5315 60.1305 24.5315C59.8464 24.5315 59.568 24.4704 59.2953 24.3483C59.0254 24.2261 58.801 24.04 58.622 23.79C58.4458 23.54 58.3578 23.2247 58.3578 22.844V16.3327ZM62.274 24.4463V17.9008H63.2797V24.4463H62.274ZM62.7853 16.8099C62.5893 16.8099 62.4203 16.7432 62.2782 16.6096C62.139 16.4761 62.0694 16.3156 62.0694 16.1281C62.0694 15.9406 62.139 15.7801 62.2782 15.6466C62.4203 15.5131 62.5893 15.4463 62.7853 15.4463C62.9814 15.4463 63.149 15.5131 63.2882 15.6466C63.4302 15.7801 63.5012 15.9406 63.5012 16.1281C63.5012 16.3156 63.4302 16.4761 63.2882 16.6096C63.149 16.7432 62.9814 16.8099 62.7853 16.8099ZM67.7807 24.5827C67.1898 24.5827 66.6713 24.442 66.2253 24.1608C65.7821 23.8795 65.4355 23.4861 65.1855 22.9804C64.9384 22.4747 64.8148 21.8838 64.8148 21.2077C64.8148 20.5258 64.9384 19.9307 65.1855 19.4221C65.4355 18.9136 65.7821 18.5187 66.2253 18.2375C66.6713 17.9562 67.1898 17.8156 67.7807 17.8156C68.3716 17.8156 68.8887 17.9562 69.3319 18.2375C69.7779 18.5187 70.1245 18.9136 70.3716 19.4221C70.6216 19.9307 70.7466 20.5258 70.7466 21.2077C70.7466 21.8838 70.6216 22.4747 70.3716 22.9804C70.1245 23.4861 69.7779 23.8795 69.3319 24.1608C68.8887 24.442 68.3716 24.5827 67.7807 24.5827ZM67.7807 23.6792C68.2296 23.6792 68.5989 23.5642 68.8887 23.3341C69.1784 23.104 69.3929 22.8014 69.5321 22.4264C69.6713 22.0514 69.7409 21.6452 69.7409 21.2077C69.7409 20.7702 69.6713 20.3625 69.5321 19.9846C69.3929 19.6068 69.1784 19.3014 68.8887 19.0684C68.5989 18.8355 68.2296 18.719 67.7807 18.719C67.3319 18.719 66.9625 18.8355 66.6728 19.0684C66.383 19.3014 66.1685 19.6068 66.0293 19.9846C65.8901 20.3625 65.8205 20.7702 65.8205 21.2077C65.8205 21.6452 65.8901 22.0514 66.0293 22.4264C66.1685 22.8014 66.383 23.104 66.6728 23.3341C66.9625 23.5642 67.3319 23.6792 67.7807 23.6792ZM73.2875 20.5088V24.4463H72.2818V17.9008H73.2534V18.9236H73.3386C73.492 18.5912 73.725 18.3241 74.0375 18.1224C74.35 17.9179 74.7534 17.8156 75.2477 17.8156C75.6909 17.8156 76.0787 17.9065 76.411 18.0883C76.7434 18.2673 77.002 18.54 77.1866 18.9065C77.3713 19.2702 77.4636 19.7304 77.4636 20.2872V24.4463H76.4579V20.3554C76.4579 19.8412 76.3244 19.4406 76.0574 19.1537C75.7903 18.8639 75.4238 18.719 74.9579 18.719C74.6369 18.719 74.35 18.7886 74.0971 18.9278C73.8471 19.067 73.6497 19.2702 73.5048 19.5372C73.3599 19.8042 73.2875 20.1281 73.2875 20.5088Z" fill="black"/>
</svg>
