<svg width="32" height="32" viewBox="0 0 32 32" fill="none" xmlns="http://www.w3.org/2000/svg">
<path d="M15.3169 26.9882V26.6759C15.3169 23.5773 15.3169 20.4906 15.3169 17.392C15.3169 17.1758 15.3769 17.0557 15.5691 16.9476C18.2474 15.4103 20.9257 13.8609 23.604 12.3236C23.6881 12.2756 23.7722 12.2275 23.8803 12.1675C23.8803 12.2516 23.9043 12.3236 23.9043 12.3957C23.9043 15.5424 23.9043 18.6771 23.9043 21.8238C23.9043 21.9799 23.8803 22.088 23.7241 22.1721C20.9858 23.7454 18.2474 25.3308 15.5211 26.9041C15.461 26.9402 15.401 26.9522 15.3169 27.0002V26.9882Z" fill="#0671B8"/>
<path d="M5.02402 12.1436C6.14098 12.7921 7.23392 13.4166 8.31485 14.0532C8.38691 14.1012 8.43495 14.2574 8.43495 14.3655C8.43495 15.7587 8.43495 17.1519 8.43495 18.5451C8.43495 20.2385 8.43495 21.92 8.43495 23.6134C8.43495 23.7215 8.43495 23.8416 8.43495 23.9857C8.32686 23.9377 8.2548 23.9137 8.19475 23.8776C7.19789 23.3011 6.20103 22.7367 5.20418 22.1482C5.10809 22.0881 5.01201 21.956 5.01201 21.8599C5 18.6652 5 15.4704 5 12.2757C5 12.2516 5 12.2156 5.02402 12.1556V12.1436Z" fill="#0671B8"/>
<path d="M17.851 7.66335C17.755 7.7234 17.6829 7.77144 17.6108 7.81948C14.9085 9.38083 12.2062 10.9302 9.51588 12.4915C9.34774 12.5876 9.22764 12.5876 9.04748 12.4915C8.08666 11.927 7.12583 11.3745 6.165 10.8221C6.08093 10.774 5.98485 10.714 5.86475 10.6419C6.54933 10.2456 7.2099 9.86124 7.85846 9.48892C9.97228 8.26387 12.0981 7.05082 14.2119 5.81376C14.3801 5.71768 14.5122 5.71768 14.6803 5.81376C15.6532 6.39026 16.638 6.95474 17.6229 7.51923C17.6949 7.55526 17.767 7.6033 17.851 7.66335Z" fill="#0671B8"/>
<path d="M11.0292 13.6204C11.5817 13.3081 12.0981 13.0078 12.6026 12.7076C14.8485 11.4105 17.1064 10.1133 19.3524 8.80421C19.5445 8.69612 19.6767 8.69612 19.8688 8.80421C20.9017 9.41674 21.9466 10.0052 23.0155 10.6298C22.9194 10.6898 22.8594 10.7379 22.7993 10.7739C20.097 12.3352 17.3827 13.9086 14.6683 15.4579C14.5603 15.518 14.3801 15.542 14.284 15.482C13.2031 14.8814 12.1342 14.2569 11.0172 13.6083L11.0292 13.6204Z" fill="#0671B8"/>
<path d="M13.5754 26.9882C13.5033 26.9521 13.4433 26.9281 13.3953 26.9041C12.3864 26.3156 11.3655 25.7271 10.3566 25.1506C10.2125 25.0665 10.1525 24.9824 10.1525 24.8143C10.1525 21.6796 10.1525 18.5329 10.1525 15.3982C10.1525 15.3262 10.1645 15.2541 10.1765 15.146C10.3566 15.2541 10.5128 15.3382 10.6689 15.4342C11.5697 15.9627 12.4825 16.4791 13.3832 17.0076C13.4793 17.0676 13.5634 17.2118 13.5634 17.3079C13.5634 20.4906 13.5634 23.6853 13.5634 26.8681C13.5634 26.8921 13.5634 26.9281 13.5514 27.0002L13.5754 26.9882Z" fill="#0671B8"/>
<path d="M26.1623 5.53732C26.2223 5.8616 26.1383 6.16186 26.0302 6.46212C25.802 7.08665 25.5858 7.7232 25.3816 8.33573C24.0244 7.86732 22.6793 7.41093 21.2981 6.93052C21.4062 6.65428 21.5143 6.35402 21.6224 6.05377C21.7305 5.7415 21.8506 5.42923 21.9467 5.10495C22.0547 4.75665 22.2229 4.4684 22.4751 4.21619C22.6192 4.14412 22.7754 4.07206 22.9195 4C23.2318 4.04804 23.544 4.08407 23.8443 4.16814C24.2286 4.27624 24.6009 4.43237 24.9853 4.55247C25.3696 4.67258 25.7179 4.82871 25.9821 5.14098L26.1743 5.53732H26.1623Z" fill="#FFB422" stroke="white" stroke-width="0.5" stroke-linecap="round" stroke-linejoin="round"/>
<path d="M21.2981 19.3127C19.9409 18.8443 18.5957 18.3759 17.2266 17.9075C18.5117 14.2804 19.7968 10.6293 21.0819 7.01416C22.427 7.48256 23.7722 7.95097 25.1414 8.41937C23.8683 12.0225 22.5832 15.6736 21.2981 19.3127Z" fill="#FFB422" stroke="white" stroke-width="0.5" stroke-linecap="round" stroke-linejoin="round"/>
<path d="M17.4667 23.9971C17.3106 22.2075 17.1665 20.49 17.0223 18.8086C18.3555 19.265 19.6886 19.7334 21.0338 20.1898C19.8688 21.4389 18.6918 22.6879 17.4667 23.9971Z" fill="#FFB422" stroke="white" stroke-width="0.5" stroke-linecap="round" stroke-linejoin="round"/>
</svg>
