<svg width="67" height="28" viewBox="0 0 67 28" fill="none" xmlns="http://www.w3.org/2000/svg">
<path d="M4.13672 9.74414H1.44354V1.01687H4.25604C5.10263 1.01687 5.82706 1.19158 6.42933 1.54102C7.03161 1.88761 7.49325 2.38619 7.81428 3.03675C8.1353 3.68448 8.29581 4.46005 8.29581 5.36346C8.29581 6.27255 8.13388 7.05522 7.81001 7.71147C7.48615 8.36488 7.01456 8.86772 6.39524 9.21999C5.77592 9.56942 5.02308 9.74414 4.13672 9.74414ZM2.50036 8.80664H4.06854C4.79013 8.80664 5.38814 8.66744 5.86257 8.38903C6.337 8.11062 6.6907 7.71431 6.92365 7.20011C7.15661 6.6859 7.27308 6.07369 7.27308 5.36346C7.27308 4.65891 7.15803 4.05238 6.92791 3.54386C6.6978 3.03249 6.35405 2.64045 5.89666 2.36772C5.43928 2.09215 4.86967 1.95437 4.18786 1.95437H2.50036V8.80664ZM9.93217 9.74414V3.19869H10.9379V9.74414H9.93217ZM10.4435 2.10778C10.2475 2.10778 10.0785 2.04102 9.93643 1.90749C9.79723 1.77397 9.72763 1.61346 9.72763 1.42596C9.72763 1.23846 9.79723 1.07795 9.93643 0.944424C10.0785 0.810902 10.2475 0.744141 10.4435 0.744141C10.6396 0.744141 10.8072 0.810902 10.9464 0.944424C11.0884 1.07795 11.1594 1.23846 11.1594 1.42596C11.1594 1.61346 11.0884 1.77397 10.9464 1.90749C10.8072 2.04102 10.6396 2.10778 10.4435 2.10778ZM17.4162 4.6646L16.5128 4.92028C16.456 4.76971 16.3722 4.6234 16.2614 4.48136C16.1534 4.33647 16.0057 4.21715 15.8182 4.1234C15.6307 4.02965 15.3906 3.98278 15.098 3.98278C14.6974 3.98278 14.3636 4.07511 14.0966 4.25977C13.8324 4.44158 13.7003 4.67312 13.7003 4.95437C13.7003 5.20437 13.7912 5.40181 13.973 5.5467C14.1548 5.69158 14.4389 5.81232 14.8253 5.90891L15.7969 6.14755C16.3821 6.2896 16.8182 6.50692 17.1051 6.79954C17.392 7.08931 17.5355 7.46289 17.5355 7.92028C17.5355 8.29528 17.4276 8.6305 17.2116 8.92596C16.9986 9.22141 16.7003 9.45437 16.3168 9.62482C15.9332 9.79528 15.4872 9.8805 14.9787 9.8805C14.3111 9.8805 13.7585 9.73562 13.321 9.44585C12.8835 9.15607 12.6065 8.73278 12.4901 8.17596L13.4446 7.93732C13.5355 8.2896 13.7074 8.5538 13.9602 8.72994C14.2159 8.90607 14.5497 8.99414 14.9616 8.99414C15.4304 8.99414 15.8026 8.89471 16.0781 8.69585C16.3565 8.49414 16.4957 8.25266 16.4957 7.97141C16.4957 7.74414 16.4162 7.5538 16.2571 7.40039C16.098 7.24414 15.8537 7.12766 15.5241 7.05096L14.4332 6.79528C13.8338 6.65323 13.3935 6.43306 13.1122 6.13477C12.8338 5.83363 12.6946 5.45721 12.6946 5.0055C12.6946 4.63619 12.7983 4.30948 13.0057 4.02539C13.2159 3.7413 13.5014 3.51829 13.8622 3.35636C14.2259 3.19442 14.6378 3.11346 15.098 3.11346C15.7457 3.11346 16.2543 3.2555 16.6236 3.53959C16.9957 3.82369 17.2599 4.19869 17.4162 4.6646ZM21.896 3.19869V4.05096H18.5039V3.19869H21.896ZM19.4925 1.6305H20.4982V7.86914C20.4982 8.15323 20.5394 8.3663 20.6218 8.50835C20.707 8.64755 20.815 8.7413 20.9457 8.7896C21.0792 8.83505 21.2198 8.85778 21.3675 8.85778C21.4783 8.85778 21.5692 8.8521 21.6403 8.84073C21.7113 8.82653 21.7681 8.81516 21.8107 8.80664L22.0153 9.71005C21.9471 9.73562 21.8519 9.76119 21.7298 9.78675C21.6076 9.81516 21.4528 9.82937 21.2653 9.82937C20.9812 9.82937 20.7028 9.76829 20.43 9.64613C20.1602 9.52397 19.9357 9.33789 19.7567 9.08789C19.5806 8.83789 19.4925 8.52255 19.4925 8.14187V1.6305ZM23.4087 9.74414V3.19869H24.3803V4.18732H24.4485C24.5678 3.86346 24.7837 3.60067 25.0962 3.39897C25.4087 3.19727 25.761 3.09641 26.1531 3.09641C26.2269 3.09641 26.3192 3.09783 26.43 3.10067C26.5408 3.10352 26.6246 3.10778 26.6815 3.11346V4.13619C26.6474 4.12766 26.5692 4.11488 26.4471 4.09783C26.3278 4.07795 26.2013 4.068 26.0678 4.068C25.7496 4.068 25.4656 4.13477 25.2156 4.26829C24.9684 4.39897 24.7724 4.58079 24.6275 4.81374C24.4854 5.04386 24.4144 5.30664 24.4144 5.6021V9.74414H23.4087ZM27.8736 9.74414V3.19869H28.8793V9.74414H27.8736ZM28.3849 2.10778C28.1889 2.10778 28.0199 2.04102 27.8778 1.90749C27.7386 1.77397 27.669 1.61346 27.669 1.42596C27.669 1.23846 27.7386 1.07795 27.8778 0.944424C28.0199 0.810902 28.1889 0.744141 28.3849 0.744141C28.581 0.744141 28.7486 0.810902 28.8878 0.944424C29.0298 1.07795 29.1009 1.23846 29.1009 1.42596C29.1009 1.61346 29.0298 1.77397 28.8878 1.90749C28.7486 2.04102 28.581 2.10778 28.3849 2.10778ZM30.8576 9.74414V1.01687H31.8633V4.23846H31.9485C32.0224 4.12482 32.1246 3.97994 32.2553 3.8038C32.3888 3.62482 32.5792 3.46573 32.8263 3.32653C33.0763 3.18448 33.4144 3.11346 33.8406 3.11346C34.3917 3.11346 34.8775 3.25124 35.2979 3.52681C35.7184 3.80238 36.0465 4.193 36.2823 4.69869C36.5181 5.20437 36.636 5.80096 36.636 6.48846C36.636 7.18164 36.5181 7.78249 36.2823 8.29102C36.0465 8.7967 35.7198 9.18874 35.3022 9.46715C34.8846 9.74272 34.4031 9.8805 33.8576 9.8805C33.4371 9.8805 33.1005 9.8109 32.8477 9.6717C32.5948 9.52965 32.4002 9.36914 32.2638 9.19016C32.1275 9.00835 32.0224 8.85778 31.9485 8.73846H31.8292V9.74414H30.8576ZM31.8462 6.47141C31.8462 6.96573 31.9187 7.40181 32.0636 7.77965C32.2085 8.15465 32.4201 8.44869 32.6985 8.66175C32.9769 8.87198 33.3178 8.9771 33.7212 8.9771C34.1417 8.9771 34.4925 8.8663 34.7738 8.64471C35.0579 8.42028 35.271 8.11914 35.413 7.7413C35.5579 7.36062 35.6303 6.93732 35.6303 6.47141C35.6303 6.01119 35.5593 5.59641 35.4173 5.2271C35.2781 4.85494 35.0664 4.5609 34.7823 4.34499C34.5011 4.12624 34.1474 4.01687 33.7212 4.01687C33.3121 4.01687 32.9684 4.12056 32.69 4.32795C32.4116 4.53249 32.2013 4.81942 32.0593 5.18874C31.9173 5.55522 31.8462 5.98278 31.8462 6.47141ZM42.2994 7.068V3.19869H43.305V9.74414H42.2994V8.63619H42.2312C42.0778 8.96857 41.8391 9.25124 41.5153 9.4842C41.1914 9.71431 40.7823 9.82937 40.288 9.82937C39.8789 9.82937 39.5153 9.73988 39.1971 9.5609C38.8789 9.37908 38.6289 9.10636 38.4471 8.74272C38.2653 8.37624 38.1744 7.9146 38.1744 7.35778V3.19869H39.18V7.2896C39.18 7.76687 39.3136 8.14755 39.5806 8.43164C39.8505 8.71573 40.1942 8.85778 40.6119 8.85778C40.8619 8.85778 41.1161 8.79386 41.3746 8.66602C41.636 8.53817 41.8548 8.34215 42.0309 8.07795C42.2099 7.81374 42.2994 7.4771 42.2994 7.068ZM47.9936 3.19869V4.05096H44.6016V3.19869H47.9936ZM45.5902 1.6305H46.5959V7.86914C46.5959 8.15323 46.6371 8.3663 46.7195 8.50835C46.8047 8.64755 46.9126 8.7413 47.0433 8.7896C47.1768 8.83505 47.3175 8.85778 47.4652 8.85778C47.576 8.85778 47.6669 8.8521 47.7379 8.84073C47.8089 8.82653 47.8658 8.81516 47.9084 8.80664L48.1129 9.71005C48.0447 9.73562 47.9496 9.76119 47.8274 9.78675C47.7053 9.81516 47.5504 9.82937 47.3629 9.82937C47.0788 9.82937 46.8004 9.76829 46.5277 9.64613C46.2578 9.52397 46.0334 9.33789 45.8544 9.08789C45.6783 8.83789 45.5902 8.52255 45.5902 8.14187V1.6305ZM49.5064 9.74414V3.19869H50.5121V9.74414H49.5064ZM50.0178 2.10778C49.8217 2.10778 49.6527 2.04102 49.5107 1.90749C49.3714 1.77397 49.3018 1.61346 49.3018 1.42596C49.3018 1.23846 49.3714 1.07795 49.5107 0.944424C49.6527 0.810902 49.8217 0.744141 50.0178 0.744141C50.2138 0.744141 50.3814 0.810902 50.5206 0.944424C50.6626 1.07795 50.7337 1.23846 50.7337 1.42596C50.7337 1.61346 50.6626 1.77397 50.5206 1.90749C50.3814 2.04102 50.2138 2.10778 50.0178 2.10778ZM55.0131 9.8805C54.4222 9.8805 53.9038 9.73988 53.4577 9.45863C53.0146 9.17738 52.668 8.78391 52.418 8.27823C52.1708 7.77255 52.0472 7.18164 52.0472 6.5055C52.0472 5.82369 52.1708 5.22852 52.418 4.71999C52.668 4.21147 53.0146 3.81658 53.4577 3.53533C53.9038 3.25408 54.4222 3.11346 55.0131 3.11346C55.604 3.11346 56.1211 3.25408 56.5643 3.53533C57.0103 3.81658 57.3569 4.21147 57.604 4.71999C57.854 5.22852 57.979 5.82369 57.979 6.5055C57.979 7.18164 57.854 7.77255 57.604 8.27823C57.3569 8.78391 57.0103 9.17738 56.5643 9.45863C56.1211 9.73988 55.604 9.8805 55.0131 9.8805ZM55.0131 8.9771C55.462 8.9771 55.8313 8.86204 56.1211 8.63192C56.4109 8.40181 56.6254 8.09925 56.7646 7.72425C56.9038 7.34925 56.9734 6.943 56.9734 6.5055C56.9734 6.068 56.9038 5.66033 56.7646 5.28249C56.6254 4.90465 56.4109 4.59925 56.1211 4.3663C55.8313 4.13334 55.462 4.01687 55.0131 4.01687C54.5643 4.01687 54.195 4.13334 53.9052 4.3663C53.6154 4.59925 53.4009 4.90465 53.2617 5.28249C53.1225 5.66033 53.0529 6.068 53.0529 6.5055C53.0529 6.943 53.1225 7.34925 53.2617 7.72425C53.4009 8.09925 53.6154 8.40181 53.9052 8.63192C54.195 8.86204 54.5643 8.9771 55.0131 8.9771ZM60.5199 5.80664V9.74414H59.5142V3.19869H60.4858V4.22141H60.571C60.7244 3.88903 60.9574 3.62198 61.2699 3.42028C61.5824 3.21573 61.9858 3.11346 62.4801 3.11346C62.9233 3.11346 63.3111 3.20437 63.6435 3.38619C63.9759 3.56516 64.2344 3.83789 64.419 4.20437C64.6037 4.568 64.696 5.02823 64.696 5.58505V9.74414H63.6903V5.65323C63.6903 5.13903 63.5568 4.73846 63.2898 4.45153C63.0227 4.16175 62.6563 4.01687 62.1903 4.01687C61.8693 4.01687 61.5824 4.08647 61.3295 4.22567C61.0795 4.36488 60.8821 4.568 60.7372 4.83505C60.5923 5.10209 60.5199 5.42596 60.5199 5.80664ZM5.19087 18.1987C5.13974 17.7669 4.93235 17.4316 4.56871 17.193C4.20508 16.9544 3.75906 16.835 3.23065 16.835C2.84428 16.835 2.50621 16.8975 2.21644 17.0225C1.92951 17.1475 1.70508 17.3194 1.54315 17.5382C1.38406 17.7569 1.30451 18.0055 1.30451 18.2839C1.30451 18.5169 1.35991 18.7172 1.4707 18.8848C1.58434 19.0495 1.72923 19.1873 1.90536 19.2981C2.0815 19.4061 2.26616 19.4956 2.45934 19.5666C2.65252 19.6348 2.83008 19.6902 2.99201 19.7328L3.87837 19.9714C4.10565 20.0311 4.35849 20.1135 4.6369 20.2186C4.91815 20.3237 5.18661 20.4672 5.44229 20.649C5.70082 20.8279 5.91389 21.0581 6.0815 21.3393C6.24911 21.6206 6.33292 21.9657 6.33292 22.3748C6.33292 22.8464 6.20934 23.2725 5.96218 23.6532C5.71786 24.0339 5.35991 24.3365 4.88832 24.5609C4.41957 24.7853 3.84996 24.8975 3.17951 24.8975C2.55451 24.8975 2.01332 24.7967 1.55593 24.595C1.10138 24.3933 0.74343 24.112 0.482067 23.7512C0.223544 23.3904 0.0772372 22.9714 0.0431463 22.4941H1.13406C1.16246 22.8237 1.27326 23.0964 1.46644 23.3123C1.66246 23.5254 1.90962 23.6845 2.20792 23.7896C2.50906 23.8919 2.83292 23.943 3.17951 23.943C3.58292 23.943 3.94514 23.8777 4.26616 23.747C4.58718 23.6135 4.84144 23.4288 5.02894 23.193C5.21644 22.9544 5.31019 22.676 5.31019 22.3578C5.31019 22.068 5.22923 21.8322 5.06729 21.6504C4.90536 21.4686 4.69229 21.3208 4.42809 21.2072C4.16389 21.0936 3.87837 20.9941 3.57156 20.9089L2.49769 20.6021C1.81587 20.4061 1.2761 20.1262 0.878374 19.7626C0.480646 19.399 0.281783 18.9231 0.281783 18.335C0.281783 17.8464 0.413885 17.4203 0.67809 17.0566C0.945135 16.6902 1.30309 16.4061 1.75195 16.2044C2.20366 15.9998 2.70792 15.8975 3.26474 15.8975C3.82724 15.8975 4.32724 15.9984 4.76474 16.2001C5.20224 16.399 5.54883 16.6717 5.80451 17.0183C6.06303 17.3649 6.1994 17.7583 6.2136 18.1987H5.19087ZM12.0591 22.068V18.1987H13.0648V24.7441H12.0591V23.6362H11.9909C11.8375 23.9686 11.5989 24.2512 11.275 24.4842C10.9512 24.7143 10.5421 24.8294 10.0478 24.8294C9.63867 24.8294 9.27504 24.7399 8.95685 24.5609C8.63867 24.3791 8.38867 24.1064 8.20685 23.7427C8.02504 23.3762 7.93413 22.9146 7.93413 22.3578V18.1987H8.93981V22.2896C8.93981 22.7669 9.07333 23.1475 9.34038 23.4316C9.61026 23.7157 9.95401 23.8578 10.3716 23.8578C10.6216 23.8578 10.8759 23.7939 11.1344 23.666C11.3958 23.5382 11.6145 23.3422 11.7907 23.0779C11.9696 22.8137 12.0591 22.4771 12.0591 22.068ZM14.9068 27.1987V18.1987H15.8784V19.2385H15.9977C16.0716 19.1248 16.1738 18.9799 16.3045 18.8038C16.438 18.6248 16.6284 18.4657 16.8755 18.3265C17.1255 18.1845 17.4636 18.1135 17.8897 18.1135C18.4409 18.1135 18.9267 18.2512 19.3471 18.5268C19.7676 18.8024 20.0957 19.193 20.3315 19.6987C20.5673 20.2044 20.6852 20.801 20.6852 21.4885C20.6852 22.1816 20.5673 22.7825 20.3315 23.291C20.0957 23.7967 19.769 24.1887 19.3514 24.4672C18.9338 24.7427 18.4522 24.8805 17.9068 24.8805C17.4863 24.8805 17.1497 24.8109 16.8968 24.6717C16.644 24.5297 16.4494 24.3691 16.313 24.1902C16.1767 24.0083 16.0716 23.8578 15.9977 23.7385H15.9125V27.1987H14.9068ZM15.8954 21.4714C15.8954 21.9657 15.9679 22.4018 16.1127 22.7797C16.2576 23.1547 16.4693 23.4487 16.7477 23.6618C17.0261 23.872 17.367 23.9771 17.7704 23.9771C18.1909 23.9771 18.5417 23.8663 18.823 23.6447C19.1071 23.4203 19.3201 23.1191 19.4622 22.7413C19.6071 22.3606 19.6795 21.9373 19.6795 21.4714C19.6795 21.0112 19.6085 20.5964 19.4664 20.2271C19.3272 19.8549 19.1156 19.5609 18.8315 19.345C18.5502 19.1262 18.1966 19.0169 17.7704 19.0169C17.3613 19.0169 17.0176 19.1206 16.7392 19.3279C16.4608 19.5325 16.2505 19.8194 16.1085 20.1887C15.9664 20.5552 15.8954 20.9828 15.8954 21.4714ZM24.9636 24.8805C24.3329 24.8805 23.7889 24.7413 23.3315 24.4629C22.877 24.1816 22.5261 23.7896 22.2789 23.2868C22.0346 22.7811 21.9125 22.193 21.9125 21.5225C21.9125 20.8521 22.0346 20.2612 22.2789 19.7498C22.5261 19.2356 22.8699 18.835 23.3102 18.5481C23.7534 18.2583 24.2704 18.1135 24.8613 18.1135C25.2022 18.1135 25.5389 18.1703 25.8713 18.2839C26.2037 18.3975 26.5062 18.5822 26.7789 18.8379C27.0517 19.0907 27.269 19.426 27.4309 19.8436C27.5929 20.2612 27.6738 20.7754 27.6738 21.3862V21.8123H22.6284V20.943H26.6511C26.6511 20.5737 26.5772 20.2441 26.4295 19.9544C26.2846 19.6646 26.0772 19.4359 25.8074 19.2683C25.5403 19.1007 25.225 19.0169 24.8613 19.0169C24.4608 19.0169 24.1142 19.1163 23.8216 19.3152C23.5318 19.5112 23.3088 19.7669 23.1525 20.0822C22.9963 20.3975 22.9181 20.7356 22.9181 21.0964V21.676C22.9181 22.1703 23.0034 22.5893 23.1738 22.9331C23.3471 23.274 23.5872 23.5339 23.894 23.7129C24.2008 23.889 24.5574 23.9771 24.9636 23.9771C25.2278 23.9771 25.4664 23.9402 25.6795 23.8663C25.8954 23.7896 26.0815 23.676 26.2377 23.5254C26.394 23.372 26.5147 23.1816 26.6 22.9544L27.5716 23.2271C27.4693 23.5566 27.2974 23.8464 27.0559 24.0964C26.8145 24.3436 26.5162 24.5368 26.161 24.676C25.8059 24.8123 25.4068 24.8805 24.9636 24.8805ZM29.2037 24.7441V18.1987H30.1752V19.1873H30.2434C30.3627 18.8635 30.5787 18.6007 30.8912 18.399C31.2037 18.1973 31.5559 18.0964 31.948 18.0964C32.0218 18.0964 32.1142 18.0978 32.225 18.1007C32.3358 18.1035 32.4196 18.1078 32.4764 18.1135V19.1362C32.4423 19.1277 32.3642 19.1149 32.242 19.0978C32.1227 19.0779 31.9963 19.068 31.8627 19.068C31.5446 19.068 31.2605 19.1348 31.0105 19.2683C30.7633 19.399 30.5673 19.5808 30.4224 19.8137C30.2804 20.0439 30.2093 20.3066 30.2093 20.6021V24.7441H29.2037ZM39.22 18.1987L36.7995 24.7441H35.7768L33.3564 18.1987H34.4473L36.2541 23.4146H36.3223L38.1291 18.1987H39.22ZM40.5474 24.7441V18.1987H41.5531V24.7441H40.5474ZM41.0588 17.1078C40.8627 17.1078 40.6937 17.041 40.5517 16.9075C40.4125 16.774 40.3429 16.6135 40.3429 16.426C40.3429 16.2385 40.4125 16.0779 40.5517 15.9444C40.6937 15.8109 40.8627 15.7441 41.0588 15.7441C41.2548 15.7441 41.4224 15.8109 41.5616 15.9444C41.7037 16.0779 41.7747 16.2385 41.7747 16.426C41.7747 16.6135 41.7037 16.774 41.5616 16.9075C41.4224 17.041 41.2548 17.1078 41.0588 17.1078ZM48.0314 19.6646L47.128 19.9203C47.0712 19.7697 46.9874 19.6234 46.8766 19.4814C46.7686 19.3365 46.6209 19.2172 46.4334 19.1234C46.2459 19.0297 46.0059 18.9828 45.7132 18.9828C45.3127 18.9828 44.9789 19.0751 44.7118 19.2598C44.4476 19.4416 44.3155 19.6731 44.3155 19.9544C44.3155 20.2044 44.4064 20.4018 44.5882 20.5467C44.7701 20.6916 45.0542 20.8123 45.4405 20.9089L46.4121 21.1475C46.9973 21.2896 47.4334 21.5069 47.7203 21.7995C48.0073 22.0893 48.1507 22.4629 48.1507 22.9203C48.1507 23.2953 48.0428 23.6305 47.8269 23.926C47.6138 24.2214 47.3155 24.4544 46.932 24.6248C46.5485 24.7953 46.1025 24.8805 45.5939 24.8805C44.9263 24.8805 44.3738 24.7356 43.9363 24.4458C43.4988 24.1561 43.2218 23.7328 43.1053 23.176L44.0598 22.9373C44.1507 23.2896 44.3226 23.5538 44.5755 23.7299C44.8311 23.9061 45.165 23.9941 45.5769 23.9941C46.0456 23.9941 46.4178 23.8947 46.6934 23.6958C46.9718 23.4941 47.111 23.2527 47.111 22.9714C47.111 22.7441 47.0314 22.5538 46.8723 22.4004C46.7132 22.2441 46.4689 22.1277 46.1394 22.051L45.0485 21.7953C44.449 21.6532 44.0087 21.4331 43.7275 21.1348C43.449 20.8336 43.3098 20.4572 43.3098 20.0055C43.3098 19.6362 43.4135 19.3095 43.6209 19.0254C43.8311 18.7413 44.1167 18.5183 44.4775 18.3564C44.8411 18.1944 45.253 18.1135 45.7132 18.1135C46.361 18.1135 46.8695 18.2555 47.2388 18.5396C47.611 18.8237 47.8752 19.1987 48.0314 19.6646ZM52.3237 24.8805C51.7328 24.8805 51.2143 24.7399 50.7683 24.4586C50.3251 24.1774 49.9785 23.7839 49.7285 23.2782C49.4814 22.7725 49.3578 22.1816 49.3578 21.5055C49.3578 20.8237 49.4814 20.2285 49.7285 19.72C49.9785 19.2115 50.3251 18.8166 50.7683 18.5353C51.2143 18.2541 51.7328 18.1135 52.3237 18.1135C52.9146 18.1135 53.4316 18.2541 53.8748 18.5353C54.3208 18.8166 54.6674 19.2115 54.9146 19.72C55.1646 20.2285 55.2896 20.8237 55.2896 21.5055C55.2896 22.1816 55.1646 22.7725 54.9146 23.2782C54.6674 23.7839 54.3208 24.1774 53.8748 24.4586C53.4316 24.7399 52.9146 24.8805 52.3237 24.8805ZM52.3237 23.9771C52.7725 23.9771 53.1419 23.862 53.4316 23.6319C53.7214 23.4018 53.9359 23.0993 54.0751 22.7243C54.2143 22.3493 54.2839 21.943 54.2839 21.5055C54.2839 21.068 54.2143 20.6603 54.0751 20.2825C53.9359 19.9047 53.7214 19.5993 53.4316 19.3663C53.1419 19.1333 52.7725 19.0169 52.3237 19.0169C51.8748 19.0169 51.5055 19.1333 51.2157 19.3663C50.926 19.5993 50.7115 19.9047 50.5723 20.2825C50.4331 20.6603 50.3635 21.068 50.3635 21.5055C50.3635 21.943 50.4331 22.3493 50.5723 22.7243C50.7115 23.0993 50.926 23.4018 51.2157 23.6319C51.5055 23.862 51.8748 23.9771 52.3237 23.9771ZM56.8248 24.7441V18.1987H57.7963V19.1873H57.8645C57.9838 18.8635 58.1998 18.6007 58.5123 18.399C58.8248 18.1973 59.177 18.0964 59.5691 18.0964C59.6429 18.0964 59.7353 18.0978 59.8461 18.1007C59.9569 18.1035 60.0407 18.1078 60.0975 18.1135V19.1362C60.0634 19.1277 59.9853 19.1149 59.8631 19.0978C59.7438 19.0779 59.6174 19.068 59.4838 19.068C59.1657 19.068 58.8816 19.1348 58.6316 19.2683C58.3844 19.399 58.1884 19.5808 58.0435 19.8137C57.9015 20.0439 57.8304 20.3066 57.8304 20.6021V24.7441H56.8248ZM65.926 19.6646L65.0225 19.9203C64.9657 19.7697 64.8819 19.6234 64.7711 19.4814C64.6632 19.3365 64.5154 19.2172 64.3279 19.1234C64.1404 19.0297 63.9004 18.9828 63.6078 18.9828C63.2072 18.9828 62.8734 19.0751 62.6064 19.2598C62.3422 19.4416 62.21 19.6731 62.21 19.9544C62.21 20.2044 62.301 20.4018 62.4828 20.5467C62.6646 20.6916 62.9487 20.8123 63.335 20.9089L64.3066 21.1475C64.8919 21.2896 65.3279 21.5069 65.6149 21.7995C65.9018 22.0893 66.0453 22.4629 66.0453 22.9203C66.0453 23.2953 65.9373 23.6305 65.7214 23.926C65.5083 24.2214 65.21 24.4544 64.8265 24.6248C64.443 24.7953 63.997 24.8805 63.4885 24.8805C62.8208 24.8805 62.2683 24.7356 61.8308 24.4458C61.3933 24.1561 61.1163 23.7328 60.9998 23.176L61.9544 22.9373C62.0453 23.2896 62.2172 23.5538 62.47 23.7299C62.7257 23.9061 63.0595 23.9941 63.4714 23.9941C63.9402 23.9941 64.3123 23.8947 64.5879 23.6958C64.8663 23.4941 65.0055 23.2527 65.0055 22.9714C65.0055 22.7441 64.926 22.5538 64.7669 22.4004C64.6078 22.2441 64.3635 22.1277 64.0339 22.051L62.943 21.7953C62.3436 21.6532 61.9032 21.4331 61.622 21.1348C61.3436 20.8336 61.2044 20.4572 61.2044 20.0055C61.2044 19.6362 61.3081 19.3095 61.5154 19.0254C61.7257 18.7413 62.0112 18.5183 62.372 18.3564C62.7356 18.1944 63.1475 18.1135 63.6078 18.1135C64.2555 18.1135 64.764 18.2555 65.1333 18.5396C65.5055 18.8237 65.7697 19.1987 65.926 19.6646Z" fill="black"/>
</svg>
