<svg width="32" height="32" viewBox="0 0 32 32" fill="none" xmlns="http://www.w3.org/2000/svg">
<path d="M8.69438 5.0083V6.23974H7.1208C7.99307 7.11201 8.83967 7.95861 9.66918 8.78812C9.36132 9.09598 9.07907 9.37823 8.77121 9.68609C7.9417 8.85658 7.09512 8.00995 6.23995 7.15478V8.71119H5V5.01686H8.69438V5.0083Z" fill="#FFB422"/>
<path d="M26.0115 5.00856V8.68577H24.7885V7.19779C23.9504 8.03585 23.1124 8.8739 22.2915 9.69486C21.9579 9.36134 21.6671 9.07063 21.3764 8.77988C22.1888 7.96747 23.0354 7.12938 23.9162 6.24856H22.3257V5H26.0201L26.0115 5.00856Z" fill="#FFB422"/>
<path d="M5 22.334H6.23139V23.8905C7.09511 23.0267 7.9417 22.1801 8.77121 21.3506C9.07907 21.6584 9.36131 21.9407 9.66062 22.24C8.83111 23.0695 7.99307 23.9075 7.1208 24.7798H8.68582V26.0198H5.00856V22.3255L5 22.334Z" fill="#FFB422"/>
<path d="M16.1172 22.916V22.6937C16.1172 20.4873 16.1172 18.2896 16.1172 16.0832C16.1172 15.9293 16.1599 15.8438 16.2967 15.7668C18.2038 14.6722 20.1107 13.569 22.0178 12.4744C22.0776 12.4402 22.1375 12.406 22.2144 12.3633C22.2144 12.4231 22.2315 12.4744 22.2315 12.5257C22.2315 14.7663 22.2315 16.9983 22.2315 19.2388C22.2315 19.35 22.2145 19.4269 22.1034 19.4868C20.1536 20.6071 18.2037 21.7359 16.2625 22.8561C16.2197 22.8818 16.177 22.8904 16.1172 22.9246V22.916Z" fill="#0671B8"/>
<path d="M8.78835 12.3457C9.58365 12.8075 10.3618 13.2522 11.1315 13.7054C11.1828 13.7396 11.2171 13.8508 11.2171 13.9277C11.2171 14.9197 11.2171 15.9118 11.2171 16.9038C11.2171 18.1095 11.2171 19.3068 11.2171 20.5125C11.2171 20.5895 11.2171 20.675 11.2171 20.7776C11.1401 20.7434 11.0889 20.7264 11.0461 20.7007C10.3363 20.2902 9.62653 19.8883 8.91675 19.4693C8.84833 19.4265 8.77979 19.3324 8.77979 19.264C8.77979 16.9892 8.77979 14.7059 8.77979 12.4312C8.77979 12.4141 8.7798 12.3885 8.79691 12.3457H8.78835Z" fill="#0671B8"/>
<path d="M17.93 9.1559C17.8616 9.19866 17.8103 9.23282 17.759 9.26702C15.8349 10.3787 13.9108 11.4819 11.9952 12.5936C11.8755 12.662 11.7901 12.662 11.6618 12.5936C10.9777 12.1917 10.2934 11.7983 9.60927 11.4049C9.54941 11.3707 9.48099 11.328 9.39548 11.2767C9.88292 10.9945 10.3534 10.7208 10.8152 10.4557C12.3203 9.58345 13.834 8.71973 15.3391 7.83891C15.4588 7.77049 15.5528 7.77049 15.6725 7.83891C16.3652 8.24939 17.0664 8.6513 17.7676 9.05323C17.8189 9.07889 17.8702 9.11314 17.93 9.1559Z" fill="#0671B8"/>
<path d="M13.0642 13.3976C13.4575 13.1753 13.8253 12.9615 14.1845 12.7477C15.7836 11.8241 17.3913 10.9005 18.9904 9.96837C19.1272 9.8914 19.2215 9.8914 19.3583 9.96837C20.0937 10.4045 20.8376 10.8236 21.5987 11.2682C21.5303 11.311 21.4876 11.3452 21.4448 11.3709C19.5207 12.4826 17.588 13.6029 15.6553 14.706C15.5784 14.7488 15.45 14.7659 15.3816 14.7231C14.612 14.2955 13.8509 13.8508 13.0556 13.389L13.0642 13.3976Z" fill="#0671B8"/>
<path d="M14.8772 22.9158C14.8259 22.8902 14.783 22.8731 14.7488 22.856C14.0305 22.4369 13.3036 22.0179 12.5852 21.6074C12.4826 21.5476 12.4399 21.4877 12.4399 21.368C12.4399 19.136 12.4399 16.8954 12.4399 14.6634C12.4399 14.6121 12.4485 14.5609 12.457 14.4839C12.5853 14.5609 12.6964 14.6207 12.8076 14.6891C13.4489 15.0654 14.0989 15.4331 14.7403 15.8094C14.8087 15.8521 14.8687 15.9548 14.8687 16.0232C14.8687 18.2894 14.8687 20.5641 14.8687 22.8303C14.8687 22.8474 14.8687 22.8731 14.8601 22.9244L14.8772 22.9158Z" fill="#0671B8"/>
<path d="M21.3081 22.2656C21.6416 21.9321 21.9237 21.6499 22.2059 21.3677C23.0439 22.2057 23.8822 23.0524 24.7202 23.8904C24.7373 23.8904 24.7543 23.8733 24.7714 23.8647V22.334H25.9944V26.0027H22.3257V24.7969H23.8394C22.9928 23.9503 22.1462 23.1037 21.3081 22.2656Z" fill="#FFB422"/>
</svg>
