<svg width="32" height="32" viewBox="0 0 32 32" fill="none" xmlns="http://www.w3.org/2000/svg">
<path d="M6 9.38087C6.16017 8.93088 6.50334 8.69441 6.9152 8.48848C9.14227 7.3902 11.3617 6.27666 13.5812 5.1555C13.9778 4.9572 14.3591 4.94198 14.7557 5.14791C17.0667 6.30721 19.3777 7.4665 21.6886 8.61817C22.1463 8.84698 22.3674 9.21309 22.3598 9.72409C22.3598 10.0139 22.3598 10.2961 22.3598 10.6164C22.253 10.6164 22.1691 10.6164 22.0853 10.6164C20.5446 10.6164 18.9963 10.6164 17.4557 10.6164C16.5862 10.6164 16.0599 11.1427 16.0599 12.0122C16.0599 12.2562 16.0599 12.5003 16.0599 12.7825C15.9531 12.7825 15.8617 12.7825 15.7625 12.7825C13.5888 12.7825 11.4075 12.7825 9.23383 12.7825C8.83722 12.7825 8.76855 12.8587 8.76855 13.2553C8.76855 17.3968 8.76855 21.5383 8.76855 25.6797V25.9847C8.15076 25.9847 7.54827 26.0077 6.95337 25.9772C6.55677 25.9543 6.27454 25.7102 6.10674 25.3517C6.07623 25.2907 6.04573 25.2221 6.01522 25.1611C6.01522 19.9061 6.01522 14.6435 6.01522 9.3885L6 9.38087ZM15.3659 9.54101C15.3659 8.88509 14.8396 8.34358 14.1837 8.3512C13.5431 8.3512 13.0092 8.87749 13.0016 9.51815C13.0016 10.1741 13.5278 10.708 14.1837 10.708C14.8244 10.708 15.3583 10.1817 15.3659 9.54101Z" fill="#0671B8"/>
<path d="M11.9185 18.7012C11.9185 19.8223 11.9185 20.9054 11.9185 21.9884C11.9185 22.5909 12.1702 22.8426 12.7727 22.8426C13.2227 22.8426 13.6727 22.8426 14.1303 22.8426C14.5956 22.8426 14.8778 22.5604 14.8778 22.0875C14.8778 20.974 14.8778 19.8529 14.8778 18.7241C14.954 18.7241 15.0151 18.7088 15.0761 18.7088C15.6786 18.7088 16.2735 18.7088 16.876 18.7088C17.3641 18.7088 17.6387 18.991 17.6387 19.4715C17.6387 21.3935 17.6387 23.3155 17.6387 25.2375C17.6387 25.7256 17.3566 26.0002 16.8684 26.0002C14.5498 26.0002 12.2388 26.0002 9.92023 26.0002C9.4321 26.0002 9.15753 25.718 9.15753 25.2299C9.15753 23.3079 9.15753 21.3859 9.15753 19.4639C9.15753 18.9757 9.43974 18.7012 9.92786 18.7012C10.5838 18.7012 11.2397 18.7012 11.9185 18.7012Z" fill="#FFB422"/>
<path d="M24.0378 18.7086C24.77 18.7086 25.4869 18.6934 26.1962 18.7086C26.5547 18.7239 26.7911 19.0366 26.7988 19.4256C26.7988 19.9747 26.7988 20.5238 26.7988 21.073C26.7988 22.4306 26.7988 23.7806 26.7988 25.1382C26.7988 25.7254 26.5471 25.9847 25.9674 25.9847C23.6946 25.9847 21.4218 25.9847 19.1413 25.9847C18.5769 25.9847 18.3176 25.7178 18.3176 25.1534C18.3176 23.2848 18.3176 21.4086 18.3176 19.54C18.3176 18.9527 18.5693 18.6934 19.1489 18.6934C19.782 18.6934 20.4074 18.6934 21.0785 18.6934V18.968C21.0785 19.9824 21.0785 21.0044 21.0785 22.0188C21.0785 22.5679 21.3455 22.8272 21.8946 22.8272C22.3217 22.8272 22.7488 22.8272 23.1759 22.8272C23.7785 22.8272 24.0302 22.5755 24.0302 21.9806C24.0302 20.9814 24.0302 19.9747 24.0302 18.9756V18.6934L24.0378 18.7086Z" fill="#FFB422"/>
<path d="M19.4082 11.2037C19.4082 12.241 19.4311 13.2554 19.4082 14.2621C19.3854 15.1087 19.6523 15.3986 20.5065 15.3452C20.8421 15.3223 21.1777 15.3452 21.5133 15.3452C22.1158 15.3452 22.3675 15.0935 22.3675 14.4986C22.3675 13.4994 22.3675 12.4927 22.3675 11.4935V11.2113C23.0997 11.2113 23.8166 11.1961 24.5259 11.2113C24.8844 11.2266 25.1208 11.5393 25.1285 11.9283C25.1285 12.6147 25.1285 13.3088 25.1285 13.9952C25.1285 15.0782 25.1285 16.1613 25.1285 17.2443C25.1285 17.8316 24.8768 18.0909 24.2972 18.0909C22.0243 18.0909 19.7515 18.0909 17.471 18.0909C16.9066 18.0909 16.6473 17.8239 16.6473 17.2595C16.6473 15.5129 16.6473 13.7588 16.6473 12.0122C16.6473 11.4554 16.9066 11.1961 17.4557 11.1885C18.0964 11.1885 18.7371 11.1885 19.4082 11.1885V11.2037Z" fill="#FFB422"/>
<path d="M20.026 11.2188H21.7573C21.7573 11.2874 21.7726 11.3561 21.7726 11.4323C21.7726 12.4467 21.7726 13.4687 21.7726 14.4831C21.7726 14.7043 21.7039 14.7653 21.4904 14.7577C21.0633 14.7424 20.6361 14.7577 20.209 14.7577C20.0794 14.7577 19.9879 14.7348 19.9879 14.5746C19.9879 13.4764 19.9879 12.3781 19.9879 11.2721C19.9879 11.2569 20.0031 11.2416 20.0108 11.2188H20.026Z" fill="#FFB422"/>
<path d="M12.5059 18.7085H14.2677C14.2677 18.7695 14.283 18.8229 14.283 18.8839C14.283 19.9212 14.283 20.9508 14.283 21.9881C14.283 22.194 14.2295 22.2627 14.016 22.2551C13.5813 22.2398 13.1465 22.2551 12.7118 22.2551C12.5745 22.2551 12.4982 22.2169 12.4982 22.0644C12.4982 20.9585 12.4982 19.8525 12.4982 18.7161L12.5059 18.7085Z" fill="#FFB422"/>
<path d="M21.6735 18.7085H23.4505V19.7229C23.4505 20.4703 23.4505 21.2178 23.4505 21.9652C23.4505 22.1712 23.4048 22.2627 23.176 22.2474C22.7412 22.2322 22.3065 22.2474 21.8718 22.2474C21.7497 22.2474 21.6658 22.2245 21.6658 22.072C21.6658 20.9584 21.6658 19.8449 21.6658 18.7085H21.6735Z" fill="#FFB422"/>
</svg>
