<svg width="95" height="11" viewBox="0 0 95 11" fill="none" xmlns="http://www.w3.org/2000/svg">
<path d="M2.75 9.91309H0.0568182V1.18581H2.86932C3.71591 1.18581 4.44034 1.36053 5.04261 1.70996C5.64489 2.05655 6.10653 2.55513 6.42756 3.2057C6.74858 3.85343 6.90909 4.62899 6.90909 5.5324C6.90909 6.44149 6.74716 7.22417 6.4233 7.88042C6.09943 8.53382 5.62784 9.03667 5.00852 9.38894C4.3892 9.73837 3.63636 9.91309 2.75 9.91309ZM1.11364 8.97559H2.68182C3.40341 8.97559 4.00142 8.83638 4.47585 8.55797C4.95028 8.27956 5.30398 7.88326 5.53693 7.36905C5.76989 6.85485 5.88636 6.24263 5.88636 5.5324C5.88636 4.82786 5.77131 4.22132 5.54119 3.7128C5.31108 3.20144 4.96733 2.80939 4.50994 2.53666C4.05256 2.2611 3.48295 2.12331 2.80114 2.12331H1.11364V8.97559ZM8.54545 9.91309V3.36763H9.55114V9.91309H8.54545ZM9.05682 2.27672C8.8608 2.27672 8.69176 2.20996 8.54972 2.07644C8.41051 1.94292 8.34091 1.7824 8.34091 1.5949C8.34091 1.4074 8.41051 1.24689 8.54972 1.11337C8.69176 0.979847 8.8608 0.913086 9.05682 0.913086C9.25284 0.913086 9.42045 0.979847 9.55966 1.11337C9.7017 1.24689 9.77273 1.4074 9.77273 1.5949C9.77273 1.7824 9.7017 1.94292 9.55966 2.07644C9.42045 2.20996 9.25284 2.27672 9.05682 2.27672ZM16.0295 4.83354L15.1261 5.08922C15.0692 4.93865 14.9854 4.79235 14.8746 4.6503C14.7667 4.50542 14.619 4.3861 14.4315 4.29235C14.244 4.1986 14.0039 4.15172 13.7113 4.15172C13.3107 4.15172 12.9769 4.24405 12.7099 4.42871C12.4457 4.61053 12.3136 4.84206 12.3136 5.12331C12.3136 5.37331 12.4045 5.57076 12.5863 5.71564C12.7681 5.86053 13.0522 5.98127 13.4386 6.07786L14.4102 6.3165C14.9954 6.45854 15.4315 6.67587 15.7184 6.96848C16.0053 7.25826 16.1488 7.63184 16.1488 8.08922C16.1488 8.46422 16.0408 8.79945 15.8249 9.0949C15.6119 9.39036 15.3136 9.62331 14.93 9.79377C14.5465 9.96422 14.1005 10.0494 13.592 10.0494C12.9244 10.0494 12.3718 9.90456 11.9343 9.61479C11.4968 9.32502 11.2198 8.90172 11.1033 8.3449L12.0579 8.10627C12.1488 8.45854 12.3207 8.72275 12.5735 8.89888C12.8292 9.07502 13.163 9.16309 13.5749 9.16309C14.0437 9.16309 14.4158 9.06365 14.6914 8.86479C14.9698 8.66309 15.109 8.42161 15.109 8.14036C15.109 7.91309 15.0295 7.72274 14.8704 7.56934C14.7113 7.41309 14.467 7.29661 14.1374 7.2199L13.0465 6.96422C12.4471 6.82218 12.0067 6.60201 11.7255 6.30371C11.4471 6.00257 11.3079 5.62615 11.3079 5.17445C11.3079 4.80513 11.4116 4.47843 11.619 4.19434C11.8292 3.91024 12.1147 3.68723 12.4755 3.5253C12.8391 3.36337 13.2511 3.2824 13.7113 3.2824C14.359 3.2824 14.8675 3.42445 15.2369 3.70854C15.609 3.99263 15.8732 4.36763 16.0295 4.83354ZM20.5092 3.36763V4.2199H17.1172V3.36763H20.5092ZM18.1058 1.79945H19.1115V8.03809C19.1115 8.32218 19.1527 8.53524 19.2351 8.67729C19.3203 8.81649 19.4283 8.91025 19.5589 8.95854C19.6925 9.004 19.8331 9.02672 19.9808 9.02672C20.0916 9.02672 20.1825 9.02104 20.2536 9.00968C20.3246 8.99547 20.3814 8.98411 20.424 8.97559L20.6286 9.879C20.5604 9.90456 20.4652 9.93013 20.343 9.9557C20.2209 9.98411 20.0661 9.99831 19.8786 9.99831C19.5945 9.99831 19.3161 9.93723 19.0433 9.81507C18.7734 9.69292 18.549 9.50684 18.37 9.25684C18.1939 9.00684 18.1058 8.6915 18.1058 8.31081V1.79945ZM22.022 9.91309V3.36763H22.9936V4.35627H23.0618C23.1811 4.0324 23.397 3.76962 23.7095 3.56791C24.022 3.36621 24.3743 3.26536 24.7663 3.26536C24.8402 3.26536 24.9325 3.26678 25.0433 3.26962C25.1541 3.27246 25.2379 3.27672 25.2947 3.2824V4.30513C25.2607 4.29661 25.1825 4.28382 25.0604 4.26678C24.9411 4.24689 24.8146 4.23695 24.6811 4.23695C24.3629 4.23695 24.0788 4.30371 23.8288 4.43723C23.5817 4.56792 23.3857 4.74973 23.2408 4.98269C23.0987 5.2128 23.0277 5.47559 23.0277 5.77104V9.91309H22.022ZM26.4869 9.91309V3.36763H27.4925V9.91309H26.4869ZM26.9982 2.27672C26.8022 2.27672 26.6332 2.20996 26.4911 2.07644C26.3519 1.94292 26.2823 1.7824 26.2823 1.5949C26.2823 1.4074 26.3519 1.24689 26.4911 1.11337C26.6332 0.979847 26.8022 0.913086 26.9982 0.913086C27.1942 0.913086 27.3619 0.979847 27.5011 1.11337C27.6431 1.24689 27.7141 1.4074 27.7141 1.5949C27.7141 1.7824 27.6431 1.94292 27.5011 2.07644C27.3619 2.20996 27.1942 2.27672 26.9982 2.27672ZM29.4709 9.91309V1.18581H30.4766V4.4074H30.5618C30.6357 4.29377 30.7379 4.14888 30.8686 3.97274C31.0021 3.79377 31.1925 3.63468 31.4396 3.49547C31.6896 3.35343 32.0277 3.2824 32.4538 3.2824C33.005 3.2824 33.4908 3.42019 33.9112 3.69576C34.3317 3.97132 34.6598 4.36195 34.8956 4.86763C35.1314 5.37331 35.2493 5.9699 35.2493 6.6574C35.2493 7.35059 35.1314 7.95144 34.8956 8.45996C34.6598 8.96564 34.3331 9.35769 33.9155 9.6361C33.4979 9.91167 33.0163 10.0494 32.4709 10.0494C32.0504 10.0494 31.7138 9.97985 31.4609 9.84064C31.2081 9.6986 31.0135 9.53809 30.8771 9.35911C30.7408 9.17729 30.6357 9.02672 30.5618 8.9074H30.4425V9.91309H29.4709ZM30.4595 6.64036C30.4595 7.13468 30.532 7.57076 30.6768 7.9486C30.8217 8.3236 31.0334 8.61763 31.3118 8.8307C31.5902 9.04093 31.9311 9.14604 32.3345 9.14604C32.755 9.14604 33.1058 9.03525 33.3871 8.81365C33.6712 8.58922 33.8842 8.28809 34.0263 7.91024C34.1712 7.52956 34.2436 7.10627 34.2436 6.64036C34.2436 6.18013 34.1726 5.76536 34.0305 5.39604C33.8913 5.02388 33.6797 4.72985 33.3956 4.51394C33.1143 4.29519 32.7607 4.18581 32.3345 4.18581C31.9254 4.18581 31.5817 4.28951 31.3033 4.49689C31.0249 4.70144 30.8146 4.98837 30.6726 5.35769C30.5305 5.72417 30.4595 6.15172 30.4595 6.64036ZM40.9126 7.23695V3.36763H41.9183V9.91309H40.9126V8.80513H40.8445C40.6911 9.13752 40.4524 9.42019 40.1286 9.65314C39.8047 9.88326 39.3956 9.99831 38.9013 9.99831C38.4922 9.99831 38.1286 9.90882 37.8104 9.72985C37.4922 9.54803 37.2422 9.2753 37.0604 8.91167C36.8786 8.54519 36.7876 8.08354 36.7876 7.52672V3.36763H37.7933V7.45854C37.7933 7.93581 37.9268 8.31649 38.1939 8.60059C38.4638 8.88468 38.8075 9.02672 39.2251 9.02672C39.4751 9.02672 39.7294 8.9628 39.9879 8.83496C40.2493 8.70712 40.468 8.5111 40.6442 8.24689C40.8232 7.98269 40.9126 7.64604 40.9126 7.23695ZM46.6069 3.36763V4.2199H43.2148V3.36763H46.6069ZM44.2035 1.79945H45.2092V8.03809C45.2092 8.32218 45.2504 8.53524 45.3327 8.67729C45.418 8.81649 45.5259 8.91025 45.6566 8.95854C45.7901 9.004 45.9308 9.02672 46.0785 9.02672C46.1893 9.02672 46.2802 9.02104 46.3512 9.00968C46.4222 8.99547 46.479 8.98411 46.5217 8.97559L46.7262 9.879C46.658 9.90456 46.5629 9.93013 46.4407 9.9557C46.3185 9.98411 46.1637 9.99831 45.9762 9.99831C45.6921 9.99831 45.4137 9.93723 45.141 9.81507C44.8711 9.69292 44.6467 9.50684 44.4677 9.25684C44.2915 9.00684 44.2035 8.6915 44.2035 8.31081V1.79945ZM50.7937 10.0494C50.163 10.0494 49.619 9.91025 49.1616 9.63184C48.707 9.35059 48.3562 8.95854 48.109 8.4557C47.8647 7.95002 47.7425 7.36195 47.7425 6.6915C47.7425 6.02104 47.8647 5.43013 48.109 4.91877C48.3562 4.40456 48.6999 4.00399 49.1403 3.71706C49.5835 3.42729 50.1005 3.2824 50.6914 3.2824C51.0323 3.2824 51.369 3.33922 51.7013 3.45286C52.0337 3.56649 52.3363 3.75115 52.609 4.00684C52.8817 4.25968 53.0991 4.5949 53.261 5.01252C53.4229 5.43013 53.5039 5.94434 53.5039 6.55513V6.98127H48.4585V6.11195H52.4812C52.4812 5.74263 52.4073 5.41309 52.2596 5.12331C52.1147 4.83354 51.9073 4.60485 51.6374 4.43723C51.3704 4.26962 51.055 4.18581 50.6914 4.18581C50.2908 4.18581 49.9442 4.28524 49.6516 4.48411C49.3619 4.68013 49.1388 4.93581 48.9826 5.25115C48.8263 5.56649 48.7482 5.90456 48.7482 6.26536V6.8449C48.7482 7.33922 48.8335 7.75826 49.0039 8.10201C49.1772 8.44292 49.4173 8.70286 49.7241 8.88184C50.0309 9.05797 50.3874 9.14604 50.7937 9.14604C51.0579 9.14604 51.2965 9.10911 51.5096 9.03524C51.7255 8.95854 51.9116 8.8449 52.0678 8.69434C52.2241 8.54093 52.3448 8.35059 52.43 8.12331L53.4016 8.39604C53.2994 8.72559 53.1275 9.01536 52.886 9.26536C52.6445 9.51252 52.3462 9.7057 51.9911 9.8449C51.636 9.98127 51.2369 10.0494 50.7937 10.0494ZM55.0337 9.91309V3.36763H56.0053V4.35627H56.0735C56.1928 4.0324 56.4087 3.76962 56.7212 3.56791C57.0337 3.36621 57.386 3.26536 57.7781 3.26536C57.8519 3.26536 57.9442 3.26678 58.055 3.26962C58.1658 3.27246 58.2496 3.27672 58.3065 3.2824V4.30513C58.2724 4.29661 58.1942 4.28382 58.0721 4.26678C57.9528 4.24689 57.8263 4.23695 57.6928 4.23695C57.3746 4.23695 57.0906 4.30371 56.8406 4.43723C56.5934 4.56792 56.3974 4.74973 56.2525 4.98269C56.1104 5.2128 56.0394 5.47559 56.0394 5.77104V9.91309H55.0337ZM68.7372 1.18581H69.794V6.96422C69.794 7.56081 69.6534 8.09348 69.3722 8.56223C69.0938 9.02814 68.7003 9.39604 68.1918 9.66593C67.6832 9.93297 67.0866 10.0665 66.402 10.0665C65.7173 10.0665 65.1207 9.93297 64.6122 9.66593C64.1037 9.39604 63.7088 9.02814 63.4276 8.56223C63.1491 8.09348 63.0099 7.56081 63.0099 6.96422V1.18581H64.0668V6.879C64.0668 7.30513 64.1605 7.68439 64.348 8.01678C64.5355 8.34632 64.8026 8.60627 65.1491 8.79661C65.4986 8.98411 65.9162 9.07786 66.402 9.07786C66.8878 9.07786 67.3054 8.98411 67.6548 8.79661C68.0043 8.60627 68.2713 8.34632 68.456 8.01678C68.6435 7.68439 68.7372 7.30513 68.7372 6.879V1.18581ZM76.4045 4.83354L75.5011 5.08922C75.4442 4.93865 75.3604 4.79235 75.2496 4.6503C75.1417 4.50542 74.994 4.3861 74.8065 4.29235C74.619 4.1986 74.3789 4.15172 74.0863 4.15172C73.6857 4.15172 73.3519 4.24405 73.0849 4.42871C72.8207 4.61053 72.6886 4.84206 72.6886 5.12331C72.6886 5.37331 72.7795 5.57076 72.9613 5.71564C73.1431 5.86053 73.4272 5.98127 73.8136 6.07786L74.7852 6.3165C75.3704 6.45854 75.8065 6.67587 76.0934 6.96848C76.3803 7.25826 76.5238 7.63184 76.5238 8.08922C76.5238 8.46422 76.4158 8.79945 76.1999 9.0949C75.9869 9.39036 75.6886 9.62331 75.305 9.79377C74.9215 9.96422 74.4755 10.0494 73.967 10.0494C73.2994 10.0494 72.7468 9.90456 72.3093 9.61479C71.8718 9.32502 71.5948 8.90172 71.4783 8.3449L72.4329 8.10627C72.5238 8.45854 72.6957 8.72275 72.9485 8.89888C73.2042 9.07502 73.538 9.16309 73.9499 9.16309C74.4187 9.16309 74.7908 9.06365 75.0664 8.86479C75.3448 8.66309 75.484 8.42161 75.484 8.14036C75.484 7.91309 75.4045 7.72274 75.2454 7.56934C75.0863 7.41309 74.842 7.29661 74.5124 7.2199L73.4215 6.96422C72.8221 6.82218 72.3817 6.60201 72.1005 6.30371C71.8221 6.00257 71.6829 5.62615 71.6829 5.17445C71.6829 4.80513 71.7866 4.47843 71.994 4.19434C72.2042 3.91024 72.4897 3.68723 72.8505 3.5253C73.2141 3.36337 73.6261 3.2824 74.0863 3.2824C74.734 3.2824 75.2425 3.42445 75.6119 3.70854C75.984 3.99263 76.2482 4.36763 76.4045 4.83354ZM80.782 10.0494C80.1513 10.0494 79.6072 9.91025 79.1499 9.63184C78.6953 9.35059 78.3445 8.95854 78.0973 8.4557C77.853 7.95002 77.7308 7.36195 77.7308 6.6915C77.7308 6.02104 77.853 5.43013 78.0973 4.91877C78.3445 4.40456 78.6882 4.00399 79.1286 3.71706C79.5717 3.42729 80.0888 3.2824 80.6797 3.2824C81.0206 3.2824 81.3572 3.33922 81.6896 3.45286C82.022 3.56649 82.3246 3.75115 82.5973 4.00684C82.87 4.25968 83.0874 4.5949 83.2493 5.01252C83.4112 5.43013 83.4922 5.94434 83.4922 6.55513V6.98127H78.4467V6.11195H82.4695C82.4695 5.74263 82.3956 5.41309 82.2479 5.12331C82.103 4.83354 81.8956 4.60485 81.6257 4.43723C81.3587 4.26962 81.0433 4.18581 80.6797 4.18581C80.2791 4.18581 79.9325 4.28524 79.6399 4.48411C79.3501 4.68013 79.1271 4.93581 78.9709 5.25115C78.8146 5.56649 78.7365 5.90456 78.7365 6.26536V6.8449C78.7365 7.33922 78.8217 7.75826 78.9922 8.10201C79.1655 8.44292 79.4055 8.70286 79.7124 8.88184C80.0192 9.05797 80.3757 9.14604 80.782 9.14604C81.0462 9.14604 81.2848 9.10911 81.4979 9.03524C81.7138 8.95854 81.8999 8.8449 82.0561 8.69434C82.2124 8.54093 82.3331 8.35059 82.4183 8.12331L83.3899 8.39604C83.2876 8.72559 83.1158 9.01536 82.8743 9.26536C82.6328 9.51252 82.3345 9.7057 81.9794 9.8449C81.6243 9.98127 81.2251 10.0494 80.782 10.0494ZM85.022 9.91309V3.36763H85.9936V4.35627H86.0618C86.1811 4.0324 86.397 3.76962 86.7095 3.56791C87.022 3.36621 87.3743 3.26536 87.7663 3.26536C87.8402 3.26536 87.9325 3.26678 88.0433 3.26962C88.1541 3.27246 88.2379 3.27672 88.2947 3.2824V4.30513C88.2607 4.29661 88.1825 4.28382 88.0604 4.26678C87.9411 4.24689 87.8146 4.23695 87.6811 4.23695C87.3629 4.23695 87.0788 4.30371 86.8288 4.43723C86.5817 4.56792 86.3857 4.74973 86.2408 4.98269C86.0987 5.2128 86.0277 5.47559 86.0277 5.77104V9.91309H85.022ZM94.1232 4.83354L93.2198 5.08922C93.163 4.93865 93.0792 4.79235 92.9684 4.6503C92.8604 4.50542 92.7127 4.3861 92.5252 4.29235C92.3377 4.1986 92.0977 4.15172 91.805 4.15172C91.4045 4.15172 91.0707 4.24405 90.8036 4.42871C90.5394 4.61053 90.4073 4.84206 90.4073 5.12331C90.4073 5.37331 90.4982 5.57076 90.68 5.71564C90.8619 5.86053 91.146 5.98127 91.5323 6.07786L92.5039 6.3165C93.0891 6.45854 93.5252 6.67587 93.8121 6.96848C94.0991 7.25826 94.2425 7.63184 94.2425 8.08922C94.2425 8.46422 94.1346 8.79945 93.9187 9.0949C93.7056 9.39036 93.4073 9.62331 93.0238 9.79377C92.6403 9.96422 92.1942 10.0494 91.6857 10.0494C91.0181 10.0494 90.4656 9.90456 90.0281 9.61479C89.5906 9.32502 89.3136 8.90172 89.1971 8.3449L90.1516 8.10627C90.2425 8.45854 90.4144 8.72275 90.6673 8.89888C90.9229 9.07502 91.2567 9.16309 91.6687 9.16309C92.1374 9.16309 92.5096 9.06365 92.7852 8.86479C93.0636 8.66309 93.2028 8.42161 93.2028 8.14036C93.2028 7.91309 93.1232 7.72274 92.9641 7.56934C92.805 7.41309 92.5607 7.29661 92.2312 7.2199L91.1403 6.96422C90.5408 6.82218 90.1005 6.60201 89.8192 6.30371C89.5408 6.00257 89.4016 5.62615 89.4016 5.17445C89.4016 4.80513 89.5053 4.47843 89.7127 4.19434C89.9229 3.91024 90.2085 3.68723 90.5692 3.5253C90.9329 3.36337 91.3448 3.2824 91.805 3.2824C92.4528 3.2824 92.9613 3.42445 93.3306 3.70854C93.7028 3.99263 93.967 4.36763 94.1232 4.83354Z" fill="black"/>
</svg>
