<svg width="32" height="32" viewBox="0 0 32 32" fill="none" xmlns="http://www.w3.org/2000/svg">
<path d="M5 25.5749C5.04471 25.1498 5.08941 24.7248 5.12667 24.2923C5.18628 23.651 5.23099 23.0096 5.2906 22.3758C5.29805 22.2938 5.35767 22.1595 5.40983 22.1446C5.47689 22.1297 5.58866 22.1893 5.65572 22.2564C5.87926 22.4727 6.0879 22.6964 6.33379 22.95C6.53498 22.7412 6.7138 22.5473 6.90754 22.3609C7.27265 21.9955 7.63032 21.63 8.00288 21.2721C8.21152 21.0708 8.37545 21.0708 8.58409 21.2721C8.9641 21.6524 9.34412 22.0253 9.72414 22.4056C9.94768 22.6293 9.94768 22.7934 9.72414 23.0171C9.18019 23.5615 8.63625 24.1058 8.0625 24.68C8.29349 24.9037 8.51702 25.1051 8.73311 25.3288C8.80017 25.3959 8.82253 25.5003 8.86724 25.5898C8.77782 25.6345 8.69586 25.7016 8.60644 25.7091C7.63032 25.7986 6.6542 25.8732 5.67807 25.9552C5.59611 25.9552 5.51414 25.985 5.43218 25.9925H5.00745C5.00745 25.8508 5.00745 25.7091 5.00745 25.5674L5 25.5749Z" fill="#FFB422"/>
<path d="M5 5.07532C5.08942 5.04549 5.18628 4.99326 5.26825 5.00072C6.3785 5.09021 7.48874 5.17973 8.59899 5.27668C8.68841 5.28413 8.77783 5.35868 8.85979 5.39597C8.81508 5.48545 8.78527 5.58984 8.72566 5.65695C8.51703 5.87321 8.29349 6.08204 8.01779 6.34304C8.12956 6.41761 8.22642 6.46978 8.29348 6.54435C8.77782 7.0216 9.25471 7.49885 9.7316 7.98356C9.93278 8.19236 9.93278 8.3639 9.7316 8.56524C9.35158 8.95301 8.96411 9.33331 8.57664 9.72108C8.368 9.92243 8.19662 9.92988 7.99544 9.72108C7.44404 9.17672 6.90009 8.6249 6.32634 8.0507C6.09534 8.28187 5.87926 8.51302 5.65572 8.72928C5.58866 8.78893 5.47689 8.85606 5.40983 8.84115C5.35021 8.82624 5.29805 8.69947 5.2906 8.60998C5.20119 7.6331 5.12667 6.65622 5.04471 5.67934C5.03725 5.58986 5.0149 5.50038 5 5.4109V5.07532Z" fill="#FFB422"/>
<path d="M25.5732 26C25.1484 25.9552 24.7237 25.9105 24.2915 25.8732C23.6507 25.8136 23.0099 25.7688 22.3765 25.7091C22.2946 25.7017 22.1605 25.642 22.1455 25.5898C22.1306 25.5227 22.1977 25.4109 22.2573 25.3437C22.466 25.12 22.6969 24.9038 22.9428 24.6577C22.7491 24.4713 22.5628 24.2997 22.384 24.1208C22.0114 23.7554 21.6463 23.3825 21.2737 23.0171C21.0502 22.7934 21.0502 22.6293 21.2737 22.4056C21.6463 22.0328 22.0189 21.6599 22.3989 21.2796C22.6224 21.0559 22.7864 21.0559 23.0099 21.2796C23.5539 21.824 24.0978 22.3684 24.6715 22.9426C24.8951 22.7114 25.0963 22.4877 25.3198 22.2789C25.3869 22.2118 25.4912 22.1819 25.5806 22.1372C25.6253 22.2267 25.6924 22.3087 25.6998 22.3982C25.7967 23.5093 25.8936 24.6204 25.9755 25.7315C25.9755 25.821 25.9234 25.9105 25.901 26H25.5657H25.5732Z" fill="#FFB422"/>
<path d="M15.4989 22.3086C14.7613 22.3086 14.0161 22.3086 13.2785 22.3086C12.66 22.3086 12.3396 21.8537 12.5482 21.2646C12.9953 19.9969 14.195 19.1542 15.5511 19.1691C16.8923 19.1841 18.0697 20.0565 18.4869 21.3243C18.6509 21.8388 18.3305 22.2937 17.7865 22.3011C17.0265 22.3011 16.2664 22.3011 15.4989 22.3011V22.3086Z" fill="#0671B8"/>
<path d="M9.75395 18.2893C9.00881 18.2893 8.25622 18.2893 7.51109 18.2893C6.90008 18.2893 6.58712 17.8344 6.78831 17.2602C7.22794 16.0074 8.4127 15.1574 9.73904 15.1499C11.0654 15.1499 12.2576 15.9926 12.7047 17.2453C12.9133 17.8345 12.6003 18.2819 11.9819 18.2893C11.2442 18.2893 10.4991 18.2893 9.76139 18.2893H9.75395Z" fill="#0671B8"/>
<path d="M21.2587 18.2894C20.5136 18.2894 19.761 18.2894 19.0159 18.2894C18.4048 18.2894 18.0919 17.8419 18.2856 17.2677C18.7253 15.9926 19.9324 15.1425 21.2736 15.1574C22.6148 15.1723 23.8145 16.0523 24.2243 17.3274C24.3882 17.8345 24.0679 18.2819 23.5388 18.2894C22.7788 18.2894 22.0187 18.2894 21.2512 18.2894H21.2587Z" fill="#0671B8"/>
<path d="M24.6714 8.05054C24.12 8.60237 23.5984 9.1318 23.0694 9.66126C22.7713 9.95954 22.6521 9.95208 22.3541 9.66126C21.9964 9.30332 21.6387 8.94541 21.2811 8.58001C21.065 8.36376 21.065 8.19966 21.2811 7.98341C21.7729 7.49124 22.2647 6.99162 22.7639 6.49945C22.8161 6.44725 22.8906 6.40996 22.9725 6.35776C22.6968 6.08185 22.4659 5.85815 22.2423 5.62698C22.1902 5.56732 22.1454 5.46292 22.1603 5.39581C22.1678 5.35107 22.287 5.2914 22.3541 5.2914C23.4867 5.19446 24.6118 5.09751 25.7444 5.00803C25.9531 4.99311 26.0127 5.05279 25.9978 5.26159C25.9083 6.39507 25.8115 7.52108 25.7146 8.65457C25.7146 8.72914 25.655 8.83354 25.6028 8.84846C25.5432 8.87083 25.4389 8.8261 25.3868 8.7739C25.1483 8.54273 24.9248 8.30409 24.6789 8.05801L24.6714 8.05054Z" fill="#FFB422"/>
<path d="M15.4989 13.8524C14.7612 13.8524 14.0161 13.8524 13.2784 13.8524C12.6376 13.8524 12.3321 13.405 12.5481 12.8009C12.9952 11.5556 14.2023 10.7055 15.5212 10.7204C16.8774 10.7353 18.0621 11.6003 18.4794 12.8829C18.6508 13.3975 18.3378 13.8524 17.7864 13.8524C17.0264 13.8524 16.2664 13.8524 15.4989 13.8524Z" fill="#0671B8"/>
<path d="M22.8311 13.1366C22.8311 14.0165 22.1307 14.7249 21.2514 14.7249C20.3796 14.7249 19.6643 14.0091 19.6643 13.1366C19.6643 12.2715 20.3722 11.5631 21.2365 11.5557C22.1083 11.5557 22.8237 12.2566 22.8311 13.1366Z" fill="#0671B8"/>
<path d="M8.16687 13.1514C8.16687 12.2714 8.87474 11.563 9.74655 11.563C10.6184 11.563 11.3337 12.2863 11.3337 13.1588C11.3337 14.0238 10.6184 14.7323 9.76145 14.7397C8.8822 14.7397 8.17432 14.0387 8.17432 13.1588L8.16687 13.1514Z" fill="#0671B8"/>
<path d="M17.0786 17.1631C17.0786 18.0431 16.3633 18.7515 15.4915 18.744C14.6122 18.744 13.9118 18.0207 13.9192 17.1407C13.9267 16.2608 14.6346 15.5673 15.5213 15.5748C16.3856 15.5748 17.0861 16.2907 17.0861 17.1631H17.0786Z" fill="#0671B8"/>
<path d="M17.0786 8.70708C17.0786 9.58702 16.3782 10.2954 15.4989 10.288C14.6271 10.288 13.9267 9.59449 13.9192 8.72201C13.9118 7.84207 14.6122 7.13362 15.4915 7.11871C16.3633 7.11125 17.0786 7.81968 17.0786 8.69961V8.70708Z" fill="#0671B8"/>
</svg>
