<svg width="110" height="10" viewBox="0 0 110 10" fill="none" xmlns="http://www.w3.org/2000/svg">
<path d="M2.75 9.46289H0.0568182V0.735618H2.86932C3.71591 0.735618 4.44034 0.910334 5.04261 1.25977C5.64489 1.60636 6.10653 2.10494 6.42756 2.7555C6.74858 3.40323 6.90909 4.1788 6.90909 5.08221C6.90909 5.9913 6.74716 6.77397 6.4233 7.43022C6.09943 8.08363 5.62784 8.58647 5.00852 8.93874C4.3892 9.28817 3.63636 9.46289 2.75 9.46289ZM1.11364 8.52539H2.68182C3.40341 8.52539 4.00142 8.38619 4.47585 8.10778C4.95028 7.82937 5.30398 7.43306 5.53693 6.91886C5.76989 6.40465 5.88636 5.79244 5.88636 5.08221C5.88636 4.37766 5.77131 3.77113 5.54119 3.26261C5.31108 2.75124 4.96733 2.3592 4.50994 2.08647C4.05256 1.8109 3.48295 1.67312 2.80114 1.67312H1.11364V8.52539ZM8.54545 9.46289V2.91744H9.55114V9.46289H8.54545ZM9.05682 1.82653C8.8608 1.82653 8.69176 1.75977 8.54972 1.62624C8.41051 1.49272 8.34091 1.33221 8.34091 1.14471C8.34091 0.957209 8.41051 0.796697 8.54972 0.663174C8.69176 0.529652 8.8608 0.462891 9.05682 0.462891C9.25284 0.462891 9.42045 0.529652 9.55966 0.663174C9.7017 0.796697 9.77273 0.957209 9.77273 1.14471C9.77273 1.33221 9.7017 1.49272 9.55966 1.62624C9.42045 1.75977 9.25284 1.82653 9.05682 1.82653ZM16.0295 4.38335L15.1261 4.63903C15.0692 4.48846 14.9854 4.34215 14.8746 4.20011C14.7667 4.05522 14.619 3.9359 14.4315 3.84215C14.244 3.7484 14.0039 3.70153 13.7113 3.70153C13.3107 3.70153 12.9769 3.79386 12.7099 3.97852C12.4457 4.16033 12.3136 4.39187 12.3136 4.67312C12.3136 4.92312 12.4045 5.12056 12.5863 5.26545C12.7681 5.41033 13.0522 5.53107 13.4386 5.62766L14.4102 5.8663C14.9954 6.00835 15.4315 6.22567 15.7184 6.51829C16.0053 6.80806 16.1488 7.18164 16.1488 7.63903C16.1488 8.01403 16.0408 8.34925 15.8249 8.64471C15.6119 8.94016 15.3136 9.17312 14.93 9.34357C14.5465 9.51403 14.1005 9.59925 13.592 9.59925C12.9244 9.59925 12.3718 9.45437 11.9343 9.1646C11.4968 8.87482 11.2198 8.45153 11.1033 7.89471L12.0579 7.65607C12.1488 8.00835 12.3207 8.27255 12.5735 8.44869C12.8292 8.62482 13.163 8.71289 13.5749 8.71289C14.0437 8.71289 14.4158 8.61346 14.6914 8.4146C14.9698 8.21289 15.109 7.97141 15.109 7.69016C15.109 7.46289 15.0295 7.27255 14.8704 7.11914C14.7113 6.96289 14.467 6.84641 14.1374 6.76971L13.0465 6.51403C12.4471 6.37198 12.0067 6.15181 11.7255 5.85352C11.4471 5.55238 11.3079 5.17596 11.3079 4.72425C11.3079 4.35494 11.4116 4.02823 11.619 3.74414C11.8292 3.46005 12.1147 3.23704 12.4755 3.07511C12.8391 2.91317 13.2511 2.83221 13.7113 2.83221C14.359 2.83221 14.8675 2.97425 15.2369 3.25834C15.609 3.54244 15.8732 3.91744 16.0295 4.38335ZM20.5092 2.91744V3.76971H17.1172V2.91744H20.5092ZM18.1058 1.34925H19.1115V7.58789C19.1115 7.87198 19.1527 8.08505 19.2351 8.2271C19.3203 8.3663 19.4283 8.46005 19.5589 8.50835C19.6925 8.5538 19.8331 8.57653 19.9808 8.57653C20.0916 8.57653 20.1825 8.57085 20.2536 8.55948C20.3246 8.54528 20.3814 8.53391 20.424 8.52539L20.6286 9.4288C20.5604 9.45437 20.4652 9.47994 20.343 9.5055C20.2209 9.53391 20.0661 9.54812 19.8786 9.54812C19.5945 9.54812 19.3161 9.48704 19.0433 9.36488C18.7734 9.24272 18.549 9.05664 18.37 8.80664C18.1939 8.55664 18.1058 8.2413 18.1058 7.86062V1.34925ZM22.022 9.46289V2.91744H22.9936V3.90607H23.0618C23.1811 3.58221 23.397 3.31942 23.7095 3.11772C24.022 2.91602 24.3743 2.81516 24.7663 2.81516C24.8402 2.81516 24.9325 2.81658 25.0433 2.81942C25.1541 2.82227 25.2379 2.82653 25.2947 2.83221V3.85494C25.2607 3.84641 25.1825 3.83363 25.0604 3.81658C24.9411 3.7967 24.8146 3.78675 24.6811 3.78675C24.3629 3.78675 24.0788 3.85352 23.8288 3.98704C23.5817 4.11772 23.3857 4.29954 23.2408 4.53249C23.0987 4.76261 23.0277 5.02539 23.0277 5.32085V9.46289H22.022ZM26.4869 9.46289V2.91744H27.4925V9.46289H26.4869ZM26.9982 1.82653C26.8022 1.82653 26.6332 1.75977 26.4911 1.62624C26.3519 1.49272 26.2823 1.33221 26.2823 1.14471C26.2823 0.957209 26.3519 0.796697 26.4911 0.663174C26.6332 0.529652 26.8022 0.462891 26.9982 0.462891C27.1942 0.462891 27.3619 0.529652 27.5011 0.663174C27.6431 0.796697 27.7141 0.957209 27.7141 1.14471C27.7141 1.33221 27.6431 1.49272 27.5011 1.62624C27.3619 1.75977 27.1942 1.82653 26.9982 1.82653ZM29.4709 9.46289V0.735618H30.4766V3.95721H30.5618C30.6357 3.84357 30.7379 3.69869 30.8686 3.52255C31.0021 3.34357 31.1925 3.18448 31.4396 3.04528C31.6896 2.90323 32.0277 2.83221 32.4538 2.83221C33.005 2.83221 33.4908 2.96999 33.9112 3.24556C34.3317 3.52113 34.6598 3.91175 34.8956 4.41744C35.1314 4.92312 35.2493 5.51971 35.2493 6.20721C35.2493 6.90039 35.1314 7.50124 34.8956 8.00977C34.6598 8.51545 34.3331 8.90749 33.9155 9.1859C33.4979 9.46147 33.0163 9.59925 32.4709 9.59925C32.0504 9.59925 31.7138 9.52965 31.4609 9.39045C31.2081 9.2484 31.0135 9.08789 30.8771 8.90891C30.7408 8.7271 30.6357 8.57653 30.5618 8.45721H30.4425V9.46289H29.4709ZM30.4595 6.19016C30.4595 6.68448 30.532 7.12056 30.6768 7.4984C30.8217 7.8734 31.0334 8.16744 31.3118 8.3805C31.5902 8.59073 31.9311 8.69585 32.3345 8.69585C32.755 8.69585 33.1058 8.58505 33.3871 8.36346C33.6712 8.13903 33.8842 7.83789 34.0263 7.46005C34.1712 7.07937 34.2436 6.65607 34.2436 6.19016C34.2436 5.72994 34.1726 5.31516 34.0305 4.94585C33.8913 4.57369 33.6797 4.27965 33.3956 4.06374C33.1143 3.84499 32.7607 3.73562 32.3345 3.73562C31.9254 3.73562 31.5817 3.83931 31.3033 4.0467C31.0249 4.25124 30.8146 4.53817 30.6726 4.90749C30.5305 5.27397 30.4595 5.70153 30.4595 6.19016ZM40.9126 6.78675V2.91744H41.9183V9.46289H40.9126V8.35494H40.8445C40.6911 8.68732 40.4524 8.96999 40.1286 9.20295C39.8047 9.43306 39.3956 9.54812 38.9013 9.54812C38.4922 9.54812 38.1286 9.45863 37.8104 9.27965C37.4922 9.09783 37.2422 8.82511 37.0604 8.46147C36.8786 8.09499 36.7876 7.63335 36.7876 7.07653V2.91744H37.7933V7.00835C37.7933 7.48562 37.9268 7.8663 38.1939 8.15039C38.4638 8.43448 38.8075 8.57653 39.2251 8.57653C39.4751 8.57653 39.7294 8.51261 39.9879 8.38477C40.2493 8.25692 40.468 8.0609 40.6442 7.7967C40.8232 7.53249 40.9126 7.19585 40.9126 6.78675ZM46.6069 2.91744V3.76971H43.2148V2.91744H46.6069ZM44.2035 1.34925H45.2092V7.58789C45.2092 7.87198 45.2504 8.08505 45.3327 8.2271C45.418 8.3663 45.5259 8.46005 45.6566 8.50835C45.7901 8.5538 45.9308 8.57653 46.0785 8.57653C46.1893 8.57653 46.2802 8.57085 46.3512 8.55948C46.4222 8.54528 46.479 8.53391 46.5217 8.52539L46.7262 9.4288C46.658 9.45437 46.5629 9.47994 46.4407 9.5055C46.3185 9.53391 46.1637 9.54812 45.9762 9.54812C45.6921 9.54812 45.4137 9.48704 45.141 9.36488C44.8711 9.24272 44.6467 9.05664 44.4677 8.80664C44.2915 8.55664 44.2035 8.2413 44.2035 7.86062V1.34925ZM50.7085 9.59925C50.1175 9.59925 49.5991 9.45863 49.1531 9.17738C48.7099 8.89613 48.3633 8.50266 48.1133 7.99698C47.8661 7.4913 47.7425 6.90039 47.7425 6.22425C47.7425 5.54244 47.8661 4.94727 48.1133 4.43874C48.3633 3.93022 48.7099 3.53533 49.1531 3.25408C49.5991 2.97283 50.1175 2.83221 50.7085 2.83221C51.2994 2.83221 51.8164 2.97283 52.2596 3.25408C52.7056 3.53533 53.0522 3.93022 53.2994 4.43874C53.5494 4.94727 53.6744 5.54244 53.6744 6.22425C53.6744 6.90039 53.5494 7.4913 53.2994 7.99698C53.0522 8.50266 52.7056 8.89613 52.2596 9.17738C51.8164 9.45863 51.2994 9.59925 50.7085 9.59925ZM50.7085 8.69585C51.1573 8.69585 51.5266 8.58079 51.8164 8.35067C52.1062 8.12056 52.3207 7.818 52.4599 7.443C52.5991 7.068 52.6687 6.66175 52.6687 6.22425C52.6687 5.78675 52.5991 5.37908 52.4599 5.00124C52.3207 4.6234 52.1062 4.318 51.8164 4.08505C51.5266 3.85209 51.1573 3.73562 50.7085 3.73562C50.2596 3.73562 49.8903 3.85209 49.6005 4.08505C49.3107 4.318 49.0962 4.6234 48.957 5.00124C48.8178 5.37908 48.7482 5.78675 48.7482 6.22425C48.7482 6.66175 48.8178 7.068 48.957 7.443C49.0962 7.818 49.3107 8.12056 49.6005 8.35067C49.8903 8.58079 50.2596 8.69585 50.7085 8.69585ZM55.2095 9.46289V2.91744H56.1811V3.90607H56.2493C56.3686 3.58221 56.5845 3.31942 56.897 3.11772C57.2095 2.91602 57.5618 2.81516 57.9538 2.81516C58.0277 2.81516 58.12 2.81658 58.2308 2.81942C58.3416 2.82227 58.4254 2.82653 58.4822 2.83221V3.85494C58.4482 3.84641 58.37 3.83363 58.2479 3.81658C58.1286 3.7967 58.0021 3.78675 57.8686 3.78675C57.5504 3.78675 57.2663 3.85352 57.0163 3.98704C56.7692 4.11772 56.5732 4.29954 56.4283 4.53249C56.2862 4.76261 56.2152 5.02539 56.2152 5.32085V9.46289H55.2095ZM63.1857 9.46289V0.735618H64.2425V8.52539H68.2994V9.46289H63.1857ZM72.4585 9.59925C71.8675 9.59925 71.3491 9.45863 70.9031 9.17738C70.4599 8.89613 70.1133 8.50266 69.8633 7.99698C69.6161 7.4913 69.4925 6.90039 69.4925 6.22425C69.4925 5.54244 69.6161 4.94727 69.8633 4.43874C70.1133 3.93022 70.4599 3.53533 70.9031 3.25408C71.3491 2.97283 71.8675 2.83221 72.4585 2.83221C73.0494 2.83221 73.5664 2.97283 74.0096 3.25408C74.4556 3.53533 74.8022 3.93022 75.0494 4.43874C75.2994 4.94727 75.4244 5.54244 75.4244 6.22425C75.4244 6.90039 75.2994 7.4913 75.0494 7.99698C74.8022 8.50266 74.4556 8.89613 74.0096 9.17738C73.5664 9.45863 73.0494 9.59925 72.4585 9.59925ZM72.4585 8.69585C72.9073 8.69585 73.2766 8.58079 73.5664 8.35067C73.8562 8.12056 74.0707 7.818 74.2099 7.443C74.3491 7.068 74.4187 6.66175 74.4187 6.22425C74.4187 5.78675 74.3491 5.37908 74.2099 5.00124C74.0707 4.6234 73.8562 4.318 73.5664 4.08505C73.2766 3.85209 72.9073 3.73562 72.4585 3.73562C72.0096 3.73562 71.6403 3.85209 71.3505 4.08505C71.0607 4.318 70.8462 4.6234 70.707 5.00124C70.5678 5.37908 70.4982 5.78675 70.4982 6.22425C70.4982 6.66175 70.5678 7.068 70.707 7.443C70.8462 7.818 71.0607 8.12056 71.3505 8.35067C71.6403 8.58079 72.0096 8.69585 72.4585 8.69585ZM79.6186 9.59925C79.005 9.59925 78.4766 9.45437 78.0334 9.1646C77.5902 8.87482 77.2493 8.47567 77.0107 7.96715C76.772 7.45863 76.6527 6.87766 76.6527 6.22425C76.6527 5.55948 76.7749 4.97283 77.0192 4.46431C77.2663 3.95295 77.6101 3.5538 78.0504 3.26687C78.4936 2.9771 79.0107 2.83221 79.6016 2.83221C80.0618 2.83221 80.4766 2.91744 80.8459 3.08789C81.2152 3.25835 81.5178 3.49698 81.7536 3.8038C81.9893 4.11062 82.1357 4.46857 82.1925 4.87766H81.1868C81.1101 4.57937 80.9396 4.31516 80.6754 4.08505C80.4141 3.85209 80.0618 3.73562 79.6186 3.73562C79.2266 3.73562 78.8828 3.83789 78.5874 4.04244C78.2947 4.24414 78.0661 4.52965 77.9013 4.89897C77.7393 5.26545 77.6584 5.69585 77.6584 6.19016C77.6584 6.69585 77.7379 7.13619 77.897 7.51119C78.0589 7.88619 78.2862 8.17738 78.5788 8.38477C78.8743 8.59215 79.2209 8.69585 79.6186 8.69585C79.88 8.69585 80.1172 8.65039 80.3303 8.55948C80.5433 8.46857 80.7237 8.33789 80.8714 8.16744C81.0192 7.99698 81.1243 7.79244 81.1868 7.5538H82.1925C82.1357 7.94016 81.995 8.28817 81.7706 8.59783C81.549 8.90465 81.255 9.14897 80.8885 9.33079C80.5249 9.50977 80.1016 9.59925 79.6186 9.59925ZM85.5888 9.6163C85.174 9.6163 84.7976 9.53817 84.4595 9.38192C84.1214 9.22283 83.853 8.99414 83.6541 8.69585C83.4553 8.39471 83.3558 8.03107 83.3558 7.60494C83.3558 7.22994 83.4297 6.92596 83.5774 6.693C83.7251 6.45721 83.9226 6.27255 84.1697 6.13903C84.4169 6.0055 84.6896 5.90607 84.9879 5.84073C85.2891 5.77255 85.5916 5.71857 85.8956 5.6788C86.2933 5.62766 86.6158 5.58931 86.8629 5.56374C87.1129 5.53533 87.2947 5.48846 87.4084 5.42312C87.5249 5.35778 87.5831 5.24414 87.5831 5.08221V5.04812C87.5831 4.62766 87.468 4.30096 87.2379 4.068C87.0107 3.83505 86.6655 3.71857 86.2024 3.71857C85.7223 3.71857 85.3459 3.82369 85.0732 4.03391C84.8004 4.24414 84.6087 4.46857 84.4979 4.70721L83.5433 4.3663C83.7138 3.96857 83.9411 3.65891 84.2251 3.43732C84.5121 3.21289 84.8246 3.05664 85.1626 2.96857C85.5036 2.87766 85.8388 2.83221 86.1683 2.83221C86.3786 2.83221 86.62 2.85778 86.8928 2.90891C87.1683 2.95721 87.4339 3.05806 87.6896 3.21147C87.9482 3.36488 88.1626 3.59641 88.3331 3.90607C88.5036 4.21573 88.5888 4.6305 88.5888 5.15039V9.46289H87.5831V8.57653H87.532C87.4638 8.71857 87.3501 8.87056 87.1911 9.03249C87.032 9.19442 86.8203 9.33221 86.5561 9.44585C86.2919 9.55948 85.9695 9.6163 85.5888 9.6163ZM85.7422 8.71289C86.1399 8.71289 86.4751 8.63477 86.7479 8.47852C87.0234 8.32227 87.2308 8.12056 87.37 7.8734C87.5121 7.62624 87.5831 7.3663 87.5831 7.09357V6.17312C87.5405 6.22425 87.4467 6.27113 87.3018 6.31374C87.1598 6.35352 86.995 6.38903 86.8075 6.42028C86.6229 6.44869 86.4425 6.47425 86.2663 6.49698C86.093 6.51687 85.9524 6.53391 85.8445 6.54812C85.5831 6.58221 85.3388 6.63761 85.1115 6.71431C84.8871 6.78817 84.7053 6.90039 84.5661 7.05096C84.4297 7.19869 84.3615 7.40039 84.3615 7.65607C84.3615 8.0055 84.4908 8.26971 84.7493 8.44869C85.0107 8.62482 85.3416 8.71289 85.7422 8.71289ZM93.271 2.91744V3.76971H89.8789V2.91744H93.271ZM90.8675 1.34925H91.8732V7.58789C91.8732 7.87198 91.9144 8.08505 91.9968 8.2271C92.082 8.3663 92.19 8.46005 92.3207 8.50835C92.4542 8.5538 92.5948 8.57653 92.7425 8.57653C92.8533 8.57653 92.9442 8.57085 93.0153 8.55948C93.0863 8.54528 93.1431 8.53391 93.1857 8.52539L93.3903 9.4288C93.3221 9.45437 93.2269 9.47994 93.1048 9.5055C92.9826 9.53391 92.8278 9.54812 92.6403 9.54812C92.3562 9.54812 92.0778 9.48704 91.805 9.36488C91.5352 9.24272 91.3107 9.05664 91.1317 8.80664C90.9556 8.55664 90.8675 8.2413 90.8675 7.86062V1.34925ZM94.7837 9.46289V2.91744H95.7894V9.46289H94.7837ZM95.2951 1.82653C95.0991 1.82653 94.93 1.75977 94.788 1.62624C94.6488 1.49272 94.5792 1.33221 94.5792 1.14471C94.5792 0.957209 94.6488 0.796697 94.788 0.663174C94.93 0.529652 95.0991 0.462891 95.2951 0.462891C95.4911 0.462891 95.6587 0.529652 95.7979 0.663174C95.94 0.796697 96.011 0.957209 96.011 1.14471C96.011 1.33221 95.94 1.49272 95.7979 1.62624C95.6587 1.75977 95.4911 1.82653 95.2951 1.82653ZM100.29 9.59925C99.6996 9.59925 99.1811 9.45863 98.7351 9.17738C98.2919 8.89613 97.9453 8.50266 97.6953 7.99698C97.4482 7.4913 97.3246 6.90039 97.3246 6.22425C97.3246 5.54244 97.4482 4.94727 97.6953 4.43874C97.9453 3.93022 98.2919 3.53533 98.7351 3.25408C99.1811 2.97283 99.6996 2.83221 100.29 2.83221C100.881 2.83221 101.398 2.97283 101.842 3.25408C102.288 3.53533 102.634 3.93022 102.881 4.43874C103.131 4.94727 103.256 5.54244 103.256 6.22425C103.256 6.90039 103.131 7.4913 102.881 7.99698C102.634 8.50266 102.288 8.89613 101.842 9.17738C101.398 9.45863 100.881 9.59925 100.29 9.59925ZM100.29 8.69585C100.739 8.69585 101.109 8.58079 101.398 8.35067C101.688 8.12056 101.903 7.818 102.042 7.443C102.181 7.068 102.251 6.66175 102.251 6.22425C102.251 5.78675 102.181 5.37908 102.042 5.00124C101.903 4.6234 101.688 4.318 101.398 4.08505C101.109 3.85209 100.739 3.73562 100.29 3.73562C99.8416 3.73562 99.4723 3.85209 99.1825 4.08505C98.8928 4.318 98.6783 4.6234 98.5391 5.00124C98.3999 5.37908 98.3303 5.78675 98.3303 6.22425C98.3303 6.66175 98.3999 7.068 98.5391 7.443C98.6783 7.818 98.8928 8.12056 99.1825 8.35067C99.4723 8.58079 99.8416 8.69585 100.29 8.69585ZM105.797 5.52539V9.46289H104.792V2.91744H105.763V3.94016H105.848C106.002 3.60778 106.235 3.34073 106.547 3.13903C106.86 2.93448 107.263 2.83221 107.757 2.83221C108.201 2.83221 108.588 2.92312 108.921 3.10494C109.253 3.28391 109.512 3.55664 109.696 3.92312C109.881 4.28675 109.973 4.74698 109.973 5.3038V9.46289H108.968V5.37198C108.968 4.85778 108.834 4.45721 108.567 4.17028C108.3 3.8805 107.934 3.73562 107.468 3.73562C107.147 3.73562 106.86 3.80522 106.607 3.94442C106.357 4.08363 106.159 4.28675 106.015 4.5538C105.87 4.82084 105.797 5.14471 105.797 5.52539Z" fill="black"/>
</svg>
