<svg width="111" height="28" viewBox="0 0 111 28" fill="none" xmlns="http://www.w3.org/2000/svg">
<path d="M2.85156 9.46289H0.158381V0.735618H2.97088C3.81747 0.735618 4.5419 0.910334 5.14418 1.25977C5.74645 1.60636 6.2081 2.10494 6.52912 2.7555C6.85014 3.40323 7.01065 4.1788 7.01065 5.08221C7.01065 5.9913 6.84872 6.77397 6.52486 7.43022C6.20099 8.08363 5.7294 8.58647 5.11009 8.93874C4.49077 9.28817 3.73793 9.46289 2.85156 9.46289ZM1.2152 8.52539H2.78338C3.50497 8.52539 4.10298 8.38619 4.57741 8.10778C5.05185 7.82937 5.40554 7.43306 5.63849 6.91886C5.87145 6.40465 5.98793 5.79244 5.98793 5.08221C5.98793 4.37766 5.87287 3.77113 5.64276 3.26261C5.41264 2.75124 5.06889 2.3592 4.61151 2.08647C4.15412 1.8109 3.58452 1.67312 2.9027 1.67312H1.2152V8.52539ZM8.64702 9.46289V2.91744H9.6527V9.46289H8.64702ZM9.15838 1.82653C8.96236 1.82653 8.79332 1.75977 8.65128 1.62624C8.51207 1.49272 8.44247 1.33221 8.44247 1.14471C8.44247 0.957209 8.51207 0.796697 8.65128 0.663174C8.79332 0.529652 8.96236 0.462891 9.15838 0.462891C9.3544 0.462891 9.52202 0.529652 9.66122 0.663174C9.80327 0.796697 9.87429 0.957209 9.87429 1.14471C9.87429 1.33221 9.80327 1.49272 9.66122 1.62624C9.52202 1.75977 9.3544 1.82653 9.15838 1.82653ZM16.131 4.38335L15.2276 4.63903C15.1708 4.48846 15.087 4.34215 14.9762 4.20011C14.8683 4.05522 14.7205 3.9359 14.533 3.84215C14.3455 3.7484 14.1055 3.70153 13.8129 3.70153C13.4123 3.70153 13.0785 3.79386 12.8114 3.97852C12.5472 4.16033 12.4151 4.39187 12.4151 4.67312C12.4151 4.92312 12.506 5.12056 12.6879 5.26545C12.8697 5.41033 13.1538 5.53107 13.5401 5.62766L14.5117 5.8663C15.0969 6.00835 15.533 6.22567 15.82 6.51829C16.1069 6.80806 16.2504 7.18164 16.2504 7.63903C16.2504 8.01403 16.1424 8.34925 15.9265 8.64471C15.7134 8.94016 15.4151 9.17312 15.0316 9.34357C14.6481 9.51403 14.2021 9.59925 13.6935 9.59925C13.0259 9.59925 12.4734 9.45437 12.0359 9.1646C11.5984 8.87482 11.3214 8.45153 11.2049 7.89471L12.1594 7.65607C12.2504 8.00835 12.4222 8.27255 12.6751 8.44869C12.9308 8.62482 13.2646 8.71289 13.6765 8.71289C14.1452 8.71289 14.5174 8.61346 14.793 8.4146C15.0714 8.21289 15.2106 7.97141 15.2106 7.69016C15.2106 7.46289 15.131 7.27255 14.9719 7.11914C14.8129 6.96289 14.5685 6.84641 14.239 6.76971L13.1481 6.51403C12.5487 6.37198 12.1083 6.15181 11.8271 5.85352C11.5487 5.55238 11.4094 5.17596 11.4094 4.72425C11.4094 4.35494 11.5131 4.02823 11.7205 3.74414C11.9308 3.46005 12.2163 3.23704 12.5771 3.07511C12.9407 2.91317 13.3526 2.83221 13.8129 2.83221C14.4606 2.83221 14.9691 2.97425 15.3384 3.25834C15.7106 3.54244 15.9748 3.91744 16.131 4.38335ZM20.6108 2.91744V3.76971H17.2188V2.91744H20.6108ZM18.2074 1.34925H19.2131V7.58789C19.2131 7.87198 19.2543 8.08505 19.3366 8.2271C19.4219 8.3663 19.5298 8.46005 19.6605 8.50835C19.794 8.5538 19.9347 8.57653 20.0824 8.57653C20.1932 8.57653 20.2841 8.57085 20.3551 8.55948C20.4261 8.54528 20.483 8.53391 20.5256 8.52539L20.7301 9.4288C20.6619 9.45437 20.5668 9.47994 20.4446 9.5055C20.3224 9.53391 20.1676 9.54812 19.9801 9.54812C19.696 9.54812 19.4176 9.48704 19.1449 9.36488C18.875 9.24272 18.6506 9.05664 18.4716 8.80664C18.2955 8.55664 18.2074 8.2413 18.2074 7.86062V1.34925ZM22.1236 9.46289V2.91744H23.0952V3.90607H23.1634C23.2827 3.58221 23.4986 3.31942 23.8111 3.11772C24.1236 2.91602 24.4759 2.81516 24.8679 2.81516C24.9418 2.81516 25.0341 2.81658 25.1449 2.81942C25.2557 2.82227 25.3395 2.82653 25.3963 2.83221V3.85494C25.3622 3.84641 25.2841 3.83363 25.1619 3.81658C25.0426 3.7967 24.9162 3.78675 24.7827 3.78675C24.4645 3.78675 24.1804 3.85352 23.9304 3.98704C23.6832 4.11772 23.4872 4.29954 23.3423 4.53249C23.2003 4.76261 23.1293 5.02539 23.1293 5.32085V9.46289H22.1236ZM26.5884 9.46289V2.91744H27.5941V9.46289H26.5884ZM27.0998 1.82653C26.9038 1.82653 26.7347 1.75977 26.5927 1.62624C26.4535 1.49272 26.3839 1.33221 26.3839 1.14471C26.3839 0.957209 26.4535 0.796697 26.5927 0.663174C26.7347 0.529652 26.9038 0.462891 27.0998 0.462891C27.2958 0.462891 27.4634 0.529652 27.6026 0.663174C27.7447 0.796697 27.8157 0.957209 27.8157 1.14471C27.8157 1.33221 27.7447 1.49272 27.6026 1.62624C27.4634 1.75977 27.2958 1.82653 27.0998 1.82653ZM29.5724 9.46289V0.735618H30.5781V3.95721H30.6634C30.7372 3.84357 30.8395 3.69869 30.9702 3.52255C31.1037 3.34357 31.294 3.18448 31.5412 3.04528C31.7912 2.90323 32.1293 2.83221 32.5554 2.83221C33.1065 2.83221 33.5923 2.96999 34.0128 3.24556C34.4332 3.52113 34.7614 3.91175 34.9972 4.41744C35.233 4.92312 35.3509 5.51971 35.3509 6.20721C35.3509 6.90039 35.233 7.50124 34.9972 8.00977C34.7614 8.51545 34.4347 8.90749 34.017 9.1859C33.5994 9.46147 33.1179 9.59925 32.5724 9.59925C32.152 9.59925 31.8153 9.52965 31.5625 9.39045C31.3097 9.2484 31.1151 9.08789 30.9787 8.90891C30.8423 8.7271 30.7372 8.57653 30.6634 8.45721H30.544V9.46289H29.5724ZM30.5611 6.19016C30.5611 6.68448 30.6335 7.12056 30.7784 7.4984C30.9233 7.8734 31.1349 8.16744 31.4134 8.3805C31.6918 8.59073 32.0327 8.69585 32.4361 8.69585C32.8565 8.69585 33.2074 8.58505 33.4886 8.36346C33.7727 8.13903 33.9858 7.83789 34.1278 7.46005C34.2727 7.07937 34.3452 6.65607 34.3452 6.19016C34.3452 5.72994 34.2741 5.31516 34.1321 4.94585C33.9929 4.57369 33.7813 4.27965 33.4972 4.06374C33.2159 3.84499 32.8622 3.73562 32.4361 3.73562C32.027 3.73562 31.6832 3.83931 31.4048 4.0467C31.1264 4.25124 30.9162 4.53817 30.7741 4.90749C30.6321 5.27397 30.5611 5.70153 30.5611 6.19016ZM41.0142 6.78675V2.91744H42.0199V9.46289H41.0142V8.35494H40.946C40.7926 8.68732 40.554 8.96999 40.2301 9.20295C39.9063 9.43306 39.4972 9.54812 39.0028 9.54812C38.5938 9.54812 38.2301 9.45863 37.9119 9.27965C37.5938 9.09783 37.3438 8.82511 37.1619 8.46147C36.9801 8.09499 36.8892 7.63335 36.8892 7.07653V2.91744H37.8949V7.00835C37.8949 7.48562 38.0284 7.8663 38.2955 8.15039C38.5653 8.43448 38.9091 8.57653 39.3267 8.57653C39.5767 8.57653 39.831 8.51261 40.0895 8.38477C40.3509 8.25692 40.5696 8.0609 40.7457 7.7967C40.9247 7.53249 41.0142 7.19585 41.0142 6.78675ZM46.7085 2.91744V3.76971H43.3164V2.91744H46.7085ZM44.305 1.34925H45.3107V7.58789C45.3107 7.87198 45.3519 8.08505 45.4343 8.2271C45.5195 8.3663 45.6275 8.46005 45.7582 8.50835C45.8917 8.5538 46.0323 8.57653 46.18 8.57653C46.2908 8.57653 46.3817 8.57085 46.4528 8.55948C46.5238 8.54528 46.5806 8.53391 46.6232 8.52539L46.8278 9.4288C46.7596 9.45437 46.6644 9.47994 46.5423 9.5055C46.4201 9.53391 46.2653 9.54812 46.0778 9.54812C45.7937 9.54812 45.5153 9.48704 45.2425 9.36488C44.9727 9.24272 44.7482 9.05664 44.5692 8.80664C44.3931 8.55664 44.305 8.2413 44.305 7.86062V1.34925ZM50.81 9.59925C50.2191 9.59925 49.7006 9.45863 49.2546 9.17738C48.8114 8.89613 48.4648 8.50266 48.2148 7.99698C47.9677 7.4913 47.8441 6.90039 47.8441 6.22425C47.8441 5.54244 47.9677 4.94727 48.2148 4.43874C48.4648 3.93022 48.8114 3.53533 49.2546 3.25408C49.7006 2.97283 50.2191 2.83221 50.81 2.83221C51.4009 2.83221 51.918 2.97283 52.3612 3.25408C52.8072 3.53533 53.1538 3.93022 53.4009 4.43874C53.6509 4.94727 53.7759 5.54244 53.7759 6.22425C53.7759 6.90039 53.6509 7.4913 53.4009 7.99698C53.1538 8.50266 52.8072 8.89613 52.3612 9.17738C51.918 9.45863 51.4009 9.59925 50.81 9.59925ZM50.81 8.69585C51.2589 8.69585 51.6282 8.58079 51.918 8.35067C52.2077 8.12056 52.4222 7.818 52.5614 7.443C52.7006 7.068 52.7702 6.66175 52.7702 6.22425C52.7702 5.78675 52.7006 5.37908 52.5614 5.00124C52.4222 4.6234 52.2077 4.318 51.918 4.08505C51.6282 3.85209 51.2589 3.73562 50.81 3.73562C50.3612 3.73562 49.9918 3.85209 49.7021 4.08505C49.4123 4.318 49.1978 4.6234 49.0586 5.00124C48.9194 5.37908 48.8498 5.78675 48.8498 6.22425C48.8498 6.66175 48.9194 7.068 49.0586 7.443C49.1978 7.818 49.4123 8.12056 49.7021 8.35067C49.9918 8.58079 50.3612 8.69585 50.81 8.69585ZM55.3111 9.46289V2.91744H56.2827V3.90607H56.3509C56.4702 3.58221 56.6861 3.31942 56.9986 3.11772C57.3111 2.91602 57.6634 2.81516 58.0554 2.81516C58.1293 2.81516 58.2216 2.81658 58.3324 2.81942C58.4432 2.82227 58.527 2.82653 58.5838 2.83221V3.85494C58.5497 3.84641 58.4716 3.83363 58.3494 3.81658C58.2301 3.7967 58.1037 3.78675 57.9702 3.78675C57.652 3.78675 57.3679 3.85352 57.1179 3.98704C56.8707 4.11772 56.6747 4.29954 56.5298 4.53249C56.3878 4.76261 56.3168 5.02539 56.3168 5.32085V9.46289H55.3111ZM63.2873 9.46289V0.735618H64.3441V4.62198H68.9975V0.735618H70.0543V9.46289H68.9975V5.55948H64.3441V9.46289H63.2873ZM74.6928 9.59925C74.1019 9.59925 73.5835 9.45863 73.1374 9.17738C72.6942 8.89613 72.3477 8.50266 72.0977 7.99698C71.8505 7.4913 71.7269 6.90039 71.7269 6.22425C71.7269 5.54244 71.8505 4.94727 72.0977 4.43874C72.3477 3.93022 72.6942 3.53533 73.1374 3.25408C73.5835 2.97283 74.1019 2.83221 74.6928 2.83221C75.2837 2.83221 75.8008 2.97283 76.244 3.25408C76.69 3.53533 77.0366 3.93022 77.2837 4.43874C77.5337 4.94727 77.6587 5.54244 77.6587 6.22425C77.6587 6.90039 77.5337 7.4913 77.2837 7.99698C77.0366 8.50266 76.69 8.89613 76.244 9.17738C75.8008 9.45863 75.2837 9.59925 74.6928 9.59925ZM74.6928 8.69585C75.1417 8.69585 75.511 8.58079 75.8008 8.35067C76.0906 8.12056 76.305 7.818 76.4442 7.443C76.5835 7.068 76.6531 6.66175 76.6531 6.22425C76.6531 5.78675 76.5835 5.37908 76.4442 5.00124C76.305 4.6234 76.0906 4.318 75.8008 4.08505C75.511 3.85209 75.1417 3.73562 74.6928 3.73562C74.244 3.73562 73.8746 3.85209 73.5849 4.08505C73.2951 4.318 73.0806 4.6234 72.9414 5.00124C72.8022 5.37908 72.7326 5.78675 72.7326 6.22425C72.7326 6.66175 72.8022 7.068 72.9414 7.443C73.0806 7.818 73.2951 8.12056 73.5849 8.35067C73.8746 8.58079 74.244 8.69585 74.6928 8.69585ZM80.1996 0.735618V9.46289H79.1939V0.735618H80.1996ZM82.0415 9.46289V2.91744H83.0472V9.46289H82.0415ZM82.5529 1.82653C82.3569 1.82653 82.1879 1.75977 82.0458 1.62624C81.9066 1.49272 81.837 1.33221 81.837 1.14471C81.837 0.957209 81.9066 0.796697 82.0458 0.663174C82.1879 0.529652 82.3569 0.462891 82.5529 0.462891C82.7489 0.462891 82.9165 0.529652 83.0558 0.663174C83.1978 0.796697 83.2688 0.957209 83.2688 1.14471C83.2688 1.33221 83.1978 1.49272 83.0558 1.62624C82.9165 1.75977 82.7489 1.82653 82.5529 1.82653ZM87.3608 9.59925C86.8153 9.59925 86.3338 9.46147 85.9162 9.1859C85.4986 8.90749 85.1719 8.51545 84.9361 8.00977C84.7003 7.50124 84.5824 6.90039 84.5824 6.20721C84.5824 5.51971 84.7003 4.92312 84.9361 4.41744C85.1719 3.91175 85.5 3.52113 85.9205 3.24556C86.3409 2.96999 86.8267 2.83221 87.3778 2.83221C87.804 2.83221 88.1406 2.90323 88.3878 3.04528C88.6378 3.18448 88.8281 3.34357 88.9588 3.52255C89.0923 3.69869 89.196 3.84357 89.2699 3.95721H89.3551V0.735618H90.3608V9.46289H89.3892V8.45721H89.2699C89.196 8.57653 89.0909 8.7271 88.9545 8.90891C88.8182 9.08789 88.6236 9.2484 88.3707 9.39045C88.1179 9.52965 87.7813 9.59925 87.3608 9.59925ZM87.4972 8.69585C87.9006 8.69585 88.2415 8.59073 88.5199 8.3805C88.7983 8.16744 89.0099 7.8734 89.1548 7.4984C89.2997 7.12056 89.3722 6.68448 89.3722 6.19016C89.3722 5.70153 89.3011 5.27397 89.1591 4.90749C89.017 4.53817 88.8068 4.25124 88.5284 4.0467C88.25 3.83931 87.9063 3.73562 87.4972 3.73562C87.071 3.73562 86.7159 3.84499 86.4318 4.06374C86.1506 4.27965 85.9389 4.57369 85.7969 4.94585C85.6577 5.31516 85.5881 5.72994 85.5881 6.19016C85.5881 6.65607 85.6591 7.07937 85.8011 7.46005C85.946 7.83789 86.1591 8.13903 86.4403 8.36346C86.7244 8.58505 87.0767 8.69585 87.4972 8.69585ZM94.2685 9.6163C93.8537 9.6163 93.4773 9.53817 93.1392 9.38192C92.8011 9.22283 92.5327 8.99414 92.3338 8.69585C92.1349 8.39471 92.0355 8.03107 92.0355 7.60494C92.0355 7.22994 92.1094 6.92596 92.2571 6.693C92.4048 6.45721 92.6023 6.27255 92.8494 6.13903C93.0966 6.0055 93.3693 5.90607 93.6676 5.84073C93.9688 5.77255 94.2713 5.71857 94.5753 5.6788C94.973 5.62766 95.2955 5.58931 95.5426 5.56374C95.7926 5.53533 95.9744 5.48846 96.0881 5.42312C96.2045 5.35778 96.2628 5.24414 96.2628 5.08221V5.04812C96.2628 4.62766 96.1477 4.30096 95.9176 4.068C95.6903 3.83505 95.3452 3.71857 94.8821 3.71857C94.402 3.71857 94.0256 3.82369 93.7528 4.03391C93.4801 4.24414 93.2884 4.46857 93.1776 4.70721L92.223 4.3663C92.3935 3.96857 92.6207 3.65891 92.9048 3.43732C93.1918 3.21289 93.5043 3.05664 93.8423 2.96857C94.1832 2.87766 94.5185 2.83221 94.848 2.83221C95.0582 2.83221 95.2997 2.85778 95.5724 2.90891C95.848 2.95721 96.1136 3.05806 96.3693 3.21147C96.6278 3.36488 96.8423 3.59641 97.0128 3.90607C97.1832 4.21573 97.2685 4.6305 97.2685 5.15039V9.46289H96.2628V8.57653H96.2116C96.1435 8.71857 96.0298 8.87056 95.8707 9.03249C95.7116 9.19442 95.5 9.33221 95.2358 9.44585C94.9716 9.55948 94.6491 9.6163 94.2685 9.6163ZM94.4219 8.71289C94.8196 8.71289 95.1548 8.63477 95.4276 8.47852C95.7031 8.32227 95.9105 8.12056 96.0497 7.8734C96.1918 7.62624 96.2628 7.3663 96.2628 7.09357V6.17312C96.2202 6.22425 96.1264 6.27113 95.9815 6.31374C95.8395 6.35352 95.6747 6.38903 95.4872 6.42028C95.3026 6.44869 95.1222 6.47425 94.946 6.49698C94.7727 6.51687 94.6321 6.53391 94.5241 6.54812C94.2628 6.58221 94.0185 6.63761 93.7912 6.71431C93.5668 6.78817 93.3849 6.90039 93.2457 7.05096C93.1094 7.19869 93.0412 7.40039 93.0412 7.65607C93.0412 8.0055 93.1705 8.26971 93.429 8.44869C93.6903 8.62482 94.0213 8.71289 94.4219 8.71289ZM99.5174 11.9174C99.3469 11.9174 99.195 11.9032 99.0614 11.8748C98.9279 11.8493 98.8356 11.8237 98.7844 11.7981L99.0401 10.9118C99.2844 10.9743 99.5004 10.997 99.6879 10.9799C99.8754 10.9629 100.042 10.8791 100.186 10.7285C100.334 10.5808 100.469 10.3407 100.591 10.0083L100.779 9.49698L98.3583 2.91744H99.4492L101.256 8.13335H101.324L103.131 2.91744H104.222L101.444 10.4174C101.319 10.7555 101.164 11.0353 100.979 11.2569C100.794 11.4814 100.58 11.6475 100.336 11.7555C100.094 11.8635 99.8214 11.9174 99.5174 11.9174ZM110.186 4.38335L109.282 4.63903C109.225 4.48846 109.142 4.34215 109.031 4.20011C108.923 4.05522 108.775 3.9359 108.588 3.84215C108.4 3.7484 108.16 3.70153 107.868 3.70153C107.467 3.70153 107.133 3.79386 106.866 3.97852C106.602 4.16033 106.47 4.39187 106.47 4.67312C106.47 4.92312 106.561 5.12056 106.743 5.26545C106.924 5.41033 107.208 5.53107 107.595 5.62766L108.566 5.8663C109.152 6.00835 109.588 6.22567 109.875 6.51829C110.162 6.80806 110.305 7.18164 110.305 7.63903C110.305 8.01403 110.197 8.34925 109.981 8.64471C109.768 8.94016 109.47 9.17312 109.086 9.34357C108.703 9.51403 108.257 9.59925 107.748 9.59925C107.081 9.59925 106.528 9.45437 106.091 9.1646C105.653 8.87482 105.376 8.45153 105.26 7.89471L106.214 7.65607C106.305 8.00835 106.477 8.27255 106.73 8.44869C106.985 8.62482 107.319 8.71289 107.731 8.71289C108.2 8.71289 108.572 8.61346 108.848 8.4146C109.126 8.21289 109.265 7.97141 109.265 7.69016C109.265 7.46289 109.186 7.27255 109.027 7.11914C108.868 6.96289 108.623 6.84641 108.294 6.76971L107.203 6.51403C106.603 6.37198 106.163 6.15181 105.882 5.85352C105.603 5.55238 105.464 5.17596 105.464 4.72425C105.464 4.35494 105.568 4.02823 105.775 3.74414C105.985 3.46005 106.271 3.23704 106.632 3.07511C106.995 2.91317 107.407 2.83221 107.868 2.83221C108.515 2.83221 109.024 2.97425 109.393 3.25834C109.765 3.54244 110.029 3.91744 110.186 4.38335ZM18.9025 15.7356H20.1639L23.1298 22.9799H23.2321L26.198 15.7356H27.4593V24.4629H26.4707V17.8322H26.3855L23.6582 24.4629H22.7037L19.9764 17.8322H19.8912V24.4629H18.9025V15.7356ZM31.3681 24.6163C30.9533 24.6163 30.5769 24.5382 30.2388 24.3819C29.9007 24.2228 29.6323 23.9941 29.4334 23.6958C29.2346 23.3947 29.1351 23.0311 29.1351 22.6049C29.1351 22.2299 29.209 21.926 29.3567 21.693C29.5044 21.4572 29.7019 21.2725 29.949 21.139C30.1962 21.0055 30.4689 20.9061 30.7672 20.8407C31.0684 20.7725 31.3709 20.7186 31.6749 20.6788C32.0726 20.6277 32.3951 20.5893 32.6422 20.5637C32.8922 20.5353 33.074 20.4885 33.1877 20.4231C33.3042 20.3578 33.3624 20.2441 33.3624 20.0822V20.0481C33.3624 19.6277 33.2473 19.301 33.0172 19.068C32.79 18.835 32.4448 18.7186 31.9817 18.7186C31.5016 18.7186 31.1252 18.8237 30.8525 19.0339C30.5797 19.2441 30.388 19.4686 30.2772 19.7072L29.3226 19.3663C29.4931 18.9686 29.7203 18.6589 30.0044 18.4373C30.2914 18.2129 30.6039 18.0566 30.9419 17.9686C31.2828 17.8777 31.6181 17.8322 31.9476 17.8322C32.1578 17.8322 32.3993 17.8578 32.6721 17.9089C32.9476 17.9572 33.2132 18.0581 33.4689 18.2115C33.7275 18.3649 33.9419 18.5964 34.1124 18.9061C34.2828 19.2157 34.3681 19.6305 34.3681 20.1504V24.4629H33.3624V23.5765H33.3113C33.2431 23.7186 33.1294 23.8706 32.9703 24.0325C32.8113 24.1944 32.5996 24.3322 32.3354 24.4458C32.0712 24.5595 31.7488 24.6163 31.3681 24.6163ZM31.5215 23.7129C31.9192 23.7129 32.2544 23.6348 32.5272 23.4785C32.8027 23.3223 33.0101 23.1206 33.1493 22.8734C33.2914 22.6262 33.3624 22.3663 33.3624 22.0936V21.1731C33.3198 21.2243 33.226 21.2711 33.0811 21.3137C32.9391 21.3535 32.7743 21.389 32.5868 21.4203C32.4022 21.4487 32.2218 21.4743 32.0456 21.497C31.8723 21.5169 31.7317 21.5339 31.6238 21.5481C31.3624 21.5822 31.1181 21.6376 30.8908 21.7143C30.6664 21.7882 30.4846 21.9004 30.3453 22.051C30.209 22.1987 30.1408 22.4004 30.1408 22.6561C30.1408 23.0055 30.2701 23.2697 30.5286 23.4487C30.79 23.6248 31.1209 23.7129 31.5215 23.7129ZM37.2093 20.5254V24.4629H36.2037V17.9174H37.1752V18.9402H37.2605C37.4139 18.6078 37.6468 18.3407 37.9593 18.139C38.2718 17.9345 38.6752 17.8322 39.1696 17.8322C39.6127 17.8322 40.0005 17.9231 40.3329 18.1049C40.6653 18.2839 40.9238 18.5566 41.1085 18.9231C41.2931 19.2868 41.3855 19.747 41.3855 20.3038V24.4629H40.3798V20.372C40.3798 19.8578 40.2463 19.4572 39.9792 19.1703C39.7122 18.8805 39.3457 18.7356 38.8798 18.7356C38.5588 18.7356 38.2718 18.8052 38.019 18.9444C37.769 19.0836 37.5716 19.2868 37.4267 19.5538C37.2818 19.8208 37.2093 20.1447 37.2093 20.5254ZM45.1493 24.6163C44.7346 24.6163 44.3581 24.5382 44.0201 24.3819C43.682 24.2228 43.4135 23.9941 43.2147 23.6958C43.0158 23.3947 42.9164 23.0311 42.9164 22.6049C42.9164 22.2299 42.9902 21.926 43.138 21.693C43.2857 21.4572 43.4831 21.2725 43.7303 21.139C43.9775 21.0055 44.2502 20.9061 44.5485 20.8407C44.8496 20.7725 45.1522 20.7186 45.4561 20.6788C45.8539 20.6277 46.1763 20.5893 46.4235 20.5637C46.6735 20.5353 46.8553 20.4885 46.9689 20.4231C47.0854 20.3578 47.1436 20.2441 47.1436 20.0822V20.0481C47.1436 19.6277 47.0286 19.301 46.7985 19.068C46.5712 18.835 46.226 18.7186 45.763 18.7186C45.2828 18.7186 44.9064 18.8237 44.6337 19.0339C44.361 19.2441 44.1692 19.4686 44.0584 19.7072L43.1039 19.3663C43.2743 18.9686 43.5016 18.6589 43.7857 18.4373C44.0726 18.2129 44.3851 18.0566 44.7232 17.9686C45.0641 17.8777 45.3993 17.8322 45.7289 17.8322C45.9391 17.8322 46.1806 17.8578 46.4533 17.9089C46.7289 17.9572 46.9945 18.0581 47.2502 18.2115C47.5087 18.3649 47.7232 18.5964 47.8936 18.9061C48.0641 19.2157 48.1493 19.6305 48.1493 20.1504V24.4629H47.1436V23.5765H47.0925C47.0243 23.7186 46.9107 23.8706 46.7516 24.0325C46.5925 24.1944 46.3809 24.3322 46.1167 24.4458C45.8525 24.5595 45.53 24.6163 45.1493 24.6163ZM45.3027 23.7129C45.7005 23.7129 46.0357 23.6348 46.3084 23.4785C46.584 23.3223 46.7914 23.1206 46.9306 22.8734C47.0726 22.6262 47.1436 22.3663 47.1436 22.0936V21.1731C47.101 21.2243 47.0073 21.2711 46.8624 21.3137C46.7203 21.3535 46.5556 21.389 46.3681 21.4203C46.1834 21.4487 46.003 21.4743 45.8269 21.497C45.6536 21.5169 45.513 21.5339 45.405 21.5481C45.1436 21.5822 44.8993 21.6376 44.6721 21.7143C44.4476 21.7882 44.2658 21.9004 44.1266 22.051C43.9902 22.1987 43.9221 22.4004 43.9221 22.6561C43.9221 23.0055 44.0513 23.2697 44.3098 23.4487C44.5712 23.6248 44.9022 23.7129 45.3027 23.7129ZM52.627 27.0538C52.1412 27.0538 51.7235 26.9913 51.3741 26.8663C51.0247 26.7441 50.7335 26.5822 50.5005 26.3805C50.2704 26.1816 50.0872 25.9686 49.9508 25.7413L50.752 25.1788C50.8429 25.2981 50.9579 25.4345 51.0971 25.5879C51.2363 25.7441 51.4267 25.8791 51.6681 25.9927C51.9125 26.1092 52.2321 26.1674 52.627 26.1674C53.1554 26.1674 53.5914 26.0396 53.9352 25.7839C54.2789 25.5282 54.4508 25.1277 54.4508 24.5822V23.2527H54.3656C54.2917 23.372 54.1866 23.5197 54.0502 23.6958C53.9167 23.8691 53.7235 24.024 53.4707 24.1603C53.2207 24.2939 52.8826 24.3606 52.4565 24.3606C51.9281 24.3606 51.4537 24.2356 51.0332 23.9856C50.6156 23.7356 50.2846 23.372 50.0403 22.8947C49.7988 22.4174 49.6781 21.8379 49.6781 21.1561C49.6781 20.4856 49.796 19.9018 50.0318 19.4047C50.2676 18.9047 50.5957 18.5183 51.0162 18.2456C51.4366 17.97 51.9224 17.8322 52.4735 17.8322C52.8997 17.8322 53.2377 17.9032 53.4877 18.0453C53.7406 18.1845 53.9338 18.3436 54.0673 18.5225C54.2037 18.6987 54.3088 18.8436 54.3826 18.9572H54.4849V17.9174H55.4565V24.6504C55.4565 25.2129 55.3287 25.6703 55.073 26.0225C54.8201 26.3777 54.4792 26.6376 54.0502 26.8024C53.6241 26.97 53.1497 27.0538 52.627 27.0538ZM52.5929 23.4572C52.9963 23.4572 53.3372 23.3649 53.6156 23.1802C53.894 22.9956 54.1056 22.7299 54.2505 22.3833C54.3954 22.0368 54.4679 21.622 54.4679 21.139C54.4679 20.6674 54.3968 20.2512 54.2548 19.8904C54.1127 19.5297 53.9025 19.247 53.6241 19.0424C53.3457 18.8379 53.002 18.7356 52.5929 18.7356C52.1667 18.7356 51.8116 18.8436 51.5275 19.0595C51.2463 19.2754 51.0346 19.5652 50.8926 19.9288C50.7534 20.2924 50.6838 20.6958 50.6838 21.139C50.6838 21.5936 50.7548 21.9956 50.8968 22.345C51.0417 22.6916 51.2548 22.9643 51.536 23.1632C51.8201 23.3592 52.1724 23.4572 52.5929 23.4572ZM60.0417 24.5993C59.411 24.5993 58.867 24.46 58.4096 24.1816C57.9551 23.9004 57.6042 23.5083 57.3571 23.0055C57.1127 22.4998 56.9906 21.9118 56.9906 21.2413C56.9906 20.5708 57.1127 19.9799 57.3571 19.4686C57.6042 18.9544 57.948 18.5538 58.3883 18.2669C58.8315 17.9771 59.3485 17.8322 59.9395 17.8322C60.2804 17.8322 60.617 17.889 60.9494 18.0027C61.2818 18.1163 61.5843 18.301 61.8571 18.5566C62.1298 18.8095 62.3471 19.1447 62.5091 19.5623C62.671 19.9799 62.752 20.4941 62.752 21.1049V21.5311H57.7065V20.6618H61.7292C61.7292 20.2924 61.6554 19.9629 61.5076 19.6731C61.3627 19.3833 61.1554 19.1547 60.8855 18.987C60.6184 18.8194 60.3031 18.7356 59.9395 18.7356C59.5389 18.7356 59.1923 18.835 58.8997 19.0339C58.6099 19.2299 58.3869 19.4856 58.2306 19.801C58.0744 20.1163 57.9963 20.4544 57.9963 20.8152V21.3947C57.9963 21.889 58.0815 22.3081 58.252 22.6518C58.4252 22.9927 58.6653 23.2527 58.9721 23.4316C59.2789 23.6078 59.6355 23.6958 60.0417 23.6958C60.3059 23.6958 60.5446 23.6589 60.7576 23.585C60.9735 23.5083 61.1596 23.3947 61.3159 23.2441C61.4721 23.0907 61.5929 22.9004 61.6781 22.6731L62.6497 22.9458C62.5474 23.2754 62.3755 23.5652 62.1341 23.8152C61.8926 24.0623 61.5943 24.2555 61.2392 24.3947C60.8841 24.5311 60.4849 24.5993 60.0417 24.5993ZM64.2818 24.4629V17.9174H65.2534V18.9402H65.3386C65.475 18.5907 65.6951 18.3194 65.9991 18.1262C66.3031 17.9302 66.6681 17.8322 67.0943 17.8322C67.5261 17.8322 67.8855 17.9302 68.1724 18.1262C68.4622 18.3194 68.688 18.5907 68.85 18.9402H68.9181C69.0858 18.6021 69.3372 18.3336 69.6724 18.1348C70.0076 17.9331 70.4096 17.8322 70.8784 17.8322C71.4636 17.8322 71.9423 18.0154 72.3145 18.3819C72.6866 18.7456 72.8727 19.3123 72.8727 20.0822V24.4629H71.867V20.0822C71.867 19.5993 71.7349 19.2541 71.4707 19.0467C71.2065 18.8393 70.8954 18.7356 70.5375 18.7356C70.0772 18.7356 69.7207 18.8748 69.4679 19.1532C69.215 19.4288 69.0886 19.7782 69.0886 20.2015V24.4629H68.0659V19.9799C68.0659 19.6078 67.9451 19.3081 67.7037 19.0808C67.4622 18.8507 67.1511 18.7356 66.7704 18.7356C66.5091 18.7356 66.2647 18.8052 66.0375 18.9444C65.813 19.0836 65.6312 19.2768 65.492 19.524C65.3556 19.7683 65.2875 20.051 65.2875 20.372V24.4629H64.2818ZM77.4558 24.5993C76.8251 24.5993 76.2811 24.46 75.8237 24.1816C75.3691 23.9004 75.0183 23.5083 74.7711 23.0055C74.5268 22.4998 74.4047 21.9118 74.4047 21.2413C74.4047 20.5708 74.5268 19.9799 74.7711 19.4686C75.0183 18.9544 75.362 18.5538 75.8024 18.2669C76.2456 17.9771 76.7626 17.8322 77.3535 17.8322C77.6944 17.8322 78.0311 17.889 78.3635 18.0027C78.6958 18.1163 78.9984 18.301 79.2711 18.5566C79.5439 18.8095 79.7612 19.1447 79.9231 19.5623C80.085 19.9799 80.166 20.4941 80.166 21.1049V21.5311H75.1206V20.6618H79.1433C79.1433 20.2924 79.0694 19.9629 78.9217 19.6731C78.7768 19.3833 78.5694 19.1547 78.2995 18.987C78.0325 18.8194 77.7172 18.7356 77.3535 18.7356C76.9529 18.7356 76.6064 18.835 76.3137 19.0339C76.024 19.2299 75.801 19.4856 75.6447 19.801C75.4885 20.1163 75.4103 20.4544 75.4103 20.8152V21.3947C75.4103 21.889 75.4956 22.3081 75.666 22.6518C75.8393 22.9927 76.0794 23.2527 76.3862 23.4316C76.693 23.6078 77.0495 23.6958 77.4558 23.6958C77.72 23.6958 77.9586 23.6589 78.1717 23.585C78.3876 23.5083 78.5737 23.3947 78.7299 23.2441C78.8862 23.0907 79.0069 22.9004 79.0922 22.6731L80.0637 22.9458C79.9615 23.2754 79.7896 23.5652 79.5481 23.8152C79.3066 24.0623 79.0083 24.2555 78.6532 24.3947C78.2981 24.5311 77.899 24.5993 77.4558 24.5993ZM82.7015 20.5254V24.4629H81.6958V17.9174H82.6674V18.9402H82.7527C82.9061 18.6078 83.139 18.3407 83.4515 18.139C83.764 17.9345 84.1674 17.8322 84.6618 17.8322C85.1049 17.8322 85.4927 17.9231 85.8251 18.1049C86.1575 18.2839 86.416 18.5566 86.6007 18.9231C86.7853 19.2868 86.8777 19.747 86.8777 20.3038V24.4629H85.872V20.372C85.872 19.8578 85.7385 19.4572 85.4714 19.1703C85.2044 18.8805 84.8379 18.7356 84.372 18.7356C84.051 18.7356 83.764 18.8052 83.5112 18.9444C83.2612 19.0836 83.0637 19.2868 82.9189 19.5538C82.774 19.8208 82.7015 20.1447 82.7015 20.5254ZM91.562 17.9174V18.7697H88.1699V17.9174H91.562ZM89.1586 16.3493H90.1642V22.5879C90.1642 22.872 90.2054 23.085 90.2878 23.2271C90.373 23.3663 90.481 23.46 90.6117 23.5083C90.7452 23.5538 90.8858 23.5765 91.0336 23.5765C91.1444 23.5765 91.2353 23.5708 91.3063 23.5595C91.3773 23.5453 91.4341 23.5339 91.4767 23.5254L91.6813 24.4288C91.6131 24.4544 91.5179 24.4799 91.3958 24.5055C91.2736 24.5339 91.1188 24.5481 90.9313 24.5481C90.6472 24.5481 90.3688 24.487 90.0961 24.3649C89.8262 24.2427 89.6017 24.0566 89.4228 23.8066C89.2466 23.5566 89.1586 23.2413 89.1586 22.8606V16.3493Z" fill="black"/>
</svg>
