<svg width="32" height="32" viewBox="0 0 32 32" fill="none" xmlns="http://www.w3.org/2000/svg">
<path d="M25.8833 18.5854C21.118 18.5854 16.3696 18.5854 11.6296 18.5854C11.6296 15.6028 11.6296 12.6372 11.6296 9.66309C16.3949 9.66309 21.1349 9.66309 25.8833 9.66309C25.8833 12.6541 25.8833 15.6282 25.8833 18.5854ZM14.722 10.4742C14.063 10.4742 13.7081 10.829 13.7081 11.4881C13.7081 13.2708 13.7081 15.0536 13.7081 16.8449C13.7081 17.4025 14.0798 17.7827 14.6374 17.7912C15.288 17.7912 15.9302 17.7912 16.5808 17.7912C18.6339 17.7912 20.6956 17.7912 22.7487 17.7912C23.4753 17.7912 23.8132 17.4532 23.8132 16.7266C23.8132 14.9945 23.8132 13.2624 23.8132 11.5303C23.8132 10.8037 23.4753 10.4742 22.7403 10.4742C21.4053 10.4742 20.0787 10.4742 18.7437 10.4742C17.4003 10.4742 16.0654 10.4742 14.722 10.4742Z" fill="#0671B8"/>
<path d="M4 16.8954C4 16.8194 4.03376 16.7349 4.06756 16.6588C4.61675 15.29 5.17446 13.9297 5.7152 12.5525C5.78279 12.392 5.85883 12.3413 6.02782 12.3413C7.6247 12.3413 9.22163 12.3413 10.8185 12.3413C10.8946 12.3413 10.979 12.3413 11.0635 12.3498C11.0635 15.307 11.0635 18.2557 11.0635 21.2129C10.5988 21.2129 10.151 21.2129 9.70317 21.2129C9.55109 21.2129 9.4919 21.1876 9.44966 21.0186C9.21308 20.0216 8.26681 19.3879 7.26136 19.5315C6.45024 19.6498 5.82505 20.2328 5.62227 21.0439C5.60537 21.1031 5.53775 21.2045 5.48706 21.2045C4.99701 21.2129 4.5154 21.2045 4 21.2045C4 19.7343 4 18.3064 4 16.87V16.8954ZM9.70317 17.3179C10.0158 17.3179 10.0834 17.2418 10.0918 16.9292C10.0918 15.8561 10.0918 14.7746 10.0918 13.7016C10.0918 13.4059 10.0074 13.3298 9.72009 13.3214C8.72309 13.3214 7.73451 13.3214 6.73751 13.3214C6.53473 13.3214 6.41647 13.3974 6.34043 13.5833C5.90107 14.6732 5.46167 15.7548 5.02231 16.8447C4.89558 17.1658 4.99697 17.3179 5.34338 17.3179C6.06156 17.3179 6.78824 17.3179 7.50642 17.3179C8.23304 17.3179 8.96809 17.3179 9.69471 17.3179H9.70317ZM9.81301 18.3318C9.982 18.3318 10.0833 18.2388 10.0833 18.0699C10.0833 17.9093 9.98201 17.8163 9.82147 17.8163C9.52575 17.8079 9.22153 17.8079 8.92581 17.8163C8.77373 17.8163 8.66394 17.9093 8.66394 18.0699C8.66394 18.2388 8.76529 18.3317 8.93427 18.3402C9.08636 18.3402 9.23002 18.3402 9.3821 18.3402C9.52574 18.3402 9.66938 18.3402 9.81301 18.3402V18.3318Z" fill="#0671B8"/>
<path d="M11.6127 19.1343C11.6127 19.8356 11.6127 20.52 11.6127 21.2128C12.7787 21.2128 13.9362 21.2128 15.0937 21.2128C15.5753 19.9792 16.2091 19.4638 17.1554 19.523C17.9327 19.5737 18.7945 20.0722 19.0226 21.2128H20.2055C20.3153 20.6467 20.5941 20.1735 21.0926 19.844C21.439 19.6159 21.8193 19.5061 22.2249 19.523C23.1712 19.5568 23.8048 20.1228 24.1343 21.2128H25.8833V19.1343C21.1349 19.1343 16.3865 19.1343 11.6127 19.1343Z" fill="#0671B8"/>
<path d="M23.602 21.4831C23.602 22.2689 22.9599 22.9195 22.1741 22.9279C21.3799 22.9279 20.7124 22.2689 20.7209 21.4831C20.7209 20.6973 21.3799 20.0552 22.1656 20.0552C22.9599 20.0552 23.602 20.6973 23.602 21.4915V21.4831ZM22.9767 21.5084C22.9767 21.0522 22.6304 20.6889 22.1741 20.6804C21.7094 20.6804 21.3376 21.0353 21.3376 21.5C21.3376 21.9478 21.7009 22.3195 22.1487 22.3195C22.605 22.3195 22.9683 21.9647 22.9767 21.5084Z" fill="#0671B8"/>
<path d="M17.0708 22.928C16.285 22.928 15.626 22.2858 15.6176 21.5001C15.6176 20.7059 16.2766 20.0468 17.0708 20.0553C17.865 20.0553 18.5072 20.6974 18.4988 21.4916C18.4988 22.2858 17.865 22.928 17.0623 22.928H17.0708ZM16.2428 21.4916C16.2428 21.9479 16.623 22.3196 17.0793 22.3112C17.5271 22.3112 17.8904 21.931 17.882 21.4832C17.882 21.0269 17.5101 20.672 17.0539 20.6805C16.5976 20.6805 16.2343 21.0438 16.2343 21.5001L16.2428 21.4916Z" fill="#0671B8"/>
<path d="M8.96811 21.4663C8.96811 22.269 8.33447 22.9196 7.5318 22.9196C6.74603 22.9196 6.09538 22.2775 6.09538 21.4832C6.09538 20.689 6.72912 20.0469 7.52334 20.0469C8.31756 20.0469 8.95966 20.6721 8.96811 21.4663ZM8.35134 21.4832C8.35134 21.027 7.98805 20.6721 7.5318 20.6636C7.0671 20.6636 6.69525 21.0354 6.7037 21.4917C6.7037 21.9395 7.08399 22.3028 7.5318 22.3028C7.9796 22.3028 8.35133 21.931 8.34288 21.4832H8.35134Z" fill="#0671B8"/>
<path d="M9.03566 13.8535C8.35128 13.8535 7.66696 13.8535 6.98258 13.8535C6.90653 13.8535 6.78824 13.9127 6.76289 13.9803C6.39113 14.8843 6.02776 15.7884 5.656 16.6925C5.656 16.7094 5.65609 16.7347 5.63919 16.7769H9.55115V13.8535C9.37372 13.8535 9.20464 13.8535 9.0272 13.8535H9.03566Z" fill="#0671B8"/>
<path d="M21.38 14.3777C21.4476 14.4537 21.5996 14.5129 21.6841 14.4875C21.7686 14.4622 21.8193 14.3186 21.8615 14.2172C21.8869 14.1665 21.8615 14.0989 21.8615 14.0398C21.8615 13.1188 21.8615 12.2063 21.8615 11.2853C21.8615 11.2008 21.8615 11.1079 21.8615 10.998C22.1741 10.998 22.4615 10.998 22.7487 10.998C23.1712 10.998 23.281 11.1079 23.281 11.5388C23.281 13.2624 23.281 14.9861 23.281 16.7097C23.281 17.149 23.1712 17.2504 22.7318 17.2504C20.0703 17.2504 17.4173 17.2504 14.7558 17.2504C14.3164 17.2504 14.215 17.1406 14.215 16.7012C14.215 14.9776 14.215 13.254 14.215 11.5303C14.215 11.4374 14.1981 11.3276 14.2404 11.2684C14.308 11.167 14.4178 11.0319 14.5192 11.0234C14.874 10.9896 15.2374 11.015 15.6176 11.015C15.6176 11.1248 15.6176 11.2178 15.6176 11.3023C15.6176 12.2317 15.6176 13.1526 15.6176 14.082C15.6176 14.2425 15.5922 14.4284 15.795 14.5045C15.9978 14.5805 16.0908 14.42 16.1922 14.2932C16.3443 14.1074 16.4878 13.9215 16.6484 13.7187C16.8174 13.9384 16.9695 14.1327 17.1216 14.327C17.2145 14.4453 17.3074 14.5721 17.4933 14.5129C17.6707 14.4453 17.6708 14.2932 17.6708 14.1412C17.6708 13.1864 17.6708 12.2316 17.6708 11.2684C17.6708 11.1839 17.6708 11.1079 17.6708 11.015H19.8083C19.8083 11.1079 19.8083 11.1924 19.8083 11.2684C19.8083 12.2147 19.8083 13.1695 19.8083 14.1158C19.8083 14.2763 19.8084 14.4453 19.9943 14.5129C20.1886 14.5805 20.2815 14.4369 20.3745 14.3101C20.5181 14.1243 20.6618 13.9468 20.8308 13.7272C21.0166 13.9637 21.1772 14.1918 21.3631 14.3946L21.38 14.3777ZM18.634 16.6337C18.634 16.8364 18.7269 16.9378 18.9297 16.9378C19.3184 16.9378 19.707 16.9378 20.1041 16.9378C20.2985 16.9378 20.3998 16.8364 20.3998 16.6505C20.3998 16.1436 20.3998 15.6282 20.3998 15.1212C20.3998 14.9354 20.2984 14.834 20.121 14.834C19.7154 14.834 19.3099 14.834 18.9043 14.834C18.7269 14.834 18.634 14.9438 18.634 15.1297C18.634 15.3832 18.634 15.6367 18.634 15.8986C18.634 16.1436 18.634 16.3971 18.634 16.6421V16.6337ZM20.9321 16.6505C20.9321 16.8449 21.0335 16.9378 21.2278 16.9378C21.6165 16.9378 22.0052 16.9378 22.4023 16.9378C22.6135 16.9378 22.7064 16.828 22.7064 16.6252C22.7064 16.1267 22.7064 15.6366 22.7064 15.1381C22.7064 14.9269 22.5882 14.8255 22.3854 14.8171C22.0136 14.8171 21.6334 14.8171 21.2617 14.8171C21.0251 14.8171 20.9491 14.9016 20.9406 15.1551C20.9406 15.3916 20.9406 15.6366 20.9406 15.8732C20.9406 16.1267 20.9406 16.3802 20.9406 16.6421L20.9321 16.6505ZM15.1613 15.6198C14.9416 15.6198 14.8065 15.7296 14.8234 15.8901C14.8403 16.0845 14.9754 16.1521 15.1529 16.1521C16.0231 16.1521 16.9019 16.1521 17.7722 16.1521C17.9496 16.1521 18.0848 16.0929 18.1017 15.8901C18.1102 15.7212 17.9918 15.6282 17.7637 15.6198C17.3244 15.6198 16.8934 15.6198 16.4541 15.6198C16.0232 15.6198 15.5922 15.6198 15.1698 15.6198H15.1613ZM17.7722 15.3494C17.9496 15.3494 18.0933 15.2987 18.1017 15.0959C18.1017 14.8931 17.9665 14.8255 17.7891 14.8255C16.9104 14.8255 16.0317 14.8255 15.1445 14.8255C14.9671 14.8255 14.8234 14.9016 14.8234 15.0959C14.8234 15.2902 14.967 15.3578 15.1529 15.3494C15.5922 15.3494 16.0232 15.3494 16.4625 15.3494C16.9019 15.3494 17.3328 15.3494 17.7722 15.3494ZM17.7637 16.9378C17.9918 16.9378 18.1186 16.8449 18.1017 16.6759C18.0848 16.4731 17.9496 16.4224 17.7722 16.4224C16.9019 16.4224 16.0231 16.4224 15.1529 16.4224C14.967 16.4224 14.8403 16.4816 14.8234 16.6759C14.8065 16.8364 14.9416 16.9378 15.1698 16.9378C15.6091 16.9378 16.0401 16.9378 16.4794 16.9378C16.9103 16.9378 17.3413 16.9378 17.7637 16.9378Z" fill="#0671B8"/>
<path d="M17.13 11.0151H16.1668C16.1668 11.8178 16.1668 12.6205 16.1668 13.4739C16.2513 13.364 16.3189 13.288 16.378 13.2119C16.5724 12.9669 16.7244 12.9669 16.9188 13.2035C16.9779 13.2795 17.0371 13.3556 17.13 13.4654C17.13 12.6289 17.13 11.8347 17.13 11.0151Z" fill="#0671B8"/>
<path d="M20.3575 13.4563C20.673 13.1071 20.9941 13.1071 21.3208 13.4563C21.3208 12.6367 21.3208 11.8425 21.3208 11.0229H20.3575C20.3575 11.8256 20.3575 12.6198 20.3575 13.4648V13.4563Z" fill="#0671B8"/>
<path d="M9.5595 13.8535C9.38207 13.8535 9.21309 13.8535 9.03566 13.8535C8.35128 13.8535 7.66696 13.8535 6.98258 13.8535C6.90653 13.8535 6.78824 13.9127 6.76289 13.9803C6.39113 14.8843 6.02776 15.7884 5.656 16.6925C5.656 16.7094 5.65609 16.7347 5.63919 16.7769H9.55115V13.8535H9.5595Z" fill="#0671B8"/>
<path d="M22.191 21.779C22.3516 21.7705 22.4445 21.6691 22.4614 21.4917C22.4698 21.3312 22.3262 21.1875 22.1572 21.1875C21.9882 21.1875 21.8615 21.3312 21.87 21.5002C21.87 21.6607 22.0051 21.7789 22.191 21.7705V21.779Z" fill="#0671B8"/>
<path d="M16.7751 21.5002C16.7751 21.6691 16.9102 21.7958 17.0792 21.779C17.2567 21.7705 17.3497 21.6607 17.3581 21.4917C17.3666 21.3312 17.2228 21.1875 17.0623 21.1875C16.9018 21.1875 16.7666 21.3227 16.7751 21.4917V21.5002Z" fill="#0671B8"/>
<path d="M7.5403 21.196C7.37976 21.196 7.23605 21.3312 7.2445 21.4917C7.2445 21.6691 7.34595 21.7705 7.52338 21.779C7.69237 21.7958 7.82755 21.6691 7.836 21.5002C7.836 21.3396 7.70074 21.1959 7.54865 21.1875L7.5403 21.196Z" fill="#0671B8"/>
<path d="M19.8506 15.3662H19.1746V16.4139H19.8506V15.3662Z" fill="#0671B8"/>
<path d="M21.4644 16.4139H22.1488V15.3662H21.4644V16.4139Z" fill="#0671B8"/>
<path d="M24.0204 16.9591C26.2183 16.9591 28 15.1774 28 12.9796C28 10.7817 26.2183 9 24.0204 9C21.8226 9 20.0408 10.7817 20.0408 12.9796C20.0408 15.1774 21.8226 16.9591 24.0204 16.9591Z" fill="#FFB422" stroke="white" stroke-width="0.72" stroke-miterlimit="10"/>
<path d="M24.2615 15.1747C24.0931 14.9011 23.9318 14.6414 23.7704 14.3818C23.4406 13.8205 23.1178 13.2521 22.8722 12.6487C22.774 12.3961 22.6757 12.1364 22.6968 11.8558C22.7389 11.119 23.3073 10.4945 24.044 10.3962C24.872 10.284 25.6228 10.8173 25.7983 11.6312C25.8614 11.9119 25.8263 12.1926 25.7141 12.4592C25.5667 12.81 25.4263 13.1609 25.2439 13.4907C24.9422 14.045 24.6054 14.5783 24.2896 15.1256C24.2826 15.1396 24.2756 15.1537 24.2546 15.1747H24.2615ZM25.2509 11.947C25.2509 11.3997 24.8088 10.9576 24.2615 10.9576C23.7212 10.9576 23.2722 11.3997 23.2722 11.947C23.2722 12.4943 23.7212 12.9434 24.2685 12.9363C24.8159 12.9363 25.2579 12.4943 25.2509 11.947Z" fill="white"/>
<path d="M24.7598 11.9543C24.7598 12.2279 24.5352 12.4455 24.2686 12.4455C23.9949 12.4455 23.7704 12.2139 23.7704 11.9472C23.7704 11.6736 23.9949 11.4561 24.2615 11.4561C24.5352 11.4561 24.7598 11.6806 24.7528 11.9543H24.7598Z" fill="white"/>
</svg>
