<svg width="65" height="10" viewBox="0 0 65 10" fill="none" xmlns="http://www.w3.org/2000/svg">
<path d="M2.75 9.53711H0.0568182V0.809836H2.86932C3.71591 0.809836 4.44034 0.984552 5.04261 1.33398C5.64489 1.68057 6.10653 2.17915 6.42756 2.82972C6.74858 3.47745 6.90909 4.25302 6.90909 5.15643C6.90909 6.06552 6.74716 6.84819 6.4233 7.50444C6.09943 8.15785 5.62784 8.66069 5.00852 9.01296C4.3892 9.36239 3.63636 9.53711 2.75 9.53711ZM1.11364 8.59961H2.68182C3.40341 8.59961 4.00142 8.4604 4.47585 8.182C4.95028 7.90359 5.30398 7.50728 5.53693 6.99308C5.76989 6.47887 5.88636 5.86665 5.88636 5.15643C5.88636 4.45188 5.77131 3.84535 5.54119 3.33682C5.31108 2.82546 4.96733 2.43342 4.50994 2.16069C4.05256 1.88512 3.48295 1.74734 2.80114 1.74734H1.11364V8.59961ZM8.54545 9.53711V2.99165H9.55114V9.53711H8.54545ZM9.05682 1.90075C8.8608 1.90075 8.69176 1.83398 8.54972 1.70046C8.41051 1.56694 8.34091 1.40643 8.34091 1.21893C8.34091 1.03143 8.41051 0.870916 8.54972 0.737393C8.69176 0.603871 8.8608 0.537109 9.05682 0.537109C9.25284 0.537109 9.42045 0.603871 9.55966 0.737393C9.7017 0.870916 9.77273 1.03143 9.77273 1.21893C9.77273 1.40643 9.7017 1.56694 9.55966 1.70046C9.42045 1.83398 9.25284 1.90075 9.05682 1.90075ZM16.0295 4.45756L15.1261 4.71325C15.0692 4.56268 14.9854 4.41637 14.8746 4.27433C14.7667 4.12944 14.619 4.01012 14.4315 3.91637C14.244 3.82262 14.0039 3.77575 13.7113 3.77575C13.3107 3.77575 12.9769 3.86808 12.7099 4.05273C12.4457 4.23455 12.3136 4.46609 12.3136 4.74734C12.3136 4.99734 12.4045 5.19478 12.5863 5.33967C12.7681 5.48455 13.0522 5.60529 13.4386 5.70188L14.4102 5.94052C14.9954 6.08256 15.4315 6.29989 15.7184 6.59251C16.0053 6.88228 16.1488 7.25586 16.1488 7.71325C16.1488 8.08825 16.0408 8.42347 15.8249 8.71893C15.6119 9.01438 15.3136 9.24734 14.93 9.41779C14.5465 9.58825 14.1005 9.67347 13.592 9.67347C12.9244 9.67347 12.3718 9.52859 11.9343 9.23881C11.4968 8.94904 11.2198 8.52575 11.1033 7.96893L12.0579 7.73029C12.1488 8.08256 12.3207 8.34677 12.5735 8.5229C12.8292 8.69904 13.163 8.78711 13.5749 8.78711C14.0437 8.78711 14.4158 8.68768 14.6914 8.48881C14.9698 8.28711 15.109 8.04563 15.109 7.76438C15.109 7.53711 15.0295 7.34677 14.8704 7.19336C14.7113 7.03711 14.467 6.92063 14.1374 6.84393L13.0465 6.58825C12.4471 6.4462 12.0067 6.22603 11.7255 5.92773C11.4471 5.6266 11.3079 5.25018 11.3079 4.79847C11.3079 4.42915 11.4116 4.10245 11.619 3.81836C11.8292 3.53427 12.1147 3.31126 12.4755 3.14932C12.8391 2.98739 13.2511 2.90643 13.7113 2.90643C14.359 2.90643 14.8675 3.04847 15.2369 3.33256C15.609 3.61665 15.8732 3.99165 16.0295 4.45756ZM20.5092 2.99165V3.84393H17.1172V2.99165H20.5092ZM18.1058 1.42347H19.1115V7.66211C19.1115 7.9462 19.1527 8.15927 19.2351 8.30131C19.3203 8.44052 19.4283 8.53427 19.5589 8.58256C19.6925 8.62802 19.8331 8.65075 19.9808 8.65075C20.0916 8.65075 20.1825 8.64506 20.2536 8.6337C20.3246 8.6195 20.3814 8.60813 20.424 8.59961L20.6286 9.50302C20.5604 9.52859 20.4652 9.55415 20.343 9.57972C20.2209 9.60813 20.0661 9.62234 19.8786 9.62234C19.5945 9.62234 19.3161 9.56126 19.0433 9.4391C18.7734 9.31694 18.549 9.13086 18.37 8.88086C18.1939 8.63086 18.1058 8.31552 18.1058 7.93484V1.42347ZM22.022 9.53711V2.99165H22.9936V3.98029H23.0618C23.1811 3.65643 23.397 3.39364 23.7095 3.19194C24.022 2.99023 24.3743 2.88938 24.7663 2.88938C24.8402 2.88938 24.9325 2.8908 25.0433 2.89364C25.1541 2.89648 25.2379 2.90075 25.2947 2.90643V3.92915C25.2607 3.92063 25.1825 3.90785 25.0604 3.8908C24.9411 3.87092 24.8146 3.86097 24.6811 3.86097C24.3629 3.86097 24.0788 3.92773 23.8288 4.06126C23.5817 4.19194 23.3857 4.37376 23.2408 4.60671C23.0987 4.83683 23.0277 5.09961 23.0277 5.39506V9.53711H22.022ZM26.4869 9.53711V2.99165H27.4925V9.53711H26.4869ZM26.9982 1.90075C26.8022 1.90075 26.6332 1.83398 26.4911 1.70046C26.3519 1.56694 26.2823 1.40643 26.2823 1.21893C26.2823 1.03143 26.3519 0.870916 26.4911 0.737393C26.6332 0.603871 26.8022 0.537109 26.9982 0.537109C27.1942 0.537109 27.3619 0.603871 27.5011 0.737393C27.6431 0.870916 27.7141 1.03143 27.7141 1.21893C27.7141 1.40643 27.6431 1.56694 27.5011 1.70046C27.3619 1.83398 27.1942 1.90075 26.9982 1.90075ZM29.4709 9.53711V0.809836H30.4766V4.03143H30.5618C30.6357 3.91779 30.7379 3.7729 30.8686 3.59677C31.0021 3.41779 31.1925 3.2587 31.4396 3.1195C31.6896 2.97745 32.0277 2.90643 32.4538 2.90643C33.005 2.90643 33.4908 3.04421 33.9112 3.31978C34.3317 3.59535 34.6598 3.98597 34.8956 4.49165C35.1314 4.99734 35.2493 5.59393 35.2493 6.28143C35.2493 6.97461 35.1314 7.57546 34.8956 8.08398C34.6598 8.58967 34.3331 8.98171 33.9155 9.26012C33.4979 9.53569 33.0163 9.67347 32.4709 9.67347C32.0504 9.67347 31.7138 9.60387 31.4609 9.46467C31.2081 9.32262 31.0135 9.16211 30.8771 8.98313C30.7408 8.80131 30.6357 8.65075 30.5618 8.53143H30.4425V9.53711H29.4709ZM30.4595 6.26438C30.4595 6.7587 30.532 7.19478 30.6768 7.57262C30.8217 7.94762 31.0334 8.24165 31.3118 8.45472C31.5902 8.66495 31.9311 8.77006 32.3345 8.77006C32.755 8.77006 33.1058 8.65927 33.3871 8.43768C33.6712 8.21325 33.8842 7.91211 34.0263 7.53427C34.1712 7.15359 34.2436 6.73029 34.2436 6.26438C34.2436 5.80415 34.1726 5.38938 34.0305 5.02006C33.8913 4.6479 33.6797 4.35387 33.3956 4.13796C33.1143 3.91921 32.7607 3.80984 32.3345 3.80984C31.9254 3.80984 31.5817 3.91353 31.3033 4.12092C31.0249 4.32546 30.8146 4.61239 30.6726 4.98171C30.5305 5.34819 30.4595 5.77575 30.4595 6.26438ZM40.9126 6.86097V2.99165H41.9183V9.53711H40.9126V8.42915H40.8445C40.6911 8.76154 40.4524 9.04421 40.1286 9.27717C39.8047 9.50728 39.3956 9.62234 38.9013 9.62234C38.4922 9.62234 38.1286 9.53285 37.8104 9.35387C37.4922 9.17205 37.2422 8.89933 37.0604 8.53569C36.8786 8.16921 36.7876 7.70756 36.7876 7.15075V2.99165H37.7933V7.08256C37.7933 7.55984 37.9268 7.94052 38.1939 8.22461C38.4638 8.5087 38.8075 8.65075 39.2251 8.65075C39.4751 8.65075 39.7294 8.58683 39.9879 8.45898C40.2493 8.33114 40.468 8.13512 40.6442 7.87092C40.8232 7.60671 40.9126 7.27006 40.9126 6.86097ZM46.6069 2.99165V3.84393H43.2148V2.99165H46.6069ZM44.2035 1.42347H45.2092V7.66211C45.2092 7.9462 45.2504 8.15927 45.3327 8.30131C45.418 8.44052 45.5259 8.53427 45.6566 8.58256C45.7901 8.62802 45.9308 8.65075 46.0785 8.65075C46.1893 8.65075 46.2802 8.64506 46.3512 8.6337C46.4222 8.6195 46.479 8.60813 46.5217 8.59961L46.7262 9.50302C46.658 9.52859 46.5629 9.55415 46.4407 9.57972C46.3185 9.60813 46.1637 9.62234 45.9762 9.62234C45.6921 9.62234 45.4137 9.56126 45.141 9.4391C44.8711 9.31694 44.6467 9.13086 44.4677 8.88086C44.2915 8.63086 44.2035 8.31552 44.2035 7.93484V1.42347ZM50.7937 9.67347C50.163 9.67347 49.619 9.53427 49.1616 9.25586C48.707 8.97461 48.3562 8.58256 48.109 8.07972C47.8647 7.57404 47.7425 6.98597 47.7425 6.31552C47.7425 5.64506 47.8647 5.05415 48.109 4.54279C48.3562 4.02859 48.6999 3.62802 49.1403 3.34109C49.5835 3.05131 50.1005 2.90643 50.6914 2.90643C51.0323 2.90643 51.369 2.96325 51.7013 3.07688C52.0337 3.19052 52.3363 3.37518 52.609 3.63086C52.8817 3.8837 53.0991 4.21893 53.261 4.63654C53.4229 5.05415 53.5039 5.56836 53.5039 6.17915V6.60529H48.4585V5.73597H52.4812C52.4812 5.36665 52.4073 5.03711 52.2596 4.74734C52.1147 4.45756 51.9073 4.22887 51.6374 4.06126C51.3704 3.89364 51.055 3.80984 50.6914 3.80984C50.2908 3.80984 49.9442 3.90927 49.6516 4.10813C49.3619 4.30415 49.1388 4.55984 48.9826 4.87518C48.8263 5.19052 48.7482 5.52859 48.7482 5.88938V6.46893C48.7482 6.96325 48.8335 7.38228 49.0039 7.72603C49.1772 8.06694 49.4173 8.32688 49.7241 8.50586C50.0309 8.682 50.3874 8.77006 50.7937 8.77006C51.0579 8.77006 51.2965 8.73313 51.5096 8.65927C51.7255 8.58256 51.9116 8.46893 52.0678 8.31836C52.2241 8.16495 52.3448 7.97461 52.43 7.74734L53.4016 8.02006C53.2994 8.34961 53.1275 8.63938 52.886 8.88938C52.6445 9.13654 52.3462 9.32972 51.9911 9.46893C51.636 9.60529 51.2369 9.67347 50.7937 9.67347ZM55.0337 9.53711V2.99165H56.0053V3.98029H56.0735C56.1928 3.65643 56.4087 3.39364 56.7212 3.19194C57.0337 2.99023 57.386 2.88938 57.7781 2.88938C57.8519 2.88938 57.9442 2.8908 58.055 2.89364C58.1658 2.89648 58.2496 2.90075 58.3065 2.90643V3.92915C58.2724 3.92063 58.1942 3.90785 58.0721 3.8908C57.9528 3.87092 57.8263 3.86097 57.6928 3.86097C57.3746 3.86097 57.0906 3.92773 56.8406 4.06126C56.5934 4.19194 56.3974 4.37376 56.2525 4.60671C56.1104 4.83683 56.0394 5.09961 56.0394 5.39506V9.53711H55.0337ZM64.1349 4.45756L63.2315 4.71325C63.1747 4.56268 63.0909 4.41637 62.9801 4.27433C62.8722 4.12944 62.7244 4.01012 62.5369 3.91637C62.3494 3.82262 62.1094 3.77575 61.8168 3.77575C61.4162 3.77575 61.0824 3.86808 60.8153 4.05273C60.5511 4.23455 60.419 4.46609 60.419 4.74734C60.419 4.99734 60.5099 5.19478 60.6918 5.33967C60.8736 5.48455 61.1577 5.60529 61.544 5.70188L62.5156 5.94052C63.1009 6.08256 63.5369 6.29989 63.8239 6.59251C64.1108 6.88228 64.2543 7.25586 64.2543 7.71325C64.2543 8.08825 64.1463 8.42347 63.9304 8.71893C63.7173 9.01438 63.419 9.24734 63.0355 9.41779C62.652 9.58825 62.206 9.67347 61.6974 9.67347C61.0298 9.67347 60.4773 9.52859 60.0398 9.23881C59.6023 8.94904 59.3253 8.52575 59.2088 7.96893L60.1634 7.73029C60.2543 8.08256 60.4261 8.34677 60.679 8.5229C60.9347 8.69904 61.2685 8.78711 61.6804 8.78711C62.1491 8.78711 62.5213 8.68768 62.7969 8.48881C63.0753 8.28711 63.2145 8.04563 63.2145 7.76438C63.2145 7.53711 63.1349 7.34677 62.9759 7.19336C62.8168 7.03711 62.5724 6.92063 62.2429 6.84393L61.152 6.58825C60.5526 6.4462 60.1122 6.22603 59.831 5.92773C59.5526 5.6266 59.4134 5.25018 59.4134 4.79847C59.4134 4.42915 59.517 4.10245 59.7244 3.81836C59.9347 3.53427 60.2202 3.31126 60.581 3.14932C60.9446 2.98739 61.3565 2.90643 61.8168 2.90643C62.4645 2.90643 62.973 3.04847 63.3423 3.33256C63.7145 3.61665 63.9787 3.99165 64.1349 4.45756Z" fill="black"/>
</svg>
