<svg width="32" height="32" viewBox="0 0 32 32" fill="none" xmlns="http://www.w3.org/2000/svg">
<path d="M5.00845 24.0189V10.4341C5.00845 10.4341 5.0939 10.4341 5.12808 10.4341C11.6813 10.4341 18.2344 10.4341 24.7876 10.4341C24.8902 10.4341 24.9927 10.4341 25.1037 10.4341C25.1037 10.5708 25.1037 10.6562 25.1037 10.7502C25.1037 15.0392 25.1037 19.3283 25.1037 23.6173C25.1037 24.5913 24.6082 25.0869 23.6428 25.0869C19.1829 25.0869 14.7229 25.0869 10.2544 25.0869C8.9472 25.0869 7.64001 25.0869 6.3328 25.0869C5.67491 25.0869 5.22208 24.728 5.04266 24.1043C5.04266 24.0787 5.01709 24.0446 5 24.0189H5.00845ZM19.2512 15.4665C18.3797 15.4665 17.5424 15.7912 16.9273 16.3978C16.0472 17.2692 15.4577 18.6704 16.3462 20.3707C17.0468 21.7035 17.9269 22.8997 18.8839 24.0531C19.1145 24.3265 22.2074 23.1645 22.4381 22.8911C22.7285 22.5494 20.584 24.8904 20.8574 24.5315C21.5922 23.5661 17.551 25.3945 17.9867 24.2581C18.132 23.8907 16.7479 22.8484 16.7479 22.4639C15.8166 20.6014 12.5869 15.0991 19.2512 15.4665ZM8.802 18.8157C8.53714 18.8157 8.28078 18.8157 8.01592 18.8157C7.68271 18.8157 7.52896 18.9609 7.52041 19.2856C7.52041 19.8068 7.52041 20.3279 7.52041 20.8491C7.52041 21.1652 7.68269 21.3105 7.99882 21.319C8.52 21.319 9.04124 21.319 9.56242 21.319C9.86146 21.319 10.0237 21.1653 10.0323 20.8748C10.0408 20.3365 10.0408 19.7982 10.0323 19.26C10.0323 18.9609 9.86146 18.8242 9.56242 18.8157C9.3061 18.8157 9.05832 18.8157 8.802 18.8157ZM7.52041 13.3817C7.52041 13.6466 7.52041 13.9029 7.52041 14.1678C7.52896 14.4668 7.68277 14.6206 7.97327 14.6292C8.50299 14.6292 9.0327 14.6292 9.56242 14.6292C9.86146 14.6292 10.0237 14.4754 10.0237 14.1763C10.0323 13.6466 10.0323 13.1169 10.0237 12.5872C10.0237 12.2796 9.8529 12.1258 9.54532 12.1173C9.03268 12.1173 8.52 12.1173 7.99882 12.1173C7.67415 12.1173 7.5204 12.2796 7.51186 12.5957C7.51186 12.8606 7.51186 13.1169 7.51186 13.3817H7.52041ZM21.3274 14.6292C21.6008 14.6292 21.8656 14.6292 22.139 14.6292C22.4295 14.6206 22.5833 14.4754 22.5833 14.1849C22.5919 13.6466 22.5919 13.1083 22.5833 12.5701C22.5833 12.2881 22.421 12.1258 22.139 12.1258C21.6008 12.1173 21.0625 12.1173 20.5242 12.1258C20.2423 12.1258 20.0799 12.2881 20.0799 12.5701C20.0714 13.1083 20.0714 13.6466 20.0799 14.1849C20.0799 14.4668 20.2423 14.6206 20.5242 14.6292C20.7891 14.6377 21.0626 14.6292 21.336 14.6292H21.3274ZM8.79345 15.475C8.52004 15.475 8.25522 15.475 7.98182 15.475C7.68278 15.475 7.52041 15.6288 7.52041 15.9278C7.51187 16.4575 7.51187 16.9873 7.52041 17.517C7.52041 17.8246 7.69124 17.9784 7.99882 17.9869C8.52 17.9869 9.04124 17.9869 9.56242 17.9869C9.86146 17.9869 10.0237 17.8246 10.0237 17.5341C10.0323 17.0043 10.0323 16.4746 10.0237 15.9449C10.0237 15.6373 9.86144 15.4921 9.54532 15.4836C9.289 15.4836 9.04121 15.4836 8.7849 15.4836L8.79345 15.475ZM14.2188 13.3817C14.2188 13.1254 14.2188 12.8776 14.2188 12.6213C14.2188 12.2967 14.0651 12.1344 13.7404 12.1258C13.2192 12.1258 12.698 12.1258 12.1768 12.1258C11.8692 12.1258 11.7155 12.2881 11.7155 12.6043C11.7155 13.1254 11.7155 13.6466 11.7155 14.1678C11.7155 14.4753 11.8607 14.6292 12.1597 14.6292C12.698 14.6377 13.2362 14.6377 13.7745 14.6292C14.065 14.6292 14.2103 14.4583 14.2188 14.1593C14.2188 13.8944 14.2188 13.6381 14.2188 13.3732V13.3817ZM18.3968 13.3903C18.3968 13.1254 18.3968 12.8691 18.3968 12.6043C18.3968 12.2881 18.243 12.1258 17.9354 12.1258C17.4057 12.1258 16.876 12.1258 16.3462 12.1258C16.0557 12.1258 15.8935 12.2967 15.8935 12.5872C15.8935 13.1169 15.8935 13.6466 15.8935 14.1763C15.8935 14.4583 16.0472 14.6206 16.3291 14.6292C16.8759 14.6377 17.4228 14.6377 17.9696 14.6292C18.243 14.6292 18.3883 14.4668 18.3968 14.1934C18.3968 13.92 18.3968 13.6551 18.3968 13.3817V13.3903ZM11.7155 16.7139C11.7155 16.9873 11.7155 17.2692 11.7155 17.5426C11.7155 17.8075 11.8693 17.9784 12.1427 17.9784C12.6895 17.9869 13.2363 17.9869 13.7831 17.9784C14.0565 17.9784 14.2188 17.7989 14.2188 17.5255C14.2188 16.9873 14.2188 16.449 14.2188 15.9108C14.2188 15.6374 14.065 15.4836 13.7916 15.475C13.2363 15.4665 12.6809 15.4665 12.1256 15.475C11.8607 15.475 11.724 15.6373 11.7155 15.8937C11.7155 16.1671 11.7155 16.4319 11.7155 16.7053V16.7139ZM12.9714 18.8242C12.698 18.8242 12.4331 18.8242 12.1597 18.8242C11.8692 18.8242 11.7155 18.978 11.7155 19.26C11.7155 19.7982 11.7155 20.3365 11.7155 20.8748C11.7155 21.1653 11.8778 21.3276 12.1768 21.3276C12.7065 21.3276 13.2362 21.3276 13.766 21.3276C14.0479 21.3276 14.2103 21.1652 14.2188 20.8918C14.2188 20.3536 14.2188 19.8153 14.2188 19.2771C14.2188 18.9866 14.048 18.8328 13.7575 18.8328C13.4927 18.8328 13.2363 18.8328 12.9714 18.8328V18.8242Z" fill="#0671B8"/>
<path d="M5.00845 9.60481V6.9049C5.35021 6.03342 5.64925 5.83691 6.61471 5.83691C7.11026 5.83691 7.61435 5.83691 8.1099 5.83691C8.18679 5.83691 8.26373 5.83691 8.36626 5.83691C8.36626 6.36664 8.36626 6.85365 8.36626 7.34065C8.36626 7.52007 8.37476 7.69949 8.42602 7.87037C8.5969 8.45136 9.16939 8.82732 9.75892 8.75897C10.3912 8.68207 10.861 8.16941 10.8781 7.50299C10.8952 7.04162 10.8781 6.57169 10.8781 6.10177C10.8781 6.01633 10.8867 5.93091 10.8952 5.84547H19.2426C19.2426 6.38373 19.2426 6.90494 19.2426 7.42612C19.2426 8.18653 19.7809 8.75043 20.49 8.75897C21.2163 8.75897 21.7461 8.21212 21.7632 7.43462C21.7632 7.02451 21.7632 6.61441 21.7632 6.21285C21.7632 6.09323 21.7632 5.97365 21.7632 5.87112C21.8144 5.84549 21.8315 5.83691 21.8486 5.83691C22.4979 5.83691 23.1387 5.83691 23.7881 5.83691C24.5826 5.83691 25.1123 6.37522 25.1123 7.16126C25.1123 7.82769 25.1123 8.50264 25.1123 9.16906C25.1123 9.30576 25.1123 9.44247 25.1123 9.59626H5.01701L5.00845 9.60481Z" fill="#0671B8"/>
<path d="M20.6011 5C20.8403 5.11107 20.9257 5.30757 20.9172 5.57243C20.9087 6.20468 20.9172 6.84551 20.9172 7.47776C20.9172 7.66572 20.8575 7.83658 20.6695 7.88785C20.5413 7.92202 20.3705 7.91349 20.268 7.84514C20.174 7.78533 20.097 7.62297 20.0885 7.49481C20.0714 6.81129 20.0885 6.12781 20.0885 5.4443C20.0885 5.22216 20.2337 5.09398 20.4131 5H20.6096H20.6011Z" fill="#0671B8"/>
<path d="M9.7162 5C9.97251 5.11107 10.0494 5.32467 10.0494 5.58953C10.0409 6.18761 10.0494 6.77716 10.0494 7.37523C10.0494 7.44358 10.0494 7.50338 10.0409 7.57173C10.0067 7.79387 9.82728 7.94765 9.62222 7.93911C9.40863 7.93911 9.22923 7.77676 9.22069 7.55462C9.21214 6.83693 9.22069 6.11928 9.22069 5.40159C9.22069 5.18799 9.37446 5.09398 9.52825 5H9.72475H9.7162Z" fill="#0671B8"/>
<path d="M8.81055 18.8154C9.06687 18.8154 9.31465 18.8154 9.57097 18.8154C9.87855 18.8154 10.0408 18.9607 10.0408 19.2597C10.0494 19.798 10.0494 20.3363 10.0408 20.8745C10.0408 21.1736 9.87001 21.3188 9.57097 21.3188C9.04979 21.3188 8.52854 21.3188 8.00737 21.3188C7.69979 21.3188 7.53751 21.165 7.52896 20.8489C7.52896 20.3277 7.52896 19.8066 7.52896 19.2854C7.52896 18.9607 7.69126 18.8154 8.02447 18.8154C8.28933 18.8154 8.54569 18.8154 8.81055 18.8154ZM9.19498 19.6698H8.3919V20.4815H9.19498V19.6698Z" fill="white"/>
<path d="M7.52896 13.3812C7.52896 13.1163 7.52896 12.86 7.52896 12.5952C7.53751 12.2705 7.69125 12.1167 8.01592 12.1167C8.52855 12.1167 9.04124 12.1167 9.56242 12.1167C9.87 12.1167 10.0323 12.279 10.0408 12.5866C10.0494 13.1163 10.0494 13.646 10.0408 14.1758C10.0408 14.4748 9.87856 14.6201 9.57952 14.6286C9.0498 14.6286 8.52009 14.6286 7.99037 14.6286C7.69133 14.6286 7.54606 14.4662 7.53751 14.1672C7.52897 13.9023 7.53751 13.646 7.53751 13.3812H7.52896ZM9.18643 13.7742V12.9625H8.38335V13.7742H9.18643Z" fill="white"/>
<path d="M21.336 14.6289C21.0626 14.6289 20.7977 14.6289 20.5243 14.6289C20.2423 14.6204 20.08 14.4666 20.08 14.1846C20.0714 13.6463 20.0714 13.1081 20.08 12.5698C20.08 12.2878 20.2509 12.1255 20.5243 12.1255C21.0625 12.117 21.6008 12.117 22.1391 12.1255C22.421 12.1255 22.5748 12.2878 22.5834 12.5698C22.5919 13.1081 22.5919 13.6463 22.5834 14.1846C22.5834 14.4751 22.421 14.6204 22.1391 14.6289C21.8742 14.6375 21.6008 14.6289 21.3274 14.6289H21.336ZM21.7375 13.7745V12.9714H20.9343V13.7745H21.7375Z" fill="white"/>
<path d="M8.80205 15.4661C9.05837 15.4661 9.30615 15.4661 9.56247 15.4661C9.87859 15.4661 10.0323 15.6198 10.0409 15.9274C10.0494 16.4571 10.0494 16.9869 10.0409 17.5166C10.0409 17.8071 9.87007 17.9694 9.57957 17.9694C9.0584 17.9694 8.53715 17.9694 8.01597 17.9694C7.70839 17.9694 7.54611 17.8071 7.53757 17.4995C7.52902 16.9698 7.52902 16.4401 7.53757 15.9104C7.53757 15.6113 7.69983 15.4661 7.99887 15.4575C8.27227 15.4575 8.5372 15.4575 8.8106 15.4575L8.80205 15.4661ZM8.38341 16.3119V17.1236H9.18648V16.3119H8.38341Z" fill="white"/>
<path d="M14.2273 13.3729C14.2273 13.6377 14.2273 13.8941 14.2273 14.1589C14.2273 14.458 14.0735 14.6203 13.783 14.6288C13.2448 14.6374 12.7065 14.6374 12.1682 14.6288C11.8692 14.6288 11.724 14.4665 11.724 14.1674C11.724 13.6463 11.724 13.1251 11.724 12.6039C11.724 12.2878 11.8777 12.134 12.1853 12.1255C12.7065 12.1255 13.2278 12.1255 13.7489 12.1255C14.0651 12.1255 14.2188 12.2963 14.2273 12.621C14.2273 12.8773 14.2273 13.1251 14.2273 13.3814V13.3729ZM13.3815 13.783V12.9713H12.5784V13.783H13.3815Z" fill="white"/>
<path d="M18.4053 13.3813C18.4053 13.6547 18.4053 13.9196 18.4053 14.193C18.4053 14.4664 18.2515 14.6202 17.9781 14.6287C17.4313 14.6373 16.8845 14.6373 16.3377 14.6287C16.0557 14.6287 15.9019 14.4664 15.9019 14.1759C15.9019 13.6462 15.9019 13.1165 15.9019 12.5867C15.9019 12.2962 16.0643 12.1254 16.3548 12.1254C16.8845 12.1168 17.4142 12.1254 17.9439 12.1254C18.2515 12.1254 18.3968 12.2877 18.4053 12.6038C18.4053 12.8687 18.4053 13.125 18.4053 13.3899V13.3813ZM17.5595 12.9712H16.7563V13.7743H17.5595V12.9712Z" fill="white"/>
<path d="M21.336 17.978C21.0626 17.978 20.7977 17.978 20.5243 17.978C20.2423 17.9695 20.08 17.8157 20.08 17.5337C20.0714 16.9955 20.0714 16.4572 20.08 15.919C20.08 15.637 20.2509 15.4747 20.5243 15.4747C21.0626 15.4661 21.6008 15.4661 22.1391 15.4747C22.421 15.4747 22.5749 15.637 22.5834 15.919C22.5919 16.4572 22.5919 16.9955 22.5834 17.5337C22.5834 17.8242 22.421 17.9695 22.1391 17.978C21.8742 17.9866 21.6009 17.978 21.3275 17.978H21.336ZM21.7376 17.1236V16.3205H20.9344V17.1236H21.7376Z" fill="white"/>
<path d="M18.4053 16.7392C18.4053 17.0126 18.4053 17.2775 18.4053 17.5509C18.4053 17.8243 18.2515 17.9781 17.9781 17.9866C17.4313 17.9952 16.8845 17.9952 16.3377 17.9866C16.0557 17.9866 15.9019 17.8243 15.9019 17.5338C15.9019 17.0041 15.9019 16.4744 15.9019 15.9446C15.9019 15.6541 16.0643 15.4833 16.3548 15.4833C16.8845 15.4747 17.4142 15.4833 17.9439 15.4833C18.2515 15.4833 18.3968 15.6456 18.4053 15.9617C18.4053 16.2266 18.4053 16.4829 18.4053 16.7478V16.7392ZM17.5595 16.3291H16.7563V17.1323H17.5595V16.3291Z" fill="white"/>
<path d="M21.336 21.3018C21.0626 21.3018 20.7977 21.3018 20.5243 21.3018C20.2423 21.2932 20.08 21.1394 20.08 20.8575C20.0714 20.3192 20.0714 19.7809 20.08 19.2426C20.08 18.9607 20.2509 18.7984 20.5243 18.7984C21.0625 18.7899 21.6008 18.7899 22.1391 18.7984C22.421 18.7984 22.5748 18.9607 22.5834 19.2426C22.5919 19.7809 22.5919 20.3192 22.5834 20.8575C22.5834 21.148 22.421 21.2932 22.1391 21.3018C21.8742 21.3103 21.6008 21.3018 21.3274 21.3018H21.336ZM21.7375 20.4474V19.6442H20.9343V20.4474H21.7375Z" fill="white"/>
<path d="M18.4054 20.063C18.4054 20.3364 18.4054 20.6013 18.4054 20.8747C18.4054 21.1481 18.2516 21.3019 17.9782 21.3104C17.4314 21.319 16.8845 21.319 16.3377 21.3104C16.0557 21.3104 15.9019 21.1481 15.9019 20.8576C15.9019 20.3279 15.9019 19.7981 15.9019 19.2684C15.9019 18.9779 16.0643 18.807 16.3548 18.807C16.8845 18.7985 17.4142 18.807 17.944 18.807C18.2515 18.807 18.3968 18.9694 18.4054 19.2855C18.4054 19.5504 18.4054 19.8067 18.4054 20.0716V20.063ZM17.5595 19.6529H16.7563V20.456H17.5595V19.6529Z" fill="white"/>
<path d="M11.724 16.705C11.724 16.4316 11.724 16.1667 11.724 15.8933C11.724 15.6285 11.8693 15.4747 12.1341 15.4747C12.6895 15.4661 13.2448 15.4661 13.8001 15.4747C14.0735 15.4747 14.2273 15.637 14.2273 15.9104C14.2273 16.4487 14.2273 16.9869 14.2273 17.5252C14.2273 17.8071 14.065 17.978 13.7916 17.978C13.2448 17.9866 12.698 17.9866 12.1512 17.978C11.8864 17.978 11.7326 17.8071 11.724 17.5423C11.724 17.2689 11.724 16.987 11.724 16.7135V16.705ZM12.5784 16.3205V17.1322H13.3815V16.3205H12.5784Z" fill="white"/>
<path d="M12.98 18.8157C13.2448 18.8157 13.5011 18.8157 13.7659 18.8157C14.065 18.8157 14.2273 18.9695 14.2273 19.26C14.2273 19.7982 14.2273 20.3365 14.2273 20.8748C14.2273 21.1482 14.0564 21.3105 13.7745 21.3105C13.2448 21.3105 12.7151 21.3105 12.1853 21.3105C11.8863 21.3105 11.7326 21.1567 11.724 20.8577C11.724 20.3194 11.724 19.7811 11.724 19.2429C11.724 18.9609 11.8777 18.8157 12.1682 18.8071C12.4416 18.8071 12.7066 18.8071 12.98 18.8071V18.8157ZM13.3729 20.4903V19.6701H12.5699V20.4903H13.3729Z" fill="white"/>
<path d="M9.18641 19.6699V20.4816H8.38333V19.6699H9.18641Z" fill="#0671B8"/>
<path d="M9.18641 13.7751H8.38333V12.9634H9.18641V13.7751Z" fill="#0671B8"/>
<path d="M21.7375 13.7748H20.9343V12.9717H21.7375V13.7748Z" fill="#0671B8"/>
<path d="M8.38333 16.3203H9.18641V17.132H8.38333V16.3203Z" fill="#0671B8"/>
<path d="M13.3815 13.7834H12.5784V12.9717H13.3815V13.7834Z" fill="#0671B8"/>
<path d="M17.5595 12.9717V13.7748H16.7563V12.9717H17.5595Z" fill="#0671B8"/>
<path d="M12.5699 16.3203H13.373V17.132H12.5699V16.3203Z" fill="#0671B8"/>
<path d="M13.373 20.4902H12.5699V19.6699H13.373V20.4902Z" fill="#0671B8"/>
<path d="M21.8531 16.4783C25.0227 16.4783 27.5923 13.9088 27.5923 10.7392C27.5923 7.56953 25.0227 5 21.8531 5C18.6834 5 16.114 7.56953 16.114 10.7392C16.114 13.9088 18.6834 16.4783 21.8531 16.4783Z" fill="#FFB422" stroke="white" stroke-width="0.91" stroke-miterlimit="10"/>
<path d="M22.3505 13.7714H21.5853C21.4993 13.7427 21.461 13.6758 21.4418 13.5992C21.394 13.4079 21.3462 13.207 21.2983 13.0157C21.2983 12.9775 21.2697 12.9583 21.2314 12.9488C21.1358 12.9105 21.0497 12.8722 20.954 12.834C20.9158 12.8148 20.8966 12.8148 20.8584 12.834C20.7149 12.9201 20.5714 13.0062 20.4375 13.0923C20.3227 13.1592 20.2558 13.1496 20.1601 13.0635C20.0167 12.9201 19.8731 12.7766 19.7201 12.6236C19.634 12.5375 19.6245 12.4609 19.6819 12.3557C19.768 12.2122 19.854 12.0688 19.94 11.9158C19.9592 11.8871 19.9592 11.8679 19.94 11.8392C19.8922 11.7436 19.854 11.6479 19.8157 11.5427C19.8061 11.5044 19.787 11.4949 19.7488 11.4853C19.5479 11.4375 19.347 11.3896 19.1462 11.3418C19.0314 11.3131 18.9835 11.2558 18.9835 11.141C18.9835 10.9305 18.9835 10.7201 18.9835 10.5096C18.9835 10.3853 19.0314 10.3279 19.1462 10.2992C19.347 10.2514 19.5479 10.2036 19.7488 10.1557C19.7775 10.1557 19.7966 10.1366 19.8157 10.0983C19.8444 10.0123 19.8827 9.92616 19.921 9.84964C19.9306 9.82094 19.9306 9.80185 19.921 9.77316C19.8254 9.61055 19.7201 9.44792 19.6244 9.27575C19.5575 9.17053 19.5671 9.09398 19.6532 9.00789C19.7966 8.86441 19.9401 8.71141 20.0931 8.56793C20.1888 8.47228 20.2558 8.46268 20.3705 8.53921C20.5332 8.63486 20.6862 8.7305 20.8488 8.82615C20.8679 8.83572 20.9062 8.83572 20.9253 8.82615C21.0305 8.78789 21.1262 8.74006 21.2314 8.7018C21.2697 8.69223 21.2792 8.67315 21.2888 8.63489C21.3366 8.43402 21.3844 8.23315 21.4323 8.03228C21.461 7.9175 21.5183 7.86963 21.6331 7.86963C21.8435 7.86963 22.0636 7.86963 22.274 7.86963C22.3888 7.86963 22.4462 7.9175 22.4748 8.03228C22.5227 8.23315 22.5705 8.43402 22.6279 8.63489C22.6279 8.67315 22.6566 8.68267 22.6853 8.7018C22.7809 8.74006 22.867 8.77837 22.9627 8.81663C23.0009 8.83576 23.0201 8.83576 23.0583 8.81663C23.2018 8.72098 23.3549 8.63487 23.508 8.54878C23.6227 8.48182 23.6896 8.49142 23.7853 8.5775C23.9288 8.72098 24.0723 8.86441 24.2158 9.00789C24.3114 9.10354 24.3209 9.17053 24.254 9.27575C24.1679 9.42879 24.0723 9.58181 23.9862 9.73486C23.9767 9.75399 23.9767 9.79227 23.9862 9.8114C24.0245 9.90705 24.0627 10.0027 24.101 10.0983C24.1106 10.1366 24.1296 10.1462 24.1679 10.1557C24.3592 10.2036 24.5601 10.2514 24.7514 10.2992C24.8375 10.3184 24.8949 10.3566 24.9236 10.4427V11.2079C24.8949 11.294 24.8279 11.3323 24.7514 11.3514C24.5601 11.3992 24.3592 11.4471 24.1679 11.4949C24.1296 11.4949 24.1106 11.514 24.101 11.5523C24.0627 11.6479 24.0245 11.734 23.9862 11.8296C23.9671 11.8583 23.9767 11.8871 23.9862 11.9158C24.0819 12.0688 24.1679 12.2122 24.254 12.3653C24.3209 12.4705 24.3114 12.5375 24.2254 12.6331C24.0819 12.7766 23.9288 12.9296 23.7853 13.0731C23.6992 13.1592 23.6226 13.1688 23.5174 13.1018C23.3739 13.0157 23.2209 12.9296 23.0775 12.834C23.0488 12.8148 23.0297 12.8148 22.9914 12.834C22.8958 12.8818 22.7905 12.9201 22.6948 12.9583C22.6566 12.9679 22.6471 12.987 22.6375 13.0253C22.5897 13.2166 22.5418 13.4175 22.494 13.6088C22.4749 13.6948 22.4366 13.7522 22.3505 13.7809V13.7714ZM23.1827 10.8157C23.1827 10.1462 22.6374 9.60093 21.9679 9.60093C21.2983 9.60093 20.7532 10.1462 20.7532 10.8157C20.7532 11.4853 21.2983 12.0305 21.9679 12.0305C22.6374 12.0305 23.1827 11.4853 23.1827 10.8157Z" fill="white"/>
</svg>
