<svg width="32" height="32" viewBox="0 0 32 32" fill="none" xmlns="http://www.w3.org/2000/svg">
<path d="M24.4542 21.5242C24.3099 21.5242 24.2467 21.4881 24.1926 21.3438C23.8409 20.3968 22.9481 19.7745 21.947 19.7655C20.9459 19.7655 20.0531 20.3788 19.6923 21.3257C19.6382 21.47 19.5843 21.5242 19.422 21.5242C16.8968 21.5242 14.3714 21.5242 11.8462 21.5242C11.7831 21.5242 11.7199 21.5241 11.6298 21.5151V21.2716C11.6298 17.3485 11.6298 13.4345 11.6298 9.51136C11.6298 9.43921 11.6388 9.36707 11.6478 9.29492C13.0006 9.29492 14.3624 9.29492 15.7152 9.29492C15.7152 9.38511 15.7242 9.46626 15.7242 9.55644C15.7242 11.5766 15.7242 13.5878 15.7242 15.6079C15.7242 15.6891 15.7242 15.7793 15.7242 15.8966C15.9497 15.8154 16.1481 15.7432 16.3374 15.6801C17.1311 15.3915 17.9158 15.0939 18.7095 14.8143C18.8087 14.7782 18.9529 14.7782 19.0521 14.8143C19.9629 15.139 20.8739 15.4817 21.7938 15.8154C21.8659 15.8424 21.9381 15.8605 22.0373 15.8966V9.30395C23.4081 9.30395 24.779 9.30395 26.1498 9.30395C26.1498 13.3894 26.1498 17.4658 26.1498 21.5512C25.5816 21.5512 25.0133 21.5331 24.4452 21.5422L24.4542 21.5242ZM13.1809 19.8828C14.3443 19.8828 15.4988 19.8828 16.6712 19.8828C16.6712 19.4679 16.6712 19.044 16.6712 18.6201H13.1809V19.8828Z" fill="#0671B8"/>
<path d="M15.7242 9.28516C15.7242 9.37534 15.7333 9.45649 15.7333 9.54668C15.7333 11.5668 15.7333 13.578 15.7333 15.5982C15.7333 15.6794 15.7333 15.7695 15.7333 15.8868C15.9587 15.8056 16.1571 15.7335 16.3465 15.6703C17.1401 15.3818 17.9248 15.0841 18.7185 14.8045C18.8177 14.7685 18.9619 14.7685 19.0611 14.8045C19.972 15.1292 20.8829 15.4719 21.8028 15.8056C21.8749 15.8326 21.9471 15.8507 22.0463 15.8868V9.29418H20.7477C20.7477 10.8634 20.7477 12.4327 20.7477 14.029C20.6575 14.0019 20.5763 13.9748 20.5041 13.9478C20.0171 13.7674 19.53 13.587 19.043 13.4157C18.9528 13.3796 18.8267 13.3796 18.7365 13.4157C18.3217 13.56 17.9157 13.7133 17.5009 13.8666C17.3566 13.9207 17.2033 13.9658 17.0319 14.029C17.0319 13.9207 17.0319 13.8395 17.0319 13.7674C17.0319 12.604 17.0319 11.4316 17.0319 10.2682C17.0319 9.94348 17.0319 9.61885 17.0229 9.29418C16.59 9.29418 16.1571 9.29418 15.7242 9.29418V9.28516Z" fill="white"/>
<path d="M17.0228 9.28516C17.0228 9.60983 17.0319 9.93451 17.0319 10.2592C17.0319 11.4226 17.0319 12.595 17.0319 13.7584C17.0319 13.8396 17.0319 13.9117 17.0319 14.0199C17.2122 13.9568 17.3565 13.9117 17.5008 13.8576C17.9157 13.7043 18.3216 13.5419 18.7365 13.4067C18.8267 13.3796 18.9528 13.3796 19.043 13.4067C19.53 13.578 20.0171 13.7584 20.5041 13.9387C20.5763 13.9658 20.6484 13.9839 20.7476 14.0199C20.7476 12.4236 20.7476 10.8544 20.7476 9.28516C19.5031 9.28516 18.2674 9.28516 17.0228 9.28516Z" fill="#0671B8"/>
<path d="M13.1719 18.6108V19.8735C14.3353 19.8735 15.4898 19.8735 16.6622 19.8735C16.6622 19.4586 16.6622 19.0347 16.6622 18.6108H13.1719Z" fill="white"/>
<path d="M10.3221 20.0083V17.1313C8.2117 17.1313 6.11937 17.1313 4 17.1313C4 18.5833 4 20.0263 4 21.4963C4.06313 21.4963 4.1172 21.5054 4.18033 21.5054C5.02808 21.5054 5.86686 21.5054 6.71461 21.5054C6.83185 21.5054 6.90402 21.5054 6.95813 21.3611C7.49925 19.9722 8.86096 19.404 10.2408 19.9722C10.2498 19.9722 10.2679 19.9722 10.313 19.9902L10.3221 20.0083Z" fill="#0671B8"/>
<path d="M10.3221 15.815V12.2256C10.2499 12.2256 10.1868 12.2075 10.1237 12.2075C9.02343 12.2075 7.91399 12.2075 6.81372 12.2075C6.72354 12.2075 6.59747 12.2707 6.5614 12.3338C5.885 13.4521 5.22645 14.5704 4.55907 15.6887C4.54103 15.7157 4.53218 15.7518 4.50513 15.7969C6.45315 15.7969 8.38309 15.7969 10.3311 15.7969L10.3221 15.815Z" fill="#0671B8"/>
<path d="M9.27607 24.0491C10.2591 24.0491 11.0617 23.2465 11.0617 22.2634C11.0617 21.2804 10.2679 20.4778 9.28488 20.4688C8.29283 20.4688 7.47213 21.2804 7.48115 22.2725C7.48115 23.2555 8.29304 24.0401 9.27607 24.0401V24.0491Z" fill="#0671B8"/>
<path d="M22.5574 24.0486C23.4013 24.0486 24.0903 23.3596 24.0903 22.5157C24.0903 21.6719 23.409 20.9828 22.5652 20.9751C21.7136 20.9751 21.009 21.6719 21.0168 22.5235C21.0168 23.3674 21.7136 24.0409 22.5574 24.0409V24.0486Z" fill="#0671B8"/>
<path d="M23.4323 18.0647C25.9978 18.0647 28.0772 15.985 28.0772 13.4195C28.0772 10.8541 25.9978 8.77441 23.4323 8.77441C20.8669 8.77441 18.7871 10.8541 18.7871 13.4195C18.7871 15.985 20.8669 18.0647 23.4323 18.0647Z" fill="#FFB422" stroke="white" stroke-miterlimit="10"/>
<path d="M23.454 15.9809H23.3888C23.3888 15.9809 23.3562 15.9484 23.3345 15.9267C22.9655 15.5576 22.6291 15.167 22.3252 14.7546C22.0539 14.3747 21.815 13.9839 21.6522 13.5498C21.5111 13.1808 21.457 12.8118 21.533 12.4211C21.7392 11.39 22.7049 10.728 23.7468 10.8908C24.4957 11.021 25.1253 11.6071 25.2881 12.3451C25.3098 12.4428 25.3207 12.5514 25.3424 12.649V12.9095C25.3424 12.9095 25.3424 12.9746 25.3316 13.0071C25.2882 13.311 25.1905 13.6041 25.0494 13.8754C24.8649 14.2661 24.626 14.6243 24.3655 14.9607C24.0833 15.3189 23.7905 15.6662 23.454 15.9809ZM24.3003 12.7793C24.3003 12.2909 23.9098 11.9002 23.4214 11.9002C22.933 11.9002 22.5314 12.2908 22.5422 12.7901C22.5422 13.2676 22.9439 13.6692 23.4323 13.6692C23.9098 13.6692 24.3003 13.2676 24.3003 12.7901V12.7793Z" fill="white"/>
</svg>
