<svg width="59" height="27" viewBox="0 0 59 27" fill="none" xmlns="http://www.w3.org/2000/svg">
<path d="M2.87305 9.46289H0.179865V0.735618H2.99237C3.83896 0.735618 4.56339 0.910334 5.16566 1.25977C5.76793 1.60636 6.22958 2.10494 6.5506 2.7555C6.87163 3.40323 7.03214 4.1788 7.03214 5.08221C7.03214 5.9913 6.87021 6.77397 6.54634 7.43022C6.22248 8.08363 5.75089 8.58647 5.13157 8.93874C4.51225 9.28817 3.75941 9.46289 2.87305 9.46289ZM1.23668 8.52539H2.80487C3.52646 8.52539 4.12447 8.38619 4.5989 8.10778C5.07333 7.82937 5.42702 7.43306 5.65998 6.91886C5.89293 6.40465 6.00941 5.79244 6.00941 5.08221C6.00941 4.37766 5.89435 3.77113 5.66424 3.26261C5.43413 2.75124 5.09038 2.3592 4.63299 2.08647C4.1756 1.8109 3.606 1.67312 2.92418 1.67312H1.23668V8.52539ZM8.6685 9.46289V2.91744H9.67418V9.46289H8.6685ZM9.17987 1.82653C8.98384 1.82653 8.81481 1.75977 8.67276 1.62624C8.53356 1.49272 8.46396 1.33221 8.46396 1.14471C8.46396 0.957209 8.53356 0.796697 8.67276 0.663174C8.81481 0.529652 8.98384 0.462891 9.17987 0.462891C9.37589 0.462891 9.5435 0.529652 9.68271 0.663174C9.82475 0.796697 9.89577 0.957209 9.89577 1.14471C9.89577 1.33221 9.82475 1.49272 9.68271 1.62624C9.5435 1.75977 9.37589 1.82653 9.17987 1.82653ZM16.1525 4.38335L15.2491 4.63903C15.1923 4.48846 15.1085 4.34215 14.9977 4.20011C14.8897 4.05522 14.742 3.9359 14.5545 3.84215C14.367 3.7484 14.127 3.70153 13.8343 3.70153C13.4338 3.70153 13.1 3.79386 12.8329 3.97852C12.5687 4.16033 12.4366 4.39187 12.4366 4.67312C12.4366 4.92312 12.5275 5.12056 12.7093 5.26545C12.8912 5.41033 13.1752 5.53107 13.5616 5.62766L14.5332 5.8663C15.1184 6.00835 15.5545 6.22567 15.8414 6.51829C16.1284 6.80806 16.2718 7.18164 16.2718 7.63903C16.2718 8.01403 16.1639 8.34925 15.948 8.64471C15.7349 8.94016 15.4366 9.17312 15.0531 9.34357C14.6696 9.51403 14.2235 9.59925 13.715 9.59925C13.0474 9.59925 12.4949 9.45437 12.0574 9.1646C11.6199 8.87482 11.3429 8.45153 11.2264 7.89471L12.1809 7.65607C12.2718 8.00835 12.4437 8.27255 12.6966 8.44869C12.9522 8.62482 13.286 8.71289 13.698 8.71289C14.1667 8.71289 14.5389 8.61346 14.8145 8.4146C15.0929 8.21289 15.2321 7.97141 15.2321 7.69016C15.2321 7.46289 15.1525 7.27255 14.9934 7.11914C14.8343 6.96289 14.59 6.84641 14.2605 6.76971L13.1696 6.51403C12.5701 6.37198 12.1298 6.15181 11.8485 5.85352C11.5701 5.55238 11.4309 5.17596 11.4309 4.72425C11.4309 4.35494 11.5346 4.02823 11.742 3.74414C11.9522 3.46005 12.2377 3.23704 12.5985 3.07511C12.9622 2.91317 13.3741 2.83221 13.8343 2.83221C14.4821 2.83221 14.9906 2.97425 15.3599 3.25834C15.7321 3.54244 15.9963 3.91744 16.1525 4.38335ZM20.6323 2.91744V3.76971H17.2402V2.91744H20.6323ZM18.2289 1.34925H19.2346V7.58789C19.2346 7.87198 19.2757 8.08505 19.3581 8.2271C19.4434 8.3663 19.5513 8.46005 19.682 8.50835C19.8155 8.5538 19.9561 8.57653 20.1039 8.57653C20.2147 8.57653 20.3056 8.57085 20.3766 8.55948C20.4476 8.54528 20.5044 8.53391 20.5471 8.52539L20.7516 9.4288C20.6834 9.45437 20.5882 9.47994 20.4661 9.5055C20.3439 9.53391 20.1891 9.54812 20.0016 9.54812C19.7175 9.54812 19.4391 9.48704 19.1664 9.36488C18.8965 9.24272 18.6721 9.05664 18.4931 8.80664C18.3169 8.55664 18.2289 8.2413 18.2289 7.86062V1.34925ZM22.1451 9.46289V2.91744H23.1167V3.90607H23.1848C23.3042 3.58221 23.5201 3.31942 23.8326 3.11772C24.1451 2.91602 24.4973 2.81516 24.8894 2.81516C24.9632 2.81516 25.0556 2.81658 25.1664 2.81942C25.2772 2.82227 25.361 2.82653 25.4178 2.83221V3.85494C25.3837 3.84641 25.3056 3.83363 25.1834 3.81658C25.0641 3.7967 24.9377 3.78675 24.8042 3.78675C24.486 3.78675 24.2019 3.85352 23.9519 3.98704C23.7047 4.11772 23.5087 4.29954 23.3638 4.53249C23.2218 4.76261 23.1507 5.02539 23.1507 5.32085V9.46289H22.1451ZM26.6099 9.46289V2.91744H27.6156V9.46289H26.6099ZM27.1213 1.82653C26.9252 1.82653 26.7562 1.75977 26.6142 1.62624C26.475 1.49272 26.4054 1.33221 26.4054 1.14471C26.4054 0.957209 26.475 0.796697 26.6142 0.663174C26.7562 0.529652 26.9252 0.462891 27.1213 0.462891C27.3173 0.462891 27.4849 0.529652 27.6241 0.663174C27.7662 0.796697 27.8372 0.957209 27.8372 1.14471C27.8372 1.33221 27.7662 1.49272 27.6241 1.62624C27.4849 1.75977 27.3173 1.82653 27.1213 1.82653ZM29.5939 9.46289V0.735618H30.5996V3.95721H30.6848C30.7587 3.84357 30.861 3.69869 30.9917 3.52255C31.1252 3.34357 31.3155 3.18448 31.5627 3.04528C31.8127 2.90323 32.1507 2.83221 32.5769 2.83221C33.128 2.83221 33.6138 2.96999 34.0343 3.24556C34.4547 3.52113 34.7828 3.91175 35.0186 4.41744C35.2544 4.92312 35.3723 5.51971 35.3723 6.20721C35.3723 6.90039 35.2544 7.50124 35.0186 8.00977C34.7828 8.51545 34.4561 8.90749 34.0385 9.1859C33.6209 9.46147 33.1394 9.59925 32.5939 9.59925C32.1735 9.59925 31.8368 9.52965 31.584 9.39045C31.3311 9.2484 31.1365 9.08789 31.0002 8.90891C30.8638 8.7271 30.7587 8.57653 30.6848 8.45721H30.5655V9.46289H29.5939ZM30.5826 6.19016C30.5826 6.68448 30.655 7.12056 30.7999 7.4984C30.9448 7.8734 31.1564 8.16744 31.4348 8.3805C31.7132 8.59073 32.0542 8.69585 32.4576 8.69585C32.878 8.69585 33.2289 8.58505 33.5101 8.36346C33.7942 8.13903 34.0073 7.83789 34.1493 7.46005C34.2942 7.07937 34.3667 6.65607 34.3667 6.19016C34.3667 5.72994 34.2956 5.31516 34.1536 4.94585C34.0144 4.57369 33.8027 4.27965 33.5186 4.06374C33.2374 3.84499 32.8837 3.73562 32.4576 3.73562C32.0485 3.73562 31.7047 3.83931 31.4263 4.0467C31.1479 4.25124 30.9377 4.53817 30.7956 4.90749C30.6536 5.27397 30.5826 5.70153 30.5826 6.19016ZM41.0357 6.78675V2.91744H42.0414V9.46289H41.0357V8.35494H40.9675C40.8141 8.68732 40.5755 8.96999 40.2516 9.20295C39.9277 9.43306 39.5186 9.54812 39.0243 9.54812C38.6152 9.54812 38.2516 9.45863 37.9334 9.27965C37.6152 9.09783 37.3652 8.82511 37.1834 8.46147C37.0016 8.09499 36.9107 7.63335 36.9107 7.07653V2.91744H37.9164V7.00835C37.9164 7.48562 38.0499 7.8663 38.3169 8.15039C38.5868 8.43448 38.9306 8.57653 39.3482 8.57653C39.5982 8.57653 39.8525 8.51261 40.111 8.38477C40.3723 8.25692 40.5911 8.0609 40.7672 7.7967C40.9462 7.53249 41.0357 7.19585 41.0357 6.78675ZM46.7299 2.91744V3.76971H43.3379V2.91744H46.7299ZM44.3265 1.34925H45.3322V7.58789C45.3322 7.87198 45.3734 8.08505 45.4558 8.2271C45.541 8.3663 45.649 8.46005 45.7797 8.50835C45.9132 8.5538 46.0538 8.57653 46.2015 8.57653C46.3123 8.57653 46.4032 8.57085 46.4743 8.55948C46.5453 8.54528 46.6021 8.53391 46.6447 8.52539L46.8493 9.4288C46.7811 9.45437 46.6859 9.47994 46.5637 9.5055C46.4416 9.53391 46.2868 9.54812 46.0993 9.54812C45.8152 9.54812 45.5368 9.48704 45.264 9.36488C44.9941 9.24272 44.7697 9.05664 44.5907 8.80664C44.4146 8.55664 44.3265 8.2413 44.3265 7.86062V1.34925ZM50.8315 9.59925C50.2406 9.59925 49.7221 9.45863 49.2761 9.17738C48.8329 8.89613 48.4863 8.50266 48.2363 7.99698C47.9892 7.4913 47.8656 6.90039 47.8656 6.22425C47.8656 5.54244 47.9892 4.94727 48.2363 4.43874C48.4863 3.93022 48.8329 3.53533 49.2761 3.25408C49.7221 2.97283 50.2406 2.83221 50.8315 2.83221C51.4224 2.83221 51.9395 2.97283 52.3826 3.25408C52.8287 3.53533 53.1752 3.93022 53.4224 4.43874C53.6724 4.94727 53.7974 5.54244 53.7974 6.22425C53.7974 6.90039 53.6724 7.4913 53.4224 7.99698C53.1752 8.50266 52.8287 8.89613 52.3826 9.17738C51.9395 9.45863 51.4224 9.59925 50.8315 9.59925ZM50.8315 8.69585C51.2804 8.69585 51.6497 8.58079 51.9395 8.35067C52.2292 8.12056 52.4437 7.818 52.5829 7.443C52.7221 7.068 52.7917 6.66175 52.7917 6.22425C52.7917 5.78675 52.7221 5.37908 52.5829 5.00124C52.4437 4.6234 52.2292 4.318 51.9395 4.08505C51.6497 3.85209 51.2804 3.73562 50.8315 3.73562C50.3826 3.73562 50.0133 3.85209 49.7235 4.08505C49.4338 4.318 49.2193 4.6234 49.0801 5.00124C48.9409 5.37908 48.8713 5.78675 48.8713 6.22425C48.8713 6.66175 48.9409 7.068 49.0801 7.443C49.2193 7.818 49.4338 8.12056 49.7235 8.35067C50.0133 8.58079 50.3826 8.69585 50.8315 8.69585ZM55.3326 9.46289V2.91744H56.3042V3.90607H56.3723C56.4917 3.58221 56.7076 3.31942 57.0201 3.11772C57.3326 2.91602 57.6848 2.81516 58.0769 2.81516C58.1507 2.81516 58.2431 2.81658 58.3539 2.81942C58.4647 2.82227 58.5485 2.82653 58.6053 2.83221V3.85494C58.5712 3.84641 58.4931 3.83363 58.3709 3.81658C58.2516 3.7967 58.1252 3.78675 57.9917 3.78675C57.6735 3.78675 57.3894 3.85352 57.1394 3.98704C56.8922 4.11772 56.6962 4.29954 56.5513 4.53249C56.4093 4.76261 56.3382 5.02539 56.3382 5.32085V9.46289H55.3326ZM7.51634 24.4629H6.40838L9.61293 15.7356H10.7038L13.9084 24.4629H12.8004L10.1925 17.1163H10.1243L7.51634 24.4629ZM7.92543 21.0538H12.3913V21.9913H7.92543V21.0538ZM17.603 24.5993C17.0575 24.5993 16.576 24.4615 16.1584 24.1859C15.7408 23.9075 15.4141 23.5154 15.1783 23.0098C14.9425 22.5012 14.8246 21.9004 14.8246 21.2072C14.8246 20.5197 14.9425 19.9231 15.1783 19.4174C15.4141 18.9118 15.7422 18.5211 16.1626 18.2456C16.5831 17.97 17.0689 17.8322 17.62 17.8322C18.0462 17.8322 18.3828 17.9032 18.63 18.0453C18.88 18.1845 19.0703 18.3436 19.201 18.5225C19.3345 18.6987 19.4382 18.8436 19.5121 18.9572H19.5973V15.7356H20.603V24.4629H19.6314V23.4572H19.5121C19.4382 23.5765 19.3331 23.7271 19.1967 23.9089C19.0604 24.0879 18.8658 24.2484 18.6129 24.3904C18.3601 24.5297 18.0234 24.5993 17.603 24.5993ZM17.7393 23.6958C18.1428 23.6958 18.4837 23.5907 18.7621 23.3805C19.0405 23.1674 19.2521 22.8734 19.397 22.4984C19.5419 22.1206 19.6143 21.6845 19.6143 21.1902C19.6143 20.7015 19.5433 20.274 19.4013 19.9075C19.2592 19.5382 19.049 19.2512 18.7706 19.0467C18.4922 18.8393 18.1484 18.7356 17.7393 18.7356C17.3132 18.7356 16.9581 18.845 16.674 19.0637C16.3928 19.2797 16.1811 19.5737 16.0391 19.9458C15.8999 20.3152 15.8303 20.7299 15.8303 21.1902C15.8303 21.6561 15.9013 22.0794 16.0433 22.46C16.1882 22.8379 16.4013 23.139 16.6825 23.3635C16.9666 23.585 17.3189 23.6958 17.7393 23.6958ZM22.5845 17.9174H23.5902V24.9402C23.5902 25.3436 23.5206 25.693 23.3814 25.9885C23.245 26.2839 23.0376 26.5126 22.7592 26.6745C22.4837 26.8365 22.1357 26.9174 21.7152 26.9174C21.6811 26.9174 21.647 26.9174 21.6129 26.9174C21.5788 26.9174 21.5447 26.9174 21.5107 26.9174V25.9799C21.5447 25.9799 21.576 25.9799 21.6044 25.9799C21.6328 25.9799 21.6641 25.9799 21.6982 25.9799C22.005 25.9799 22.2294 25.889 22.3714 25.7072C22.5135 25.5282 22.5845 25.2725 22.5845 24.9402V17.9174ZM23.0788 16.8265C22.8828 16.8265 22.7138 16.7598 22.5717 16.6262C22.4325 16.4927 22.3629 16.3322 22.3629 16.1447C22.3629 15.9572 22.4325 15.7967 22.5717 15.6632C22.7138 15.5297 22.8828 15.4629 23.0788 15.4629C23.2749 15.4629 23.4425 15.5297 23.5817 15.6632C23.7237 15.7967 23.7947 15.9572 23.7947 16.1447C23.7947 16.3322 23.7237 16.4927 23.5817 16.6262C23.4425 16.7598 23.2749 16.8265 23.0788 16.8265ZM28.1765 24.5993C27.5458 24.5993 27.0018 24.46 26.5444 24.1816C26.0898 23.9004 25.739 23.5083 25.4918 23.0055C25.2475 22.4998 25.1254 21.9118 25.1254 21.2413C25.1254 20.5708 25.2475 19.9799 25.4918 19.4686C25.739 18.9544 26.0827 18.5538 26.5231 18.2669C26.9663 17.9771 27.4833 17.8322 28.0742 17.8322C28.4151 17.8322 28.7518 17.889 29.0842 18.0027C29.4165 18.1163 29.7191 18.301 29.9918 18.5566C30.2646 18.8095 30.4819 19.1447 30.6438 19.5623C30.8058 19.9799 30.8867 20.4941 30.8867 21.1049V21.5311H25.8413V20.6618H29.864C29.864 20.2924 29.7901 19.9629 29.6424 19.6731C29.4975 19.3833 29.2901 19.1547 29.0202 18.987C28.7532 18.8194 28.4379 18.7356 28.0742 18.7356C27.6737 18.7356 27.3271 18.835 27.0344 19.0339C26.7447 19.2299 26.5217 19.4856 26.3654 19.801C26.2092 20.1163 26.131 20.4544 26.131 20.8152V21.3947C26.131 21.889 26.2163 22.3081 26.3867 22.6518C26.56 22.9927 26.8001 23.2527 27.1069 23.4316C27.4137 23.6078 27.7702 23.6958 28.1765 23.6958C28.4407 23.6958 28.6793 23.6589 28.8924 23.585C29.1083 23.5083 29.2944 23.3947 29.4506 23.2441C29.6069 23.0907 29.7276 22.9004 29.8129 22.6731L30.7844 22.9458C30.6822 23.2754 30.5103 23.5652 30.2688 23.8152C30.0273 24.0623 29.729 24.2555 29.3739 24.3947C29.0188 24.5311 28.6197 24.5993 28.1765 24.5993ZM33.4222 20.5254V24.4629H32.4165V17.9174H33.3881V18.9402H33.4734C33.6268 18.6078 33.8597 18.3407 34.1722 18.139C34.4847 17.9345 34.8881 17.8322 35.3825 17.8322C35.8256 17.8322 36.2134 17.9231 36.5458 18.1049C36.8782 18.2839 37.1367 18.5566 37.3214 18.9231C37.506 19.2868 37.5984 19.747 37.5984 20.3038V24.4629H36.5927V20.372C36.5927 19.8578 36.4592 19.4572 36.1921 19.1703C35.9251 18.8805 35.5586 18.7356 35.0927 18.7356C34.7717 18.7356 34.4847 18.8052 34.2319 18.9444C33.9819 19.0836 33.7844 19.2868 33.6396 19.5538C33.4947 19.8208 33.4222 20.1447 33.4222 20.5254ZM42.0952 24.5993C41.4815 24.5993 40.9531 24.4544 40.5099 24.1646C40.0668 23.8748 39.7259 23.4757 39.4872 22.9672C39.2486 22.4586 39.1293 21.8777 39.1293 21.2243C39.1293 20.5595 39.2514 19.9728 39.4957 19.4643C39.7429 18.9529 40.0866 18.5538 40.527 18.2669C40.9702 17.9771 41.4872 17.8322 42.0781 17.8322C42.5384 17.8322 42.9531 17.9174 43.3224 18.0879C43.6918 18.2583 43.9943 18.497 44.2301 18.8038C44.4659 19.1106 44.6122 19.4686 44.669 19.8777H43.6634C43.5866 19.5794 43.4162 19.3152 43.152 19.085C42.8906 18.8521 42.5384 18.7356 42.0952 18.7356C41.7031 18.7356 41.3594 18.8379 41.0639 19.0424C40.7713 19.2441 40.5426 19.5297 40.3778 19.899C40.2159 20.2654 40.1349 20.6958 40.1349 21.1902C40.1349 21.6958 40.2145 22.1362 40.3736 22.5112C40.5355 22.8862 40.7628 23.1774 41.0554 23.3848C41.3509 23.5922 41.6974 23.6958 42.0952 23.6958C42.3565 23.6958 42.5938 23.6504 42.8068 23.5595C43.0199 23.4686 43.2003 23.3379 43.348 23.1674C43.4957 22.997 43.6009 22.7924 43.6634 22.5538H44.669C44.6122 22.9402 44.4716 23.2882 44.2472 23.5978C44.0256 23.9047 43.7315 24.149 43.3651 24.3308C43.0014 24.5098 42.5781 24.5993 42.0952 24.5993ZM46.7869 26.9174C46.6165 26.9174 46.4645 26.9032 46.331 26.8748C46.1974 26.8493 46.1051 26.8237 46.054 26.7981L46.3097 25.9118C46.554 25.9743 46.7699 25.997 46.9574 25.9799C47.1449 25.9629 47.3111 25.8791 47.456 25.7285C47.6037 25.5808 47.7386 25.3407 47.8608 25.0083L48.0483 24.497L45.6278 17.9174H46.7188L48.5256 23.1333H48.5938L50.4006 17.9174H51.4915L48.7131 25.4174C48.5881 25.7555 48.4332 26.0353 48.2486 26.2569C48.0639 26.4814 47.8494 26.6475 47.6051 26.7555C47.3636 26.8635 47.0909 26.9174 46.7869 26.9174Z" fill="black"/>
</svg>
