<svg width="32" height="32" viewBox="0 0 32 32" fill="none" xmlns="http://www.w3.org/2000/svg">
<path d="M26.0155 20.8757C25.9537 21.208 25.915 21.5481 25.8223 21.8727C25.1885 24.0446 23.7587 25.4127 21.5481 25.8842C18.5647 26.5102 15.6431 24.5316 15.0479 21.5404C14.4528 18.5415 16.416 15.6199 19.4072 15.0324C22.3983 14.445 25.3122 16.4005 25.8997 19.3917C25.946 19.6081 25.9691 19.8322 26.0078 20.0564V20.8757H26.0155ZM21.0921 19.8477C21.0921 19.7472 21.0921 19.6776 21.0921 19.6003C21.0921 19.067 21.0921 18.5338 21.0921 18.0005C21.0921 17.6449 20.8139 17.3898 20.4815 17.3821C20.1492 17.3821 19.8709 17.6449 19.8709 17.9927C19.8709 18.812 19.8709 19.6313 19.8709 20.4506C19.8709 20.8061 20.126 21.0612 20.4815 21.0689C21.3085 21.0689 22.1355 21.0689 22.9625 21.0689C23.2253 21.0689 23.4185 20.9221 23.519 20.6824C23.6813 20.2805 23.3876 19.8477 22.9393 19.8477C22.3365 19.84 21.7413 19.8477 21.1075 19.8477H21.0921Z" fill="#FFB422"/>
<path d="M9.52159 5C9.86941 5.15458 10.0085 5.42509 9.97759 5.80381C9.96213 5.9584 9.97759 6.1207 9.97759 6.27528C9.56794 6.27528 9.15059 6.27528 8.74094 6.27528C8.74094 6.1207 8.74867 5.96613 8.74094 5.81155C8.71003 5.43282 8.84912 5.16232 9.19694 5.00774H9.52159V5Z" fill="#0671B8"/>
<path d="M13.2161 5C13.5639 5.15458 13.703 5.42509 13.6721 5.80381C13.6566 5.9584 13.6721 6.1207 13.6721 6.27528C13.2625 6.27528 12.8451 6.27528 12.4355 6.27528C12.4355 6.1207 12.4432 5.96613 12.4355 5.81155C12.4045 5.43282 12.5436 5.16232 12.8915 5.00774H13.2161V5Z" fill="#0671B8"/>
<path d="M16.9106 5C17.2584 5.15458 17.3975 5.42509 17.3666 5.80381C17.3512 5.9584 17.3666 6.1207 17.3666 6.27528C16.957 6.27528 16.5396 6.27528 16.13 6.27528C16.13 6.1207 16.1377 5.96613 16.13 5.81155C16.0991 5.43282 16.2382 5.16232 16.586 5.00774H16.9106V5Z" fill="#0671B8"/>
<path d="M19.8245 6.27528C19.8245 6.1207 19.8322 5.9584 19.8245 5.80381C19.7936 5.42509 19.9328 5.15458 20.2806 5H20.6051C20.953 5.15458 21.0922 5.42509 21.0612 5.80381C21.0458 5.9584 21.0612 6.1207 21.0612 6.27528C20.6516 6.27528 20.2341 6.27528 19.8245 6.27528Z" fill="#0671B8"/>
<path d="M20.6206 13.6568C21.007 13.3863 21.1153 13.1544 21.0148 12.8529C20.9143 12.5515 20.6901 12.4278 20.2419 12.4278C19.9095 12.4278 19.5695 12.4278 19.2371 12.4278C18.8584 12.4278 18.5878 12.6983 18.5878 13.0462C18.5878 13.3862 18.8584 13.6491 19.2294 13.6568C19.4458 13.6568 19.6699 13.6568 19.8863 13.6722C18.4642 13.8113 17.1966 14.3369 16.0758 15.2567C15.8903 14.9011 15.5735 14.878 15.2334 14.8857C14.9319 14.8934 14.6305 14.8857 14.329 14.8857C13.9426 14.8857 13.6721 15.1407 13.6643 15.4963C13.6643 15.8518 13.9349 16.1146 14.329 16.1223C14.5996 16.1223 14.8779 16.1223 15.1484 16.1223L15.1561 16.1301C14.9242 16.5165 14.6923 16.8953 14.4527 17.274C14.4218 17.3204 14.3445 17.3358 14.2827 17.3436C14.0045 17.359 13.7958 17.4827 13.6953 17.7532C13.5948 18.016 13.6798 18.2324 13.873 18.4257C13.9194 18.472 13.9272 18.588 13.9117 18.6575C13.7494 19.2836 13.6412 19.9097 13.6566 20.5589C13.6798 21.5173 13.8885 22.4216 14.2982 23.2873C14.3291 23.3491 14.3523 23.411 14.3909 23.496C14.3136 23.496 14.2518 23.5037 14.19 23.5037C11.3766 23.5037 8.55538 23.5037 5.74197 23.5037C5.23184 23.5037 5 23.2718 5 22.7694C5 18.9822 5 15.1949 5 11.4076C5 11.3458 5 11.2839 5 11.2144H24.7171V15.2026C23.5113 14.2365 22.1509 13.7263 20.6051 13.6645L20.6206 13.6568ZM9.96979 13.6568C10.1785 13.6568 10.3795 13.6568 10.5882 13.6568C10.9437 13.6413 11.2065 13.3785 11.2065 13.0462C11.2065 12.7138 10.9437 12.4433 10.5959 12.4356C10.1863 12.4278 9.77663 12.4278 9.36699 12.4356C9.01145 12.4356 8.74862 12.7138 8.74862 13.0462C8.74862 13.3785 9.01144 13.6491 9.35925 13.6568C9.56021 13.6568 9.76884 13.6568 9.97753 13.6568H9.96979ZM14.8779 13.6568C15.0866 13.6568 15.2875 13.6568 15.4962 13.6568C15.8594 13.6491 16.13 13.3785 16.1223 13.0384C16.1223 12.7061 15.8594 12.4356 15.5039 12.4278C15.102 12.4278 14.7001 12.4278 14.2905 12.4278C13.9272 12.4278 13.6566 12.7061 13.6643 13.0462C13.6643 13.3862 13.9349 13.6491 14.3059 13.6568C14.4992 13.6568 14.6924 13.6568 14.8779 13.6568ZM9.97753 14.8857C9.76884 14.8857 9.56794 14.8857 9.35925 14.8857C9.00371 14.8934 8.74088 15.1562 8.74088 15.4963C8.74088 15.8286 8.99597 16.1069 9.35151 16.1147C9.76116 16.1224 10.1708 16.1224 10.5804 16.1147C10.936 16.1147 11.1988 15.8441 11.1988 15.504C11.1988 15.1639 10.936 14.8934 10.5727 14.8857C10.3717 14.8857 10.1785 14.8857 9.97753 14.8857ZM9.95441 18.5725C10.1631 18.5725 10.3795 18.5725 10.5882 18.5725C10.9437 18.5571 11.1988 18.2943 11.1988 17.9542C11.1988 17.6218 10.936 17.3513 10.5804 17.3436C10.1708 17.3358 9.76116 17.3358 9.35151 17.3436C8.99597 17.3436 8.74088 17.6218 8.74088 17.9542C8.74088 18.2866 9.00371 18.5571 9.35925 18.5648C9.56021 18.5648 9.75345 18.5648 9.95441 18.5648V18.5725ZM9.96979 21.0304C10.1785 21.0304 10.3795 21.0304 10.5882 21.0304C10.9437 21.0149 11.2065 20.7522 11.2065 20.4198C11.2065 20.0874 10.9437 19.8092 10.5959 19.8092C10.1863 19.8014 9.77663 19.8014 9.36699 19.8092C9.01145 19.8092 8.74862 20.0874 8.74862 20.4198C8.74862 20.7522 9.01144 21.0227 9.35925 21.0381C9.56021 21.0381 9.76884 21.0381 9.97753 21.0381L9.96979 21.0304Z" fill="#0671B8"/>
<path d="M17.3589 6.27512C18.1782 6.27512 19.0052 6.27512 19.8245 6.27512C19.8245 6.87799 19.8245 7.47315 19.8245 8.07602C19.8245 8.35427 19.9328 8.57067 20.1956 8.68661C20.613 8.87211 21.0535 8.57844 21.0535 8.09923C21.0535 7.48863 21.0535 6.88572 21.0535 6.27512C22.066 6.27512 23.0785 6.27512 24.091 6.27512C24.4697 6.27512 24.7402 6.507 24.748 6.86254C24.7557 7.89052 24.748 8.91076 24.748 9.9542H5.03099C5.03099 9.89236 5.02325 9.8228 5.02325 9.76097C5.02325 8.8412 5.02325 7.92916 5.02325 7.00939C5.02325 6.507 5.24735 6.27512 5.74201 6.27512C6.7468 6.27512 7.75161 6.27512 8.7564 6.27512C8.7564 6.87026 8.7564 7.47314 8.7564 8.06828C8.7564 8.34653 8.86459 8.56298 9.12738 8.67892C9.54476 8.86442 9.98531 8.5707 9.98531 8.09149C9.98531 7.48089 9.98531 6.87798 9.98531 6.26738C10.8046 6.26738 11.6317 6.26738 12.451 6.26738C12.451 6.86252 12.451 7.4654 12.451 8.06055C12.451 8.3388 12.5591 8.55524 12.8219 8.67118C13.2393 8.85668 13.6799 8.56296 13.6799 8.08376C13.6799 7.47315 13.6799 6.87029 13.6799 6.25969C14.4992 6.25969 15.3262 6.25969 16.1455 6.25969C16.1455 6.85483 16.1455 7.45771 16.1455 8.05286C16.1455 8.33111 16.2537 8.54751 16.5165 8.66344C16.9339 8.84894 17.3744 8.55523 17.3744 8.07602C17.3744 7.46542 17.3744 6.86256 17.3744 6.25195L17.3589 6.27512Z" fill="#0671B8"/>
</svg>
