<svg width="19" height="10" viewBox="0 0 19 10" fill="none" xmlns="http://www.w3.org/2000/svg">
<path d="M0.0568182 9.46289V0.735618H3.00568C3.69034 0.735618 4.25 0.859197 4.68466 1.10636C5.12216 1.35067 5.44602 1.68164 5.65625 2.09925C5.86648 2.51687 5.97159 2.98278 5.97159 3.49698C5.97159 4.01119 5.86648 4.47852 5.65625 4.89897C5.44886 5.31942 5.12784 5.65465 4.69318 5.90465C4.25852 6.15181 3.7017 6.27539 3.02273 6.27539H0.909091V5.33789H2.98864C3.45739 5.33789 3.83381 5.25692 4.1179 5.09499C4.40199 4.93306 4.60795 4.71431 4.7358 4.43874C4.86648 4.16033 4.93182 3.84641 4.93182 3.49698C4.93182 3.14755 4.86648 2.83505 4.7358 2.55948C4.60795 2.28391 4.40057 2.068 4.11364 1.91175C3.8267 1.75266 3.44602 1.67312 2.97159 1.67312H1.11364V9.46289H0.0568182ZM9.85476 0.735618H10.9116V6.97425C10.9116 7.53107 10.8093 8.00408 10.6048 8.39329C10.4002 8.78249 10.1119 9.07795 9.7397 9.27965C9.36754 9.48136 8.92862 9.58221 8.42294 9.58221C7.94567 9.58221 7.52095 9.49556 7.14879 9.32227C6.77663 9.14613 6.48402 8.89613 6.27095 8.57227C6.05788 8.2484 5.95135 7.86346 5.95135 7.41744H6.99112C6.99112 7.6646 7.0522 7.8805 7.17436 8.06516C7.29936 8.24698 7.46982 8.38903 7.68572 8.4913C7.90163 8.59357 8.14737 8.64471 8.42294 8.64471C8.72692 8.64471 8.98544 8.58079 9.19851 8.45295C9.41158 8.32511 9.57351 8.13761 9.6843 7.89045C9.79794 7.64045 9.85476 7.33505 9.85476 6.97425V0.735618ZM13.0295 9.46289V0.735618H15.9783C16.663 0.735618 17.2227 0.859197 17.6573 1.10636C18.0948 1.35067 18.4187 1.68164 18.6289 2.09925C18.8391 2.51687 18.9442 2.98278 18.9442 3.49698C18.9442 4.01119 18.8391 4.47852 18.6289 4.89897C18.4215 5.31942 18.1005 5.65465 17.6658 5.90465C17.2312 6.15181 16.6744 6.27539 15.9954 6.27539H13.8817V5.33789H15.9613C16.43 5.33789 16.8065 5.25692 17.0906 5.09499C17.3746 4.93306 17.5806 4.71431 17.7085 4.43874C17.8391 4.16033 17.9045 3.84641 17.9045 3.49698C17.9045 3.14755 17.8391 2.83505 17.7085 2.55948C17.5806 2.28391 17.3732 2.068 17.0863 1.91175C16.7994 1.75266 16.4187 1.67312 15.9442 1.67312H14.0863V9.46289H13.0295Z" fill="black"/>
</svg>
