<svg width="32" height="32" viewBox="0 0 32 32" fill="none" xmlns="http://www.w3.org/2000/svg">
<path d="M13.3255 25.9924H5V5H19.4765V14.0788C18.9794 14.2186 18.8241 14.5836 18.8319 15.0419H17.0611C17.0611 14.9797 17.0611 14.9331 17.0611 14.8865C17.0534 14.405 16.7505 14.0944 16.269 14.0711C16.0826 14.0711 15.8962 14.0633 15.7176 14.0788C15.3526 14.1177 15.0885 14.3817 15.0419 14.739C15.0264 14.8399 15.0186 14.9409 15.0108 15.0496C14.8633 15.0496 14.7234 15.0496 14.5914 15.0496C13.7992 15.0341 13.2013 15.6321 13.2013 16.4631C13.2246 19.3599 13.2013 22.2645 13.2168 25.1614C13.2168 25.4332 13.2944 25.7128 13.3333 25.9846L13.3255 25.9924ZM7.15129 20.7811C7.23672 20.7811 7.30665 20.7811 7.38432 20.7811C8.06776 20.7811 8.7512 20.7811 9.43464 20.7811C9.90839 20.7811 10.3743 20.7811 10.8481 20.7811C11.0655 20.7811 11.1975 20.6336 11.1975 20.4317C11.1975 20.2375 11.0578 20.0977 10.8481 20.0822C10.817 20.0822 10.7937 20.0822 10.7627 20.0822C9.47344 20.0822 8.17647 20.0822 6.88726 20.0822C6.55331 20.0822 6.43675 20.2064 6.43675 20.5482C6.43675 21.7209 6.43675 22.9014 6.43675 24.0741C6.43675 24.4236 6.56109 24.5478 6.90281 24.5478C8.18425 24.5478 9.45789 24.5478 10.7393 24.5478C11.0888 24.5478 11.2053 24.4314 11.2053 24.0741C11.2053 23.4839 11.2053 22.9014 11.2053 22.3111C11.2053 22.2179 11.2597 22.1092 11.3296 22.0316C11.4694 21.884 11.6324 21.7597 11.78 21.6122C11.9276 21.4646 11.9354 21.2549 11.8111 21.1151C11.6791 20.9753 11.4849 20.9676 11.314 21.0996C11.2364 21.1617 11.1742 21.2239 11.0966 21.2938C10.615 21.7364 10.1258 22.1713 9.62103 22.6295C9.4424 22.4509 9.27929 22.2801 9.1162 22.1092C8.9298 21.9306 8.72006 21.9151 8.57249 22.0626C8.42493 22.2102 8.44052 22.4199 8.62691 22.6063C8.84437 22.8315 9.06958 23.0489 9.29481 23.2742C9.53556 23.5149 9.6831 23.5149 9.94715 23.2819C10.118 23.1266 10.2967 22.9713 10.4986 22.7926V23.8178H7.15906V20.7734L7.15129 20.7811ZM7.15129 7.12019C7.25225 7.12019 7.3222 7.12019 7.39987 7.12019C8.28523 7.12019 9.16276 7.12019 10.0481 7.12019C10.3277 7.12019 10.6074 7.12019 10.8869 7.12019C11.0733 7.12019 11.1975 6.98038 11.2053 6.80952C11.2131 6.62313 11.1277 6.49889 10.9413 6.44453C10.8869 6.42899 10.817 6.42898 10.7627 6.42898C9.48121 6.42898 8.19203 6.42898 6.91058 6.42898C6.56886 6.42898 6.4523 6.55323 6.4523 6.90271C6.4523 8.07543 6.4523 9.2404 6.4523 10.4131C6.4523 10.7781 6.56878 10.8946 6.92604 10.8946C8.19971 10.8946 9.46565 10.8946 10.7393 10.8946C11.1044 10.8946 11.2131 10.7859 11.2131 10.4209C11.2131 9.83064 11.2131 9.24815 11.2131 8.65791C11.2131 8.57248 11.2675 8.46378 11.3296 8.39388C11.4771 8.23856 11.6402 8.10653 11.7955 7.95897C11.9431 7.81141 11.9431 7.60171 11.8111 7.46191C11.6868 7.32989 11.4849 7.31434 11.3296 7.44637C11.2209 7.53956 11.1121 7.64052 11.0111 7.73372C10.5529 8.14533 10.1025 8.55698 9.6288 8.98413C9.45017 8.79774 9.28705 8.62684 9.1162 8.45598C8.9298 8.26959 8.72783 8.26183 8.58027 8.41716C8.44047 8.56472 8.44828 8.76664 8.61914 8.94526C8.8366 9.17049 9.06181 9.38798 9.28703 9.6132C9.53555 9.86173 9.69086 9.86947 9.94715 9.63648C10.118 9.48115 10.2967 9.32583 10.4831 9.15497V10.1801H7.14352V7.12797L7.15129 7.12019ZM7.15129 13.9546H7.38432C8.4716 13.9546 9.55885 13.9546 10.6461 13.9546C10.7005 13.9546 10.7548 13.9546 10.8092 13.9546C11.0577 13.9468 11.2053 13.807 11.1975 13.5973C11.1975 13.3876 11.05 13.2556 10.8014 13.2556C9.48115 13.2556 8.16089 13.2556 6.84062 13.2556C6.56103 13.2556 6.43675 13.3876 6.43675 13.675C6.43675 14.8788 6.43675 16.0825 6.43675 17.2863C6.43675 17.5814 6.56106 17.7057 6.87171 17.7057C8.16869 17.7057 9.47345 17.7057 10.7704 17.7057C11.0888 17.7057 11.2053 17.5892 11.2053 17.2708C11.2053 16.8669 11.2364 16.4631 11.2053 16.0593C11.1509 15.5311 11.2752 15.1273 11.7412 14.8244C11.9509 14.6846 11.9664 14.4438 11.8344 14.2885C11.6869 14.1176 11.485 14.1254 11.2753 14.3118C10.786 14.7545 10.3045 15.1972 9.81518 15.6321C9.76082 15.6787 9.70646 15.7253 9.6288 15.7874C9.45794 15.6088 9.30261 15.4379 9.13952 15.2748C8.95312 15.0885 8.75114 15.0729 8.59582 15.2205C8.44049 15.368 8.45606 15.5777 8.63469 15.7641C8.86768 15.9971 9.10069 16.2301 9.33368 16.4631C9.55113 16.6805 9.70639 16.6805 9.93938 16.4708C10.118 16.3077 10.2967 16.1447 10.5064 15.9583V16.9912H7.16684V13.9546H7.15129ZM15.8263 7.12019C16.5719 7.12019 17.3175 7.12019 18.0553 7.12019C18.2882 7.12019 18.4358 6.98817 18.4436 6.78625C18.4513 6.58432 18.296 6.43674 18.063 6.4212C18.0242 6.4212 17.9776 6.4212 17.9387 6.4212C16.5253 6.4212 15.1118 6.4212 13.6984 6.4212C13.6052 6.4212 13.5042 6.42124 13.4188 6.4523C13.2634 6.50666 13.1858 6.63866 13.2013 6.80952C13.2168 6.97261 13.3178 7.08135 13.4886 7.11242C13.5585 7.12019 13.6284 7.12019 13.6906 7.12019C14.3973 7.12019 15.1118 7.12019 15.8185 7.12019H15.8263ZM15.8185 8.99963C16.5486 8.99963 17.2786 8.99963 18.0086 8.99963C18.2882 8.99963 18.4436 8.8676 18.4436 8.65014C18.4436 8.43268 18.2804 8.30069 18.0086 8.30069C17.698 8.30069 17.3951 8.30069 17.0845 8.30069C15.9661 8.30069 14.8477 8.30069 13.7294 8.30069C13.6672 8.30069 13.6051 8.30069 13.543 8.30069C13.3333 8.31622 13.1935 8.47152 13.1935 8.65791C13.1935 8.85207 13.3488 8.99186 13.5585 8.99186C14.3119 8.99186 15.0574 8.99186 15.8108 8.99186L15.8185 8.99963Z" fill="#0671B8"/>
<path d="M14.3972 25.9922C14.0322 25.868 13.9003 25.6195 13.9003 25.2234C13.9158 23.0022 13.9003 20.781 13.9003 18.5599V18.2803H14.1721C18.0319 18.2803 21.8917 18.2803 25.7594 18.2803C25.8448 18.2803 25.9225 18.2803 26.008 18.2803V25.5884C25.8604 25.7282 25.705 25.8602 25.5574 26H14.3972V25.9922ZM21.1695 23.6701C21.1695 23.3905 21.1695 23.1109 21.1695 22.8313C21.1695 22.5595 21.0375 22.4275 20.7657 22.4275C20.2065 22.4275 19.6473 22.4275 19.0881 22.4275C18.8163 22.4275 18.6843 22.5517 18.6765 22.8313C18.6765 23.3983 18.6765 23.9652 18.6765 24.5322C18.6765 24.7885 18.8163 24.9283 19.0726 24.9283C19.6395 24.9283 20.2065 24.9283 20.7735 24.9283C21.0375 24.9283 21.1618 24.7962 21.1695 24.5322C21.1695 24.2448 21.1695 23.9575 21.1695 23.6701ZM21.1695 20.6102C21.1695 20.3228 21.1695 20.0355 21.1695 19.7481C21.1695 19.4996 21.0453 19.3598 20.7968 19.3598C20.2143 19.3598 19.6395 19.3598 19.057 19.3598C18.8163 19.3598 18.6843 19.4918 18.6843 19.7326C18.6843 20.315 18.6765 20.8975 18.6843 21.4722C18.6843 21.7207 18.8241 21.845 19.0726 21.845C19.6473 21.845 20.2221 21.845 20.7968 21.845C21.0453 21.845 21.1696 21.713 21.1773 21.4645C21.1773 21.1771 21.1773 20.8898 21.1773 20.6024L21.1695 20.6102ZM15.368 23.6623C15.368 23.9575 15.368 24.2526 15.368 24.5399C15.368 24.7729 15.5001 24.9127 15.7409 24.9127C16.3234 24.9127 16.9058 24.9127 17.4805 24.9127C17.7213 24.9127 17.8533 24.7807 17.8533 24.5399C17.8533 23.9497 17.8611 23.3672 17.8533 22.777C17.8533 22.544 17.7135 22.4197 17.4728 22.412C16.8981 22.412 16.3234 22.412 15.7487 22.412C15.5001 22.412 15.368 22.544 15.368 22.7925C15.368 23.0799 15.368 23.3672 15.368 23.6546V23.6623ZM24.5479 23.6934C24.5479 23.406 24.5479 23.1187 24.5479 22.8313C24.5479 22.544 24.4158 22.4197 24.1285 22.4197C23.5771 22.4197 23.0256 22.4197 22.4665 22.4197C22.1791 22.4197 22.0549 22.544 22.0549 22.8313C22.0549 23.3827 22.0549 23.9419 22.0549 24.4933C22.0549 24.7885 22.1791 24.9127 22.482 24.9127C23.0257 24.9127 23.5771 24.9127 24.1207 24.9127C24.4158 24.9127 24.5401 24.7885 24.5479 24.4856C24.5479 24.2215 24.5479 23.9497 24.5479 23.6857V23.6934ZM16.6107 21.8528C16.8903 21.8528 17.1699 21.8528 17.4494 21.8528C17.729 21.8528 17.8533 21.7363 17.8611 21.4567C17.8611 20.8898 17.8611 20.3228 17.8611 19.7559C17.8611 19.4918 17.729 19.3598 17.465 19.3598C16.898 19.3598 16.3311 19.3598 15.7641 19.3598C15.5001 19.3598 15.368 19.4918 15.368 19.7481C15.368 20.3228 15.368 20.8975 15.368 21.4722C15.368 21.7363 15.5001 21.8528 15.7641 21.8528C16.0437 21.8528 16.3233 21.8528 16.6029 21.8528H16.6107ZM23.2742 21.8528C23.5615 21.8528 23.8489 21.8528 24.1362 21.8528C24.4158 21.8528 24.5401 21.7363 24.5479 21.4567C24.5479 20.8898 24.5479 20.3228 24.5479 19.7559C24.5479 19.4918 24.4158 19.3598 24.1518 19.3598C23.5848 19.3598 23.0179 19.3598 22.4509 19.3598C22.1869 19.3598 22.0549 19.4918 22.0549 19.7481C22.0549 20.3228 22.0549 20.8975 22.0549 21.4722C22.0549 21.7363 22.1869 21.8528 22.4509 21.8528C22.7227 21.8528 22.9946 21.8528 23.2742 21.8528Z" fill="#FFB422"/>
<path d="M26.0079 17.5817C23.1732 17.5817 20.3308 17.5817 17.496 17.5817C16.3855 17.5817 15.2671 17.5817 14.1565 17.5817H13.9157C13.9157 17.1157 13.9002 16.6653 13.9157 16.2226C13.9312 15.9818 14.172 15.7955 14.4361 15.7722C14.6147 15.7566 14.8011 15.7722 15.0108 15.7722C15.0341 16.1605 14.9565 16.5954 15.3525 16.8672C15.6554 17.0769 16.0049 17.0381 16.3233 16.9992C17.0534 16.9138 17.0844 16.3546 17.0533 15.7722H18.8318C18.8318 15.9197 18.8318 16.0517 18.8318 16.1838C18.8474 16.6886 19.158 16.9992 19.6628 17.007C19.8026 17.007 19.9502 17.007 20.09 17.007C20.5327 16.9915 20.8588 16.6653 20.8666 16.2226C20.8666 16.0828 20.8666 15.9353 20.8666 15.7799H22.6374C22.6529 16.1605 22.5829 16.5798 22.9635 16.8594C23.2586 17.0769 23.5925 17.007 23.9187 17.007C24.2216 17.007 24.4857 16.8672 24.5866 16.5799C24.6798 16.3313 24.6799 16.0518 24.7265 15.7644C25.1691 15.8188 25.7128 15.5858 26.0001 16.1915V17.5895L26.0079 17.5817Z" fill="#FFB422"/>
<path d="M16.3621 15.5469C16.3621 15.7488 16.3699 15.9585 16.3621 16.1605C16.3621 16.2148 16.269 16.3002 16.2224 16.3002C15.6321 16.3002 15.7409 16.3779 15.7331 15.8731C15.7331 15.5625 15.7331 15.2596 15.7331 14.9489C15.7331 14.8169 15.7797 14.7625 15.9117 14.7703C16.4709 14.778 16.3621 14.7237 16.3699 15.1974C16.3699 15.3139 16.3699 15.4304 16.3699 15.5469H16.3621Z" fill="#FFB422"/>
<path d="M19.5386 15.5312C19.5386 15.337 19.5386 15.1506 19.5386 14.9564C19.5386 14.8321 19.5775 14.77 19.7095 14.77C20.2842 14.7778 20.1599 14.7234 20.1755 15.2127C20.1755 15.5234 20.1755 15.8262 20.1755 16.1369C20.1755 16.2534 20.1444 16.3156 20.0124 16.3078C19.4532 16.2923 19.5463 16.3854 19.5386 15.8573C19.5386 15.7486 19.5386 15.6399 19.5386 15.5312Z" fill="#FFB422"/>
<path d="M23.9888 15.5309C23.9888 15.7329 23.9888 15.9425 23.9888 16.1445C23.9888 16.2687 23.9421 16.3153 23.8179 16.3153C23.2665 16.3075 23.3519 16.3852 23.3519 15.8727C23.3519 15.562 23.3519 15.2591 23.3519 14.9485C23.3519 14.8164 23.3985 14.7698 23.5305 14.7698C24.0897 14.7698 23.981 14.7233 23.9888 15.197C23.9888 15.3057 23.9888 15.4144 23.9888 15.5232V15.5309Z" fill="#FFB422"/>
<path d="M20.4628 24.2138H19.391V23.1343H20.4628V24.2138Z" fill="#FFB422"/>
<path d="M20.4628 20.0742V21.1382H19.3988V20.0742H20.4628Z" fill="#FFB422"/>
<path d="M16.0826 23.1343H17.1466V24.2138H16.0826V23.1343Z" fill="#FFB422"/>
<path d="M23.8334 24.2138H22.7616V23.1343H23.8334V24.2138Z" fill="#FFB422"/>
<path d="M16.0826 21.1382V20.0742H17.1466V21.1382H16.0826Z" fill="#FFB422"/>
<path d="M22.7693 20.0669H23.8333V21.1309H22.7693V20.0669Z" fill="#FFB422"/>
</svg>
