<svg width="105" height="12" viewBox="0 0 105 12" fill="none" xmlns="http://www.w3.org/2000/svg">
<path d="M0.0568182 9.46289V0.735618H3.00568C3.69034 0.735618 4.25 0.859197 4.68466 1.10636C5.12216 1.35067 5.44602 1.68164 5.65625 2.09925C5.86648 2.51687 5.97159 2.98278 5.97159 3.49698C5.97159 4.01119 5.86648 4.47852 5.65625 4.89897C5.44886 5.31942 5.12784 5.65465 4.69318 5.90465C4.25852 6.15181 3.7017 6.27539 3.02273 6.27539H0.909091V5.33789H2.98864C3.45739 5.33789 3.83381 5.25692 4.1179 5.09499C4.40199 4.93306 4.60795 4.71431 4.7358 4.43874C4.86648 4.16033 4.93182 3.84641 4.93182 3.49698C4.93182 3.14755 4.86648 2.83505 4.7358 2.55948C4.60795 2.28391 4.40057 2.068 4.11364 1.91175C3.8267 1.75266 3.44602 1.67312 2.97159 1.67312H1.11364V9.46289H0.0568182ZM7.53764 9.46289V2.91744H8.50923V3.90607H8.57741C8.69673 3.58221 8.91264 3.31942 9.22514 3.11772C9.53764 2.91602 9.88991 2.81516 10.282 2.81516C10.3558 2.81516 10.4482 2.81658 10.5589 2.81942C10.6697 2.82227 10.7536 2.82653 10.8104 2.83221V3.85494C10.7763 3.84641 10.6982 3.83363 10.576 3.81658C10.4567 3.7967 10.3303 3.78675 10.1967 3.78675C9.87855 3.78675 9.59446 3.85352 9.34446 3.98704C9.0973 4.11772 8.90128 4.29954 8.75639 4.53249C8.61435 4.76261 8.54332 5.02539 8.54332 5.32085V9.46289H7.53764ZM14.4624 9.59925C13.8714 9.59925 13.353 9.45863 12.907 9.17738C12.4638 8.89613 12.1172 8.50266 11.8672 7.99698C11.62 7.4913 11.4964 6.90039 11.4964 6.22425C11.4964 5.54244 11.62 4.94727 11.8672 4.43874C12.1172 3.93022 12.4638 3.53533 12.907 3.25408C13.353 2.97283 13.8714 2.83221 14.4624 2.83221C15.0533 2.83221 15.5703 2.97283 16.0135 3.25408C16.4595 3.53533 16.8061 3.93022 17.0533 4.43874C17.3033 4.94727 17.4283 5.54244 17.4283 6.22425C17.4283 6.90039 17.3033 7.4913 17.0533 7.99698C16.8061 8.50266 16.4595 8.89613 16.0135 9.17738C15.5703 9.45863 15.0533 9.59925 14.4624 9.59925ZM14.4624 8.69585C14.9112 8.69585 15.2805 8.58079 15.5703 8.35067C15.8601 8.12056 16.0746 7.818 16.2138 7.443C16.353 7.068 16.4226 6.66175 16.4226 6.22425C16.4226 5.78675 16.353 5.37908 16.2138 5.00124C16.0746 4.6234 15.8601 4.318 15.5703 4.08505C15.2805 3.85209 14.9112 3.73562 14.4624 3.73562C14.0135 3.73562 13.6442 3.85209 13.3544 4.08505C13.0646 4.318 12.8501 4.6234 12.7109 5.00124C12.5717 5.37908 12.5021 5.78675 12.5021 6.22425C12.5021 6.66175 12.5717 7.068 12.7109 7.443C12.8501 7.818 13.0646 8.12056 13.3544 8.35067C13.6442 8.58079 14.0135 8.69585 14.4624 8.69585ZM21.435 9.59925C20.8896 9.59925 20.408 9.46147 19.9904 9.1859C19.5728 8.90749 19.2461 8.51545 19.0103 8.00977C18.7745 7.50124 18.6566 6.90039 18.6566 6.20721C18.6566 5.51971 18.7745 4.92312 19.0103 4.41744C19.2461 3.91175 19.5742 3.52113 19.9947 3.24556C20.4151 2.96999 20.9009 2.83221 21.4521 2.83221C21.8782 2.83221 22.2148 2.90323 22.462 3.04528C22.712 3.18448 22.9023 3.34357 23.033 3.52255C23.1665 3.69869 23.2702 3.84357 23.3441 3.95721H23.4293V0.735618H24.435V9.46289H23.4634V8.45721H23.3441C23.2702 8.57653 23.1651 8.7271 23.0288 8.90891C22.8924 9.08789 22.6978 9.2484 22.445 9.39045C22.1921 9.52965 21.8555 9.59925 21.435 9.59925ZM21.5714 8.69585C21.9748 8.69585 22.3157 8.59073 22.5941 8.3805C22.8725 8.16744 23.0842 7.8734 23.229 7.4984C23.3739 7.12056 23.4464 6.68448 23.4464 6.19016C23.4464 5.70153 23.3754 5.27397 23.2333 4.90749C23.0913 4.53817 22.881 4.25124 22.6026 4.0467C22.3242 3.83931 21.9805 3.73562 21.5714 3.73562C21.1452 3.73562 20.7901 3.84499 20.506 4.06374C20.2248 4.27965 20.0131 4.57369 19.8711 4.94585C19.7319 5.31516 19.6623 5.72994 19.6623 6.19016C19.6623 6.65607 19.7333 7.07937 19.8754 7.46005C20.0202 7.83789 20.2333 8.13903 20.5146 8.36346C20.7987 8.58505 21.1509 8.69585 21.5714 8.69585ZM30.5415 6.78675V2.91744H31.5472V9.46289H30.5415V8.35494H30.4734C30.32 8.68732 30.0813 8.96999 29.7575 9.20295C29.4336 9.43306 29.0245 9.54812 28.5302 9.54812C28.1211 9.54812 27.7575 9.45863 27.4393 9.27965C27.1211 9.09783 26.8711 8.82511 26.6893 8.46147C26.5075 8.09499 26.4165 7.63335 26.4165 7.07653V2.91744H27.4222V7.00835C27.4222 7.48562 27.5558 7.8663 27.8228 8.15039C28.0927 8.43448 28.4364 8.57653 28.854 8.57653C29.104 8.57653 29.3583 8.51261 29.6168 8.38477C29.8782 8.25692 30.0969 8.0609 30.2731 7.7967C30.4521 7.53249 30.5415 7.19585 30.5415 6.78675ZM36.0483 9.59925C35.4347 9.59925 34.9063 9.45437 34.4631 9.1646C34.0199 8.87482 33.679 8.47567 33.4403 7.96715C33.2017 7.45863 33.0824 6.87766 33.0824 6.22425C33.0824 5.55948 33.2045 4.97283 33.4489 4.46431C33.696 3.95295 34.0398 3.5538 34.4801 3.26687C34.9233 2.9771 35.4403 2.83221 36.0312 2.83221C36.4915 2.83221 36.9062 2.91744 37.2756 3.08789C37.6449 3.25835 37.9474 3.49698 38.1832 3.8038C38.419 4.11062 38.5653 4.46857 38.6222 4.87766H37.6165C37.5398 4.57937 37.3693 4.31516 37.1051 4.08505C36.8438 3.85209 36.4915 3.73562 36.0483 3.73562C35.6563 3.73562 35.3125 3.83789 35.017 4.04244C34.7244 4.24414 34.4957 4.52965 34.331 4.89897C34.169 5.26545 34.0881 5.69585 34.0881 6.19016C34.0881 6.69585 34.1676 7.13619 34.3267 7.51119C34.4886 7.88619 34.7159 8.17738 35.0085 8.38477C35.304 8.59215 35.6506 8.69585 36.0483 8.69585C36.3097 8.69585 36.5469 8.65039 36.7599 8.55948C36.973 8.46857 37.1534 8.33789 37.3011 8.16744C37.4489 7.99698 37.554 7.79244 37.6165 7.5538H38.6222C38.5653 7.94016 38.4247 8.28817 38.2003 8.59783C37.9787 8.90465 37.6847 9.14897 37.3182 9.33079C36.9545 9.50977 36.5313 9.59925 36.0483 9.59925ZM42.9389 2.91744V3.76971H39.5469V2.91744H42.9389ZM40.5355 1.34925H41.5412V7.58789C41.5412 7.87198 41.5824 8.08505 41.6648 8.2271C41.75 8.3663 41.858 8.46005 41.9886 8.50835C42.1222 8.5538 42.2628 8.57653 42.4105 8.57653C42.5213 8.57653 42.6122 8.57085 42.6832 8.55948C42.7543 8.54528 42.8111 8.53391 42.8537 8.52539L43.0582 9.4288C42.9901 9.45437 42.8949 9.47994 42.7727 9.5055C42.6506 9.53391 42.4957 9.54812 42.3082 9.54812C42.0241 9.54812 41.7457 9.48704 41.473 9.36488C41.2031 9.24272 40.9787 9.05664 40.7997 8.80664C40.6236 8.55664 40.5355 8.2413 40.5355 7.86062V1.34925ZM44.4517 9.46289V2.91744H45.4574V9.46289H44.4517ZM44.9631 1.82653C44.767 1.82653 44.598 1.75977 44.456 1.62624C44.3168 1.49272 44.2472 1.33221 44.2472 1.14471C44.2472 0.957209 44.3168 0.796697 44.456 0.663174C44.598 0.529652 44.767 0.462891 44.9631 0.462891C45.1591 0.462891 45.3267 0.529652 45.4659 0.663174C45.608 0.796697 45.679 0.957209 45.679 1.14471C45.679 1.33221 45.608 1.49272 45.4659 1.62624C45.3267 1.75977 45.1591 1.82653 44.9631 1.82653ZM52.6516 2.91744L50.2312 9.46289H49.2085L46.788 2.91744H47.8789L49.6857 8.13335H49.7539L51.5607 2.91744H52.6516ZM53.979 9.46289V2.91744H54.9847V9.46289H53.979ZM54.4904 1.82653C54.2944 1.82653 54.1254 1.75977 53.9833 1.62624C53.8441 1.49272 53.7745 1.33221 53.7745 1.14471C53.7745 0.957209 53.8441 0.796697 53.9833 0.663174C54.1254 0.529652 54.2944 0.462891 54.4904 0.462891C54.6864 0.462891 54.854 0.529652 54.9933 0.663174C55.1353 0.796697 55.2063 0.957209 55.2063 1.14471C55.2063 1.33221 55.1353 1.49272 54.9933 1.62624C54.854 1.75977 54.6864 1.82653 54.4904 1.82653ZM59.6733 2.91744V3.76971H56.2812V2.91744H59.6733ZM57.2699 1.34925H58.2756V7.58789C58.2756 7.87198 58.3168 8.08505 58.3991 8.2271C58.4844 8.3663 58.5923 8.46005 58.723 8.50835C58.8565 8.5538 58.9972 8.57653 59.1449 8.57653C59.2557 8.57653 59.3466 8.57085 59.4176 8.55948C59.4886 8.54528 59.5455 8.53391 59.5881 8.52539L59.7926 9.4288C59.7244 9.45437 59.6293 9.47994 59.5071 9.5055C59.3849 9.53391 59.2301 9.54812 59.0426 9.54812C58.7585 9.54812 58.4801 9.48704 58.2074 9.36488C57.9375 9.24272 57.7131 9.05664 57.5341 8.80664C57.358 8.55664 57.2699 8.2413 57.2699 7.86062V1.34925ZM61.8338 11.9174C61.6634 11.9174 61.5114 11.9032 61.3778 11.8748C61.2443 11.8493 61.152 11.8237 61.1009 11.7981L61.3565 10.9118C61.6009 10.9743 61.8168 10.997 62.0043 10.9799C62.1918 10.9629 62.358 10.8791 62.5028 10.7285C62.6506 10.5808 62.7855 10.3407 62.9077 10.0083L63.0952 9.49698L60.6747 2.91744H61.7656L63.5724 8.13335H63.6406L65.4474 2.91744H66.5384L63.7599 10.4174C63.6349 10.7555 63.4801 11.0353 63.2955 11.2569C63.1108 11.4814 62.8963 11.6475 62.652 11.7555C62.4105 11.8635 62.1378 11.9174 61.8338 11.9174ZM75.8771 4.38335L74.9737 4.63903C74.9169 4.48846 74.8331 4.34215 74.7223 4.20011C74.6143 4.05522 74.4666 3.9359 74.2791 3.84215C74.0916 3.7484 73.8516 3.70153 73.5589 3.70153C73.1584 3.70153 72.8246 3.79386 72.5575 3.97852C72.2933 4.16033 72.1612 4.39187 72.1612 4.67312C72.1612 4.92312 72.2521 5.12056 72.4339 5.26545C72.6158 5.41033 72.8999 5.53107 73.2862 5.62766L74.2578 5.8663C74.843 6.00835 75.2791 6.22567 75.5661 6.51829C75.853 6.80806 75.9964 7.18164 75.9964 7.63903C75.9964 8.01403 75.8885 8.34925 75.6726 8.64471C75.4595 8.94016 75.1612 9.17312 74.7777 9.34357C74.3942 9.51403 73.9482 9.59925 73.4396 9.59925C72.772 9.59925 72.2195 9.45437 71.782 9.1646C71.3445 8.87482 71.0675 8.45153 70.951 7.89471L71.9055 7.65607C71.9964 8.00835 72.1683 8.27255 72.4212 8.44869C72.6768 8.62482 73.0107 8.71289 73.4226 8.71289C73.8913 8.71289 74.2635 8.61346 74.5391 8.4146C74.8175 8.21289 74.9567 7.97141 74.9567 7.69016C74.9567 7.46289 74.8771 7.27255 74.718 7.11914C74.5589 6.96289 74.3146 6.84641 73.9851 6.76971L72.8942 6.51403C72.2947 6.37198 71.8544 6.15181 71.5732 5.85352C71.2947 5.55238 71.1555 5.17596 71.1555 4.72425C71.1555 4.35494 71.2592 4.02823 71.4666 3.74414C71.6768 3.46005 71.9624 3.23704 72.3232 3.07511C72.6868 2.91317 73.0987 2.83221 73.5589 2.83221C74.2067 2.83221 74.7152 2.97425 75.0845 3.25834C75.4567 3.54244 75.7209 3.91744 75.8771 4.38335ZM80.3569 2.91744V3.76971H76.9648V2.91744H80.3569ZM77.9535 1.34925H78.9592V7.58789C78.9592 7.87198 79.0004 8.08505 79.0827 8.2271C79.168 8.3663 79.2759 8.46005 79.4066 8.50835C79.5401 8.5538 79.6808 8.57653 79.8285 8.57653C79.9393 8.57653 80.0302 8.57085 80.1012 8.55948C80.1722 8.54528 80.229 8.53391 80.2717 8.52539L80.4762 9.4288C80.408 9.45437 80.3129 9.47994 80.1907 9.5055C80.0685 9.53391 79.9137 9.54812 79.7262 9.54812C79.4421 9.54812 79.1637 9.48704 78.891 9.36488C78.6211 9.24272 78.3967 9.05664 78.2177 8.80664C78.0415 8.55664 77.9535 8.2413 77.9535 7.86062V1.34925ZM83.7958 9.6163C83.381 9.6163 83.0046 9.53817 82.6665 9.38192C82.3285 9.22283 82.06 8.99414 81.8612 8.69585C81.6623 8.39471 81.5629 8.03107 81.5629 7.60494C81.5629 7.22994 81.6367 6.92596 81.7844 6.693C81.9322 6.45721 82.1296 6.27255 82.3768 6.13903C82.6239 6.0055 82.8967 5.90607 83.195 5.84073C83.4961 5.77255 83.7987 5.71857 84.1026 5.6788C84.5004 5.62766 84.8228 5.58931 85.07 5.56374C85.32 5.53533 85.5018 5.48846 85.6154 5.42312C85.7319 5.35778 85.7901 5.24414 85.7901 5.08221V5.04812C85.7901 4.62766 85.6751 4.30096 85.445 4.068C85.2177 3.83505 84.8725 3.71857 84.4094 3.71857C83.9293 3.71857 83.5529 3.82369 83.2802 4.03391C83.0075 4.24414 82.8157 4.46857 82.7049 4.70721L81.7504 4.3663C81.9208 3.96857 82.1481 3.65891 82.4322 3.43732C82.7191 3.21289 83.0316 3.05664 83.3697 2.96857C83.7106 2.87766 84.0458 2.83221 84.3754 2.83221C84.5856 2.83221 84.8271 2.85778 85.0998 2.90891C85.3754 2.95721 85.641 3.05806 85.8967 3.21147C86.1552 3.36488 86.3697 3.59641 86.5401 3.90607C86.7106 4.21573 86.7958 4.6305 86.7958 5.15039V9.46289H85.7901V8.57653H85.739C85.6708 8.71857 85.5572 8.87056 85.3981 9.03249C85.239 9.19442 85.0273 9.33221 84.7631 9.44585C84.4989 9.55948 84.1765 9.6163 83.7958 9.6163ZM83.9492 8.71289C84.3469 8.71289 84.6822 8.63477 84.9549 8.47852C85.2305 8.32227 85.4379 8.12056 85.5771 7.8734C85.7191 7.62624 85.7901 7.3663 85.7901 7.09357V6.17312C85.7475 6.22425 85.6538 6.27113 85.5089 6.31374C85.3668 6.35352 85.2021 6.38903 85.0146 6.42028C84.8299 6.44869 84.6495 6.47425 84.4734 6.49698C84.3001 6.51687 84.1594 6.53391 84.0515 6.54812C83.7901 6.58221 83.5458 6.63761 83.3185 6.71431C83.0941 6.78817 82.9123 6.90039 82.7731 7.05096C82.6367 7.19869 82.5685 7.40039 82.5685 7.65607C82.5685 8.0055 82.6978 8.26971 82.9563 8.44869C83.2177 8.62482 83.5487 8.71289 83.9492 8.71289ZM91.478 2.91744V3.76971H88.0859V2.91744H91.478ZM89.0746 1.34925H90.0803V7.58789C90.0803 7.87198 90.1214 8.08505 90.2038 8.2271C90.2891 8.3663 90.397 8.46005 90.5277 8.50835C90.6612 8.5538 90.8018 8.57653 90.9496 8.57653C91.0604 8.57653 91.1513 8.57085 91.2223 8.55948C91.2933 8.54528 91.3501 8.53391 91.3928 8.52539L91.5973 9.4288C91.5291 9.45437 91.4339 9.47994 91.3118 9.5055C91.1896 9.53391 91.0348 9.54812 90.8473 9.54812C90.5632 9.54812 90.2848 9.48704 90.0121 9.36488C89.7422 9.24272 89.5178 9.05664 89.3388 8.80664C89.1626 8.55664 89.0746 8.2413 89.0746 7.86062V1.34925ZM97.1158 6.78675V2.91744H98.1214V9.46289H97.1158V8.35494H97.0476C96.8942 8.68732 96.6555 8.96999 96.3317 9.20295C96.0078 9.43306 95.5987 9.54812 95.1044 9.54812C94.6953 9.54812 94.3317 9.45863 94.0135 9.27965C93.6953 9.09783 93.4453 8.82511 93.2635 8.46147C93.0817 8.09499 92.9908 7.63335 92.9908 7.07653V2.91744H93.9964V7.00835C93.9964 7.48562 94.13 7.8663 94.397 8.15039C94.6669 8.43448 95.0107 8.57653 95.4283 8.57653C95.6783 8.57653 95.9325 8.51261 96.1911 8.38477C96.4524 8.25692 96.6712 8.0609 96.8473 7.7967C97.0263 7.53249 97.1158 7.19585 97.1158 6.78675ZM104.6 4.38335L103.696 4.63903C103.64 4.48846 103.556 4.34215 103.445 4.20011C103.337 4.05522 103.189 3.9359 103.002 3.84215C102.814 3.7484 102.574 3.70153 102.282 3.70153C101.881 3.70153 101.547 3.79386 101.28 3.97852C101.016 4.16033 100.884 4.39187 100.884 4.67312C100.884 4.92312 100.975 5.12056 101.157 5.26545C101.338 5.41033 101.623 5.53107 102.009 5.62766L102.98 5.8663C103.566 6.00835 104.002 6.22567 104.289 6.51829C104.576 6.80806 104.719 7.18164 104.719 7.63903C104.719 8.01403 104.611 8.34925 104.395 8.64471C104.182 8.94016 103.884 9.17312 103.5 9.34357C103.117 9.51403 102.671 9.59925 102.162 9.59925C101.495 9.59925 100.942 9.45437 100.505 9.1646C100.067 8.87482 99.7901 8.45153 99.6737 7.89471L100.628 7.65607C100.719 8.00835 100.891 8.27255 101.144 8.44869C101.4 8.62482 101.733 8.71289 102.145 8.71289C102.614 8.71289 102.986 8.61346 103.262 8.4146C103.54 8.21289 103.679 7.97141 103.679 7.69016C103.679 7.46289 103.6 7.27255 103.441 7.11914C103.282 6.96289 103.037 6.84641 102.708 6.76971L101.617 6.51403C101.017 6.37198 100.577 6.15181 100.296 5.85352C100.017 5.55238 99.8782 5.17596 99.8782 4.72425C99.8782 4.35494 99.9819 4.02823 100.189 3.74414C100.4 3.46005 100.685 3.23704 101.046 3.07511C101.409 2.91317 101.821 2.83221 102.282 2.83221C102.929 2.83221 103.438 2.97425 103.807 3.25834C104.179 3.54244 104.444 3.91744 104.6 4.38335Z" fill="black"/>
</svg>
