<svg width="32" height="32" viewBox="0 0 32 32" fill="none" xmlns="http://www.w3.org/2000/svg">
<path d="M24.7366 17.5845C24.7366 19.614 24.7366 21.6434 24.7366 23.6729C24.7366 24.1668 24.6363 24.2671 24.1424 24.2671C23.61 24.2671 23.0776 24.2671 22.5529 24.2671C22.1516 24.2671 22.0281 24.1436 22.0281 23.7578C22.0281 19.6371 22.0281 15.5164 22.0281 11.3957C22.0281 11.0176 22.1516 10.9096 22.5297 10.9019C23.1007 10.9019 23.6795 10.9019 24.2505 10.9019C24.6209 10.9019 24.7366 11.0253 24.7366 11.4035C24.7366 13.4638 24.7366 15.5241 24.7366 17.5845Z" fill="#0671B8"/>
<path d="M19.6977 18.8732C19.6977 20.4783 19.6977 22.0756 19.6977 23.6807C19.6977 24.1514 19.5897 24.2671 19.1189 24.2671C18.5788 24.2671 18.0386 24.2671 17.4985 24.2671C17.1049 24.2671 16.9738 24.136 16.9738 23.7501C16.9738 20.4937 16.9738 17.2373 16.9738 13.9809C16.9738 13.5951 17.1049 13.4639 17.4907 13.4639C18.0386 13.4639 18.5942 13.4639 19.1421 13.4639C19.5742 13.4639 19.69 13.5796 19.69 14.004C19.69 15.6245 19.69 17.2527 19.69 18.8732H19.6977Z" fill="#0671B8"/>
<path d="M15.8086 26.7674C12.8377 26.7674 9.86673 26.7674 6.88812 26.7674C6.78008 26.7674 6.67202 26.7675 6.57171 26.7598C6.23218 26.7135 5.98525 26.4279 6.00069 26.1038C6.01612 25.7797 6.27081 25.5251 6.62578 25.502C6.71838 25.502 6.81869 25.502 6.91129 25.502C12.8454 25.502 18.7794 25.502 24.7135 25.502C24.8061 25.502 24.9064 25.502 24.999 25.502C25.3463 25.5251 25.6087 25.7797 25.6164 26.1038C25.6318 26.4279 25.3849 26.7135 25.0454 26.7598C24.9373 26.7752 24.837 26.7674 24.729 26.7674C21.7581 26.7674 18.7872 26.7674 15.8086 26.7674Z" fill="#0671B8"/>
<path d="M21.7889 7.09784C21.5806 7.09784 21.4494 7.09784 21.3105 7.09784C21.0173 7.09013 20.8089 6.91268 20.7857 6.65031C20.7549 6.37251 20.94 6.13328 21.241 6.10242C21.7271 6.05612 22.2133 6.04069 22.6994 6.00982C22.7843 6.00982 22.8693 6.00981 22.9542 6.0021C23.6409 5.97895 23.7952 6.14099 23.7026 6.82006C23.6332 7.36794 23.5483 7.9081 23.4557 8.45598C23.4016 8.79551 23.1471 8.9807 22.8538 8.92668C22.576 8.87266 22.4063 8.61802 22.4526 8.30164C22.468 8.17045 22.4911 8.03929 22.5143 7.83866C22.059 8.20905 21.6732 8.53316 21.2796 8.85726C17.0509 12.2757 12.3283 14.7836 7.21222 16.5816C6.85725 16.7051 6.57939 16.6047 6.47136 16.3192C6.35561 16.026 6.50997 15.7559 6.88808 15.6247C9.97473 14.5367 12.9379 13.1785 15.7468 11.4886C17.8071 10.2539 19.7517 8.85723 21.5806 7.29076C21.6346 7.24446 21.6886 7.19817 21.7889 7.10557V7.09784Z" fill="#FFB422"/>
<path d="M11.9271 20.2775C11.9271 19.1431 11.9271 18.0088 11.9271 16.8745C11.9271 16.4269 12.0351 16.3188 12.4904 16.3188C13.0537 16.3188 13.617 16.3188 14.1804 16.3188C14.5122 16.3188 14.6511 16.45 14.6511 16.7818C14.6511 19.1122 14.6511 21.4504 14.6511 23.7808C14.6511 24.1281 14.5122 24.2592 14.1649 24.267C13.5784 24.2747 12.9997 24.2747 12.4132 24.267C12.0505 24.267 11.9271 24.1204 11.9271 23.75C11.9271 22.5925 11.9271 21.435 11.9271 20.2852V20.2775Z" fill="#0671B8"/>
<path d="M9.60437 21.6667C9.60437 22.3535 9.60437 23.048 9.60437 23.7348C9.60437 24.1438 9.48094 24.2595 9.06424 24.2672C8.51636 24.2672 7.96076 24.2672 7.41288 24.2672C7.00389 24.2672 6.8881 24.1438 6.8881 23.7271C6.8881 22.3458 6.8881 20.9722 6.8881 19.591C6.8881 19.1665 6.99617 19.0585 7.40515 19.0508C7.97618 19.0508 8.5472 19.0508 9.12594 19.0508C9.48091 19.0508 9.60437 19.1742 9.60437 19.5292C9.60437 20.2391 9.60437 20.9491 9.60437 21.659V21.6667Z" fill="#0671B8"/>
</svg>
