<svg width="83" height="10" viewBox="0 0 83 10" fill="none" xmlns="http://www.w3.org/2000/svg">
<path d="M5.82955 2.90083C5.77841 2.46902 5.57102 2.13379 5.20739 1.89515C4.84375 1.65652 4.39773 1.5372 3.86932 1.5372C3.48295 1.5372 3.14489 1.5997 2.85511 1.7247C2.56818 1.8497 2.34375 2.02157 2.18182 2.24032C2.02273 2.45907 1.94318 2.70765 1.94318 2.98606C1.94318 3.21902 1.99858 3.4193 2.10938 3.58691C2.22301 3.75169 2.3679 3.88947 2.54403 4.00027C2.72017 4.10822 2.90483 4.19771 3.09801 4.26873C3.29119 4.33691 3.46875 4.39231 3.63068 4.43493L4.51705 4.67356C4.74432 4.73322 4.99716 4.81561 5.27557 4.92072C5.55682 5.02583 5.82528 5.1693 6.08097 5.35112C6.33949 5.5301 6.55256 5.76021 6.72017 6.04146C6.88778 6.32271 6.97159 6.66788 6.97159 7.07697C6.97159 7.54856 6.84801 7.9747 6.60085 8.35538C6.35653 8.73606 5.99858 9.03862 5.52699 9.26305C5.05824 9.48748 4.48864 9.5997 3.81818 9.5997C3.19318 9.5997 2.65199 9.49885 2.1946 9.29714C1.74006 9.09544 1.3821 8.81419 1.12074 8.45339C0.862216 8.0926 0.715909 7.67356 0.681818 7.19629H1.77273C1.80114 7.52583 1.91193 7.79856 2.10511 8.01447C2.30114 8.22754 2.5483 8.38663 2.84659 8.49174C3.14773 8.59402 3.47159 8.64515 3.81818 8.64515C4.22159 8.64515 4.58381 8.57981 4.90483 8.44913C5.22585 8.31561 5.48011 8.13095 5.66761 7.89515C5.85511 7.65652 5.94886 7.37811 5.94886 7.05993C5.94886 6.77015 5.8679 6.53436 5.70597 6.35254C5.54403 6.17072 5.33097 6.02299 5.06676 5.90936C4.80256 5.79572 4.51705 5.69629 4.21023 5.61106L3.13636 5.30424C2.45455 5.10822 1.91477 4.82839 1.51705 4.46475C1.11932 4.10112 0.920455 3.62527 0.920455 3.0372C0.920455 2.54856 1.05256 2.12243 1.31676 1.75879C1.58381 1.39231 1.94176 1.10822 2.39062 0.906516C2.84233 0.701971 3.34659 0.599698 3.90341 0.599698C4.46591 0.599698 4.96591 0.70055 5.40341 0.902255C5.84091 1.10112 6.1875 1.37385 6.44318 1.72044C6.7017 2.06703 6.83807 2.46049 6.85227 2.90083H5.82955ZM11.4194 2.90083V3.75311H8.02734V2.90083H11.4194ZM9.01598 1.33265H10.0217V7.57129C10.0217 7.85538 10.0629 8.06845 10.1452 8.21049C10.2305 8.3497 10.3384 8.44345 10.4691 8.49174C10.6026 8.5372 10.7433 8.55993 10.891 8.55993C11.0018 8.55993 11.0927 8.55424 11.1637 8.54288C11.2347 8.52868 11.2915 8.51731 11.3342 8.50879L11.5387 9.4122C11.4705 9.43777 11.3754 9.46333 11.2532 9.4889C11.131 9.51731 10.9762 9.53152 10.7887 9.53152C10.5046 9.53152 10.2262 9.47044 9.95348 9.34828C9.68359 9.22612 9.45916 9.04004 9.28018 8.79004C9.10405 8.54004 9.01598 8.2247 9.01598 7.84402V1.33265ZM15.521 9.58265C14.93 9.58265 14.4116 9.44203 13.9656 9.16078C13.5224 8.87953 13.1758 8.48606 12.9258 7.98038C12.6786 7.4747 12.555 6.88379 12.555 6.20765C12.555 5.52583 12.6786 4.93066 12.9258 4.42214C13.1758 3.91362 13.5224 3.51873 13.9656 3.23748C14.4116 2.95623 14.93 2.81561 15.521 2.81561C16.1119 2.81561 16.6289 2.95623 17.0721 3.23748C17.5181 3.51873 17.8647 3.91362 18.1119 4.42214C18.3619 4.93066 18.4869 5.52583 18.4869 6.20765C18.4869 6.88379 18.3619 7.4747 18.1119 7.98038C17.8647 8.48606 17.5181 8.87953 17.0721 9.16078C16.6289 9.44203 16.1119 9.58265 15.521 9.58265ZM15.521 8.67924C15.9698 8.67924 16.3391 8.56419 16.6289 8.33407C16.9187 8.10396 17.1332 7.8014 17.2724 7.4264C17.4116 7.0514 17.4812 6.64515 17.4812 6.20765C17.4812 5.77015 17.4116 5.36248 17.2724 4.98464C17.1332 4.6068 16.9187 4.3014 16.6289 4.06845C16.3391 3.83549 15.9698 3.71902 15.521 3.71902C15.0721 3.71902 14.7028 3.83549 14.413 4.06845C14.1232 4.3014 13.9087 4.6068 13.7695 4.98464C13.6303 5.36248 13.5607 5.77015 13.5607 6.20765C13.5607 6.64515 13.6303 7.0514 13.7695 7.4264C13.9087 7.8014 14.1232 8.10396 14.413 8.33407C14.7028 8.56419 15.0721 8.67924 15.521 8.67924ZM22.6811 9.58265C22.0675 9.58265 21.5391 9.43777 21.0959 9.14799C20.6527 8.85822 20.3118 8.45907 20.0732 7.95055C19.8345 7.44203 19.7152 6.86106 19.7152 6.20765C19.7152 5.54288 19.8374 4.95623 20.0817 4.44771C20.3288 3.93635 20.6726 3.5372 21.1129 3.25027C21.5561 2.96049 22.0732 2.81561 22.6641 2.81561C23.1243 2.81561 23.5391 2.90083 23.9084 3.07129C24.2777 3.24174 24.5803 3.48038 24.8161 3.7872C25.0518 4.09402 25.1982 4.45197 25.255 4.86106H24.2493C24.1726 4.56277 24.0021 4.29856 23.7379 4.06845C23.4766 3.83549 23.1243 3.71902 22.6811 3.71902C22.2891 3.71902 21.9453 3.82129 21.6499 4.02583C21.3572 4.22754 21.1286 4.51305 20.9638 4.88237C20.8018 5.24885 20.7209 5.67924 20.7209 6.17356C20.7209 6.67924 20.8004 7.11958 20.9595 7.49458C21.1214 7.86958 21.3487 8.16078 21.6413 8.36816C21.9368 8.57555 22.2834 8.67924 22.6811 8.67924C22.9425 8.67924 23.1797 8.63379 23.3928 8.54288C23.6058 8.45197 23.7862 8.32129 23.9339 8.15083C24.0817 7.98038 24.1868 7.77583 24.2493 7.5372H25.255C25.1982 7.92356 25.0575 8.27157 24.8331 8.58123C24.6115 8.88805 24.3175 9.13237 23.951 9.31419C23.5874 9.49316 23.1641 9.58265 22.6811 9.58265ZM27.6626 7.05993L27.6456 5.81561H27.8501L30.7138 2.90083H31.9581L28.907 5.98606H28.8217L27.6626 7.05993ZM26.7251 9.44629V0.719016H27.7308V9.44629H26.7251ZM30.8842 9.44629L28.3274 6.20765L29.0433 5.50879L32.1626 9.44629H30.8842ZM39.2866 9.58265C38.6957 9.58265 38.1772 9.44203 37.7312 9.16078C37.288 8.87953 36.9414 8.48606 36.6914 7.98038C36.4442 7.4747 36.3207 6.88379 36.3207 6.20765C36.3207 5.52583 36.4442 4.93066 36.6914 4.42214C36.9414 3.91362 37.288 3.51873 37.7312 3.23748C38.1772 2.95623 38.6957 2.81561 39.2866 2.81561C39.8775 2.81561 40.3945 2.95623 40.8377 3.23748C41.2837 3.51873 41.6303 3.91362 41.8775 4.42214C42.1275 4.93066 42.2525 5.52583 42.2525 6.20765C42.2525 6.88379 42.1275 7.4747 41.8775 7.98038C41.6303 8.48606 41.2837 8.87953 40.8377 9.16078C40.3945 9.44203 39.8775 9.58265 39.2866 9.58265ZM39.2866 8.67924C39.7354 8.67924 40.1048 8.56419 40.3945 8.33407C40.6843 8.10396 40.8988 7.8014 41.038 7.4264C41.1772 7.0514 41.2468 6.64515 41.2468 6.20765C41.2468 5.77015 41.1772 5.36248 41.038 4.98464C40.8988 4.6068 40.6843 4.3014 40.3945 4.06845C40.1048 3.83549 39.7354 3.71902 39.2866 3.71902C38.8377 3.71902 38.4684 3.83549 38.1786 4.06845C37.8888 4.3014 37.6744 4.6068 37.5352 4.98464C37.396 5.36248 37.3263 5.77015 37.3263 6.20765C37.3263 6.64515 37.396 7.0514 37.5352 7.4264C37.6744 7.8014 37.8888 8.10396 38.1786 8.33407C38.4684 8.56419 38.8377 8.67924 39.2866 8.67924ZM44.7933 5.50879V9.44629H43.7876V2.90083H44.7592V3.92356H44.8445C44.9979 3.59118 45.2308 3.32413 45.5433 3.12243C45.8558 2.91788 46.2592 2.81561 46.7536 2.81561C47.1967 2.81561 47.5845 2.90652 47.9169 3.08833C48.2493 3.26731 48.5078 3.54004 48.6925 3.90652C48.8771 4.27015 48.9695 4.73038 48.9695 5.2872V9.44629H47.9638V5.35538C47.9638 4.84118 47.8303 4.44061 47.5632 4.15368C47.2962 3.8639 46.9297 3.71902 46.4638 3.71902C46.1428 3.71902 45.8558 3.78862 45.603 3.92782C45.353 4.06703 45.1555 4.27015 45.0107 4.5372C44.8658 4.80424 44.7933 5.12811 44.7933 5.50879ZM54.3185 9.44629V0.719016H55.3754V4.60538H60.0288V0.719016H61.0856V9.44629H60.0288V5.54288H55.3754V9.44629H54.3185ZM64.9911 9.5997C64.5763 9.5997 64.1999 9.52157 63.8619 9.36532C63.5238 9.20623 63.2553 8.97754 63.0565 8.67924C62.8576 8.37811 62.7582 8.01447 62.7582 7.58833C62.7582 7.21333 62.832 6.90936 62.9798 6.6764C63.1275 6.44061 63.3249 6.25595 63.5721 6.12243C63.8192 5.9889 64.092 5.88947 64.3903 5.82413C64.6914 5.75595 64.994 5.70197 65.2979 5.6622C65.6957 5.61106 66.0181 5.57271 66.2653 5.54714C66.5153 5.51873 66.6971 5.47186 66.8107 5.40652C66.9272 5.34118 66.9854 5.22754 66.9854 5.06561V5.03152C66.9854 4.61106 66.8704 4.28436 66.6403 4.0514C66.413 3.81845 66.0678 3.70197 65.6048 3.70197C65.1246 3.70197 64.7482 3.80708 64.4755 4.01731C64.2028 4.22754 64.011 4.45197 63.9002 4.69061L62.9457 4.3497C63.1161 3.95197 63.3434 3.64231 63.6275 3.42072C63.9144 3.19629 64.2269 3.04004 64.565 2.95197C64.9059 2.86106 65.2411 2.81561 65.5707 2.81561C65.7809 2.81561 66.0224 2.84118 66.2951 2.89231C66.5707 2.94061 66.8363 3.04146 67.092 3.19487C67.3505 3.34828 67.565 3.57981 67.7354 3.88947C67.9059 4.19913 67.9911 4.6139 67.9911 5.13379V9.44629H66.9854V8.55993H66.9343C66.8661 8.70197 66.7525 8.85396 66.5934 9.01589C66.4343 9.17782 66.2227 9.31561 65.9585 9.42924C65.6942 9.54288 65.3718 9.5997 64.9911 9.5997ZM65.1445 8.69629C65.5423 8.69629 65.8775 8.61816 66.1502 8.46191C66.4258 8.30566 66.6332 8.10396 66.7724 7.8568C66.9144 7.60964 66.9854 7.3497 66.9854 7.07697V6.15652C66.9428 6.20765 66.8491 6.25453 66.7042 6.29714C66.5621 6.33691 66.3974 6.37243 66.2099 6.40368C66.0252 6.43208 65.8448 6.45765 65.6687 6.48038C65.4954 6.50027 65.3548 6.51731 65.2468 6.53152C64.9854 6.56561 64.7411 6.621 64.5138 6.69771C64.2894 6.77157 64.1076 6.88379 63.9684 7.03436C63.832 7.18208 63.7638 7.38379 63.7638 7.63947C63.7638 7.9889 63.8931 8.25311 64.1516 8.43208C64.413 8.60822 64.744 8.69629 65.1445 8.69629ZM70.8324 5.50879V9.44629H69.8267V2.90083H70.7983V3.92356H70.8835C71.0369 3.59118 71.2699 3.32413 71.5824 3.12243C71.8949 2.91788 72.2983 2.81561 72.7926 2.81561C73.2358 2.81561 73.6236 2.90652 73.956 3.08833C74.2884 3.26731 74.5469 3.54004 74.7315 3.90652C74.9162 4.27015 75.0085 4.73038 75.0085 5.2872V9.44629H74.0028V5.35538C74.0028 4.84118 73.8693 4.44061 73.6023 4.15368C73.3352 3.8639 72.9688 3.71902 72.5028 3.71902C72.1818 3.71902 71.8949 3.78862 71.642 3.92782C71.392 4.06703 71.1946 4.27015 71.0497 4.5372C70.9048 4.80424 70.8324 5.12811 70.8324 5.50879ZM79.3178 9.58265C78.7724 9.58265 78.2908 9.44487 77.8732 9.1693C77.4556 8.89089 77.1289 8.49885 76.8931 7.99316C76.6573 7.48464 76.5394 6.88379 76.5394 6.19061C76.5394 5.50311 76.6573 4.90652 76.8931 4.40083C77.1289 3.89515 77.457 3.50453 77.8775 3.22896C78.2979 2.95339 78.7837 2.81561 79.3349 2.81561C79.761 2.81561 80.0977 2.88663 80.3448 3.02868C80.5948 3.16788 80.7852 3.32697 80.9158 3.50595C81.0494 3.68208 81.1531 3.82697 81.2269 3.94061H81.3121V0.719016H82.3178V9.44629H81.3462V8.44061H81.2269C81.1531 8.55993 81.0479 8.71049 80.9116 8.89231C80.7752 9.07129 80.5806 9.2318 80.3278 9.37385C80.0749 9.51305 79.7383 9.58265 79.3178 9.58265ZM79.4542 8.67924C79.8576 8.67924 80.1985 8.57413 80.4769 8.3639C80.7553 8.15083 80.967 7.8568 81.1119 7.4818C81.2567 7.10396 81.3292 6.66788 81.3292 6.17356C81.3292 5.68493 81.2582 5.25737 81.1161 4.89089C80.9741 4.52157 80.7638 4.23464 80.4854 4.0301C80.207 3.82271 79.8633 3.71902 79.4542 3.71902C79.0281 3.71902 78.6729 3.82839 78.3888 4.04714C78.1076 4.26305 77.896 4.55708 77.7539 4.92924C77.6147 5.29856 77.5451 5.71333 77.5451 6.17356C77.5451 6.63947 77.6161 7.06277 77.7582 7.44345C77.9031 7.82129 78.1161 8.12243 78.3974 8.34686C78.6815 8.56845 79.0337 8.67924 79.4542 8.67924Z" fill="black"/>
</svg>
