<svg width="32" height="32" viewBox="0 0 32 32" fill="none" xmlns="http://www.w3.org/2000/svg">
<path d="M9 24.9904C9.53694 23.5537 10.0884 22.1098 10.6108 20.6659C10.6689 20.5062 10.618 20.3031 10.5963 20.1217C10.4294 19.0333 10.2408 17.9521 10.0884 16.8637C10.0521 16.5807 10.1029 16.2905 10.1247 16.0002C10.2626 14.179 10.4005 12.3505 10.5384 10.5293C10.6109 9.60774 11.1841 9.13613 12.1056 9.23771C12.7659 9.31027 13.4334 9.34655 14.0937 9.41911C14.8048 9.49893 15.2547 10.0068 15.2257 10.7179C15.2039 11.2984 15.1385 11.8861 15.0877 12.4666C15.0877 12.5101 15.0733 12.5464 15.0588 12.6335C14.5872 11.9805 14.1372 11.3565 13.6946 10.7324C13.6801 10.7324 13.6728 10.7469 13.6583 10.7542C13.6873 10.8267 13.7091 10.9066 13.7382 10.9791C13.9921 11.6829 14.2461 12.3868 14.4856 13.0979C14.5291 13.2285 14.6015 13.2793 14.7249 13.3083C15.5666 13.5115 16.4012 13.7219 17.2429 13.9323C17.7145 14.0484 17.9685 14.3386 17.9685 14.7522C17.9757 15.2747 17.5258 15.6883 17.0179 15.5794C16.1835 15.398 15.3634 15.1803 14.5362 14.9772C14.2968 14.9191 14.0573 14.8466 13.8179 14.7958C13.4406 14.716 13.2084 14.491 13.085 14.1282C12.802 13.3156 12.5118 12.5101 12.2216 11.7047C12.1926 11.6249 12.1636 11.5378 12.0983 11.4653C12.1419 11.8426 12.1781 12.2199 12.2216 12.5972C12.2797 13.1269 12.3377 13.6638 12.403 14.1935C12.4756 14.8175 12.8457 15.2239 13.4262 15.4198C13.818 15.5576 14.2316 15.6375 14.6379 15.739C14.6887 15.7535 14.7395 15.7681 14.8048 15.7898C14.7975 15.935 14.8048 16.0728 14.7757 16.2034C14.6959 16.5517 14.7975 16.8565 14.9426 17.1685C15.2909 17.9013 15.5957 18.6487 15.9513 19.3816C16.2343 19.9693 16.3141 20.6005 16.4664 21.2246C16.7494 22.4218 17.0178 23.619 17.2863 24.8235C17.4169 25.4113 17.1775 25.9047 16.6769 26.0788C16.1037 26.282 15.5231 25.9772 15.3708 25.3677C15.2039 24.7219 15.0659 24.0689 14.9208 23.4231C14.7104 22.4944 14.5001 21.5583 14.2896 20.6296C14.2679 20.528 14.2315 20.4337 14.188 20.3393C13.7236 19.309 13.2447 18.2786 12.7949 17.2338C12.6933 17.0016 12.57 16.8927 12.3306 16.9072C12.2798 16.9072 12.2217 16.9072 12.1346 16.9072C12.1854 17.2483 12.2362 17.5821 12.287 17.9231C12.4176 18.7503 12.5627 19.5774 12.6716 20.4119C12.7006 20.6368 12.6788 20.8908 12.6062 21.1012C12.0765 22.5524 11.5251 23.9963 10.9809 25.4403C10.8357 25.8321 10.5601 26.0861 10.1392 26.1441C9.76918 26.1949 9.45718 26.057 9.23224 25.7668C9.13791 25.6362 9.07983 25.4766 9.01453 25.3315C9.01453 25.2226 9.01453 25.1138 9.01453 24.9977L9 24.9904Z" fill="#0671B8"/>
<path d="M13.7817 5.00726C14.0574 5.12336 14.3476 5.21769 14.6015 5.37006C14.9208 5.55872 15.1313 5.87071 15.2547 6.219C15.2982 6.33509 15.3489 6.37865 15.4722 6.37139C15.8423 6.36413 16.2123 6.36413 16.5824 6.37139C16.8726 6.37865 17.083 6.58179 17.083 6.843C17.083 7.11873 16.8799 7.30741 16.5679 7.32192C16.5171 7.32192 16.4736 7.32192 16.4228 7.32192C16.1035 7.32192 15.7915 7.32192 15.4722 7.32192C15.3561 7.32192 15.2909 7.35095 15.2474 7.46705C14.9572 8.22167 14.3113 8.67878 13.5494 8.67878C12.7513 8.67878 12.1056 8.23615 11.8008 7.47427C11.4235 6.52374 12.0184 5.33376 13.0125 5.07981C13.1068 5.05804 13.1938 5.02902 13.2881 5C13.455 5 13.6148 5 13.7817 5V5.00726Z" fill="#0671B8"/>
<path d="M16.3502 16.1815C16.5171 16.2177 16.6841 16.2468 16.851 16.2831C17.5911 16.4499 18.4473 15.9783 18.6432 15.1149C18.8319 14.2804 18.3457 13.5113 17.4895 13.2719C17.1049 13.163 16.7204 13.0759 16.3359 12.9743C16.3359 12.256 16.3214 11.5449 16.3359 10.8411C16.3359 10.5436 16.5753 10.2969 16.8801 10.2824C17.4606 10.2606 18.041 10.2751 18.6432 10.2751V13.2138C18.7811 13.0832 18.8827 12.9888 18.9988 12.8727C19.1149 12.9816 19.2237 13.0904 19.3543 13.2138C19.4704 13.105 19.5865 12.9961 19.7098 12.88C19.8259 12.9888 19.942 13.0977 20.0654 13.2138C20.1815 13.105 20.2976 12.9961 20.4209 12.88C20.5298 12.9816 20.6313 13.0759 20.7692 13.2138V10.2896C20.82 10.2824 20.8418 10.2679 20.8709 10.2679C21.3788 10.2679 21.8866 10.2606 22.3945 10.2679C22.8226 10.2679 23.1056 10.5436 23.1056 10.9644C23.1056 12.7639 23.1056 14.5706 23.1056 16.3701C23.1056 16.7547 22.8517 17.0087 22.4671 17.0522C22.4091 17.0522 22.3583 17.0522 22.3003 17.0522C20.5733 17.0522 18.8463 17.0522 17.1267 17.0522C17.0614 17.0522 17.0033 17.0522 16.938 17.0449C16.4954 16.9869 16.2486 16.6386 16.3502 16.1742V16.1815Z" fill="#FFB422"/>
</svg>
