<svg width="32" height="32" viewBox="0 0 32 32" fill="none" xmlns="http://www.w3.org/2000/svg">
<path d="M19.7676 9.67495C17.341 8.73939 14.929 8.73939 12.517 9.67495C12.3708 8.24968 12.7946 7.10215 14.0299 6.37855C14.4611 6.13004 14.929 6.00578 15.4333 6.00578C16.04 6.00578 16.6466 5.97654 17.246 6.04963C18.6274 6.21043 19.7164 7.43103 19.7676 8.81976C19.7822 9.10481 19.7676 9.38259 19.7676 9.67495Z" fill="#0671B8"/>
<path d="M13.1677 12.5474C13.5039 12.5766 13.8255 12.6131 14.1471 12.6204C15.397 12.6277 16.6394 12.6277 17.8893 12.6204C18.2913 12.6204 18.6934 12.5839 19.11 12.562C19.1977 13.7168 18.8323 14.7255 17.809 15.4125C16.7784 16.1069 15.6893 16.1288 14.6148 15.5075C13.5843 14.9155 13.0507 13.768 13.175 12.5474H13.1677Z" fill="#0671B8"/>
<path d="M16.1204 11.9627C15.4115 11.9627 14.7025 11.948 13.9936 11.9627C13.4673 11.9773 13.0945 11.758 12.8167 11.3341C12.7071 11.166 12.6195 10.9906 12.5391 10.8079C12.4367 10.5667 12.495 10.3912 12.7436 10.3108C13.3283 10.1208 13.9204 9.90883 14.5198 9.79188C16.1863 9.47759 17.8235 9.63109 19.4022 10.2597C19.7896 10.4132 19.848 10.5593 19.6726 10.9248C19.5702 11.1294 19.4533 11.3268 19.3144 11.5022C19.0732 11.8092 18.7518 11.97 18.3498 11.9627C17.6042 11.9554 16.866 11.9627 16.1204 11.9627Z" fill="#FFB422"/>
<path d="M20.3015 11.1953C20.5867 11.7219 20.3527 12.5044 19.7604 12.9358C19.8262 12.5117 19.6214 12.1021 19.9651 11.7438C20.1041 11.5902 20.1918 11.3855 20.3088 11.1953H20.3015Z" fill="#0671B8"/>
<path d="M12.4955 12.9066C11.9397 12.6214 11.6545 11.6049 11.9543 11.2173C12.1298 11.4732 12.3126 11.7219 12.4735 11.9851C12.5174 12.0583 12.4955 12.1753 12.4955 12.2704C12.4955 12.4824 12.4955 12.6872 12.4955 12.9139V12.9066Z" fill="#0671B8"/>
<path d="M8 21.8739C8.11695 21.3841 8.19733 20.8872 8.35082 20.4048C8.7382 19.1988 9.43261 18.1828 10.4047 17.3642C10.7994 17.0279 10.9748 17.0718 11.1429 17.5615C11.6327 18.9576 12.0712 20.3682 12.6267 21.735C13.2407 23.2407 14.2567 24.4686 15.5869 25.4188C15.755 25.543 15.8282 25.6673 15.8209 25.872C15.8063 26.1132 15.8209 26.3543 15.8209 26.5955C15.8209 26.8441 15.7112 26.9829 15.4481 26.9756C14.074 26.9756 12.6925 26.9756 11.3184 26.9756C10.9821 26.9756 10.9236 26.771 10.931 26.5005C10.931 24.8925 10.931 23.2845 10.931 21.6765C10.931 21.5742 10.9602 21.4573 10.9163 21.3696C10.8725 21.2746 10.7703 21.2014 10.6899 21.121C10.6095 21.2014 10.5071 21.2745 10.4632 21.3768C10.4267 21.4646 10.4486 21.5815 10.4486 21.6839C10.4486 23.2699 10.4486 24.8487 10.4486 26.4348C10.4486 26.9245 10.3975 26.9756 9.92238 26.9756C9.54231 26.9756 9.1622 26.9537 8.78944 26.9756C8.42398 26.9976 8.16812 26.8806 8.01463 26.5517C8.01463 24.9875 8.01463 23.4307 8.01463 21.8666L8 21.8739Z" fill="#0671B8"/>
<path d="M24.3212 21.8958C24.2042 21.4061 24.1239 20.9091 23.9704 20.4267C23.583 19.2207 22.8886 18.2048 21.9165 17.3861C21.5218 17.0499 21.3464 17.0938 21.1782 17.5835C20.6885 18.9795 20.25 20.3902 19.6945 21.757C19.0805 23.2626 18.0647 24.4906 16.7344 25.4407C16.5663 25.565 16.4932 25.6892 16.5005 25.8939C16.5151 26.1351 16.5005 26.3763 16.5005 26.6175C16.5005 26.866 16.6101 27.0049 16.8733 26.9976C18.2474 26.9976 19.6287 26.9976 21.0028 26.9976C21.3391 26.9976 21.3975 26.793 21.3902 26.5225C21.3902 24.9145 21.3902 23.3065 21.3902 21.6985C21.3902 21.5962 21.361 21.4792 21.4049 21.3915C21.4487 21.2965 21.5511 21.2234 21.6315 21.143C21.7119 21.2234 21.8143 21.2965 21.8581 21.3988C21.8947 21.4865 21.8726 21.6035 21.8726 21.7058C21.8726 23.2919 21.8726 24.8706 21.8726 26.4567C21.8726 26.9464 21.9239 26.9976 22.399 26.9976C22.7791 26.9976 23.159 26.9757 23.5318 26.9976C23.8972 27.0195 24.1531 26.9026 24.3066 26.5737C24.3066 25.0095 24.3066 23.4527 24.3066 21.8885L24.3212 21.8958Z" fill="#0671B8"/>
<path d="M21.5072 21.9467C21.5072 23.3355 21.5072 24.7242 21.5072 26.1129C21.5072 26.2152 21.5072 26.3176 21.5072 26.4199C21.5316 26.7951 21.3489 26.9827 20.959 26.9827C19.563 26.9827 18.1597 26.9827 16.7636 26.9827C16.3543 26.9827 16.3105 26.9023 16.2667 26.5076C16.2009 25.9009 16.3837 25.499 16.8953 25.1116C18.3279 24.0225 19.2489 22.5388 19.8336 20.843C20.1917 19.7905 20.5645 18.7453 20.93 17.7001C20.9592 17.6271 20.9591 17.5247 21.0103 17.4736C21.1126 17.3712 21.2441 17.2982 21.3611 17.2104C21.4049 17.3274 21.4928 17.437 21.4928 17.554C21.5001 19.0231 21.4928 20.4922 21.4928 21.9614L21.5072 21.9467Z" fill="#0671B8"/>
<path d="M17.4507 23.8694C17.4507 23.3358 17.4361 22.8023 17.4507 22.2687C17.4653 21.7059 17.3117 21.2308 16.822 20.8654C17.2167 20.5072 17.4872 20.0979 17.436 19.5424C17.4726 19.5205 17.5091 19.4985 17.5456 19.4766C17.6406 19.6009 17.7211 19.7324 17.8235 19.8421C18.0939 20.1271 18.2401 20.0979 18.3863 19.7324C18.759 18.7749 19.1243 17.8101 19.5044 16.8526C19.5775 16.6772 19.7531 16.3922 19.8481 16.4068C20.1112 16.4433 20.3669 16.5968 20.6081 16.7357C20.6592 16.7649 20.6812 16.9404 20.652 17.0208C19.9649 18.8407 19.5338 20.7557 18.569 22.4661C18.2766 22.9777 17.8965 23.4382 17.5529 23.9206L17.436 23.8767L17.4507 23.8694Z" fill="#0671B8"/>
<path d="M15.2069 20.8357C14.1836 21.6544 14.7172 22.7873 14.5199 23.8179C14.4176 23.7009 14.3298 23.6132 14.2494 23.5109C13.555 22.6557 13.0435 21.6982 12.6926 20.6603C12.2906 19.4909 11.8959 18.3141 11.5158 17.1373C11.4646 16.9838 11.4647 16.7134 11.5524 16.6476C11.757 16.5015 12.0201 16.4283 12.2686 16.3918C12.3344 16.3845 12.466 16.5891 12.5172 16.7207C12.8754 17.6855 13.2188 18.6577 13.5697 19.6298C13.7524 20.1268 13.862 20.156 14.2421 19.7613C14.3298 19.6736 14.4101 19.5786 14.5636 19.4105C14.5782 20.0317 14.7391 20.4922 15.2215 20.843L15.2069 20.8357Z" fill="#0671B8"/>
<path d="M16.0986 25.1552C15.2653 24.7971 14.8926 24.2416 15.0315 23.3572C15.0972 22.9552 15.0315 22.5312 15.0461 22.1219C15.0607 21.508 15.4626 21.0986 16.0181 21.0986C16.5809 21.0986 16.9683 21.508 16.9756 22.1292C16.9829 22.7944 16.9683 23.4595 16.9829 24.1173C16.9902 24.3731 16.9172 24.5486 16.7053 24.6947C16.4933 24.8409 16.2886 25.0163 16.0986 25.1552Z" fill="#0671B8"/>
<path d="M13.9131 19.1915C13.6134 18.3582 13.2845 17.4446 12.9629 16.531C12.8532 16.2167 12.9338 16.0778 13.2554 16.0194C13.4235 15.9901 13.5988 15.939 13.767 15.9609C13.8912 15.9755 14.0739 16.0559 14.1178 16.1509C14.4321 16.8599 14.9583 17.3057 15.755 17.5104C15.1118 18.0951 14.5124 18.6506 13.9131 19.1915Z" fill="#0671B8"/>
<path d="M18.028 19.3449C17.4506 18.7382 16.9098 18.1608 16.347 17.5615C16.4348 17.5249 16.4859 17.4884 16.5444 17.4811C17.2461 17.3349 17.7357 16.9183 18.0499 16.2897C18.2181 15.9461 18.7956 15.8438 19.0514 16.1289C19.1245 16.2166 19.1464 16.4139 19.1026 16.5308C18.7591 17.4518 18.4008 18.3728 18.028 19.3449Z" fill="#0671B8"/>
<path d="M16.0109 17.9121C16.3106 18.2264 16.5956 18.5115 16.8587 18.8112C17.0414 19.0158 17.0048 19.849 16.8148 20.156C16.5955 20.5068 16.1863 20.6676 15.7696 20.5726C15.3749 20.4776 15.0899 20.1341 15.0387 19.6736C14.9876 19.2132 15.0242 18.7965 15.4481 18.4896C15.6527 18.3361 15.8135 18.1168 16.0036 17.9194L16.0109 17.9121Z" fill="#0671B8"/>
</svg>
