<svg width="97" height="28" viewBox="0 0 97 28" fill="none" xmlns="http://www.w3.org/2000/svg">
<path d="M5.98384 2.90083C5.93271 2.46902 5.72532 2.13379 5.36168 1.89515C4.99805 1.65652 4.55202 1.5372 4.02362 1.5372C3.63725 1.5372 3.29918 1.5997 3.00941 1.7247C2.72248 1.8497 2.49805 2.02157 2.33612 2.24032C2.17702 2.45907 2.09748 2.70765 2.09748 2.98606C2.09748 3.21902 2.15288 3.4193 2.26367 3.58691C2.37731 3.75169 2.52219 3.88947 2.69833 4.00027C2.87447 4.10822 3.05913 4.19771 3.25231 4.26873C3.44549 4.33691 3.62305 4.39231 3.78498 4.43493L4.67134 4.67356C4.89862 4.73322 5.15146 4.81561 5.42987 4.92072C5.71112 5.02583 5.97958 5.1693 6.23526 5.35112C6.49379 5.5301 6.70685 5.76021 6.87447 6.04146C7.04208 6.32271 7.12589 6.66788 7.12589 7.07697C7.12589 7.54856 7.00231 7.9747 6.75515 8.35538C6.51083 8.73606 6.15288 9.03862 5.68129 9.26305C5.21254 9.48748 4.64293 9.5997 3.97248 9.5997C3.34748 9.5997 2.80629 9.49885 2.3489 9.29714C1.89435 9.09544 1.5364 8.81419 1.27504 8.45339C1.01651 8.0926 0.870206 7.67356 0.836115 7.19629H1.92702C1.95543 7.52583 2.06623 7.79856 2.25941 8.01447C2.45543 8.22754 2.70259 8.38663 3.00089 8.49174C3.30202 8.59402 3.62589 8.64515 3.97248 8.64515C4.37589 8.64515 4.7381 8.57981 5.05913 8.44913C5.38015 8.31561 5.63441 8.13095 5.82191 7.89515C6.00941 7.65652 6.10316 7.37811 6.10316 7.05993C6.10316 6.77015 6.02219 6.53436 5.86026 6.35254C5.69833 6.17072 5.48526 6.02299 5.22106 5.90936C4.95685 5.79572 4.67134 5.69629 4.36452 5.61106L3.29066 5.30424C2.60884 5.10822 2.06907 4.82839 1.67134 4.46475C1.27362 4.10112 1.07475 3.62527 1.07475 3.0372C1.07475 2.54856 1.20685 2.12243 1.47106 1.75879C1.7381 1.39231 2.09606 1.10822 2.54492 0.906516C2.99663 0.701971 3.50089 0.599698 4.05771 0.599698C4.62021 0.599698 5.12021 0.70055 5.55771 0.902255C5.99521 1.10112 6.3418 1.37385 6.59748 1.72044C6.856 2.06703 6.99237 2.46049 7.00657 2.90083H5.98384ZM12.8521 6.77015V2.90083H13.8578V9.44629H12.8521V8.33833H12.7839C12.6305 8.67072 12.3919 8.95339 12.068 9.18635C11.7441 9.41646 11.335 9.53152 10.8407 9.53152C10.4316 9.53152 10.068 9.44203 9.74982 9.26305C9.43164 9.08123 9.18164 8.8085 8.99982 8.44487C8.818 8.07839 8.7271 7.61674 8.7271 7.05993V2.90083H9.73278V6.99174C9.73278 7.46902 9.8663 7.8497 10.1333 8.13379C10.4032 8.41788 10.747 8.55993 11.1646 8.55993C11.4146 8.55993 11.6689 8.496 11.9274 8.36816C12.1887 8.24032 12.4075 8.0443 12.5836 7.7801C12.7626 7.51589 12.8521 7.17924 12.8521 6.77015ZM15.6998 11.9008V2.90083H16.6713V3.94061H16.7907C16.8645 3.82697 16.9668 3.68208 17.0975 3.50595C17.231 3.32697 17.4213 3.16788 17.6685 3.02868C17.9185 2.88663 18.2566 2.81561 18.6827 2.81561C19.2338 2.81561 19.7196 2.95339 20.1401 3.22896C20.5605 3.50453 20.8887 3.89515 21.1245 4.40083C21.3603 4.90652 21.4782 5.50311 21.4782 6.19061C21.4782 6.88379 21.3603 7.48464 21.1245 7.99316C20.8887 8.49885 20.562 8.89089 20.1444 9.1693C19.7267 9.44487 19.2452 9.58265 18.6998 9.58265C18.2793 9.58265 17.9426 9.51305 17.6898 9.37385C17.437 9.2318 17.2424 9.07129 17.106 8.89231C16.9696 8.71049 16.8645 8.55993 16.7907 8.44061H16.7054V11.9008H15.6998ZM16.6884 6.17356C16.6884 6.66788 16.7608 7.10396 16.9057 7.4818C17.0506 7.8568 17.2623 8.15083 17.5407 8.3639C17.8191 8.57413 18.16 8.67924 18.5634 8.67924C18.9838 8.67924 19.3347 8.56845 19.6159 8.34686C19.9 8.12243 20.1131 7.82129 20.2551 7.44345C20.4 7.06277 20.4725 6.63947 20.4725 6.17356C20.4725 5.71333 20.4015 5.29856 20.2594 4.92924C20.1202 4.55708 19.9086 4.26305 19.6245 4.04714C19.3432 3.82839 18.9895 3.71902 18.5634 3.71902C18.1543 3.71902 17.8105 3.82271 17.5321 4.0301C17.2537 4.23464 17.0435 4.52157 16.9015 4.89089C16.7594 5.25737 16.6884 5.68493 16.6884 6.17356ZM25.7566 9.58265C25.1259 9.58265 24.5819 9.44345 24.1245 9.16504C23.6699 8.88379 23.3191 8.49174 23.0719 7.9889C22.8276 7.48322 22.7054 6.89515 22.7054 6.2247C22.7054 5.55424 22.8276 4.96333 23.0719 4.45197C23.3191 3.93777 23.6628 3.5372 24.1032 3.25027C24.5463 2.96049 25.0634 2.81561 25.6543 2.81561C25.9952 2.81561 26.3319 2.87243 26.6642 2.98606C26.9966 3.0997 27.2992 3.28436 27.5719 3.54004C27.8446 3.79288 28.062 4.12811 28.2239 4.54572C28.3858 4.96333 28.4668 5.47754 28.4668 6.08833V6.51447H23.4213V5.64515H27.4441C27.4441 5.27583 27.3702 4.94629 27.2225 4.65652C27.0776 4.36674 26.8702 4.13805 26.6003 3.97044C26.3333 3.80282 26.0179 3.71902 25.6543 3.71902C25.2537 3.71902 24.9071 3.81845 24.6145 4.01731C24.3248 4.21333 24.1017 4.46902 23.9455 4.78436C23.7892 5.0997 23.7111 5.43777 23.7111 5.79856V6.37811C23.7111 6.87243 23.7963 7.29146 23.9668 7.63521C24.1401 7.97612 24.3801 8.23606 24.687 8.41504C24.9938 8.59118 25.3503 8.67924 25.7566 8.67924C26.0208 8.67924 26.2594 8.64231 26.4725 8.56845C26.6884 8.49174 26.8745 8.37811 27.0307 8.22754C27.187 8.07413 27.3077 7.88379 27.3929 7.65652L28.3645 7.92924C28.2623 8.25879 28.0904 8.54856 27.8489 8.79856C27.6074 9.04572 27.3091 9.2389 26.954 9.37811C26.5989 9.51447 26.1998 9.58265 25.7566 9.58265ZM29.9966 9.44629V2.90083H30.9682V3.88947H31.0364C31.1557 3.56561 31.3716 3.30282 31.6841 3.10112C31.9966 2.89941 32.3489 2.79856 32.7409 2.79856C32.8148 2.79856 32.9071 2.79998 33.0179 2.80282C33.1287 2.80566 33.2125 2.80993 33.2694 2.81561V3.83833C33.2353 3.82981 33.1571 3.81703 33.035 3.79998C32.9157 3.7801 32.7892 3.77015 32.6557 3.77015C32.3375 3.77015 32.0534 3.83691 31.8034 3.97044C31.5563 4.10112 31.3603 4.28294 31.2154 4.51589C31.0733 4.746 31.0023 5.00879 31.0023 5.30424V9.44629H29.9966ZM40.013 2.90083L37.5925 9.44629H36.5698L34.1493 2.90083H35.2402L37.0471 8.11674H37.1152L38.9221 2.90083H40.013ZM41.3404 9.44629V2.90083H42.3461V9.44629H41.3404ZM41.8517 1.80993C41.6557 1.80993 41.4867 1.74316 41.3446 1.60964C41.2054 1.47612 41.1358 1.31561 41.1358 1.12811C41.1358 0.940607 41.2054 0.780096 41.3446 0.646573C41.4867 0.51305 41.6557 0.446289 41.8517 0.446289C42.0478 0.446289 42.2154 0.51305 42.3546 0.646573C42.4966 0.780096 42.5676 0.940607 42.5676 1.12811C42.5676 1.31561 42.4966 1.47612 42.3546 1.60964C42.2154 1.74316 42.0478 1.80993 41.8517 1.80993ZM48.8244 4.36674L47.921 4.62243C47.8642 4.47186 47.7804 4.32555 47.6696 4.1835C47.5616 4.03862 47.4139 3.9193 47.2264 3.82555C47.0389 3.7318 46.7988 3.68493 46.5062 3.68493C46.1056 3.68493 45.7718 3.77725 45.5048 3.96191C45.2406 4.14373 45.1085 4.37527 45.1085 4.65652C45.1085 4.90652 45.1994 5.10396 45.3812 5.24885C45.563 5.39373 45.8471 5.51447 46.2335 5.61106L47.2051 5.8497C47.7903 5.99174 48.2264 6.20907 48.5133 6.50169C48.8002 6.79146 48.9437 7.16504 48.9437 7.62243C48.9437 7.99743 48.8358 8.33265 48.6199 8.62811C48.4068 8.92356 48.1085 9.15652 47.725 9.32697C47.3414 9.49743 46.8954 9.58265 46.3869 9.58265C45.7193 9.58265 45.1667 9.43777 44.7292 9.14799C44.2917 8.85822 44.0147 8.43493 43.8983 7.87811L44.8528 7.63947C44.9437 7.99174 45.1156 8.25595 45.3684 8.43208C45.6241 8.60822 45.9579 8.69629 46.3699 8.69629C46.8386 8.69629 47.2108 8.59686 47.4863 8.39799C47.7647 8.19629 47.9039 7.95481 47.9039 7.67356C47.9039 7.44629 47.8244 7.25595 47.6653 7.10254C47.5062 6.94629 47.2619 6.82981 46.9324 6.75311L45.8414 6.49743C45.242 6.35538 44.8017 6.13521 44.5204 5.83691C44.242 5.53578 44.1028 5.15936 44.1028 4.70765C44.1028 4.33833 44.2065 4.01163 44.4139 3.72754C44.6241 3.44345 44.9096 3.22044 45.2704 3.0585C45.6341 2.89657 46.046 2.81561 46.5062 2.81561C47.1539 2.81561 47.6625 2.95765 48.0318 3.24174C48.4039 3.52583 48.6681 3.90083 48.8244 4.36674ZM53.1167 9.58265C52.5257 9.58265 52.0073 9.44203 51.5613 9.16078C51.1181 8.87953 50.7715 8.48606 50.5215 7.98038C50.2743 7.4747 50.1507 6.88379 50.1507 6.20765C50.1507 5.52583 50.2743 4.93066 50.5215 4.42214C50.7715 3.91362 51.1181 3.51873 51.5613 3.23748C52.0073 2.95623 52.5257 2.81561 53.1167 2.81561C53.7076 2.81561 54.2246 2.95623 54.6678 3.23748C55.1138 3.51873 55.4604 3.91362 55.7076 4.42214C55.9576 4.93066 56.0826 5.52583 56.0826 6.20765C56.0826 6.88379 55.9576 7.4747 55.7076 7.98038C55.4604 8.48606 55.1138 8.87953 54.6678 9.16078C54.2246 9.44203 53.7076 9.58265 53.1167 9.58265ZM53.1167 8.67924C53.5655 8.67924 53.9348 8.56419 54.2246 8.33407C54.5144 8.10396 54.7289 7.8014 54.8681 7.4264C55.0073 7.0514 55.0769 6.64515 55.0769 6.20765C55.0769 5.77015 55.0073 5.36248 54.8681 4.98464C54.7289 4.6068 54.5144 4.3014 54.2246 4.06845C53.9348 3.83549 53.5655 3.71902 53.1167 3.71902C52.6678 3.71902 52.2985 3.83549 52.0087 4.06845C51.7189 4.3014 51.5044 4.6068 51.3652 4.98464C51.226 5.36248 51.1564 5.77015 51.1564 6.20765C51.1564 6.64515 51.226 7.0514 51.3652 7.4264C51.5044 7.8014 51.7189 8.10396 52.0087 8.33407C52.2985 8.56419 52.6678 8.67924 53.1167 8.67924ZM57.6177 9.44629V2.90083H58.5893V3.88947H58.6575C58.7768 3.56561 58.9927 3.30282 59.3052 3.10112C59.6177 2.89941 59.97 2.79856 60.362 2.79856C60.4359 2.79856 60.5282 2.79998 60.639 2.80282C60.7498 2.80566 60.8336 2.80993 60.8904 2.81561V3.83833C60.8564 3.82981 60.7782 3.81703 60.6561 3.79998C60.5368 3.7801 60.4103 3.77015 60.2768 3.77015C59.9586 3.77015 59.6745 3.83691 59.4245 3.97044C59.1774 4.10112 58.9814 4.28294 58.8365 4.51589C58.6944 4.746 58.6234 5.00879 58.6234 5.30424V9.44629H57.6177ZM72.9576 5.08265C72.9576 6.00311 72.7914 6.79856 72.459 7.46902C72.1266 8.13947 71.6706 8.65652 71.0911 9.02015C70.5115 9.38379 69.8496 9.56561 69.1053 9.56561C68.361 9.56561 67.699 9.38379 67.1195 9.02015C66.54 8.65652 66.084 8.13947 65.7516 7.46902C65.4192 6.79856 65.253 6.00311 65.253 5.08265C65.253 4.1622 65.4192 3.36674 65.7516 2.69629C66.084 2.02583 66.54 1.50879 67.1195 1.14515C67.699 0.781516 68.361 0.599698 69.1053 0.599698C69.8496 0.599698 70.5115 0.781516 71.0911 1.14515C71.6706 1.50879 72.1266 2.02583 72.459 2.69629C72.7914 3.36674 72.9576 4.1622 72.9576 5.08265ZM71.9348 5.08265C71.9348 4.32697 71.8084 3.68919 71.5556 3.1693C71.3056 2.64941 70.9661 2.25595 70.5371 1.9889C70.111 1.72186 69.6337 1.58833 69.1053 1.58833C68.5769 1.58833 68.0982 1.72186 67.6692 1.9889C67.2431 2.25595 66.9036 2.64941 66.6507 3.1693C66.4007 3.68919 66.2757 4.32697 66.2757 5.08265C66.2757 5.83833 66.4007 6.47612 66.6507 6.996C66.9036 7.51589 67.2431 7.90936 67.6692 8.1764C68.0982 8.44345 68.5769 8.57697 69.1053 8.57697C69.6337 8.57697 70.111 8.44345 70.5371 8.1764C70.9661 7.90936 71.3056 7.51589 71.5556 6.996C71.8084 6.47612 71.9348 5.83833 71.9348 5.08265ZM74.5982 9.44629V2.90083H75.5698V3.88947H75.638C75.7573 3.56561 75.9732 3.30282 76.2857 3.10112C76.5982 2.89941 76.9505 2.79856 77.3425 2.79856C77.4164 2.79856 77.5087 2.79998 77.6195 2.80282C77.7303 2.80566 77.8141 2.80993 77.8709 2.81561V3.83833C77.8368 3.82981 77.7587 3.81703 77.6365 3.79998C77.5172 3.7801 77.3908 3.77015 77.2573 3.77015C76.9391 3.77015 76.655 3.83691 76.405 3.97044C76.1578 4.10112 75.9618 4.28294 75.8169 4.51589C75.6749 4.746 75.6039 5.00879 75.6039 5.30424V9.44629H74.5982ZM81.3354 9.58265C80.79 9.58265 80.3084 9.44487 79.8908 9.1693C79.4732 8.89089 79.1465 8.49885 78.9107 7.99316C78.6749 7.48464 78.557 6.88379 78.557 6.19061C78.557 5.50311 78.6749 4.90652 78.9107 4.40083C79.1465 3.89515 79.4746 3.50453 79.8951 3.22896C80.3155 2.95339 80.8013 2.81561 81.3525 2.81561C81.7786 2.81561 82.1152 2.88663 82.3624 3.02868C82.6124 3.16788 82.8027 3.32697 82.9334 3.50595C83.0669 3.68208 83.1706 3.82697 83.2445 3.94061H83.3297V0.719016H84.3354V9.44629H83.3638V8.44061H83.2445C83.1706 8.55993 83.0655 8.71049 82.9292 8.89231C82.7928 9.07129 82.5982 9.2318 82.3453 9.37385C82.0925 9.51305 81.7559 9.58265 81.3354 9.58265ZM81.4718 8.67924C81.8752 8.67924 82.2161 8.57413 82.4945 8.3639C82.7729 8.15083 82.9846 7.8568 83.1294 7.4818C83.2743 7.10396 83.3468 6.66788 83.3468 6.17356C83.3468 5.68493 83.2757 5.25737 83.1337 4.89089C82.9917 4.52157 82.7814 4.23464 82.503 4.0301C82.2246 3.82271 81.8809 3.71902 81.4718 3.71902C81.0456 3.71902 80.6905 3.82839 80.4064 4.04714C80.1252 4.26305 79.9135 4.55708 79.7715 4.92924C79.6323 5.29856 79.5627 5.71333 79.5627 6.17356C79.5627 6.63947 79.6337 7.06277 79.7757 7.44345C79.9206 7.82129 80.1337 8.12243 80.415 8.34686C80.699 8.56845 81.0513 8.67924 81.4718 8.67924ZM89.0613 9.58265C88.4306 9.58265 87.8865 9.44345 87.4292 9.16504C86.9746 8.88379 86.6238 8.49174 86.3766 7.9889C86.1323 7.48322 86.0101 6.89515 86.0101 6.2247C86.0101 5.55424 86.1323 4.96333 86.3766 4.45197C86.6238 3.93777 86.9675 3.5372 87.4078 3.25027C87.851 2.96049 88.3681 2.81561 88.959 2.81561C89.2999 2.81561 89.6365 2.87243 89.9689 2.98606C90.3013 3.0997 90.6039 3.28436 90.8766 3.54004C91.1493 3.79288 91.3667 4.12811 91.5286 4.54572C91.6905 4.96333 91.7715 5.47754 91.7715 6.08833V6.51447H86.726V5.64515H90.7488C90.7488 5.27583 90.6749 4.94629 90.5272 4.65652C90.3823 4.36674 90.1749 4.13805 89.905 3.97044C89.638 3.80282 89.3226 3.71902 88.959 3.71902C88.5584 3.71902 88.2118 3.81845 87.9192 4.01731C87.6294 4.21333 87.4064 4.46902 87.2502 4.78436C87.0939 5.0997 87.0158 5.43777 87.0158 5.79856V6.37811C87.0158 6.87243 87.101 7.29146 87.2715 7.63521C87.4448 7.97612 87.6848 8.23606 87.9917 8.41504C88.2985 8.59118 88.655 8.67924 89.0613 8.67924C89.3255 8.67924 89.5641 8.64231 89.7772 8.56845C89.9931 8.49174 90.1792 8.37811 90.3354 8.22754C90.4917 8.07413 90.6124 7.88379 90.6976 7.65652L91.6692 7.92924C91.5669 8.25879 91.3951 8.54856 91.1536 8.79856C90.9121 9.04572 90.6138 9.2389 90.2587 9.37811C89.9036 9.51447 89.5044 9.58265 89.0613 9.58265ZM93.3013 9.44629V2.90083H94.2729V3.88947H94.3411C94.4604 3.56561 94.6763 3.30282 94.9888 3.10112C95.3013 2.89941 95.6536 2.79856 96.0456 2.79856C96.1195 2.79856 96.2118 2.79998 96.3226 2.80282C96.4334 2.80566 96.5172 2.80993 96.574 2.81561V3.83833C96.54 3.82981 96.4618 3.81703 96.3397 3.79998C96.2203 3.7801 96.0939 3.77015 95.9604 3.77015C95.6422 3.77015 95.3581 3.83691 95.1081 3.97044C94.861 4.10112 94.665 4.28294 94.5201 4.51589C94.378 4.746 94.307 5.00879 94.307 5.30424V9.44629H93.3013ZM2.75799 24.4463V15.719H5.80913C6.41708 15.719 6.9185 15.8241 7.31339 16.0344C7.70827 16.2417 8.00231 16.5216 8.19549 16.8738C8.38867 17.2233 8.48526 17.6111 8.48526 18.0372C8.48526 18.4122 8.4185 18.7219 8.28498 18.9662C8.1543 19.2105 7.981 19.4037 7.76509 19.5457C7.55202 19.6878 7.32049 19.7929 7.07049 19.8611V19.9463C7.33754 19.9633 7.606 20.0571 7.87589 20.2275C8.14577 20.398 8.37163 20.6423 8.55344 20.9605C8.73526 21.2787 8.82617 21.6679 8.82617 22.1281C8.82617 22.5656 8.72674 22.9591 8.52788 23.3085C8.32901 23.6579 8.01509 23.9349 7.58612 24.1395C7.15714 24.344 6.5989 24.4463 5.9114 24.4463H2.75799ZM3.81481 23.5088H5.9114C6.60174 23.5088 7.0918 23.3753 7.38157 23.1082C7.67418 22.8383 7.82049 22.5116 7.82049 22.1281C7.82049 21.8327 7.74521 21.5599 7.59464 21.3099C7.44407 21.0571 7.22958 20.8554 6.95117 20.7048C6.67276 20.5514 6.34322 20.4747 5.96254 20.4747H3.81481V23.5088ZM3.81481 19.5542H5.77504C6.09322 19.5542 6.38015 19.4917 6.63583 19.3667C6.89435 19.2417 7.0989 19.0656 7.24947 18.8383C7.40288 18.6111 7.47958 18.344 7.47958 18.0372C7.47958 17.6537 7.34606 17.3284 7.07901 17.0613C6.81197 16.7915 6.38867 16.6565 5.80913 16.6565H3.81481V19.5542ZM13.0854 24.5827C12.4945 24.5827 11.976 24.442 11.53 24.1608C11.0868 23.8795 10.7402 23.4861 10.4902 22.9804C10.2431 22.4747 10.1195 21.8838 10.1195 21.2077C10.1195 20.5258 10.2431 19.9307 10.4902 19.4221C10.7402 18.9136 11.0868 18.5187 11.53 18.2375C11.976 17.9562 12.4945 17.8156 13.0854 17.8156C13.6763 17.8156 14.1934 17.9562 14.6365 18.2375C15.0826 18.5187 15.4292 18.9136 15.6763 19.4221C15.9263 19.9307 16.0513 20.5258 16.0513 21.2077C16.0513 21.8838 15.9263 22.4747 15.6763 22.9804C15.4292 23.4861 15.0826 23.8795 14.6365 24.1608C14.1934 24.442 13.6763 24.5827 13.0854 24.5827ZM13.0854 23.6792C13.5343 23.6792 13.9036 23.5642 14.1934 23.3341C14.4831 23.104 14.6976 22.8014 14.8368 22.4264C14.976 22.0514 15.0456 21.6452 15.0456 21.2077C15.0456 20.7702 14.976 20.3625 14.8368 19.9846C14.6976 19.6068 14.4831 19.3014 14.1934 19.0684C13.9036 18.8355 13.5343 18.719 13.0854 18.719C12.6365 18.719 12.2672 18.8355 11.9775 19.0684C11.6877 19.3014 11.4732 19.6068 11.334 19.9846C11.1948 20.3625 11.1252 20.7702 11.1252 21.2077C11.1252 21.6452 11.1948 22.0514 11.334 22.4264C11.4732 22.8014 11.6877 23.104 11.9775 23.3341C12.2672 23.5642 12.6365 23.6792 13.0854 23.6792ZM20.2456 24.5827C19.6547 24.5827 19.1362 24.442 18.6902 24.1608C18.247 23.8795 17.9004 23.4861 17.6504 22.9804C17.4032 22.4747 17.2797 21.8838 17.2797 21.2077C17.2797 20.5258 17.4032 19.9307 17.6504 19.4221C17.9004 18.9136 18.247 18.5187 18.6902 18.2375C19.1362 17.9562 19.6547 17.8156 20.2456 17.8156C20.8365 17.8156 21.3535 17.9562 21.7967 18.2375C22.2427 18.5187 22.5893 18.9136 22.8365 19.4221C23.0865 19.9307 23.2115 20.5258 23.2115 21.2077C23.2115 21.8838 23.0865 22.4747 22.8365 22.9804C22.5893 23.4861 22.2427 23.8795 21.7967 24.1608C21.3535 24.442 20.8365 24.5827 20.2456 24.5827ZM20.2456 23.6792C20.6944 23.6792 21.0637 23.5642 21.3535 23.3341C21.6433 23.104 21.8578 22.8014 21.997 22.4264C22.1362 22.0514 22.2058 21.6452 22.2058 21.2077C22.2058 20.7702 22.1362 20.3625 21.997 19.9846C21.8578 19.6068 21.6433 19.3014 21.3535 19.0684C21.0637 18.8355 20.6944 18.719 20.2456 18.719C19.7967 18.719 19.4274 18.8355 19.1376 19.0684C18.8478 19.3014 18.6333 19.6068 18.4941 19.9846C18.3549 20.3625 18.2853 20.7702 18.2853 21.2077C18.2853 21.6452 18.3549 22.0514 18.4941 22.4264C18.6333 22.8014 18.8478 23.104 19.1376 23.3341C19.4274 23.5642 19.7967 23.6792 20.2456 23.6792ZM25.6841 22.0599L25.6671 20.8156H25.8716L28.7353 17.9008H29.9796L26.9284 20.9861H26.8432L25.6841 22.0599ZM24.7466 24.4463V15.719H25.7523V24.4463H24.7466ZM28.9057 24.4463L26.3489 21.2077L27.0648 20.5088L30.1841 24.4463H28.9057ZM33.7488 24.5827C33.1181 24.5827 32.574 24.4434 32.1167 24.165C31.6621 23.8838 31.3113 23.4917 31.0641 22.9889C30.8198 22.4832 30.6976 21.8952 30.6976 21.2247C30.6976 20.5542 30.8198 19.9633 31.0641 19.452C31.3113 18.9378 31.655 18.5372 32.0953 18.2503C32.5385 17.9605 33.0556 17.8156 33.6465 17.8156C33.9874 17.8156 34.324 17.8724 34.6564 17.9861C34.9888 18.0997 35.2914 18.2844 35.5641 18.54C35.8368 18.7929 36.0542 19.1281 36.2161 19.5457C36.378 19.9633 36.459 20.4775 36.459 21.0883V21.5145H31.4135V20.6452H35.4363C35.4363 20.2758 35.3624 19.9463 35.2147 19.6565C35.0698 19.3667 34.8624 19.1381 34.5925 18.9704C34.3255 18.8028 34.0101 18.719 33.6465 18.719C33.2459 18.719 32.8993 18.8184 32.6067 19.0173C32.3169 19.2133 32.0939 19.469 31.9377 19.7844C31.7814 20.0997 31.7033 20.4378 31.7033 20.7986V21.3781C31.7033 21.8724 31.7885 22.2915 31.959 22.6352C32.1323 22.9761 32.3723 23.2361 32.6792 23.415C32.986 23.5912 33.3425 23.6792 33.7488 23.6792C34.013 23.6792 34.2516 23.6423 34.4647 23.5684C34.6806 23.4917 34.8667 23.3781 35.0229 23.2275C35.1792 23.0741 35.2999 22.8838 35.3851 22.6565L36.3567 22.9292C36.2544 23.2588 36.0826 23.5486 35.8411 23.7986C35.5996 24.0457 35.3013 24.2389 34.9462 24.3781C34.5911 24.5145 34.1919 24.5827 33.7488 24.5827ZM37.9888 24.4463V17.9008H38.9604V18.8895H39.0286C39.1479 18.5656 39.3638 18.3028 39.6763 18.1011C39.9888 17.8994 40.3411 17.7986 40.7331 17.7986C40.807 17.7986 40.8993 17.8 41.0101 17.8028C41.1209 17.8057 41.2047 17.8099 41.2615 17.8156V18.8383C41.2275 18.8298 41.1493 18.817 41.0272 18.8C40.9078 18.7801 40.7814 18.7702 40.6479 18.7702C40.3297 18.7702 40.0456 18.8369 39.7956 18.9704C39.5485 19.1011 39.3525 19.2829 39.2076 19.5159C39.0655 19.746 38.9945 20.0088 38.9945 20.3042V24.4463H37.9888ZM50.7377 17.9008C50.6866 17.469 50.4792 17.1338 50.1156 16.8952C49.752 16.6565 49.3059 16.5372 48.7775 16.5372C48.3912 16.5372 48.0531 16.5997 47.7633 16.7247C47.4764 16.8497 47.252 17.0216 47.09 17.2403C46.9309 17.4591 46.8514 17.7077 46.8514 17.9861C46.8514 18.219 46.9068 18.4193 47.0176 18.5869C47.1312 18.7517 47.2761 18.8895 47.4522 19.0003C47.6284 19.1082 47.813 19.1977 48.0062 19.2687C48.1994 19.3369 48.377 19.3923 48.5389 19.4349L49.4252 19.6736C49.6525 19.7332 49.9054 19.8156 50.1838 19.9207C50.465 20.0258 50.7335 20.1693 50.9892 20.3511C51.2477 20.5301 51.4608 20.7602 51.6284 21.0415C51.796 21.3227 51.8798 21.6679 51.8798 22.077C51.8798 22.5486 51.7562 22.9747 51.5091 23.3554C51.2647 23.7361 50.9068 24.0386 50.4352 24.2631C49.9664 24.4875 49.3968 24.5997 48.7264 24.5997C48.1014 24.5997 47.5602 24.4988 47.1028 24.2971C46.6483 24.0954 46.2903 23.8142 46.0289 23.4534C45.7704 23.0926 45.6241 22.6736 45.59 22.1963H46.6809C46.7093 22.5258 46.8201 22.7986 47.0133 23.0145C47.2093 23.2275 47.4565 23.3866 47.7548 23.4917C48.0559 23.594 48.3798 23.6452 48.7264 23.6452C49.1298 23.6452 49.492 23.5798 49.813 23.4491C50.1341 23.3156 50.3883 23.1309 50.5758 22.8952C50.7633 22.6565 50.8571 22.3781 50.8571 22.0599C50.8571 21.7702 50.7761 21.5344 50.6142 21.3525C50.4522 21.1707 50.2392 21.023 49.975 20.9094C49.7108 20.7957 49.4252 20.6963 49.1184 20.6111L48.0446 20.3042C47.3627 20.1082 46.823 19.8284 46.4252 19.4648C46.0275 19.1011 45.8287 18.6253 45.8287 18.0372C45.8287 17.5486 45.9608 17.1224 46.225 16.7588C46.492 16.3923 46.85 16.1082 47.2988 15.9065C47.7505 15.702 48.2548 15.5997 48.8116 15.5997C49.3741 15.5997 49.8741 15.7006 50.3116 15.9023C50.7491 16.1011 51.0957 16.3738 51.3514 16.7204C51.6099 17.067 51.7463 17.4605 51.7605 17.9008H50.7377ZM54.4867 20.5088V24.4463H53.481V15.719H54.4867V18.9236H54.5719C54.7253 18.5855 54.9554 18.317 55.2623 18.1182C55.5719 17.9165 55.9838 17.8156 56.498 17.8156C56.9441 17.8156 57.3347 17.9051 57.6699 18.0841C58.0051 18.2602 58.2651 18.5315 58.4498 18.898C58.6373 19.2616 58.731 19.7247 58.731 20.2872V24.4463H57.7253V20.3554C57.7253 19.8355 57.5904 19.4335 57.3205 19.1494C57.0534 18.8625 56.6827 18.719 56.2083 18.719C55.8787 18.719 55.5833 18.7886 55.3219 18.9278C55.0634 19.067 54.8588 19.2702 54.7083 19.5372C54.5605 19.8042 54.4867 20.1281 54.4867 20.5088ZM64.6958 21.7702V17.9008H65.7015V24.4463H64.6958V23.3383H64.6277C64.4743 23.6707 64.2356 23.9534 63.9118 24.1863C63.5879 24.4165 63.1788 24.5315 62.6845 24.5315C62.2754 24.5315 61.9118 24.442 61.5936 24.2631C61.2754 24.0812 61.0254 23.8085 60.8436 23.4449C60.6618 23.0784 60.5708 22.6167 60.5708 22.0599V17.9008H61.5765V21.9917C61.5765 22.469 61.71 22.8497 61.9771 23.1338C62.247 23.4179 62.5907 23.5599 63.0083 23.5599C63.2583 23.5599 63.5126 23.496 63.7711 23.3682C64.0325 23.2403 64.2512 23.0443 64.4274 22.7801C64.6064 22.5159 64.6958 22.1792 64.6958 21.7702ZM70.4583 17.9008V18.7531H66.9299V17.9008H70.4583ZM67.9867 24.4463V16.9974C67.9867 16.6224 68.0748 16.3099 68.2509 16.0599C68.427 15.8099 68.6557 15.6224 68.937 15.4974C69.2182 15.3724 69.5151 15.3099 69.8276 15.3099C70.0748 15.3099 70.2765 15.3298 70.4327 15.3696C70.589 15.4094 70.7054 15.4463 70.7821 15.4804L70.4924 16.3497C70.4412 16.3327 70.3702 16.3113 70.2793 16.2858C70.1912 16.2602 70.0748 16.2474 69.9299 16.2474C69.5975 16.2474 69.3574 16.3312 69.2097 16.4988C69.0648 16.6665 68.9924 16.9122 68.9924 17.2361V24.4463H67.9867ZM74.7825 17.9008V18.7531H71.2541V17.9008H74.7825ZM72.3109 24.4463V16.9974C72.3109 16.6224 72.399 16.3099 72.5751 16.0599C72.7512 15.8099 72.9799 15.6224 73.2612 15.4974C73.5424 15.3724 73.8393 15.3099 74.1518 15.3099C74.399 15.3099 74.6007 15.3298 74.7569 15.3696C74.9132 15.4094 75.0297 15.4463 75.1064 15.4804L74.8166 16.3497C74.7654 16.3327 74.6944 16.3113 74.6035 16.2858C74.5154 16.2602 74.399 16.2474 74.2541 16.2474C73.9217 16.2474 73.6816 16.3312 73.5339 16.4988C73.389 16.6665 73.3166 16.9122 73.3166 17.2361V24.4463H72.3109ZM77.1976 15.719V24.4463H76.1919V15.719H77.1976ZM79.0396 24.4463V17.9008H80.0453V24.4463H79.0396ZM79.551 16.8099C79.3549 16.8099 79.1859 16.7432 79.0439 16.6096C78.9047 16.4761 78.835 16.3156 78.835 16.1281C78.835 15.9406 78.9047 15.7801 79.0439 15.6466C79.1859 15.5131 79.3549 15.4463 79.551 15.4463C79.747 15.4463 79.9146 15.5131 80.0538 15.6466C80.1958 15.7801 80.2669 15.9406 80.2669 16.1281C80.2669 16.3156 80.1958 16.4761 80.0538 16.6096C79.9146 16.7432 79.747 16.8099 79.551 16.8099ZM82.8929 20.5088V24.4463H81.8873V17.9008H82.8588V18.9236H82.9441C83.0975 18.5912 83.3304 18.3241 83.6429 18.1224C83.9554 17.9179 84.3588 17.8156 84.8532 17.8156C85.2963 17.8156 85.6841 17.9065 86.0165 18.0883C86.3489 18.2673 86.6074 18.54 86.7921 18.9065C86.9767 19.2702 87.0691 19.7304 87.0691 20.2872V24.4463H86.0634V20.3554C86.0634 19.8412 85.9299 19.4406 85.6628 19.1537C85.3958 18.8639 85.0293 18.719 84.5634 18.719C84.2424 18.719 83.9554 18.7886 83.7026 18.9278C83.4526 19.067 83.2551 19.2702 83.1103 19.5372C82.9654 19.8042 82.8929 20.1281 82.8929 20.5088ZM91.5488 27.0372C91.063 27.0372 90.6454 26.9747 90.296 26.8497C89.9466 26.7275 89.6554 26.5656 89.4224 26.3639C89.1923 26.165 89.0091 25.952 88.8727 25.7247L89.6738 25.1622C89.7647 25.2815 89.8798 25.4179 90.019 25.5713C90.1582 25.7275 90.3485 25.8625 90.59 25.9761C90.8343 26.0926 91.1539 26.1508 91.5488 26.1508C92.0772 26.1508 92.5133 26.023 92.8571 25.7673C93.2008 25.5116 93.3727 25.1111 93.3727 24.5656V23.2361H93.2875C93.2136 23.3554 93.1085 23.5031 92.9721 23.6792C92.8386 23.8525 92.6454 24.0074 92.3926 24.1437C92.1426 24.2773 91.8045 24.344 91.3784 24.344C90.85 24.344 90.3755 24.219 89.9551 23.969C89.5375 23.719 89.2065 23.3554 88.9622 22.8781C88.7207 22.4008 88.6 21.8213 88.6 21.1395C88.6 20.469 88.7179 19.8852 88.9537 19.3881C89.1895 18.8881 89.5176 18.5017 89.938 18.229C90.3585 17.9534 90.8443 17.8156 91.3954 17.8156C91.8216 17.8156 92.1596 17.8866 92.4096 18.0287C92.6625 18.1679 92.8556 18.327 92.9892 18.5059C93.1255 18.6821 93.2306 18.827 93.3045 18.9406H93.4068V17.9008H94.3784V24.6338C94.3784 25.1963 94.2505 25.6537 93.9949 26.0059C93.742 26.3611 93.4011 26.621 92.9721 26.7858C92.546 26.9534 92.0716 27.0372 91.5488 27.0372ZM91.5147 23.4406C91.9181 23.4406 92.2591 23.3483 92.5375 23.1636C92.8159 22.979 93.0275 22.7133 93.1724 22.3667C93.3173 22.0202 93.3897 21.6054 93.3897 21.1224C93.3897 20.6508 93.3187 20.2346 93.1767 19.8738C93.0346 19.5131 92.8244 19.2304 92.546 19.0258C92.2676 18.8213 91.9238 18.719 91.5147 18.719C91.0886 18.719 90.7335 18.827 90.4494 19.0429C90.1681 19.2588 89.9565 19.5486 89.8145 19.9122C89.6752 20.2758 89.6056 20.6792 89.6056 21.1224C89.6056 21.577 89.6767 21.979 89.8187 22.3284C89.9636 22.675 90.1767 22.9477 90.4579 23.1466C90.742 23.3426 91.0943 23.4406 91.5147 23.4406Z" fill="black"/>
</svg>
