<svg width="32" height="32" viewBox="0 0 32 32" fill="none" xmlns="http://www.w3.org/2000/svg">
<path d="M16.2685 26.8478C15.8668 26.6735 15.7228 26.3628 15.738 25.9308C15.7607 25.317 15.738 24.7032 15.738 24.0742C13.8965 23.8772 12.3202 23.1497 11.0168 21.8462C9.7209 20.5428 9.00094 18.9665 8.81149 17.1174C8.73571 17.1174 8.65993 17.1174 8.58415 17.1174C7.97789 17.1174 7.36408 17.1174 6.75782 17.1174C6.31828 17.1174 6 16.8294 6 16.4278C6 16.0261 6.3107 15.7306 6.75024 15.7306C7.43227 15.7306 8.10671 15.7306 8.81149 15.7306C9.00852 13.9042 9.72848 12.328 11.0168 11.0321C12.3126 9.73621 13.8889 9.0087 15.7304 8.81167C15.7304 8.72831 15.7304 8.65253 15.7304 8.57675C15.7304 7.96291 15.7304 7.34907 15.7304 6.72766C15.7304 6.30328 16.0336 5.99256 16.4276 6.00014C16.8217 6.00014 17.1172 6.31087 17.1172 6.73525C17.1172 7.3415 17.1172 7.95532 17.1172 8.56158C17.1172 8.63736 17.1172 8.72073 17.1172 8.7662C21.1034 9.43308 23.4223 11.7293 24.1119 15.7306C24.1877 15.7306 24.3014 15.7306 24.4075 15.7306C24.9228 15.7306 25.4381 15.7457 25.9459 15.7306C26.3702 15.7078 26.6734 15.8594 26.8401 16.2611V16.6096C26.6658 17.0037 26.3702 17.1553 25.9459 17.1325C25.476 17.1098 25.0061 17.1325 24.5363 17.1325H24.1044C23.4223 21.149 21.1109 23.468 17.1096 24.1273C17.1096 24.7259 17.0945 25.3473 17.1096 25.9688C17.1248 26.3931 16.9732 26.6963 16.5792 26.863H16.2306L16.2685 26.8478ZM10.2741 15.723C10.9334 15.723 11.5927 15.723 12.2444 15.723C12.2823 15.723 12.343 15.6245 12.3581 15.5638C12.6764 14.2225 13.4418 13.2298 14.6922 12.6387C15.0181 12.4795 15.3818 12.3886 15.738 12.2673V10.2288C12.6688 10.5471 10.4636 13.1616 10.2741 15.7382V15.723ZM20.5729 15.7078H22.6493C22.2931 12.4644 19.5271 10.3955 17.14 10.2515C17.14 10.9032 17.14 11.555 17.14 12.1991C17.14 12.2446 17.2309 12.3128 17.2915 12.328C18.1857 12.525 18.9511 12.9569 19.565 13.639C20.0955 14.2301 20.4213 14.9197 20.5729 15.7078ZM10.2438 17.1249C10.5166 20.0426 13.0098 22.3691 15.738 22.5964C15.738 22.5358 15.7456 22.4676 15.7456 22.407C15.7456 21.7856 15.7456 21.1642 15.7456 20.5503C14.0708 20.2396 12.6385 18.9513 12.2975 17.1325H10.2438V17.1249ZM17.1475 22.6267C20.5274 22.2402 22.4978 19.3454 22.6038 17.1174C21.99 17.1174 21.3762 17.1174 20.7623 17.1174C20.6032 17.1174 20.5501 17.1553 20.5123 17.322C20.1637 18.8073 19.2695 19.8228 17.8523 20.3684C17.625 20.4594 17.39 20.5049 17.1551 20.5731V22.6343L17.1475 22.6267Z" fill="#0671B8"/>
<path d="M16.4428 19.2618C18.0165 19.2618 19.2922 17.986 19.2922 16.4124C19.2922 14.8387 18.0165 13.563 16.4428 13.563C14.8691 13.563 13.5934 14.8387 13.5934 16.4124C13.5934 17.986 14.8691 19.2618 16.4428 19.2618Z" fill="#FFB422"/>
</svg>
