<svg width="43" height="12" viewBox="0 0 43 12" fill="none" xmlns="http://www.w3.org/2000/svg">
<path d="M0.579545 0.954368V0.0168676H7.125V0.954368H4.38068V8.74414H3.32386V0.954368H0.579545ZM9.65518 8.89755C9.24041 8.89755 8.86399 8.81942 8.52592 8.66317C8.18786 8.50408 7.91939 8.27539 7.72053 7.9771C7.52166 7.67596 7.42223 7.31232 7.42223 6.88619C7.42223 6.51119 7.49609 6.20721 7.64382 5.97425C7.79155 5.73846 7.98899 5.5538 8.23615 5.42028C8.48331 5.28675 8.75604 5.18732 9.05433 5.12198C9.35547 5.0538 9.65803 4.99982 9.962 4.96005C10.3597 4.90891 10.6822 4.87056 10.9293 4.84499C11.1793 4.81658 11.3612 4.76971 11.4748 4.70437C11.5913 4.63903 11.6495 4.52539 11.6495 4.36346V4.32937C11.6495 3.90891 11.5344 3.58221 11.3043 3.34925C11.0771 3.1163 10.7319 2.99982 10.2688 2.99982C9.78871 2.99982 9.41229 3.10494 9.13956 3.31516C8.86683 3.52539 8.67507 3.74982 8.56428 3.98846L7.60973 3.64755C7.78018 3.24982 8.00746 2.94016 8.29155 2.71857C8.57848 2.49414 8.89098 2.33789 9.22905 2.24982C9.56996 2.15891 9.90518 2.11346 10.2347 2.11346C10.445 2.11346 10.6864 2.13903 10.9592 2.19016C11.2347 2.23846 11.5004 2.33931 11.756 2.49272C12.0146 2.64613 12.229 2.87766 12.3995 3.18732C12.57 3.49698 12.6552 3.91175 12.6552 4.43164V8.74414H11.6495V7.85778H11.5984C11.5302 7.99982 11.4165 8.15181 11.2575 8.31374C11.0984 8.47567 10.8867 8.61346 10.6225 8.7271C10.3583 8.84073 10.0359 8.89755 9.65518 8.89755ZM9.80859 7.99414C10.2063 7.99414 10.5415 7.91602 10.8143 7.75977C11.0898 7.60352 11.2972 7.40181 11.4364 7.15465C11.5785 6.90749 11.6495 6.64755 11.6495 6.37482V5.45437C11.6069 5.5055 11.5131 5.55238 11.3683 5.59499C11.2262 5.63477 11.0614 5.67028 10.8739 5.70153C10.6893 5.72994 10.5089 5.7555 10.3327 5.77823C10.1594 5.79812 10.0188 5.81516 9.91087 5.82937C9.6495 5.86346 9.40518 5.91886 9.17791 5.99556C8.95348 6.06942 8.77166 6.18164 8.63246 6.33221C8.49609 6.47994 8.42791 6.68164 8.42791 6.93732C8.42791 7.28675 8.55717 7.55096 8.8157 7.72994C9.07706 7.90607 9.40803 7.99414 9.80859 7.99414ZM14.4908 8.74414V2.19869H15.4624V3.18732H15.5305C15.6499 2.86346 15.8658 2.60067 16.1783 2.39897C16.4908 2.19727 16.843 2.09641 17.2351 2.09641C17.3089 2.09641 17.4013 2.09783 17.5121 2.10067C17.6229 2.10352 17.7067 2.10778 17.7635 2.11346V3.13619C17.7294 3.12766 17.6513 3.11488 17.5291 3.09783C17.4098 3.07795 17.2834 3.068 17.1499 3.068C16.8317 3.068 16.5476 3.13477 16.2976 3.26829C16.0504 3.39897 15.8544 3.58079 15.7095 3.81374C15.5675 4.04386 15.4964 4.30664 15.4964 4.6021V8.74414H14.4908ZM21.3984 11.335C20.9126 11.335 20.495 11.2725 20.1456 11.1475C19.7962 11.0254 19.505 10.8635 19.272 10.6618C19.0419 10.4629 18.8587 10.2498 18.7223 10.0225L19.5234 9.46005C19.6143 9.57937 19.7294 9.71573 19.8686 9.86914C20.0078 10.0254 20.1982 10.1603 20.4396 10.274C20.6839 10.3904 21.0036 10.4487 21.3984 10.4487C21.9268 10.4487 22.3629 10.3208 22.7067 10.0652C23.0504 9.80948 23.2223 9.40891 23.2223 8.86346V7.53391H23.1371C23.0632 7.65323 22.9581 7.80096 22.8217 7.9771C22.6882 8.15039 22.495 8.30522 22.2422 8.44158C21.9922 8.57511 21.6541 8.64187 21.228 8.64187C20.6996 8.64187 20.2251 8.51687 19.8047 8.26687C19.3871 8.01687 19.0561 7.65323 18.8118 7.17596C18.5703 6.69869 18.4496 6.11914 18.4496 5.43732C18.4496 4.76687 18.5675 4.18306 18.8033 3.6859C19.0391 3.1859 19.3672 2.79954 19.7876 2.52681C20.2081 2.25124 20.6939 2.11346 21.245 2.11346C21.6712 2.11346 22.0092 2.18448 22.2592 2.32653C22.5121 2.46573 22.7053 2.62482 22.8388 2.8038C22.9751 2.97994 23.0803 3.12482 23.1541 3.23846H23.2564V2.19869H24.228V8.93164C24.228 9.49414 24.1001 9.95153 23.8445 10.3038C23.5916 10.6589 23.2507 10.9189 22.8217 11.0836C22.3956 11.2512 21.9212 11.335 21.3984 11.335ZM21.3643 7.73846C21.7678 7.73846 22.1087 7.64613 22.3871 7.46147C22.6655 7.27681 22.8771 7.01119 23.022 6.6646C23.1669 6.318 23.2393 5.90323 23.2393 5.42028C23.2393 4.94869 23.1683 4.53249 23.0263 4.1717C22.8842 3.8109 22.674 3.52823 22.3956 3.32369C22.1172 3.11914 21.7734 3.01687 21.3643 3.01687C20.9382 3.01687 20.5831 3.12482 20.299 3.34073C20.0178 3.55664 19.8061 3.84641 19.6641 4.21005C19.5249 4.57369 19.4553 4.9771 19.4553 5.42028C19.4553 5.87482 19.5263 6.27681 19.6683 6.62624C19.8132 6.97283 20.0263 7.24556 20.3075 7.44442C20.5916 7.64045 20.9439 7.73846 21.3643 7.73846ZM28.8132 8.8805C28.1825 8.8805 27.6385 8.7413 27.1811 8.46289C26.7266 8.18164 26.3757 7.7896 26.1286 7.28675C25.8842 6.78107 25.7621 6.193 25.7621 5.52255C25.7621 4.8521 25.8842 4.26119 26.1286 3.74982C26.3757 3.23562 26.7195 2.83505 27.1598 2.54812C27.603 2.25835 28.12 2.11346 28.7109 2.11346C29.0518 2.11346 29.3885 2.17028 29.7209 2.28391C30.0533 2.39755 30.3558 2.58221 30.6286 2.83789C30.9013 3.09073 31.1186 3.42596 31.2805 3.84357C31.4425 4.26119 31.5234 4.77539 31.5234 5.38619V5.81232H26.478V4.943H30.5007C30.5007 4.57369 30.4268 4.24414 30.2791 3.95437C30.1342 3.66459 29.9268 3.4359 29.657 3.26829C29.3899 3.10067 29.0746 3.01687 28.7109 3.01687C28.3104 3.01687 27.9638 3.1163 27.6712 3.31516C27.3814 3.51119 27.1584 3.76687 27.0021 4.08221C26.8459 4.39755 26.7678 4.73562 26.7678 5.09641V5.67596C26.7678 6.17028 26.853 6.58931 27.0234 6.93306C27.1967 7.27397 27.4368 7.53391 27.7436 7.71289C28.0504 7.88903 28.407 7.9771 28.8132 7.9771C29.0774 7.9771 29.3161 7.94016 29.5291 7.8663C29.745 7.7896 29.9311 7.67596 30.0874 7.52539C30.2436 7.37198 30.3643 7.18164 30.4496 6.95437L31.4212 7.2271C31.3189 7.55664 31.147 7.84641 30.9055 8.09641C30.6641 8.34357 30.3658 8.53675 30.0107 8.67596C29.6555 8.81232 29.2564 8.8805 28.8132 8.8805ZM35.8999 2.19869V3.05096H32.5078V2.19869H35.8999ZM33.4964 0.630504H34.5021V6.86914C34.5021 7.15323 34.5433 7.3663 34.6257 7.50835C34.7109 7.64755 34.8189 7.7413 34.9496 7.7896C35.0831 7.83505 35.2237 7.85778 35.3714 7.85778C35.4822 7.85778 35.5732 7.8521 35.6442 7.84073C35.7152 7.82653 35.772 7.81516 35.8146 7.80664L36.0192 8.71005C35.951 8.73562 35.8558 8.76119 35.7337 8.78675C35.6115 8.81516 35.4567 8.82937 35.2692 8.82937C34.9851 8.82937 34.7067 8.76829 34.4339 8.64613C34.1641 8.52397 33.9396 8.33789 33.7607 8.08789C33.5845 7.83789 33.4964 7.52255 33.4964 7.14187V0.630504ZM41.9318 3.6646L41.0284 3.92028C40.9716 3.76971 40.8878 3.6234 40.777 3.48136C40.669 3.33647 40.5213 3.21715 40.3338 3.1234C40.1463 3.02965 39.9062 2.98278 39.6136 2.98278C39.2131 2.98278 38.8793 3.07511 38.6122 3.25977C38.348 3.44158 38.2159 3.67312 38.2159 3.95437C38.2159 4.20437 38.3068 4.40181 38.4886 4.5467C38.6705 4.69158 38.9545 4.81232 39.3409 4.90891L40.3125 5.14755C40.8977 5.2896 41.3338 5.50692 41.6207 5.79954C41.9077 6.08931 42.0511 6.46289 42.0511 6.92028C42.0511 7.29528 41.9432 7.6305 41.7273 7.92596C41.5142 8.22141 41.2159 8.45437 40.8324 8.62482C40.4489 8.79528 40.0028 8.8805 39.4943 8.8805C38.8267 8.8805 38.2741 8.73562 37.8366 8.44585C37.3991 8.15607 37.1222 7.73278 37.0057 7.17596L37.9602 6.93732C38.0511 7.2896 38.223 7.5538 38.4759 7.72994C38.7315 7.90607 39.0653 7.99414 39.4773 7.99414C39.946 7.99414 40.3182 7.89471 40.5938 7.69585C40.8722 7.49414 41.0114 7.25266 41.0114 6.97141C41.0114 6.74414 40.9318 6.5538 40.7727 6.40039C40.6136 6.24414 40.3693 6.12766 40.0398 6.05096L38.9489 5.79528C38.3494 5.65323 37.9091 5.43306 37.6278 5.13477C37.3494 4.83363 37.2102 4.45721 37.2102 4.0055C37.2102 3.63619 37.3139 3.30948 37.5213 3.02539C37.7315 2.7413 38.017 2.51829 38.3778 2.35636C38.7415 2.19442 39.1534 2.11346 39.6136 2.11346C40.2614 2.11346 40.7699 2.2555 41.1392 2.53959C41.5114 2.82369 41.7756 3.19869 41.9318 3.6646Z" fill="black"/>
</svg>
