<svg width="32" height="32" viewBox="0 0 32 32" fill="none" xmlns="http://www.w3.org/2000/svg">
<path d="M23.9549 7.41932V25.6896H16.9035V21.4949H15.5295V25.6715H8.73126C8.90302 25.3822 9.06567 25.111 9.21936 24.8398C10.1415 23.2397 11.0365 21.6306 11.6512 19.8858C11.8772 19.2439 12.0851 18.584 12.0489 17.906C11.9405 15.4561 10.7563 13.7204 8.52335 12.6988C8.37871 12.6355 8.34248 12.5632 8.34248 12.4095C8.34248 10.8185 8.34248 9.21836 8.34248 7.62728C8.34248 7.55496 8.34248 7.49168 8.34248 7.40128H11.1359C11.1359 7.19335 11.1359 6.99444 11.1359 6.80459C11.1359 6.53339 11.154 6.26217 11.163 6H21.1976V7.41932H23.9459H23.9549ZM17.0663 10.5111V11.8671H19.6427V10.5111H17.0663ZM17.0663 14.6063H19.6518V13.2593H17.0663V14.6063ZM15.3939 10.5201H12.8175V11.8581H15.3939V10.5201ZM12.8175 13.2503V14.6063H15.3939V13.2503H12.8175ZM15.3939 17.2822V15.9352H12.8175V17.2822H15.3939ZM17.0663 15.9352V17.2732H19.6518V15.9352H17.0663ZM15.3939 18.6834H12.8175V20.0214H15.3939V18.6834ZM17.0573 20.0214H19.6427V18.6834H17.0573V20.0214Z" fill="#0671B8"/>
<path d="M23.955 7.41932H21.2067V6H23.955V7.41932Z" fill="white"/>
<path d="M17.0663 10.5112H19.6428V11.8673H17.0663V10.5112Z" fill="white"/>
<path d="M17.0573 14.6063V13.2593H19.6428V14.6063H17.0573Z" fill="white"/>
<path d="M15.3939 10.52V11.858H12.8174V10.52H15.3939Z" fill="white"/>
<path d="M12.8174 13.2593H15.3939V14.6153H12.8174V13.2593Z" fill="white"/>
<path d="M15.3848 17.282H12.8084V15.9351H15.3848V17.282Z" fill="white"/>
<path d="M17.0573 15.9443H19.6428V17.2823H17.0573V15.9443Z" fill="white"/>
<path d="M15.3939 18.6836V20.0215H12.8174V18.6836H15.3939Z" fill="white"/>
<path d="M17.0573 20.0303V18.6924H19.6428V20.0303H17.0573Z" fill="white"/>
<path d="M6.33555 26.9103C5.8745 26.16 5.41345 25.4458 4.97952 24.7135C4.05742 23.1586 3.17148 21.5856 2.49347 19.9041C2.21322 19.199 1.96006 18.4848 2.00526 17.7074C2.12278 15.6552 3.70482 13.9467 5.73887 13.6664C8.02604 13.3591 10.1143 14.8326 10.6025 17.0926C10.7743 17.8791 10.6839 18.6476 10.3765 19.3798C9.96969 20.3471 9.58101 21.3235 9.07476 22.2365C8.23402 23.7734 7.31187 25.256 6.42593 26.7657C6.40785 26.8018 6.38075 26.838 6.32651 26.9103H6.33555ZM9.08381 17.9605C9.08381 16.4508 7.85432 15.2213 6.3446 15.2213C4.84393 15.2213 3.60539 16.4508 3.59635 17.9605C3.59635 19.4702 4.8349 20.7087 6.35365 20.7087C7.86337 20.7087 9.08381 19.4793 9.08381 17.9605Z" fill="#FFB422"/>
<path d="M9.08391 17.9692C9.08391 19.4789 7.86346 20.7084 6.35375 20.7174C4.83499 20.7174 3.5874 19.4789 3.59644 17.9692C3.59644 16.4595 4.84402 15.23 6.3447 15.23C7.85441 15.23 9.08391 16.4595 9.08391 17.9692ZM7.70978 17.9782C7.70978 17.2188 7.09503 16.5951 6.3447 16.5951C5.6034 16.5951 4.98865 17.2098 4.97057 17.9601C4.96153 18.7105 5.58532 19.3342 6.3447 19.3342C7.09503 19.3342 7.70074 18.7285 7.70978 17.9782Z" fill="white"/>
<path d="M7.70972 17.9783C7.70972 18.7287 7.09497 19.3344 6.34464 19.3344C5.5943 19.3344 4.96147 18.7016 4.97051 17.9603C4.97955 17.21 5.5943 16.5952 6.34464 16.5952C7.09497 16.5952 7.71876 17.219 7.70972 17.9783Z" fill="#FFB422"/>
<path d="M23.4759 17.0482C26.5268 17.0482 29.0001 14.575 29.0001 11.5242C29.0001 8.47327 26.5268 6 23.4759 6C20.425 6 17.9518 8.47327 17.9518 11.5242C17.9518 14.575 20.425 17.0482 23.4759 17.0482Z" fill="#0671B8" stroke="white" stroke-width="0.76" stroke-miterlimit="10"/>
<path d="M24.8699 10.2086C24.8415 9.96892 24.7264 9.78287 24.5246 9.65043C24.3228 9.51798 24.0753 9.45176 23.782 9.45176C23.5676 9.45176 23.3799 9.48645 23.2191 9.55583C23.0599 9.6252 22.9353 9.72059 22.8454 9.842C22.7571 9.9634 22.713 10.1014 22.713 10.2559C22.713 10.3852 22.7437 10.4963 22.8052 10.5894C22.8683 10.6808 22.9487 10.7573 23.0465 10.8188C23.1442 10.8787 23.2467 10.9283 23.3539 10.9678C23.4611 11.0056 23.5597 11.0364 23.6495 11.06L24.1415 11.1924C24.2676 11.2256 24.4079 11.2713 24.5625 11.3296C24.7186 11.388 24.8676 11.4676 25.0095 11.5685C25.1529 11.6678 25.2712 11.7955 25.3642 11.9516C25.4572 12.1077 25.5038 12.2993 25.5038 12.5263C25.5038 12.7881 25.4352 13.0246 25.298 13.2359C25.1624 13.4471 24.9637 13.6151 24.702 13.7396C24.4418 13.8642 24.1257 13.9265 23.7536 13.9265C23.4067 13.9265 23.1064 13.8705 22.8525 13.7585C22.6003 13.6466 22.4016 13.4905 22.2565 13.2903C22.1131 13.09 22.0319 12.8574 22.0129 12.5926H22.6184C22.6342 12.7755 22.6956 12.9268 22.8029 13.0466C22.9117 13.1649 23.0488 13.2532 23.2144 13.3115C23.3815 13.3683 23.5613 13.3967 23.7536 13.3967C23.9775 13.3967 24.1785 13.3604 24.3567 13.2879C24.5349 13.2138 24.676 13.1113 24.78 12.9804C24.8841 12.848 24.9361 12.6935 24.9361 12.5169C24.9361 12.3561 24.8912 12.2252 24.8013 12.1243C24.7115 12.0234 24.5932 11.9414 24.4466 11.8783C24.2999 11.8152 24.1415 11.7601 23.9712 11.7128L23.3752 11.5425C22.9968 11.4337 22.6972 11.2784 22.4765 11.0766C22.2557 10.8747 22.1454 10.6106 22.1454 10.2843C22.1454 10.0131 22.2187 9.77656 22.3653 9.57475C22.5135 9.37135 22.7122 9.21368 22.9613 9.10173C23.212 8.98821 23.4919 8.93145 23.8009 8.93145C24.1131 8.93145 24.3906 8.98742 24.6334 9.09937C24.8762 9.20974 25.0686 9.3611 25.2105 9.55346C25.354 9.74582 25.4296 9.96419 25.4375 10.2086H24.8699Z" fill="white"/>
</svg>
