<svg width="103" height="28" viewBox="0 0 103 28" fill="none" xmlns="http://www.w3.org/2000/svg">
<path d="M1.85618 0.735618L4.44709 8.08221H4.54936L7.14027 0.735618H8.24822L5.04368 9.46289H3.95277L0.748224 0.735618H1.85618ZM9.47124 9.46289V2.91744H10.4769V9.46289H9.47124ZM9.9826 1.82653C9.78658 1.82653 9.61754 1.75977 9.4755 1.62624C9.33629 1.49272 9.26669 1.33221 9.26669 1.14471C9.26669 0.957209 9.33629 0.796697 9.4755 0.663174C9.61754 0.529652 9.78658 0.462891 9.9826 0.462891C10.1786 0.462891 10.3462 0.529652 10.4854 0.663174C10.6275 0.796697 10.6985 0.957209 10.6985 1.14471C10.6985 1.33221 10.6275 1.49272 10.4854 1.62624C10.3462 1.75977 10.1786 1.82653 9.9826 1.82653ZM16.9553 4.38335L16.0518 4.63903C15.995 4.48846 15.9112 4.34215 15.8004 4.20011C15.6925 4.05522 15.5447 3.9359 15.3572 3.84215C15.1697 3.7484 14.9297 3.70153 14.6371 3.70153C14.2365 3.70153 13.9027 3.79386 13.6357 3.97852C13.3714 4.16033 13.2393 4.39187 13.2393 4.67312C13.2393 4.92312 13.3303 5.12056 13.5121 5.26545C13.6939 5.41033 13.978 5.53107 14.3643 5.62766L15.3359 5.8663C15.9212 6.00835 16.3572 6.22567 16.6442 6.51829C16.9311 6.80806 17.0746 7.18164 17.0746 7.63903C17.0746 8.01403 16.9666 8.34925 16.7507 8.64471C16.5376 8.94016 16.2393 9.17312 15.8558 9.34357C15.4723 9.51403 15.0263 9.59925 14.5178 9.59925C13.8501 9.59925 13.2976 9.45437 12.8601 9.1646C12.4226 8.87482 12.1456 8.45153 12.0291 7.89471L12.9837 7.65607C13.0746 8.00835 13.2464 8.27255 13.4993 8.44869C13.755 8.62482 14.0888 8.71289 14.5007 8.71289C14.9695 8.71289 15.3416 8.61346 15.6172 8.4146C15.8956 8.21289 16.0348 7.97141 16.0348 7.69016C16.0348 7.46289 15.9553 7.27255 15.7962 7.11914C15.6371 6.96289 15.3928 6.84641 15.0632 6.76971L13.9723 6.51403C13.3729 6.37198 12.9325 6.15181 12.6513 5.85352C12.3729 5.55238 12.2337 5.17596 12.2337 4.72425C12.2337 4.35494 12.3374 4.02823 12.5447 3.74414C12.755 3.46005 13.0405 3.23704 13.4013 3.07511C13.7649 2.91317 14.1768 2.83221 14.6371 2.83221C15.2848 2.83221 15.7933 2.97425 16.1626 3.25834C16.5348 3.54244 16.799 3.91744 16.9553 4.38335ZM18.5884 9.46289V2.91744H19.5941V9.46289H18.5884ZM19.0998 1.82653C18.9038 1.82653 18.7347 1.75977 18.5927 1.62624C18.4535 1.49272 18.3839 1.33221 18.3839 1.14471C18.3839 0.957209 18.4535 0.796697 18.5927 0.663174C18.7347 0.529652 18.9038 0.462891 19.0998 0.462891C19.2958 0.462891 19.4634 0.529652 19.6026 0.663174C19.7447 0.796697 19.8157 0.957209 19.8157 1.14471C19.8157 1.33221 19.7447 1.49272 19.6026 1.62624C19.4634 1.75977 19.2958 1.82653 19.0998 1.82653ZM24.2827 2.91744V3.76971H20.8906V2.91744H24.2827ZM21.8793 1.34925H22.8849V7.58789C22.8849 7.87198 22.9261 8.08505 23.0085 8.2271C23.0938 8.3663 23.2017 8.46005 23.3324 8.50835C23.4659 8.5538 23.6065 8.57653 23.7543 8.57653C23.8651 8.57653 23.956 8.57085 24.027 8.55948C24.098 8.54528 24.1548 8.53391 24.1974 8.52539L24.402 9.4288C24.3338 9.45437 24.2386 9.47994 24.1165 9.5055C23.9943 9.53391 23.8395 9.54812 23.652 9.54812C23.3679 9.54812 23.0895 9.48704 22.8168 9.36488C22.5469 9.24272 22.3224 9.05664 22.1435 8.80664C21.9673 8.55664 21.8793 8.2413 21.8793 7.86062V1.34925ZM29.3068 0.735618H30.5682L33.5341 7.97994H33.6364L36.6023 0.735618H37.8636V9.46289H36.875V2.83221H36.7898L34.0625 9.46289H33.108L30.3807 2.83221H30.2955V9.46289H29.3068V0.735618ZM41.7724 9.6163C41.3576 9.6163 40.9812 9.53817 40.6431 9.38192C40.305 9.22283 40.0366 8.99414 39.8377 8.69585C39.6388 8.39471 39.5394 8.03107 39.5394 7.60494C39.5394 7.22994 39.6133 6.92596 39.761 6.693C39.9087 6.45721 40.1062 6.27255 40.3533 6.13903C40.6005 6.0055 40.8732 5.90607 41.1715 5.84073C41.4727 5.77255 41.7752 5.71857 42.0792 5.6788C42.4769 5.62766 42.7994 5.58931 43.0465 5.56374C43.2965 5.53533 43.4783 5.48846 43.592 5.42312C43.7085 5.35778 43.7667 5.24414 43.7667 5.08221V5.04812C43.7667 4.62766 43.6516 4.30096 43.4215 4.068C43.1942 3.83505 42.8491 3.71857 42.386 3.71857C41.9059 3.71857 41.5295 3.82369 41.2567 4.03391C40.984 4.24414 40.7923 4.46857 40.6815 4.70721L39.7269 4.3663C39.8974 3.96857 40.1246 3.65891 40.4087 3.43732C40.6957 3.21289 41.0082 3.05664 41.3462 2.96857C41.6871 2.87766 42.0224 2.83221 42.3519 2.83221C42.5621 2.83221 42.8036 2.85778 43.0763 2.90891C43.3519 2.95721 43.6175 3.05806 43.8732 3.21147C44.1317 3.36488 44.3462 3.59641 44.5167 3.90607C44.6871 4.21573 44.7724 4.6305 44.7724 5.15039V9.46289H43.7667V8.57653H43.7156C43.6474 8.71857 43.5337 8.87056 43.3746 9.03249C43.2156 9.19442 43.0039 9.33221 42.7397 9.44585C42.4755 9.55948 42.1531 9.6163 41.7724 9.6163ZM41.9258 8.71289C42.3235 8.71289 42.6587 8.63477 42.9315 8.47852C43.207 8.32227 43.4144 8.12056 43.5536 7.8734C43.6957 7.62624 43.7667 7.3663 43.7667 7.09357V6.17312C43.7241 6.22425 43.6303 6.27113 43.4854 6.31374C43.3434 6.35352 43.1786 6.38903 42.9911 6.42028C42.8065 6.44869 42.6261 6.47425 42.4499 6.49698C42.2766 6.51687 42.136 6.53391 42.0281 6.54812C41.7667 6.58221 41.5224 6.63761 41.2951 6.71431C41.0707 6.78817 40.8888 6.90039 40.7496 7.05096C40.6133 7.19869 40.5451 7.40039 40.5451 7.65607C40.5451 8.0055 40.6744 8.26971 40.9329 8.44869C41.1942 8.62482 41.5252 8.71289 41.9258 8.71289ZM47.6136 5.52539V9.46289H46.608V2.91744H47.5795V3.94016H47.6648C47.8182 3.60778 48.0511 3.34073 48.3636 3.13903C48.6761 2.93448 49.0795 2.83221 49.5739 2.83221C50.017 2.83221 50.4048 2.92312 50.7372 3.10494C51.0696 3.28391 51.3281 3.55664 51.5128 3.92312C51.6974 4.28675 51.7898 4.74698 51.7898 5.3038V9.46289H50.7841V5.37198C50.7841 4.85778 50.6506 4.45721 50.3835 4.17028C50.1165 3.8805 49.75 3.73562 49.2841 3.73562C48.9631 3.73562 48.6761 3.80522 48.4233 3.94442C48.1733 4.08363 47.9759 4.28675 47.831 4.5538C47.6861 4.82084 47.6136 5.14471 47.6136 5.52539ZM55.5536 9.6163C55.1388 9.6163 54.7624 9.53817 54.4244 9.38192C54.0863 9.22283 53.8178 8.99414 53.619 8.69585C53.4201 8.39471 53.3207 8.03107 53.3207 7.60494C53.3207 7.22994 53.3945 6.92596 53.5423 6.693C53.69 6.45721 53.8874 6.27255 54.1346 6.13903C54.3817 6.0055 54.6545 5.90607 54.9528 5.84073C55.2539 5.77255 55.5565 5.71857 55.8604 5.6788C56.2582 5.62766 56.5806 5.58931 56.8278 5.56374C57.0778 5.53533 57.2596 5.48846 57.3732 5.42312C57.4897 5.35778 57.5479 5.24414 57.5479 5.08221V5.04812C57.5479 4.62766 57.4329 4.30096 57.2028 4.068C56.9755 3.83505 56.6303 3.71857 56.1673 3.71857C55.6871 3.71857 55.3107 3.82369 55.038 4.03391C54.7653 4.24414 54.5735 4.46857 54.4627 4.70721L53.5082 4.3663C53.6786 3.96857 53.9059 3.65891 54.19 3.43732C54.4769 3.21289 54.7894 3.05664 55.1275 2.96857C55.4684 2.87766 55.8036 2.83221 56.1332 2.83221C56.3434 2.83221 56.5849 2.85778 56.8576 2.90891C57.1332 2.95721 57.3988 3.05806 57.6545 3.21147C57.913 3.36488 58.1275 3.59641 58.2979 3.90607C58.4684 4.21573 58.5536 4.6305 58.5536 5.15039V9.46289H57.5479V8.57653H57.4968C57.4286 8.71857 57.315 8.87056 57.1559 9.03249C56.9968 9.19442 56.7852 9.33221 56.521 9.44585C56.2567 9.55948 55.9343 9.6163 55.5536 9.6163ZM55.707 8.71289C56.1048 8.71289 56.44 8.63477 56.7127 8.47852C56.9883 8.32227 57.1957 8.12056 57.3349 7.8734C57.4769 7.62624 57.5479 7.3663 57.5479 7.09357V6.17312C57.5053 6.22425 57.4116 6.27113 57.2667 6.31374C57.1246 6.35352 56.9599 6.38903 56.7724 6.42028C56.5877 6.44869 56.4073 6.47425 56.2312 6.49698C56.0579 6.51687 55.9173 6.53391 55.8093 6.54812C55.5479 6.58221 55.3036 6.63761 55.0763 6.71431C54.8519 6.78817 54.6701 6.90039 54.5309 7.05096C54.3945 7.19869 54.3263 7.40039 54.3263 7.65607C54.3263 8.0055 54.4556 8.26971 54.7141 8.44869C54.9755 8.62482 55.3065 8.71289 55.707 8.71289ZM63.0312 12.0538C62.5455 12.0538 62.1278 11.9913 61.7784 11.8663C61.429 11.7441 61.1378 11.5822 60.9048 11.3805C60.6747 11.1816 60.4915 10.9686 60.3551 10.7413L61.1562 10.1788C61.2472 10.2981 61.3622 10.4345 61.5014 10.5879C61.6406 10.7441 61.831 10.8791 62.0724 10.9927C62.3168 11.1092 62.6364 11.1674 63.0312 11.1674C63.5597 11.1674 63.9957 11.0396 64.3395 10.7839C64.6832 10.5282 64.8551 10.1277 64.8551 9.58221V8.25266H64.7699C64.696 8.37198 64.5909 8.51971 64.4545 8.69585C64.321 8.86914 64.1278 9.02397 63.875 9.16033C63.625 9.29386 63.2869 9.36062 62.8608 9.36062C62.3324 9.36062 61.858 9.23562 61.4375 8.98562C61.0199 8.73562 60.6889 8.37198 60.4446 7.89471C60.2031 7.41744 60.0824 6.83789 60.0824 6.15607C60.0824 5.48562 60.2003 4.90181 60.4361 4.40465C60.6719 3.90465 61 3.51829 61.4205 3.24556C61.8409 2.96999 62.3267 2.83221 62.8778 2.83221C63.304 2.83221 63.642 2.90323 63.892 3.04528C64.1449 3.18448 64.3381 3.34357 64.4716 3.52255C64.608 3.69869 64.7131 3.84357 64.7869 3.95721H64.8892V2.91744H65.8608V9.65039C65.8608 10.2129 65.733 10.6703 65.4773 11.0225C65.2244 11.3777 64.8835 11.6376 64.4545 11.8024C64.0284 11.97 63.554 12.0538 63.0312 12.0538ZM62.9972 8.45721C63.4006 8.45721 63.7415 8.36488 64.0199 8.18022C64.2983 7.99556 64.5099 7.72994 64.6548 7.38335C64.7997 7.03675 64.8722 6.62198 64.8722 6.13903C64.8722 5.66744 64.8011 5.25124 64.6591 4.89045C64.517 4.52965 64.3068 4.24698 64.0284 4.04244C63.75 3.83789 63.4063 3.73562 62.9972 3.73562C62.571 3.73562 62.2159 3.84357 61.9318 4.05948C61.6506 4.27539 61.4389 4.56516 61.2969 4.9288C61.1577 5.29244 61.0881 5.69585 61.0881 6.13903C61.0881 6.59357 61.1591 6.99556 61.3011 7.34499C61.446 7.69158 61.6591 7.96431 61.9403 8.16317C62.2244 8.3592 62.5767 8.45721 62.9972 8.45721ZM70.446 9.59925C69.8153 9.59925 69.2713 9.46005 68.8139 9.18164C68.3594 8.90039 68.0085 8.50835 67.7614 8.0055C67.517 7.49982 67.3949 6.91175 67.3949 6.2413C67.3949 5.57085 67.517 4.97994 67.7614 4.46857C68.0085 3.95437 68.3523 3.5538 68.7926 3.26687C69.2358 2.9771 69.7528 2.83221 70.3438 2.83221C70.6847 2.83221 71.0213 2.88903 71.3537 3.00266C71.6861 3.1163 71.9886 3.30096 72.2614 3.55664C72.5341 3.80948 72.7514 4.14471 72.9134 4.56232C73.0753 4.97994 73.1562 5.49414 73.1562 6.10494V6.53107H68.1108V5.66175H72.1335C72.1335 5.29244 72.0597 4.96289 71.9119 4.67312C71.767 4.38334 71.5597 4.15465 71.2898 3.98704C71.0227 3.81942 70.7074 3.73562 70.3438 3.73562C69.9432 3.73562 69.5966 3.83505 69.304 4.03391C69.0142 4.22994 68.7912 4.48562 68.6349 4.80096C68.4787 5.1163 68.4006 5.45437 68.4006 5.81516V6.39471C68.4006 6.88903 68.4858 7.30806 68.6562 7.65181C68.8295 7.99272 69.0696 8.25266 69.3764 8.43164C69.6832 8.60778 70.0398 8.69585 70.446 8.69585C70.7102 8.69585 70.9489 8.65891 71.1619 8.58505C71.3778 8.50835 71.5639 8.39471 71.7202 8.24414C71.8764 8.09073 71.9972 7.90039 72.0824 7.67312L73.054 7.94585C72.9517 8.27539 72.7798 8.56516 72.5384 8.81516C72.2969 9.06232 71.9986 9.2555 71.6435 9.39471C71.2884 9.53107 70.8892 9.59925 70.446 9.59925ZM74.6861 9.46289V2.91744H75.6577V3.94016H75.7429C75.8793 3.59073 76.0994 3.31942 76.4034 3.12624C76.7074 2.93022 77.0724 2.83221 77.4986 2.83221C77.9304 2.83221 78.2898 2.93022 78.5767 3.12624C78.8665 3.31942 79.0923 3.59073 79.2543 3.94016H79.3224C79.4901 3.6021 79.7415 3.33363 80.0767 3.13477C80.4119 2.93306 80.8139 2.83221 81.2827 2.83221C81.8679 2.83221 82.3466 3.01545 82.7188 3.38192C83.0909 3.74556 83.277 4.31232 83.277 5.08221V9.46289H82.2713V5.08221C82.2713 4.59925 82.1392 4.25408 81.875 4.0467C81.6108 3.83931 81.2997 3.73562 80.9418 3.73562C80.4815 3.73562 80.125 3.87482 79.8722 4.15323C79.6193 4.4288 79.4929 4.77823 79.4929 5.20153V9.46289H78.4702V4.97994C78.4702 4.60778 78.3494 4.30806 78.108 4.08079C77.8665 3.85067 77.5554 3.73562 77.1747 3.73562C76.9134 3.73562 76.669 3.80522 76.4418 3.94442C76.2173 4.08363 76.0355 4.27681 75.8963 4.52397C75.7599 4.76829 75.6918 5.05096 75.6918 5.37198V9.46289H74.6861ZM87.8601 9.59925C87.2294 9.59925 86.6854 9.46005 86.228 9.18164C85.7734 8.90039 85.4226 8.50835 85.1754 8.0055C84.9311 7.49982 84.8089 6.91175 84.8089 6.2413C84.8089 5.57085 84.9311 4.97994 85.1754 4.46857C85.4226 3.95437 85.7663 3.5538 86.2067 3.26687C86.6499 2.9771 87.1669 2.83221 87.7578 2.83221C88.0987 2.83221 88.4354 2.88903 88.7678 3.00266C89.1001 3.1163 89.4027 3.30096 89.6754 3.55664C89.9482 3.80948 90.1655 4.14471 90.3274 4.56232C90.4893 4.97994 90.5703 5.49414 90.5703 6.10494V6.53107H85.5249V5.66175H89.5476C89.5476 5.29244 89.4737 4.96289 89.326 4.67312C89.1811 4.38334 88.9737 4.15465 88.7038 3.98704C88.4368 3.81942 88.1214 3.73562 87.7578 3.73562C87.3572 3.73562 87.0107 3.83505 86.718 4.03391C86.4283 4.22994 86.2053 4.48562 86.049 4.80096C85.8928 5.1163 85.8146 5.45437 85.8146 5.81516V6.39471C85.8146 6.88903 85.8999 7.30806 86.0703 7.65181C86.2436 7.99272 86.4837 8.25266 86.7905 8.43164C87.0973 8.60778 87.4538 8.69585 87.8601 8.69585C88.1243 8.69585 88.3629 8.65891 88.576 8.58505C88.7919 8.50835 88.978 8.39471 89.1342 8.24414C89.2905 8.09073 89.4112 7.90039 89.4964 7.67312L90.468 7.94585C90.3658 8.27539 90.1939 8.56516 89.9524 8.81516C89.7109 9.06232 89.4126 9.2555 89.0575 9.39471C88.7024 9.53107 88.3033 9.59925 87.8601 9.59925ZM93.1058 5.52539V9.46289H92.1001V2.91744H93.0717V3.94016H93.157C93.3104 3.60778 93.5433 3.34073 93.8558 3.13903C94.1683 2.93448 94.5717 2.83221 95.0661 2.83221C95.5092 2.83221 95.897 2.92312 96.2294 3.10494C96.5618 3.28391 96.8203 3.55664 97.005 3.92312C97.1896 4.28675 97.282 4.74698 97.282 5.3038V9.46289H96.2763V5.37198C96.2763 4.85778 96.1428 4.45721 95.8757 4.17028C95.6087 3.8805 95.2422 3.73562 94.7763 3.73562C94.4553 3.73562 94.1683 3.80522 93.9155 3.94442C93.6655 4.08363 93.468 4.28675 93.3232 4.5538C93.1783 4.82084 93.1058 5.14471 93.1058 5.52539ZM101.966 2.91744V3.76971H98.5742V2.91744H101.966ZM99.5629 1.34925H100.569V7.58789C100.569 7.87198 100.61 8.08505 100.692 8.2271C100.777 8.3663 100.885 8.46005 101.016 8.50835C101.15 8.5538 101.29 8.57653 101.438 8.57653C101.549 8.57653 101.64 8.57085 101.711 8.55948C101.782 8.54528 101.838 8.53391 101.881 8.52539L102.086 9.4288C102.017 9.45437 101.922 9.47994 101.8 9.5055C101.678 9.53391 101.523 9.54812 101.336 9.54812C101.051 9.54812 100.773 9.48704 100.5 9.36488C100.23 9.24272 100.006 9.05664 99.8271 8.80664C99.6509 8.55664 99.5629 8.2413 99.5629 7.86062V1.34925ZM14.7452 20.0993C14.7452 19.0254 14.8844 18.0382 15.1628 17.1376C15.4441 16.2342 15.8446 15.4032 16.3645 14.6447H17.2509C17.0463 14.926 16.8546 15.2725 16.6756 15.6845C16.4995 16.0936 16.3446 16.5439 16.2111 17.0353C16.0776 17.524 15.9725 18.0297 15.8958 18.5524C15.8219 19.0751 15.785 19.5907 15.785 20.0993C15.785 20.7754 15.8503 21.4615 15.981 22.1575C16.1117 22.8535 16.2878 23.4998 16.5094 24.0964C16.731 24.693 16.9782 25.1788 17.2509 25.5538H16.3645C15.8446 24.7953 15.4441 23.9657 15.1628 23.0652C14.8844 22.1618 14.7452 21.1731 14.7452 20.0993ZM23.644 17.9174C23.5929 17.4856 23.3855 17.1504 23.0218 16.9118C22.6582 16.6731 22.2122 16.5538 21.6838 16.5538C21.2974 16.5538 20.9593 16.6163 20.6696 16.7413C20.3826 16.8663 20.1582 17.0382 19.9963 17.2569C19.8372 17.4757 19.7576 17.7243 19.7576 18.0027C19.7576 18.2356 19.813 18.4359 19.9238 18.6035C20.0375 18.7683 20.1824 18.9061 20.3585 19.0169C20.5346 19.1248 20.7193 19.2143 20.9125 19.2853C21.1056 19.3535 21.2832 19.4089 21.4451 19.4515L22.3315 19.6902C22.5588 19.7498 22.8116 19.8322 23.09 19.9373C23.3713 20.0424 23.6397 20.1859 23.8954 20.3677C24.1539 20.5467 24.367 20.7768 24.5346 21.0581C24.7022 21.3393 24.786 21.6845 24.786 22.0936C24.786 22.5652 24.6625 22.9913 24.4153 23.372C24.171 23.7527 23.813 24.0552 23.3414 24.2797C22.8727 24.5041 22.3031 24.6163 21.6326 24.6163C21.0076 24.6163 20.4664 24.5154 20.0091 24.3137C19.5545 24.112 19.1966 23.8308 18.9352 23.47C18.6767 23.1092 18.5304 22.6902 18.4963 22.2129H19.5872C19.6156 22.5424 19.7264 22.8152 19.9196 23.0311C20.1156 23.2441 20.3627 23.4032 20.661 23.5083C20.9622 23.6106 21.286 23.6618 21.6326 23.6618C22.036 23.6618 22.3983 23.5964 22.7193 23.4657C23.0403 23.3322 23.2946 23.1475 23.4821 22.9118C23.6696 22.6731 23.7633 22.3947 23.7633 22.0765C23.7633 21.7868 23.6824 21.551 23.5204 21.3691C23.3585 21.1873 23.1454 21.0396 22.8812 20.926C22.617 20.8123 22.3315 20.7129 22.0247 20.6277L20.9508 20.3208C20.269 20.1248 19.7292 19.845 19.3315 19.4814C18.9338 19.1177 18.7349 18.6419 18.7349 18.0538C18.7349 17.5652 18.867 17.139 19.1312 16.7754C19.3983 16.4089 19.7562 16.1248 20.2051 15.9231C20.6568 15.7186 21.161 15.6163 21.7179 15.6163C22.2804 15.6163 22.7804 15.7172 23.2179 15.9189C23.6554 16.1177 24.002 16.3904 24.2576 16.737C24.5162 17.0836 24.6525 17.4771 24.6667 17.9174H23.644ZM26.3873 26.9174V17.9174H27.3588V18.9572H27.4782C27.552 18.8436 27.6543 18.6987 27.785 18.5225C27.9185 18.3436 28.1088 18.1845 28.356 18.0453C28.606 17.9032 28.9441 17.8322 29.3702 17.8322C29.9213 17.8322 30.4071 17.97 30.8276 18.2456C31.248 18.5211 31.5762 18.9118 31.812 19.4174C32.0478 19.9231 32.1657 20.5197 32.1657 21.2072C32.1657 21.9004 32.0478 22.5012 31.812 23.0098C31.5762 23.5154 31.2495 23.9075 30.8319 24.1859C30.4142 24.4615 29.9327 24.5993 29.3873 24.5993C28.9668 24.5993 28.6301 24.5297 28.3773 24.3904C28.1245 24.2484 27.9299 24.0879 27.7935 23.9089C27.6571 23.7271 27.552 23.5765 27.4782 23.4572H27.3929V26.9174H26.3873ZM27.3759 21.1902C27.3759 21.6845 27.4483 22.1206 27.5932 22.4984C27.7381 22.8734 27.9498 23.1674 28.2282 23.3805C28.5066 23.5907 28.8475 23.6958 29.2509 23.6958C29.6713 23.6958 30.0222 23.585 30.3034 23.3635C30.5875 23.139 30.8006 22.8379 30.9426 22.46C31.0875 22.0794 31.16 21.6561 31.16 21.1902C31.16 20.7299 31.089 20.3152 30.9469 19.9458C30.8077 19.5737 30.5961 19.2797 30.312 19.0637C30.0307 18.845 29.677 18.7356 29.2509 18.7356C28.8418 18.7356 28.498 18.8393 28.2196 19.0467C27.9412 19.2512 27.731 19.5382 27.589 19.9075C27.4469 20.274 27.3759 20.7015 27.3759 21.1902ZM36.3588 24.5993C35.7679 24.5993 35.2495 24.4586 34.8034 24.1774C34.3603 23.8961 34.0137 23.5027 33.7637 22.997C33.5165 22.4913 33.3929 21.9004 33.3929 21.2243C33.3929 20.5424 33.5165 19.9473 33.7637 19.4387C34.0137 18.9302 34.3603 18.5353 34.8034 18.2541C35.2495 17.9728 35.7679 17.8322 36.3588 17.8322C36.9498 17.8322 37.4668 17.9728 37.91 18.2541C38.356 18.5353 38.7026 18.9302 38.9498 19.4387C39.1998 19.9473 39.3248 20.5424 39.3248 21.2243C39.3248 21.9004 39.1998 22.4913 38.9498 22.997C38.7026 23.5027 38.356 23.8961 37.91 24.1774C37.4668 24.4586 36.9498 24.5993 36.3588 24.5993ZM36.3588 23.6958C36.8077 23.6958 37.177 23.5808 37.4668 23.3507C37.7566 23.1206 37.9711 22.818 38.1103 22.443C38.2495 22.068 38.3191 21.6618 38.3191 21.2243C38.3191 20.7868 38.2495 20.3791 38.1103 20.0012C37.9711 19.6234 37.7566 19.318 37.4668 19.085C37.177 18.8521 36.8077 18.7356 36.3588 18.7356C35.91 18.7356 35.5407 18.8521 35.2509 19.085C34.9611 19.318 34.7466 19.6234 34.6074 20.0012C34.4682 20.3791 34.3986 20.7868 34.3986 21.2243C34.3986 21.6618 34.4682 22.068 34.6074 22.443C34.7466 22.818 34.9611 23.1206 35.2509 23.3507C35.5407 23.5808 35.91 23.6958 36.3588 23.6958ZM43.7065 17.9174V18.7697H40.3145V17.9174H43.7065ZM41.3031 16.3493H42.3088V22.5879C42.3088 22.872 42.35 23.085 42.4324 23.2271C42.5176 23.3663 42.6255 23.46 42.7562 23.5083C42.8897 23.5538 43.0304 23.5765 43.1781 23.5765C43.2889 23.5765 43.3798 23.5708 43.4508 23.5595C43.5218 23.5453 43.5787 23.5339 43.6213 23.5254L43.8258 24.4288C43.7576 24.4544 43.6625 24.4799 43.5403 24.5055C43.4181 24.5339 43.2633 24.5481 43.0758 24.5481C42.7917 24.5481 42.5133 24.487 42.2406 24.3649C41.9707 24.2427 41.7463 24.0566 41.5673 23.8066C41.3912 23.5566 41.3031 23.2413 41.3031 22.8606V16.3493ZM53.5034 17.9174C53.4522 17.4856 53.2449 17.1504 52.8812 16.9118C52.5176 16.6731 52.0716 16.5538 51.5431 16.5538C51.1568 16.5538 50.8187 16.6163 50.5289 16.7413C50.242 16.8663 50.0176 17.0382 49.8556 17.2569C49.6966 17.4757 49.617 17.7243 49.617 18.0027C49.617 18.2356 49.6724 18.4359 49.7832 18.6035C49.8968 18.7683 50.0417 18.9061 50.2179 19.0169C50.394 19.1248 50.5787 19.2143 50.7718 19.2853C50.965 19.3535 51.1426 19.4089 51.3045 19.4515L52.1909 19.6902C52.4181 19.7498 52.671 19.8322 52.9494 19.9373C53.2306 20.0424 53.4991 20.1859 53.7548 20.3677C54.0133 20.5467 54.2264 20.7768 54.394 21.0581C54.5616 21.3393 54.6454 21.6845 54.6454 22.0936C54.6454 22.5652 54.5218 22.9913 54.2747 23.372C54.0304 23.7527 53.6724 24.0552 53.2008 24.2797C52.7321 24.5041 52.1625 24.6163 51.492 24.6163C50.867 24.6163 50.3258 24.5154 49.8684 24.3137C49.4139 24.112 49.0559 23.8308 48.7946 23.47C48.536 23.1092 48.3897 22.6902 48.3556 22.2129H49.4466C49.475 22.5424 49.5858 22.8152 49.7789 23.0311C49.975 23.2441 50.2221 23.4032 50.5204 23.5083C50.8216 23.6106 51.1454 23.6618 51.492 23.6618C51.8954 23.6618 52.2576 23.5964 52.5787 23.4657C52.8997 23.3322 53.1539 23.1475 53.3414 22.9118C53.5289 22.6731 53.6227 22.3947 53.6227 22.0765C53.6227 21.7868 53.5417 21.551 53.3798 21.3691C53.2179 21.1873 53.0048 21.0396 52.7406 20.926C52.4764 20.8123 52.1909 20.7129 51.8841 20.6277L50.8102 20.3208C50.1284 20.1248 49.5886 19.845 49.1909 19.4814C48.7931 19.1177 48.5943 18.6419 48.5943 18.0538C48.5943 17.5652 48.7264 17.139 48.9906 16.7754C49.2576 16.4089 49.6156 16.1248 50.0645 15.9231C50.5162 15.7186 51.0204 15.6163 51.5772 15.6163C52.1397 15.6163 52.6397 15.7172 53.0772 15.9189C53.5147 16.1177 53.8613 16.3904 54.117 16.737C54.3755 17.0836 54.5119 17.4771 54.5261 17.9174H53.5034ZM58.9909 24.5993C58.3603 24.5993 57.8162 24.46 57.3588 24.1816C56.9043 23.9004 56.5534 23.5083 56.3063 23.0055C56.062 22.4998 55.9398 21.9118 55.9398 21.2413C55.9398 20.5708 56.062 19.9799 56.3063 19.4686C56.5534 18.9544 56.8972 18.5538 57.3375 18.2669C57.7807 17.9771 58.2978 17.8322 58.8887 17.8322C59.2296 17.8322 59.5662 17.889 59.8986 18.0027C60.231 18.1163 60.5336 18.301 60.8063 18.5566C61.079 18.8095 61.2963 19.1447 61.4583 19.5623C61.6202 19.9799 61.7012 20.4941 61.7012 21.1049V21.5311H56.6557V20.6618H60.6784C60.6784 20.2924 60.6046 19.9629 60.4569 19.6731C60.312 19.3833 60.1046 19.1547 59.8347 18.987C59.5676 18.8194 59.2523 18.7356 58.8887 18.7356C58.4881 18.7356 58.1415 18.835 57.8489 19.0339C57.5591 19.2299 57.3361 19.4856 57.1799 19.801C57.0236 20.1163 56.9455 20.4544 56.9455 20.8152V21.3947C56.9455 21.889 57.0307 22.3081 57.2012 22.6518C57.3745 22.9927 57.6145 23.2527 57.9213 23.4316C58.2282 23.6078 58.5847 23.6958 58.9909 23.6958C59.2551 23.6958 59.4938 23.6589 59.7069 23.585C59.9228 23.5083 60.1088 23.3947 60.2651 23.2441C60.4213 23.0907 60.5421 22.9004 60.6273 22.6731L61.5989 22.9458C61.4966 23.2754 61.3248 23.5652 61.0833 23.8152C60.8418 24.0623 60.5435 24.2555 60.1884 24.3947C59.8333 24.5311 59.4341 24.5993 58.9909 24.5993ZM64.2367 15.7356V24.4629H63.231V15.7356H64.2367ZM67.0843 15.7356V24.4629H66.0787V15.7356H67.0843ZM68.9263 24.4629V17.9174H69.932V24.4629H68.9263ZM69.4377 16.8265C69.2417 16.8265 69.0726 16.7598 68.9306 16.6262C68.7914 16.4927 68.7218 16.3322 68.7218 16.1447C68.7218 15.9572 68.7914 15.7967 68.9306 15.6632C69.0726 15.5297 69.2417 15.4629 69.4377 15.4629C69.6337 15.4629 69.8013 15.5297 69.9405 15.6632C70.0826 15.7967 70.1536 15.9572 70.1536 16.1447C70.1536 16.3322 70.0826 16.4927 69.9405 16.6262C69.8013 16.7598 69.6337 16.8265 69.4377 16.8265ZM72.7797 20.5254V24.4629H71.774V17.9174H72.7456V18.9402H72.8308C72.9842 18.6078 73.2172 18.3407 73.5297 18.139C73.8422 17.9345 74.2456 17.8322 74.7399 17.8322C75.1831 17.8322 75.5708 17.9231 75.9032 18.1049C76.2356 18.2839 76.4941 18.5566 76.6788 18.9231C76.8635 19.2868 76.9558 19.747 76.9558 20.3038V24.4629H75.9501V20.372C75.9501 19.8578 75.8166 19.4572 75.5495 19.1703C75.2825 18.8805 74.916 18.7356 74.4501 18.7356C74.1291 18.7356 73.8422 18.8052 73.5893 18.9444C73.3393 19.0836 73.1419 19.2868 72.997 19.5538C72.8521 19.8208 72.7797 20.1447 72.7797 20.5254ZM81.4355 27.0538C80.9498 27.0538 80.5321 26.9913 80.1827 26.8663C79.8333 26.7441 79.5421 26.5822 79.3091 26.3805C79.079 26.1816 78.8958 25.9686 78.7594 25.7413L79.5605 25.1788C79.6515 25.2981 79.7665 25.4345 79.9057 25.5879C80.0449 25.7441 80.2353 25.8791 80.4767 25.9927C80.7211 26.1092 81.0407 26.1674 81.4355 26.1674C81.964 26.1674 82.4 26.0396 82.7438 25.7839C83.0875 25.5282 83.2594 25.1277 83.2594 24.5822V23.2527H83.1742C83.1003 23.372 82.9952 23.5197 82.8588 23.6958C82.7253 23.8691 82.5321 24.024 82.2793 24.1603C82.0293 24.2939 81.6912 24.3606 81.2651 24.3606C80.7367 24.3606 80.2623 24.2356 79.8418 23.9856C79.4242 23.7356 79.0932 23.372 78.8489 22.8947C78.6074 22.4174 78.4867 21.8379 78.4867 21.1561C78.4867 20.4856 78.6046 19.9018 78.8404 19.4047C79.0762 18.9047 79.4043 18.5183 79.8248 18.2456C80.2452 17.97 80.731 17.8322 81.2821 17.8322C81.7083 17.8322 82.0463 17.9032 82.2963 18.0453C82.5492 18.1845 82.7424 18.3436 82.8759 18.5225C83.0123 18.6987 83.1174 18.8436 83.1912 18.9572H83.2935V17.9174H84.2651V24.6504C84.2651 25.2129 84.1373 25.6703 83.8816 26.0225C83.6287 26.3777 83.2878 26.6376 82.8588 26.8024C82.4327 26.97 81.9583 27.0538 81.4355 27.0538ZM81.4015 23.4572C81.8049 23.4572 82.1458 23.3649 82.4242 23.1802C82.7026 22.9956 82.9142 22.7299 83.0591 22.3833C83.204 22.0368 83.2765 21.622 83.2765 21.139C83.2765 20.6674 83.2054 20.2512 83.0634 19.8904C82.9213 19.5297 82.7111 19.247 82.4327 19.0424C82.1543 18.8379 81.8105 18.7356 81.4015 18.7356C80.9753 18.7356 80.6202 18.8436 80.3361 19.0595C80.0549 19.2754 79.8432 19.5652 79.7012 19.9288C79.562 20.2924 79.4924 20.6958 79.4924 21.139C79.4924 21.5936 79.5634 21.9956 79.7054 22.345C79.8503 22.6916 80.0634 22.9643 80.3446 23.1632C80.6287 23.3592 80.981 23.4572 81.4015 23.4572ZM88.2537 20.7811C88.2537 21.8549 88.1131 22.8436 87.8319 23.747C87.5534 24.6475 87.1543 25.4771 86.6344 26.2356H85.748C85.9526 25.9544 86.1429 25.6078 86.3191 25.1958C86.498 24.7868 86.6543 24.3379 86.7878 23.8493C86.9213 23.3578 87.025 22.8507 87.0989 22.3279C87.1756 21.8024 87.214 21.2868 87.214 20.7811C87.214 20.1049 87.1486 19.4189 87.0179 18.7228C86.8873 18.0268 86.7111 17.3805 86.4895 16.7839C86.2679 16.1873 86.0208 15.7015 85.748 15.3265H86.6344C87.1543 16.085 87.5534 16.916 87.8319 17.8194C88.1131 18.72 88.2537 19.7072 88.2537 20.7811Z" fill="black"/>
</svg>
