<svg width="32" height="32" viewBox="0 0 32 32" fill="none" xmlns="http://www.w3.org/2000/svg">
<path d="M27.0364 6.42071V24.7579H19.9562V20.5501H18.5821V24.7423H11.758C11.9288 24.4473 12.0918 24.1833 12.2471 23.9116C13.1709 22.3124 14.0637 20.6976 14.6848 18.9431C14.91 18.2987 15.1196 17.6388 15.0885 16.9557C14.9798 14.4947 13.792 12.7479 11.5561 11.7309C11.4164 11.6687 11.3698 11.5911 11.3698 11.4436C11.3698 9.84435 11.3698 8.2451 11.3698 6.64584C11.3698 6.57597 11.3698 6.5061 11.3698 6.41294H14.1724C14.1724 6.20333 14.1724 6.00923 14.1724 5.81515C14.1724 5.54343 14.1957 5.27172 14.2035 5H24.2804V6.42071H27.0364ZM20.1192 9.52607V10.8847H22.7044V9.52607H20.1192ZM20.1114 13.6407H22.7044V12.2898H20.1114V13.6407ZM18.4345 9.54157H15.8493V10.8847H18.4345V9.54157ZM15.8493 12.2898V13.6484H18.4345V12.2898H15.8493ZM18.4345 16.3345V14.9837H15.8493V16.3345H18.4345ZM20.1114 14.9837V16.3268H22.7121V14.9837H20.1114ZM18.4345 17.7397H15.8416V19.0828H18.4345V17.7397ZM20.1036 19.0828H22.7044V17.7397H20.1036V19.0828Z" fill="#0671B8"/>
<path d="M20.127 9.52637H22.7122V10.885H20.127V9.52637Z" fill="white"/>
<path d="M20.1192 13.6409V12.29H22.7121V13.6409H20.1192Z" fill="white"/>
<path d="M18.4423 9.5415V10.8846H15.8571V9.5415H18.4423Z" fill="white"/>
<path d="M15.8571 12.2817H18.4423V13.6403H15.8571V12.2817Z" fill="white"/>
<path d="M18.4423 16.3269H15.8571V14.9761H18.4423V16.3269Z" fill="white"/>
<path d="M20.1192 14.9761H22.7199V16.3192H20.1192V14.9761Z" fill="white"/>
<path d="M18.4423 17.7319V19.075H15.8493V17.7319H18.4423Z" fill="white"/>
<path d="M20.1114 19.0828V17.7397H22.7121V19.0828H20.1114Z" fill="white"/>
<path d="M9.35139 25.9921C8.88559 25.2391 8.42755 24.5171 7.9928 23.7874C7.06896 22.2269 6.1762 20.6509 5.50078 18.9663C5.2213 18.2598 4.96509 17.5456 5.00391 16.7615C5.12813 14.7042 6.71182 12.9885 8.74583 12.709C11.0438 12.3984 13.1399 13.8812 13.629 16.1482C13.7998 16.94 13.7144 17.7086 13.4039 18.4461C13.0002 19.4166 12.6043 20.3948 12.0997 21.3186C11.2535 22.8558 10.3296 24.3463 9.43678 25.8602C9.41349 25.899 9.3902 25.93 9.34362 25.9999L9.35139 25.9921ZM12.1074 17.0099C12.1074 15.496 10.873 14.2617 9.35917 14.2539C7.85307 14.2539 6.61089 15.4883 6.60312 17.0022C6.59536 18.516 7.84531 19.7659 9.36694 19.7582C10.8808 19.7582 12.1074 18.5238 12.1074 17.0022V17.0099Z" fill="#FFB422"/>
<path d="M12.1074 17.0099C12.1074 18.5316 10.8808 19.766 9.36694 19.766C7.84531 19.766 6.59536 18.5238 6.60312 17.0099C6.61089 15.4961 7.85307 14.2617 9.35917 14.2617C10.873 14.2617 12.1074 15.4961 12.1074 17.0177V17.0099ZM10.7255 17.0255C10.7255 16.2647 10.1122 15.6359 9.3514 15.6359C8.60611 15.6359 7.98502 16.2492 7.97726 17.0022C7.9695 17.7475 8.59835 18.3841 9.3514 18.3841C10.1044 18.3841 10.7178 17.7708 10.7178 17.0177L10.7255 17.0255Z" fill="white"/>
<path d="M10.7333 17.0254C10.7333 17.7785 10.1122 18.3918 9.36691 18.3918C8.61386 18.3918 7.97724 17.7552 7.99277 17.0099C8.00053 16.2568 8.62162 15.6436 9.36691 15.6436C10.12 15.6436 10.741 16.2724 10.741 17.0332L10.7333 17.0254Z" fill="#FFB422"/>
</svg>
