<svg width="102" height="13" viewBox="0 0 102 13" fill="none" xmlns="http://www.w3.org/2000/svg">
<path d="M1.41477 0.735618L4.00568 8.08221H4.10795L6.69886 0.735618H7.80682L4.60227 9.46289H3.51136L0.306818 0.735618H1.41477ZM9.02983 9.46289V2.91744H10.0355V9.46289H9.02983ZM9.54119 1.82653C9.34517 1.82653 9.17614 1.75977 9.03409 1.62624C8.89489 1.49272 8.82528 1.33221 8.82528 1.14471C8.82528 0.957209 8.89489 0.796697 9.03409 0.663174C9.17614 0.529652 9.34517 0.462891 9.54119 0.462891C9.73722 0.462891 9.90483 0.529652 10.044 0.663174C10.1861 0.796697 10.2571 0.957209 10.2571 1.14471C10.2571 1.33221 10.1861 1.49272 10.044 1.62624C9.90483 1.75977 9.73722 1.82653 9.54119 1.82653ZM16.5138 4.38335L15.6104 4.63903C15.5536 4.48846 15.4698 4.34215 15.359 4.20011C15.2511 4.05522 15.1033 3.9359 14.9158 3.84215C14.7283 3.7484 14.4883 3.70153 14.1957 3.70153C13.7951 3.70153 13.4613 3.79386 13.1942 3.97852C12.93 4.16033 12.7979 4.39187 12.7979 4.67312C12.7979 4.92312 12.8888 5.12056 13.0707 5.26545C13.2525 5.41033 13.5366 5.53107 13.9229 5.62766L14.8945 5.8663C15.4798 6.00835 15.9158 6.22567 16.2028 6.51829C16.4897 6.80806 16.6332 7.18164 16.6332 7.63903C16.6332 8.01403 16.5252 8.34925 16.3093 8.64471C16.0962 8.94016 15.7979 9.17312 15.4144 9.34357C15.0309 9.51403 14.5849 9.59925 14.0763 9.59925C13.4087 9.59925 12.8562 9.45437 12.4187 9.1646C11.9812 8.87482 11.7042 8.45153 11.5877 7.89471L12.5423 7.65607C12.6332 8.00835 12.805 8.27255 13.0579 8.44869C13.3136 8.62482 13.6474 8.71289 14.0593 8.71289C14.5281 8.71289 14.9002 8.61346 15.1758 8.4146C15.4542 8.21289 15.5934 7.97141 15.5934 7.69016C15.5934 7.46289 15.5138 7.27255 15.3548 7.11914C15.1957 6.96289 14.9513 6.84641 14.6218 6.76971L13.5309 6.51403C12.9315 6.37198 12.4911 6.15181 12.2099 5.85352C11.9315 5.55238 11.7923 5.17596 11.7923 4.72425C11.7923 4.35494 11.896 4.02823 12.1033 3.74414C12.3136 3.46005 12.5991 3.23704 12.9599 3.07511C13.3235 2.91317 13.7354 2.83221 14.1957 2.83221C14.8434 2.83221 15.3519 2.97425 15.7212 3.25834C16.0934 3.54244 16.3576 3.91744 16.5138 4.38335ZM18.147 9.46289V2.91744H19.1527V9.46289H18.147ZM18.6584 1.82653C18.4624 1.82653 18.2933 1.75977 18.1513 1.62624C18.0121 1.49272 17.9425 1.33221 17.9425 1.14471C17.9425 0.957209 18.0121 0.796697 18.1513 0.663174C18.2933 0.529652 18.4624 0.462891 18.6584 0.462891C18.8544 0.462891 19.022 0.529652 19.1612 0.663174C19.3033 0.796697 19.3743 0.957209 19.3743 1.14471C19.3743 1.33221 19.3033 1.49272 19.1612 1.62624C19.022 1.75977 18.8544 1.82653 18.6584 1.82653ZM23.8413 2.91744V3.76971H20.4492V2.91744H23.8413ZM21.4379 1.34925H22.4435V7.58789C22.4435 7.87198 22.4847 8.08505 22.5671 8.2271C22.6523 8.3663 22.7603 8.46005 22.891 8.50835C23.0245 8.5538 23.1651 8.57653 23.3129 8.57653C23.4237 8.57653 23.5146 8.57085 23.5856 8.55948C23.6566 8.54528 23.7134 8.53391 23.756 8.52539L23.9606 9.4288C23.8924 9.45437 23.7972 9.47994 23.6751 9.5055C23.5529 9.53391 23.3981 9.54812 23.2106 9.54812C22.9265 9.54812 22.6481 9.48704 22.3754 9.36488C22.1055 9.24272 21.881 9.05664 21.7021 8.80664C21.5259 8.55664 21.4379 8.2413 21.4379 7.86062V1.34925ZM28.8654 0.735618H30.1268L33.0927 7.97994H33.195L36.1609 0.735618H37.4222V9.46289H36.4336V2.83221H36.3484L33.6211 9.46289H32.6665L29.9393 2.83221H29.854V9.46289H28.8654V0.735618ZM41.331 9.6163C40.9162 9.6163 40.5398 9.53817 40.2017 9.38192C39.8636 9.22283 39.5952 8.99414 39.3963 8.69585C39.1974 8.39471 39.098 8.03107 39.098 7.60494C39.098 7.22994 39.1719 6.92596 39.3196 6.693C39.4673 6.45721 39.6648 6.27255 39.9119 6.13903C40.1591 6.0055 40.4318 5.90607 40.7301 5.84073C41.0313 5.77255 41.3338 5.71857 41.6378 5.6788C42.0355 5.62766 42.358 5.58931 42.6051 5.56374C42.8551 5.53533 43.0369 5.48846 43.1506 5.42312C43.267 5.35778 43.3253 5.24414 43.3253 5.08221V5.04812C43.3253 4.62766 43.2102 4.30096 42.9801 4.068C42.7528 3.83505 42.4077 3.71857 41.9446 3.71857C41.4645 3.71857 41.0881 3.82369 40.8153 4.03391C40.5426 4.24414 40.3509 4.46857 40.2401 4.70721L39.2855 4.3663C39.456 3.96857 39.6832 3.65891 39.9673 3.43732C40.2543 3.21289 40.5668 3.05664 40.9048 2.96857C41.2457 2.87766 41.581 2.83221 41.9105 2.83221C42.1207 2.83221 42.3622 2.85778 42.6349 2.90891C42.9105 2.95721 43.1761 3.05806 43.4318 3.21147C43.6903 3.36488 43.9048 3.59641 44.0753 3.90607C44.2457 4.21573 44.331 4.6305 44.331 5.15039V9.46289H43.3253V8.57653H43.2741C43.206 8.71857 43.0923 8.87056 42.9332 9.03249C42.7741 9.19442 42.5625 9.33221 42.2983 9.44585C42.0341 9.55948 41.7116 9.6163 41.331 9.6163ZM41.4844 8.71289C41.8821 8.71289 42.2173 8.63477 42.4901 8.47852C42.7656 8.32227 42.973 8.12056 43.1122 7.8734C43.2543 7.62624 43.3253 7.3663 43.3253 7.09357V6.17312C43.2827 6.22425 43.1889 6.27113 43.044 6.31374C42.902 6.35352 42.7372 6.38903 42.5497 6.42028C42.3651 6.44869 42.1847 6.47425 42.0085 6.49698C41.8352 6.51687 41.6946 6.53391 41.5866 6.54812C41.3253 6.58221 41.081 6.63761 40.8537 6.71431C40.6293 6.78817 40.4474 6.90039 40.3082 7.05096C40.1719 7.19869 40.1037 7.40039 40.1037 7.65607C40.1037 8.0055 40.233 8.26971 40.4915 8.44869C40.7528 8.62482 41.0838 8.71289 41.4844 8.71289ZM47.1722 5.52539V9.46289H46.1665V2.91744H47.1381V3.94016H47.2234C47.3768 3.60778 47.6097 3.34073 47.9222 3.13903C48.2347 2.93448 48.6381 2.83221 49.1325 2.83221C49.5756 2.83221 49.9634 2.92312 50.2958 3.10494C50.6282 3.28391 50.8867 3.55664 51.0714 3.92312C51.256 4.28675 51.3484 4.74698 51.3484 5.3038V9.46289H50.3427V5.37198C50.3427 4.85778 50.2092 4.45721 49.9421 4.17028C49.6751 3.8805 49.3086 3.73562 48.8427 3.73562C48.5217 3.73562 48.2347 3.80522 47.9819 3.94442C47.7319 4.08363 47.5344 4.28675 47.3896 4.5538C47.2447 4.82084 47.1722 5.14471 47.1722 5.52539ZM55.1122 9.6163C54.6974 9.6163 54.321 9.53817 53.983 9.38192C53.6449 9.22283 53.3764 8.99414 53.1776 8.69585C52.9787 8.39471 52.8793 8.03107 52.8793 7.60494C52.8793 7.22994 52.9531 6.92596 53.1009 6.693C53.2486 6.45721 53.446 6.27255 53.6932 6.13903C53.9403 6.0055 54.2131 5.90607 54.5114 5.84073C54.8125 5.77255 55.1151 5.71857 55.419 5.6788C55.8168 5.62766 56.1392 5.58931 56.3864 5.56374C56.6364 5.53533 56.8182 5.48846 56.9318 5.42312C57.0483 5.35778 57.1065 5.24414 57.1065 5.08221V5.04812C57.1065 4.62766 56.9915 4.30096 56.7614 4.068C56.5341 3.83505 56.1889 3.71857 55.7259 3.71857C55.2457 3.71857 54.8693 3.82369 54.5966 4.03391C54.3239 4.24414 54.1321 4.46857 54.0213 4.70721L53.0668 4.3663C53.2372 3.96857 53.4645 3.65891 53.7486 3.43732C54.0355 3.21289 54.348 3.05664 54.6861 2.96857C55.027 2.87766 55.3622 2.83221 55.6918 2.83221C55.902 2.83221 56.1435 2.85778 56.4162 2.90891C56.6918 2.95721 56.9574 3.05806 57.2131 3.21147C57.4716 3.36488 57.6861 3.59641 57.8565 3.90607C58.027 4.21573 58.1122 4.6305 58.1122 5.15039V9.46289H57.1065V8.57653H57.0554C56.9872 8.71857 56.8736 8.87056 56.7145 9.03249C56.5554 9.19442 56.3438 9.33221 56.0795 9.44585C55.8153 9.55948 55.4929 9.6163 55.1122 9.6163ZM55.2656 8.71289C55.6634 8.71289 55.9986 8.63477 56.2713 8.47852C56.5469 8.32227 56.7543 8.12056 56.8935 7.8734C57.0355 7.62624 57.1065 7.3663 57.1065 7.09357V6.17312C57.0639 6.22425 56.9702 6.27113 56.8253 6.31374C56.6832 6.35352 56.5185 6.38903 56.331 6.42028C56.1463 6.44869 55.9659 6.47425 55.7898 6.49698C55.6165 6.51687 55.4759 6.53391 55.3679 6.54812C55.1065 6.58221 54.8622 6.63761 54.6349 6.71431C54.4105 6.78817 54.2287 6.90039 54.0895 7.05096C53.9531 7.19869 53.8849 7.40039 53.8849 7.65607C53.8849 8.0055 54.0142 8.26971 54.2727 8.44869C54.5341 8.62482 54.8651 8.71289 55.2656 8.71289ZM62.5898 12.0538C62.104 12.0538 61.6864 11.9913 61.337 11.8663C60.9876 11.7441 60.6964 11.5822 60.4634 11.3805C60.2333 11.1816 60.0501 10.9686 59.9137 10.7413L60.7148 10.1788C60.8058 10.2981 60.9208 10.4345 61.06 10.5879C61.1992 10.7441 61.3896 10.8791 61.631 10.9927C61.8754 11.1092 62.195 11.1674 62.5898 11.1674C63.1183 11.1674 63.5543 11.0396 63.8981 10.7839C64.2418 10.5282 64.4137 10.1277 64.4137 9.58221V8.25266H64.3285C64.2546 8.37198 64.1495 8.51971 64.0131 8.69585C63.8796 8.86914 63.6864 9.02397 63.4336 9.16033C63.1836 9.29386 62.8455 9.36062 62.4194 9.36062C61.891 9.36062 61.4165 9.23562 60.9961 8.98562C60.5785 8.73562 60.2475 8.37198 60.0032 7.89471C59.7617 7.41744 59.641 6.83789 59.641 6.15607C59.641 5.48562 59.7589 4.90181 59.9947 4.40465C60.2305 3.90465 60.5586 3.51829 60.979 3.24556C61.3995 2.96999 61.8853 2.83221 62.4364 2.83221C62.8626 2.83221 63.2006 2.90323 63.4506 3.04528C63.7035 3.18448 63.8967 3.34357 64.0302 3.52255C64.1665 3.69869 64.2717 3.84357 64.3455 3.95721H64.4478V2.91744H65.4194V9.65039C65.4194 10.2129 65.2915 10.6703 65.0359 11.0225C64.783 11.3777 64.4421 11.6376 64.0131 11.8024C63.587 11.97 63.1126 12.0538 62.5898 12.0538ZM62.5558 8.45721C62.9592 8.45721 63.3001 8.36488 63.5785 8.18022C63.8569 7.99556 64.0685 7.72994 64.2134 7.38335C64.3583 7.03675 64.4308 6.62198 64.4308 6.13903C64.4308 5.66744 64.3597 5.25124 64.2177 4.89045C64.0756 4.52965 63.8654 4.24698 63.587 4.04244C63.3086 3.83789 62.9648 3.73562 62.5558 3.73562C62.1296 3.73562 61.7745 3.84357 61.4904 4.05948C61.2092 4.27539 60.9975 4.56516 60.8555 4.9288C60.7163 5.29244 60.6467 5.69585 60.6467 6.13903C60.6467 6.59357 60.7177 6.99556 60.8597 7.34499C61.0046 7.69158 61.2177 7.96431 61.4989 8.16317C61.783 8.3592 62.1353 8.45721 62.5558 8.45721ZM70.0046 9.59925C69.3739 9.59925 68.8299 9.46005 68.3725 9.18164C67.918 8.90039 67.5671 8.50835 67.32 8.0055C67.0756 7.49982 66.9535 6.91175 66.9535 6.2413C66.9535 5.57085 67.0756 4.97994 67.32 4.46857C67.5671 3.95437 67.9109 3.5538 68.3512 3.26687C68.7944 2.9771 69.3114 2.83221 69.9023 2.83221C70.2433 2.83221 70.5799 2.88903 70.9123 3.00266C71.2447 3.1163 71.5472 3.30096 71.82 3.55664C72.0927 3.80948 72.31 4.14471 72.4719 4.56232C72.6339 4.97994 72.7148 5.49414 72.7148 6.10494V6.53107H67.6694V5.66175H71.6921C71.6921 5.29244 71.6183 4.96289 71.4705 4.67312C71.3256 4.38334 71.1183 4.15465 70.8484 3.98704C70.5813 3.81942 70.266 3.73562 69.9023 3.73562C69.5018 3.73562 69.1552 3.83505 68.8626 4.03391C68.5728 4.22994 68.3498 4.48562 68.1935 4.80096C68.0373 5.1163 67.9592 5.45437 67.9592 5.81516V6.39471C67.9592 6.88903 68.0444 7.30806 68.2148 7.65181C68.3881 7.99272 68.6282 8.25266 68.935 8.43164C69.2418 8.60778 69.5984 8.69585 70.0046 8.69585C70.2688 8.69585 70.5075 8.65891 70.7205 8.58505C70.9364 8.50835 71.1225 8.39471 71.2788 8.24414C71.435 8.09073 71.5558 7.90039 71.641 7.67312L72.6126 7.94585C72.5103 8.27539 72.3384 8.56516 72.0969 8.81516C71.8555 9.06232 71.5572 9.2555 71.2021 9.39471C70.8469 9.53107 70.4478 9.59925 70.0046 9.59925ZM74.2447 9.46289V2.91744H75.2163V3.94016H75.3015C75.4379 3.59073 75.658 3.31942 75.962 3.12624C76.266 2.93022 76.631 2.83221 77.0572 2.83221C77.489 2.83221 77.8484 2.93022 78.1353 3.12624C78.4251 3.31942 78.6509 3.59073 78.8129 3.94016H78.881C79.0487 3.6021 79.3001 3.33363 79.6353 3.13477C79.9705 2.93306 80.3725 2.83221 80.8413 2.83221C81.4265 2.83221 81.9052 3.01545 82.2773 3.38192C82.6495 3.74556 82.8356 4.31232 82.8356 5.08221V9.46289H81.8299V5.08221C81.8299 4.59925 81.6978 4.25408 81.4336 4.0467C81.1694 3.83931 80.8583 3.73562 80.5004 3.73562C80.0401 3.73562 79.6836 3.87482 79.4308 4.15323C79.1779 4.4288 79.0515 4.77823 79.0515 5.20153V9.46289H78.0288V4.97994C78.0288 4.60778 77.908 4.30806 77.6665 4.08079C77.4251 3.85067 77.114 3.73562 76.7333 3.73562C76.4719 3.73562 76.2276 3.80522 76.0004 3.94442C75.7759 4.08363 75.5941 4.27681 75.4549 4.52397C75.3185 4.76829 75.2504 5.05096 75.2504 5.37198V9.46289H74.2447ZM87.4187 9.59925C86.788 9.59925 86.244 9.46005 85.7866 9.18164C85.332 8.90039 84.9812 8.50835 84.734 8.0055C84.4897 7.49982 84.3675 6.91175 84.3675 6.2413C84.3675 5.57085 84.4897 4.97994 84.734 4.46857C84.9812 3.95437 85.3249 3.5538 85.7653 3.26687C86.2085 2.9771 86.7255 2.83221 87.3164 2.83221C87.6573 2.83221 87.994 2.88903 88.3263 3.00266C88.6587 3.1163 88.9613 3.30096 89.234 3.55664C89.5067 3.80948 89.7241 4.14471 89.886 4.56232C90.0479 4.97994 90.1289 5.49414 90.1289 6.10494V6.53107H85.0835V5.66175H89.1062C89.1062 5.29244 89.0323 4.96289 88.8846 4.67312C88.7397 4.38334 88.5323 4.15465 88.2624 3.98704C87.9954 3.81942 87.68 3.73562 87.3164 3.73562C86.9158 3.73562 86.5692 3.83505 86.2766 4.03391C85.9869 4.22994 85.7638 4.48562 85.6076 4.80096C85.4513 5.1163 85.3732 5.45437 85.3732 5.81516V6.39471C85.3732 6.88903 85.4585 7.30806 85.6289 7.65181C85.8022 7.99272 86.0423 8.25266 86.3491 8.43164C86.6559 8.60778 87.0124 8.69585 87.4187 8.69585C87.6829 8.69585 87.9215 8.65891 88.1346 8.58505C88.3505 8.50835 88.5366 8.39471 88.6928 8.24414C88.8491 8.09073 88.9698 7.90039 89.055 7.67312L90.0266 7.94585C89.9244 8.27539 89.7525 8.56516 89.511 8.81516C89.2695 9.06232 88.9712 9.2555 88.6161 9.39471C88.261 9.53107 87.8619 9.59925 87.4187 9.59925ZM92.6644 5.52539V9.46289H91.6587V2.91744H92.6303V3.94016H92.7156C92.869 3.60778 93.1019 3.34073 93.4144 3.13903C93.7269 2.93448 94.1303 2.83221 94.6246 2.83221C95.0678 2.83221 95.4556 2.92312 95.788 3.10494C96.1204 3.28391 96.3789 3.55664 96.5636 3.92312C96.7482 4.28675 96.8406 4.74698 96.8406 5.3038V9.46289H95.8349V5.37198C95.8349 4.85778 95.7013 4.45721 95.4343 4.17028C95.1673 3.8805 94.8008 3.73562 94.3349 3.73562C94.0138 3.73562 93.7269 3.80522 93.4741 3.94442C93.2241 4.08363 93.0266 4.28675 92.8817 4.5538C92.7369 4.82084 92.6644 5.14471 92.6644 5.52539ZM101.525 2.91744V3.76971H98.1328V2.91744H101.525ZM99.1214 1.34925H100.127V7.58789C100.127 7.87198 100.168 8.08505 100.251 8.2271C100.336 8.3663 100.444 8.46005 100.575 8.50835C100.708 8.5538 100.849 8.57653 100.996 8.57653C101.107 8.57653 101.198 8.57085 101.269 8.55948C101.34 8.54528 101.397 8.53391 101.44 8.52539L101.644 9.4288C101.576 9.45437 101.481 9.47994 101.359 9.5055C101.237 9.53391 101.082 9.54812 100.894 9.54812C100.61 9.54812 100.332 9.48704 100.059 9.36488C99.7891 9.24272 99.5646 9.05664 99.3857 8.80664C99.2095 8.55664 99.1214 8.2413 99.1214 7.86062V1.34925Z" fill="black"/>
</svg>
