<svg width="74" height="28" viewBox="0 0 74 28" fill="none" xmlns="http://www.w3.org/2000/svg">
<path d="M9.02805 0.800559L11.619 8.14715H11.7212L14.3121 0.800559H15.4201L12.2156 9.52783H11.1246L7.9201 0.800559H9.02805ZM16.6431 9.52783V2.98238H17.6488V9.52783H16.6431ZM17.1545 1.89147C16.9585 1.89147 16.7894 1.82471 16.6474 1.69118C16.5082 1.55766 16.4386 1.39715 16.4386 1.20965C16.4386 1.02215 16.5082 0.861639 16.6474 0.728116C16.7894 0.594593 16.9585 0.527832 17.1545 0.527832C17.3505 0.527832 17.5181 0.594593 17.6573 0.728116C17.7994 0.861639 17.8704 1.02215 17.8704 1.20965C17.8704 1.39715 17.7994 1.55766 17.6573 1.69118C17.5181 1.82471 17.3505 1.89147 17.1545 1.89147ZM24.1271 4.44829L23.2237 4.70397C23.1669 4.5534 23.0831 4.40709 22.9723 4.26505C22.8643 4.12016 22.7166 4.00084 22.5291 3.90709C22.3416 3.81334 22.1016 3.76647 21.8089 3.76647C21.4084 3.76647 21.0746 3.8588 20.8075 4.04346C20.5433 4.22528 20.4112 4.45681 20.4112 4.73806C20.4112 4.98806 20.5021 5.1855 20.6839 5.33039C20.8658 5.47528 21.1499 5.59601 21.5362 5.6926L22.5078 5.93124C23.093 6.07329 23.5291 6.29062 23.8161 6.58323C24.103 6.873 24.2464 7.24658 24.2464 7.70397C24.2464 8.07897 24.1385 8.4142 23.9226 8.70965C23.7095 9.0051 23.4112 9.23806 23.0277 9.40851C22.6442 9.57897 22.1982 9.6642 21.6896 9.6642C21.022 9.6642 20.4695 9.51931 20.032 9.22954C19.5945 8.93976 19.3175 8.51647 19.201 7.95965L20.1555 7.72101C20.2464 8.07329 20.4183 8.33749 20.6712 8.51363C20.9268 8.68976 21.2607 8.77783 21.6726 8.77783C22.1413 8.77783 22.5135 8.6784 22.7891 8.47954C23.0675 8.27783 23.2067 8.03635 23.2067 7.7551C23.2067 7.52783 23.1271 7.33749 22.968 7.18408C22.8089 7.02783 22.5646 6.91135 22.2351 6.83465L21.1442 6.57897C20.5447 6.43692 20.1044 6.21675 19.8232 5.91846C19.5447 5.61732 19.4055 5.2409 19.4055 4.7892C19.4055 4.41988 19.5092 4.09317 19.7166 3.80908C19.9268 3.52499 20.2124 3.30198 20.5732 3.14005C20.9368 2.97812 21.3487 2.89715 21.8089 2.89715C22.4567 2.89715 22.9652 3.0392 23.3345 3.32329C23.7067 3.60738 23.9709 3.98238 24.1271 4.44829ZM29.8853 6.8517V2.98238H30.891V9.52783H29.8853V8.41988H29.8171C29.6637 8.75226 29.4251 9.03493 29.1012 9.26789C28.7773 9.498 28.3683 9.61306 27.8739 9.61306C27.4648 9.61306 27.1012 9.52357 26.783 9.34459C26.4648 9.16278 26.2148 8.89005 26.033 8.52641C25.8512 8.15993 25.7603 7.69829 25.7603 7.14147V2.98238H26.766V7.07329C26.766 7.55056 26.8995 7.93124 27.1665 8.21533C27.4364 8.49942 27.7802 8.64147 28.1978 8.64147C28.4478 8.64147 28.7021 8.57755 28.9606 8.44971C29.2219 8.32187 29.4407 8.12584 29.6168 7.86164C29.7958 7.59743 29.8853 7.26079 29.8853 6.8517ZM34.6591 9.68124C34.2443 9.68124 33.8679 9.60312 33.5298 9.44687C33.1918 9.28778 32.9233 9.05908 32.7244 8.76079C32.5256 8.45965 32.4261 8.09601 32.4261 7.66988C32.4261 7.29488 32.5 6.9909 32.6477 6.75795C32.7955 6.52215 32.9929 6.33749 33.2401 6.20397C33.4872 6.07045 33.7599 5.97101 34.0582 5.90567C34.3594 5.83749 34.6619 5.78351 34.9659 5.74374C35.3636 5.6926 35.6861 5.65425 35.9332 5.62868C36.1832 5.60028 36.3651 5.5534 36.4787 5.48806C36.5952 5.42272 36.6534 5.30908 36.6534 5.14715V5.11306C36.6534 4.6926 36.5384 4.3659 36.3082 4.13295C36.081 3.89999 35.7358 3.78351 35.2727 3.78351C34.7926 3.78351 34.4162 3.88863 34.1435 4.09885C33.8707 4.30908 33.679 4.53351 33.5682 4.77215L32.6136 4.43124C32.7841 4.03351 33.0114 3.72385 33.2955 3.50226C33.5824 3.27783 33.8949 3.12158 34.233 3.03351C34.5739 2.9426 34.9091 2.89715 35.2386 2.89715C35.4489 2.89715 35.6903 2.92272 35.9631 2.97385C36.2386 3.02215 36.5043 3.123 36.7599 3.27641C37.0185 3.42982 37.233 3.66135 37.4034 3.97101C37.5739 4.28067 37.6591 4.69545 37.6591 5.21533V9.52783H36.6534V8.64147H36.6023C36.5341 8.78351 36.4205 8.9355 36.2614 9.09743C36.1023 9.25937 35.8906 9.39715 35.6264 9.51079C35.3622 9.62442 35.0398 9.68124 34.6591 9.68124ZM34.8125 8.77783C35.2102 8.77783 35.5455 8.69971 35.8182 8.54346C36.0938 8.38721 36.3011 8.1855 36.4403 7.93834C36.5824 7.69118 36.6534 7.43124 36.6534 7.15851V6.23806C36.6108 6.2892 36.517 6.33607 36.3722 6.37868C36.2301 6.41846 36.0653 6.45397 35.8778 6.48522C35.6932 6.51363 35.5128 6.5392 35.3366 6.56192C35.1634 6.58181 35.0227 6.59885 34.9148 6.61306C34.6534 6.64715 34.4091 6.70255 34.1818 6.77925C33.9574 6.85312 33.7756 6.96533 33.6364 7.1159C33.5 7.26363 33.4318 7.46533 33.4318 7.72101C33.4318 8.07045 33.5611 8.33465 33.8196 8.51363C34.081 8.68976 34.4119 8.77783 34.8125 8.77783ZM40.5004 0.800559V9.52783H39.4947V0.800559H40.5004ZM45.8537 9.52783V0.800559H48.8026C49.4872 0.800559 50.0469 0.924139 50.4815 1.1713C50.919 1.41562 51.2429 1.74658 51.4531 2.1642C51.6634 2.58181 51.7685 3.04772 51.7685 3.56192C51.7685 4.07613 51.6634 4.54346 51.4531 4.96391C51.2457 5.38437 50.9247 5.71959 50.4901 5.96959C50.0554 6.21675 49.4986 6.34033 48.8196 6.34033H46.706V5.40283H48.7855C49.2543 5.40283 49.6307 5.32187 49.9148 5.15993C50.1989 4.998 50.4048 4.77925 50.5327 4.50368C50.6634 4.22528 50.7287 3.91135 50.7287 3.56192C50.7287 3.21249 50.6634 2.89999 50.5327 2.62442C50.4048 2.34885 50.1974 2.13295 49.9105 1.9767C49.6236 1.8176 49.2429 1.73806 48.7685 1.73806H46.9105V9.52783H45.8537ZM55.6516 0.800559H56.7085V7.0392C56.7085 7.59601 56.6062 8.06903 56.4016 8.45823C56.1971 8.84743 55.9087 9.14289 55.5366 9.34459C55.1644 9.5463 54.7255 9.64715 54.2198 9.64715C53.7425 9.64715 53.3178 9.5605 52.9457 9.38721C52.5735 9.21107 52.2809 8.96107 52.0678 8.63721C51.8548 8.31334 51.7482 7.9284 51.7482 7.48238H52.788C52.788 7.72954 52.8491 7.94545 52.9712 8.1301C53.0962 8.31192 53.2667 8.45397 53.4826 8.55624C53.6985 8.65851 53.9442 8.70965 54.2198 8.70965C54.5238 8.70965 54.7823 8.64573 54.9954 8.51789C55.2085 8.39005 55.3704 8.20255 55.4812 7.95539C55.5948 7.70539 55.6516 7.39999 55.6516 7.0392V0.800559ZM58.8263 9.52783V0.800559H61.7752C62.4599 0.800559 63.0195 0.924139 63.4542 1.1713C63.8917 1.41562 64.2156 1.74658 64.4258 2.1642C64.636 2.58181 64.7411 3.04772 64.7411 3.56192C64.7411 4.07613 64.636 4.54346 64.4258 4.96391C64.2184 5.38437 63.8974 5.71959 63.4627 5.96959C63.0281 6.21675 62.4712 6.34033 61.7923 6.34033H59.6786V5.40283H61.7582C62.2269 5.40283 62.6033 5.32187 62.8874 5.15993C63.1715 4.998 63.3775 4.77925 63.5053 4.50368C63.636 4.22528 63.7013 3.91135 63.7013 3.56192C63.7013 3.21249 63.636 2.89999 63.5053 2.62442C63.3775 2.34885 63.1701 2.13295 62.8832 1.9767C62.5962 1.8176 62.2156 1.73806 61.7411 1.73806H59.8832V9.52783H58.8263ZM0.402521 15.8006H1.66389L4.62979 23.0449H4.73207L7.69798 15.8006H8.95934V24.5278H7.9707V17.8972H7.88548L5.1582 24.5278H4.20366L1.47639 17.8972H1.39116V24.5278H0.402521V15.8006ZM12.8681 24.6812C12.4533 24.6812 12.0769 24.6031 11.7388 24.4469C11.4007 24.2878 11.1323 24.0591 10.9334 23.7608C10.7346 23.4597 10.6351 23.096 10.6351 22.6699C10.6351 22.2949 10.709 21.9909 10.8567 21.7579C11.0044 21.5222 11.2019 21.3375 11.449 21.204C11.6962 21.0704 11.9689 20.971 12.2672 20.9057C12.5684 20.8375 12.8709 20.7835 13.1749 20.7437C13.5726 20.6926 13.8951 20.6543 14.1422 20.6287C14.3922 20.6003 14.574 20.5534 14.6877 20.4881C14.8042 20.4227 14.8624 20.3091 14.8624 20.1471V20.1131C14.8624 19.6926 14.7473 19.3659 14.5172 19.1329C14.29 18.9 13.9448 18.7835 13.4817 18.7835C13.0016 18.7835 12.6252 18.8886 12.3525 19.0989C12.0797 19.3091 11.888 19.5335 11.7772 19.7721L10.8226 19.4312C10.9931 19.0335 11.2203 18.7239 11.5044 18.5023C11.7914 18.2778 12.1039 18.1216 12.4419 18.0335C12.7828 17.9426 13.1181 17.8972 13.4476 17.8972C13.6578 17.8972 13.8993 17.9227 14.1721 17.9739C14.4476 18.0221 14.7132 18.123 14.9689 18.2764C15.2275 18.4298 15.4419 18.6614 15.6124 18.971C15.7828 19.2807 15.8681 19.6954 15.8681 20.2153V24.5278H14.8624V23.6415H14.8113C14.7431 23.7835 14.6294 23.9355 14.4703 24.0974C14.3113 24.2594 14.0996 24.3972 13.8354 24.5108C13.5712 24.6244 13.2488 24.6812 12.8681 24.6812ZM13.0215 23.7778C13.4192 23.7778 13.7544 23.6997 14.0272 23.5435C14.3027 23.3872 14.5101 23.1855 14.6493 22.9383C14.7914 22.6912 14.8624 22.4312 14.8624 22.1585V21.2381C14.8198 21.2892 14.726 21.3361 14.5811 21.3787C14.4391 21.4185 14.2743 21.454 14.0868 21.4852C13.9022 21.5136 13.7218 21.5392 13.5456 21.5619C13.3723 21.5818 13.2317 21.5989 13.1238 21.6131C12.8624 21.6472 12.6181 21.7025 12.3908 21.7793C12.1664 21.8531 11.9846 21.9653 11.8453 22.1159C11.709 22.2636 11.6408 22.4653 11.6408 22.721C11.6408 23.0704 11.7701 23.3347 12.0286 23.5136C12.29 23.6898 12.6209 23.7778 13.0215 23.7778ZM18.7093 20.5903V24.5278H17.7037V17.9824H18.6752V19.0051H18.7605C18.9139 18.6727 19.1468 18.4057 19.4593 18.204C19.7718 17.9994 20.1752 17.8972 20.6696 17.8972C21.1127 17.8972 21.5005 17.9881 21.8329 18.1699C22.1653 18.3489 22.4238 18.6216 22.6085 18.9881C22.7931 19.3517 22.8855 19.8119 22.8855 20.3687V24.5278H21.8798V20.4369C21.8798 19.9227 21.7463 19.5222 21.4792 19.2352C21.2122 18.9454 20.8457 18.8006 20.3798 18.8006C20.0588 18.8006 19.7718 18.8702 19.519 19.0094C19.269 19.1486 19.0716 19.3517 18.9267 19.6187C18.7818 19.8858 18.7093 20.2097 18.7093 20.5903ZM26.6493 24.6812C26.2346 24.6812 25.8581 24.6031 25.5201 24.4469C25.182 24.2878 24.9135 24.0591 24.7147 23.7608C24.5158 23.4597 24.4164 23.096 24.4164 22.6699C24.4164 22.2949 24.4902 21.9909 24.638 21.7579C24.7857 21.5222 24.9831 21.3375 25.2303 21.204C25.4775 21.0704 25.7502 20.971 26.0485 20.9057C26.3496 20.8375 26.6522 20.7835 26.9561 20.7437C27.3539 20.6926 27.6763 20.6543 27.9235 20.6287C28.1735 20.6003 28.3553 20.5534 28.4689 20.4881C28.5854 20.4227 28.6436 20.3091 28.6436 20.1471V20.1131C28.6436 19.6926 28.5286 19.3659 28.2985 19.1329C28.0712 18.9 27.726 18.7835 27.263 18.7835C26.7828 18.7835 26.4064 18.8886 26.1337 19.0989C25.861 19.3091 25.6692 19.5335 25.5584 19.7721L24.6039 19.4312C24.7743 19.0335 25.0016 18.7239 25.2857 18.5023C25.5726 18.2778 25.8851 18.1216 26.2232 18.0335C26.5641 17.9426 26.8993 17.8972 27.2289 17.8972C27.4391 17.8972 27.6806 17.9227 27.9533 17.9739C28.2289 18.0221 28.4945 18.123 28.7502 18.2764C29.0087 18.4298 29.2232 18.6614 29.3936 18.971C29.5641 19.2807 29.6493 19.6954 29.6493 20.2153V24.5278H28.6436V23.6415H28.5925C28.5243 23.7835 28.4107 23.9355 28.2516 24.0974C28.0925 24.2594 27.8809 24.3972 27.6167 24.5108C27.3525 24.6244 27.03 24.6812 26.6493 24.6812ZM26.8027 23.7778C27.2005 23.7778 27.5357 23.6997 27.8084 23.5435C28.084 23.3872 28.2914 23.1855 28.4306 22.9383C28.5726 22.6912 28.6436 22.4312 28.6436 22.1585V21.2381C28.601 21.2892 28.5073 21.3361 28.3624 21.3787C28.2203 21.4185 28.0556 21.454 27.8681 21.4852C27.6834 21.5136 27.503 21.5392 27.3269 21.5619C27.1536 21.5818 27.013 21.5989 26.905 21.6131C26.6436 21.6472 26.3993 21.7025 26.1721 21.7793C25.9476 21.8531 25.7658 21.9653 25.6266 22.1159C25.4902 22.2636 25.4221 22.4653 25.4221 22.721C25.4221 23.0704 25.5513 23.3347 25.8098 23.5136C26.0712 23.6898 26.4022 23.7778 26.8027 23.7778ZM34.127 27.1187C33.6412 27.1187 33.2235 27.0562 32.8741 26.9312C32.5247 26.8091 32.2335 26.6472 32.0005 26.4454C31.7704 26.2466 31.5872 26.0335 31.4508 25.8062L32.252 25.2437C32.3429 25.3631 32.4579 25.4994 32.5971 25.6528C32.7363 25.8091 32.9267 25.944 33.1681 26.0577C33.4125 26.1741 33.7321 26.2324 34.127 26.2324C34.6554 26.2324 35.0914 26.1045 35.4352 25.8489C35.7789 25.5932 35.9508 25.1926 35.9508 24.6472V23.3176H35.8656C35.7917 23.4369 35.6866 23.5847 35.5502 23.7608C35.4167 23.9341 35.2235 24.0889 34.9707 24.2253C34.7207 24.3588 34.3826 24.4256 33.9565 24.4256C33.4281 24.4256 32.9537 24.3006 32.5332 24.0506C32.1156 23.8006 31.7846 23.4369 31.5403 22.9597C31.2988 22.4824 31.1781 21.9028 31.1781 21.221C31.1781 20.5506 31.296 19.9668 31.5318 19.4696C31.7676 18.9696 32.0957 18.5832 32.5162 18.3105C32.9366 18.0349 33.4224 17.8972 33.9735 17.8972C34.3997 17.8972 34.7377 17.9682 34.9877 18.1102C35.2406 18.2494 35.4338 18.4085 35.5673 18.5875C35.7037 18.7636 35.8088 18.9085 35.8826 19.0221H35.9849V17.9824H36.9565V24.7153C36.9565 25.2778 36.8287 25.7352 36.573 26.0875C36.3201 26.4426 35.9792 26.7025 35.5502 26.8673C35.1241 27.0349 34.6497 27.1187 34.127 27.1187ZM34.0929 23.5222C34.4963 23.5222 34.8372 23.4298 35.1156 23.2452C35.394 23.0605 35.6056 22.7949 35.7505 22.4483C35.8954 22.1017 35.9679 21.6869 35.9679 21.204C35.9679 20.7324 35.8968 20.3162 35.7548 19.9554C35.6127 19.5946 35.4025 19.3119 35.1241 19.1074C34.8457 18.9028 34.502 18.8006 34.0929 18.8006C33.6667 18.8006 33.3116 18.9085 33.0275 19.1244C32.7463 19.3403 32.5346 19.6301 32.3926 19.9937C32.2534 20.3574 32.1838 20.7608 32.1838 21.204C32.1838 21.6585 32.2548 22.0605 32.3968 22.4099C32.5417 22.7565 32.7548 23.0293 33.036 23.2281C33.3201 23.4241 33.6724 23.5222 34.0929 23.5222ZM41.5417 24.6642C40.911 24.6642 40.367 24.525 39.9096 24.2466C39.4551 23.9653 39.1042 23.5733 38.8571 23.0704C38.6127 22.5648 38.4906 21.9767 38.4906 21.3062C38.4906 20.6358 38.6127 20.0449 38.8571 19.5335C39.1042 19.0193 39.448 18.6187 39.8883 18.3318C40.3315 18.042 40.8485 17.8972 41.4395 17.8972C41.7804 17.8972 42.117 17.954 42.4494 18.0676C42.7818 18.1812 43.0843 18.3659 43.3571 18.6216C43.6298 18.8744 43.8471 19.2097 44.0091 19.6273C44.171 20.0449 44.252 20.5591 44.252 21.1699V21.596H39.2065V20.7267H43.2292C43.2292 20.3574 43.1554 20.0278 43.0076 19.7381C42.8627 19.4483 42.6554 19.2196 42.3855 19.052C42.1184 18.8844 41.8031 18.8006 41.4395 18.8006C41.0389 18.8006 40.6923 18.9 40.3997 19.0989C40.1099 19.2949 39.8869 19.5506 39.7306 19.8659C39.5744 20.1812 39.4963 20.5193 39.4963 20.8801V21.4597C39.4963 21.954 39.5815 22.373 39.752 22.7168C39.9252 23.0577 40.1653 23.3176 40.4721 23.4966C40.7789 23.6727 41.1355 23.7608 41.5417 23.7608C41.8059 23.7608 42.0446 23.7239 42.2576 23.65C42.4735 23.5733 42.6596 23.4597 42.8159 23.3091C42.9721 23.1557 43.0929 22.9653 43.1781 22.7381L44.1497 23.0108C44.0474 23.3403 43.8755 23.6301 43.6341 23.8801C43.3926 24.1273 43.0943 24.3204 42.7392 24.4597C42.3841 24.596 41.9849 24.6642 41.5417 24.6642ZM45.7818 24.5278V17.9824H46.7534V19.0051H46.8386C46.975 18.6557 47.1951 18.3844 47.4991 18.1912C47.8031 17.9952 48.1681 17.8972 48.5943 17.8972C49.0261 17.8972 49.3855 17.9952 49.6724 18.1912C49.9622 18.3844 50.188 18.6557 50.35 19.0051H50.4181C50.5858 18.667 50.8372 18.3986 51.1724 18.1997C51.5076 17.998 51.9096 17.8972 52.3784 17.8972C52.9636 17.8972 53.4423 18.0804 53.8145 18.4469C54.1866 18.8105 54.3727 19.3773 54.3727 20.1471V24.5278H53.367V20.1471C53.367 19.6642 53.2349 19.319 52.9707 19.1116C52.7065 18.9043 52.3954 18.8006 52.0375 18.8006C51.5772 18.8006 51.2207 18.9398 50.9679 19.2182C50.715 19.4937 50.5886 19.8432 50.5886 20.2665V24.5278H49.5659V20.0449C49.5659 19.6727 49.4451 19.373 49.2037 19.1457C48.9622 18.9156 48.6511 18.8006 48.2704 18.8006C48.0091 18.8006 47.7647 18.8702 47.5375 19.0094C47.313 19.1486 47.1312 19.3418 46.992 19.5889C46.8556 19.8332 46.7875 20.1159 46.7875 20.4369V24.5278H45.7818ZM58.9558 24.6642C58.3251 24.6642 57.7811 24.525 57.3237 24.2466C56.8691 23.9653 56.5183 23.5733 56.2711 23.0704C56.0268 22.5648 55.9047 21.9767 55.9047 21.3062C55.9047 20.6358 56.0268 20.0449 56.2711 19.5335C56.5183 19.0193 56.862 18.6187 57.3024 18.3318C57.7456 18.042 58.2626 17.8972 58.8535 17.8972C59.1944 17.8972 59.5311 17.954 59.8635 18.0676C60.1958 18.1812 60.4984 18.3659 60.7711 18.6216C61.0439 18.8744 61.2612 19.2097 61.4231 19.6273C61.585 20.0449 61.666 20.5591 61.666 21.1699V21.596H56.6206V20.7267H60.6433C60.6433 20.3574 60.5694 20.0278 60.4217 19.7381C60.2768 19.4483 60.0694 19.2196 59.7995 19.052C59.5325 18.8844 59.2172 18.8006 58.8535 18.8006C58.4529 18.8006 58.1064 18.9 57.8137 19.0989C57.524 19.2949 57.301 19.5506 57.1447 19.8659C56.9885 20.1812 56.9103 20.5193 56.9103 20.8801V21.4597C56.9103 21.954 56.9956 22.373 57.166 22.7168C57.3393 23.0577 57.5794 23.3176 57.8862 23.4966C58.193 23.6727 58.5495 23.7608 58.9558 23.7608C59.22 23.7608 59.4586 23.7239 59.6717 23.65C59.8876 23.5733 60.0737 23.4597 60.2299 23.3091C60.3862 23.1557 60.5069 22.9653 60.5922 22.7381L61.5637 23.0108C61.4615 23.3403 61.2896 23.6301 61.0481 23.8801C60.8066 24.1273 60.5083 24.3204 60.1532 24.4597C59.7981 24.596 59.399 24.6642 58.9558 24.6642ZM64.2015 20.5903V24.5278H63.1958V17.9824H64.1674V19.0051H64.2527C64.4061 18.6727 64.639 18.4057 64.9515 18.204C65.264 17.9994 65.6674 17.8972 66.1618 17.8972C66.6049 17.8972 66.9927 17.9881 67.3251 18.1699C67.6575 18.3489 67.916 18.6216 68.1007 18.9881C68.2853 19.3517 68.3777 19.8119 68.3777 20.3687V24.5278H67.372V20.4369C67.372 19.9227 67.2385 19.5222 66.9714 19.2352C66.7044 18.9454 66.3379 18.8006 65.872 18.8006C65.551 18.8006 65.264 18.8702 65.0112 19.0094C64.7612 19.1486 64.5637 19.3517 64.4189 19.6187C64.274 19.8858 64.2015 20.2097 64.2015 20.5903ZM73.062 17.9824V18.8346H69.6699V17.9824H73.062ZM70.6586 16.4142H71.6642V22.6528C71.6642 22.9369 71.7054 23.15 71.7878 23.292C71.873 23.4312 71.981 23.525 72.1117 23.5733C72.2452 23.6187 72.3858 23.6415 72.5336 23.6415C72.6444 23.6415 72.7353 23.6358 72.8063 23.6244C72.8773 23.6102 72.9341 23.5989 72.9767 23.5903L73.1813 24.4937C73.1131 24.5193 73.0179 24.5449 72.8958 24.5704C72.7736 24.5989 72.6188 24.6131 72.4313 24.6131C72.1472 24.6131 71.8688 24.552 71.5961 24.4298C71.3262 24.3077 71.1017 24.1216 70.9228 23.8716C70.7466 23.6216 70.6586 23.3062 70.6586 22.9256V16.4142Z" fill="black"/>
</svg>
