<svg width="32" height="32" viewBox="0 0 32 32" fill="none" xmlns="http://www.w3.org/2000/svg">
<path d="M14.3264 26H6V5H20.4751V14.0789C19.9787 14.215 19.8266 14.5833 19.8266 15.0396H18.0572C18.0572 14.9756 18.0572 14.9275 18.0572 14.8795C18.0492 14.3991 17.745 14.0869 17.2646 14.0629C17.0805 14.0629 16.8963 14.0549 16.7122 14.0709C16.3519 14.1109 16.0877 14.3751 16.0397 14.7354C16.0237 14.8315 16.0236 14.9356 16.0076 15.0477C15.8555 15.0477 15.7195 15.0477 15.5834 15.0477C14.7908 15.0316 14.1902 15.6241 14.1982 16.4567C14.2223 19.3549 14.1983 22.2532 14.2143 25.1594C14.2143 25.4316 14.2863 25.7118 14.3344 25.984L14.3264 26ZM8.15369 20.788C8.24176 20.788 8.31385 20.788 8.3859 20.788C9.06642 20.788 9.75489 20.788 10.4354 20.788C10.9078 20.788 11.3801 20.788 11.8525 20.788C12.0687 20.788 12.2047 20.6359 12.2047 20.4438C12.2047 20.2436 12.0687 20.1075 11.8525 20.0915C11.8285 20.0915 11.7965 20.0915 11.7725 20.0915C10.4835 20.0915 9.18643 20.0915 7.89744 20.0915C7.56119 20.0915 7.44915 20.2116 7.44915 20.5559C7.44915 21.7328 7.44915 22.9096 7.44915 24.0865C7.44915 24.4388 7.56921 24.5589 7.91347 24.5589C9.19445 24.5589 10.4674 24.5589 11.7484 24.5589C12.1007 24.5589 12.2127 24.4388 12.2127 24.0865C12.2127 23.5021 12.2127 22.9096 12.2127 22.3252C12.2127 22.2291 12.2688 22.117 12.3329 22.045C12.469 21.8929 12.6371 21.7728 12.7812 21.6286C12.9334 21.4845 12.9413 21.2764 12.8052 21.1323C12.6771 20.9882 12.4769 20.9802 12.3088 21.1163C12.2368 21.1723 12.1647 21.2444 12.0926 21.3084C11.6043 21.7488 11.1239 22.1891 10.6195 22.6454C10.4434 22.4693 10.2833 22.2932 10.1071 22.125C9.923 21.9409 9.71489 21.9329 9.56278 22.085C9.41867 22.2371 9.43463 22.4453 9.61076 22.6294C9.83493 22.8536 10.0592 23.0778 10.2753 23.2939C10.5155 23.5341 10.6596 23.5341 10.9238 23.3019C11.0999 23.1498 11.2761 22.9897 11.4682 22.8136V23.8383H8.12965V20.796L8.15369 20.788ZM8.15369 13.9668H8.3859C9.47473 13.9668 10.5635 13.9668 11.6443 13.9668C11.7004 13.9668 11.7564 13.9668 11.8044 13.9668C12.0526 13.9588 12.1967 13.8227 12.1967 13.6146C12.1967 13.4064 12.0526 13.2703 11.8044 13.2703C10.4834 13.2703 9.16245 13.2703 7.84144 13.2703C7.56123 13.2703 7.43312 13.3984 7.43312 13.6946C7.43312 14.8955 7.43312 16.1045 7.43312 17.3054C7.43312 17.6016 7.56125 17.7217 7.86548 17.7217C9.16247 17.7217 10.4675 17.7217 11.7645 17.7217C12.0847 17.7217 12.1967 17.6096 12.1967 17.2894C12.1967 16.889 12.2287 16.4807 12.1967 16.0804C12.1407 15.552 12.2688 15.1437 12.7332 14.8395C12.9493 14.6954 12.9573 14.4632 12.8212 14.3031C12.6771 14.135 12.469 14.1429 12.2608 14.3271C11.7725 14.7674 11.292 15.2078 10.8037 15.6481C10.7476 15.6961 10.6916 15.7442 10.6115 15.8082C10.4434 15.6321 10.2833 15.456 10.1232 15.2958C9.93902 15.1117 9.73092 15.0957 9.5788 15.2398C9.42669 15.3919 9.44264 15.6001 9.61878 15.7842C9.85095 16.0164 10.0831 16.2486 10.3153 16.4807C10.5315 16.6969 10.6916 16.6969 10.9158 16.4887C11.0999 16.3286 11.2761 16.1605 11.4843 15.9763V17.0092H8.14568V13.9668H8.15369Z" fill="#0671B8"/>
<path d="M15.3912 26.0001C15.0229 25.872 14.8947 25.6238 14.8947 25.2315C14.9108 23.0058 14.8947 20.7882 14.8947 18.5625V18.2822H15.167C19.026 18.2822 22.8929 18.2822 26.7518 18.2822C26.8319 18.2822 26.912 18.2822 27.0001 18.2822V25.5838C26.848 25.7199 26.6958 25.856 26.5517 25.9921H15.3912V26.0001ZM22.1644 23.6783C22.1644 23.3981 22.1644 23.1179 22.1644 22.8377C22.1644 22.5655 22.0363 22.4374 21.764 22.4374C21.2036 22.4374 20.6432 22.4374 20.0828 22.4374C19.8106 22.4374 19.6745 22.5655 19.6745 22.8377C19.6745 23.4061 19.6745 23.9746 19.6745 24.543C19.6745 24.7992 19.8106 24.9353 20.0668 24.9353C20.6352 24.9353 21.2036 24.9353 21.764 24.9353C22.0282 24.9353 22.1563 24.7992 22.1563 24.543C22.1563 24.2548 22.1563 23.9666 22.1563 23.6783H22.1644ZM22.1644 20.62C22.1644 20.3318 22.1644 20.0436 22.1644 19.7554C22.1644 19.5072 22.0363 19.3711 21.7881 19.3631C21.2036 19.3631 20.6272 19.3631 20.0427 19.3631C19.8025 19.3631 19.6745 19.4992 19.6665 19.7393C19.6665 20.3238 19.6665 20.9002 19.6665 21.4847C19.6665 21.7329 19.8025 21.861 20.0587 21.861C20.6352 21.861 21.2036 21.861 21.7801 21.861C22.0283 21.861 22.1563 21.7328 22.1563 21.4767C22.1563 21.1884 22.1563 20.9003 22.1563 20.612L22.1644 20.62ZM16.3599 23.6783C16.3599 23.9746 16.3599 24.2628 16.3599 24.559C16.3599 24.7992 16.496 24.9273 16.7282 24.9353C17.3126 24.9353 17.8891 24.9353 18.4735 24.9353C18.7137 24.9353 18.8418 24.8072 18.8498 24.567C18.8498 23.9826 18.8498 23.3901 18.8498 22.8057C18.8498 22.5655 18.7057 22.4454 18.4655 22.4454C17.8891 22.4454 17.3206 22.4454 16.7442 22.4454C16.496 22.4454 16.3679 22.5735 16.3599 22.8217C16.3599 23.1099 16.3599 23.3981 16.3599 23.6863V23.6783ZM25.5429 23.7104C25.5429 23.4222 25.5429 23.1339 25.5429 22.8457C25.5429 22.5575 25.4148 22.4374 25.1266 22.4374C24.5742 22.4374 24.0218 22.4374 23.4694 22.4374C23.1811 22.4374 23.061 22.5655 23.061 22.8537C23.061 23.4062 23.061 23.9586 23.061 24.511C23.061 24.8072 23.1892 24.9353 23.4854 24.9353C24.0298 24.9353 24.5822 24.9353 25.1266 24.9353C25.4228 24.9353 25.5429 24.8072 25.5509 24.511C25.5509 24.2468 25.5509 23.9746 25.5509 23.7104H25.5429ZM17.6008 21.869C17.881 21.869 18.1613 21.869 18.4415 21.869C18.7217 21.869 18.8498 21.7489 18.8498 21.4687C18.8498 20.9003 18.8498 20.3318 18.8498 19.7714C18.8498 19.5071 18.7217 19.3791 18.4575 19.3791C17.8891 19.3791 17.3207 19.3791 16.7602 19.3791C16.496 19.3791 16.3679 19.5071 16.3679 19.7714C16.3679 20.3478 16.3679 20.9162 16.3679 21.4927C16.3679 21.7569 16.496 21.869 16.7682 21.877C17.0485 21.877 17.3286 21.877 17.6088 21.877L17.6008 21.869ZM24.27 21.869C24.5582 21.869 24.8464 21.869 25.1346 21.869C25.4148 21.869 25.5429 21.7489 25.5429 21.4687C25.5429 20.9003 25.5429 20.3318 25.5429 19.7714C25.5429 19.5071 25.4148 19.3791 25.1506 19.3791C24.5822 19.3791 24.0138 19.3791 23.4533 19.3791C23.1891 19.3791 23.061 19.5071 23.061 19.7714C23.061 20.3478 23.061 20.9162 23.061 21.4927C23.061 21.7569 23.1891 21.869 23.4613 21.877C23.7335 21.877 24.0058 21.877 24.278 21.877L24.27 21.869Z" fill="#FFB422"/>
<path d="M27.008 17.5855C24.1739 17.5855 21.3317 17.5855 18.4975 17.5855C17.3847 17.5855 16.2719 17.5855 15.151 17.5855H14.9108C14.9108 17.1212 14.8948 16.6728 14.9108 16.2245C14.9268 15.9843 15.167 15.8002 15.4312 15.7762C15.6154 15.7601 15.7995 15.7762 16.0076 15.7762C16.0317 16.1685 15.9516 16.6008 16.3519 16.873C16.6562 17.0812 17.0004 17.0411 17.3287 17.0011C18.0652 16.913 18.0893 16.3526 18.0572 15.7762H19.8346C19.8346 15.9203 19.8346 16.0564 19.8346 16.1925C19.8506 16.6969 20.1629 17.0091 20.6592 17.0171C20.8033 17.0171 20.9475 17.0171 21.0916 17.0171C21.5399 17.0011 21.8602 16.6809 21.8682 16.2325C21.8682 16.0884 21.8682 15.9443 21.8682 15.7922H23.6375C23.6535 16.1765 23.5815 16.5928 23.9658 16.873C24.262 17.0892 24.5982 17.0171 24.9184 17.0171C25.2227 17.0171 25.4789 16.873 25.591 16.5928C25.6791 16.3446 25.687 16.0644 25.7351 15.7762C26.1754 15.8242 26.7198 15.592 27.008 16.2005V17.5936V17.5855Z" fill="#FFB422"/>
<path d="M17.3607 15.5519C17.3607 15.76 17.3687 15.9602 17.3607 16.1683C17.3607 16.2244 17.2726 16.3125 17.2245 16.3125C16.6401 16.3125 16.7442 16.3925 16.7362 15.8801C16.7362 15.5759 16.7362 15.2637 16.7362 14.9594C16.7362 14.8313 16.7762 14.7753 16.9123 14.7753C17.4727 14.7753 17.3607 14.7273 17.3687 15.2076C17.3687 15.3197 17.3687 15.4398 17.3687 15.5519H17.3607Z" fill="#FFB422"/>
<path d="M20.5391 15.5363C20.5391 15.3441 20.5391 15.152 20.5391 14.9599C20.5391 14.8318 20.5711 14.7757 20.7152 14.7757C21.2917 14.7757 21.1716 14.7276 21.1797 15.224C21.1797 15.5282 21.1797 15.8405 21.1797 16.1447C21.1797 16.2648 21.1476 16.3208 21.0195 16.3208C20.459 16.3048 20.5551 16.401 20.5471 15.8645C20.5471 15.7525 20.5471 15.6484 20.5471 15.5363H20.5391Z" fill="#FFB422"/>
<path d="M24.9905 15.5356C24.9905 15.7438 24.9905 15.944 24.9905 16.1521C24.9905 16.2722 24.9424 16.3202 24.8223 16.3202C24.2699 16.3122 24.358 16.3923 24.35 15.8799C24.35 15.5757 24.35 15.2635 24.35 14.9592C24.35 14.8231 24.398 14.7751 24.5341 14.7831C25.0945 14.7831 24.9825 14.7351 24.9905 15.2154C24.9905 15.3275 24.9905 15.4316 24.9905 15.5437V15.5356Z" fill="#FFB422"/>
<path d="M21.4598 24.2229H20.387V23.1421H21.4598V24.2229Z" fill="#FFB422"/>
<path d="M21.4598 20.0835V21.1483H20.3951V20.0835H21.4598Z" fill="#FFB422"/>
<path d="M17.0806 23.1421H18.1453V24.2229H17.0806V23.1421Z" fill="#FFB422"/>
<path d="M24.8383 24.2229H23.7736V23.1421H24.8383V24.2229Z" fill="#FFB422"/>
<path d="M17.0806 21.1405V20.0757H18.1453V21.1405H17.0806Z" fill="#FFB422"/>
<path d="M23.7736 20.0757H24.8383V21.1405H23.7736V20.0757Z" fill="#FFB422"/>
<path d="M9.83494 11.6692C11.4488 11.6692 12.7572 10.3609 12.7572 8.74696C12.7572 7.13305 11.4488 5.82471 9.83494 5.82471C8.22104 5.82471 6.91269 7.13305 6.91269 8.74696C6.91269 10.3609 8.22104 11.6692 9.83494 11.6692Z" fill="white"/>
<path d="M9.787 11.0204C9.59485 10.6681 9.39464 10.3399 9.22651 10.0037C8.97832 9.50728 8.73011 9.24307 8.49793 8.73868C8.16968 8.01013 8.65012 7.28158 9.17051 7.04139C9.81901 6.73716 10.5876 6.94533 10.9639 7.5538C11.188 7.91407 11.2601 8.29836 11.084 8.69866C10.8518 9.21906 10.6036 9.49126 10.3474 9.99565C10.1713 10.3399 9.97914 10.6681 9.77898 11.0284L9.787 11.0204ZM9.787 8.8908C10.1152 8.8908 10.3875 8.62661 10.3875 8.29836C10.3875 7.97011 10.1152 7.6979 9.787 7.6979C9.46675 7.6979 9.19446 7.96209 9.19446 8.29034C9.19446 8.6266 9.45074 8.8908 9.787 8.8908Z" fill="#0671B8"/>
<path d="M16.7282 8.09838C17.4728 8.09838 18.2174 8.09838 18.962 8.09838C19.1941 8.09838 19.3462 7.97026 19.3543 7.77011C19.3623 7.56195 19.2102 7.41787 18.97 7.40186C18.9299 7.40186 18.8899 7.40186 18.8499 7.40186C17.4328 7.40186 16.0237 7.40186 14.6066 7.40186C14.5105 7.40186 14.4145 7.40184 14.3264 7.43386C14.1663 7.48991 14.0862 7.618 14.1102 7.78613C14.1262 7.95426 14.2303 8.05834 14.3984 8.09037C14.4625 8.09837 14.5345 8.09037 14.6066 8.09037C15.3191 8.09037 16.0237 8.09037 16.7362 8.09037L16.7282 8.09838Z" fill="white"/>
<path d="M16.7282 10.0837C17.4728 10.0837 18.2174 10.0837 18.962 10.0837C19.1941 10.0837 19.3462 9.95566 19.3543 9.75551C19.3623 9.54735 19.2102 9.40322 18.97 9.38721C18.9299 9.38721 18.8899 9.38721 18.8499 9.38721C17.4328 9.38721 16.0237 9.38721 14.6066 9.38721C14.5105 9.38721 14.4145 9.38719 14.3264 9.41921C14.1663 9.47526 14.0862 9.60336 14.1102 9.77148C14.1262 9.93961 14.2303 10.0437 14.3984 10.0757C14.4625 10.0837 14.5345 10.0757 14.6066 10.0757C15.3191 10.0757 16.0237 10.0757 16.7362 10.0757L16.7282 10.0837Z" fill="white"/>
</svg>
