<svg width="32" height="32" viewBox="0 0 32 32" fill="none" xmlns="http://www.w3.org/2000/svg">
<path d="M9.02959 24.2049H7.03259C7.03259 24.1226 7.03259 24.048 7.03259 23.9657C7.03259 18.0196 7.03259 12.0659 7.03259 6.11978C7.03259 5.34193 7.65339 4.83338 8.33401 5.05028C8.73042 5.17743 8.99968 5.51395 9.02211 5.9328C9.02211 6.02255 9.02211 6.11238 9.02211 6.19465C9.02211 12.1034 9.02211 18.0046 9.02211 23.9133V24.2049H9.02959Z" fill="#0671B8"/>
<path d="M25.9106 24.2047H23.9286C23.9286 24.1299 23.9136 24.0626 23.9136 23.9878C23.9136 18.0267 23.9136 12.0582 23.9061 6.09713C23.9061 5.35667 24.5494 4.83319 25.23 5.05757C25.6189 5.18472 25.8807 5.5437 25.9106 5.95506C25.9106 6.02986 25.9106 6.10469 25.9106 6.17948C25.9106 12.1032 25.9106 18.0194 25.9106 23.943V24.2122V24.2047Z" fill="#0671B8"/>
<path d="M16.4717 25.9924C13.248 25.9924 10.0319 25.9924 6.80826 25.9924C6.30715 25.9924 5.98554 25.6857 6.0005 25.237C6.01546 24.8929 6.27723 24.6086 6.62128 24.5712C6.70355 24.5637 6.78583 24.5637 6.86063 24.5637C13.2705 24.5637 19.6878 24.5637 26.0976 24.5637C26.3669 24.5637 26.6137 24.5937 26.7932 24.8181C26.9802 25.0425 27.0251 25.2968 26.9129 25.5585C26.8007 25.8278 26.5913 25.97 26.2996 25.9999C26.2098 25.9999 26.1201 25.9999 26.0378 25.9999C22.8441 25.9999 19.6579 25.9999 16.4642 25.9999L16.4717 25.9924Z" fill="#0671B8"/>
<path d="M9.37366 12.2975V10.6072H23.5621V12.2975H9.37366Z" fill="#0671B8"/>
<path d="M23.562 20.2632V21.9535H9.3811V20.2632H23.562Z" fill="#0671B8"/>
<path d="M12.1486 5.6707C12.1486 5.99979 12.1337 6.29896 12.1486 6.59814C12.1486 6.70285 12.2085 6.84506 12.2833 6.88993C12.358 6.92733 12.5076 6.88988 12.5974 6.83753C12.7619 6.74778 12.9115 6.54591 13.0686 6.54591C13.2182 6.54591 13.3603 6.75525 13.5173 6.83753C13.6071 6.88988 13.7492 6.92733 13.839 6.88993C13.9138 6.86002 13.9661 6.71783 13.9736 6.6206C13.9885 6.31394 13.9736 6.00729 13.9736 5.68567C14.4074 5.68567 14.8262 5.66324 15.2376 5.69316C15.447 5.70812 15.5891 5.9326 15.5891 6.17194C15.5891 7.36117 15.5891 8.54292 15.5891 9.73214C15.5891 10.0388 15.3797 10.2407 15.0731 10.2482C13.7417 10.2482 12.4029 10.2482 11.0716 10.2482C10.7649 10.2482 10.563 10.0388 10.563 9.72465C10.563 8.54291 10.563 7.36866 10.563 6.18692C10.563 5.91018 10.735 5.69314 10.9893 5.67819C11.3633 5.65575 11.7373 5.67819 12.1411 5.67819L12.1486 5.6707ZM12.8741 9.51521C12.6423 9.51521 11.8719 9.44783 11.64 9.44783C11.5129 9.44783 11.1913 9.3132 11.2212 9.44783C11.2287 9.51514 10.9968 9.2833 11.0716 9.2833C11.5428 9.29826 12.014 9.2833 12.4852 9.2833C12.6049 9.2833 12.7245 9.24591 12.7021 9.10381C12.6871 9.03649 13.2331 9.06637 13.1583 9.05889C12.9265 9.03645 13.1135 9.50024 12.8816 9.50024L12.8741 9.51521ZM11.4381 9.61984C11.3034 9.61984 12.7694 9.49277 12.6423 9.51521C12.5675 9.53017 12.1785 9.97889 12.1112 10.0312C12.1711 10.0911 10.9594 9.94141 11.0192 9.94889C11.2885 9.96385 11.5577 9.96385 11.8345 9.94889C11.8943 9.94889 11.9467 9.84421 12.0065 9.79185C11.9392 9.73202 11.8868 9.64977 11.812 9.62733C11.6924 9.59741 11.5652 9.62733 11.4381 9.62733V9.61984Z" fill="#FFB422"/>
<path d="M12.4852 5.6709H13.6445V6.47873C13.4501 6.37402 13.2556 6.18712 13.0611 6.18712C12.8741 6.18712 12.6872 6.37403 12.4927 6.4937V5.67839L12.4852 5.6709Z" fill="#FFB422"/>
<path d="M12.7021 8.87939H11.1837C11.0887 8.87939 11.0117 8.9564 11.0117 9.05141V9.05889C11.0117 9.1539 11.0887 9.2309 11.1837 9.2309H12.7021C12.7971 9.2309 12.8741 9.1539 12.8741 9.05889V9.05141C12.8741 8.9564 12.7971 8.87939 12.7021 8.87939Z" fill="white"/>
<path d="M11.9317 9.36572H11.1837C11.0887 9.36572 11.0117 9.44273 11.0117 9.53773V9.54522C11.0117 9.64023 11.0887 9.71723 11.1837 9.71723H11.9317C12.0267 9.71723 12.1037 9.64023 12.1037 9.54522V9.53773C12.1037 9.44273 12.0267 9.36572 11.9317 9.36572Z" fill="white"/>
<path d="M18.8201 5.6707C18.8201 5.99979 18.8052 6.29896 18.8201 6.59814C18.8201 6.70285 18.88 6.84506 18.9548 6.88993C19.0296 6.92733 19.1791 6.88988 19.2689 6.83753C19.4334 6.74778 19.583 6.54591 19.7401 6.54591C19.8897 6.54591 20.0318 6.75525 20.1889 6.83753C20.2786 6.88988 20.4207 6.92733 20.5105 6.88993C20.5853 6.86002 20.6376 6.71783 20.6451 6.6206C20.6601 6.31394 20.6451 6.00729 20.6451 5.68567C21.0789 5.68567 21.4978 5.66324 21.9091 5.69316C22.1185 5.70812 22.2606 5.9326 22.2606 6.17194C22.2606 7.36117 22.2606 8.54292 22.2606 9.73214C22.2606 10.0388 22.0512 10.2407 21.7446 10.2482C20.4132 10.2482 19.0744 10.2482 17.7431 10.2482C17.4364 10.2482 17.2345 10.0388 17.2345 9.72465C17.2345 8.54291 17.2345 7.36866 17.2345 6.18692C17.2345 5.91018 17.4065 5.69314 17.6608 5.67819C18.0348 5.65575 18.4088 5.67819 18.8126 5.67819L18.8201 5.6707ZM19.5456 9.51521C19.3138 9.51521 18.5434 9.44783 18.3115 9.44783C18.1844 9.44783 17.8628 9.3132 17.8927 9.44783C17.9002 9.51514 17.6683 9.2833 17.7431 9.2833C18.2143 9.29826 18.6855 9.2833 19.1567 9.2833C19.2764 9.2833 19.396 9.24591 19.3736 9.10381C19.3586 9.03649 19.9046 9.06637 19.8298 9.05889C19.598 9.03645 19.785 9.50024 19.5531 9.50024L19.5456 9.51521ZM18.1096 9.61984C17.975 9.61984 19.4409 9.49277 19.3138 9.51521C19.239 9.53017 18.8501 9.97889 18.7827 10.0312C18.8426 10.0911 17.6309 9.94141 17.6907 9.94889C17.96 9.96385 18.2293 9.96385 18.506 9.94889C18.5658 9.94889 18.6182 9.84421 18.678 9.79185C18.6107 9.73202 18.5583 9.64977 18.4836 9.62733C18.3639 9.59741 18.2367 9.62733 18.1096 9.62733V9.61984Z" fill="#FFB422"/>
<path d="M19.1567 5.6709H20.316V6.47873C20.1216 6.37402 19.9271 6.18712 19.7327 6.18712C19.5457 6.18712 19.3587 6.37403 19.1642 6.4937V5.67839L19.1567 5.6709Z" fill="#FFB422"/>
<path d="M19.3736 8.87939H17.8553C17.7602 8.87939 17.6832 8.9564 17.6832 9.05141V9.05889C17.6832 9.1539 17.7602 9.2309 17.8553 9.2309H19.3736C19.4686 9.2309 19.5456 9.1539 19.5456 9.05889V9.05141C19.5456 8.9564 19.4686 8.87939 19.3736 8.87939Z" fill="white"/>
<path d="M18.6032 9.36572H17.8553C17.7602 9.36572 17.6832 9.44273 17.6832 9.53773V9.54522C17.6832 9.64023 17.7602 9.71723 17.8553 9.71723H18.6032C18.6982 9.71723 18.7752 9.64023 18.7752 9.54522V9.53773C18.7752 9.44273 18.6982 9.36572 18.6032 9.36572Z" fill="white"/>
<path d="M12.1486 15.2894C12.1486 15.6184 12.1337 15.9176 12.1486 16.2168C12.1486 16.3215 12.2085 16.4635 12.2833 16.5084C12.358 16.5458 12.5076 16.5085 12.5974 16.4562C12.7619 16.3664 12.9115 16.1644 13.0686 16.1644C13.2182 16.1644 13.3603 16.3739 13.5173 16.4562C13.6071 16.5085 13.7492 16.5458 13.839 16.5084C13.9138 16.4785 13.9661 16.3365 13.9736 16.2392C13.9885 15.9326 13.9736 15.6259 13.9736 15.3043C14.4074 15.3043 14.8262 15.2819 15.2376 15.3118C15.447 15.3268 15.5891 15.5511 15.5891 15.7904C15.5891 16.9796 15.5891 18.1614 15.5891 19.3506C15.5891 19.6573 15.3797 19.8592 15.0731 19.8666C13.7417 19.8666 12.4029 19.8666 11.0716 19.8666C10.7649 19.8666 10.563 19.6573 10.563 19.3431C10.563 18.1614 10.563 16.9871 10.563 15.8054C10.563 15.5286 10.735 15.3118 10.9893 15.2968C11.3633 15.2744 11.7373 15.2968 12.1411 15.2968L12.1486 15.2894ZM12.8741 19.1337C12.6423 19.1337 11.8719 19.0665 11.64 19.0665C11.5129 19.0665 11.1913 18.9319 11.2212 19.0665C11.2287 19.1338 10.9968 18.902 11.0716 18.902C11.5428 18.9169 12.014 18.902 12.4852 18.902C12.6049 18.902 12.7245 18.8646 12.7021 18.7225C12.6871 18.6551 13.2331 18.685 13.1583 18.6775C12.9265 18.6551 13.1135 19.1187 12.8816 19.1187L12.8741 19.1337ZM11.4381 19.2385C11.3034 19.2385 12.7694 19.1112 12.6423 19.1337C12.5675 19.1486 12.1785 19.5975 12.1112 19.6499C12.1711 19.7097 10.9594 19.5601 11.0192 19.5675C11.2885 19.5825 11.5577 19.5825 11.8345 19.5675C11.8943 19.5675 11.9467 19.4629 12.0065 19.4105C11.9392 19.3507 11.8868 19.2684 11.812 19.246C11.6924 19.2161 11.5652 19.246 11.4381 19.246V19.2385Z" fill="#FFB422"/>
<path d="M12.4852 15.2896H13.6445V16.0974C13.4501 15.9927 13.2556 15.8056 13.0611 15.8056C12.8741 15.8056 12.6872 15.9927 12.4927 16.1124V15.297L12.4852 15.2896Z" fill="#FFB422"/>
<path d="M12.7021 18.498H11.1837C11.0887 18.498 11.0117 18.5751 11.0117 18.6701V18.6775C11.0117 18.7726 11.0887 18.8496 11.1837 18.8496H12.7021C12.7971 18.8496 12.8741 18.7726 12.8741 18.6775V18.6701C12.8741 18.5751 12.7971 18.498 12.7021 18.498Z" fill="white"/>
<path d="M11.9317 18.9841H11.1837C11.0887 18.9841 11.0117 19.0611 11.0117 19.1561V19.1636C11.0117 19.2586 11.0887 19.3356 11.1837 19.3356H11.9317C12.0267 19.3356 12.1037 19.2586 12.1037 19.1636V19.1561C12.1037 19.0611 12.0267 18.9841 11.9317 18.9841Z" fill="white"/>
<path d="M18.8201 15.2894C18.8201 15.6184 18.8052 15.9176 18.8201 16.2168C18.8201 16.3215 18.88 16.4635 18.9548 16.5084C19.0296 16.5458 19.1791 16.5085 19.2689 16.4562C19.4334 16.3664 19.583 16.1644 19.7401 16.1644C19.8897 16.1644 20.0318 16.3739 20.1889 16.4562C20.2786 16.5085 20.4207 16.5458 20.5105 16.5084C20.5853 16.4785 20.6376 16.3365 20.6451 16.2392C20.6601 15.9326 20.6451 15.6259 20.6451 15.3043C21.0789 15.3043 21.4978 15.2819 21.9091 15.3118C22.1185 15.3268 22.2606 15.5511 22.2606 15.7904C22.2606 16.9796 22.2606 18.1614 22.2606 19.3506C22.2606 19.6573 22.0512 19.8592 21.7446 19.8666C20.4132 19.8666 19.0744 19.8666 17.7431 19.8666C17.4364 19.8666 17.2345 19.6573 17.2345 19.3431C17.2345 18.1614 17.2345 16.9871 17.2345 15.8054C17.2345 15.5286 17.4065 15.3118 17.6608 15.2968C18.0348 15.2744 18.4088 15.2968 18.8126 15.2968L18.8201 15.2894ZM19.5456 19.1337C19.3138 19.1337 18.5434 19.0665 18.3115 19.0665C18.1844 19.0665 17.8628 18.9319 17.8927 19.0665C17.9002 19.1338 17.6683 18.902 17.7431 18.902C18.2143 18.9169 18.6855 18.902 19.1567 18.902C19.2764 18.902 19.396 18.8646 19.3736 18.7225C19.3586 18.6551 19.9046 18.685 19.8298 18.6775C19.598 18.6551 19.785 19.1187 19.5531 19.1187L19.5456 19.1337ZM18.1096 19.2385C17.975 19.2385 19.4409 19.1112 19.3138 19.1337C19.239 19.1486 18.8501 19.5975 18.7827 19.6499C18.8426 19.7097 17.6309 19.5601 17.6907 19.5675C17.96 19.5825 18.2293 19.5825 18.506 19.5675C18.5658 19.5675 18.6182 19.4629 18.678 19.4105C18.6107 19.3507 18.5583 19.2684 18.4836 19.246C18.3639 19.2161 18.2367 19.246 18.1096 19.246V19.2385Z" fill="#FFB422"/>
<path d="M19.1567 15.2896H20.316V16.0974C20.1216 15.9927 19.9271 15.8056 19.7327 15.8056C19.5457 15.8056 19.3587 15.9927 19.1642 16.1124V15.297L19.1567 15.2896Z" fill="#FFB422"/>
<path d="M19.3736 18.498H17.8553C17.7602 18.498 17.6832 18.5751 17.6832 18.6701V18.6775C17.6832 18.7726 17.7602 18.8496 17.8553 18.8496H19.3736C19.4686 18.8496 19.5456 18.7726 19.5456 18.6775V18.6701C19.5456 18.5751 19.4686 18.498 19.3736 18.498Z" fill="white"/>
<path d="M18.6032 18.9841H17.8553C17.7602 18.9841 17.6832 19.0611 17.6832 19.1561V19.1636C17.6832 19.2586 17.7602 19.3356 17.8553 19.3356H18.6032C18.6982 19.3356 18.7752 19.2586 18.7752 19.1636V19.1561C18.7752 19.0611 18.6982 18.9841 18.6032 18.9841Z" fill="white"/>
</svg>
