<svg width="105" height="12" viewBox="0 0 105 12" fill="none" xmlns="http://www.w3.org/2000/svg">
<path d="M0.196833 9.25V0.522727H3.24797C3.85592 0.522727 4.35734 0.627841 4.75223 0.838068C5.14712 1.04545 5.44115 1.32528 5.63433 1.67756C5.82751 2.02699 5.92411 2.41477 5.92411 2.84091C5.92411 3.21591 5.85734 3.52557 5.72382 3.76989C5.59314 4.0142 5.41984 4.20739 5.20394 4.34943C4.99087 4.49148 4.75933 4.59659 4.50933 4.66477V4.75C4.77638 4.76705 5.04484 4.8608 5.31473 5.03125C5.58462 5.2017 5.81047 5.44602 5.99229 5.7642C6.17411 6.08239 6.26501 6.47159 6.26501 6.93182C6.26501 7.36932 6.16558 7.76278 5.96672 8.11222C5.76786 8.46165 5.45394 8.73864 5.02496 8.94318C4.59598 9.14773 4.03774 9.25 3.35024 9.25H0.196833ZM1.25365 8.3125H3.35024C4.04058 8.3125 4.53064 8.17898 4.82041 7.91193C5.11303 7.64205 5.25933 7.31534 5.25933 6.93182C5.25933 6.63636 5.18405 6.36364 5.03348 6.11364C4.88291 5.8608 4.66842 5.65909 4.39001 5.50852C4.11161 5.35511 3.78206 5.27841 3.40138 5.27841H1.25365V8.3125ZM1.25365 4.35795H3.21388C3.53206 4.35795 3.81899 4.29545 4.07467 4.17045C4.3332 4.04545 4.53774 3.86932 4.68831 3.64205C4.84172 3.41477 4.91842 3.14773 4.91842 2.84091C4.91842 2.45739 4.7849 2.1321 4.51786 1.86506C4.25081 1.59517 3.82751 1.46023 3.24797 1.46023H1.25365V4.35795ZM7.86516 9.25V2.70455H8.83675V3.69318H8.90493C9.02425 3.36932 9.24016 3.10653 9.55266 2.90483C9.86516 2.70312 10.2174 2.60227 10.6095 2.60227C10.6833 2.60227 10.7757 2.60369 10.8865 2.60653C10.9973 2.60937 11.0811 2.61364 11.1379 2.61932V3.64205C11.1038 3.63352 11.0257 3.62074 10.9035 3.60369C10.7842 3.58381 10.6578 3.57386 10.5242 3.57386C10.2061 3.57386 9.92198 3.64062 9.67197 3.77415C9.42482 3.90483 9.22879 4.08665 9.08391 4.3196C8.94186 4.54972 8.87084 4.8125 8.87084 5.10795V9.25H7.86516ZM14.2561 9.40341C13.8414 9.40341 13.4649 9.32528 13.1269 9.16903C12.7888 9.00994 12.5203 8.78125 12.3215 8.48295C12.1226 8.18182 12.0232 7.81818 12.0232 7.39205C12.0232 7.01705 12.097 6.71307 12.2448 6.48011C12.3925 6.24432 12.5899 6.05966 12.8371 5.92614C13.0843 5.79261 13.357 5.69318 13.6553 5.62784C13.9564 5.55966 14.259 5.50568 14.563 5.46591C14.9607 5.41477 15.2831 5.37642 15.5303 5.35085C15.7803 5.32244 15.9621 5.27557 16.0757 5.21023C16.1922 5.14489 16.2505 5.03125 16.2505 4.86932V4.83523C16.2505 4.41477 16.1354 4.08807 15.9053 3.85511C15.678 3.62216 15.3328 3.50568 14.8698 3.50568C14.3897 3.50568 14.0132 3.6108 13.7405 3.82102C13.4678 4.03125 13.276 4.25568 13.1652 4.49432L12.2107 4.15341C12.3811 3.75568 12.6084 3.44602 12.8925 3.22443C13.1794 3 13.4919 2.84375 13.83 2.75568C14.1709 2.66477 14.5061 2.61932 14.8357 2.61932C15.0459 2.61932 15.2874 2.64489 15.5601 2.69602C15.8357 2.74432 16.1013 2.84517 16.357 2.99858C16.6155 3.15199 16.83 3.38352 17.0005 3.69318C17.1709 4.00284 17.2561 4.41761 17.2561 4.9375V9.25H16.2505V8.36364H16.1993C16.1311 8.50568 16.0175 8.65767 15.8584 8.8196C15.6993 8.98153 15.4877 9.11932 15.2235 9.23295C14.9593 9.34659 14.6368 9.40341 14.2561 9.40341ZM14.4095 8.5C14.8073 8.5 15.1425 8.42188 15.4152 8.26562C15.6908 8.10938 15.8982 7.90767 16.0374 7.66051C16.1794 7.41335 16.2505 7.15341 16.2505 6.88068V5.96023C16.2078 6.01136 16.1141 6.05824 15.9692 6.10085C15.8272 6.14062 15.6624 6.17614 15.4749 6.20739C15.2902 6.2358 15.1098 6.26136 14.9337 6.28409C14.7604 6.30398 14.6198 6.32102 14.5118 6.33523C14.2505 6.36932 14.0061 6.42472 13.7789 6.50142C13.5544 6.57528 13.3726 6.6875 13.2334 6.83807C13.097 6.9858 13.0289 7.1875 13.0289 7.44318C13.0289 7.79261 13.1581 8.05682 13.4166 8.2358C13.678 8.41193 14.009 8.5 14.4095 8.5ZM20.0974 5.3125V9.25H19.0917V2.70455H20.0633V3.72727H20.1485C20.3019 3.39489 20.5349 3.12784 20.8474 2.92614C21.1599 2.72159 21.5633 2.61932 22.0576 2.61932C22.5008 2.61932 22.8886 2.71023 23.221 2.89205C23.5534 3.07102 23.8119 3.34375 23.9965 3.71023C24.1812 4.07386 24.2735 4.53409 24.2735 5.09091V9.25H23.2679V5.15909C23.2679 4.64489 23.1343 4.24432 22.8673 3.95739C22.6002 3.66761 22.2338 3.52273 21.7679 3.52273C21.4468 3.52273 21.1599 3.59233 20.9071 3.73153C20.6571 3.87074 20.4596 4.07386 20.3147 4.34091C20.1698 4.60795 20.0974 4.93182 20.0974 5.3125ZM28.5828 9.38636C28.0374 9.38636 27.5559 9.24858 27.1382 8.97301C26.7206 8.6946 26.3939 8.30256 26.1581 7.79688C25.9223 7.28835 25.8044 6.6875 25.8044 5.99432C25.8044 5.30682 25.9223 4.71023 26.1581 4.20455C26.3939 3.69886 26.722 3.30824 27.1425 3.03267C27.563 2.7571 28.0488 2.61932 28.5999 2.61932C29.026 2.61932 29.3627 2.69034 29.6098 2.83239C29.8598 2.97159 30.0502 3.13068 30.1809 3.30966C30.3144 3.4858 30.4181 3.63068 30.4919 3.74432H30.5772V0.522727H31.5828V9.25H30.6113V8.24432H30.4919C30.4181 8.36364 30.313 8.5142 30.1766 8.69602C30.0402 8.875 29.8456 9.03551 29.5928 9.17756C29.3399 9.31676 29.0033 9.38636 28.5828 9.38636ZM28.7192 8.48295C29.1226 8.48295 29.4635 8.37784 29.7419 8.16761C30.0203 7.95455 30.232 7.66051 30.3769 7.28551C30.5218 6.90767 30.5942 6.47159 30.5942 5.97727C30.5942 5.48864 30.5232 5.06108 30.3811 4.6946C30.2391 4.32528 30.0289 4.03835 29.7505 3.83381C29.472 3.62642 29.1283 3.52273 28.7192 3.52273C28.2931 3.52273 27.938 3.6321 27.6539 3.85085C27.3726 4.06676 27.161 4.3608 27.0189 4.73295C26.8797 5.10227 26.8101 5.51705 26.8101 5.97727C26.8101 6.44318 26.8811 6.86648 27.0232 7.24716C27.1681 7.625 27.3811 7.92614 27.6624 8.15057C27.9465 8.37216 28.2988 8.48295 28.7192 8.48295ZM33.5644 9.25V2.70455H34.5701V9.25H33.5644ZM34.0757 1.61364C33.8797 1.61364 33.7107 1.54688 33.5686 1.41335C33.4294 1.27983 33.3598 1.11932 33.3598 0.931818C33.3598 0.744318 33.4294 0.583807 33.5686 0.450284C33.7107 0.316761 33.8797 0.25 34.0757 0.25C34.2718 0.25 34.4394 0.316761 34.5786 0.450284C34.7206 0.583807 34.7916 0.744318 34.7916 0.931818C34.7916 1.11932 34.7206 1.27983 34.5786 1.41335C34.4394 1.54688 34.2718 1.61364 34.0757 1.61364ZM37.4177 5.3125V9.25H36.412V2.70455H37.3836V3.72727H37.4688C37.6223 3.39489 37.8552 3.12784 38.1677 2.92614C38.4802 2.72159 38.8836 2.61932 39.3779 2.61932C39.8211 2.61932 40.2089 2.71023 40.5413 2.89205C40.8737 3.07102 41.1322 3.34375 41.3169 3.71023C41.5015 4.07386 41.5939 4.53409 41.5939 5.09091V9.25H40.5882V5.15909C40.5882 4.64489 40.4546 4.24432 40.1876 3.95739C39.9206 3.66761 39.5541 3.52273 39.0882 3.52273C38.7671 3.52273 38.4802 3.59233 38.2274 3.73153C37.9774 3.87074 37.7799 4.07386 37.635 4.34091C37.4902 4.60795 37.4177 4.93182 37.4177 5.3125ZM46.0736 11.8409C45.5878 11.8409 45.1702 11.7784 44.8208 11.6534C44.4713 11.5312 44.1801 11.3693 43.9472 11.1676C43.7171 10.9688 43.5338 10.7557 43.3975 10.5284L44.1986 9.96591C44.2895 10.0852 44.4046 10.2216 44.5438 10.375C44.683 10.5312 44.8733 10.6662 45.1148 10.7798C45.3591 10.8963 45.6787 10.9545 46.0736 10.9545C46.602 10.9545 47.0381 10.8267 47.3818 10.571C47.7256 10.3153 47.8975 9.91477 47.8975 9.36932V8.03977H47.8122C47.7384 8.15909 47.6333 8.30682 47.4969 8.48295C47.3634 8.65625 47.1702 8.81108 46.9174 8.94744C46.6674 9.08097 46.3293 9.14773 45.9032 9.14773C45.3747 9.14773 44.9003 9.02273 44.4799 8.77273C44.0622 8.52273 43.7313 8.15909 43.487 7.68182C43.2455 7.20455 43.1247 6.625 43.1247 5.94318C43.1247 5.27273 43.2426 4.68892 43.4784 4.19176C43.7142 3.69176 44.0424 3.3054 44.4628 3.03267C44.8833 2.7571 45.3691 2.61932 45.9202 2.61932C46.3463 2.61932 46.6844 2.69034 46.9344 2.83239C47.1872 2.97159 47.3804 3.13068 47.5139 3.30966C47.6503 3.4858 47.7554 3.63068 47.8293 3.74432H47.9316V2.70455H48.9032V9.4375C48.9032 10 48.7753 10.4574 48.5196 10.8097C48.2668 11.1648 47.9259 11.4247 47.4969 11.5895C47.0708 11.7571 46.5963 11.8409 46.0736 11.8409ZM46.0395 8.24432C46.4429 8.24432 46.7838 8.15199 47.0622 7.96733C47.3407 7.78267 47.5523 7.51705 47.6972 7.17045C47.8421 6.82386 47.9145 6.40909 47.9145 5.92614C47.9145 5.45455 47.8435 5.03835 47.7014 4.67756C47.5594 4.31676 47.3492 4.03409 47.0708 3.82955C46.7924 3.625 46.4486 3.52273 46.0395 3.52273C45.6134 3.52273 45.2583 3.63068 44.9742 3.84659C44.6929 4.0625 44.4813 4.35227 44.3392 4.71591C44.2 5.07955 44.1304 5.48295 44.1304 5.92614C44.1304 6.38068 44.2014 6.78267 44.3435 7.1321C44.4884 7.47869 44.7014 7.75142 44.9827 7.95028C45.2668 8.14631 45.6191 8.24432 46.0395 8.24432ZM54.2554 9.25V0.522727H59.5225V1.46023H55.3122V4.40909H59.2497V5.34659H55.3122V8.3125H59.5907V9.25H54.2554ZM62.2966 0.522727V9.25H61.2909V0.522727H62.2966ZM66.8829 9.38636C66.2522 9.38636 65.7082 9.24716 65.2508 8.96875C64.7963 8.6875 64.4454 8.29545 64.1983 7.79261C63.9539 7.28693 63.8318 6.69886 63.8318 6.02841C63.8318 5.35795 63.9539 4.76705 64.1983 4.25568C64.4454 3.74148 64.7892 3.34091 65.2295 3.05398C65.6727 2.7642 66.1897 2.61932 66.7806 2.61932C67.1215 2.61932 67.4582 2.67614 67.7906 2.78977C68.123 2.90341 68.4255 3.08807 68.6983 3.34375C68.971 3.59659 69.1883 3.93182 69.3502 4.34943C69.5122 4.76705 69.5931 5.28125 69.5931 5.89205V6.31818H64.5477V5.44886H68.5704C68.5704 5.07955 68.4965 4.75 68.3488 4.46023C68.2039 4.17045 67.9965 3.94176 67.7267 3.77415C67.4596 3.60653 67.1443 3.52273 66.7806 3.52273C66.3801 3.52273 66.0335 3.62216 65.7409 3.82102C65.4511 4.01705 65.2281 4.27273 65.0718 4.58807C64.9156 4.90341 64.8375 5.24148 64.8375 5.60227V6.18182C64.8375 6.67614 64.9227 7.09517 65.0931 7.43892C65.2664 7.77983 65.5065 8.03977 65.8133 8.21875C66.1201 8.39489 66.4767 8.48295 66.8829 8.48295C67.1471 8.48295 67.3858 8.44602 67.5988 8.37216C67.8147 8.29545 68.0008 8.18182 68.1571 8.03125C68.3133 7.87784 68.434 7.6875 68.5193 7.46023L69.4909 7.73295C69.3886 8.0625 69.2167 8.35227 68.9752 8.60227C68.7338 8.84943 68.4355 9.04261 68.0804 9.18182C67.7252 9.31818 67.3261 9.38636 66.8829 9.38636ZM71.123 9.25V2.70455H72.0946V3.72727H72.1798C72.3162 3.37784 72.5363 3.10653 72.8403 2.91335C73.1443 2.71733 73.5093 2.61932 73.9355 2.61932C74.3673 2.61932 74.7267 2.71733 75.0136 2.91335C75.3034 3.10653 75.5292 3.37784 75.6912 3.72727H75.7593C75.9269 3.3892 76.1784 3.12074 76.5136 2.92188C76.8488 2.72017 77.2508 2.61932 77.7196 2.61932C78.3048 2.61932 78.7835 2.80256 79.1556 3.16903C79.5278 3.53267 79.7139 4.09943 79.7139 4.86932V9.25H78.7082V4.86932C78.7082 4.38636 78.5761 4.04119 78.3119 3.83381C78.0477 3.62642 77.7366 3.52273 77.3787 3.52273C76.9184 3.52273 76.5619 3.66193 76.309 3.94034C76.0562 4.21591 75.9298 4.56534 75.9298 4.98864V9.25H74.9071V4.76705C74.9071 4.39489 74.7863 4.09517 74.5448 3.8679C74.3034 3.63778 73.9923 3.52273 73.6116 3.52273C73.3502 3.52273 73.1059 3.59233 72.8787 3.73153C72.6542 3.87074 72.4724 4.06392 72.3332 4.31108C72.1968 4.5554 72.1287 4.83807 72.1287 5.15909V9.25H71.123ZM84.297 9.38636C83.6663 9.38636 83.1223 9.24716 82.6649 8.96875C82.2103 8.6875 81.8595 8.29545 81.6123 7.79261C81.368 7.28693 81.2458 6.69886 81.2458 6.02841C81.2458 5.35795 81.368 4.76705 81.6123 4.25568C81.8595 3.74148 82.2032 3.34091 82.6436 3.05398C83.0867 2.7642 83.6038 2.61932 84.1947 2.61932C84.5356 2.61932 84.8723 2.67614 85.2046 2.78977C85.537 2.90341 85.8396 3.08807 86.1123 3.34375C86.385 3.59659 86.6024 3.93182 86.7643 4.34943C86.9262 4.76705 87.0072 5.28125 87.0072 5.89205V6.31818H81.9617V5.44886H85.9845C85.9845 5.07955 85.9106 4.75 85.7629 4.46023C85.618 4.17045 85.4106 3.94176 85.1407 3.77415C84.8737 3.60653 84.5583 3.52273 84.1947 3.52273C83.7941 3.52273 83.4475 3.62216 83.1549 3.82102C82.8652 4.01705 82.6421 4.27273 82.4859 4.58807C82.3296 4.90341 82.2515 5.24148 82.2515 5.60227V6.18182C82.2515 6.67614 82.3367 7.09517 82.5072 7.43892C82.6805 7.77983 82.9206 8.03977 83.2274 8.21875C83.5342 8.39489 83.8907 8.48295 84.297 8.48295C84.5612 8.48295 84.7998 8.44602 85.0129 8.37216C85.2288 8.29545 85.4149 8.18182 85.5711 8.03125C85.7274 7.87784 85.8481 7.6875 85.9333 7.46023L86.9049 7.73295C86.8027 8.0625 86.6308 8.35227 86.3893 8.60227C86.1478 8.84943 85.8495 9.04261 85.4944 9.18182C85.1393 9.31818 84.7402 9.38636 84.297 9.38636ZM89.5427 5.3125V9.25H88.537V2.70455H89.5086V3.72727H89.5938C89.7473 3.39489 89.9802 3.12784 90.2927 2.92614C90.6052 2.72159 91.0086 2.61932 91.5029 2.61932C91.9461 2.61932 92.3339 2.71023 92.6663 2.89205C92.9987 3.07102 93.2572 3.34375 93.4419 3.71023C93.6265 4.07386 93.7189 4.53409 93.7189 5.09091V9.25H92.7132V5.15909C92.7132 4.64489 92.5796 4.24432 92.3126 3.95739C92.0456 3.66761 91.6791 3.52273 91.2132 3.52273C90.8921 3.52273 90.6052 3.59233 90.3524 3.73153C90.1024 3.87074 89.9049 4.07386 89.76 4.34091C89.6152 4.60795 89.5427 4.93182 89.5427 5.3125ZM98.4032 2.70455V3.55682H95.0111V2.70455H98.4032ZM95.9997 1.13636H97.0054V7.375C97.0054 7.65909 97.0466 7.87216 97.129 8.0142C97.2142 8.15341 97.3222 8.24716 97.4529 8.29545C97.5864 8.34091 97.727 8.36364 97.8747 8.36364C97.9855 8.36364 98.0764 8.35795 98.1475 8.34659C98.2185 8.33239 98.2753 8.32102 98.3179 8.3125L98.5225 9.21591C98.4543 9.24148 98.3591 9.26705 98.237 9.29261C98.1148 9.32102 97.96 9.33523 97.7725 9.33523C97.4884 9.33523 97.21 9.27415 96.9372 9.15199C96.6674 9.02983 96.4429 8.84375 96.2639 8.59375C96.0878 8.34375 95.9997 8.02841 95.9997 7.64773V1.13636ZM104.435 4.17045L103.532 4.42614C103.475 4.27557 103.391 4.12926 103.28 3.98722C103.172 3.84233 103.025 3.72301 102.837 3.62926C102.65 3.53551 102.41 3.48864 102.117 3.48864C101.716 3.48864 101.383 3.58097 101.116 3.76562C100.851 3.94744 100.719 4.17898 100.719 4.46023C100.719 4.71023 100.81 4.90767 100.992 5.05256C101.174 5.19744 101.458 5.31818 101.844 5.41477L102.816 5.65341C103.401 5.79545 103.837 6.01278 104.124 6.3054C104.411 6.59517 104.554 6.96875 104.554 7.42614C104.554 7.80114 104.446 8.13636 104.231 8.43182C104.018 8.72727 103.719 8.96023 103.336 9.13068C102.952 9.30114 102.506 9.38636 101.998 9.38636C101.33 9.38636 100.777 9.24148 100.34 8.9517C99.9024 8.66193 99.6255 8.23864 99.509 7.68182L100.464 7.44318C100.554 7.79545 100.726 8.05966 100.979 8.2358C101.235 8.41193 101.569 8.5 101.981 8.5C102.449 8.5 102.821 8.40057 103.097 8.2017C103.375 8 103.515 7.75852 103.515 7.47727C103.515 7.25 103.435 7.05966 103.276 6.90625C103.117 6.75 102.873 6.63352 102.543 6.55682L101.452 6.30114C100.853 6.15909 100.412 5.93892 100.131 5.64062C99.8527 5.33949 99.7135 4.96307 99.7135 4.51136C99.7135 4.14205 99.8172 3.81534 100.025 3.53125C100.235 3.24716 100.52 3.02415 100.881 2.86222C101.245 2.70028 101.657 2.61932 102.117 2.61932C102.765 2.61932 103.273 2.76136 103.643 3.04545C104.015 3.32955 104.279 3.70455 104.435 4.17045Z" fill="black"/>
</svg>
