<svg width="33" height="32" viewBox="0 0 33 32" fill="none" xmlns="http://www.w3.org/2000/svg">
<path d="M12.3111 24.3374C12.2243 24.4636 12.1612 24.6292 12.0429 24.7159C11.3096 25.2285 10.5683 25.7253 9.82705 26.2221C9.55894 26.4034 9.30662 26.3246 9.10947 26.0249C8.52593 25.1575 7.93446 24.29 7.35092 23.4305C6.79103 22.5946 6.2233 21.7587 5.66341 20.9229C5.40318 20.5443 5.45046 20.3156 5.82898 20.0632C6.50715 19.6059 7.17745 19.1485 7.85562 18.6911C8.19471 18.4624 8.43919 18.5097 8.66787 18.8409C9.81919 20.5442 10.9784 22.2554 12.1297 23.9588C12.2006 24.0613 12.2401 24.1876 12.3111 24.3374Z" fill="#FFB422"/>
<path d="M19.2741 19.2037V18.9197C19.2741 18.8014 19.2741 18.6832 19.2741 18.5728C18.6354 18.3678 18.2411 17.9656 18.0913 17.382C18.0755 17.3189 18.0676 17.248 18.0597 17.177L18.0203 16.9246H19.0691L19.1007 17.0193C19.2111 17.3663 19.4949 17.595 19.8261 17.595C19.9917 17.595 20.1495 17.5398 20.2914 17.4294C20.4255 17.3269 20.4965 17.1928 20.4965 17.0509C20.4965 16.909 20.4255 16.7747 20.2914 16.6722C20.1574 16.5697 19.9997 16.5224 19.7552 16.5145C19.1559 16.4909 18.6827 16.2465 18.3515 15.797C18.0834 15.4342 17.9967 14.9847 18.1071 14.551C18.2253 14.0936 18.5487 13.7073 18.9981 13.4944C19.0849 13.4471 19.1637 13.4155 19.2426 13.3997L19.4319 13.3129L19.2899 13.3287C19.282 13.2261 19.282 13.1237 19.2899 13.0212V12.7451H20.3624V13.0212C20.3624 13.1316 20.3624 13.234 20.3624 13.3444C21.0484 13.6047 21.4348 14.0306 21.561 14.6615C21.5689 14.7088 21.5768 14.7561 21.5768 14.8113V14.9611L21.4427 15.0321H20.5359L20.5201 14.9058C20.4807 14.6219 20.3151 14.4564 20.0233 14.3933C19.9444 14.3775 19.8735 14.3696 19.8025 14.3696C19.5817 14.3696 19.4003 14.4564 19.2505 14.6299C19.0928 14.8192 19.1243 15.0873 19.3293 15.2608C19.4713 15.3791 19.6369 15.4343 19.8892 15.4422C20.4886 15.4658 20.9617 15.7023 21.2929 16.1518C21.561 16.5146 21.6478 16.9483 21.5531 17.3741C21.4506 17.8157 21.1431 18.2022 20.7093 18.4309C20.5989 18.4861 20.4806 18.5334 20.3545 18.5728C20.3702 18.6674 20.3703 18.7856 20.3703 18.9118V19.2037H19.2978H19.2741Z" fill="#FFB422"/>
<path d="M20.2047 12.8951C20.2047 13.0449 20.2047 13.1946 20.2047 13.3444C20.2047 13.4469 20.2283 13.5021 20.3387 13.5337C20.9065 13.7229 21.285 14.0935 21.4033 14.6928C21.4191 14.7559 21.4191 14.819 21.4191 14.8979H20.6384C20.5911 14.5351 20.3624 14.3381 20.0312 14.2593C19.9444 14.2435 19.8577 14.2277 19.7788 14.2277C19.5265 14.2277 19.2978 14.3222 19.1165 14.5352C18.9035 14.7875 18.943 15.1424 19.2111 15.3632C19.3925 15.5209 19.6133 15.5682 19.8577 15.5761C20.3861 15.5919 20.8355 15.797 21.151 16.2307C21.6635 16.9325 21.4191 17.8787 20.6226 18.2967C20.5201 18.3519 20.4097 18.3914 20.2914 18.4309C20.2205 18.4545 20.2047 18.486 20.2047 18.5491C20.2047 18.7147 20.2047 18.8802 20.2047 19.0537H19.4161C19.4161 18.8881 19.4161 18.7226 19.4161 18.5649C19.4161 18.4781 19.3925 18.4466 19.3057 18.423C18.7616 18.2495 18.3752 17.9024 18.2254 17.3346C18.2017 17.2479 18.1938 17.1534 18.1781 17.0509H18.9587C19.0928 17.4767 19.4476 17.721 19.8183 17.721C20.0075 17.721 20.1968 17.6579 20.3703 17.5239C20.7172 17.2558 20.7172 16.8063 20.3703 16.5382C20.1889 16.3962 19.976 16.3647 19.7552 16.3489C19.2269 16.3253 18.7774 16.1202 18.4619 15.6864C17.9415 14.9688 18.2175 13.9911 19.0534 13.5968C19.1165 13.5653 19.1874 13.5258 19.2584 13.5179C19.3925 13.4942 19.4319 13.4313 19.424 13.2972C19.4082 13.1632 19.424 13.0212 19.424 12.8714H20.2125M20.4965 12.5874H19.1401V12.9975C19.1401 13.0842 19.1401 13.171 19.1401 13.2578C19.0691 13.2814 19.0139 13.305 18.9666 13.3286C18.4541 13.5731 18.0992 13.9912 17.973 14.488C17.8547 14.9611 17.9493 15.4579 18.2411 15.8522C18.6039 16.3411 19.1086 16.6013 19.7552 16.625C19.9681 16.6329 20.1021 16.6722 20.2125 16.7511C20.3072 16.8221 20.3624 16.9168 20.3624 17.0193C20.3624 17.1139 20.3072 17.2084 20.2125 17.2873C20.0943 17.374 19.9681 17.4215 19.834 17.4215C19.5659 17.4215 19.3372 17.2321 19.2426 16.9482L19.1795 16.7511H17.8626L17.9099 17.0743L17.9257 17.1612C17.9336 17.24 17.9415 17.311 17.9651 17.382C18.1228 17.9892 18.5171 18.4149 19.1401 18.6436C19.1401 18.7225 19.1401 18.8093 19.1401 18.896V19.0379V19.3219H20.4965V18.8881C20.4965 18.8092 20.4965 18.7303 20.4965 18.6515C20.5911 18.6199 20.6778 18.5806 20.7567 18.5412C21.2219 18.2967 21.561 17.8788 21.6714 17.3899C21.7818 16.9246 21.6714 16.4436 21.3875 16.0493C21.0248 15.5604 20.5201 15.3002 19.8735 15.2766C19.6605 15.2766 19.5186 15.2212 19.4003 15.1266C19.2584 15.0004 19.2347 14.8269 19.3451 14.6928C19.4634 14.5509 19.6054 14.4801 19.7867 14.4801C19.8498 14.4801 19.9129 14.4799 19.976 14.5036C20.2204 14.5588 20.3387 14.6771 20.3624 14.8979L20.3939 15.1424H21.7266L21.703 14.8349V14.7718C21.703 14.7087 21.6872 14.6535 21.6793 14.5983C21.5532 13.9438 21.1352 13.4786 20.4886 13.242C20.4886 13.1474 20.4886 13.0605 20.4886 12.9817V12.8477V12.5637L20.4965 12.5874Z" fill="white"/>
<path d="M21.5452 10.6951H21.561C21.561 10.6951 21.5925 10.703 21.5452 10.6951Z" fill="#0671B8"/>
<path d="M21.4979 20.1027C21.4979 18.2022 22.9647 16.6645 24.8336 16.5147C24.4314 15.9153 24.0056 15.3318 23.5798 14.7483C23.0435 14.007 22.4758 13.2816 22.1209 12.4299C21.8922 11.8779 21.7424 11.3023 21.5531 10.6951C20.3466 10.6951 19.1401 10.6951 17.9257 10.6951C17.7838 10.6951 17.7601 10.766 17.7522 10.8764C17.6733 11.594 17.4525 12.2722 17.0661 12.8715C16.4905 13.7784 15.8596 14.6536 15.2445 15.5289C14.7556 16.215 14.2588 16.8853 13.9276 17.6659C13.8803 17.7842 13.8409 17.9025 13.7936 18.0444C13.9198 18.0444 14.0143 18.0444 14.1011 18.0444C14.6689 18.076 15.2524 18.0682 15.8044 18.1628C16.5615 18.2969 17.2317 18.6202 17.6655 19.2983C17.8389 19.5743 18.0676 19.7635 18.3752 19.8345C18.872 19.9449 19.3767 20.0396 19.8813 20.1027C20.3939 20.1658 20.7645 20.4418 20.9065 20.9386C20.938 21.049 20.9538 21.1594 20.9854 21.2856C21.0642 21.2698 21.1352 21.2619 21.2061 21.2382C21.3639 21.1988 21.5137 21.1594 21.6714 21.12C21.5768 20.7967 21.5058 20.4576 21.5058 20.1027H21.4979Z" fill="#0671B8"/>
<path d="M21.8292 21.5616C21.4901 21.6484 21.285 21.6957 20.9538 21.7825C20.8828 21.7982 20.804 21.8613 20.7724 21.9244C20.5595 22.366 20.2047 22.5866 19.7315 22.5787C19.2032 22.563 18.6748 22.5315 18.1623 22.4526C17.3027 22.3186 16.4747 22.0584 15.6782 21.6877C15.5442 21.6247 15.4022 21.538 15.4811 21.3882C15.5205 21.3172 15.7019 21.2777 15.8123 21.2935C16.0016 21.3092 16.1829 21.3723 16.3643 21.4275C17.1134 21.6561 17.831 22.0032 18.6275 22.0662C19.0139 22.0978 19.4082 22.1294 19.7946 22.1215C20.2126 22.1057 20.5122 21.743 20.5043 21.3171C20.5043 20.8755 20.252 20.6311 19.8104 20.568C19.2662 20.4892 18.73 20.3944 18.2017 20.2604C17.8074 20.1658 17.5156 19.9056 17.2791 19.5507C17.1292 19.3221 16.9005 19.1249 16.6719 18.9751C16.0804 18.5966 15.4102 18.494 14.7241 18.5019C13.6359 18.5019 12.5397 18.5256 11.4515 18.5335C10.726 18.5335 10.1031 18.8251 9.49585 19.2273C10.2923 20.4023 11.073 21.5616 11.8537 22.7129C12.9419 22.3265 13.557 22.4763 14.3534 23.2886C14.4244 23.3595 14.4954 23.4305 14.5506 23.5094C14.9133 23.9904 15.418 24.2191 15.9937 24.3059C16.8217 24.4242 17.6497 24.3453 18.4461 24.1324C19.905 23.746 21.3244 23.3438 22.7754 22.9259C22.3969 22.5395 22.0342 22.09 21.8528 21.5695L21.8292 21.5616Z" fill="#0671B8"/>
<path d="M25.1648 23.1466C26.8285 23.1466 28.1772 21.7979 28.1772 20.1342C28.1772 18.4706 26.8285 17.1218 25.1648 17.1218C23.5011 17.1218 22.1525 18.4706 22.1525 20.1342C22.1525 21.7979 23.5011 23.1466 25.1648 23.1466Z" fill="#FFB422"/>
<path d="M24.5734 19.4717C24.5734 19.1484 24.5734 18.8172 24.5734 18.4938C24.5734 18.344 24.6917 18.2258 24.8494 18.1943C25.015 18.1627 25.1885 18.2258 25.2594 18.3599C25.291 18.4229 25.2989 18.4939 25.3068 18.557C25.3068 19.1169 25.3068 19.6846 25.3068 20.2445C25.3068 20.2997 25.3225 20.3392 25.3699 20.3786C25.6853 20.6468 25.9928 20.9226 26.3004 21.1986C26.5054 21.38 26.4265 21.6719 26.1584 21.7429C26.0244 21.7823 25.8982 21.7586 25.7957 21.6718C25.4171 21.3406 25.0465 21.0173 24.668 20.6861C24.5892 20.623 24.5655 20.5362 24.5655 20.4416C24.5655 20.1262 24.5655 19.8029 24.5655 19.4875L24.5734 19.4717Z" fill="white"/>
<path d="M19.1717 19.2038V18.9119C19.1717 18.7936 19.1717 18.6833 19.1717 18.565C18.5329 18.3599 18.1386 17.9578 17.9888 17.3742C17.973 17.3111 17.9652 17.2402 17.9573 17.1692L17.9178 16.9168H18.9667L18.9982 17.0115C19.1086 17.3585 19.3925 17.5872 19.7237 17.5872C19.8893 17.5872 20.047 17.532 20.1889 17.4216C20.323 17.3191 20.394 17.185 20.394 17.0431C20.394 16.9011 20.323 16.7669 20.1889 16.6644C20.0549 16.5619 19.8972 16.5146 19.6527 16.5067C19.0534 16.4831 18.5802 16.2387 18.249 15.7892C17.9809 15.4264 17.8942 14.9769 18.0046 14.5432C18.1229 14.0858 18.4462 13.6995 18.8957 13.4866C18.9903 13.4393 19.0613 13.4077 19.1401 13.3919L19.1874 13.3208C19.1796 13.2183 19.1796 13.1159 19.1874 13.0134V12.7373H20.2599V13.0134C20.2599 13.1238 20.2599 13.2341 20.2599 13.3366C20.9459 13.5969 21.3324 14.0228 21.4585 14.6537C21.4664 14.701 21.4743 14.7483 21.4743 14.8035V14.9532L21.3402 15.0243H20.4334L20.4176 14.898C20.3782 14.6141 20.2126 14.4486 19.9208 14.3855C19.842 14.3697 19.771 14.3618 19.7 14.3618C19.4792 14.3618 19.2978 14.4486 19.148 14.6221C18.9903 14.8114 19.0218 15.0795 19.2269 15.253C19.3688 15.3713 19.5344 15.4265 19.7868 15.4344C20.3861 15.458 20.8592 15.6945 21.1904 16.144C21.4585 16.5067 21.5453 16.9405 21.4506 17.3663C21.3481 17.8079 21.0406 18.1944 20.6069 18.4231C20.4965 18.4783 20.3782 18.5255 20.252 18.565C20.2678 18.6596 20.2678 18.7778 20.2678 18.904V19.1959H19.1953L19.1717 19.2038Z" fill="#FFB422"/>
<path d="M20.1022 12.8952C20.1022 13.045 20.1022 13.1947 20.1022 13.3446C20.1022 13.4471 20.1258 13.5023 20.2362 13.5338C20.804 13.7231 21.1825 14.0937 21.3008 14.693C21.3166 14.7561 21.3166 14.8192 21.3166 14.898H20.5359C20.4886 14.5353 20.2599 14.3383 19.9287 14.2594C19.8419 14.2437 19.7552 14.2279 19.6763 14.2279C19.424 14.2279 19.1953 14.3224 19.0139 14.5353C18.801 14.7877 18.8405 15.1426 19.1086 15.3634C19.2899 15.5211 19.5107 15.5684 19.7552 15.5763C20.2836 15.5921 20.733 15.7972 21.0484 16.2309C21.561 16.9327 21.3166 17.8789 20.5201 18.2968C20.4176 18.352 20.3072 18.3916 20.1889 18.431C20.1179 18.4547 20.1022 18.4861 20.1022 18.5492C20.1022 18.7148 20.1022 18.8803 20.1022 19.0538H19.3136C19.3136 18.8882 19.3136 18.7227 19.3136 18.565C19.3136 18.4783 19.2899 18.4468 19.2032 18.4231C18.6591 18.2496 18.2727 17.9026 18.1229 17.3348C18.0992 17.2481 18.0913 17.1535 18.0755 17.051H18.8562C18.9903 17.4768 19.3451 17.7212 19.7157 17.7212C19.905 17.7212 20.0943 17.6581 20.2678 17.524C20.6147 17.2559 20.6147 16.8064 20.2678 16.5383C20.0864 16.3964 19.8735 16.3648 19.6527 16.3491C19.1243 16.3254 18.6748 16.1203 18.3594 15.6866C17.839 14.969 18.115 13.9912 18.9508 13.597C19.0139 13.5654 19.0849 13.5259 19.1559 13.518C19.2899 13.4944 19.3293 13.4315 19.3215 13.2974C19.3057 13.1633 19.3215 13.0214 19.3215 12.8715H20.11M20.3939 12.5876H19.0376V12.9976C19.0376 13.0844 19.0376 13.1712 19.0376 13.2579C18.9666 13.2816 18.9114 13.3051 18.8562 13.3288C18.3436 13.5732 17.9888 13.9913 17.8626 14.4882C17.7443 14.9613 17.839 15.4581 18.1307 15.8524C18.4935 16.3413 18.9982 16.6015 19.6448 16.6252C19.8577 16.633 19.9918 16.6724 20.1022 16.7513C20.1968 16.8222 20.252 16.9169 20.252 17.0194C20.252 17.1141 20.1968 17.2086 20.1022 17.2874C19.9839 17.3742 19.8577 17.4216 19.7236 17.4216C19.4555 17.4216 19.2268 17.2323 19.1322 16.9484L19.0692 16.7513H17.7522L17.7995 17.0745L17.8153 17.1613C17.8232 17.2402 17.8311 17.3112 17.8547 17.3822C18.0124 17.9972 18.4067 18.4151 19.0297 18.6438C19.0297 18.7226 19.0297 18.8094 19.0297 18.8962V19.038V19.322H20.3861V18.8883C20.3861 18.8094 20.3861 18.7226 20.3861 18.6438C20.4807 18.6122 20.5674 18.5729 20.6463 18.5334C21.1116 18.289 21.4506 17.8711 21.561 17.3822C21.6714 16.9169 21.561 16.4359 21.2771 16.0416C20.9144 15.5527 20.4097 15.2925 19.7631 15.2688C19.5501 15.2688 19.4082 15.2135 19.2899 15.1189C19.148 14.9927 19.1243 14.8192 19.2347 14.693C19.353 14.5511 19.5028 14.4803 19.6763 14.4803C19.7394 14.4803 19.8025 14.4801 19.8656 14.5037C20.11 14.5589 20.2284 14.6772 20.252 14.898L20.2835 15.1425H21.6241L21.6004 14.8351V14.7719C21.5926 14.7167 21.5847 14.6616 21.5768 14.6064C21.4506 13.9518 21.0327 13.4866 20.3861 13.25C20.3861 13.1554 20.3861 13.0686 20.3861 12.9897V12.8557V12.5718L20.3939 12.5876Z" fill="white"/>
<path d="M19.6842 10.2376C18.9903 10.2376 18.2963 10.2376 17.6024 10.2376C17.5235 10.2376 17.4525 10.2376 17.3737 10.2376C17.1213 10.2139 16.9479 10.0246 16.9479 9.78806C16.9479 9.5436 17.1134 9.35446 17.3579 9.31503C17.4289 9.30714 17.492 9.31503 17.5629 9.31503C18.9903 9.31503 20.4176 9.31503 21.8449 9.31503C21.8843 9.31503 21.9238 9.31503 21.9632 9.31503C22.255 9.32291 22.4521 9.51204 22.46 9.77227C22.46 10.0404 22.2707 10.2376 21.9789 10.2455C21.5373 10.2534 21.0957 10.2455 20.6541 10.2455C20.3308 10.2455 20.0154 10.2455 19.6921 10.2455L19.6842 10.2376Z" fill="#0671B8"/>
<path d="M20.2204 8.8338H19.1716C19.1716 8.54991 19.1716 8.27388 19.1716 8.00576C19.1716 7.52473 19.1716 7.04383 19.1716 6.5628C19.1716 6.31834 19.2821 6.13685 19.5108 6.04222C19.7079 5.96336 19.8971 5.995 20.0391 6.13694C20.1179 6.2158 20.2047 6.34188 20.2047 6.4444C20.2204 7.23297 20.2047 8.02945 20.2047 8.82591L20.2204 8.8338Z" fill="#0671B8"/>
<path d="M20.7093 8.84188C20.6462 8.43182 20.6699 8.07708 20.9302 7.77742C21.214 7.44622 21.4821 7.10714 21.7818 6.7996C21.8922 6.68131 22.0815 6.6182 22.2471 6.57877C22.4679 6.53146 22.6492 6.64962 22.7518 6.84677C22.8543 7.04391 22.8149 7.21754 22.665 7.39103C22.3023 7.81686 21.9632 8.26628 21.6004 8.69999C21.5452 8.77096 21.4427 8.834 21.356 8.84188C21.1431 8.86554 20.9301 8.84188 20.7093 8.84188Z" fill="#0671B8"/>
<path d="M18.7301 8.84965C18.4462 8.84965 18.2096 8.85753 17.9731 8.84965C17.9179 8.84965 17.8469 8.77874 17.8074 8.72354C17.4447 8.28194 17.0977 7.82462 16.735 7.3909C16.593 7.2253 16.5457 7.06746 16.6404 6.87032C16.735 6.66529 16.9479 6.52345 17.1608 6.57865C17.3343 6.62596 17.5078 6.70466 17.6497 6.81506C18.0913 7.16204 18.4304 7.61953 18.667 8.12422C18.7616 8.32136 18.7143 8.58154 18.7379 8.85754L18.7301 8.84965Z" fill="#0671B8"/>
</svg>
