<svg width="125" height="10" viewBox="0 0 125 10" fill="none" xmlns="http://www.w3.org/2000/svg">
<path d="M5.82955 2.70455C5.77841 2.27273 5.57102 1.9375 5.20739 1.69886C4.84375 1.46023 4.39773 1.34091 3.86932 1.34091C3.48295 1.34091 3.14489 1.40341 2.85511 1.52841C2.56818 1.65341 2.34375 1.82528 2.18182 2.04403C2.02273 2.26278 1.94318 2.51136 1.94318 2.78977C1.94318 3.02273 1.99858 3.22301 2.10938 3.39062C2.22301 3.5554 2.3679 3.69318 2.54403 3.80398C2.72017 3.91193 2.90483 4.00142 3.09801 4.07244C3.29119 4.14062 3.46875 4.19602 3.63068 4.23864L4.51705 4.47727C4.74432 4.53693 4.99716 4.61932 5.27557 4.72443C5.55682 4.82955 5.82528 4.97301 6.08097 5.15483C6.33949 5.33381 6.55256 5.56392 6.72017 5.84517C6.88778 6.12642 6.97159 6.47159 6.97159 6.88068C6.97159 7.35227 6.84801 7.77841 6.60085 8.15909C6.35653 8.53977 5.99858 8.84233 5.52699 9.06676C5.05824 9.29119 4.48864 9.40341 3.81818 9.40341C3.19318 9.40341 2.65199 9.30256 2.1946 9.10085C1.74006 8.89915 1.3821 8.6179 1.12074 8.2571C0.862216 7.89631 0.715909 7.47727 0.681818 7H1.77273C1.80114 7.32955 1.91193 7.60227 2.10511 7.81818C2.30114 8.03125 2.5483 8.19034 2.84659 8.29545C3.14773 8.39773 3.47159 8.44886 3.81818 8.44886C4.22159 8.44886 4.58381 8.38352 4.90483 8.25284C5.22585 8.11932 5.48011 7.93466 5.66761 7.69886C5.85511 7.46023 5.94886 7.18182 5.94886 6.86364C5.94886 6.57386 5.8679 6.33807 5.70597 6.15625C5.54403 5.97443 5.33097 5.8267 5.06676 5.71307C4.80256 5.59943 4.51705 5.5 4.21023 5.41477L3.13636 5.10795C2.45455 4.91193 1.91477 4.6321 1.51705 4.26847C1.11932 3.90483 0.920455 3.42898 0.920455 2.84091C0.920455 2.35227 1.05256 1.92614 1.31676 1.5625C1.58381 1.19602 1.94176 0.911932 2.39062 0.710227C2.84233 0.505682 3.34659 0.403409 3.90341 0.403409C4.46591 0.403409 4.96591 0.504261 5.40341 0.705966C5.84091 0.904829 6.1875 1.17756 6.44318 1.52415C6.7017 1.87074 6.83807 2.2642 6.85227 2.70455H5.82955ZM11.4194 2.70455V3.55682H8.02734V2.70455H11.4194ZM9.01598 1.13636H10.0217V7.375C10.0217 7.65909 10.0629 7.87216 10.1452 8.0142C10.2305 8.15341 10.3384 8.24716 10.4691 8.29545C10.6026 8.34091 10.7433 8.36364 10.891 8.36364C11.0018 8.36364 11.0927 8.35795 11.1637 8.34659C11.2347 8.33239 11.2915 8.32102 11.3342 8.3125L11.5387 9.21591C11.4705 9.24148 11.3754 9.26705 11.2532 9.29261C11.131 9.32102 10.9762 9.33523 10.7887 9.33523C10.5046 9.33523 10.2262 9.27415 9.95348 9.15199C9.68359 9.02983 9.45916 8.84375 9.28018 8.59375C9.10405 8.34375 9.01598 8.02841 9.01598 7.64773V1.13636ZM15.521 9.38636C14.93 9.38636 14.4116 9.24574 13.9656 8.96449C13.5224 8.68324 13.1758 8.28977 12.9258 7.78409C12.6786 7.27841 12.555 6.6875 12.555 6.01136C12.555 5.32955 12.6786 4.73437 12.9258 4.22585C13.1758 3.71733 13.5224 3.32244 13.9656 3.04119C14.4116 2.75994 14.93 2.61932 15.521 2.61932C16.1119 2.61932 16.6289 2.75994 17.0721 3.04119C17.5181 3.32244 17.8647 3.71733 18.1119 4.22585C18.3619 4.73437 18.4869 5.32955 18.4869 6.01136C18.4869 6.6875 18.3619 7.27841 18.1119 7.78409C17.8647 8.28977 17.5181 8.68324 17.0721 8.96449C16.6289 9.24574 16.1119 9.38636 15.521 9.38636ZM15.521 8.48295C15.9698 8.48295 16.3391 8.3679 16.6289 8.13778C16.9187 7.90767 17.1332 7.60511 17.2724 7.23011C17.4116 6.85511 17.4812 6.44886 17.4812 6.01136C17.4812 5.57386 17.4116 5.16619 17.2724 4.78835C17.1332 4.41051 16.9187 4.10511 16.6289 3.87216C16.3391 3.6392 15.9698 3.52273 15.521 3.52273C15.0721 3.52273 14.7028 3.6392 14.413 3.87216C14.1232 4.10511 13.9087 4.41051 13.7695 4.78835C13.6303 5.16619 13.5607 5.57386 13.5607 6.01136C13.5607 6.44886 13.6303 6.85511 13.7695 7.23011C13.9087 7.60511 14.1232 7.90767 14.413 8.13778C14.7028 8.3679 15.0721 8.48295 15.521 8.48295ZM20.022 9.25V2.70455H20.9936V3.69318H21.0618C21.1811 3.36932 21.397 3.10653 21.7095 2.90483C22.022 2.70312 22.3743 2.60227 22.7663 2.60227C22.8402 2.60227 22.9325 2.60369 23.0433 2.60653C23.1541 2.60937 23.2379 2.61364 23.2947 2.61932V3.64205C23.2607 3.63352 23.1825 3.62074 23.0604 3.60369C22.9411 3.58381 22.8146 3.57386 22.6811 3.57386C22.3629 3.57386 22.0788 3.64062 21.8288 3.77415C21.5817 3.90483 21.3857 4.08665 21.2408 4.3196C21.0987 4.54972 21.0277 4.8125 21.0277 5.10795V9.25H20.022ZM27.032 9.38636C26.4013 9.38636 25.8572 9.24716 25.3999 8.96875C24.9453 8.6875 24.5945 8.29545 24.3473 7.79261C24.103 7.28693 23.9808 6.69886 23.9808 6.02841C23.9808 5.35795 24.103 4.76705 24.3473 4.25568C24.5945 3.74148 24.9382 3.34091 25.3786 3.05398C25.8217 2.7642 26.3388 2.61932 26.9297 2.61932C27.2706 2.61932 27.6072 2.67614 27.9396 2.78977C28.272 2.90341 28.5746 3.08807 28.8473 3.34375C29.12 3.59659 29.3374 3.93182 29.4993 4.34943C29.6612 4.76705 29.7422 5.28125 29.7422 5.89205V6.31818H24.6967V5.44886H28.7195C28.7195 5.07955 28.6456 4.75 28.4979 4.46023C28.353 4.17045 28.1456 3.94176 27.8757 3.77415C27.6087 3.60653 27.2933 3.52273 26.9297 3.52273C26.5291 3.52273 26.1825 3.62216 25.8899 3.82102C25.6001 4.01705 25.3771 4.27273 25.2209 4.58807C25.0646 4.90341 24.9865 5.24148 24.9865 5.60227V6.18182C24.9865 6.67614 25.0717 7.09517 25.2422 7.43892C25.4155 7.77983 25.6555 8.03977 25.9624 8.21875C26.2692 8.39489 26.6257 8.48295 27.032 8.48295C27.2962 8.48295 27.5348 8.44602 27.7479 8.37216C27.9638 8.29545 28.1499 8.18182 28.3061 8.03125C28.4624 7.87784 28.5831 7.6875 28.6683 7.46023L29.6399 7.73295C29.5376 8.0625 29.3658 8.35227 29.1243 8.60227C28.8828 8.84943 28.5845 9.04261 28.2294 9.18182C27.8743 9.31818 27.4751 9.38636 27.032 9.38636ZM35.8402 0.522727V9.25H34.7834V0.522727H35.8402ZM38.8285 5.3125V9.25H37.8228V2.70455H38.7944V3.72727H38.8796C39.033 3.39489 39.266 3.12784 39.5785 2.92614C39.891 2.72159 40.2944 2.61932 40.7887 2.61932C41.2319 2.61932 41.6197 2.71023 41.9521 2.89205C42.2844 3.07102 42.543 3.34375 42.7276 3.71023C42.9123 4.07386 43.0046 4.53409 43.0046 5.09091V9.25H41.9989V5.15909C41.9989 4.64489 41.8654 4.24432 41.5984 3.95739C41.3313 3.66761 40.9648 3.52273 40.4989 3.52273C40.1779 3.52273 39.891 3.59233 39.6381 3.73153C39.3881 3.87074 39.1907 4.07386 39.0458 4.34091C38.9009 4.60795 38.8285 4.93182 38.8285 5.3125ZM47.5014 9.38636C46.8878 9.38636 46.3594 9.24148 45.9162 8.9517C45.473 8.66193 45.1321 8.26278 44.8935 7.75426C44.6548 7.24574 44.5355 6.66477 44.5355 6.01136C44.5355 5.34659 44.6577 4.75994 44.902 4.25142C45.1491 3.74006 45.4929 3.34091 45.9332 3.05398C46.3764 2.7642 46.8935 2.61932 47.4844 2.61932C47.9446 2.61932 48.3594 2.70455 48.7287 2.875C49.098 3.04545 49.4006 3.28409 49.6364 3.59091C49.8722 3.89773 50.0185 4.25568 50.0753 4.66477H49.0696C48.9929 4.36648 48.8224 4.10227 48.5582 3.87216C48.2969 3.6392 47.9446 3.52273 47.5014 3.52273C47.1094 3.52273 46.7656 3.625 46.4702 3.82955C46.1776 4.03125 45.9489 4.31676 45.7841 4.68608C45.6222 5.05256 45.5412 5.48295 45.5412 5.97727C45.5412 6.48295 45.6207 6.9233 45.7798 7.2983C45.9418 7.6733 46.169 7.96449 46.4616 8.17188C46.7571 8.37926 47.1037 8.48295 47.5014 8.48295C47.7628 8.48295 48 8.4375 48.2131 8.34659C48.4261 8.25568 48.6065 8.125 48.7543 7.95455C48.902 7.78409 49.0071 7.57955 49.0696 7.34091H50.0753C50.0185 7.72727 49.8778 8.07528 49.6534 8.38494C49.4318 8.69176 49.1378 8.93608 48.7713 9.1179C48.4077 9.29688 47.9844 9.38636 47.5014 9.38636ZM54.2898 9.38636C53.6591 9.38636 53.1151 9.24716 52.6577 8.96875C52.2031 8.6875 51.8523 8.29545 51.6051 7.79261C51.3608 7.28693 51.2386 6.69886 51.2386 6.02841C51.2386 5.35795 51.3608 4.76705 51.6051 4.25568C51.8523 3.74148 52.196 3.34091 52.6364 3.05398C53.0795 2.7642 53.5966 2.61932 54.1875 2.61932C54.5284 2.61932 54.8651 2.67614 55.1974 2.78977C55.5298 2.90341 55.8324 3.08807 56.1051 3.34375C56.3778 3.59659 56.5952 3.93182 56.7571 4.34943C56.919 4.76705 57 5.28125 57 5.89205V6.31818H51.9545V5.44886H55.9773C55.9773 5.07955 55.9034 4.75 55.7557 4.46023C55.6108 4.17045 55.4034 3.94176 55.1335 3.77415C54.8665 3.60653 54.5511 3.52273 54.1875 3.52273C53.7869 3.52273 53.4403 3.62216 53.1477 3.82102C52.858 4.01705 52.6349 4.27273 52.4787 4.58807C52.3224 4.90341 52.2443 5.24148 52.2443 5.60227V6.18182C52.2443 6.67614 52.3295 7.09517 52.5 7.43892C52.6733 7.77983 52.9134 8.03977 53.2202 8.21875C53.527 8.39489 53.8835 8.48295 54.2898 8.48295C54.554 8.48295 54.7926 8.44602 55.0057 8.37216C55.2216 8.29545 55.4077 8.18182 55.5639 8.03125C55.7202 7.87784 55.8409 7.6875 55.9261 7.46023L56.8977 7.73295C56.7955 8.0625 56.6236 8.35227 56.3821 8.60227C56.1406 8.84943 55.8423 9.04261 55.4872 9.18182C55.1321 9.31818 54.733 9.38636 54.2898 9.38636ZM59.5355 5.3125V9.25H58.5298V2.70455H59.5014V3.72727H59.5866C59.7401 3.39489 59.973 3.12784 60.2855 2.92614C60.598 2.72159 61.0014 2.61932 61.4957 2.61932C61.9389 2.61932 62.3267 2.71023 62.6591 2.89205C62.9915 3.07102 63.25 3.34375 63.4347 3.71023C63.6193 4.07386 63.7116 4.53409 63.7116 5.09091V9.25H62.706V5.15909C62.706 4.64489 62.5724 4.24432 62.3054 3.95739C62.0384 3.66761 61.6719 3.52273 61.206 3.52273C60.8849 3.52273 60.598 3.59233 60.3452 3.73153C60.0952 3.87074 59.8977 4.07386 59.7528 4.34091C59.608 4.60795 59.5355 4.93182 59.5355 5.3125ZM68.396 2.70455V3.55682H65.0039V2.70455H68.396ZM65.9925 1.13636H66.9982V7.375C66.9982 7.65909 67.0394 7.87216 67.1218 8.0142C67.207 8.15341 67.315 8.24716 67.4457 8.29545C67.5792 8.34091 67.7198 8.36364 67.8675 8.36364C67.9783 8.36364 68.0692 8.35795 68.1403 8.34659C68.2113 8.33239 68.2681 8.32102 68.3107 8.3125L68.5153 9.21591C68.4471 9.24148 68.3519 9.26705 68.2298 9.29261C68.1076 9.32102 67.9528 9.33523 67.7653 9.33523C67.4812 9.33523 67.2028 9.27415 66.93 9.15199C66.6602 9.02983 66.4357 8.84375 66.2567 8.59375C66.0806 8.34375 65.9925 8.02841 65.9925 7.64773V1.13636ZM69.9087 9.25V2.70455H70.9144V9.25H69.9087ZM70.4201 1.61364C70.2241 1.61364 70.055 1.54688 69.913 1.41335C69.7738 1.27983 69.7042 1.11932 69.7042 0.931818C69.7042 0.744318 69.7738 0.583807 69.913 0.450284C70.055 0.316761 70.2241 0.25 70.4201 0.25C70.6161 0.25 70.7837 0.316761 70.9229 0.450284C71.065 0.583807 71.136 0.744318 71.136 0.931818C71.136 1.11932 71.065 1.27983 70.9229 1.41335C70.7837 1.54688 70.6161 1.61364 70.4201 1.61364ZM78.1087 2.70455L75.6882 9.25H74.6655L72.245 2.70455H73.3359L75.1428 7.92045H75.2109L77.0178 2.70455H78.1087ZM81.946 9.38636C81.3153 9.38636 80.7713 9.24716 80.3139 8.96875C79.8594 8.6875 79.5085 8.29545 79.2614 7.79261C79.017 7.28693 78.8949 6.69886 78.8949 6.02841C78.8949 5.35795 79.017 4.76705 79.2614 4.25568C79.5085 3.74148 79.8523 3.34091 80.2926 3.05398C80.7358 2.7642 81.2528 2.61932 81.8438 2.61932C82.1847 2.61932 82.5213 2.67614 82.8537 2.78977C83.1861 2.90341 83.4886 3.08807 83.7614 3.34375C84.0341 3.59659 84.2514 3.93182 84.4134 4.34943C84.5753 4.76705 84.6562 5.28125 84.6562 5.89205V6.31818H79.6108V5.44886H83.6335C83.6335 5.07955 83.5597 4.75 83.4119 4.46023C83.267 4.17045 83.0597 3.94176 82.7898 3.77415C82.5227 3.60653 82.2074 3.52273 81.8438 3.52273C81.4432 3.52273 81.0966 3.62216 80.804 3.82102C80.5142 4.01705 80.2912 4.27273 80.1349 4.58807C79.9787 4.90341 79.9006 5.24148 79.9006 5.60227V6.18182C79.9006 6.67614 79.9858 7.09517 80.1562 7.43892C80.3295 7.77983 80.5696 8.03977 80.8764 8.21875C81.1832 8.39489 81.5398 8.48295 81.946 8.48295C82.2102 8.48295 82.4489 8.44602 82.6619 8.37216C82.8778 8.29545 83.0639 8.18182 83.2202 8.03125C83.3764 7.87784 83.4972 7.6875 83.5824 7.46023L84.554 7.73295C84.4517 8.0625 84.2798 8.35227 84.0384 8.60227C83.7969 8.84943 83.4986 9.04261 83.1435 9.18182C82.7884 9.31818 82.3892 9.38636 81.946 9.38636ZM94.4702 2.70455C94.419 2.27273 94.2116 1.9375 93.848 1.69886C93.4844 1.46023 93.0384 1.34091 92.5099 1.34091C92.1236 1.34091 91.7855 1.40341 91.4957 1.52841C91.2088 1.65341 90.9844 1.82528 90.8224 2.04403C90.6634 2.26278 90.5838 2.51136 90.5838 2.78977C90.5838 3.02273 90.6392 3.22301 90.75 3.39062C90.8636 3.5554 91.0085 3.69318 91.1847 3.80398C91.3608 3.91193 91.5455 4.00142 91.7386 4.07244C91.9318 4.14062 92.1094 4.19602 92.2713 4.23864L93.1577 4.47727C93.3849 4.53693 93.6378 4.61932 93.9162 4.72443C94.1974 4.82955 94.4659 4.97301 94.7216 5.15483C94.9801 5.33381 95.1932 5.56392 95.3608 5.84517C95.5284 6.12642 95.6122 6.47159 95.6122 6.88068C95.6122 7.35227 95.4886 7.77841 95.2415 8.15909C94.9972 8.53977 94.6392 8.84233 94.1676 9.06676C93.6989 9.29119 93.1293 9.40341 92.4588 9.40341C91.8338 9.40341 91.2926 9.30256 90.8352 9.10085C90.3807 8.89915 90.0227 8.6179 89.7614 8.2571C89.5028 7.89631 89.3565 7.47727 89.3224 7H90.4134C90.4418 7.32955 90.5526 7.60227 90.7457 7.81818C90.9418 8.03125 91.1889 8.19034 91.4872 8.29545C91.7884 8.39773 92.1122 8.44886 92.4588 8.44886C92.8622 8.44886 93.2244 8.38352 93.5455 8.25284C93.8665 8.11932 94.1207 7.93466 94.3082 7.69886C94.4957 7.46023 94.5895 7.18182 94.5895 6.86364C94.5895 6.57386 94.5085 6.33807 94.3466 6.15625C94.1847 5.97443 93.9716 5.8267 93.7074 5.71307C93.4432 5.59943 93.1577 5.5 92.8509 5.41477L91.777 5.10795C91.0952 4.91193 90.5554 4.6321 90.1577 4.26847C89.7599 3.90483 89.5611 3.42898 89.5611 2.84091C89.5611 2.35227 89.6932 1.92614 89.9574 1.5625C90.2244 1.19602 90.5824 0.911932 91.0312 0.710227C91.483 0.505682 91.9872 0.403409 92.544 0.403409C93.1065 0.403409 93.6065 0.504261 94.044 0.705966C94.4815 0.904829 94.8281 1.17756 95.0838 1.52415C95.3423 1.87074 95.4787 2.2642 95.4929 2.70455H94.4702ZM100.06 2.70455V3.55682H96.668V2.70455H100.06ZM97.6566 1.13636H98.6623V7.375C98.6623 7.65909 98.7035 7.87216 98.7859 8.0142C98.8711 8.15341 98.979 8.24716 99.1097 8.29545C99.2433 8.34091 99.3839 8.36364 99.5316 8.36364C99.6424 8.36364 99.7333 8.35795 99.8043 8.34659C99.8754 8.33239 99.9322 8.32102 99.9748 8.3125L100.179 9.21591C100.111 9.24148 100.016 9.26705 99.8938 9.29261C99.7717 9.32102 99.6168 9.33523 99.4293 9.33523C99.1452 9.33523 98.8668 9.27415 98.5941 9.15199C98.3242 9.02983 98.0998 8.84375 97.9208 8.59375C97.7447 8.34375 97.6566 8.02841 97.6566 7.64773V1.13636ZM103.499 9.40341C103.084 9.40341 102.708 9.32528 102.37 9.16903C102.032 9.00994 101.763 8.78125 101.564 8.48295C101.365 8.18182 101.266 7.81818 101.266 7.39205C101.266 7.01705 101.34 6.71307 101.488 6.48011C101.635 6.24432 101.833 6.05966 102.08 5.92614C102.327 5.79261 102.6 5.69318 102.898 5.62784C103.199 5.55966 103.502 5.50568 103.806 5.46591C104.203 5.41477 104.526 5.37642 104.773 5.35085C105.023 5.32244 105.205 5.27557 105.319 5.21023C105.435 5.14489 105.493 5.03125 105.493 4.86932V4.83523C105.493 4.41477 105.378 4.08807 105.148 3.85511C104.921 3.62216 104.576 3.50568 104.113 3.50568C103.632 3.50568 103.256 3.6108 102.983 3.82102C102.711 4.03125 102.519 4.25568 102.408 4.49432L101.453 4.15341C101.624 3.75568 101.851 3.44602 102.135 3.22443C102.422 3 102.735 2.84375 103.073 2.75568C103.414 2.66477 103.749 2.61932 104.078 2.61932C104.289 2.61932 104.53 2.64489 104.803 2.69602C105.078 2.74432 105.344 2.84517 105.6 2.99858C105.858 3.15199 106.073 3.38352 106.243 3.69318C106.414 4.00284 106.499 4.41761 106.499 4.9375V9.25H105.493V8.36364H105.442C105.374 8.50568 105.26 8.65767 105.101 8.8196C104.942 8.98153 104.73 9.11932 104.466 9.23295C104.202 9.34659 103.88 9.40341 103.499 9.40341ZM103.652 8.5C104.05 8.5 104.385 8.42188 104.658 8.26562C104.934 8.10938 105.141 7.90767 105.28 7.66051C105.422 7.41335 105.493 7.15341 105.493 6.88068V5.96023C105.451 6.01136 105.357 6.05824 105.212 6.10085C105.07 6.14062 104.905 6.17614 104.718 6.20739C104.533 6.2358 104.353 6.26136 104.176 6.28409C104.003 6.30398 103.863 6.32102 103.755 6.33523C103.493 6.36932 103.249 6.42472 103.022 6.50142C102.797 6.57528 102.615 6.6875 102.476 6.83807C102.34 6.9858 102.272 7.1875 102.272 7.44318C102.272 7.79261 102.401 8.05682 102.659 8.2358C102.921 8.41193 103.252 8.5 103.652 8.5ZM111.181 2.70455V3.55682H107.789V2.70455H111.181ZM108.778 1.13636H109.783V7.375C109.783 7.65909 109.825 7.87216 109.907 8.0142C109.992 8.15341 110.1 8.24716 110.231 8.29545C110.364 8.34091 110.505 8.36364 110.653 8.36364C110.763 8.36364 110.854 8.35795 110.925 8.34659C110.996 8.33239 111.053 8.32102 111.096 8.3125L111.3 9.21591C111.232 9.24148 111.137 9.26705 111.015 9.29261C110.893 9.32102 110.738 9.33523 110.55 9.33523C110.266 9.33523 109.988 9.27415 109.715 9.15199C109.445 9.02983 109.221 8.84375 109.042 8.59375C108.866 8.34375 108.778 8.02841 108.778 7.64773V1.13636ZM116.819 6.57386V2.70455H117.825V9.25H116.819V8.14205H116.751C116.597 8.47443 116.359 8.7571 116.035 8.99006C115.711 9.22017 115.302 9.33523 114.808 9.33523C114.398 9.33523 114.035 9.24574 113.717 9.06676C113.398 8.88494 113.148 8.61222 112.967 8.24858C112.785 7.8821 112.694 7.42045 112.694 6.86364V2.70455H113.7V6.79545C113.7 7.27273 113.833 7.65341 114.1 7.9375C114.37 8.22159 114.714 8.36364 115.131 8.36364C115.381 8.36364 115.636 8.29972 115.894 8.17188C116.156 8.04403 116.374 7.84801 116.55 7.58381C116.729 7.3196 116.819 6.98295 116.819 6.57386ZM124.303 4.17045L123.4 4.42614C123.343 4.27557 123.259 4.12926 123.148 3.98722C123.04 3.84233 122.892 3.72301 122.705 3.62926C122.517 3.53551 122.277 3.48864 121.985 3.48864C121.584 3.48864 121.25 3.58097 120.983 3.76562C120.719 3.94744 120.587 4.17898 120.587 4.46023C120.587 4.71023 120.678 4.90767 120.86 5.05256C121.042 5.19744 121.326 5.31818 121.712 5.41477L122.684 5.65341C123.269 5.79545 123.705 6.01278 123.992 6.3054C124.279 6.59517 124.422 6.96875 124.422 7.42614C124.422 7.80114 124.314 8.13636 124.098 8.43182C123.885 8.72727 123.587 8.96023 123.203 9.13068C122.82 9.30114 122.374 9.38636 121.865 9.38636C121.198 9.38636 120.645 9.24148 120.208 8.9517C119.77 8.66193 119.493 8.23864 119.377 7.68182L120.331 7.44318C120.422 7.79545 120.594 8.05966 120.847 8.2358C121.103 8.41193 121.436 8.5 121.848 8.5C122.317 8.5 122.689 8.40057 122.965 8.2017C123.243 8 123.382 7.75852 123.382 7.47727C123.382 7.25 123.303 7.05966 123.144 6.90625C122.985 6.75 122.74 6.63352 122.411 6.55682L121.32 6.30114C120.721 6.15909 120.28 5.93892 119.999 5.64062C119.721 5.33949 119.581 4.96307 119.581 4.51136C119.581 4.14205 119.685 3.81534 119.892 3.53125C120.103 3.24716 120.388 3.02415 120.749 2.86222C121.113 2.70028 121.525 2.61932 121.985 2.61932C122.632 2.61932 123.141 2.76136 123.51 3.04545C123.882 3.32955 124.147 3.70455 124.303 4.17045Z" fill="black"/>
</svg>
