<svg width="33" height="32" viewBox="0 0 33 32" fill="none" xmlns="http://www.w3.org/2000/svg">
<path d="M11.5671 23.9533C11.4775 24.0837 11.4124 24.2547 11.2901 24.3444C10.5325 24.8739 9.76658 25.3871 9.00075 25.9004C8.72375 26.0878 8.46306 26.0063 8.25938 25.6967C7.65649 24.8005 7.04547 23.9043 6.44258 23.0163C5.86413 22.1527 5.27753 21.2891 4.69908 20.4255C4.43022 20.0345 4.47912 19.7981 4.87019 19.5374C5.57084 19.0649 6.26331 18.5924 6.96396 18.1198C7.31429 17.8836 7.56688 17.9326 7.80314 18.2748C8.99263 20.0346 10.1903 21.8025 11.3798 23.5623C11.4531 23.6682 11.4938 23.7985 11.5671 23.9533Z" fill="#FFB422"/>
<path d="M18.7611 18.6412V18.3478C18.7611 18.2256 18.7611 18.1035 18.7611 17.9894C18.1012 17.7776 17.6938 17.3621 17.539 16.7592C17.5227 16.694 17.5145 16.6207 17.5064 16.5473L17.4657 16.2866H18.5493L18.5818 16.3844C18.6959 16.7429 18.9892 16.9792 19.3314 16.9792C19.5025 16.9792 19.6654 16.9222 19.8121 16.8081C19.9506 16.7022 20.0239 16.5637 20.0239 16.4171C20.0239 16.2704 19.9506 16.1319 19.8121 16.026C19.6735 15.9201 19.5106 15.8711 19.2581 15.8629C18.6389 15.8385 18.1501 15.586 17.8079 15.1216C17.5309 14.7468 17.4412 14.2824 17.5553 13.8343C17.6775 13.3617 18.0115 12.9627 18.4759 12.7427C18.5655 12.6938 18.647 12.6611 18.7285 12.6448L18.924 12.5553L18.7773 12.5716C18.7692 12.4657 18.7692 12.3597 18.7773 12.2538V11.9688H19.8854V12.2538C19.8854 12.3678 19.8854 12.4737 19.8854 12.5877C20.5942 12.8566 20.9934 13.2967 21.1237 13.9485C21.1319 13.9973 21.14 14.0462 21.14 14.1032V14.2579L21.0016 14.3313H20.0646L20.0484 14.2011C20.0076 13.9078 19.8365 13.7366 19.5351 13.6714C19.4536 13.6551 19.3803 13.6469 19.3069 13.6469C19.0788 13.6469 18.8914 13.7366 18.7366 13.9158C18.5737 14.1114 18.6063 14.3884 18.8181 14.5676C18.9648 14.6899 19.1358 14.7469 19.3965 14.755C20.0157 14.7795 20.5046 15.0238 20.8468 15.4882C21.1238 15.8629 21.2134 16.3111 21.1156 16.751C21.0097 17.2073 20.692 17.6065 20.2439 17.8428C20.1298 17.8998 20.0076 17.9487 19.8772 17.9894C19.8935 18.0872 19.8936 18.2093 19.8936 18.3397V18.6412H18.7855H18.7611Z" fill="#FFB422"/>
<path d="M19.7144 12.1236C19.7144 12.2784 19.7144 12.433 19.7144 12.5878C19.7144 12.6937 19.7388 12.7509 19.8528 12.7835C20.4394 12.9791 20.8305 13.362 20.9527 13.9811C20.969 14.0463 20.969 14.1115 20.969 14.193H20.1624C20.1136 13.8182 19.8773 13.6145 19.5351 13.533C19.4455 13.5167 19.3559 13.5004 19.2744 13.5004C19.0137 13.5004 18.7774 13.5981 18.59 13.818C18.3701 14.0787 18.4108 14.4454 18.6878 14.6735C18.8752 14.8365 19.1033 14.8854 19.3559 14.8935C19.9017 14.9098 20.3661 15.1217 20.692 15.5698C21.2216 16.2949 20.969 17.2724 20.1462 17.7042C20.0403 17.7613 19.9262 17.8021 19.804 17.8429C19.7306 17.8673 19.7144 17.8998 19.7144 17.965C19.7144 18.1361 19.7144 18.3073 19.7144 18.4865H18.8996C18.8996 18.3154 18.8996 18.1443 18.8996 17.9813C18.8996 17.8917 18.8752 17.8592 18.7856 17.8347C18.2234 17.6555 17.8242 17.2969 17.6694 16.7103C17.645 16.6207 17.6368 16.523 17.6205 16.4171H18.4271C18.5656 16.8571 18.9322 17.1095 19.3152 17.1095C19.5107 17.1095 19.7062 17.0443 19.8855 16.9058C20.2439 16.6288 20.2439 16.1644 19.8855 15.8874C19.6981 15.7408 19.4781 15.7082 19.25 15.6919C18.7041 15.6675 18.2397 15.4558 17.9138 15.0077C17.3761 14.2663 17.6613 13.2559 18.5249 12.8486C18.59 12.816 18.6634 12.7754 18.7367 12.7672C18.8752 12.7428 18.9159 12.6776 18.9078 12.5391C18.8915 12.4006 18.9078 12.2539 18.9078 12.0991H19.7225M20.0158 11.8057H18.6145V12.2294C18.6145 12.319 18.6145 12.4087 18.6145 12.4983C18.5412 12.5227 18.4841 12.5473 18.4352 12.5717C17.9057 12.8243 17.5391 13.256 17.4087 13.7693C17.2865 14.2581 17.3843 14.7714 17.6857 15.1787C18.0605 15.6839 18.5819 15.9527 19.25 15.9772C19.4699 15.9853 19.6085 16.026 19.7225 16.1074C19.8203 16.1808 19.8773 16.2786 19.8773 16.3845C19.8773 16.4823 19.8203 16.5799 19.7225 16.6614C19.6003 16.751 19.47 16.8 19.3315 16.8C19.0545 16.8 18.8182 16.6044 18.7204 16.3111L18.6552 16.1074H17.2947L17.3436 16.4416L17.3598 16.5311C17.368 16.6126 17.3762 16.6859 17.4006 16.7592C17.5635 17.3866 17.9709 17.8266 18.6145 18.0629C18.6145 18.1443 18.6145 18.2338 18.6145 18.3234V18.4702V18.7634H20.0158V18.3153C20.0158 18.2338 20.0158 18.1525 20.0158 18.071C20.1136 18.0384 20.2032 17.9976 20.2847 17.9569C20.7654 17.7043 21.1157 17.2725 21.2297 16.7674C21.3438 16.2867 21.2297 15.7898 20.9364 15.3824C20.5617 14.8773 20.0403 14.6085 19.3722 14.584C19.1522 14.584 19.0055 14.5268 18.8833 14.4291C18.7367 14.2987 18.7123 14.1196 18.8263 13.9811C18.9486 13.8345 19.0952 13.7612 19.2826 13.7612C19.3478 13.7612 19.4129 13.7612 19.4781 13.7856C19.7307 13.8426 19.8529 13.9649 19.8773 14.193L19.9099 14.4454H21.2868L21.2623 14.1277V14.0625C21.2623 13.9973 21.246 13.9403 21.2379 13.8833C21.1075 13.2071 20.6757 12.7264 20.0076 12.482C20.0076 12.3842 20.0076 12.2945 20.0076 12.2131V12.0746V11.7812L20.0158 11.8057Z" fill="white"/>
<path d="M21.0994 9.85059H21.1157C21.1157 9.85059 21.1482 9.85873 21.0994 9.85059Z" fill="#0671B8"/>
<path d="M21.0586 19.5781C21.0586 17.6147 22.574 16.0259 24.5048 15.8711C24.0893 15.252 23.6494 14.6491 23.2094 14.0462C22.6554 13.2804 22.0688 12.5309 21.7022 11.651C21.4659 11.0807 21.3112 10.486 21.1156 9.85864C19.8691 9.85864 18.6226 9.85864 17.3679 9.85864C17.2213 9.85864 17.1968 9.93195 17.1887 10.046C17.1072 10.7874 16.8791 11.4881 16.4799 12.1073C15.8852 13.0442 15.2334 13.9484 14.5979 14.8528C14.0928 15.5616 13.5795 16.2542 13.2373 17.0608C13.1884 17.183 13.1477 17.3052 13.0988 17.4518C13.2292 17.4518 13.3269 17.4518 13.4166 17.4518C14.0032 17.4844 14.606 17.4762 15.1763 17.574C15.9585 17.7125 16.651 18.0465 17.099 18.7471C17.2783 19.0323 17.5146 19.2279 17.8323 19.3013C18.3456 19.4153 18.867 19.513 19.3884 19.5781C19.918 19.6433 20.3009 19.9285 20.4476 20.4418C20.4802 20.5558 20.4964 20.6699 20.529 20.8002C20.6105 20.7839 20.6838 20.7757 20.7572 20.7513C20.9201 20.7105 21.0749 20.6699 21.2378 20.6292C21.14 20.2951 21.0668 19.9448 21.0668 19.5781H21.0586Z" fill="#0671B8"/>
<path d="M21.3926 21.0774C21.0423 21.167 20.8305 21.2159 20.4883 21.3055C20.415 21.3218 20.3335 21.387 20.3009 21.4521C20.0809 21.9084 19.7143 22.1366 19.2255 22.1284C18.6796 22.1121 18.1338 22.0794 17.6042 21.9979C16.7162 21.8594 15.8607 21.5906 15.0378 21.2077C14.8993 21.1425 14.7527 21.053 14.8342 20.8982C14.8749 20.8249 15.0623 20.784 15.1763 20.8003C15.3719 20.8166 15.5593 20.8817 15.7466 20.9388C16.5206 21.175 17.262 21.5336 18.0849 21.5987C18.4841 21.6313 18.8914 21.664 19.2906 21.6558C19.7224 21.6395 20.032 21.2647 20.0239 20.8248C20.0239 20.3685 19.7632 20.116 19.3069 20.0508C18.7448 19.9694 18.1908 19.8715 17.6449 19.733C17.2376 19.6352 16.9361 19.3665 16.6917 18.9998C16.5369 18.7636 16.3007 18.5599 16.0644 18.4051C15.4534 18.014 14.7608 17.9081 14.052 17.9162C12.9277 17.9162 11.7953 17.9407 10.671 17.9488C9.92144 17.9488 9.27778 18.2504 8.65045 18.6659C9.47331 19.8798 10.2799 21.0774 11.0865 22.2669C12.2108 21.8676 12.8463 22.0224 13.6691 22.8616C13.7424 22.9349 13.8158 23.0082 13.8728 23.0897C14.2476 23.5867 14.769 23.823 15.3637 23.9126C16.2192 24.0348 17.0746 23.9534 17.8975 23.7334C19.4047 23.3342 20.8712 22.9186 22.3703 22.4868C21.9792 22.0876 21.6045 21.6233 21.4171 21.0856L21.3926 21.0774Z" fill="#0671B8"/>
<path d="M24.847 22.715C26.5658 22.715 27.9592 21.3216 27.9592 19.6027C27.9592 17.8839 26.5658 16.4905 24.847 16.4905C23.1282 16.4905 21.7348 17.8839 21.7348 19.6027C21.7348 21.3216 23.1282 22.715 24.847 22.715Z" fill="#FFB422"/>
<path d="M24.3257 19.9366C24.1709 19.7737 24.0487 19.619 23.9102 19.4887C23.7228 19.3176 23.5109 19.3176 23.348 19.4724C23.1851 19.6272 23.1769 19.8552 23.348 20.0345C23.5761 20.2789 23.8124 20.5151 24.0568 20.7432C24.2279 20.9061 24.4316 20.9061 24.6026 20.7432C25.1892 20.1647 25.7677 19.5864 26.3461 18.9998C26.5091 18.8368 26.4846 18.6088 26.3298 18.454C26.175 18.2992 25.9632 18.2992 25.784 18.454C25.6862 18.5355 25.6047 18.6249 25.5151 18.7146C25.1241 19.1056 24.7412 19.4967 24.3175 19.9285L24.3257 19.9366Z" fill="white"/>
<path d="M18.6552 18.6413V18.3398C18.6552 18.2176 18.6552 18.1036 18.6552 17.9814C17.9953 17.7695 17.5879 17.354 17.4331 16.7511C17.4168 16.6859 17.4087 16.6126 17.4005 16.5393L17.3598 16.2785H18.4434L18.4759 16.3764C18.59 16.7349 18.8833 16.9711 19.2255 16.9711C19.3966 16.9711 19.5595 16.9141 19.7062 16.8001C19.8447 16.6941 19.918 16.5557 19.918 16.409C19.918 16.2624 19.8447 16.1239 19.7062 16.018C19.5677 15.912 19.4047 15.863 19.1522 15.8549C18.533 15.8304 18.0442 15.5779 17.702 15.1135C17.425 14.7388 17.3354 14.2743 17.4494 13.8262C17.5716 13.3537 17.9056 12.9546 18.37 12.7346C18.4678 12.6858 18.5411 12.6531 18.6226 12.6368L18.6715 12.5636C18.6634 12.4577 18.6634 12.3516 18.6715 12.2457V11.9607H19.7795V12.2457C19.7795 12.3598 19.7795 12.474 19.7795 12.5799C20.4883 12.8487 20.8875 13.2886 21.0178 13.9404C21.026 13.9893 21.0341 14.0381 21.0341 14.0951V14.2499L20.8957 14.3233H19.9587L19.9425 14.193C19.9017 13.8997 19.7306 13.7285 19.4292 13.6633C19.3477 13.647 19.2744 13.6389 19.201 13.6389C18.9729 13.6389 18.7855 13.7285 18.6307 13.9078C18.4678 14.1033 18.5004 14.3803 18.7122 14.5596C18.8589 14.6818 19.0299 14.7388 19.2906 14.747C19.9098 14.7714 20.3987 15.0157 20.7409 15.4801C21.0179 15.8549 21.1075 16.303 21.0097 16.743C20.9038 17.1992 20.5861 17.5985 20.138 17.8348C20.0239 17.8918 19.9017 17.9406 19.7713 17.9814C19.7876 18.0791 19.7877 18.2013 19.7877 18.3316V18.6332H18.6796L18.6552 18.6413Z" fill="#FFB422"/>
<path d="M19.6084 12.1235C19.6084 12.2783 19.6084 12.4329 19.6084 12.5877C19.6084 12.6936 19.6328 12.7508 19.7469 12.7834C20.3335 12.979 20.7246 13.3619 20.8468 13.981C20.8631 14.0462 20.8631 14.1114 20.8631 14.1929H20.0565C20.0076 13.8181 19.7713 13.6144 19.4292 13.5329C19.3395 13.5166 19.2499 13.5003 19.1684 13.5003C18.9077 13.5003 18.6715 13.598 18.4841 13.8179C18.2641 14.0786 18.3048 14.4453 18.5818 14.6734C18.7692 14.8364 18.9973 14.8853 19.2499 14.8934C19.7958 14.9097 20.2602 15.1216 20.586 15.5697C21.1156 16.2948 20.8631 17.2723 20.0402 17.7041C19.9343 17.7612 19.8202 17.802 19.698 17.8428C19.6247 17.8672 19.6084 17.8997 19.6084 17.9649C19.6084 18.136 19.6084 18.3072 19.6084 18.4864H18.7937C18.7937 18.3154 18.7937 18.1442 18.7937 17.9812C18.7937 17.8916 18.7692 17.8591 18.6796 17.8346C18.1174 17.6554 17.7182 17.2968 17.5634 16.7102C17.539 16.6206 17.5308 16.5229 17.5146 16.417H18.3211C18.4596 16.857 18.8263 17.1094 19.2092 17.1094C19.4047 17.1094 19.6002 17.0442 19.7795 16.9057C20.138 16.6287 20.138 16.1644 19.7795 15.8873C19.5921 15.7407 19.3721 15.7081 19.144 15.6918C18.5981 15.6674 18.1338 15.4557 17.8079 15.0076C17.2702 14.2662 17.5553 13.2558 18.4189 12.8485C18.4841 12.8159 18.5574 12.7753 18.6307 12.7671C18.7692 12.7427 18.81 12.6775 18.8018 12.539C18.7855 12.4005 18.8018 12.2538 18.8018 12.099H19.6165M19.9098 11.8056H18.5085V12.2293C18.5085 12.3189 18.5085 12.4086 18.5085 12.4982C18.4352 12.5226 18.3781 12.5472 18.3211 12.5716C17.7915 12.8242 17.425 13.2559 17.2946 13.7692C17.1724 14.258 17.2701 14.7713 17.5716 15.1786C17.9464 15.6838 18.4678 15.9526 19.1358 15.9771C19.3558 15.9852 19.4943 16.0259 19.6084 16.1073C19.7061 16.1807 19.7632 16.2785 19.7632 16.3844C19.7632 16.4822 19.7061 16.5798 19.6084 16.6613C19.4862 16.7509 19.3558 16.7999 19.2173 16.7999C18.9403 16.7999 18.7041 16.6043 18.6063 16.311L18.5411 16.1073H17.1805L17.2294 16.4415L17.2457 16.531C17.2539 16.6125 17.262 16.6858 17.2865 16.7591C17.4494 17.3946 17.8568 17.8265 18.5004 18.0628C18.5004 18.1442 18.5004 18.2337 18.5004 18.3233V18.4701V18.7633H19.9017V18.3152C19.9017 18.2337 19.9017 18.1442 19.9017 18.0628C19.9994 18.0302 20.0891 17.9893 20.1705 17.9486C20.6512 17.696 21.0016 17.2643 21.1156 16.7591C21.2297 16.2785 21.1156 15.7815 20.8223 15.3742C20.4475 14.869 19.9261 14.6002 19.2581 14.5758C19.0381 14.5758 18.8915 14.5186 18.7692 14.4208C18.6226 14.2905 18.5982 14.1114 18.7122 13.981C18.8344 13.8344 18.9892 13.7611 19.1684 13.7611C19.2336 13.7611 19.2988 13.7611 19.364 13.7855C19.6165 13.8425 19.7387 13.9648 19.7632 14.1929L19.7957 14.4453H21.1808L21.1564 14.1276V14.0624C21.1482 14.0054 21.14 13.9484 21.1319 13.8913C21.0015 13.2151 20.5697 12.7345 19.9017 12.49C19.9017 12.3923 19.9017 12.3026 19.9017 12.2211V12.0827V11.7893L19.9098 11.8056Z" fill="white"/>
<path d="M19.1847 9.37792C18.4678 9.37792 17.7508 9.37792 17.0339 9.37792C16.9524 9.37792 16.8791 9.37792 16.7976 9.37792C16.5369 9.35348 16.3577 9.15809 16.3577 8.91367C16.3577 8.66111 16.5288 8.4655 16.7813 8.42476C16.8547 8.41662 16.9198 8.42476 16.9932 8.42476C18.4678 8.42476 19.9424 8.42476 21.4171 8.42476C21.4578 8.42476 21.4985 8.42476 21.5392 8.42476C21.8407 8.43291 22.0444 8.62851 22.0525 8.89736C22.0525 9.17437 21.857 9.37792 21.5556 9.38607C21.0993 9.39422 20.6431 9.38607 20.1868 9.38607C19.8528 9.38607 19.5269 9.38607 19.1929 9.38607L19.1847 9.37792Z" fill="#0671B8"/>
<path d="M19.7306 7.9276H18.647C18.647 7.6343 18.647 7.34931 18.647 7.07231C18.647 6.57533 18.647 6.07829 18.647 5.58132C18.647 5.32875 18.7611 5.14144 18.9974 5.04368C19.201 4.9622 19.3966 4.99469 19.5432 5.14134C19.6247 5.22281 19.7143 5.35308 19.7143 5.45899C19.7306 6.2737 19.7143 7.09658 19.7143 7.91945L19.7306 7.9276Z" fill="#0671B8"/>
<path d="M20.2439 7.9358C20.1787 7.51215 20.2031 7.14565 20.472 6.83606C20.7653 6.49388 21.0423 6.14356 21.3519 5.82582C21.4659 5.70361 21.6615 5.63841 21.8325 5.59767C22.0607 5.54879 22.2481 5.67087 22.354 5.87455C22.4599 6.07823 22.4192 6.25762 22.2644 6.43685C21.8896 6.8768 21.5393 7.34112 21.1645 7.78921C21.1075 7.86253 21.0016 7.92766 20.912 7.9358C20.692 7.96024 20.472 7.9358 20.2439 7.9358Z" fill="#0671B8"/>
<path d="M18.1908 7.94413C17.8975 7.94413 17.653 7.95227 17.4086 7.94413C17.3516 7.94413 17.2783 7.87087 17.2376 7.81384C16.8628 7.3576 16.5043 6.88512 16.1295 6.43702C15.9829 6.26593 15.934 6.10286 16.0318 5.89918C16.1295 5.68736 16.3495 5.54081 16.5695 5.59784C16.7487 5.64672 16.928 5.72824 17.0746 5.8423C17.5309 6.20077 17.8812 6.67323 18.1256 7.19465C18.2234 7.39833 18.1745 7.66713 18.1989 7.95228L18.1908 7.94413Z" fill="#0671B8"/>
</svg>
