<svg width="89" height="10" viewBox="0 0 89 10" fill="none" xmlns="http://www.w3.org/2000/svg">
<path d="M5.82942 2.70455C5.77829 2.27273 5.5709 1.9375 5.20726 1.69886C4.84363 1.46023 4.39761 1.34091 3.8692 1.34091C3.48283 1.34091 3.14476 1.40341 2.85499 1.52841C2.56806 1.65341 2.34363 1.82528 2.1817 2.04403C2.02261 2.26278 1.94306 2.51136 1.94306 2.78977C1.94306 3.02273 1.99846 3.22301 2.10925 3.39062C2.22289 3.5554 2.36778 3.69318 2.54391 3.80398C2.72005 3.91193 2.90471 4.00142 3.09789 4.07244C3.29107 4.14062 3.46863 4.19602 3.63056 4.23864L4.51692 4.47727C4.7442 4.53693 4.99704 4.61932 5.27545 4.72443C5.5567 4.82955 5.82516 4.97301 6.08084 5.15483C6.33937 5.33381 6.55243 5.56392 6.72005 5.84517C6.88766 6.12642 6.97147 6.47159 6.97147 6.88068C6.97147 7.35227 6.84789 7.77841 6.60073 8.15909C6.35641 8.53977 5.99846 8.84233 5.52687 9.06676C5.05812 9.29119 4.48851 9.40341 3.81806 9.40341C3.19306 9.40341 2.65187 9.30256 2.19448 9.10085C1.73993 8.89915 1.38198 8.6179 1.12062 8.2571C0.862094 7.89631 0.715787 7.47727 0.681696 7H1.77261C1.80101 7.32955 1.91181 7.60227 2.10499 7.81818C2.30101 8.03125 2.54817 8.19034 2.84647 8.29545C3.14761 8.39773 3.47147 8.44886 3.81806 8.44886C4.22147 8.44886 4.58368 8.38352 4.90471 8.25284C5.22573 8.11932 5.47999 7.93466 5.66749 7.69886C5.85499 7.46023 5.94874 7.18182 5.94874 6.86364C5.94874 6.57386 5.86778 6.33807 5.70584 6.15625C5.54391 5.97443 5.33084 5.8267 5.06664 5.71307C4.80243 5.59943 4.51692 5.5 4.21011 5.41477L3.13624 5.10795C2.45442 4.91193 1.91465 4.6321 1.51692 4.26847C1.1192 3.90483 0.920332 3.42898 0.920332 2.84091C0.920332 2.35227 1.05243 1.92614 1.31664 1.5625C1.58368 1.19602 1.94164 0.911932 2.3905 0.710227C2.84221 0.505682 3.34647 0.403409 3.90329 0.403409C4.46579 0.403409 4.96579 0.504261 5.40329 0.705966C5.84079 0.904829 6.18738 1.17756 6.44306 1.52415C6.70158 1.87074 6.83795 2.2642 6.85215 2.70455H5.82942ZM11.4193 2.70455V3.55682H8.02722V2.70455H11.4193ZM9.01586 1.13636H10.0215V7.375C10.0215 7.65909 10.0627 7.87216 10.1451 8.0142C10.2303 8.15341 10.3383 8.24716 10.469 8.29545C10.6025 8.34091 10.7431 8.36364 10.8909 8.36364C11.0017 8.36364 11.0926 8.35795 11.1636 8.34659C11.2346 8.33239 11.2914 8.32102 11.334 8.3125L11.5386 9.21591C11.4704 9.24148 11.3752 9.26705 11.2531 9.29261C11.1309 9.32102 10.9761 9.33523 10.7886 9.33523C10.5045 9.33523 10.2261 9.27415 9.95336 9.15199C9.68347 9.02983 9.45904 8.84375 9.28006 8.59375C9.10393 8.34375 9.01586 8.02841 9.01586 7.64773V1.13636ZM15.5208 9.38636C14.9299 9.38636 14.4115 9.24574 13.9654 8.96449C13.5223 8.68324 13.1757 8.28977 12.9257 7.78409C12.6785 7.27841 12.5549 6.6875 12.5549 6.01136C12.5549 5.32955 12.6785 4.73437 12.9257 4.22585C13.1757 3.71733 13.5223 3.32244 13.9654 3.04119C14.4115 2.75994 14.9299 2.61932 15.5208 2.61932C16.1117 2.61932 16.6288 2.75994 17.072 3.04119C17.518 3.32244 17.8646 3.71733 18.1117 4.22585C18.3617 4.73437 18.4867 5.32955 18.4867 6.01136C18.4867 6.6875 18.3617 7.27841 18.1117 7.78409C17.8646 8.28977 17.518 8.68324 17.072 8.96449C16.6288 9.24574 16.1117 9.38636 15.5208 9.38636ZM15.5208 8.48295C15.9697 8.48295 16.339 8.3679 16.6288 8.13778C16.9186 7.90767 17.133 7.60511 17.2723 7.23011C17.4115 6.85511 17.4811 6.44886 17.4811 6.01136C17.4811 5.57386 17.4115 5.16619 17.2723 4.78835C17.133 4.41051 16.9186 4.10511 16.6288 3.87216C16.339 3.6392 15.9697 3.52273 15.5208 3.52273C15.072 3.52273 14.7026 3.6392 14.4129 3.87216C14.1231 4.10511 13.9086 4.41051 13.7694 4.78835C13.6302 5.16619 13.5606 5.57386 13.5606 6.01136C13.5606 6.44886 13.6302 6.85511 13.7694 7.23011C13.9086 7.60511 14.1231 7.90767 14.4129 8.13778C14.7026 8.3679 15.072 8.48295 15.5208 8.48295ZM20.0219 9.25V2.70455H20.9935V3.69318H21.0617C21.181 3.36932 21.3969 3.10653 21.7094 2.90483C22.0219 2.70312 22.3742 2.60227 22.7662 2.60227C22.8401 2.60227 22.9324 2.60369 23.0432 2.60653C23.154 2.60937 23.2378 2.61364 23.2946 2.61932V3.64205C23.2605 3.63352 23.1824 3.62074 23.0602 3.60369C22.9409 3.58381 22.8145 3.57386 22.681 3.57386C22.3628 3.57386 22.0787 3.64062 21.8287 3.77415C21.5816 3.90483 21.3855 4.08665 21.2406 4.3196C21.0986 4.54972 21.0276 4.8125 21.0276 5.10795V9.25H20.0219ZM27.0318 9.38636C26.4012 9.38636 25.8571 9.24716 25.3997 8.96875C24.9452 8.6875 24.5943 8.29545 24.3472 7.79261C24.1029 7.28693 23.9807 6.69886 23.9807 6.02841C23.9807 5.35795 24.1029 4.76705 24.3472 4.25568C24.5943 3.74148 24.9381 3.34091 25.3784 3.05398C25.8216 2.7642 26.3387 2.61932 26.9296 2.61932C27.2705 2.61932 27.6071 2.67614 27.9395 2.78977C28.2719 2.90341 28.5745 3.08807 28.8472 3.34375C29.1199 3.59659 29.3372 3.93182 29.4992 4.34943C29.6611 4.76705 29.7421 5.28125 29.7421 5.89205V6.31818H24.6966V5.44886H28.7193C28.7193 5.07955 28.6455 4.75 28.4977 4.46023C28.3529 4.17045 28.1455 3.94176 27.8756 3.77415C27.6085 3.60653 27.2932 3.52273 26.9296 3.52273C26.529 3.52273 26.1824 3.62216 25.8898 3.82102C25.6 4.01705 25.377 4.27273 25.2208 4.58807C25.0645 4.90341 24.9864 5.24148 24.9864 5.60227V6.18182C24.9864 6.67614 25.0716 7.09517 25.2421 7.43892C25.4154 7.77983 25.6554 8.03977 25.9622 8.21875C26.2691 8.39489 26.6256 8.48295 27.0318 8.48295C27.296 8.48295 27.5347 8.44602 27.7477 8.37216C27.9637 8.29545 28.1497 8.18182 28.306 8.03125C28.4622 7.87784 28.583 7.6875 28.6682 7.46023L29.6398 7.73295C29.5375 8.0625 29.3656 8.35227 29.1242 8.60227C28.8827 8.84943 28.5844 9.04261 28.2293 9.18182C27.8742 9.31818 27.475 9.38636 27.0318 9.38636ZM35.1412 9.25H34.0333L37.2378 0.522727H38.3287L41.5333 9.25H40.4253L37.8173 1.90341H37.7492L35.1412 9.25ZM35.5503 5.84091H40.0162V6.77841H35.5503V5.84091ZM43.762 0.522727V9.25H42.7563V0.522727H43.762ZM46.6096 0.522727V9.25H45.6039V0.522727H46.6096ZM51.1107 9.38636C50.5198 9.38636 50.0013 9.24574 49.5553 8.96449C49.1121 8.68324 48.7655 8.28977 48.5155 7.78409C48.2683 7.27841 48.1448 6.6875 48.1448 6.01136C48.1448 5.32955 48.2683 4.73437 48.5155 4.22585C48.7655 3.71733 49.1121 3.32244 49.5553 3.04119C50.0013 2.75994 50.5198 2.61932 51.1107 2.61932C51.7016 2.61932 52.2186 2.75994 52.6618 3.04119C53.1078 3.32244 53.4544 3.71733 53.7016 4.22585C53.9516 4.73437 54.0766 5.32955 54.0766 6.01136C54.0766 6.6875 53.9516 7.27841 53.7016 7.78409C53.4544 8.28977 53.1078 8.68324 52.6618 8.96449C52.2186 9.24574 51.7016 9.38636 51.1107 9.38636ZM51.1107 8.48295C51.5595 8.48295 51.9289 8.3679 52.2186 8.13778C52.5084 7.90767 52.7229 7.60511 52.8621 7.23011C53.0013 6.85511 53.0709 6.44886 53.0709 6.01136C53.0709 5.57386 53.0013 5.16619 52.8621 4.78835C52.7229 4.41051 52.5084 4.10511 52.2186 3.87216C51.9289 3.6392 51.5595 3.52273 51.1107 3.52273C50.6618 3.52273 50.2925 3.6392 50.0027 3.87216C49.7129 4.10511 49.4985 4.41051 49.3593 4.78835C49.22 5.16619 49.1504 5.57386 49.1504 6.01136C49.1504 6.44886 49.22 6.85511 49.3593 7.23011C49.4985 7.60511 49.7129 7.90767 50.0027 8.13778C50.2925 8.3679 50.6618 8.48295 51.1107 8.48295ZM58.2708 9.38636C57.6572 9.38636 57.1288 9.24148 56.6856 8.9517C56.2424 8.66193 55.9015 8.26278 55.6629 7.75426C55.4242 7.24574 55.3049 6.66477 55.3049 6.01136C55.3049 5.34659 55.4271 4.75994 55.6714 4.25142C55.9186 3.74006 56.2623 3.34091 56.7026 3.05398C57.1458 2.7642 57.6629 2.61932 58.2538 2.61932C58.714 2.61932 59.1288 2.70455 59.4981 2.875C59.8674 3.04545 60.17 3.28409 60.4058 3.59091C60.6416 3.89773 60.7879 4.25568 60.8447 4.66477H59.839C59.7623 4.36648 59.5919 4.10227 59.3276 3.87216C59.0663 3.6392 58.714 3.52273 58.2708 3.52273C57.8788 3.52273 57.535 3.625 57.2396 3.82955C56.947 4.03125 56.7183 4.31676 56.5535 4.68608C56.3916 5.05256 56.3106 5.48295 56.3106 5.97727C56.3106 6.48295 56.3901 6.9233 56.5492 7.2983C56.7112 7.6733 56.9384 7.96449 57.2311 8.17188C57.5265 8.37926 57.8731 8.48295 58.2708 8.48295C58.5322 8.48295 58.7694 8.4375 58.9825 8.34659C59.1955 8.25568 59.3759 8.125 59.5237 7.95455C59.6714 7.78409 59.7765 7.57955 59.839 7.34091H60.8447C60.7879 7.72727 60.6473 8.07528 60.4228 8.38494C60.2012 8.69176 59.9072 8.93608 59.5407 9.1179C59.1771 9.29688 58.7538 9.38636 58.2708 9.38636ZM64.241 9.40341C63.8262 9.40341 63.4498 9.32528 63.1117 9.16903C62.7737 9.00994 62.5052 8.78125 62.3063 8.48295C62.1075 8.18182 62.008 7.81818 62.008 7.39205C62.008 7.01705 62.0819 6.71307 62.2296 6.48011C62.3774 6.24432 62.5748 6.05966 62.822 5.92614C63.0691 5.79261 63.3419 5.69318 63.6401 5.62784C63.9413 5.55966 64.2438 5.50568 64.5478 5.46591C64.9455 5.41477 65.268 5.37642 65.5151 5.35085C65.7651 5.32244 65.947 5.27557 66.0606 5.21023C66.1771 5.14489 66.2353 5.03125 66.2353 4.86932V4.83523C66.2353 4.41477 66.1203 4.08807 65.8901 3.85511C65.6629 3.62216 65.3177 3.50568 64.8546 3.50568C64.3745 3.50568 63.9981 3.6108 63.7254 3.82102C63.4526 4.03125 63.2609 4.25568 63.1501 4.49432L62.1955 4.15341C62.366 3.75568 62.5933 3.44602 62.8774 3.22443C63.1643 3 63.4768 2.84375 63.8149 2.75568C64.1558 2.66477 64.491 2.61932 64.8205 2.61932C65.0308 2.61932 65.2723 2.64489 65.545 2.69602C65.8205 2.74432 66.0862 2.84517 66.3419 2.99858C66.6004 3.15199 66.8149 3.38352 66.9853 3.69318C67.1558 4.00284 67.241 4.41761 67.241 4.9375V9.25H66.2353V8.36364H66.1842C66.116 8.50568 66.0024 8.65767 65.8433 8.8196C65.6842 8.98153 65.4725 9.11932 65.2083 9.23295C64.9441 9.34659 64.6217 9.40341 64.241 9.40341ZM64.3944 8.5C64.7921 8.5 65.1274 8.42188 65.4001 8.26562C65.6757 8.10938 65.883 7.90767 66.0223 7.66051C66.1643 7.41335 66.2353 7.15341 66.2353 6.88068V5.96023C66.1927 6.01136 66.099 6.05824 65.9541 6.10085C65.812 6.14062 65.6473 6.17614 65.4598 6.20739C65.2751 6.2358 65.0947 6.26136 64.9186 6.28409C64.7453 6.30398 64.6046 6.32102 64.4967 6.33523C64.2353 6.36932 63.991 6.42472 63.7637 6.50142C63.5393 6.57528 63.3575 6.6875 63.2183 6.83807C63.0819 6.9858 63.0137 7.1875 63.0137 7.44318C63.0137 7.79261 63.143 8.05682 63.4015 8.2358C63.6629 8.41193 63.9938 8.5 64.3944 8.5ZM71.9232 2.70455V3.55682H68.5311V2.70455H71.9232ZM69.5198 1.13636H70.5254V7.375C70.5254 7.65909 70.5666 7.87216 70.649 8.0142C70.7343 8.15341 70.8422 8.24716 70.9729 8.29545C71.1064 8.34091 71.247 8.36364 71.3948 8.36364C71.5056 8.36364 71.5965 8.35795 71.6675 8.34659C71.7385 8.33239 71.7953 8.32102 71.8379 8.3125L72.0425 9.21591C71.9743 9.24148 71.8791 9.26705 71.757 9.29261C71.6348 9.32102 71.48 9.33523 71.2925 9.33523C71.0084 9.33523 70.73 9.27415 70.4573 9.15199C70.1874 9.02983 69.9629 8.84375 69.784 8.59375C69.6078 8.34375 69.5198 8.02841 69.5198 7.64773V1.13636ZM73.436 9.25V2.70455H74.4416V9.25H73.436ZM73.9473 1.61364C73.7513 1.61364 73.5823 1.54688 73.4402 1.41335C73.301 1.27983 73.2314 1.11932 73.2314 0.931818C73.2314 0.744318 73.301 0.583807 73.4402 0.450284C73.5823 0.316761 73.7513 0.25 73.9473 0.25C74.1433 0.25 74.311 0.316761 74.4502 0.450284C74.5922 0.583807 74.6632 0.744318 74.6632 0.931818C74.6632 1.11932 74.5922 1.27983 74.4502 1.41335C74.311 1.54688 74.1433 1.61364 73.9473 1.61364ZM78.9427 9.38636C78.3518 9.38636 77.8333 9.24574 77.3873 8.96449C76.9441 8.68324 76.5975 8.28977 76.3475 7.78409C76.1004 7.27841 75.9768 6.6875 75.9768 6.01136C75.9768 5.32955 76.1004 4.73437 76.3475 4.22585C76.5975 3.71733 76.9441 3.32244 77.3873 3.04119C77.8333 2.75994 78.3518 2.61932 78.9427 2.61932C79.5336 2.61932 80.0507 2.75994 80.4938 3.04119C80.9399 3.32244 81.2865 3.71733 81.5336 4.22585C81.7836 4.73437 81.9086 5.32955 81.9086 6.01136C81.9086 6.6875 81.7836 7.27841 81.5336 7.78409C81.2865 8.28977 80.9399 8.68324 80.4938 8.96449C80.0507 9.24574 79.5336 9.38636 78.9427 9.38636ZM78.9427 8.48295C79.3916 8.48295 79.7609 8.3679 80.0507 8.13778C80.3404 7.90767 80.5549 7.60511 80.6941 7.23011C80.8333 6.85511 80.9029 6.44886 80.9029 6.01136C80.9029 5.57386 80.8333 5.16619 80.6941 4.78835C80.5549 4.41051 80.3404 4.10511 80.0507 3.87216C79.7609 3.6392 79.3916 3.52273 78.9427 3.52273C78.4938 3.52273 78.1245 3.6392 77.8348 3.87216C77.545 4.10511 77.3305 4.41051 77.1913 4.78835C77.0521 5.16619 76.9825 5.57386 76.9825 6.01136C76.9825 6.44886 77.0521 6.85511 77.1913 7.23011C77.3305 7.60511 77.545 7.90767 77.8348 8.13778C78.1245 8.3679 78.4938 8.48295 78.9427 8.48295ZM84.4495 5.3125V9.25H83.4438V2.70455H84.4154V3.72727H84.5006C84.654 3.39489 84.887 3.12784 85.1995 2.92614C85.512 2.72159 85.9154 2.61932 86.4097 2.61932C86.8529 2.61932 87.2406 2.71023 87.573 2.89205C87.9054 3.07102 88.1639 3.34375 88.3486 3.71023C88.5333 4.07386 88.6256 4.53409 88.6256 5.09091V9.25H87.6199V5.15909C87.6199 4.64489 87.4864 4.24432 87.2193 3.95739C86.9523 3.66761 86.5858 3.52273 86.1199 3.52273C85.7989 3.52273 85.512 3.59233 85.2591 3.73153C85.0091 3.87074 84.8117 4.07386 84.6668 4.34091C84.5219 4.60795 84.4495 4.93182 84.4495 5.3125Z" fill="black"/>
</svg>
