<svg width="129" height="10" viewBox="0 0 129 10" fill="none" xmlns="http://www.w3.org/2000/svg">
<path d="M5.82955 2.70455C5.77841 2.27273 5.57102 1.9375 5.20739 1.69886C4.84375 1.46023 4.39773 1.34091 3.86932 1.34091C3.48295 1.34091 3.14489 1.40341 2.85511 1.52841C2.56818 1.65341 2.34375 1.82528 2.18182 2.04403C2.02273 2.26278 1.94318 2.51136 1.94318 2.78977C1.94318 3.02273 1.99858 3.22301 2.10938 3.39062C2.22301 3.5554 2.3679 3.69318 2.54403 3.80398C2.72017 3.91193 2.90483 4.00142 3.09801 4.07244C3.29119 4.14062 3.46875 4.19602 3.63068 4.23864L4.51705 4.47727C4.74432 4.53693 4.99716 4.61932 5.27557 4.72443C5.55682 4.82955 5.82528 4.97301 6.08097 5.15483C6.33949 5.33381 6.55256 5.56392 6.72017 5.84517C6.88778 6.12642 6.97159 6.47159 6.97159 6.88068C6.97159 7.35227 6.84801 7.77841 6.60085 8.15909C6.35653 8.53977 5.99858 8.84233 5.52699 9.06676C5.05824 9.29119 4.48864 9.40341 3.81818 9.40341C3.19318 9.40341 2.65199 9.30256 2.1946 9.10085C1.74006 8.89915 1.3821 8.6179 1.12074 8.2571C0.862216 7.89631 0.715909 7.47727 0.681818 7H1.77273C1.80114 7.32955 1.91193 7.60227 2.10511 7.81818C2.30114 8.03125 2.5483 8.19034 2.84659 8.29545C3.14773 8.39773 3.47159 8.44886 3.81818 8.44886C4.22159 8.44886 4.58381 8.38352 4.90483 8.25284C5.22585 8.11932 5.48011 7.93466 5.66761 7.69886C5.85511 7.46023 5.94886 7.18182 5.94886 6.86364C5.94886 6.57386 5.8679 6.33807 5.70597 6.15625C5.54403 5.97443 5.33097 5.8267 5.06676 5.71307C4.80256 5.59943 4.51705 5.5 4.21023 5.41477L3.13636 5.10795C2.45455 4.91193 1.91477 4.6321 1.51705 4.26847C1.11932 3.90483 0.920455 3.42898 0.920455 2.84091C0.920455 2.35227 1.05256 1.92614 1.31676 1.5625C1.58381 1.19602 1.94176 0.911932 2.39062 0.710227C2.84233 0.505682 3.34659 0.403409 3.90341 0.403409C4.46591 0.403409 4.96591 0.504261 5.40341 0.705966C5.84091 0.904829 6.1875 1.17756 6.44318 1.52415C6.7017 1.87074 6.83807 2.2642 6.85227 2.70455H5.82955ZM11.4194 2.70455V3.55682H8.02734V2.70455H11.4194ZM9.01598 1.13636H10.0217V7.375C10.0217 7.65909 10.0629 7.87216 10.1452 8.0142C10.2305 8.15341 10.3384 8.24716 10.4691 8.29545C10.6026 8.34091 10.7433 8.36364 10.891 8.36364C11.0018 8.36364 11.0927 8.35795 11.1637 8.34659C11.2347 8.33239 11.2915 8.32102 11.3342 8.3125L11.5387 9.21591C11.4705 9.24148 11.3754 9.26705 11.2532 9.29261C11.131 9.32102 10.9762 9.33523 10.7887 9.33523C10.5046 9.33523 10.2262 9.27415 9.95348 9.15199C9.68359 9.02983 9.45916 8.84375 9.28018 8.59375C9.10405 8.34375 9.01598 8.02841 9.01598 7.64773V1.13636ZM15.521 9.38636C14.93 9.38636 14.4116 9.24574 13.9656 8.96449C13.5224 8.68324 13.1758 8.28977 12.9258 7.78409C12.6786 7.27841 12.555 6.6875 12.555 6.01136C12.555 5.32955 12.6786 4.73437 12.9258 4.22585C13.1758 3.71733 13.5224 3.32244 13.9656 3.04119C14.4116 2.75994 14.93 2.61932 15.521 2.61932C16.1119 2.61932 16.6289 2.75994 17.0721 3.04119C17.5181 3.32244 17.8647 3.71733 18.1119 4.22585C18.3619 4.73437 18.4869 5.32955 18.4869 6.01136C18.4869 6.6875 18.3619 7.27841 18.1119 7.78409C17.8647 8.28977 17.5181 8.68324 17.0721 8.96449C16.6289 9.24574 16.1119 9.38636 15.521 9.38636ZM15.521 8.48295C15.9698 8.48295 16.3391 8.3679 16.6289 8.13778C16.9187 7.90767 17.1332 7.60511 17.2724 7.23011C17.4116 6.85511 17.4812 6.44886 17.4812 6.01136C17.4812 5.57386 17.4116 5.16619 17.2724 4.78835C17.1332 4.41051 16.9187 4.10511 16.6289 3.87216C16.3391 3.6392 15.9698 3.52273 15.521 3.52273C15.0721 3.52273 14.7028 3.6392 14.413 3.87216C14.1232 4.10511 13.9087 4.41051 13.7695 4.78835C13.6303 5.16619 13.5607 5.57386 13.5607 6.01136C13.5607 6.44886 13.6303 6.85511 13.7695 7.23011C13.9087 7.60511 14.1232 7.90767 14.413 8.13778C14.7028 8.3679 15.0721 8.48295 15.521 8.48295ZM20.022 9.25V2.70455H20.9936V3.69318H21.0618C21.1811 3.36932 21.397 3.10653 21.7095 2.90483C22.022 2.70312 22.3743 2.60227 22.7663 2.60227C22.8402 2.60227 22.9325 2.60369 23.0433 2.60653C23.1541 2.60937 23.2379 2.61364 23.2947 2.61932V3.64205C23.2607 3.63352 23.1825 3.62074 23.0604 3.60369C22.9411 3.58381 22.8146 3.57386 22.6811 3.57386C22.3629 3.57386 22.0788 3.64062 21.8288 3.77415C21.5817 3.90483 21.3857 4.08665 21.2408 4.3196C21.0987 4.54972 21.0277 4.8125 21.0277 5.10795V9.25H20.022ZM27.032 9.38636C26.4013 9.38636 25.8572 9.24716 25.3999 8.96875C24.9453 8.6875 24.5945 8.29545 24.3473 7.79261C24.103 7.28693 23.9808 6.69886 23.9808 6.02841C23.9808 5.35795 24.103 4.76705 24.3473 4.25568C24.5945 3.74148 24.9382 3.34091 25.3786 3.05398C25.8217 2.7642 26.3388 2.61932 26.9297 2.61932C27.2706 2.61932 27.6072 2.67614 27.9396 2.78977C28.272 2.90341 28.5746 3.08807 28.8473 3.34375C29.12 3.59659 29.3374 3.93182 29.4993 4.34943C29.6612 4.76705 29.7422 5.28125 29.7422 5.89205V6.31818H24.6967V5.44886H28.7195C28.7195 5.07955 28.6456 4.75 28.4979 4.46023C28.353 4.17045 28.1456 3.94176 27.8757 3.77415C27.6087 3.60653 27.2933 3.52273 26.9297 3.52273C26.5291 3.52273 26.1825 3.62216 25.8899 3.82102C25.6001 4.01705 25.3771 4.27273 25.2209 4.58807C25.0646 4.90341 24.9865 5.24148 24.9865 5.60227V6.18182C24.9865 6.67614 25.0717 7.09517 25.2422 7.43892C25.4155 7.77983 25.6555 8.03977 25.9624 8.21875C26.2692 8.39489 26.6257 8.48295 27.032 8.48295C27.2962 8.48295 27.5348 8.44602 27.7479 8.37216C27.9638 8.29545 28.1499 8.18182 28.3061 8.03125C28.4624 7.87784 28.5831 7.6875 28.6683 7.46023L29.6399 7.73295C29.5376 8.0625 29.3658 8.35227 29.1243 8.60227C28.8828 8.84943 28.5845 9.04261 28.2294 9.18182C27.8743 9.31818 27.4751 9.38636 27.032 9.38636ZM35.1413 9.25H34.0334L37.2379 0.522727H38.3288L41.5334 9.25H40.4254L37.8175 1.90341H37.7493L35.1413 9.25ZM35.5504 5.84091H40.0163V6.77841H35.5504V5.84091ZM43.7621 0.522727V9.25H42.7564V0.522727H43.7621ZM46.6097 0.522727V9.25H45.604V0.522727H46.6097ZM51.1108 9.38636C50.5199 9.38636 50.0014 9.24574 49.5554 8.96449C49.1122 8.68324 48.7656 8.28977 48.5156 7.78409C48.2685 7.27841 48.1449 6.6875 48.1449 6.01136C48.1449 5.32955 48.2685 4.73437 48.5156 4.22585C48.7656 3.71733 49.1122 3.32244 49.5554 3.04119C50.0014 2.75994 50.5199 2.61932 51.1108 2.61932C51.7017 2.61932 52.2188 2.75994 52.6619 3.04119C53.108 3.32244 53.4545 3.71733 53.7017 4.22585C53.9517 4.73437 54.0767 5.32955 54.0767 6.01136C54.0767 6.6875 53.9517 7.27841 53.7017 7.78409C53.4545 8.28977 53.108 8.68324 52.6619 8.96449C52.2188 9.24574 51.7017 9.38636 51.1108 9.38636ZM51.1108 8.48295C51.5597 8.48295 51.929 8.3679 52.2188 8.13778C52.5085 7.90767 52.723 7.60511 52.8622 7.23011C53.0014 6.85511 53.071 6.44886 53.071 6.01136C53.071 5.57386 53.0014 5.16619 52.8622 4.78835C52.723 4.41051 52.5085 4.10511 52.2188 3.87216C51.929 3.6392 51.5597 3.52273 51.1108 3.52273C50.6619 3.52273 50.2926 3.6392 50.0028 3.87216C49.7131 4.10511 49.4986 4.41051 49.3594 4.78835C49.2202 5.16619 49.1506 5.57386 49.1506 6.01136C49.1506 6.44886 49.2202 6.85511 49.3594 7.23011C49.4986 7.60511 49.7131 7.90767 50.0028 8.13778C50.2926 8.3679 50.6619 8.48295 51.1108 8.48295ZM58.271 9.38636C57.6573 9.38636 57.1289 9.24148 56.6857 8.9517C56.2425 8.66193 55.9016 8.26278 55.663 7.75426C55.4244 7.24574 55.305 6.66477 55.305 6.01136C55.305 5.34659 55.4272 4.75994 55.6715 4.25142C55.9187 3.74006 56.2624 3.34091 56.7028 3.05398C57.146 2.7642 57.663 2.61932 58.2539 2.61932C58.7141 2.61932 59.1289 2.70455 59.4982 2.875C59.8675 3.04545 60.1701 3.28409 60.4059 3.59091C60.6417 3.89773 60.788 4.25568 60.8448 4.66477H59.8391C59.7624 4.36648 59.592 4.10227 59.3278 3.87216C59.0664 3.6392 58.7141 3.52273 58.271 3.52273C57.8789 3.52273 57.5352 3.625 57.2397 3.82955C56.9471 4.03125 56.7184 4.31676 56.5536 4.68608C56.3917 5.05256 56.3107 5.48295 56.3107 5.97727C56.3107 6.48295 56.3903 6.9233 56.5494 7.2983C56.7113 7.6733 56.9386 7.96449 57.2312 8.17188C57.5266 8.37926 57.8732 8.48295 58.271 8.48295C58.5323 8.48295 58.7695 8.4375 58.9826 8.34659C59.1957 8.25568 59.3761 8.125 59.5238 7.95455C59.6715 7.78409 59.7766 7.57955 59.8391 7.34091H60.8448C60.788 7.72727 60.6474 8.07528 60.4229 8.38494C60.2013 8.69176 59.9073 8.93608 59.5408 9.1179C59.1772 9.29688 58.7539 9.38636 58.271 9.38636ZM64.2411 9.40341C63.8263 9.40341 63.4499 9.32528 63.1119 9.16903C62.7738 9.00994 62.5053 8.78125 62.3065 8.48295C62.1076 8.18182 62.0082 7.81818 62.0082 7.39205C62.0082 7.01705 62.082 6.71307 62.2298 6.48011C62.3775 6.24432 62.5749 6.05966 62.8221 5.92614C63.0692 5.79261 63.342 5.69318 63.6403 5.62784C63.9414 5.55966 64.244 5.50568 64.5479 5.46591C64.9457 5.41477 65.2681 5.37642 65.5153 5.35085C65.7653 5.32244 65.9471 5.27557 66.0607 5.21023C66.1772 5.14489 66.2354 5.03125 66.2354 4.86932V4.83523C66.2354 4.41477 66.1204 4.08807 65.8903 3.85511C65.663 3.62216 65.3178 3.50568 64.8548 3.50568C64.3746 3.50568 63.9982 3.6108 63.7255 3.82102C63.4528 4.03125 63.261 4.25568 63.1502 4.49432L62.1957 4.15341C62.3661 3.75568 62.5934 3.44602 62.8775 3.22443C63.1644 3 63.4769 2.84375 63.815 2.75568C64.1559 2.66477 64.4911 2.61932 64.8207 2.61932C65.0309 2.61932 65.2724 2.64489 65.5451 2.69602C65.8207 2.74432 66.0863 2.84517 66.342 2.99858C66.6005 3.15199 66.815 3.38352 66.9854 3.69318C67.1559 4.00284 67.2411 4.41761 67.2411 4.9375V9.25H66.2354V8.36364H66.1843C66.1161 8.50568 66.0025 8.65767 65.8434 8.8196C65.6843 8.98153 65.4727 9.11932 65.2085 9.23295C64.9442 9.34659 64.6218 9.40341 64.2411 9.40341ZM64.3945 8.5C64.7923 8.5 65.1275 8.42188 65.4002 8.26562C65.6758 8.10938 65.8832 7.90767 66.0224 7.66051C66.1644 7.41335 66.2354 7.15341 66.2354 6.88068V5.96023C66.1928 6.01136 66.0991 6.05824 65.9542 6.10085C65.8121 6.14062 65.6474 6.17614 65.4599 6.20739C65.2752 6.2358 65.0948 6.26136 64.9187 6.28409C64.7454 6.30398 64.6048 6.32102 64.4968 6.33523C64.2354 6.36932 63.9911 6.42472 63.7638 6.50142C63.5394 6.57528 63.3576 6.6875 63.2184 6.83807C63.082 6.9858 63.0138 7.1875 63.0138 7.44318C63.0138 7.79261 63.1431 8.05682 63.4016 8.2358C63.663 8.41193 63.994 8.5 64.3945 8.5ZM71.9233 2.70455V3.55682H68.5312V2.70455H71.9233ZM69.5199 1.13636H70.5256V7.375C70.5256 7.65909 70.5668 7.87216 70.6491 8.0142C70.7344 8.15341 70.8423 8.24716 70.973 8.29545C71.1065 8.34091 71.2472 8.36364 71.3949 8.36364C71.5057 8.36364 71.5966 8.35795 71.6676 8.34659C71.7386 8.33239 71.7955 8.32102 71.8381 8.3125L72.0426 9.21591C71.9744 9.24148 71.8793 9.26705 71.7571 9.29261C71.6349 9.32102 71.4801 9.33523 71.2926 9.33523C71.0085 9.33523 70.7301 9.27415 70.4574 9.15199C70.1875 9.02983 69.9631 8.84375 69.7841 8.59375C69.608 8.34375 69.5199 8.02841 69.5199 7.64773V1.13636ZM73.4361 9.25V2.70455H74.4418V9.25H73.4361ZM73.9474 1.61364C73.7514 1.61364 73.5824 1.54688 73.4403 1.41335C73.3011 1.27983 73.2315 1.11932 73.2315 0.931818C73.2315 0.744318 73.3011 0.583807 73.4403 0.450284C73.5824 0.316761 73.7514 0.25 73.9474 0.25C74.1435 0.25 74.3111 0.316761 74.4503 0.450284C74.5923 0.583807 74.6634 0.744318 74.6634 0.931818C74.6634 1.11932 74.5923 1.27983 74.4503 1.41335C74.3111 1.54688 74.1435 1.61364 73.9474 1.61364ZM78.9428 9.38636C78.3519 9.38636 77.8335 9.24574 77.3874 8.96449C76.9442 8.68324 76.5977 8.28977 76.3477 7.78409C76.1005 7.27841 75.9769 6.6875 75.9769 6.01136C75.9769 5.32955 76.1005 4.73437 76.3477 4.22585C76.5977 3.71733 76.9442 3.32244 77.3874 3.04119C77.8335 2.75994 78.3519 2.61932 78.9428 2.61932C79.5337 2.61932 80.0508 2.75994 80.494 3.04119C80.94 3.32244 81.2866 3.71733 81.5337 4.22585C81.7837 4.73437 81.9087 5.32955 81.9087 6.01136C81.9087 6.6875 81.7837 7.27841 81.5337 7.78409C81.2866 8.28977 80.94 8.68324 80.494 8.96449C80.0508 9.24574 79.5337 9.38636 78.9428 9.38636ZM78.9428 8.48295C79.3917 8.48295 79.761 8.3679 80.0508 8.13778C80.3406 7.90767 80.555 7.60511 80.6942 7.23011C80.8335 6.85511 80.9031 6.44886 80.9031 6.01136C80.9031 5.57386 80.8335 5.16619 80.6942 4.78835C80.555 4.41051 80.3406 4.10511 80.0508 3.87216C79.761 3.6392 79.3917 3.52273 78.9428 3.52273C78.494 3.52273 78.1246 3.6392 77.8349 3.87216C77.5451 4.10511 77.3306 4.41051 77.1914 4.78835C77.0522 5.16619 76.9826 5.57386 76.9826 6.01136C76.9826 6.44886 77.0522 6.85511 77.1914 7.23011C77.3306 7.60511 77.5451 7.90767 77.8349 8.13778C78.1246 8.3679 78.494 8.48295 78.9428 8.48295ZM84.4496 5.3125V9.25H83.4439V2.70455H84.4155V3.72727H84.5007C84.6541 3.39489 84.8871 3.12784 85.1996 2.92614C85.5121 2.72159 85.9155 2.61932 86.4098 2.61932C86.853 2.61932 87.2408 2.71023 87.5732 2.89205C87.9055 3.07102 88.1641 3.34375 88.3487 3.71023C88.5334 4.07386 88.6257 4.53409 88.6257 5.09091V9.25H87.62V5.15909C87.62 4.64489 87.4865 4.24432 87.2195 3.95739C86.9524 3.66761 86.5859 3.52273 86.12 3.52273C85.799 3.52273 85.5121 3.59233 85.2592 3.73153C85.0092 3.87074 84.8118 4.07386 84.6669 4.34091C84.522 4.60795 84.4496 4.93182 84.4496 5.3125ZM98.7475 2.70455C98.6964 2.27273 98.489 1.9375 98.1254 1.69886C97.7617 1.46023 97.3157 1.34091 96.7873 1.34091C96.4009 1.34091 96.0629 1.40341 95.7731 1.52841C95.4862 1.65341 95.2617 1.82528 95.0998 2.04403C94.9407 2.26278 94.8612 2.51136 94.8612 2.78977C94.8612 3.02273 94.9165 3.22301 95.0273 3.39062C95.141 3.5554 95.2859 3.69318 95.462 3.80398C95.6381 3.91193 95.8228 4.00142 96.016 4.07244C96.2092 4.14062 96.3867 4.19602 96.5487 4.23864L97.435 4.47727C97.6623 4.53693 97.9151 4.61932 98.1935 4.72443C98.4748 4.82955 98.7433 4.97301 98.9989 5.15483C99.2575 5.33381 99.4705 5.56392 99.6381 5.84517C99.8058 6.12642 99.8896 6.47159 99.8896 6.88068C99.8896 7.35227 99.766 7.77841 99.5188 8.15909C99.2745 8.53977 98.9165 8.84233 98.445 9.06676C97.9762 9.29119 97.4066 9.40341 96.7362 9.40341C96.1112 9.40341 95.57 9.30256 95.1126 9.10085C94.658 8.89915 94.3001 8.6179 94.0387 8.2571C93.7802 7.89631 93.6339 7.47727 93.5998 7H94.6907C94.7191 7.32955 94.8299 7.60227 95.0231 7.81818C95.2191 8.03125 95.4663 8.19034 95.7646 8.29545C96.0657 8.39773 96.3896 8.44886 96.7362 8.44886C97.1396 8.44886 97.5018 8.38352 97.8228 8.25284C98.1438 8.11932 98.3981 7.93466 98.5856 7.69886C98.7731 7.46023 98.8668 7.18182 98.8668 6.86364C98.8668 6.57386 98.7859 6.33807 98.6239 6.15625C98.462 5.97443 98.2489 5.8267 97.9847 5.71307C97.7205 5.59943 97.435 5.5 97.1282 5.41477L96.0543 5.10795C95.3725 4.91193 94.8327 4.6321 94.435 4.26847C94.0373 3.90483 93.8384 3.42898 93.8384 2.84091C93.8384 2.35227 93.9705 1.92614 94.2347 1.5625C94.5018 1.19602 94.8597 0.911932 95.3086 0.710227C95.7603 0.505682 96.2646 0.403409 96.8214 0.403409C97.3839 0.403409 97.8839 0.504261 98.3214 0.705966C98.7589 0.904829 99.1055 1.17756 99.3612 1.52415C99.6197 1.87074 99.756 2.2642 99.7702 2.70455H98.7475ZM104.337 2.70455V3.55682H100.945V2.70455H104.337ZM101.934 1.13636H102.94V7.375C102.94 7.65909 102.981 7.87216 103.063 8.0142C103.148 8.15341 103.256 8.24716 103.387 8.29545C103.521 8.34091 103.661 8.36364 103.809 8.36364C103.92 8.36364 104.011 8.35795 104.082 8.34659C104.153 8.33239 104.21 8.32102 104.252 8.3125L104.457 9.21591C104.388 9.24148 104.293 9.26705 104.171 9.29261C104.049 9.32102 103.894 9.33523 103.707 9.33523C103.423 9.33523 103.144 9.27415 102.871 9.15199C102.602 9.02983 102.377 8.84375 102.198 8.59375C102.022 8.34375 101.934 8.02841 101.934 7.64773V1.13636ZM107.776 9.40341C107.362 9.40341 106.985 9.32528 106.647 9.16903C106.309 9.00994 106.04 8.78125 105.842 8.48295C105.643 8.18182 105.543 7.81818 105.543 7.39205C105.543 7.01705 105.617 6.71307 105.765 6.48011C105.913 6.24432 106.11 6.05966 106.357 5.92614C106.604 5.79261 106.877 5.69318 107.175 5.62784C107.477 5.55966 107.779 5.50568 108.083 5.46591C108.481 5.41477 108.803 5.37642 109.05 5.35085C109.3 5.32244 109.482 5.27557 109.596 5.21023C109.712 5.14489 109.771 5.03125 109.771 4.86932V4.83523C109.771 4.41477 109.656 4.08807 109.425 3.85511C109.198 3.62216 108.853 3.50568 108.39 3.50568C107.91 3.50568 107.533 3.6108 107.261 3.82102C106.988 4.03125 106.796 4.25568 106.685 4.49432L105.731 4.15341C105.901 3.75568 106.129 3.44602 106.413 3.22443C106.7 3 107.012 2.84375 107.35 2.75568C107.691 2.66477 108.026 2.61932 108.356 2.61932C108.566 2.61932 108.808 2.64489 109.08 2.69602C109.356 2.74432 109.621 2.84517 109.877 2.99858C110.136 3.15199 110.35 3.38352 110.521 3.69318C110.691 4.00284 110.776 4.41761 110.776 4.9375V9.25H109.771V8.36364H109.719C109.651 8.50568 109.538 8.65767 109.379 8.8196C109.219 8.98153 109.008 9.11932 108.744 9.23295C108.479 9.34659 108.157 9.40341 107.776 9.40341ZM107.93 8.5C108.327 8.5 108.663 8.42188 108.935 8.26562C109.211 8.10938 109.418 7.90767 109.558 7.66051C109.7 7.41335 109.771 7.15341 109.771 6.88068V5.96023C109.728 6.01136 109.634 6.05824 109.489 6.10085C109.347 6.14062 109.183 6.17614 108.995 6.20739C108.81 6.2358 108.63 6.26136 108.454 6.28409C108.281 6.30398 108.14 6.32102 108.032 6.33523C107.771 6.36932 107.526 6.42472 107.299 6.50142C107.075 6.57528 106.893 6.6875 106.754 6.83807C106.617 6.9858 106.549 7.1875 106.549 7.44318C106.549 7.79261 106.678 8.05682 106.937 8.2358C107.198 8.41193 107.529 8.5 107.93 8.5ZM115.458 2.70455V3.55682H112.066V2.70455H115.458ZM113.055 1.13636H114.061V7.375C114.061 7.65909 114.102 7.87216 114.184 8.0142C114.27 8.15341 114.377 8.24716 114.508 8.29545C114.642 8.34091 114.782 8.36364 114.93 8.36364C115.041 8.36364 115.132 8.35795 115.203 8.34659C115.274 8.33239 115.331 8.32102 115.373 8.3125L115.578 9.21591C115.51 9.24148 115.414 9.26705 115.292 9.29261C115.17 9.32102 115.015 9.33523 114.828 9.33523C114.544 9.33523 114.265 9.27415 113.993 9.15199C113.723 9.02983 113.498 8.84375 113.319 8.59375C113.143 8.34375 113.055 8.02841 113.055 7.64773V1.13636ZM121.096 6.57386V2.70455H122.102V9.25H121.096V8.14205H121.028C120.875 8.47443 120.636 8.7571 120.312 8.99006C119.988 9.22017 119.579 9.33523 119.085 9.33523C118.676 9.33523 118.312 9.24574 117.994 9.06676C117.676 8.88494 117.426 8.61222 117.244 8.24858C117.062 7.8821 116.971 7.42045 116.971 6.86364V2.70455H117.977V6.79545C117.977 7.27273 118.11 7.65341 118.377 7.9375C118.647 8.22159 118.991 8.36364 119.409 8.36364C119.659 8.36364 119.913 8.29972 120.172 8.17188C120.433 8.04403 120.652 7.84801 120.828 7.58381C121.007 7.3196 121.096 6.98295 121.096 6.57386ZM128.58 4.17045L127.677 4.42614C127.62 4.27557 127.536 4.12926 127.425 3.98722C127.317 3.84233 127.17 3.72301 126.982 3.62926C126.795 3.53551 126.555 3.48864 126.262 3.48864C125.862 3.48864 125.528 3.58097 125.261 3.76562C124.996 3.94744 124.864 4.17898 124.864 4.46023C124.864 4.71023 124.955 4.90767 125.137 5.05256C125.319 5.19744 125.603 5.31818 125.989 5.41477L126.961 5.65341C127.546 5.79545 127.982 6.01278 128.269 6.3054C128.556 6.59517 128.7 6.96875 128.7 7.42614C128.7 7.80114 128.592 8.13636 128.376 8.43182C128.163 8.72727 127.864 8.96023 127.481 9.13068C127.097 9.30114 126.651 9.38636 126.143 9.38636C125.475 9.38636 124.923 9.24148 124.485 8.9517C124.048 8.66193 123.771 8.23864 123.654 7.68182L124.609 7.44318C124.7 7.79545 124.871 8.05966 125.124 8.2358C125.38 8.41193 125.714 8.5 126.126 8.5C126.594 8.5 126.967 8.40057 127.242 8.2017C127.521 8 127.66 7.75852 127.66 7.47727C127.66 7.25 127.58 7.05966 127.421 6.90625C127.262 6.75 127.018 6.63352 126.688 6.55682L125.597 6.30114C124.998 6.15909 124.558 5.93892 124.276 5.64062C123.998 5.33949 123.859 4.96307 123.859 4.51136C123.859 4.14205 123.962 3.81534 124.17 3.53125C124.38 3.24716 124.665 3.02415 125.026 2.86222C125.39 2.70028 125.802 2.61932 126.262 2.61932C126.91 2.61932 127.418 2.76136 127.788 3.04545C128.16 3.32955 128.424 3.70455 128.58 4.17045Z" fill="black"/>
</svg>
