<svg width="33" height="32" viewBox="0 0 33 32" fill="none" xmlns="http://www.w3.org/2000/svg">
<path d="M5.68018 9.4668H8.64692C8.64692 9.59616 8.64692 9.71704 8.64692 9.82916C8.64692 10.338 8.64692 10.8468 8.64692 11.347C8.64692 12.1836 8.14672 12.8044 7.41366 12.9251C6.65472 13.0459 6.01652 12.6405 5.73192 11.8471C5.72329 11.8212 5.69742 11.8041 5.68018 11.7782C5.68018 11.0107 5.68018 10.2344 5.68018 9.4668Z" fill="#FFB422"/>
<path d="M25.9989 26.0084C25.9989 26.4568 25.8178 26.5689 25.0934 26.5689C19.6946 26.5689 14.2958 26.5689 8.90566 26.5689C8.79355 26.5689 8.68142 26.5689 8.5693 26.5689C8.26746 26.543 8.03465 26.431 8.02603 26.2413C8.00015 25.8014 8.02603 25.3615 8.02603 24.9131H26.0076C26.0076 25.2926 26.0076 25.6548 26.0076 26.017L25.9989 26.0084ZM12.9504 26.0427C13.2005 26.0255 13.3472 25.9221 13.3558 25.7582C13.3558 25.603 13.8129 26.2928 13.5628 26.2756C13.1833 26.2583 12.7176 26.2497 12.3381 26.2756C12.088 26.2928 11.2084 26.3791 10.9324 26.2756C10.734 26.2066 11.6223 26.0168 11.8724 26.0341C12.0621 26.0513 12.2519 26.0341 12.4502 26.0341C12.6227 26.0341 12.7952 26.0427 12.9677 26.0341L12.9504 26.0427ZM16.6244 25.2321C16.357 25.2579 16.978 25.5081 16.9952 25.6806C17.0125 25.8444 16.3829 26.2067 16.6416 26.224C16.9952 26.2326 15.4342 26.06 15.7878 26.0427C16.0466 26.0341 16.1845 25.9135 16.1932 25.7582C16.1932 25.603 16.0724 25.4908 15.8137 25.4563C15.624 25.4391 15.4342 25.439 15.2617 25.4304C15.0634 25.4304 16.8055 25.2062 16.6244 25.2234V25.2321ZM9.08679 25.4477C8.80219 25.4649 8.94877 24.8871 8.94877 25.051C8.94877 25.2149 9.56113 25.0424 9.84573 25.051C10.1648 25.0596 10.7685 25.1546 11.0876 25.146C11.3636 25.146 10.527 25.9135 10.527 25.7582C10.527 25.603 10.3545 25.4736 10.0785 25.4563C9.90606 25.4477 9.7336 25.4563 9.56111 25.4563C9.39725 25.4563 9.23339 25.4477 9.07816 25.4563L9.08679 25.4477Z" fill="#0671B8"/>
<path d="M16.5122 9.48413C16.5122 10.1999 16.5381 10.8985 16.5122 11.597C16.4777 12.3301 15.8395 12.9166 15.1151 12.9425C14.3389 12.9683 13.6662 12.4682 13.5972 11.7093C13.5368 10.9762 13.58 10.2344 13.58 9.48413H16.5122Z" fill="#FFB422"/>
<path d="M9.63012 9.47559H12.5538C12.5538 10.2518 12.6141 11.0281 12.5365 11.787C12.4589 12.5201 11.7258 13.0029 10.9496 12.9425C10.251 12.8908 9.65601 12.2959 9.63876 11.5801C9.61288 10.8901 9.63876 10.2 9.63876 9.48422L9.63012 9.47559Z" fill="#FFB422"/>
<path d="M26.0765 20.6784C26.0075 18.6776 26.0248 16.5216 26.0075 14.5035C25.4987 14.6846 24.964 14.7882 24.3948 14.7882C22.9459 14.7882 21.6436 14.1412 20.7726 13.1149C20.281 13.6237 19.7032 13.9085 18.9874 13.9171C18.1767 13.9171 17.5385 13.5462 17.0124 12.9338C16.4864 13.5548 15.8481 13.9171 15.0461 13.9171C14.2354 13.9171 13.5972 13.5548 13.0798 12.9425C12.0707 14.1671 10.2942 14.3138 9.15576 12.9856C8.86254 13.2012 8.59517 13.46 8.27607 13.6325C8.06046 13.7532 8.00872 13.874 8.00872 14.0982C8.00872 17.384 8.00872 20.6698 8.00872 23.9556C8.00872 24.0591 8.00008 24.1541 7.99146 24.2576H10.4235C10.4235 23.6884 10.4062 23.1278 10.4062 22.5586V16.8234C10.389 16.8665 10.3804 16.9097 10.3804 16.9097L10.1906 16.6682L10.4149 16.5044L10.6046 16.6768H14.0715C14.175 16.6768 14.2527 16.763 14.2527 16.8579V24.2662H26.0679C26.0679 24.111 26.0679 23.9643 26.0679 23.8091C26.0506 22.619 26.1024 21.9203 26.0679 20.687L26.0765 20.6784ZM24.2309 19.4711C24.2309 19.6694 24.0671 19.8332 23.8687 19.8332H17.0297C16.8313 19.8332 16.6674 19.6694 16.6674 19.4711V17.0217C16.6674 16.8234 16.8313 16.6596 17.0297 16.6596H23.8687C24.0671 16.6596 24.2309 16.8234 24.2309 17.0217V19.4711Z" fill="#0671B8"/>
<path d="M21.7299 6C17.1676 6 12.5968 6 8.03456 6C7.84483 6 7.74138 6.06037 7.64651 6.21561C7.22392 6.8538 6.8013 7.47491 6.37009 8.10448C6.29247 8.21659 6.22351 8.33727 6.13727 8.47526H19.8498C20.1861 7.4576 20.8588 6.58645 21.7299 6Z" fill="#0671B8"/>
<path d="M19.6083 10.0103C19.6083 9.82919 19.6169 9.65662 19.6428 9.48413H17.4954C17.4954 9.60487 17.4954 9.70846 17.4954 9.80333C17.4954 10.3984 17.4781 11.002 17.504 11.597C17.5385 12.3301 18.1767 12.9166 18.9011 12.9425C19.4445 12.9597 19.9274 12.7182 20.2034 12.3129C19.8239 11.6316 19.617 10.8469 19.617 10.0103H19.6083Z" fill="#FFB422"/>
<path d="M24.4465 13.8481C26.5804 13.8481 28.3102 12.1183 28.3102 9.98449C28.3102 7.85065 26.5804 6.12085 24.4465 6.12085C22.3127 6.12085 20.5829 7.85065 20.5829 9.98449C20.5829 12.1183 22.3127 13.8481 24.4465 13.8481Z" fill="#FFB422"/>
<path d="M23.7997 10.3897C23.61 10.1827 23.4548 9.9931 23.2823 9.82924C23.0494 9.61363 22.782 9.61361 22.5837 9.81197C22.3853 10.0103 22.3767 10.2862 22.5837 10.519C22.8683 10.8209 23.1701 11.1227 23.472 11.4073C23.6876 11.6057 23.9463 11.6143 24.1533 11.4073C24.8863 10.6915 25.6194 9.95843 26.3352 9.22537C26.5336 9.01839 26.5077 8.73397 26.318 8.54423C26.1196 8.3545 25.8609 8.34588 25.6367 8.54423C25.5159 8.64772 25.4124 8.75974 25.3003 8.87185C24.8174 9.36344 24.3344 9.85503 23.7997 10.3897Z" fill="white"/>
<path d="M10.4063 16.9097C10.4063 16.9097 10.4063 16.6596 10.6219 16.6596L10.4235 16.4785L10.1562 16.6596L10.4063 16.9097Z" fill="#0671B8"/>
</svg>
