<svg width="128" height="10" viewBox="0 0 128 10" fill="none" xmlns="http://www.w3.org/2000/svg">
<path d="M5.82955 2.70455C5.77841 2.27273 5.57102 1.9375 5.20739 1.69886C4.84375 1.46023 4.39773 1.34091 3.86932 1.34091C3.48295 1.34091 3.14489 1.40341 2.85511 1.52841C2.56818 1.65341 2.34375 1.82528 2.18182 2.04403C2.02273 2.26278 1.94318 2.51136 1.94318 2.78977C1.94318 3.02273 1.99858 3.22301 2.10938 3.39062C2.22301 3.5554 2.3679 3.69318 2.54403 3.80398C2.72017 3.91193 2.90483 4.00142 3.09801 4.07244C3.29119 4.14062 3.46875 4.19602 3.63068 4.23864L4.51705 4.47727C4.74432 4.53693 4.99716 4.61932 5.27557 4.72443C5.55682 4.82955 5.82528 4.97301 6.08097 5.15483C6.33949 5.33381 6.55256 5.56392 6.72017 5.84517C6.88778 6.12642 6.97159 6.47159 6.97159 6.88068C6.97159 7.35227 6.84801 7.77841 6.60085 8.15909C6.35653 8.53977 5.99858 8.84233 5.52699 9.06676C5.05824 9.29119 4.48864 9.40341 3.81818 9.40341C3.19318 9.40341 2.65199 9.30256 2.1946 9.10085C1.74006 8.89915 1.3821 8.6179 1.12074 8.2571C0.862216 7.89631 0.715909 7.47727 0.681818 7H1.77273C1.80114 7.32955 1.91193 7.60227 2.10511 7.81818C2.30114 8.03125 2.5483 8.19034 2.84659 8.29545C3.14773 8.39773 3.47159 8.44886 3.81818 8.44886C4.22159 8.44886 4.58381 8.38352 4.90483 8.25284C5.22585 8.11932 5.48011 7.93466 5.66761 7.69886C5.85511 7.46023 5.94886 7.18182 5.94886 6.86364C5.94886 6.57386 5.8679 6.33807 5.70597 6.15625C5.54403 5.97443 5.33097 5.8267 5.06676 5.71307C4.80256 5.59943 4.51705 5.5 4.21023 5.41477L3.13636 5.10795C2.45455 4.91193 1.91477 4.6321 1.51705 4.26847C1.11932 3.90483 0.920455 3.42898 0.920455 2.84091C0.920455 2.35227 1.05256 1.92614 1.31676 1.5625C1.58381 1.19602 1.94176 0.911932 2.39062 0.710227C2.84233 0.505682 3.34659 0.403409 3.90341 0.403409C4.46591 0.403409 4.96591 0.504261 5.40341 0.705966C5.84091 0.904829 6.1875 1.17756 6.44318 1.52415C6.7017 1.87074 6.83807 2.2642 6.85227 2.70455H5.82955ZM11.4194 2.70455V3.55682H8.02734V2.70455H11.4194ZM9.01598 1.13636H10.0217V7.375C10.0217 7.65909 10.0629 7.87216 10.1452 8.0142C10.2305 8.15341 10.3384 8.24716 10.4691 8.29545C10.6026 8.34091 10.7433 8.36364 10.891 8.36364C11.0018 8.36364 11.0927 8.35795 11.1637 8.34659C11.2347 8.33239 11.2915 8.32102 11.3342 8.3125L11.5387 9.21591C11.4705 9.24148 11.3754 9.26705 11.2532 9.29261C11.131 9.32102 10.9762 9.33523 10.7887 9.33523C10.5046 9.33523 10.2262 9.27415 9.95348 9.15199C9.68359 9.02983 9.45916 8.84375 9.28018 8.59375C9.10405 8.34375 9.01598 8.02841 9.01598 7.64773V1.13636ZM15.521 9.38636C14.93 9.38636 14.4116 9.24574 13.9656 8.96449C13.5224 8.68324 13.1758 8.28977 12.9258 7.78409C12.6786 7.27841 12.555 6.6875 12.555 6.01136C12.555 5.32955 12.6786 4.73437 12.9258 4.22585C13.1758 3.71733 13.5224 3.32244 13.9656 3.04119C14.4116 2.75994 14.93 2.61932 15.521 2.61932C16.1119 2.61932 16.6289 2.75994 17.0721 3.04119C17.5181 3.32244 17.8647 3.71733 18.1119 4.22585C18.3619 4.73437 18.4869 5.32955 18.4869 6.01136C18.4869 6.6875 18.3619 7.27841 18.1119 7.78409C17.8647 8.28977 17.5181 8.68324 17.0721 8.96449C16.6289 9.24574 16.1119 9.38636 15.521 9.38636ZM15.521 8.48295C15.9698 8.48295 16.3391 8.3679 16.6289 8.13778C16.9187 7.90767 17.1332 7.60511 17.2724 7.23011C17.4116 6.85511 17.4812 6.44886 17.4812 6.01136C17.4812 5.57386 17.4116 5.16619 17.2724 4.78835C17.1332 4.41051 16.9187 4.10511 16.6289 3.87216C16.3391 3.6392 15.9698 3.52273 15.521 3.52273C15.0721 3.52273 14.7028 3.6392 14.413 3.87216C14.1232 4.10511 13.9087 4.41051 13.7695 4.78835C13.6303 5.16619 13.5607 5.57386 13.5607 6.01136C13.5607 6.44886 13.6303 6.85511 13.7695 7.23011C13.9087 7.60511 14.1232 7.90767 14.413 8.13778C14.7028 8.3679 15.0721 8.48295 15.521 8.48295ZM20.022 9.25V2.70455H20.9936V3.69318H21.0618C21.1811 3.36932 21.397 3.10653 21.7095 2.90483C22.022 2.70312 22.3743 2.60227 22.7663 2.60227C22.8402 2.60227 22.9325 2.60369 23.0433 2.60653C23.1541 2.60937 23.2379 2.61364 23.2947 2.61932V3.64205C23.2607 3.63352 23.1825 3.62074 23.0604 3.60369C22.9411 3.58381 22.8146 3.57386 22.6811 3.57386C22.3629 3.57386 22.0788 3.64062 21.8288 3.77415C21.5817 3.90483 21.3857 4.08665 21.2408 4.3196C21.0987 4.54972 21.0277 4.8125 21.0277 5.10795V9.25H20.022ZM27.032 9.38636C26.4013 9.38636 25.8572 9.24716 25.3999 8.96875C24.9453 8.6875 24.5945 8.29545 24.3473 7.79261C24.103 7.28693 23.9808 6.69886 23.9808 6.02841C23.9808 5.35795 24.103 4.76705 24.3473 4.25568C24.5945 3.74148 24.9382 3.34091 25.3786 3.05398C25.8217 2.7642 26.3388 2.61932 26.9297 2.61932C27.2706 2.61932 27.6072 2.67614 27.9396 2.78977C28.272 2.90341 28.5746 3.08807 28.8473 3.34375C29.12 3.59659 29.3374 3.93182 29.4993 4.34943C29.6612 4.76705 29.7422 5.28125 29.7422 5.89205V6.31818H24.6967V5.44886H28.7195C28.7195 5.07955 28.6456 4.75 28.4979 4.46023C28.353 4.17045 28.1456 3.94176 27.8757 3.77415C27.6087 3.60653 27.2933 3.52273 26.9297 3.52273C26.5291 3.52273 26.1825 3.62216 25.8899 3.82102C25.6001 4.01705 25.3771 4.27273 25.2209 4.58807C25.0646 4.90341 24.9865 5.24148 24.9865 5.60227V6.18182C24.9865 6.67614 25.0717 7.09517 25.2422 7.43892C25.4155 7.77983 25.6555 8.03977 25.9624 8.21875C26.2692 8.39489 26.6257 8.48295 27.032 8.48295C27.2962 8.48295 27.5348 8.44602 27.7479 8.37216C27.9638 8.29545 28.1499 8.18182 28.3061 8.03125C28.4624 7.87784 28.5831 7.6875 28.6683 7.46023L29.6399 7.73295C29.5376 8.0625 29.3658 8.35227 29.1243 8.60227C28.8828 8.84943 28.5845 9.04261 28.2294 9.18182C27.8743 9.31818 27.4751 9.38636 27.032 9.38636ZM35.8402 0.522727V9.25H34.7834V0.522727H35.8402ZM38.8285 5.3125V9.25H37.8228V2.70455H38.7944V3.72727H38.8796C39.033 3.39489 39.266 3.12784 39.5785 2.92614C39.891 2.72159 40.2944 2.61932 40.7887 2.61932C41.2319 2.61932 41.6197 2.71023 41.9521 2.89205C42.2844 3.07102 42.543 3.34375 42.7276 3.71023C42.9123 4.07386 43.0046 4.53409 43.0046 5.09091V9.25H41.9989V5.15909C41.9989 4.64489 41.8654 4.24432 41.5984 3.95739C41.3313 3.66761 40.9648 3.52273 40.4989 3.52273C40.1779 3.52273 39.891 3.59233 39.6381 3.73153C39.3881 3.87074 39.1907 4.07386 39.0458 4.34091C38.9009 4.60795 38.8285 4.93182 38.8285 5.3125ZM47.5014 9.38636C46.8878 9.38636 46.3594 9.24148 45.9162 8.9517C45.473 8.66193 45.1321 8.26278 44.8935 7.75426C44.6548 7.24574 44.5355 6.66477 44.5355 6.01136C44.5355 5.34659 44.6577 4.75994 44.902 4.25142C45.1491 3.74006 45.4929 3.34091 45.9332 3.05398C46.3764 2.7642 46.8935 2.61932 47.4844 2.61932C47.9446 2.61932 48.3594 2.70455 48.7287 2.875C49.098 3.04545 49.4006 3.28409 49.6364 3.59091C49.8722 3.89773 50.0185 4.25568 50.0753 4.66477H49.0696C48.9929 4.36648 48.8224 4.10227 48.5582 3.87216C48.2969 3.6392 47.9446 3.52273 47.5014 3.52273C47.1094 3.52273 46.7656 3.625 46.4702 3.82955C46.1776 4.03125 45.9489 4.31676 45.7841 4.68608C45.6222 5.05256 45.5412 5.48295 45.5412 5.97727C45.5412 6.48295 45.6207 6.9233 45.7798 7.2983C45.9418 7.6733 46.169 7.96449 46.4616 8.17188C46.7571 8.37926 47.1037 8.48295 47.5014 8.48295C47.7628 8.48295 48 8.4375 48.2131 8.34659C48.4261 8.25568 48.6065 8.125 48.7543 7.95455C48.902 7.78409 49.0071 7.57955 49.0696 7.34091H50.0753C50.0185 7.72727 49.8778 8.07528 49.6534 8.38494C49.4318 8.69176 49.1378 8.93608 48.7713 9.1179C48.4077 9.29688 47.9844 9.38636 47.5014 9.38636ZM54.2898 9.38636C53.6591 9.38636 53.1151 9.24716 52.6577 8.96875C52.2031 8.6875 51.8523 8.29545 51.6051 7.79261C51.3608 7.28693 51.2386 6.69886 51.2386 6.02841C51.2386 5.35795 51.3608 4.76705 51.6051 4.25568C51.8523 3.74148 52.196 3.34091 52.6364 3.05398C53.0795 2.7642 53.5966 2.61932 54.1875 2.61932C54.5284 2.61932 54.8651 2.67614 55.1974 2.78977C55.5298 2.90341 55.8324 3.08807 56.1051 3.34375C56.3778 3.59659 56.5952 3.93182 56.7571 4.34943C56.919 4.76705 57 5.28125 57 5.89205V6.31818H51.9545V5.44886H55.9773C55.9773 5.07955 55.9034 4.75 55.7557 4.46023C55.6108 4.17045 55.4034 3.94176 55.1335 3.77415C54.8665 3.60653 54.5511 3.52273 54.1875 3.52273C53.7869 3.52273 53.4403 3.62216 53.1477 3.82102C52.858 4.01705 52.6349 4.27273 52.4787 4.58807C52.3224 4.90341 52.2443 5.24148 52.2443 5.60227V6.18182C52.2443 6.67614 52.3295 7.09517 52.5 7.43892C52.6733 7.77983 52.9134 8.03977 53.2202 8.21875C53.527 8.39489 53.8835 8.48295 54.2898 8.48295C54.554 8.48295 54.7926 8.44602 55.0057 8.37216C55.2216 8.29545 55.4077 8.18182 55.5639 8.03125C55.7202 7.87784 55.8409 7.6875 55.9261 7.46023L56.8977 7.73295C56.7955 8.0625 56.6236 8.35227 56.3821 8.60227C56.1406 8.84943 55.8423 9.04261 55.4872 9.18182C55.1321 9.31818 54.733 9.38636 54.2898 9.38636ZM59.5355 5.3125V9.25H58.5298V2.70455H59.5014V3.72727H59.5866C59.7401 3.39489 59.973 3.12784 60.2855 2.92614C60.598 2.72159 61.0014 2.61932 61.4957 2.61932C61.9389 2.61932 62.3267 2.71023 62.6591 2.89205C62.9915 3.07102 63.25 3.34375 63.4347 3.71023C63.6193 4.07386 63.7116 4.53409 63.7116 5.09091V9.25H62.706V5.15909C62.706 4.64489 62.5724 4.24432 62.3054 3.95739C62.0384 3.66761 61.6719 3.52273 61.206 3.52273C60.8849 3.52273 60.598 3.59233 60.3452 3.73153C60.0952 3.87074 59.8977 4.07386 59.7528 4.34091C59.608 4.60795 59.5355 4.93182 59.5355 5.3125ZM68.396 2.70455V3.55682H65.0039V2.70455H68.396ZM65.9925 1.13636H66.9982V7.375C66.9982 7.65909 67.0394 7.87216 67.1218 8.0142C67.207 8.15341 67.315 8.24716 67.4457 8.29545C67.5792 8.34091 67.7198 8.36364 67.8675 8.36364C67.9783 8.36364 68.0692 8.35795 68.1403 8.34659C68.2113 8.33239 68.2681 8.32102 68.3107 8.3125L68.5153 9.21591C68.4471 9.24148 68.3519 9.26705 68.2298 9.29261C68.1076 9.32102 67.9528 9.33523 67.7653 9.33523C67.4812 9.33523 67.2028 9.27415 66.93 9.15199C66.6602 9.02983 66.4357 8.84375 66.2567 8.59375C66.0806 8.34375 65.9925 8.02841 65.9925 7.64773V1.13636ZM69.9087 9.25V2.70455H70.9144V9.25H69.9087ZM70.4201 1.61364C70.2241 1.61364 70.055 1.54688 69.913 1.41335C69.7738 1.27983 69.7042 1.11932 69.7042 0.931818C69.7042 0.744318 69.7738 0.583807 69.913 0.450284C70.055 0.316761 70.2241 0.25 70.4201 0.25C70.6161 0.25 70.7837 0.316761 70.9229 0.450284C71.065 0.583807 71.136 0.744318 71.136 0.931818C71.136 1.11932 71.065 1.27983 70.9229 1.41335C70.7837 1.54688 70.6161 1.61364 70.4201 1.61364ZM78.1087 2.70455L75.6882 9.25H74.6655L72.245 2.70455H73.3359L75.1428 7.92045H75.2109L77.0178 2.70455H78.1087ZM81.946 9.38636C81.3153 9.38636 80.7713 9.24716 80.3139 8.96875C79.8594 8.6875 79.5085 8.29545 79.2614 7.79261C79.017 7.28693 78.8949 6.69886 78.8949 6.02841C78.8949 5.35795 79.017 4.76705 79.2614 4.25568C79.5085 3.74148 79.8523 3.34091 80.2926 3.05398C80.7358 2.7642 81.2528 2.61932 81.8438 2.61932C82.1847 2.61932 82.5213 2.67614 82.8537 2.78977C83.1861 2.90341 83.4886 3.08807 83.7614 3.34375C84.0341 3.59659 84.2514 3.93182 84.4134 4.34943C84.5753 4.76705 84.6562 5.28125 84.6562 5.89205V6.31818H79.6108V5.44886H83.6335C83.6335 5.07955 83.5597 4.75 83.4119 4.46023C83.267 4.17045 83.0597 3.94176 82.7898 3.77415C82.5227 3.60653 82.2074 3.52273 81.8438 3.52273C81.4432 3.52273 81.0966 3.62216 80.804 3.82102C80.5142 4.01705 80.2912 4.27273 80.1349 4.58807C79.9787 4.90341 79.9006 5.24148 79.9006 5.60227V6.18182C79.9006 6.67614 79.9858 7.09517 80.1562 7.43892C80.3295 7.77983 80.5696 8.03977 80.8764 8.21875C81.1832 8.39489 81.5398 8.48295 81.946 8.48295C82.2102 8.48295 82.4489 8.44602 82.6619 8.37216C82.8778 8.29545 83.0639 8.18182 83.2202 8.03125C83.3764 7.87784 83.4972 7.6875 83.5824 7.46023L84.554 7.73295C84.4517 8.0625 84.2798 8.35227 84.0384 8.60227C83.7969 8.84943 83.4986 9.04261 83.1435 9.18182C82.7884 9.31818 82.3892 9.38636 81.946 9.38636ZM90.0554 9.25H88.9474L92.152 0.522727H93.2429L96.4474 9.25H95.3395L92.7315 1.90341H92.6634L90.0554 9.25ZM90.4645 5.84091H94.9304V6.77841H90.4645V5.84091ZM97.6705 9.25V2.70455H98.642V3.69318H98.7102C98.8295 3.36932 99.0455 3.10653 99.358 2.90483C99.6705 2.70312 100.023 2.60227 100.415 2.60227C100.489 2.60227 100.581 2.60369 100.692 2.60653C100.803 2.60937 100.886 2.61364 100.943 2.61932V3.64205C100.909 3.63352 100.831 3.62074 100.709 3.60369C100.589 3.58381 100.463 3.57386 100.33 3.57386C100.011 3.57386 99.7273 3.64062 99.4773 3.77415C99.2301 3.90483 99.0341 4.08665 98.8892 4.3196C98.7472 4.54972 98.6761 4.8125 98.6761 5.10795V9.25H97.6705ZM102.135 9.25V2.70455H103.107V3.69318H103.175C103.294 3.36932 103.51 3.10653 103.823 2.90483C104.135 2.70312 104.488 2.60227 104.88 2.60227C104.953 2.60227 105.046 2.60369 105.157 2.60653C105.267 2.60937 105.351 2.61364 105.408 2.61932V3.64205C105.374 3.63352 105.296 3.62074 105.174 3.60369C105.054 3.58381 104.928 3.57386 104.794 3.57386C104.476 3.57386 104.192 3.64062 103.942 3.77415C103.695 3.90483 103.499 4.08665 103.354 4.3196C103.212 4.54972 103.141 4.8125 103.141 5.10795V9.25H102.135ZM109.06 9.38636C108.469 9.38636 107.951 9.24574 107.505 8.96449C107.061 8.68324 106.715 8.28977 106.465 7.78409C106.218 7.27841 106.094 6.6875 106.094 6.01136C106.094 5.32955 106.218 4.73437 106.465 4.22585C106.715 3.71733 107.061 3.32244 107.505 3.04119C107.951 2.75994 108.469 2.61932 109.06 2.61932C109.651 2.61932 110.168 2.75994 110.611 3.04119C111.057 3.32244 111.404 3.71733 111.651 4.22585C111.901 4.73437 112.026 5.32955 112.026 6.01136C112.026 6.6875 111.901 7.27841 111.651 7.78409C111.404 8.28977 111.057 8.68324 110.611 8.96449C110.168 9.24574 109.651 9.38636 109.06 9.38636ZM109.06 8.48295C109.509 8.48295 109.878 8.3679 110.168 8.13778C110.458 7.90767 110.672 7.60511 110.811 7.23011C110.951 6.85511 111.02 6.44886 111.02 6.01136C111.02 5.57386 110.951 5.16619 110.811 4.78835C110.672 4.41051 110.458 4.10511 110.168 3.87216C109.878 3.6392 109.509 3.52273 109.06 3.52273C108.611 3.52273 108.242 3.6392 107.952 3.87216C107.662 4.10511 107.448 4.41051 107.309 4.78835C107.169 5.16619 107.1 5.57386 107.1 6.01136C107.1 6.44886 107.169 6.85511 107.309 7.23011C107.448 7.60511 107.662 7.90767 107.952 8.13778C108.242 8.3679 108.611 8.48295 109.06 8.48295ZM118.679 2.70455L116.259 9.25H115.236L112.815 2.70455H113.906L115.713 7.92045H115.781L117.588 2.70455H118.679ZM121.733 9.40341C121.319 9.40341 120.942 9.32528 120.604 9.16903C120.266 9.00994 119.998 8.78125 119.799 8.48295C119.6 8.18182 119.5 7.81818 119.5 7.39205C119.5 7.01705 119.574 6.71307 119.722 6.48011C119.87 6.24432 120.067 6.05966 120.314 5.92614C120.561 5.79261 120.834 5.69318 121.132 5.62784C121.434 5.55966 121.736 5.50568 122.04 5.46591C122.438 5.41477 122.76 5.37642 123.007 5.35085C123.257 5.32244 123.439 5.27557 123.553 5.21023C123.669 5.14489 123.728 5.03125 123.728 4.86932V4.83523C123.728 4.41477 123.613 4.08807 123.382 3.85511C123.155 3.62216 122.81 3.50568 122.347 3.50568C121.867 3.50568 121.49 3.6108 121.218 3.82102C120.945 4.03125 120.753 4.25568 120.642 4.49432L119.688 4.15341C119.858 3.75568 120.086 3.44602 120.37 3.22443C120.657 3 120.969 2.84375 121.307 2.75568C121.648 2.66477 121.983 2.61932 122.313 2.61932C122.523 2.61932 122.765 2.64489 123.037 2.69602C123.313 2.74432 123.578 2.84517 123.834 2.99858C124.093 3.15199 124.307 3.38352 124.478 3.69318C124.648 4.00284 124.733 4.41761 124.733 4.9375V9.25H123.728V8.36364H123.676C123.608 8.50568 123.495 8.65767 123.336 8.8196C123.176 8.98153 122.965 9.11932 122.701 9.23295C122.436 9.34659 122.114 9.40341 121.733 9.40341ZM121.887 8.5C122.284 8.5 122.62 8.42188 122.892 8.26562C123.168 8.10938 123.375 7.90767 123.515 7.66051C123.657 7.41335 123.728 7.15341 123.728 6.88068V5.96023C123.685 6.01136 123.591 6.05824 123.446 6.10085C123.304 6.14062 123.14 6.17614 122.952 6.20739C122.767 6.2358 122.587 6.26136 122.411 6.28409C122.238 6.30398 122.097 6.32102 121.989 6.33523C121.728 6.36932 121.483 6.42472 121.256 6.50142C121.032 6.57528 120.85 6.6875 120.711 6.83807C120.574 6.9858 120.506 7.1875 120.506 7.44318C120.506 7.79261 120.635 8.05682 120.894 8.2358C121.155 8.41193 121.486 8.5 121.887 8.5ZM127.575 0.522727V9.25H126.569V0.522727H127.575Z" fill="black"/>
</svg>
