<svg width="32" height="32" viewBox="0 0 32 32" fill="none" xmlns="http://www.w3.org/2000/svg">
<path d="M5 9.52075H8.01277C8.01277 9.65212 8.01277 9.77467 8.01277 9.88852C8.01277 10.4052 8.01277 10.922 8.01277 11.4299C8.01277 12.2795 7.50478 12.9101 6.76035 13.0327C5.98964 13.1553 5.34156 12.7437 5.05255 11.938C5.04379 11.9117 5.01752 11.8941 5 11.8678C5 11.0884 5 10.3002 5 9.52075Z" fill="#FFB422"/>
<path d="M27.5607 8.51345H5.45544C5.54302 8.36456 5.61308 8.25076 5.6919 8.13691C6.12105 7.49757 6.55896 6.85829 6.9881 6.21895C7.08444 6.07006 7.1983 6 7.38222 6C13.4603 6 19.5384 6 25.6164 6C25.7215 6 25.8617 6.02615 25.9142 6.09622C26.4572 6.87568 26.9915 7.67267 27.5607 8.51345Z" fill="#0671B8"/>
<path d="M25.6339 26.3186C25.6339 26.774 25.45 26.8878 24.7143 26.8878C19.2318 26.8878 13.7492 26.8878 8.27547 26.8878C8.16162 26.8878 8.04775 26.8878 7.93389 26.8878C7.62736 26.8615 7.39092 26.7477 7.38216 26.5551C7.35589 26.1084 7.38216 25.6617 7.38216 25.2063H25.6426C25.6426 25.5917 25.6426 25.9595 25.6426 26.3274L25.6339 26.3186ZM12.383 26.3537C12.637 26.3361 12.7859 26.231 12.7946 26.0646C12.7946 25.9069 13.2588 26.6077 13.0048 26.5901C12.6195 26.5726 12.1465 26.5639 11.7612 26.5901C11.5072 26.6077 10.6139 26.6952 10.3336 26.5901C10.1322 26.5201 11.0343 26.3274 11.2882 26.3449C11.4809 26.3624 11.6736 26.3449 11.875 26.3449C12.0502 26.3449 12.2253 26.3536 12.4005 26.3449L12.383 26.3537ZM16.1139 25.5302C15.8424 25.5565 16.473 25.8105 16.4905 25.9857C16.508 26.1521 15.8687 26.52 16.1314 26.5375C16.4905 26.5463 14.9053 26.3712 15.2644 26.3537C15.5271 26.3449 15.6673 26.2222 15.676 26.0646C15.676 25.9069 15.5534 25.793 15.2907 25.758C15.098 25.7404 14.9053 25.7406 14.7301 25.7319C14.5287 25.7319 16.2978 25.5042 16.1139 25.5217V25.5302ZM8.45938 25.7492C8.17037 25.7667 8.31925 25.1799 8.31925 25.3464C8.31925 25.5128 8.94108 25.3376 9.23009 25.3464C9.55414 25.3551 10.1672 25.4515 10.4913 25.4428C10.7715 25.4428 9.92199 26.2222 9.92199 26.0646C9.92199 25.9069 9.74681 25.7755 9.46655 25.758C9.29139 25.7492 9.11625 25.758 8.94109 25.758C8.77469 25.758 8.60829 25.7492 8.45064 25.758L8.45938 25.7492Z" fill="#0671B8"/>
<path d="M16.0001 9.53833C16.0001 10.2652 16.0264 10.9746 16.0001 11.684C15.9651 12.4284 15.317 13.0238 14.5813 13.0501C13.7931 13.0764 13.1099 12.5685 13.0399 11.7978C12.9786 11.0533 13.0224 10.3003 13.0224 9.53833H16.0001Z" fill="#FFB422"/>
<path d="M25.0121 9.52954H27.9811C27.9811 10.3002 28.0336 11.0621 27.9636 11.8065C27.8935 12.5685 27.2104 13.0676 26.4397 13.0501C25.7127 13.0326 25.0822 12.4983 25.0209 11.7627C24.9683 11.027 25.0121 10.2915 25.0121 9.52954Z" fill="#FFB422"/>
<path d="M19.9762 9.53833C19.9762 10.3003 20.0288 11.0533 19.9587 11.7978C19.8974 12.5685 19.2055 13.0764 18.426 13.0501C17.6904 13.0238 17.0423 12.4284 17.0072 11.684C16.9722 11.0797 16.9985 10.4753 16.9985 9.86227C16.9985 9.75717 16.9985 9.66094 16.9985 9.53833H19.9762Z" fill="#FFB422"/>
<path d="M9.01121 9.52954H11.9802C11.9802 10.3178 12.0415 11.1059 11.9627 11.8766C11.8838 12.6211 11.1394 13.1114 10.3512 13.0501C9.64179 12.9975 9.03749 12.3934 9.01998 11.6665C8.9937 10.9658 9.01998 10.2652 9.01998 9.53831L9.01121 9.52954Z" fill="#FFB422"/>
<path d="M21.0184 9.52954H23.9787C23.9787 10.309 24.0225 11.0708 23.9699 11.824C23.9174 12.5334 23.2342 13.0501 22.4898 13.0501C21.7541 13.0501 21.0798 12.5071 21.0272 11.7977C20.9747 11.0533 21.0184 10.3002 21.0184 9.52954Z" fill="#FFB422"/>
<path d="M9.80807 22.8154C9.80807 23.3934 9.81682 23.9714 9.82558 24.5407H7.35583C7.35583 24.4356 7.37334 24.3392 7.37334 24.2341C7.37334 20.8973 7.37334 17.5605 7.37334 14.2237C7.37334 13.996 7.42589 13.8646 7.64484 13.7507C7.96013 13.5756 8.24038 13.3216 8.53815 13.0939C9.69421 14.4426 11.4984 14.2937 12.5231 13.0501C13.0486 13.6719 13.6966 14.0398 14.5199 14.0398C15.3344 14.0398 15.9825 13.6808 16.5167 13.0415C17.0422 13.6633 17.6903 14.0398 18.5223 14.0398C19.3368 14.0398 19.9849 13.6808 20.5192 13.0415C21.0446 13.6633 21.6927 14.0398 22.516 14.0398C23.348 14.0398 23.9961 13.6719 24.4778 13.0939C24.8281 13.3391 25.1697 13.5669 25.5025 13.8121C25.5901 13.8734 25.6601 14.0224 25.6601 14.1275C25.6952 16.317 25.6601 18.7079 25.7389 20.9062C25.7827 22.1586 25.7302 22.8679 25.7389 24.0765C25.7389 24.2341 25.7389 24.3831 25.7389 24.5407H13.7404V17.0175C13.7404 16.9124 13.6529 16.8336 13.5565 16.8336H9.83435M16.543 20.0565H23.4881C23.6896 20.0565 23.856 19.8902 23.856 19.6887V17.2016C23.856 17.0001 23.6896 16.8336 23.4881 16.8336H16.543C16.3416 16.8336 16.1752 17.0001 16.1752 17.2016V19.6887C16.1752 19.8902 16.3416 20.0565 16.543 20.0565Z" fill="#0671B8"/>
<path d="M9.79031 17.0693C9.79031 17.0693 9.80778 16.8332 10.0176 16.8332L9.81654 16.6584L9.58923 16.8245L9.78156 17.0693H9.79031Z" fill="#0671B8"/>
</svg>
