<svg width="143" height="12" viewBox="0 0 143 12" fill="none" xmlns="http://www.w3.org/2000/svg">
<path d="M5.82955 2.70455C5.77841 2.27273 5.57102 1.9375 5.20739 1.69886C4.84375 1.46023 4.39773 1.34091 3.86932 1.34091C3.48295 1.34091 3.14489 1.40341 2.85511 1.52841C2.56818 1.65341 2.34375 1.82528 2.18182 2.04403C2.02273 2.26278 1.94318 2.51136 1.94318 2.78977C1.94318 3.02273 1.99858 3.22301 2.10938 3.39062C2.22301 3.5554 2.3679 3.69318 2.54403 3.80398C2.72017 3.91193 2.90483 4.00142 3.09801 4.07244C3.29119 4.14062 3.46875 4.19602 3.63068 4.23864L4.51705 4.47727C4.74432 4.53693 4.99716 4.61932 5.27557 4.72443C5.55682 4.82955 5.82528 4.97301 6.08097 5.15483C6.33949 5.33381 6.55256 5.56392 6.72017 5.84517C6.88778 6.12642 6.97159 6.47159 6.97159 6.88068C6.97159 7.35227 6.84801 7.77841 6.60085 8.15909C6.35653 8.53977 5.99858 8.84233 5.52699 9.06676C5.05824 9.29119 4.48864 9.40341 3.81818 9.40341C3.19318 9.40341 2.65199 9.30256 2.1946 9.10085C1.74006 8.89915 1.3821 8.6179 1.12074 8.2571C0.862216 7.89631 0.715909 7.47727 0.681818 7H1.77273C1.80114 7.32955 1.91193 7.60227 2.10511 7.81818C2.30114 8.03125 2.5483 8.19034 2.84659 8.29545C3.14773 8.39773 3.47159 8.44886 3.81818 8.44886C4.22159 8.44886 4.58381 8.38352 4.90483 8.25284C5.22585 8.11932 5.48011 7.93466 5.66761 7.69886C5.85511 7.46023 5.94886 7.18182 5.94886 6.86364C5.94886 6.57386 5.8679 6.33807 5.70597 6.15625C5.54403 5.97443 5.33097 5.8267 5.06676 5.71307C4.80256 5.59943 4.51705 5.5 4.21023 5.41477L3.13636 5.10795C2.45455 4.91193 1.91477 4.6321 1.51705 4.26847C1.11932 3.90483 0.920455 3.42898 0.920455 2.84091C0.920455 2.35227 1.05256 1.92614 1.31676 1.5625C1.58381 1.19602 1.94176 0.911932 2.39062 0.710227C2.84233 0.505682 3.34659 0.403409 3.90341 0.403409C4.46591 0.403409 4.96591 0.504261 5.40341 0.705966C5.84091 0.904829 6.1875 1.17756 6.44318 1.52415C6.7017 1.87074 6.83807 2.2642 6.85227 2.70455H5.82955ZM11.4194 2.70455V3.55682H8.02734V2.70455H11.4194ZM9.01598 1.13636H10.0217V7.375C10.0217 7.65909 10.0629 7.87216 10.1452 8.0142C10.2305 8.15341 10.3384 8.24716 10.4691 8.29545C10.6026 8.34091 10.7433 8.36364 10.891 8.36364C11.0018 8.36364 11.0927 8.35795 11.1637 8.34659C11.2347 8.33239 11.2915 8.32102 11.3342 8.3125L11.5387 9.21591C11.4705 9.24148 11.3754 9.26705 11.2532 9.29261C11.131 9.32102 10.9762 9.33523 10.7887 9.33523C10.5046 9.33523 10.2262 9.27415 9.95348 9.15199C9.68359 9.02983 9.45916 8.84375 9.28018 8.59375C9.10405 8.34375 9.01598 8.02841 9.01598 7.64773V1.13636ZM15.521 9.38636C14.93 9.38636 14.4116 9.24574 13.9656 8.96449C13.5224 8.68324 13.1758 8.28977 12.9258 7.78409C12.6786 7.27841 12.555 6.6875 12.555 6.01136C12.555 5.32955 12.6786 4.73437 12.9258 4.22585C13.1758 3.71733 13.5224 3.32244 13.9656 3.04119C14.4116 2.75994 14.93 2.61932 15.521 2.61932C16.1119 2.61932 16.6289 2.75994 17.0721 3.04119C17.5181 3.32244 17.8647 3.71733 18.1119 4.22585C18.3619 4.73437 18.4869 5.32955 18.4869 6.01136C18.4869 6.6875 18.3619 7.27841 18.1119 7.78409C17.8647 8.28977 17.5181 8.68324 17.0721 8.96449C16.6289 9.24574 16.1119 9.38636 15.521 9.38636ZM15.521 8.48295C15.9698 8.48295 16.3391 8.3679 16.6289 8.13778C16.9187 7.90767 17.1332 7.60511 17.2724 7.23011C17.4116 6.85511 17.4812 6.44886 17.4812 6.01136C17.4812 5.57386 17.4116 5.16619 17.2724 4.78835C17.1332 4.41051 16.9187 4.10511 16.6289 3.87216C16.3391 3.6392 15.9698 3.52273 15.521 3.52273C15.0721 3.52273 14.7028 3.6392 14.413 3.87216C14.1232 4.10511 13.9087 4.41051 13.7695 4.78835C13.6303 5.16619 13.5607 5.57386 13.5607 6.01136C13.5607 6.44886 13.6303 6.85511 13.7695 7.23011C13.9087 7.60511 14.1232 7.90767 14.413 8.13778C14.7028 8.3679 15.0721 8.48295 15.521 8.48295ZM20.022 9.25V2.70455H20.9936V3.69318H21.0618C21.1811 3.36932 21.397 3.10653 21.7095 2.90483C22.022 2.70312 22.3743 2.60227 22.7663 2.60227C22.8402 2.60227 22.9325 2.60369 23.0433 2.60653C23.1541 2.60937 23.2379 2.61364 23.2947 2.61932V3.64205C23.2607 3.63352 23.1825 3.62074 23.0604 3.60369C22.9411 3.58381 22.8146 3.57386 22.6811 3.57386C22.3629 3.57386 22.0788 3.64062 21.8288 3.77415C21.5817 3.90483 21.3857 4.08665 21.2408 4.3196C21.0987 4.54972 21.0277 4.8125 21.0277 5.10795V9.25H20.022ZM27.032 9.38636C26.4013 9.38636 25.8572 9.24716 25.3999 8.96875C24.9453 8.6875 24.5945 8.29545 24.3473 7.79261C24.103 7.28693 23.9808 6.69886 23.9808 6.02841C23.9808 5.35795 24.103 4.76705 24.3473 4.25568C24.5945 3.74148 24.9382 3.34091 25.3786 3.05398C25.8217 2.7642 26.3388 2.61932 26.9297 2.61932C27.2706 2.61932 27.6072 2.67614 27.9396 2.78977C28.272 2.90341 28.5746 3.08807 28.8473 3.34375C29.12 3.59659 29.3374 3.93182 29.4993 4.34943C29.6612 4.76705 29.7422 5.28125 29.7422 5.89205V6.31818H24.6967V5.44886H28.7195C28.7195 5.07955 28.6456 4.75 28.4979 4.46023C28.353 4.17045 28.1456 3.94176 27.8757 3.77415C27.6087 3.60653 27.2933 3.52273 26.9297 3.52273C26.5291 3.52273 26.1825 3.62216 25.8899 3.82102C25.6001 4.01705 25.3771 4.27273 25.2209 4.58807C25.0646 4.90341 24.9865 5.24148 24.9865 5.60227V6.18182C24.9865 6.67614 25.0717 7.09517 25.2422 7.43892C25.4155 7.77983 25.6555 8.03977 25.9624 8.21875C26.2692 8.39489 26.6257 8.48295 27.032 8.48295C27.2962 8.48295 27.5348 8.44602 27.7479 8.37216C27.9638 8.29545 28.1499 8.18182 28.3061 8.03125C28.4624 7.87784 28.5831 7.6875 28.6683 7.46023L29.6399 7.73295C29.5376 8.0625 29.3658 8.35227 29.1243 8.60227C28.8828 8.84943 28.5845 9.04261 28.2294 9.18182C27.8743 9.31818 27.4751 9.38636 27.032 9.38636ZM35.1413 9.25H34.0334L37.2379 0.522727H38.3288L41.5334 9.25H40.4254L37.8175 1.90341H37.7493L35.1413 9.25ZM35.5504 5.84091H40.0163V6.77841H35.5504V5.84091ZM43.7621 0.522727V9.25H42.7564V0.522727H43.7621ZM46.6097 0.522727V9.25H45.604V0.522727H46.6097ZM51.1108 9.38636C50.5199 9.38636 50.0014 9.24574 49.5554 8.96449C49.1122 8.68324 48.7656 8.28977 48.5156 7.78409C48.2685 7.27841 48.1449 6.6875 48.1449 6.01136C48.1449 5.32955 48.2685 4.73437 48.5156 4.22585C48.7656 3.71733 49.1122 3.32244 49.5554 3.04119C50.0014 2.75994 50.5199 2.61932 51.1108 2.61932C51.7017 2.61932 52.2188 2.75994 52.6619 3.04119C53.108 3.32244 53.4545 3.71733 53.7017 4.22585C53.9517 4.73437 54.0767 5.32955 54.0767 6.01136C54.0767 6.6875 53.9517 7.27841 53.7017 7.78409C53.4545 8.28977 53.108 8.68324 52.6619 8.96449C52.2188 9.24574 51.7017 9.38636 51.1108 9.38636ZM51.1108 8.48295C51.5597 8.48295 51.929 8.3679 52.2188 8.13778C52.5085 7.90767 52.723 7.60511 52.8622 7.23011C53.0014 6.85511 53.071 6.44886 53.071 6.01136C53.071 5.57386 53.0014 5.16619 52.8622 4.78835C52.723 4.41051 52.5085 4.10511 52.2188 3.87216C51.929 3.6392 51.5597 3.52273 51.1108 3.52273C50.6619 3.52273 50.2926 3.6392 50.0028 3.87216C49.7131 4.10511 49.4986 4.41051 49.3594 4.78835C49.2202 5.16619 49.1506 5.57386 49.1506 6.01136C49.1506 6.44886 49.2202 6.85511 49.3594 7.23011C49.4986 7.60511 49.7131 7.90767 50.0028 8.13778C50.2926 8.3679 50.6619 8.48295 51.1108 8.48295ZM58.271 9.38636C57.6573 9.38636 57.1289 9.24148 56.6857 8.9517C56.2425 8.66193 55.9016 8.26278 55.663 7.75426C55.4244 7.24574 55.305 6.66477 55.305 6.01136C55.305 5.34659 55.4272 4.75994 55.6715 4.25142C55.9187 3.74006 56.2624 3.34091 56.7028 3.05398C57.146 2.7642 57.663 2.61932 58.2539 2.61932C58.7141 2.61932 59.1289 2.70455 59.4982 2.875C59.8675 3.04545 60.1701 3.28409 60.4059 3.59091C60.6417 3.89773 60.788 4.25568 60.8448 4.66477H59.8391C59.7624 4.36648 59.592 4.10227 59.3278 3.87216C59.0664 3.6392 58.7141 3.52273 58.271 3.52273C57.8789 3.52273 57.5352 3.625 57.2397 3.82955C56.9471 4.03125 56.7184 4.31676 56.5536 4.68608C56.3917 5.05256 56.3107 5.48295 56.3107 5.97727C56.3107 6.48295 56.3903 6.9233 56.5494 7.2983C56.7113 7.6733 56.9386 7.96449 57.2312 8.17188C57.5266 8.37926 57.8732 8.48295 58.271 8.48295C58.5323 8.48295 58.7695 8.4375 58.9826 8.34659C59.1957 8.25568 59.3761 8.125 59.5238 7.95455C59.6715 7.78409 59.7766 7.57955 59.8391 7.34091H60.8448C60.788 7.72727 60.6474 8.07528 60.4229 8.38494C60.2013 8.69176 59.9073 8.93608 59.5408 9.1179C59.1772 9.29688 58.7539 9.38636 58.271 9.38636ZM64.2411 9.40341C63.8263 9.40341 63.4499 9.32528 63.1119 9.16903C62.7738 9.00994 62.5053 8.78125 62.3065 8.48295C62.1076 8.18182 62.0082 7.81818 62.0082 7.39205C62.0082 7.01705 62.082 6.71307 62.2298 6.48011C62.3775 6.24432 62.5749 6.05966 62.8221 5.92614C63.0692 5.79261 63.342 5.69318 63.6403 5.62784C63.9414 5.55966 64.244 5.50568 64.5479 5.46591C64.9457 5.41477 65.2681 5.37642 65.5153 5.35085C65.7653 5.32244 65.9471 5.27557 66.0607 5.21023C66.1772 5.14489 66.2354 5.03125 66.2354 4.86932V4.83523C66.2354 4.41477 66.1204 4.08807 65.8903 3.85511C65.663 3.62216 65.3178 3.50568 64.8548 3.50568C64.3746 3.50568 63.9982 3.6108 63.7255 3.82102C63.4528 4.03125 63.261 4.25568 63.1502 4.49432L62.1957 4.15341C62.3661 3.75568 62.5934 3.44602 62.8775 3.22443C63.1644 3 63.4769 2.84375 63.815 2.75568C64.1559 2.66477 64.4911 2.61932 64.8207 2.61932C65.0309 2.61932 65.2724 2.64489 65.5451 2.69602C65.8207 2.74432 66.0863 2.84517 66.342 2.99858C66.6005 3.15199 66.815 3.38352 66.9854 3.69318C67.1559 4.00284 67.2411 4.41761 67.2411 4.9375V9.25H66.2354V8.36364H66.1843C66.1161 8.50568 66.0025 8.65767 65.8434 8.8196C65.6843 8.98153 65.4727 9.11932 65.2085 9.23295C64.9442 9.34659 64.6218 9.40341 64.2411 9.40341ZM64.3945 8.5C64.7923 8.5 65.1275 8.42188 65.4002 8.26562C65.6758 8.10938 65.8832 7.90767 66.0224 7.66051C66.1644 7.41335 66.2354 7.15341 66.2354 6.88068V5.96023C66.1928 6.01136 66.0991 6.05824 65.9542 6.10085C65.8121 6.14062 65.6474 6.17614 65.4599 6.20739C65.2752 6.2358 65.0948 6.26136 64.9187 6.28409C64.7454 6.30398 64.6048 6.32102 64.4968 6.33523C64.2354 6.36932 63.9911 6.42472 63.7638 6.50142C63.5394 6.57528 63.3576 6.6875 63.2184 6.83807C63.082 6.9858 63.0138 7.1875 63.0138 7.44318C63.0138 7.79261 63.1431 8.05682 63.4016 8.2358C63.663 8.41193 63.994 8.5 64.3945 8.5ZM71.9233 2.70455V3.55682H68.5312V2.70455H71.9233ZM69.5199 1.13636H70.5256V7.375C70.5256 7.65909 70.5668 7.87216 70.6491 8.0142C70.7344 8.15341 70.8423 8.24716 70.973 8.29545C71.1065 8.34091 71.2472 8.36364 71.3949 8.36364C71.5057 8.36364 71.5966 8.35795 71.6676 8.34659C71.7386 8.33239 71.7955 8.32102 71.8381 8.3125L72.0426 9.21591C71.9744 9.24148 71.8793 9.26705 71.7571 9.29261C71.6349 9.32102 71.4801 9.33523 71.2926 9.33523C71.0085 9.33523 70.7301 9.27415 70.4574 9.15199C70.1875 9.02983 69.9631 8.84375 69.7841 8.59375C69.608 8.34375 69.5199 8.02841 69.5199 7.64773V1.13636ZM73.4361 9.25V2.70455H74.4418V9.25H73.4361ZM73.9474 1.61364C73.7514 1.61364 73.5824 1.54688 73.4403 1.41335C73.3011 1.27983 73.2315 1.11932 73.2315 0.931818C73.2315 0.744318 73.3011 0.583807 73.4403 0.450284C73.5824 0.316761 73.7514 0.25 73.9474 0.25C74.1435 0.25 74.3111 0.316761 74.4503 0.450284C74.5923 0.583807 74.6634 0.744318 74.6634 0.931818C74.6634 1.11932 74.5923 1.27983 74.4503 1.41335C74.3111 1.54688 74.1435 1.61364 73.9474 1.61364ZM78.9428 9.38636C78.3519 9.38636 77.8335 9.24574 77.3874 8.96449C76.9442 8.68324 76.5977 8.28977 76.3477 7.78409C76.1005 7.27841 75.9769 6.6875 75.9769 6.01136C75.9769 5.32955 76.1005 4.73437 76.3477 4.22585C76.5977 3.71733 76.9442 3.32244 77.3874 3.04119C77.8335 2.75994 78.3519 2.61932 78.9428 2.61932C79.5337 2.61932 80.0508 2.75994 80.494 3.04119C80.94 3.32244 81.2866 3.71733 81.5337 4.22585C81.7837 4.73437 81.9087 5.32955 81.9087 6.01136C81.9087 6.6875 81.7837 7.27841 81.5337 7.78409C81.2866 8.28977 80.94 8.68324 80.494 8.96449C80.0508 9.24574 79.5337 9.38636 78.9428 9.38636ZM78.9428 8.48295C79.3917 8.48295 79.761 8.3679 80.0508 8.13778C80.3406 7.90767 80.555 7.60511 80.6942 7.23011C80.8335 6.85511 80.9031 6.44886 80.9031 6.01136C80.9031 5.57386 80.8335 5.16619 80.6942 4.78835C80.555 4.41051 80.3406 4.10511 80.0508 3.87216C79.761 3.6392 79.3917 3.52273 78.9428 3.52273C78.494 3.52273 78.1246 3.6392 77.8349 3.87216C77.5451 4.10511 77.3306 4.41051 77.1914 4.78835C77.0522 5.16619 76.9826 5.57386 76.9826 6.01136C76.9826 6.44886 77.0522 6.85511 77.1914 7.23011C77.3306 7.60511 77.5451 7.90767 77.8349 8.13778C78.1246 8.3679 78.494 8.48295 78.9428 8.48295ZM84.4496 5.3125V9.25H83.4439V2.70455H84.4155V3.72727H84.5007C84.6541 3.39489 84.8871 3.12784 85.1996 2.92614C85.5121 2.72159 85.9155 2.61932 86.4098 2.61932C86.853 2.61932 87.2408 2.71023 87.5732 2.89205C87.9055 3.07102 88.1641 3.34375 88.3487 3.71023C88.5334 4.07386 88.6257 4.53409 88.6257 5.09091V9.25H87.62V5.15909C87.62 4.64489 87.4865 4.24432 87.2195 3.95739C86.9524 3.66761 86.5859 3.52273 86.12 3.52273C85.799 3.52273 85.5121 3.59233 85.2592 3.73153C85.0092 3.87074 84.8118 4.07386 84.6669 4.34091C84.522 4.60795 84.4496 4.93182 84.4496 5.3125ZM94.3327 9.25H93.2248L96.4293 0.522727H97.5202L100.725 9.25H99.6168L97.0089 1.90341H96.9407L94.3327 9.25ZM94.7418 5.84091H99.2077V6.77841H94.7418V5.84091ZM101.948 11.7045V2.70455H102.919V3.74432H103.039C103.113 3.63068 103.215 3.4858 103.346 3.30966C103.479 3.13068 103.669 2.97159 103.917 2.83239C104.167 2.69034 104.505 2.61932 104.931 2.61932C105.482 2.61932 105.968 2.7571 106.388 3.03267C106.809 3.30824 107.137 3.69886 107.373 4.20455C107.608 4.71023 107.726 5.30682 107.726 5.99432C107.726 6.6875 107.608 7.28835 107.373 7.79688C107.137 8.30256 106.81 8.6946 106.392 8.97301C105.975 9.24858 105.493 9.38636 104.948 9.38636C104.527 9.38636 104.191 9.31676 103.938 9.17756C103.685 9.03551 103.49 8.875 103.354 8.69602C103.218 8.5142 103.113 8.36364 103.039 8.24432H102.953V11.7045H101.948ZM102.936 5.97727C102.936 6.47159 103.009 6.90767 103.154 7.28551C103.299 7.66051 103.51 7.95455 103.789 8.16761C104.067 8.37784 104.408 8.48295 104.811 8.48295C105.232 8.48295 105.583 8.37216 105.864 8.15057C106.148 7.92614 106.361 7.625 106.503 7.24716C106.648 6.86648 106.721 6.44318 106.721 5.97727C106.721 5.51705 106.65 5.10227 106.507 4.73295C106.368 4.3608 106.157 4.06676 105.873 3.85085C105.591 3.6321 105.238 3.52273 104.811 3.52273C104.402 3.52273 104.059 3.62642 103.78 3.83381C103.502 4.03835 103.292 4.32528 103.15 4.6946C103.007 5.06108 102.936 5.48864 102.936 5.97727ZM109.26 11.7045V2.70455H110.232V3.74432H110.351C110.425 3.63068 110.527 3.4858 110.658 3.30966C110.792 3.13068 110.982 2.97159 111.229 2.83239C111.479 2.69034 111.817 2.61932 112.243 2.61932C112.794 2.61932 113.28 2.7571 113.701 3.03267C114.121 3.30824 114.449 3.69886 114.685 4.20455C114.921 4.71023 115.039 5.30682 115.039 5.99432C115.039 6.6875 114.921 7.28835 114.685 7.79688C114.449 8.30256 114.123 8.6946 113.705 8.97301C113.287 9.24858 112.806 9.38636 112.26 9.38636C111.84 9.38636 111.503 9.31676 111.25 9.17756C110.998 9.03551 110.803 8.875 110.667 8.69602C110.53 8.5142 110.425 8.36364 110.351 8.24432H110.266V11.7045H109.26ZM110.249 5.97727C110.249 6.47159 110.321 6.90767 110.466 7.28551C110.611 7.66051 110.823 7.95455 111.101 8.16761C111.38 8.37784 111.721 8.48295 112.124 8.48295C112.544 8.48295 112.895 8.37216 113.176 8.15057C113.461 7.92614 113.674 7.625 113.816 7.24716C113.961 6.86648 114.033 6.44318 114.033 5.97727C114.033 5.51705 113.962 5.10227 113.82 4.73295C113.681 4.3608 113.469 4.06676 113.185 3.85085C112.904 3.6321 112.55 3.52273 112.124 3.52273C111.715 3.52273 111.371 3.62642 111.093 3.83381C110.814 4.03835 110.604 4.32528 110.462 4.6946C110.32 5.06108 110.249 5.48864 110.249 5.97727ZM116.573 9.25V2.70455H117.544V3.69318H117.613C117.732 3.36932 117.948 3.10653 118.26 2.90483C118.573 2.70312 118.925 2.60227 119.317 2.60227C119.391 2.60227 119.483 2.60369 119.594 2.60653C119.705 2.60937 119.789 2.61364 119.846 2.61932V3.64205C119.811 3.63352 119.733 3.62074 119.611 3.60369C119.492 3.58381 119.365 3.57386 119.232 3.57386C118.914 3.57386 118.63 3.64062 118.38 3.77415C118.132 3.90483 117.936 4.08665 117.792 4.3196C117.65 4.54972 117.578 4.8125 117.578 5.10795V9.25H116.573ZM123.498 9.38636C122.907 9.38636 122.388 9.24574 121.942 8.96449C121.499 8.68324 121.152 8.28977 120.902 7.78409C120.655 7.27841 120.532 6.6875 120.532 6.01136C120.532 5.32955 120.655 4.73437 120.902 4.22585C121.152 3.71733 121.499 3.32244 121.942 3.04119C122.388 2.75994 122.907 2.61932 123.498 2.61932C124.088 2.61932 124.605 2.75994 125.049 3.04119C125.495 3.32244 125.841 3.71733 126.088 4.22585C126.338 4.73437 126.463 5.32955 126.463 6.01136C126.463 6.6875 126.338 7.27841 126.088 7.78409C125.841 8.28977 125.495 8.68324 125.049 8.96449C124.605 9.24574 124.088 9.38636 123.498 9.38636ZM123.498 8.48295C123.946 8.48295 124.316 8.3679 124.605 8.13778C124.895 7.90767 125.11 7.60511 125.249 7.23011C125.388 6.85511 125.458 6.44886 125.458 6.01136C125.458 5.57386 125.388 5.16619 125.249 4.78835C125.11 4.41051 124.895 4.10511 124.605 3.87216C124.316 3.6392 123.946 3.52273 123.498 3.52273C123.049 3.52273 122.679 3.6392 122.39 3.87216C122.1 4.10511 121.885 4.41051 121.746 4.78835C121.607 5.16619 121.537 5.57386 121.537 6.01136C121.537 6.44886 121.607 6.85511 121.746 7.23011C121.885 7.60511 122.1 7.90767 122.39 8.13778C122.679 8.3679 123.049 8.48295 123.498 8.48295ZM133.116 2.70455L130.696 9.25H129.673L127.253 2.70455H128.344L130.151 7.92045H130.219L132.026 2.70455H133.116ZM136.171 9.40341C135.756 9.40341 135.38 9.32528 135.042 9.16903C134.703 9.00994 134.435 8.78125 134.236 8.48295C134.037 8.18182 133.938 7.81818 133.938 7.39205C133.938 7.01705 134.012 6.71307 134.159 6.48011C134.307 6.24432 134.505 6.05966 134.752 5.92614C134.999 5.79261 135.272 5.69318 135.57 5.62784C135.871 5.55966 136.174 5.50568 136.478 5.46591C136.875 5.41477 137.198 5.37642 137.445 5.35085C137.695 5.32244 137.877 5.27557 137.99 5.21023C138.107 5.14489 138.165 5.03125 138.165 4.86932V4.83523C138.165 4.41477 138.05 4.08807 137.82 3.85511C137.593 3.62216 137.248 3.50568 136.784 3.50568C136.304 3.50568 135.928 3.6108 135.655 3.82102C135.382 4.03125 135.191 4.25568 135.08 4.49432L134.125 4.15341C134.296 3.75568 134.523 3.44602 134.807 3.22443C135.094 3 135.407 2.84375 135.745 2.75568C136.086 2.66477 136.421 2.61932 136.75 2.61932C136.961 2.61932 137.202 2.64489 137.475 2.69602C137.75 2.74432 138.016 2.84517 138.272 2.99858C138.53 3.15199 138.745 3.38352 138.915 3.69318C139.086 4.00284 139.171 4.41761 139.171 4.9375V9.25H138.165V8.36364H138.114C138.046 8.50568 137.932 8.65767 137.773 8.8196C137.614 8.98153 137.402 9.11932 137.138 9.23295C136.874 9.34659 136.551 9.40341 136.171 9.40341ZM136.324 8.5C136.722 8.5 137.057 8.42188 137.33 8.26562C137.605 8.10938 137.813 7.90767 137.952 7.66051C138.094 7.41335 138.165 7.15341 138.165 6.88068V5.96023C138.123 6.01136 138.029 6.05824 137.884 6.10085C137.742 6.14062 137.577 6.17614 137.39 6.20739C137.205 6.2358 137.025 6.26136 136.848 6.28409C136.675 6.30398 136.534 6.32102 136.426 6.33523C136.165 6.36932 135.921 6.42472 135.694 6.50142C135.469 6.57528 135.287 6.6875 135.148 6.83807C135.012 6.9858 134.944 7.1875 134.944 7.44318C134.944 7.79261 135.073 8.05682 135.331 8.2358C135.593 8.41193 135.924 8.5 136.324 8.5ZM142.012 0.522727V9.25H141.006V0.522727H142.012Z" fill="black"/>
</svg>
