<svg width="33" height="32" viewBox="0 0 33 32" fill="none" xmlns="http://www.w3.org/2000/svg">
<path d="M5.68018 9.50562H8.68748C8.68748 9.63675 8.68748 9.75907 8.68748 9.87272C8.68748 10.3885 8.68748 10.9043 8.68748 11.4113C8.68748 12.2593 8.18044 12.8888 7.43736 13.0112C6.66805 13.1336 6.02112 12.7227 5.73263 11.9185C5.72388 11.8922 5.69766 11.8747 5.68018 11.8484C5.68018 11.0704 5.68018 10.2837 5.68018 9.50562Z" fill="#FFB422"/>
<path d="M26.2767 26.2817C26.2767 26.7362 26.0931 26.85 25.3588 26.85C19.8862 26.85 14.4136 26.85 8.94973 26.85C8.83608 26.85 8.72245 26.85 8.6088 26.85C8.30283 26.8238 8.06679 26.71 8.05804 26.5177C8.03182 26.0719 8.05804 25.626 8.05804 25.1714H26.2854C26.2854 25.556 26.2854 25.9232 26.2854 26.2904L26.2767 26.2817ZM13.0498 26.3167C13.3033 26.2992 13.452 26.1944 13.4607 26.0283C13.4607 25.871 13.924 26.5702 13.6705 26.5527C13.2859 26.5352 12.8138 26.5265 12.4291 26.5527C12.1756 26.5702 11.2839 26.6576 11.0041 26.5527C10.8031 26.4828 11.7035 26.2904 11.957 26.3079C12.1494 26.3254 12.3417 26.3079 12.5427 26.3079C12.7176 26.3079 12.8925 26.3167 13.0673 26.3079L13.0498 26.3167ZM16.774 25.4949C16.503 25.5212 17.1324 25.7747 17.1499 25.9496C17.1674 26.1157 16.5292 26.4827 16.7915 26.5002C17.1499 26.509 15.5676 26.3341 15.926 26.3167C16.1883 26.3079 16.3281 26.1857 16.3369 26.0283C16.3369 25.871 16.2145 25.7572 15.9522 25.7223C15.7599 25.7048 15.5675 25.7047 15.3927 25.696C15.1916 25.696 16.9575 25.4687 16.774 25.4862V25.4949ZM9.13334 25.7135C8.84485 25.731 8.99346 25.1453 8.99346 25.3114C8.99346 25.4775 9.61416 25.3027 9.90265 25.3114C10.2261 25.3201 10.838 25.4162 11.1615 25.4074C11.4412 25.4074 10.5933 26.1857 10.5933 26.0283C10.5933 25.871 10.4184 25.7397 10.1387 25.7223C9.96383 25.7135 9.78899 25.7223 9.61414 25.7223C9.44804 25.7223 9.28194 25.7135 9.12459 25.7223L9.13334 25.7135Z" fill="#0671B8"/>
<path d="M16.6691 9.52319C16.6691 10.2488 16.6953 10.9569 16.6691 11.665C16.6341 12.4081 15.9872 13.0026 15.2529 13.0288C14.4661 13.055 13.7842 12.548 13.7143 11.7787C13.6531 11.0357 13.6968 10.2838 13.6968 9.52319H16.6691Z" fill="#FFB422"/>
<path d="M9.68408 9.5144H12.6477C12.6477 10.3012 12.7089 11.0879 12.6302 11.8572C12.5515 12.6003 11.8084 13.09 11.0216 13.0288C10.3135 12.9763 9.71029 12.373 9.69281 11.6474C9.66658 10.9481 9.69281 10.2488 9.69281 9.52315L9.68408 9.5144Z" fill="#FFB422"/>
<path d="M26.3554 20.8792C26.2854 18.8511 26.3029 16.6656 26.2854 14.6199C25.7696 14.8035 25.2276 14.9083 24.6506 14.9083C23.182 14.9083 21.8619 14.2527 20.9789 13.2124C20.4806 13.7281 19.8949 14.0166 19.1693 14.0253C18.3475 14.0253 17.7006 13.6495 17.1674 13.0288C16.6341 13.6582 15.9872 14.0253 15.1741 14.0253C14.3524 14.0253 13.7055 13.6583 13.181 13.0376C12.1581 14.2789 10.3572 14.4276 9.20327 13.0813C8.90603 13.2999 8.63504 13.5621 8.31158 13.737C8.09302 13.8594 8.04057 13.9818 8.04057 14.2091C8.04057 17.5398 8.04057 20.8705 8.04057 24.2013C8.04057 24.3062 8.03181 24.4024 8.02307 24.5074H10.4884C10.4884 23.9304 10.4709 23.3619 10.4709 22.785V16.9715C10.4534 17.0152 10.4447 17.059 10.4447 17.059L10.2523 16.8142L10.4796 16.648L10.6719 16.823H14.1863C14.2912 16.823 14.3699 16.9104 14.3699 17.0065V24.5159H26.3466C26.3466 24.3585 26.3466 24.2101 26.3466 24.0527C26.3291 22.8463 26.3816 22.1381 26.3466 20.888L26.3554 20.8792ZM24.4845 19.6554C24.4845 19.8565 24.3185 20.0225 24.1174 20.0225H17.1848C16.9838 20.0225 16.8177 19.8565 16.8177 19.6554V17.1726C16.8177 16.9715 16.9838 16.8055 17.1848 16.8055H24.1174C24.3185 16.8055 24.4845 16.9715 24.4845 17.1726V19.6554Z" fill="#0671B8"/>
<path d="M21.9493 6C17.3247 6 12.6914 6 8.06684 6C7.87451 6 7.76959 6.06119 7.67343 6.21855C7.24506 6.86547 6.81669 7.49486 6.37958 8.13303C6.3009 8.24668 6.23098 8.36922 6.14355 8.5091H20.0436C20.3845 7.47752 21.0664 6.59447 21.9493 6Z" fill="#0671B8"/>
<path d="M19.8074 10.0566C19.8074 9.87297 19.8162 9.69804 19.8424 9.52319H17.6656C17.6656 9.64558 17.6656 9.75059 17.6656 9.84676C17.6656 10.45 17.6481 11.0618 17.6744 11.665C17.7093 12.4081 18.3562 13.0026 19.0906 13.0288C19.6413 13.0463 20.1309 12.8015 20.4106 12.3906C20.026 11.7 19.8161 10.9045 19.8161 10.0566H19.8074Z" fill="#FFB422"/>
<path d="M24.7031 13.9467C26.8661 13.9467 28.6195 12.1932 28.6195 10.0302C28.6195 7.86722 26.8661 6.11377 24.7031 6.11377C22.5401 6.11377 20.7866 7.86722 20.7866 10.0302C20.7866 12.1932 22.5401 13.9467 24.7031 13.9467Z" fill="#FFB422"/>
<path d="M23.9338 9.16496C23.9338 8.73659 23.9338 8.317 23.9338 7.88864C23.9338 7.69631 24.0911 7.53878 24.301 7.49507C24.5108 7.45136 24.738 7.53877 24.8342 7.70487C24.8779 7.78355 24.8867 7.87975 24.8867 7.95843C24.8867 8.69277 24.8867 9.41838 24.8867 10.1527C24.8867 10.2227 24.9129 10.2751 24.9654 10.3275C25.3675 10.6772 25.7784 11.0358 26.1718 11.3855C26.4341 11.6215 26.3379 11.9973 25.9882 12.0934C25.8133 12.1372 25.6473 12.1111 25.5161 11.9974C25.0266 11.569 24.537 11.1407 24.0562 10.7123C23.96 10.6249 23.925 10.5199 23.925 10.3975C23.925 9.98664 23.925 9.56709 23.925 9.15621L23.9338 9.16496Z" fill="white"/>
<path d="M10.4709 17.0589C10.4709 17.0589 10.4709 16.8054 10.6895 16.8054L10.4884 16.6218L10.2174 16.8054L10.4709 17.0589Z" fill="#0671B8"/>
</svg>
