<svg width="32" height="32" viewBox="0 0 32 32" fill="none" xmlns="http://www.w3.org/2000/svg">
<path d="M16.2578 13.1817C16.4832 13.1817 16.6846 13.1898 16.8778 13.1817C17.2483 13.1576 17.5623 13.1576 17.7636 13.5844C17.9005 13.8743 18.2548 13.9709 18.577 13.9709C20.1553 13.9709 21.7256 13.9789 23.3039 13.9709C23.7468 13.9709 24.0931 13.7695 24.2944 13.3427C24.3266 13.2703 24.4313 13.1898 24.5038 13.1898C24.8742 13.1737 25.2446 13.1898 25.6473 13.1898V24.6971H16.2658V13.1898L16.2578 13.1817ZM19.4386 19.1488C19.4386 18.9716 19.4386 18.7945 19.4386 18.6174C19.4306 18.3113 19.2936 18.1744 18.9796 18.1664C18.6253 18.1664 18.2709 18.1664 17.9166 18.1664C17.6428 18.1664 17.4979 18.3194 17.4898 18.5851C17.4898 18.9555 17.4898 19.334 17.4898 19.7045C17.4898 19.9621 17.6428 20.1071 17.9005 20.1071C18.2709 20.1151 18.6494 20.1151 19.0198 20.1071C19.2775 20.1071 19.4144 19.9541 19.4305 19.6964C19.4305 19.5112 19.4305 19.326 19.4305 19.1327L19.4386 19.1488ZM19.4386 15.8391C19.4386 15.6619 19.4386 15.4848 19.4386 15.3077C19.4306 15.0178 19.2936 14.8808 18.9957 14.8728C18.6413 14.8728 18.2871 14.8728 17.9327 14.8728C17.667 14.8728 17.4979 15.0097 17.4979 15.2835C17.4898 15.67 17.4898 16.0485 17.4979 16.435C17.4979 16.6766 17.6509 16.8135 17.8924 16.8216C18.279 16.8216 18.6575 16.8297 19.044 16.8216C19.3017 16.8216 19.4306 16.6605 19.4386 16.4028C19.4386 16.2176 19.4386 16.0324 19.4386 15.8391ZM18.4723 21.468C18.287 21.468 18.1018 21.468 17.9086 21.468C17.6509 21.468 17.4979 21.6129 17.4898 21.8706C17.4817 22.2571 17.4898 22.6357 17.4898 23.0222C17.4898 23.2718 17.6428 23.4087 17.8764 23.4248C18.271 23.4409 18.6655 23.4409 19.052 23.4248C19.2695 23.4168 19.4144 23.2718 19.4225 23.0383C19.4305 22.6437 19.4386 22.2492 19.4225 21.8626C19.4144 21.6211 19.2695 21.4841 19.0198 21.4841C18.8346 21.4841 18.6494 21.4841 18.4561 21.4841L18.4723 21.468ZM22.7563 16.9182C23.2717 16.9182 23.779 16.9182 24.2944 16.9182C24.6004 16.9182 24.7615 16.7813 24.7615 16.5477C24.7615 16.3142 24.6004 16.1773 24.2944 16.1773C23.2798 16.1773 22.2651 16.1773 21.2585 16.1773C20.9525 16.1773 20.7834 16.3061 20.7753 16.5397C20.7673 16.7813 20.9445 16.9263 21.2585 16.9263C21.7578 16.9263 22.2651 16.9263 22.7644 16.9263L22.7563 16.9182ZM22.7563 22.1122C23.2798 22.1122 23.7952 22.1122 24.3186 22.1122C24.6165 22.1122 24.7856 21.9592 24.7615 21.7176C24.7373 21.4358 24.536 21.3794 24.2944 21.3794C23.2798 21.3794 22.2732 21.3794 21.2585 21.3794C20.9284 21.3794 20.7592 21.5164 20.7673 21.758C20.7753 21.9915 20.9364 22.1122 21.2505 22.1122C21.7498 22.1122 22.249 22.1122 22.7563 22.1122ZM22.7724 19.4709C22.2651 19.4709 21.7497 19.4709 21.2424 19.4709C20.9445 19.4709 20.7673 19.6159 20.7673 19.8414C20.7673 20.0749 20.9284 20.2037 21.2344 20.2037C22.249 20.2037 23.2637 20.2037 24.2703 20.2037C24.6004 20.2037 24.7615 20.0749 24.7534 19.8253C24.7454 19.5917 24.5843 19.4709 24.2703 19.4709C23.771 19.4709 23.2637 19.4709 22.7644 19.4709H22.7724ZM22.7402 15.5171C23.2475 15.5171 23.7629 15.5171 24.2703 15.5171C24.6085 15.5171 24.7615 15.3881 24.7615 15.1466C24.7615 14.913 24.6085 14.8003 24.2783 14.8003C23.2637 14.8003 22.2571 14.8003 21.2424 14.8003C20.9203 14.8003 20.7673 14.9211 20.7673 15.1546C20.7673 15.3882 20.9203 15.5171 21.2344 15.5171C21.7336 15.5171 22.2329 15.5171 22.7402 15.5171ZM22.7402 23.5053C23.2637 23.5053 23.779 23.5053 24.3025 23.5053C24.6085 23.5053 24.7695 23.3685 24.7534 23.1349C24.7373 22.8612 24.5521 22.7806 24.3025 22.7806C23.2717 22.7806 22.2409 22.7806 21.2102 22.7806C20.9283 22.7806 20.7673 22.9175 20.7673 23.143C20.7673 23.3685 20.9203 23.5053 21.2022 23.5053C21.7095 23.5053 22.2248 23.5053 22.7322 23.5053H22.7402ZM22.7805 18.8187C23.312 18.8187 23.8435 18.8187 24.375 18.8187C24.6004 18.8187 24.7534 18.7059 24.7615 18.4643C24.7615 18.2227 24.6165 18.102 24.391 18.102C23.312 18.102 22.2329 18.0939 21.1538 18.11C21.0331 18.11 20.8639 18.2388 20.8075 18.3515C20.6948 18.5931 20.8881 18.8106 21.2022 18.8106C21.7336 18.8187 22.2651 18.8106 22.7966 18.8106L22.7805 18.8187Z" fill="#0671B8"/>
<path d="M20.9364 9.67871C20.5177 9.82366 20.1473 9.95241 19.7446 10.0893V9.31627H6.22399V20.0989H5V19.7688C5 15.992 5 12.2072 5 8.43049C5 8.1889 5.07247 8.06807 5.29795 7.97949C7.45609 7.13394 9.61421 6.27236 11.7724 5.42682C12.183 5.26576 12.5937 5 13.0125 5C13.4151 5 13.8177 5.27383 14.2204 5.43488C16.3624 6.28042 18.4964 7.12598 20.6385 7.97152C20.872 8.0601 20.9686 8.18087 20.9525 8.44661C20.9284 8.87341 20.9525 9.3082 20.9525 9.69473L20.9364 9.67871ZM14.8727 7.32726H11.0798V8.28549H14.8727V7.32726Z" fill="#0671B8"/>
<path d="M17.4979 11.8447V12.4245C16.9986 12.4245 16.5235 12.4245 16.0403 12.4245C15.5652 12.4245 15.4686 12.5212 15.4686 12.9963C15.4686 16.9663 15.4686 20.9282 15.4686 24.8982C15.4686 25.3653 15.5572 25.4539 16.0162 25.4539C19.3017 25.4539 22.5953 25.4539 25.8808 25.4539C26.3076 25.4539 26.4042 25.3492 26.4042 24.9305C26.4042 20.9363 26.4042 16.9341 26.4042 12.9399C26.4042 12.5292 26.2996 12.4245 25.8728 12.4245C25.3816 12.4245 24.8903 12.4245 24.3911 12.4245V11.877C24.4474 11.8689 24.5038 11.8447 24.5602 11.8447C25.1319 11.8447 25.7037 11.8447 26.2754 11.8447C26.7103 11.8447 26.976 12.1105 27.0001 12.5373C27.0001 12.6097 27.0001 12.6742 27.0001 12.7466C27.0001 16.8697 27.0001 20.9927 27.0001 25.1237C27.0001 25.8243 26.7828 26.0337 26.0822 26.0337C22.6436 26.0337 19.2131 26.0337 15.7746 26.0337C15.1223 26.0337 14.8888 25.8082 14.8888 25.1479C14.8888 21.0007 14.8888 16.8616 14.8888 12.7144C14.8888 12.0943 15.1385 11.8447 15.7666 11.8447C16.3383 11.8447 16.902 11.8447 17.4979 11.8447Z" fill="#0671B8"/>
<path d="M20.9364 13.2057C20.1794 13.2057 19.4225 13.2057 18.6655 13.2057C18.3837 13.2057 18.2709 13.0929 18.2709 12.8191C18.2709 12.4729 18.2709 12.1347 18.2709 11.7884C18.2709 11.5147 18.3917 11.3938 18.6655 11.4018C18.9715 11.4018 19.2775 11.4179 19.5755 11.4018C19.6721 11.4018 19.809 11.3133 19.8493 11.2247C20.0828 10.7737 20.4371 10.5161 20.9525 10.5241C21.4679 10.5241 21.8141 10.7979 22.0316 11.2569C22.0638 11.3294 22.1846 11.4018 22.2651 11.4018C22.5872 11.4179 22.9174 11.4099 23.2395 11.4018C23.4972 11.4018 23.618 11.5146 23.618 11.7804C23.618 12.1267 23.618 12.4648 23.618 12.8111C23.618 13.0849 23.5052 13.2057 23.2314 13.2057C22.4664 13.2057 21.7014 13.2057 20.9283 13.2057H20.9364ZM20.9445 11.0314C20.7995 11.2328 20.6626 11.3375 20.6385 11.4583C20.6062 11.6435 20.7351 11.7723 20.9364 11.7804C21.1377 11.7804 21.2585 11.6515 21.2343 11.4663C21.2182 11.3455 21.0814 11.2328 20.9445 11.0395V11.0314Z" fill="#0671B8"/>
<path d="M8.94584 9.53357C9.24379 9.53357 9.52564 9.51748 9.79943 9.54164C9.86386 9.54164 9.97662 9.67854 9.97662 9.75101C9.98467 10.661 9.99273 11.579 9.97662 12.489C9.97662 12.5695 9.81557 12.7224 9.72699 12.7224C8.83313 12.7385 7.93926 12.7385 7.0454 12.7224C6.95682 12.7224 6.81188 12.5614 6.80383 12.4809C6.78772 11.571 6.78772 10.6529 6.80383 9.74295C6.80383 9.67048 6.91654 9.54969 6.98096 9.54164C7.25476 9.51748 7.52856 9.53357 7.84262 9.53357C7.84262 9.79932 7.84262 10.0409 7.84262 10.2825C7.84262 10.4919 7.9312 10.5805 8.14863 10.5805C9.05054 10.5724 8.92973 10.6771 8.93778 9.83152C8.93778 9.74294 8.94585 9.66242 8.9539 9.53357H8.94584Z" fill="#FFB422"/>
<path d="M7.84258 16.91C7.84258 17.1919 7.84258 17.4334 7.84258 17.667C7.84258 17.8844 7.94727 17.9568 8.14859 17.9568C9.03439 17.9568 8.92968 18.0294 8.92968 17.2241C8.92968 17.1355 8.92968 17.0469 8.92968 16.91C9.24374 16.91 9.53367 16.8939 9.81552 16.9181C9.87994 16.9181 9.97658 17.063 9.97658 17.1354C9.98463 18.0293 9.97658 18.9232 9.97658 19.8251C9.97658 20.0184 9.88796 20.115 9.68664 20.115C8.80889 20.115 7.93923 20.115 7.06148 20.115C6.86822 20.115 6.77155 20.0265 6.77155 19.8332C6.77155 18.9393 6.77155 18.0454 6.77961 17.1435C6.77961 17.063 6.89237 16.9262 6.95679 16.9181C7.23059 16.8939 7.50439 16.91 7.81844 16.91H7.84258Z" fill="#FFB422"/>
<path d="M11.5228 16.9101C11.5228 17.192 11.5228 17.4255 11.5228 17.659C11.5228 17.8684 11.6194 17.9569 11.8288 17.9569C12.7227 17.9569 12.618 18.0456 12.626 17.2081C12.626 17.1195 12.6341 17.039 12.6421 16.9101C12.924 16.9101 13.1978 16.894 13.4716 16.9182C13.544 16.9182 13.6568 17.039 13.6568 17.1034C13.6729 18.0295 13.6729 18.9555 13.6568 19.8735C13.6568 19.954 13.4877 20.099 13.3991 20.099C12.5214 20.1151 11.6517 20.1071 10.7739 20.1071C10.5565 20.1071 10.476 19.9943 10.476 19.793C10.476 18.9072 10.476 18.0214 10.476 17.1355C10.476 16.9825 10.5242 16.886 10.6933 16.894C10.9591 16.894 11.2249 16.894 11.5309 16.894L11.5228 16.9101Z" fill="#FFB422"/>
<path d="M8.92972 13.2221C9.24378 13.2221 9.51758 13.206 9.79137 13.2301C9.86385 13.2301 9.97663 13.3751 9.98468 13.4556C10.0008 14.3575 9.98464 15.2594 9.99269 16.1694C9.99269 16.3385 9.91217 16.4191 9.74306 16.4191C8.84115 16.4191 7.93119 16.4191 7.02928 16.411C6.94875 16.411 6.81188 16.266 6.80383 16.1855C6.78772 15.2756 6.78772 14.3575 6.80383 13.4476C6.80383 13.3751 6.93267 13.2462 7.00515 13.2382C7.27089 13.214 7.53661 13.2301 7.84262 13.2301C7.84262 13.4797 7.84262 13.7133 7.84262 13.9468C7.83456 14.1804 7.91511 14.2931 8.16475 14.2931C9.03445 14.2931 8.92973 14.3656 8.93778 13.5442C8.93778 13.4556 8.93778 13.367 8.93778 13.2301L8.92972 13.2221Z" fill="#FFB422"/>
<path d="M12.634 13.2619C12.6824 13.2378 12.6904 13.2216 12.6985 13.2216C13.3427 13.168 13.6648 13.4579 13.6648 14.0914C13.6648 14.7517 13.6648 15.412 13.6648 16.0643C13.6648 16.3139 13.5843 16.4187 13.3266 16.4106C12.4891 16.4025 11.6516 16.4025 10.8222 16.4106C10.5484 16.4106 10.4598 16.3058 10.4598 16.0401C10.4678 15.2026 10.4678 14.3651 10.4598 13.5357C10.4598 13.3022 10.5242 13.1895 10.7819 13.2056C11.0154 13.2217 11.249 13.2056 11.5227 13.2056C11.5227 13.4794 11.5227 13.7209 11.5227 13.9625C11.5227 14.1719 11.6194 14.2685 11.8288 14.2605C12.7065 14.2605 12.6179 14.3491 12.626 13.5036C12.626 13.415 12.626 13.3263 12.634 13.2458V13.2619Z" fill="#FFB422"/>
</svg>
