<svg width="32" height="32" viewBox="0 0 32 32" fill="none" xmlns="http://www.w3.org/2000/svg">
<path d="M12.4213 10.9849C11.6388 10.4189 11.206 9.65315 11.0062 8.73751C10.898 8.23807 10.9063 8.23804 11.3475 7.97167C11.6555 7.78854 11.9635 7.58883 12.2881 7.41403C12.363 7.37241 12.5045 7.37241 12.5794 7.41403C12.9956 7.6471 13.3952 7.89681 13.8031 8.13821C13.9196 8.2048 13.9446 8.27135 13.9279 8.40453C13.7947 9.47 13.262 10.2942 12.4213 10.9767V10.9849Z" fill="#FFB422"/>
<path d="M12.6541 8.32125C12.6541 8.20471 12.5792 8.08822 12.471 8.05492C12.2879 7.98833 12.0964 8.12147 12.1048 8.32125C12.1214 8.62923 12.1381 8.92888 12.163 9.23686C12.1714 9.36172 12.2629 9.44497 12.3794 9.4533C12.496 9.4533 12.5876 9.37005 12.6042 9.23686C12.6292 8.9372 12.6458 8.62923 12.6708 8.32125H12.6541Z" fill="white"/>
<path d="M12.6042 9.84432C12.6042 9.71114 12.5043 9.61133 12.3711 9.61133C12.2463 9.61133 12.1381 9.71946 12.1381 9.84432C12.1381 9.96918 12.2463 10.0774 12.3711 10.0774C12.5043 10.0774 12.6042 9.97751 12.6042 9.84432Z" fill="white"/>
<path d="M19.355 26.2678H9.29134C9.13319 26.2678 9 26.1429 9 25.9764V5.29132C9 5.13316 9.12486 5 9.29134 5H20.254C20.5038 5 20.6286 5.29963 20.4538 5.48275C19.6797 6.27353 19.2884 7.23912 19.2468 8.39615C19.1469 8.39615 19.0637 8.39615 18.9805 8.39615C18.1231 8.39615 17.274 8.39615 16.4167 8.39615C16.3584 8.39615 16.3085 8.39615 16.2502 8.39615C16.0088 8.40447 15.8423 8.55437 15.8423 8.77079C15.8423 8.99554 16.0005 9.15366 16.2585 9.15366C17.1076 9.15366 17.9483 9.15366 18.7973 9.15366C18.9721 9.15366 19.1386 9.15366 19.3134 9.15366C19.3883 9.42003 19.4549 9.65313 19.5298 9.91117C19.43 9.91117 19.3384 9.91117 19.2552 9.91117C18.2646 9.91117 17.274 9.91117 16.2918 9.91117C15.9672 9.91117 15.7757 10.1442 15.8673 10.4106C15.9422 10.6187 16.117 10.6686 16.3251 10.6686C17.4072 10.6686 18.4893 10.6686 19.5715 10.6686C19.8045 10.6686 20.021 10.7852 20.1625 10.9683C20.7451 11.7175 21.5026 12.2003 22.4349 12.4334C22.643 12.4833 22.8511 12.5165 23.0509 12.5665C23.0509 12.6081 23.0592 12.6414 23.0592 12.6747C23.0592 13.9483 23.0675 23.8206 23.0592 25.9598C23.0592 26.118 22.9343 26.2345 22.7845 26.2428C22.1935 26.2512 21.4943 26.2428 21.0947 26.2428C20.9199 26.2428 20.7951 26.093 20.8117 25.9182C21.0198 24.3782 22.077 18.1352 21.9688 18.926C21.9105 19.7251 21.9355 20.5409 21.9188 21.3483C21.9188 21.4399 21.9188 24.9277 21.9188 25.9598C21.9188 26.118 21.794 26.2428 21.6358 26.2428C20.87 26.2428 19.4133 26.2428 18.9139 26.2428C18.5143 26.2428 19.6464 21.7978 19.6464 22.2057C19.6464 23.4543 19.6464 24.7029 19.6464 25.9515C19.6464 26.1097 19.5215 26.2345 19.3634 26.2345L19.355 26.2678ZM14.7019 8.20471C14.7269 7.97997 14.677 7.79683 14.4689 7.67197C13.8612 7.31404 13.2619 6.94784 12.6626 6.58991C12.5044 6.49835 12.3546 6.49002 12.1964 6.58991C11.5888 6.95616 10.9811 7.32238 10.3651 7.68863C10.207 7.78019 10.1321 7.9217 10.1487 8.10483C10.1737 8.35455 10.1903 8.61261 10.2486 8.85401C10.4983 10.061 11.0893 11.0432 12.1381 11.7257C12.3213 11.8423 12.4961 11.8839 12.6875 11.7424C13.8945 10.8684 14.6104 9.71969 14.7103 8.21305L14.7019 8.20471ZM16.0171 15.2468C17.9233 15.2468 19.8295 15.2468 21.7357 15.2468C21.8106 15.2468 21.8772 15.2468 21.9521 15.2468C22.1602 15.2218 22.3101 15.0554 22.2934 14.8639C22.2768 14.6558 22.1602 14.531 21.9521 14.4977C21.8855 14.4894 21.8106 14.4977 21.7357 14.4977C17.9316 14.4977 14.1193 14.4977 10.3152 14.4977C10.2403 14.4977 10.157 14.4977 10.0821 14.4977C9.88234 14.5393 9.75748 14.6641 9.76581 14.8806C9.76581 15.0803 9.89067 15.2052 10.0821 15.2468C10.157 15.2634 10.2403 15.2551 10.3152 15.2551C12.2131 15.2551 14.1109 15.2551 16.0171 15.2551V15.2468ZM16.0338 16.7701C17.9316 16.7701 19.8295 16.7701 21.7357 16.7701C21.8189 16.7701 21.8939 16.7701 21.9688 16.7701C22.1769 16.7285 22.2934 16.6036 22.2934 16.3955C22.2934 16.1874 22.1685 16.0626 21.9688 16.0209C21.9022 16.0043 21.8273 16.0209 21.7524 16.0209C17.94 16.0209 14.1193 16.0209 10.3069 16.0209C10.232 16.0209 10.1654 16.0209 10.0904 16.0209C9.88234 16.0626 9.76581 16.1874 9.76581 16.3955C9.76581 16.6036 9.89066 16.7285 10.0904 16.7701C10.1654 16.7868 10.2486 16.7701 10.3235 16.7701C12.2214 16.7701 14.1193 16.7701 16.0254 16.7701H16.0338ZM15.4677 13.7319C17.1742 13.7319 18.8889 13.7319 20.5953 13.7319C20.6786 13.7319 20.7535 13.7319 20.8284 13.7319C21.0365 13.6902 21.153 13.5654 21.153 13.3573C21.153 13.1492 21.0282 13.0243 20.8284 12.9827C20.7618 12.966 20.6869 12.9827 20.612 12.9827C17.1742 12.9827 13.7447 12.9827 10.3069 12.9827C10.232 12.9827 10.1654 12.9827 10.0904 12.9827C9.88234 13.0243 9.76581 13.1492 9.76581 13.3573C9.76581 13.5654 9.89066 13.6902 10.0904 13.7319C10.1654 13.7485 10.2486 13.7319 10.3235 13.7319C12.0299 13.7319 13.7447 13.7319 15.4511 13.7319H15.4677ZM15.4677 18.2934C17.1825 18.2934 18.9055 18.2934 20.6203 18.2934C20.6952 18.2934 20.7784 18.2934 20.8534 18.285C21.0448 18.2434 21.1613 18.1186 21.1613 17.9188C21.1613 17.7107 21.0448 17.5775 20.8367 17.5359C20.7784 17.5192 20.7119 17.5359 20.6453 17.5359C17.1908 17.5359 13.7447 17.5359 10.2902 17.5359C10.2403 17.5359 10.1987 17.5359 10.1487 17.5359C9.92397 17.5525 9.76581 17.7024 9.76581 17.9105C9.76581 18.1186 9.91565 18.2767 10.1404 18.2934C10.2153 18.2934 10.2819 18.2934 10.3568 18.2934C12.0549 18.2934 13.7613 18.2934 15.4594 18.2934H15.4677ZM15.4677 19.8167C17.1742 19.8167 18.8889 19.8167 20.5953 19.8167C20.6786 19.8167 20.7535 19.8167 20.8284 19.8167C21.0365 19.7751 21.153 19.6502 21.153 19.4421C21.153 19.234 21.0282 19.1092 20.8284 19.0676C20.7618 19.0509 20.6869 19.0676 20.612 19.0676C17.1742 19.0676 13.7447 19.0676 10.3069 19.0676C10.232 19.0676 10.1654 19.0676 10.0904 19.0676C9.88234 19.1092 9.76581 19.234 9.76581 19.4421C9.76581 19.6502 9.89066 19.7751 10.0904 19.8167C10.1654 19.8334 10.2486 19.8167 10.3235 19.8167C12.0299 19.8167 13.7447 19.8167 15.4511 19.8167H15.4677ZM13.7696 21.6396C13.8362 21.8394 13.8862 21.9726 13.9278 22.1058C14.036 22.4138 14.1193 22.4804 14.4439 22.4804C15.0682 22.4804 15.6925 22.4804 16.3168 22.4804C16.7829 22.4804 17.2491 22.4804 17.7152 22.4804C17.915 22.4804 18.0731 22.3805 18.0981 22.1974C18.1148 22.0725 18.0399 21.906 17.9566 21.8061C17.89 21.7395 17.7402 21.7229 17.6236 21.7229C16.683 21.7229 15.7424 21.7229 14.8018 21.7229C14.652 21.7229 14.5771 21.6896 14.5355 21.5314C14.4855 21.3233 14.4023 21.1236 14.3357 20.9238C14.2025 20.5326 13.9112 20.466 13.6198 20.7573C13.3867 20.9821 13.162 21.2151 12.9289 21.4565C12.8623 21.34 12.8207 21.2485 12.7708 21.1652C12.6459 20.9654 12.4461 20.9155 12.238 21.0237C12.1798 21.057 12.1132 21.0986 12.0632 21.1402C11.5305 21.5897 10.9312 21.8311 10.2153 21.7312C9.95726 21.6979 9.79078 21.8727 9.78246 22.0975C9.78246 22.3306 9.94894 22.4804 10.2236 22.4887C10.5483 22.4887 10.8729 22.497 11.1975 22.4887C11.3307 22.4887 11.4722 22.4387 11.5971 22.3722C11.8302 22.239 12.0549 22.0724 12.2963 21.9143C12.3462 22.0142 12.3879 22.0891 12.4295 22.1641C12.6293 22.5636 12.879 22.6053 13.187 22.2973C13.3784 22.0975 13.5699 21.8977 13.7946 21.6563L13.7696 21.6396Z" fill="#0671B8"/>
<path d="M22.743 13.349L19.1637 12.5332C19.0388 12.5083 18.9556 12.4 18.9556 12.2752V5.26632C18.9556 5.11649 19.0721 5 19.2219 5H22.8012C22.9511 5 23.0676 5.11649 23.0676 5.26632V13.0826C23.0676 13.2574 22.9095 13.3823 22.743 13.3406V13.349Z" fill="#0671B8"/>
<path d="M20.6203 9.92773H16.192C15.9805 9.92773 15.8091 10.0973 15.8091 10.3064C15.8091 10.5156 15.9805 10.6851 16.192 10.6851H20.6203C20.8318 10.6851 21.0032 10.5156 21.0032 10.3064C21.0032 10.0973 20.8318 9.92773 20.6203 9.92773Z" fill="white"/>
<path d="M20.6203 8.4043H16.192C15.9805 8.4043 15.8091 8.57393 15.8091 8.7831C15.8091 8.99228 15.9805 9.16181 16.192 9.16181H20.6203C20.8318 9.16181 21.0032 8.99228 21.0032 8.7831C21.0032 8.57393 20.8318 8.4043 20.6203 8.4043Z" fill="white"/>
</svg>
