<svg width="32" height="32" viewBox="0 0 32 32" fill="none" xmlns="http://www.w3.org/2000/svg">
<path d="M17.72 26.4402H7.34226C7.15291 26.4402 7 26.2873 7 26.0979V5.32787C7 5.16037 7.13836 5.02197 7.30586 5.02197H19.0891C17.9458 5.89589 17.3777 7.03203 17.3267 8.44485C17.2248 8.44485 17.1447 8.44485 17.0573 8.44485C16.1979 8.44485 15.3386 8.44485 14.4719 8.44485C14.4137 8.44485 14.3627 8.44485 14.3044 8.44485C14.0568 8.45942 13.8966 8.60508 13.8893 8.81628C13.8893 9.04204 14.0496 9.20219 14.3117 9.20219C15.1638 9.20219 16.0159 9.20219 16.8679 9.20219C17.0427 9.20219 17.2175 9.20219 17.385 9.20219C17.4578 9.46436 17.5234 9.712 17.5962 9.9669C17.4942 9.9669 17.4068 9.9669 17.3195 9.9669C16.3217 9.9669 15.324 9.9669 14.3336 9.9669C14.0058 9.9669 13.8092 10.2072 13.9112 10.4694C13.9913 10.6805 14.1588 10.7315 14.37 10.7315C15.5134 10.7315 16.6494 10.7315 17.7928 10.7315C17.9384 10.7315 18.0695 10.8044 18.1569 10.9209C18.7541 11.7365 19.5479 12.2682 20.5311 12.5158C20.735 12.5668 20.9462 12.6032 21.1574 12.6468C21.1574 12.6905 21.1646 12.727 21.1646 12.7561C21.1646 14.0451 21.1719 24.066 21.1646 26.1707C21.1646 26.3091 21.0554 26.4256 20.9171 26.4256C19.9703 26.4474 18.7323 26.4183 18.8707 26.4256C18.8561 26.0615 20.1961 18.1744 20.0723 19.0556C20.014 19.864 20.0358 20.6796 20.0213 21.4952C20.0213 21.6045 20.0213 26.3091 20.0213 26.4329C19.4095 26.4329 17.5743 26.4329 16.9917 26.4329C16.5839 26.4329 17.7273 21.9614 17.7273 22.3692C17.7273 23.7238 17.7273 25.0783 17.7273 26.4329L17.72 26.4402ZM12.7459 8.24092C12.7751 7.9569 12.695 7.73115 12.3017 7.62192C11.7919 7.47626 11.304 7.2286 10.9472 6.83534C10.6049 6.46392 10.3281 6.4275 9.98585 6.82076C9.62172 7.23587 9.10466 7.46891 8.57303 7.63641C8.28172 7.7238 8.13606 7.89134 8.15791 8.13895C8.18704 8.39384 8.20161 8.64876 8.25259 8.89637C8.50748 10.1053 9.09736 11.103 10.1533 11.7875C10.3354 11.9041 10.5175 11.9405 10.7068 11.8094C11.923 10.9282 12.644 9.77028 12.7459 8.24821V8.24092ZM14.0714 15.3415C15.994 15.3415 17.9166 15.3415 19.8392 15.3415C19.912 15.3415 19.9849 15.3415 20.0577 15.3415C20.2689 15.3196 20.4146 15.1521 20.4073 14.9555C20.3927 14.7443 20.2762 14.6205 20.065 14.584C19.9921 14.5695 19.9193 14.584 19.8465 14.584C16.0086 14.584 12.1779 14.584 8.33998 14.584C8.25987 14.584 8.17975 14.5768 8.09964 14.5913C7.89572 14.635 7.77192 14.7661 7.7792 14.9773C7.7792 15.1813 7.90304 15.3051 8.09239 15.3415C8.1725 15.356 8.25258 15.3488 8.33269 15.3488C10.248 15.3488 12.1633 15.3488 14.0714 15.3488V15.3415ZM14.086 16.8708C16.0013 16.8708 17.9166 16.8708 19.8247 16.8708C19.9048 16.8708 19.9849 16.8781 20.065 16.8708C20.2689 16.8344 20.3927 16.7033 20.3927 16.4921C20.3927 16.2809 20.2689 16.1571 20.065 16.1134C19.9921 16.0988 19.9193 16.1134 19.8538 16.1134C16.0086 16.1134 12.1706 16.1134 8.3254 16.1134C8.25257 16.1134 8.17976 16.1134 8.11422 16.1134C7.9103 16.1498 7.78649 16.2809 7.78649 16.4921C7.78649 16.7033 7.9103 16.8344 8.11422 16.8708C8.19433 16.8854 8.27445 16.8708 8.35456 16.8708C10.2699 16.8708 12.1852 16.8708 14.0933 16.8708H14.086ZM13.5106 13.8048C15.2293 13.8048 16.9553 13.8048 18.674 13.8048C18.7541 13.8048 18.8342 13.8121 18.9143 13.8048C19.1183 13.7684 19.2421 13.6373 19.2421 13.4261C19.2421 13.2149 19.1183 13.0911 18.9143 13.0474C18.8415 13.0329 18.7687 13.0474 18.7031 13.0474C15.2439 13.0474 11.7846 13.0474 8.3254 13.0474C8.25257 13.0474 8.17976 13.0474 8.11422 13.0474C7.9103 13.0838 7.78649 13.2149 7.78649 13.4261C7.78649 13.6373 7.9103 13.7684 8.11422 13.8048C8.19433 13.8194 8.27445 13.8048 8.35456 13.8048C10.0733 13.8048 11.7992 13.8048 13.5179 13.8048H13.5106ZM13.5106 18.4001C15.2439 18.4001 16.9699 18.4001 18.7031 18.4001C18.7832 18.4001 18.8634 18.4074 18.9435 18.3928C19.1328 18.3491 19.2566 18.2253 19.2566 18.0214C19.2566 17.8102 19.1401 17.6792 18.9289 17.6428C18.8706 17.6282 18.8051 17.6428 18.7396 17.6428C15.2658 17.6428 11.7847 17.6428 8.31086 17.6428C8.25988 17.6428 8.21618 17.6428 8.1652 17.6428C7.93944 17.6574 7.7792 17.8102 7.7792 18.0214C7.7792 18.2326 7.92486 18.3929 8.15062 18.4074C8.22345 18.4074 8.29626 18.4074 8.36909 18.4074C10.0805 18.4074 11.7992 18.4074 13.5106 18.4074V18.4001ZM13.5106 19.9295C15.2293 19.9295 16.9553 19.9295 18.674 19.9295C18.7541 19.9295 18.8342 19.9367 18.9143 19.9295C19.1183 19.893 19.2421 19.762 19.2421 19.5508C19.2421 19.3396 19.1183 19.2158 18.9143 19.1721C18.8415 19.1576 18.7687 19.1721 18.7031 19.1721C15.2439 19.1721 11.7846 19.1721 8.3254 19.1721C8.25257 19.1721 8.17976 19.1721 8.11422 19.1721C7.9103 19.2085 7.78649 19.3396 7.78649 19.5508C7.78649 19.762 7.9103 19.893 8.11422 19.9295C8.19433 19.944 8.27445 19.9295 8.35456 19.9295C10.0733 19.9295 11.7992 19.9295 13.5179 19.9295H13.5106ZM11.7992 21.7647C11.8648 21.9613 11.9158 22.0997 11.9595 22.2308C12.0687 22.5439 12.1488 22.6095 12.4765 22.6095C13.1028 22.6095 13.7364 22.6095 14.3627 22.6095C14.8361 22.6095 15.3022 22.6095 15.7755 22.6095C15.9722 22.6095 16.1396 22.5148 16.1615 22.3182C16.1761 22.1871 16.1032 22.0269 16.0158 21.925C15.9503 21.8522 15.7974 21.8448 15.6809 21.8448C14.7341 21.8448 13.7801 21.8448 12.8333 21.8448C12.6804 21.8448 12.6003 21.8084 12.5639 21.6554C12.5129 21.4515 12.4328 21.2476 12.36 21.0437C12.2216 20.6505 11.9303 20.5776 11.6317 20.8689C11.3987 21.0947 11.1729 21.3277 10.9326 21.5753C10.867 21.4588 10.8234 21.3642 10.7724 21.2768C10.6486 21.0729 10.4446 21.0219 10.2407 21.1384C10.1752 21.1748 10.1169 21.2113 10.0587 21.2549C9.51975 21.7065 8.92258 21.9468 8.2016 21.8521C7.93943 21.8157 7.77195 21.9905 7.76467 22.2162C7.76467 22.4493 7.93216 22.6022 8.20889 22.6095C8.53661 22.6095 8.86431 22.6241 9.19203 22.6095C9.32312 22.6095 9.45421 22.5658 9.56345 22.5075C9.81106 22.3692 10.0441 22.2016 10.2917 22.0341C10.3427 22.1288 10.3864 22.209 10.4228 22.2818C10.6267 22.6824 10.8744 22.726 11.1875 22.4129C11.3841 22.2162 11.5735 22.0123 11.7992 21.772V21.7647Z" fill="#0671B8"/>
<path d="M21.5433 5.00003C23.4514 5.00003 24.9953 6.5513 24.988 8.45207C24.988 10.3528 23.4368 11.8894 21.5215 11.8894C19.628 11.8894 18.0914 10.3237 18.0987 8.40833C18.0987 6.5367 19.6644 4.99274 21.5433 5.00003Z" fill="#FFB422"/>
<path d="M10.4447 11.0445C9.65086 10.4765 9.22117 9.69726 9.01726 8.78693C8.90802 8.28443 8.91533 8.28439 9.35957 8.01493C9.67272 7.82559 9.98586 7.62894 10.3063 7.45416C10.3864 7.41046 10.5248 7.41046 10.6049 7.45416C11.02 7.6872 11.4278 7.94209 11.8356 8.18242C11.9521 8.24796 11.9813 8.32087 11.9667 8.45196C11.8356 9.52251 11.2967 10.36 10.452 11.0445H10.4447Z" fill="#FFB422"/>
<path d="M10.7432 8.36453C10.7432 8.24801 10.6704 8.13149 10.5538 8.09508C10.3645 8.02953 10.1752 8.1679 10.1825 8.36453C10.197 8.6704 10.2188 8.98357 10.2407 9.28944C10.248 9.41324 10.3427 9.50067 10.4592 9.50795C10.5757 9.50795 10.6704 9.42781 10.685 9.28944C10.7068 8.98357 10.7286 8.67768 10.7505 8.36453H10.7432Z" fill="white"/>
<path d="M10.6923 9.8937C10.6923 9.76262 10.5904 9.65332 10.4593 9.65332C10.3282 9.65332 10.2189 9.76261 10.2189 9.88641C10.2189 10.0175 10.3282 10.1194 10.452 10.1194C10.5831 10.1194 10.685 10.0175 10.685 9.88641L10.6923 9.8937Z" fill="white"/>
<path d="M21.0481 7.73113C21.0481 7.38885 21.0481 7.04663 21.0481 6.70434C21.0481 6.55141 21.1573 6.42028 21.303 6.39115C21.4559 6.35474 21.6162 6.42756 21.6817 6.56593C21.7108 6.63147 21.7181 6.70433 21.7254 6.77715C21.7254 7.36704 21.7254 7.95689 21.7254 8.54678C21.7254 8.60504 21.74 8.64878 21.7837 8.68519C22.075 8.96922 22.359 9.25328 22.643 9.54458C22.8324 9.73393 22.7595 10.0397 22.5119 10.1198C22.3881 10.1563 22.2716 10.1344 22.1769 10.047C21.8274 9.70476 21.4851 9.35515 21.1355 9.00559C21.0627 8.93276 21.0408 8.84539 21.0408 8.75071C21.0408 8.41571 21.0408 8.08071 21.0408 7.74571L21.0481 7.73113Z" fill="white"/>
</svg>
