<svg width="32" height="32" viewBox="0 0 32 32" fill="none" xmlns="http://www.w3.org/2000/svg">
<path d="M17.5 26.0001H7.33532C7.14986 26.0001 7 25.8503 7 25.6648V5.32111C7 5.15705 7.13556 5.02148 7.29962 5.02148H18.841C17.7211 5.87746 17.1648 6.99028 17.1148 8.37411C17.015 8.37411 16.9365 8.37411 16.8509 8.37411C16.0092 8.37411 15.1674 8.37411 14.3186 8.37411C14.2615 8.37411 14.2116 8.37411 14.1546 8.37411C13.912 8.38838 13.7551 8.53105 13.748 8.73791C13.748 8.95903 13.9049 9.1159 14.1617 9.1159C14.9963 9.1159 15.8309 9.1159 16.6654 9.1159C16.8366 9.1159 17.0078 9.1159 17.1719 9.1159C17.2432 9.37269 17.3074 9.61525 17.3787 9.86491C17.2789 9.86491 17.1933 9.86491 17.1077 9.86491C16.1304 9.86491 15.1532 9.86491 14.1831 9.86491C13.8621 9.86491 13.6695 10.1003 13.7693 10.3571C13.8478 10.5639 14.0119 10.6138 14.2187 10.6138C15.3386 10.6138 16.4515 10.6138 17.5714 10.6138C17.714 10.6138 17.8424 10.6852 17.928 10.7993C18.5129 11.5982 19.2905 12.119 20.2534 12.3615C20.4532 12.4114 20.66 12.4471 20.8669 12.4899C20.8669 12.5327 20.874 12.5683 20.874 12.5969C20.874 13.8594 20.8811 23.6747 20.874 25.7361C20.874 25.8717 20.7669 25.9858 20.6314 25.9858C19.7041 26.0072 18.4915 25.9786 18.627 25.9858C18.6128 25.6291 19.9253 17.9039 19.804 18.7671C19.747 19.5588 19.7683 20.3577 19.7541 21.1566C19.7541 21.2636 19.7541 25.8717 19.7541 25.9929C19.1549 25.9929 17.3574 25.9929 16.7867 25.9929C16.3873 25.9929 17.5071 21.6132 17.5071 22.0127C17.5071 23.3394 17.5071 24.6662 17.5071 25.9929L17.5 26.0001ZM12.6281 8.17436C12.6566 7.89617 12.5781 7.67506 12.1929 7.56806C11.6936 7.4254 11.2157 7.18282 10.8662 6.79763C10.5309 6.43384 10.2598 6.39816 9.92457 6.78335C9.56791 7.18994 9.0615 7.41819 8.54078 7.58226C8.25546 7.66785 8.11283 7.83196 8.13423 8.07449C8.16276 8.32415 8.17703 8.57384 8.22697 8.81636C8.47663 10.0005 9.0544 10.9777 10.0887 11.6482C10.267 11.7623 10.4454 11.798 10.6308 11.6696C11.8221 10.8065 12.5282 9.67233 12.6281 8.1815V8.17436ZM13.9263 15.1292C15.8095 15.1292 17.6926 15.1292 19.5757 15.1292C19.6471 15.1292 19.7184 15.1292 19.7898 15.1292C19.9966 15.1078 20.1393 14.9437 20.1321 14.7511C20.1179 14.5442 20.0038 14.423 19.7969 14.3873C19.7256 14.373 19.6542 14.3873 19.5829 14.3873C15.8237 14.3873 12.0717 14.3873 8.31256 14.3873C8.2341 14.3873 8.15558 14.3802 8.07711 14.3944C7.87738 14.4372 7.75616 14.5657 7.76329 14.7725C7.76329 14.9722 7.88451 15.0935 8.06997 15.1292C8.14843 15.1434 8.22696 15.1363 8.30542 15.1363C10.1814 15.1363 12.0575 15.1363 13.9263 15.1363V15.1292ZM13.9405 16.6271C15.8165 16.6271 17.6926 16.6271 19.5614 16.6271C19.6399 16.6271 19.7184 16.6342 19.7969 16.6271C19.9966 16.5914 20.1178 16.463 20.1178 16.2562C20.1178 16.0493 19.9966 15.928 19.7969 15.8852C19.7256 15.871 19.6542 15.8852 19.59 15.8852C15.8237 15.8852 12.0646 15.8852 8.29828 15.8852C8.22695 15.8852 8.15559 15.8852 8.09139 15.8852C7.89166 15.9209 7.77043 16.0493 7.77043 16.2562C7.77043 16.463 7.89166 16.5914 8.09139 16.6271C8.16986 16.6414 8.24829 16.6271 8.32675 16.6271C10.2028 16.6271 12.0788 16.6271 13.9477 16.6271H13.9405ZM13.3771 13.6241C15.0605 13.6241 16.751 13.6241 18.4344 13.6241C18.5129 13.6241 18.5913 13.6312 18.6698 13.6241C18.8695 13.5884 18.9908 13.46 18.9908 13.2532C18.9908 13.0463 18.8695 12.925 18.6698 12.8822C18.5985 12.8679 18.5272 12.8822 18.463 12.8822C15.0748 12.8822 11.6865 12.8822 8.29828 12.8822C8.22695 12.8822 8.15559 12.8822 8.09139 12.8822C7.89166 12.9179 7.77043 13.0463 7.77043 13.2532C7.77043 13.46 7.89166 13.5884 8.09139 13.6241C8.16986 13.6384 8.24829 13.6241 8.32675 13.6241C10.0102 13.6241 11.7008 13.6241 13.3842 13.6241H13.3771ZM13.3771 18.1251C15.0748 18.1251 16.7653 18.1251 18.463 18.1251C18.5415 18.1251 18.6199 18.1322 18.6984 18.1179C18.8838 18.0751 19.0051 17.9538 19.0051 17.7541C19.0051 17.5473 18.8909 17.4189 18.6841 17.3833C18.627 17.369 18.5628 17.3833 18.4986 17.3833C15.0961 17.3833 11.6865 17.3833 8.284 17.3833C8.23407 17.3833 8.19122 17.3833 8.14128 17.3833C7.92016 17.3975 7.76329 17.5473 7.76329 17.7541C7.76329 17.961 7.90596 18.1179 8.12709 18.1322C8.19842 18.1322 8.2697 18.1322 8.34103 18.1322C10.0173 18.1322 11.7008 18.1322 13.3771 18.1322V18.1251ZM13.3771 19.623C15.0605 19.623 16.751 19.623 18.4344 19.623C18.5129 19.623 18.5913 19.6301 18.6698 19.623C18.8695 19.5873 18.9908 19.459 18.9908 19.2521C18.9908 19.0453 18.8695 18.924 18.6698 18.8812C18.5985 18.8669 18.5272 18.8812 18.463 18.8812C15.0748 18.8812 11.6865 18.8812 8.29828 18.8812C8.22695 18.8812 8.15559 18.8812 8.09139 18.8812C7.89166 18.9169 7.77043 19.0453 7.77043 19.2521C7.77043 19.459 7.89166 19.5873 8.09139 19.623C8.16986 19.6373 8.24829 19.623 8.32675 19.623C10.0102 19.623 11.7008 19.623 13.3842 19.623H13.3771ZM11.7008 21.4206C11.765 21.6132 11.8149 21.7487 11.8577 21.8771C11.9647 22.1838 12.0431 22.248 12.3641 22.248C12.9776 22.248 13.5981 22.248 14.2116 22.248C14.6752 22.248 15.1318 22.248 15.5955 22.248C15.7881 22.248 15.9521 22.1553 15.9735 21.9627C15.9878 21.8343 15.9164 21.6774 15.8308 21.5776C15.7666 21.5062 15.6169 21.499 15.5027 21.499C14.5754 21.499 13.641 21.499 12.7136 21.499C12.5639 21.499 12.4854 21.4633 12.4497 21.3135C12.3998 21.1138 12.3213 20.9141 12.25 20.7144C12.1144 20.3292 11.8291 20.2579 11.5367 20.5432C11.3084 20.7643 11.0873 20.9926 10.8519 21.2351C10.7877 21.121 10.7449 21.0283 10.695 20.9427C10.5737 20.743 10.374 20.693 10.1743 20.8071C10.1101 20.8428 10.053 20.8785 9.99597 20.9213C9.46812 21.3635 8.88317 21.5989 8.17699 21.5062C7.92019 21.4705 7.75615 21.6417 7.74901 21.8628C7.74901 22.0911 7.91307 22.2409 8.18413 22.248C8.50512 22.248 8.82609 22.2623 9.14708 22.248C9.27548 22.248 9.40388 22.2052 9.51088 22.1482C9.7534 22.0126 9.98167 21.8485 10.2242 21.6845C10.2741 21.7772 10.317 21.8557 10.3526 21.9271C10.5524 22.3194 10.7948 22.3621 11.1016 22.0554C11.2941 21.8628 11.4797 21.6631 11.7008 21.4277V21.4206Z" fill="#0671B8"/>
<path d="M21.245 5.00003C23.1139 5.00003 24.6261 6.51946 24.6189 8.38121C24.6189 10.243 23.0996 11.748 21.2236 11.748C19.3689 11.748 17.8638 10.2144 17.8709 8.33837C17.8709 6.50516 19.4046 4.99289 21.245 5.00003Z" fill="#FFB422"/>
<path d="M10.374 10.9204C9.59646 10.364 9.17563 9.60074 8.97591 8.7091C8.86891 8.21691 8.87602 8.21687 9.31114 7.95295C9.61787 7.76749 9.92463 7.57488 10.2385 7.40368C10.317 7.36088 10.4525 7.36088 10.531 7.40368C10.9376 7.63194 11.337 7.8816 11.7364 8.11699C11.8506 8.18119 11.8791 8.25261 11.8649 8.381C11.7365 9.42958 11.2086 10.2498 10.3811 10.9204H10.374Z" fill="#FFB422"/>
<path d="M10.6593 8.29567C10.6593 8.18154 10.588 8.06742 10.4739 8.03175C10.2884 7.96755 10.1029 8.10308 10.1101 8.29567C10.1243 8.59527 10.1458 8.902 10.1672 9.2016C10.1743 9.32286 10.267 9.40849 10.3811 9.41563C10.4953 9.41563 10.588 9.33713 10.6023 9.2016C10.6237 8.902 10.6451 8.6024 10.6665 8.29567H10.6593Z" fill="white"/>
<path d="M10.6165 9.79404C10.6165 9.66565 10.5166 9.55859 10.3882 9.55859C10.2598 9.55859 10.1528 9.66564 10.1528 9.7869C10.1528 9.9153 10.2598 10.0151 10.3811 10.0151C10.5095 10.0151 10.6094 9.9153 10.6094 9.7869L10.6165 9.79404Z" fill="white"/>
<path d="M21.8584 6.59775C21.8584 6.33383 21.7014 6.09124 21.4446 6.00565C21.0381 5.86298 20.6172 6.16263 20.6386 6.59775C20.6671 7.26827 20.7171 7.93874 20.767 8.60926C20.7884 8.88745 20.9882 9.07294 21.2378 9.08007C21.4946 9.08007 21.7015 8.90172 21.7229 8.60926C21.7728 7.94588 21.8156 7.28253 21.8656 6.59775H21.8584Z" fill="white"/>
<path d="M21.7514 9.92891C21.7514 9.64358 21.5232 9.4082 21.245 9.4082C20.9668 9.4082 20.7242 9.64358 20.7242 9.92177C20.7242 10.2 20.9596 10.4353 21.2378 10.4353C21.5232 10.4353 21.7514 10.2142 21.7514 9.92177V9.92891Z" fill="white"/>
</svg>
