<svg width="32" height="32" viewBox="0 0 32 32" fill="none" xmlns="http://www.w3.org/2000/svg">
<path d="M17.4999 27.0001H7.33522C7.14976 27.0001 6.99994 26.8503 6.99994 26.6648V6.32111C6.99994 6.15705 7.13546 6.02148 7.29952 6.02148H18.8409C17.721 6.87746 17.1647 7.99028 17.1147 9.37411C17.0149 9.37411 16.9364 9.37411 16.8508 9.37411C16.0091 9.37411 15.1674 9.37411 14.3185 9.37411C14.2615 9.37411 14.2116 9.37411 14.1545 9.37411C13.912 9.38838 13.755 9.53105 13.7479 9.73791C13.7479 9.95903 13.9048 10.1159 14.1616 10.1159C14.9962 10.1159 15.8308 10.1159 16.6653 10.1159C16.8365 10.1159 17.0077 10.1159 17.1718 10.1159C17.2431 10.3727 17.3073 10.6153 17.3786 10.8649C17.2788 10.8649 17.1932 10.8649 17.1076 10.8649C16.1303 10.8649 15.1531 10.8649 14.183 10.8649C13.862 10.8649 13.6694 11.1003 13.7693 11.3571C13.8477 11.5639 14.0118 11.6138 14.2187 11.6138C15.3386 11.6138 16.4514 11.6138 17.5713 11.6138C17.7139 11.6138 17.8423 11.6852 17.9279 11.7993C18.5128 12.5982 19.2903 13.119 20.2533 13.3615C20.453 13.4114 20.6599 13.4471 20.8668 13.4899C20.8668 13.5327 20.8739 13.5683 20.8739 13.5969C20.8739 14.8594 20.881 24.6747 20.8739 26.7361C20.8739 26.8717 20.7669 26.9858 20.6314 26.9858C19.704 27.0072 18.4914 26.9786 18.6269 26.9858C18.6127 26.6291 19.9252 18.9039 19.8039 19.7671C19.7469 20.5588 19.7683 21.3577 19.754 22.1566C19.754 22.2636 19.754 26.8717 19.754 26.9929C19.1548 26.9929 17.3573 26.9929 16.7866 26.9929C16.3872 26.9929 17.507 22.6132 17.507 23.0127C17.507 24.3394 17.507 25.6662 17.507 26.9929L17.4999 27.0001ZM12.628 9.17436C12.6565 8.89617 12.5781 8.67506 12.1929 8.56806C11.6936 8.4254 11.2156 8.18282 10.8661 7.79763C10.5308 7.43384 10.2598 7.39816 9.92451 7.78335C9.56785 8.18994 9.0614 8.41819 8.54068 8.58226C8.25535 8.66785 8.11273 8.83196 8.13413 9.07449C8.16266 9.32415 8.17693 9.57384 8.22686 9.81636C8.47652 11.0005 9.05429 11.9777 10.0886 12.6482C10.2669 12.7623 10.4453 12.798 10.6307 12.6696C11.822 11.8065 12.5281 10.6723 12.628 9.1815V9.17436ZM13.9262 16.1292C15.8094 16.1292 17.6925 16.1292 19.5757 16.1292C19.647 16.1292 19.7183 16.1292 19.7896 16.1292C19.9965 16.1078 20.1392 15.9437 20.132 15.7511C20.1178 15.5442 20.0036 15.423 19.7968 15.3873C19.7255 15.373 19.6541 15.3873 19.5828 15.3873C15.8236 15.3873 12.0716 15.3873 8.31246 15.3873C8.23399 15.3873 8.15551 15.3802 8.07705 15.3944C7.87732 15.4372 7.75606 15.5657 7.76319 15.7725C7.76319 15.9722 7.88445 16.0935 8.06991 16.1292C8.14837 16.1434 8.22685 16.1363 8.30532 16.1363C10.1813 16.1363 12.0573 16.1363 13.9262 16.1363V16.1292ZM13.9405 17.6271C15.8165 17.6271 17.6925 17.6271 19.5614 17.6271C19.6398 17.6271 19.7183 17.6342 19.7968 17.6271C19.9965 17.5914 20.1178 17.463 20.1178 17.2562C20.1178 17.0493 19.9965 16.928 19.7968 16.8852C19.7255 16.871 19.6541 16.8852 19.5899 16.8852C15.8236 16.8852 12.0645 16.8852 8.29817 16.8852C8.22684 16.8852 8.15553 16.8852 8.09133 16.8852C7.8916 16.9209 7.77033 17.0493 7.77033 17.2562C7.77033 17.463 7.8916 17.5914 8.09133 17.6271C8.16979 17.6414 8.24823 17.6271 8.32669 17.6271C10.2027 17.6271 12.0787 17.6271 13.9476 17.6271H13.9405ZM13.377 14.6241C15.0604 14.6241 16.751 14.6241 18.4344 14.6241C18.5128 14.6241 18.5913 14.6312 18.6697 14.6241C18.8695 14.5884 18.9907 14.46 18.9907 14.2532C18.9907 14.0463 18.8695 13.925 18.6697 13.8822C18.5984 13.8679 18.5271 13.8822 18.4629 13.8822C15.0747 13.8822 11.6864 13.8822 8.29817 13.8822C8.22684 13.8822 8.15553 13.8822 8.09133 13.8822C7.8916 13.9179 7.77033 14.0463 7.77033 14.2532C7.77033 14.46 7.8916 14.5884 8.09133 14.6241C8.16979 14.6384 8.24823 14.6241 8.32669 14.6241C10.0101 14.6241 11.7007 14.6241 13.3841 14.6241H13.377ZM13.377 19.1251C15.0747 19.1251 16.7652 19.1251 18.4629 19.1251C18.5414 19.1251 18.6198 19.1322 18.6983 19.1179C18.8838 19.0751 19.005 18.9538 19.005 18.7541C19.005 18.5473 18.8909 18.4189 18.684 18.3833C18.627 18.369 18.5627 18.3833 18.4986 18.3833C15.096 18.3833 11.6864 18.3833 8.28389 18.3833C8.23396 18.3833 8.19116 18.3833 8.14122 18.3833C7.9201 18.3975 7.76319 18.5473 7.76319 18.7541C7.76319 18.961 7.90586 19.1179 8.12699 19.1322C8.19832 19.1322 8.26964 19.1322 8.34097 19.1322C10.0173 19.1322 11.7007 19.1322 13.377 19.1322V19.1251ZM13.377 20.623C15.0604 20.623 16.751 20.623 18.4344 20.623C18.5128 20.623 18.5913 20.6301 18.6697 20.623C18.8695 20.5873 18.9907 20.459 18.9907 20.2521C18.9907 20.0453 18.8695 19.924 18.6697 19.8812C18.5984 19.8669 18.5271 19.8812 18.4629 19.8812C15.0747 19.8812 11.6864 19.8812 8.29817 19.8812C8.22684 19.8812 8.15553 19.8812 8.09133 19.8812C7.8916 19.9169 7.77033 20.0453 7.77033 20.2521C7.77033 20.459 7.8916 20.5873 8.09133 20.623C8.16979 20.6373 8.24823 20.623 8.32669 20.623C10.0101 20.623 11.7007 20.623 13.3841 20.623H13.377ZM11.7007 22.4206C11.7649 22.6132 11.8148 22.7487 11.8576 22.8771C11.9646 23.1838 12.0431 23.248 12.3641 23.248C12.9775 23.248 13.5981 23.248 14.2115 23.248C14.6752 23.248 15.1317 23.248 15.5954 23.248C15.788 23.248 15.952 23.1553 15.9734 22.9627C15.9877 22.8343 15.9164 22.6774 15.8308 22.5776C15.7666 22.5062 15.6168 22.499 15.5026 22.499C14.5753 22.499 13.6409 22.499 12.7136 22.499C12.5638 22.499 12.4853 22.4633 12.4497 22.3135C12.3997 22.1138 12.3212 21.9141 12.2499 21.7144C12.1144 21.3292 11.8291 21.2579 11.5366 21.5432C11.3083 21.7643 11.0872 21.9926 10.8519 22.2351C10.7877 22.121 10.7448 22.0283 10.6949 21.9427C10.5736 21.743 10.3739 21.693 10.1742 21.8071C10.11 21.8428 10.0529 21.8785 9.99586 21.9213C9.46801 22.3635 8.8831 22.5989 8.17692 22.5062C7.92013 22.4705 7.75604 22.6417 7.74891 22.8628C7.74891 23.0911 7.91296 23.2409 8.18402 23.248C8.50501 23.248 8.82603 23.2623 9.14702 23.248C9.27542 23.248 9.40382 23.2052 9.51082 23.1482C9.75334 23.0126 9.9816 22.8485 10.2241 22.6845C10.2741 22.7772 10.3169 22.8557 10.3525 22.9271C10.5522 23.3194 10.7948 23.3621 11.1015 23.0554C11.2941 22.8628 11.4796 22.6631 11.7007 22.4277V22.4206Z" fill="#0671B8"/>
<path d="M21.252 6.00003C23.1209 6.00003 24.6331 7.51946 24.626 9.38121C24.626 11.243 23.1066 12.748 21.2306 12.748C19.376 12.748 17.8709 11.2144 17.878 9.33837C17.878 7.50516 19.4116 5.99289 21.252 6.00003Z" fill="#FFB422"/>
<path d="M10.3739 11.9204C9.5964 11.364 9.17557 10.6007 8.97585 9.7091C8.86885 9.21691 8.87596 9.21687 9.31108 8.95295C9.61781 8.76749 9.92452 8.57488 10.2384 8.40368C10.3168 8.36088 10.4524 8.36088 10.5309 8.40368C10.9375 8.63194 11.3369 8.8816 11.7364 9.11699C11.8505 9.18119 11.879 9.25261 11.8648 9.381C11.7364 10.4296 11.2085 11.2498 10.3811 11.9204H10.3739Z" fill="#FFB422"/>
<path d="M10.6663 9.29567C10.6663 9.18154 10.595 9.06742 10.4809 9.03175C10.2954 8.96755 10.1099 9.10308 10.1171 9.29567C10.1313 9.59527 10.1528 9.902 10.1742 10.2016C10.1813 10.3229 10.274 10.4085 10.3881 10.4156C10.5023 10.4156 10.595 10.3371 10.6093 10.2016C10.6307 9.902 10.6521 9.6024 10.6735 9.29567H10.6663Z" fill="white"/>
<path d="M10.6163 10.794C10.6163 10.6656 10.5165 10.5586 10.3881 10.5586C10.2597 10.5586 10.1526 10.6656 10.1526 10.7869C10.1526 10.9153 10.2597 11.0151 10.3809 11.0151C10.5093 11.0151 10.6092 10.9153 10.6092 10.7869L10.6163 10.794Z" fill="white"/>
<path d="M23.0496 8.14691C23.0139 8.28244 22.9069 8.36807 22.8213 8.45367C22.5574 8.18974 22.3006 7.93297 22.0367 7.66904C22.1294 7.57631 22.215 7.45499 22.3719 7.43359H22.4647C22.5788 7.45499 22.6573 7.52632 22.7357 7.60478C22.7856 7.65471 22.8356 7.71185 22.8927 7.76178C22.964 7.83311 23.0353 7.90442 23.0567 8.01142V8.14691H23.0496Z" fill="white" stroke="#FFB422" stroke-width="0.0927308" stroke-miterlimit="10"/>
<path d="M21.9297 7.79053C22.1865 8.04732 22.4433 8.30417 22.7001 8.56096C22.0724 9.18868 21.4375 9.82354 20.8098 10.4513C20.553 10.1945 20.2962 9.93762 20.0394 9.68083C20.6671 9.05311 21.302 8.41824 21.9297 7.79053Z" fill="white" stroke="#FFB422" stroke-width="0.0927308" stroke-miterlimit="10"/>
<path d="M19.9608 9.81641C20.2034 10.0589 20.4388 10.2943 20.6742 10.5297C20.3175 10.651 19.9608 10.7651 19.6042 10.8864C19.7255 10.5226 19.8396 10.1731 19.9608 9.81641Z" fill="white" stroke="#FFB422" stroke-width="0.0927308" stroke-miterlimit="10"/>
</svg>
