<svg width="32" height="32" viewBox="0 0 32 32" fill="none" xmlns="http://www.w3.org/2000/svg">
<path d="M11.0897 12.37C10.3813 11.8576 9.98946 11.1642 9.8086 10.3353C9.71064 9.88315 9.71818 9.88321 10.1176 9.64207C10.3964 9.47629 10.6752 9.2954 10.9691 9.13715C11.0369 9.09947 11.165 9.09947 11.2328 9.13715C11.6096 9.34815 11.9713 9.57421 12.3406 9.79275C12.4461 9.85303 12.4687 9.91337 12.4536 10.0339C12.3331 10.9985 11.8508 11.7445 11.0897 12.3624V12.37Z" fill="#FFB422"/>
<path d="M11.3007 9.95845C11.3007 9.85295 11.2329 9.74749 11.1349 9.71735C10.9691 9.65706 10.7958 9.77759 10.8033 9.95845C10.8184 10.2373 10.8335 10.5086 10.8561 10.7874C10.8636 10.9005 10.9465 10.9758 11.052 10.9834C11.1575 10.9834 11.2404 10.908 11.2555 10.7874C11.2781 10.5162 11.2932 10.2373 11.3158 9.95845H11.3007Z" fill="white"/>
<path d="M11.2629 11.3302C11.2629 11.2096 11.1725 11.1191 11.0519 11.1191C10.9389 11.1191 10.8409 11.2171 10.8409 11.3302C10.8409 11.4432 10.9389 11.5412 11.0519 11.5412C11.1725 11.5412 11.2629 11.4507 11.2629 11.3302Z" fill="white"/>
<path d="M22.9659 5H12.6194C12.4235 5 12.2653 5.15823 12.2653 5.35416V6.37155H21.0067C21.2026 6.37155 21.3608 6.52978 21.3608 6.7257V21.8951H22.9659C23.1619 21.8951 23.3201 21.7368 23.3201 21.5408V5.35416C23.3201 5.15823 23.1619 5 22.9659 5Z" fill="#0671B8"/>
<path d="M17.3744 26.1981H8.26375C8.12058 26.1981 8 26.0851 8 25.9344V7.20816C8 7.06498 8.11304 6.94434 8.26375 6.94434H18.1883C18.4143 6.94434 18.5274 7.21568 18.3691 7.38147C17.6683 8.09736 17.3141 8.9715 17.2764 10.019C17.186 10.019 17.1107 10.019 17.0353 10.019C16.2591 10.019 15.4905 10.019 14.7143 10.019C14.6616 10.019 14.6163 10.019 14.5636 10.019C14.3451 10.0265 14.1943 10.1621 14.1943 10.358C14.1943 10.5615 14.3375 10.7047 14.5711 10.7047C15.3398 10.7047 16.1009 10.7047 16.8695 10.7047C17.0278 10.7047 17.1785 10.7047 17.3367 10.7047C17.4045 10.9459 17.4648 11.1568 17.5327 11.3904C17.4422 11.3904 17.3593 11.3904 17.284 11.3904C16.3872 11.3904 15.4905 11.3904 14.6013 11.3904C14.3074 11.3904 14.1341 11.6014 14.217 11.8425C14.2848 12.0309 14.443 12.0762 14.6314 12.0762C15.611 12.0762 16.5907 12.0762 17.5703 12.0762C17.7813 12.0762 17.9773 12.1817 18.1054 12.3475C18.6329 13.0257 19.3186 13.4628 20.1626 13.6738C20.351 13.719 20.5394 13.7491 20.7203 13.7944C20.7203 13.832 20.7278 13.8622 20.7278 13.8923C20.7278 15.0453 20.7353 23.9826 20.7278 25.9193C20.7278 26.0624 20.6148 26.1679 20.4791 26.1755C19.9441 26.183 19.3111 26.1755 18.9494 26.1755C18.7911 26.1755 18.6781 26.0398 18.6932 25.8816C18.8816 24.4874 19.8386 18.8357 19.7406 19.5516C19.6879 20.2751 19.7105 21.0135 19.6954 21.7445C19.6954 21.8274 19.6954 24.9848 19.6954 25.9193C19.6954 26.0624 19.5824 26.1755 19.4392 26.1755C18.7459 26.1755 17.4272 26.1755 16.975 26.1755C16.6133 26.1755 17.6381 22.1514 17.6381 22.5207C17.6381 23.651 17.6381 24.7814 17.6381 25.9117C17.6381 26.0549 17.5251 26.1679 17.3819 26.1679L17.3744 26.1981ZM13.162 9.84565C13.1846 9.64219 13.1394 9.47639 12.951 9.36336C12.4009 9.03932 11.8583 8.70772 11.3157 8.38368C11.1725 8.30079 11.0369 8.29325 10.8937 8.38368C10.3436 8.71525 9.79348 9.04687 9.23584 9.37844C9.09266 9.46134 9.02486 9.58944 9.03993 9.75523C9.06254 9.9813 9.07761 10.2148 9.13036 10.4334C9.35643 11.526 9.89145 12.4153 10.841 13.0332C11.0067 13.1387 11.165 13.1764 11.3383 13.0483C12.431 12.2571 13.0791 11.2172 13.1695 9.8532L13.162 9.84565ZM14.3526 16.2208C16.0783 16.2208 17.8039 16.2208 19.5296 16.2208C19.5974 16.2208 19.6577 16.2208 19.7255 16.2208C19.9139 16.1982 20.0496 16.0475 20.0345 15.8742C20.0194 15.6858 19.9139 15.5727 19.7255 15.5426C19.6653 15.5351 19.5974 15.5426 19.5296 15.5426C16.0858 15.5426 12.6344 15.5426 9.19063 15.5426C9.12281 15.5426 9.04745 15.5426 8.97963 15.5426C8.79878 15.5803 8.68574 15.6933 8.69327 15.8892C8.69327 16.0701 8.80631 16.1831 8.97963 16.2208C9.04745 16.2359 9.12281 16.2284 9.19063 16.2284C10.9088 16.2284 12.6269 16.2284 14.3526 16.2284V16.2208ZM14.3677 17.5998C16.0858 17.5998 17.8039 17.5998 19.5296 17.5998C19.605 17.5998 19.6728 17.5998 19.7406 17.5998C19.929 17.5621 20.0345 17.4491 20.0345 17.2608C20.0345 17.0724 19.9215 16.9594 19.7406 16.9217C19.6803 16.9066 19.6125 16.9217 19.5447 16.9217C16.0933 16.9217 12.6345 16.9217 9.18311 16.9217C9.11529 16.9217 9.055 16.9217 8.98717 16.9217C8.79878 16.9594 8.69327 17.0724 8.69327 17.2608C8.69327 17.4491 8.80632 17.5621 8.98717 17.5998C9.055 17.6149 9.13035 17.5998 9.19817 17.5998C10.9163 17.5998 12.6345 17.5998 14.3601 17.5998H14.3677ZM13.8552 14.8494C15.4 14.8494 16.9524 14.8494 18.4972 14.8494C18.5726 14.8494 18.6404 14.8494 18.7082 14.8494C18.8966 14.8117 19.0021 14.6986 19.0021 14.5102C19.0021 14.3218 18.8891 14.2088 18.7082 14.1711C18.6479 14.1561 18.5801 14.1711 18.5123 14.1711C15.4 14.1711 12.2954 14.1711 9.18311 14.1711C9.11529 14.1711 9.055 14.1711 8.98717 14.1711C8.79878 14.2088 8.69327 14.3218 8.69327 14.5102C8.69327 14.6986 8.80632 14.8117 8.98717 14.8494C9.055 14.8644 9.13035 14.8494 9.19817 14.8494C10.743 14.8494 12.2953 14.8494 13.8402 14.8494H13.8552ZM13.8552 18.9789C15.4076 18.9789 16.9675 18.9789 18.5198 18.9789C18.5877 18.9789 18.663 18.9789 18.7308 18.9714C18.9042 18.9337 19.0096 18.8206 19.0096 18.6398C19.0096 18.4514 18.9042 18.3308 18.7158 18.2931C18.663 18.2781 18.6027 18.2931 18.5424 18.2931C15.4151 18.2931 12.2953 18.2931 9.16802 18.2931C9.12281 18.2931 9.08514 18.2931 9.03993 18.2931C8.83647 18.3082 8.69327 18.4438 8.69327 18.6322C8.69327 18.8206 8.82892 18.9638 9.03239 18.9789C9.10021 18.9789 9.1605 18.9789 9.22832 18.9789C10.7656 18.9789 12.3104 18.9789 13.8477 18.9789H13.8552ZM13.8552 20.3579C15.4 20.3579 16.9524 20.3579 18.4972 20.3579C18.5726 20.3579 18.6404 20.3579 18.7082 20.3579C18.8966 20.3202 19.0021 20.2072 19.0021 20.0188C19.0021 19.8305 18.8891 19.7174 18.7082 19.6797C18.6479 19.6646 18.5801 19.6797 18.5123 19.6797C15.4 19.6797 12.2954 19.6797 9.18311 19.6797C9.11529 19.6797 9.055 19.6797 8.98717 19.6797C8.79878 19.7174 8.69327 19.8305 8.69327 20.0188C8.69327 20.2072 8.80632 20.3202 8.98717 20.3579C9.055 20.373 9.13035 20.3579 9.19817 20.3579C10.743 20.3579 12.2953 20.3579 13.8402 20.3579H13.8552ZM12.3179 22.0083C12.3782 22.1891 12.4234 22.3097 12.4611 22.4302C12.5591 22.7091 12.6344 22.7693 12.9283 22.7693C13.4935 22.7693 14.0587 22.7693 14.6239 22.7693C15.0459 22.7693 15.4679 22.7693 15.8899 22.7693C16.0707 22.7693 16.2139 22.6789 16.2365 22.5131C16.2516 22.4001 16.1838 22.2494 16.1084 22.159C16.0481 22.0987 15.9125 22.0836 15.807 22.0836C14.9554 22.0836 14.1039 22.0836 13.2524 22.0836C13.1167 22.0836 13.0489 22.0535 13.0112 21.9103C12.966 21.7219 12.8907 21.541 12.8304 21.3601C12.7098 21.006 12.4461 20.9457 12.1823 21.2095C11.9713 21.4129 11.7679 21.6239 11.5569 21.8424C11.4966 21.7369 11.4589 21.6541 11.4137 21.5787C11.3006 21.3978 11.1198 21.3526 10.9314 21.4506C10.8786 21.4807 10.8183 21.5184 10.7731 21.5561C10.2908 21.963 9.74828 22.1816 9.10021 22.0912C8.8666 22.061 8.71589 22.2192 8.70836 22.4227C8.70836 22.6337 8.85907 22.7693 9.10775 22.7768C9.40164 22.7768 9.69552 22.7844 9.98941 22.7768C10.11 22.7768 10.2381 22.7316 10.3511 22.6713C10.5621 22.5508 10.7656 22.4001 10.9841 22.2569C11.0293 22.3474 11.067 22.4151 11.1047 22.4829C11.2856 22.8447 11.5116 22.8824 11.7905 22.6035C11.9638 22.4227 12.1371 22.2418 12.3405 22.0233L12.3179 22.0083Z" fill="#0671B8"/>
<path d="M20.4339 14.51L17.1935 13.7715C17.0805 13.7489 17.0051 13.6509 17.0051 13.5379V7.19285C17.0051 7.05721 17.1106 6.95166 17.2463 6.95166H20.4866C20.6223 6.95166 20.7278 7.05721 20.7278 7.19285V14.2689C20.7278 14.4271 20.5846 14.5401 20.4339 14.5024V14.51Z" fill="#0671B8"/>
<path d="M18.5198 11.4126H14.5108C14.3194 11.4126 14.1642 11.5661 14.1642 11.7554C14.1642 11.9448 14.3194 12.0984 14.5108 12.0984H18.5198C18.7113 12.0984 18.8665 11.9448 18.8665 11.7554C18.8665 11.5661 18.7113 11.4126 18.5198 11.4126Z" fill="white"/>
<path d="M18.5198 10.0337H14.5108C14.3194 10.0337 14.1642 10.1872 14.1642 10.3765C14.1642 10.5659 14.3194 10.7194 14.5108 10.7194H18.5198C18.7113 10.7194 18.8665 10.5659 18.8665 10.3765C18.8665 10.1872 18.7113 10.0337 18.5198 10.0337Z" fill="white"/>
</svg>
