<svg width="32" height="32" viewBox="0 0 32 32" fill="none" xmlns="http://www.w3.org/2000/svg">
<path d="M17.72 26.4402H7.34231C7.15296 26.4402 7 26.2873 7 26.0979V5.32787C7 5.16037 7.13836 5.02197 7.30586 5.02197H19.0892C17.9458 5.89589 17.3777 7.03203 17.3267 8.44485C17.2248 8.44485 17.1447 8.44485 17.0573 8.44485C16.1979 8.44485 15.3386 8.44485 14.472 8.44485C14.4137 8.44485 14.3627 8.44485 14.3045 8.44485C14.0569 8.45942 13.8967 8.60508 13.8894 8.81628C13.8894 9.04204 14.0496 9.20219 14.3118 9.20219C15.1638 9.20219 16.0159 9.20219 16.8679 9.20219C17.0427 9.20219 17.2175 9.20219 17.385 9.20219C17.4578 9.46436 17.5234 9.712 17.5962 9.9669C17.4942 9.9669 17.4068 9.9669 17.3195 9.9669C16.3217 9.9669 15.324 9.9669 14.3336 9.9669C14.0059 9.9669 13.8092 10.2072 13.9112 10.4694C13.9913 10.6805 14.1588 10.7315 14.37 10.7315C15.5134 10.7315 16.6495 10.7315 17.7928 10.7315C17.9385 10.7315 18.0696 10.8044 18.157 10.9209C18.7541 11.7365 19.548 12.2682 20.5311 12.5158C20.735 12.5668 20.9462 12.6032 21.1574 12.6468C21.1574 12.6905 21.1647 12.727 21.1647 12.7561C21.1647 14.0451 21.172 24.066 21.1647 26.1707C21.1647 26.3091 21.0554 26.4256 20.9171 26.4256C19.9703 26.4474 18.7323 26.4183 18.8707 26.4256C18.8561 26.0615 20.1961 18.1744 20.0723 19.0556C20.014 19.864 20.0359 20.6796 20.0213 21.4952C20.0213 21.6045 20.0213 26.3091 20.0213 26.4329C19.4096 26.4329 17.5744 26.4329 16.9918 26.4329C16.5839 26.4329 17.7273 21.9614 17.7273 22.3692C17.7273 23.7238 17.7273 25.0783 17.7273 26.4329L17.72 26.4402ZM12.746 8.24092C12.7751 7.9569 12.695 7.73115 12.3018 7.62192C11.792 7.47626 11.304 7.2286 10.9472 6.83534C10.6049 6.46392 10.3282 6.4275 9.9859 6.82076C9.62177 7.23587 9.1047 7.46891 8.57307 7.63641C8.28177 7.7238 8.13611 7.89134 8.15796 8.13895C8.18709 8.39384 8.20165 8.64876 8.25263 8.89637C8.50752 10.1053 9.09741 11.103 10.1534 11.7875C10.3354 11.9041 10.5175 11.9405 10.7069 11.8094C11.9231 10.9282 12.644 9.77028 12.746 8.24821V8.24092ZM14.0714 15.3415C15.994 15.3415 17.9166 15.3415 19.8393 15.3415C19.9121 15.3415 19.9849 15.3415 20.0577 15.3415C20.2689 15.3196 20.4146 15.1521 20.4073 14.9555C20.3928 14.7443 20.2762 14.6205 20.065 14.584C19.9922 14.5695 19.9194 14.584 19.8465 14.584C16.0086 14.584 12.178 14.584 8.34002 14.584C8.25991 14.584 8.17979 14.5768 8.09968 14.5913C7.89577 14.635 7.77196 14.7661 7.77925 14.9773C7.77925 15.1813 7.90304 15.3051 8.09239 15.3415C8.1725 15.356 8.25262 15.3488 8.33273 15.3488C10.2481 15.3488 12.1634 15.3488 14.0714 15.3488V15.3415ZM14.086 16.8708C16.0013 16.8708 17.9166 16.8708 19.8247 16.8708C19.9048 16.8708 19.9849 16.8781 20.065 16.8708C20.2689 16.8344 20.3927 16.7033 20.3927 16.4921C20.3927 16.2809 20.2689 16.1571 20.065 16.1134C19.9922 16.0988 19.9194 16.1134 19.8538 16.1134C16.0086 16.1134 12.1707 16.1134 8.32544 16.1134C8.25262 16.1134 8.1798 16.1134 8.11426 16.1134C7.91035 16.1498 7.78653 16.2809 7.78653 16.4921C7.78653 16.7033 7.91035 16.8344 8.11426 16.8708C8.19437 16.8854 8.27445 16.8708 8.35456 16.8708C10.2699 16.8708 12.1852 16.8708 14.0933 16.8708H14.086ZM13.5107 13.8048C15.2294 13.8048 16.9554 13.8048 18.6741 13.8048C18.7542 13.8048 18.8342 13.8121 18.9143 13.8048C19.1183 13.7684 19.2421 13.6373 19.2421 13.4261C19.2421 13.2149 19.1183 13.0911 18.9143 13.0474C18.8415 13.0329 18.7687 13.0474 18.7032 13.0474C15.2439 13.0474 11.7847 13.0474 8.32544 13.0474C8.25262 13.0474 8.1798 13.0474 8.11426 13.0474C7.91035 13.0838 7.78653 13.2149 7.78653 13.4261C7.78653 13.6373 7.91035 13.7684 8.11426 13.8048C8.19437 13.8194 8.27445 13.8048 8.35456 13.8048C10.0733 13.8048 11.7993 13.8048 13.5179 13.8048H13.5107ZM13.5107 18.4001C15.2439 18.4001 16.9699 18.4001 18.7032 18.4001C18.7833 18.4001 18.8634 18.4074 18.9435 18.3928C19.1329 18.3491 19.2567 18.2253 19.2567 18.0214C19.2567 17.8102 19.1401 17.6792 18.9289 17.6428C18.8707 17.6282 18.8051 17.6428 18.7396 17.6428C15.2658 17.6428 11.7847 17.6428 8.31086 17.6428C8.25988 17.6428 8.21622 17.6428 8.16525 17.6428C7.93948 17.6574 7.77925 17.8102 7.77925 18.0214C7.77925 18.2326 7.9249 18.3929 8.15067 18.4074C8.22349 18.4074 8.29631 18.4074 8.36914 18.4074C10.0805 18.4074 11.7992 18.4074 13.5107 18.4074V18.4001ZM13.5107 19.9295C15.2294 19.9295 16.9554 19.9295 18.6741 19.9295C18.7542 19.9295 18.8342 19.9367 18.9143 19.9295C19.1183 19.893 19.2421 19.762 19.2421 19.5508C19.2421 19.3396 19.1183 19.2158 18.9143 19.1721C18.8415 19.1576 18.7687 19.1721 18.7032 19.1721C15.2439 19.1721 11.7847 19.1721 8.32544 19.1721C8.25262 19.1721 8.1798 19.1721 8.11426 19.1721C7.91035 19.2085 7.78653 19.3396 7.78653 19.5508C7.78653 19.762 7.91035 19.893 8.11426 19.9295C8.19437 19.944 8.27445 19.9295 8.35456 19.9295C10.0733 19.9295 11.7993 19.9295 13.5179 19.9295H13.5107ZM11.7993 21.7647C11.8648 21.9613 11.9158 22.0997 11.9595 22.2308C12.0687 22.5439 12.1488 22.6095 12.4765 22.6095C13.1028 22.6095 13.7364 22.6095 14.3627 22.6095C14.8361 22.6095 15.3022 22.6095 15.7755 22.6095C15.9722 22.6095 16.1397 22.5148 16.1615 22.3182C16.1761 22.1871 16.1033 22.0269 16.0159 21.925C15.9503 21.8522 15.7974 21.8448 15.6809 21.8448C14.7341 21.8448 13.7801 21.8448 12.8334 21.8448C12.6804 21.8448 12.6003 21.8084 12.5639 21.6554C12.5129 21.4515 12.4328 21.2476 12.36 21.0437C12.2216 20.6505 11.9303 20.5776 11.6317 20.8689C11.3987 21.0947 11.173 21.3277 10.9326 21.5753C10.8671 21.4588 10.8234 21.3642 10.7724 21.2768C10.6486 21.0729 10.4447 21.0219 10.2408 21.1384C10.1752 21.1748 10.117 21.2113 10.0587 21.2549C9.51979 21.7065 8.92263 21.9468 8.20165 21.8521C7.93948 21.8157 7.77195 21.9905 7.76467 22.2162C7.76467 22.4493 7.9322 22.6022 8.20894 22.6095C8.53666 22.6095 8.86436 22.6241 9.19207 22.6095C9.32316 22.6095 9.45426 22.5658 9.56349 22.5075C9.8111 22.3692 10.0441 22.2016 10.2918 22.0341C10.3427 22.1288 10.3864 22.209 10.4228 22.2818C10.6268 22.6824 10.8744 22.726 11.1875 22.4129C11.3841 22.2162 11.5735 22.0123 11.7993 21.772V21.7647Z" fill="#0671B8"/>
<path d="M21.5434 5.00003C23.4514 5.00003 24.9953 6.5513 24.988 8.45207C24.988 10.3528 23.4368 11.8894 21.5215 11.8894C19.628 11.8894 18.0914 10.3237 18.0987 8.40833C18.0987 6.5367 19.6645 4.99274 21.5434 5.00003Z" fill="#FFB422"/>
<path d="M10.4447 11.0445C9.65093 10.4765 9.22124 9.69726 9.01733 8.78693C8.90809 8.28443 8.91535 8.28439 9.35959 8.01493C9.67275 7.82559 9.98593 7.62894 10.3064 7.45416C10.3865 7.41046 10.5248 7.41046 10.6049 7.45416C11.02 7.6872 11.4279 7.94209 11.8357 8.18242C11.9522 8.24796 11.9813 8.32087 11.9668 8.45196C11.8357 9.52251 11.2968 10.36 10.452 11.0445H10.4447Z" fill="#FFB422"/>
<path d="M10.736 8.36453C10.736 8.24801 10.6631 8.13149 10.5466 8.09508C10.3573 8.02953 10.1679 8.1679 10.1752 8.36453C10.1898 8.6704 10.2116 8.98357 10.2335 9.28944C10.2407 9.41324 10.3354 9.50067 10.4519 9.50795C10.5685 9.50795 10.6631 9.42781 10.6777 9.28944C10.6995 8.98357 10.7214 8.67768 10.7433 8.36453H10.736Z" fill="white"/>
<path d="M10.6923 9.8937C10.6923 9.76262 10.5904 9.65332 10.4593 9.65332C10.3282 9.65332 10.2189 9.76261 10.2189 9.88641C10.2189 10.0175 10.3282 10.1194 10.452 10.1194C10.5831 10.1194 10.685 10.0175 10.685 9.88641L10.6923 9.8937Z" fill="white"/>
<path d="M21.0263 8.77985C20.8734 8.61235 20.7496 8.45942 20.6112 8.32833C20.4292 8.15355 20.2107 8.15354 20.0432 8.31376C19.883 8.47397 19.8757 8.69976 20.0432 8.88182C20.2762 9.12943 20.5166 9.36974 20.7642 9.5955C20.939 9.75572 21.1429 9.763 21.3104 9.5955C21.9003 9.01289 22.4901 8.43025 23.0655 7.83308C23.2257 7.66558 23.2039 7.43253 23.0509 7.28688C22.898 7.13395 22.6868 7.12666 22.5047 7.28688C22.4101 7.36699 22.3226 7.46166 22.2352 7.55633C21.842 7.9496 21.456 8.35018 21.0263 8.77985Z" fill="white"/>
</svg>
