<svg width="32" height="32" viewBox="0 0 32 32" fill="none" xmlns="http://www.w3.org/2000/svg">
<path d="M16.4961 26.9997H6.29349C6.1313 26.9997 6 26.8684 6 26.7062V6.46306C6 6.21591 6.20082 6.01514 6.44797 6.01514H17.8477C16.7278 6.87244 16.1717 7.98459 16.1177 9.3748C16.0173 9.3748 15.94 9.3748 15.8551 9.3748C15.0132 9.3748 14.1714 9.3748 13.3218 9.3748C13.2677 9.3748 13.2137 9.3748 13.1596 9.3748C12.9202 9.38252 12.758 9.52934 12.758 9.73787C12.758 9.96185 12.9125 10.1163 13.1673 10.1163C14.0015 10.1163 14.8356 10.1163 15.6775 10.1163C15.8474 10.1163 16.0173 10.1163 16.1872 10.1163C16.2567 10.3789 16.3262 10.6106 16.3957 10.8655C16.2953 10.8655 16.2104 10.8655 16.1254 10.8655C15.1523 10.8655 14.1714 10.8655 13.1982 10.8655C12.8816 10.8655 12.6885 11.0972 12.7812 11.3598C12.8584 11.5683 13.0283 11.6146 13.2291 11.6146C14.349 11.6146 15.4612 11.6146 16.5811 11.6146C16.7355 11.6146 16.836 11.6609 16.9286 11.7845C17.5156 12.5955 18.2957 13.1207 19.2611 13.3601C19.4619 13.4142 19.6705 13.4451 19.8713 13.4914C19.8944 13.7231 20.1493 13.5455 19.3924 14.9125C18.9058 15.7853 19.5005 16.6657 19.8249 17.4689C19.879 17.6002 19.8404 17.7547 19.74 17.8551C19.2148 18.3957 18.8518 19.0214 18.7977 19.7706C18.7359 20.5661 18.7591 21.3616 18.7514 22.1571C18.7514 22.2652 18.7514 22.3733 18.7514 22.4891C18.1567 22.4891 17.5851 22.4891 17.0136 22.4891C16.612 22.4891 16.5039 22.605 16.4961 23.0066C16.4961 24.3351 16.4961 25.6635 16.4961 26.9919V26.9997ZM11.6227 9.16625C11.6536 8.86504 11.5609 8.63338 11.0975 8.53298C10.6109 8.42485 10.1861 8.13137 9.83854 7.76837C9.55277 7.46715 9.31336 7.40535 9.03532 7.6525C8.58736 8.04639 8.09305 8.39399 7.52924 8.57163C7.2512 8.65659 7.10446 8.81878 7.12763 9.05821C7.15081 9.30536 7.17397 9.5602 7.22031 9.79963C7.46746 10.989 8.04672 11.9622 9.08166 12.6342C9.26702 12.75 9.43692 12.7885 9.62228 12.6495C10.8117 11.7845 11.5223 10.6491 11.6149 9.16625H11.6227ZM12.9202 16.1173C14.8047 16.1173 16.6892 16.1173 18.566 16.1173C18.6355 16.1173 18.705 16.1173 18.7745 16.1173C18.9753 16.0942 19.1298 15.932 19.1144 15.7389C19.0989 15.5304 18.9831 15.4068 18.7823 15.3759C18.7127 15.3682 18.6432 15.3759 18.5737 15.3759C14.8202 15.3759 11.0588 15.3759 7.30526 15.3759C7.22802 15.3759 7.14308 15.3682 7.07357 15.3759C6.87276 15.4145 6.7569 15.5458 6.7569 15.7543C6.7569 15.9474 6.88047 16.0711 7.06583 16.1097C7.14307 16.1251 7.22032 16.1173 7.29755 16.1173C9.17434 16.1173 11.0434 16.1173 12.9202 16.1173ZM12.9356 17.6157C14.8124 17.6157 16.6815 17.6157 18.5583 17.6157C18.6355 17.6157 18.7128 17.6234 18.79 17.6157C18.9908 17.5771 19.1144 17.4535 19.1144 17.245C19.1144 17.0365 18.9908 16.9129 18.79 16.8743C18.7205 16.8588 18.651 16.8743 18.5814 16.8743C14.8124 16.8743 11.0511 16.8743 7.28209 16.8743C7.21258 16.8743 7.14308 16.8743 7.07357 16.8743C6.87276 16.9129 6.74917 17.0365 6.74917 17.245C6.74917 17.4535 6.87276 17.5771 7.07357 17.6157C7.1508 17.6312 7.22802 17.6157 7.30526 17.6157C9.18205 17.6157 11.0511 17.6157 12.9279 17.6157H12.9356ZM12.3718 14.619C14.0555 14.619 15.747 14.619 17.4307 14.619C17.5079 14.619 17.5851 14.6267 17.6624 14.619C17.8632 14.5804 17.9867 14.4569 17.9867 14.2483C17.9867 14.0398 17.8632 13.9162 17.6624 13.8776C17.5928 13.8622 17.5233 13.8776 17.4538 13.8776C14.0633 13.8776 10.6727 13.8776 7.28209 13.8776C7.21258 13.8776 7.14308 13.8776 7.07357 13.8776C6.87276 13.9162 6.74917 14.0398 6.74917 14.2483C6.74917 14.4569 6.87276 14.5804 7.07357 14.619C7.1508 14.6345 7.22802 14.619 7.30526 14.619C8.98896 14.619 10.6804 14.619 12.3641 14.619H12.3718ZM12.3718 19.1217C14.0632 19.1217 15.7624 19.1217 17.4538 19.1217C17.5311 19.1217 17.616 19.1295 17.6855 19.114C17.8709 19.0754 17.9945 18.9518 17.9945 18.751C17.9945 18.5425 17.8786 18.4189 17.6778 18.3803C17.616 18.3649 17.5542 18.3803 17.4924 18.3803C14.0864 18.3803 10.6804 18.3803 7.27438 18.3803C7.22804 18.3803 7.18168 18.3803 7.13534 18.3803C6.91136 18.3958 6.7569 18.5425 6.7569 18.751C6.7569 18.9518 6.90366 19.114 7.12763 19.1295C7.19715 19.1295 7.26665 19.1295 7.33616 19.1295C9.01214 19.1295 10.6958 19.1295 12.3718 19.1295V19.1217ZM12.3718 20.6201C14.0555 20.6201 15.747 20.6201 17.4307 20.6201C17.5079 20.6201 17.5851 20.6279 17.6624 20.6201C17.8632 20.5815 17.9867 20.458 17.9867 20.2494C17.9867 20.0409 17.8632 19.9172 17.6624 19.8786C17.5928 19.8632 17.5233 19.8786 17.4538 19.8786C14.0633 19.8786 10.6727 19.8786 7.28209 19.8786C7.21258 19.8786 7.14308 19.8786 7.07357 19.8786C6.87276 19.9172 6.74917 20.0409 6.74917 20.2494C6.74917 20.458 6.87276 20.5815 7.07357 20.6201C7.1508 20.6356 7.22802 20.6201 7.30526 20.6201C8.98896 20.6201 10.6804 20.6201 12.3641 20.6201H12.3718ZM10.6958 22.4197C10.7654 22.6127 10.8117 22.744 10.8503 22.8753C10.9585 23.1842 11.0357 23.2461 11.36 23.2461C11.9779 23.2461 12.5958 23.2461 13.2137 23.2461C13.6771 23.2461 14.1328 23.2461 14.5962 23.2461C14.7892 23.2461 14.9515 23.1534 14.9746 22.9603C14.9901 22.8368 14.9205 22.6746 14.8356 22.5742C14.7738 22.5047 14.6193 22.4969 14.5112 22.4969C13.5844 22.4969 12.6499 22.4969 11.723 22.4969C11.5763 22.4969 11.4991 22.4583 11.4605 22.3115C11.4064 22.1107 11.3292 21.91 11.2597 21.7092C11.1361 21.3539 10.8117 21.2843 10.5414 21.5469C10.3174 21.7709 10.0934 21.9949 9.86171 22.2343C9.79992 22.1184 9.75358 22.0258 9.69952 21.9408C9.59139 21.7632 9.3597 21.7014 9.17433 21.8018C9.11255 21.8327 9.05075 21.8713 8.99669 21.9176C8.47149 22.3656 7.88453 22.5973 7.17397 22.4969C6.9191 22.4583 6.74917 22.636 6.74917 22.8522C6.74917 23.0762 6.91138 23.2307 7.1817 23.2384C7.49836 23.2384 7.81501 23.2538 8.13167 23.2384C8.27069 23.2384 8.40199 23.192 8.51784 23.1302C8.75726 22.9989 8.98125 22.8291 9.22067 22.6746C9.27474 22.7673 9.31336 22.8445 9.35198 22.9217C9.55279 23.3156 9.79222 23.3542 10.1012 23.053C10.2942 22.8599 10.4796 22.6591 10.6958 22.4197Z" fill="#0671B8"/>
<path d="M26.9923 22.4973H25.8492C25.9264 21.5782 25.6793 20.7982 24.9996 20.1803C24.459 19.686 23.8179 19.462 23.0919 19.5006C21.7712 19.5624 20.466 20.6978 20.6204 22.4819H19.516C19.516 22.4819 19.4928 22.4047 19.4928 22.3583C19.4928 21.6323 19.4851 20.9063 19.4928 20.1803C19.5237 18.7824 20.6513 17.6471 22.057 17.6239C22.8371 17.6084 23.6171 17.6084 24.3972 17.6239C25.6793 17.6393 26.7219 18.5429 26.9459 19.8096C26.9459 19.8482 26.9768 19.8791 26.9845 19.9177V22.4973H26.9923Z" fill="#0671B8"/>
<path d="M21.748 27V23.2695H22.4972V27H21.748Z" fill="#0671B8"/>
<path d="M26.9923 24.0031H23.2618V23.2539H26.9923V24.0031Z" fill="#0671B8"/>
<path d="M26.9923 25.5016H23.2618V24.7524H26.9923V25.5016Z" fill="#0671B8"/>
<path d="M17.2454 26.9999V26.2661H20.9912V26.9999H17.2454Z" fill="#0671B8"/>
<path d="M23.2463 27.0002V26.251H26.9922V27.0002H23.2463Z" fill="#0671B8"/>
<path d="M20.2419 6C22.1109 6 23.6247 7.51379 23.617 9.38286C23.617 11.2519 22.0955 12.7503 20.2187 12.7503C18.3573 12.7503 16.859 11.2211 16.8667 9.3443C16.8667 7.51385 18.4037 6 20.2419 6ZM19.485 9.98531C19.3151 9.80767 19.176 9.63774 19.0138 9.491C18.8439 9.33653 18.6354 9.33651 18.4886 9.47553C18.3342 9.62228 18.3265 9.84631 18.4886 10.0162C18.7281 10.2634 18.9675 10.5028 19.2147 10.7422C19.3614 10.8812 19.5545 10.9353 19.7012 10.7886C20.489 10.024 21.2691 9.24387 22.0337 8.45609C22.1804 8.30934 22.1418 8.11625 21.9951 7.96951C21.8483 7.82276 21.6707 7.82274 21.5085 7.94631C21.4544 7.98493 21.4081 8.03904 21.354 8.09311C20.7439 8.70326 20.1337 9.32108 19.4772 9.97757L19.485 9.98531Z" fill="#FFB422"/>
<path d="M25.2544 14.6347C24.9763 15.1908 24.6751 15.716 24.4511 16.2643C24.2581 16.7432 23.9955 16.9594 23.4625 16.8745C23.1536 16.8282 22.8215 16.8745 22.5049 16.859C22.4353 16.859 22.3349 16.8281 22.3118 16.7741C21.9488 16.0713 21.5935 15.353 21.2305 14.627H25.2467L25.2544 14.6347Z" fill="#0671B8"/>
<path d="M21.4237 22.4818C21.2383 21.8408 21.5472 21.0375 22.1497 20.605C22.7984 20.1416 23.648 20.1261 24.2968 20.5741C24.9224 21.0066 25.2468 21.8021 25.0614 22.4972H24.0033C23.9647 22.1651 23.8025 21.9103 23.4781 21.779C23.5013 21.7635 23.509 21.7481 23.5167 21.7481C23.8334 21.7249 24.0033 21.5858 23.9878 21.3464C23.9724 21.1147 23.8102 20.9912 23.5013 20.9912C23.424 20.9912 23.3468 20.9912 23.2696 20.9912C22.8911 20.9912 22.5976 21.2229 22.5127 21.5704C22.4277 21.8948 22.5822 22.2114 22.8911 22.4045C22.922 22.4277 22.9606 22.4432 23.0224 22.4818H21.4159H21.4237Z" fill="#0671B8"/>
<path d="M20.9836 23.2622V23.9883H17.2609V23.2622H20.9836Z" fill="#0671B8"/>
<path d="M17.2531 25.4858V24.7676H20.9835V25.4858H17.2531Z" fill="#0671B8"/>
<path d="M9.36754 11.9239C8.5952 11.3678 8.17042 10.6032 7.96961 9.70731C7.86148 9.21302 7.8692 9.21303 8.30171 8.95044C8.61065 8.76507 8.91187 8.57192 9.22853 8.40201C9.30576 8.36339 9.44478 8.36339 9.51429 8.40201C9.92363 8.63371 10.3175 8.8809 10.7191 9.12033C10.835 9.18212 10.8582 9.2516 10.8427 9.3829C10.7114 10.4333 10.1862 11.252 9.35981 11.9239H9.36754Z" fill="#FFB422"/>
<path d="M9.57593 9.25168C9.57593 9.13583 9.50643 9.02763 9.39058 8.98901C9.20522 8.92723 9.01985 9.0585 9.02758 9.25931C9.04302 9.56053 9.05848 9.86177 9.08165 10.163C9.08937 10.2866 9.18204 10.3715 9.29017 10.3715C9.40602 10.3715 9.4987 10.2943 9.50642 10.163C9.52959 9.86177 9.54505 9.56825 9.56823 9.25931L9.57593 9.25168Z" fill="white"/>
<path d="M9.52957 10.7498C9.52957 10.6185 9.42918 10.5181 9.29788 10.5181C9.1743 10.5181 9.06616 10.6262 9.06616 10.7498C9.06616 10.8734 9.1743 10.9815 9.29788 10.9815C9.42918 10.9815 9.52957 10.8811 9.52957 10.7498Z" fill="white"/>
</svg>
