<svg width="32" height="32" viewBox="0 0 32 32" fill="none" xmlns="http://www.w3.org/2000/svg">
<path d="M4.00909 17.8424C4.00909 17.8424 4.03635 17.8242 4.04543 17.8151C4.64493 16.3981 5.2535 14.9812 5.84392 13.5551C6.08917 12.9465 6.5161 12.6831 7.16102 12.6831C8.60527 12.7013 10.0495 12.6831 11.4847 12.6831C11.5664 12.6831 11.6482 12.6831 11.7299 12.6831V24.0917H10.8943C10.867 23.3106 10.5945 22.6384 10.0404 22.0934C9.48634 21.5484 8.81419 21.2759 8.0421 21.285C7.3881 21.285 6.79769 21.4939 6.28902 21.9117C5.60777 22.4658 5.26259 23.2015 5.22626 24.0736C4.43601 24.1826 4.22708 24.0373 4 23.574C4 21.6574 4 19.7499 4 17.8333L4.00909 17.8424ZM10.1131 17.7243C10.5309 17.7243 10.6853 17.5699 10.6944 17.152C10.6944 16.3255 10.6944 15.4989 10.6944 14.6723C10.6944 14.2726 10.5309 14.1091 10.1313 14.1091C9.27743 14.1091 8.41452 14.1091 7.56069 14.1091C7.2791 14.1091 7.09743 14.2182 6.98843 14.4816C6.59785 15.4172 6.19818 16.3527 5.79851 17.2883C5.67135 17.5971 5.74402 17.7152 6.08919 17.7243C6.77044 17.7243 7.4426 17.7243 8.12385 17.7243C8.78693 17.7243 9.45002 17.7243 10.1131 17.7243Z" fill="#0671B8"/>
<path d="M26.9627 16.6343C22.1303 16.6343 17.3162 16.6343 12.4929 16.6343C12.4929 19.1322 12.4929 21.6119 12.4929 24.1099C14.5003 24.1099 16.5168 24.1099 18.5424 24.1099C18.5879 23.2106 18.933 22.4477 19.6506 21.8936C20.1774 21.4848 20.7769 21.294 21.44 21.3031C22.203 21.3213 22.8479 21.6119 23.3838 22.1478C23.8562 22.6202 24.0106 22.9835 24.2195 24.128C24.4466 24.128 24.6828 24.128 24.928 24.128C25.2641 24.128 25.6093 24.128 25.9454 24.128C26.5994 24.119 26.9627 23.7465 26.9627 23.1016C26.9627 21.0215 26.9627 18.9505 26.9627 16.8705C26.9627 16.7978 26.9627 16.716 26.9627 16.6343Z" fill="#0671B8"/>
<path d="M26.9626 14.5999C26.9626 13.2465 26.9626 11.9112 26.9626 10.5759C26.9626 10.149 26.5993 9.79485 26.1724 9.74035C26.0725 9.73127 25.9725 9.72217 25.8726 9.72217C21.776 9.72217 17.6795 9.72217 13.5738 9.72217C13.3104 9.72217 13.0651 9.74938 12.8471 9.91288C12.611 10.0945 12.4838 10.3398 12.4838 10.6305C12.4838 11.9294 12.4838 13.2193 12.4838 14.5182C12.4838 14.5364 12.4929 14.5636 12.5019 14.5908C17.3161 14.5908 22.1303 14.5908 26.9626 14.5908V14.5999Z" fill="#0671B8"/>
<path d="M19.2965 24.1283C19.2874 22.9838 20.223 22.0391 21.3766 22.0391C22.5302 22.0391 23.4566 22.9656 23.4566 24.1283C23.4566 25.2819 22.5302 26.1993 21.3766 26.1993C20.2321 26.1993 19.3055 25.2819 19.2965 24.1283ZM21.3947 25.1547C21.9579 25.1547 22.4211 24.6733 22.4211 24.1101C22.4211 23.5378 21.9488 23.0655 21.3766 23.0655C20.8043 23.0655 20.3411 23.5379 20.3411 24.1192C20.3411 24.7005 20.8134 25.1547 21.3947 25.1456V25.1547Z" fill="#0671B8"/>
<path d="M8.05123 22.0391C9.20481 22.0391 10.1495 22.9656 10.1404 24.1192C10.1404 25.2637 9.21389 26.1902 8.06938 26.1993C6.9158 26.1993 5.98022 25.2819 5.98022 24.1192C5.98022 22.9656 6.89764 22.0481 8.05123 22.0391ZM8.05123 23.0746C7.47898 23.0746 7.00663 23.556 7.01571 24.1283C7.01571 24.6914 7.48806 25.1547 8.05123 25.1547C8.62348 25.1547 9.09581 24.6914 9.09581 24.1101C9.09581 23.5288 8.63256 23.0655 8.05123 23.0655V23.0746Z" fill="#0671B8"/>
<path d="M22.9826 16.0349C25.7536 16.0349 28 13.7884 28 11.0174C28 8.2463 25.7536 6 22.9826 6C20.2115 6 17.9651 8.2463 17.9651 11.0174C17.9651 13.7884 20.2115 16.0349 22.9826 16.0349Z" fill="#FFB422" stroke="white" stroke-width="0.53" stroke-miterlimit="10"/>
<path d="M23.7534 13.5612C23.7534 13.4016 23.7534 13.252 23.7534 13.1023C23.7534 13.0425 23.7734 13.0126 23.8332 12.9926C23.933 12.9627 24.0327 12.9228 24.1325 12.8729C24.8507 12.4939 25.0801 11.636 24.6112 11.0076C24.322 10.6186 23.923 10.429 23.4442 10.419C23.2247 10.419 23.0252 10.3692 22.8656 10.2195C22.6262 10.02 22.5864 9.70083 22.7859 9.47141C23.0053 9.21206 23.2945 9.1522 23.6137 9.22203C23.913 9.29186 24.1225 9.47136 24.1624 9.80054H24.8706C24.8706 9.73071 24.8706 9.67093 24.8507 9.62106C24.741 9.07243 24.4018 8.7432 23.8931 8.57363C23.7933 8.5437 23.7634 8.49378 23.7734 8.40401C23.7734 8.26436 23.7734 8.13477 23.7734 7.99512H23.0651C23.0651 8.12479 23.0651 8.25447 23.0651 8.37417C23.0751 8.49388 23.0352 8.55368 22.9155 8.57363C22.8557 8.5836 22.7859 8.6136 22.726 8.64352C21.9779 9.00262 21.7185 9.88032 22.1973 10.5287C22.4866 10.9177 22.8856 11.1074 23.3644 11.1273C23.5639 11.1273 23.7534 11.1671 23.923 11.2968C24.2322 11.5362 24.2422 11.9452 23.923 12.1846C23.4541 12.5437 22.8357 12.3343 22.6562 11.7557H21.9579C21.9679 11.8455 21.9778 11.9352 21.9978 12.015C22.1275 12.5337 22.4766 12.843 22.9754 13.0026C23.0552 13.0226 23.0751 13.0525 23.0751 13.1323C23.0751 13.2819 23.0751 13.4215 23.0751 13.5711H23.7834L23.7534 13.5612Z" fill="white"/>
</svg>
