<svg width="32" height="32" viewBox="0 0 32 32" fill="none" xmlns="http://www.w3.org/2000/svg">
<path d="M17.5 26.0001H7.33527C7.14981 26.0001 7.00003 25.8503 7.00003 25.6648V5.32111C7.00003 5.15705 7.13559 5.02148 7.29965 5.02148H18.841C17.7211 5.87746 17.1648 6.99028 17.1149 8.37411C17.015 8.37411 16.9365 8.37411 16.8509 8.37411C16.0092 8.37411 15.1675 8.37411 14.3186 8.37411C14.2616 8.37411 14.2117 8.37411 14.1546 8.37411C13.9121 8.38838 13.7552 8.53105 13.748 8.73791C13.748 8.95904 13.9049 9.1159 14.1617 9.1159C14.9963 9.1159 15.8309 9.1159 16.6655 9.1159C16.8367 9.1159 17.0078 9.1159 17.1719 9.1159C17.2432 9.37269 17.3074 9.61525 17.3788 9.86491C17.2789 9.86491 17.1933 9.86491 17.1077 9.86491C16.1305 9.86491 15.1533 9.86491 14.1831 9.86491C13.8622 9.86491 13.6695 10.1003 13.7694 10.3571C13.8478 10.5639 14.0119 10.6138 14.2188 10.6138C15.3387 10.6138 16.4515 10.6138 17.5714 10.6138C17.7141 10.6138 17.8424 10.6852 17.928 10.7993C18.513 11.5982 19.2905 12.119 20.2535 12.3615C20.4532 12.4114 20.66 12.4471 20.8669 12.4899C20.8669 12.5327 20.874 12.5683 20.874 12.5969C20.874 13.8594 20.8812 23.6747 20.874 25.7361C20.874 25.8717 20.767 25.9858 20.6314 25.9858C19.7041 26.0072 18.4915 25.9787 18.6271 25.9858C18.6128 25.6291 19.9253 17.9039 19.8041 18.7671C19.747 19.5588 19.7683 20.3577 19.7541 21.1566C19.7541 21.2636 19.7541 25.8717 19.7541 25.9929C19.1549 25.9929 17.3573 25.9929 16.7867 25.9929C16.3872 25.9929 17.5071 21.6132 17.5071 22.0127C17.5071 23.3394 17.5071 24.6662 17.5071 25.9929L17.5 26.0001ZM12.6281 8.17436C12.6566 7.89617 12.5782 7.67506 12.193 7.56806C11.6937 7.4254 11.2157 7.18282 10.8662 6.79763C10.531 6.43384 10.2599 6.39816 9.9246 6.78335C9.56794 7.18994 9.06153 7.41819 8.54081 7.58226C8.25549 7.66785 8.11278 7.83196 8.13417 8.07449C8.16271 8.32415 8.17698 8.57384 8.22691 8.81636C8.47657 10.0005 9.05443 10.9777 10.0887 11.6482C10.2671 11.7623 10.4453 11.798 10.6308 11.6696C11.822 10.8065 12.5282 9.67233 12.6281 8.1815V8.17436ZM13.9264 15.1292C15.8095 15.1292 17.6926 15.1292 19.5758 15.1292C19.6471 15.1292 19.7185 15.1292 19.7898 15.1292C19.9966 15.1078 20.1393 14.9437 20.1322 14.7511C20.1179 14.5442 20.0038 14.423 19.7969 14.3873C19.7256 14.373 19.6542 14.3873 19.5829 14.3873C15.8237 14.3873 12.0717 14.3873 8.3125 14.3873C8.23404 14.3873 8.15561 14.3802 8.07714 14.3944C7.87741 14.4372 7.75619 14.5657 7.76332 14.7725C7.76332 14.9722 7.88454 15.0935 8.07 15.1292C8.14847 15.1434 8.22699 15.1363 8.30545 15.1363C10.1815 15.1363 12.0575 15.1363 13.9264 15.1363V15.1292ZM13.9406 16.6271C15.8166 16.6271 17.6926 16.6271 19.5615 16.6271C19.6399 16.6271 19.7185 16.6342 19.7969 16.6271C19.9967 16.5914 20.1179 16.463 20.1179 16.2562C20.1179 16.0493 19.9967 15.928 19.7969 15.8852C19.7256 15.871 19.6542 15.8852 19.59 15.8852C15.8237 15.8852 12.0646 15.8852 8.29831 15.8852C8.22698 15.8852 8.15562 15.8852 8.09142 15.8852C7.89169 15.9209 7.77047 16.0493 7.77047 16.2562C7.77047 16.463 7.89169 16.5914 8.09142 16.6271C8.16989 16.6414 8.24832 16.6271 8.32678 16.6271C10.2028 16.6271 12.0788 16.6271 13.9477 16.6271H13.9406ZM13.3771 13.6241C15.0605 13.6241 16.751 13.6241 18.4345 13.6241C18.5129 13.6241 18.5914 13.6312 18.6698 13.6241C18.8696 13.5884 18.9909 13.46 18.9909 13.2532C18.9909 13.0463 18.8696 12.925 18.6698 12.8822C18.5985 12.8679 18.5272 12.8822 18.463 12.8822C15.0748 12.8822 11.6866 12.8822 8.29831 12.8822C8.22698 12.8822 8.15562 12.8822 8.09142 12.8822C7.89169 12.9179 7.77047 13.0463 7.77047 13.2532C7.77047 13.46 7.89169 13.5884 8.09142 13.6241C8.16989 13.6384 8.24832 13.6241 8.32678 13.6241C10.0102 13.6241 11.7008 13.6241 13.3842 13.6241H13.3771ZM13.3771 18.1251C15.0748 18.1251 16.7653 18.1251 18.463 18.1251C18.5415 18.1251 18.6199 18.1322 18.6984 18.1179C18.8839 18.0751 19.0052 17.9538 19.0052 17.7541C19.0052 17.5473 18.891 17.4189 18.6841 17.3833C18.627 17.369 18.5628 17.3833 18.4986 17.3833C15.0961 17.3833 11.6865 17.3833 8.28403 17.3833C8.2341 17.3833 8.19125 17.3833 8.14131 17.3833C7.92019 17.3975 7.76332 17.5473 7.76332 17.7541C7.76332 17.961 7.90599 18.1179 8.12712 18.1322C8.19845 18.1322 8.26973 18.1322 8.34106 18.1322C10.0174 18.1322 11.7008 18.1322 13.3771 18.1322V18.1251ZM13.3771 19.623C15.0605 19.623 16.751 19.623 18.4345 19.623C18.5129 19.623 18.5914 19.6301 18.6698 19.623C18.8696 19.5873 18.9909 19.459 18.9909 19.2521C18.9909 19.0453 18.8696 18.924 18.6698 18.8812C18.5985 18.8669 18.5272 18.8812 18.463 18.8812C15.0748 18.8812 11.6866 18.8812 8.29831 18.8812C8.22698 18.8812 8.15562 18.8812 8.09142 18.8812C7.89169 18.9169 7.77047 19.0453 7.77047 19.2521C7.77047 19.459 7.89169 19.5873 8.09142 19.623C8.16989 19.6373 8.24832 19.623 8.32678 19.623C10.0102 19.623 11.7008 19.623 13.3842 19.623H13.3771ZM11.7007 21.4206C11.7649 21.6132 11.8149 21.7487 11.8577 21.8771C11.9647 22.1838 12.0432 22.248 12.3642 22.248C12.9776 22.248 13.5982 22.248 14.2116 22.248C14.6753 22.248 15.1318 22.248 15.5955 22.248C15.7881 22.248 15.9522 22.1553 15.9736 21.9627C15.9878 21.8343 15.9165 21.6774 15.8309 21.5776C15.7667 21.5062 15.6169 21.499 15.5028 21.499C14.5755 21.499 13.641 21.499 12.7137 21.499C12.5639 21.499 12.4854 21.4633 12.4498 21.3135C12.3998 21.1138 12.3213 20.9141 12.25 20.7144C12.1145 20.3292 11.8292 20.2579 11.5367 20.5432C11.3084 20.7643 11.0873 20.9926 10.8519 21.2351C10.7877 21.121 10.745 21.0283 10.695 20.9427C10.5738 20.743 10.3741 20.693 10.1743 20.8071C10.1101 20.8428 10.0531 20.8785 9.996 20.9213C9.46815 21.3635 8.8832 21.5989 8.17702 21.5062C7.92022 21.4705 7.75618 21.6417 7.74904 21.8628C7.74904 22.0911 7.9131 22.2409 8.18416 22.248C8.50515 22.248 8.82612 22.2623 9.14711 22.248C9.27551 22.248 9.40391 22.2052 9.51091 22.1482C9.75344 22.0126 9.9817 21.8485 10.2242 21.6845C10.2742 21.7772 10.317 21.8557 10.3527 21.9271C10.5524 22.3194 10.7949 22.3621 11.1016 22.0554C11.2942 21.8628 11.4796 21.6631 11.7007 21.4277V21.4206Z" fill="#0671B8"/>
<path d="M21.2449 5.00003C23.1138 5.00003 24.6261 6.51946 24.6189 8.38121C24.6189 10.243 23.0996 11.748 21.2236 11.748C19.3689 11.748 17.8638 10.2144 17.8709 8.33837C17.8709 6.50516 19.4045 4.99289 21.2449 5.00003Z" fill="#FFB422"/>
<path d="M10.3669 10.9204C9.58938 10.364 9.16855 9.60074 8.96883 8.7091C8.86183 8.21691 8.86894 8.21687 9.30406 7.95295C9.61079 7.76749 9.91755 7.57488 10.2314 7.40368C10.3099 7.36088 10.4454 7.36088 10.5239 7.40368C10.9305 7.63194 11.3299 7.8816 11.7293 8.11699C11.8435 8.18119 11.872 8.25261 11.8578 8.381C11.7294 9.42958 11.2015 10.2498 10.374 10.9204H10.3669Z" fill="#FFB422"/>
<path d="M10.6594 8.29567C10.6594 8.18154 10.588 8.06742 10.4739 8.03175C10.2884 7.96755 10.103 8.10308 10.1101 8.29567C10.1244 8.59527 10.1458 8.902 10.1672 9.2016C10.1743 9.32286 10.267 9.40849 10.3812 9.41563C10.4953 9.41563 10.5881 9.33713 10.6023 9.2016C10.6237 8.902 10.6451 8.6024 10.6665 8.29567H10.6594Z" fill="white"/>
<path d="M10.6094 9.79355C10.6094 9.66516 10.5095 9.55811 10.3811 9.55811C10.2527 9.55811 10.1458 9.66515 10.1458 9.78641C10.1458 9.91481 10.2527 10.0146 10.374 10.0146C10.5024 10.0146 10.6023 9.91481 10.6023 9.78641L10.6094 9.79355Z" fill="white"/>
<path d="M23.3135 7.63245C23.2992 7.68951 23.2636 7.73228 23.2208 7.77507C22.7072 8.28153 22.2007 8.78084 21.6871 9.2873C21.5801 9.38716 21.4732 9.38716 21.3662 9.2873C21.3091 9.23023 21.252 9.16603 21.195 9.10897C21.145 9.0519 21.1307 8.98064 21.1521 8.90931C21.1807 8.83797 21.2307 8.79514 21.3091 8.78087C21.3733 8.77374 21.4232 8.78797 21.4732 8.83076C21.4946 8.85216 21.5088 8.8665 21.5374 8.90217C21.6301 8.80943 21.7157 8.70956 21.8084 8.62396C22.1936 8.23877 22.5788 7.86073 22.9711 7.47554C23.0853 7.36141 23.2564 7.4042 23.3064 7.55399C23.3064 7.55399 23.3064 7.56827 23.3135 7.56827V7.63959V7.63245Z" fill="white"/>
<path d="M20.3532 8.88739C20.5743 8.67339 20.7884 8.45939 20.9952 8.25253C21.2591 7.9886 21.5302 7.72469 21.7941 7.46076C21.8512 7.40369 21.9154 7.38224 21.9939 7.40364C22.0652 7.42504 22.1151 7.47502 22.1365 7.54635C22.1579 7.62482 22.1365 7.68903 22.0723 7.73896C21.8869 7.92442 21.6942 8.10982 21.5088 8.29528C21.1735 8.63054 20.8383 8.95868 20.5031 9.29394C20.4389 9.35814 20.3675 9.37959 20.289 9.35106C20.2534 9.33679 20.2248 9.31534 20.2034 9.29394C19.9538 9.03714 19.697 8.77324 19.4474 8.51645C19.3618 8.43085 19.3618 8.30957 19.4474 8.23111C19.5258 8.15264 19.647 8.15978 19.7326 8.23825C19.9324 8.44511 20.1321 8.64483 20.3247 8.85169C20.3319 8.85882 20.3461 8.87312 20.3532 8.88739Z" fill="white"/>
</svg>
