<svg width="32" height="32" viewBox="0 0 32 32" fill="none" xmlns="http://www.w3.org/2000/svg">
<path d="M26.994 14.0279C26.7553 14.6128 26.5523 14.7443 25.9077 14.7443C25.7107 14.7443 25.5078 14.7562 25.3108 14.7443C25.096 14.7264 24.9348 14.8098 24.7796 14.9531C23.9321 15.735 23.0785 16.505 22.231 17.275C22.1892 17.3108 22.1295 17.3287 22.0758 17.3585C22.0639 17.2988 22.04 17.2451 22.04 17.1854C22.04 16.5049 22.04 15.8186 22.04 15.1381C22.04 14.8457 21.9445 14.7502 21.652 14.7502C20.9716 14.7502 20.2971 14.7502 19.6167 14.7502C19.557 14.7502 19.4913 14.7502 19.4137 14.7502C19.4137 14.607 19.4137 14.4756 19.4137 14.3502C19.4018 14.022 19.2466 13.7833 18.9482 13.6519C18.6497 13.5206 18.3692 13.5803 18.1245 13.7952C17.8619 14.022 17.5992 14.2487 17.3306 14.4756C17.1635 14.3025 17.0919 14.1234 17.0859 13.9145C17.0859 13.6519 17.0859 13.3892 17.0859 13.1266C17.0859 11.1092 17.0859 9.0978 17.0859 7.08037C17.0859 6.43575 17.2232 6.23278 17.8081 6H26.2837C26.6538 6.10744 26.8925 6.34616 27 6.71622V14.0279H26.994ZM22.0221 10.0827C23.1442 10.0827 24.2663 10.0827 25.3884 10.0827C25.6809 10.0827 25.8241 9.99314 25.8301 9.79617C25.8301 9.5992 25.6928 9.49774 25.4004 9.49774C23.1561 9.49774 20.9119 9.49774 18.6736 9.49774C18.3931 9.49774 18.2558 9.59322 18.2558 9.78422C18.2558 9.98716 18.3931 10.0827 18.6856 10.0827C19.8017 10.0827 20.9179 10.0827 22.034 10.0827H22.0221ZM21.455 12.4164C21.0014 12.4164 20.5478 12.4164 20.0882 12.4164C19.5749 12.4164 19.0616 12.4164 18.5542 12.4164C18.3692 12.4164 18.2558 12.5298 18.2439 12.6909C18.2379 12.858 18.3573 12.9834 18.5423 12.9953C18.5841 12.9953 18.6199 12.9953 18.6617 12.9953C20.5239 12.9953 22.3802 12.9953 24.2424 12.9953C24.3141 12.9953 24.3917 12.9954 24.4633 12.9716C24.6602 12.9059 24.7319 12.6552 24.5827 12.5179C24.511 12.4523 24.3916 12.4164 24.2902 12.4164C23.3471 12.4104 22.4041 12.4164 21.455 12.4164ZM23.2039 11.539C23.938 11.539 24.6722 11.539 25.4063 11.539C25.466 11.539 25.5197 11.539 25.5794 11.539C25.7227 11.5151 25.8062 11.4256 25.8241 11.2884C25.8421 11.1511 25.7824 11.0377 25.651 10.9899C25.5854 10.966 25.5078 10.96 25.4362 10.96C24.517 10.96 23.6038 10.96 22.6846 10.96C22.1295 10.96 21.5804 10.96 21.0253 10.96C20.9835 10.96 20.9477 10.96 20.9059 10.96C20.7089 10.966 20.5776 11.0914 20.5776 11.2585C20.5776 11.4256 20.709 11.539 20.9 11.539C21.6699 11.539 22.4339 11.539 23.2039 11.539ZM20.4344 7.46231C19.8196 7.46231 19.2048 7.46231 18.59 7.46231C18.3692 7.46231 18.2439 7.56974 18.2498 7.75477C18.2498 7.93383 18.3811 8.04738 18.596 8.04738C19.8196 8.04738 21.0432 8.04738 22.2668 8.04738C22.3205 8.04738 22.3802 8.04138 22.4339 8.02348C22.5652 7.97573 22.6309 7.8683 22.6189 7.73102C22.601 7.58777 22.5175 7.49216 22.3683 7.47426C22.3205 7.46829 22.2668 7.47426 22.2131 7.47426C21.6222 7.47426 21.0313 7.47426 20.4404 7.47426L20.4344 7.46231ZM19.1213 11.539C19.2944 11.539 19.4734 11.539 19.6465 11.539C19.6585 11.539 19.6704 11.539 19.6823 11.539C19.8733 11.533 19.9927 11.4196 19.9927 11.2525C19.9927 11.0854 19.8733 10.966 19.6823 10.96C19.3063 10.96 18.9362 10.96 18.5602 10.96C18.3752 10.96 18.2498 11.0854 18.2498 11.2525C18.2498 11.4196 18.3692 11.539 18.5602 11.539C18.7452 11.539 18.9362 11.539 19.1213 11.539Z" fill="#0671B8"/>
<path d="M12.519 22.3269V16.7966C13.1747 16.673 13.8209 16.5874 14.4481 16.4163C15.9495 16.0267 17.2513 15.2572 18.3726 14.1834C18.4011 14.1549 18.4202 14.1168 18.4487 14.1073C18.5627 14.0693 18.7242 13.9646 18.8002 14.0121C18.8953 14.0692 18.9903 14.2308 18.9903 14.3543C18.9998 17.8038 18.9998 21.2626 18.9903 24.7121C18.9903 24.8356 18.9048 25.0257 18.8097 25.0543C18.6957 25.0923 18.5152 25.0161 18.4202 24.9306C17.0043 23.5527 15.3223 22.7166 13.3743 22.422C13.0987 22.384 12.8231 22.3554 12.519 22.3269Z" fill="#FFB422"/>
<path d="M11.5498 22.2794C10.457 22.2794 9.37368 22.3554 8.3189 22.2603C6.98854 22.1368 5.98126 20.8633 6.00026 19.4949C6.01927 18.1456 7.03605 16.9104 8.36641 16.8059C9.4117 16.7203 10.476 16.7868 11.5498 16.7868V22.2794Z" fill="#FFB422"/>
<path d="M9.51621 23.258C10.2004 23.258 10.8846 23.258 11.5783 23.258C11.6448 23.258 11.7303 23.3437 11.7588 23.4102C12.1484 24.3605 12.5285 25.3203 12.9086 26.28C13.0512 26.6506 12.8516 26.9452 12.4715 26.9547C12.0819 26.9642 11.6923 26.9547 11.3027 26.9547C11.0936 26.9547 10.9321 26.8596 10.8466 26.6696C10.4 25.5578 9.95334 24.4364 9.50671 23.3246C9.50671 23.3151 9.50671 23.2865 9.51621 23.2485V23.258Z" fill="#FFB422"/>
<path d="M19.9406 20.8255V18.2882C20.3112 18.2787 20.8053 18.8775 20.8528 19.3811C20.9193 20.0178 20.5677 20.5975 19.9406 20.8351V20.8255Z" fill="#FFB422"/>
<path d="M22.0221 10.0888C20.9059 10.0888 19.7898 10.0888 18.6736 10.0888C18.3812 10.0888 18.2439 9.99333 18.2439 9.79039C18.2439 9.59343 18.3812 9.50391 18.6617 9.50391C20.906 9.50391 23.1502 9.50391 25.3885 9.50391C25.6809 9.50391 25.8242 9.60537 25.8182 9.80234C25.8182 9.99931 25.675 10.0888 25.3765 10.0888C24.2544 10.0888 23.1323 10.0888 22.0102 10.0888H22.0221Z" fill="white"/>
<path d="M21.455 12.4229C22.3981 12.4229 23.3412 12.4229 24.2902 12.4229C24.3917 12.4229 24.511 12.4588 24.5827 12.5244C24.7319 12.6617 24.6603 12.9122 24.4633 12.9779C24.3976 13.0018 24.32 13.0018 24.2424 13.0018C22.3802 13.0018 20.5239 13.0018 18.6617 13.0018C18.6199 13.0018 18.5841 13.0018 18.5423 13.0018C18.3573 12.9899 18.2379 12.8645 18.2439 12.6974C18.2498 12.5362 18.3692 12.4229 18.5542 12.4229C19.0676 12.4229 19.5809 12.4229 20.0882 12.4229C20.5418 12.4229 20.9955 12.4229 21.455 12.4229Z" fill="white"/>
<path d="M23.2039 11.5389C22.4339 11.5389 21.6699 11.5389 20.9 11.5389C20.709 11.5389 20.5836 11.4196 20.5776 11.2584C20.5776 11.0913 20.709 10.9659 20.9059 10.96C20.9477 10.96 20.9835 10.96 21.0253 10.96C21.5804 10.96 22.1295 10.96 22.6846 10.96C23.6038 10.96 24.517 10.96 25.4362 10.96C25.5078 10.96 25.5854 10.96 25.6511 10.9898C25.7824 11.0376 25.848 11.151 25.8241 11.2883C25.8062 11.4256 25.7227 11.515 25.5794 11.5389C25.5257 11.5449 25.466 11.5389 25.4063 11.5389C24.6722 11.5389 23.938 11.5389 23.2039 11.5389Z" fill="white"/>
<path d="M19.1214 11.5389C18.9364 11.5389 18.7454 11.5389 18.5604 11.5389C18.3694 11.5389 18.25 11.4195 18.25 11.2524C18.25 11.0853 18.3753 10.9659 18.5604 10.96C18.9364 10.96 19.3065 10.96 19.6825 10.96C19.8675 10.96 19.9929 11.0853 19.9929 11.2524C19.9929 11.4195 19.8735 11.5329 19.6825 11.5389C19.6706 11.5389 19.6586 11.5389 19.6467 11.5389C19.4736 11.5389 19.2945 11.5389 19.1214 11.5389Z" fill="white"/>
</svg>
