<svg width="32" height="32" viewBox="0 0 32 32" fill="none" xmlns="http://www.w3.org/2000/svg">
<path d="M25.2338 5C25.591 5.16718 25.705 5.44064 25.6898 5.82821C25.667 6.36776 25.6898 6.90742 25.6898 7.46217H6V5.44824C6.09879 5.24306 6.25077 5.09119 6.44836 5H25.2338Z" fill="#FFB422"/>
<path d="M6.38004 8.69315H25.2947C25.2567 8.73875 25.2339 8.77686 25.2035 8.80725C23.2277 10.8059 21.2595 12.8044 19.2836 14.803C19.2228 14.8638 19.1089 14.9169 19.0177 14.9169C16.8975 14.9169 14.7773 14.9169 12.6647 14.9169C12.5811 14.9169 12.4747 14.879 12.4139 14.8182C10.4229 12.8044 8.43945 10.7906 6.44843 8.77683C6.43324 8.76163 6.41803 8.73874 6.37244 8.68555L6.38004 8.69315Z" fill="#0671B8"/>
<path d="M13.3865 16.1631H18.3108V16.3911C18.3108 18.5265 18.3108 20.6543 18.3108 22.7897C18.3108 23.1088 18.1969 23.3292 17.9309 23.5039C16.7606 24.2715 15.5979 25.0543 14.4352 25.837C14.1996 25.9966 13.9716 26.065 13.7057 25.9207C13.4549 25.7839 13.3789 25.5558 13.3789 25.2822C13.3789 22.3109 13.3789 19.332 13.3789 16.3607V16.1631H13.3865Z" fill="#0671B8"/>
</svg>
