<svg width="32" height="32" viewBox="0 0 32 32" fill="none" xmlns="http://www.w3.org/2000/svg">
<path d="M4 12.8639C4.0501 12.7026 4.08351 12.5413 4.14196 12.3889C4.4342 11.5646 5.16061 11 5.98723 11C10.3291 11 14.6626 11 19.0044 11C20.165 11 21 11.9857 21 13.3209C21 15.9463 21 18.5628 21 21.1883C21 21.3944 20.9833 21.6094 20.9415 21.8155C20.7161 22.8459 19.9312 23.5092 18.9376 23.5092C15.89 23.5092 12.8423 23.5092 9.79469 23.5092C9.56925 23.5092 9.39391 23.5719 9.21856 23.7242C8.40864 24.4231 7.58204 25.1129 6.76377 25.8029C6.69698 25.8567 6.63018 25.9104 6.52998 26C6.50493 25.4892 6.47986 25.0234 6.45481 24.5575C6.44646 24.3603 6.44648 24.1543 6.42143 23.9572C6.39638 23.6973 6.27112 23.5448 6.03733 23.5358C4.91847 23.4642 4.27556 22.8192 4.02507 21.6812C4.02507 21.6812 4.01671 21.6722 4.00836 21.6632C4.00836 18.7421 4.00836 15.8119 4.00836 12.8908L4 12.8639ZM12.5251 19.4769C11.1474 19.4769 9.76965 19.4769 8.39195 19.4769C8.00786 19.4769 7.81582 19.6202 7.81582 19.898C7.81582 20.1758 8.01622 20.3102 8.40031 20.3102C11.1307 20.3102 13.8694 20.3102 16.5997 20.3102C16.6999 20.3102 16.8084 20.3101 16.9003 20.2743C17.0673 20.2295 17.1591 20.0952 17.1675 19.907C17.1675 19.7098 17.0923 19.5573 16.917 19.5036C16.8251 19.4767 16.7166 19.4679 16.6164 19.4679C15.2554 19.4679 13.8944 19.4679 12.5251 19.4679V19.4769ZM12.4917 17.6668C13.6272 17.6668 14.7628 17.6668 15.8983 17.6668C16.1989 17.6668 16.4912 17.6668 16.7917 17.6668C17.0422 17.6579 17.1925 17.4518 17.1675 17.2009C17.1341 16.9679 16.9838 16.8513 16.6749 16.8513C13.8861 16.8513 11.0972 16.8513 8.30845 16.8513C8.25 16.8513 8.1832 16.8513 8.12475 16.8513C7.93271 16.8961 7.82417 17.0394 7.81582 17.2455C7.81582 17.4606 7.91601 17.6131 8.12475 17.6579C8.20825 17.6758 8.3001 17.6668 8.38359 17.6668C9.75294 17.6668 11.1223 17.6668 12.4917 17.6668ZM12.4666 15.0323C13.8443 15.0323 15.222 15.0323 16.5997 15.0323C16.6749 15.0323 16.7584 15.0323 16.8335 15.0323C17.0423 14.9964 17.1675 14.8262 17.1591 14.6111C17.1508 14.3871 17.0339 14.2528 16.8335 14.2169C16.75 14.208 16.6582 14.208 16.5747 14.208C13.8527 14.208 11.1223 14.208 8.40031 14.208C8.31681 14.208 8.22497 14.208 8.14147 14.2169C7.93273 14.2438 7.82419 14.3961 7.80749 14.6111C7.79079 14.8172 7.94108 15.0054 8.14147 15.0323C8.21662 15.0412 8.30011 15.0323 8.37526 15.0323C9.73626 15.0323 11.0973 15.0323 12.4666 15.0323Z" fill="#0671B8"/>
<path d="M25.8873 17C25.1915 16.4188 24.5127 15.8734 23.8424 15.3011C23.6473 15.1312 23.4437 15.0597 23.1891 15.0686C22.6715 15.0865 22.154 15.0686 21.6024 15.0686C21.6024 14.9613 21.6024 14.8629 21.6024 14.7645C21.594 14.0402 21.6448 13.316 21.5515 12.6096C21.3564 11.1073 20.177 10.0789 18.7261 10.07C17.2497 10.07 15.7818 10.07 14.3055 10.07C14.2121 10.07 14.1188 10.07 14 10.07C14 9.9627 14 9.88218 14 9.8017C14 8.80021 14 7.80778 14 6.80629C14 5.71537 14.6618 5 15.697 5C19.2352 5 22.7648 5 26.303 5C27.3297 5 28 5.71537 28 6.80629C28 8.96129 28 11.1163 28 13.2713C28 14.2907 27.3976 14.9792 26.4388 15.0686C26.1164 15.1044 26.0146 15.2207 25.9891 15.5605C25.9636 16.0076 25.9382 16.4457 25.9212 16.8928C25.9212 16.9196 25.9127 16.9374 25.8958 17H25.8873Z" fill="#FFB422"/>
</svg>
