<svg width="32" height="32" viewBox="0 0 32 32" fill="none" xmlns="http://www.w3.org/2000/svg">
<path d="M26.1033 23.13C25.9866 23.3791 25.7764 23.5114 25.5429 23.6437C24.1495 24.4144 22.7639 25.2006 21.3782 25.9712C21.316 26.0102 21.2459 26.0414 21.1603 26.0803V25.8545C21.1603 23.8462 21.1603 21.83 21.1603 19.8217C21.1603 19.6893 21.1914 19.6192 21.316 19.5569C22.8573 18.7941 24.3986 18.0234 25.9321 17.2528C25.9866 17.2294 26.0489 17.2138 26.1033 17.1982V23.13Z" fill="#0671B8"/>
<path d="M15.7112 5C16.731 5.52155 17.7585 6.0509 18.7783 6.57246C19.3309 6.85269 19.8914 7.14061 20.4752 7.43641C20.3974 7.48312 20.3429 7.51436 20.2884 7.5455C18.7627 8.30837 17.237 9.07119 15.7034 9.83406C15.6256 9.87298 15.501 9.88856 15.4232 9.84964C13.8508 9.07121 12.2783 8.28497 10.7137 7.49875C10.6903 7.48318 10.6669 7.46756 10.6202 7.44421C10.7059 7.3975 10.7681 7.35865 10.846 7.31972C12.3562 6.55686 13.8663 5.78624 15.3765 5.02338C15.3765 5.02338 15.3765 5.00779 15.3843 5.00779C15.4933 5.00779 15.6022 5.00779 15.7112 5.00779V5Z" fill="#FFB422"/>
<path d="M5 17.1826C5.07784 17.2138 5.13233 17.2372 5.18682 17.2605C6.72034 18.0234 8.25386 18.794 9.78738 19.5569C9.89636 19.6114 9.94306 19.6737 9.94306 19.806C9.94306 21.8455 9.94306 23.8849 9.94306 25.9244C9.94306 25.9711 9.94307 26.018 9.93528 26.0803C9.85744 26.0414 9.79516 26.0101 9.74067 25.979C8.30835 25.1772 6.88381 24.3753 5.45148 23.5813C5.13232 23.4023 5 23.1688 5 22.8029C5.00778 21.0125 5 19.2222 5 17.424C5 17.3539 5 17.276 5 17.1826Z" fill="#0671B8"/>
<path d="M14.9172 15.7659C14.8316 15.727 14.7693 15.7035 14.6992 15.6646C13.1813 14.9095 11.6711 14.1545 10.1532 13.3916C10.052 13.3449 9.97412 13.3059 9.97412 13.158C9.97412 11.6557 9.97412 10.1533 9.97412 8.65087C9.97412 8.61973 9.97412 8.58089 9.97412 8.53418C10.0364 8.55753 10.0831 8.56537 10.1298 8.58872C11.6789 9.35938 13.2202 10.1378 14.7615 10.9084C14.8549 10.9552 14.9094 10.9941 14.9094 11.1186C14.9094 12.6288 14.9094 14.1388 14.9094 15.649C14.9094 15.6801 14.9094 15.7114 14.9016 15.7659H14.9172Z" fill="#FFB422"/>
<path d="M16.1705 15.7737V14.7928C16.1705 13.5862 16.1705 12.3795 16.1705 11.1652C16.1705 11.064 16.1705 10.9785 16.2873 10.9162C17.852 10.1378 19.4166 9.35934 20.9813 8.57312C21.0124 8.55755 21.0513 8.54194 21.1058 8.52637C21.1058 8.60421 21.1136 8.66649 21.1136 8.72098C21.1136 10.1922 21.1136 11.6556 21.1136 13.1269C21.1136 13.2358 21.098 13.3137 20.9813 13.3682C19.4244 14.1389 17.8675 14.9251 16.3107 15.7035C16.2717 15.7191 16.2406 15.7347 16.1705 15.7659V15.7737Z" fill="#FFB422"/>
<path d="M14.9251 17.8052C14.9251 17.8752 14.9329 17.9297 14.9329 17.9842C14.9329 19.9225 14.9329 21.853 14.9329 23.7913C14.9329 23.9003 14.9251 23.9782 14.8083 24.0405C13.6484 24.7021 12.4886 25.3716 11.3287 26.0333C11.3054 26.0489 11.282 26.0567 11.2353 26.0801C11.2353 26.01 11.2197 25.9555 11.2197 25.901C11.2197 23.8771 11.2197 21.8531 11.2197 19.8292C11.2197 19.728 11.2197 19.6423 11.3365 19.58C12.5042 19.004 13.664 18.4202 14.8317 17.8363C14.8472 17.8286 14.8706 17.8208 14.9173 17.813L14.9251 17.8052Z" fill="#0671B8"/>
<path d="M19.8603 26.0801C19.798 26.0489 19.7513 26.0255 19.7046 25.9943C18.5759 25.3482 17.4472 24.6944 16.3184 24.0482C16.225 23.9938 16.1705 23.9392 16.1705 23.8147C16.1705 21.8452 16.1705 19.8759 16.1705 17.9065C16.1705 17.8831 16.1705 17.8519 16.1783 17.8052C16.2328 17.8285 16.2873 17.8364 16.334 17.8597C17.4705 18.428 18.5993 18.9962 19.7358 19.5567C19.8292 19.6034 19.8837 19.6423 19.8837 19.7669C19.8837 21.8453 19.8837 23.9237 19.8837 26.0021C19.8837 26.0177 19.8837 26.0256 19.8681 26.0723L19.8603 26.0801Z" fill="#0671B8"/>
<path d="M14.1467 16.7853C14.061 16.832 13.9988 16.871 13.9443 16.8944C12.8856 17.4237 11.8191 17.9531 10.7605 18.4824C10.6904 18.5213 10.5659 18.5369 10.5036 18.5058C8.92335 17.7273 7.35091 16.9333 5.77069 16.1471C5.74733 16.1393 5.73176 16.1237 5.68506 16.0925C5.75512 16.0536 5.80182 16.0224 5.85632 15.9913C6.93056 15.4541 8.0048 14.9172 9.07904 14.3878C9.1491 14.3489 9.26587 14.3411 9.33593 14.3722C10.9084 15.1507 12.4808 15.9369 14.0455 16.7231C14.0688 16.7387 14.0922 16.7541 14.1389 16.7853H14.1467Z" fill="#0671B8"/>
<path d="M16.949 16.7855C17.0424 16.731 17.0969 16.7 17.1592 16.6688C18.6771 15.9137 20.1873 15.1587 21.7052 14.3959C21.8298 14.3336 21.9232 14.3258 22.0477 14.3959C23.1064 14.933 24.1651 15.4622 25.2315 15.9915C25.2938 16.0226 25.3483 16.0539 25.4261 16.1006C25.3483 16.1395 25.3016 16.1706 25.2471 16.2017C23.7214 16.9646 22.1956 17.7276 20.6699 18.4982C20.5453 18.5605 20.4519 18.5605 20.3274 18.4982C19.2765 17.9689 18.2178 17.4395 17.1669 16.918C17.1047 16.8868 17.0502 16.8556 16.9568 16.8011L16.949 16.7855Z" fill="#0671B8"/>
</svg>
