<svg width="32" height="32" viewBox="0 0 32 32" fill="none" xmlns="http://www.w3.org/2000/svg">
<path d="M14.1606 5H16.8671C17.172 5.11153 17.3282 5.3345 17.3876 5.6468C17.4323 5.89217 17.4992 6.13772 17.5661 6.38309C17.581 6.45001 17.6553 6.52434 17.7148 6.53921C18.6294 6.76971 19.4844 7.12657 20.2949 7.60988C20.347 7.63962 20.4511 7.63962 20.5106 7.60988C20.7485 7.48348 20.979 7.33472 21.2169 7.19345C21.559 6.99269 21.8192 7.02254 22.1017 7.30509C22.6371 7.84045 23.1725 8.37574 23.7078 8.9111C23.9904 9.19365 24.0201 9.45385 23.8194 9.79589C23.6855 10.0338 23.5368 10.2643 23.403 10.5022C23.3732 10.5617 23.3658 10.6658 23.403 10.7179C23.8863 11.5284 24.2432 12.3834 24.4737 13.298C24.4886 13.3575 24.5704 13.4245 24.6299 13.4469C24.8752 13.5212 25.1206 13.5807 25.366 13.6253C25.6783 13.6848 25.9088 13.8409 26.0128 14.1458V16.8522C25.9088 17.1496 25.6931 17.3057 25.3808 17.3652C25.1355 17.4098 24.8901 17.4768 24.6447 17.5511C24.5704 17.5734 24.4812 17.6554 24.4588 17.7223C24.2283 18.622 23.8788 19.4696 23.3955 20.2652C23.336 20.3619 23.3509 20.4361 23.403 20.5253C23.5442 20.7484 23.6781 20.979 23.8119 21.2095C24.0052 21.5441 23.9755 21.8043 23.7078 22.0794C23.1725 22.6222 22.6297 23.165 22.0869 23.7003C21.8118 23.9754 21.5515 24.0053 21.2169 23.812C20.979 23.6781 20.7485 23.5294 20.5106 23.3955C20.4511 23.3658 20.347 23.3509 20.2949 23.3806C19.4844 23.8639 18.6294 24.2208 17.7148 24.4513C17.6479 24.4662 17.5809 24.5554 17.5586 24.6298C17.4769 24.8974 17.4248 25.1726 17.3579 25.4403C17.2686 25.8121 17.053 25.9905 16.6738 25.9905C15.9005 25.9905 15.1272 25.9905 14.3539 25.9905C13.9747 25.9905 13.7591 25.8121 13.6624 25.4477C13.6104 25.2395 13.5435 25.0387 13.5211 24.8305C13.4914 24.548 13.3427 24.4514 13.075 24.3771C12.562 24.2358 12.0638 24.0276 11.5359 23.8417C11.5879 23.7748 11.6028 23.7524 11.6251 23.7301C12.5322 22.823 13.4319 21.9233 14.339 21.0236C14.3985 20.9641 14.525 20.9343 14.6068 20.9492C15.1495 21.0384 15.6923 21.0161 16.2425 20.9492C17.6107 20.7707 18.7707 20.1759 19.6704 19.1275C20.7857 17.8337 21.2169 16.3169 20.9567 14.629C20.6741 12.7998 19.6926 11.4243 18.0494 10.5767C16.3689 9.7067 14.6365 9.71413 12.9486 10.5767C11.5135 11.3128 10.5915 12.4875 10.1603 14.049C9.95207 14.8149 9.93723 15.5882 10.0488 16.3615C10.0711 16.4954 10.0339 16.592 9.93721 16.6887C9.06725 17.5512 8.20474 18.4211 7.34221 19.2911C7.2976 19.3357 7.24554 19.3803 7.18605 19.4398C7.14887 19.3654 7.11169 19.3059 7.08939 19.239C6.91093 18.7408 6.73251 18.2352 6.56149 17.737C6.52431 17.618 6.47966 17.5438 6.33839 17.5141C6.07814 17.4695 5.81792 17.3951 5.56511 17.3282C5.17102 17.2315 5 17.0157 5 16.6142C5 15.8558 5 15.0975 5 14.3391C5 13.9376 5.17847 13.7294 5.57255 13.6327C5.84023 13.5658 6.10792 13.5138 6.36816 13.432C6.44252 13.4097 6.53173 13.3279 6.54661 13.261C6.77711 12.3613 7.134 11.5135 7.60244 10.7179C7.63962 10.6584 7.63218 10.5468 7.60244 10.4873C7.47604 10.2494 7.32733 10.0189 7.18605 9.781C6.99273 9.4464 7.02249 9.18622 7.2976 8.9111C7.83296 8.36831 8.37575 7.82556 8.91855 7.29021C9.19366 7.01509 9.45389 6.98525 9.78849 7.18601C10.0264 7.31985 10.2569 7.4686 10.4949 7.60244C10.5544 7.63218 10.6584 7.64706 10.7105 7.60988C11.521 7.12657 12.3761 6.76971 13.2906 6.53921C13.3501 6.52434 13.4245 6.44257 13.4394 6.38309C13.5137 6.13772 13.5732 5.89217 13.6178 5.6468C13.6773 5.3345 13.8335 5.11153 14.1383 5H14.1606Z" fill="#0671B8"/>
<path d="M15.5062 19.8562C15.0824 19.7744 14.666 19.7074 14.2496 19.6108C14.1083 19.581 14.0265 19.6109 13.9299 19.7001C12.0412 21.5961 10.1526 23.4847 8.26399 25.3733C7.69145 25.9384 7.02971 26.1467 6.24154 25.8939C5.09647 25.5147 4.63545 24.0127 5.38644 23.061C5.4831 22.9346 5.58719 22.823 5.69872 22.7115C7.56504 20.8378 9.43879 18.9714 11.3125 17.1051C11.4241 16.9935 11.4538 16.9043 11.4092 16.7482C10.7623 14.6365 11.8108 12.3909 13.863 11.5284C14.7552 11.1566 15.6772 11.112 16.6141 11.3351C17.1123 11.4541 17.261 12.0042 16.8966 12.376C16.4579 12.8296 16.0044 13.2609 15.5657 13.7144C15.0601 14.2275 15.0229 14.9265 15.4616 15.4321C15.8929 15.9377 16.6513 16.0269 17.1495 15.5808C17.6551 15.1346 18.1086 14.6291 18.6068 14.1681C18.7332 14.0491 18.9191 13.9598 19.0827 13.9375C19.3578 13.8929 19.6032 14.101 19.6775 14.391C20.2798 16.7258 18.8671 19.4399 16.1085 19.7671C15.9152 19.7894 15.7144 19.8041 15.5136 19.819C15.5136 19.8339 15.5136 19.8413 15.5062 19.8562Z" fill="#FFB422"/>
</svg>
