<svg width="32" height="32" viewBox="0 0 32 32" fill="none" xmlns="http://www.w3.org/2000/svg">
<path d="M4 24.1591C4 23.9578 4 23.7562 4 23.5549C4.14263 23.2025 4.25172 22.8249 4.4363 22.4977C6.23176 19.3683 8.03561 16.2556 9.83946 13.1346C11.1735 10.8273 12.4991 8.52846 13.8331 6.22121C14.1184 5.7262 14.5043 5.36541 15.0413 5.15566C16.132 4.74456 17.2898 5.16407 17.9022 6.22121C19.9326 9.72823 21.9546 13.2353 23.9766 16.7423C25.1177 18.7223 26.2671 20.694 27.3997 22.6741C27.9367 23.6138 27.8108 24.6791 27.0809 25.451C26.5859 25.9796 25.9566 26.1643 25.2435 26.1643C18.9929 26.1643 12.7424 26.1643 6.49186 26.1643C6.40796 26.1643 6.32407 26.1643 6.24017 26.1643C5.2082 26.1307 4.3608 25.4679 4.08393 24.4695C4.05876 24.3688 4.02517 24.2598 4 24.1591ZM13.8247 14.0911C13.875 14.8462 13.8918 15.6013 13.9757 16.3564C14.0764 17.3045 14.907 18.0176 15.8635 18.0344C16.8199 18.0428 17.6925 17.3129 17.7764 16.3648C17.8687 15.3328 17.9106 14.3007 17.961 13.2687C17.9861 12.8324 18.0449 12.3795 17.9778 11.9516C17.8184 10.8022 16.7948 10.0218 15.6789 10.1309C14.5463 10.2399 13.7157 11.1797 13.7408 12.3376C13.7576 12.9249 13.7995 13.5122 13.8247 14.0995V14.0911ZM15.8719 19.2089C14.7057 19.2089 13.7492 20.1654 13.7408 21.3316C13.7408 22.4894 14.6889 23.4543 15.8551 23.4627C17.0213 23.4711 17.9946 22.4978 17.9946 21.3316C17.9946 20.1654 17.0297 19.2089 15.8719 19.2089Z" fill="#0671B8"/>
<path d="M16.5095 14.1245C16.476 14.7453 16.4424 15.3745 16.4088 15.9954C16.4088 16.0625 16.4004 16.138 16.3836 16.2052C16.3249 16.4569 16.1236 16.6247 15.8719 16.6247C15.6118 16.6247 15.3853 16.457 15.3517 16.1886C15.3097 15.8949 15.3013 15.5928 15.2846 15.2908C15.2258 14.2924 15.1671 13.2855 15.1251 12.2871C15.1 11.7417 15.6201 11.3811 16.1152 11.5573C16.4172 11.6663 16.6102 11.9431 16.6018 12.2955C16.5766 12.908 16.5347 13.512 16.5095 14.1245Z" fill="#FFB422"/>
<path d="M15.8634 20.6016C16.2577 20.6016 16.6017 20.9455 16.5933 21.3398C16.5933 21.7257 16.2577 22.0614 15.8634 22.0614C15.4774 22.0614 15.1418 21.7341 15.1335 21.3482C15.1251 20.9539 15.469 20.6016 15.8634 20.6016Z" fill="#FFB422"/>
</svg>
