<svg width="32" height="32" viewBox="0 0 32 32" fill="none" xmlns="http://www.w3.org/2000/svg">
<path d="M16.2195 27.9919V20.9739C16.2994 21.0777 16.3473 21.1256 16.3872 21.1815C16.7305 21.6686 17.0818 22.1477 17.4251 22.6347C17.6327 22.9221 17.7445 22.962 18.0878 22.8503C19.9161 22.2435 21.7365 21.6287 23.5648 21.0219C23.6527 20.99 23.7405 20.966 23.8523 20.9341C23.8523 21.0299 23.8682 21.1097 23.8682 21.1895C23.8682 22.5229 23.8682 23.8562 23.8682 25.1895C23.8682 25.3971 23.7964 25.477 23.6128 25.5329C21.2096 26.3313 18.8063 27.1297 16.4032 27.9361C16.3553 27.952 16.3153 27.976 16.2674 27.9999H16.2195V27.9919Z" fill="#0671B8"/>
<path d="M15.3653 27.9919C14.6387 27.7444 13.9122 27.489 13.1856 27.2415C11.4531 26.6586 9.72856 26.0917 7.99603 25.5089C7.86829 25.469 7.76447 25.437 7.76447 25.2534C7.77245 23.8562 7.76447 22.4511 7.76447 21.0539C7.76447 21.0219 7.76448 20.99 7.78045 20.9341C7.87626 20.958 7.96409 20.982 8.04394 21.0139C9.87227 21.6207 11.6926 22.2355 13.513 22.8423C13.8882 22.97 13.984 22.9381 14.2156 22.6187C14.5988 22.0918 14.974 21.5568 15.4052 21.0299V27.9999H15.3573L15.3653 27.9919Z" fill="#0671B8"/>
<path d="M8.66663 16.8544C9.24946 16.6628 9.76844 16.4791 10.2874 16.3194C10.3353 16.3034 10.4231 16.3593 10.471 16.3992C11.0299 16.99 11.7405 17.0141 12.3632 16.4632C12.4191 16.4153 12.5229 16.3833 12.5948 16.3992C13.0818 16.503 13.2974 16.4711 13.8323 16.1916C13.984 16.3593 14.1437 16.5589 14.3193 16.7346C14.8223 17.2456 15.3333 17.7565 15.8442 18.2675C16.1157 18.5389 16.3073 18.5469 16.5708 18.2834C17.0658 17.7964 17.5608 17.3014 18.0478 16.8064C18.2953 16.5589 18.2953 16.3593 18.0478 16.1118C17.6247 15.6807 17.1935 15.2575 16.7943 14.7944C18.8303 15.4731 20.8662 16.1518 22.966 16.8544C22.8383 16.9103 22.7664 16.9422 22.6945 16.9662C20.491 17.7007 18.2874 18.4431 16.0758 19.1697C15.9241 19.2176 15.7245 19.2255 15.5728 19.1697C13.3612 18.4431 11.1577 17.7007 8.95409 16.9662C8.88223 16.9422 8.80235 16.9103 8.66663 16.8544Z" fill="#0671B8"/>
<path d="M6 19.473C6.49501 18.7784 6.97401 18.1078 7.46104 17.4372C7.50096 17.3893 7.65269 17.3892 7.74051 17.4212C9.5449 18.02 11.3413 18.6188 13.1457 19.2176C13.8084 19.4411 14.479 19.6567 15.1736 19.8882C14.6786 20.5828 14.1996 21.2615 13.7125 21.9242C13.6726 21.9721 13.5209 21.9721 13.4331 21.9481C11.4451 21.2935 9.46504 20.6307 7.47702 19.968C6.99 19.8084 6.51098 19.6407 6 19.473Z" fill="#0671B8"/>
<path d="M16.467 19.896C17.0978 19.6884 17.7046 19.4808 18.3113 19.2812C20.1636 18.6665 22.008 18.0517 23.8602 17.421C24.0678 17.3491 24.1716 17.3971 24.2834 17.5648C24.7225 18.1955 25.1776 18.8182 25.6407 19.4728C25.1297 19.6485 24.6427 19.8082 24.1557 19.9758C22.1916 20.6305 20.2195 21.2853 18.2555 21.948C18.0479 22.0198 17.9441 21.9799 17.8243 21.8042C17.3852 21.1735 16.9301 20.5507 16.467 19.896Z" fill="#0671B8"/>
<path d="M14.8703 8.0874C16.2355 9.45267 17.5848 10.8021 18.9501 12.1673C18.6786 12.2551 18.3992 12.3509 18.1198 12.4467C17.4571 12.6703 16.8024 12.8858 16.1477 13.1094C15.996 13.1573 15.9002 13.1573 15.7725 13.0296C15.1896 12.4308 14.5908 11.8399 14 11.2411C13.9361 11.1773 13.8882 11.0416 13.9122 10.9697C14.2235 10.0037 14.5429 9.04548 14.8703 8.0874Z" fill="#FFB422"/>
<path d="M13.3772 11.8325C13.992 12.4473 14.5988 13.054 15.2215 13.6848C15.0299 13.8684 14.8303 14.0601 14.6307 14.2597C14.2315 14.6589 13.8403 15.0581 13.4411 15.4493C13.1697 15.7208 12.8423 15.7208 12.5708 15.4653C12.2355 15.1379 11.9002 14.8106 11.5728 14.4673C11.3253 14.2118 11.3094 13.9004 11.5489 13.6609C12.1557 13.0461 12.7704 12.4393 13.3772 11.8325Z" fill="#FFB422"/>
<path d="M20.7066 11.5848C20.5948 11.7285 20.5309 11.8962 20.4112 11.9601C20.2914 12.016 20.1078 11.992 19.9641 11.9601C19.8842 11.9441 19.8203 11.8482 19.7565 11.7844C18.2555 10.2834 16.7625 8.79035 15.2615 7.28936C15.1976 7.22549 15.1257 7.16171 15.0778 7.08187C14.9581 6.88226 14.99 6.6906 15.1497 6.53092C15.3014 6.37922 15.493 6.3553 15.6766 6.46708C15.7485 6.507 15.8044 6.57083 15.8682 6.62672C17.3852 8.14368 18.9022 9.66071 20.4112 11.1777C20.5149 11.2815 20.5868 11.4251 20.6986 11.5928L20.7066 11.5848Z" fill="#FFB422"/>
<path d="M14.455 15.6408C14.7584 15.3374 15.0937 15.002 15.4131 14.6826C16.0039 15.2655 16.6028 15.8723 17.1856 16.4551C16.8742 16.7665 16.5389 17.1018 16.2115 17.4292C15.6446 16.8543 15.0458 16.2396 14.455 15.6487V15.6408Z" fill="#FFB422"/>
<path d="M21.6008 4.95801C21.7684 5.11769 21.9441 5.28534 22.1118 5.44502C21.5689 5.97197 21.0339 6.4989 20.499 7.03383C20.3473 6.88214 20.1717 6.7065 20.02 6.54682C20.5549 6.01189 21.0818 5.48495 21.6088 4.95801H21.6008Z" fill="#FFB422"/>
<path d="M19.4211 5.98012H18.6467V4H19.4211V5.98012Z" fill="#FFB422"/>
<path d="M23.0458 8.39894H21.0658V7.62451H23.0458V8.39894Z" fill="#FFB422"/>
<path d="M19.0458 8.63067C18.8303 8.4151 18.6307 8.21547 18.4231 8.00789C18.6067 7.81627 18.7504 7.54483 19.0618 7.62467C19.1975 7.65661 19.3572 7.80033 19.4051 7.93606C19.5249 8.2634 19.2454 8.42308 19.0378 8.63067H19.0458Z" fill="#FFB422"/>
<path d="M11.1897 15.2336C11.3972 15.4491 11.5888 15.6568 11.7805 15.8643C11.6208 16.0799 11.3653 16.1198 11.1577 15.9442C10.9341 15.7605 10.9421 15.497 11.1897 15.2256V15.2336Z" fill="#FFB422"/>
</svg>
