<svg width="32" height="32" viewBox="0 0 32 32" fill="none" xmlns="http://www.w3.org/2000/svg">
<path d="M8 25.8485V5H23.9443C24.1522 5.13088 24.1984 5.31562 24.1984 5.54659C24.1984 11.0513 24.1984 16.556 24.1984 22.0607V22.3147C22.9974 22.3147 21.8348 22.3147 20.6646 22.3147C20.2873 22.3147 20.1488 22.4456 20.1488 22.7998C20.1488 23.8006 20.1488 24.8092 20.1488 25.81C20.1488 25.8947 20.1488 25.9794 20.1488 26.0795C20.041 26.0795 19.9564 26.0795 19.8717 26.0795C16.1069 26.0795 12.3499 26.0795 8.58512 26.0795C8.33876 26.0795 8.13858 26.0333 8 25.8408V25.8485ZM16.1223 14.0385C14.1437 14.0385 12.1574 14.0385 10.1787 14.0385C9.74761 14.0385 9.62445 14.154 9.62445 14.5543C9.62445 15.9632 9.62445 17.3798 9.62445 18.7887C9.62445 19.189 9.74761 19.3045 10.1787 19.3045C14.1283 19.3045 18.0778 19.3045 22.0196 19.3045C22.4507 19.3045 22.574 19.189 22.574 18.7887C22.574 17.3875 22.574 15.9785 22.574 14.5773C22.574 14.1462 22.4585 14.0385 21.9889 14.0385C20.0334 14.0385 18.0778 14.0385 16.1146 14.0385H16.1223ZM16.0992 11.0513C16.1993 11.0744 16.284 11.0898 16.361 11.1129C17.1616 11.3207 17.9623 11.5363 18.763 11.7442C19.094 11.8289 19.3327 11.6826 19.3404 11.3747C19.3404 9.8888 19.3404 8.39518 19.3404 6.9093C19.3404 6.60905 19.1018 6.44738 18.7938 6.53207C16.923 7.02479 15.0599 7.52526 13.189 8.01799C12.9812 8.07188 12.8656 8.20277 12.8656 8.41064C12.8656 8.89567 12.8656 9.38061 12.8656 9.86564C12.8656 10.0735 12.9812 10.2044 13.1967 10.2583C13.2814 10.2814 13.3738 10.3122 13.4662 10.3276C13.6432 10.3507 13.6895 10.4354 13.6818 10.6048C13.6664 11.0898 13.6818 11.5749 13.6818 12.0599C13.6818 12.3832 13.828 12.5218 14.1668 12.5218C14.6518 12.5218 15.1446 12.5218 15.6296 12.5218C15.9607 12.5218 16.1069 12.3832 16.1069 12.0752C16.1069 11.7365 16.1069 11.4054 16.1069 11.0436L16.0992 11.0513ZM12.0496 21.4987C12.0111 21.1138 11.8033 20.7981 11.4183 20.5748C11.3414 20.5286 11.272 20.4439 11.2412 20.3592C11.1642 20.1744 11.0488 20.0589 10.8332 20.0589C10.6177 20.0589 10.5022 20.1821 10.4329 20.3669C10.4098 20.4362 10.3558 20.5209 10.2942 20.5517C9.77842 20.8288 9.53209 21.2984 9.64757 21.7912C9.77075 22.3147 10.2019 22.6458 10.7947 22.692C11.0795 22.7151 11.2412 22.8613 11.2412 23.0769C11.2412 23.2617 11.0795 23.4233 10.8794 23.4387C10.6484 23.4618 10.4791 23.3233 10.4329 23.0538C10.3867 22.8151 10.2172 22.6689 9.99398 22.692C9.75531 22.7151 9.60136 22.8921 9.63216 23.1462C9.67065 23.5465 9.89397 23.8468 10.2635 24.0547C10.3405 24.1009 10.4098 24.1856 10.4406 24.2703C10.5176 24.455 10.633 24.5705 10.8485 24.5705C11.0487 24.5705 11.1642 24.4551 11.2412 24.2857C11.2797 24.201 11.349 24.1009 11.4337 24.0547C11.8725 23.8083 12.1266 23.3541 12.0496 22.9076C11.9726 22.4379 11.6108 22.0761 11.1104 21.9683C11.0026 21.9452 10.8948 21.9529 10.787 21.9298C10.5714 21.8836 10.4483 21.7604 10.4483 21.5526C10.4483 21.3678 10.6099 21.2061 10.8101 21.1907C11.0334 21.1753 11.1796 21.2831 11.2412 21.4756C11.2566 21.5141 11.2412 21.5526 11.2566 21.5911C11.3028 21.8144 11.4799 21.9529 11.6955 21.9298C11.9111 21.9144 12.065 21.7451 12.065 21.491L12.0496 21.4987ZM15.9222 23.8237C15.0676 23.8237 14.2207 23.8237 13.3661 23.8237C13.0427 23.8237 12.8657 23.9623 12.858 24.2009C12.858 24.4319 13.0427 24.5783 13.3584 24.5783C15.0444 24.5783 16.7305 24.5783 18.4166 24.5783C18.7322 24.5783 18.9247 24.4396 18.9247 24.2009C18.9247 23.97 18.7399 23.8237 18.4243 23.8237C17.5928 23.8237 16.7536 23.8237 15.9222 23.8237Z" fill="#0671B8"/>
<path d="M20.9648 25.733V23.0923H23.8058C22.8819 23.9546 21.9118 24.8554 20.9648 25.733Z" fill="#0671B8"/>
<path d="M13.6509 14.8081V15.5318H10.4406V14.8081H13.6509Z" fill="#0671B8"/>
<path d="M14.4902 15.5318V14.8081H17.7006V15.5318H14.4902Z" fill="#0671B8"/>
<path d="M18.5474 14.793H21.7425V15.5244H18.5474V14.793Z" fill="#0671B8"/>
<path d="M10.4406 17.0411V16.3174H13.6509V17.0411H10.4406Z" fill="#0671B8"/>
<path d="M14.4902 17.0333V16.3096H17.7006V17.0333H14.4902Z" fill="#0671B8"/>
<path d="M21.7502 16.3174V17.0411H18.5398V16.3174H21.7502Z" fill="#0671B8"/>
<path d="M13.6509 17.8188V18.5425H10.4406V17.8188H13.6509Z" fill="#0671B8"/>
<path d="M17.7006 17.8188V18.5425H14.4902V17.8188H17.7006Z" fill="#0671B8"/>
<path d="M21.7502 18.5502H18.5398V17.8188H21.7502V18.5502Z" fill="#0671B8"/>
<path d="M18.5166 7.39453V10.9053C17.8468 10.7282 17.1924 10.5511 16.538 10.3817C16.1761 10.2816 15.8066 10.1969 15.4448 10.0891C15.3755 10.066 15.2908 9.96596 15.2908 9.90437C15.2754 9.40394 15.2831 8.90355 15.2908 8.39542C15.2908 8.33383 15.3524 8.24137 15.4063 8.22597C16.4302 7.94882 17.4619 7.67939 18.5166 7.39453Z" fill="#FFB422"/>
<path d="M13.6741 8.68005C13.9358 8.61076 14.1899 8.54146 14.4594 8.47217V9.82718C14.1822 9.75789 13.9281 9.68858 13.6741 9.61929V8.68005Z" fill="#FFB422"/>
<path d="M15.2831 11.7749H14.4902V10.6201C14.7289 10.6817 14.9675 10.7356 15.1985 10.8049C15.237 10.8126 15.2754 10.8895 15.2754 10.928C15.2754 11.1975 15.2754 11.4747 15.2754 11.7672L15.2831 11.7749Z" fill="#FFB422"/>
</svg>
