<svg width="32" height="32" viewBox="0 0 32 32" fill="none" xmlns="http://www.w3.org/2000/svg">
<path d="M27.2798 12.7276C27.1953 12.3895 27.1024 12.0598 26.8826 11.7724C26.5022 11.2822 26.0035 11.0033 25.3949 10.9948C24.2791 10.9779 23.1633 10.9948 22.0306 10.9948C22.0306 13.5983 22.0306 16.1934 22.0306 18.8053C22.0813 18.8053 22.1405 18.8138 22.1996 18.8138C23.214 18.8138 24.2283 18.8138 25.2427 18.8138C26.071 18.8138 26.7051 18.4418 27.0854 17.6895C27.1784 17.4951 27.2207 17.2837 27.2798 17.0724C27.2798 15.627 27.2798 14.1731 27.2798 12.7276Z" fill="#0671B8"/>
<path d="M22.9688 26.6495C23.2224 26.5481 23.4929 26.472 23.7127 26.3283C24.2368 25.9986 24.5241 25.5084 24.5917 24.8829C24.7523 23.3444 24.9215 21.7976 25.0905 20.2591C25.0905 20.2253 25.0905 20.1915 25.0905 20.1239H24.8792C23.8649 20.1239 22.8505 20.1154 21.8362 20.1239C21.6164 20.1239 21.4051 20.2169 21.1937 20.2845C21.1515 20.3014 21.1176 20.3944 21.1091 20.4536C21.0753 20.7663 21.05 21.0875 21.0162 21.4087C20.6611 21.4087 20.3146 21.4341 19.9765 21.4087C19.6806 21.3834 19.5115 21.172 19.4186 20.8677C19.0044 21.003 18.5986 21.1382 18.176 21.2735C18.6325 22.6006 19.6637 22.8119 20.8978 22.7021C20.8555 23.1839 20.8134 23.6234 20.7711 24.0714C20.7373 24.4518 20.6443 24.8322 20.7711 25.2126C21.0247 25.9818 21.5488 26.4467 22.3433 26.5988C22.3771 26.5988 22.411 26.6242 22.4448 26.6327H22.9688V26.6495Z" fill="#0671B8"/>
<path d="M20.7034 10.7327C18.5395 10.0142 16.384 9.2958 14.2032 8.56885C14.2032 12.7953 14.2032 17.0049 14.2032 21.2398C14.6765 21.0876 15.133 20.9354 15.5895 20.7748C17.2378 20.2254 18.8861 19.676 20.5344 19.135C20.6612 19.0927 20.7204 19.0505 20.7204 18.8983C20.7204 16.2272 20.7204 13.5476 20.7204 10.8765C20.7204 10.8342 20.7204 10.7919 20.7204 10.7327H20.7034Z" fill="#0671B8"/>
<path d="M10.2726 14.9252C10.2726 17.0638 10.2726 19.2025 10.2726 21.3326C10.2726 22.0088 10.6445 22.5244 11.2531 22.6766C12.0139 22.871 12.7661 22.3553 12.8676 21.5777C12.876 21.4847 12.8845 21.3917 12.8845 21.2988C12.8845 17.03 12.8845 12.7613 12.8845 8.50102C12.8845 7.85015 12.5717 7.35991 12.0392 7.1655C11.2531 6.8781 10.4247 7.35989 10.2979 8.19673C10.281 8.31507 10.281 8.44192 10.281 8.56871C10.281 10.6904 10.281 12.812 10.281 14.9337L10.2726 14.9252Z" fill="#0671B8"/>
<path d="M5.71636 18.8139C5.75863 18.797 5.86009 18.7801 5.95307 18.7378C6.83218 18.3151 7.71127 17.884 8.58192 17.4529C8.86087 17.3177 8.99607 17.0557 8.96226 16.7768C8.92845 16.5063 8.72559 16.2696 8.44664 16.2273C8.29449 16.2104 8.1255 16.2273 7.99026 16.2949C7.1196 16.7091 6.25736 17.1317 5.40361 17.5628C5.0993 17.715 4.95565 18.0193 5.03173 18.3151C5.10781 18.611 5.3698 18.8139 5.72483 18.8139H5.71636Z" fill="#FFB422"/>
<path d="M8.29456 12.3218C8.59041 12.3049 8.83555 12.119 8.92853 11.8485C9.01306 11.5865 8.92851 11.299 8.70028 11.1299C8.64111 11.0876 8.57351 11.0538 8.51434 11.02C7.68596 10.6143 6.85751 10.1917 6.02067 9.80285C5.86006 9.72677 5.65718 9.70144 5.47967 9.7268C5.20072 9.76906 5.04862 9.98039 5.00636 10.2593C4.97255 10.5298 5.07396 10.7496 5.30219 10.8848C5.45434 10.9778 5.62335 11.0538 5.78396 11.1299C6.49401 11.4849 7.21253 11.8315 7.92258 12.1781C8.04092 12.2372 8.1593 12.2711 8.2861 12.3133L8.29456 12.3218Z" fill="#FFB422"/>
<path d="M6.98436 13.5981C6.56172 13.5981 6.14753 13.5981 5.72489 13.5981C5.30224 13.5981 5.00641 13.8687 5.00641 14.249C5.00641 14.6294 5.30224 14.8999 5.72489 14.8999C6.56173 14.8999 7.407 14.8999 8.24384 14.8999C8.66649 14.8999 8.96232 14.6294 8.96232 14.249C8.96232 13.8687 8.67494 13.5981 8.24384 13.5981C7.8212 13.5981 7.40701 13.5981 6.98436 13.5981Z" fill="#FFB422"/>
<path d="M23.5577 14.8845C26.0111 14.8845 28 12.8956 28 10.4423C28 7.98886 26.0111 6 23.5577 6C21.1043 6 19.1155 7.98886 19.1155 10.4423C19.1155 12.8956 21.1043 14.8845 23.5577 14.8845Z" fill="#FFB422" stroke="white" stroke-width="0.801063" stroke-miterlimit="10"/>
<path d="M24.1376 7.87462V12.8296H23.5376V8.50367H23.5086L22.2989 9.30692V8.69722L23.5376 7.87462H24.1376Z" fill="white"/>
</svg>
