<svg width="32" height="32" viewBox="0 0 32 32" fill="none" xmlns="http://www.w3.org/2000/svg">
<path d="M5.73658 20.2519C5.45343 18.3848 4.86947 14.3586 4.58632 12.4915C4.40049 11.2615 4.2058 10.0227 4.01113 8.79269C3.92264 8.19983 4.37386 7.7309 4.94018 7.85479C5.1083 7.89018 5.27646 8.00525 5.41804 8.11143C6.85154 9.17328 8.2673 10.244 9.70079 11.3147C10.3556 11.8013 10.9927 11.6951 11.4528 11.0137C12.2227 9.85455 12.9926 8.69544 13.7624 7.5451C14.2226 6.8549 14.6827 6.15587 15.1516 5.46567C15.5764 4.84626 16.3993 4.84626 16.8329 5.45682C16.8949 5.53646 16.9479 5.62486 17.001 5.7045C18.1867 7.48309 19.3813 9.26172 20.5582 11.0492C20.7794 11.3854 21.0626 11.5978 21.4785 11.6155C21.7882 11.6332 22.0448 11.5092 22.2838 11.3323C23.7173 10.2527 25.1596 9.16442 26.6019 8.10258C26.7701 7.97869 27.0001 7.87249 27.2125 7.86364C27.6283 7.82825 27.8584 8.11135 28 8.4653V8.86355C28 8.86355 27.9646 8.91662 27.9557 8.95202C27.8318 9.73071 27.7169 10.5183 27.593 11.297C27.2479 13.518 26.9028 15.739 26.5754 17.9601C26.54 18.1901 26.4692 20.2873 26.2391 20.2873C19.4079 20.2873 12.5766 20.2873 5.73658 20.2873" fill="#0671B8"/>
<path d="M6.34722 25.3927C5.66587 25.1626 5.42695 24.6759 5.45349 23.9857C5.48004 23.2955 5.45349 22.6054 5.45349 21.8975C12.4794 21.8975 19.4787 21.8975 26.4869 21.8975C26.4958 21.9063 26.5134 21.924 26.5134 21.9329C26.5134 22.747 26.5399 23.5611 26.5134 24.3751C26.4957 24.9149 26.1241 25.2068 25.6462 25.3838H6.33836L6.34722 25.3927Z" fill="#0671B8"/>
<path d="M15.9922 18.7649C18.0839 18.7649 19.7795 17.0694 19.7795 14.9777C19.7795 12.8861 18.0839 11.1904 15.9922 11.1904C13.9006 11.1904 12.205 12.8861 12.205 14.9777C12.205 17.0694 13.9006 18.7649 15.9922 18.7649Z" fill="#FFB422" stroke="white" stroke-width="0.547931" stroke-miterlimit="10"/>
<path d="M16.3373 17.6151C16.3373 17.4647 16.3373 17.3231 16.3373 17.1815C16.3373 17.1196 16.3551 17.1018 16.4171 17.0841C16.5144 17.0575 16.6117 17.0222 16.7002 16.9691C17.3815 16.6152 17.5939 15.801 17.1515 15.2081C16.8772 14.8365 16.4967 14.6684 16.0454 14.6507C15.8419 14.6507 15.656 14.5976 15.4968 14.4649C15.2755 14.2791 15.2402 13.9694 15.4171 13.7571C15.6207 13.5093 15.895 13.4473 16.1958 13.5181C16.479 13.5801 16.6736 13.7482 16.7179 14.0579H17.3815C17.3815 13.9959 17.3815 13.9428 17.3638 13.8897C17.2665 13.3765 16.9391 13.0579 16.4524 12.8986C16.355 12.8633 16.3373 12.8279 16.3373 12.7394C16.3373 12.6067 16.3373 12.4828 16.3373 12.3589H15.6648C15.6648 12.4828 15.656 12.6067 15.6648 12.7217C15.6737 12.8367 15.6384 12.8898 15.5233 12.9075C15.4614 12.9164 15.4082 12.9518 15.3463 12.9784C14.6384 13.3146 14.3995 14.1464 14.842 14.757C15.1163 15.1286 15.4968 15.3055 15.9481 15.3232C16.1427 15.3232 16.3197 15.3675 16.4701 15.4825C16.7621 15.7126 16.771 16.093 16.4701 16.3231C16.0277 16.6593 15.4437 16.4647 15.2667 15.9161H14.603C14.6119 16.0046 14.6208 16.0842 14.6385 16.155C14.7623 16.6417 15.0897 16.9336 15.5587 17.0841C15.6294 17.1106 15.6561 17.1372 15.6472 17.208C15.6472 17.3407 15.6472 17.4824 15.6472 17.6239H16.3196L16.3373 17.6151Z" fill="white"/>
</svg>
