<svg width="32" height="32" viewBox="0 0 32 32" fill="none" xmlns="http://www.w3.org/2000/svg">
<path d="M11.7865 6.00781H20.9836C21.3285 6.16876 21.4664 6.43705 21.4358 6.81259C21.4205 6.98121 21.4358 7.14985 21.4358 7.32613V8.12315C21.0832 8.13847 20.7537 8.13853 20.4318 8.17685C18.2398 8.39145 16.3391 10.0623 15.8332 12.2082C15.6876 12.829 15.6723 13.4651 15.6723 14.1013C15.6723 14.1779 15.634 14.2776 15.5803 14.3236C15.0208 14.7298 14.7602 15.2739 14.7602 15.9713C14.7679 18.2246 14.7602 20.4702 14.7602 22.7235C14.7602 23.8962 15.542 24.6703 16.707 24.6703C18.2015 24.6703 19.6883 24.6703 21.1829 24.6703H21.4281C21.4281 25.2068 21.4281 25.7202 21.4281 26.2337C21.4281 26.7396 21.1982 26.9695 20.6924 26.9695C16.0555 26.9695 11.4186 26.9695 6.77412 26.9695C6.26828 26.9695 6.04602 26.7396 6.04602 26.2337C6.04602 21.4972 6.04602 16.7531 6.04602 12.0166C6.04602 11.9477 6.04602 11.871 6.05368 11.7943H6.32193C7.88543 11.7943 9.4566 11.7943 11.0201 11.7943C11.5796 11.7943 11.7942 11.5797 11.7942 11.0202C11.7942 9.43375 11.7942 7.83961 11.7942 6.25312C11.7942 6.17648 11.7865 6.10747 11.7789 6.03083L11.7865 6.00781ZM10.384 15.91C11.0661 15.91 11.7482 15.91 12.4303 15.91C12.8442 15.91 13.1278 15.6647 13.1278 15.3045C13.1278 14.9443 12.8442 14.6838 12.438 14.6838C11.0737 14.6838 9.71718 14.6838 8.35295 14.6838C7.94674 14.6838 7.66317 14.9443 7.66317 15.3045C7.66317 15.6647 7.94675 15.91 8.34529 15.91C9.0274 15.91 9.70952 15.91 10.3916 15.91H10.384ZM10.384 18.3625C11.0814 18.3625 11.7712 18.3625 12.4686 18.3625C12.8519 18.3625 13.1278 18.1097 13.1278 17.7571C13.1278 17.4046 12.8518 17.1363 12.461 17.1363C11.0891 17.1363 9.70952 17.1363 8.33763 17.1363C7.94675 17.1363 7.66317 17.4046 7.66317 17.7571C7.66317 18.1173 7.93909 18.3625 8.33763 18.3625C9.01974 18.3625 9.70186 18.3625 10.384 18.3625ZM10.384 20.8151C11.0661 20.8151 11.7482 20.8151 12.4303 20.8151C12.5146 20.8151 12.6066 20.8151 12.6909 20.7921C12.9821 20.7078 13.1737 20.4243 13.1354 20.1407C13.0894 19.8111 12.8365 19.5965 12.4763 19.5965C11.0967 19.5965 9.70952 19.5965 8.32996 19.5965C7.95441 19.5965 7.67083 19.8648 7.67083 20.2096C7.67083 20.5622 7.94675 20.8228 8.33763 20.8228C9.01974 20.8228 9.70186 20.8228 10.384 20.8228V20.8151ZM10.3993 23.2677C11.0891 23.2677 11.7712 23.2677 12.461 23.2677C12.8595 23.2677 13.1354 23.0148 13.1354 22.6546C13.1354 22.302 12.8518 22.0414 12.461 22.0414C11.0891 22.0414 9.72484 22.0414 8.35295 22.0414C7.94674 22.0414 7.66317 22.3096 7.67083 22.6698C7.67083 23.03 7.95441 23.2677 8.35295 23.2677C9.03506 23.2677 9.71719 23.2677 10.3993 23.2677Z" fill="#0671B8"/>
<path d="M10.5602 6.00767C10.5602 6.05366 10.5755 6.09968 10.5755 6.14567C10.5755 7.54822 10.5755 8.95078 10.5755 10.361C10.5755 10.4146 10.5755 10.4683 10.5602 10.5296H6C6.08431 10.3686 6.13029 10.2077 6.22993 10.1081C7.52518 8.79752 8.8281 7.5022 10.131 6.19928C10.2153 6.11497 10.3303 6.06898 10.4376 6C10.4759 6 10.5219 6 10.5602 6V6.00767Z" fill="#0671B8"/>
<path d="M25.1146 15.2276C25.2525 15.2276 25.3675 15.2276 25.4825 15.243C25.7814 15.2736 25.996 15.4882 26.0266 15.7871C26.0343 15.8637 26.0266 15.9404 26.0266 16.0094C26.0266 18.2167 26.0266 20.424 26.0266 22.6389C26.0266 23.2214 25.8197 23.4283 25.2449 23.4283C22.4091 23.4283 19.581 23.4283 16.7452 23.4283C16.2087 23.4283 15.9941 23.206 15.9941 22.6695C15.9941 20.4622 15.9941 18.255 15.9941 16.0401C15.9941 15.4346 16.1704 15.2506 16.7759 15.2276C16.8066 15.2276 16.8449 15.2276 16.8985 15.2199C16.8985 15.1433 16.9062 15.0666 16.9062 14.9976C16.9138 14.3385 16.8909 13.6718 16.9445 13.0126C17.0978 11.1656 18.6536 9.59441 20.493 9.38747C22.7233 9.14222 24.6547 10.5525 25.0533 12.7598C25.1376 13.2273 25.1069 13.7101 25.1222 14.1853C25.1299 14.5225 25.1222 14.852 25.1222 15.2123L25.1146 15.2276ZM18.1478 15.2276H23.8883C23.8883 14.6221 23.8883 14.0397 23.8883 13.4572C23.873 11.9857 22.7923 10.8053 21.3055 10.6137C19.9566 10.4451 18.6153 11.3648 18.2398 12.7214C18.1938 12.8747 18.1555 13.0433 18.1555 13.2042C18.1478 13.8787 18.1555 14.5532 18.1555 15.2276H18.1478ZM18.554 18.7302C18.2168 18.7302 17.9485 19.0061 17.9562 19.351C17.9562 19.6882 18.2398 19.9641 18.5693 19.9565C18.8989 19.9565 19.1825 19.6575 19.1748 19.3356C19.1748 18.9984 18.8912 18.7301 18.554 18.7378V18.7302ZM21.0065 18.7302C20.6693 18.7302 20.4011 18.9984 20.4011 19.3433C20.4011 19.6805 20.6846 19.9565 21.0142 19.9565C21.3438 19.9565 21.6274 19.6652 21.6274 19.3356C21.6274 18.9984 21.3514 18.7302 21.0065 18.7302ZM22.8536 19.3356C22.8536 19.6728 23.1295 19.9488 23.4591 19.9565C23.7887 19.9565 24.0722 19.6729 24.0722 19.3433C24.0722 19.0061 23.7963 18.7302 23.4591 18.7302C23.1219 18.7302 22.846 18.9984 22.846 19.3356H22.8536Z" fill="#FFB422" stroke="white" stroke-width="0.137956" stroke-miterlimit="10"/>
<path d="M19.3664 13.9937C19.2514 12.5222 20.2171 11.5335 21.4204 11.886V13.9937H19.3664Z" fill="#0671B8"/>
</svg>
