<svg width="32" height="32" viewBox="0 0 32 32" fill="none" xmlns="http://www.w3.org/2000/svg">
<path d="M26.8212 11.7767C26.7372 11.4325 26.6449 11.0884 26.4183 10.803C26.0322 10.2994 25.5201 10.0139 24.8906 10.0055C23.7491 9.98872 22.6075 10.0055 21.4408 10.0055C21.4408 12.6747 21.4408 15.3356 21.4408 18.0048C21.4996 18.0048 21.5499 18.0132 21.6086 18.0132C22.6495 18.0132 23.6903 18.0132 24.7311 18.0132C25.5873 18.0132 26.2336 17.6355 26.6113 16.8632C26.712 16.6702 26.7456 16.4435 26.8128 16.2337C26.8128 14.748 26.8128 13.2624 26.8128 11.7767H26.8212Z" fill="#0671B8"/>
<path d="M22.4059 26.0294C22.6661 25.9202 22.9431 25.8447 23.1697 25.702C23.7069 25.3578 24.0007 24.8626 24.0679 24.2247C24.2274 22.6467 24.412 21.0686 24.5799 19.4906C24.5799 19.457 24.5799 19.415 24.5799 19.3563H24.3616C23.3208 19.3563 22.28 19.3479 21.2392 19.3563C21.021 19.3563 20.7943 19.4571 20.5761 19.5242C20.5341 19.541 20.4921 19.6333 20.4837 19.7004C20.4502 20.0278 20.425 20.3468 20.3914 20.6825C20.0305 20.6825 19.6779 20.7077 19.3254 20.6825C19.0232 20.6574 18.847 20.4391 18.7546 20.1285C18.3265 20.2712 17.9152 20.4055 17.4788 20.5482C17.9404 21.908 19.0064 22.1262 20.2655 22.0087C20.2235 22.4956 20.1731 22.9573 20.1396 23.4105C20.106 23.7966 20.0137 24.1827 20.1396 24.5773C20.3998 25.3663 20.937 25.8363 21.7512 25.9957C21.7848 25.9957 21.8183 26.021 21.8519 26.0378H22.3891L22.4059 26.0294Z" fill="#0671B8"/>
<path d="M20.0809 9.72866C17.865 8.99001 15.6574 8.25134 13.4163 7.5127V20.4895C13.8947 20.33 14.3648 20.1705 14.8348 20.0194C16.5219 19.457 18.2091 18.8946 19.8962 18.3322C20.0221 18.2903 20.0809 18.2399 20.0809 18.0888C20.0809 15.3524 20.0809 12.6077 20.0809 9.87139C20.0809 9.82942 20.0809 9.77902 20.0809 9.72866Z" fill="#0671B8"/>
<path d="M9.39575 14.0261C9.39575 16.2169 9.39575 18.4076 9.39575 20.5984C9.39575 21.2951 9.78184 21.8155 10.3946 21.975C11.1668 22.1764 11.9474 21.6476 12.0482 20.8418C12.0565 20.7495 12.065 20.6488 12.065 20.5565C12.065 16.1834 12.065 11.8102 12.065 7.44547C12.065 6.77397 11.746 6.27034 11.2004 6.07729C10.3946 5.78351 9.54683 6.27874 9.41253 7.1265C9.39574 7.25241 9.39575 7.37828 9.39575 7.50418C9.39575 9.67816 9.39575 11.8522 9.39575 14.0261Z" fill="#0671B8"/>
<path d="M4.72872 18.0051C4.77069 17.9883 4.87981 17.9715 4.97214 17.9296C5.87027 17.4931 6.7684 17.0566 7.66653 16.6117C7.95191 16.469 8.08623 16.2004 8.05266 15.9234C8.01908 15.6465 7.80923 15.403 7.52385 15.361C7.37276 15.3442 7.1881 15.3611 7.0538 15.4282C6.16406 15.8479 5.28272 16.2843 4.40137 16.7292C4.08241 16.8887 3.93971 17.1993 4.02365 17.5015C4.10758 17.8036 4.36779 18.0135 4.73712 18.0051H4.72872Z" fill="#FFB422"/>
<path d="M7.37279 11.3484C7.67496 11.3316 7.92676 11.1385 8.0191 10.8615C8.11143 10.5929 8.0191 10.2991 7.78407 10.1313C7.72532 10.0893 7.65816 10.0557 7.59101 10.0221C6.74324 9.60246 5.89549 9.17439 5.03933 8.77149C4.87985 8.69594 4.66161 8.67079 4.48534 8.69597C4.19995 8.73794 4.04046 8.9562 4.00689 9.24158C3.97331 9.51858 4.07404 9.73683 4.31745 9.88792C4.47693 9.98864 4.64481 10.0557 4.81268 10.1397C5.54294 10.5006 6.27321 10.8616 7.00346 11.2141C7.12097 11.2728 7.24688 11.3065 7.37279 11.3484Z" fill="#FFB422"/>
<path d="M6.02973 12.6665C5.60165 12.6665 5.16517 12.6665 4.73709 12.6665C4.30061 12.6665 4.00684 12.9435 4.00684 13.338C4.00684 13.7242 4.30901 14.0011 4.73709 14.0095C5.60164 14.0095 6.45782 14.0095 7.32237 14.0095C7.75885 14.0095 8.05263 13.7326 8.05263 13.338C8.05263 12.9435 7.75885 12.6749 7.32237 12.6749C6.89429 12.6749 6.45781 12.6749 6.02973 12.6749V12.6665Z" fill="#FFB422"/>
<path d="M23.4417 14.1168C25.9592 14.1168 28 12.0759 28 9.5584C28 7.04089 25.9592 5 23.4417 5C20.9241 5 18.8833 7.04089 18.8833 9.5584C18.8833 12.0759 20.9241 14.1168 23.4417 14.1168Z" fill="#FFB422" stroke="white" stroke-width="0.826454" stroke-miterlimit="10"/>
<path d="M23.7955 12.2843C23.7955 12.1315 23.7955 11.9787 23.7955 11.834C23.7955 11.7777 23.8115 11.7456 23.8758 11.7295C23.9723 11.6973 24.0769 11.6653 24.1653 11.617C24.8728 11.2472 25.0898 10.4111 24.6316 9.79206C24.3502 9.40616 23.9563 9.22932 23.49 9.21324C23.2809 9.21324 23.088 9.16491 22.9192 9.0202C22.6861 8.82726 22.6539 8.51379 22.8388 8.28868C23.0558 8.03946 23.3372 7.9751 23.6427 8.03941C23.9402 8.10373 24.1331 8.28066 24.1813 8.60223H24.8647C24.8647 8.53792 24.8647 8.48157 24.8486 8.42529C24.7441 7.89469 24.4145 7.56514 23.908 7.39632C23.8116 7.36416 23.7874 7.32389 23.7874 7.22742C23.7874 7.09879 23.7874 6.96213 23.7874 6.8335H23.096C23.096 6.96213 23.088 7.0827 23.096 7.21133C23.1041 7.33192 23.0719 7.38828 22.9513 7.40436C22.887 7.4124 22.8308 7.44453 22.7664 7.47669C22.0349 7.82239 21.7856 8.69058 22.2439 9.31766C22.5252 9.70355 22.9192 9.88049 23.3854 9.89657C23.5864 9.89657 23.7714 9.93673 23.9241 10.0573C24.2296 10.2905 24.2296 10.6924 23.9241 10.9255C23.4739 11.2793 22.8629 11.0703 22.686 10.5076H22.0027C22.0188 10.596 22.0188 10.6764 22.0429 10.7568C22.1715 11.2632 22.5092 11.5608 22.9915 11.7215C23.0639 11.7457 23.088 11.7697 23.088 11.8501C23.088 11.9948 23.088 12.1315 23.088 12.2762H23.7794L23.7955 12.2843Z" fill="white"/>
</svg>
