<svg width="32" height="32" viewBox="0 0 32 32" fill="none" xmlns="http://www.w3.org/2000/svg">
<path d="M27.7657 12.0257C27.6782 11.6672 27.582 11.3086 27.346 11.0113C26.9437 10.4867 26.4104 10.1894 25.7546 10.1806C24.5654 10.1631 23.3763 10.1806 22.1609 10.1806C22.1609 12.9612 22.1609 15.733 22.1609 18.5135C22.2221 18.5135 22.2746 18.5222 22.3358 18.5222C23.42 18.5222 24.5042 18.5222 25.5885 18.5222C26.4803 18.5222 27.1536 18.1288 27.5471 17.3243C27.652 17.1232 27.687 16.8872 27.7569 16.6686C27.7569 15.1209 27.7569 13.5733 27.7569 12.0257H27.7657Z" fill="#0671B8"/>
<path d="M23.1752 26.8728C23.4463 26.7591 23.7348 26.6804 23.9709 26.5317C24.5305 26.1732 24.8365 25.6573 24.9065 24.9928C25.0726 23.349 25.265 21.7051 25.4398 20.0613C25.4398 20.0263 25.4398 19.9826 25.4398 19.9214H25.2125C24.1283 19.9214 23.044 19.9126 21.9598 19.9214C21.7325 19.9214 21.4964 20.0264 21.2691 20.0963C21.2253 20.1138 21.1816 20.2099 21.1729 20.2799C21.1379 20.6209 21.1117 20.9532 21.0767 21.303C20.7007 21.303 20.3335 21.3292 19.9662 21.303C19.6514 21.2767 19.4678 21.0494 19.3717 20.7258C18.9257 20.8745 18.4973 21.0144 18.0426 21.163C18.5235 22.5795 19.634 22.8068 20.9455 22.6844C20.9018 23.1916 20.8493 23.6725 20.8144 24.1447C20.7794 24.5469 20.6832 24.9491 20.8144 25.3601C21.0854 26.182 21.645 26.6716 22.4932 26.8377C22.5282 26.8377 22.5631 26.864 22.5981 26.8815H23.1577L23.1752 26.8728Z" fill="#0671B8"/>
<path d="M20.7531 9.89236C18.4448 9.12291 16.1451 8.35344 13.8105 7.58398C13.8105 12.0958 13.8105 16.5902 13.8105 21.102C14.3089 20.9358 14.7986 20.7697 15.2883 20.6123C17.0458 20.0264 18.8033 19.4406 20.5608 18.8548C20.6919 18.811 20.7531 18.7585 20.7531 18.6011C20.7531 15.7507 20.7531 12.8915 20.7531 10.041C20.7531 9.99732 20.7531 9.94482 20.7531 9.89236Z" fill="#0671B8"/>
<path d="M9.6134 14.369C9.6134 16.6511 9.6134 18.9332 9.6134 21.2154C9.6134 21.9411 10.0156 22.4832 10.6539 22.6494C11.4583 22.8592 12.2715 22.3084 12.3764 21.469C12.3852 21.3728 12.394 21.2679 12.394 21.1717C12.394 16.6162 12.394 12.0607 12.394 7.51389C12.394 6.81439 12.0617 6.28976 11.4933 6.08865C10.6539 5.78262 9.77081 6.2985 9.63091 7.18162C9.61342 7.31278 9.6134 7.44389 9.6134 7.57505C9.6134 9.83969 9.6134 12.1044 9.6134 14.369Z" fill="#0671B8"/>
<path d="M4.7607 18.5135C4.80442 18.4961 4.91809 18.4786 5.01427 18.4349C5.94986 17.9802 6.88544 17.5255 7.82103 17.062C8.11832 16.9134 8.25821 16.6336 8.22323 16.3451C8.18826 16.0566 7.96966 15.8029 7.67237 15.7592C7.51498 15.7417 7.32262 15.7593 7.18272 15.8292C6.25588 16.2664 5.33777 16.721 4.41968 17.1845C4.08741 17.3506 3.93878 17.6742 4.02622 17.9889C4.11366 18.3037 4.38472 18.5223 4.76945 18.5135H4.7607Z" fill="#FFB422"/>
<path d="M7.51489 11.58C7.82966 11.5626 8.09197 11.3614 8.18815 11.0728C8.28433 10.793 8.18815 10.487 7.94332 10.3121C7.88212 10.2684 7.81218 10.2334 7.74223 10.1985C6.85911 9.76126 5.97598 9.31534 5.08411 8.89563C4.91798 8.81694 4.69064 8.79074 4.50702 8.81697C4.20973 8.86069 4.04359 9.08805 4.00862 9.38534C3.97364 9.67388 4.07859 9.90124 4.33216 10.0586C4.49829 10.1636 4.67316 10.2334 4.84804 10.3209C5.60875 10.6969 6.36945 11.0729 7.13016 11.4401C7.25257 11.5013 7.38373 11.5363 7.51489 11.58Z" fill="#FFB422"/>
<path d="M6.10726 12.9526C5.66132 12.9526 5.20664 12.9526 4.76071 12.9526C4.30603 12.9526 4 13.2412 4 13.6522C4 14.0544 4.31477 14.3429 4.76071 14.3516C5.66132 14.3516 6.55317 14.3516 7.45378 14.3516C7.90846 14.3516 8.21449 14.0631 8.21449 13.6522C8.21449 13.2412 7.90846 12.9614 7.45378 12.9614C7.00785 12.9614 6.55319 12.9614 6.10726 12.9614V12.9526Z" fill="#FFB422"/>
</svg>
