<svg width="32" height="32" viewBox="0 0 32 32" fill="none" xmlns="http://www.w3.org/2000/svg">
<path d="M6.7006 4.99023C6.89283 4.99023 7.08507 4.99023 7.28499 4.99023C7.30037 4.99792 7.32344 5.02102 7.33882 5.02102C8.59984 5.22094 9.4072 6.65113 8.75362 7.91216C8.68442 8.04287 8.75362 8.09667 8.82282 8.17356C9.31493 8.66567 9.80704 9.15011 10.2915 9.64222C10.3299 9.68066 10.3683 9.70374 10.4068 9.74218C12.0215 8.34275 13.8823 7.61227 16.0122 7.61227C18.1421 7.61227 19.9952 8.35045 21.6099 9.74988C22.1328 9.22701 22.6479 8.70414 23.1708 8.19665C23.2861 8.08131 23.2938 8.00447 23.2246 7.85837C22.7248 6.83571 23.1785 5.61314 24.2165 5.16716C24.378 5.09796 24.5548 5.05176 24.7163 4.99793C24.9085 4.99793 25.1008 4.99793 25.3007 4.99793C25.3468 5.01331 25.393 5.02873 25.4468 5.04411C26.1696 5.22865 26.654 5.67462 26.9077 6.38202C26.9462 6.48198 26.9692 6.58965 27 6.6973V7.28169C27 7.28169 26.9769 7.30469 26.9769 7.31238C26.7616 8.6426 25.2699 9.39613 24.0551 8.74255C24.0089 8.71948 23.909 8.73489 23.8705 8.77334C23.3246 9.30389 22.7863 9.84217 22.2789 10.3497C25.1085 14.1327 25.1162 17.8696 22.2789 21.645C22.771 22.1294 23.2938 22.6446 23.8013 23.1597C23.9166 23.2751 23.9935 23.2828 24.1396 23.2136C25.1777 22.7061 26.4233 23.1828 26.8539 24.2516C26.9154 24.3977 26.9539 24.5592 27 24.713V25.2974C26.9846 25.3358 26.9616 25.3743 26.9539 25.4204C26.7463 26.3123 25.9927 26.9582 25.1008 26.9966C23.5706 27.0581 22.5557 25.4972 23.2246 24.1132C23.2554 24.044 23.2708 23.921 23.2323 23.8826C22.7018 23.3366 22.1558 22.7907 21.6022 22.2448C19.9952 23.6442 18.1344 24.3824 16.0045 24.3824C13.8669 24.3824 12.0061 23.6442 10.3837 22.2371C9.86086 22.7676 9.34567 23.2905 8.83049 23.798C8.71516 23.9133 8.70749 23.9902 8.77669 24.1363C9.39951 25.4127 8.51525 26.9197 7.11583 26.9966C6.27771 27.0428 5.5011 26.5661 5.17047 25.7972C4.83983 25.0359 5.01669 24.144 5.60875 23.575C6.2162 22.9906 7.10814 22.8445 7.86168 23.2213C8.02315 23.3059 8.10772 23.2674 8.21537 23.152C8.60752 22.7522 8.99967 22.3601 9.39951 21.968C9.52254 21.8526 9.64555 21.7372 9.77627 21.6219C8.35377 19.9764 7.62331 18.1157 7.62331 15.9935C7.62331 13.8636 8.36147 12.0105 9.7609 10.3957C9.23804 9.87288 8.71516 9.35768 8.20767 8.83482C8.10003 8.71948 8.02313 8.70414 7.86935 8.78104C6.96972 9.22701 5.87786 8.91942 5.33193 8.08899C4.77831 7.24318 4.92441 6.12056 5.71639 5.49005C5.9932 5.26706 6.36997 5.1671 6.7006 5.00563V4.99023ZM19.1109 14.7555C19.1109 14.4403 19.1109 14.1403 19.1109 13.8328C19.1109 13.3714 19.5569 12.3488 19.1109 12.4488C18.9187 12.4872 18.2805 13.0408 18.219 12.1489C17.8115 12.0951 17.6884 11.8259 17.5423 12.2335C17.5039 12.3334 17.4193 12.4334 17.3347 12.5026C16.2813 13.2715 12.9826 14.9477 13.8285 13.9712C17.1809 10.1036 22.0251 11.2416 19.803 17.2776C20.4642 22.7754 15.9891 20.7377 15.6277 19.0691C15.5432 18.6847 13.567 17.3699 13.9438 17.4621C15.1741 17.7466 16.3351 18.1849 17.3578 18.9384C17.427 18.9922 17.5039 19.0691 17.5346 19.1537C17.7038 19.592 18.0267 19.8227 18.4266 19.7612C18.8572 19.692 19.1032 19.369 19.1109 18.8846C19.1109 18.4617 19.1109 18.0388 19.1109 17.6082C19.1109 17.3006 19.1109 16.9854 19.1109 16.6778C19.8414 16.5625 20.2028 16.2164 20.172 15.6628C20.1413 15.1323 19.7799 14.8094 19.1109 14.7555ZM11.9369 12.1489C12.5367 10.019 13.8592 12.3796 12.9673 12.7333C12.406 12.7333 11.5448 13.9866 11.0065 14.0097C10.1607 14.0482 9.4764 14.7325 9.42258 15.5475C9.36106 16.4549 7.98469 14.2096 8.86126 14.3172C9.46101 14.3941 11.3141 12.1412 11.9446 12.1412L11.9369 12.1489ZM11.8216 21.2759C11.8985 21.8449 11.6447 20.0765 11.7293 20.6378C11.7678 20.8761 11.96 20.3609 12.1984 20.3225C12.3752 20.2917 12.5444 20.2533 12.7212 20.2071C13.0134 19.592 13.7208 20.0226 13.5594 20.5378C13.5055 20.0226 12.1676 21.2836 12.0984 20.7684C11.6678 20.7684 12.2368 21.2759 11.8216 21.2759ZM22.1405 13.4483C22.1405 13.11 22.7787 13.7098 22.5249 13.8482C22.1789 14.0327 22.5557 15.8781 21.2716 14.7862C21.087 14.8939 20.6411 14.6786 20.7333 14.8478C20.6488 14.8786 20.6334 14.2942 20.9333 14.2788C21.3331 14.2557 21.633 13.8866 21.9713 13.6713C22.0636 13.6175 22.1097 13.4945 22.1405 13.4483ZM21.5484 18.777C21.5176 18.7308 21.3792 18.7077 21.3023 18.6616C20.9409 18.4386 20.841 17.9388 20.4565 18.1003C20.1643 18.2233 20.0182 17.7851 20.2489 17.439C20.3489 17.2853 20.395 17.6159 20.5488 17.7081C20.9179 17.9388 21.2946 18.1618 21.6868 18.3617C21.9021 18.4694 21.5561 19.0845 21.5561 18.777H21.5484ZM22.4711 16.4779C22.2789 16.4779 21.9098 16.3164 21.8098 16.4779C21.6714 16.7086 21.4254 16.524 21.2793 16.2549C21.187 16.0857 21.2793 16.0396 21.4869 16.0473C21.8867 16.0626 22.2866 16.0626 22.6864 16.0473C22.8863 16.0473 23.017 15.8704 23.0093 15.6859C23.0016 15.5014 22.4711 15.4322 22.6556 15.3553C24.0166 14.8094 23.2323 16.7086 22.4788 16.4702L22.4711 16.4779Z" fill="#0671B8"/>
<path d="M20.941 14.3557C20.9025 14.1943 20.8564 14.0405 20.7565 13.9098C20.5796 13.6791 20.3489 13.5483 20.0567 13.5483C19.5339 13.5407 19.011 13.5483 18.4805 13.5483V17.2084C18.4805 17.2084 18.5343 17.2084 18.5574 17.2084C19.0341 17.2084 19.5108 17.2084 19.9875 17.2084C20.3797 17.2084 20.6719 17.0393 20.8487 16.6856C20.8949 16.5933 20.9102 16.4933 20.941 16.3934C20.941 15.7167 20.941 15.0324 20.941 14.3557Z" fill="#FFB422" stroke="white" stroke-width="0.27681" stroke-miterlimit="10"/>
<path d="M18.9186 20.8757C19.0339 20.8296 19.1646 20.7912 19.2723 20.722C19.5183 20.5682 19.6567 20.3375 19.6875 20.0453C19.7644 19.3225 19.8413 18.5997 19.9182 17.8769C19.9182 17.8615 19.9182 17.8462 19.9182 17.8154H19.8182C19.3415 17.8154 18.8647 17.8154 18.3957 17.8154C18.2957 17.8154 18.1958 17.8615 18.0958 17.8923C18.0728 17.8923 18.0574 17.9461 18.0574 17.9692C18.042 18.1153 18.0266 18.2691 18.0112 18.4152C17.8421 18.4152 17.6806 18.4229 17.5268 18.4152C17.3884 18.3998 17.3115 18.2998 17.2654 18.1614C17.0732 18.2229 16.8809 18.2844 16.681 18.3536C16.8963 18.9765 17.3807 19.0764 17.9574 19.0226C17.9344 19.2456 17.919 19.4532 17.8959 19.6608C17.8805 19.8377 17.8421 20.0145 17.8959 20.1914C18.0189 20.5527 18.2573 20.768 18.6341 20.8449C18.6494 20.8449 18.6648 20.8526 18.6802 20.8603H18.9263L18.9186 20.8757Z" fill="#FFB422" stroke="white" stroke-width="0.27681" stroke-miterlimit="10"/>
<path d="M17.8576 13.4174C16.8427 13.079 15.8354 12.7407 14.8127 12.4023C14.8127 14.3861 14.8127 16.3546 14.8127 18.3385C15.0357 18.2693 15.251 18.1923 15.4663 18.1231C16.2352 17.8694 17.0118 17.608 17.7808 17.3542C17.8423 17.3311 17.8653 17.3158 17.8653 17.2466C17.8653 15.9932 17.8653 14.7399 17.8653 13.4865C17.8653 13.4635 17.8653 13.4481 17.8653 13.4174H17.8576Z" fill="#FFB422" stroke="white" stroke-width="0.27681" stroke-miterlimit="10"/>
<path d="M12.9673 15.386C12.9673 16.3856 12.9673 17.3852 12.9673 18.3925C12.9673 18.7077 13.1441 18.9461 13.4286 19.023C13.7823 19.1152 14.136 18.8769 14.1899 18.5078C14.1899 18.4617 14.1899 18.4232 14.1899 18.3771C14.1899 16.3779 14.1899 14.3788 14.1899 12.3796C14.1899 12.072 14.0438 11.8413 13.7977 11.7567C13.4286 11.626 13.0442 11.849 12.9827 12.2411C12.975 12.295 12.975 12.3565 12.975 12.4103C12.975 13.4022 12.975 14.4018 12.975 15.3937L12.9673 15.386Z" fill="#FFB422" stroke="white" stroke-width="0.27681" stroke-miterlimit="10"/>
<path d="M10.8373 17.2083C10.8373 17.2083 10.9064 17.193 10.9449 17.17C11.3524 16.97 11.7676 16.7701 12.1752 16.5625C12.3059 16.501 12.3674 16.3779 12.352 16.2472C12.3366 16.1165 12.2444 16.0089 12.1137 15.9935C12.0445 15.9858 11.9599 15.9935 11.8984 16.0243C11.4908 16.2165 11.091 16.4163 10.6835 16.6163C10.5374 16.6855 10.4759 16.8316 10.5066 16.97C10.5451 17.1084 10.6681 17.2006 10.8296 17.2006L10.8373 17.2083Z" fill="#FFB422" stroke="white" stroke-width="0.27681" stroke-miterlimit="10"/>
<path d="M12.0446 14.1632C12.183 14.1555 12.2984 14.0709 12.3368 13.9402C12.3753 13.8172 12.3368 13.6865 12.2292 13.6019C12.1984 13.5789 12.1753 13.5634 12.1446 13.548C11.7524 13.3558 11.368 13.1636 10.9758 12.9791C10.8989 12.9406 10.8067 12.933 10.7221 12.9484C10.5914 12.9714 10.5222 13.0713 10.4991 13.1944C10.4837 13.3174 10.5299 13.425 10.6375 13.4866C10.7067 13.5327 10.7913 13.5635 10.8605 13.6019C11.1911 13.7634 11.5294 13.9326 11.8601 14.094C11.9139 14.1171 11.9754 14.1324 12.0292 14.1555L12.0446 14.1632Z" fill="#FFB422" stroke="white" stroke-width="0.27681" stroke-miterlimit="10"/>
<path d="M11.4294 14.7632C11.2295 14.7632 11.0373 14.7632 10.8373 14.7632C10.6374 14.7632 10.499 14.8862 10.499 15.0708C10.499 15.2476 10.6374 15.3783 10.8373 15.3783C11.2295 15.3783 11.6217 15.3783 12.0215 15.3783C12.2214 15.3783 12.3598 15.2553 12.3598 15.0708C12.3598 14.8939 12.2214 14.7632 12.0215 14.7632C11.8216 14.7632 11.6293 14.7632 11.4294 14.7632Z" fill="#FFB422" stroke="white" stroke-width="0.27681" stroke-miterlimit="10"/>
</svg>
