<svg width="32" height="32" viewBox="0 0 32 32" fill="none" xmlns="http://www.w3.org/2000/svg">
<path d="M22.8077 26.0502C22.6897 26.0109 22.5639 25.9716 22.4459 25.9166C21.8796 25.6491 21.5885 25.2007 21.5413 24.5793C21.5413 24.5243 21.5413 24.4693 21.5413 24.4142C21.5413 18.4836 21.5413 12.5608 21.5413 6.63017C21.5413 5.89867 21.8717 5.35591 22.4852 5.11207C23.4291 4.72666 24.4831 5.37951 24.546 6.39417C24.546 6.47282 24.546 6.55939 24.546 6.63804C24.546 12.5608 24.546 18.4757 24.546 24.3985C24.546 24.949 24.3887 25.4131 23.9325 25.7434C23.7437 25.8772 23.5077 25.948 23.2953 26.0502H22.7998H22.8077Z" fill="#FFB422"/>
<path d="M9.56204 26.0503C9.23955 25.9165 9.12939 25.6806 9.12939 25.3346C9.13726 23.6513 9.12939 21.9681 9.12939 20.277V20.0488H11.379V20.277C11.379 21.9602 11.379 23.6435 11.379 25.3346C11.379 25.6728 11.2689 25.9165 10.9464 26.0503H9.54629H9.56204Z" fill="#0671B8"/>
<path d="M5 14.205C5.14158 13.9061 5.33826 13.6622 5.73154 13.6465V17.3905C5.34613 17.3905 5.14945 17.1388 5 16.84V14.205Z" fill="#0671B8"/>
<path d="M14.0218 19.2782H12.5195C12.5195 18.9557 12.5195 18.649 12.5195 18.3423C12.5195 18.2636 12.5195 18.177 12.5116 18.0984C12.4802 17.9018 12.315 17.7759 12.1183 17.7837C11.9296 17.7995 11.788 17.9254 11.7802 18.1299C11.7644 18.4288 11.7802 18.7356 11.7802 19.0344C11.7802 19.1052 11.7802 19.1838 11.7802 19.2704H10.2778C10.2778 19.1996 10.2778 19.1288 10.2778 19.0502C10.2778 18.5232 10.2778 17.9962 10.2778 17.4692C10.2778 17.1939 10.1284 17.0287 9.89242 17.0366C9.66432 17.0366 9.53054 17.1939 9.53054 17.4692C9.53054 17.9883 9.53054 18.5075 9.53054 19.0344C9.53054 19.1052 9.53054 19.1838 9.53054 19.2704H8.02042C8.02042 19.0501 8.02042 18.8299 8.02042 18.6097C8.02042 18.3344 7.87886 18.1614 7.65076 18.1614C7.42266 18.1614 7.27313 18.3265 7.27313 18.6018C7.27313 18.7434 7.27313 18.8928 7.27313 19.058C7.21021 19.0265 7.16306 19.0029 7.12373 18.9793C6.70686 18.6568 6.51807 18.2321 6.51807 17.713C6.51807 16.7141 6.51807 15.7152 6.51807 14.7084C6.51807 14.26 6.51807 13.8038 6.51807 13.3554C6.51807 12.3958 7.14732 11.7745 8.09905 11.7745C9.93959 11.7745 11.7723 11.7745 13.6128 11.7588C15.0286 11.7431 16.4051 11.5228 17.7186 10.9644C18.9535 10.4374 19.9682 9.65083 20.7155 8.52606C20.7312 8.50246 20.7469 8.48665 20.7862 8.43945V22.6132C20.684 22.4716 20.6132 22.3458 20.5109 22.2357C20.1649 21.8581 19.8109 21.4884 19.4412 21.1266C19.339 21.0244 19.2839 20.9379 19.2917 20.7963C19.2917 19.467 19.2917 18.1377 19.2917 16.8084C19.2917 16.4545 19.1659 16.2736 18.9221 16.2736C18.6704 16.2736 18.5367 16.4545 18.5367 16.8163C18.5367 17.9568 18.5367 19.0895 18.5367 20.23V20.4817C18.4659 20.4502 18.4108 20.4266 18.3558 20.403C17.9782 20.2379 17.6085 20.057 17.231 19.9075C17.0894 19.8525 17.0343 19.7895 17.0343 19.6322C17.0422 18.9401 17.0343 18.2479 17.0343 17.5557C17.0343 17.4771 17.0343 17.4062 17.0186 17.3276C16.9792 17.1467 16.8613 17.0444 16.6725 17.0287C16.4838 17.0208 16.3422 17.1231 16.295 17.3118C16.2793 17.3826 16.2793 17.4613 16.2793 17.5321C16.2793 18.1456 16.2793 18.7512 16.2793 19.3647C16.2793 19.4355 16.2793 19.5142 16.2793 19.5929C15.768 19.5063 15.2882 19.4277 14.7848 19.3412V19.0344C14.7848 18.1614 14.7848 17.2961 14.7848 16.423C14.7848 16.3444 14.7848 16.2579 14.7612 16.1792C14.714 15.9983 14.5882 15.904 14.3994 15.8961C14.2263 15.8882 14.0691 16.0219 14.0376 16.2028C14.0219 16.2814 14.0218 16.368 14.0218 16.4466C14.0218 17.3119 14.0218 18.1771 14.0218 19.0344V19.2782ZM18.3714 14.0241C17.9152 14.4803 17.4984 14.8971 17.0737 15.3218C16.7905 15.5971 16.5152 15.5971 16.232 15.3218C15.941 15.0387 15.6579 14.7477 15.3747 14.4645C14.7691 13.8589 14.0297 13.8589 13.4162 14.4645C12.8813 14.9994 12.3464 15.5421 11.8037 16.077C11.5363 16.3444 11.2453 16.3444 10.97 16.077C10.7655 15.8803 10.5767 15.6758 10.3722 15.4871C9.88455 15.0387 9.15302 15.023 8.67322 15.4634C8.22489 15.8725 7.80013 16.3208 7.37539 16.7534C7.24167 16.8871 7.21812 17.0523 7.32037 17.2253C7.45408 17.4456 7.7294 17.4613 7.93391 17.2568C8.32718 16.8714 8.72046 16.4703 9.11374 16.0849C9.35757 15.841 9.6486 15.841 9.9003 16.0849C10.0655 16.2422 10.2228 16.4073 10.3801 16.5646C11.0329 17.2175 11.7565 17.2175 12.4094 16.5568C12.9206 16.0455 13.4319 15.5264 13.951 15.0152C14.2656 14.7005 14.5331 14.7005 14.8555 15.0152C15.1308 15.2826 15.3983 15.5578 15.6736 15.8252C16.2792 16.423 17.0422 16.423 17.6557 15.8252C18.0254 15.4555 18.4029 15.0781 18.7726 14.7084C18.804 14.6769 18.8513 14.6454 18.9063 14.5983C18.9063 14.6848 18.9063 14.7477 18.9221 14.8106C18.9535 15.0151 19.103 15.1567 19.2917 15.1567C19.4884 15.1567 19.6614 15.0151 19.6693 14.7949C19.685 14.4016 19.6771 14.0162 19.6693 13.6229C19.6693 13.4342 19.5434 13.2925 19.3704 13.2847C18.9456 13.2689 18.5209 13.2689 18.0962 13.2847C17.9074 13.2925 17.7894 13.4813 17.8051 13.6701C17.813 13.8588 17.9546 13.9926 18.1513 14.0162C18.2142 14.0162 18.2692 14.0162 18.3951 14.0241H18.3714ZM8.00467 13.2689H8.27207C9.90811 13.2689 11.5441 13.2689 13.1881 13.2689C14.0769 13.2689 14.9657 13.2138 15.8466 13.0565C17.2703 12.8048 18.6075 12.3329 19.8188 11.5149C20.0469 11.3576 20.1098 11.1531 19.9839 10.9565C19.8581 10.7677 19.6457 10.7441 19.4019 10.8857C19.0794 11.0824 18.7569 11.279 18.4265 11.452C16.9085 12.2071 15.2882 12.4903 13.6128 12.5139C11.7644 12.5375 9.91596 12.5139 8.05969 12.5217C7.57202 12.5217 7.26526 12.8285 7.26526 13.3162C7.26526 13.6544 7.26526 13.9848 7.26526 14.323C7.26526 14.5983 7.40691 14.7713 7.63501 14.7713C7.86311 14.7713 8.01254 14.5983 8.01254 14.3309C8.01254 13.9848 8.01254 13.6465 8.01254 13.2689H8.00467Z" fill="#0671B8"/>
<path d="M25.3168 18.0587V12.9854C25.6786 13.0404 26.0404 13.4652 26.0483 13.9135C26.064 14.9832 26.064 16.0529 26.0483 17.1148C26.0483 17.5474 25.7258 17.925 25.3168 18.0508V18.0587Z" fill="#FFB422"/>
<path d="M12.1577 21.5276V20.0488H12.8892C12.8892 20.4342 12.9049 20.8276 12.8892 21.213C12.8813 21.3939 12.7476 21.5118 12.5589 21.5276C12.433 21.5354 12.2993 21.5276 12.1577 21.5276Z" fill="#0671B8"/>
<path d="M8.0047 13.2608C8.0047 13.6384 8.0047 13.9845 8.0047 14.3228C8.0047 14.5981 7.85527 14.7711 7.62717 14.7632C7.39906 14.7632 7.25751 14.5902 7.25751 14.3149C7.25751 13.9767 7.25751 13.6463 7.25751 13.3081C7.25751 12.8204 7.56418 12.5137 8.05184 12.5137C9.90025 12.5137 11.7566 12.5294 13.605 12.5058C15.2803 12.4822 16.9006 12.199 18.4187 11.4439C18.7569 11.2788 19.0715 11.0743 19.394 10.8776C19.63 10.7361 19.8502 10.7596 19.9761 10.9484C20.1019 11.145 20.0469 11.3495 19.8109 11.5068C18.6075 12.317 17.2624 12.7969 15.8388 13.0486C14.9578 13.2059 14.069 13.2608 13.1802 13.2608C11.5442 13.2608 9.90813 13.2608 8.26423 13.2608H7.99682H8.0047Z" fill="#0671B8"/>
</svg>
