<svg width="32" height="32" viewBox="0 0 32 32" fill="none" xmlns="http://www.w3.org/2000/svg">
<path d="M27.7881 4C27.9218 4.09102 27.9583 4.21846 27.9522 4.38229C27.9522 6.57896 27.9522 8.77561 27.9522 10.9723C27.9522 11.2999 27.8245 11.3971 27.5085 11.306C25.8247 10.8267 24.1348 10.3412 22.4449 9.85575V5.48666C22.913 5.35316 23.3811 5.21972 23.8491 5.08622C25.0466 4.7464 26.2441 4.40655 27.4416 4.06067C27.4902 4.04853 27.5389 4.0182 27.5875 4C27.6543 4 27.7212 4 27.782 4H27.7881Z" fill="#FFB422" stroke="white" stroke-width="0.0303406" stroke-miterlimit="10"/>
<path d="M21.9039 5.63232V9.72223C21.5513 9.66155 21.2109 9.60084 20.8705 9.54016C20.3416 9.44307 19.8189 9.34599 19.29 9.2489C19.0955 9.21249 19.0226 9.1336 19.0226 8.93942C19.0226 8.08988 19.0226 7.24638 19.0226 6.39684C19.0226 6.23907 19.0894 6.12985 19.2475 6.09951C20.1107 5.94174 20.9799 5.78403 21.8431 5.63232C21.8613 5.63232 21.8735 5.63232 21.9039 5.63232Z" fill="#FFB422" stroke="white" stroke-width="0.0303406" stroke-miterlimit="10"/>
<path d="M20.208 10.5598V9.95898C20.4147 9.99539 20.6092 10.0318 20.8037 10.0682C21.1745 10.135 21.5453 10.2017 21.9161 10.2685C21.9951 10.2806 22.0437 10.2989 22.0437 10.3959C22.0437 11.3365 22.0437 12.2771 22.0437 13.2116C22.0255 13.2298 22.0073 13.2419 21.9891 13.2601C21.9708 13.2176 21.9586 13.1691 21.9282 13.1327C21.7155 12.8778 21.4906 12.629 21.2839 12.3681C21.2292 12.3013 21.1988 12.2042 21.1928 12.1253C21.1806 11.8826 21.1928 11.6459 21.1928 11.4032C21.1928 10.8874 20.8706 10.5659 20.3539 10.5598C20.3113 10.5598 20.2688 10.5598 20.2141 10.5598H20.208Z" fill="#FFB422" stroke="white" stroke-width="0.0303406" stroke-miterlimit="10"/>
<path d="M28.481 9.29764V6.03906C28.6877 6.13615 28.8883 6.20901 29.0645 6.31217C29.2044 6.39713 29.2652 6.55486 29.2652 6.72476C29.2652 7.35585 29.2652 7.993 29.2652 8.62409C29.2652 8.82434 29.1801 8.98818 28.9977 9.0792C28.8396 9.16415 28.6695 9.21876 28.481 9.29764Z" fill="#FFB422" stroke="white" stroke-width="0.0303406" stroke-miterlimit="10"/>
<path d="M6 17.9307H8.66542V19.0488H7.36901C7.13047 19.0488 6.88155 19.0384 6.64301 19.0488C6.37336 19.0695 6.15557 18.9866 6 18.7692V17.9307Z" fill="#0671B8"/>
<path d="M7.01649 21.0677V19.96H22.0029V21.0677C21.7852 21.0677 21.557 21.0677 21.3392 21.0677C20.4472 21.0677 19.5657 21.0677 18.6738 21.0677C18.2485 21.0677 18.093 21.2231 18.093 21.6372C18.093 22.5586 18.093 23.4801 18.093 24.4015C18.093 24.826 18.2485 24.9813 18.6634 24.9813C19.7627 24.9813 20.8621 24.9813 21.9926 24.9813C21.9926 25.0641 22.0133 25.1469 22.0133 25.2297C22.0133 25.9544 22.0133 26.6792 22.0133 27.4142C22.0133 27.8594 21.8681 28.0044 21.4325 28.0044C20.0221 28.0044 18.6115 28.0044 17.2011 28.0044H16.9729V27.6938C16.9729 25.6956 16.9729 23.7078 16.9729 21.7096C16.9729 21.2023 16.8381 21.0677 16.3195 21.0677C15.0854 21.0677 13.8512 21.0677 12.617 21.0677C12.1814 21.0677 12.0362 21.2127 12.0362 21.6579C12.0362 23.6664 12.0362 25.6645 12.0362 27.6731C12.0362 27.7766 12.0362 27.8698 12.0362 27.9941C11.9325 27.9941 11.8495 28.0044 11.7665 28.0044C10.3768 28.0044 8.98702 28.0044 7.5869 28.0044C7.13056 28.0044 6.98541 27.8594 6.98541 27.4039C6.98541 26.617 6.98541 25.8199 6.98541 24.9813C7.0995 24.9813 7.19281 24.9813 7.28616 24.9813C8.29217 24.9813 9.29816 24.9813 10.3145 24.9813C10.7501 24.9813 10.9057 24.8364 10.9057 24.4015C10.9057 23.4801 10.9057 22.5586 10.9057 21.6372C10.9057 21.2334 10.7502 21.0781 10.3457 21.0781C9.33967 21.0781 8.32325 21.0781 7.31724 21.0781C7.21352 21.0781 7.10981 21.0781 6.99573 21.0781L7.01649 21.0677Z" fill="#0671B8"/>
<path d="M20.0012 13.0542H9.02841C9.02841 12.6401 9.01804 12.2364 9.02841 11.8222C9.03878 11.6048 9.19435 11.4806 9.41214 11.4392C9.49511 11.4288 9.57807 11.4392 9.66104 11.4392C12.8865 11.4392 16.1224 11.4392 19.3478 11.4392C19.8664 11.4392 19.9908 11.5738 19.9908 12.0811C19.9908 12.3917 19.9908 12.7126 19.9908 13.0542H20.0012Z" fill="#0671B8"/>
<path d="M14.0482 27.9943H12.9592V21.979H14.0482V27.9943Z" fill="#0671B8"/>
<path d="M14.9816 21.9683H16.0705V27.9732H14.9816V21.9683Z" fill="#0671B8"/>
<path d="M10.0137 24.0704H7.02679V21.979H10.0137V24.0704Z" fill="#0671B8"/>
<path d="M22.0027 24.0807H19.0158V21.979H22.0027V24.0807Z" fill="#0671B8"/>
<path d="M15.8216 17.0196H13.2184C13.3948 15.9946 13.5711 14.9903 13.737 13.9653H15.2927C15.469 14.9799 15.6453 15.9843 15.8216 17.0196Z" fill="#0671B8"/>
<path d="M12.2952 17.0194H9.7439C9.84761 16.8123 9.94098 16.6259 10.0343 16.4395C10.4284 15.6837 10.8225 14.9176 11.2062 14.1515C11.2788 14.0065 11.3618 13.9444 11.5277 13.9547C11.9426 13.9651 12.3678 13.9547 12.8241 13.9547C12.6478 14.99 12.4716 15.9944 12.2952 17.0194Z" fill="#0671B8"/>
<path d="M19.2855 17.0298H16.7238C16.5475 16.0152 16.3711 15.0007 16.1948 13.9653C16.6719 13.9653 17.1387 13.9653 17.6054 13.9653C17.6572 13.9653 17.7298 14.0378 17.7609 14.0896C18.2587 15.0524 18.7566 16.0152 19.2751 17.0298H19.2855Z" fill="#0671B8"/>
<path d="M6.23847 17.0405C6.7674 16.4193 7.25486 15.8499 7.74231 15.2805C8.07419 14.8974 8.38534 14.5144 8.72759 14.1417C8.81056 14.0485 8.96612 13.976 9.10094 13.976C9.48468 13.9553 9.86843 13.976 10.2833 13.976C10.2418 14.0692 10.221 14.1416 10.1795 14.2141C9.73356 15.0941 9.27724 15.9638 8.83128 16.8439C8.75868 16.9992 8.66532 17.0612 8.48901 17.0509C7.76302 17.0405 7.03704 17.0509 6.22809 17.0509L6.23847 17.0405Z" fill="#0671B8"/>
<path d="M22.7289 17.0401C21.9615 17.0401 21.1836 17.0401 20.4161 17.0401C20.3642 17.0401 20.2917 16.9987 20.2606 16.9573C19.7524 15.9738 19.2442 15.0006 18.7153 13.9756C19.1923 13.9756 19.6279 13.9756 20.0635 13.9756C20.1154 13.9756 20.1879 14.017 20.2191 14.0687C21.0487 15.0316 21.8785 16.0048 22.7082 16.978C22.7082 16.978 22.7082 17.0091 22.7082 17.0505L22.7289 17.0401Z" fill="#0671B8"/>
<path d="M12.2539 19.0383H9.59888V17.9512H12.2539V19.0383Z" fill="#0671B8"/>
<path d="M13.1769 19.0281V17.9409H15.8319V19.0281H13.1769Z" fill="#0671B8"/>
<path d="M19.4308 17.9512V19.0383H16.7758V17.9512H19.4308Z" fill="#0671B8"/>
<path d="M20.3538 19.0487V17.9512H23.0296C23.0296 18.1686 23.0296 18.386 23.0296 18.5931C23.0192 18.8726 22.8533 19.0487 22.5629 19.0487C21.8369 19.0487 21.1109 19.0487 20.3538 19.0487Z" fill="#0671B8"/>
</svg>
