<svg width="32" height="32" viewBox="0 0 32 32" fill="none" xmlns="http://www.w3.org/2000/svg">
<path d="M5 15.5537H7.42617V22.0639H5V15.5537Z" fill="#0671B8"/>
<path d="M14.2033 26.1321C13.8474 25.8167 13.8556 25.5903 14.2438 25.3072C14.543 25.0808 14.8341 24.8544 15.1414 24.6441C15.2546 24.5713 15.4002 24.5308 15.5377 24.5147C15.748 24.4904 15.9016 24.5955 15.9663 24.7977C16.031 24.9918 15.9501 25.1454 15.7964 25.2667C15.4002 25.5579 15.012 25.8491 14.6157 26.1402H14.2114L14.2033 26.1321Z" fill="#0671B8"/>
<path d="M22.8889 5V15.6509C22.8889 15.6509 22.8404 15.6509 22.8324 15.6509C22.1449 14.9958 21.3281 14.7047 20.3819 14.737C19.7592 14.7613 19.1284 14.737 18.5057 14.7774C17.9558 14.8098 17.4624 15.0524 17.0176 15.384C16.6941 15.6266 16.3707 15.8692 16.0634 16.1037C15.7075 15.8935 15.384 15.667 15.0363 15.4891C14.5591 15.2465 14.0496 15.1494 13.5159 15.1575C12.9902 15.1575 12.4646 15.1737 11.947 15.2061C11.8095 15.2061 11.6558 15.2546 11.5345 15.3193C11.025 15.6104 10.4751 15.5699 9.909 15.5619V5.0081H22.897L22.8889 5ZM16.3869 5.79253C14.171 5.79253 12.3352 7.61215 12.3271 9.82805C12.3271 12.0763 14.1305 13.9202 16.3464 13.9283C18.6189 13.9364 20.4547 12.1329 20.4628 9.86852C20.4628 7.62028 18.6432 5.80062 16.3869 5.79253Z" fill="#0671B8"/>
<path d="M8.27535 16.3708C9.04364 16.3708 9.80379 16.3951 10.5559 16.3628C10.9279 16.3466 11.2918 16.2172 11.6639 16.1444C11.9388 16.0878 12.2219 15.9907 12.4969 15.9826C13.0064 15.9664 13.5159 15.9827 14.0173 16.0312C14.5106 16.0797 14.9473 16.3062 15.3517 16.6539C15.1818 16.7833 15.0201 16.9046 14.8746 17.0178C14.4217 17.3736 14.2518 17.9074 14.4297 18.4169C14.6076 18.9102 15.0686 19.2094 15.6266 19.2337C16.0391 19.2499 16.3787 19.08 16.7265 18.9102C16.9772 18.7889 17.2441 18.5705 17.4786 18.5948C17.7051 18.619 17.8911 18.9103 18.0933 19.0963C19.3063 20.18 20.5194 21.2636 21.7325 22.3473C21.7972 22.4039 21.8619 22.4605 21.9185 22.5172C22.1126 22.7113 22.1368 22.9943 21.9589 23.1722C21.789 23.3501 21.4656 23.342 21.2634 23.1641C20.398 22.3796 19.5327 21.5952 18.6674 20.8108C18.3035 20.4792 17.9315 20.1556 17.5676 19.8321C17.3088 19.5976 17.0824 19.5815 16.8964 19.7756C16.7184 19.9697 16.7588 20.2042 17.0176 20.4306C18.1094 21.4091 19.2012 22.3877 20.2849 23.3663C20.3253 23.3986 20.3738 23.4229 20.4062 23.4391C20.1636 23.7626 19.8805 23.7869 19.5975 23.5362C19.1122 23.1075 18.627 22.6627 18.1417 22.234C17.6646 21.8135 17.1794 21.4011 16.6942 20.9968C16.4192 20.7703 16.0957 20.8349 15.9906 21.1342C15.9259 21.3444 16.0229 21.4901 16.1685 21.6195C16.9772 22.3312 17.7859 23.0348 18.5947 23.7464C18.8373 23.9567 18.8696 24.1589 18.716 24.353C18.5704 24.5309 18.2549 24.5713 18.0447 24.4095C17.8749 24.2721 17.7293 24.1022 17.5676 23.9566C16.864 23.3582 16.1523 22.7678 15.4406 22.1856C15.2223 22.0076 14.9796 22.0319 14.8341 22.2179C14.6885 22.3959 14.7128 22.6304 14.9149 22.8002C15.198 23.0509 15.4892 23.3016 15.7803 23.5443C15.845 23.6009 15.9178 23.6413 15.9339 23.7221C15.6832 23.7141 15.4326 23.6978 15.1576 23.6817C15.1252 23.2935 14.9716 22.9296 14.6238 22.687C14.2761 22.4443 13.8797 22.4282 13.4673 22.5091C13.257 21.9915 12.877 21.6922 12.3109 21.6437C12.2381 21.029 11.9389 20.6005 11.3243 20.463C10.9118 20.374 10.4912 20.4064 10.1758 20.7056C9.69868 21.1585 9.1568 21.3364 8.51791 21.2393C8.43704 21.2312 8.34811 21.2393 8.25107 21.2393V16.3628L8.27535 16.3708Z" fill="#0671B8"/>
<path d="M24.5145 16.7748V21.247C24.1748 21.247 23.8271 21.247 23.4874 21.247C23.3337 21.247 23.1801 21.2551 23.0265 21.247C22.7515 21.2228 22.5735 21.336 22.4765 21.5948C22.4522 21.6595 22.4118 21.7161 22.3633 21.797C21.9832 21.4493 21.6112 21.1096 21.2392 20.7699C20.1555 19.7833 19.0799 18.7885 17.9962 17.8019C17.7213 17.5512 17.6242 17.535 17.2926 17.6967C16.8883 17.8989 16.492 18.1092 16.0877 18.2952C15.9502 18.3599 15.7803 18.3841 15.6266 18.4003C15.4245 18.4246 15.2627 18.3276 15.1899 18.1254C15.1171 17.9232 15.2061 17.7615 15.3679 17.6402C15.845 17.2843 16.3141 16.9284 16.7912 16.5726C18.1499 15.5374 18.1417 15.5375 19.8562 15.5537C20.2363 15.5537 20.6245 15.5536 20.9966 15.5941C21.6112 15.6749 22.1126 15.9903 22.4765 16.4917C22.6301 16.702 22.8 16.7829 23.0588 16.7748C23.536 16.7586 24.0212 16.7748 24.5145 16.7748Z" fill="#0671B8"/>
<path d="M27.7574 22.4601H25.3556V15.9741H27.7574V22.4601Z" fill="#0671B8"/>
<path d="M10.9683 21.2474C11.2514 21.2474 11.4131 21.3202 11.4859 21.5224C11.5587 21.7165 11.486 21.8782 11.3323 21.9914C10.9846 22.2583 10.6368 22.5332 10.2728 22.7678C10.1434 22.8486 9.94938 22.8729 9.79572 22.8405C9.6825 22.8163 9.53695 22.6788 9.51269 22.5656C9.48843 22.4443 9.53687 22.2421 9.63392 22.1612C9.98976 21.8539 10.378 21.579 10.7661 21.304C10.8389 21.2474 10.9522 21.2473 10.9764 21.2393L10.9683 21.2474Z" fill="#0671B8"/>
<path d="M11.1948 24.1508C10.9603 24.1023 10.7986 24.0295 10.7258 23.8273C10.653 23.6251 10.7258 23.4634 10.8956 23.3421C11.2353 23.0833 11.5749 22.8325 11.9146 22.5818C12.0925 22.4444 12.2947 22.4363 12.4888 22.5172C12.7718 22.6304 12.7961 22.9215 12.5696 23.1075C12.2704 23.3501 11.9874 23.617 11.68 23.8596C11.5345 23.9728 11.3566 24.0538 11.2029 24.1508H11.1948Z" fill="#0671B8"/>
<path d="M13.8717 23.2285C14.1143 23.277 14.268 23.3659 14.3327 23.5681C14.3974 23.7622 14.3166 23.9159 14.1629 24.0372C13.8232 24.296 13.4836 24.579 13.1196 24.7974C12.9741 24.8863 12.7234 24.9026 12.5536 24.846C12.2786 24.7651 12.2624 24.4577 12.4807 24.2798C12.7799 24.0291 13.063 23.7704 13.3703 23.5277C13.5239 23.4064 13.7019 23.3256 13.8717 23.2285Z" fill="#0671B8"/>
<path d="M16.7588 25.3149C16.775 25.1289 16.7993 24.9752 16.7912 24.8135C16.7831 24.6679 16.7345 24.5223 16.7022 24.3687C17.0418 24.5142 17.236 24.7407 17.2037 24.951C17.1632 25.1855 17.0176 25.2987 16.7588 25.3149Z" fill="#0671B8"/>
<path d="M19.646 9.87664C19.646 11.6639 18.1823 13.1196 16.3869 13.1196C14.6077 13.1196 13.1358 11.6477 13.1439 9.86045C13.1439 8.06509 14.6077 6.60938 16.395 6.60938C18.2065 6.60938 19.6541 8.07319 19.6541 9.87664H19.646Z" fill="#FFB422"/>
<path d="M15.8369 10.2082C15.6752 10.0302 15.5457 9.86853 15.4002 9.73105C15.2061 9.54504 14.9716 9.54502 14.8017 9.71486C14.6319 9.88469 14.6238 10.1192 14.8017 10.3133C15.0443 10.5721 15.3032 10.8228 15.562 11.0736C15.748 11.2434 15.9663 11.2515 16.1442 11.0736C16.7669 10.4589 17.3897 9.84425 17.9962 9.21345C18.1661 9.03553 18.1418 8.79294 17.98 8.6312C17.8183 8.46945 17.5919 8.46136 17.3978 8.6312C17.2927 8.72015 17.2036 8.81718 17.1147 8.91423C16.7022 9.33476 16.2898 9.74719 15.8369 10.2082Z" fill="white"/>
</svg>
