<svg width="32" height="32" viewBox="0 0 32 32" fill="none" xmlns="http://www.w3.org/2000/svg">
<path d="M10.8839 6C11.1566 6.13222 11.2558 6.35539 11.2475 6.66115C11.2393 7.12393 11.2475 7.58666 11.2475 8.0577C10.9087 8.0577 10.5782 8.0577 10.2394 8.0577C10.2394 7.52881 10.2311 6.9917 10.2311 6.44628C10.2311 6.22316 10.4129 6.12397 10.5699 6.00827H10.8591L10.8839 6Z" fill="#0671B8"/>
<path d="M21.123 8.04963C21.123 7.59512 21.1395 7.13221 21.123 6.6777C21.123 6.37193 21.2056 6.14049 21.4866 6H21.7759C22.0403 6.14049 22.1395 6.36365 22.123 6.66115C22.0982 7.12393 22.1064 7.58685 22.0982 8.04963C21.7593 8.04137 21.4288 8.04963 21.09 8.04963H21.123Z" fill="#0671B8"/>
<path d="M16.3134 6C16.5944 6.12396 16.7018 6.33884 16.6936 6.64461C16.677 7.11565 16.6936 7.58666 16.6936 8.0577H15.6854C15.6854 7.59493 15.6936 7.12392 15.6854 6.65288C15.6771 6.34712 15.7845 6.13223 16.0655 6.00827H16.3134V6Z" fill="#0671B8"/>
<path d="M26.3788 13.6523C26.3788 13.7432 26.3788 13.8177 26.3788 13.892C26.3788 17.7678 26.3788 21.6436 26.3788 25.5277C26.3788 26.3954 25.8912 26.8829 25.0235 26.8829C19.1313 26.8829 13.2474 26.8829 7.35527 26.8829C6.47929 26.8829 6 26.4036 6 25.5277C6 21.6519 6 17.7761 6 13.892C6 13.8177 6 13.7432 6 13.6523H26.3788ZM16.1646 24.3377C16.7265 24.3377 17.2885 24.3377 17.8504 24.3377C18.2223 24.3377 18.4206 24.1475 18.4206 23.7756C18.4206 23.0484 18.4206 22.313 18.4206 21.5858C18.4206 21.2139 18.2223 21.0239 17.8504 21.0239C16.7348 21.0239 15.6274 21.0239 14.5118 21.0239C14.1317 21.0239 13.9416 21.2139 13.9416 21.5858C13.9416 22.313 13.9416 23.0484 13.9416 23.7756C13.9416 24.1475 14.1399 24.3377 14.5118 24.3377C15.0572 24.3377 15.6109 24.3377 16.1563 24.3377H16.1646ZM9.97494 21.0239C9.42952 21.0239 8.87584 21.0239 8.33043 21.0239C7.90897 21.0239 7.73542 21.1974 7.73542 21.6189C7.73542 22.3296 7.73542 23.0403 7.73542 23.7427C7.73542 24.1559 7.91721 24.3295 8.33867 24.3377C9.42951 24.3377 10.5204 24.3377 11.6112 24.3377C12.0244 24.3377 12.2144 24.1477 12.2144 23.7427C12.2144 23.032 12.2144 22.3213 12.2144 21.6189C12.2144 21.2222 12.0244 21.0322 11.6277 21.0322C11.0823 21.0322 10.5286 21.0322 9.98321 21.0322L9.97494 21.0239ZM22.3956 18.991C22.941 18.991 23.4947 18.991 24.0401 18.991C24.445 18.991 24.6351 18.809 24.6351 18.4124C24.6351 17.6934 24.6351 16.9663 24.6351 16.2473C24.6351 15.8672 24.4533 15.6854 24.0732 15.6854C22.9575 15.6854 21.8502 15.6854 20.7345 15.6854C20.3461 15.6854 20.1561 15.8755 20.1561 16.2639C20.1561 16.9828 20.1561 17.6934 20.1561 18.4124C20.1561 18.809 20.3544 18.9993 20.7428 18.9993C21.2882 18.9993 21.8419 18.9993 22.3873 18.9993L22.3956 18.991ZM22.4039 21.0239C21.8584 21.0239 21.3047 21.0239 20.7593 21.0239C20.3461 21.0239 20.1561 21.2057 20.1561 21.6189C20.1561 22.3296 20.1561 23.0403 20.1561 23.7427C20.1561 24.1394 20.3461 24.3295 20.7428 24.3377C21.8502 24.3377 22.9575 24.3377 24.0566 24.3377C24.445 24.3377 24.6351 24.1557 24.6351 23.7591C24.6351 23.0401 24.6351 22.313 24.6351 21.594C24.6351 21.2056 24.445 21.0239 24.0484 21.0239C23.5029 21.0239 22.9493 21.0239 22.4039 21.0239ZM9.37993 17.7926C9.12375 17.5364 8.89237 17.2968 8.66098 17.0654C8.38827 16.7927 8.09076 16.7679 7.8759 16.9993C7.66104 17.2141 7.69409 17.5116 7.95027 17.7678C8.28083 18.0983 8.61139 18.429 8.94195 18.7596C9.26424 19.0819 9.51215 19.0901 9.83444 18.7596C10.5451 18.0489 11.2641 17.3299 11.9748 16.6192C12.0161 16.5778 12.0657 16.5283 12.0988 16.4787C12.2227 16.3052 12.231 16.0819 12.1153 15.9084C11.9996 15.7348 11.7847 15.6357 11.5864 15.7018C11.4707 15.7431 11.355 15.8257 11.2641 15.9084C10.636 16.5282 10.0245 17.148 9.37993 17.7926ZM15.5944 17.7926C15.3299 17.5281 15.0903 17.2803 14.8424 17.0324C14.5945 16.7927 14.297 16.7761 14.0821 16.9827C13.8755 17.1976 13.892 17.4952 14.14 17.7431C14.4788 18.082 14.8176 18.4208 15.1564 18.7596C15.4704 19.0736 15.7183 19.0736 16.0324 18.7596C16.7431 18.0489 17.462 17.3299 18.1727 16.6192C18.2141 16.5778 18.2636 16.5283 18.2967 16.4787C18.4207 16.3135 18.4289 16.0819 18.3215 15.9084C18.2141 15.7348 17.9992 15.6359 17.8009 15.6937C17.6852 15.735 17.5612 15.8094 17.4785 15.9003C16.8588 16.5201 16.239 17.1397 15.5944 17.7843V17.7926Z" fill="#0671B8"/>
<path d="M16.6852 8.05785C16.6852 8.05785 16.7513 8.0415 16.7843 8.0415C18.1975 8.0415 19.6189 8.0415 21.032 8.0415C21.0568 8.0415 21.0899 8.04132 21.1146 8.05785C21.1146 8.14049 21.1312 8.22316 21.1312 8.3058C21.1312 8.719 21.1312 9.14047 21.1312 9.55366C21.1394 9.86769 21.3543 10.0744 21.6435 10.0661C21.9245 10.0661 22.1228 9.85943 22.1311 9.55366C22.1311 9.05783 22.1311 8.55368 22.1311 8.05785C22.4616 8.05785 22.8005 8.05785 23.131 8.05785C23.7922 8.05785 24.4533 8.05785 25.1144 8.05785C25.8912 8.05785 26.3953 8.56198 26.3953 9.33879C26.3953 10.38 26.3953 11.413 26.3953 12.4543C26.3953 12.5121 26.3953 12.5782 26.387 12.6526H6.01648C6.01648 12.5865 6.01648 12.5204 6.01648 12.4543C6.01648 11.413 6.01648 10.3635 6.01648 9.32225C6.01648 8.5785 6.52058 8.06612 7.25607 8.06612C8.20641 8.06612 9.16505 8.06612 10.1154 8.06612C10.1732 8.06612 10.2228 8.0744 10.2807 8.08266C10.2807 8.58676 10.2807 9.0992 10.2807 9.61156C10.2807 9.82643 10.4046 9.98347 10.603 10.0578C10.8013 10.1322 11.0079 10.1073 11.1318 9.9255C11.2145 9.80154 11.2641 9.63644 11.2723 9.48769C11.2971 9.01664 11.2889 8.54543 11.2971 8.07439C11.388 8.07439 11.4789 8.05785 11.5698 8.05785C12.8755 8.05785 14.1812 8.05785 15.4869 8.05785C15.5696 8.05785 15.6522 8.06613 15.7348 8.07439C15.7348 8.5537 15.7348 9.03299 15.7348 9.5123C15.7348 9.86765 15.9249 10.0827 16.2224 10.0909C16.5364 10.0909 16.7348 9.87591 16.7348 9.5123C16.7348 9.03299 16.7348 8.5537 16.7348 8.07439L16.6852 8.05785Z" fill="#0671B8"/>
<path d="M11.2641 8.04978C11.2641 8.52082 11.2642 8.99183 11.2394 9.46287C11.2394 9.61162 11.1815 9.77692 11.0989 9.90088C10.9749 10.0744 10.7683 10.0991 10.57 10.033C10.3717 9.95866 10.2477 9.80987 10.2477 9.58675C10.2477 9.07439 10.2477 8.56213 10.2477 8.0415C10.5865 8.0415 10.9171 8.0415 11.2559 8.0415L11.2641 8.04978Z" fill="white"/>
<path d="M22.1229 8.04932C22.1229 8.54515 22.1312 9.0491 22.1229 9.54493C22.1229 9.85069 21.9246 10.0574 21.6353 10.0574C21.3461 10.0574 21.1312 9.85896 21.123 9.54493C21.1147 9.13173 21.123 8.71027 21.123 8.29707C21.123 8.21443 21.1147 8.13196 21.1064 8.04932C21.4453 8.04932 21.7758 8.04932 22.1146 8.04932H22.1229Z" fill="white"/>
<path d="M16.6935 8.04932C16.6935 8.52862 16.6935 9.00792 16.6935 9.48723C16.6935 9.85084 16.4952 10.0657 16.1812 10.0657C15.8754 10.0657 15.6936 9.84258 15.6936 9.48723C15.6936 9.00792 15.6936 8.52862 15.6936 8.04932C16.0324 8.04932 16.363 8.04932 16.7018 8.04932H16.6935Z" fill="white"/>
<path d="M16.1645 24.3461C15.6191 24.3461 15.0655 24.3461 14.52 24.3461C14.1482 24.3461 13.9498 24.1558 13.9498 23.784C13.9498 23.0567 13.9498 22.3213 13.9498 21.5941C13.9498 21.2222 14.1482 21.0322 14.52 21.0322C15.6357 21.0322 16.743 21.0322 17.8587 21.0322C18.2388 21.0322 18.4289 21.2222 18.4289 21.5941C18.4289 22.3213 18.4289 23.0567 18.4289 23.784C18.4289 24.1558 18.2305 24.3461 17.8587 24.3461C17.2967 24.3461 16.7348 24.3461 16.1728 24.3461H16.1645ZM14.958 22.0404V23.3213H17.4124V22.0404H14.958Z" fill="white"/>
<path d="M9.97483 21.0322C10.5203 21.0322 11.0739 21.0322 11.6193 21.0322C12.016 21.0322 12.2061 21.2222 12.2061 21.6189C12.2061 22.3296 12.2061 23.0404 12.2061 23.7428C12.2061 24.156 12.016 24.3378 11.6028 24.3378C10.512 24.3378 9.42116 24.3378 8.33032 24.3378C7.90887 24.3378 7.72705 24.1642 7.72705 23.7428C7.72705 23.0321 7.72705 22.3213 7.72705 21.6189C7.72705 21.1974 7.90886 21.0239 8.32205 21.0239C8.86747 21.0239 9.42114 21.0239 9.96656 21.0239L9.97483 21.0322ZM11.1896 23.3379V22.0486H8.74352V23.3379H11.1896Z" fill="white"/>
<path d="M22.4039 18.9911C21.8585 18.9911 21.3048 18.9911 20.7593 18.9911C20.3627 18.9911 20.1726 18.8008 20.1726 18.4042C20.1726 17.6852 20.1726 16.9746 20.1726 16.2557C20.1726 15.8673 20.3627 15.6772 20.7511 15.6772C21.8667 15.6772 22.9741 15.6772 24.0897 15.6772C24.4698 15.6772 24.6517 15.859 24.6517 16.2391C24.6517 16.9581 24.6517 17.6852 24.6517 18.4042C24.6517 18.8008 24.4616 18.9828 24.0567 18.9828C23.5112 18.9828 22.9575 18.9828 22.4121 18.9828L22.4039 18.9911ZM21.1725 17.9744H23.6269V16.6937H21.1725V17.9744Z" fill="white"/>
<path d="M22.4121 21.0322C22.9575 21.0322 23.5112 21.0322 24.0566 21.0322C24.4533 21.0322 24.6351 21.214 24.6434 21.6024C24.6434 22.3213 24.6434 23.0485 24.6434 23.7674C24.6434 24.1641 24.4533 24.3461 24.0649 24.3461C22.9575 24.3461 21.8502 24.3461 20.7511 24.3461C20.3544 24.3461 20.1643 24.156 20.1643 23.7511C20.1643 23.0404 20.1643 22.3296 20.1643 21.6272C20.1643 21.214 20.3544 21.0322 20.7676 21.0322C21.313 21.0322 21.8667 21.0322 22.4121 21.0322ZM23.6352 22.0487H21.1808V23.3296H23.6352V22.0487Z" fill="white"/>
<path d="M9.38823 17.7927C10.0328 17.1481 10.6443 16.5283 11.2724 15.9085C11.3633 15.8176 11.479 15.735 11.5947 15.7019C11.793 15.6358 12.0079 15.7432 12.1236 15.9085C12.231 16.082 12.231 16.3053 12.107 16.4789C12.074 16.5284 12.0244 16.578 11.9831 16.6193C11.2724 17.33 10.5534 18.049 9.84274 18.7597C9.52045 19.082 9.27254 19.082 8.95025 18.7597C8.61969 18.4292 8.28913 18.0984 7.95857 17.7679C7.70239 17.5117 7.6776 17.2143 7.8842 16.9994C8.09906 16.7763 8.40483 16.8011 8.66928 17.0656C8.90893 17.297 9.14032 17.5365 9.38823 17.7927Z" fill="white"/>
<path d="M15.6109 17.7926C16.2555 17.148 16.8753 16.52 17.4951 15.9084C17.586 15.8175 17.7017 15.7349 17.8173 15.7018C18.0157 15.6357 18.2305 15.7432 18.338 15.9167C18.4454 16.082 18.4371 16.3218 18.3132 16.4871C18.2801 16.5366 18.2306 16.5779 18.1892 16.6275C17.4785 17.3382 16.7596 18.0572 16.0489 18.7679C15.7349 19.0819 15.4869 19.0819 15.1729 18.7679C14.8341 18.4291 14.4953 18.0903 14.1564 17.7515C13.9085 17.5036 13.892 17.2059 14.0986 16.9911C14.3052 16.7762 14.611 16.7928 14.8589 17.0407C15.1068 17.2886 15.3465 17.5365 15.6109 17.8009V17.7926Z" fill="white"/>
<path d="M14.9581 22.0405H17.4125V23.3215H14.9581V22.0405Z" fill="#FFB422"/>
<path d="M11.198 23.3297H8.75183V22.0405H11.198V23.3297Z" fill="#FFB422"/>
<path d="M21.1725 17.9824V16.7017H23.6269V17.9824H21.1725Z" fill="#FFB422"/>
<path d="M23.6352 22.0405V23.3215H21.1808V22.0405H23.6352Z" fill="#FFB422"/>
</svg>
