<svg width="32" height="32" viewBox="0 0 32 32" fill="none" xmlns="http://www.w3.org/2000/svg">
<path d="M9.06653 5C12.5358 5 16.0138 5 19.4831 5C19.4831 5.07026 19.4831 5.14051 19.4831 5.20199C19.4831 7.0552 19.4831 8.91705 19.4831 10.7703C19.4831 11.3148 19.6939 11.5257 20.2384 11.5257C22.0565 11.5257 23.8658 11.5257 25.6839 11.5257C25.7893 11.5257 25.9035 11.5257 26.0089 11.5169V25.5433C25.8683 25.8155 25.6751 26 25.3501 26C19.9925 26 14.6349 26 9.27732 26C8.8733 26 8.62738 25.7541 8.61859 25.3501C8.61859 24.8143 8.61859 24.2873 8.61859 23.7515C8.61859 23.6988 8.62739 23.6462 8.63618 23.5847C8.74157 23.5847 8.82941 23.5847 8.91724 23.5847C12.7466 23.5847 16.576 23.5847 20.3966 23.5847C21.512 23.5847 22.3113 22.7943 22.3113 21.6788C22.3113 19.6236 22.3113 17.5684 22.3113 15.5044C22.3113 15.2936 22.2761 15.0653 22.2059 14.8633C21.9512 14.0816 21.2661 13.6074 20.3878 13.6074C16.5496 13.6074 12.7202 13.6074 8.88207 13.6074C8.79424 13.6074 8.7152 13.6074 8.6098 13.6074V13.3262C8.6098 10.8143 8.6098 8.3111 8.6098 5.79917C8.6098 5.42151 8.72401 5.14931 9.07533 5H9.06653Z" fill="#0671B8"/>
<path d="M13.0452 14.8281C15.4605 14.8281 17.8846 14.8281 20.2999 14.8281C20.8532 14.8281 21.0728 15.039 21.0728 15.5923C21.0728 17.5949 21.0728 19.5972 21.0728 21.5998C21.0728 22.1267 20.8445 22.3464 20.3263 22.3464C15.4605 22.3464 10.5948 22.3464 5.729 22.3464C5.22837 22.3464 5 22.118 5 21.6261C5 19.6061 5 17.5773 5 15.5572C5 15.0566 5.22836 14.8281 5.72021 14.8281C8.16187 14.8281 10.5948 14.8281 13.0364 14.8281H13.0452ZM12.9486 16.5583C12.8432 16.5847 12.6324 16.6112 12.4392 16.6902C11.9737 16.8922 11.7014 17.2611 11.7014 17.7705C11.7014 18.2711 11.9561 18.6224 12.4304 18.8068C12.7202 18.921 13.0189 19.0351 13.2999 19.1669C13.3877 19.2108 13.4492 19.325 13.5195 19.404C13.4317 19.4743 13.3438 19.5621 13.2384 19.6236C13.1857 19.6499 13.1067 19.6412 13.0364 19.6412C12.7817 19.6236 12.5709 19.5093 12.3865 19.3337C12.1581 19.1317 11.8595 19.1493 11.6663 19.3513C11.4731 19.5533 11.473 19.852 11.6838 20.0715C12.1845 20.5809 12.7993 20.7743 13.5019 20.625C14.2133 20.4669 14.6613 19.808 14.5208 19.1493C14.4154 18.6399 14.0464 18.3677 13.6073 18.1833C13.3789 18.0867 13.1506 18.0076 12.9223 17.911C12.852 17.8758 12.7993 17.8056 12.729 17.7529C12.808 17.7002 12.8871 17.621 12.9749 17.6035C13.2209 17.5596 13.4229 17.6737 13.6249 17.7967C13.8884 17.9635 14.187 17.9197 14.3451 17.6826C14.512 17.4454 14.4592 17.1468 14.2133 16.9623C13.8708 16.7076 13.4843 16.5671 12.9486 16.5583ZM9.2773 20.7127C9.81306 20.7127 10.2786 20.5371 10.6474 20.1331C10.8758 19.8871 10.8846 19.5884 10.6738 19.3864C10.4542 19.1669 10.1644 19.1932 9.9097 19.4216C9.78674 19.527 9.64619 19.6324 9.49688 19.6588C8.90842 19.7905 8.30237 19.3601 8.21454 18.7717C8.11793 18.1393 8.53952 17.5597 9.15433 17.4894C9.44416 17.4543 9.6989 17.5421 9.95361 17.6826C10.2083 17.8319 10.5069 17.7441 10.6474 17.4982C10.788 17.261 10.7177 16.98 10.4806 16.8131C10.4366 16.778 10.3928 16.7515 10.3401 16.7252C9.56716 16.2948 8.60103 16.3826 7.92474 16.9535C7.24845 17.5244 6.99372 18.4643 7.29234 19.2899C7.59975 20.1419 8.37266 20.6951 9.2773 20.7039V20.7127ZM16.9624 18.7541C16.9273 18.6575 16.9097 18.6224 16.8921 18.5697C16.6901 17.9988 16.4881 17.4279 16.2949 16.8483C16.2246 16.655 16.1104 16.5146 15.8996 16.4706C15.4781 16.3828 15.1795 16.7515 15.3288 17.1907C15.6713 18.2007 16.0226 19.2107 16.374 20.2208C16.4881 20.5545 16.6726 20.7039 16.9536 20.7039C17.2434 20.7039 17.4367 20.5459 17.5421 20.2034C17.7441 19.5798 17.9549 18.9649 18.1569 18.3413C18.2886 17.9461 18.4292 17.5508 18.5521 17.1555C18.6751 16.7515 18.394 16.4004 17.99 16.4619C17.7616 16.497 17.6387 16.6463 17.5684 16.857C17.3664 17.4718 17.1556 18.0866 16.9448 18.7365L16.9624 18.7541Z" fill="#FFB422"/>
<path d="M20.7216 5.04395C22.4694 6.79176 24.2084 8.52197 25.9562 10.2786H20.7216V5.04395Z" fill="#0671B8"/>
<path d="M12.9486 16.5581C13.4844 16.5669 13.8708 16.7074 14.2133 16.9621C14.4593 17.1465 14.512 17.4452 14.3451 17.6824C14.1782 17.9107 13.8796 17.9633 13.6249 17.7964C13.4229 17.6647 13.2209 17.5593 12.975 17.6032C12.8871 17.6208 12.8081 17.7 12.729 17.7527C12.7905 17.8054 12.8432 17.8756 12.9223 17.9107C13.1506 18.0073 13.379 18.0864 13.6073 18.183C14.0552 18.3675 14.4154 18.6396 14.5208 19.149C14.6613 19.8078 14.2133 20.4666 13.5019 20.6247C12.7993 20.774 12.1933 20.5807 11.6838 20.0713C11.473 19.8605 11.4731 19.5618 11.6663 19.351C11.8595 19.149 12.1581 19.1314 12.3865 19.3334C12.5797 19.5003 12.7817 19.6234 13.0365 19.6409C13.1067 19.6409 13.1857 19.6585 13.2384 19.6234C13.3438 19.5619 13.4229 19.4828 13.5195 19.4038C13.4492 19.3247 13.3878 19.2105 13.2999 19.1666C13.0189 19.0349 12.7203 18.9296 12.4304 18.8066C11.9649 18.6222 11.7102 18.2709 11.7014 17.7703C11.7014 17.2521 11.9737 16.892 12.4392 16.69C12.6324 16.6109 12.8432 16.5845 12.9486 16.5581Z" fill="white"/>
<path d="M9.27731 20.7127C8.37266 20.7039 7.59097 20.1507 7.29235 19.2988C6.99373 18.4644 7.24846 17.5245 7.92475 16.9624C8.60104 16.3915 9.56717 16.3036 10.3401 16.734C10.384 16.7604 10.4367 16.7868 10.4806 16.8219C10.7177 16.9888 10.7792 17.2699 10.6474 17.507C10.5069 17.7529 10.2171 17.8407 9.95361 17.6914C9.69891 17.5509 9.44417 17.4631 9.15433 17.4982C8.53953 17.5773 8.11794 18.1481 8.21455 18.7805C8.30238 19.369 8.91721 19.7993 9.49688 19.6676C9.64619 19.6325 9.79553 19.5271 9.90971 19.4304C10.1732 19.2021 10.4542 19.1757 10.6738 19.3953C10.8846 19.6061 10.8758 19.9048 10.6474 20.1419C10.2786 20.5371 9.81307 20.7215 9.27731 20.7127Z" fill="white"/>
<path d="M16.9624 18.7541C17.182 18.1041 17.384 17.4894 17.586 16.8746C17.6563 16.6638 17.7792 16.5143 18.0076 16.4792C18.4116 16.4177 18.6927 16.7691 18.5697 17.1731C18.4467 17.5683 18.3062 17.9636 18.1745 18.3589C17.9724 18.9825 17.7616 19.5972 17.5596 20.2207C17.4455 20.5633 17.2522 20.7214 16.9712 20.7214C16.6901 20.7214 16.5057 20.5721 16.3915 20.2383C16.0402 19.2283 15.6889 18.2183 15.3464 17.2082C15.1971 16.7691 15.4956 16.4002 15.9172 16.488C16.128 16.5319 16.2422 16.6726 16.3125 16.8658C16.5145 17.4367 16.7077 18.0076 16.9097 18.5872C16.9273 18.6311 16.9449 18.675 16.98 18.7716L16.9624 18.7541Z" fill="white"/>
</svg>
