<svg width="32" height="32" viewBox="0 0 32 32" fill="none" xmlns="http://www.w3.org/2000/svg">
<path d="M6 18.2322C6 14.8111 6 11.3818 6 7.96066C6.00807 7.94452 6.02421 7.92834 6.03228 7.9122C6.15331 6.93588 7.05703 6 8.36418 6C13.7461 6.01614 19.1279 6 24.5098 6C25.9219 6 26.882 6.95205 26.882 8.35602C26.882 11.5674 26.882 14.7787 26.882 17.9982C26.882 18.0708 26.882 18.1434 26.882 18.208H21.952C21.952 17.6028 21.952 17.0138 21.952 16.4248C21.952 16.0375 21.6938 15.7873 21.3146 15.7793C21.1693 15.7793 21.0241 15.7631 20.8869 15.7793C20.6449 15.8116 20.4754 15.7471 20.3947 15.497C20.3463 15.3517 20.2253 15.2307 20.1607 15.0935C20.1285 15.0371 20.1285 14.9402 20.1607 14.8837C20.2495 14.6982 20.3705 14.5207 20.4674 14.3351C20.661 13.9801 20.5884 13.6492 20.2334 13.4475C19.5475 13.044 18.8617 12.6487 18.1678 12.2533C17.8289 12.0597 17.498 12.1565 17.2963 12.4873C17.1833 12.6649 17.0946 12.8584 16.9736 13.0279C16.9413 13.0844 16.8525 13.1248 16.788 13.1329C16.5701 13.149 16.3523 13.1329 16.1344 13.1329C16.0215 13.1329 15.965 13.1005 15.9166 13.0037C15.8197 12.8261 15.7148 12.6487 15.6099 12.4712C15.4001 12.1323 15.0774 12.0435 14.7385 12.2372C14.0446 12.6325 13.3507 13.036 12.6568 13.4394C12.334 13.625 12.2533 13.9558 12.4228 14.2867C12.5115 14.4561 12.6003 14.6254 12.7052 14.7788C12.7939 14.9159 12.802 15.0129 12.7052 15.1582C12.56 15.3518 12.4954 15.6423 12.3098 15.7472C12.1242 15.8521 11.8338 15.7712 11.5917 15.7712C11.2125 15.7712 10.9623 16.0294 10.9543 16.4167C10.9543 16.6991 10.9543 16.9735 10.9543 17.2559C10.9543 17.5706 10.9543 17.8933 10.9543 18.2241H6.02423L6 18.2322ZM21.3469 8.45294C20.548 8.45294 19.7492 8.45294 18.9424 8.45294C18.8052 8.45294 18.6599 8.49319 18.5389 8.55774C18.313 8.68685 18.2162 8.9693 18.2888 9.21136C18.3695 9.49377 18.5954 9.66326 18.9101 9.66326C20.5077 9.66326 22.1134 9.66326 23.711 9.66326C24.1387 9.66326 24.4211 9.41312 24.413 9.05003C24.413 8.67886 24.1306 8.44487 23.6949 8.44487C22.9041 8.44487 22.1214 8.44487 21.3307 8.44487L21.3469 8.45294ZM22.1618 10.8978C21.6293 10.8978 21.0887 10.8978 20.5561 10.8978C20.1769 10.8978 19.9025 11.156 19.9025 11.503C19.9025 11.858 20.1769 12.1162 20.5642 12.1162C21.6293 12.1162 22.6943 12.1162 23.7594 12.1162C24.1548 12.1162 24.4291 11.858 24.4211 11.503C24.4211 11.1479 24.1467 10.8978 23.7513 10.8978C23.2188 10.8978 22.6944 10.8978 22.1618 10.8978Z" fill="#0671B8"/>
<path d="M6 19.4585H15.8278C15.8278 19.6602 15.8278 19.8458 15.8278 20.0394C15.8278 20.4187 16.0941 20.685 16.4491 20.685C16.788 20.685 17.0462 20.4106 17.0543 20.0475C17.0543 19.8619 17.0543 19.6683 17.0543 19.4746H26.8659C26.9143 20.4348 26.9708 21.3951 26.1559 22.1293C25.7443 22.5005 25.2683 22.6941 24.7196 22.7183C24.6551 22.7183 24.5986 22.7183 24.534 22.7183C19.136 22.7183 13.746 22.7183 8.34802 22.7183C7.27487 22.7183 6.41959 22.1132 6.11297 21.153C6.07263 21.0239 6.04035 20.8948 6.00808 20.7657C6.00808 20.33 6.00808 19.8942 6.00808 19.4585H6Z" fill="#0671B8"/>
<path d="M10.1635 26.8737C10.1635 26.8737 10.0989 26.8335 10.0667 26.8093C9.8004 26.6721 9.67131 26.3977 9.72779 26.1314C9.79234 25.841 10.0344 25.6474 10.3491 25.6474C10.6396 25.6474 10.93 25.6555 11.2286 25.6474C11.3415 25.6474 11.4706 25.607 11.5675 25.5505C12.1565 25.1955 12.6164 24.7113 12.9311 24.1062C12.9957 23.9771 13.0763 23.9448 13.2135 23.9448C15.3679 23.9448 17.5142 23.9448 19.6685 23.9448C19.8218 23.9448 19.8945 24.0013 19.959 24.1304C20.2898 24.7517 20.7659 25.2359 21.363 25.5909C21.4356 25.6312 21.5244 25.6553 21.6131 25.6553C21.9036 25.6634 22.1941 25.6553 22.4926 25.6553C22.8396 25.6553 23.0816 25.8329 23.1543 26.1395C23.2188 26.4219 23.0736 26.6802 22.7589 26.8416C22.7428 26.8497 22.7266 26.8656 22.7185 26.8818H10.1635V26.8737Z" fill="#0671B8"/>
<path d="M21.355 8.45264C22.1458 8.45264 22.9284 8.45264 23.7192 8.45264C24.1549 8.45264 24.4292 8.68663 24.4373 9.0578C24.4373 9.42896 24.1629 9.67103 23.7353 9.67103C22.1377 9.67103 20.532 9.67103 18.9344 9.67103C18.6197 9.67103 18.3937 9.50154 18.3131 9.21913C18.2404 8.97707 18.3373 8.69461 18.5632 8.56551C18.6842 8.50096 18.8295 8.46071 18.9666 8.46071C19.7654 8.45264 20.5643 8.46071 21.3711 8.46071L21.355 8.45264Z" fill="white"/>
<path d="M22.1699 10.8979C22.7025 10.8979 23.227 10.8979 23.7595 10.8979C24.1549 10.8979 24.4292 11.1481 24.4292 11.5031C24.4292 11.8581 24.1549 12.1163 23.7676 12.1163C22.7025 12.1163 21.6374 12.1163 20.5723 12.1163C20.185 12.1163 19.9026 11.8581 19.9107 11.5031C19.9107 11.1562 20.185 10.8979 20.5643 10.8979C21.0968 10.8979 21.6374 10.8979 22.1699 10.8979Z" fill="white"/>
<path d="M19.1118 14.2219C19.0069 14.3994 18.91 14.5609 18.8213 14.7303C18.6761 14.9885 18.6922 15.2386 18.8858 15.4645C19.1682 15.7953 19.3861 16.1745 19.5394 16.586C19.6443 16.8684 19.846 17.0056 20.1446 17.0136C20.3302 17.0136 20.5077 17.0136 20.7094 17.0136V18.2239H18.6196C18.8294 17.1427 18.5227 16.2633 17.5626 15.6985C16.7718 15.2225 15.9407 15.2627 15.1823 15.7872C14.335 16.3762 14.0688 17.2154 14.2786 18.232H12.1807V17.0217C12.3582 17.0217 12.5438 17.0217 12.7213 17.0217C13.0602 17.0217 13.2215 16.8766 13.3749 16.57C13.5604 16.1988 13.7621 15.8438 13.9961 15.5049C14.1817 15.2225 14.2221 15.0127 14.0607 14.7141C13.9719 14.5608 13.8832 14.4075 13.7864 14.238C14.1333 14.0363 14.4803 13.8346 14.8434 13.6248C14.9402 13.7942 15.029 13.9476 15.1258 14.1009C15.2952 14.3914 15.5131 14.4559 15.8439 14.4317C16.2554 14.3994 16.6669 14.4074 17.0784 14.4317C17.3931 14.4559 17.611 14.3833 17.7804 14.1009C17.8772 13.9476 17.966 13.7861 18.0628 13.6167C18.4178 13.8184 18.7648 14.0201 19.1198 14.2299L19.1118 14.2219Z" fill="#FFB422"/>
<path d="M16.441 18.2321C16.207 18.2321 15.981 18.2401 15.747 18.2321C15.6825 18.2321 15.5937 18.1757 15.5615 18.1273C15.3113 17.7319 15.4082 17.1751 15.7793 16.8604C16.1666 16.5296 16.7153 16.5296 17.1026 16.8604C17.4738 17.1751 17.5706 17.7319 17.3205 18.1273C17.2801 18.1838 17.1833 18.2321 17.1107 18.2402C16.8848 18.2563 16.6669 18.2402 16.441 18.2402V18.2321Z" fill="#FFB422"/>
</svg>
