<svg width="32" height="32" viewBox="0 0 32 32" fill="none" xmlns="http://www.w3.org/2000/svg">
<path d="M26.56 11.8558V24.9817C26.5428 25.0335 26.5255 25.0765 26.5083 25.1283C26.353 25.6974 26.0253 26.12 25.482 26.3701C25.3268 26.4391 25.1543 26.4908 24.9904 26.5425H12.6924C12.6924 26.5425 12.6407 26.5082 12.6148 26.5082C11.692 26.284 11.1401 25.5939 11.1314 24.6452C11.1314 24.2054 11.1314 23.7569 11.1314 23.3171C11.1314 23.1791 11.1314 23.0325 11.1314 22.8773H11.4333C14.2362 22.8773 17.0476 22.8773 19.8504 22.8773C21.2216 22.8773 22.1358 21.9632 22.1358 20.592C22.1358 18.686 22.1358 16.78 22.1358 14.8827C22.1358 13.5114 21.2216 12.5974 19.8504 12.5974C17.0389 12.5974 14.2189 12.5974 11.4074 12.5974H11.1228C11.1228 12.4939 11.1228 12.4162 11.1228 12.3472C11.1228 10.8725 11.1228 9.39789 11.1228 7.92316C11.1228 6.77615 11.9076 6 13.0546 6C15.5125 6 17.9618 6 20.4196 6C20.4973 6 20.5835 6 20.6697 6C20.6697 7.44885 20.6697 8.86318 20.6697 10.2775C20.6697 11.2521 21.2821 11.8729 22.2566 11.8729C23.6882 11.8729 25.1198 11.8729 26.5427 11.8729L26.56 11.8558Z" fill="#0671B8"/>
<path d="M13.7013 22.1358C11.6488 22.1358 9.60493 22.1358 7.55238 22.1358C6.59511 22.1358 6.00862 21.5493 6 20.6006C6 18.6861 6 16.7802 6 14.8657C6 13.917 6.58646 13.3306 7.52649 13.3306C11.6488 13.3306 15.7712 13.3306 19.8935 13.3306C20.8249 13.3306 21.4199 13.9256 21.4199 14.8484C21.4199 16.7716 21.4199 18.7034 21.4199 20.6265C21.4199 21.5493 20.8249 22.1444 19.8935 22.1444C17.8323 22.1444 15.7625 22.1444 13.7013 22.1444V22.1358ZM18.4619 18.0997C18.5395 18.6948 18.1859 19.1603 17.6426 19.1948C17.082 19.2379 16.6594 18.8241 16.6508 18.2376C16.6508 17.8927 16.6508 17.5478 16.6508 17.2028C16.6508 16.8061 16.8147 16.5042 17.1855 16.3404C17.5564 16.1765 17.9013 16.2455 18.2032 16.5128C18.4274 16.7112 18.6343 16.7285 18.781 16.5646C18.9448 16.3921 18.919 16.1764 18.6861 15.9694C18.1687 15.5123 17.5822 15.3917 16.944 15.659C16.3058 15.9264 15.9609 16.4265 15.9177 17.1078C15.8919 17.5132 15.9091 17.9186 15.9177 18.324C15.935 19.1605 16.5904 19.8503 17.427 19.9279C18.2549 20.0056 19.0311 19.4277 19.1777 18.6084C19.2294 18.3411 19.2208 18.0651 19.2208 17.7892C19.2208 17.5046 19.0828 17.3666 18.7982 17.3666C18.4705 17.3666 18.1428 17.3666 17.8151 17.3666C17.5563 17.3666 17.4011 17.5045 17.3925 17.7201C17.3925 17.9443 17.5477 18.0911 17.8151 18.0997C18.0307 18.0997 18.2549 18.0997 18.4705 18.0997H18.4619ZM11.8644 17.7374C11.8644 17.7374 11.873 17.7374 11.8817 17.7374C11.8817 17.9271 11.8817 18.117 11.8817 18.3067C11.8989 19.1519 12.563 19.8589 13.3995 19.9279C14.2274 19.9969 15.0122 19.4277 15.1416 18.5998C15.2106 18.1255 15.1933 17.6426 15.1847 17.1596C15.1847 16.3058 14.5207 15.6072 13.6841 15.5295C12.8476 15.4519 12.08 16.0298 11.9248 16.8663C11.873 17.1509 11.8903 17.4441 11.873 17.7287L11.8644 17.7374ZM8.94086 19.2034C8.94086 19.0827 8.94086 19.0052 8.94086 18.919C8.94086 17.9358 8.94086 16.9439 8.94086 15.9608C8.94086 15.6934 8.78563 15.5296 8.57002 15.5382C8.35442 15.5382 8.2164 15.702 8.20777 15.9608C8.20777 16.1936 8.20777 16.4351 8.20777 16.668C8.20777 17.608 8.20777 18.5481 8.20777 19.4881C8.20777 19.7641 8.31991 19.9366 8.55276 19.9366C9.30306 19.9452 10.0533 19.9452 10.8036 19.9366C11.002 19.9366 11.1486 19.7642 11.14 19.5744C11.14 19.3847 11.002 19.2293 10.795 19.2121C10.7174 19.2121 10.6398 19.2121 10.5622 19.2121C10.0275 19.2121 9.49279 19.2121 8.93222 19.2121L8.94086 19.2034Z" fill="#FFB422"/>
<path d="M21.4889 6.15527C23.0844 7.79386 24.6885 9.43242 26.3098 11.0969C26.2236 11.1141 26.1804 11.1228 26.1287 11.1228C24.8092 11.1228 23.4983 11.1228 22.1788 11.1228C21.7304 11.1228 21.4113 10.8381 21.4113 10.4069C21.4113 9.0098 21.4113 7.60418 21.4113 6.20707C21.4371 6.18982 21.4544 6.17252 21.4803 6.15527H21.4889Z" fill="#0671B8"/>
<path d="M18.4618 18.0995C18.2462 18.0995 18.022 18.0995 17.8064 18.0995C17.539 18.0995 17.3752 17.9441 17.3838 17.7199C17.3838 17.5043 17.5477 17.3664 17.8064 17.3664C18.1341 17.3664 18.4618 17.3664 18.7896 17.3664C19.0742 17.3664 19.2121 17.5043 19.2121 17.7889C19.2121 18.0649 19.2121 18.3408 19.169 18.6082C19.0224 19.4361 18.2463 20.0053 17.4183 19.9277C16.5904 19.8501 15.935 19.1603 15.9091 18.3237C15.9005 17.9184 15.8919 17.5129 15.9091 17.1076C15.9522 16.4177 16.2972 15.9175 16.9353 15.6588C17.5735 15.3914 18.16 15.5207 18.6774 15.9691C18.9103 16.1761 18.9361 16.3919 18.7723 16.5644C18.6171 16.7282 18.4101 16.7109 18.1945 16.5126C17.8926 16.2452 17.5477 16.1763 17.1768 16.3401C16.8146 16.504 16.6422 16.8058 16.6422 17.2025C16.6422 17.5475 16.6422 17.8924 16.6422 18.2374C16.6422 18.8238 17.0734 19.2377 17.634 19.1946C18.1773 19.1514 18.5308 18.6946 18.4532 18.0995H18.4618Z" fill="white"/>
<path d="M11.8558 17.7374C11.873 17.4442 11.8558 17.151 11.9075 16.875C12.0628 16.0385 12.8303 15.4606 13.6668 15.5382C14.5034 15.6158 15.1588 16.3145 15.1674 17.1683C15.1674 17.6513 15.1933 18.1341 15.1243 18.6085C14.995 19.4364 14.2102 20.0056 13.3822 19.9366C12.5457 19.8676 11.8903 19.1605 11.8644 18.3154C11.8644 18.1257 11.8644 17.9358 11.8644 17.7461C11.8644 17.7461 11.8558 17.7461 11.8472 17.7461L11.8558 17.7374ZM12.6061 17.7202C12.6061 17.9271 12.6061 18.1341 12.6061 18.3411C12.632 18.824 13.02 19.1949 13.503 19.2035C13.9946 19.2035 14.4085 18.8413 14.4258 18.3497C14.443 17.9444 14.443 17.5391 14.4258 17.1338C14.4085 16.6336 14.0032 16.2627 13.503 16.2714C13.0114 16.2714 12.6147 16.6508 12.5975 17.151C12.5975 17.3408 12.5975 17.5304 12.5975 17.7202H12.6061Z" fill="white"/>
<path d="M8.94076 19.1947C9.50133 19.1947 10.036 19.1947 10.5707 19.1947C10.6483 19.1947 10.7259 19.1947 10.8035 19.1947C11.0105 19.2119 11.1485 19.3673 11.1485 19.557C11.1485 19.7468 11.0105 19.9192 10.8122 19.9192C10.0619 19.9278 9.31159 19.9278 8.56129 19.9192C8.32844 19.9192 8.21631 19.7467 8.21631 19.4707C8.21631 18.5307 8.21631 17.5906 8.21631 16.6506C8.21631 16.4177 8.21631 16.1764 8.21631 15.9436C8.21631 15.6848 8.36296 15.5296 8.57856 15.521C8.80279 15.521 8.94939 15.6848 8.94939 15.9436C8.94939 16.9267 8.94939 17.9184 8.94939 18.9016C8.94939 18.9878 8.94939 19.0655 8.94939 19.1862L8.94076 19.1947Z" fill="white"/>
<path d="M12.6061 17.7198C12.6061 17.5301 12.6061 17.3404 12.6061 17.1507C12.6233 16.6505 13.02 16.271 13.5116 16.271C14.0118 16.271 14.4171 16.6332 14.4344 17.1334C14.4516 17.5387 14.4516 17.944 14.4344 18.3493C14.4171 18.8409 14.0032 19.2117 13.5116 19.2031C13.0287 19.2031 12.632 18.8237 12.6147 18.3407C12.6061 18.1337 12.6147 17.9268 12.6147 17.7198H12.6061Z" fill="#FFB422"/>
</svg>
