<svg width="32" height="32" viewBox="0 0 32 32" fill="none" xmlns="http://www.w3.org/2000/svg">
<path d="M9.80043 26C8.75139 25.7804 8.27932 25.0726 8.13071 24.1697C7.93838 23.0064 7.90339 21.8351 8.41043 20.7206C9.03985 19.3377 10.1501 18.4429 11.7149 18.0687C12.3006 17.9304 12.8776 18.0036 13.4196 18.2639C15.1418 19.1099 16.8639 19.1181 18.5861 18.2802C19.2592 17.9467 19.9586 17.9305 20.6754 18.1583C22.6686 18.7846 23.9624 20.4441 23.9974 22.4697C24.0061 23.0391 23.9974 23.6165 23.9012 24.1697C23.7439 25.0645 23.2806 25.7804 22.2315 26H9.80043Z" fill="#0671B8"/>
<path d="M16.0079 17C13.231 17 10.9921 14.5354 11 11.5132C11.0079 8.44745 13.2547 5.99131 16.0474 6.00002C18.7847 6.00873 21.0157 8.50825 20.9999 11.5566C20.992 14.5526 18.7373 17.0087 16.0079 17Z" fill="#FFB422"/>
<path d="M12 16.5422C11.1645 16.7939 10.416 17.1418 9.77195 17.6305C8.64051 18.4745 7.91813 19.511 7.62222 20.7622C7.5787 20.9398 7.50907 21.0287 7.29149 20.9917C7.24797 20.9917 7.19575 20.9917 7.15223 20.9917C5.82062 21.0658 5.24621 20.5327 5.08954 19.5407C4.94159 18.6152 4.92418 17.675 5.45508 16.8014C5.99469 15.9204 6.82151 15.3354 7.94424 15.0689C8.44903 14.9504 8.95383 14.98 9.41511 15.1947C9.9286 15.4242 10.4595 15.5798 11.0339 15.6464C11.1122 15.6538 11.1993 15.6907 11.2428 15.7425C11.4952 15.9943 11.7302 16.2608 12 16.5422Z" fill="#0671B8"/>
<path d="M20 16.5235C20.2713 16.234 20.5163 15.9592 20.7788 15.6919C20.8226 15.6474 20.9101 15.6475 20.9801 15.6252C21.5051 15.4842 22.0477 15.3653 22.5552 15.1872C23.0978 14.9942 23.6141 14.9348 24.1741 15.0833C25.8105 15.5065 26.9569 16.7388 26.9919 18.1938C27.0094 18.7283 27.0094 19.2776 26.8781 19.7898C26.6506 20.6807 26.0906 21 25.0317 21C24.8479 21 24.6729 21 24.4717 21C23.9466 18.8174 22.4677 17.3252 20 16.5235Z" fill="#0671B8"/>
<path d="M22.0522 13C22.7906 9.79694 21.7732 7.27245 19 5.40268C19.9435 4.85832 21.6419 4.81885 22.9055 5.57622C24.4233 6.49138 25.1536 7.82469 24.973 9.53667C24.8007 11.2171 23.5947 12.5819 22.044 12.9921L22.0522 13Z" fill="#0671B8"/>
<path d="M9.94722 12.9921C8.48578 12.4806 7.51147 11.5362 7.14611 10.0959C6.72392 8.42742 7.21919 6.98711 8.59944 5.90889C9.92286 4.87788 11.4086 4.75988 13 5.37376C10.207 7.25476 9.19213 9.78106 9.93909 13L9.94722 12.9921Z" fill="#0671B8"/>
</svg>
