<svg width="32" height="32" viewBox="0 0 32 32" fill="none" xmlns="http://www.w3.org/2000/svg">
<path d="M16.0968 6C16.3702 6.05469 16.6436 6.10172 16.9171 6.16422C18.7764 6.60172 20.3624 8.37516 20.6124 10.2736C20.7764 11.5236 20.5967 12.7032 19.8936 13.7579C18.9561 15.1642 17.6592 15.9767 15.9483 16.0938C13.6983 16.2423 11.8468 14.9219 11.003 13.1251C10.214 11.4376 10.5343 9.18752 11.7686 7.78909C12.5265 6.92971 13.4405 6.33604 14.5733 6.10948C14.7686 6.07042 14.9639 6.03907 15.1514 6.00782C15.4639 6.00782 15.7764 6.00782 16.0968 6.00782V6Z" fill="#FFB422"/>
<path d="M15.7374 26.9844C14.0812 26.9844 12.4171 26.9844 10.7609 26.9844C9.90932 26.9844 9.10464 26.8202 8.40152 26.3124C7.60465 25.7421 7.12808 24.9609 7.04995 23.9999C6.8937 22.2499 7.09683 20.5312 7.76089 18.8984C8.1437 17.9452 8.72183 17.125 9.65933 16.6172C10.2609 16.2891 10.9093 16.1327 11.589 16.1484C11.7999 16.1484 12.0265 16.2578 12.214 16.3593C12.5343 16.5312 12.8234 16.7499 13.1359 16.9374C14.8859 18.0156 16.6359 18.0077 18.3859 16.9296C18.628 16.7812 18.878 16.6329 19.1046 16.461C19.5265 16.1485 19.9874 16.1015 20.4874 16.1796C21.8468 16.3828 22.8077 17.1249 23.464 18.3124C24.0421 19.3749 24.2999 20.5313 24.4171 21.7188C24.4796 22.3203 24.503 22.9298 24.4952 23.5391C24.4718 25.4063 23.2218 26.7656 21.3546 26.9609C21.128 26.9843 20.9093 27 20.6827 27C19.0343 27 17.3937 27 15.7452 27L15.7374 26.9844Z" fill="#0671B8"/>
</svg>
