<svg width="32" height="32" viewBox="0 0 32 32" fill="none" xmlns="http://www.w3.org/2000/svg">
<path d="M26.048 10.902C25.8566 11.4523 25.6332 11.9866 25.2743 12.4492C25.1387 12.6247 24.9872 12.7923 24.8356 12.9678C24.5246 12.7923 24.2375 12.6247 23.9902 12.4812C23.5994 12.6885 23.2405 12.8799 22.8816 13.0793C22.8337 13.1112 22.7859 13.191 22.7859 13.2548C22.7779 13.502 22.7859 13.7494 22.7779 13.9967C22.7779 14.0605 22.7141 14.1561 22.6663 14.1641C21.8926 14.3555 21.1269 14.3555 20.3373 14.1322C20.3373 13.853 20.3373 13.5738 20.3373 13.2947C20.3373 13.1671 20.3054 13.1112 20.1858 13.0554C19.8827 12.9118 19.5956 12.7444 19.3164 12.553C19.1968 12.4732 19.125 12.4732 19.0134 12.545C18.7821 12.6886 18.5428 12.8162 18.2955 12.9598C17.7213 12.3935 17.3305 11.7155 17.1072 10.9499C17.0912 10.902 17.147 10.8143 17.1949 10.7824C17.3943 10.6548 17.5937 10.543 17.801 10.4313C17.9366 10.3675 17.9446 10.2799 17.9367 10.1363C17.9127 9.8173 17.9127 9.49033 17.9367 9.1713C17.9526 9.01976 17.9127 8.94789 17.7931 8.88409C17.5857 8.77243 17.3863 8.66081 17.1869 8.5332C17.1391 8.5013 17.0992 8.40561 17.1151 8.35776C17.3305 7.59209 17.7213 6.93009 18.3035 6.35584C18.5587 6.4994 18.814 6.643 19.0692 6.79454C19.1569 6.85037 19.2127 6.83441 19.3005 6.77858C19.5956 6.59513 19.8907 6.41157 20.2017 6.26004C20.3134 6.2042 20.3533 6.14834 20.3453 6.02871C20.3453 5.74956 20.3453 5.47054 20.3453 5.16746C20.6245 5.11163 20.8956 5.05583 21.1668 5C21.43 5 21.6852 5 21.9484 5C22.2276 5.05583 22.5067 5.11163 22.7939 5.16746C22.7939 5.47851 22.7939 5.76553 22.7939 6.05266C22.7939 6.11646 22.8497 6.20418 22.9055 6.23608C23.2565 6.43548 23.6074 6.6269 23.9982 6.83427C24.2455 6.6907 24.5406 6.52332 24.8436 6.34785C24.9952 6.5313 25.1387 6.69073 25.2743 6.8662C25.6412 7.32879 25.8566 7.86332 26.056 8.41364V8.49328C25.7848 8.64482 25.5056 8.78844 25.2424 8.94795C25.2105 8.97188 25.1946 9.0516 25.1946 9.10743C25.1946 9.46634 25.1946 9.82533 25.1946 10.1842C25.1946 10.256 25.2424 10.3517 25.2983 10.3836C25.5455 10.5431 25.8007 10.6866 26.048 10.8381V10.878V10.902ZM23.2644 9.66569C23.2644 8.71658 22.4988 7.95099 21.5496 7.95897C20.6085 7.95897 19.8348 8.73254 19.8428 9.67368C19.8428 10.6148 20.6245 11.3886 21.5576 11.3806C22.4988 11.3806 23.2644 10.6068 23.2644 9.65771V9.66569Z" fill="#FFB422"/>
<path d="M7.56023 22.5544C7.21727 22.706 6.84239 22.8734 6.44361 23.0488C6.29207 22.8175 6.13256 22.6023 5.99697 22.371C5.56628 21.6532 5.26319 20.8874 5.08772 20.0739C5.06379 19.9542 5.08773 19.9064 5.19939 19.8585C5.4945 19.7389 5.78958 19.6033 6.07671 19.4597C6.13254 19.4358 6.18838 19.3481 6.18838 19.2843C6.18838 18.8536 6.18042 18.4228 6.15649 17.9921C6.15649 17.9363 6.08468 17.8566 6.02885 17.8327C5.69387 17.6971 5.35093 17.5695 5 17.4339C5.15951 16.2774 5.55828 15.2246 6.22825 14.2436C6.5393 14.3632 6.85038 14.4669 7.15346 14.6024C7.34488 14.6902 7.44056 14.6504 7.57615 14.4909C7.83935 14.1718 8.14244 13.8768 8.43754 13.5578C8.286 13.2068 8.11853 12.8319 7.95103 12.449C8.8842 11.7392 9.91305 11.2846 11.0695 11.0453C11.2211 11.3882 11.3806 11.7232 11.5242 12.0582C11.564 12.1619 11.6199 12.186 11.7235 12.178C12.1303 12.162 12.5451 12.146 12.9518 12.146C13.0795 12.146 13.1273 12.0982 13.1672 11.9866C13.2868 11.6516 13.4224 11.3246 13.55 10.9736C14.7065 11.1331 15.7593 11.5399 16.7483 12.2019C16.6206 12.5369 16.493 12.8797 16.3574 13.2147C16.3096 13.3343 16.3176 13.3982 16.4213 13.4859C16.7164 13.7491 17.0035 14.0203 17.2827 14.3074C17.3784 14.4031 17.4422 14.4192 17.5618 14.3633C17.8808 14.2118 18.2078 14.0682 18.5508 13.9166C19.2526 14.8498 19.7152 15.8786 19.9465 17.0431C19.6116 17.1946 19.2766 17.3382 18.9416 17.4977C18.8858 17.5217 18.814 17.5934 18.814 17.6412C18.822 18.1198 18.8539 18.5984 18.8778 19.0929C19.1968 19.2125 19.5318 19.3481 19.8748 19.4677C19.9864 19.5076 20.0183 19.5634 20.0024 19.6831C19.8269 20.7199 19.46 21.6849 18.8937 22.5782C18.814 22.7058 18.7422 22.7138 18.6146 22.658C18.3275 22.5384 18.0403 22.4427 17.7532 22.3231C17.6495 22.2832 17.6017 22.299 17.5299 22.3788C17.2508 22.6898 16.9636 22.993 16.6685 23.2881C16.5888 23.3679 16.5888 23.4238 16.6286 23.5195C16.7642 23.8066 16.8839 24.0936 17.0115 24.3807C17.0513 24.4764 17.0593 24.5323 16.9636 24.6041C16.0703 25.2501 15.0814 25.6889 13.9967 25.9122C13.9807 25.9122 13.9727 25.9122 13.9408 25.9122C13.8052 25.6091 13.6617 25.2979 13.5261 24.9869C13.4702 24.8433 13.3985 24.7875 13.231 24.8034C12.8402 24.8354 12.4493 24.8354 12.0585 24.8274C11.9389 24.8274 11.8911 24.8594 11.8512 24.9631C11.7236 25.3061 11.588 25.6489 11.4524 25.9998C10.3198 25.8323 9.29097 25.4495 8.35781 24.8274C8.31793 24.8035 8.294 24.6998 8.30995 24.644C8.41364 24.3329 8.54124 24.0299 8.6529 23.7189C8.66886 23.663 8.66086 23.5673 8.62895 23.5274C8.286 23.2004 7.9351 22.8894 7.56821 22.5544H7.56023ZM12.4813 21.9083C14.3316 21.9323 15.8949 20.4089 15.9268 18.5586C15.9587 16.6524 14.4513 15.081 12.577 15.0571C10.6548 15.0332 9.09951 16.5326 9.06761 18.4468C9.03571 20.3371 10.5671 21.8844 12.4813 21.9083Z" fill="#0671B8"/>
</svg>
