<svg width="32" height="32" viewBox="0 0 32 32" fill="none" xmlns="http://www.w3.org/2000/svg">
<path d="M12.8554 5.0083C12.5232 5.92171 12.1827 6.83506 11.8423 7.74848C11.8174 7.8066 11.7177 7.86474 11.6513 7.86474C9.48404 7.86474 7.31676 7.86474 5.11627 7.86474C5.1744 7.7734 5.20759 7.71528 5.24911 7.66546C5.8885 6.85999 6.52788 6.04619 7.16727 5.24073C7.2254 5.16599 7.26691 5.09134 7.31673 5.0083C9.16016 5.0083 11.0036 5.0083 12.8471 5.0083H12.8554Z" fill="#0671B8"/>
<path d="M23.5838 5.00831C24.3312 5.94663 25.0702 6.87659 25.8424 7.84813C25.7013 7.84813 25.61 7.86475 25.5186 7.86475C23.4842 7.86475 21.4498 7.86475 19.407 7.86475C19.1994 7.86475 19.0998 7.80668 19.0334 7.60739C18.7179 6.73549 18.3774 5.87189 18.0535 5C19.897 5 21.7404 5 23.5838 5V5.00831Z" fill="#0671B8"/>
<path d="M17.0487 5.0083C17.3974 5.94662 17.7545 6.88488 18.1115 7.84812H12.8387C13.0131 7.38311 13.1791 6.94301 13.3452 6.50291C13.5279 6.00469 13.694 5.50653 13.8683 5.0083C14.9312 5.0083 15.9941 5.0083 17.0487 5.0083Z" fill="#0671B8"/>
<path d="M11.6597 8.84473C11.6597 8.96098 11.6597 9.06895 11.6597 9.1769C11.6597 10.7629 11.6597 12.3406 11.6597 13.9266C11.6597 14.0013 11.6597 14.0761 11.6597 14.1508C11.6597 14.4415 11.7427 14.6822 12.0167 14.8234C12.2908 14.9645 12.5398 14.8898 12.7724 14.7154C13.1045 14.458 13.4449 14.2173 13.802 13.9432C14.1757 14.2256 14.5577 14.5078 14.9314 14.7901C15.3715 15.114 15.579 15.114 16.0025 14.7901C16.3762 14.5078 16.7498 14.2339 17.1318 13.9432C17.464 14.1923 17.7878 14.4248 18.1117 14.6822C18.3525 14.8732 18.6099 14.9812 18.9088 14.8317C19.2078 14.6822 19.2825 14.4248 19.2742 14.1093C19.2742 12.4651 19.2742 10.8127 19.2742 9.16858C19.2742 9.06894 19.2742 8.96929 19.2742 8.85304H25.9338V26.0002C25.7179 25.9919 25.6016 16.3098 25.5269 16.1188C25.4189 15.8448 25.3027 15.5708 25.1948 15.2884C25.0287 14.84 24.6966 14.5991 24.2232 14.5825C23.7831 14.5659 23.3513 14.5659 22.9112 14.5825C22.4462 14.5991 22.0809 14.8151 21.9646 15.2718C21.7653 16.0441 21.3169 16.4925 20.5364 16.7499C20.0382 16.916 19.6396 17.0073 19.1829 16.7333C19.0417 16.6502 18.8756 16.5921 18.7261 16.534C18.3608 16.4011 18.0204 16.4426 17.738 16.7C17.3644 17.0405 17.0156 17.3976 16.6751 17.7629C16.4094 18.0536 16.3679 18.4106 16.5173 18.776C16.6419 19.0749 16.7914 19.3655 16.891 19.6811C16.9408 19.8222 16.9325 20.0133 16.8827 20.1544C16.7416 20.5447 16.5838 20.935 16.4011 21.3087C16.343 21.4415 16.2184 21.5744 16.0938 21.6325C15.8198 21.7737 15.5292 21.8733 15.2469 21.9812C14.84 22.1307 14.5992 22.4296 14.5743 22.8531C14.5493 23.3431 14.5493 23.8413 14.5743 24.3312C14.5992 24.763 13.7107 24.7381 14.1176 24.8958C13.2872 25.7428 13.8768 17.3892 14.3086 17.4141C14.458 17.4889 25.3775 13.3038 25.5103 13.4118C25.4937 13.445 25.9753 25.9421 25.9587 25.9754C25.8591 25.9754 16.235 25.992 16.1354 25.992C12.6561 25.992 9.17686 25.992 5.68929 25.992C5.14124 25.992 5.00006 25.8507 5.00006 25.2944C5.00006 19.9219 5.00006 14.5493 5.00006 9.18511C5.00006 9.08546 5.00006 8.97759 5.00006 8.85304H11.6763L11.6597 8.84473ZM9.74152 24.5553C10.5138 24.5553 11.286 24.5553 12.0582 24.5553C12.6976 24.5553 13.0796 24.1651 13.0879 23.5257C13.0879 22.7784 13.0879 22.0394 13.0879 21.292C13.0879 20.6526 12.6976 20.2624 12.0666 20.2624C10.5221 20.2624 8.97755 20.2624 7.43305 20.2624C6.81027 20.2624 6.42832 20.6526 6.42002 21.2754C6.42002 22.031 6.42002 22.7784 6.42002 23.534C6.42002 24.1734 6.81029 24.547 7.44968 24.5553C8.21362 24.5553 8.97757 24.5553 9.74152 24.5553Z" fill="#0671B8"/>
<path d="M18.3192 8.83643V13.6194C18.0784 13.4367 17.8625 13.279 17.6549 13.1212C17.2729 12.8389 17.0238 12.8389 16.6501 13.1212C16.2599 13.4118 15.8779 13.7024 15.4793 13.993C15.0724 13.6858 14.6822 13.3952 14.2836 13.1046C13.9265 12.8388 13.6857 12.8388 13.3204 13.1046C13.1045 13.2623 12.8886 13.4201 12.6395 13.6111V8.83643H18.3192Z" fill="#0671B8"/>
<path d="M9.74148 24.5552C8.97754 24.5552 8.21358 24.5552 7.44964 24.5552C6.81025 24.5552 6.41998 24.1732 6.41998 23.5338C6.41998 22.7782 6.41998 22.0309 6.41998 21.2752C6.41998 20.6525 6.81023 20.2622 7.43302 20.2622C8.97751 20.2622 10.522 20.2622 12.0665 20.2622C12.6976 20.2622 13.0879 20.6608 13.0879 21.2919C13.0879 22.0392 13.0879 22.7782 13.0879 23.5255C13.0879 24.1649 12.6976 24.5469 12.0582 24.5552C11.286 24.5552 10.5137 24.5552 9.74148 24.5552ZM7.38319 23.5837H12.108V21.2337H7.38319V23.5837Z" fill="white"/>
<path d="M7.38318 23.5839V21.2339H12.108V23.5839H7.38318Z" fill="#0671B8"/>
<path d="M23.0276 25.0912C25.6279 25.0912 27.7358 22.9833 27.7358 20.3831C27.7358 17.7828 25.6279 15.6748 23.0276 15.6748C20.4273 15.6748 18.3193 17.7828 18.3193 20.3831C18.3193 22.9833 20.4273 25.0912 23.0276 25.0912Z" fill="#FFB422" stroke="white" stroke-width="0.846982" stroke-miterlimit="10"/>
<path d="M23.3927 23.1895C23.3927 23.0318 23.3927 22.8739 23.3927 22.7245C23.3927 22.6663 23.4093 22.6331 23.4757 22.6165C23.5753 22.5833 23.6833 22.5501 23.7746 22.5003C24.5053 22.1183 24.7295 21.2547 24.2562 20.6153C23.9656 20.2167 23.5587 20.0341 23.0771 20.0174C22.8612 20.0174 22.6619 19.9676 22.4875 19.8182C22.2467 19.6189 22.2135 19.295 22.4045 19.0625C22.6287 18.8051 22.9193 18.7387 23.2349 18.8051C23.5421 18.8716 23.7414 19.0542 23.7912 19.3864H24.497C24.497 19.3199 24.4971 19.2618 24.4805 19.2037C24.3725 18.6556 24.032 18.3152 23.5089 18.1408C23.4092 18.1076 23.3844 18.0661 23.3844 17.9664C23.3844 17.8336 23.3844 17.6924 23.3844 17.5596H22.6702C22.6702 17.6924 22.6619 17.817 22.6702 17.9498C22.6785 18.0744 22.6453 18.1325 22.5207 18.1491C22.4543 18.1574 22.3962 18.1907 22.3298 18.2239C21.5741 18.581 21.3167 19.4777 21.79 20.1254C22.0806 20.524 22.4875 20.7066 22.9692 20.7232C23.1768 20.7232 23.3677 20.7648 23.5255 20.8894C23.841 21.1302 23.841 21.5453 23.5255 21.7861C23.0605 22.1515 22.4294 21.9356 22.2467 21.3543H21.5409C21.5575 21.4457 21.5575 21.5288 21.5824 21.6118C21.7153 22.1349 22.0641 22.4421 22.5623 22.6082C22.637 22.6331 22.6619 22.6581 22.6619 22.7411C22.6619 22.8906 22.6619 23.0318 22.6619 23.1812H23.376L23.3927 23.1895Z" fill="white"/>
</svg>
