<svg width="32" height="32" viewBox="0 0 32 32" fill="none" xmlns="http://www.w3.org/2000/svg">
<path d="M24.6659 17.7907C25.3858 17.7907 26.0894 17.758 26.7847 17.7989C27.2919 17.8316 27.6191 18.2734 27.6191 18.8133C27.6191 20.0485 27.6191 21.2838 27.6191 22.5191C27.6191 23.8361 27.6191 25.1614 27.6191 26.4784C27.6191 27.2228 27.2428 27.5991 26.4984 27.5991C23.6761 27.5991 20.862 27.5991 18.0397 27.5991C17.9661 27.5991 17.8925 27.5991 17.7943 27.5991V17.7907H20.7311C20.7311 17.8725 20.7311 17.9544 20.7311 18.0362C20.7311 18.7397 20.7311 19.4514 20.7311 20.1549C20.7311 20.5312 20.9193 20.7193 21.3038 20.7193C22.2363 20.7193 23.1607 20.7193 24.0933 20.7193C24.486 20.7193 24.6659 20.5394 24.6659 20.1385C24.6659 19.4432 24.6659 18.7397 24.6659 18.0444C24.6659 17.9625 24.6659 17.8807 24.6659 17.7825V17.7907ZM20.2403 26.1267C20.4203 26.1267 20.592 26.1349 20.772 26.1267C21.0256 26.1104 21.2138 25.914 21.222 25.6604C21.2301 25.4068 21.042 25.1695 20.7802 25.1614C20.4203 25.145 20.0603 25.145 19.7004 25.1614C19.4386 25.1695 19.2504 25.4068 19.2586 25.6604C19.2668 25.9058 19.455 26.1104 19.7086 26.1267C19.8803 26.1349 20.0603 26.1267 20.2403 26.1267Z" fill="#0671B8"/>
<path d="M14.8331 5.02088C15.553 5.02088 16.2401 5.00452 16.9355 5.02088C17.4099 5.03724 17.7781 5.47903 17.7862 5.97804C17.7862 6.55886 17.7862 7.14777 17.7862 7.72859C17.7862 9.72463 17.7862 11.7207 17.7862 13.7168C17.7862 14.4367 17.3936 14.8293 16.6819 14.8293C13.8596 14.8293 11.0291 14.8293 8.20684 14.8293C8.13321 14.8293 8.05959 14.8293 7.97778 14.8293V5.0127H10.9146C10.9146 5.10268 10.9146 5.18453 10.9146 5.26634C10.9146 5.96168 10.9146 6.66516 10.9146 7.3605C10.9146 7.76953 11.0946 7.94948 11.5118 7.94948C12.428 7.94948 13.336 7.94948 14.2522 7.94948C14.6613 7.94948 14.8412 7.76135 14.8412 7.3605C14.8412 6.58335 14.8412 5.81439 14.8412 5.0127L14.8331 5.02088ZM10.3992 13.365C10.5628 13.365 10.7183 13.365 10.8819 13.365C11.1846 13.3568 11.3809 13.1605 11.3891 12.8824C11.3891 12.596 11.2009 12.3997 10.8982 12.3915C10.5792 12.3834 10.252 12.3834 9.93293 12.3915C9.63025 12.3915 9.43391 12.596 9.44209 12.8824C9.44209 13.1605 9.64661 13.3568 9.94929 13.365C10.1047 13.365 10.252 13.365 10.4074 13.365H10.3992Z" fill="#0671B8"/>
<path d="M16.7882 27.599C16.3955 27.599 16.0192 27.6235 15.6511 27.599C15.1848 27.5581 14.8412 27.1163 14.8412 26.6092C14.8412 25.2757 14.8412 23.9423 14.8412 22.6007C14.8412 21.3572 14.8412 20.1138 14.8412 18.8703C14.8412 18.1831 15.242 17.7905 15.9292 17.7905C16.2155 17.7905 16.4937 17.7905 16.7963 17.7905V27.6072L16.7882 27.599Z" fill="#0671B8"/>
<path d="M6.95514 5.01266V14.862C6.52158 14.8375 6.08801 14.8539 5.66262 14.7721C5.27814 14.6984 5.03272 14.3139 5.00818 13.9131C5 13.7167 5.00818 13.5122 5.00818 13.3159C5.00818 10.9272 5.02454 8.53848 5 6.14976C5 5.44624 5.44992 4.94721 6.14527 5.00447C6.40705 5.02083 6.66883 5.00447 6.95514 5.00447V5.01266Z" fill="#0671B8"/>
<path d="M26.2041 14.6001C26.3759 14.4201 26.5476 14.232 26.7194 14.052C26.9649 13.8066 27.2675 13.7902 27.472 13.9947C27.6684 14.1992 27.6602 14.4938 27.4311 14.731C26.9976 15.1727 26.564 15.6227 26.1141 16.048C25.7378 16.408 25.5496 16.3998 25.1815 16.0399C24.7479 15.6145 24.3225 15.1809 23.8972 14.7556C23.6354 14.4938 23.619 14.1992 23.8399 13.9865C24.0526 13.782 24.3471 13.8148 24.5925 14.0602C24.7725 14.232 24.9443 14.412 25.1651 14.641C25.1651 14.5183 25.1651 14.461 25.1651 14.4037C25.1651 13.5857 25.1651 12.7595 25.1651 11.9414C25.1651 11.0497 24.5271 10.4198 23.6354 10.4198C22.3838 10.4198 21.1321 10.4198 19.8805 10.4198C19.7824 10.4198 19.676 10.4198 19.586 10.3871C19.3733 10.3135 19.2424 10.1008 19.267 9.88808C19.2915 9.65903 19.4715 9.47913 19.7005 9.45459C19.7496 9.45459 19.7905 9.45459 19.8396 9.45459C21.1076 9.45459 22.3756 9.45459 23.6436 9.45459C25.0915 9.46277 26.1304 10.5016 26.1468 11.9578C26.1468 12.7595 26.1468 13.553 26.1468 14.3547C26.1468 14.4283 26.1468 14.5019 26.1468 14.5837C26.1713 14.6001 26.1877 14.6165 26.2122 14.6246L26.2041 14.6001Z" fill="#FFB422"/>
<path d="M11.6917 22.208C11.4626 21.9872 11.2745 21.8072 11.0945 21.6191C10.8655 21.3818 10.8409 21.0873 11.0373 20.8828C11.25 20.6619 11.5445 20.6782 11.7899 20.9236C12.2562 21.3899 12.7225 21.8563 13.1887 22.3308C13.426 22.5762 13.4342 22.8297 13.1887 23.0833C12.747 23.5414 12.2889 23.9914 11.839 24.4331C11.7408 24.5231 11.6181 24.6213 11.4954 24.6458C11.2745 24.7031 11.0782 24.6212 10.9718 24.4085C10.8655 24.204 10.8818 23.9996 11.0454 23.8359C11.2418 23.6314 11.4545 23.4433 11.659 23.2552C11.6508 23.2306 11.6426 23.2142 11.6263 23.1897C11.5445 23.1897 11.4708 23.1897 11.389 23.1897C10.5628 23.1897 9.72839 23.1978 8.90216 23.1897C7.69144 23.1651 6.74249 22.3389 6.52162 21.1527C6.4889 20.9973 6.48889 20.8337 6.48889 20.6701C6.48889 19.4185 6.48889 18.1669 6.48889 16.9153C6.48889 16.8171 6.48889 16.7107 6.5298 16.6207C6.60342 16.4162 6.83248 16.2853 7.04517 16.318C7.26605 16.3507 7.43783 16.5225 7.46238 16.7434C7.47056 16.817 7.46238 16.8988 7.46238 16.9725C7.46238 18.1996 7.46238 19.4266 7.46238 20.6537C7.46238 21.5781 8.09228 22.1998 9.00849 22.1998C9.81837 22.1998 10.6201 22.1998 11.4299 22.1998C11.4954 22.1998 11.5608 22.1998 11.6917 22.1998V22.208Z" fill="#FFB422"/>
<path d="M23.6762 17.7988V19.7376H21.7292V17.7988H23.6762Z" fill="#0671B8"/>
<path d="M11.8962 6.9517V5.0293H13.8432V6.9517H11.8962Z" fill="#0671B8"/>
</svg>
