<svg width="32" height="32" viewBox="0 0 32 32" fill="none" xmlns="http://www.w3.org/2000/svg">
<path d="M8.007 23.9766V6C12.2845 6 16.569 6 20.8464 6C20.9093 6.08387 21.0142 6.16074 21.0142 6.25161C21.0282 6.69194 21.0212 7.1323 21.0212 7.59359H20.7696C18.4211 7.59359 16.0658 7.59359 13.7173 7.59359C12.641 7.59359 11.5576 7.59359 10.4813 7.59359C10.0829 7.59359 9.75433 7.82423 9.65647 8.18767C9.62153 8.32746 9.61454 8.47423 9.61454 8.62101C9.61454 13.7232 9.61454 18.8255 9.61454 23.9277V24.2073C9.19518 24.2073 8.80379 24.2003 8.41239 24.2073C8.21669 24.2073 8.08387 24.1443 8 23.9696L8.007 23.9766Z" fill="#0671B8"/>
<path d="M21.0282 8.15983C21.0282 8.4394 21.0282 8.70502 21.0282 8.97062C21.0282 9.47385 21.0282 9.97711 21.0282 10.4803C21.0282 11.0884 21.3567 11.4169 21.9578 11.4169C22.7266 11.4169 23.4954 11.4169 24.2852 11.4169C24.2852 11.4938 24.2922 11.5637 24.2922 11.6336C24.2922 16.4073 24.2922 21.1741 24.2922 25.9478C24.2922 26.2763 24.2083 26.3601 23.8868 26.3601C19.4486 26.3601 15.0103 26.3601 10.5721 26.3601C10.2576 26.3601 10.1737 26.2833 10.1737 25.9618C10.1737 20.1536 10.1737 14.3524 10.1737 8.54428C10.1737 8.24373 10.2575 8.15283 10.5371 8.15283C13.9759 8.15283 17.4147 8.15283 20.8534 8.15283C20.9023 8.15283 20.9443 8.15284 21.0212 8.15983H21.0282ZM11.8162 12.2207C11.8162 13.5976 12.9275 14.7089 14.3044 14.7089C15.6813 14.7089 16.7926 13.5976 16.7996 12.2277C16.7996 10.8438 15.6883 9.72544 14.3044 9.73243C12.9275 9.73243 11.8232 10.8438 11.8232 12.2207H11.8162ZM17.2469 15.8621C16.6249 15.8621 16.0028 15.8621 15.3807 15.8621C14.5001 15.8621 13.6194 15.8621 12.7388 15.8621C12.5501 15.8621 12.4243 15.981 12.4243 16.1487C12.4243 16.3025 12.5501 16.4073 12.7318 16.4213C12.7737 16.4213 12.8087 16.4213 12.8506 16.4213C15.7721 16.4213 18.6867 16.4213 21.6083 16.4213C21.6712 16.4213 21.7411 16.4283 21.804 16.4143C21.9507 16.3794 22.0416 16.2885 22.0346 16.1347C22.0346 15.9809 21.9368 15.8901 21.79 15.8691C21.7271 15.8621 21.6572 15.8691 21.5943 15.8691C20.1475 15.8691 18.6937 15.8691 17.2469 15.8691V15.8621ZM17.2329 18.3644C18.6867 18.3644 20.1475 18.3644 21.6013 18.3644C21.6642 18.3644 21.7341 18.3713 21.797 18.3644C21.9508 18.3294 22.0486 18.2385 22.0346 18.0708C22.0276 17.917 21.9298 17.8331 21.783 17.8122C21.7341 17.8122 21.6782 17.8122 21.6223 17.8122C18.6937 17.8122 15.7722 17.8122 12.8436 17.8122C12.7807 17.8122 12.7248 17.8122 12.6619 17.8122C12.5081 17.8331 12.4243 17.931 12.4243 18.0848C12.4243 18.2246 12.5081 18.3224 12.6409 18.3574C12.7038 18.3713 12.7737 18.3644 12.8366 18.3644C14.2974 18.3644 15.7652 18.3644 17.2259 18.3644H17.2329ZM17.2329 19.7552C15.7792 19.7552 14.3184 19.7552 12.8646 19.7552C12.8017 19.7552 12.7318 19.7552 12.6689 19.7552C12.5151 19.7762 12.4313 19.8741 12.4313 20.0278C12.4313 20.1676 12.5151 20.2654 12.6479 20.3003C12.7108 20.3143 12.7807 20.3073 12.8436 20.3073C15.7722 20.3073 18.6937 20.3073 21.6223 20.3073C21.6852 20.3073 21.7411 20.3073 21.797 20.3073C21.9508 20.2724 22.0486 20.1816 22.0346 20.0138C22.0276 19.8601 21.9298 19.7762 21.776 19.7622C21.7131 19.7622 21.6432 19.7622 21.5803 19.7622C20.1335 19.7622 18.6797 19.7622 17.2329 19.7622V19.7552ZM17.2539 21.7052C15.8001 21.7052 14.3394 21.7052 12.8856 21.7052C12.8227 21.7052 12.7528 21.7052 12.6899 21.7052C12.5291 21.7262 12.4382 21.824 12.4313 21.9778C12.4313 22.1316 12.5221 22.2224 12.6689 22.2504C12.7248 22.2644 12.7877 22.2504 12.8506 22.2504C15.7791 22.2504 18.7007 22.2504 21.6292 22.2504C21.6921 22.2504 21.762 22.2574 21.825 22.2434C21.9647 22.2015 22.0556 22.1107 22.0416 21.9499C22.0276 21.8031 21.9437 21.7192 21.804 21.6982C21.7411 21.6912 21.6712 21.6982 21.6083 21.6982C20.1615 21.6982 18.7077 21.6982 17.2609 21.6982L17.2539 21.7052ZM20.1964 11.9621C19.6932 11.9621 19.19 11.9621 18.6867 11.9621C18.4491 11.9621 18.3373 12.06 18.3373 12.2487C18.3373 12.4234 18.4561 12.5212 18.6797 12.5212C19.6792 12.5212 20.6787 12.5212 21.6782 12.5212C21.9088 12.5212 22.0346 12.4164 22.0346 12.2417C22.0346 12.06 21.9158 11.9621 21.6782 11.9621C21.1819 11.9621 20.6857 11.9621 20.1894 11.9621H20.1964ZM20.1894 13.9121C19.6932 13.9121 19.1969 13.9121 18.7007 13.9121C18.4561 13.9121 18.3443 14.0029 18.3443 14.1847C18.3443 14.3664 18.4631 14.4642 18.6937 14.4642C19.6932 14.4642 20.6927 14.4642 21.6922 14.4642C21.9158 14.4642 22.0486 14.3524 22.0416 14.1777C22.0416 14.0099 21.9158 13.9121 21.6991 13.9121C21.1959 13.9121 20.6927 13.9121 20.1894 13.9121ZM20.2174 23.6553C19.7072 23.6553 19.197 23.6553 18.6867 23.6553C18.4561 23.6553 18.3443 23.7461 18.3443 23.9209C18.3443 24.1026 18.4561 24.2075 18.6867 24.2075C19.6862 24.2075 20.6857 24.2075 21.6852 24.2075C21.9158 24.2075 22.0416 24.1026 22.0416 23.9279C22.0416 23.7461 21.9228 23.6553 21.6852 23.6553C21.1959 23.6553 20.7067 23.6553 20.2174 23.6553Z" fill="#0671B8"/>
<path d="M24.2713 10.8575C24.0267 10.8575 23.7821 10.8575 23.5375 10.8575C22.9923 10.8575 22.4541 10.8575 21.9089 10.8575C21.6853 10.8575 21.5874 10.7667 21.5874 10.5501C21.5874 9.78123 21.5874 9.01236 21.5874 8.24353C21.5874 8.21558 21.6014 8.19463 21.6014 8.17366C21.839 8.11774 22.0208 8.18765 22.1885 8.36238C22.8246 9.0124 23.4606 9.65542 24.1106 10.2915C24.2783 10.4592 24.3133 10.6339 24.2713 10.8645V10.8575Z" fill="#0671B8"/>
<path d="M14.3044 14.2053C15.4007 14.2053 16.2894 13.3166 16.2894 12.2203C16.2894 11.124 15.4007 10.2354 14.3044 10.2354C13.2081 10.2354 12.3195 11.124 12.3195 12.2203C12.3195 13.3166 13.2081 14.2053 14.3044 14.2053Z" fill="#FFB422"/>
<path d="M15.6604 12.9335C15.6394 12.9685 15.6115 12.9824 15.5835 12.9684C15.5695 12.9614 15.5556 12.9405 15.5416 12.9195C15.4996 12.8287 15.4647 12.7308 15.4297 12.6399C15.4297 12.633 15.4297 12.6259 15.4158 12.612C15.4018 12.6539 15.3878 12.6889 15.3668 12.7238C15.234 13.0034 15.0244 13.2061 14.7448 13.3249C14.577 13.3948 14.4093 13.4227 14.2276 13.4157C13.976 13.4018 13.7523 13.3249 13.5566 13.1781C13.3888 13.0523 13.2561 12.8915 13.1792 12.6958C13.1582 12.6399 13.1372 12.584 13.1232 12.5281C13.1163 12.5001 13.1302 12.4722 13.1582 12.4582C13.1861 12.4512 13.2141 12.4582 13.2281 12.4932C13.2281 12.5002 13.2281 12.5072 13.2351 12.5142C13.2631 12.5841 13.284 12.6539 13.319 12.7238C13.4378 12.9545 13.6265 13.1152 13.8641 13.22C14.0249 13.2899 14.1926 13.318 14.3674 13.297C14.7378 13.262 15.0243 13.0873 15.22 12.7728C15.255 12.7099 15.283 12.64 15.3179 12.5771H15.3109C15.3109 12.5771 15.297 12.5771 15.283 12.5771C15.1921 12.619 15.1012 12.6609 15.0104 12.6958C14.9964 12.6958 14.9754 12.7098 14.9614 12.6958C14.9475 12.6888 14.9265 12.6679 14.9265 12.6539C14.9265 12.64 14.9335 12.6189 14.9475 12.605C14.9475 12.598 14.9684 12.5911 14.9754 12.5911C15.1082 12.5281 15.248 12.4652 15.3808 12.4093C15.4367 12.3884 15.4577 12.3953 15.4787 12.4512C15.5346 12.598 15.5975 12.7448 15.6534 12.8985V12.9265L15.6604 12.9335Z" fill="white" stroke="white" stroke-width="0.153979" stroke-miterlimit="10"/>
<path d="M14.3673 11.0532C14.4163 11.0532 14.4582 11.0602 14.5071 11.0672C14.6818 11.0952 14.8426 11.1511 14.9964 11.2489C15.1851 11.3748 15.3248 11.5355 15.4227 11.7382C15.4507 11.8011 15.4716 11.871 15.4926 11.9339C15.5066 11.9688 15.4926 11.9968 15.4577 12.0108C15.4297 12.0178 15.4017 12.0038 15.3878 11.9689C15.3598 11.892 15.3318 11.8151 15.2969 11.7452C15.1921 11.5425 15.0383 11.3958 14.8356 11.2909C14.6539 11.1931 14.4582 11.1581 14.2485 11.1721C14.0039 11.193 13.7942 11.2769 13.6055 11.4377C13.4657 11.5635 13.3609 11.7173 13.2979 11.899C13.3049 11.899 13.3119 11.899 13.3189 11.892C13.4098 11.8501 13.5006 11.8081 13.5915 11.7662C13.6334 11.7452 13.6754 11.7662 13.6754 11.8081C13.6754 11.8361 13.6684 11.857 13.6334 11.871C13.5356 11.9199 13.4307 11.9618 13.3329 12.0108C13.2909 12.0317 13.256 12.0458 13.2141 12.0667C13.1721 12.0877 13.1372 12.0737 13.1232 12.0317C13.0673 11.885 13.0044 11.7382 12.9485 11.5914C12.9345 11.5565 12.9485 11.5285 12.9764 11.5145C13.0044 11.5006 13.0394 11.5146 13.0533 11.5495C13.0953 11.6474 13.1302 11.7452 13.1721 11.836C13.1721 11.843 13.1791 11.85 13.1791 11.857C13.2141 11.7941 13.2351 11.7242 13.277 11.6613C13.4378 11.3747 13.6824 11.1861 14.0039 11.1022C14.0878 11.0812 14.1716 11.0742 14.2555 11.0602C14.2625 11.0602 14.2695 11.0602 14.2835 11.0602C14.3114 11.0602 14.3394 11.0602 14.3673 11.0602V11.0532Z" fill="white" stroke="white" stroke-width="0.153979" stroke-miterlimit="10"/>
</svg>
