<svg width="32" height="32" viewBox="0 0 32 32" fill="none" xmlns="http://www.w3.org/2000/svg">
<path d="M5 25.2969C5 21.1663 5 17.0357 5 12.905C5.1518 12.7452 5.28762 12.5535 5.46339 12.4337C8.46748 10.3564 11.4796 8.28703 14.4837 6.20973C14.8832 5.93009 15.0669 5.93009 15.4744 6.20973C18.5024 8.29502 21.5225 10.3804 24.5506 12.4577C24.8382 12.6574 24.958 12.8891 24.958 13.2326C24.958 17.1316 24.9501 21.0225 24.958 24.9214C24.958 25.4328 24.7823 25.7844 24.2869 25.9521H22.4573C22.4573 22.6684 22.4573 19.3846 22.4573 16.0929C22.4573 15.4697 22.1377 15.1502 21.5145 15.1502C17.1602 15.1502 12.7979 15.1502 8.44352 15.1502C7.82033 15.1502 7.50075 15.4697 7.50075 16.0929C7.50075 19.3766 7.50075 22.6604 7.50075 25.9521H5.67112C5.33556 25.8403 5.11983 25.6245 5.00797 25.2889L5 25.2969Z" fill="#0671B8"/>
<path d="M15.6741 25.9599C15.4504 25.8321 15.3865 25.6484 15.3865 25.3927C15.3945 24.37 15.3865 23.3554 15.3865 22.3327C15.3865 21.9332 15.5223 21.7974 15.9298 21.7974C16.3612 21.7974 16.8006 21.7974 17.264 21.7974C17.264 21.9971 17.264 22.1888 17.264 22.3726C17.264 22.7721 17.5197 23.0438 17.8872 23.0438C18.2468 23.0438 18.5024 22.7721 18.5104 22.3646C18.5104 22.1808 18.5104 22.0051 18.5104 21.7974C18.6462 21.7974 18.7661 21.7974 18.8939 21.7974C19.2375 21.7974 19.581 21.7974 19.9246 21.7974C20.2122 21.7974 20.38 21.9652 20.38 22.2448C20.38 23.3314 20.38 24.41 20.38 25.4966C20.38 25.7203 20.2601 25.8561 20.0764 25.952H15.6741V25.9599Z" fill="#0671B8"/>
<path d="M9.87368 25.9601C9.64198 25.8483 9.57007 25.6565 9.57007 25.4089C9.57007 24.3862 9.57007 23.3716 9.57007 22.3489C9.57007 21.9414 9.71388 21.8055 10.1214 21.7975C10.5448 21.7975 10.9762 21.7975 11.4396 21.7975C11.4396 22.0133 11.4396 22.221 11.4396 22.4208C11.4556 22.7164 11.6394 22.9561 11.903 23.02C12.1667 23.0839 12.4543 22.98 12.5901 22.7324C12.6461 22.6285 12.67 22.5006 12.678 22.3808C12.694 22.197 12.678 22.0053 12.678 21.8135C12.7339 21.8056 12.7819 21.7896 12.8218 21.7896C13.2373 21.7896 13.6528 21.7896 14.0682 21.7896C14.3958 21.7896 14.5476 21.9493 14.5476 22.2689C14.5476 23.3315 14.5476 24.3941 14.5476 25.4648C14.5476 25.6965 14.4437 25.8404 14.26 25.9522H9.85768L9.87368 25.9601Z" fill="#0671B8"/>
<path d="M14.3559 16.82C14.3559 17.0437 14.3559 17.2355 14.3559 17.4272C14.3559 17.7948 14.6275 18.0584 14.9791 18.0584C15.3306 18.0584 15.5943 17.7868 15.6023 17.4192C15.6023 17.2275 15.6023 17.0277 15.6023 16.812C15.8979 16.812 16.1855 16.812 16.4652 16.812C16.6489 16.812 16.8327 16.812 17.0085 16.812C17.3041 16.82 17.4718 16.9798 17.4718 17.2754C17.4718 18.354 17.4718 19.4326 17.4718 20.5112C17.4718 20.8068 17.3041 20.9746 17.0165 20.9746C15.6582 20.9746 14.3 20.9746 12.9417 20.9746C12.6461 20.9746 12.4863 20.8068 12.4863 20.5112C12.4863 19.4326 12.4863 18.354 12.4863 17.2754C12.4863 17.0037 12.6301 16.828 12.8938 16.82C13.3732 16.804 13.8525 16.82 14.3559 16.82Z" fill="#0671B8"/>
<path d="M21.8871 15.8165C24.2964 15.8165 26.2495 13.8634 26.2495 11.4542C26.2495 9.04495 24.2964 7.0918 21.8871 7.0918C19.4779 7.0918 17.5248 9.04495 17.5248 11.4542C17.5248 13.8634 19.4779 15.8165 21.8871 15.8165Z" fill="#FFB422" stroke="white" stroke-width="0.629136" stroke-miterlimit="10"/>
<path d="M24.3317 12.7088C24.2918 12.7727 24.2438 12.8047 24.1959 12.7727C24.1639 12.7568 24.14 12.7247 24.124 12.6848C24.0521 12.517 23.9882 12.3492 23.9243 12.1814C23.9243 12.1654 23.9083 12.1495 23.9003 12.1335C23.8683 12.2054 23.8443 12.2693 23.8124 12.3333C23.5807 12.8366 23.1972 13.2041 22.6859 13.4198C22.3903 13.5477 22.0787 13.5956 21.7591 13.5796C21.3117 13.5636 20.9042 13.4199 20.5446 13.1482C20.241 12.9245 20.0093 12.6368 19.8575 12.2853C19.8176 12.1894 19.7856 12.0855 19.7537 11.9817C19.7377 11.9257 19.7696 11.8779 19.8176 11.8619C19.8655 11.8459 19.9215 11.8699 19.9374 11.9258C19.9374 11.9418 19.9454 11.9498 19.9534 11.9658C20.0013 12.0936 20.0413 12.2214 20.1052 12.3413C20.3209 12.7567 20.6485 13.0443 21.0799 13.2281C21.3676 13.3479 21.6792 13.4039 21.9908 13.372C22.6539 13.308 23.1732 12.9964 23.5248 12.4211C23.5887 12.3093 23.6446 12.1895 23.7005 12.0696H23.6846C23.6846 12.0696 23.6526 12.0696 23.6366 12.0776C23.4768 12.1495 23.317 12.2294 23.1493 12.2933C23.1253 12.3013 23.0853 12.3173 23.0614 12.3013C23.0294 12.2853 23.0054 12.2534 22.9975 12.2214C22.9975 12.1974 23.0134 12.1575 23.0294 12.1335C23.0374 12.1175 23.0614 12.1095 23.0854 12.1015C23.333 11.9897 23.5727 11.8779 23.8204 11.766C23.9163 11.7261 23.9642 11.742 24.0042 11.8379C24.108 12.1016 24.2199 12.3732 24.3237 12.6369V12.6848L24.3317 12.7088Z" fill="white" stroke="white" stroke-width="0.209712" stroke-miterlimit="10"/>
<path d="M21.9989 9.3208C22.0788 9.32879 22.1667 9.3368 22.2466 9.34479C22.5662 9.39273 22.8538 9.50462 23.1174 9.68039C23.453 9.9041 23.7087 10.1917 23.8765 10.5592C23.9324 10.6711 23.9643 10.7909 24.0043 10.9107C24.0283 10.9746 24.0043 11.0306 23.9404 11.0466C23.8844 11.0626 23.8365 11.0306 23.8125 10.9747C23.7566 10.8389 23.7167 10.6951 23.6527 10.5672C23.469 10.2077 23.1814 9.93602 22.8218 9.74427C22.4942 9.57649 22.1427 9.50458 21.7672 9.53654C21.3278 9.56849 20.9443 9.72827 20.6167 10.0159C20.361 10.2396 20.1772 10.5193 20.0654 10.8468C20.0814 10.8468 20.0974 10.8388 20.1054 10.8309C20.2731 10.7589 20.4329 10.679 20.6007 10.6071C20.6806 10.5752 20.7445 10.6072 20.7605 10.6791C20.7605 10.727 20.7445 10.7669 20.6886 10.7909C20.5048 10.8708 20.3291 10.9587 20.1453 11.0386C20.0734 11.0705 20.0015 11.1025 19.9296 11.1345C19.8497 11.1664 19.7938 11.1505 19.7618 11.0706C19.6579 10.8069 19.5541 10.5432 19.4502 10.2875C19.4262 10.2236 19.4502 10.1677 19.4981 10.1438C19.5541 10.1198 19.61 10.1437 19.634 10.2076C19.7059 10.3834 19.7698 10.5512 19.8417 10.727C19.8417 10.743 19.8577 10.759 19.8577 10.767C19.9136 10.6471 19.9615 10.5272 20.0255 10.4074C20.3211 9.88805 20.7525 9.55247 21.3278 9.39268C21.4716 9.35273 21.6314 9.34477 21.7832 9.3208C21.7992 9.3208 21.8151 9.3208 21.8311 9.3208C21.8791 9.3208 21.935 9.3208 21.9829 9.3208H21.9989Z" fill="white" stroke="white" stroke-width="0.209712" stroke-miterlimit="10"/>
</svg>
