<svg width="32" height="32" viewBox="0 0 32 32" fill="none" xmlns="http://www.w3.org/2000/svg">
<path d="M25.3742 7C25.4403 7.01653 25.5008 7.03854 25.5669 7.05507C26.4042 7.26439 26.9881 7.98046 26.9936 8.83976C26.9991 10.7512 27.0046 12.6626 26.9936 14.574C26.9936 15.615 26.1674 16.4082 25.1043 16.4137C23.4793 16.4137 21.8488 16.4137 20.2238 16.4137C20.1302 16.4137 20.0201 16.4523 19.943 16.5074C19.4031 16.904 18.8688 17.3061 18.34 17.7082C18.1913 17.8184 18.0371 17.8679 17.8608 17.7963C17.701 17.7302 17.6129 17.609 17.5909 17.4383C17.5909 17.3942 17.5909 17.3501 17.5909 17.3061C17.5909 14.5078 17.5909 11.7041 17.5909 8.90586C17.5909 8.05207 18.0866 7.35807 18.8633 7.09367C18.979 7.05511 19.0947 7.02754 19.2158 7C21.2705 7 23.3251 7 25.3797 7H25.3742ZM22.2785 11.2634C21.5349 11.2634 20.7967 11.2634 20.0531 11.2634C19.987 11.2634 19.9264 11.2635 19.8603 11.269C19.6565 11.291 19.5023 11.4562 19.4802 11.66C19.4582 11.8528 19.5904 12.0622 19.7777 12.1173C19.8603 12.1393 19.954 12.1448 20.0421 12.1448C21.5404 12.1448 23.0386 12.1448 24.5369 12.1448C24.603 12.1448 24.6746 12.1448 24.7407 12.1283C24.9886 12.0842 25.1428 11.8473 25.0877 11.605C25.0381 11.3846 24.8729 11.2634 24.6085 11.2579C23.8318 11.2579 23.0552 11.2579 22.2785 11.2579V11.2634ZM22.2785 10.2499C22.5594 10.2499 22.8403 10.2499 23.1157 10.2499C23.628 10.2499 24.1403 10.2499 24.6471 10.2499C24.972 10.2499 25.1704 9.94693 25.0657 9.6605C24.9941 9.46771 24.8288 9.36861 24.5699 9.36861C23.0496 9.36861 21.5238 9.36861 20.0035 9.36861C19.9429 9.36861 19.8879 9.36856 19.8273 9.38508C19.5629 9.44017 19.4141 9.70459 19.5023 9.95797C19.5684 10.1508 19.7226 10.2499 19.965 10.2499C20.7361 10.2499 21.5073 10.2499 22.2785 10.2499ZM20.8904 13.1583C20.5819 13.1583 20.2734 13.1583 19.965 13.1583C19.6785 13.1583 19.4802 13.3401 19.4802 13.599C19.4802 13.8524 19.6785 14.0452 19.965 14.0452C20.5764 14.0452 21.1933 14.0452 21.8047 14.0452C22.0967 14.0452 22.2895 13.8634 22.2895 13.6045C22.2895 13.3456 22.0967 13.1639 21.8103 13.1639C21.5073 13.1639 21.2043 13.1639 20.8959 13.1639L20.8904 13.1583Z" fill="#0671B8"/>
<path d="M4 23.7552C4.06586 23.4785 4.11859 23.1887 4.19762 22.9121C4.89578 20.159 7.01654 18.2358 9.82234 17.8274C9.94089 17.8143 10.0463 17.7746 10.2571 17.7351C8.78171 17.5375 7.63566 16.9053 6.77943 15.7988C5.9232 14.6923 5.60712 13.4277 5.77837 12.0578C6.12086 9.48907 8.39974 7.6317 11.0343 7.76343C13.4712 7.88198 15.592 9.97644 15.7106 12.3607C15.8423 15.1533 14.0245 17.3531 11.2055 17.7351C11.6534 17.8273 12.0354 17.8933 12.4174 17.9855C15.1969 18.6837 17.265 21.1601 17.423 24.0186C17.4494 24.585 17.4626 25.1515 17.4626 25.7047C17.4626 26.4424 17.0279 26.8639 16.2902 26.8639C12.5887 26.8639 8.88712 26.8639 5.18558 26.8639C4.60598 26.8639 4.2503 26.561 4.01319 26.0868C4.01319 25.3096 4.01319 24.5324 4.01319 23.7552H4Z" fill="#FFB422"/>
</svg>
