<svg width="32" height="32" viewBox="0 0 32 32" fill="none" xmlns="http://www.w3.org/2000/svg">
<path d="M5 17.1425C5.15595 16.9086 5.37428 16.8462 5.655 16.8462C8.68826 16.854 11.7215 16.8462 14.7626 16.8462C15.2772 16.8462 15.402 16.9788 15.402 17.4856C15.402 20.3786 15.402 23.2715 15.402 26.1722C15.402 26.6712 15.2772 26.7959 14.7704 26.7959C11.7215 26.7959 8.66488 26.7959 5.61602 26.7959C5.3431 26.7959 5.13256 26.7257 5 26.484V17.1347V17.1425ZM7.70577 25.8992C8.00208 25.8992 8.29839 25.8992 8.5947 25.8992C9.14053 25.8992 9.50702 25.5328 9.52261 24.9869C9.53041 24.6906 9.53041 24.3943 9.52261 24.098C9.50702 23.5522 9.14053 23.1934 8.5947 23.1856C8.00988 23.1856 7.42506 23.1856 6.84024 23.1856C6.31 23.1856 5.93572 23.5521 5.90453 24.0746C5.88893 24.3865 5.88893 24.6985 5.90453 25.0104C5.92792 25.5328 6.31 25.8914 6.84024 25.8992C7.12875 25.8992 7.41726 25.8992 7.70577 25.8992ZM13.3746 24.0824C13.6008 24.0824 13.8191 24.0824 14.0452 24.0824C14.3181 24.0746 14.5053 23.8875 14.5053 23.638C14.5053 23.3884 14.3181 23.1934 14.0452 23.1856C13.6008 23.1779 13.1563 23.1779 12.7118 23.1856C12.4389 23.1856 12.2518 23.3962 12.2518 23.638C12.2518 23.8875 12.4389 24.0746 12.7196 24.0824C12.9458 24.0902 13.1641 24.0824 13.3902 24.0824H13.3746ZM13.3824 25.0026C13.1485 25.0026 12.9224 25.0026 12.6884 25.0026C12.4311 25.0103 12.244 25.1974 12.2362 25.4314C12.2284 25.6731 12.4233 25.8837 12.6884 25.8915C13.1407 25.8993 13.593 25.8993 14.0452 25.8915C14.3181 25.8915 14.5053 25.6809 14.4975 25.4314C14.4975 25.1896 14.3103 25.0103 14.0452 24.9947C13.8191 24.9869 13.6008 24.9947 13.3746 24.9947L13.3824 25.0026Z" fill="#0671B8"/>
<path d="M21.4997 26.8042C19.9714 26.8042 18.4509 26.8042 16.9226 26.8042C16.4547 26.8042 16.3143 26.6717 16.3143 26.2116C16.3143 23.2953 16.3143 20.3712 16.3143 17.4549C16.3143 16.9949 16.4625 16.8545 16.9303 16.8545C19.987 16.8545 23.0515 16.8545 26.1081 16.8545C26.576 16.8545 26.7241 17.0027 26.7241 17.4783C26.7241 20.379 26.7241 23.2798 26.7241 26.1805C26.7241 26.6561 26.5838 26.7964 26.1081 26.7964C24.572 26.7964 23.0437 26.7964 21.5075 26.7964L21.4997 26.8042ZM19.0045 25.9075C19.3086 25.9075 19.6127 25.9075 19.9168 25.9075C20.4393 25.8997 20.8214 25.5255 20.8292 25.003C20.8292 24.6989 20.8292 24.3948 20.8292 24.0907C20.8136 23.5916 20.4549 23.2095 19.9558 23.1939C19.332 23.1784 18.7004 23.1784 18.0766 23.1939C17.5776 23.2095 17.2267 23.5917 17.2111 24.0985C17.2111 24.4026 17.2111 24.7067 17.2111 25.0109C17.2189 25.5177 17.5931 25.8919 18.1078 25.9075C18.4041 25.9075 18.7004 25.9075 18.9967 25.9075H19.0045ZM24.6812 25.0109C24.455 25.0109 24.2367 25.0109 24.0106 25.0109C23.7299 25.0187 23.5505 25.198 23.5505 25.4553C23.5505 25.7048 23.7377 25.8997 24.0106 25.9075C24.455 25.9153 24.8995 25.9153 25.344 25.9075C25.6169 25.9075 25.804 25.7048 25.804 25.4553C25.804 25.2058 25.6169 25.0187 25.344 25.0109C25.1178 25.0109 24.8995 25.0109 24.6734 25.0109H24.6812ZM24.6656 24.0907C24.8995 24.0907 25.1256 24.0907 25.3596 24.0907C25.6247 24.0829 25.804 23.9113 25.8118 23.6618C25.8196 23.4123 25.6403 23.2017 25.3752 23.1939C24.9151 23.1784 24.455 23.1784 23.9872 23.1939C23.7299 23.2017 23.5583 23.4045 23.5583 23.6463C23.5583 23.8958 23.7299 24.0751 23.995 24.0829C24.2133 24.0907 24.4394 24.0829 24.6656 24.0829V24.0907Z" fill="#0671B8"/>
<path d="M16.0882 6C17.6243 6 19.1527 6 20.6888 6C21.1566 6 21.2892 6.13249 21.2892 6.60814C21.2892 9.51665 21.2892 12.4252 21.2892 15.3415C21.2892 15.8172 21.1488 15.9575 20.6654 15.9575C17.6165 15.9575 14.5677 15.9575 11.511 15.9575C11.0276 15.9575 10.8872 15.8172 10.8872 15.3415C10.8872 12.433 10.8872 9.52445 10.8872 6.60814C10.8872 6.14028 11.0198 6 11.4876 6C13.0238 6 14.5521 6 16.0882 6ZM13.6164 12.3317C13.3123 12.3317 13.0082 12.3317 12.7041 12.3317C12.1894 12.3394 11.8151 12.6981 11.7917 13.2128C11.7761 13.5247 11.7839 13.8366 11.7917 14.1485C11.8073 14.6085 12.1192 14.9984 12.5715 15.014C13.2577 15.0452 13.9517 15.0452 14.6456 15.014C15.0823 14.9906 15.3864 14.6163 15.402 14.1797C15.4098 13.8522 15.4098 13.5247 15.402 13.1894C15.3864 12.7059 15.0199 12.3394 14.5287 12.3317C14.2246 12.3239 13.9205 12.3317 13.6164 12.3317ZM19.2462 15.0452C19.4646 15.0452 19.6907 15.053 19.909 15.0452C20.1975 15.0296 20.3925 14.8347 20.3847 14.5852C20.3847 14.3356 20.182 14.1485 19.8934 14.1407C19.4646 14.1329 19.0357 14.1329 18.6146 14.1407C18.3261 14.1407 18.1312 14.3356 18.1234 14.5929C18.1234 14.8424 18.3105 15.0374 18.6068 15.053C18.8174 15.0608 19.0357 15.053 19.2462 15.053V15.0452ZM19.2696 12.3317C19.0435 12.3317 18.8252 12.3317 18.599 12.3317C18.3261 12.3317 18.1312 12.5187 18.1234 12.7683C18.1234 13.0178 18.3105 13.2205 18.5756 13.2283C19.0279 13.2361 19.4802 13.2361 19.9324 13.2283C20.1975 13.2283 20.3925 13.01 20.3769 12.7683C20.3691 12.5265 20.1819 12.3473 19.9246 12.3395C19.6985 12.3395 19.4802 12.3395 19.254 12.3395L19.2696 12.3317Z" fill="#0671B8"/>
<path d="M6.8324 24.9793V24.106H8.60245V24.9793H6.8324Z" fill="#FFB422"/>
<path d="M19.9246 24.9871H18.1389V24.1138H19.9246V24.9871Z" fill="#FFB422"/>
<path d="M12.7041 14.117V13.2515H14.4897V14.117H12.7041Z" fill="#FFB422"/>
</svg>
