<svg width="32" height="32" viewBox="0 0 32 32" fill="none" xmlns="http://www.w3.org/2000/svg">
<path d="M6 10.4822C6.09034 10.4822 6.18069 10.4657 6.27104 10.4575C8.1107 10.4575 9.95035 10.4575 11.7818 10.4575C11.8639 10.4575 11.946 10.4575 12.0528 10.474C12.0528 10.5889 12.0528 10.6875 12.0528 10.7778C12.0528 12.4532 12.0528 14.1204 12.0528 15.7958C12.0528 16.2639 12.1596 16.3707 12.6195 16.3707C13.9007 16.3707 15.1819 16.3707 16.4713 16.3707C16.923 16.3707 17.038 16.2557 17.038 15.7958C17.038 14.1204 17.038 12.4532 17.038 10.7778C17.038 10.6793 17.038 10.5807 17.038 10.474H23.0579V15.689C20.7419 15.4919 18.7544 16.1818 17.2186 17.9393C15.6829 19.6887 15.2476 21.7419 15.7486 24.0332H15.4529C12.3978 24.0332 9.3426 24.0332 6.28745 24.0332C6.1889 24.0332 6.09855 24.0086 6 23.9921C6 19.4915 6 14.9828 6 10.4822ZM11.0016 19.0398H7.58506V19.8037H11.0016V19.0398ZM10.1639 21.0684H7.57686V21.8322H10.1639V21.0684Z" fill="#0671B8"/>
<path d="M21.4481 7C21.6863 7.52562 21.9327 8.05116 22.1709 8.56857C22.3351 8.92172 22.4994 9.2667 22.6801 9.64449H17.0297V7C18.4997 7 19.9781 7 21.4481 7Z" fill="#0671B8"/>
<path d="M12.061 7V9.64449H6.41064C6.48456 9.48844 6.54204 9.34881 6.60774 9.21741C6.91983 8.55217 7.24013 7.8869 7.56043 7.22988C7.59328 7.15597 7.61792 7.08213 7.64256 7C9.11264 7 10.5909 7 12.061 7Z" fill="#0671B8"/>
<path d="M16.2331 7V9.64449H12.8577V7H16.2331Z" fill="#0671B8"/>
<path d="M16.2249 15.566H12.8658V10.4741H16.2249V15.566Z" fill="#0671B8"/>
<path d="M21.9256 27C24.7564 27 27.0513 24.7051 27.0513 21.8743C27.0513 19.0434 24.7564 16.7485 21.9256 16.7485C19.0947 16.7485 16.7998 19.0434 16.7998 21.8743C16.7998 24.7051 19.0947 27 21.9256 27Z" fill="#FFB422"/>
<path d="M21.11 22.3909C20.8706 22.129 20.6835 21.8971 20.4665 21.695C20.1747 21.4257 19.8379 21.4256 19.5835 21.6726C19.3291 21.9195 19.3216 22.2712 19.5835 22.5556C19.9427 22.9372 20.3169 23.3113 20.6985 23.6705C20.9679 23.9249 21.2896 23.9249 21.5515 23.6705C22.4719 22.7651 23.3848 21.8597 24.2827 20.9393C24.5372 20.6774 24.4997 20.3182 24.2603 20.0862C24.0134 19.8468 23.6916 19.8393 23.4073 20.0862C23.2576 20.2134 23.1229 20.3631 22.9882 20.4978C22.3821 21.1114 21.776 21.7324 21.1175 22.3984L21.11 22.3909Z" fill="white"/>
</svg>
