<svg width="32" height="32" viewBox="0 0 32 32" fill="none" xmlns="http://www.w3.org/2000/svg">
<path d="M27.06 18.3972C22.0417 18.3972 17.0396 18.3972 12.0455 18.3972C12.0455 15.2567 12.0455 12.1243 12.0455 9C17.0638 9 22.0579 9 27.06 9C27.06 12.1567 27.06 15.281 27.06 18.3972ZM15.2993 9.84991C14.6033 9.84991 14.2309 10.2222 14.2309 10.9183C14.2309 12.7961 14.2309 14.674 14.2309 16.5599C14.2309 17.1427 14.6194 17.5474 15.2103 17.5555C15.8902 17.5555 16.5782 17.5555 17.2581 17.5555C19.4192 17.5555 21.5884 17.5555 23.7495 17.5555C24.5104 17.5555 24.8665 17.1993 24.8665 16.4304C24.8665 14.6092 24.8665 12.78 24.8665 10.9588C24.8665 10.198 24.5104 9.84991 23.7414 9.84991C22.3412 9.84991 20.9328 9.84991 19.5325 9.84991C18.1242 9.84991 16.7077 9.84991 15.2993 9.84991Z" fill="#0671B8"/>
<path d="M4.0081 16.6164C4.0081 16.5355 4.04048 16.4464 4.07286 16.3655C4.64753 14.9247 5.2384 13.484 5.80498 12.0433C5.86973 11.8733 5.95876 11.8247 6.13683 11.8247C7.82039 11.8247 9.50396 11.8247 11.1794 11.8247C11.2604 11.8247 11.3494 11.8247 11.4384 11.8409C11.4384 14.9571 11.4384 18.0572 11.4384 21.1734C10.9528 21.1734 10.4752 21.1734 9.99769 21.1734C9.83581 21.1734 9.77106 21.141 9.73059 20.971C9.48776 19.9188 8.4922 19.255 7.42379 19.4007C6.57392 19.5221 5.9102 20.1374 5.69975 20.9953C5.68357 21.0601 5.61072 21.1653 5.56216 21.1653C5.05223 21.1815 4.53421 21.1653 4 21.1653C4 19.6193 4 18.1057 4 16.6002L4.0081 16.6164ZM10.022 17.0616C10.3538 17.0616 10.4267 16.9807 10.4267 16.6569C10.4267 15.5238 10.4267 14.3905 10.4267 13.2574C10.4267 12.9498 10.3376 12.8608 10.0301 12.8608C8.98594 12.8608 7.93371 12.8608 6.88958 12.8608C6.67913 12.8608 6.55773 12.9417 6.47679 13.1359C6.01543 14.2853 5.55406 15.4265 5.0927 16.5678C4.9551 16.9078 5.06842 17.0616 5.43265 17.0616C6.19349 17.0616 6.95434 17.0616 7.71518 17.0616C8.48411 17.0616 9.25304 17.0616 10.022 17.0616ZM10.1353 18.13C10.3134 18.13 10.4186 18.0329 10.4186 17.8467C10.4186 17.6768 10.3053 17.5796 10.1434 17.5796C9.82772 17.5715 9.51205 17.5715 9.19639 17.5796C9.03451 17.5796 8.92118 17.6768 8.92118 17.8467C8.92118 18.0248 9.02641 18.1219 9.20448 18.13C9.35826 18.13 9.52015 18.13 9.67393 18.13C9.82772 18.13 9.97341 18.13 10.1272 18.13H10.1353Z" fill="#0671B8"/>
<path d="M12.0293 18.98V21.1653C13.2596 21.1653 14.4818 21.1653 15.6959 21.1653C16.2059 19.8703 16.8696 19.3199 17.8651 19.3847C18.6826 19.4332 19.5892 19.9593 19.832 21.1653H21.0785C21.1918 20.5664 21.4913 20.0645 22.0093 19.7246C22.3735 19.4898 22.7701 19.3766 23.1991 19.3847C24.1947 19.4171 24.8584 20.016 25.2064 21.1653C25.8135 21.1653 26.4206 21.1653 27.0519 21.1653V18.98C22.0498 18.98 17.0476 18.98 12.0212 18.98H12.0293Z" fill="#0671B8"/>
<path d="M24.6561 21.4488C24.6561 22.2825 23.9842 22.9624 23.1506 22.9705C22.3088 22.9705 21.6127 22.2744 21.6208 21.4488C21.6289 20.6232 22.3169 19.9434 23.1425 19.9434C23.9761 19.9434 24.6561 20.6152 24.6561 21.4488ZM24.0004 21.4731C24.0004 20.9875 23.6362 20.6071 23.1587 20.599C22.6649 20.5909 22.2764 20.9713 22.2764 21.4569C22.2764 21.9345 22.6568 22.3231 23.1344 22.3231C23.6119 22.3231 24.0004 21.9507 24.0004 21.4731Z" fill="#0671B8"/>
<path d="M17.776 22.9618C16.9504 22.9618 16.2543 22.2819 16.2462 21.4563C16.2462 20.6226 16.9342 19.9265 17.776 19.9346C18.6097 19.9346 19.2815 20.6145 19.2815 21.4482C19.2815 22.2819 18.6097 22.9618 17.7679 22.9618H17.776ZM16.9018 21.4482C16.9018 21.9258 17.3065 22.3224 17.7841 22.3143C18.2535 22.3143 18.634 21.9096 18.634 21.4401C18.634 20.9626 18.2454 20.5903 17.7679 20.5903C17.2904 20.5903 16.9099 20.9788 16.9099 21.4482H16.9018Z" fill="#0671B8"/>
<path d="M9.24495 21.4324C9.24495 22.2823 8.57314 22.9622 7.73136 22.9622C6.89767 22.9622 6.21777 22.2823 6.21777 21.4486C6.21777 20.615 6.88958 19.9351 7.72327 19.9351C8.56505 19.9351 9.23686 20.5988 9.24495 21.4324ZM8.59742 21.4567C8.59742 20.9792 8.21701 20.5988 7.73946 20.5988C7.25382 20.5988 6.85721 20.9954 6.8653 21.4729C6.8653 21.9424 7.27 22.331 7.73946 22.3229C8.20891 22.3229 8.59742 21.9262 8.59742 21.4567Z" fill="#0671B8"/>
<path d="M9.31777 13.4114C8.5974 13.4114 7.87703 13.4114 7.15666 13.4114C7.07572 13.4114 6.95431 13.4761 6.93003 13.5409C6.53342 14.4879 6.153 15.443 5.76448 16.3981C5.75639 16.4224 5.75639 16.4466 5.74829 16.4871C7.12428 16.4871 8.48408 16.4871 9.86816 16.4871C9.86816 15.4673 9.86816 14.4475 9.86816 13.4033C9.68199 13.4033 9.50393 13.4033 9.31777 13.4033V13.4114Z" fill="#0671B8"/>
<path d="M22.3167 13.9618C22.3896 14.0427 22.5515 14.1075 22.6405 14.0751C22.7295 14.0427 22.7781 13.8971 22.8348 13.7918C22.8591 13.7433 22.8348 13.6705 22.8348 13.6057C22.8348 12.6344 22.8348 11.6712 22.8348 10.6999C22.8348 10.6108 22.8348 10.5137 22.8348 10.4004C23.1666 10.4004 23.4661 10.4004 23.7656 10.4004C24.2108 10.4004 24.3241 10.5219 24.3241 10.967C24.3241 12.7801 24.3241 14.6012 24.3241 16.4143C24.3241 16.8757 24.2107 16.989 23.7494 16.989C20.9488 16.989 18.1483 16.989 15.3478 16.989C14.8864 16.989 14.7731 16.8757 14.7731 16.4062C14.7731 14.5931 14.7731 12.772 14.7731 10.9589C14.7731 10.8618 14.7569 10.7485 14.8055 10.6838C14.8783 10.5785 14.9916 10.4328 15.0969 10.4247C15.4692 10.3923 15.8496 10.4085 16.2543 10.4085C16.2543 10.5218 16.2543 10.6189 16.2543 10.708C16.2543 11.6873 16.2543 12.6586 16.2543 13.638C16.2543 13.808 16.2219 14.0023 16.4405 14.0832C16.659 14.1642 16.7561 13.9942 16.8614 13.8647C17.0151 13.6704 17.177 13.4681 17.3389 13.2576C17.517 13.4842 17.6789 13.6947 17.8407 13.8971C17.9379 14.0266 18.035 14.1561 18.2292 14.0913C18.4154 14.0266 18.4154 13.8566 18.4154 13.6947C18.4154 12.6911 18.4154 11.6793 18.4154 10.6757C18.4154 10.5866 18.4154 10.5056 18.4154 10.4085C19.1682 10.4085 19.9047 10.4085 20.6656 10.4085C20.6656 10.5056 20.6656 10.5947 20.6656 10.6757C20.6656 11.6712 20.6656 12.6748 20.6656 13.6704C20.6656 13.8404 20.6656 14.0185 20.8598 14.0832C21.0622 14.1561 21.1593 14.0023 21.2645 13.8647C21.4183 13.6704 21.5721 13.4762 21.7421 13.2576C21.9363 13.5085 22.1063 13.7513 22.3086 13.9618H22.3167ZM19.4191 16.3415C19.4191 16.5519 19.5162 16.6652 19.7347 16.6652C20.1475 16.6652 20.5603 16.6652 20.965 16.6652C21.1674 16.6652 21.2726 16.56 21.2726 16.3577C21.2726 15.8235 21.2726 15.2811 21.2726 14.7469C21.2726 14.5526 21.1674 14.4474 20.9812 14.4474C20.5522 14.4474 20.1233 14.4474 19.7024 14.4474C19.5162 14.4474 19.4191 14.5607 19.4191 14.755C19.4191 15.0221 19.4191 15.2892 19.4191 15.5644C19.4191 15.8234 19.4191 16.0906 19.4191 16.3496V16.3415ZM21.8392 16.3577C21.8392 16.56 21.9444 16.6652 22.1468 16.6652C22.5596 16.6652 22.9724 16.6652 23.3771 16.6652C23.5956 16.6652 23.6927 16.5438 23.6927 16.3415C23.6927 15.8235 23.6927 15.2973 23.6927 14.7712C23.6927 14.5446 23.5713 14.4393 23.3528 14.4393C22.9562 14.4393 22.5596 14.4393 22.163 14.4393C21.912 14.4393 21.8311 14.5284 21.8311 14.7955C21.8311 15.0464 21.8311 15.3054 21.8311 15.5563C21.8311 15.8234 21.8311 16.0905 21.8311 16.3657L21.8392 16.3577ZM15.7606 15.273C15.5258 15.273 15.3882 15.3863 15.4044 15.5563C15.4206 15.7667 15.5663 15.8316 15.7525 15.8316C16.6752 15.8316 17.5898 15.8316 18.5125 15.8316C18.6987 15.8316 18.8444 15.7667 18.8525 15.5563C18.8606 15.3782 18.7311 15.273 18.4964 15.273C18.035 15.273 17.5736 15.273 17.1204 15.273C16.6671 15.273 16.2138 15.273 15.7606 15.273ZM18.5125 14.9897C18.7068 14.9897 18.8525 14.9331 18.8606 14.7227C18.8606 14.5041 18.7149 14.4393 18.5287 14.4393C17.5979 14.4393 16.6752 14.4393 15.7444 14.4393C15.5501 14.4393 15.4044 14.5203 15.4125 14.7227C15.4125 14.925 15.5663 14.9978 15.7606 14.9897C16.2219 14.9897 16.6833 14.9897 17.1366 14.9897C17.5979 14.9897 18.0593 14.9897 18.5125 14.9897ZM18.5045 16.6652C18.7473 16.6652 18.8768 16.5681 18.8606 16.39C18.8444 16.1796 18.6987 16.1229 18.5125 16.1229C17.5898 16.1229 16.6752 16.1229 15.7525 16.1229C15.5582 16.1229 15.4206 16.1877 15.4044 16.39C15.3882 16.56 15.5258 16.6652 15.7687 16.6652C16.23 16.6652 16.6914 16.6652 17.1446 16.6652C17.5979 16.6652 18.0512 16.6652 18.4964 16.6652H18.5045Z" fill="#FFB422"/>
<path d="M17.8409 10.4165H16.8291V13.0067C16.9181 12.8933 16.9829 12.8123 17.0557 12.7314C17.2662 12.4724 17.42 12.4724 17.6223 12.7233C17.6871 12.8042 17.7518 12.8852 17.8409 12.9986V10.4165Z" fill="#FFB422"/>
<path d="M21.2484 12.9902C21.583 12.6232 21.9202 12.6232 22.2602 12.9902C22.2602 12.1322 22.2602 11.2904 22.2602 10.4243H21.2484C21.2484 11.2661 21.2484 12.1079 21.2484 12.9902Z" fill="#FFB422"/>
<path d="M9.86816 13.4114C9.68199 13.4114 9.50393 13.4114 9.31777 13.4114C8.5974 13.4114 7.87703 13.4114 7.15666 13.4114C7.07572 13.4114 6.95431 13.4761 6.93003 13.5409C6.53342 14.4879 6.153 15.443 5.76448 16.3981C5.75639 16.4224 5.75639 16.4466 5.74829 16.4871C7.12428 16.4871 8.48408 16.4871 9.86816 16.4871C9.86816 15.4673 9.86816 14.4475 9.86816 13.4033V13.4114Z" fill="#0671B8"/>
<path d="M23.1747 21.7644C23.3447 21.7563 23.4419 21.643 23.458 21.4649C23.4742 21.2949 23.3123 21.1411 23.1424 21.1492C22.9643 21.1492 22.8348 21.303 22.8429 21.4811C22.851 21.6511 22.9805 21.7725 23.1747 21.7725V21.7644Z" fill="#0671B8"/>
<path d="M17.4685 21.4646C17.4685 21.6427 17.6142 21.7722 17.7923 21.7641C17.9784 21.756 18.0756 21.6427 18.0918 21.4646C18.0998 21.2946 17.9461 21.1489 17.7761 21.1489C17.6061 21.1489 17.4685 21.2946 17.4685 21.4727V21.4646Z" fill="#0671B8"/>
<path d="M7.7395 21.1411C7.56952 21.1411 7.42383 21.2787 7.42383 21.4568C7.42383 21.643 7.52905 21.7482 7.71521 21.7644C7.89328 21.7806 8.03897 21.643 8.04706 21.473C8.04706 21.303 7.90947 21.1492 7.7395 21.1492V21.1411Z" fill="#0671B8"/>
<path d="M20.7062 15.0059H19.9939V16.1066H20.7062V15.0059Z" fill="#FFB422"/>
<path d="M22.4059 16.1066H23.1262V15.0059H22.4059V16.1066Z" fill="#FFB422"/>
</svg>
