<svg width="32" height="32" viewBox="0 0 32 32" fill="none" xmlns="http://www.w3.org/2000/svg">
<path d="M27.49 18.5724H12.1956C12.1956 15.3734 12.1956 12.1826 12.1956 9C17.3075 9 22.3946 9 27.49 9C27.49 12.2156 27.49 15.3981 27.49 18.5724ZM26.3687 9.45352C25.6596 9.45352 25.9069 11.1684 25.9069 11.8775C25.9069 13.7903 25.7916 16.1071 25.7916 18.02C25.7916 18.6136 14.8174 17.7067 15.4193 17.7149C16.1119 17.7149 16.8127 17.7149 17.5053 17.7149C19.7067 17.7149 21.9164 17.7149 24.1178 17.7149C24.8928 17.7149 25.2556 17.3522 25.2556 16.569C25.2556 14.7138 25.2556 12.8505 25.2556 10.9953C25.2556 10.2203 24.8928 9.86577 24.1095 9.86577C22.6832 9.86577 21.2486 9.86577 19.8222 9.86577C18.3876 9.86577 27.8115 9.45352 26.3687 9.45352Z" fill="#0671B8"/>
<path d="M4.0082 16.759C4.0082 16.6766 4.0412 16.5858 4.07418 16.5034C4.65957 15.0358 5.26147 13.5682 5.83862 12.1006C5.90458 11.9274 5.99525 11.8779 6.17664 11.8779C7.8916 11.8779 9.6066 11.8779 11.3133 11.8779C11.3958 11.8779 11.4865 11.8779 11.5772 11.8944C11.5772 15.0688 11.5772 18.2266 11.5772 21.4009C11.0825 21.4009 10.596 21.4009 10.1095 21.4009C9.94462 21.4009 9.87865 21.368 9.83742 21.1948C9.59007 20.123 8.57596 19.4468 7.48762 19.5952C6.62189 19.7189 5.9458 20.3455 5.73143 21.2195C5.71494 21.2854 5.64075 21.3927 5.59128 21.3927C5.07184 21.4092 4.54417 21.3927 4 21.3927C4 19.8179 4 18.2761 4 16.7425L4.0082 16.759ZM10.1343 17.2124C10.4723 17.2124 10.5465 17.13 10.5465 16.8002C10.5465 15.6459 10.5465 14.4916 10.5465 13.3373C10.5465 13.024 10.4558 12.9333 10.1425 12.9333C9.07888 12.9333 8.00703 12.9333 6.94342 12.9333C6.72905 12.9333 6.60542 13.0157 6.52297 13.2136C6.053 14.3844 5.58302 15.5469 5.11305 16.7095C4.97289 17.0558 5.08831 17.2124 5.45933 17.2124C6.23436 17.2124 7.0094 17.2124 7.78443 17.2124C8.5677 17.2124 9.35101 17.2124 10.1343 17.2124ZM10.2497 18.3008C10.4311 18.3008 10.5383 18.2019 10.5383 18.0123C10.5383 17.8391 10.4228 17.7401 10.2579 17.7401C9.93637 17.7319 9.61483 17.7319 9.29328 17.7401C9.12838 17.7401 9.01292 17.8391 9.01292 18.0123C9.01292 18.1937 9.12014 18.2926 9.30153 18.3008C9.45818 18.3008 9.62305 18.3008 9.7797 18.3008C9.93636 18.3008 10.0848 18.3008 10.2414 18.3008H10.2497Z" fill="#0671B8"/>
<path d="M12.1708 19.166V21.3922C13.424 21.3922 14.669 21.3922 15.9058 21.3922C16.4252 20.073 17.1013 19.5123 18.1155 19.5783C18.9482 19.6277 19.8716 20.1637 20.119 21.3922H21.3887C21.5041 20.7821 21.8092 20.2709 22.3369 19.9246C22.7079 19.6855 23.1119 19.57 23.5489 19.5783C24.563 19.6112 25.2391 20.2214 25.5937 21.3922C26.2121 21.3922 26.8304 21.3922 27.4735 21.3922V19.166C22.3781 19.166 17.2827 19.166 12.1625 19.166H12.1708Z" fill="#0671B8"/>
<path d="M25.0412 21.681C25.0412 22.5303 24.3569 23.2228 23.5077 23.2311C22.6502 23.2311 21.9411 22.522 21.9494 21.681C21.9576 20.84 22.6584 20.1475 23.4994 20.1475C24.3486 20.1475 25.0412 20.8318 25.0412 21.681ZM24.3734 21.7058C24.3734 21.2111 24.0024 20.8235 23.5159 20.8153C23.013 20.807 22.6172 21.1946 22.6172 21.6893C22.6172 22.1757 23.0047 22.5714 23.4912 22.5714C23.9776 22.5714 24.3734 22.1922 24.3734 21.7058Z" fill="#0671B8"/>
<path d="M18.0329 23.2307C17.1919 23.2307 16.4829 22.5381 16.4746 21.6971C16.4746 20.8479 17.1754 20.1388 18.0329 20.147C18.8822 20.147 19.5665 20.8396 19.5665 21.6889C19.5665 22.5381 18.8822 23.2307 18.0247 23.2307H18.0329ZM17.1425 21.6889C17.1425 22.1753 17.5547 22.5793 18.0412 22.571C18.5194 22.571 18.9069 22.1588 18.9069 21.6806C18.9069 21.1941 18.5111 20.8148 18.0247 20.8148C17.5382 20.8148 17.1507 21.2106 17.1507 21.6889H17.1425Z" fill="#0671B8"/>
<path d="M9.34278 21.664C9.34278 22.5297 8.65845 23.2223 7.80097 23.2223C6.95173 23.2223 6.25916 22.5297 6.25916 21.6805C6.25916 20.8312 6.94348 20.1387 7.79271 20.1387C8.65019 20.1387 9.33453 20.8147 9.34278 21.664ZM8.68319 21.6887C8.68319 21.2023 8.29567 20.8147 7.80922 20.8147C7.31452 20.8147 6.9105 21.2188 6.91875 21.7052C6.91875 22.1835 7.33101 22.5792 7.80922 22.5709C8.28743 22.5709 8.68319 22.1669 8.68319 21.6887Z" fill="#0671B8"/>
<path d="M9.41691 13.4936C8.6831 13.4936 7.94931 13.4936 7.21551 13.4936C7.13306 13.4936 7.00941 13.5596 6.98467 13.6256C6.58067 14.5902 6.19315 15.5632 5.79739 16.5361C5.78914 16.5608 5.78913 16.5855 5.78088 16.6267C7.18253 16.6267 8.56772 16.6267 9.97761 16.6267V13.4854C9.78798 13.4854 9.60654 13.4854 9.41691 13.4854V13.4936Z" fill="#0671B8"/>
<path d="M9.96943 13.4936C9.7798 13.4936 9.59841 13.4936 9.40878 13.4936C8.67497 13.4936 7.94113 13.4936 7.20733 13.4936C7.12488 13.4936 7.00123 13.5596 6.97649 13.6256C6.57249 14.5902 6.18497 15.5632 5.78921 16.5361C5.78097 16.5608 5.78095 16.5855 5.77271 16.6267C7.17435 16.6267 8.55954 16.6267 9.96943 16.6267V13.4854V13.4936Z" fill="#0671B8"/>
<path d="M23.5324 22.0024C23.7056 21.9942 23.8045 21.8788 23.821 21.6974C23.8375 21.5242 23.6725 21.3676 23.4994 21.3758C23.318 21.3758 23.1861 21.5325 23.1943 21.7139C23.2026 21.887 23.3345 22.0107 23.5324 22.0107V22.0024Z" fill="#0671B8"/>
<path d="M17.7197 21.6971C17.7197 21.8784 17.8681 22.0104 18.0495 22.0021C18.2391 21.9939 18.3381 21.8784 18.3545 21.6971C18.3628 21.5239 18.2061 21.3755 18.033 21.3755C17.8598 21.3755 17.7197 21.5239 17.7197 21.7053V21.6971Z" fill="#0671B8"/>
<path d="M7.80924 21.3677C7.63609 21.3677 7.48767 21.5079 7.48767 21.6892C7.48767 21.8789 7.59484 21.9861 7.78448 22.0026C7.96587 22.019 8.11431 21.8789 8.12255 21.7057C8.12255 21.5326 7.98238 21.3759 7.80924 21.3759V21.3677Z" fill="#0671B8"/>
<path d="M19.8304 17.047C21.6017 17.047 23.0377 15.611 23.0377 13.8396C23.0377 12.0683 21.6017 10.6323 19.8304 10.6323C18.059 10.6323 16.6231 12.0683 16.6231 13.8396C16.6231 15.611 18.059 17.047 19.8304 17.047Z" fill="#FFB422" stroke="white" stroke-width="0.7" stroke-miterlimit="10"/>
<path d="M19.3191 14.1613C19.1707 13.9964 19.0471 13.8562 18.9151 13.7242C18.7337 13.5511 18.5194 13.5593 18.3627 13.7077C18.2061 13.8644 18.1978 14.0788 18.3627 14.2602C18.5853 14.4993 18.8244 14.7301 19.0635 14.9527C19.2284 15.1094 19.4346 15.1094 19.5995 14.9527C20.1766 14.3921 20.7455 13.8232 21.3062 13.2461C21.4629 13.0812 21.4381 12.8585 21.2897 12.7101C21.1413 12.5617 20.9351 12.5535 20.7537 12.7101C20.6631 12.7926 20.5806 12.8832 20.49 12.9657C20.1107 13.3532 19.7314 13.7325 19.3191 14.153V14.1613Z" fill="white"/>
</svg>
