<svg width="32" height="32" viewBox="0 0 32 32" fill="none" xmlns="http://www.w3.org/2000/svg">
<path d="M8.00726 23.6081V5C12.4364 5 16.8655 5 21.3019 5C21.3599 5.08699 21.4759 5.1668 21.4759 5.25378C21.4904 5.71047 21.4831 6.1671 21.4831 6.64553H21.2222C18.7865 6.64553 16.3509 6.64553 13.9224 6.64553C12.8061 6.64553 11.6898 6.64553 10.5662 6.64553C10.153 6.64553 9.81228 6.88464 9.71079 7.26159C9.67455 7.40657 9.6673 7.55888 9.6673 7.71111C9.6673 12.9956 9.6673 18.2802 9.6673 23.5574V23.8473C9.23236 23.8473 8.8264 23.8401 8.42045 23.8473C8.21748 23.8473 8.07974 23.782 8 23.6008L8.00726 23.6081Z" fill="#FFB422"/>
<path d="M21.4832 7.23284C21.4832 7.5228 21.4832 7.7982 21.4832 8.07366C21.4832 8.59559 21.4832 9.11745 21.4832 9.63937C21.4832 10.27 21.8239 10.6035 22.4473 10.6035C23.2447 10.6035 24.0348 10.6035 24.8539 10.6035C24.8539 10.6833 24.8612 10.7558 24.8612 10.8283C24.8612 15.7721 24.8612 20.7086 24.8612 25.6524C24.8612 25.9931 24.7742 26.0802 24.4408 26.0802C19.8449 26.0802 15.249 26.0802 10.6532 26.0802C10.327 26.0802 10.24 26.0004 10.24 25.6669C10.24 19.6575 10.24 13.648 10.24 7.63139C10.24 7.31969 10.327 7.22559 10.617 7.22559C14.1762 7.22559 17.7354 7.22559 21.2947 7.22559C21.3454 7.22559 21.3889 7.22559 21.4686 7.23284H21.4832ZM11.9507 11.4371C11.9507 12.8579 13.1033 14.0105 14.5241 14.0178C15.9522 14.0178 17.5542 13.7858 17.5542 12.365C18.5401 13.5176 11.958 18.8747 11.2186 9.19729C11.1098 7.77649 11.9435 10.0091 11.9507 11.4371ZM17.5687 15.2067C16.9235 15.2067 16.2784 15.2067 15.6332 15.2067C14.7199 15.2067 13.8065 15.2067 12.9004 15.2067C12.7046 15.2067 12.5741 15.3299 12.5741 15.5039C12.5741 15.6633 12.7046 15.772 12.8931 15.7865C12.9366 15.7865 12.9729 15.7865 13.0164 15.7865C16.0392 15.7865 19.062 15.7865 22.0848 15.7865C22.1501 15.7865 22.2225 15.7937 22.2878 15.7792C22.44 15.743 22.5343 15.6488 22.527 15.4893C22.527 15.3299 22.4255 15.2357 22.2733 15.214C22.208 15.2067 22.1356 15.214 22.0703 15.214C20.5698 15.214 19.0692 15.214 17.5687 15.214V15.2067ZM17.5542 17.8017C19.062 17.8017 20.5698 17.8017 22.0776 17.8017C22.1428 17.8017 22.2153 17.809 22.2805 17.8017C22.44 17.7655 22.5415 17.6713 22.527 17.4973C22.5198 17.3379 22.4183 17.2508 22.2661 17.229C22.2153 17.229 22.1573 17.229 22.0993 17.229C19.0692 17.229 16.0392 17.229 13.0091 17.229C12.9439 17.229 12.8859 17.229 12.8279 17.229C12.6684 17.2508 12.5814 17.3524 12.5814 17.5118C12.5814 17.6568 12.6611 17.7582 12.8061 17.7945C12.8714 17.809 12.9439 17.8017 13.0091 17.8017C14.5241 17.8017 16.0392 17.8017 17.5542 17.8017ZM17.5542 19.2443C16.0464 19.2443 14.5386 19.2443 13.0308 19.2443C12.9656 19.2443 12.8931 19.2443 12.8279 19.2443C12.6684 19.266 12.5814 19.3676 12.5814 19.5271C12.5814 19.6721 12.6684 19.7735 12.8061 19.8097C12.8714 19.8242 12.9439 19.817 13.0091 19.817C16.0392 19.817 19.0692 19.817 22.0993 19.817C22.1645 19.817 22.2225 19.817 22.2805 19.817C22.44 19.7807 22.5415 19.6865 22.527 19.5126C22.5198 19.3531 22.4183 19.266 22.2661 19.2515C22.2008 19.2515 22.1283 19.2515 22.0631 19.2515C20.5625 19.2515 19.062 19.2515 17.5614 19.2515L17.5542 19.2443ZM17.576 21.2595C16.0682 21.2595 14.5604 21.2595 13.0526 21.2595C12.9874 21.2595 12.9148 21.2595 12.8496 21.2595C12.6829 21.2813 12.5886 21.3828 12.5814 21.5423C12.5814 21.7018 12.6757 21.7959 12.8279 21.8249C12.8859 21.8394 12.9511 21.8249 13.0091 21.8249C16.0392 21.8249 19.0692 21.8249 22.0993 21.8249C22.1645 21.8249 22.2371 21.8322 22.3023 21.8177C22.4473 21.7742 22.5415 21.68 22.527 21.5133C22.5125 21.3611 22.4255 21.274 22.2805 21.2522C22.2153 21.245 22.1428 21.2522 22.0776 21.2522C20.577 21.2522 19.0765 21.2522 17.576 21.2522V21.2595ZM20.6205 11.169C20.0986 11.169 19.5767 11.169 19.0547 11.169C18.8155 11.169 18.6923 11.2704 18.6995 11.4661C18.6995 11.6474 18.8228 11.7489 19.0547 11.7489C20.0913 11.7489 21.128 11.7489 22.1573 11.7489C22.3965 11.7489 22.527 11.6401 22.527 11.4589C22.527 11.2704 22.4038 11.169 22.1573 11.169C21.6426 11.169 21.1279 11.169 20.6133 11.169H20.6205ZM20.6133 13.1842C20.0986 13.1842 19.5839 13.1842 19.0692 13.1842C18.8155 13.1842 18.6995 13.2784 18.6995 13.4669C18.6995 13.6553 18.8228 13.7569 19.062 13.7569C20.0986 13.7569 21.1352 13.7569 22.1646 13.7569C22.3965 13.7569 22.5343 13.6408 22.527 13.4596C22.527 13.2856 22.3965 13.1842 22.1718 13.1842C21.6499 13.1842 21.1279 13.1842 20.606 13.1842H20.6133ZM20.6423 23.2747C20.1131 23.2747 19.5839 23.2747 19.062 23.2747C18.8228 23.2747 18.714 23.3691 18.7068 23.5503C18.7068 23.7388 18.8228 23.8474 19.062 23.8474C20.0986 23.8474 21.1352 23.8474 22.1646 23.8474C22.4038 23.8474 22.5343 23.7388 22.5343 23.5575C22.5343 23.3691 22.411 23.2747 22.1646 23.2747C21.6571 23.2747 21.1497 23.2747 20.6423 23.2747Z" fill="#0671B8"/>
<path d="M24.8467 10.0234C24.593 10.0234 24.3392 10.0234 24.0855 10.0234C23.5201 10.0234 22.9619 10.0234 22.3965 10.0234C22.1646 10.0234 22.063 9.92918 22.063 9.70446C22.063 8.90707 22.063 8.10966 22.063 7.31952C22.063 7.29052 22.0776 7.26888 22.0776 7.24714C22.324 7.18914 22.5125 7.26147 22.6865 7.4427C23.3389 8.11685 24.0058 8.77651 24.6799 9.43616C24.8539 9.60289 24.8902 9.79141 24.8394 10.0306L24.8467 10.0234Z" fill="#0671B8"/>
<path d="M22.1935 13.1333H12.9221C12.7339 13.1333 12.5814 13.2858 12.5814 13.474C12.5814 13.6621 12.7339 13.8147 12.9221 13.8147H22.1935C22.3817 13.8147 22.5342 13.6621 22.5342 13.474C22.5342 13.2858 22.3817 13.1333 22.1935 13.1333Z" fill="white"/>
<path d="M22.1935 11.0674H12.9221C12.7339 11.0674 12.5814 11.2201 12.5814 11.4082C12.5814 11.5964 12.7339 11.7489 12.9221 11.7489H22.1935C22.3817 11.7489 22.5342 11.5964 22.5342 11.4082C22.5342 11.2201 22.3817 11.0674 22.1935 11.0674Z" fill="white"/>
</svg>
