<svg width="22" height="21" viewBox="0 0 22 21" fill="none" xmlns="http://www.w3.org/2000/svg">
<path d="M13.4867 20.8877L15.8922 20.9919H15.8601C15.2507 20.9919 14.6493 20.9919 14.056 20.9919L13.4546 20.9117L13.4787 20.8877H13.4867Z" fill="#0671B8"/>
<path d="M7.62563 20.96L7.07241 20.984C6.59933 20.984 6.12624 20.984 5.65316 20.984C5.54892 20.984 5.44457 20.992 5.34033 21.0001L7.64971 20.984C7.64971 20.984 7.6096 20.96 7.63365 20.96H7.62563Z" fill="#0671B8"/>
<path d="M21.3207 14.2565C21.3207 13.3665 20.9679 13.0137 20.0698 13.0137C19.3963 13.0137 18.7227 13.0137 18.0171 13.0137C18.0171 12.8774 18.0011 12.7571 18.0011 12.6449C18.0011 11.9713 18.0011 11.2978 18.0011 10.6162C18.0011 9.87856 17.6002 9.49368 16.8705 9.49368C15.2669 9.49368 13.6632 9.49368 12.0596 9.49368H11.6827V7.98624C11.7709 7.98624 11.859 7.9702 11.9552 7.9702C12.6047 7.9702 13.2624 7.9702 13.9118 7.9702C14.5613 7.9702 14.9781 7.55325 14.9781 6.9198C14.9781 4.97135 14.9781 3.02291 14.9781 1.07446C14.9781 0.537236 14.6815 0.224513 14.2485 0H7.0722C6.49488 0.264604 6.32636 0.721646 6.33438 1.33906C6.35844 3.14317 6.34241 4.94729 6.34241 6.75141C6.34241 7.60135 6.71125 7.9702 7.54515 7.9702C8.24275 7.9702 8.93241 7.9702 9.64604 7.9702V9.5017H9.30131C7.69765 9.5017 6.09398 9.5017 4.4823 9.5017C3.70453 9.5017 3.32771 9.87855 3.31969 10.6643C3.31969 11.4341 3.31969 12.2119 3.31969 13.0217C2.60606 13.0217 1.92443 13.0217 1.24288 13.0217C0.352845 13.0217 0 13.3745 0 14.2726C0 16.1088 0 17.945 0 19.7812C0 20.6231 0.368858 20.9919 1.2188 20.9919C1.90035 20.9919 2.59 20.9919 3.29561 20.9919H7.0722C7.24058 20.9919 7.40887 20.9919 7.57726 20.9919C8.19467 20.9919 8.62771 20.607 8.63573 19.9977C8.65177 18.0091 8.65177 16.0126 8.63573 14.024C8.63573 13.4146 8.20269 13.0297 7.58528 13.0297C6.8476 13.0297 6.10989 13.0297 5.34815 13.0297V11.5303H16.0045V13.0137C15.8922 13.0137 15.7881 13.0297 15.6839 13.0297C15.0424 13.0297 14.4008 13.0297 13.7593 13.0297C13.1339 13.0297 12.7091 13.4146 12.7011 14.024C12.685 16.0126 12.685 18.0091 12.7011 19.9977C12.7011 20.607 13.1339 20.9919 13.7513 20.9999C13.8556 20.9999 13.9599 20.9999 14.0641 20.9999H15.8683C15.9083 20.9999 15.9484 20.9999 15.9965 20.9999H15.9004H18.0332C18.7067 20.9999 19.3802 20.9999 20.0538 20.9999C20.9839 20.9999 21.3288 20.6552 21.3288 19.717C21.3288 17.9049 21.3288 16.0847 21.3288 14.2726L21.3207 14.2565Z" fill="#0671B8"/>
<path d="M18.9315 14.8179H15.0987C14.9924 14.8179 14.9062 14.904 14.9062 15.0103V18.8431C14.9062 18.9493 14.9924 19.0355 15.0987 19.0355H18.9315C19.0377 19.0355 19.1239 18.9493 19.1239 18.8431V15.0103C19.1239 14.904 19.0377 14.8179 18.9315 14.8179Z" fill="#FFB422" stroke="white" stroke-width="1.26" stroke-miterlimit="10"/>
<path d="M12.5809 1.83643H8.7481C8.64181 1.83643 8.55566 1.92258 8.55566 2.02886V5.86161C8.55566 5.96789 8.64181 6.05405 8.7481 6.05405H12.5809C12.6871 6.05405 12.7733 5.96789 12.7733 5.86161V2.02886C12.7733 1.92258 12.6871 1.83643 12.5809 1.83643Z" fill="#FFB422" stroke="white" stroke-width="1.26" stroke-miterlimit="10"/>
<path d="M6.05401 14.8179H2.22124C2.11496 14.8179 2.02881 14.904 2.02881 15.0103V18.8431C2.02881 18.9493 2.11496 19.0355 2.22124 19.0355H6.05401C6.16029 19.0355 6.24644 18.9493 6.24644 18.8431V15.0103C6.24644 14.904 6.16029 14.8179 6.05401 14.8179Z" fill="#FFB422" stroke="white" stroke-width="1.26" stroke-miterlimit="10"/>
</svg>
