<svg width="21" height="21" viewBox="0 0 21 21" fill="none" xmlns="http://www.w3.org/2000/svg">
<path d="M0 13.4218C0 13.4218 0.0231689 13.4062 0.0309451 13.3984C0.575274 12.1154 1.12745 10.8401 1.65622 9.54925C1.88173 8.99715 2.26279 8.75608 2.85378 8.76385C4.16017 8.77941 5.46658 8.76385 6.7652 8.76385C6.83518 8.76385 6.91297 8.76385 6.99073 8.76385C6.99073 12.2242 6.99073 15.6535 6.99073 19.0906H6.23628C6.21295 18.3829 5.9719 17.7764 5.46645 17.2865C4.96878 16.7966 4.36237 16.5478 3.65474 16.5478C3.06376 16.5478 2.52717 16.7422 2.06838 17.1154C1.44629 17.6209 1.14304 18.2818 1.11193 19.075C0.39653 19.1683 0.202179 19.0439 0 18.624V13.4295V13.4218ZM5.52872 13.3129C5.90198 13.3129 6.04966 13.1729 6.04966 12.7919C6.04966 12.0454 6.04966 11.2989 6.04966 10.5524C6.04966 10.1947 5.90199 10.0391 5.53651 10.0391C4.75889 10.0391 3.98906 10.0391 3.21145 10.0391C2.95484 10.0391 2.79161 10.1402 2.69829 10.3813C2.34837 11.2289 1.98279 12.0765 1.62509 12.9241C1.50845 13.204 1.57849 13.3129 1.88176 13.3129C2.49608 13.3129 3.11029 13.3129 3.72461 13.3129C4.32337 13.3129 4.92218 13.3129 5.52872 13.3129Z" fill="#0671B8"/>
<path d="M20.7777 12.3252C16.3997 12.3252 12.045 12.3252 7.68262 12.3252V19.0904C9.50223 19.0904 11.3219 19.0904 13.157 19.0904C13.1959 18.2739 13.5148 17.5896 14.1602 17.0842C14.6345 16.7187 15.1787 16.5399 15.7775 16.5554C16.4696 16.571 17.0528 16.8354 17.5349 17.3175C17.9626 17.7452 18.0948 18.0795 18.297 19.1138C18.5069 19.1138 18.7169 19.1138 18.9347 19.1138C19.2457 19.1138 19.5489 19.1138 19.86 19.1138C20.451 19.106 20.7777 18.7638 20.7777 18.1806C20.7777 16.2988 20.7777 14.4247 20.7777 12.5429C20.7777 12.4729 20.7777 12.4107 20.7777 12.3252Z" fill="#0671B8"/>
<path d="M20.7777 10.4745C20.7777 9.24587 20.7854 8.04057 20.7777 6.83527C20.7777 6.44646 20.4509 6.12764 20.0621 6.08099C19.9688 6.07321 19.8834 6.06543 19.7901 6.06543C16.0809 6.06543 12.3716 6.06543 8.66239 6.06543C8.4291 6.06543 8.20353 6.08877 8.00913 6.24429C7.79917 6.40759 7.68258 6.63309 7.6748 6.89748C7.6748 8.07168 7.6748 9.24587 7.6748 10.4201C7.6748 10.4356 7.6826 10.4589 7.69037 10.4901C12.045 10.4901 16.3997 10.4901 20.7777 10.4901V10.4745Z" fill="#0671B8"/>
<path d="M9.92263 5.3965C9.19168 3.82572 8.04855 2.83038 6.39224 2.55044C4.48709 2.22384 2.89299 2.86148 1.74213 4.42448C0.73123 5.80086 0.591093 7.32499 1.18208 8.96575C1.45424 8.50696 1.83543 8.25034 2.30977 8.12593C2.27867 7.88487 2.23192 7.65158 2.21636 7.4183C2.09195 5.3965 3.65491 3.76351 5.6767 3.8335C6.77314 3.8646 7.64415 4.36227 8.28957 5.24098C8.36733 5.34984 8.44499 5.3965 8.57719 5.3965C9.01265 5.38872 9.44033 5.3965 9.93023 5.3965H9.92263Z" fill="#FFB422"/>
<path d="M13.8335 19.1059C13.8258 18.0717 14.6735 17.2163 15.7233 17.2163C16.7731 17.2163 17.605 18.0561 17.605 19.1059C17.605 20.1479 16.7653 20.98 15.7233 20.98C14.6891 20.98 13.8491 20.1479 13.8335 19.1059ZM15.7389 20.039C16.2521 20.039 16.6642 19.6036 16.6642 19.0981C16.6642 18.5771 16.2365 18.1572 15.7155 18.1572C15.1945 18.1572 14.7746 18.5849 14.7824 19.1059C14.7824 19.6269 15.2101 20.0468 15.7389 20.039Z" fill="#0671B8"/>
<path d="M3.66228 17.2163C4.70429 17.2163 5.55961 18.0561 5.55961 19.0981C5.55961 20.1324 4.71986 20.9722 3.68564 20.98C2.63586 20.98 1.7959 20.1479 1.7959 19.0981C1.7959 18.0561 2.62807 17.2241 3.67007 17.2163H3.66228ZM3.66228 18.1572C3.14128 18.1572 2.7214 18.5927 2.7214 19.1059C2.7214 19.6191 3.14906 20.0313 3.66228 20.039C4.18328 20.039 4.61095 19.6191 4.61095 19.0981C4.61095 18.5771 4.19106 18.1572 3.66228 18.1572Z" fill="#0671B8"/>
<path d="M4.54117 1.83517H6.55526V0.933145C6.67967 0.933145 6.78849 0.933145 6.89736 0.933145C7.18508 0.925369 7.37957 0.723189 7.37957 0.458801C7.37957 0.202188 7.19287 0 6.91293 0C6.0109 0 5.1011 0 4.19907 0C3.91912 0 3.73242 0.202188 3.73242 0.458801C3.73242 0.723189 3.92692 0.917593 4.21463 0.933145C4.31572 0.933145 4.42454 0.933145 4.54895 0.933145V1.83517H4.54117Z" fill="#FFB422"/>
<path d="M5.21794 6.84298C4.82913 6.84298 4.45592 6.84298 4.09044 6.84298C4.02045 6.84298 3.95045 6.84298 3.88047 6.84298C3.69384 6.85853 3.5693 6.99073 3.56152 7.16958C3.56152 7.35621 3.68606 7.50395 3.88047 7.51173C4.44035 7.51951 5.00015 7.51951 5.55226 7.51173C5.74666 7.51173 5.87101 7.38731 5.87101 7.19291C5.87879 6.6408 5.87879 6.0887 5.87101 5.5366C5.87101 5.34997 5.71555 5.21777 5.54447 5.21777C5.36562 5.21777 5.21793 5.34996 5.21015 5.55214C5.20238 5.89429 5.21015 6.23645 5.21015 6.5786C5.21015 6.66413 5.21015 6.74189 5.21015 6.84298H5.21794Z" fill="#FFB422"/>
</svg>
