<svg width="26" height="22" viewBox="0 0 26 22" fill="none" xmlns="http://www.w3.org/2000/svg">
<path d="M9.19101 0.0595703C9.04812 1.01897 8.90532 1.97836 8.77264 2.92755C8.69099 3.45828 8.61944 3.98901 8.53779 4.54016H4.86353C5.29219 3.03982 5.72086 1.5497 6.13932 0.0595703C7.14975 0.0595703 8.17036 0.0595703 9.18079 0.0595703H9.19101Z" fill="#FFB422"/>
<path d="M16.0803 0.0595703C16.5089 1.5497 16.9274 3.03982 17.356 4.55036H13.6818C13.6001 4.00942 13.5287 3.46848 13.4471 2.93775C13.3042 1.97836 13.1612 1.01896 13.0286 0.0697711C14.039 0.0697711 15.0596 0.0697711 16.07 0.0697711L16.0803 0.0595703Z" fill="#FFB422"/>
<path d="M5.35332 0.0595703C5.12878 0.865872 4.90433 1.68237 4.67979 2.48867C4.48587 3.1725 4.29187 3.85633 4.08774 4.54016H0.454346C0.484965 4.45851 0.505333 4.38706 0.535952 4.32582C1.0973 3.0194 1.64847 1.71299 2.22002 0.416783C2.28126 0.284101 2.40376 0.17184 2.49562 0.0595703C3.44481 0.0595703 4.40413 0.0595703 5.35332 0.0595703Z" fill="#FFB422"/>
<path d="M19.7343 0.0595703C19.816 0.161634 19.9282 0.243278 19.9793 0.355548C20.5712 1.71299 21.153 3.07044 21.7347 4.43809C21.7449 4.46871 21.7552 4.49933 21.7654 4.54016H18.1421C17.9992 4.04005 17.8564 3.53992 17.7135 3.02961C17.4481 2.09062 17.1827 1.15164 16.9174 0.22286C16.9072 0.171828 16.8969 0.120808 16.8867 0.0595703C17.8359 0.0595703 18.7954 0.0595703 19.7445 0.0595703H19.7343Z" fill="#FFB422"/>
<path d="M12.2836 0.0595703C12.4979 1.5497 12.7123 3.03982 12.9266 4.54016H9.29321C9.50755 3.03982 9.72176 1.5497 9.93609 0.0595703C10.722 0.0595703 11.4977 0.0595703 12.2836 0.0595703Z" fill="#FFB422"/>
<path d="M0.23999 5.30566H4.02663C3.98581 5.86701 4.01642 6.42836 3.89394 6.95909C3.71023 7.7858 2.91409 8.32675 2.06697 8.30633C1.24025 8.28592 0.505415 7.70416 0.301288 6.88765C0.291082 6.82641 0.260413 6.77537 0.250207 6.71413C0.250207 6.24464 0.250207 5.77516 0.250207 5.30566H0.23999Z" fill="#FFB422"/>
<path d="M1.3833 8.97011C2.8326 9.16403 3.45512 8.91908 4.37369 7.80659C4.91463 8.60268 5.65965 9.05176 6.62926 9.05176C7.58865 9.05176 8.32358 8.60268 8.86451 7.80659C10.0076 9.51105 12.3245 9.40898 13.3758 7.80659C13.9167 8.60268 14.6617 9.06197 15.6313 9.05176C16.5907 9.05176 17.3255 8.60269 17.8665 7.79639C18.6115 8.83743 19.5914 9.23548 20.857 8.95991V18.7784H20.1221C20.1221 18.6866 20.1221 18.5947 20.1221 18.5131C20.1221 15.7982 20.1221 13.0731 20.1221 10.3582C20.1221 9.9091 20.0201 9.80704 19.5812 9.80704C17.9584 9.80704 16.3355 9.80704 14.7127 9.80704C14.233 9.80704 14.131 9.89889 14.131 10.3786C14.131 13.0833 14.131 15.7982 14.131 18.5028V18.7886H1.40361V8.97011H1.3833ZM7.74184 9.80704C6.04758 9.80704 4.35335 9.80704 2.65909 9.80704C2.23043 9.80704 2.11813 9.91931 2.11813 10.348C2.11813 12.7363 2.11813 15.1245 2.11813 17.5128C2.11813 17.9415 2.23043 18.0538 2.65909 18.0538C6.0476 18.0538 9.43607 18.0538 12.8246 18.0538C13.2532 18.0538 13.3655 17.9415 13.3655 17.5128C13.3655 15.1245 13.3655 12.7363 13.3655 10.348C13.3655 9.91931 13.2532 9.80704 12.8246 9.80704C11.1303 9.80704 9.43609 9.80704 7.74184 9.80704Z" fill="#0671B8"/>
<path d="M14.876 10.5625H19.3464V18.7786H14.876V10.5625Z" fill="#0671B8"/>
<path d="M0.62793 21.0342V19.5645H21.5918V21.0342H0.62793Z" fill="#0671B8"/>
<path d="M8.45613 5.32617C8.45613 5.82628 8.51736 6.3162 8.44591 6.78569C8.30303 7.73488 7.42534 8.37788 6.46594 8.30644C5.51675 8.235 4.77163 7.4389 4.75122 6.48971C4.75122 6.11208 4.75122 5.72422 4.75122 5.32617H8.45613Z" fill="#FFB422"/>
<path d="M12.9471 5.32617C12.9471 5.82628 13.0083 6.3162 12.9369 6.78569C12.794 7.73488 11.9162 8.37788 10.9568 8.30644C10.0076 8.235 9.2626 7.4389 9.24219 6.48971C9.24219 6.11208 9.24219 5.72422 9.24219 5.32617H12.9471Z" fill="#FFB422"/>
<path d="M13.743 5.31641H17.509C17.4784 5.84714 17.5091 6.37787 17.4172 6.87798C17.2437 7.76593 16.3659 8.37831 15.4576 8.29666C14.5492 8.22521 13.8042 7.48015 13.743 6.57178C13.7225 6.16353 13.743 5.74507 13.743 5.31641Z" fill="#FFB422"/>
<path d="M18.2441 5.31641H22.0001C21.9491 5.91858 22.092 6.52075 21.8572 7.11272C21.5408 7.92923 20.6733 8.42935 19.8364 8.27626C18.9178 8.11296 18.2748 7.3883 18.2441 6.49015C18.2441 6.1023 18.2441 5.71445 18.2441 5.31641Z" fill="#FFB422"/>
<path d="M7.74187 9.80664C9.43613 9.80664 11.1304 9.80664 12.8246 9.80664C13.2533 9.80664 13.3656 9.91891 13.3656 10.3476C13.3656 12.7359 13.3656 15.1241 13.3656 17.5124C13.3656 17.9411 13.2533 18.0534 12.8246 18.0534C9.43611 18.0534 6.04764 18.0534 2.65913 18.0534C2.23046 18.0534 2.11816 17.9411 2.11816 17.5124C2.11816 15.1241 2.11816 12.7359 2.11816 10.3476C2.11816 9.91891 2.23046 9.80664 2.65913 9.80664C4.35338 9.80664 6.04762 9.80664 7.74187 9.80664ZM12.6001 17.2879V10.5721H2.88364V17.2879H12.6001Z" fill="white"/>
<path d="M13.641 18.2886C10.3953 18.2886 5.19013 18.3397 1.94451 18.3397C1.94451 16.1045 1.89355 11.7464 1.89355 9.50098C5.12897 9.50098 10.3137 9.66427 13.5593 9.66427C13.5593 11.8893 13.641 16.033 13.641 18.2886ZM4.12869 14.3184C4.18992 14.2776 4.27155 13.9407 4.36341 13.8387C5.55755 12.6547 5.1901 13.1344 6.37403 11.9505C6.44548 11.8791 7.48663 11.2156 7.49683 11.134C7.50704 11.0115 7.6601 11.2973 7.58865 11.2054C7.52742 11.1238 7.78253 11.3279 7.67026 11.3279C7.58861 11.3279 7.48655 11.4096 7.4151 11.481C6.20055 12.6956 4.98604 13.9101 3.77149 15.1247C3.73066 15.1655 3.68985 15.2165 3.65923 15.2676C3.53676 15.5125 3.78166 14.3184 4.11847 14.3286L4.12869 14.3184ZM5.77189 11.2973C5.64942 11.3585 5.65958 11.3585 5.59834 11.4198C4.97575 12.0423 4.343 12.6547 3.73062 13.2875C3.56732 13.4508 3.57753 13.6652 3.73062 13.8081C3.87351 13.9509 3.16927 13.6652 3.34278 13.5223C3.3836 13.4917 3.44486 13.2671 3.48568 13.2263C4.02662 12.6854 3.86335 12.6343 4.41449 12.0934C4.47573 12.0321 5.35341 11.7157 5.36361 11.6443C5.39423 11.5218 5.63928 11.2871 5.58825 11.185C5.53722 11.083 5.86374 11.3687 5.76168 11.2973H5.77189Z" fill="#0671B8"/>
<path d="M7.51701 16.6045C9.02204 16.6045 10.2421 15.3844 10.2421 13.8794C10.2421 12.3744 9.02204 11.1543 7.51701 11.1543C6.01198 11.1543 4.79199 12.3744 4.79199 13.8794C4.79199 15.3844 6.01198 16.6045 7.51701 16.6045Z" fill="#0671B8" stroke="white" stroke-width="0.479699" stroke-miterlimit="10"/>
<path d="M7.72119 12.6035C7.72119 12.4851 7.62527 12.3892 7.5069 12.3892C7.38853 12.3892 7.29248 12.4851 7.29248 12.6035V14.4202C7.29248 14.5386 7.38853 14.6346 7.5069 14.6346C7.62527 14.6346 7.72119 14.5386 7.72119 14.4202V12.6035Z" fill="#FCFCFC"/>
<path d="M7.72119 15.0732C7.72119 14.9548 7.62527 14.8589 7.5069 14.8589C7.38853 14.8589 7.29248 14.9548 7.29248 15.0732C7.29248 15.1916 7.38853 15.2876 7.5069 15.2876C7.62527 15.2876 7.72119 15.1916 7.72119 15.0732Z" fill="#FCFCFC"/>
<circle cx="19" cy="6" r="5.5" fill="#0671B8" stroke="white"/>
<path d="M18.4886 7.36364V7.32955C18.4924 6.9678 18.5303 6.67992 18.6023 6.46591C18.6742 6.25189 18.7765 6.0786 18.9091 5.94602C19.0417 5.81345 19.2008 5.69129 19.3864 5.57955C19.4981 5.51136 19.5985 5.43087 19.6875 5.33807C19.7765 5.24337 19.8466 5.13447 19.8977 5.01136C19.9508 4.88826 19.9773 4.75189 19.9773 4.60227C19.9773 4.41667 19.9337 4.25568 19.8466 4.11932C19.7595 3.98295 19.643 3.87784 19.4972 3.80398C19.3513 3.73011 19.1894 3.69318 19.0114 3.69318C18.8561 3.69318 18.7064 3.72538 18.5625 3.78977C18.4186 3.85417 18.2983 3.95549 18.2017 4.09375C18.1051 4.23201 18.0492 4.41288 18.0341 4.63636H17.3182C17.3333 4.31439 17.4167 4.03883 17.5682 3.80966C17.7216 3.58049 17.9233 3.4053 18.1733 3.28409C18.4252 3.16288 18.7045 3.10227 19.0114 3.10227C19.3447 3.10227 19.6345 3.16856 19.8807 3.30114C20.1288 3.43371 20.3201 3.61553 20.4545 3.84659C20.5909 4.07765 20.6591 4.34091 20.6591 4.63636C20.6591 4.8447 20.6269 5.03314 20.5625 5.2017C20.5 5.37027 20.4091 5.52083 20.2898 5.65341C20.1723 5.78598 20.0303 5.90341 19.8636 6.00568C19.697 6.10985 19.5634 6.2197 19.4631 6.33523C19.3627 6.44886 19.2898 6.58428 19.2443 6.74148C19.1989 6.89867 19.1742 7.0947 19.1705 7.32955V7.36364H18.4886ZM18.8523 9.04545C18.7121 9.04545 18.5919 8.99527 18.4915 8.89489C18.3911 8.79451 18.3409 8.67424 18.3409 8.53409C18.3409 8.39394 18.3911 8.27367 18.4915 8.1733C18.5919 8.07292 18.7121 8.02273 18.8523 8.02273C18.9924 8.02273 19.1127 8.07292 19.2131 8.1733C19.3134 8.27367 19.3636 8.39394 19.3636 8.53409C19.3636 8.62689 19.34 8.71212 19.2926 8.78977C19.2472 8.86742 19.1856 8.92992 19.108 8.97727C19.0322 9.02273 18.947 9.04545 18.8523 9.04545Z" fill="white"/>
</svg>
