<svg width="21" height="21" viewBox="0 0 21 21" fill="none" xmlns="http://www.w3.org/2000/svg">
<path d="M0.13036 21.0003C0.0893126 20.9018 0.00729737 20.8032 0.00729737 20.6965C-0.00912172 20.3599 0.00729737 20.0233 0.00729737 19.695C0.00729737 19.4651 0.0729697 19.4076 0.311047 19.3994C0.352094 19.3994 0.401279 19.3994 0.442327 19.3994C6.91966 19.3994 13.397 19.3994 19.8826 19.3994C20.3013 19.3994 20.3177 19.4158 20.3177 19.8263C20.3177 20.1219 20.3259 20.4092 20.3177 20.6965C20.3177 20.8032 20.2356 20.9018 20.1945 21.0003H0.155013H0.13036Z" fill="#0671B8"/>
<path d="M10.5071 18.6847H9.80935V13.1843H5.95913V18.6847H1.87891V10.0729C3.14318 10.2042 4.20223 9.84303 4.98214 8.76758C5.60606 9.65421 6.48449 10.0893 7.55173 10.0975C8.62718 10.0975 9.50563 9.67884 10.146 8.76758C10.7781 9.65421 11.6483 10.0893 12.7156 10.0975C13.791 10.0975 14.6695 9.67884 15.3098 8.76758C16.0815 9.82661 17.1405 10.196 18.4129 10.0729V18.6765H14.3493V13.1761H10.4989V18.6765L10.5071 18.6847ZM14.7844 11.7394H5.524V12.4537H14.7844V11.7394Z" fill="#0671B8"/>
<path d="M17.2968 2.25762H2.92188C2.92188 2.18374 2.92188 2.11806 2.92188 2.05239C2.92188 1.6337 2.92188 1.20681 2.92188 0.788122C2.92188 0.254501 3.17644 0 3.71006 0C7.56034 0 11.4106 0 15.2526 0C15.6877 0 16.131 0 16.5661 0C17.0094 0 17.2886 0.279129 17.2886 0.722444C17.2886 1.23144 17.2886 1.74043 17.2886 2.26584L17.2968 2.25762ZM7.10872 0.779917C6.63257 0.779917 6.16464 0.779917 5.68849 0.779917C5.42578 0.779917 5.27801 0.911264 5.27801 1.13292C5.27801 1.34637 5.42578 1.47772 5.68849 1.48593C6.62438 1.48593 7.56852 1.48593 8.50441 1.48593C8.77532 1.48593 8.9231 1.36279 8.9231 1.14934C8.9231 0.927686 8.77532 0.788122 8.50441 0.788122C8.03646 0.788122 7.57667 0.788122 7.10872 0.788122V0.779917ZM13.1017 1.47772C13.5697 1.47772 14.0294 1.47772 14.4973 1.47772C14.7764 1.47772 14.9324 1.35458 14.9324 1.13292C14.9324 0.911264 14.7764 0.779917 14.5055 0.779917C13.5779 0.779917 12.642 0.779917 11.7144 0.779917C11.4435 0.779917 11.2875 0.911264 11.2875 1.13292C11.2875 1.34637 11.4434 1.47772 11.7061 1.47772C12.1741 1.47772 12.6338 1.47772 13.1017 1.47772Z" fill="#0671B8"/>
<path d="M9.79324 2.97217V7.15082H5.4668C5.89369 5.7552 6.32063 4.36779 6.73932 2.97217H9.79324Z" fill="#FFB422"/>
<path d="M10.5156 2.97217H13.5614C13.9883 4.35958 14.407 5.74699 14.8421 7.15903H10.5156V2.97217Z" fill="#FFB422"/>
<path d="M6.00824 2.96387C5.79479 3.66989 5.58954 4.34307 5.38431 5.01625C5.17907 5.68123 4.97384 6.33799 4.77681 7.00296C4.74397 7.1179 4.70292 7.16716 4.57157 7.16716C3.23341 7.16716 1.88703 7.16716 0.548872 7.16716C0.524244 7.16716 0.507845 7.16716 0.466797 7.15074C0.491426 7.09327 0.516026 7.04401 0.540655 6.99476C1.32056 5.70586 2.10055 4.40874 2.88046 3.12806C2.9215 3.06238 3.01181 2.97208 3.08569 2.97208C4.04621 2.96388 5.00668 2.97208 6.00824 2.97208V2.96387Z" fill="#FFB422"/>
<path d="M19.8417 7.16725H15.5727C15.1458 5.77983 14.7271 4.40062 14.292 2.98858C14.3659 2.98858 14.4234 2.97217 14.4809 2.97217C15.3675 2.97217 16.2624 2.97217 17.149 2.97217C17.2311 2.97217 17.346 3.02963 17.387 3.10351C18.1915 4.41704 18.9797 5.73057 19.776 7.0441C19.7924 7.07693 19.8088 7.10156 19.8334 7.15903L19.8417 7.16725Z" fill="#FFB422"/>
<path d="M15.7285 7.88135H20.0714C19.9236 8.74335 18.9385 9.41654 17.8549 9.40012C16.8122 9.3837 15.8517 8.7023 15.7285 7.88135Z" fill="#FFB422"/>
<path d="M4.5801 7.88135C4.38307 8.76798 3.44723 9.40833 2.37178 9.40012C1.32917 9.39191 0.393195 8.73514 0.229004 7.88135H4.5801Z" fill="#FFB422"/>
<path d="M9.74368 7.88135C9.55486 8.76798 8.61071 9.40833 7.53526 9.40012C6.49265 9.39191 5.56498 8.74335 5.39258 7.88135H9.74368Z" fill="#FFB422"/>
<path d="M10.5649 7.87305H14.8914C14.8585 8.61191 13.8733 9.35076 12.8553 9.39181C11.7306 9.43285 10.6717 8.73505 10.5649 7.87305Z" fill="#FFB422"/>
<path d="M14.7843 11.7314V12.4457H5.52393V11.7314H14.7843Z" fill="white"/>
<path d="M7.10854 0.779702C7.57649 0.779702 8.03628 0.779702 8.50423 0.779702C8.77514 0.779702 8.93113 0.919254 8.92292 1.14091C8.92292 1.35436 8.76693 1.47751 8.50423 1.47751C7.56834 1.47751 6.6242 1.47751 5.68831 1.47751C5.4256 1.47751 5.27783 1.34616 5.27783 1.1245C5.27783 0.911053 5.4256 0.779694 5.68831 0.771484C6.16446 0.771484 6.63239 0.771484 7.10854 0.771484V0.779702Z" fill="white"/>
<path d="M13.1014 1.47759C12.6334 1.47759 12.1737 1.47759 11.7058 1.47759C11.4431 1.47759 11.2953 1.34624 11.2871 1.13279C11.2871 0.911132 11.4431 0.779785 11.714 0.779785C12.6417 0.779785 13.5775 0.779785 14.5052 0.779785C14.7761 0.779785 14.9403 0.919341 14.9321 1.13279C14.9321 1.35445 14.7679 1.47759 14.497 1.47759C14.029 1.47759 13.5693 1.47759 13.1014 1.47759Z" fill="white"/>
</svg>
