<svg width="32" height="32" viewBox="0 0 32 32" fill="none" xmlns="http://www.w3.org/2000/svg">
<path d="M26.91 17.08C26.38 16.89 25.86 16.69 25.37 16.5C25.34 15.74 25.3 15 25.28 14.27C25.28 14.19 25.39 14.08 25.48 14.04C25.99 13.8 26.51 13.57 27.02 13.34C26.67 11.55 25.96 9.96 24.88 8.53C24.36 8.76 23.85 8.98 23.36 9.21C23.18 9.3 23.07 9.27 22.93 9.12C22.5 8.69 22.06 8.27 21.6 7.86C21.44 7.72 21.42 7.62 21.5 7.44C21.71 6.93 21.9 6.41 22.1 5.89C20.58 4.88 18.96 4.25 17.18 4C16.97 4.54 16.77 5.05 16.58 5.56C16.52 5.73 16.44 5.8 16.24 5.8C15.61 5.8 14.98 5.83 14.35 5.86C14.19 5.86 14.11 5.82 14.04 5.67C13.82 5.15 13.58 4.64 13.34 4.11C11.56 4.47 9.97 5.18 8.54 6.27C8.8 6.86 9.05 7.43 9.29 7.97C8.83 8.47 8.37 8.92 7.96 9.41C7.76 9.66 7.61 9.72 7.31 9.58C6.85 9.37 6.36 9.21 5.89 9.03C4.86 10.55 4.25 12.17 4 13.95C4.55 14.16 5.07 14.35 5.59 14.56C5.68 14.6 5.78 14.73 5.79 14.81C5.82 15.48 5.84 16.14 5.84 16.8C5.84 16.9 5.75 17.03 5.67 17.07C5.22 17.29 4.77 17.49 4.31 17.68C4.14 17.75 4.1 17.84 4.14 18.01C4.42 19.27 4.87 20.45 5.54 21.55C5.76 21.91 6 22.25 6.23 22.6C6.85 22.33 7.43 22.07 7.96 21.84C8.52 22.35 9.06 22.83 9.59 23.33C9.65 23.39 9.66 23.54 9.63 23.62C9.47 24.1 9.27 24.57 9.11 25.05C9.08 25.13 9.11 25.29 9.17 25.33C10.62 26.28 12.2 26.87 13.94 27.13C14.15 26.59 14.36 26.06 14.56 25.53C14.62 25.37 14.69 25.32 14.88 25.32C15.48 25.32 16.08 25.32 16.68 25.28C16.94 25.26 17.04 25.34 17.13 25.56C17.33 26.05 17.56 26.52 17.77 26.99C17.82 26.99 17.84 26.99 17.86 26.99C19.53 26.65 21.04 25.97 22.42 24.98C22.57 24.87 22.56 24.78 22.5 24.63C22.32 24.26 22.17 23.88 21.99 23.51C21.96 23.44 21.93 23.38 21.9 23.31C21.84 23.17 21.84 23.08 21.96 22.96C22.41 22.5 22.86 22.03 23.29 21.56C23.4 21.44 23.48 21.41 23.64 21.47C23.74 21.51 23.84 21.55 23.95 21.59C24.28 21.72 24.62 21.84 24.96 21.99C25.16 22.07 25.27 22.06 25.39 21.86C26.26 20.49 26.83 19 27.1 17.4C27.13 17.22 27.08 17.13 26.91 17.07V17.08ZM21.84 19.49C21.35 20.28 20.72 20.97 19.98 21.5C18.74 22.44 17.21 22.98 15.55 22.98C11.46 22.98 8.14 19.66 8.14 15.56C8.14 11.46 11.46 8.15 15.55 8.15C19.64 8.15 22.97 11.47 22.97 15.56C22.97 17.01 22.56 18.35 21.84 19.49Z" fill="#0671B8"/>
<path d="M20.5999 18.2502L21.8399 19.4902C21.3499 20.2802 20.7199 20.9702 19.9799 21.5002L16.9899 18.5102C16.7699 18.2802 16.5299 18.2102 16.2099 18.2802C13.8899 18.7602 11.8799 16.6802 12.4399 14.3702C12.4599 14.2902 12.5099 14.2202 12.5499 14.1502C12.6199 14.1902 12.7099 14.2302 12.7699 14.2902C13.4099 14.9202 14.0499 15.5602 14.6799 16.2002C14.8499 16.3702 14.9099 16.3802 15.1199 16.2902C15.7699 16.0102 16.2699 15.5602 16.5999 14.9302C16.8299 14.4902 16.8299 14.4802 16.4699 14.1202C15.8599 13.5202 15.2599 12.9102 14.6499 12.3102C14.4999 12.1602 14.5199 12.0802 14.7299 12.0402C14.9999 11.9802 15.2699 11.9502 15.5399 11.9102C15.5499 11.9102 15.5499 11.9102 15.5499 11.9302C15.6899 11.9302 15.8299 11.9302 15.9599 11.9602C17.8399 12.2202 19.0699 13.9502 18.6899 15.8102C18.6299 16.1202 18.6899 16.3502 18.9199 16.5702C19.4899 17.1302 20.0399 17.6902 20.5999 18.2502Z" fill="#FFB422"/>
</svg>
