<svg width="24" height="22" viewBox="0 0 24 22" fill="none" xmlns="http://www.w3.org/2000/svg">
<path d="M0.152111 21.0198C0.104251 20.905 0.0085084 20.7901 0.0085084 20.6657C-0.0106355 20.2732 0.0085084 19.8808 0.0085084 19.4979C0.0085084 19.2299 0.0850793 19.1629 0.362666 19.1533C0.410526 19.1533 0.46799 19.1533 0.51585 19.1533C8.06812 19.1533 15.6203 19.1533 23.1822 19.1533C23.6703 19.1533 23.6895 19.1725 23.6895 19.6511C23.6895 19.9957 23.6991 20.3307 23.6895 20.6657C23.6895 20.7901 23.5938 20.905 23.5459 21.0198H0.180855H0.152111Z" fill="#0671B8"/>
<path d="M12.251 18.3207H11.4373V11.9075H6.94815V18.3207H2.19092V8.27975C3.665 8.4329 4.89969 8.01174 5.80903 6.75781C6.53649 7.79158 7.5607 8.29889 8.80505 8.30846C10.059 8.30846 11.0832 7.8203 11.8298 6.75781C12.5669 7.79158 13.5815 8.29889 14.8258 8.30846C16.0798 8.30846 17.104 7.8203 17.8506 6.75781C18.7504 7.99259 19.9852 8.42333 21.4688 8.27975V18.3112H16.7307V11.8979H12.2415V18.3112L12.251 18.3207ZM17.238 10.2229H6.44081V11.0556H17.238V10.2229Z" fill="#0671B8"/>
<path d="M11.4185 0.00927734V4.8814H6.37402C6.87176 3.25417 7.36944 1.63651 7.85761 0.00927734H11.4185Z" fill="#FFB422"/>
<path d="M12.27 0.00927734H15.8213C16.319 1.62694 16.8071 3.2446 17.3145 4.89098H12.27V0.00927734Z" fill="#FFB422"/>
<path d="M7.01527 0C6.7664 0.823188 6.52709 1.60809 6.28779 2.39299C6.04849 3.16832 5.8092 3.93407 5.57947 4.7094C5.54119 4.84341 5.49333 4.90083 5.34017 4.90083C3.77995 4.90083 2.21024 4.90083 0.650012 4.90083C0.621296 4.90083 0.602059 4.90083 0.554199 4.88169C0.582915 4.81468 0.611715 4.75726 0.640431 4.69983C1.54977 3.19703 2.45908 1.68466 3.36841 0.191436C3.41627 0.11486 3.52156 0.00956669 3.60771 0.00956669C4.72763 -5.25782e-06 5.84749 0.00956669 7.01527 0.00956669V0Z" fill="#FFB422"/>
<path d="M23.144 4.89127H18.1665C17.6688 3.27361 17.1807 1.66552 16.6733 0.019148C16.7595 0.019148 16.8265 0 16.8935 0C17.9272 0 18.9706 0 20.0044 0C20.1001 0 20.2341 0.0670072 20.282 0.153155C21.22 1.68467 22.1389 3.21617 23.0673 4.74768C23.0865 4.78597 23.1057 4.81468 23.1344 4.88169L23.144 4.89127Z" fill="#FFB422"/>
<path d="M18.3486 5.72412H23.4121C23.2398 6.72918 22.0912 7.51408 20.8277 7.49494C19.6121 7.47579 18.4922 6.68132 18.3486 5.72412Z" fill="#FFB422"/>
<path d="M5.34015 5.7334C5.11043 6.76717 4.01928 7.51377 2.76536 7.5042C1.54972 7.49463 0.458529 6.72888 0.26709 5.7334H5.34015Z" fill="#FFB422"/>
<path d="M11.3705 5.7334C11.1504 6.76717 10.0497 7.51377 8.79575 7.5042C7.58011 7.49463 6.49837 6.73845 6.29736 5.7334H11.3705Z" fill="#FFB422"/>
<path d="M12.3276 5.72412H17.3721C17.3338 6.5856 16.1852 7.44708 14.9982 7.49494C13.6869 7.5428 12.4521 6.72918 12.3276 5.72412Z" fill="#FFB422"/>
<path d="M17.2474 10.2227V11.0554H6.4502V10.2227H17.2474Z" fill="white"/>
</svg>
