<svg width="21" height="21" viewBox="0 0 21 21" fill="none" xmlns="http://www.w3.org/2000/svg">
<path d="M8.25711 0.0156999H12.6758C12.9426 0.156969 13.1309 0.345325 13.1309 0.674953C13.1309 1.87574 13.1309 3.06868 13.1309 4.26947C13.1309 4.66188 12.872 4.91303 12.4717 4.92088C12.0715 4.92088 11.6712 4.92088 11.2631 4.92088C11.2081 4.92088 11.1454 4.92087 11.0904 4.92872V5.85482C11.1768 5.85482 11.2472 5.85482 11.3179 5.85482C12.3068 5.85482 13.2957 5.85482 14.2845 5.85482C14.7397 5.85482 14.9753 6.09026 14.9831 6.54546C14.9831 6.96142 14.9831 7.37739 14.9831 7.79335C14.9831 7.86398 14.9832 7.93461 14.9989 8.02094C15.4305 8.02094 15.8464 8.02094 16.2623 8.02094C16.8117 8.02094 17.0314 8.2407 17.0314 8.78223C17.0314 9.89668 17.0314 11.019 17.0314 12.1334C17.0314 12.7142 16.8195 12.9261 16.2466 12.9261C15.8307 12.9261 15.4227 12.9261 15.0067 12.9261V13.8679H15.242C16.2073 13.8679 17.1728 13.8679 18.146 13.8679C18.664 13.8679 18.8916 14.0955 18.8916 14.6135C18.8916 15.0844 18.8916 15.5475 18.8916 16.034C19.3154 16.034 19.7157 16.0497 20.116 16.034C20.4927 16.0105 20.7751 16.1361 20.9399 16.4892V20.4919C20.7751 20.845 20.4927 20.9549 20.116 20.9471C18.8524 20.9314 17.5809 20.9471 16.3173 20.9471C15.8778 20.9471 15.6268 20.7038 15.6268 20.2643C15.6268 19.087 15.6268 17.9098 15.6268 16.7247C15.6268 16.2773 15.87 16.034 16.3252 16.034C16.7097 16.034 17.1021 16.034 17.4867 16.034C17.5416 16.034 17.6044 16.034 17.6515 16.0262V15.1158H11.0904V16.0419C11.5378 16.0419 11.9851 16.0419 12.4246 16.0419C12.8876 16.0419 13.123 16.2852 13.123 16.7482C13.123 17.9098 13.123 19.0792 13.123 20.2407C13.123 20.7038 12.8798 20.9392 12.4167 20.9471C11.1139 20.9471 9.81114 20.9471 8.51617 20.9471C8.05312 20.9471 7.80971 20.7038 7.80971 20.2407C7.80971 19.087 7.80971 17.9412 7.80971 16.7875C7.80971 16.2695 8.03746 16.0419 8.55545 16.0419C8.97926 16.0419 9.41082 16.0419 9.83463 16.0419V15.1158H3.28124V16.0419C3.72859 16.0419 4.16038 16.0419 4.59988 16.0419C5.07863 16.0419 5.31401 16.2773 5.31401 16.7561C5.31401 17.9176 5.31401 19.0713 5.31401 20.2329C5.31401 20.7116 5.07863 20.9471 4.59988 20.9471C3.30492 20.9471 2.00999 20.9471 0.715024 20.9471C0.236279 20.9471 0.000707792 20.7116 0.000707792 20.2329C0.000707792 19.1498 0.0242526 18.0667 0.000707792 16.9837C-0.0149888 16.2538 0.22827 15.9948 0.942463 16.034C1.30348 16.0576 1.67248 16.034 2.04919 16.034C2.04919 15.5239 2.04919 15.0373 2.04919 14.5586C2.04919 14.1112 2.29241 13.8679 2.74761 13.8679C3.73649 13.8679 4.7254 13.8679 5.71428 13.8679C5.78491 13.8679 5.86343 13.8679 5.94191 13.8679V12.9261C5.50241 12.9261 5.08635 12.9261 4.66254 12.9261C4.13671 12.9261 3.91699 12.7064 3.91699 12.1805C3.91699 11.0504 3.91699 9.92022 3.91699 8.79007C3.91699 8.24069 4.13672 8.02094 4.67825 8.02094C5.10206 8.02094 5.51812 8.02094 5.95762 8.02094C5.95762 7.51865 5.95762 7.04775 5.95762 6.56901C5.95762 6.09026 6.193 5.85482 6.67175 5.85482C7.66063 5.85482 8.64954 5.85482 9.63842 5.85482C9.70905 5.85482 9.7797 5.85482 9.85034 5.85482V4.91303C9.41084 4.91303 8.9871 4.91303 8.55545 4.91303C8.03746 4.91303 7.81756 4.68543 7.81756 4.15959C7.81756 3.04514 7.82541 1.93853 7.81756 0.824072C7.81756 0.447354 7.91965 0.164814 8.27283 0L8.25711 0.0156999ZM13.7509 7.1027H7.18986V8.02879C7.66075 8.02879 8.11577 8.02879 8.57097 8.02879C8.95553 8.02879 9.21458 8.26425 9.21458 8.64096C9.22243 9.8653 9.22243 11.0896 9.21458 12.3218C9.21458 12.6985 8.94787 12.934 8.5633 12.934C8.17089 12.934 7.77062 12.934 7.37821 12.934C7.31542 12.934 7.25264 12.934 7.18986 12.9418V13.8601H13.7431V12.934C13.2722 12.934 12.817 12.934 12.3617 12.934C11.9772 12.934 11.7181 12.6985 11.7181 12.3218C11.7103 11.0975 11.7103 9.87315 11.7181 8.64096C11.7181 8.26425 11.985 8.02879 12.3696 8.02879C12.762 8.02879 13.1623 8.02879 13.5547 8.02879C13.6175 8.02879 13.6803 8.02879 13.7509 8.02094V7.1027Z" fill="#0671B8"/>
<path d="M7.77055 9.18262H5.27466C5.23131 9.18262 5.19629 9.21776 5.19629 9.2611V11.7569C5.19629 11.8002 5.23131 11.8353 5.27466 11.8353H7.77055C7.81389 11.8353 7.84892 11.8002 7.84892 11.7569V9.2611C7.84892 9.21776 7.81389 9.18262 7.77055 9.18262Z" fill="#FFB422" stroke="white" stroke-width="0.98" stroke-miterlimit="10"/>
<path d="M15.6346 9.18262H13.1389C13.0956 9.18262 13.0605 9.21776 13.0605 9.2611V11.7569C13.0605 11.8002 13.0956 11.8353 13.1389 11.8353H15.6346C15.678 11.8353 15.7132 11.8002 15.7132 11.7569V9.2611C15.7132 9.21776 15.678 9.18262 15.6346 9.18262Z" fill="#FFB422" stroke="white" stroke-width="0.98" stroke-miterlimit="10"/>
<path d="M11.7027 17.2192H9.20679C9.16344 17.2192 9.12842 17.2544 9.12842 17.2977V19.7935C9.12842 19.8368 9.16344 19.872 9.20679 19.872H11.7027C11.746 19.872 11.781 19.8368 11.781 19.7935V17.2977C11.781 17.2544 11.746 17.2192 11.7027 17.2192Z" fill="#FFB422" stroke="white" stroke-width="0.98" stroke-miterlimit="10"/>
<path d="M3.78373 17.2192H1.28803C1.24469 17.2192 1.20947 17.2544 1.20947 17.2977V19.7935C1.20947 19.8368 1.24469 19.872 1.28803 19.872H3.78373C3.82708 19.872 3.8621 19.8368 3.8621 19.7935V17.2977C3.8621 17.2544 3.82708 17.2192 3.78373 17.2192Z" fill="#FFB422" stroke="white" stroke-width="0.98" stroke-miterlimit="10"/>
<path d="M11.7027 1.09863H9.20679C9.16344 1.09863 9.12842 1.13376 9.12842 1.17711V3.67287C9.12842 3.71621 9.16344 3.75134 9.20679 3.75134H11.7027C11.746 3.75134 11.781 3.71621 11.781 3.67287V1.17711C11.781 1.13376 11.746 1.09863 11.7027 1.09863Z" fill="#FFB422" stroke="white" stroke-width="0.98" stroke-miterlimit="10"/>
<path d="M19.5746 17.2192H17.0789C17.0355 17.2192 17.0005 17.2544 17.0005 17.2977V19.7935C17.0005 19.8368 17.0355 19.872 17.0789 19.872H19.5746C19.6179 19.872 19.6531 19.8368 19.6531 19.7935V17.2977C19.6531 17.2544 19.6179 17.2192 19.5746 17.2192Z" fill="#FFB422" stroke="white" stroke-width="0.98" stroke-miterlimit="10"/>
</svg>
