<svg width="25" height="22" viewBox="0 0 25 22" fill="none" xmlns="http://www.w3.org/2000/svg">
<path d="M22.6159 22H0.96582C0.96582 21.5334 0.96582 21.0668 0.96582 20.6003C0.96582 20.0889 1.28485 19.7748 1.78999 19.7659C1.89633 19.7659 2.00267 19.7659 2.1356 19.7659C2.1356 19.6582 2.1356 19.5685 2.1356 19.4788C2.1356 17.1011 2.1356 14.7235 2.1356 12.3458C2.1356 11.4576 2.1356 10.5783 2.1356 9.69001C2.1356 9.60926 2.17993 9.49262 2.24196 9.44776C2.51669 9.21448 2.80026 9.00812 3.08385 8.78382C3.88144 9.90535 5.59182 10.013 6.54893 8.74792C6.98317 9.34009 7.5592 9.68104 8.2859 9.68104C9.01259 9.68104 9.58862 9.34009 10.0317 8.73895C10.4748 9.34907 11.0509 9.67207 11.7776 9.68104C12.5043 9.68104 13.0803 9.34907 13.5145 8.7569C14.4185 9.96816 16.0934 10.004 17.0239 8.7569C17.4582 9.35804 18.0342 9.68104 18.7698 9.68104C19.4965 9.68104 20.0725 9.3401 20.4713 8.78382C20.7283 8.99915 20.9587 9.22345 21.2246 9.39392C21.3929 9.50159 21.4373 9.60029 21.4284 9.77974C21.4284 13.0008 21.4284 16.2308 21.4284 19.4518C21.4284 19.5505 21.4284 19.6492 21.4284 19.7659C21.5436 19.7659 21.6233 19.7659 21.712 19.7659C22.3057 19.7659 22.5982 20.062 22.5982 20.6721C22.5982 21.1117 22.5982 21.5603 22.5982 22H22.6159ZM10.2001 19.7569C10.2001 19.6941 10.209 19.6582 10.209 19.6133C10.209 17.3075 10.209 15.0016 10.209 12.6957C10.209 12.1305 9.84564 11.7806 9.29619 11.7806C8.02005 11.7806 6.74391 11.7806 5.47663 11.7806C4.82969 11.7806 4.51066 12.1125 4.51066 12.7765C4.51066 15.0195 4.51066 17.2626 4.51066 19.5146C4.51066 19.5954 4.51066 19.6761 4.51066 19.7659H10.209L10.2001 19.7569ZM15.8098 16.9755C16.5543 16.9755 17.2987 16.9755 18.0431 16.9755C18.4685 16.9755 18.6811 16.7691 18.6811 16.3295C18.6811 14.9747 18.6811 13.6109 18.6811 12.2561C18.6811 11.8164 18.4685 11.6011 18.0254 11.6011C16.5454 11.6011 15.0654 11.6011 13.5854 11.6011C13.1246 11.6011 12.9297 11.8075 12.9297 12.274C12.9297 13.6199 12.9297 14.9567 12.9297 16.3026C12.9297 16.7871 13.1246 16.9755 13.6032 16.9755C14.3387 16.9755 15.0743 16.9755 15.8098 16.9755Z" fill="#0671B8"/>
<path d="M0 7.26752H2.68524C2.82704 7.92249 2.47253 8.59541 1.86105 8.84663C1.23184 9.10683 0.505152 8.87355 0.150668 8.29035C0.106357 8.2096 0.0531812 8.13783 0.00887075 8.06605V7.27648L0 7.26752Z" fill="#FFB422"/>
<path d="M21.4553 3.17618H2.11816C2.14475 2.79037 2.13588 2.41354 2.21563 2.07259C2.35743 1.46248 2.91575 1.04974 3.52723 1.02283C3.58927 1.02283 3.6513 1.02283 3.71333 1.02283C9.10149 1.02283 14.4897 1.02283 19.8778 1.02283C20.6488 1.02283 21.2337 1.42659 21.3844 2.12643C21.4553 2.46737 21.4375 2.82626 21.4553 3.17618Z" fill="#0671B8"/>
<path d="M10.5991 3.9209H12.9919C13.0539 4.80018 13.1071 5.67945 13.1691 6.57668H10.4219C10.4839 5.6974 10.5371 4.81813 10.5991 3.9209Z" fill="#FFB422"/>
<path d="M16.5988 6.58567H13.8604C13.7984 5.69741 13.7364 4.81812 13.6743 3.92987H16.0582C16.2355 4.80915 16.4127 5.67947 16.5899 6.58567H16.5988Z" fill="#FFB422"/>
<path d="M7.51513 3.91193H9.89904C9.837 4.80018 9.78382 5.68844 9.72178 6.57669H6.9834C7.16064 5.67946 7.33789 4.80018 7.51513 3.91193Z" fill="#FFB422"/>
<path d="M16.7759 3.91192C17.5469 3.91192 18.3002 3.91192 19.0446 3.91192C19.0889 3.91192 19.1509 3.96575 19.1686 4.01061C19.4522 4.85401 19.7358 5.6974 20.0283 6.56771C19.9396 6.56771 19.8687 6.58566 19.8067 6.58566C19.0446 6.58566 18.2913 6.58566 17.5292 6.58566C17.3696 6.58566 17.2987 6.54976 17.2722 6.37929C17.1215 5.55384 16.9443 4.73737 16.7759 3.89398V3.91192Z" fill="#FFB422"/>
<path d="M19.9043 3.91192C20.5512 3.91192 21.1893 3.91192 21.8274 3.91192C22.0755 3.91192 22.2705 4.05548 22.3768 4.27979C22.7401 5.03346 23.0858 5.78713 23.4491 6.56772C23.3694 6.57669 23.3162 6.58567 23.2542 6.58567C22.492 6.58567 21.721 6.58567 20.9589 6.58567C20.8437 6.58567 20.7639 6.58566 20.7108 6.44211C20.4449 5.62563 20.1702 4.80916 19.9043 3.99268C19.9043 3.97474 19.9043 3.94782 19.9043 3.90295V3.91192Z" fill="#FFB422"/>
<path d="M0.124023 6.56769C0.505094 5.76018 0.859568 4.9796 1.2495 4.21696C1.3204 4.0734 1.53311 3.92087 1.68376 3.92087C2.34842 3.88498 3.01307 3.90292 3.69545 3.90292C3.67772 3.96573 3.66887 4.02853 3.65115 4.08236C3.39415 4.85398 3.14599 5.6256 2.88012 6.39721C2.85354 6.46899 2.75608 6.55871 2.68518 6.56769C1.85215 6.57666 1.01023 6.56769 0.124023 6.56769Z" fill="#FFB422"/>
<path d="M3.56258 6.56772C3.59803 6.44211 3.63347 6.35238 3.66005 6.25368C3.89933 5.5359 4.13862 4.81813 4.36904 4.09138C4.41335 3.95679 4.47536 3.90295 4.62602 3.90295C5.33499 3.91193 6.05283 3.90295 6.79724 3.90295C6.68204 4.47718 6.57569 5.02449 6.46935 5.5718C6.41618 5.84994 6.36299 6.13705 6.2921 6.41519C6.27437 6.46903 6.20348 6.54977 6.15917 6.54977C5.29955 6.54977 4.44878 6.54977 3.55371 6.54977L3.56258 6.56772Z" fill="#FFB422"/>
<path d="M16.6696 7.31238C16.7228 7.93146 16.5367 8.43391 16.0138 8.75691C15.5175 9.07094 15.0035 9.05299 14.5161 8.73896C14.0198 8.40699 13.8426 7.92249 13.8869 7.31238H16.6608H16.6696Z" fill="#FFB422"/>
<path d="M17.3874 7.30341H20.1523C20.2055 7.86866 20.046 8.33522 19.6029 8.68514C19.1686 9.03506 18.5483 9.07095 18.0697 8.79281C17.5646 8.49672 17.3076 7.94942 17.3874 7.31239V7.30341Z" fill="#FFB422"/>
<path d="M6.92154 7.31238H9.69536C9.73967 7.92249 9.57129 8.41596 9.05729 8.74793C8.56101 9.07093 8.03815 9.07093 7.54188 8.74793C7.03674 8.41596 6.85951 7.92249 6.92154 7.32135V7.31238Z" fill="#FFB422"/>
<path d="M10.4218 7.31238C11.3257 7.31238 12.2385 7.31238 13.1425 7.31238C13.2754 7.77894 13.0627 8.35316 12.6373 8.68513C12.1765 9.04402 11.565 9.0799 11.0687 8.77485C10.5724 8.46979 10.3243 7.91352 10.4218 7.31238Z" fill="#FFB422"/>
<path d="M20.8701 7.31238H23.5553C23.6705 7.90455 23.5375 8.40699 23.0235 8.73896C22.5361 9.05299 22.0221 9.07094 21.5258 8.76588C21.003 8.44288 20.8169 7.94044 20.8701 7.31238Z" fill="#FFB422"/>
<path d="M3.42064 7.31238H6.20332C6.24763 7.90455 6.07041 8.38008 5.58299 8.71205C5.09557 9.03505 4.58157 9.05299 4.08529 8.74793C3.57129 8.4339 3.37632 7.94043 3.41177 7.32135L3.42064 7.31238Z" fill="#FFB422"/>
<circle cx="19" cy="6" r="5.5" fill="#0671B8" stroke="white"/>
<path d="M19.5682 9.07955C19.1932 9.07955 18.8589 9.01515 18.5653 8.88636C18.2737 8.75758 18.0417 8.5786 17.8693 8.34943C17.6989 8.11837 17.6061 7.85038 17.5909 7.54545H18.3068C18.322 7.73295 18.3864 7.89489 18.5 8.03125C18.6136 8.16572 18.7623 8.26989 18.946 8.34375C19.1297 8.41761 19.3333 8.45455 19.5568 8.45455C19.8068 8.45455 20.0284 8.41098 20.2216 8.32386C20.4148 8.23674 20.5663 8.11553 20.6761 7.96023C20.786 7.80492 20.8409 7.625 20.8409 7.42045C20.8409 7.20644 20.7879 7.01799 20.6818 6.85511C20.5758 6.69034 20.4205 6.56155 20.2159 6.46875C20.0114 6.37595 19.7614 6.32955 19.4659 6.32955H19V5.70455H19.4659C19.697 5.70455 19.8996 5.66288 20.0739 5.57955C20.25 5.49621 20.3873 5.37879 20.4858 5.22727C20.5862 5.07576 20.6364 4.89773 20.6364 4.69318C20.6364 4.49621 20.5928 4.32481 20.5057 4.17898C20.4186 4.03314 20.2955 3.91951 20.1364 3.83807C19.9792 3.75663 19.7936 3.71591 19.5795 3.71591C19.3788 3.71591 19.1894 3.75284 19.0114 3.8267C18.8352 3.89867 18.6913 4.00379 18.5795 4.14205C18.4678 4.27841 18.4072 4.44318 18.3977 4.63636H17.7159C17.7273 4.33144 17.8191 4.06439 17.9915 3.83523C18.1638 3.60417 18.3892 3.42424 18.6676 3.29545C18.9479 3.16667 19.2557 3.10227 19.5909 3.10227C19.9508 3.10227 20.2595 3.17519 20.517 3.32102C20.7746 3.46496 20.9725 3.6553 21.1108 3.89205C21.2491 4.12879 21.3182 4.38447 21.3182 4.65909C21.3182 4.98674 21.232 5.2661 21.0597 5.49716C20.8892 5.72822 20.6572 5.88826 20.3636 5.97727V6.02273C20.7311 6.08333 21.018 6.23958 21.2244 6.49148C21.4309 6.74148 21.5341 7.05114 21.5341 7.42045C21.5341 7.73674 21.4479 8.02083 21.2756 8.27273C21.1051 8.52273 20.8722 8.7197 20.5767 8.86364C20.2813 9.00758 19.9451 9.07955 19.5682 9.07955Z" fill="white"/>
</svg>
