<svg width="22" height="21" viewBox="0 0 22 21" fill="none" xmlns="http://www.w3.org/2000/svg">
<path d="M9.05646 0C8.91482 0.957731 8.77321 1.91546 8.63158 2.87319C8.5529 3.40267 8.47422 3.93993 8.39554 4.48498H4.68164C5.1144 2.9822 5.54717 1.48721 5.97207 0C7.00282 0 8.0257 0 9.05646 0Z" fill="#FFB422"/>
<path d="M16.0202 0C16.4529 1.49499 16.8778 2.98221 17.3184 4.49277H13.6046C13.5259 3.95551 13.4472 3.41046 13.3685 2.87319C13.2269 1.91546 13.0852 0.957731 12.9436 0C13.9744 0 14.9972 0 16.028 0H16.0202Z" fill="#FFB422"/>
<path d="M5.16159 0C4.93341 0.809789 4.70523 1.61957 4.47705 2.43714C4.28034 3.12235 4.08363 3.79978 3.88692 4.49277H0.212402C0.243876 4.41491 0.267462 4.34482 0.291067 4.27474C0.85759 2.96662 1.41627 1.66629 1.99066 0.358169C2.05361 0.2258 2.17162 0.116796 2.26604 0C3.23385 0 4.19378 0 5.16159 0Z" fill="#FFB422"/>
<path d="M19.7182 0C19.8047 0.101224 19.9149 0.186866 19.97 0.295876C20.568 1.6585 21.1581 3.02113 21.7482 4.38375C21.764 4.4149 21.764 4.44605 21.7797 4.49277H18.1131C17.9714 3.99444 17.8219 3.48831 17.6803 2.97441C17.4128 2.04004 17.1374 1.09788 16.8698 0.163508C16.8541 0.109003 16.8462 0.0545007 16.8384 0.00778215C17.8062 0.00778215 18.7661 0.00778215 19.7339 0.00778215L19.7182 0Z" fill="#FFB422"/>
<path d="M12.1802 0C12.4005 1.48721 12.6129 2.9822 12.8332 4.48498H9.15869C9.37901 2.9822 9.59147 1.49499 9.81178 0C10.5986 0 11.3933 0 12.1802 0Z" fill="#FFB422"/>
<path d="M0 5.25586H3.8319C3.79255 5.81648 3.81617 6.38489 3.69815 6.90658C3.50931 7.73973 2.71462 8.2692 1.8491 8.25363C1.00718 8.23805 0.275407 7.65408 0.0629605 6.8365C0.0472237 6.77421 0.0236128 6.71971 0.00787606 6.6652C0.00787606 6.19802 0.00787606 5.73083 0.00787606 5.25586H0Z" fill="#FFB422"/>
<path d="M1.15674 8.92331C2.62026 9.11797 3.25757 8.87659 4.17817 7.75534C4.72895 8.54956 5.47646 9.00896 6.45214 9.00117C7.41995 9.00117 8.16744 8.54956 8.71036 7.75534C9.85914 9.46057 12.2118 9.36713 13.274 7.75534C13.8248 8.54956 14.5723 9.00896 15.5559 9.00117C16.5237 9.00117 17.2712 8.55735 17.822 7.74756C18.5773 8.79094 19.5688 9.18805 20.8434 8.91552V18.7498H20.1038C20.1038 18.6641 20.1038 18.5707 20.1038 18.4773C20.1038 15.7598 20.1038 13.0345 20.1038 10.3171C20.1038 9.86547 20.0015 9.76424 19.553 9.76424C17.9085 9.76424 16.264 9.76424 14.6195 9.76424C14.1317 9.76424 14.0373 9.85769 14.0373 10.3327C14.0373 13.0423 14.0373 15.7598 14.0373 18.4695V18.7576H1.16461V8.92331H1.15674ZM7.58519 9.75646C5.86988 9.75646 4.15459 9.75646 2.43929 9.75646C1.99866 9.75646 1.88849 9.86547 1.88849 10.2937C1.88849 12.6842 1.88849 15.0746 1.88849 17.4728C1.88849 17.9089 1.99865 18.0179 2.43141 18.0179C5.86202 18.0179 9.29264 18.0179 12.7154 18.0179C13.156 18.0179 13.2662 17.9088 13.2662 17.4806C13.2662 15.0902 13.2662 12.6997 13.2662 10.3015C13.2662 9.86547 13.156 9.75646 12.7233 9.75646C11.008 9.75646 9.29262 9.75646 7.57731 9.75646H7.58519Z" fill="#0671B8"/>
<path d="M14.8083 10.5195H19.3327V18.742H14.8083V10.5195Z" fill="#0671B8"/>
<path d="M0.385498 21V19.5283H21.5907V21H0.385498Z" fill="#0671B8"/>
<path d="M8.30116 5.27148C8.30116 5.76982 8.35622 6.26035 8.28541 6.73532C8.14378 7.67748 7.2468 8.33154 6.28686 8.25368C5.32692 8.17581 4.57154 7.38939 4.54793 6.43945C4.54006 6.05791 4.54793 5.67637 4.54793 5.27927H8.30116V5.27148Z" fill="#FFB422"/>
<path d="M12.8568 5.27148C12.8568 5.76982 12.9119 6.26035 12.8411 6.73532C12.6994 7.67748 11.8025 8.33154 10.8425 8.25368C9.88258 8.17581 9.1272 7.38939 9.10359 6.43945C9.09573 6.05791 9.10359 5.67637 9.10359 5.27927H12.8568V5.27148Z" fill="#FFB422"/>
<path d="M13.6516 5.26367H17.4599C17.4363 5.79315 17.4599 6.32263 17.3655 6.82875C17.1924 7.72419 16.3033 8.32374 15.3827 8.25366C14.4621 8.17579 13.7067 7.43608 13.6516 6.52507C13.628 6.11239 13.6516 5.69971 13.6516 5.26367Z" fill="#FFB422"/>
<path d="M18.1995 5.26367H21.9999C21.9527 5.86323 22.0943 6.47057 21.8583 7.06234C21.5357 7.87991 20.6623 8.37824 19.8125 8.2303C18.8919 8.06678 18.2309 7.34266 18.2073 6.43943C18.1995 6.05011 18.2073 5.66078 18.2073 5.26367H18.1995Z" fill="#FFB422"/>
<path d="M7.58506 9.75635C9.30037 9.75635 11.0157 9.75635 12.731 9.75635C13.1638 9.75635 13.2739 9.86536 13.2739 10.3014C13.2739 12.6918 13.2739 15.0823 13.2739 17.4805C13.2739 17.9087 13.1638 18.0177 12.7231 18.0177C9.29252 18.0177 5.8619 18.0177 2.43916 18.0177C2.0064 18.0177 1.89624 17.9087 1.89624 17.4727C1.89624 15.0823 1.89624 12.6918 1.89624 10.2936C1.89624 9.86536 2.00641 9.75635 2.44704 9.75635C4.16234 9.75635 5.87763 9.75635 7.59294 9.75635H7.58506ZM12.4949 17.2547V10.5272H2.66733V17.2547H12.4949Z" fill="white"/>
<path d="M13.5495 18.2513C10.2684 18.2513 4.99654 18.3058 1.7233 18.3058C1.7233 16.0633 1.66821 11.7107 1.66821 9.46045C4.93359 9.46045 10.1818 9.61618 13.4708 9.61618C13.4708 11.8509 13.5495 15.9933 13.5495 18.2513ZM3.92648 14.2803C3.98943 14.2413 4.06811 13.8987 4.1704 13.8053C5.37426 12.6217 5.00442 13.1045 6.20828 11.9132C6.2791 11.8431 7.33347 11.1813 7.34921 11.0956C7.36494 10.9788 7.51444 11.2513 7.44362 11.1657C7.38068 11.0878 7.64031 11.2825 7.52229 11.2903C7.43573 11.2903 7.33348 11.3681 7.26266 11.4382C6.0352 12.6529 4.80774 13.8676 3.58027 15.0823C3.53306 15.129 3.49371 15.1757 3.4701 15.2302C3.34421 15.4716 3.58811 14.2802 3.94219 14.288L3.92648 14.2803ZM5.59457 11.2513C5.47655 11.3136 5.48439 11.3136 5.42144 11.3759C4.78411 11.991 4.15466 12.614 3.53306 13.2447C3.36783 13.4082 3.38356 13.6184 3.53306 13.7663C3.68256 13.9143 2.96654 13.6262 3.13964 13.4782C3.17899 13.4471 3.2498 13.2291 3.28914 13.1902C3.83993 12.6451 3.67465 12.5984 4.22544 12.0533C4.28838 11.991 5.16967 11.6796 5.1854 11.6017C5.21688 11.4849 5.46078 11.2358 5.41357 11.1345C5.36636 11.0333 5.69686 11.3214 5.59457 11.2435V11.2513Z" fill="#0671B8"/>
<path d="M4.54788 16.5617C5.95585 16.5617 7.09723 15.4322 7.09723 14.0389C7.09723 12.6456 5.95585 11.5161 4.54788 11.5161C3.13991 11.5161 1.99854 12.6456 1.99854 14.0389C1.99854 15.4322 3.13991 16.5617 4.54788 16.5617Z" stroke="white" stroke-width="0.51" stroke-miterlimit="10"/>
<path d="M10.4256 16.5617C11.8335 16.5617 12.975 15.4322 12.975 14.0389C12.975 12.6456 11.8335 11.5161 10.4256 11.5161C9.0176 11.5161 7.87622 12.6456 7.87622 14.0389C7.87622 15.4322 9.0176 16.5617 10.4256 16.5617Z" fill="#0671B8" stroke="white" stroke-width="0.51" stroke-miterlimit="10"/>
<path d="M10.0007 14.4905C9.88272 14.3659 9.77257 14.2413 9.66242 14.1245C9.59947 14.0544 9.52076 14.0311 9.44208 14.1011C9.37126 14.1634 9.37915 14.2413 9.46571 14.3269C9.59947 14.4593 9.73324 14.5917 9.867 14.7241C9.99289 14.8486 10.0401 14.8486 10.1739 14.7241C10.5988 14.3036 11.0237 13.8909 11.4407 13.4704C11.4643 13.4471 11.5036 13.4237 11.5036 13.4004C11.5036 13.3381 11.5194 13.2602 11.4879 13.2213C11.4564 13.1901 11.3698 13.1979 11.3069 13.2057C11.2754 13.2057 11.2518 13.2524 11.2203 13.2836C10.8191 13.6807 10.4256 14.07 10.0007 14.4905Z" fill="white"/>
<path d="M3.83984 13.4551L5.22469 14.8177" stroke="white" stroke-width="0.31" stroke-miterlimit="10" stroke-linecap="round"/>
<path d="M5.22469 13.4551L3.83984 14.8177" stroke="white" stroke-width="0.31" stroke-miterlimit="10" stroke-linecap="round"/>
</svg>
