<svg width="25" height="22" viewBox="0 0 25 22" fill="none" xmlns="http://www.w3.org/2000/svg">
<path d="M10.926 0.0166016C10.9596 0.705611 10.9932 1.38622 11.0352 2.07523C11.094 3.09193 11.1612 4.10865 11.2285 5.12536C11.2285 5.16737 11.2285 5.20938 11.2285 5.2682H9.0354C9.06901 4.66322 9.11103 4.07504 9.14464 3.48686C9.21186 2.33571 9.27907 1.17615 9.34629 0.0249995C9.87565 0.0249995 10.405 0.0249995 10.926 0.0249995V0.0166016Z" fill="#FFB422"/>
<path d="M8.59024 0.0166016C8.54822 0.798039 8.50621 1.57947 8.45579 2.36091C8.39698 3.3188 8.33816 4.27669 8.27094 5.25139H6.07788C6.1535 4.82286 6.23753 4.39433 6.31315 3.9658C6.55683 2.68861 6.79208 1.40303 7.03576 0.125839C7.03576 0.0922287 7.03576 0.0502118 7.03576 0.0166016C7.54831 0.0166016 8.06086 0.0166016 8.57342 0.0166016H8.59024Z" fill="#FFB422"/>
<path d="M13.2115 0.0167115C13.346 0.781344 13.4888 1.54598 13.6232 2.30221C13.8081 3.2769 13.9929 4.26 14.1778 5.2515H11.9847C11.9595 4.87339 11.9343 4.50367 11.9175 4.13396C11.8335 2.82316 11.7495 1.51236 11.6738 0.209967C11.6738 0.142746 11.6738 0.0755212 11.6738 0.00830078C12.1864 0.00830078 12.699 0.00830078 13.2115 0.00830078V0.0167115Z" fill="#FFB422"/>
<path d="M6.3046 0.0166016C5.9937 1.6551 5.69121 3.29359 5.38031 4.93209C5.30469 5.32701 5.39711 5.2682 4.98539 5.2766C4.39721 5.2766 3.80064 5.2766 3.18726 5.2766C3.22087 5.18417 3.23767 5.11695 3.26288 5.04973C3.85946 3.44484 4.46443 1.84836 5.06101 0.243474C5.08622 0.167851 5.10304 0.0922246 5.12824 0.0166016C5.52316 0.0166016 5.91809 0.0166016 6.31301 0.0166016H6.3046Z" fill="#FFB422"/>
<path d="M15.1442 0.0166016C15.3459 0.562768 15.5392 1.11733 15.7408 1.6635C16.161 2.79784 16.5895 3.92378 17.0096 5.04973C17.0348 5.10854 17.0516 5.17577 17.0768 5.25139C17.018 5.25979 16.976 5.2766 16.9256 5.2766C16.329 5.2766 15.724 5.2766 15.1274 5.2766C14.9762 5.2766 14.9342 5.21778 14.909 5.08334C14.6065 3.46165 14.304 1.84835 14.0015 0.235063C13.9847 0.15944 13.9763 0.0922246 13.9595 0.0166016C14.3544 0.0166016 14.7493 0.0166016 15.1442 0.0166016Z" fill="#FFB422"/>
<path d="M16.5978 0.0166016C17.0515 0.151042 17.312 0.478746 17.5305 0.873666C18.2951 2.26849 19.0849 3.64651 19.8664 5.03293C19.9084 5.10015 19.942 5.16736 19.9924 5.2766C19.6815 5.2766 19.4042 5.2766 19.1353 5.2766C18.774 5.2766 18.4127 5.2766 18.0598 5.2766C17.9926 5.2766 17.8834 5.21778 17.8666 5.15896C17.2196 3.44484 16.581 1.73072 15.9424 0.0249995C16.1608 0.0249995 16.3793 0.0249995 16.6062 0.0249995L16.5978 0.0166016Z" fill="#FFB422"/>
<path d="M4.32166 0.0168087C3.87632 1.21837 3.43099 2.41994 2.98565 3.6131C2.8008 4.11726 2.61596 4.61301 2.4227 5.10876C2.39749 5.17598 2.29665 5.26 2.22943 5.26C1.61604 5.2684 1.00265 5.26 0.380856 5.26C0.355648 5.26 0.330445 5.2516 0.280029 5.2432C0.330445 5.15077 0.37246 5.06675 0.414473 4.98272C1.17911 3.62151 1.96056 2.26029 2.71679 0.882271C2.94366 0.478948 3.19573 0.134441 3.65787 0C3.87634 0 4.09479 0 4.32166 0V0.0168087Z" fill="#FFB422"/>
<path d="M8.62386 8.28488C9.51453 9.30999 10.8337 9.23436 11.6488 8.28488C12.0353 8.75542 12.531 9.0243 13.1444 9.0243C13.7494 9.0243 14.2452 8.75541 14.6401 8.26807C15.035 8.74701 15.5223 9.0243 16.1357 9.0243C16.7407 9.0243 17.2365 8.76382 17.6398 8.26807C18.0263 8.74701 18.5221 8.99909 19.1439 9.0327V9.28478C19.1439 12.7718 19.1439 16.2589 19.1439 19.7544C19.1439 20.5946 18.6985 21.04 17.8499 21.04C12.7075 21.04 7.55673 21.04 2.41436 21.04C1.5573 21.04 1.12036 20.5946 1.12036 19.7376C1.12036 16.2589 1.12036 12.7718 1.12036 9.29318V9.0411C1.73375 9.00749 2.23791 8.77223 2.62443 8.27648C3.01935 8.76383 3.5151 9.0327 4.12849 9.0327C4.73348 9.0327 5.22923 8.77223 5.62415 8.27648C6.01907 8.75542 6.50641 9.0243 7.1198 9.0327C7.73319 9.0327 8.23734 8.77222 8.61545 8.29327L8.62386 8.28488ZM11.59 11.5283C11.548 11.2762 11.5143 11.0829 11.4723 10.8897C11.3799 10.4191 11.0858 10.167 10.5984 10.1586C10.3212 10.1586 10.0439 10.1586 9.7666 10.1586C9.16162 10.1586 8.86753 10.4107 8.7751 11.0157C8.7499 11.167 8.72468 11.3266 8.68266 11.5367C8.4642 11.3854 8.29616 11.2594 8.11971 11.1417C7.7584 10.8981 7.35507 10.9317 7.03577 11.2342C6.83411 11.4274 6.64084 11.6291 6.44758 11.8224C5.98544 12.2845 5.96024 12.629 6.32996 13.1584C6.42238 13.2844 6.50642 13.4104 6.62405 13.5785C6.37197 13.6205 6.17871 13.6625 5.98545 13.6961C5.54011 13.7717 5.25442 14.091 5.24602 14.5364C5.24602 14.8473 5.24602 15.1498 5.24602 15.4607C5.24602 15.9984 5.51491 16.3009 6.04427 16.3849C6.22073 16.4101 6.38877 16.4522 6.61564 16.4942C6.46439 16.7126 6.34677 16.8723 6.22913 17.0403C5.97705 17.4101 6.01065 17.8218 6.32155 18.1411C6.53161 18.3595 6.75848 18.578 6.97694 18.7965C7.34666 19.1578 7.74158 19.1914 8.16171 18.8973C8.31295 18.7881 8.47261 18.6872 8.66587 18.5528C8.70788 18.8049 8.74989 19.0065 8.7919 19.2082C8.88433 19.6619 9.17843 19.9056 9.64057 19.914C9.90945 19.914 10.1867 19.914 10.4556 19.914C11.1362 19.914 11.3967 19.6871 11.4975 19.0233C11.5227 18.8805 11.5564 18.7377 11.59 18.5528C11.8 18.6956 11.9597 18.8133 12.1193 18.9225C12.4974 19.183 12.9092 19.1494 13.2369 18.8301C13.4301 18.6452 13.615 18.4604 13.7998 18.2671C14.2872 17.7798 14.3124 17.4437 13.9091 16.8807C13.825 16.7631 13.7494 16.6454 13.6402 16.4942C13.8839 16.4522 14.0771 16.4185 14.2704 16.3849C14.7325 16.3009 15.0098 15.9816 15.0098 15.5195C15.0098 15.2086 15.0098 14.9061 15.0098 14.5952C15.0098 14.091 14.7493 13.7886 14.2536 13.6961C14.0603 13.6625 13.8755 13.6289 13.6402 13.5785C13.783 13.3768 13.9006 13.2172 14.0099 13.0575C14.2788 12.6626 14.2452 12.2593 13.9175 11.9232C13.7074 11.7047 13.4973 11.4947 13.2789 11.2846C12.9007 10.9149 12.5142 10.8813 12.0773 11.1922C11.9261 11.293 11.7832 11.4022 11.59 11.5367V11.5283Z" fill="#0671B8"/>
<path d="M9.01876 6.0416H11.279C11.2538 6.52895 11.279 7.0079 11.195 7.46164C11.1026 7.97419 10.5648 8.3187 10.0607 8.27668C9.5145 8.23467 9.06916 7.84815 9.02714 7.31038C8.99353 6.89866 9.02714 6.47854 9.02714 6.0332L9.01876 6.0416Z" fill="#FFB422"/>
<path d="M0.0112034 6.0415H2.21267C2.21267 6.51205 2.26308 6.97418 2.20426 7.42792C2.13704 7.94888 1.58247 8.3186 1.05311 8.28499C0.498543 8.24297 0.0448136 7.81444 0.0112034 7.27668C-0.0140043 6.87336 0.0112034 6.47003 0.0112034 6.0499V6.0415Z" fill="#FFB422"/>
<path d="M18.0178 6.0415H20.2193C20.2193 6.52045 20.2781 6.9994 20.2025 7.46154C20.1184 7.9909 19.5638 8.327 19.0513 8.27659C18.4883 8.22617 18.0514 7.79764 18.0178 7.23467C17.9926 6.84815 18.0178 6.46163 18.0178 6.0415Z" fill="#FFB422"/>
<path d="M8.23727 6.0415C8.23727 6.49524 8.2709 6.93218 8.22888 7.36911C8.17007 7.88167 7.67431 8.27659 7.14495 8.27659C6.59878 8.27659 6.10302 7.89847 6.0358 7.3439C5.98539 6.92377 6.02739 6.48684 6.02739 6.0415H8.23727Z" fill="#FFB422"/>
<path d="M12.0185 6.0415H14.2872C14.262 6.52885 14.2872 7.0246 14.1864 7.49514C14.0856 8.0077 13.5142 8.3438 13.0016 8.26818C12.4387 8.19255 12.027 7.76403 12.0102 7.20946C11.9933 6.82294 12.0102 6.43642 12.0102 6.0415H12.0185Z" fill="#FFB422"/>
<path d="M5.24603 6.0415C5.24603 6.47003 5.27124 6.88176 5.24603 7.28508C5.20402 7.85645 4.66627 8.30179 4.1033 8.27659C3.51512 8.25138 3.03616 7.78083 3.01936 7.19265C3.01096 6.81453 3.01936 6.43642 3.01936 6.0415H5.26285H5.24603Z" fill="#FFB422"/>
<path d="M15.0098 6.0415H17.2448C17.2448 6.48684 17.2869 6.92377 17.2365 7.3607C17.1692 7.93207 16.6063 8.3354 16.0601 8.28498C15.4719 8.23457 15.0266 7.76403 15.0182 7.18425C15.0182 6.81454 15.0182 6.44482 15.0182 6.0499L15.0098 6.0415Z" fill="#FFB422"/>
<path d="M12.6485 11.705C12.9006 11.9571 13.1527 12.2007 13.388 12.4444C13.4216 12.478 13.4132 12.5788 13.388 12.6293C13.2955 12.7805 13.1863 12.915 13.0855 13.0662C12.7662 13.5704 13.0098 14.1837 13.5896 14.335C13.6988 14.3602 13.8081 14.377 13.9173 14.3938C14.1582 14.433 14.2786 14.5703 14.2786 14.8055C14.2786 15.0072 14.2786 15.2173 14.2786 15.4189C14.2786 15.5618 14.2534 15.6374 14.0938 15.6542C13.9509 15.6626 13.8081 15.6962 13.6568 15.7214C13.0267 15.8306 12.7494 16.486 13.1023 17.0154C13.1863 17.1414 13.2619 17.2591 13.3543 17.3683C13.4552 17.4859 13.4552 17.57 13.3375 17.6792C13.1443 17.8557 12.9594 18.0489 12.7746 18.2338C12.6905 18.3262 12.6149 18.3346 12.5141 18.259C12.3796 18.1581 12.2452 18.0573 12.1024 17.9649C11.5898 17.6372 10.968 17.8977 10.8336 18.4942C10.8 18.6539 10.7664 18.8135 10.7496 18.9732C10.7328 19.116 10.6655 19.1581 10.5311 19.1497C10.2706 19.1497 10.0017 19.1413 9.74125 19.1497C9.5732 19.1497 9.52279 19.0908 9.50598 18.9396C9.48918 18.7799 9.46397 18.6203 9.42195 18.4606C9.28751 17.9061 8.68254 17.654 8.19519 17.9481C8.03554 18.0405 7.8927 18.1498 7.74985 18.2674C7.65742 18.343 7.58179 18.3262 7.50617 18.2422C7.31291 18.0405 7.11967 17.8388 6.91801 17.654C6.81718 17.5616 6.82556 17.4859 6.90119 17.3935C6.99361 17.2759 7.08605 17.1498 7.17007 17.0154C7.53138 16.4692 7.25409 15.8222 6.60709 15.7046C6.41383 15.671 6.14495 15.6878 6.05252 15.5702C5.95169 15.4441 6.00211 15.1836 6.00211 14.982C6.00211 14.4442 6.00212 14.4442 6.53988 14.3518C7.2625 14.2342 7.5398 13.5788 7.12807 12.9822C6.90961 12.6685 6.93759 12.3772 7.21208 12.1083C7.48656 11.8394 7.77786 11.8142 8.08595 12.0327C8.67413 12.4444 9.31273 12.1839 9.45557 11.4865C9.48078 11.3605 9.50599 11.226 9.51439 11.1C9.5228 10.9488 9.59841 10.9067 9.74125 10.9067C9.99333 10.9067 10.2538 10.9151 10.5143 10.9067C10.6655 10.9067 10.7412 10.9404 10.758 11.1084C10.7664 11.2597 10.8 11.4109 10.8336 11.5621C10.9596 12.1503 11.5898 12.4192 12.1024 12.0915C12.2788 11.9739 12.4469 11.8478 12.6485 11.705ZM12.3797 15.0324C12.3797 13.7972 11.3797 12.7889 10.153 12.7805C8.89259 12.7805 7.8843 13.7972 7.8843 15.066C7.8843 16.2928 8.9094 17.3011 10.1362 17.2927C11.3882 17.2843 12.3797 16.2844 12.3797 15.0324Z" fill="#0671B8"/>
<path d="M11.632 15.0404C11.632 15.8638 10.9598 16.536 10.1364 16.536C9.3045 16.536 8.6323 15.8554 8.6407 15.0152C8.6407 14.1917 9.3297 13.5195 10.1532 13.5279C10.9766 13.5363 11.6404 14.2085 11.6404 15.0404H11.632Z" fill="#0671B8"/>
<circle cx="19" cy="6" r="5.5" fill="#0671B8" stroke="white"/>
<path d="M17.6023 9V8.48864L19.5227 6.38636C19.7481 6.14015 19.9337 5.92614 20.0795 5.74432C20.2254 5.56061 20.3333 5.38826 20.4034 5.22727C20.4754 5.06439 20.5114 4.89394 20.5114 4.71591C20.5114 4.51136 20.4621 4.33428 20.3636 4.18466C20.267 4.03504 20.1345 3.91951 19.9659 3.83807C19.7973 3.75663 19.608 3.71591 19.3977 3.71591C19.1742 3.71591 18.9792 3.76231 18.8125 3.85511C18.6477 3.94602 18.5199 4.07386 18.429 4.23864C18.34 4.40341 18.2955 4.59659 18.2955 4.81818H17.625C17.625 4.47727 17.7036 4.17803 17.8608 3.92045C18.018 3.66288 18.232 3.46212 18.5028 3.31818C18.7756 3.17424 19.0814 3.10227 19.4205 3.10227C19.7614 3.10227 20.0634 3.17424 20.3267 3.31818C20.59 3.46212 20.7964 3.65625 20.946 3.90057C21.0956 4.14489 21.1705 4.41667 21.1705 4.71591C21.1705 4.92992 21.1316 5.1392 21.054 5.34375C20.9782 5.5464 20.8456 5.77273 20.6562 6.02273C20.4688 6.27083 20.2083 6.57386 19.875 6.93182L18.5682 8.32955V8.375H21.2727V9H17.6023Z" fill="white"/>
</svg>
