<svg width="22" height="21" viewBox="0 0 22 21" fill="none" xmlns="http://www.w3.org/2000/svg">
<path d="M16.0042 20.5531C16.1094 20.5531 16.2583 20.6145 16.2934 20.6933C16.3284 20.7635 16.2321 20.8949 16.197 21.0001H0V20.6846C0.11394 20.6408 0.219128 20.5619 0.341833 20.5531C0.674888 20.5356 1.01665 20.5531 1.376 20.5531V7.53767C1.376 7.49384 1.41103 7.45001 1.46362 7.45001H7.62517C7.669 7.45001 7.7128 7.48508 7.7128 7.53767V20.5356H8.16858V12.4283H14.9524V20.5356H15.3818M9.29924 18.4934H13.7955V17.617H9.29924V18.4934ZM21.4996 14.9087H17.0034V15.7852H21.4996V14.9087ZM16.9946 13.0681H21.4909V12.1917H16.9946V13.0681ZM16.9946 13.5414V14.4267H21.4909V13.5414H16.9946ZM14.7071 11.2626V9.48341H13.8306V11.2626H14.7071ZM14.7071 18.0464V16.2672H13.8306V18.0464H14.7071ZM12.4808 16.2497V18.0377H13.3485V16.2497H12.4808ZM11.9987 18.0464V16.2585H11.1222V18.0464H11.9987ZM9.76379 18.0464H10.6403V16.2672H9.76379V18.0464ZM14.7071 15.7852V14.006H13.8306V15.7852H14.7071ZM12.472 13.9972V15.7764H13.3485V13.9972H12.472ZM10.6403 7.22214H9.75502V9.00135H10.6403V7.22214ZM11.1135 8.99259H11.9899V7.21338H11.1135V8.99259ZM12.472 7.21338V8.99259H13.3485V7.21338H12.472ZM14.6983 9.00135V7.21338H13.8306V9.00135H14.6983ZM11.1135 13.9972V15.7852H11.9899V13.9972H11.1135ZM10.6403 9.48341H9.76379V11.2626H10.6403V9.48341ZM11.1135 9.48341V11.2626H11.9899V9.48341H11.1135ZM12.4633 9.48341V11.2714H13.3397V9.48341H12.4633ZM10.6227 15.8027V14.0147H9.75502V15.8027H10.6227ZM10.6227 13.5414V11.7534H9.74625V13.5414H10.6227ZM11.9812 13.5414V11.7622H11.1047V13.5414H11.9812ZM12.4633 13.5414H13.3397V11.7622H12.4633V13.5414ZM14.6983 13.5414V11.7622H13.8218V13.5414H14.6983Z" fill="#0671B8"/>
<path d="M4.97803 6.98541V4.73291H11.7356V11.9374H8.13337V11.692C8.13337 10.2634 8.13337 8.82598 8.13337 7.39735C8.13337 7.02047 8.09824 6.97665 7.73013 6.97665C6.89749 6.97665 6.07365 6.97665 5.24101 6.97665H4.97803V6.98541ZM6.98516 6.30177V5.41655H6.1087V6.30177H6.98516ZM10.1755 9.48333V10.3598H11.052V9.48333H10.1755ZM10.1755 8.12481V9.00127H11.052V8.12481H10.1755ZM9.6934 9.01003V8.12481H8.82571V9.01003H9.6934ZM11.052 7.65153V6.76629H10.1755V7.65153H11.052ZM8.81693 7.64276H9.70217V6.77507H8.81693V7.64276ZM11.052 6.29301V5.41655H10.1755V6.29301H11.052ZM9.6934 6.29301V5.40778H8.81693V6.29301H9.6934ZM8.34372 5.41655H7.46726V6.29301H8.34372V5.41655ZM8.81693 9.47457V10.3598H9.6934V9.47457H8.81693Z" fill="#FFB422"/>
<path d="M6.33691 4.17197V2.9975C6.33691 2.95367 6.37195 2.90986 6.42454 2.90986H7.2397C7.2397 2.40151 7.2397 1.91069 7.2397 1.42864C7.2397 1.34976 7.2397 1.27964 7.2397 1.20076C7.2397 1.043 7.29229 0.920287 7.46758 0.920287C7.63411 0.920287 7.69547 1.03423 7.69547 1.19199C7.69547 1.68281 7.69547 2.17362 7.69547 2.65568C7.69547 2.72579 7.69547 2.80468 7.69547 2.88357H8.59815C8.59815 2.80468 8.59815 2.7258 8.59815 2.64692C8.59815 1.8581 8.59815 1.06929 8.59815 0.271714C8.59815 0.113951 8.65952 0 8.83481 0C8.99257 0 9.05392 0.113943 9.05392 0.262941C9.05392 0.315529 9.05392 0.368124 9.05392 0.420711C9.05392 1.14817 9.05392 1.8844 9.05392 2.61187C9.05392 2.69075 9.05392 2.77839 9.05392 2.88357H9.86031C9.90413 2.88357 9.94793 2.91862 9.94793 2.9712V4.15443C9.94793 4.19826 9.91289 4.24208 9.86031 4.24208H6.43331C6.38949 4.24208 6.34569 4.20702 6.34569 4.15443L6.33691 4.17197Z" fill="#FFB422"/>
</svg>
