<svg width="25" height="24" viewBox="0 0 25 24" fill="none" xmlns="http://www.w3.org/2000/svg">
<path d="M22.6162 23.0003H0.966064C0.966064 22.5337 0.966064 22.0672 0.966064 21.6006C0.966064 21.0892 1.28509 20.7751 1.79023 20.7662C1.89658 20.7662 2.00291 20.7662 2.13584 20.7662C2.13584 20.6585 2.13584 20.5688 2.13584 20.4791C2.13584 18.1014 2.13584 15.7238 2.13584 13.3461C2.13584 12.4579 2.13584 11.5786 2.13584 10.6903C2.13584 10.6096 2.18017 10.4929 2.24221 10.4481C2.51693 10.2148 2.8005 10.0084 3.08409 9.78412C3.88168 10.9057 5.59207 11.0133 6.54918 9.74823C6.98342 10.3404 7.55945 10.6813 8.28614 10.6813C9.01283 10.6813 9.58887 10.3404 10.032 9.73926C10.4751 10.3494 11.0511 10.6724 11.7778 10.6813C12.5045 10.6813 13.0805 10.3494 13.5148 9.75721C14.4187 10.9685 16.0937 11.0044 17.0242 9.75721C17.4584 10.3583 18.0345 10.6813 18.77 10.6813C19.4967 10.6813 20.0727 10.3404 20.4715 9.78412C20.7285 9.99946 20.9589 10.2238 21.2248 10.3942C21.3932 10.5019 21.4375 10.6006 21.4286 10.78C21.4286 14.0011 21.4286 17.2311 21.4286 20.4521C21.4286 20.5508 21.4286 20.6495 21.4286 20.7662C21.5439 20.7662 21.6236 20.7662 21.7122 20.7662C22.306 20.7662 22.5984 21.0623 22.5984 21.6724C22.5984 22.112 22.5984 22.5606 22.5984 23.0003H22.6162ZM10.2004 20.7572C10.2004 20.6944 10.2092 20.6585 10.2092 20.6136C10.2092 18.3078 10.2092 16.0019 10.2092 13.696C10.2092 13.1308 9.84588 12.7809 9.29643 12.7809C8.02029 12.7809 6.74415 12.7809 5.47687 12.7809C4.82994 12.7809 4.5109 13.1128 4.5109 13.7768C4.5109 16.0198 4.5109 18.2629 4.5109 20.5149C4.5109 20.5957 4.5109 20.6764 4.5109 20.7662H10.2092L10.2004 20.7572ZM15.8101 17.9758C16.5545 17.9758 17.2989 17.9758 18.0433 17.9758C18.4687 17.9758 18.6814 17.7694 18.6814 17.3298C18.6814 15.975 18.6814 14.6112 18.6814 13.2564C18.6814 12.8167 18.4687 12.6014 18.0256 12.6014C16.5456 12.6014 15.0657 12.6014 13.5857 12.6014C13.1249 12.6014 12.9299 12.8078 12.9299 13.2743C12.9299 14.6202 12.9299 15.957 12.9299 17.3029C12.9299 17.7874 13.1248 17.9758 13.6034 17.9758C14.339 17.9758 15.0745 17.9758 15.8101 17.9758Z" fill="#0671B8"/>
<path d="M0 8.26758H2.68524C2.82704 8.92255 2.47253 9.59547 1.86105 9.84669C1.23184 10.1069 0.505152 9.87361 0.150668 9.29042C0.106357 9.20967 0.0531812 9.13789 0.00887075 9.06611V8.27655L0 8.26758Z" fill="#FFB422"/>
<path d="M21.4553 4.1763H2.11816C2.14475 3.79049 2.13588 3.41366 2.21563 3.07272C2.35743 2.4626 2.91575 2.04987 3.52723 2.02295C3.58927 2.02295 3.6513 2.02295 3.71333 2.02295C9.10149 2.02295 14.4897 2.02295 19.8778 2.02295C20.6488 2.02295 21.2337 2.42671 21.3844 3.12655C21.4553 3.46749 21.4375 3.82638 21.4553 4.1763Z" fill="#0671B8"/>
<path d="M10.5991 4.9209H12.9919C13.0539 5.80018 13.1071 6.67945 13.1691 7.57668H10.4219C10.4839 6.6974 10.5371 5.81813 10.5991 4.9209Z" fill="#FFB422"/>
<path d="M16.5988 7.58597H13.8604C13.7984 6.69772 13.7364 5.81843 13.6743 4.93018H16.0582C16.2355 5.80946 16.4127 6.67977 16.5899 7.58597H16.5988Z" fill="#FFB422"/>
<path d="M7.51513 4.91211H9.89904C9.837 5.80036 9.78382 6.68862 9.72178 7.57687H6.9834C7.16064 6.67965 7.33789 5.80036 7.51513 4.91211Z" fill="#FFB422"/>
<path d="M16.7759 4.91198C17.5469 4.91198 18.3002 4.91198 19.0446 4.91198C19.0889 4.91198 19.1509 4.96581 19.1686 5.01067C19.4522 5.85407 19.7358 6.69746 20.0283 7.56777C19.9396 7.56777 19.8687 7.58572 19.8067 7.58572C19.0446 7.58572 18.2913 7.58572 17.5292 7.58572C17.3696 7.58572 17.2987 7.54982 17.2722 7.37935C17.1215 6.5539 16.9443 5.73744 16.7759 4.89404V4.91198Z" fill="#FFB422"/>
<path d="M19.9043 4.9118C20.5512 4.9118 21.1893 4.9118 21.8274 4.9118C22.0755 4.9118 22.2705 5.05536 22.3768 5.27967C22.7401 6.03334 23.0858 6.78701 23.4491 7.5676C23.3694 7.57657 23.3162 7.58554 23.2542 7.58554C22.492 7.58554 21.721 7.58554 20.9589 7.58554C20.8437 7.58554 20.7639 7.58554 20.7108 7.44199C20.4449 6.62551 20.1702 5.80904 19.9043 4.99256C19.9043 4.97462 19.9043 4.94769 19.9043 4.90283V4.9118Z" fill="#FFB422"/>
<path d="M0.124023 7.56769C0.505094 6.76018 0.859568 5.9796 1.2495 5.21696C1.3204 5.0734 1.53311 4.92087 1.68376 4.92087C2.34842 4.88498 3.01307 4.90292 3.69545 4.90292C3.67772 4.96573 3.66887 5.02853 3.65115 5.08236C3.39415 5.85398 3.14599 6.6256 2.88012 7.39721C2.85354 7.46899 2.75608 7.55871 2.68518 7.56769C1.85215 7.57666 1.01023 7.56769 0.124023 7.56769Z" fill="#FFB422"/>
<path d="M3.56258 7.5676C3.59803 7.44198 3.63347 7.35226 3.66005 7.25356C3.89933 6.53578 4.13862 5.81801 4.36904 5.09126C4.41335 4.95667 4.47536 4.90283 4.62602 4.90283C5.33499 4.9118 6.05283 4.90283 6.79724 4.90283C6.68204 5.47706 6.57569 6.02437 6.46935 6.57167C6.41618 6.84981 6.36299 7.13693 6.2921 7.41507C6.27437 7.4689 6.20348 7.54965 6.15917 7.54965C5.29955 7.54965 4.44878 7.54965 3.55371 7.54965L3.56258 7.5676Z" fill="#FFB422"/>
<path d="M16.6696 8.3125C16.7228 8.93159 16.5367 9.43403 16.0138 9.75704C15.5175 10.0711 15.0035 10.0531 14.5161 9.73909C14.0198 9.40711 13.8426 8.92261 13.8869 8.3125H16.6608H16.6696Z" fill="#FFB422"/>
<path d="M17.3874 8.30371H20.1523C20.2055 8.86896 20.046 9.33553 19.6029 9.68545C19.1686 10.0354 18.5483 10.0713 18.0697 9.79311C17.5646 9.49703 17.3076 8.94972 17.3874 8.31269V8.30371Z" fill="#FFB422"/>
<path d="M6.9213 8.3125H9.69511C9.73942 8.92261 9.57104 9.41608 9.05704 9.74805C8.56076 10.0711 8.03791 10.0711 7.54163 9.74805C7.03649 9.41608 6.85927 8.92261 6.9213 8.32147V8.3125Z" fill="#FFB422"/>
<path d="M10.4218 8.3125C11.3257 8.3125 12.2385 8.3125 13.1425 8.3125C13.2754 8.77906 13.0627 9.35328 12.6373 9.68526C12.1765 10.0441 11.565 10.08 11.0687 9.77497C10.5724 9.46991 10.3243 8.91364 10.4218 8.3125Z" fill="#FFB422"/>
<path d="M20.8703 8.3125H23.5555C23.6707 8.90467 23.5378 9.40711 23.0238 9.73909C22.5364 10.0531 22.0224 10.0711 21.5261 9.766C21.0032 9.443 20.8171 8.94056 20.8703 8.3125Z" fill="#FFB422"/>
<path d="M3.42088 8.3125H6.20357C6.24788 8.90467 6.07065 9.3802 5.58323 9.71217C5.09582 10.0352 4.58182 10.0531 4.08554 9.74805C3.57154 9.43403 3.37656 8.94055 3.41201 8.32147L3.42088 8.3125Z" fill="#FFB422"/>
<circle cx="19" cy="7.75" r="5.5" fill="#0671B8" stroke="white"/>
<path d="M19.6477 4.93182V10.75H18.9432V5.67045H18.9091L17.4886 6.61364V5.89773L18.9432 4.93182H19.6477Z" fill="white"/>
</svg>
