<svg width="27" height="21" viewBox="0 0 27 21" fill="none" xmlns="http://www.w3.org/2000/svg">
<path d="M20.0354 20.99H10.24C10.24 20.9025 10.24 20.8151 10.24 20.7276C10.24 18.2884 10.24 15.8493 10.24 13.4199C10.24 13.313 10.24 13.2158 10.24 13.1089C10.2109 12.6036 9.86099 12.2537 9.34595 12.2537C7.89801 12.2537 6.4501 12.2537 5.00216 12.2537C4.59401 12.2537 4.27334 12.487 4.16645 12.8465C4.12757 12.9826 4.11781 13.1283 4.11781 13.2741C4.11781 15.7618 4.11781 18.2399 4.11781 20.7276C4.11781 20.8151 4.11781 20.9025 4.11781 20.99H2.19372C1.66896 20.7956 1.49408 20.4166 1.5038 19.8724C1.51352 16.7919 1.5038 13.7114 1.5038 10.6406C1.5038 10.5532 1.5038 10.4657 1.5038 10.3879C1.79533 10.4268 2.05768 10.4948 2.32005 10.4948C3.23352 10.5046 4.14693 10.4948 5.0604 10.4948C5.48798 10.4948 5.89612 10.3782 6.27512 10.1644C6.44032 10.0673 6.60553 9.95064 6.77073 9.84375C7.35379 10.3588 8.04372 10.5143 8.8017 10.5046C10.4246 10.4851 12.0377 10.5046 13.6606 10.5046C13.8841 10.5046 14.1076 10.4754 14.3311 10.4365C14.7782 10.3588 15.1571 10.1353 15.507 9.84375C16.1192 10.3977 16.8481 10.5434 17.6449 10.5143C18.1017 10.4948 18.5583 10.5143 19.015 10.5143C19.5787 10.5143 20.152 10.5531 20.7059 10.3879C20.7059 10.3879 20.7254 10.3977 20.7545 10.4171V10.6698C20.7545 13.7406 20.7545 16.8114 20.7545 19.8822C20.7545 20.4264 20.5894 20.8053 20.0646 20.9997L20.0354 20.99ZM15.0308 12.2537C14.3311 12.2537 13.6218 12.2537 12.9221 12.2537C12.3293 12.2537 11.9794 12.6036 11.9697 13.1964C11.9697 14.0224 11.9697 14.8484 11.9697 15.6744C11.9697 16.2574 12.3293 16.617 12.9124 16.617C14.3215 16.617 15.7305 16.617 17.1299 16.617C17.7324 16.617 18.0822 16.2672 18.0919 15.6647C18.0919 14.8484 18.0919 14.0224 18.0919 13.2061C18.0919 12.6036 17.7324 12.2537 17.1299 12.2537C16.4302 12.2537 15.7207 12.2537 15.0211 12.2537H15.0308Z" fill="#0671B8"/>
<path d="M0.609863 7.01611C0.687605 7.01611 0.75561 7.01611 0.833352 7.01611C7.66491 7.01611 14.5062 7.01611 21.3377 7.01611H21.5904C21.5807 7.55059 21.6778 8.07535 21.4543 8.57095C21.1434 9.26091 20.5895 9.61075 19.8413 9.63018C18.9764 9.64962 18.1018 9.6399 17.2369 9.63018C16.372 9.62047 15.7306 9.08599 15.5265 8.25998C15.5168 8.21139 15.4973 8.17252 15.4779 8.09478C15.3127 8.88192 14.8852 9.38724 14.1272 9.58159C13.9523 9.63018 13.7579 9.63018 13.583 9.63018C11.9407 9.63018 10.3082 9.63018 8.66589 9.63018C7.61638 9.63018 6.99435 9.13459 6.74168 8.10451C6.72225 8.17253 6.70289 8.21139 6.69317 8.25998C6.47938 9.0957 5.84772 9.62047 4.98284 9.63018C4.11796 9.6399 3.24331 9.6399 2.37844 9.63018C1.50384 9.62047 0.852844 9.07628 0.648772 8.22112C0.648772 8.19196 0.629299 8.1628 0.609863 8.12393C0.609863 7.75466 0.609863 7.38539 0.609863 7.01611Z" fill="#FFB422"/>
<path d="M13.1843 0.0195312C13.5925 2.05054 13.9909 4.07182 14.399 6.10282H7.80078C8.20893 4.07182 8.60735 2.05054 9.0155 0.0195312H13.1843Z" fill="#FFB422"/>
<path d="M6.02232 6.11246H0.852539C0.862257 6.04443 0.872012 5.98612 0.891448 5.92782C1.38705 4.18834 1.88257 2.45859 2.37817 0.719117C2.52394 0.223513 2.81545 0 3.33049 0C4.56464 0 5.79885 0 7.033 0C7.0913 0 7.14957 0 7.23703 0C6.82889 2.05044 6.42073 4.07172 6.01259 6.10273L6.02232 6.11246Z" fill="#FFB422"/>
<path d="M14.9726 0.00976562C15.0601 0.00976562 15.1183 0.00976562 15.1767 0.00976562C16.4011 0.00976562 17.6353 0.00976562 18.8597 0.00976562C19.4039 0.00976562 19.6954 0.22355 19.8412 0.748307C20.3368 2.46834 20.8226 4.17867 21.3085 5.8987C21.3279 5.96673 21.3377 6.02503 21.3668 6.11249H16.1873C15.7792 4.09121 15.3808 2.06021 14.9629 0.00976562H14.9726Z" fill="#FFB422"/>
<circle cx="19" cy="6" r="5.5" fill="#0671B8" stroke="white"/>
<path d="M18.4886 7.36364V7.32955C18.4924 6.9678 18.5303 6.67992 18.6023 6.46591C18.6742 6.25189 18.7765 6.0786 18.9091 5.94602C19.0417 5.81345 19.2008 5.69129 19.3864 5.57955C19.4981 5.51136 19.5985 5.43087 19.6875 5.33807C19.7765 5.24337 19.8466 5.13447 19.8977 5.01136C19.9508 4.88826 19.9773 4.75189 19.9773 4.60227C19.9773 4.41667 19.9337 4.25568 19.8466 4.11932C19.7595 3.98295 19.643 3.87784 19.4972 3.80398C19.3513 3.73011 19.1894 3.69318 19.0114 3.69318C18.8561 3.69318 18.7064 3.72538 18.5625 3.78977C18.4186 3.85417 18.2983 3.95549 18.2017 4.09375C18.1051 4.23201 18.0492 4.41288 18.0341 4.63636H17.3182C17.3333 4.31439 17.4167 4.03883 17.5682 3.80966C17.7216 3.58049 17.9233 3.4053 18.1733 3.28409C18.4252 3.16288 18.7045 3.10227 19.0114 3.10227C19.3447 3.10227 19.6345 3.16856 19.8807 3.30114C20.1288 3.43371 20.3201 3.61553 20.4545 3.84659C20.5909 4.07765 20.6591 4.34091 20.6591 4.63636C20.6591 4.8447 20.6269 5.03314 20.5625 5.2017C20.5 5.37027 20.4091 5.52083 20.2898 5.65341C20.1723 5.78598 20.0303 5.90341 19.8636 6.00568C19.697 6.10985 19.5634 6.2197 19.4631 6.33523C19.3627 6.44886 19.2898 6.58428 19.2443 6.74148C19.1989 6.89867 19.1742 7.0947 19.1705 7.32955V7.36364H18.4886ZM18.8523 9.04545C18.7121 9.04545 18.5919 8.99527 18.4915 8.89489C18.3911 8.79451 18.3409 8.67424 18.3409 8.53409C18.3409 8.39394 18.3911 8.27367 18.4915 8.1733C18.5919 8.07292 18.7121 8.02273 18.8523 8.02273C18.9924 8.02273 19.1127 8.07292 19.2131 8.1733C19.3134 8.27367 19.3636 8.39394 19.3636 8.53409C19.3636 8.62689 19.34 8.71212 19.2926 8.78977C19.2472 8.86742 19.1856 8.92992 19.108 8.97727C19.0322 9.02273 18.947 9.04545 18.8523 9.04545Z" fill="white"/>
</svg>
