<svg width="27" height="21" viewBox="0 0 27 21" fill="none" xmlns="http://www.w3.org/2000/svg">
<path d="M0.942383 19.8195V5.66797C0.942383 5.66797 1.02997 5.66797 1.07371 5.66797C7.9046 5.66797 14.7267 5.66797 21.5576 5.66797C21.6625 5.66797 21.7676 5.66797 21.89 5.66797C21.89 5.80791 21.89 5.90412 21.89 5.99158C21.89 10.461 21.89 14.9303 21.89 19.3997C21.89 20.4143 21.374 20.9303 20.3682 20.9303C15.7239 20.9303 11.0707 20.9303 6.42635 20.9303C5.06193 20.9303 3.70631 20.9303 2.34188 20.9303C1.65092 20.9303 1.17859 20.563 0.994912 19.8983C0.994912 19.8633 0.96863 19.837 0.951138 19.8108L0.942383 19.8195ZM4.9045 14.3968C4.63336 14.3968 4.36229 14.3968 4.09115 14.3968C3.7413 14.3968 3.58379 14.5455 3.57504 14.8866C3.57504 15.4289 3.57504 15.9711 3.57504 16.5222C3.57504 16.8458 3.75003 17.0032 4.07364 17.012C4.61591 17.012 5.15829 17.012 5.70931 17.012C6.02418 17.012 6.1902 16.8545 6.19894 16.5484C6.20769 15.9886 6.20769 15.4289 6.19894 14.8604C6.19894 14.5542 6.02418 14.4055 5.70931 14.4055C5.44692 14.4055 5.1844 14.4055 4.92201 14.4055L4.9045 14.3968ZM3.57504 8.72919C3.57504 9.00032 3.57504 9.27145 3.57504 9.54259C3.58379 9.85746 3.74125 10.0149 4.04738 10.0236C4.5984 10.0236 5.14954 10.0236 5.70931 10.0236C6.02418 10.0236 6.19019 9.8662 6.19019 9.55133C6.19893 9.00031 6.19893 8.4493 6.19019 7.88953C6.19019 7.56592 6.01541 7.40849 5.6918 7.39974C5.15827 7.39974 4.61592 7.39974 4.0824 7.39974C3.74129 7.39974 3.58379 7.56591 3.57504 7.89827C3.57504 8.16941 3.57504 8.44055 3.57504 8.71169V8.72919ZM17.9629 10.0236C18.2428 10.0236 18.5227 10.0236 18.8026 10.0236C19.0999 10.0149 19.2661 9.86621 19.2661 9.56009C19.2749 9.00032 19.2749 8.44056 19.2661 7.88079C19.2661 7.58341 19.0912 7.41724 18.8026 7.41724C18.2428 7.40849 17.6829 7.40849 17.1231 7.41724C16.8345 7.41724 16.6597 7.59216 16.6597 7.88079C16.651 8.44056 16.651 9.00032 16.6597 9.56009C16.6597 9.85746 16.8257 10.0149 17.1231 10.0236C17.403 10.0324 17.6831 10.0236 17.9629 10.0236ZM4.9045 10.8983C4.62462 10.8983 4.34477 10.8983 4.06489 10.8983C3.75002 10.8983 3.58379 11.0557 3.58379 11.3706C3.57505 11.9216 3.57505 12.4726 3.58379 13.0324C3.58379 13.356 3.75878 13.5134 4.0824 13.5222C4.62467 13.5222 5.16704 13.5222 5.71806 13.5222C6.02419 13.5222 6.19894 13.356 6.19894 13.0499C6.20769 12.4988 6.20769 11.9478 6.19894 11.3881C6.19894 11.0645 6.03291 10.9158 5.70055 10.907C5.43816 10.907 5.17565 10.907 4.91326 10.907L4.9045 10.8983ZM10.5546 8.71169C10.5546 8.4493 10.5546 8.1869 10.5546 7.92451C10.5546 7.5834 10.3886 7.40848 10.065 7.40848C9.5227 7.40848 8.98032 7.40848 8.4293 7.40848C8.10569 7.40848 7.94821 7.57467 7.94821 7.90703C7.94821 8.4493 7.94821 8.99157 7.94821 9.54259C7.94821 9.85746 8.09692 10.0236 8.41179 10.0236C8.97156 10.0324 9.53147 10.0324 10.0912 10.0236C10.3974 10.0236 10.5459 9.84872 10.5546 9.53385C10.5546 9.26271 10.5546 8.99157 10.5546 8.72043V8.71169ZM14.9105 8.72043C14.9105 8.4493 14.9105 8.17816 14.9105 7.90703C14.9105 7.58341 14.753 7.40848 14.4294 7.40848C13.8784 7.40848 13.3272 7.40848 12.7675 7.40848C12.4613 7.40848 12.2953 7.58341 12.2953 7.88953C12.2953 8.44055 12.2953 8.99157 12.2953 9.55133C12.2953 9.84871 12.4613 10.0149 12.7499 10.0236C13.3185 10.0324 13.8871 10.0324 14.4556 10.0236C14.7443 10.0236 14.893 9.85746 14.9017 9.56883C14.9017 9.28894 14.9017 9.00907 14.9017 8.72919L14.9105 8.72043ZM7.94821 12.184C7.94821 12.4726 7.94821 12.7612 7.94821 13.0499C7.94821 13.3297 8.1144 13.5047 8.39428 13.5047C8.96279 13.5134 9.53148 13.5134 10.1 13.5047C10.3886 13.5047 10.5546 13.321 10.5546 13.0324C10.5546 12.4726 10.5546 11.9129 10.5546 11.3531C10.5546 11.0732 10.3886 10.907 10.1087 10.8983C9.53149 10.8895 8.95403 10.8895 8.37677 10.8983C8.10563 10.8983 7.95696 11.0645 7.94821 11.3356C7.94821 11.6155 7.94821 11.8953 7.94821 12.1752V12.184ZM9.26016 14.3881C8.98028 14.3881 8.70043 14.3881 8.42055 14.3881C8.12317 14.3881 7.95696 14.5455 7.95696 14.8429C7.95696 15.4026 7.95696 15.9624 7.95696 16.5309C7.95696 16.837 8.12319 16.9945 8.43806 17.0032C8.98907 17.0032 9.54022 17.0032 10.1 17.0032C10.3886 17.0032 10.5634 16.8283 10.5721 16.5484C10.5721 15.9886 10.5721 15.4289 10.5721 14.8604C10.5721 14.5542 10.3974 14.3968 10.0912 14.3968C9.8201 14.3968 9.54881 14.3968 9.27767 14.3968L9.26016 14.3881Z" fill="#0671B8"/>
<path d="M0.942589 4.80211V1.99453C1.30119 1.08491 1.60745 0.883755 2.61328 0.883755C3.12931 0.883755 3.65412 0.883755 4.17015 0.883755C4.24887 0.883755 4.33616 0.883755 4.43237 0.883755C4.43237 1.43477 4.43237 1.94206 4.43237 2.44934C4.43237 2.63302 4.44118 2.82544 4.49365 3.00037C4.66858 3.60386 5.26341 3.99745 5.8844 3.92748C6.54037 3.84876 7.03024 3.31523 7.04773 2.61553C7.06522 2.13448 7.04773 1.64468 7.04773 1.16363C7.04773 1.07617 7.05628 0.988706 7.06503 0.892496H15.7591C15.7591 1.45226 15.7591 1.99454 15.7591 2.53681C15.7591 3.33273 16.3188 3.91873 17.0535 3.92748C17.8057 3.92748 18.3655 3.35896 18.3742 2.54555C18.3742 2.11698 18.3742 1.69715 18.3742 1.26858C18.3742 1.14613 18.3742 1.0237 18.3742 0.909993C18.4267 0.883754 18.444 0.875 18.4615 0.875C19.135 0.875 19.8085 0.875 20.482 0.875C21.3041 0.875 21.864 1.43477 21.864 2.25692C21.864 2.95663 21.864 3.65634 21.864 4.3473C21.864 4.48724 21.864 4.62719 21.864 4.79337H0.925293L0.942589 4.80211Z" fill="#0671B8"/>
<path d="M17.1936 0C17.4472 0.122449 17.5348 0.323622 17.526 0.594758C17.5173 1.25948 17.526 1.91545 17.526 2.58017C17.526 2.77259 17.4648 2.95626 17.2724 3.00874C17.1412 3.04373 16.9575 3.03498 16.8525 2.96501C16.7563 2.90378 16.6689 2.72887 16.6689 2.60642C16.6514 1.89797 16.6689 1.18075 16.6689 0.463555C16.6689 0.227404 16.8175 0.0962097 17.0099 0H17.2111H17.1936Z" fill="#0671B8"/>
<path d="M5.8491 0C6.12024 0.122449 6.19886 0.332358 6.19011 0.612241C6.18137 1.23323 6.19011 1.85423 6.19011 2.47522C6.19011 2.54519 6.1901 2.61515 6.18136 2.67638C6.13763 2.91253 5.9627 3.06122 5.74404 3.06122C5.52538 3.06122 5.33299 2.89505 5.33299 2.65889C5.32424 1.91546 5.33299 1.16327 5.33299 0.419834C5.33299 0.201175 5.49053 0.0962097 5.65671 0H5.85785H5.8491Z" fill="#0671B8"/>
<path d="M4.90459 14.3965C5.16698 14.3965 5.4295 14.3965 5.69189 14.3965C6.00675 14.3965 6.18152 14.5451 6.18152 14.8513C6.19027 15.411 6.19027 15.9708 6.18152 16.5393C6.18152 16.8454 6.00675 17.0029 5.69189 17.0029C5.14961 17.0029 4.60724 17.0029 4.05622 17.0029C3.7326 17.0029 3.56636 16.8454 3.55762 16.5131C3.55762 15.9708 3.55762 15.4285 3.55762 14.8775C3.55762 14.5364 3.72387 14.3877 4.07373 14.3877C4.34486 14.3877 4.61594 14.3877 4.88708 14.3877L4.90459 14.3965ZM5.30689 15.2798H4.46727V16.1195H5.30689V15.2798Z" fill="white"/>
<path d="M3.56639 8.73773C3.56639 8.4666 3.56639 8.19545 3.56639 7.92432C3.57513 7.59195 3.74138 7.42578 4.07374 7.42578C4.60727 7.42578 5.14962 7.42578 5.68315 7.42578C6.00676 7.42578 6.17279 7.59196 6.18153 7.91557C6.19028 8.46659 6.19028 9.01761 6.18153 9.57737C6.18153 9.89224 6.01552 10.0409 5.70066 10.0497C5.14964 10.0497 4.59849 10.0497 4.03872 10.0497C3.7326 10.0497 3.57513 9.8835 3.56639 9.56863C3.55764 9.2975 3.56639 9.02637 3.56639 8.75523V8.73773ZM5.29836 9.14881V8.30042H4.45853V9.14881H5.29836Z" fill="white"/>
<path d="M17.9543 10.0319C17.6744 10.0319 17.3943 10.0319 17.1145 10.0319C16.8171 10.0232 16.6598 9.86573 16.6511 9.56836C16.6423 9.00859 16.6423 8.44883 16.6511 7.88906C16.6511 7.59168 16.8258 7.42551 17.1145 7.42551C17.6742 7.41676 18.2341 7.41676 18.7939 7.42551C19.0825 7.42551 19.2487 7.60043 19.2575 7.88906C19.2662 8.44883 19.2662 9.00859 19.2575 9.56836C19.2575 9.86573 19.0913 10.0232 18.7939 10.0319C18.514 10.0407 18.2342 10.0319 17.9543 10.0319ZM18.3741 9.13978V8.30014H17.5432V9.13978H18.3741Z" fill="white"/>
<path d="M4.89559 10.9067C5.15798 10.9067 5.4205 10.9067 5.68289 10.9067C6.01525 10.9067 6.17253 11.0641 6.18128 11.3877C6.19002 11.9388 6.19002 12.4898 6.18128 13.0495C6.18128 13.3557 6.00652 13.5219 5.7004 13.5219C5.15813 13.5219 4.61575 13.5219 4.06473 13.5219C3.74112 13.5219 3.57488 13.3557 3.56613 13.0321C3.55738 12.481 3.55738 11.93 3.56613 11.3702C3.56613 11.0554 3.73235 10.9067 4.04722 10.8979C4.3271 10.8979 4.60695 10.8979 4.88684 10.8979L4.89559 10.9067ZM4.45827 11.7901V12.6385H5.2981V11.7901H4.45827Z" fill="white"/>
<path d="M10.5461 8.72015C10.5461 8.99129 10.5461 9.26243 10.5461 9.53357C10.5461 9.84844 10.3886 10.0146 10.0825 10.0234C9.52271 10.0321 8.9628 10.0321 8.40303 10.0234C8.08817 10.0234 7.93945 9.85718 7.93945 9.54231C7.93945 9.00004 7.93945 8.45777 7.93945 7.90675C7.93945 7.58314 8.09693 7.41695 8.42054 7.4082C8.96282 7.4082 9.50519 7.4082 10.0562 7.4082C10.3886 7.4082 10.5461 7.58313 10.5461 7.92423C10.5461 8.18662 10.5461 8.44902 10.5461 8.71141V8.72015ZM9.66267 9.14873V8.30033H8.82284V9.14873H9.66267Z" fill="white"/>
<path d="M14.9018 8.73767C14.9018 9.01755 14.9018 9.29742 14.9018 9.57731C14.9018 9.86594 14.7444 10.0234 14.4557 10.0321C13.8872 10.0409 13.3185 10.0409 12.75 10.0321C12.4526 10.0321 12.2954 9.8572 12.2954 9.55982C12.2954 9.0088 12.2954 8.45778 12.2954 7.89801C12.2954 7.59189 12.4614 7.41697 12.7675 7.41697C13.3186 7.40823 13.8697 7.41697 14.4295 7.41697C14.7531 7.41697 14.9018 7.59189 14.9106 7.91551C14.9106 8.18664 14.9106 8.45779 14.9106 8.72892L14.9018 8.73767ZM14.0184 8.30909H13.1786V9.14874H14.0184V8.30909Z" fill="white"/>
<path d="M17.9543 13.5217C17.6744 13.5217 17.3943 13.5217 17.1145 13.5217C16.8171 13.5129 16.6598 13.3555 16.6511 13.0581C16.6423 12.4983 16.6423 11.9386 16.6511 11.3788C16.6511 11.0814 16.8258 10.9153 17.1145 10.9153C17.6742 10.9065 18.2341 10.9065 18.7939 10.9153C19.0825 10.9153 19.2487 11.0902 19.2575 11.3788C19.2662 11.9386 19.2662 12.4983 19.2575 13.0581C19.2575 13.3555 19.0913 13.5129 18.7939 13.5217C18.514 13.5304 18.2342 13.5217 17.9543 13.5217ZM18.3741 12.6295V11.7899H17.5432V12.6295H18.3741Z" fill="white"/>
<path d="M14.9018 12.2274C14.9018 12.5073 14.9018 12.7872 14.9018 13.0671C14.9018 13.3557 14.7444 13.5131 14.4557 13.5219C13.8872 13.5306 13.3185 13.5306 12.75 13.5219C12.4526 13.5219 12.2954 13.3469 12.2954 13.0496C12.2954 12.4986 12.2954 11.9475 12.2954 11.3878C12.2954 11.0816 12.4614 10.9067 12.7675 10.9067C13.3186 10.898 13.8697 10.9067 14.4295 10.9067C14.7531 10.9067 14.9018 11.0817 14.9106 11.4053C14.9106 11.6764 14.9106 11.9475 14.9106 12.2187L14.9018 12.2274ZM14.0184 11.7988H13.1786V12.6385H14.0184V11.7988Z" fill="white"/>
<path d="M17.9543 16.985C17.6744 16.985 17.3943 16.985 17.1145 16.985C16.8171 16.9763 16.6598 16.8189 16.6511 16.5215C16.6423 15.9617 16.6423 15.402 16.6511 14.8422C16.6511 14.5448 16.8258 14.3786 17.1145 14.3786C17.6742 14.3699 18.2341 14.3699 18.7939 14.3786C19.0825 14.3786 19.2487 14.5536 19.2575 14.8422C19.2662 15.402 19.2662 15.9617 19.2575 16.5215C19.2575 16.8189 19.0913 16.9763 18.7939 16.985C18.514 16.9938 18.2342 16.985 17.9543 16.985ZM18.3741 16.0929V15.2533H17.5432V16.0929H18.3741Z" fill="white"/>
<path d="M14.9018 15.6908C14.9018 15.9707 14.9018 16.2506 14.9018 16.5304C14.9018 16.8191 14.7444 16.9765 14.4557 16.9852C13.8872 16.994 13.3185 16.994 12.75 16.9852C12.4526 16.9852 12.2954 16.8103 12.2954 16.5129C12.2954 15.9619 12.2954 15.4109 12.2954 14.8511C12.2954 14.545 12.4614 14.3701 12.7675 14.3701C13.3186 14.3614 13.8697 14.3701 14.4295 14.3701C14.7531 14.3701 14.9018 14.545 14.9106 14.8686C14.9106 15.1398 14.9106 15.4109 14.9106 15.682L14.9018 15.6908ZM14.0184 15.2622H13.1786V16.1019H14.0184V15.2622Z" fill="white"/>
<path d="M7.93945 12.201C7.93945 11.9211 7.93945 11.6412 7.93945 11.3614C7.93945 11.0902 8.09688 10.924 8.36802 10.924C8.94527 10.9153 9.52273 10.9153 10.1 10.924C10.3799 10.924 10.5461 11.099 10.5461 11.3789C10.5461 11.9386 10.5461 12.4984 10.5461 13.0581C10.5461 13.3468 10.3799 13.5304 10.0912 13.5304C9.52272 13.5392 8.95404 13.5392 8.38553 13.5304C8.10564 13.5304 7.9482 13.3555 7.93945 13.0756C7.93945 12.787 7.93945 12.4984 7.93945 12.2098V12.201ZM8.8316 11.7987V12.6383H9.66267V11.7987H8.8316Z" fill="white"/>
<path d="M9.24286 14.3965C9.51399 14.3965 9.78528 14.3965 10.0564 14.3965C10.3625 14.3965 10.5375 14.5626 10.5375 14.86C10.5375 15.4198 10.5375 15.9795 10.5375 16.548C10.5375 16.8367 10.3538 17.0029 10.0652 17.0029C9.51415 17.0029 8.96301 17.0029 8.40324 17.0029C8.08837 17.0029 7.93111 16.8367 7.92236 16.5306C7.92236 15.9708 7.92236 15.411 7.92236 14.8425C7.92236 14.5451 8.08836 14.3964 8.38573 14.3877C8.66561 14.3877 8.94568 14.3877 9.22556 14.3877L9.24286 14.3965ZM9.65412 16.137V15.2798H8.82305V16.137H9.65412Z" fill="white"/>
<path d="M5.29832 15.2886V16.1282H4.4585V15.2886H5.29832Z" fill="#0671B8"/>
<path d="M5.29832 9.14869H4.4585V8.30029H5.29832V9.14869Z" fill="#0671B8"/>
<path d="M18.3738 9.13993H17.543V8.30029H18.3738V9.13993Z" fill="#0671B8"/>
<path d="M4.4585 11.79H5.29832V12.6384H4.4585V11.79Z" fill="#0671B8"/>
<path d="M9.66258 9.14869H8.82275V8.30029H9.66258V9.14869Z" fill="#0671B8"/>
<path d="M14.0185 8.30029V9.13993H13.1787V8.30029H14.0185Z" fill="#0671B8"/>
<path d="M8.82275 11.7988H9.65383V12.6385H8.82275V11.7988Z" fill="#0671B8"/>
<path d="M9.65383 16.1369H8.82275V15.2798H9.65383V16.1369Z" fill="#0671B8"/>
<path d="M19.9999 13C23.3136 13 25.9999 10.3137 25.9999 7C25.9999 3.68629 23.3136 1 19.9999 1C16.6862 1 14 3.68629 14 7C14 10.3137 16.6862 13 19.9999 13Z" fill="#FFB422" stroke="white" stroke-width="1.24" stroke-miterlimit="10"/>
<path d="M20.0311 9.35562H19.9686C19.9686 9.35562 19.933 9.31997 19.9151 9.30215C19.532 8.91905 19.1757 8.51814 18.8639 8.07267C18.5788 7.68066 18.3293 7.27083 18.16 6.80754C18.0175 6.42444 17.9552 6.03243 18.0354 5.6226C18.2492 4.54457 19.2558 3.84963 20.3428 4.02782C21.1268 4.16146 21.7772 4.77621 21.9465 5.55132C21.9732 5.65823 21.9822 5.76515 22 5.87206V6.13934C22 6.13934 21.9911 6.20171 21.9822 6.23735C21.9376 6.55808 21.8306 6.86099 21.6881 7.14609C21.4921 7.55592 21.2426 7.92121 20.9664 8.27758C20.6724 8.65177 20.3607 9.01706 20.0222 9.3467L20.0311 9.35562ZM20.922 6.01461C20.922 5.50678 20.5122 5.09695 20.0132 5.09695C19.4965 5.09695 19.0866 5.50677 19.0866 6.02352C19.0866 6.53135 19.5054 6.94118 20.0132 6.93227C20.5122 6.93227 20.922 6.51354 20.922 6.01461Z" fill="white"/>
</svg>
