<svg width="20" height="21" viewBox="0 0 20 21" fill="none" xmlns="http://www.w3.org/2000/svg">
<path d="M19.1443 21H0V20.6893C0.112207 20.6461 0.215787 20.5684 0.327993 20.5598C0.655983 20.5425 0.98401 20.5598 1.33789 20.5598V7.82002C1.33789 7.77686 1.37239 7.74232 1.41555 7.74232H7.44017C7.48333 7.74232 7.51783 7.77686 7.51783 7.82002V20.5425H7.96667V12.6104H14.6042V20.5512H15.0271C15.0271 20.5512 15.0358 20.4821 15.0358 20.4562C15.0358 17.7892 15.0358 15.1135 15.0358 12.4464C15.0358 12.222 14.9581 12.1529 14.7164 12.1529C13.8792 12.1529 13.0333 12.1529 12.196 12.1529H11.9457V2.51176C11.9457 2.4686 11.9803 2.43408 12.0234 2.43408H18.0567C18.0999 2.43408 18.1344 2.4686 18.1344 2.51176V20.5598C18.4796 20.5598 18.6177 20.5512 18.937 20.5598C19.0406 20.5598 19.1874 20.6202 19.2219 20.6979C19.2564 20.767 19.1615 20.8964 19.127 21H19.1443ZM16.6066 3.53026V17.2195H17.4611V3.53026H16.6066ZM12.6276 3.53026V11.0222H13.4907V3.53026H12.6276ZM14.8113 11.0309V3.53889H13.9568V11.0309H14.8113ZM15.286 3.53026V11.0309H16.1405V3.53026H15.286ZM9.08014 18.5487H13.4734V17.6942H9.08014V18.5487ZM13.4821 16.365H9.08878V17.2195H13.4821V16.365ZM9.08014 14.5611H13.4734V13.7066H9.08014V14.5611ZM9.08014 15.0271V15.8903H13.4821V15.0271H9.08014ZM6.84466 12.7916V11.0481H5.99007V12.7916H6.84466ZM6.84466 19.4291V17.6856H5.99007V19.4291H6.84466ZM4.66956 17.677V19.4291H5.52405V17.677H4.66956ZM4.1948 19.4377V17.6856H3.34031V19.4377H4.1948ZM2.00241 19.4377H2.86554V17.6942H2.00241V19.4377ZM6.84466 17.2281V15.4846H5.99007V17.2281H6.84466ZM4.66092 15.476V17.2195H5.51541V15.476H4.66092ZM2.87418 8.84713H2.01105V10.582H2.87418V8.84713ZM3.33167 10.582H4.18616V8.8385H3.33167V10.582ZM4.66092 8.8385V10.582H5.51541V8.8385H4.66092ZM6.83602 10.5907V8.8385H5.98153V10.5907H6.83602ZM3.32303 15.476V17.2195H4.18616V15.476H3.32303ZM2.8569 11.0568H2.00241V12.8003H2.8569V11.0568ZM3.32303 11.0568V12.8003H4.17752V11.0568H3.32303ZM4.64364 11.0568V12.8089H5.49813V11.0568H4.64364ZM2.83973 17.2454V15.4932H1.98524V17.2454H2.83973ZM2.83973 15.0271V13.275H1.98524V15.0271H2.83973ZM4.16888 15.0271V13.2836H3.31439V15.0271H4.16888ZM4.635 15.0271H5.49813V13.2836H4.635V15.0271ZM6.81875 15.0271V13.2836H5.96426V15.0271H6.81875Z" fill="#0671B8"/>
<path d="M4.87646 7.28495V5.08398H11.488V12.1358H7.96643V11.8941C7.96643 10.4958 7.96643 9.0889 7.96643 7.69063C7.96643 7.31948 7.93194 7.28495 7.56943 7.28495C6.75808 7.28495 5.94668 7.28495 5.13534 7.28495H4.87646ZM6.84443 6.62035V5.75722H5.98983V6.62035H6.84443ZM9.96895 9.73625V10.5907H10.8321V9.73625H9.96895ZM9.96895 8.40703V9.26153H10.8321V8.40703H9.96895ZM9.49419 9.27878V8.41565H8.64834V9.27878H9.49419ZM10.8234 7.94957V7.08644H9.96895V7.94957H10.8234ZM8.63106 7.94094H9.49419V7.08644H8.63106V7.94094ZM10.8234 6.62035V5.76585H9.96031V6.62035H10.8234ZM9.49419 6.62035V5.75722H8.6397V6.62035H9.49419ZM8.17357 5.75722H7.31908V6.61171H8.17357V5.75722ZM8.6397 9.72761V10.5907H9.49419V9.72761H8.6397Z" fill="#FFB422"/>
<path d="M6.20605 4.53993V3.39197C6.20605 3.34881 6.24066 3.31429 6.28381 3.31429H7.07782C7.07782 2.81368 7.07782 2.33895 7.07782 1.86423C7.07782 1.78654 7.07782 1.7175 7.07782 1.63982C7.07782 1.48445 7.12961 1.37224 7.29361 1.36361C7.4576 1.36361 7.51803 1.47583 7.51803 1.63119C7.51803 2.10591 7.51803 2.58925 7.51803 3.06398C7.51803 3.13303 7.51803 3.21072 7.51803 3.2884H8.40708C8.40708 3.21072 8.40708 3.13303 8.40708 3.05535C8.40708 2.27853 8.40708 1.51035 8.40708 0.733529C8.40708 0.578165 8.46751 0.465956 8.6315 0.474587C8.78686 0.474587 8.84728 0.586797 8.84728 0.733529C8.84728 0.785316 8.84728 0.837111 8.84728 0.888899C8.84728 1.6053 8.84728 2.32169 8.84728 3.02946C8.84728 3.10714 8.84728 3.19345 8.84728 3.29702H9.6414C9.68456 3.29702 9.71905 3.33155 9.71905 3.3747V4.53129C9.71905 4.57445 9.68456 4.60899 9.6414 4.60899H6.28381C6.24066 4.60899 6.20605 4.57445 6.20605 4.53129V4.53993Z" fill="#FFB422"/>
<path d="M16.7272 1.10498H13.3696C13.3267 1.10498 13.292 1.13976 13.292 1.18266V1.89042C13.292 1.93332 13.3267 1.96811 13.3696 1.96811H16.7272C16.7701 1.96811 16.8049 1.93332 16.8049 1.89042V1.18266C16.8049 1.13976 16.7701 1.10498 16.7272 1.10498Z" fill="#0671B8"/>
<path d="M15.9764 0.0776917V0.776825C15.9764 0.819981 15.9591 0.854503 15.9332 0.854503H14.1638C14.1638 0.854503 14.1206 0.819981 14.1206 0.776825V0.0776917C14.1206 0.0345352 14.1379 0 14.1638 0H15.9332C15.9332 0 15.9764 0.0345352 15.9764 0.0776917Z" fill="#0671B8"/>
</svg>
