<svg width="16" height="21" viewBox="0 0 16 21" fill="none" xmlns="http://www.w3.org/2000/svg">
<path d="M0.252961 0.00790201H15.3304C15.3304 6.91806 15.3304 13.8361 15.3304 20.7463C15.1881 20.9518 14.9905 21.0072 14.7454 20.9993C10.0253 20.9993 5.30515 20.9993 0.577149 20.9993C0.11858 20.9993 0 20.8807 0 20.4142C0 13.8045 0 7.19479 0 0.585075C0 0.339978 0.0473957 0.142314 0.252961 0V0.00790201ZM7.6533 10.4996C10.1201 10.4996 12.1046 8.51515 12.1046 6.04046C12.1046 3.59739 10.1043 1.6129 7.64538 1.62081C5.23395 1.62081 3.23367 3.62111 3.23367 6.04046C3.23367 8.49933 5.21815 10.4996 7.66121 10.4996H7.6533ZM4.05596 11.3061C3.66855 11.3061 3.28116 11.3061 2.89375 11.3061C2.5775 11.3061 2.41929 11.4563 2.41929 11.7647C2.41929 12.5395 2.41929 13.3143 2.41929 14.0891C2.41929 14.3896 2.57748 14.5398 2.87793 14.5398C3.65275 14.5398 4.42752 14.5398 5.19443 14.5398C5.48697 14.5398 5.64515 14.3817 5.64515 14.0812C5.64515 13.3064 5.64515 12.5316 5.64515 11.7567C5.64515 11.4642 5.48696 11.314 5.18652 11.3061C4.80701 11.3061 4.42756 11.3061 4.05596 11.3061ZM2.41929 17.3624C2.41929 17.7419 2.41929 18.1214 2.41929 18.5009C2.41929 18.8329 2.56959 18.9753 2.89375 18.9832C3.65276 18.9832 4.40386 18.9832 5.16287 18.9832C5.49494 18.9832 5.63724 18.8329 5.63724 18.5009C5.63724 17.7419 5.63724 16.9908 5.63724 16.2317C5.63724 15.8997 5.48703 15.7574 5.15496 15.7574C4.39595 15.7574 3.64485 15.7574 2.88584 15.7574C2.55377 15.7574 2.41138 15.9076 2.41138 16.2396C2.41138 16.6192 2.41138 16.9987 2.41138 17.3782L2.41929 17.3624ZM9.8592 14.1287C10.7131 14.1287 11.5749 14.1287 12.4288 14.1287C12.7371 14.1287 12.9348 13.931 12.9031 13.678C12.8715 13.4566 12.7055 13.3301 12.4288 13.3222C11.4484 13.3222 10.4601 13.3222 9.47971 13.3222C8.76023 13.3222 8.03286 13.3222 7.31338 13.3222C7.02084 13.3222 6.83104 13.5199 6.86266 13.7729C6.89429 13.9942 7.0604 14.1287 7.33712 14.1287C8.17519 14.1287 9.02113 14.1287 9.8592 14.1287ZM9.8592 18.572C10.6973 18.572 11.5433 18.572 12.3814 18.572C12.7214 18.572 12.911 18.4218 12.9031 18.1609C12.9031 17.9079 12.7134 17.7656 12.3971 17.7656C10.7131 17.7656 9.03691 17.7656 7.35285 17.7656C7.0366 17.7656 6.85475 17.9237 6.85475 18.1767C6.85475 18.4297 7.04451 18.572 7.36077 18.572C8.19093 18.572 9.02113 18.572 9.8592 18.572ZM8.25419 12.5158C8.57835 12.5158 8.91041 12.5158 9.23457 12.5158C9.49548 12.5158 9.66155 12.3497 9.66946 12.1204C9.66946 11.8833 9.49547 11.7093 9.22666 11.7093C8.57833 11.7093 7.93004 11.7093 7.28172 11.7093C7.02081 11.7093 6.85484 11.8753 6.84693 12.1046C6.84693 12.3418 7.01291 12.5158 7.28964 12.5158C7.60589 12.5158 7.93002 12.5158 8.24627 12.5158H8.25419ZM8.23836 16.9591C8.56252 16.9591 8.89468 16.9591 9.21884 16.9591C9.49556 16.9591 9.66946 16.7931 9.66946 16.5559C9.66946 16.3187 9.49556 16.1527 9.21884 16.1527C8.57842 16.1527 7.93797 16.1527 7.30547 16.1527C7.02874 16.1527 6.85475 16.3187 6.85475 16.5559C6.85475 16.7931 7.02874 16.9512 7.30547 16.9591C7.61381 16.9591 7.93001 16.9591 8.23836 16.9591Z" fill="#0671B8"/>
<path d="M11.2982 6.07992C11.2982 8.08023 9.65369 9.70103 7.63757 9.70103C5.66098 9.70103 4.03223 8.05651 4.03223 6.07992C4.03223 4.0638 5.66091 2.42718 7.66122 2.43509C9.67734 2.43509 11.2903 4.0717 11.2903 6.07992H11.2982ZM7.2659 6.45942C7.2659 6.60173 7.25799 6.74406 7.2659 6.88637C7.28171 7.10775 7.44774 7.26587 7.6533 7.27377C7.87468 7.27377 8.04073 7.11565 8.06445 6.88637C8.06445 6.83893 8.07236 6.78359 8.06445 6.73615C8.03282 6.52268 8.10404 6.40407 8.32542 6.3092C9.06071 6.00085 9.42439 5.17068 9.20301 4.40376C8.98164 3.65266 8.23047 3.15456 7.46356 3.24944C6.68874 3.34432 6.08001 4.00055 6.04839 4.75956C6.04048 5.05209 6.18278 5.24184 6.42788 5.25765C6.65716 5.27346 6.82313 5.10743 6.85475 4.83071C6.9101 4.35633 7.2422 4.04007 7.68496 4.04798C8.104 4.05588 8.45187 4.40377 8.46768 4.82281C8.48349 5.26557 8.16726 5.60554 7.70079 5.66088C7.38453 5.70041 7.26589 5.82691 7.25799 6.15897C7.25799 6.26176 7.25799 6.36454 7.25799 6.45942H7.2659ZM8.07236 8.47554C8.07236 8.26207 7.8826 8.08022 7.66913 8.08022C7.45566 8.08022 7.27381 8.26207 7.27381 8.48344C7.27381 8.71273 7.46359 8.89458 7.69287 8.88668C7.90634 8.87877 8.08028 8.68901 8.08028 8.47554H8.07236Z" fill="#FFB422"/>
<path d="M4.83078 12.1445V13.7258H3.24951V12.1445H4.83078Z" fill="#0671B8"/>
<path d="M3.24951 16.5718H4.83078V18.153H3.24951V16.5718Z" fill="#0671B8"/>
</svg>
