<svg width="28" height="21" viewBox="0 0 28 21" fill="none" xmlns="http://www.w3.org/2000/svg">
<path d="M0 20.9998C0 20.6514 0 20.303 0 19.9547C0 19.5969 0.188346 19.3992 0.517871 19.3804C0.583776 19.3804 0.64022 19.3804 0.706125 19.3804C9.43382 19.3804 18.1522 19.3804 26.8799 19.3804C27.1811 19.3804 27.4165 19.4463 27.5954 19.7193V20.9998H0Z" fill="#0671B8"/>
<path d="M15.7608 6.48221C16.9 7.95095 18.6889 7.84739 19.7058 6.48221C20.2142 7.15068 20.8543 7.5461 21.664 7.5461C22.4737 7.5461 23.1234 7.16951 23.5847 6.55753C24.0931 6.9153 24.5733 7.24482 25.1194 7.62142V18.2792H21.1933V17.9308C21.1933 15.7842 21.1933 13.6282 21.1933 11.4816C21.1933 10.3612 20.5907 9.70214 19.5645 9.70214C15.7138 9.70214 11.8724 9.70214 8.02171 9.70214C7.01431 9.70214 6.41179 10.3612 6.41179 11.4533C6.41179 13.5999 6.41179 15.756 6.41179 17.9026C6.41179 18.025 6.41179 18.1474 6.41179 18.2792H2.49512V7.6026C3.01294 7.24483 3.49309 6.9153 4.01092 6.55753C4.46284 7.14126 5.10308 7.53669 5.91276 7.53669C6.71304 7.53669 7.35323 7.1695 7.88047 6.46338C8.39829 7.13184 9.03858 7.52727 9.83886 7.53669C10.6485 7.53669 11.2982 7.16009 11.8254 6.46338C12.3432 7.15067 12.9928 7.53669 13.8025 7.53669C14.6028 7.53669 15.243 7.16009 15.7608 6.46338V6.48221Z" fill="#0671B8"/>
<path d="M13.2846 18.3073H7.39087V17.9777C7.39087 15.8311 7.39087 13.6751 7.39087 11.5285C7.39087 10.9541 7.54147 10.7847 8.0593 10.7847C9.69751 10.7847 11.3451 10.7847 12.9833 10.7847H13.2752V18.3073H13.2846ZM12.8138 14.8237C12.8138 14.7484 12.8138 14.6637 12.8138 14.5883C12.795 14.24 12.6068 14.014 12.3243 14.014C12.0419 14.014 11.8441 14.24 11.8347 14.5789C11.8347 14.7013 11.8347 14.8237 11.8347 14.9461C11.8347 15.3698 12.0136 15.6146 12.3243 15.624C12.635 15.624 12.8138 15.3792 12.8232 14.9555C12.8232 14.9084 12.8232 14.8614 12.8232 14.8237H12.8138Z" fill="#0671B8"/>
<path d="M14.3108 10.7754H19.2254C20.1575 10.7754 20.2046 10.8225 20.2046 11.8299C20.2046 13.8541 20.2046 15.8877 20.2046 17.912V18.2886H14.3108V10.7754ZM15.7606 14.8333C15.7606 14.7579 15.7606 14.6732 15.7606 14.5979C15.7512 14.2307 15.5442 13.9953 15.2617 14.0047C14.9793 14.0047 14.791 14.2401 14.7815 14.5885C14.7815 14.7674 14.7721 14.9462 14.7815 15.1251C14.8098 15.417 15.0262 15.6335 15.2804 15.6147C15.5535 15.5959 15.7135 15.4264 15.7606 15.1345C15.7795 15.0404 15.7606 14.9368 15.7606 14.8333Z" fill="#0671B8"/>
<path d="M4.73584 3.25272C5.13127 2.39596 5.53616 1.60511 5.84686 0.776587C6.07282 0.164613 6.39289 -0.0613592 6.98604 0.0139607C7.51328 0.0798657 8.04991 0.0233849 8.61481 0.0233849C8.58657 0.12695 8.5772 0.211684 8.54896 0.287004C8.23826 1.20026 7.92757 2.1041 7.60746 3.00794C7.5698 3.1115 7.43796 3.2339 7.34381 3.2339C6.49646 3.25273 5.64909 3.24331 4.73584 3.24331V3.25272Z" fill="#FFB422"/>
<path d="M22.8503 3.25235C21.937 3.25235 21.0709 3.25235 20.2141 3.25235C20.1482 3.25235 20.0352 3.18645 20.0069 3.12054C19.6491 2.11314 19.3008 1.09632 18.9336 0.032427C19.442 0.032427 19.9034 0.032427 20.3647 0.032427C20.7036 0.032427 21.0991 -0.0617212 21.3533 0.107749C21.5887 0.267804 21.6734 0.700895 21.8241 1.021C22.163 1.74596 22.4925 2.47092 22.8503 3.26178V3.25235Z" fill="#FFB422"/>
<path d="M5.11238 0.0235843C4.75461 0.805029 4.42512 1.52998 4.08618 2.25493C3.93554 2.58446 3.84137 3.02696 3.59658 3.19643C3.35179 3.3659 2.93748 3.24351 2.60796 3.25292C2.05248 3.25292 1.50647 3.25292 0.91333 3.25292C0.96982 3.13994 0.99807 3.06462 1.03573 2.9893C1.55355 2.07605 2.08071 1.1722 2.59854 0.249535C2.69269 0.0800651 2.80571 0.0141602 2.99401 0.0141602C3.6813 0.0235752 4.36861 0.0141602 5.12181 0.0141602L5.11238 0.0235843Z" fill="#FFB422"/>
<path d="M26.701 3.25264C25.7877 3.25264 24.9404 3.25264 24.0931 3.25264C24.0272 3.25264 23.933 3.19616 23.9047 3.13967C23.434 2.12285 22.9632 1.10602 22.4736 0.0327148C23.2645 0.0327148 24.0083 0.0327148 24.7521 0.0327148C24.818 0.0327148 24.8933 0.108043 24.9309 0.173948C25.5147 1.17194 26.0796 2.17933 26.701 3.25264Z" fill="#FFB422"/>
<path d="M12.3806 3.2244C12.503 2.15109 12.6254 1.09661 12.7478 0.0327148H14.8379C14.9603 1.09661 15.0827 2.14167 15.2051 3.2244H12.3806Z" fill="#FFB422"/>
<path d="M11.3923 3.23374H8.59595C8.70893 2.91363 8.81257 2.61235 8.91614 2.32048C9.15151 1.63319 9.38678 0.936465 9.63157 0.249171C9.65982 0.164436 9.75404 0.0420396 9.81994 0.0420396C10.4602 0.0232096 11.1097 0.0326298 11.7688 0.0326298C11.6464 1.12477 11.524 2.17925 11.4016 3.24315L11.3923 3.23374Z" fill="#FFB422"/>
<path d="M16.1939 3.23395C16.0715 2.16064 15.9491 1.11558 15.8267 0.0234375C16.4857 0.0234375 17.1164 0.0234375 17.7567 0.0234375C17.8132 0.0234375 17.9074 0.0987569 17.9262 0.155247C18.284 1.16265 18.6323 2.17947 18.9901 3.22453H16.1939V3.23395Z" fill="#FFB422"/>
<path d="M0.50862 4.33545H3.42724C3.51198 5.07923 3.39898 5.72886 2.81525 6.18078C2.30684 6.5668 1.76082 6.58563 1.22417 6.24669C0.565119 5.82302 0.433309 5.13572 0.518044 4.33545H0.50862Z" fill="#FFB422"/>
<path d="M4.45329 4.33545H7.37203C7.45677 5.0604 7.36262 5.70062 6.78831 6.15254C6.28931 6.54797 5.74318 6.59504 5.19711 6.26551C4.51923 5.85125 4.36856 5.15455 4.45329 4.33545Z" fill="#FFB422"/>
<path d="M8.38886 4.33545H11.3075C11.3922 5.02274 11.3075 5.64412 10.7803 6.10546C10.3001 6.52913 9.75402 6.60446 9.19854 6.29377C8.47358 5.88893 8.30412 5.19221 8.38886 4.33545Z" fill="#FFB422"/>
<path d="M12.3336 4.33545H15.2523C15.337 5.07923 15.224 5.72886 14.6403 6.18078C14.1319 6.56679 13.5857 6.59505 13.0491 6.24669C12.39 5.82302 12.2583 5.13572 12.3336 4.33545Z" fill="#FFB422"/>
<path d="M16.2787 4.34473H19.1973C19.2821 5.10734 19.1597 5.76639 18.5477 6.20889C18.0299 6.57608 17.4838 6.5855 16.9565 6.22773C16.3163 5.79464 16.194 5.11676 16.2787 4.34473Z" fill="#FFB422"/>
<path d="M24.1589 4.34473H27.0775C27.1622 5.02261 27.0776 5.65342 26.5503 6.11475C26.0702 6.53842 25.524 6.61374 24.9686 6.31246C24.2436 5.91703 24.0741 5.2109 24.1589 4.35414V4.34473Z" fill="#FFB422"/>
<path d="M20.214 4.33545H23.1326C23.2174 5.0604 23.1138 5.71003 22.5301 6.16195C22.0405 6.54796 21.4944 6.59504 20.9671 6.26551C20.2798 5.85125 20.1293 5.15455 20.214 4.33545Z" fill="#FFB422"/>
</svg>
