<svg width="26" height="23" viewBox="0 0 26 23" fill="none" xmlns="http://www.w3.org/2000/svg">
<path d="M22.6162 22.7503H0.966064C0.966064 22.2837 0.966064 21.8172 0.966064 21.3506C0.966064 20.8392 1.28509 20.5251 1.79023 20.5162C1.89658 20.5162 2.00291 20.5162 2.13584 20.5162C2.13584 20.4085 2.13584 20.3188 2.13584 20.2291C2.13584 17.8514 2.13584 15.4738 2.13584 13.0961C2.13584 12.2079 2.13584 11.3286 2.13584 10.4403C2.13584 10.3596 2.18017 10.2429 2.24221 10.1981C2.51693 9.96478 2.8005 9.75843 3.08409 9.53412C3.88168 10.6557 5.59207 10.7633 6.54918 9.49823C6.98342 10.0904 7.55945 10.4313 8.28614 10.4313C9.01283 10.4313 9.58887 10.0904 10.032 9.48926C10.4751 10.0994 11.0511 10.4224 11.7778 10.4313C12.5045 10.4313 13.0805 10.0994 13.5148 9.50721C14.4187 10.7185 16.0937 10.7544 17.0242 9.50721C17.4584 10.1083 18.0345 10.4313 18.77 10.4313C19.4967 10.4313 20.0727 10.0904 20.4715 9.53412C20.7285 9.74946 20.9589 9.97376 21.2248 10.1442C21.3932 10.2519 21.4375 10.3506 21.4286 10.53C21.4286 13.7511 21.4286 16.9811 21.4286 20.2021C21.4286 20.3008 21.4286 20.3995 21.4286 20.5162C21.5439 20.5162 21.6236 20.5162 21.7122 20.5162C22.306 20.5162 22.5984 20.8123 22.5984 21.4224C22.5984 21.862 22.5984 22.3106 22.5984 22.7503H22.6162ZM10.2004 20.5072C10.2004 20.4444 10.2092 20.4085 10.2092 20.3636C10.2092 18.0578 10.2092 15.7519 10.2092 13.446C10.2092 12.8808 9.84588 12.5309 9.29643 12.5309C8.02029 12.5309 6.74415 12.5309 5.47687 12.5309C4.82994 12.5309 4.5109 12.8628 4.5109 13.5268C4.5109 15.7698 4.5109 18.0129 4.5109 20.2649C4.5109 20.3457 4.5109 20.4264 4.5109 20.5162H10.2092L10.2004 20.5072ZM15.8101 17.7258C16.5545 17.7258 17.2989 17.7258 18.0433 17.7258C18.4687 17.7258 18.6814 17.5194 18.6814 17.0798C18.6814 15.725 18.6814 14.3612 18.6814 13.0064C18.6814 12.5667 18.4687 12.3514 18.0256 12.3514C16.5456 12.3514 15.0657 12.3514 13.5857 12.3514C13.1249 12.3514 12.9299 12.5578 12.9299 13.0243C12.9299 14.3702 12.9299 15.707 12.9299 17.0529C12.9299 17.5374 13.1248 17.7258 13.6034 17.7258C14.339 17.7258 15.0745 17.7258 15.8101 17.7258Z" fill="#0671B8"/>
<path d="M0 8.01758H2.68524C2.82704 8.67255 2.47253 9.34547 1.86105 9.59669C1.23184 9.85689 0.505152 9.62361 0.150668 9.04042C0.106357 8.95967 0.0531812 8.88789 0.00887075 8.81611V8.02655L0 8.01758Z" fill="#FFB422"/>
<path d="M21.4553 3.9263H2.11816C2.14475 3.54049 2.13588 3.16366 2.21563 2.82272C2.35743 2.2126 2.91575 1.79987 3.52723 1.77295C3.58927 1.77295 3.6513 1.77295 3.71333 1.77295C9.10149 1.77295 14.4897 1.77295 19.8778 1.77295C20.6488 1.77295 21.2337 2.17671 21.3844 2.87655C21.4553 3.21749 21.4375 3.57638 21.4553 3.9263Z" fill="#0671B8"/>
<path d="M10.5991 4.6709H12.9919C13.0539 5.55018 13.1071 6.42945 13.1691 7.32668H10.4219C10.4839 6.4474 10.5371 5.56813 10.5991 4.6709Z" fill="#FFB422"/>
<path d="M16.5988 7.33597H13.8604C13.7984 6.44772 13.7364 5.56843 13.6743 4.68018H16.0582C16.2355 5.55946 16.4127 6.42977 16.5899 7.33597H16.5988Z" fill="#FFB422"/>
<path d="M7.51513 4.66211H9.89904C9.837 5.55036 9.78382 6.43862 9.72178 7.32687H6.9834C7.16064 6.42965 7.33789 5.55036 7.51513 4.66211Z" fill="#FFB422"/>
<path d="M16.7759 4.66198C17.5469 4.66198 18.3002 4.66198 19.0446 4.66198C19.0889 4.66198 19.1509 4.71581 19.1686 4.76067C19.4522 5.60407 19.7358 6.44746 20.0283 7.31777C19.9396 7.31777 19.8687 7.33572 19.8067 7.33572C19.0446 7.33572 18.2913 7.33572 17.5292 7.33572C17.3696 7.33572 17.2987 7.29982 17.2722 7.12935C17.1215 6.3039 16.9443 5.48744 16.7759 4.64404V4.66198Z" fill="#FFB422"/>
<path d="M19.9043 4.6618C20.5512 4.6618 21.1893 4.6618 21.8274 4.6618C22.0755 4.6618 22.2705 4.80536 22.3768 5.02967C22.7401 5.78334 23.0858 6.53701 23.4491 7.3176C23.3694 7.32657 23.3162 7.33554 23.2542 7.33554C22.492 7.33554 21.721 7.33554 20.9589 7.33554C20.8437 7.33554 20.7639 7.33554 20.7108 7.19199C20.4449 6.37551 20.1702 5.55904 19.9043 4.74256C19.9043 4.72462 19.9043 4.69769 19.9043 4.65283V4.6618Z" fill="#FFB422"/>
<path d="M0.124023 7.31769C0.505094 6.51018 0.859568 5.7296 1.2495 4.96696C1.3204 4.8234 1.53311 4.67087 1.68376 4.67087C2.34842 4.63498 3.01307 4.65292 3.69545 4.65292C3.67772 4.71573 3.66887 4.77853 3.65115 4.83236C3.39415 5.60398 3.14599 6.3756 2.88012 7.14721C2.85354 7.21899 2.75608 7.30871 2.68518 7.31769C1.85215 7.32666 1.01023 7.31769 0.124023 7.31769Z" fill="#FFB422"/>
<path d="M3.56258 7.3176C3.59803 7.19198 3.63347 7.10226 3.66005 7.00356C3.89933 6.28578 4.13862 5.56801 4.36904 4.84126C4.41335 4.70667 4.47536 4.65283 4.62602 4.65283C5.33499 4.6618 6.05283 4.65283 6.79724 4.65283C6.68204 5.22706 6.57569 5.77437 6.46935 6.32167C6.41618 6.59981 6.36299 6.88693 6.2921 7.16507C6.27437 7.2189 6.20348 7.29965 6.15917 7.29965C5.29955 7.29965 4.44878 7.29965 3.55371 7.29965L3.56258 7.3176Z" fill="#FFB422"/>
<path d="M16.6696 8.0625C16.7228 8.68159 16.5367 9.18403 16.0138 9.50704C15.5175 9.82106 15.0035 9.80312 14.5161 9.48909C14.0198 9.15711 13.8426 8.67261 13.8869 8.0625H16.6608H16.6696Z" fill="#FFB422"/>
<path d="M17.3874 8.05371H20.1523C20.2055 8.61896 20.046 9.08553 19.6029 9.43545C19.1686 9.78537 18.5483 9.82125 18.0697 9.54311C17.5646 9.24703 17.3076 8.69972 17.3874 8.06269V8.05371Z" fill="#FFB422"/>
<path d="M6.9213 8.0625H9.69511C9.73942 8.67261 9.57104 9.16608 9.05704 9.49805C8.56076 9.82106 8.03791 9.82106 7.54163 9.49805C7.03649 9.16608 6.85927 8.67261 6.9213 8.07147V8.0625Z" fill="#FFB422"/>
<path d="M10.4218 8.0625C11.3257 8.0625 12.2385 8.0625 13.1425 8.0625C13.2754 8.52906 13.0627 9.10328 12.6373 9.43526C12.1765 9.79415 11.565 9.83003 11.0687 9.52497C10.5724 9.21991 10.3243 8.66364 10.4218 8.0625Z" fill="#FFB422"/>
<path d="M20.8703 8.0625H23.5555C23.6707 8.65467 23.5378 9.15711 23.0238 9.48909C22.5364 9.80312 22.0224 9.82106 21.5261 9.516C21.0032 9.193 20.8171 8.69056 20.8703 8.0625Z" fill="#FFB422"/>
<path d="M3.42088 8.0625H6.20357C6.24788 8.65467 6.07065 9.1302 5.58323 9.46217C5.09582 9.78517 4.58182 9.80311 4.08554 9.49805C3.57154 9.18403 3.37656 8.69055 3.41201 8.07147L3.42088 8.0625Z" fill="#FFB422"/>
<circle cx="20" cy="6.75" r="5.5" fill="#0671B8" stroke="white"/>
<path d="M18.6023 9.75V9.23864L20.5227 7.13636C20.7481 6.89015 20.9337 6.67614 21.0795 6.49432C21.2254 6.31061 21.3333 6.13826 21.4034 5.97727C21.4754 5.81439 21.5114 5.64394 21.5114 5.46591C21.5114 5.26136 21.4621 5.08428 21.3636 4.93466C21.267 4.78504 21.1345 4.66951 20.9659 4.58807C20.7973 4.50663 20.608 4.46591 20.3977 4.46591C20.1742 4.46591 19.9792 4.51231 19.8125 4.60511C19.6477 4.69602 19.5199 4.82386 19.429 4.98864C19.34 5.15341 19.2955 5.34659 19.2955 5.56818H18.625C18.625 5.22727 18.7036 4.92803 18.8608 4.67045C19.018 4.41288 19.232 4.21212 19.5028 4.06818C19.7756 3.92424 20.0814 3.85227 20.4205 3.85227C20.7614 3.85227 21.0634 3.92424 21.3267 4.06818C21.59 4.21212 21.7964 4.40625 21.946 4.65057C22.0956 4.89489 22.1705 5.16667 22.1705 5.46591C22.1705 5.67992 22.1316 5.8892 22.054 6.09375C21.9782 6.2964 21.8456 6.52273 21.6562 6.77273C21.4688 7.02083 21.2083 7.32386 20.875 7.68182L19.5682 9.07955V9.125H22.2727V9.75H18.6023Z" fill="white"/>
</svg>
