<svg width="25" height="21" viewBox="0 0 25 21" fill="none" xmlns="http://www.w3.org/2000/svg">
<path d="M0.0175781 19.8855V5.68652C0.0175781 5.68652 0.105249 5.68652 0.149127 5.68652C7.00289 5.68652 13.848 5.68652 20.7018 5.68652C20.8071 5.68652 20.9123 5.68652 21.0351 5.68652C21.0351 5.82693 21.0351 5.92346 21.0351 6.01122C21.0351 10.4956 21.0351 14.9799 21.0351 19.4642C21.0351 20.4822 20.5174 21 19.5082 21C14.8483 21 10.1798 21 5.51991 21C4.15091 21 2.79055 21 1.42155 21C0.728275 21 0.254571 20.6314 0.0702833 19.9644C0.0702833 19.9293 0.0439136 19.903 0.0263623 19.8767L0.0175781 19.8855ZM14.9098 10.9431C13.9971 10.9431 13.1283 11.2854 12.4789 11.9172C11.5575 12.8211 10.9432 14.2954 11.8735 16.0681C12.6018 17.4634 13.5233 18.7183 14.5237 19.9118C14.7606 20.2014 17.9988 18.9904 18.2358 18.7008C18.5341 18.341 16.305 20.7894 16.5858 20.412C17.3493 19.4028 13.1283 21.3159 13.5847 20.1224C13.7338 19.7363 12.2859 18.6481 12.2859 18.2444C11.3118 16.2962 7.93315 10.5482 14.901 10.9343L14.9098 10.9431ZM3.99296 14.4446C3.72092 14.4446 3.44872 14.4446 3.17667 14.4446C2.82565 14.4446 2.66782 14.5938 2.65905 14.936C2.65905 15.4801 2.65905 16.0242 2.65905 16.5771C2.65905 16.9018 2.83462 17.0597 3.15932 17.0685C3.70341 17.0685 4.24738 17.0685 4.80025 17.0685C5.11617 17.0685 5.28296 16.9105 5.29173 16.6034C5.30051 16.0417 5.30051 15.4801 5.29173 14.9097C5.29173 14.6025 5.11617 14.4534 4.80025 14.4534C4.53698 14.4534 4.2738 14.4534 4.01053 14.4534L3.99296 14.4446ZM2.65905 8.75799C2.65905 9.03003 2.65905 9.30207 2.65905 9.57412C2.66782 9.89004 2.82582 10.048 3.13297 10.0568C3.68583 10.0568 4.23861 10.0568 4.80025 10.0568C5.11617 10.0568 5.28295 9.89881 5.28295 9.58289C5.29173 9.03002 5.29173 8.47716 5.28295 7.91553C5.28295 7.59083 5.10738 7.43287 4.78268 7.42409C4.24737 7.42409 3.7032 7.42409 3.16789 7.42409C2.82564 7.42409 2.66782 7.59082 2.65905 7.9243C2.65905 8.19634 2.65905 8.46839 2.65905 8.74044V8.75799ZM17.0949 10.0568C17.3757 10.0568 17.6565 10.0568 17.9373 10.0568C18.2357 10.048 18.4025 9.89882 18.4025 9.59167C18.4112 9.03003 18.4112 8.46839 18.4025 7.90675C18.4025 7.60838 18.2269 7.44165 17.9373 7.44165C17.3757 7.43287 16.8141 7.43287 16.2525 7.44165C15.9629 7.44165 15.7873 7.61716 15.7873 7.90675C15.7786 8.46839 15.7786 9.03003 15.7873 9.59167C15.7873 9.89004 15.9541 10.048 16.2525 10.0568C16.5333 10.0656 16.8141 10.0568 17.0949 10.0568ZM3.99296 10.9343C3.71214 10.9343 3.43135 10.9343 3.15053 10.9343C2.83461 10.9343 2.66783 11.0923 2.66783 11.4082C2.65906 11.9611 2.65906 12.514 2.66783 13.0756C2.66783 13.4003 2.84319 13.5583 3.16789 13.567C3.71198 13.567 4.25617 13.567 4.80903 13.567C5.11618 13.567 5.29173 13.4003 5.29173 13.0931C5.30051 12.5403 5.30051 11.9874 5.29173 11.4258C5.29173 11.1011 5.12494 10.9519 4.79146 10.9431C4.5282 10.9431 4.26501 10.9431 4.00174 10.9431L3.99296 10.9343ZM9.66198 8.74044C9.66198 8.47717 9.66198 8.21389 9.66198 7.95062C9.66198 7.60837 9.49519 7.43286 9.17049 7.43286C8.6264 7.43286 8.08243 7.43286 7.52956 7.43286C7.20486 7.43286 7.04686 7.59961 7.04686 7.93308C7.04686 8.47717 7.04686 9.02125 7.04686 9.57412C7.04686 9.89004 7.19607 10.0568 7.51199 10.0568C8.07363 10.0656 8.6352 10.0656 9.19684 10.0568C9.50399 10.0568 9.6532 9.88127 9.66198 9.56535C9.66198 9.2933 9.66198 9.02125 9.66198 8.74921V8.74044ZM14.0322 8.74921C14.0322 8.47716 14.0322 8.20512 14.0322 7.93308C14.0322 7.60838 13.8742 7.43286 13.5495 7.43286C12.9967 7.43286 12.4439 7.43286 11.8822 7.43286C11.5751 7.43286 11.4083 7.60838 11.4083 7.91553C11.4083 8.46839 11.4083 9.02125 11.4083 9.58289C11.4083 9.88126 11.5751 10.048 11.8647 10.0568C12.4351 10.0656 13.0055 10.0656 13.5759 10.0568C13.8655 10.0568 14.0147 9.89004 14.0234 9.60044C14.0234 9.31962 14.0234 9.03881 14.0234 8.75799L14.0322 8.74921ZM7.04686 12.2244C7.04686 12.514 7.04686 12.8035 7.04686 13.0931C7.04686 13.374 7.2136 13.5495 7.49442 13.5495C8.06484 13.5582 8.63521 13.5582 9.20563 13.5495C9.49522 13.5495 9.66198 13.3652 9.66198 13.0756C9.66198 12.514 9.66198 11.9523 9.66198 11.3907C9.66198 11.1099 9.49523 10.9431 9.21441 10.9343C8.63522 10.9256 8.05605 10.9256 7.47686 10.9343C7.20481 10.9343 7.05563 11.1011 7.04686 11.3731C7.04686 11.6539 7.04686 11.9348 7.04686 12.2156V12.2244ZM8.3632 14.4358C8.08238 14.4358 7.8016 14.4358 7.52078 14.4358C7.22241 14.4358 7.05564 14.5938 7.05564 14.8921C7.05564 15.4538 7.05564 16.0154 7.05564 16.5858C7.05564 16.893 7.22242 17.0509 7.53834 17.0597C8.09121 17.0597 8.64399 17.0597 9.20563 17.0597C9.49522 17.0597 9.67077 16.8842 9.67954 16.6034C9.67954 16.0417 9.67954 15.4801 9.67954 14.9097C9.67954 14.6025 9.50399 14.4446 9.19684 14.4446C8.9248 14.4446 8.65281 14.4446 8.38077 14.4446L8.3632 14.4358Z" fill="#0671B8"/>
<path d="M0.0175684 4.81819V2.00121C0.377369 1.08854 0.684438 0.886714 1.69363 0.886714C2.2114 0.886714 2.73796 0.886714 3.25572 0.886714C3.3347 0.886714 3.4225 0.886714 3.51903 0.886714C3.51903 1.43958 3.51903 1.94856 3.51903 2.45754C3.51903 2.64183 3.52787 2.8349 3.58052 3.01041C3.75603 3.61593 4.35264 4.01083 4.97571 3.94063C5.63388 3.86165 6.12538 3.32633 6.14293 2.62428C6.16049 2.14162 6.14293 1.65019 6.14293 1.16753C6.14293 1.07977 6.15173 0.992016 6.1605 0.895485H14.8834C14.8834 1.45712 14.8834 2.00122 14.8834 2.54531C14.8834 3.34389 15.445 3.93185 16.1822 3.94063C16.9369 3.94063 17.4985 3.37021 17.5073 2.55408C17.5073 2.12407 17.5073 1.70284 17.5073 1.27283C17.5073 1.14997 17.5073 1.02712 17.5073 0.91304C17.56 0.886713 17.5776 0.87793 17.5952 0.87793C18.2709 0.87793 18.9464 0.87793 19.6222 0.87793C20.4471 0.87793 21.0088 1.43957 21.0088 2.26448C21.0088 2.96653 21.0088 3.66858 21.0088 4.36185C21.0088 4.50226 21.0088 4.64268 21.0088 4.80942H0L0.0175684 4.81819Z" fill="#0671B8"/>
<path d="M16.3137 0C16.5682 0.122859 16.6559 0.324705 16.6471 0.596749C16.6383 1.2637 16.6471 1.92186 16.6471 2.58881C16.6471 2.78187 16.5856 2.96616 16.3926 3.01882C16.2609 3.05392 16.0767 3.04514 15.9714 2.97493C15.8748 2.91351 15.7871 2.738 15.7871 2.61514C15.7695 1.90432 15.7871 1.18471 15.7871 0.465107C15.7871 0.228165 15.9362 0.0965318 16.1293 0H16.3311H16.3137Z" fill="#0671B8"/>
<path d="M4.93168 0C5.20373 0.122859 5.28283 0.333471 5.27405 0.614291C5.26527 1.23736 5.27405 1.86043 5.27405 2.4835C5.27405 2.55371 5.27404 2.62391 5.26527 2.68534C5.22139 2.92228 5.04588 3.07147 4.82648 3.07147C4.60709 3.07147 4.41406 2.90474 4.41406 2.6678C4.40528 1.92187 4.41406 1.16717 4.41406 0.421239C4.41406 0.201849 4.57191 0.0965318 4.73864 0H4.94047H4.93168Z" fill="#0671B8"/>
<path d="M3.98429 14.4443C4.24756 14.4443 4.51074 14.4443 4.77401 14.4443C5.08993 14.4443 5.2655 14.5935 5.2655 14.9007C5.27427 15.4623 5.27427 16.0239 5.2655 16.5944C5.2655 16.9015 5.08993 17.0595 4.77401 17.0595C4.22992 17.0595 3.68595 17.0595 3.13308 17.0595C2.80838 17.0595 2.64159 16.9015 2.63281 16.568C2.63281 16.0239 2.63281 15.4799 2.63281 14.927C2.63281 14.5847 2.79963 14.4355 3.15065 14.4355C3.4227 14.4355 3.69468 14.4355 3.96672 14.4355L3.98429 14.4443ZM4.38794 15.3307H3.54551V16.1731H4.38794V15.3307Z" fill="white"/>
<path d="M2.65038 8.76654C2.65038 8.49449 2.65038 8.22244 2.65038 7.9504C2.65916 7.61693 2.82597 7.4502 3.15944 7.4502C3.69475 7.4502 4.2387 7.4502 4.77402 7.4502C5.09871 7.4502 5.26551 7.61693 5.27429 7.94163C5.28306 8.49449 5.28306 9.04735 5.27429 9.60899C5.27429 9.92491 5.10751 10.0741 4.79158 10.0829C4.23872 10.0829 3.68594 10.0829 3.1243 10.0829C2.81716 10.0829 2.65916 9.91614 2.65038 9.60022C2.64161 9.32818 2.65038 9.05614 2.65038 8.78409V8.76654ZM4.38794 9.17899V8.32776H3.54552V9.17899H4.38794Z" fill="white"/>
<path d="M17.0861 10.0656C16.8053 10.0656 16.5245 10.0656 16.2437 10.0656C15.9453 10.0568 15.7873 9.89882 15.7786 9.60045C15.7698 9.03881 15.7698 8.47718 15.7786 7.91554C15.7786 7.61717 15.9541 7.45043 16.2437 7.45043C16.8053 7.44165 17.3669 7.44165 17.9285 7.45043C18.2181 7.45043 18.3849 7.62594 18.3937 7.91554C18.4024 8.47718 18.4024 9.03881 18.3937 9.60045C18.3937 9.89882 18.2269 10.0568 17.9285 10.0656C17.6477 10.0743 17.3669 10.0656 17.0861 10.0656ZM17.5073 9.17044V8.32799H16.6737V9.17044H17.5073Z" fill="white"/>
<path d="M3.98405 10.9433C4.24732 10.9433 4.5105 10.9433 4.77377 10.9433C5.10724 10.9433 5.26526 11.1013 5.27404 11.426C5.28281 11.9789 5.28281 12.5317 5.27404 13.0934C5.27404 13.4005 5.09848 13.5673 4.79134 13.5673C4.24725 13.5673 3.70327 13.5673 3.15041 13.5673C2.82571 13.5673 2.65891 13.4005 2.65014 13.0758C2.64136 12.523 2.64136 11.9701 2.65014 11.4084C2.65014 11.0925 2.81692 10.9433 3.13284 10.9346C3.41366 10.9346 3.69444 10.9346 3.97526 10.9346L3.98405 10.9433ZM3.54527 11.8297V12.6809H4.38769V11.8297H3.54527Z" fill="white"/>
<path d="M9.6532 8.74896C9.6532 9.021 9.6532 9.29306 9.6532 9.5651C9.6532 9.88102 9.49522 10.0478 9.18807 10.0565C8.62643 10.0653 8.06486 10.0653 7.50322 10.0565C7.1873 10.0565 7.03809 9.88979 7.03809 9.57387C7.03809 9.02978 7.03809 8.4857 7.03809 7.93283C7.03809 7.60814 7.19609 7.44139 7.52079 7.43262C8.06488 7.43262 8.60885 7.43262 9.16172 7.43262C9.49519 7.43262 9.6532 7.60813 9.6532 7.95038C9.6532 8.21364 9.6532 8.47692 9.6532 8.74019V8.74896ZM8.76686 9.17897V8.32773H7.92443V9.17897H8.76686Z" fill="white"/>
<path d="M14.0145 8.76651C14.0145 9.04733 14.0145 9.32815 14.0145 9.60897C14.0145 9.89856 13.8566 10.0565 13.567 10.0653C12.9966 10.0741 12.4262 10.0741 11.8558 10.0653C11.5574 10.0653 11.3994 9.8898 11.3994 9.59142C11.3994 9.03856 11.3994 8.48569 11.3994 7.92405C11.3994 7.6169 11.5662 7.4414 11.8733 7.4414C12.4262 7.43262 12.979 7.4414 13.5406 7.4414C13.8653 7.4414 14.0145 7.61691 14.0233 7.9416C14.0233 8.21365 14.0233 8.4857 14.0233 8.75774L14.0145 8.76651ZM13.1282 8.3365H12.2858V9.17897H13.1282V8.3365Z" fill="white"/>
<path d="M17.0861 13.567C16.8053 13.567 16.5245 13.567 16.2437 13.567C15.9453 13.5582 15.7873 13.4003 15.7786 13.1019C15.7698 12.5403 15.7698 11.9786 15.7786 11.417C15.7786 11.1186 15.9541 10.9519 16.2437 10.9519C16.8053 10.9431 17.3669 10.9431 17.9285 10.9519C18.2181 10.9519 18.3849 11.1274 18.3937 11.417C18.4024 11.9786 18.4024 12.5403 18.3937 13.1019C18.3937 13.4003 18.2269 13.5582 17.9285 13.567C17.6477 13.5758 17.3669 13.567 17.0861 13.567ZM17.5073 12.6719V11.8295H16.6737V12.6719H17.5073Z" fill="white"/>
<path d="M14.0145 12.2685C14.0145 12.5493 14.0145 12.8301 14.0145 13.1109C14.0145 13.4005 13.8566 13.5585 13.567 13.5673C12.9966 13.576 12.4262 13.576 11.8558 13.5673C11.5574 13.5673 11.3994 13.3917 11.3994 13.0934C11.3994 12.5405 11.3994 11.9877 11.3994 11.426C11.3994 11.1189 11.5662 10.9434 11.8733 10.9434C12.4262 10.9346 12.979 10.9434 13.5406 10.9434C13.8653 10.9434 14.0145 11.1189 14.0233 11.4436C14.0233 11.7156 14.0233 11.9877 14.0233 12.2597L14.0145 12.2685ZM13.1282 11.8385H12.2858V12.6809H13.1282V11.8385Z" fill="white"/>
<path d="M17.0861 17.0421C16.8053 17.0421 16.5245 17.0421 16.2437 17.0421C15.9453 17.0333 15.7873 16.8754 15.7786 16.577C15.7698 16.0154 15.7698 15.4537 15.7786 14.8921C15.7786 14.5937 15.9541 14.427 16.2437 14.427C16.8053 14.4182 17.3669 14.4182 17.9285 14.427C18.2181 14.427 18.3849 14.6025 18.3937 14.8921C18.4024 15.4537 18.4024 16.0154 18.3937 16.577C18.3937 16.8754 18.2269 17.0333 17.9285 17.0421C17.6477 17.0509 17.3669 17.0421 17.0861 17.0421ZM17.5073 16.147V15.3046H16.6737V16.147H17.5073Z" fill="white"/>
<path d="M14.0145 15.7436C14.0145 16.0244 14.0145 16.3052 14.0145 16.586C14.0145 16.8756 13.8566 17.0336 13.567 17.0424C12.9966 17.0511 12.4262 17.0511 11.8558 17.0424C11.5574 17.0424 11.3994 16.8668 11.3994 16.5685C11.3994 16.0156 11.3994 15.4628 11.3994 14.9011C11.3994 14.594 11.5662 14.4185 11.8733 14.4185C12.4262 14.4097 12.979 14.4185 13.5406 14.4185C13.8653 14.4185 14.0145 14.594 14.0233 14.9187C14.0233 15.1907 14.0233 15.4627 14.0233 15.7348L14.0145 15.7436ZM13.1282 15.3136H12.2858V16.156H13.1282V15.3136Z" fill="white"/>
<path d="M7.0293 12.2419C7.0293 11.9611 7.0293 11.6803 7.0293 11.3995C7.0293 11.1274 7.18725 10.9607 7.45929 10.9607C8.03848 10.9519 8.61766 10.9519 9.19685 10.9607C9.47767 10.9607 9.64441 11.1362 9.64441 11.417C9.64441 11.9787 9.64441 12.5403 9.64441 13.1019C9.64441 13.3915 9.47766 13.5758 9.18807 13.5758C8.61765 13.5846 8.04728 13.5846 7.47686 13.5758C7.19604 13.5758 7.03807 13.4003 7.0293 13.1195C7.0293 12.8299 7.0293 12.5403 7.0293 12.2507V12.2419ZM7.92443 11.8382V12.6807H8.75807V11.8382H7.92443Z" fill="white"/>
<path d="M8.34564 14.4443C8.61768 14.4443 8.88966 14.4443 9.16171 14.4443C9.46885 14.4443 9.64441 14.6111 9.64441 14.9094C9.64441 15.4711 9.64441 16.0327 9.64441 16.6031C9.64441 16.8927 9.46009 17.0595 9.17049 17.0595C8.61763 17.0595 8.06485 17.0595 7.50321 17.0595C7.18729 17.0595 7.02928 16.8927 7.02051 16.5856C7.02051 16.0239 7.02051 15.4623 7.02051 14.8919C7.02051 14.5935 7.18727 14.4443 7.48564 14.4355C7.76646 14.4355 8.04725 14.4355 8.32807 14.4355L8.34564 14.4443ZM8.75806 16.1907V15.3307H7.92442V16.1907H8.75806Z" fill="white"/>
<path d="M4.38784 15.3398V16.1823H3.54541V15.3398H4.38784Z" fill="#0671B8"/>
<path d="M4.37905 9.17936H3.53662V8.32812H4.37905V9.17936Z" fill="#0671B8"/>
<path d="M17.4987 9.17058H16.665V8.32812H17.4987V9.17058Z" fill="#0671B8"/>
<path d="M3.54541 11.8291H4.38784V12.6803H3.54541V11.8291Z" fill="#0671B8"/>
<path d="M8.76674 9.17936H7.92432V8.32812H8.76674V9.17936Z" fill="#0671B8"/>
<path d="M13.1281 8.32812V9.17058H12.2856V8.32812H13.1281Z" fill="#0671B8"/>
<path d="M7.92432 11.8384H8.75796V12.6808H7.92432V11.8384Z" fill="#0671B8"/>
<path d="M8.75796 16.1911H7.92432V15.3311H8.75796V16.1911Z" fill="#0671B8"/>
<circle cx="18.2451" cy="6" r="5.5" fill="#FFB422" stroke="white"/>
<path d="M17.7338 7.36364V7.32955C17.7375 6.9678 17.7754 6.67992 17.8474 6.46591C17.9194 6.25189 18.0216 6.0786 18.1542 5.94602C18.2868 5.81345 18.4459 5.69129 18.6315 5.57955C18.7432 5.51136 18.8436 5.43087 18.9326 5.33807C19.0216 5.24337 19.0917 5.13447 19.1428 5.01136C19.1959 4.88826 19.2224 4.75189 19.2224 4.60227C19.2224 4.41667 19.1788 4.25568 19.0917 4.11932C19.0046 3.98295 18.8881 3.87784 18.7423 3.80398C18.5964 3.73011 18.4345 3.69318 18.2565 3.69318C18.1012 3.69318 17.9516 3.72538 17.8076 3.78977C17.6637 3.85417 17.5434 3.95549 17.4468 4.09375C17.3502 4.23201 17.2944 4.41288 17.2792 4.63636H16.5633C16.5785 4.31439 16.6618 4.03883 16.8133 3.80966C16.9667 3.58049 17.1684 3.4053 17.4184 3.28409C17.6703 3.16288 17.9497 3.10227 18.2565 3.10227C18.5898 3.10227 18.8796 3.16856 19.1258 3.30114C19.3739 3.43371 19.5652 3.61553 19.6997 3.84659C19.836 4.07765 19.9042 4.34091 19.9042 4.63636C19.9042 4.8447 19.872 5.03314 19.8076 5.2017C19.7451 5.37027 19.6542 5.52083 19.5349 5.65341C19.4175 5.78598 19.2754 5.90341 19.1088 6.00568C18.9421 6.10985 18.8086 6.2197 18.7082 6.33523C18.6078 6.44886 18.5349 6.58428 18.4894 6.74148C18.444 6.89867 18.4194 7.0947 18.4156 7.32955V7.36364H17.7338ZM18.0974 9.04545C17.9572 9.04545 17.837 8.99527 17.7366 8.89489C17.6362 8.79451 17.586 8.67424 17.586 8.53409C17.586 8.39394 17.6362 8.27367 17.7366 8.1733C17.837 8.07292 17.9572 8.02273 18.0974 8.02273C18.2375 8.02273 18.3578 8.07292 18.4582 8.1733C18.5586 8.27367 18.6088 8.39394 18.6088 8.53409C18.6088 8.62689 18.5851 8.71212 18.5377 8.78977C18.4923 8.86742 18.4307 8.92992 18.3531 8.97727C18.2773 9.02273 18.1921 9.04545 18.0974 9.04545Z" fill="white"/>
</svg>
