<svg width="22" height="21" viewBox="0 0 22 21" fill="none" xmlns="http://www.w3.org/2000/svg">
<path d="M21.3912 20.5448C21.1435 20.9937 20.9423 21.0711 20.4316 20.9473C18.5819 20.4907 16.7323 20.034 14.8826 19.5929C14.6737 19.5387 14.5962 19.4768 14.5962 19.2447C14.6117 17.542 14.6039 15.8394 14.5962 14.1445C14.5962 13.9665 14.6349 13.8737 14.8129 13.7808C15.0606 13.6492 15.2696 13.448 15.5095 13.27C15.8965 13.7421 16.3065 14.2451 16.7167 14.7405C16.9953 15.081 17.274 15.4138 17.5449 15.762C17.7151 15.9787 17.9319 16.0793 18.2105 16.0793C19.2708 16.0793 20.3232 16.0793 21.3835 16.0793V20.5603L21.3912 20.5448Z" fill="#0671B8"/>
<path d="M21.3909 14.8102C20.4235 14.8102 19.4561 14.8179 18.4887 14.8179C18.4345 14.8179 18.3571 14.7715 18.3184 14.725C17.6374 13.8969 16.9564 13.0688 16.2754 12.2408C16.2057 12.1556 16.2057 12.0937 16.2754 12.0008C16.5463 11.5984 16.8017 11.1805 17.0725 10.7781C17.119 10.7084 17.1809 10.6542 17.2505 10.6078C18.7674 9.67135 19.7424 8.33248 20.1835 6.59891C20.199 6.54473 20.2145 6.49829 20.2377 6.4209C20.6711 6.5602 21.1974 6.50603 21.3986 7.05552V14.7947L21.3909 14.8102Z" fill="#0671B8"/>
<path d="M19.1234 5.13593C19.0305 7.11716 18.1715 8.64177 16.4379 9.6556C16.3296 9.71751 16.2211 9.81038 16.1592 9.91873C15.6175 10.7391 15.0914 11.5672 14.5574 12.3875C14.3639 12.6816 14.1161 12.8209 13.8452 12.7126C13.6827 12.6507 13.5202 12.5113 13.4273 12.372C12.8778 11.5594 12.3594 10.7236 11.8177 9.90325C11.7558 9.81038 11.6628 9.72524 11.5622 9.67107C9.63516 8.62628 8.58272 6.4748 8.93872 4.30783C9.28699 2.20278 10.8812 0.538865 12.9785 0.105472C15.8266 -0.490444 18.659 1.50626 19.0614 4.39296C19.0924 4.64062 19.1079 4.88827 19.1389 5.1514L19.1234 5.13593ZM16.7629 5.13593C16.7629 3.59584 15.5093 2.34209 13.9769 2.34209C12.4446 2.34209 11.1908 3.61131 11.1985 5.14366C11.1985 6.67602 12.4446 7.91428 13.9769 7.92202C15.5093 7.92202 16.7629 6.67602 16.7629 5.13593Z" fill="#FFB422"/>
<path d="M0.0154934 11.5284C0.0154934 11.451 0 11.3968 0 11.3427C0 9.43882 0 7.53499 0 5.63116C0 5.11264 0.332656 4.8495 0.835701 4.96559C2.74728 5.42994 4.65896 5.90203 6.5628 6.36638C6.60923 6.37412 6.65561 6.3896 6.70205 6.40508V14.6782C6.70205 14.6782 6.65555 14.7169 6.63233 14.7401C6.59363 14.6705 6.57049 14.5931 6.51632 14.5467C5.63405 13.6412 4.74411 12.7512 3.86958 11.8457C3.65289 11.6213 3.41297 11.5129 3.09567 11.5207C2.14375 11.5361 1.19187 11.5207 0.232213 11.5207H0L0.0154934 11.5284Z" fill="#0671B8"/>
<path d="M0 12.7592C0.998352 12.7592 1.96578 12.7592 2.93317 12.7592C2.99509 12.7592 3.08022 12.8056 3.12665 12.8521C4.29527 14.0362 5.45616 15.228 6.62477 16.4198C6.67121 16.4663 6.71754 16.5514 6.71754 16.6133C6.71754 18.0064 6.71754 19.3994 6.71754 20.7925C6.71754 20.8079 6.70979 20.8157 6.70205 20.8544C6.2377 20.746 5.77332 20.6299 5.31671 20.5216C3.7534 20.1346 2.19022 19.7477 0.619171 19.3685C0.16256 19.2601 0.00774672 19.0589 0.00774672 18.5868C0.00774672 16.7217 0.00774672 14.8488 0.00774672 12.9836C0.00774672 12.914 0.00774672 12.8443 0.00774672 12.7515L0 12.7592Z" fill="#0671B8"/>
<path d="M11.0902 11.0796C11.1521 11.1725 11.1987 11.2266 11.2374 11.2886C11.6166 11.8767 11.9958 12.4572 12.375 13.0453C12.5917 13.3859 12.8702 13.6567 13.2495 13.827C13.3036 13.8502 13.3657 13.9353 13.3657 13.9895C13.3657 15.8314 13.3657 17.6734 13.3657 19.5153C13.3657 19.5153 13.3656 19.5308 13.3502 19.554C11.5702 19.9874 9.7747 20.4285 7.96374 20.8774C7.96374 20.7922 7.94824 20.7381 7.94824 20.6761C7.94824 19.3218 7.94824 17.9674 7.94824 16.6131C7.94824 16.5047 7.97909 16.3887 8.03327 16.3035C9.00066 14.6241 9.97581 12.9525 10.9509 11.2808C10.9819 11.2266 11.0205 11.1725 11.0825 11.0873L11.0902 11.0796Z" fill="#0671B8"/>
<path d="M7.96387 7.30273C8.42822 8.47135 9.14008 9.43875 10.1384 10.2204C9.41869 11.4587 8.70667 12.6815 7.99467 13.9042C7.98693 13.9042 7.97161 13.9042 7.96387 13.8965V7.30273Z" fill="#0671B8"/>
</svg>
