<svg width="21" height="21" viewBox="0 0 21 21" fill="none" xmlns="http://www.w3.org/2000/svg">
<path d="M0.0244502 7.15008C0.0244502 6.70226 0.0977016 6.24631 0.301255 5.84735C0.325681 5.79035 0.358238 5.73335 0.390806 5.6845C0.740918 5.1634 1.27828 4.92729 1.89708 4.91915C2.4996 4.91915 3.10219 4.911 3.70471 4.91915C4.20952 4.92729 4.5922 5.1634 4.82018 5.61936C5.39013 6.75111 5.96004 7.87474 6.5137 9.01464C6.57884 9.14491 6.70915 9.22633 6.85571 9.22633C7.77577 9.22633 8.68769 9.22633 9.60775 9.22633C9.68103 9.22633 9.75424 9.22633 9.84381 9.22633V11.0746C9.78681 11.0746 9.738 11.0746 9.681 11.0746C8.3864 11.0746 7.09994 11.0746 5.80534 11.0746C5.67507 11.0746 5.60182 11.042 5.53669 10.9117C5.33313 10.4884 5.11327 10.065 4.89343 9.61715C4.87714 9.59272 4.8446 9.57644 4.82018 9.59272L3.77796 10.1138C3.81053 10.179 3.82678 10.236 3.85121 10.2848C4.1769 10.9443 4.51069 11.5957 4.83638 12.2633C4.90151 12.3855 4.92603 12.5239 4.92603 12.6704C4.92603 15.4306 4.92603 18.1827 4.92603 20.9429C4.92603 20.9754 4.90155 20.9999 4.86898 20.9999H3.1347C3.1347 20.9999 3.07775 20.9754 3.07775 20.9429V13.6068C3.07775 13.6068 3.05327 13.5498 3.0207 13.5498H1.90523C1.90523 13.5498 1.84828 13.5742 1.84828 13.6068V20.9429C1.84828 20.9429 1.8238 20.9999 1.79123 20.9999H0.0569512C0.0569512 20.9999 0 20.9754 0 20.9429V7.15823L0.0244502 7.15008Z" fill="#0671B8"/>
<path d="M6.18799 15.9926V12.3042H6.39154C10.6173 12.3042 14.835 12.3042 19.0607 12.3042C19.6144 12.3042 20.0785 12.467 20.4286 12.8009C21.601 13.9245 20.7135 15.9356 19.0932 15.9844C19.0525 15.9844 19.0119 15.9844 18.9712 15.9844C14.7943 15.9844 10.6255 15.9844 6.44859 15.9844H6.18799V15.9926ZM17.3834 14.6817C17.2694 14.3153 17.2776 13.9652 17.3834 13.6069C17.3916 13.5744 17.3672 13.5337 17.3346 13.5337H14.7617C14.7617 13.5337 14.6965 13.5662 14.7128 13.6069C14.8268 13.9652 14.8105 14.3234 14.7128 14.6817C14.7046 14.7143 14.7291 14.755 14.7617 14.755H17.3346C17.3346 14.755 17.3997 14.7143 17.3834 14.6817ZM11.1873 14.6817C11.0733 14.3234 11.0814 13.9652 11.1873 13.6151C11.1954 13.5825 11.171 13.5418 11.1385 13.5418H8.61433C8.61433 13.5418 8.54924 13.5744 8.56553 13.6151C8.67952 13.9733 8.67137 14.3234 8.56553 14.6817C8.55738 14.7143 8.58176 14.755 8.61433 14.755H11.1465C11.1465 14.755 11.2117 14.7224 11.1954 14.6817H11.1873Z" fill="#0671B8"/>
<path d="M19.7282 11.0583H13.6297C13.6297 11.0583 13.5728 11.0339 13.5728 11.0013V6.21374C13.5728 6.21374 13.5971 6.15674 13.6297 6.15674H15.9991C15.9991 6.15674 16.056 6.18117 16.056 6.21374V7.30478C16.056 7.30478 16.0805 7.36178 16.1131 7.36178H17.2286C17.2286 7.36178 17.2855 7.33735 17.2855 7.30478V6.21374C17.2855 6.21374 17.31 6.15674 17.3426 6.15674H19.7282C19.7282 6.15674 19.7852 6.18117 19.7852 6.21374V11.0013C19.7852 11.0013 19.7607 11.0583 19.7282 11.0583Z" fill="#FFB422"/>
<path d="M11.0978 7.98872H10.8535C9.76243 7.98872 8.67952 7.98872 7.58848 7.98872C7.4582 7.98872 7.34422 7.91544 7.28722 7.80145C7.03482 7.28036 6.7743 6.7674 6.50561 6.23816C6.48933 6.19745 6.50566 6.15674 6.55451 6.15674H8.57374C8.57374 6.15674 8.63069 6.18117 8.63069 6.21374V7.30478C8.63069 7.30478 8.65518 7.36178 8.68775 7.36178H9.80321C9.80321 7.36178 9.86016 7.33735 9.86016 7.30478V6.21374C9.86016 6.21374 9.88465 6.15674 9.91721 6.15674H12.2622C12.2622 6.15674 12.3191 6.18117 12.3191 6.21374V10.9932C12.3191 10.9932 12.2947 11.0502 12.2622 11.0502H11.1547C11.1547 11.0502 11.0978 11.0257 11.0978 10.9932V7.98872Z" fill="#FFB422"/>
<path d="M2.45879 3.68168C1.44102 3.64911 0.618682 2.81047 0.643109 1.81713C0.667535 0.791218 1.53055 -0.0392751 2.52389 0.00143552C3.5498 0.0421462 4.36408 0.888925 4.32337 1.88227C4.2908 2.90003 3.44398 3.72239 2.45064 3.68982L2.45879 3.68168Z" fill="#0671B8"/>
</svg>
