<svg width="24" height="24" viewBox="0 0 24 24" fill="none" xmlns="http://www.w3.org/2000/svg">
<path d="M23.0044 22.0672H0.981201C0.981201 21.5976 0.981201 21.1279 0.981201 20.6667C0.981201 20.1467 1.29989 19.8364 1.81147 19.828C1.9205 19.828 2.02952 19.828 2.16371 19.828C2.16371 19.719 2.16371 19.6267 2.16371 19.5345C2.16371 17.1443 2.16371 14.7541 2.16371 12.3723C2.16371 11.4834 2.16371 10.5944 2.16371 9.70541C2.16371 9.62154 2.20564 9.51252 2.27274 9.4622C2.54949 9.22738 2.84301 9.01771 3.12816 8.79965C3.94166 9.93184 5.67768 10.0325 6.65892 8.76611C7.09502 9.36156 7.68208 9.69702 8.42848 9.70541C9.17489 9.70541 9.75356 9.36156 10.1981 8.76611C10.6509 9.37833 11.2296 9.70541 11.9676 9.70541C12.7056 9.70541 13.2927 9.36994 13.7372 8.7745C14.6597 9.99894 16.3538 10.0325 17.3015 8.7745C17.7376 9.37833 18.333 9.70541 19.0794 9.70541C19.8175 9.70541 20.4045 9.36155 20.8155 8.80804C21.0838 9.02609 21.3103 9.25253 21.5786 9.42027C21.7464 9.5209 21.7883 9.62992 21.7883 9.80604C21.7883 13.0433 21.7883 16.2805 21.7883 19.5261C21.7883 19.6267 21.7883 19.7274 21.7883 19.8448C21.9057 19.8448 21.9896 19.8448 22.0735 19.8448C22.6773 19.8448 22.9792 20.1467 22.9792 20.7505C22.9792 21.195 22.9792 21.6395 22.9792 22.084L23.0044 22.0672ZM10.3742 19.8196C10.3742 19.7525 10.3826 19.719 10.3826 19.6771C10.3826 17.3624 10.3826 15.0393 10.3826 12.7246C10.3826 12.1627 10.0135 11.8104 9.45165 11.8021C8.15173 11.8021 6.86019 11.8021 5.56027 11.8021C4.89773 11.8021 4.57905 12.1291 4.57905 12.8001C4.57905 15.056 4.57905 17.312 4.57905 19.568C4.57905 19.6519 4.57905 19.7358 4.57905 19.8196H10.3742ZM16.077 17.0269C16.8318 17.0269 17.5866 17.0269 18.3498 17.0269C18.7859 17.0269 18.9956 16.8172 19.004 16.3811C19.004 15.0141 19.004 13.6555 19.004 12.2885C19.004 11.844 18.7859 11.6343 18.3414 11.6343C16.8318 11.6343 15.3306 11.6343 13.8211 11.6343C13.3598 11.6343 13.1501 11.8356 13.1501 12.3053C13.1501 13.6555 13.1501 15.0057 13.1501 16.356C13.1501 16.8424 13.343 17.0353 13.8378 17.0353C14.5842 17.0353 15.339 17.0353 16.0854 17.0353L16.077 17.0269Z" fill="#0671B8"/>
<path d="M0 7.26465H2.73403C2.88499 7.9188 2.51598 8.59811 1.89537 8.84971C1.25799 9.1097 0.519968 8.87487 0.150959 8.28781C0.100639 8.21233 0.0503195 8.13685 0 8.06137V7.26465Z" fill="#FFB422"/>
<path d="M21.8304 3.16374H2.16382C2.19736 2.76957 2.18059 2.40057 2.26446 2.05672C2.40703 1.4445 2.97732 1.02516 3.59793 1C3.65664 1 3.72373 1 3.78244 1C9.25887 1 14.7437 1 20.2201 1C21.0085 1 21.5955 1.41094 21.7549 2.11542C21.8304 2.45927 21.8052 2.8199 21.8304 3.17213V3.16374Z" fill="#0671B8"/>
<path d="M10.7852 3.90186H13.2174C13.2761 4.78245 13.3348 5.67142 13.4019 6.56878H10.6091C10.6678 5.68819 10.7265 4.80761 10.7852 3.90186Z" fill="#FFB422"/>
<path d="M16.8905 6.58548H14.1061C14.0474 5.6965 13.9803 4.81591 13.9216 3.91016H16.3454C16.5215 4.79075 16.706 5.67134 16.8905 6.58548Z" fill="#FFB422"/>
<path d="M7.64857 3.90186H10.0723C10.0136 4.79922 9.95487 5.6882 9.89617 6.57718H7.11182C7.29632 5.67981 7.47245 4.79922 7.65695 3.90186H7.64857Z" fill="#FFB422"/>
<path d="M17.0667 3.89324C17.855 3.89324 18.6182 3.89324 19.3813 3.89324C19.4233 3.89324 19.4904 3.95194 19.5071 3.99388C19.8007 4.84092 20.0858 5.68796 20.3793 6.56017C20.2871 6.56856 20.22 6.57695 20.1529 6.57695C19.3813 6.57695 18.6098 6.57695 17.8382 6.57695C17.6789 6.57695 17.6118 6.5434 17.5782 6.36728C17.4189 5.5454 17.2512 4.72351 17.075 3.87646L17.0667 3.89324Z" fill="#FFB422"/>
<path d="M20.2452 3.89355C20.9077 3.89355 21.5535 3.89355 22.1993 3.89355C22.4509 3.89355 22.6522 4.03612 22.7528 4.26255C23.1218 5.01735 23.474 5.78053 23.843 6.56048C23.7676 6.56887 23.7089 6.58564 23.6501 6.58564C22.8702 6.58564 22.0903 6.58564 21.3103 6.58564C21.1929 6.58564 21.109 6.58564 21.0587 6.44307C20.7903 5.62118 20.5136 4.80768 20.2368 3.98579C20.2368 3.96902 20.2368 3.94387 20.2368 3.89355H20.2452Z" fill="#FFB422"/>
<path d="M0.134277 6.56045C0.52006 5.74696 0.880684 4.967 1.27485 4.19543C1.35033 4.05286 1.55999 3.90191 1.71095 3.89353C2.38188 3.85998 3.06119 3.87675 3.75727 3.87675C3.7405 3.94384 3.73212 4.00255 3.71535 4.06126C3.45537 4.83282 3.19538 5.61276 2.92701 6.38433C2.90185 6.45981 2.80121 6.55207 2.73412 6.55207C1.88707 6.56046 1.03164 6.55207 0.134277 6.55207V6.56045Z" fill="#FFB422"/>
<path d="M3.63143 6.56009C3.67336 6.43429 3.69852 6.34204 3.73206 6.24979C3.97527 5.52854 4.21849 4.80729 4.45331 4.07765C4.49524 3.93508 4.56235 3.88477 4.71331 3.88477C5.43455 3.89315 6.16418 3.88477 6.91897 3.88477C6.80156 4.45505 6.69254 5.00857 6.58351 5.56208C6.5248 5.84723 6.47448 6.13238 6.40739 6.40914C6.39061 6.46784 6.31513 6.55171 6.2732 6.55171C5.40099 6.56009 4.5288 6.55171 3.62305 6.55171L3.63143 6.56009Z" fill="#FFB422"/>
<path d="M16.9577 7.31494C17.0164 7.93555 16.8151 8.43875 16.2868 8.76583C15.7836 9.07613 15.2636 9.06775 14.7688 8.74067C14.2656 8.41359 14.0895 7.91878 14.1314 7.31494H16.9577Z" fill="#FFB422"/>
<path d="M17.6957 7.30672H20.5136C20.564 7.87701 20.4046 8.33827 19.9601 8.6905C19.5156 9.04274 18.8866 9.07629 18.4002 8.79115C17.8886 8.49762 17.6203 7.94411 17.7041 7.29834L17.6957 7.30672Z" fill="#FFB422"/>
<path d="M7.04476 7.31494H9.86265C9.90458 7.92716 9.73685 8.42197 9.21688 8.75743C8.71368 9.08451 8.17695 9.07612 7.67375 8.75743C7.16217 8.42197 6.97766 7.92717 7.03636 7.32334L7.04476 7.31494Z" fill="#FFB422"/>
<path d="M10.6091 7.31494C11.5316 7.31494 12.4541 7.31494 13.3766 7.31494C13.5108 7.78459 13.2928 8.36326 12.865 8.69034C12.3954 9.05096 11.7748 9.08451 11.2632 8.78259C10.7516 8.47229 10.5 7.91878 10.6091 7.31494Z" fill="#FFB422"/>
<path d="M21.2348 7.30664H23.9604C24.0778 7.90209 23.9436 8.40529 23.4237 8.74075C22.9288 9.05944 22.4089 9.07621 21.8973 8.76591C21.3689 8.43883 21.176 7.93563 21.2348 7.30664Z" fill="#FFB422"/>
<path d="M3.48037 7.31494H6.31503C6.35696 7.91039 6.18084 8.38844 5.68603 8.71551C5.19123 9.04259 4.67126 9.05097 4.16806 8.74905C3.6481 8.43036 3.44682 7.93555 3.48037 7.31494Z" fill="#FFB422"/>
</svg>
