<svg width="26" height="22" viewBox="0 0 26 22" fill="none" xmlns="http://www.w3.org/2000/svg">
<path d="M0.0175781 20.8045V6.46729C0.0175781 6.46729 0.106102 6.46729 0.150408 6.46729C7.07091 6.46729 13.9827 6.46729 20.9032 6.46729C21.0095 6.46729 21.1158 6.46729 21.2398 6.46729C21.2398 6.60906 21.2398 6.70653 21.2398 6.79514C21.2398 11.3232 21.2398 15.8512 21.2398 20.3792C21.2398 21.4071 20.717 21.9299 19.698 21.9299C14.9928 21.9299 10.2787 21.9299 5.57349 21.9299C4.19117 21.9299 2.81777 21.9299 1.43544 21.9299C0.735412 21.9299 0.256879 21.5577 0.0707965 20.8843C0.0707965 20.8488 0.04417 20.8222 0.0264479 20.7957L0.0175781 20.8045ZM15.0548 11.7751C14.1333 11.7751 13.256 12.1206 12.6003 12.7586C11.6699 13.6713 11.0496 15.16 11.9889 16.9499C12.7244 18.3588 13.6548 19.626 14.665 20.8311C14.9042 21.1235 18.1739 19.9007 18.4132 19.6083C18.7145 19.245 16.4639 21.7172 16.7474 21.3362C17.5183 20.3172 13.256 22.2489 13.7168 21.0438C13.8674 20.6539 12.4054 19.5551 12.4054 19.1475C11.4218 17.1803 8.01024 11.3763 15.0459 11.7662L15.0548 11.7751ZM4.03167 15.3106C3.75698 15.3106 3.48235 15.3106 3.20765 15.3106C2.85321 15.3106 2.69363 15.4613 2.68477 15.8069C2.68477 16.3562 2.68477 16.9056 2.68477 17.4639C2.68477 17.7917 2.86205 17.9512 3.18991 17.9601C3.7393 17.9601 4.28858 17.9601 4.84683 17.9601C5.16582 17.9601 5.33424 17.8006 5.3431 17.4905C5.35196 16.9234 5.35196 16.3562 5.3431 15.7803C5.3431 15.4701 5.16582 15.3195 4.84683 15.3195C4.58099 15.3195 4.31525 15.3195 4.04941 15.3195L4.03167 15.3106ZM2.68477 9.56866C2.68477 9.84336 2.68477 10.118 2.68477 10.3927C2.69363 10.7117 2.85317 10.8712 3.16331 10.8801C3.72155 10.8801 4.27972 10.8801 4.84683 10.8801C5.16582 10.8801 5.33423 10.7206 5.33423 10.4016C5.34309 9.84335 5.34309 9.2851 5.33423 8.71799C5.33423 8.39013 5.15695 8.23064 4.82909 8.22178C4.28856 8.22178 3.73931 8.22178 3.19878 8.22178C2.8532 8.22178 2.69363 8.39013 2.68477 8.72685C2.68477 9.00154 2.68477 9.27624 2.68477 9.55094V9.56866ZM17.2612 10.8801C17.5448 10.8801 17.8283 10.8801 18.1118 10.8801C18.4131 10.8712 18.5815 10.7206 18.5815 10.4105C18.5904 9.84336 18.5904 9.27625 18.5815 8.70914C18.5815 8.40786 18.4043 8.2395 18.1118 8.2395C17.5447 8.23064 16.9777 8.23064 16.4106 8.2395C16.1182 8.2395 15.9409 8.41672 15.9409 8.70914C15.9321 9.27625 15.9321 9.84336 15.9409 10.4105C15.9409 10.7117 16.1093 10.8712 16.4106 10.8801C16.6941 10.889 16.9777 10.8801 17.2612 10.8801ZM4.03167 11.7662C3.74812 11.7662 3.4646 11.7662 3.18105 11.7662C2.86205 11.7662 2.69364 11.9257 2.69364 12.2447C2.68478 12.8029 2.68478 13.3612 2.69364 13.9283C2.69364 14.2562 2.87092 14.4157 3.19878 14.4245C3.74817 14.4245 4.29745 14.4245 4.85569 14.4245C5.16583 14.4245 5.3431 14.2562 5.3431 13.946C5.35196 13.3878 5.35196 12.8295 5.3431 12.2624C5.3431 11.9346 5.17468 11.7839 4.83796 11.7751C4.57212 11.7751 4.30638 11.7751 4.04054 11.7751L4.03167 11.7662ZM9.7559 9.55094C9.7559 9.28511 9.7559 9.01927 9.7559 8.75343C9.7559 8.40785 9.58749 8.23063 9.25963 8.23063C8.71024 8.23063 8.16096 8.23063 7.60272 8.23063C7.27486 8.23063 7.11531 8.399 7.11531 8.73572C7.11531 9.28511 7.11531 9.83449 7.11531 10.3927C7.11531 10.7117 7.26598 10.8801 7.58498 10.8801C8.15209 10.889 8.71913 10.889 9.28624 10.8801C9.59637 10.8801 9.74704 10.7029 9.7559 10.3839C9.7559 10.1092 9.7559 9.83449 9.7559 9.55979V9.55094ZM14.1687 9.55979C14.1687 9.2851 14.1687 9.01041 14.1687 8.73572C14.1687 8.40786 14.0092 8.23063 13.6813 8.23063C13.1231 8.23063 12.5649 8.23063 11.9978 8.23063C11.6876 8.23063 11.5192 8.40786 11.5192 8.71799C11.5192 9.27624 11.5192 9.83449 11.5192 10.4016C11.5192 10.7029 11.6876 10.8712 11.98 10.8801C12.556 10.889 13.1319 10.889 13.7079 10.8801C14.0003 10.8801 14.151 10.7117 14.1598 10.4193C14.1598 10.1358 14.1598 9.85222 14.1598 9.56866L14.1687 9.55979ZM7.11531 13.0688C7.11531 13.3612 7.11531 13.6536 7.11531 13.946C7.11531 14.2296 7.28368 14.4068 7.56724 14.4068C8.14321 14.4157 8.71914 14.4157 9.29511 14.4068C9.58752 14.4068 9.7559 14.2207 9.7559 13.9283C9.7559 13.3612 9.7559 12.7941 9.7559 12.227C9.7559 11.9434 9.58753 11.7751 9.30398 11.7662C8.71914 11.7573 8.13433 11.7573 7.5495 11.7662C7.27481 11.7662 7.12418 11.9346 7.11531 12.2093C7.11531 12.4928 7.11531 12.7764 7.11531 13.0599V13.0688ZM8.44448 15.3018C8.16092 15.3018 7.8774 15.3018 7.59385 15.3018C7.29257 15.3018 7.12418 15.4613 7.12418 15.7626C7.12418 16.3297 7.12418 16.8968 7.12418 17.4727C7.12418 17.7829 7.29259 17.9424 7.61159 17.9512C8.16984 17.9512 8.728 17.9512 9.29511 17.9512C9.58752 17.9512 9.76478 17.774 9.77364 17.4905C9.77364 16.9234 9.77364 16.3562 9.77364 15.7803C9.77364 15.4701 9.59637 15.3106 9.28624 15.3106C9.01154 15.3106 8.73691 15.3106 8.46222 15.3106L8.44448 15.3018Z" fill="#0671B8"/>
<path d="M0.0177395 5.58996V2.74555C0.381044 1.82399 0.691104 1.6202 1.71013 1.6202C2.23293 1.6202 2.76462 1.6202 3.28743 1.6202C3.36718 1.6202 3.45583 1.6202 3.5533 1.6202C3.5533 2.17845 3.5533 2.69238 3.5533 3.20633C3.5533 3.39241 3.56222 3.58736 3.61539 3.76458C3.79261 4.37599 4.39503 4.77474 5.02416 4.70385C5.68875 4.6241 6.18504 4.08358 6.20276 3.37469C6.22048 2.88733 6.20276 2.39111 6.20276 1.90375C6.20276 1.81513 6.21164 1.72653 6.2205 1.62905H15.0284C15.0284 2.19616 15.0284 2.74555 15.0284 3.29494C15.0284 4.1013 15.5955 4.69499 16.3398 4.70385C17.1018 4.70385 17.669 4.12788 17.6778 3.3038C17.6778 2.86961 17.6778 2.44427 17.6778 2.01007C17.6778 1.88602 17.6778 1.76197 17.6778 1.64678C17.731 1.6202 17.7488 1.61133 17.7665 1.61133C18.4488 1.61133 19.1312 1.61133 19.8135 1.61133C20.6464 1.61133 21.2134 2.17844 21.2134 3.01138C21.2134 3.72027 21.2134 4.42915 21.2134 5.12918C21.2134 5.27096 21.2134 5.41274 21.2134 5.5811H0L0.0177395 5.58996Z" fill="#0671B8"/>
<path d="M16.482 0.725586C16.739 0.849641 16.8275 1.05345 16.8186 1.32815C16.8098 2.00159 16.8186 2.66616 16.8186 3.3396C16.8186 3.53455 16.7566 3.72063 16.5616 3.7738C16.4287 3.80924 16.2426 3.80038 16.1363 3.72949C16.0388 3.66746 15.9503 3.49025 15.9503 3.3662C15.9325 2.64845 15.9503 1.92183 15.9503 1.19522C15.9503 0.955973 16.101 0.823058 16.296 0.725586H16.4998H16.482Z" fill="#0671B8"/>
<path d="M4.98873 0.725586C5.26343 0.849641 5.34308 1.0623 5.33422 1.34586C5.32536 1.975 5.33422 2.60414 5.33422 3.23327C5.33422 3.30416 5.33421 3.37505 5.32535 3.43708C5.28105 3.67632 5.10382 3.82697 4.8823 3.82697C4.66077 3.82697 4.46585 3.65861 4.46585 3.41936C4.45699 2.66617 4.46585 1.90412 4.46585 1.15093C4.46585 0.929401 4.62524 0.823058 4.7936 0.725586H4.9976H4.98873Z" fill="#0671B8"/>
<path d="M4.03163 15.3106C4.29747 15.3106 4.56321 15.3106 4.82904 15.3106C5.14804 15.3106 5.32532 15.4613 5.32532 15.7714C5.33418 16.3385 5.33418 16.9056 5.32532 17.4816C5.32532 17.7917 5.14804 17.9512 4.82904 17.9512C4.27966 17.9512 3.73038 17.9512 3.17213 17.9512C2.84427 17.9512 2.67585 17.7917 2.66699 17.455C2.66699 16.9056 2.66699 16.3562 2.66699 15.798C2.66699 15.4524 2.83543 15.3018 3.18987 15.3018C3.46457 15.3018 3.7392 15.3018 4.01389 15.3018L4.03163 15.3106ZM4.43921 16.2056H3.58858V17.0563H4.43921V16.2056Z" fill="white"/>
<path d="M2.67581 9.5777C2.67581 9.303 2.67581 9.0283 2.67581 8.75361C2.68467 8.41689 2.8531 8.24854 3.18983 8.24854C3.73035 8.24854 4.2796 8.24854 4.82013 8.24854C5.14799 8.24854 5.31641 8.41689 5.32527 8.74475C5.33413 9.303 5.33413 9.86124 5.32527 10.4284C5.32527 10.7474 5.15686 10.898 4.83787 10.9069C4.27962 10.9069 3.72146 10.9069 3.15435 10.9069C2.84421 10.9069 2.68467 10.7385 2.67581 10.4195C2.66695 10.1448 2.67581 9.87012 2.67581 9.59542V9.5777ZM4.43029 9.99417V9.13464H3.57966V9.99417H4.43029Z" fill="white"/>
<path d="M17.2527 10.8889C16.9692 10.8889 16.6856 10.8889 16.4021 10.8889C16.1008 10.8801 15.9413 10.7206 15.9324 10.4193C15.9236 9.8522 15.9236 9.28509 15.9324 8.71798C15.9324 8.4167 16.1097 8.24835 16.4021 8.24835C16.9692 8.23948 17.5362 8.23948 18.1033 8.24835C18.3958 8.24835 18.5642 8.42557 18.573 8.71798C18.5819 9.28509 18.5819 9.8522 18.573 10.4193C18.573 10.7206 18.4046 10.8801 18.1033 10.8889C17.8198 10.8978 17.5363 10.8889 17.2527 10.8889ZM17.678 9.98511V9.13445H16.8363V9.98511H17.678Z" fill="white"/>
<path d="M4.02298 11.7755C4.28881 11.7755 4.55456 11.7755 4.82039 11.7755C5.15711 11.7755 5.31667 11.935 5.32553 12.2628C5.3344 12.8211 5.3344 13.3793 5.32553 13.9464C5.32553 14.2566 5.14827 14.4249 4.83813 14.4249C4.28874 14.4249 3.73947 14.4249 3.18122 14.4249C2.85336 14.4249 2.68494 14.2566 2.67608 13.9287C2.66722 13.3705 2.66722 12.8122 2.67608 12.2451C2.67608 11.9261 2.84448 11.7755 3.16348 11.7666C3.44704 11.7666 3.73056 11.7666 4.01411 11.7666L4.02298 11.7755ZM3.57993 12.6704V13.5299H4.43056V12.6704H3.57993Z" fill="white"/>
<path d="M9.74703 9.55963C9.74703 9.83432 9.74703 10.109 9.74703 10.3837C9.74703 10.7027 9.58751 10.8711 9.27737 10.8799C8.71026 10.8888 8.14322 10.8888 7.57611 10.8799C7.25711 10.8799 7.10645 10.7116 7.10645 10.3926C7.10645 9.84319 7.10645 9.29381 7.10645 8.73556C7.10645 8.4077 7.26599 8.23933 7.59385 8.23047C8.14324 8.23047 8.69251 8.23047 9.25076 8.23047C9.58748 8.23047 9.74703 8.40769 9.74703 8.75327C9.74703 9.0191 9.74703 9.28494 9.74703 9.55078V9.55963ZM8.85205 9.99383V9.1343H8.00142V9.99383H8.85205Z" fill="white"/>
<path d="M14.1601 9.57731C14.1601 9.86086 14.1601 10.1444 14.1601 10.428C14.1601 10.7204 14.0006 10.8799 13.7082 10.8887C13.1322 10.8976 12.5563 10.8976 11.9803 10.8887C11.679 10.8887 11.5195 10.7115 11.5195 10.4103C11.5195 9.852 11.5195 9.29375 11.5195 8.72664C11.5195 8.4165 11.6879 8.23929 11.9981 8.23929C12.5563 8.23043 13.1145 8.23929 13.6816 8.23929C14.0094 8.23929 14.1601 8.4165 14.169 8.74436C14.169 9.01906 14.169 9.29376 14.169 9.56845L14.1601 9.57731ZM13.2651 9.14311H12.4145V9.99378H13.2651V9.14311Z" fill="white"/>
<path d="M17.2527 14.4246C16.9692 14.4246 16.6856 14.4246 16.4021 14.4246C16.1008 14.4157 15.9413 14.2562 15.9324 13.955C15.9236 13.3878 15.9236 12.8207 15.9324 12.2536C15.9324 11.9523 16.1097 11.784 16.4021 11.784C16.9692 11.7751 17.5362 11.7751 18.1033 11.784C18.3958 11.784 18.5642 11.9612 18.573 12.2536C18.5819 12.8207 18.5819 13.3878 18.573 13.955C18.573 14.2562 18.4046 14.4157 18.1033 14.4246C17.8198 14.4334 17.5363 14.4246 17.2527 14.4246ZM17.678 13.5208V12.6701H16.8363V13.5208H17.678Z" fill="white"/>
<path d="M14.1601 13.1135C14.1601 13.397 14.1601 13.6806 14.1601 13.9641C14.1601 14.2565 14.0006 14.416 13.7082 14.4249C13.1322 14.4338 12.5563 14.4338 11.9803 14.4249C11.679 14.4249 11.5195 14.2477 11.5195 13.9464C11.5195 13.3881 11.5195 12.8299 11.5195 12.2628C11.5195 11.9526 11.6879 11.7754 11.9981 11.7754C12.5563 11.7666 13.1145 11.7754 13.6816 11.7754C14.0094 11.7754 14.1601 11.9527 14.169 12.2805C14.169 12.5552 14.169 12.8299 14.169 13.1046L14.1601 13.1135ZM13.2651 12.6793H12.4145V13.5299H13.2651V12.6793Z" fill="white"/>
<path d="M17.2527 17.9334C16.9692 17.9334 16.6856 17.9334 16.4021 17.9334C16.1008 17.9245 15.9413 17.765 15.9324 17.4637C15.9236 16.8966 15.9236 16.3295 15.9324 15.7624C15.9324 15.4611 16.1097 15.2928 16.4021 15.2928C16.9692 15.2839 17.5362 15.2839 18.1033 15.2928C18.3958 15.2928 18.5642 15.47 18.573 15.7624C18.5819 16.3295 18.5819 16.8966 18.573 17.4637C18.573 17.765 18.4046 17.9245 18.1033 17.9334C17.8198 17.9422 17.5363 17.9334 17.2527 17.9334ZM17.678 17.0296V16.1789H16.8363V17.0296H17.678Z" fill="white"/>
<path d="M14.1601 16.6222C14.1601 16.9058 14.1601 17.1893 14.1601 17.4729C14.1601 17.7653 14.0006 17.9248 13.7082 17.9337C13.1322 17.9425 12.5563 17.9425 11.9803 17.9337C11.679 17.9337 11.5195 17.7565 11.5195 17.4552C11.5195 16.8969 11.5195 16.3387 11.5195 15.7716C11.5195 15.4614 11.6879 15.2842 11.9981 15.2842C12.5563 15.2754 13.1145 15.2842 13.6816 15.2842C14.0094 15.2842 14.1601 15.4614 14.169 15.7893C14.169 16.064 14.169 16.3387 14.169 16.6134L14.1601 16.6222ZM13.2651 16.188H12.4145V17.0387H13.2651V16.188Z" fill="white"/>
<path d="M7.10645 13.0865C7.10645 12.8029 7.10645 12.5194 7.10645 12.2358C7.10645 11.9611 7.26594 11.7928 7.54063 11.7928C8.12546 11.7839 8.71028 11.7839 9.29511 11.7928C9.57866 11.7928 9.74703 11.97 9.74703 12.2536C9.74703 12.8207 9.74703 13.3878 9.74703 13.9549C9.74703 14.2473 9.57865 14.4334 9.28624 14.4334C8.71027 14.4422 8.13434 14.4422 7.55837 14.4334C7.27481 14.4334 7.11531 14.2562 7.10645 13.9726C7.10645 13.6802 7.10645 13.3878 7.10645 13.0954V13.0865ZM8.01029 12.6789V13.5295H8.85205V12.6789H8.01029Z" fill="white"/>
<path d="M8.4269 15.3106C8.70159 15.3106 8.97623 15.3106 9.25092 15.3106C9.56106 15.3106 9.73832 15.479 9.73832 15.7803C9.73832 16.3474 9.73832 16.9145 9.73832 17.4904C9.73832 17.7829 9.55221 17.9512 9.25979 17.9512C8.70154 17.9512 8.14338 17.9512 7.57627 17.9512C7.25727 17.9512 7.09773 17.7829 7.08887 17.4727C7.08887 16.9056 7.08887 16.3385 7.08887 15.7625C7.08887 15.4613 7.25725 15.3106 7.55853 15.3018C7.84209 15.3018 8.12561 15.3018 8.40916 15.3018L8.4269 15.3106ZM8.84334 17.074V16.2056H8.00158V17.074H8.84334Z" fill="white"/>
<path d="M4.43071 16.2148V17.0655H3.58008V16.2148H4.43071Z" fill="#0671B8"/>
<path d="M4.43071 9.99429H3.58008V9.13477H4.43071V9.99429Z" fill="#0671B8"/>
<path d="M17.6777 9.98542H16.8359V9.13477H17.6777V9.98542Z" fill="#0671B8"/>
<path d="M3.58008 12.6699H4.43071V13.5294H3.58008V12.6699Z" fill="#0671B8"/>
<path d="M8.85209 9.99429H8.00146V9.13477H8.85209V9.99429Z" fill="#0671B8"/>
<path d="M13.2652 9.13477V9.98542H12.4146V9.13477H13.2652Z" fill="#0671B8"/>
<path d="M8.00146 12.6787H8.84322V13.5294H8.00146V12.6787Z" fill="#0671B8"/>
<path d="M8.84322 17.0744H8.00146V16.2061H8.84322V17.0744Z" fill="#0671B8"/>
<path d="M18.9999 14C22.3136 14 24.9999 11.3137 24.9999 8C24.9999 4.68629 22.3136 2 18.9999 2C15.6862 2 13 4.68629 13 8C13 11.3137 15.6862 14 18.9999 14Z" fill="#FFB422" stroke="white" stroke-width="1.24" stroke-miterlimit="10"/>
<path d="M21.9402 7.17V10.07C21.9402 10.07 21.9402 10.1 21.9302 10.11C21.8602 10.67 21.4301 11.06 20.8601 11.06C19.9301 11.06 19.0001 11.06 18.0701 11.06C17.4601 11.06 17 10.6 17 9.98999C17 8.67999 17 7.37999 17 6.06999C17 5.45999 17.4601 5 18.0701 5C18.6801 5 19.2901 5 19.8901 5C19.9601 5 20.0201 4.99999 20.1001 5.00999C20.1001 5.03999 20.1001 5.07 20.1001 5.09C20.1001 5.49 20.1001 5.89999 20.1001 6.29999C20.1001 6.77999 20.4402 7.11 20.9102 7.11C21.2202 7.11 21.5401 7.11 21.8501 7.11H21.9202C21.9202 7.11 21.9302 7.15 21.9402 7.17ZM19.47 7.81999C19.1 7.81999 18.7201 7.81999 18.3501 7.81999C18.2201 7.81999 18.1301 7.91 18.1301 8.03C18.1301 8.15 18.2201 8.23999 18.3401 8.23999C19.0901 8.23999 19.8401 8.23999 20.5901 8.23999C20.6301 8.23999 20.68 8.22 20.72 8.2C20.8 8.15 20.83 8.05 20.8 7.97C20.77 7.88 20.6901 7.81999 20.5901 7.81999C20.2201 7.81999 19.85 7.81999 19.47 7.81999ZM19.1802 9.37C19.4602 9.37 19.74 9.37 20.01 9.37C20.14 9.37 20.24 9.27999 20.24 9.15999C20.24 9.03999 20.14 8.95 20.01 8.95C19.45 8.95 18.9001 8.95 18.3401 8.95C18.2901 8.95 18.2402 8.96999 18.2002 8.98999C18.1302 9.03999 18.1001 9.14 18.1301 9.22C18.1601 9.31 18.2401 9.37 18.3301 9.37C18.6101 9.37 18.8902 9.37 19.1702 9.37H19.1802Z" fill="white"/>
<path d="M20.55 5.2002C20.61 5.2602 20.68 5.32019 20.74 5.38019C21.06 5.76019 21.3802 6.15019 21.7102 6.54019C21.7502 6.58019 21.7801 6.6302 21.8101 6.6902C21.7901 6.6902 21.77 6.6902 21.76 6.6902C21.48 6.6902 21.1902 6.6902 20.9102 6.6902C20.6902 6.6902 20.54 6.5402 20.54 6.3102C20.54 5.9402 20.54 5.57019 20.54 5.21019C20.54 5.21019 20.5501 5.2102 20.5601 5.2002H20.55Z" fill="white"/>
</svg>
