<svg width="27" height="21" viewBox="0 0 27 21" fill="none" xmlns="http://www.w3.org/2000/svg">
<path d="M24.8228 20.9667H15.043C15.043 20.8774 15.043 20.7881 15.043 20.6988C15.043 18.265 15.043 15.8312 15.043 13.3974C15.043 13.2969 15.043 13.1964 15.043 13.0959C15.0095 12.5936 14.6635 12.2475 14.1499 12.2475C12.7097 12.2475 11.2583 12.2475 9.81812 12.2475C9.41621 12.2475 9.09245 12.4819 8.98081 12.8392C8.93615 12.9731 8.93618 13.1183 8.93618 13.2634C8.93618 15.7419 8.93618 18.2203 8.93618 20.7099C8.93618 20.7992 8.93618 20.8885 8.93618 20.9779H7.0159C6.49119 20.7881 6.32373 20.4085 6.32373 19.8614C6.33489 16.7913 6.32373 13.71 6.32373 10.6398C6.32373 10.5505 6.32373 10.4724 6.32373 10.383C6.614 10.4277 6.87082 10.4835 7.13876 10.4947C8.05422 10.5059 8.96963 10.4947 9.87393 10.4947C10.2982 10.4947 10.7113 10.383 11.0797 10.1709C11.2471 10.0704 11.4034 9.95881 11.5709 9.84717C12.1514 10.3607 12.8436 10.517 13.6027 10.5059C15.2215 10.4947 16.8293 10.5059 18.4481 10.5059C18.6714 10.5059 18.8946 10.4724 19.1179 10.4389C19.5645 10.3607 19.9441 10.1374 20.2902 9.84717C20.9042 10.3942 21.6298 10.5505 22.4225 10.517C22.8802 10.4947 23.3379 10.517 23.7956 10.517C24.365 10.517 24.9232 10.5617 25.4814 10.3942C25.4814 10.3942 25.5038 10.4054 25.5261 10.4277V10.6845C25.5261 13.7546 25.5261 16.8136 25.5261 19.8838C25.5261 20.4197 25.3587 20.8104 24.834 21.0002L24.8228 20.9667ZM19.8213 12.2475C19.1179 12.2475 18.4146 12.2475 17.7112 12.2475C17.1195 12.2475 16.7623 12.6047 16.7623 13.1853C16.7623 14.0114 16.7623 14.8375 16.7623 15.6637C16.7623 16.2554 17.1195 16.6015 17.7112 16.6015C19.1179 16.6015 20.5246 16.6015 21.9201 16.6015C22.523 16.6015 22.8691 16.2442 22.8802 15.6525C22.8802 14.8376 22.8802 14.0114 22.8802 13.1964C22.8802 12.5936 22.523 12.2475 21.9201 12.2475C21.2168 12.2475 20.5134 12.2475 19.8101 12.2475H19.8213Z" fill="#0671B8"/>
<path d="M5.43066 7.01123C5.50881 7.01123 5.57581 7.01123 5.65396 7.01123C12.4753 7.01123 19.3078 7.01123 26.1291 7.01123H26.3747C26.3635 7.54711 26.464 8.07183 26.2295 8.56305C25.9169 9.24407 25.37 9.60133 24.622 9.62366C23.7512 9.63483 22.8914 9.63483 22.0206 9.62366C21.161 9.6125 20.5134 9.08777 20.3125 8.25046C20.3013 8.2058 20.2902 8.16115 20.2679 8.083C20.1004 8.86449 19.6761 9.37805 18.9169 9.56784C18.7383 9.61249 18.5485 9.62366 18.3699 9.62366C16.7288 9.62366 15.0989 9.62366 13.4578 9.62366C12.4195 9.62366 11.783 9.13243 11.5374 8.09416C11.5151 8.16114 11.504 8.2058 11.4929 8.25046C11.2808 9.08777 10.6444 9.60133 9.78472 9.62366C8.91392 9.63483 8.05425 9.63483 7.18345 9.62366C6.30148 9.6125 5.65398 9.06544 5.46419 8.21696C5.46419 8.18347 5.44183 8.14998 5.43066 8.12765C5.43066 7.75923 5.43066 7.39082 5.43066 7.02241V7.01123Z" fill="#FFB422"/>
<path d="M17.9793 0.0336914C18.3812 2.06557 18.7831 4.07513 19.1961 6.10701H12.6094C13.0113 4.07513 13.4132 2.06557 13.8262 0.0336914H17.9904H17.9793Z" fill="#FFB422"/>
<path d="M10.8229 6.11811H5.66504C5.6762 6.05113 5.68733 5.9953 5.6985 5.93948C6.18972 4.20903 6.69213 2.47858 7.18335 0.736968C7.32849 0.245744 7.61874 0.0224609 8.14345 0.0224609C9.37151 0.0224609 10.6107 0.0224609 11.8388 0.0224609C11.8946 0.0224609 11.9617 0.0224609 12.0398 0.0224609C11.6267 2.06551 11.2248 4.08623 10.8229 6.11811Z" fill="#FFB422"/>
<path d="M19.7654 0.0111751C19.8547 0.0111751 19.9106 0.0111751 19.9664 0.0111751C21.1945 0.0111751 22.4224 0.0111751 23.6505 0.0111751C24.1975 0.0111751 24.4766 0.223282 24.6329 0.747998C25.1242 2.45612 25.6155 4.17541 26.1067 5.88353C26.129 5.95051 26.1401 6.0175 26.1624 6.09565H20.9935C20.5916 4.07493 20.1785 2.05421 19.7766 0L19.7654 0.0111751Z" fill="#FFB422"/>
<path d="M17.1724 7.56505C16.646 6.83496 16.1282 6.10487 15.6188 5.36629C15.2538 4.84844 14.7614 4.59375 14.1332 4.59375C10.3469 4.59375 6.56061 4.59375 2.78281 4.59375C1.72163 4.59375 1 5.30686 1 6.36804C1 8.1678 1 9.97604 1 11.7758C1 12.6927 1.4924 13.3124 2.39228 13.5246C2.40926 13.5246 2.41774 13.5416 2.43472 13.5501H14.4218C14.4897 13.5331 14.5576 13.5161 14.6255 13.4907C15.0415 13.3803 15.3641 13.1426 15.6103 12.786C16.2385 11.8862 16.8667 10.9778 17.5035 10.0864C17.7072 9.79777 17.8091 9.47516 17.86 9.13559V8.95732C17.8091 8.39701 17.4865 7.98103 17.1724 7.54807V7.56505ZM8.63199 9.22897H6.53512V11.3259C6.53512 11.5381 6.56057 11.5721 6.4587 11.5721C6.34833 11.5721 6.38232 11.5381 6.38232 11.3259V9.22897H4.2854C4.07317 9.22897 4.04773 9.24595 4.04773 9.15257C4.04773 9.04221 4.07317 9.07617 4.2854 9.07617H6.38232V6.97928C6.38232 6.76704 6.34833 6.73309 6.4587 6.73309C6.56906 6.73309 6.53512 6.76704 6.53512 6.97928V9.07617H8.63199C8.84422 9.07617 8.83573 9.04221 8.83573 9.15257C8.83573 9.24595 8.83573 9.22897 8.63199 9.22897ZM12.7748 10.1968C12.1551 10.1968 11.6542 9.6959 11.6542 9.07617C11.6542 8.46493 12.1551 7.96405 12.7663 7.95556C13.3861 7.95556 13.8954 8.44795 13.8954 9.06768C13.8954 9.68741 13.3946 10.1968 12.7748 10.1968Z" fill="#0671B8" stroke="white" stroke-width="0.602749" stroke-miterlimit="10"/>
</svg>
