<svg width="26" height="22" viewBox="0 0 26 22" fill="none" xmlns="http://www.w3.org/2000/svg">
<path d="M25.45 21.0711H0V20.7583C0.112957 20.7148 0.217229 20.6366 0.330186 20.628C0.660367 20.6106 0.990473 20.628 1.33803 20.628V7.85513C1.33803 7.81169 1.37286 7.77693 1.41631 7.77693H7.46381C7.50726 7.77693 7.54198 7.81169 7.54198 7.85513V20.6106H7.98513V12.6515H14.6409V20.6106H15.0667C15.0667 20.6106 15.0754 20.5411 15.0754 20.515C15.0754 17.8388 15.0754 15.1626 15.0754 12.4864C15.0754 12.2605 14.9972 12.1909 14.7626 12.1909C13.9198 12.1909 13.0769 12.1909 12.2341 12.1909H11.9907V2.52009C11.9907 2.47665 12.0256 2.44189 12.069 2.44189H18.1165C18.16 2.44189 18.1947 2.47665 18.1947 2.52009V20.6193C18.5423 20.6193 24.92 20.6106 25.2415 20.6193C25.3457 20.6193 25.4935 20.6801 25.5283 20.7583C25.563 20.8278 25.4674 20.9581 25.4327 21.0537L25.45 21.0711ZM16.6654 3.5454V17.274H17.5256V3.5454H16.6654ZM12.6685 3.5454V11.0614H13.5287V3.5454H12.6685ZM14.8582 11.0701V3.55408H13.998V11.0701H14.8582ZM15.3361 3.5454V11.0701H16.1963V3.5454H15.3361ZM9.11474 18.6121H13.5287V17.7519H9.11474V18.6121ZM13.5374 16.4225H9.12344V17.2827H13.5374V16.4225ZM9.11474 14.6152H13.5287V13.755H9.11474V14.6152ZM9.11474 15.0844V15.9533H13.5287V15.0844H9.11474ZM6.86432 12.8426V11.0961H6.00412V12.8426H6.86432ZM6.86432 19.4984V17.7519H6.00412V19.4984H6.86432ZM4.67468 17.7345V19.4897H5.52619V17.7345H4.67468ZM4.19674 19.4984V17.7432H3.33654V19.4984H4.19674ZM1.9984 19.4984H2.85861V17.7519H1.9984V19.4984ZM6.85563 17.2827V15.5362H5.99542V17.2827H6.85563ZM4.66598 15.5275V17.274H5.52619V15.5275H4.66598ZM2.8673 8.88044H1.9984V10.6269H2.8673V8.88044ZM3.32785 10.6182H4.18805V8.87176H3.32785V10.6182ZM4.66598 8.87176V10.6182H5.52619V8.87176H4.66598ZM6.85563 10.6269V8.87176H6.00412V10.6269H6.85563ZM3.33654 15.5275V17.2827H4.19674V15.5275H3.33654ZM2.876 11.0961H2.0158V12.8426H2.876V11.0961ZM3.34524 11.0961V12.8426H4.20544V11.0961H3.34524ZM4.67468 11.0961V12.8513H5.53488V11.0961H4.67468ZM2.8673 17.3001V15.5449H2.0158V17.3001H2.8673ZM2.8673 15.0757V13.3205H2.0071V15.0757H2.8673ZM4.19674 15.0757V13.3292H3.33654V15.0757H4.19674ZM4.66598 15.0757H5.52619V13.3292H4.66598V15.0757ZM6.85563 15.0757V13.3292H5.99542V15.0757H6.85563Z" fill="#0671B8"/>
<path d="M4.89209 7.3076V5.10059H11.5218V12.1734H7.98532V11.9301C7.98532 10.5225 7.98532 9.1236 7.98532 7.71598C7.98532 7.34235 7.95059 7.3076 7.58566 7.3076C6.76889 7.3076 5.96076 7.3076 5.144 7.3076H4.89209ZM6.86451 6.63854V5.76964H6.00431V6.63854H6.86451ZM10.0012 9.75789V10.6181H10.8614V9.75789H10.0012ZM10.0012 8.42847V9.28869H10.8614V8.42847H10.0012ZM9.52328 9.29737V8.42847H8.67178V9.29737H9.52328ZM10.8527 7.95927V7.09037H9.99252V7.95927H10.8527ZM8.65438 7.95057H9.52328V7.09037H8.65438V7.95057ZM10.8527 6.62986V5.76964H9.99252V6.62986H10.8527ZM9.51459 6.62986V5.76096H8.65438V6.62986H9.51459ZM8.19384 5.76964H7.33364V6.62986H8.19384V5.76964ZM8.66308 9.7492V10.6181H9.52328V9.7492H8.66308Z" fill="#FFB422"/>
<path d="M6.22119 4.55315V3.39751C6.22119 3.35406 6.25592 3.31931 6.29936 3.31931H7.09868C7.09868 2.81535 7.09868 2.33745 7.09868 1.85955C7.09868 1.78135 7.09868 1.71185 7.09868 1.63365C7.09868 1.47724 7.15082 1.36429 7.31591 1.36429C7.481 1.36429 7.54183 1.47724 7.54183 1.63365C7.54183 2.11154 7.54183 2.59811 7.54183 3.07601C7.54183 3.14552 7.54183 3.22373 7.54183 3.30193H8.42812C8.42812 3.22373 8.42812 3.14552 8.42812 3.06732C8.42812 2.294 8.42812 1.512 8.42812 0.738681C8.42812 0.582279 8.48895 0.469319 8.65405 0.478008C8.80176 0.478008 8.87127 0.590959 8.87127 0.729983C8.87127 0.782117 8.87127 0.834258 8.87127 0.886392C8.87127 1.59889 8.87127 2.32008 8.87127 3.03257C8.87127 3.11077 8.87127 3.19766 8.87127 3.30193H9.662C9.70544 3.30193 9.74017 3.33668 9.74017 3.38013V4.54445C9.74017 4.58789 9.70544 4.62266 9.662 4.62266H6.29936C6.25592 4.62266 6.22119 4.58789 6.22119 4.54445V4.55315Z" fill="#FFB422"/>
<path d="M16.7699 1.1123H13.4073C13.3641 1.1123 13.3291 1.14731 13.3291 1.1905V1.89431C13.3291 1.9375 13.3641 1.97252 13.4073 1.97252H16.7699C16.8131 1.97252 16.8482 1.9375 16.8482 1.89431V1.1905C16.8482 1.14731 16.8131 1.1123 16.7699 1.1123Z" fill="#0671B8"/>
<path d="M16.0225 0.0781977V0.77332C16.0225 0.816765 16.0051 0.851517 15.9791 0.851517H14.1978C14.1978 0.851517 14.1543 0.816765 14.1543 0.77332V0.0781977C14.1543 0.0347528 14.1717 0 14.1978 0H15.9791C15.9791 0 16.0225 0.0347528 16.0225 0.0781977Z" fill="#0671B8"/>
<path d="M21.0709 4.63142V5.32654C21.0709 5.36999 21.0448 5.40474 21.0187 5.40474H18.7944C18.7944 5.40474 18.7422 5.36999 18.7422 5.32654V4.63142C18.7422 4.58798 18.7683 4.55322 18.7944 4.55322H21.0187C21.0187 4.55322 21.0709 4.58798 21.0709 4.63142Z" fill="#0671B8"/>
<path d="M23.6426 4.63142V5.32654C23.6426 5.36999 23.6165 5.40474 23.5905 5.40474H21.366C21.366 5.40474 21.314 5.36999 21.314 5.32654V4.63142C21.314 4.58798 21.34 4.55322 21.366 4.55322H23.5905C23.5905 4.55322 23.6426 4.58798 23.6426 4.63142Z" fill="#0671B8"/>
<path d="M18.2035 5.7085H24.0252C24.1208 5.7085 24.1989 5.78669 24.1989 5.88227V20.7318H18.1948V5.7085H18.2035Z" fill="#0671B8"/>
<path d="M19.6634 6.45605H18.8032V7.31627H19.6634V6.45605Z" fill="white"/>
<path d="M20.9842 6.45605H20.124V7.31627H20.9842V6.45605Z" fill="white"/>
<path d="M22.305 6.45605H21.4448V7.31627H22.305V6.45605Z" fill="white"/>
<path d="M23.6253 6.45605H22.7651V7.31627H23.6253V6.45605Z" fill="white"/>
<path d="M19.6634 7.68994H18.8032V8.55014H19.6634V7.68994Z" fill="white"/>
<path d="M20.9842 7.68994H20.124V8.55014H20.9842V7.68994Z" fill="white"/>
<path d="M22.305 7.68994H21.4448V8.55014H22.305V7.68994Z" fill="white"/>
<path d="M23.6253 7.68994H22.7651V8.55014H23.6253V7.68994Z" fill="white"/>
<path d="M19.6634 8.97559H18.8032V9.8358H19.6634V8.97559Z" fill="white"/>
<path d="M20.9842 8.97559H20.124V9.8358H20.9842V8.97559Z" fill="white"/>
<path d="M22.305 8.97559H21.4448V9.8358H22.305V8.97559Z" fill="white"/>
<path d="M23.6253 8.97559H22.7651V9.8358H23.6253V8.97559Z" fill="white"/>
<path d="M19.6634 10.2095H18.8032V11.0697H19.6634V10.2095Z" fill="white"/>
<path d="M20.9842 10.2095H20.124V11.0697H20.9842V10.2095Z" fill="white"/>
<path d="M22.305 10.2095H21.4448V11.0697H22.305V10.2095Z" fill="white"/>
<path d="M23.6253 10.2095H22.7651V11.0697H23.6253V10.2095Z" fill="white"/>
<path d="M19.6634 11.4609H18.8032V12.3211H19.6634V11.4609Z" fill="white"/>
<path d="M20.9842 11.4609H20.124V12.3211H20.9842V11.4609Z" fill="white"/>
<path d="M22.305 11.4609H21.4448V12.3211H22.305V11.4609Z" fill="white"/>
<path d="M19.6634 12.7036H18.8032V13.5638H19.6634V12.7036Z" fill="white"/>
<path d="M20.9842 12.7036H20.124V13.5638H20.9842V12.7036Z" fill="white"/>
<path d="M22.305 12.7036H21.4448V13.5638H22.305V12.7036Z" fill="white"/>
<path d="M19.6634 13.9805H18.8032V14.8407H19.6634V13.9805Z" fill="white"/>
<path d="M20.9842 13.9805H20.124V14.8407H20.9842V13.9805Z" fill="white"/>
<path d="M19.6634 15.2144H18.8032V16.0746H19.6634V15.2144Z" fill="white"/>
<path d="M20.9842 15.2144H20.124V16.0746H20.9842V15.2144Z" fill="white"/>
</svg>
