<svg width="32" height="32" viewBox="0 0 32 32" fill="none" xmlns="http://www.w3.org/2000/svg">
<path d="M19.8978 30.03C19.4678 29.86 19.2978 29.54 19.3178 29.09C19.3378 28.7 19.2978 28.3 19.3178 27.91C19.3478 27.53 19.2178 27.25 18.9578 26.97C17.9478 25.88 17.1078 24.67 16.5378 23.29C16.3878 22.93 16.2778 22.55 16.2178 22.17C16.1378 21.63 16.4278 21.15 16.8878 20.94C17.3578 20.73 17.9278 20.84 18.2878 21.25C18.4478 21.43 18.5778 21.63 18.7178 21.81C18.9778 22.15 19.3178 22.38 19.7878 22.5C19.7878 22.37 19.7878 22.27 19.7878 22.16C19.7878 19.75 19.7878 17.35 19.7878 14.94C19.7878 14.07 20.5078 13.53 21.3178 13.77C21.7478 13.9 22.0178 14.22 22.0778 14.68C22.2278 15.95 22.3778 17.21 22.5178 18.48C22.5278 18.59 22.5578 18.69 22.5678 18.8C23.7178 18.75 24.7278 19.3 25.7978 19.54C26.2178 19.64 26.6378 19.79 27.0478 19.92C27.6878 20.12 28.1278 20.72 28.1378 21.4C28.1378 22.42 28.1378 23.44 28.1378 24.46C28.1378 25.16 27.9978 25.81 27.5978 26.37C27.1478 27 26.9478 27.67 27.0378 28.44C27.0678 28.65 27.0278 28.86 27.0378 29.07C27.0778 29.53 26.8978 29.84 26.4778 30.03H19.8678H19.8978Z" fill="#0671B8"/>
<path d="M17.3478 25.94C16.9778 25.33 16.5778 24.72 16.2478 24.08C15.9278 23.47 15.6378 22.83 15.6078 22.13C15.5878 21.82 15.4678 21.73 15.1978 21.73C14.6778 21.73 14.6078 21.64 14.6078 21.12V14.12C14.3778 14.36 14.1178 14.56 13.8378 14.73C13.5778 14.9 13.2978 15.03 12.9978 15.14C12.9878 16.73 12.9878 18.31 12.9878 19.9V24.65C12.9878 24.77 12.9978 24.9 13.0078 25.03C13.0778 25.65 13.6078 26.22 14.2278 26.24C15.2178 26.27 16.2078 26.24 17.2078 26.24C17.4878 26.24 17.4978 26.17 17.3478 25.93V25.94ZM28.6078 3.06C28.4278 2.38 27.8778 2 27.1078 2H15.0578C14.8278 2 14.6078 2 14.3778 2C13.8678 2.03 13.4378 2.24 13.2078 2.69C13.0978 2.92 13.0278 3.2 13.0078 3.46C12.9978 3.5 12.9978 3.53 12.9978 3.57V6.5C13.5878 6.54 14.1378 6.72 14.6078 7.02V5.33C14.6078 4.83 14.6978 4.74 15.1978 4.74H26.4278C26.9578 4.74 27.0478 4.83 27.0478 5.35V14.22C27.0478 15.75 27.0578 17.28 27.0478 18.82C27.0478 19.11 27.1278 19.3 27.4178 19.4C27.8178 19.53 28.1178 19.81 28.3678 20.15C28.4278 20.24 28.5078 20.32 28.5778 20.41C28.5978 20.41 28.6178 20.39 28.6378 20.39C28.6478 20.27 28.6678 20.16 28.6678 20.05V3.6C28.6678 3.42 28.6578 3.23 28.6078 3.06ZM21.8478 3.81H19.8078C19.5378 3.8 19.3778 3.67 19.3878 3.45C19.4078 3.2 19.5678 3.1 19.7878 3.1C20.4778 3.1 21.1678 3.1 21.8578 3.1C22.0878 3.1 22.2478 3.2 22.2678 3.45C22.2778 3.67 22.1178 3.8 21.8478 3.81Z" fill="#0671B8"/>
<path d="M22.7578 15.2602C22.7078 14.5702 22.6578 13.9202 22.0978 13.4902C21.7878 13.2502 21.4278 13.1002 21.0378 13.1202C19.5078 13.1902 19.0978 14.1702 19.1878 15.5202C18.6778 15.2702 18.2378 14.1102 18.3378 13.3902C18.4878 12.2902 19.2978 11.4102 20.3478 11.2102C21.3878 11.0102 22.4978 11.5202 22.9978 12.4202C23.5178 13.3602 23.4378 14.5102 22.7578 15.2602Z" fill="#0671B8"/>
<path d="M17.6278 10.5C18.0578 10.51 18.2878 10.87 18.1478 11.18C18.1078 11.28 18.0378 11.37 17.9778 11.46C17.1178 12.75 17.1078 14.16 17.9578 15.44C17.9978 15.5 18.0378 15.56 18.0778 15.62C18.2278 15.89 18.1778 16.17 17.9578 16.32C17.7378 16.47 17.4578 16.41 17.2578 16.17C16.0278 14.69 16.0378 12.14 17.2878 10.7C17.3878 10.59 17.5478 10.53 17.6178 10.48L17.6278 10.5Z" fill="#0671B8"/>
<path d="M25.3378 13.43C25.2978 14.42 25.0178 15.31 24.4278 16.11C24.1978 16.42 23.8978 16.5 23.6578 16.33C23.4078 16.15 23.3778 15.86 23.6178 15.54C24.1678 14.77 24.4278 13.93 24.2678 12.99C24.1878 12.53 23.9778 12.1 23.8078 11.66C23.7578 11.53 23.6478 11.42 23.5778 11.29C23.4178 11.02 23.4678 10.74 23.6878 10.59C23.9178 10.43 24.1878 10.48 24.3878 10.73C24.7878 11.23 25.0578 11.79 25.1978 12.41C25.2678 12.75 25.2978 13.09 25.3478 13.43H25.3378Z" fill="#0671B8"/>
<path d="M19.2679 10.0399C18.9679 7.91995 17.8079 6.11995 16.1979 4.94995C16.0979 4.86995 15.9979 4.79995 15.8879 4.73995C15.0179 4.14995 14.0379 3.74995 12.9979 3.56995C12.6679 3.50995 12.3279 3.46995 11.9879 3.45995C11.3779 3.43995 10.7679 3.47995 10.1479 3.60995C7.01789 4.25995 4.61789 6.75995 4.10789 9.90995C3.55789 13.1599 5.14789 16.3999 8.02789 17.9699C8.17789 18.0399 8.31789 18.1699 8.40789 18.3099C9.22789 19.5399 10.0079 20.7899 10.8279 21.9999C10.9779 22.2199 11.2179 22.4299 11.4479 22.5299C11.6379 22.5999 11.7979 22.5999 11.9579 22.5299C12.1679 22.4599 12.3679 22.2699 12.5279 22.0299C12.6779 21.7899 12.8379 21.5599 12.9879 21.3199C13.2679 20.8799 13.5479 20.4399 13.8379 20.0099C14.0879 19.6199 14.3479 19.2199 14.6079 18.8299C14.7079 18.6599 14.8179 18.4899 14.9279 18.3299C15.0379 18.1599 15.1979 18.0299 15.3579 17.9299C15.7079 17.7399 16.0379 17.5099 16.3379 17.2799C16.6879 17.0299 16.9979 16.7499 17.2679 16.4499C17.3179 16.3999 17.3579 16.3499 17.4079 16.2999C17.6379 16.0499 17.8479 15.7899 18.0279 15.5199C18.0779 15.4499 18.1279 15.3799 18.1679 15.3099C18.3079 15.0899 18.4379 14.8599 18.5479 14.6199C18.7779 14.1699 18.9579 13.6899 19.0879 13.1899C19.2079 12.6899 19.3079 12.1799 19.3479 11.6399C19.3679 11.4799 19.3779 11.3299 19.3879 11.1699C19.3579 10.7699 19.3279 10.3999 19.2679 10.0299V10.0399ZM14.6079 14.1199C14.3779 14.3599 14.1179 14.5599 13.8379 14.7299C13.5779 14.8999 13.2979 15.0299 12.9979 15.1399C12.6779 15.2399 12.3279 15.3099 11.9779 15.3299C11.8779 15.3399 11.7779 15.3399 11.6679 15.3399C9.37789 15.3299 7.51789 13.4799 7.50789 11.1799C7.49789 8.87995 9.37789 6.98995 11.6679 6.97995C11.7779 6.97995 11.8679 6.97995 11.9779 6.97995C12.6579 7.01995 13.2979 7.22995 13.8379 7.57995C15.0479 8.30995 15.8479 9.64995 15.8479 11.1599C15.8479 12.3099 15.3779 13.3599 14.6079 14.1099V14.1199Z" fill="#FFB422" stroke="white" stroke-miterlimit="10"/>
</svg>
